0, 0, Header, 0, 1, 240
1, 0, Start_track
1, 0, Key_signature, 0, "major"
1, 0, SMPTE_offset, 96, 0, 0, 0, 0
1, 0, Sequencer_specific, 24, 0, 0, 0, 106, 0, 1, 0, 0, 0, 0, 0, 0, 0, 0, 0, 0, 0, 0, 0, 0, 0, 0, 29, 29
1, 0, Tempo, 588235
1, 0, Time_signature, 4, 2, 24, 8
1, 0, Lyric_t, "Closed hat"
1, 0, Note_on_c, 9, 42, 64
1, 0, Lyric_t, "Snare drum"
1, 0, Lyric_t, "Bass drum"
1, 0, Note_on_c, 9, 36, 64
1, 0, Lyric_t, "(c) 1991 joel Sampson"
1, 0, Poly_aftertouch_c, 0, 60, 64
1, 80, Note_on_c, 9, 42, 0
1, 80, Note_on_c, 9, 36, 0
1, 80, Note_on_c, 9, 42, 64
1, 160, Note_on_c, 9, 42, 64
1, 160, Note_on_c, 9, 36, 64
1, 161, Note_on_c, 9, 42, 0
1, 240, Note_on_c, 9, 36, 0
1, 240, Note_on_c, 9, 42, 64
1, 240, Note_on_c, 9, 38, 64
1, 241, Note_on_c, 9, 42, 0
1, 320, Note_on_c, 9, 38, 0
1, 320, Note_on_c, 9, 42, 64
1, 321, Note_on_c, 9, 42, 0
1, 400, Note_on_c, 9, 42, 64
1, 400, Note_on_c, 9, 36, 64
1, 401, Note_on_c, 9, 42, 0
1, 480, Note_on_c, 9, 36, 0
1, 480, Note_on_c, 9, 42, 64
1, 480, Note_on_c, 9, 36, 64
1, 481, Note_on_c, 9, 42, 0
1, 560, Note_on_c, 9, 36, 0
1, 560, Note_on_c, 9, 42, 64
1, 561, Note_on_c, 9, 42, 0
1, 640, Note_on_c, 9, 42, 64
1, 640, Note_on_c, 9, 36, 64
1, 641, Note_on_c, 9, 42, 0
1, 720, Note_on_c, 9, 36, 0
1, 720, Note_on_c, 9, 42, 64
1, 720, Note_on_c, 9, 38, 64
1, 721, Note_on_c, 9, 42, 0
1, 800, Note_on_c, 9, 38, 0
1, 800, Note_on_c, 9, 42, 64
1, 800, Note_on_c, 9, 36, 64
1, 801, Note_on_c, 9, 42, 0
1, 880, Note_on_c, 9, 36, 0
1, 880, Note_on_c, 9, 42, 64
1, 880, Note_on_c, 9, 36, 64
1, 881, Note_on_c, 9, 42, 0
1, 960, Note_on_c, 9, 42, 64
1, 960, Note_on_c, 9, 36, 64
1, 961, Note_on_c, 9, 42, 0
1, 961, Note_on_c, 9, 36, 0
1, 1040, Note_on_c, 9, 36, 0
1, 1040, Note_on_c, 9, 42, 64
1, 1041, Note_on_c, 9, 42, 0
1, 1120, Note_on_c, 9, 42, 64
1, 1120, Note_on_c, 9, 36, 64
1, 1121, Note_on_c, 9, 42, 0
1, 1200, Note_on_c, 9, 36, 0
1, 1200, Note_on_c, 9, 42, 64
1, 1200, Note_on_c, 9, 38, 64
1, 1201, Note_on_c, 9, 42, 0
1, 1280, Note_on_c, 9, 38, 0
1, 1280, Note_on_c, 9, 42, 64
1, 1281, Note_on_c, 9, 42, 0
1, 1360, Note_on_c, 9, 42, 64
1, 1360, Note_on_c, 9, 36, 64
1, 1361, Note_on_c, 9, 42, 0
1, 1440, Note_on_c, 9, 36, 0
1, 1440, Note_on_c, 9, 42, 64
1, 1440, Note_on_c, 9, 36, 64
1, 1441, Note_on_c, 9, 42, 0
1, 1520, Note_on_c, 9, 36, 0
1, 1520, Note_on_c, 9, 42, 64
1, 1521, Note_on_c, 9, 42, 0
1, 1600, Note_on_c, 9, 42, 64
1, 1600, Note_on_c, 9, 36, 64
1, 1601, Note_on_c, 9, 42, 0
1, 1680, Note_on_c, 9, 36, 0
1, 1680, Note_on_c, 9, 42, 64
1, 1680, Note_on_c, 9, 38, 64
1, 1681, Note_on_c, 9, 42, 0
1, 1760, Note_on_c, 9, 38, 0
1, 1760, Note_on_c, 9, 42, 64
1, 1760, Note_on_c, 9, 36, 64
1, 1761, Note_on_c, 9, 42, 0
1, 1840, Note_on_c, 9, 36, 0
1, 1840, Note_on_c, 9, 42, 64
1, 1840, Note_on_c, 9, 36, 64
1, 1841, Note_on_c, 9, 42, 0
1, 1920, Note_on_c, 9, 42, 64
1, 1920, Note_on_c, 9, 36, 64
1, 1921, Note_on_c, 9, 42, 0
1, 1921, Note_on_c, 9, 36, 0
1, 2000, Note_on_c, 9, 36, 0
1, 2000, Note_on_c, 9, 42, 64
1, 2001, Note_on_c, 9, 42, 0
1, 2080, Note_on_c, 9, 42, 64
1, 2080, Note_on_c, 9, 36, 64
1, 2081, Note_on_c, 9, 42, 0
1, 2160, Note_on_c, 9, 36, 0
1, 2160, Note_on_c, 9, 42, 64
1, 2160, Note_on_c, 9, 38, 64
1, 2161, Note_on_c, 9, 42, 0
1, 2240, Note_on_c, 9, 38, 0
1, 2240, Note_on_c, 9, 42, 64
1, 2241, Note_on_c, 9, 42, 0
1, 2320, Note_on_c, 9, 42, 64
1, 2320, Note_on_c, 9, 36, 64
1, 2321, Note_on_c, 9, 42, 0
1, 2400, Note_on_c, 9, 36, 0
1, 2400, Note_on_c, 9, 42, 64
1, 2400, Note_on_c, 9, 36, 64
1, 2401, Note_on_c, 9, 42, 0
1, 2480, Note_on_c, 9, 36, 0
1, 2480, Note_on_c, 9, 42, 64
1, 2481, Note_on_c, 9, 42, 0
1, 2560, Note_on_c, 9, 42, 64
1, 2560, Note_on_c, 9, 36, 64
1, 2561, Note_on_c, 9, 42, 0
1, 2640, Note_on_c, 9, 36, 0
1, 2640, Note_on_c, 9, 42, 64
1, 2640, Note_on_c, 9, 38, 64
1, 2641, Note_on_c, 9, 42, 0
1, 2720, Note_on_c, 9, 38, 0
1, 2720, Note_on_c, 9, 42, 64
1, 2720, Note_on_c, 9, 36, 64
1, 2721, Note_on_c, 9, 42, 0
1, 2800, Note_on_c, 9, 36, 0
1, 2800, Note_on_c, 9, 42, 64
1, 2801, Note_on_c, 9, 42, 0
1, 2880, Note_on_c, 9, 42, 64
1, 2880, Note_on_c, 9, 36, 64
1, 2881, Note_on_c, 9, 42, 0
1, 2960, Note_on_c, 9, 36, 0
1, 2960, Note_on_c, 9, 42, 64
1, 2961, Note_on_c, 9, 42, 0
1, 3040, Note_on_c, 9, 42, 64
1, 3040, Note_on_c, 9, 36, 64
1, 3041, Note_on_c, 9, 42, 0
1, 3120, Note_on_c, 9, 36, 0
1, 3120, Note_on_c, 9, 42, 64
1, 3120, Note_on_c, 9, 38, 64
1, 3121, Note_on_c, 9, 42, 0
1, 3200, Note_on_c, 9, 38, 0
1, 3200, Note_on_c, 9, 42, 64
1, 3201, Note_on_c, 9, 42, 0
1, 3280, Note_on_c, 9, 42, 64
1, 3280, Note_on_c, 9, 36, 64
1, 3281, Note_on_c, 9, 42, 0
1, 3360, Note_on_c, 9, 36, 0
1, 3360, Note_on_c, 9, 42, 64
1, 3360, Note_on_c, 9, 36, 64
1, 3361, Note_on_c, 9, 42, 0
1, 3440, Note_on_c, 9, 36, 0
1, 3440, Note_on_c, 9, 42, 64
1, 3441, Note_on_c, 9, 42, 0
1, 3520, Note_on_c, 9, 42, 64
1, 3520, Note_on_c, 9, 36, 64
1, 3521, Note_on_c, 9, 42, 0
1, 3600, Note_on_c, 9, 36, 0
1, 3600, Note_on_c, 9, 42, 64
1, 3600, Note_on_c, 9, 38, 64
1, 3601, Note_on_c, 9, 42, 0
1, 3680, Note_on_c, 9, 38, 0
1, 3680, Note_on_c, 9, 42, 64
1, 3680, Note_on_c, 9, 36, 64
1, 3681, Note_on_c, 9, 42, 0
1, 3760, Note_on_c, 9, 36, 0
1, 3760, Note_on_c, 9, 42, 64
1, 3761, Note_on_c, 9, 42, 0
1, 3840, Note_on_c, 9, 42, 64
1, 3840, Note_on_c, 9, 38, 64
1, 3840, Note_on_c, 9, 36, 64
1, 3841, Note_on_c, 9, 42, 0
1, 3920, Note_on_c, 9, 38, 0
1, 3920, Note_on_c, 9, 36, 0
1, 3920, Note_on_c, 9, 42, 64
1, 3920, Note_on_c, 9, 38, 64
1, 3920, Note_on_c, 9, 36, 64
1, 3921, Note_on_c, 9, 42, 0
1, 4000, Note_on_c, 9, 42, 64
1, 4000, Note_on_c, 9, 38, 64
1, 4000, Note_on_c, 9, 36, 64
1, 4001, Note_on_c, 9, 42, 0
1, 4001, Note_on_c, 9, 38, 0
1, 4001, Note_on_c, 9, 36, 0
1, 4080, Note_on_c, 9, 42, 64
1, 4080, Note_on_c, 9, 38, 64
1, 4080, Note_on_c, 9, 36, 64
1, 4081, Note_on_c, 9, 42, 0
1, 4081, Note_on_c, 9, 38, 0
1, 4081, Note_on_c, 9, 36, 0
1, 4160, Note_on_c, 9, 42, 64
1, 4160, Note_on_c, 9, 38, 64
1, 4160, Note_on_c, 9, 36, 64
1, 4161, Note_on_c, 9, 42, 0
1, 4161, Note_on_c, 9, 38, 0
1, 4161, Note_on_c, 9, 36, 0
1, 4240, Note_on_c, 9, 42, 64
1, 4240, Note_on_c, 9, 38, 64
1, 4240, Note_on_c, 9, 36, 64
1, 4241, Note_on_c, 9, 42, 0
1, 4241, Note_on_c, 9, 38, 0
1, 4241, Note_on_c, 9, 36, 0
1, 4320, Note_on_c, 9, 42, 64
1, 4320, Note_on_c, 9, 38, 64
1, 4320, Note_on_c, 9, 36, 64
1, 4321, Note_on_c, 9, 42, 0
1, 4321, Note_on_c, 9, 38, 0
1, 4321, Note_on_c, 9, 36, 0
1, 4400, Note_on_c, 9, 42, 64
1, 4400, Note_on_c, 9, 38, 64
1, 4400, Note_on_c, 9, 36, 64
1, 4401, Note_on_c, 9, 42, 0
1, 4401, Note_on_c, 9, 38, 0
1, 4401, Note_on_c, 9, 36, 0
1, 4480, Note_on_c, 9, 42, 64
1, 4480, Note_on_c, 9, 38, 64
1, 4480, Note_on_c, 9, 36, 64
1, 4481, Note_on_c, 9, 42, 0
1, 4481, Note_on_c, 9, 38, 0
1, 4481, Note_on_c, 9, 36, 0
1, 4560, Note_on_c, 9, 42, 0
1, 4560, Note_on_c, 9, 36, 0
1, 4560, Note_on_c, 9, 38, 64
1, 4561, Note_on_c, 9, 38, 0
1, 4640, Note_on_c, 9, 38, 64
1, 4641, Note_on_c, 9, 38, 0
1, 4720, Note_on_c, 9, 38, 64
1, 4721, Note_on_c, 9, 38, 0
1, 4800, Note_on_c, 9, 42, 64
1, 4800, Note_on_c, 9, 38, 64
1, 4800, Note_on_c, 9, 36, 64
1, 4801, Note_on_c, 9, 38, 0
1, 4880, Note_on_c, 9, 42, 0
1, 4880, Note_on_c, 9, 36, 0
1, 4880, Note_on_c, 9, 42, 64
1, 4880, Note_on_c, 9, 38, 64
1, 4880, Note_on_c, 9, 36, 64
1, 4881, Note_on_c, 9, 38, 0
1, 4960, Note_on_c, 9, 42, 64
1, 4960, Note_on_c, 9, 38, 64
1, 4960, Note_on_c, 9, 36, 64
1, 4961, Note_on_c, 9, 42, 0
1, 4961, Note_on_c, 9, 38, 0
1, 4961, Note_on_c, 9, 36, 0
1, 5040, Note_on_c, 9, 42, 64
1, 5040, Note_on_c, 9, 38, 64
1, 5040, Note_on_c, 9, 36, 64
1, 5041, Note_on_c, 9, 42, 0
1, 5041, Note_on_c, 9, 38, 0
1, 5041, Note_on_c, 9, 36, 0
1, 5120, Note_on_c, 9, 42, 64
1, 5120, Note_on_c, 9, 38, 64
1, 5120, Note_on_c, 9, 36, 64
1, 5121, Note_on_c, 9, 42, 0
1, 5121, Note_on_c, 9, 38, 0
1, 5121, Note_on_c, 9, 36, 0
1, 5200, Note_on_c, 9, 42, 64
1, 5200, Note_on_c, 9, 38, 64
1, 5200, Note_on_c, 9, 36, 64
1, 5201, Note_on_c, 9, 42, 0
1, 5201, Note_on_c, 9, 38, 0
1, 5201, Note_on_c, 9, 36, 0
1, 5280, Note_on_c, 9, 42, 64
1, 5280, Note_on_c, 9, 38, 64
1, 5280, Note_on_c, 9, 36, 64
1, 5281, Note_on_c, 9, 42, 0
1, 5281, Note_on_c, 9, 38, 0
1, 5281, Note_on_c, 9, 36, 0
1, 5360, Note_on_c, 9, 42, 64
1, 5360, Note_on_c, 9, 38, 64
1, 5360, Note_on_c, 9, 36, 64
1, 5361, Note_on_c, 9, 42, 0
1, 5361, Note_on_c, 9, 38, 0
1, 5361, Note_on_c, 9, 36, 0
1, 5440, Note_on_c, 9, 42, 64
1, 5440, Note_on_c, 9, 38, 64
1, 5440, Note_on_c, 9, 36, 64
1, 5441, Note_on_c, 9, 42, 0
1, 5441, Note_on_c, 9, 38, 0
1, 5441, Note_on_c, 9, 36, 0
1, 5520, Note_on_c, 9, 42, 0
1, 5520, Note_on_c, 9, 36, 0
1, 5520, Note_on_c, 9, 38, 64
1, 5521, Note_on_c, 9, 38, 0
1, 5600, Note_on_c, 9, 38, 64
1, 5601, Note_on_c, 9, 38, 0
1, 5680, Note_on_c, 9, 38, 64
1, 5681, Note_on_c, 9, 38, 0
1, 5760, Note_on_c, 9, 38, 0
1, 5760, Note_on_c, 9, 42, 64
1, 5760, Note_on_c, 9, 36, 64
1, 5840, Note_on_c, 9, 42, 0
1, 5840, Note_on_c, 9, 36, 0
1, 5920, Note_on_c, 9, 42, 64
1, 5920, Note_on_c, 9, 36, 64
1, 6000, Note_on_c, 9, 42, 0
1, 6000, Note_on_c, 9, 36, 0
1, 6000, Note_on_c, 9, 42, 64
1, 6000, Note_on_c, 9, 38, 64
1, 6080, Note_on_c, 9, 42, 0
1, 6080, Note_on_c, 9, 38, 0
1, 6080, Note_on_c, 9, 36, 64
1, 6160, Note_on_c, 9, 36, 0
1, 6160, Note_on_c, 9, 42, 64
1, 6240, Note_on_c, 9, 42, 0
1, 6240, Note_on_c, 9, 42, 64
1, 6240, Note_on_c, 9, 36, 64
1, 6320, Note_on_c, 9, 42, 0
1, 6320, Note_on_c, 9, 36, 0
1, 6400, Note_on_c, 9, 42, 64
1, 6400, Note_on_c, 9, 36, 64
1, 6480, Note_on_c, 9, 42, 0
1, 6480, Note_on_c, 9, 36, 0
1, 6480, Note_on_c, 9, 42, 64
1, 6480, Note_on_c, 9, 38, 64
1, 6560, Note_on_c, 9, 42, 0
1, 6560, Note_on_c, 9, 38, 0
1, 6560, Note_on_c, 9, 36, 64
1, 6640, Note_on_c, 9, 36, 0
1, 6640, Note_on_c, 9, 42, 64
1, 6720, Note_on_c, 9, 42, 0
1, 6720, Note_on_c, 9, 42, 64
1, 6720, Note_on_c, 9, 36, 64
1, 6800, Note_on_c, 9, 42, 0
1, 6800, Note_on_c, 9, 36, 0
1, 6880, Note_on_c, 9, 42, 64
1, 6880, Note_on_c, 9, 36, 64
1, 6960, Note_on_c, 9, 42, 0
1, 6960, Note_on_c, 9, 36, 0
1, 6960, Note_on_c, 9, 42, 64
1, 6960, Note_on_c, 9, 38, 64
1, 7040, Note_on_c, 9, 42, 0
1, 7040, Note_on_c, 9, 38, 0
1, 7040, Note_on_c, 9, 36, 64
1, 7120, Note_on_c, 9, 36, 0
1, 7120, Note_on_c, 9, 42, 64
1, 7200, Note_on_c, 9, 42, 0
1, 7200, Note_on_c, 9, 42, 64
1, 7200, Note_on_c, 9, 36, 64
1, 7280, Note_on_c, 9, 42, 0
1, 7280, Note_on_c, 9, 36, 0
1, 7360, Note_on_c, 9, 42, 64
1, 7360, Note_on_c, 9, 36, 64
1, 7440, Note_on_c, 9, 42, 0
1, 7440, Note_on_c, 9, 36, 0
1, 7440, Note_on_c, 9, 42, 64
1, 7440, Note_on_c, 9, 38, 64
1, 7520, Note_on_c, 9, 42, 0
1, 7520, Note_on_c, 9, 38, 0
1, 7520, Note_on_c, 9, 36, 64
1, 7600, Note_on_c, 9, 36, 0
1, 7600, Note_on_c, 9, 42, 64
1, 7680, Note_on_c, 9, 42, 64
1, 7680, Note_on_c, 9, 36, 64
1, 7681, Note_on_c, 9, 42, 0
1, 7760, Note_on_c, 9, 36, 0
1, 7760, Note_on_c, 9, 42, 64
1, 7761, Note_on_c, 9, 42, 0
1, 7840, Note_on_c, 9, 42, 64
1, 7840, Note_on_c, 9, 36, 64
1, 7841, Note_on_c, 9, 42, 0
1, 7920, Note_on_c, 9, 36, 0
1, 7920, Note_on_c, 9, 42, 64
1, 7920, Note_on_c, 9, 38, 64
1, 7921, Note_on_c, 9, 42, 0
1, 8000, Note_on_c, 9, 38, 0
1, 8000, Note_on_c, 9, 42, 64
1, 8001, Note_on_c, 9, 42, 0
1, 8080, Note_on_c, 9, 42, 64
1, 8080, Note_on_c, 9, 36, 64
1, 8081, Note_on_c, 9, 42, 0
1, 8160, Note_on_c, 9, 36, 0
1, 8160, Note_on_c, 9, 42, 64
1, 8160, Note_on_c, 9, 36, 64
1, 8161, Note_on_c, 9, 42, 0
1, 8240, Note_on_c, 9, 36, 0
1, 8240, Note_on_c, 9, 42, 64
1, 8241, Note_on_c, 9, 42, 0
1, 8320, Note_on_c, 9, 42, 64
1, 8320, Note_on_c, 9, 36, 64
1, 8321, Note_on_c, 9, 42, 0
1, 8400, Note_on_c, 9, 36, 0
1, 8400, Note_on_c, 9, 42, 64
1, 8400, Note_on_c, 9, 38, 64
1, 8401, Note_on_c, 9, 42, 0
1, 8480, Note_on_c, 9, 38, 0
1, 8480, Note_on_c, 9, 42, 64
1, 8481, Note_on_c, 9, 42, 0
1, 8560, Note_on_c, 9, 42, 64
1, 8560, Note_on_c, 9, 36, 64
1, 8561, Note_on_c, 9, 42, 0
1, 8640, Note_on_c, 9, 36, 0
1, 8640, Note_on_c, 9, 42, 64
1, 8640, Note_on_c, 9, 36, 64
1, 8641, Note_on_c, 9, 42, 0
1, 8720, Note_on_c, 9, 36, 0
1, 8720, Note_on_c, 9, 42, 64
1, 8721, Note_on_c, 9, 42, 0
1, 8800, Note_on_c, 9, 42, 64
1, 8800, Note_on_c, 9, 36, 64
1, 8801, Note_on_c, 9, 42, 0
1, 8880, Note_on_c, 9, 36, 0
1, 8880, Note_on_c, 9, 42, 64
1, 8880, Note_on_c, 9, 38, 64
1, 8881, Note_on_c, 9, 42, 0
1, 8960, Note_on_c, 9, 38, 0
1, 8960, Note_on_c, 9, 42, 64
1, 8961, Note_on_c, 9, 42, 0
1, 9040, Note_on_c, 9, 42, 64
1, 9040, Note_on_c, 9, 36, 64
1, 9041, Note_on_c, 9, 42, 0
1, 9120, Note_on_c, 9, 36, 0
1, 9120, Note_on_c, 9, 42, 64
1, 9120, Note_on_c, 9, 36, 64
1, 9121, Note_on_c, 9, 42, 0
1, 9200, Note_on_c, 9, 36, 0
1, 9200, Note_on_c, 9, 42, 64
1, 9201, Note_on_c, 9, 42, 0
1, 9280, Note_on_c, 9, 42, 64
1, 9280, Note_on_c, 9, 36, 64
1, 9281, Note_on_c, 9, 42, 0
1, 9360, Note_on_c, 9, 36, 0
1, 9360, Note_on_c, 9, 42, 64
1, 9360, Note_on_c, 9, 38, 64
1, 9361, Note_on_c, 9, 42, 0
1, 9440, Note_on_c, 9, 38, 0
1, 9440, Note_on_c, 9, 42, 64
1, 9441, Note_on_c, 9, 42, 0
1, 9520, Note_on_c, 9, 42, 64
1, 9520, Note_on_c, 9, 36, 64
1, 9521, Note_on_c, 9, 42, 0
1, 9600, Note_on_c, 9, 42, 64
1, 9600, Note_on_c, 9, 36, 64
1, 9601, Note_on_c, 9, 42, 0
1, 9601, Note_on_c, 9, 36, 0
1, 9680, Note_on_c, 9, 42, 0
1, 9680, Note_on_c, 9, 36, 0
1, 9680, Note_on_c, 9, 38, 64
1, 9760, Note_on_c, 9, 38, 0
1, 9760, Note_on_c, 9, 38, 64
1, 9840, Note_on_c, 9, 38, 0
1, 9840, Note_on_c, 9, 42, 64
1, 9840, Note_on_c, 9, 36, 64
1, 9920, Note_on_c, 9, 42, 0
1, 9920, Note_on_c, 9, 36, 0
1, 9920, Note_on_c, 9, 38, 64
1, 10000, Note_on_c, 9, 38, 0
1, 10000, Note_on_c, 9, 38, 64
1, 10080, Note_on_c, 9, 38, 0
1, 10080, Note_on_c, 9, 42, 64
1, 10080, Note_on_c, 9, 36, 64
1, 10160, Note_on_c, 9, 42, 0
1, 10160, Note_on_c, 9, 36, 0
1, 10160, Note_on_c, 9, 38, 64
1, 10240, Note_on_c, 9, 38, 0
1, 10240, Note_on_c, 9, 38, 64
1, 10320, Note_on_c, 9, 38, 0
1, 10320, Note_on_c, 9, 42, 64
1, 10320, Note_on_c, 9, 36, 64
1, 10400, Note_on_c, 9, 42, 0
1, 10400, Note_on_c, 9, 36, 0
1, 10400, Note_on_c, 9, 38, 64
1, 10480, Note_on_c, 9, 38, 0
1, 10480, Note_on_c, 9, 38, 64
1, 10560, Note_on_c, 9, 38, 0
1, 10560, Note_on_c, 9, 42, 64
1, 10560, Note_on_c, 9, 36, 64
1, 10640, Note_on_c, 9, 42, 0
1, 10640, Note_on_c, 9, 36, 0
1, 10640, Note_on_c, 9, 38, 64
1, 10720, Note_on_c, 9, 38, 0
1, 10720, Note_on_c, 9, 38, 64
1, 10800, Note_on_c, 9, 38, 0
1, 10800, Note_on_c, 9, 42, 64
1, 10800, Note_on_c, 9, 36, 64
1, 10880, Note_on_c, 9, 42, 0
1, 10880, Note_on_c, 9, 36, 0
1, 10880, Note_on_c, 9, 38, 64
1, 10960, Note_on_c, 9, 38, 0
1, 10960, Note_on_c, 9, 38, 64
1, 11040, Note_on_c, 9, 38, 0
1, 11040, Note_on_c, 9, 42, 64
1, 11040, Note_on_c, 9, 36, 64
1, 11120, Note_on_c, 9, 42, 0
1, 11120, Note_on_c, 9, 36, 0
1, 11120, Note_on_c, 9, 38, 64
1, 11200, Note_on_c, 9, 38, 0
1, 11200, Note_on_c, 9, 38, 64
1, 11280, Note_on_c, 9, 38, 0
1, 11280, Note_on_c, 9, 42, 64
1, 11280, Note_on_c, 9, 36, 64
1, 11360, Note_on_c, 9, 42, 0
1, 11360, Note_on_c, 9, 36, 0
1, 11360, Note_on_c, 9, 38, 64
1, 11440, Note_on_c, 9, 38, 0
1, 11440, Note_on_c, 9, 38, 64
1, 11520, Note_on_c, 9, 38, 0
1, 11520, Note_on_c, 9, 42, 64
1, 11520, Note_on_c, 9, 36, 64
1, 11600, Note_on_c, 9, 42, 0
1, 11600, Note_on_c, 9, 36, 0
1, 11680, Note_on_c, 9, 42, 64
1, 11760, Note_on_c, 9, 42, 0
1, 11760, Note_on_c, 9, 42, 64
1, 11760, Note_on_c, 9, 38, 64
1, 11840, Note_on_c, 9, 42, 0
1, 11840, Note_on_c, 9, 38, 0
1, 11920, Note_on_c, 9, 42, 64
1, 11920, Note_on_c, 9, 36, 64
1, 12000, Note_on_c, 9, 42, 0
1, 12000, Note_on_c, 9, 36, 0
1, 12000, Note_on_c, 9, 42, 64
1, 12000, Note_on_c, 9, 36, 64
1, 12080, Note_on_c, 9, 42, 0
1, 12080, Note_on_c, 9, 36, 0
1, 12160, Note_on_c, 9, 42, 64
1, 12240, Note_on_c, 9, 42, 0
1, 12240, Note_on_c, 9, 42, 64
1, 12240, Note_on_c, 9, 38, 64
1, 12320, Note_on_c, 9, 42, 0
1, 12320, Note_on_c, 9, 38, 0
1, 12400, Note_on_c, 9, 42, 64
1, 12480, Note_on_c, 9, 42, 0
1, 12480, Note_on_c, 9, 42, 64
1, 12480, Note_on_c, 9, 36, 64
1, 12560, Note_on_c, 9, 42, 0
1, 12560, Note_on_c, 9, 36, 0
1, 12640, Note_on_c, 9, 42, 64
1, 12720, Note_on_c, 9, 42, 0
1, 12720, Note_on_c, 9, 42, 64
1, 12720, Note_on_c, 9, 38, 64
1, 12800, Note_on_c, 9, 42, 0
1, 12800, Note_on_c, 9, 38, 0
1, 12880, Note_on_c, 9, 42, 64
1, 12880, Note_on_c, 9, 36, 64
1, 12960, Note_on_c, 9, 42, 0
1, 12960, Note_on_c, 9, 36, 0
1, 12960, Note_on_c, 9, 42, 64
1, 12960, Note_on_c, 9, 36, 64
1, 13040, Note_on_c, 9, 42, 0
1, 13040, Note_on_c, 9, 36, 0
1, 13120, Note_on_c, 9, 42, 64
1, 13200, Note_on_c, 9, 42, 0
1, 13200, Note_on_c, 9, 42, 64
1, 13200, Note_on_c, 9, 38, 64
1, 13280, Note_on_c, 9, 42, 0
1, 13280, Note_on_c, 9, 38, 0
1, 13360, Note_on_c, 9, 42, 64
1, 13440, Note_on_c, 9, 42, 64
1, 13440, Note_on_c, 9, 36, 64
1, 13441, Note_on_c, 9, 42, 0
1, 13520, Note_on_c, 9, 42, 0
1, 13520, Note_on_c, 9, 36, 0
1, 13600, Note_on_c, 9, 42, 64
1, 13680, Note_on_c, 9, 42, 0
1, 13680, Note_on_c, 9, 42, 64
1, 13680, Note_on_c, 9, 38, 64
1, 13760, Note_on_c, 9, 42, 0
1, 13760, Note_on_c, 9, 38, 0
1, 13840, Note_on_c, 9, 42, 64
1, 13840, Note_on_c, 9, 36, 64
1, 13920, Note_on_c, 9, 42, 0
1, 13920, Note_on_c, 9, 36, 0
1, 13920, Note_on_c, 9, 42, 64
1, 13920, Note_on_c, 9, 36, 64
1, 14000, Note_on_c, 9, 42, 0
1, 14000, Note_on_c, 9, 36, 0
1, 14080, Note_on_c, 9, 42, 64
1, 14080, Note_on_c, 9, 36, 64
1, 14160, Note_on_c, 9, 42, 0
1, 14160, Note_on_c, 9, 36, 0
1, 14160, Note_on_c, 9, 42, 64
1, 14160, Note_on_c, 9, 38, 64
1, 14240, Note_on_c, 9, 42, 0
1, 14240, Note_on_c, 9, 38, 0
1, 14320, Note_on_c, 9, 42, 64
1, 14400, Note_on_c, 9, 42, 0
1, 14400, Note_on_c, 9, 42, 64
1, 14400, Note_on_c, 9, 36, 64
1, 14480, Note_on_c, 9, 42, 0
1, 14480, Note_on_c, 9, 36, 0
1, 14560, Note_on_c, 9, 42, 64
1, 14640, Note_on_c, 9, 42, 0
1, 14640, Note_on_c, 9, 42, 64
1, 14640, Note_on_c, 9, 38, 64
1, 14720, Note_on_c, 9, 42, 0
1, 14720, Note_on_c, 9, 38, 0
1, 14800, Note_on_c, 9, 42, 64
1, 14800, Note_on_c, 9, 36, 64
1, 14880, Note_on_c, 9, 42, 0
1, 14880, Note_on_c, 9, 36, 0
1, 14880, Note_on_c, 9, 42, 64
1, 14880, Note_on_c, 9, 36, 64
1, 14960, Note_on_c, 9, 42, 0
1, 14960, Note_on_c, 9, 36, 0
1, 15040, Note_on_c, 9, 42, 64
1, 15040, Note_on_c, 9, 36, 64
1, 15120, Note_on_c, 9, 42, 0
1, 15120, Note_on_c, 9, 36, 0
1, 15120, Note_on_c, 9, 42, 64
1, 15120, Note_on_c, 9, 38, 64
1, 15200, Note_on_c, 9, 42, 0
1, 15200, Note_on_c, 9, 38, 0
1, 15280, Note_on_c, 9, 42, 64
1, 15360, Note_on_c, 9, 42, 64
1, 15360, Note_on_c, 9, 36, 64
1, 15361, Note_on_c, 9, 42, 0
1, 15440, Note_on_c, 9, 42, 0
1, 15440, Note_on_c, 9, 36, 0
1, 15600, Note_on_c, 9, 38, 64
1, 15680, Note_on_c, 9, 38, 0
1, 15680, Note_on_c, 9, 36, 64
1, 15760, Note_on_c, 9, 36, 0
1, 15760, Note_on_c, 9, 36, 64
1, 15840, Note_on_c, 9, 36, 0
1, 15840, Note_on_c, 9, 38, 64
1, 15920, Note_on_c, 9, 38, 0
1, 15920, Note_on_c, 9, 36, 64
1, 16000, Note_on_c, 9, 36, 0
1, 16000, Note_on_c, 9, 36, 64
1, 16080, Note_on_c, 9, 36, 0
1, 16080, Note_on_c, 9, 38, 64
1, 16160, Note_on_c, 9, 38, 0
1, 16160, Note_on_c, 9, 36, 64
1, 16240, Note_on_c, 9, 36, 0
1, 16240, Note_on_c, 9, 36, 64
1, 16320, Note_on_c, 9, 42, 64
1, 16320, Note_on_c, 9, 36, 64
1, 16321, Note_on_c, 9, 36, 0
1, 16400, Note_on_c, 9, 42, 0
1, 16400, Note_on_c, 9, 36, 0
1, 16560, Note_on_c, 9, 38, 64
1, 16640, Note_on_c, 9, 38, 0
1, 16640, Note_on_c, 9, 36, 64
1, 16720, Note_on_c, 9, 36, 0
1, 16720, Note_on_c, 9, 36, 64
1, 16800, Note_on_c, 9, 36, 0
1, 16800, Note_on_c, 9, 38, 64
1, 16880, Note_on_c, 9, 38, 0
1, 16880, Note_on_c, 9, 36, 64
1, 16960, Note_on_c, 9, 36, 0
1, 16960, Note_on_c, 9, 36, 64
1, 17040, Note_on_c, 9, 36, 0
1, 17040, Note_on_c, 9, 38, 64
1, 17120, Note_on_c, 9, 38, 0
1, 17120, Note_on_c, 9, 36, 64
1, 17200, Note_on_c, 9, 36, 0
1, 17200, Note_on_c, 9, 36, 64
1, 17280, Note_on_c, 9, 42, 64
1, 17280, Note_on_c, 9, 36, 64
1, 17281, Note_on_c, 9, 36, 0
1, 17360, Note_on_c, 9, 42, 0
1, 17360, Note_on_c, 9, 36, 0
1, 17440, Note_on_c, 9, 42, 64
1, 17440, Note_on_c, 9, 36, 64
1, 17520, Note_on_c, 9, 42, 0
1, 17520, Note_on_c, 9, 36, 0
1, 17520, Note_on_c, 9, 42, 64
1, 17520, Note_on_c, 9, 38, 64
1, 17600, Note_on_c, 9, 42, 0
1, 17600, Note_on_c, 9, 38, 0
1, 17680, Note_on_c, 9, 42, 64
1, 17760, Note_on_c, 9, 42, 0
1, 17760, Note_on_c, 9, 42, 64
1, 17760, Note_on_c, 9, 36, 64
1, 17840, Note_on_c, 9, 42, 0
1, 17840, Note_on_c, 9, 36, 0
1, 17920, Note_on_c, 9, 42, 64
1, 17920, Note_on_c, 9, 36, 64
1, 18000, Note_on_c, 9, 42, 0
1, 18000, Note_on_c, 9, 36, 0
1, 18000, Note_on_c, 9, 42, 64
1, 18000, Note_on_c, 9, 38, 64
1, 18080, Note_on_c, 9, 42, 0
1, 18080, Note_on_c, 9, 38, 0
1, 18160, Note_on_c, 9, 42, 64
1, 18240, Note_on_c, 9, 42, 0
1, 18240, Note_on_c, 9, 42, 64
1, 18240, Note_on_c, 9, 36, 64
1, 18320, Note_on_c, 9, 42, 0
1, 18320, Note_on_c, 9, 36, 0
1, 18400, Note_on_c, 9, 42, 64
1, 18400, Note_on_c, 9, 36, 64
1, 18480, Note_on_c, 9, 42, 0
1, 18480, Note_on_c, 9, 36, 0
1, 18480, Note_on_c, 9, 42, 64
1, 18480, Note_on_c, 9, 38, 64
1, 18560, Note_on_c, 9, 42, 0
1, 18560, Note_on_c, 9, 38, 0
1, 18640, Note_on_c, 9, 42, 64
1, 18720, Note_on_c, 9, 42, 0
1, 18720, Note_on_c, 9, 42, 64
1, 18720, Note_on_c, 9, 36, 64
1, 18800, Note_on_c, 9, 42, 0
1, 18800, Note_on_c, 9, 36, 0
1, 18880, Note_on_c, 9, 42, 64
1, 18880, Note_on_c, 9, 36, 64
1, 18960, Note_on_c, 9, 42, 0
1, 18960, Note_on_c, 9, 36, 0
1, 18960, Note_on_c, 9, 42, 64
1, 18960, Note_on_c, 9, 38, 64
1, 19040, Note_on_c, 9, 42, 0
1, 19040, Note_on_c, 9, 38, 0
1, 19120, Note_on_c, 9, 42, 64
1, 19200, Note_on_c, 9, 42, 64
1, 19200, Note_on_c, 9, 36, 64
1, 19201, Note_on_c, 9, 42, 0
1, 19280, Note_on_c, 9, 42, 0
1, 19280, Note_on_c, 9, 36, 0
1, 19360, Note_on_c, 9, 42, 64
1, 19360, Note_on_c, 9, 36, 64
1, 19440, Note_on_c, 9, 42, 0
1, 19440, Note_on_c, 9, 36, 0
1, 19440, Note_on_c, 9, 42, 64
1, 19440, Note_on_c, 9, 38, 64
1, 19520, Note_on_c, 9, 42, 0
1, 19520, Note_on_c, 9, 38, 0
1, 19600, Note_on_c, 9, 42, 64
1, 19600, Note_on_c, 9, 38, 64
1, 19680, Note_on_c, 9, 42, 0
1, 19680, Note_on_c, 9, 38, 0
1, 19680, Note_on_c, 9, 42, 64
1, 19680, Note_on_c, 9, 36, 64
1, 19760, Note_on_c, 9, 42, 0
1, 19760, Note_on_c, 9, 36, 0
1, 19840, Note_on_c, 9, 42, 64
1, 19840, Note_on_c, 9, 36, 64
1, 19920, Note_on_c, 9, 42, 0
1, 19920, Note_on_c, 9, 36, 0
1, 19920, Note_on_c, 9, 42, 64
1, 19920, Note_on_c, 9, 38, 64
1, 20000, Note_on_c, 9, 42, 0
1, 20000, Note_on_c, 9, 38, 0
1, 20080, Note_on_c, 9, 42, 64
1, 20160, Note_on_c, 9, 42, 0
1, 20160, Note_on_c, 9, 42, 64
1, 20160, Note_on_c, 9, 36, 64
1, 20240, Note_on_c, 9, 42, 0
1, 20240, Note_on_c, 9, 36, 0
1, 20320, Note_on_c, 9, 42, 64
1, 20320, Note_on_c, 9, 36, 64
1, 20400, Note_on_c, 9, 42, 0
1, 20400, Note_on_c, 9, 36, 0
1, 20400, Note_on_c, 9, 42, 64
1, 20400, Note_on_c, 9, 38, 64
1, 20480, Note_on_c, 9, 42, 0
1, 20480, Note_on_c, 9, 38, 0
1, 20560, Note_on_c, 9, 42, 64
1, 20560, Note_on_c, 9, 38, 64
1, 20640, Note_on_c, 9, 42, 0
1, 20640, Note_on_c, 9, 38, 0
1, 20640, Note_on_c, 9, 42, 64
1, 20640, Note_on_c, 9, 36, 64
1, 20720, Note_on_c, 9, 42, 0
1, 20720, Note_on_c, 9, 36, 0
1, 20800, Note_on_c, 9, 42, 64
1, 20800, Note_on_c, 9, 36, 64
1, 20880, Note_on_c, 9, 42, 0
1, 20880, Note_on_c, 9, 36, 0
1, 20880, Note_on_c, 9, 42, 64
1, 20880, Note_on_c, 9, 38, 64
1, 20960, Note_on_c, 9, 42, 0
1, 20960, Note_on_c, 9, 38, 0
1, 21040, Note_on_c, 9, 42, 64
1, 21120, Note_on_c, 9, 42, 64
1, 21120, Note_on_c, 9, 36, 64
1, 21121, Note_on_c, 9, 42, 0
1, 21200, Note_on_c, 9, 42, 0
1, 21200, Note_on_c, 9, 36, 0
1, 21200, Note_on_c, 9, 38, 64
1, 21280, Note_on_c, 9, 38, 0
1, 21280, Note_on_c, 9, 38, 64
1, 21360, Note_on_c, 9, 38, 0
1, 21360, Note_on_c, 9, 42, 64
1, 21360, Note_on_c, 9, 36, 64
1, 21440, Note_on_c, 9, 42, 0
1, 21440, Note_on_c, 9, 36, 0
1, 21440, Note_on_c, 9, 38, 64
1, 21520, Note_on_c, 9, 38, 0
1, 21520, Note_on_c, 9, 38, 64
1, 21600, Note_on_c, 9, 38, 64
1, 21601, Note_on_c, 9, 38, 0
1, 21680, Note_on_c, 9, 38, 64
1, 21681, Note_on_c, 9, 38, 0
1, 21760, Note_on_c, 9, 38, 0
1, 21760, Note_on_c, 9, 36, 64
1, 21840, Note_on_c, 9, 36, 0
1, 21840, Note_on_c, 9, 38, 64
1, 21920, Note_on_c, 9, 38, 0
1, 21920, Note_on_c, 9, 38, 64
1, 22000, Note_on_c, 9, 38, 0
1, 22000, Note_on_c, 9, 36, 64
1, 22080, Note_on_c, 9, 36, 0
1, 22080, Note_on_c, 9, 42, 64
1, 22080, Note_on_c, 9, 36, 64
1, 22160, Note_on_c, 9, 42, 0
1, 22160, Note_on_c, 9, 36, 0
1, 22160, Note_on_c, 9, 38, 64
1, 22240, Note_on_c, 9, 38, 0
1, 22240, Note_on_c, 9, 38, 64
1, 22320, Note_on_c, 9, 38, 0
1, 22320, Note_on_c, 9, 42, 64
1, 22320, Note_on_c, 9, 36, 64
1, 22400, Note_on_c, 9, 42, 0
1, 22400, Note_on_c, 9, 36, 0
1, 22400, Note_on_c, 9, 38, 64
1, 22480, Note_on_c, 9, 38, 0
1, 22480, Note_on_c, 9, 38, 64
1, 22560, Note_on_c, 9, 38, 64
1, 22561, Note_on_c, 9, 38, 0
1, 22640, Note_on_c, 9, 38, 64
1, 22641, Note_on_c, 9, 38, 0
1, 22720, Note_on_c, 9, 38, 0
1, 22720, Note_on_c, 9, 36, 64
1, 22800, Note_on_c, 9, 36, 0
1, 22800, Note_on_c, 9, 38, 64
1, 22880, Note_on_c, 9, 38, 0
1, 22880, Note_on_c, 9, 38, 64
1, 22960, Note_on_c, 9, 38, 0
1, 22960, Note_on_c, 9, 36, 64
1, 23040, Note_on_c, 9, 36, 0
1, 23040, End_track
0, 0, End_of_file
