0, 0, Header, 0, 1, 240
1, 0, Start_track
1, 0, Key_signature, 0, "major"
1, 0, SMPTE_offset, 96, 0, 0, 0, 0
1, 0, Sequencer_specific, 24, 0, 0, 0, 106, 0, 1, 0, 0, 0, 0, 0, 0, 0, 0, 0, 0, 0, 0, 0, 0, 0, 0, 29, 29
1, 0, Tempo, 722891
1, 0, Time_signature, 4, 2, 24, 8
1, 0, Lyric_t, "(c)joel Sampson 1994"
1, 0, Lyric_t, "Shaker"
1, 0, Lyric_t, "Hand clap"
1, 0, Lyric_t, "Cow bell"
1, 0, Lyric_t, "Crash"
1, 0, Lyric_t, "Open hat"
1, 0, Lyric_t, "Pedal hat"
1, 0, Lyric_t, "Closed hat"
1, 0, Note_on_c, 9, 42, 64
1, 0, Lyric_t, "Snare drum"
1, 0, Lyric_t, "Bass drum"
1, 0, Lyric_t, "(c)joel Sampson 1994"
1, 0, Pitch_bend_c, 0, 8192
1, 60, Note_on_c, 9, 42, 0
1, 120, Note_on_c, 9, 46, 64
1, 180, Note_on_c, 9, 46, 0
1, 240, Note_on_c, 9, 42, 64
1, 240, Note_on_c, 9, 38, 64
1, 300, Note_on_c, 9, 42, 0
1, 300, Note_on_c, 9, 38, 0
1, 360, Note_on_c, 9, 42, 64
1, 420, Note_on_c, 9, 42, 0
1, 480, Note_on_c, 9, 42, 64
1, 540, Note_on_c, 9, 42, 0
1, 600, Note_on_c, 9, 46, 64
1, 660, Note_on_c, 9, 46, 0
1, 720, Note_on_c, 9, 42, 64
1, 720, Note_on_c, 9, 38, 64
1, 780, Note_on_c, 9, 42, 0
1, 780, Note_on_c, 9, 38, 0
1, 840, Note_on_c, 9, 42, 64
1, 900, Note_on_c, 9, 42, 0
1, 960, Note_on_c, 9, 42, 64
1, 1020, Note_on_c, 9, 42, 0
1, 1080, Note_on_c, 9, 46, 64
1, 1140, Note_on_c, 9, 46, 0
1, 1200, Note_on_c, 9, 42, 64
1, 1200, Note_on_c, 9, 38, 64
1, 1260, Note_on_c, 9, 42, 0
1, 1260, Note_on_c, 9, 38, 0
1, 1320, Note_on_c, 9, 42, 64
1, 1380, Note_on_c, 9, 42, 0
1, 1440, Note_on_c, 9, 42, 64
1, 1500, Note_on_c, 9, 42, 0
1, 1560, Note_on_c, 9, 46, 64
1, 1620, Note_on_c, 9, 46, 0
1, 1680, Note_on_c, 9, 42, 64
1, 1680, Note_on_c, 9, 38, 64
1, 1740, Note_on_c, 9, 42, 0
1, 1740, Note_on_c, 9, 38, 0
1, 1800, Note_on_c, 9, 42, 64
1, 1860, Note_on_c, 9, 42, 0
1, 1920, Note_on_c, 9, 42, 64
1, 1960, Note_on_c, 9, 42, 0
1, 2040, Note_on_c, 9, 46, 64
1, 2080, Note_on_c, 9, 46, 0
1, 2160, Note_on_c, 9, 42, 64
1, 2160, Note_on_c, 9, 38, 64
1, 2200, Note_on_c, 9, 42, 0
1, 2200, Note_on_c, 9, 38, 0
1, 2240, Note_on_c, 9, 42, 64
1, 2280, Note_on_c, 9, 42, 0
1, 2280, Note_on_c, 9, 42, 64
1, 2320, Note_on_c, 9, 42, 0
1, 2360, Note_on_c, 9, 42, 64
1, 2400, Note_on_c, 9, 42, 0
1, 2400, Note_on_c, 9, 42, 64
1, 2440, Note_on_c, 9, 42, 0
1, 2520, Note_on_c, 9, 46, 64
1, 2560, Note_on_c, 9, 46, 0
1, 2640, Note_on_c, 9, 42, 64
1, 2640, Note_on_c, 9, 38, 64
1, 2680, Note_on_c, 9, 42, 0
1, 2680, Note_on_c, 9, 38, 0
1, 2720, Note_on_c, 9, 42, 64
1, 2760, Note_on_c, 9, 42, 0
1, 2760, Note_on_c, 9, 42, 64
1, 2800, Note_on_c, 9, 42, 0
1, 2840, Note_on_c, 9, 42, 64
1, 2880, Note_on_c, 9, 42, 0
1, 2880, Note_on_c, 9, 42, 64
1, 2920, Note_on_c, 9, 42, 0
1, 3000, Note_on_c, 9, 46, 64
1, 3040, Note_on_c, 9, 46, 0
1, 3120, Note_on_c, 9, 42, 64
1, 3120, Note_on_c, 9, 38, 64
1, 3160, Note_on_c, 9, 42, 0
1, 3160, Note_on_c, 9, 38, 0
1, 3200, Note_on_c, 9, 42, 64
1, 3240, Note_on_c, 9, 42, 0
1, 3240, Note_on_c, 9, 42, 64
1, 3280, Note_on_c, 9, 42, 0
1, 3320, Note_on_c, 9, 42, 64
1, 3360, Note_on_c, 9, 42, 0
1, 3360, Note_on_c, 9, 42, 64
1, 3400, Note_on_c, 9, 42, 0
1, 3480, Note_on_c, 9, 46, 64
1, 3520, Note_on_c, 9, 46, 0
1, 3600, Note_on_c, 9, 42, 64
1, 3600, Note_on_c, 9, 38, 64
1, 3640, Note_on_c, 9, 42, 0
1, 3640, Note_on_c, 9, 38, 0
1, 3680, Note_on_c, 9, 42, 64
1, 3720, Note_on_c, 9, 42, 0
1, 3720, Note_on_c, 9, 42, 64
1, 3760, Note_on_c, 9, 42, 0
1, 3800, Note_on_c, 9, 42, 64
1, 3840, Note_on_c, 9, 42, 0
1, 3840, Note_on_c, 9, 42, 64
1, 3880, Note_on_c, 9, 42, 0
1, 3960, Note_on_c, 9, 46, 64
1, 4000, Note_on_c, 9, 46, 0
1, 4080, Note_on_c, 9, 42, 64
1, 4080, Note_on_c, 9, 38, 64
1, 4120, Note_on_c, 9, 42, 0
1, 4120, Note_on_c, 9, 38, 0
1, 4160, Note_on_c, 9, 42, 64
1, 4200, Note_on_c, 9, 42, 0
1, 4200, Note_on_c, 9, 42, 64
1, 4240, Note_on_c, 9, 42, 0
1, 4280, Note_on_c, 9, 42, 64
1, 4280, Note_on_c, 9, 38, 64
1, 4320, Note_on_c, 9, 42, 0
1, 4320, Note_on_c, 9, 38, 0
1, 4320, Note_on_c, 9, 42, 64
1, 4360, Note_on_c, 9, 42, 0
1, 4440, Note_on_c, 9, 46, 64
1, 4480, Note_on_c, 9, 46, 0
1, 4560, Note_on_c, 9, 42, 64
1, 4560, Note_on_c, 9, 38, 64
1, 4600, Note_on_c, 9, 42, 0
1, 4600, Note_on_c, 9, 38, 0
1, 4640, Note_on_c, 9, 42, 64
1, 4680, Note_on_c, 9, 42, 0
1, 4680, Note_on_c, 9, 42, 64
1, 4720, Note_on_c, 9, 42, 0
1, 4760, Note_on_c, 9, 42, 64
1, 4760, Note_on_c, 9, 38, 64
1, 4800, Note_on_c, 9, 42, 0
1, 4800, Note_on_c, 9, 38, 0
1, 4800, Note_on_c, 9, 42, 64
1, 4840, Note_on_c, 9, 42, 0
1, 4920, Note_on_c, 9, 46, 64
1, 4960, Note_on_c, 9, 46, 0
1, 5040, Note_on_c, 9, 42, 64
1, 5040, Note_on_c, 9, 38, 64
1, 5080, Note_on_c, 9, 42, 0
1, 5080, Note_on_c, 9, 38, 0
1, 5120, Note_on_c, 9, 42, 64
1, 5160, Note_on_c, 9, 42, 0
1, 5160, Note_on_c, 9, 42, 64
1, 5200, Note_on_c, 9, 42, 0
1, 5240, Note_on_c, 9, 42, 64
1, 5240, Note_on_c, 9, 38, 64
1, 5280, Note_on_c, 9, 42, 0
1, 5280, Note_on_c, 9, 38, 0
1, 5280, Note_on_c, 9, 42, 64
1, 5320, Note_on_c, 9, 42, 0
1, 5400, Note_on_c, 9, 46, 64
1, 5440, Note_on_c, 9, 46, 0
1, 5520, Note_on_c, 9, 42, 64
1, 5520, Note_on_c, 9, 38, 64
1, 5560, Note_on_c, 9, 42, 0
1, 5560, Note_on_c, 9, 38, 0
1, 5600, Note_on_c, 9, 42, 64
1, 5640, Note_on_c, 9, 42, 0
1, 5640, Note_on_c, 9, 42, 64
1, 5680, Note_on_c, 9, 42, 0
1, 5720, Note_on_c, 9, 42, 64
1, 5720, Note_on_c, 9, 38, 64
1, 5760, Note_on_c, 9, 42, 0
1, 5760, Note_on_c, 9, 38, 0
1, 5760, Note_on_c, 9, 42, 64
1, 5800, Note_on_c, 9, 42, 0
1, 5880, Note_on_c, 9, 46, 64
1, 5920, Note_on_c, 9, 46, 0
1, 6000, Note_on_c, 9, 42, 64
1, 6000, Note_on_c, 9, 38, 64
1, 6040, Note_on_c, 9, 42, 0
1, 6040, Note_on_c, 9, 38, 0
1, 6080, Note_on_c, 9, 42, 64
1, 6120, Note_on_c, 9, 42, 0
1, 6120, Note_on_c, 9, 42, 64
1, 6160, Note_on_c, 9, 42, 0
1, 6200, Note_on_c, 9, 42, 64
1, 6200, Note_on_c, 9, 38, 64
1, 6240, Note_on_c, 9, 42, 0
1, 6240, Note_on_c, 9, 38, 0
1, 6240, Note_on_c, 9, 42, 64
1, 6280, Note_on_c, 9, 42, 0
1, 6360, Note_on_c, 9, 46, 64
1, 6360, Note_on_c, 9, 38, 64
1, 6400, Note_on_c, 9, 46, 0
1, 6400, Note_on_c, 9, 38, 0
1, 6480, Note_on_c, 9, 42, 64
1, 6480, Note_on_c, 9, 38, 64
1, 6520, Note_on_c, 9, 42, 0
1, 6520, Note_on_c, 9, 38, 0
1, 6600, Note_on_c, 9, 42, 64
1, 6640, Note_on_c, 9, 42, 0
1, 6720, Note_on_c, 9, 42, 64
1, 6760, Note_on_c, 9, 42, 0
1, 6840, Note_on_c, 9, 46, 64
1, 6880, Note_on_c, 9, 46, 0
1, 6960, Note_on_c, 9, 42, 64
1, 6960, Note_on_c, 9, 38, 64
1, 7000, Note_on_c, 9, 42, 0
1, 7000, Note_on_c, 9, 38, 0
1, 7040, Note_on_c, 9, 42, 64
1, 7080, Note_on_c, 9, 42, 0
1, 7080, Note_on_c, 9, 42, 64
1, 7120, Note_on_c, 9, 42, 0
1, 7160, Note_on_c, 9, 42, 64
1, 7160, Note_on_c, 9, 38, 64
1, 7200, Note_on_c, 9, 42, 0
1, 7200, Note_on_c, 9, 38, 0
1, 7200, Note_on_c, 9, 42, 64
1, 7240, Note_on_c, 9, 42, 0
1, 7320, Note_on_c, 9, 46, 64
1, 7320, Note_on_c, 9, 38, 64
1, 7360, Note_on_c, 9, 46, 0
1, 7360, Note_on_c, 9, 38, 0
1, 7440, Note_on_c, 9, 42, 64
1, 7440, Note_on_c, 9, 38, 64
1, 7480, Note_on_c, 9, 42, 0
1, 7480, Note_on_c, 9, 38, 0
1, 7560, Note_on_c, 9, 42, 64
1, 7600, Note_on_c, 9, 42, 0
1, 7680, Note_on_c, 9, 42, 64
1, 7720, Note_on_c, 9, 42, 0
1, 7760, Note_on_c, 9, 38, 64
1, 7800, Note_on_c, 9, 38, 0
1, 7800, Note_on_c, 9, 46, 64
1, 7840, Note_on_c, 9, 46, 0
1, 7920, Note_on_c, 9, 42, 64
1, 7920, Note_on_c, 9, 38, 64
1, 7960, Note_on_c, 9, 42, 0
1, 7960, Note_on_c, 9, 38, 0
1, 8040, Note_on_c, 9, 42, 64
1, 8080, Note_on_c, 9, 42, 0
1, 8160, Note_on_c, 9, 42, 64
1, 8200, Note_on_c, 9, 42, 0
1, 8280, Note_on_c, 9, 42, 64
1, 8320, Note_on_c, 9, 42, 0
1, 8400, Note_on_c, 9, 42, 64
1, 8400, Note_on_c, 9, 38, 64
1, 8440, Note_on_c, 9, 42, 0
1, 8440, Note_on_c, 9, 38, 0
1, 8480, Note_on_c, 9, 42, 64
1, 8520, Note_on_c, 9, 42, 0
1, 8520, Note_on_c, 9, 42, 64
1, 8560, Note_on_c, 9, 42, 0
1, 8600, Note_on_c, 9, 42, 64
1, 8640, Note_on_c, 9, 42, 0
1, 8640, Note_on_c, 9, 42, 64
1, 8680, Note_on_c, 9, 42, 0
1, 8720, Note_on_c, 9, 38, 64
1, 8760, Note_on_c, 9, 38, 0
1, 8760, Note_on_c, 9, 46, 64
1, 8800, Note_on_c, 9, 46, 0
1, 8880, Note_on_c, 9, 42, 64
1, 8880, Note_on_c, 9, 38, 64
1, 8920, Note_on_c, 9, 42, 0
1, 8920, Note_on_c, 9, 38, 0
1, 9000, Note_on_c, 9, 42, 64
1, 9040, Note_on_c, 9, 42, 0
1, 9120, Note_on_c, 9, 42, 64
1, 9160, Note_on_c, 9, 42, 0
1, 9240, Note_on_c, 9, 42, 64
1, 9280, Note_on_c, 9, 42, 0
1, 9360, Note_on_c, 9, 42, 64
1, 9360, Note_on_c, 9, 38, 64
1, 9400, Note_on_c, 9, 42, 0
1, 9400, Note_on_c, 9, 38, 0
1, 9440, Note_on_c, 9, 42, 64
1, 9480, Note_on_c, 9, 42, 0
1, 9480, Note_on_c, 9, 42, 64
1, 9520, Note_on_c, 9, 42, 0
1, 9560, Note_on_c, 9, 42, 64
1, 9600, Note_on_c, 9, 42, 0
1, 9600, Note_on_c, 9, 42, 64
1, 9640, Note_on_c, 9, 42, 0
1, 9720, Note_on_c, 9, 42, 64
1, 9760, Note_on_c, 9, 42, 0
1, 9840, Note_on_c, 9, 42, 64
1, 9840, Note_on_c, 9, 38, 64
1, 9880, Note_on_c, 9, 42, 0
1, 9880, Note_on_c, 9, 38, 0
1, 9920, Note_on_c, 9, 42, 64
1, 9960, Note_on_c, 9, 42, 0
1, 9960, Note_on_c, 9, 42, 64
1, 10000, Note_on_c, 9, 42, 0
1, 10040, Note_on_c, 9, 42, 64
1, 10080, Note_on_c, 9, 42, 0
1, 10080, Note_on_c, 9, 42, 64
1, 10120, Note_on_c, 9, 42, 0
1, 10200, Note_on_c, 9, 42, 64
1, 10240, Note_on_c, 9, 42, 0
1, 10320, Note_on_c, 9, 42, 64
1, 10320, Note_on_c, 9, 38, 64
1, 10360, Note_on_c, 9, 42, 0
1, 10360, Note_on_c, 9, 38, 0
1, 10440, Note_on_c, 9, 42, 64
1, 10480, Note_on_c, 9, 42, 0
1, 10560, Note_on_c, 9, 42, 64
1, 10600, Note_on_c, 9, 42, 0
1, 10680, Note_on_c, 9, 42, 64
1, 10720, Note_on_c, 9, 42, 0
1, 10800, Note_on_c, 9, 42, 64
1, 10800, Note_on_c, 9, 38, 64
1, 10840, Note_on_c, 9, 42, 0
1, 10840, Note_on_c, 9, 38, 0
1, 10880, Note_on_c, 9, 42, 64
1, 10920, Note_on_c, 9, 42, 0
1, 10920, Note_on_c, 9, 42, 64
1, 10960, Note_on_c, 9, 42, 0
1, 11000, Note_on_c, 9, 42, 64
1, 11040, Note_on_c, 9, 42, 0
1, 11040, Note_on_c, 9, 42, 64
1, 11080, Note_on_c, 9, 42, 0
1, 11160, Note_on_c, 9, 42, 64
1, 11200, Note_on_c, 9, 42, 0
1, 11280, Note_on_c, 9, 42, 64
1, 11280, Note_on_c, 9, 38, 64
1, 11320, Note_on_c, 9, 42, 0
1, 11320, Note_on_c, 9, 38, 0
1, 11400, Note_on_c, 9, 42, 64
1, 11440, Note_on_c, 9, 42, 0
1, 11520, Note_on_c, 9, 42, 64
1, 11560, Note_on_c, 9, 42, 0
1, 11640, Note_on_c, 9, 42, 64
1, 11680, Note_on_c, 9, 42, 0
1, 11760, Note_on_c, 9, 42, 64
1, 11760, Note_on_c, 9, 38, 64
1, 11800, Note_on_c, 9, 42, 0
1, 11800, Note_on_c, 9, 38, 0
1, 11880, Note_on_c, 9, 42, 64
1, 11920, Note_on_c, 9, 42, 0
1, 12000, Note_on_c, 9, 42, 64
1, 12040, Note_on_c, 9, 42, 0
1, 12120, Note_on_c, 9, 46, 64
1, 12160, Note_on_c, 9, 46, 0
1, 12240, Note_on_c, 9, 42, 64
1, 12240, Note_on_c, 9, 38, 64
1, 12280, Note_on_c, 9, 42, 0
1, 12280, Note_on_c, 9, 38, 0
1, 12320, Note_on_c, 9, 42, 64
1, 12360, Note_on_c, 9, 42, 0
1, 12360, Note_on_c, 9, 42, 64
1, 12400, Note_on_c, 9, 42, 0
1, 12440, Note_on_c, 9, 42, 64
1, 12480, Note_on_c, 9, 42, 0
1, 12480, Note_on_c, 9, 42, 64
1, 12520, Note_on_c, 9, 42, 0
1, 12600, Note_on_c, 9, 42, 64
1, 12640, Note_on_c, 9, 42, 0
1, 12720, Note_on_c, 9, 42, 64
1, 12720, Note_on_c, 9, 38, 64
1, 12760, Note_on_c, 9, 42, 0
1, 12760, Note_on_c, 9, 38, 0
1, 12840, Note_on_c, 9, 42, 64
1, 12880, Note_on_c, 9, 42, 0
1, 12960, Note_on_c, 9, 42, 64
1, 13000, Note_on_c, 9, 42, 0
1, 13080, Note_on_c, 9, 46, 64
1, 13120, Note_on_c, 9, 46, 0
1, 13200, Note_on_c, 9, 42, 64
1, 13200, Note_on_c, 9, 38, 64
1, 13240, Note_on_c, 9, 42, 0
1, 13240, Note_on_c, 9, 38, 0
1, 13280, Note_on_c, 9, 42, 64
1, 13320, Note_on_c, 9, 42, 0
1, 13320, Note_on_c, 9, 42, 64
1, 13360, Note_on_c, 9, 42, 0
1, 13400, Note_on_c, 9, 42, 64
1, 13440, Note_on_c, 9, 42, 0
1, 13440, Note_on_c, 9, 42, 64
1, 13480, Note_on_c, 9, 42, 0
1, 13520, Note_on_c, 9, 38, 64
1, 13560, Note_on_c, 9, 38, 0
1, 13560, Note_on_c, 9, 46, 64
1, 13600, Note_on_c, 9, 46, 0
1, 13680, Note_on_c, 9, 42, 64
1, 13680, Note_on_c, 9, 38, 64
1, 13720, Note_on_c, 9, 42, 0
1, 13720, Note_on_c, 9, 38, 0
1, 13800, Note_on_c, 9, 42, 64
1, 13840, Note_on_c, 9, 42, 0
1, 13920, Note_on_c, 9, 42, 64
1, 13960, Note_on_c, 9, 42, 0
1, 14040, Note_on_c, 9, 46, 64
1, 14080, Note_on_c, 9, 46, 0
1, 14160, Note_on_c, 9, 42, 64
1, 14160, Note_on_c, 9, 38, 64
1, 14200, Note_on_c, 9, 42, 0
1, 14200, Note_on_c, 9, 38, 0
1, 14240, Note_on_c, 9, 42, 64
1, 14280, Note_on_c, 9, 42, 0
1, 14280, Note_on_c, 9, 42, 64
1, 14320, Note_on_c, 9, 42, 0
1, 14360, Note_on_c, 9, 42, 64
1, 14360, Note_on_c, 9, 38, 64
1, 14400, Note_on_c, 9, 42, 0
1, 14400, Note_on_c, 9, 38, 0
1, 14400, Note_on_c, 9, 42, 64
1, 14440, Note_on_c, 9, 42, 0
1, 14480, Note_on_c, 9, 38, 64
1, 14520, Note_on_c, 9, 38, 0
1, 14520, Note_on_c, 9, 46, 64
1, 14560, Note_on_c, 9, 46, 0
1, 14640, Note_on_c, 9, 42, 64
1, 14640, Note_on_c, 9, 38, 64
1, 14680, Note_on_c, 9, 42, 0
1, 14680, Note_on_c, 9, 38, 0
1, 14760, Note_on_c, 9, 42, 64
1, 14800, Note_on_c, 9, 42, 0
1, 14880, Note_on_c, 9, 42, 64
1, 14920, Note_on_c, 9, 42, 0
1, 15000, Note_on_c, 9, 46, 64
1, 15040, Note_on_c, 9, 46, 0
1, 15120, Note_on_c, 9, 42, 64
1, 15120, Note_on_c, 9, 38, 64
1, 15160, Note_on_c, 9, 42, 0
1, 15160, Note_on_c, 9, 38, 0
1, 15200, Note_on_c, 9, 42, 64
1, 15240, Note_on_c, 9, 42, 0
1, 15240, Note_on_c, 9, 42, 64
1, 15280, Note_on_c, 9, 42, 0
1, 15320, Note_on_c, 9, 42, 64
1, 15320, Note_on_c, 9, 38, 64
1, 15360, Note_on_c, 9, 42, 0
1, 15360, Note_on_c, 9, 38, 0
1, 15360, Note_on_c, 9, 42, 64
1, 15360, Note_on_c, 9, 36, 64
1, 15420, Note_on_c, 9, 42, 0
1, 15420, Note_on_c, 9, 36, 0
1, 15480, Note_on_c, 9, 42, 64
1, 15540, Note_on_c, 9, 42, 0
1, 15600, Note_on_c, 9, 42, 64
1, 15660, Note_on_c, 9, 42, 0
1, 15720, Note_on_c, 9, 42, 64
1, 15780, Note_on_c, 9, 42, 0
1, 15840, Note_on_c, 9, 42, 64
1, 15900, Note_on_c, 9, 42, 0
1, 15960, Note_on_c, 9, 46, 64
1, 15960, Note_on_c, 9, 36, 64
1, 16020, Note_on_c, 9, 46, 0
1, 16020, Note_on_c, 9, 36, 0
1, 16080, Note_on_c, 9, 42, 64
1, 16140, Note_on_c, 9, 42, 0
1, 16200, Note_on_c, 9, 42, 64
1, 16260, Note_on_c, 9, 42, 0
1, 16320, Note_on_c, 9, 42, 64
1, 16320, Note_on_c, 9, 36, 64
1, 16380, Note_on_c, 9, 42, 0
1, 16380, Note_on_c, 9, 36, 0
1, 16440, Note_on_c, 9, 42, 64
1, 16500, Note_on_c, 9, 42, 0
1, 16560, Note_on_c, 9, 42, 64
1, 16620, Note_on_c, 9, 42, 0
1, 16680, Note_on_c, 9, 42, 64
1, 16740, Note_on_c, 9, 42, 0
1, 16800, Note_on_c, 9, 42, 64
1, 16860, Note_on_c, 9, 42, 0
1, 16920, Note_on_c, 9, 46, 64
1, 16920, Note_on_c, 9, 36, 64
1, 16980, Note_on_c, 9, 46, 0
1, 16980, Note_on_c, 9, 36, 0
1, 17040, Note_on_c, 9, 42, 64
1, 17100, Note_on_c, 9, 42, 0
1, 17160, Note_on_c, 9, 42, 64
1, 17220, Note_on_c, 9, 42, 0
1, 17280, Note_on_c, 9, 42, 64
1, 17320, Note_on_c, 9, 42, 0
1, 17400, Note_on_c, 9, 46, 64
1, 17400, Note_on_c, 9, 36, 64
1, 17440, Note_on_c, 9, 46, 0
1, 17440, Note_on_c, 9, 36, 0
1, 17520, Note_on_c, 9, 42, 64
1, 17560, Note_on_c, 9, 42, 0
1, 17640, Note_on_c, 9, 42, 64
1, 17680, Note_on_c, 9, 42, 0
1, 17720, Note_on_c, 9, 42, 64
1, 17720, Note_on_c, 9, 36, 64
1, 17760, Note_on_c, 9, 42, 0
1, 17760, Note_on_c, 9, 36, 0
1, 17760, Note_on_c, 9, 42, 64
1, 17800, Note_on_c, 9, 42, 0
1, 17880, Note_on_c, 9, 46, 64
1, 17880, Note_on_c, 9, 36, 64
1, 17920, Note_on_c, 9, 46, 0
1, 17920, Note_on_c, 9, 36, 0
1, 18000, Note_on_c, 9, 42, 64
1, 18040, Note_on_c, 9, 42, 0
1, 18120, Note_on_c, 9, 42, 64
1, 18160, Note_on_c, 9, 42, 0
1, 18200, Note_on_c, 9, 42, 64
1, 18200, Note_on_c, 9, 36, 64
1, 18240, Note_on_c, 9, 42, 0
1, 18240, Note_on_c, 9, 36, 0
1, 18240, Note_on_c, 9, 42, 64
1, 18280, Note_on_c, 9, 42, 0
1, 18360, Note_on_c, 9, 46, 64
1, 18360, Note_on_c, 9, 36, 64
1, 18400, Note_on_c, 9, 46, 0
1, 18400, Note_on_c, 9, 36, 0
1, 18480, Note_on_c, 9, 42, 64
1, 18520, Note_on_c, 9, 42, 0
1, 18600, Note_on_c, 9, 42, 64
1, 18640, Note_on_c, 9, 42, 0
1, 18680, Note_on_c, 9, 42, 64
1, 18680, Note_on_c, 9, 36, 64
1, 18720, Note_on_c, 9, 42, 0
1, 18720, Note_on_c, 9, 36, 0
1, 18720, Note_on_c, 9, 42, 64
1, 18760, Note_on_c, 9, 42, 0
1, 18840, Note_on_c, 9, 46, 64
1, 18840, Note_on_c, 9, 36, 64
1, 18880, Note_on_c, 9, 46, 0
1, 18880, Note_on_c, 9, 36, 0
1, 18960, Note_on_c, 9, 42, 64
1, 19000, Note_on_c, 9, 42, 0
1, 19080, Note_on_c, 9, 42, 64
1, 19120, Note_on_c, 9, 42, 0
1, 19160, Note_on_c, 9, 42, 64
1, 19160, Note_on_c, 9, 36, 64
1, 19200, Note_on_c, 9, 42, 0
1, 19200, Note_on_c, 9, 36, 0
1, 19200, Note_on_c, 9, 42, 64
1, 19240, Note_on_c, 9, 42, 0
1, 19320, Note_on_c, 9, 46, 64
1, 19320, Note_on_c, 9, 36, 64
1, 19360, Note_on_c, 9, 46, 0
1, 19360, Note_on_c, 9, 36, 0
1, 19440, Note_on_c, 9, 42, 64
1, 19480, Note_on_c, 9, 42, 0
1, 19520, Note_on_c, 9, 42, 64
1, 19560, Note_on_c, 9, 42, 0
1, 19560, Note_on_c, 9, 42, 64
1, 19600, Note_on_c, 9, 42, 0
1, 19640, Note_on_c, 9, 42, 64
1, 19680, Note_on_c, 9, 42, 0
1, 19680, Note_on_c, 9, 42, 64
1, 19680, Note_on_c, 9, 36, 64
1, 19720, Note_on_c, 9, 42, 0
1, 19720, Note_on_c, 9, 36, 0
1, 19800, Note_on_c, 9, 46, 64
1, 19840, Note_on_c, 9, 46, 0
1, 19920, Note_on_c, 9, 42, 64
1, 19960, Note_on_c, 9, 42, 0
1, 20040, Note_on_c, 9, 42, 64
1, 20080, Note_on_c, 9, 42, 0
1, 20120, Note_on_c, 9, 42, 64
1, 20120, Note_on_c, 9, 36, 64
1, 20160, Note_on_c, 9, 42, 0
1, 20160, Note_on_c, 9, 36, 0
1, 20160, Note_on_c, 9, 42, 64
1, 20200, Note_on_c, 9, 42, 0
1, 20280, Note_on_c, 9, 46, 64
1, 20280, Note_on_c, 9, 36, 64
1, 20320, Note_on_c, 9, 46, 0
1, 20320, Note_on_c, 9, 36, 0
1, 20400, Note_on_c, 9, 42, 64
1, 20440, Note_on_c, 9, 42, 0
1, 20480, Note_on_c, 9, 42, 64
1, 20520, Note_on_c, 9, 42, 0
1, 20520, Note_on_c, 9, 42, 64
1, 20560, Note_on_c, 9, 42, 0
1, 20600, Note_on_c, 9, 42, 64
1, 20640, Note_on_c, 9, 42, 0
1, 20640, Note_on_c, 9, 42, 64
1, 20640, Note_on_c, 9, 36, 64
1, 20680, Note_on_c, 9, 42, 0
1, 20680, Note_on_c, 9, 36, 0
1, 20760, Note_on_c, 9, 46, 64
1, 20800, Note_on_c, 9, 46, 0
1, 20880, Note_on_c, 9, 42, 64
1, 20920, Note_on_c, 9, 42, 0
1, 21000, Note_on_c, 9, 42, 64
1, 21040, Note_on_c, 9, 42, 0
1, 21080, Note_on_c, 9, 42, 64
1, 21080, Note_on_c, 9, 36, 64
1, 21120, Note_on_c, 9, 42, 0
1, 21120, Note_on_c, 9, 36, 0
1, 21120, Note_on_c, 9, 42, 64
1, 21160, Note_on_c, 9, 42, 0
1, 21240, Note_on_c, 9, 42, 64
1, 21240, Note_on_c, 9, 36, 64
1, 21280, Note_on_c, 9, 42, 0
1, 21280, Note_on_c, 9, 36, 0
1, 21360, Note_on_c, 9, 42, 64
1, 21400, Note_on_c, 9, 42, 0
1, 21440, Note_on_c, 9, 42, 64
1, 21480, Note_on_c, 9, 42, 0
1, 21480, Note_on_c, 9, 42, 64
1, 21480, Note_on_c, 9, 36, 64
1, 21520, Note_on_c, 9, 42, 0
1, 21520, Note_on_c, 9, 36, 0
1, 21560, Note_on_c, 9, 42, 64
1, 21600, Note_on_c, 9, 42, 0
1, 21600, Note_on_c, 9, 42, 64
1, 21640, Note_on_c, 9, 42, 0
1, 21720, Note_on_c, 9, 42, 64
1, 21720, Note_on_c, 9, 36, 64
1, 21760, Note_on_c, 9, 42, 0
1, 21760, Note_on_c, 9, 36, 0
1, 21840, Note_on_c, 9, 42, 64
1, 21880, Note_on_c, 9, 42, 0
1, 21920, Note_on_c, 9, 42, 64
1, 21960, Note_on_c, 9, 42, 0
1, 21960, Note_on_c, 9, 42, 64
1, 21960, Note_on_c, 9, 36, 64
1, 22000, Note_on_c, 9, 42, 0
1, 22000, Note_on_c, 9, 36, 0
1, 22040, Note_on_c, 9, 42, 64
1, 22080, Note_on_c, 9, 42, 0
1, 22080, Note_on_c, 9, 42, 64
1, 22120, Note_on_c, 9, 42, 0
1, 22200, Note_on_c, 9, 42, 64
1, 22200, Note_on_c, 9, 36, 64
1, 22240, Note_on_c, 9, 42, 0
1, 22240, Note_on_c, 9, 36, 0
1, 22320, Note_on_c, 9, 42, 64
1, 22360, Note_on_c, 9, 42, 0
1, 22400, Note_on_c, 9, 42, 64
1, 22440, Note_on_c, 9, 42, 0
1, 22440, Note_on_c, 9, 42, 64
1, 22440, Note_on_c, 9, 36, 64
1, 22480, Note_on_c, 9, 42, 0
1, 22480, Note_on_c, 9, 36, 0
1, 22520, Note_on_c, 9, 42, 64
1, 22560, Note_on_c, 9, 42, 0
1, 22560, Note_on_c, 9, 42, 64
1, 22600, Note_on_c, 9, 42, 0
1, 22680, Note_on_c, 9, 42, 64
1, 22680, Note_on_c, 9, 36, 64
1, 22720, Note_on_c, 9, 42, 0
1, 22720, Note_on_c, 9, 36, 0
1, 22800, Note_on_c, 9, 42, 64
1, 22840, Note_on_c, 9, 42, 0
1, 22880, Note_on_c, 9, 42, 64
1, 22920, Note_on_c, 9, 42, 0
1, 22920, Note_on_c, 9, 42, 64
1, 22920, Note_on_c, 9, 36, 64
1, 22960, Note_on_c, 9, 42, 0
1, 22960, Note_on_c, 9, 36, 0
1, 23000, Note_on_c, 9, 42, 64
1, 23040, Note_on_c, 9, 42, 0
1, 23040, Note_on_c, 9, 42, 64
1, 23080, Note_on_c, 9, 42, 0
1, 23160, Note_on_c, 9, 42, 64
1, 23160, Note_on_c, 9, 36, 64
1, 23200, Note_on_c, 9, 42, 0
1, 23200, Note_on_c, 9, 36, 0
1, 23280, Note_on_c, 9, 42, 64
1, 23320, Note_on_c, 9, 42, 0
1, 23360, Note_on_c, 9, 42, 64
1, 23400, Note_on_c, 9, 42, 0
1, 23400, Note_on_c, 9, 42, 64
1, 23400, Note_on_c, 9, 36, 64
1, 23440, Note_on_c, 9, 42, 0
1, 23440, Note_on_c, 9, 36, 0
1, 23480, Note_on_c, 9, 42, 64
1, 23520, Note_on_c, 9, 42, 0
1, 23520, Note_on_c, 9, 42, 64
1, 23520, Note_on_c, 9, 36, 64
1, 23560, Note_on_c, 9, 42, 0
1, 23560, Note_on_c, 9, 36, 0
1, 23640, Note_on_c, 9, 46, 64
1, 23680, Note_on_c, 9, 46, 0
1, 23760, Note_on_c, 9, 42, 64
1, 23800, Note_on_c, 9, 42, 0
1, 23880, Note_on_c, 9, 42, 64
1, 23920, Note_on_c, 9, 42, 0
1, 23960, Note_on_c, 9, 42, 64
1, 23960, Note_on_c, 9, 36, 64
1, 24000, Note_on_c, 9, 42, 0
1, 24000, Note_on_c, 9, 36, 0
1, 24000, Note_on_c, 9, 42, 64
1, 24040, Note_on_c, 9, 42, 0
1, 24120, Note_on_c, 9, 42, 64
1, 24120, Note_on_c, 9, 36, 64
1, 24160, Note_on_c, 9, 42, 0
1, 24160, Note_on_c, 9, 36, 0
1, 24240, Note_on_c, 9, 42, 64
1, 24280, Note_on_c, 9, 42, 0
1, 24320, Note_on_c, 9, 42, 64
1, 24360, Note_on_c, 9, 42, 0
1, 24360, Note_on_c, 9, 42, 64
1, 24360, Note_on_c, 9, 36, 64
1, 24400, Note_on_c, 9, 42, 0
1, 24400, Note_on_c, 9, 36, 0
1, 24440, Note_on_c, 9, 42, 64
1, 24480, Note_on_c, 9, 42, 0
1, 24480, Note_on_c, 9, 42, 64
1, 24480, Note_on_c, 9, 36, 64
1, 24520, Note_on_c, 9, 42, 0
1, 24520, Note_on_c, 9, 36, 0
1, 24600, Note_on_c, 9, 46, 64
1, 24640, Note_on_c, 9, 46, 0
1, 24720, Note_on_c, 9, 42, 64
1, 24760, Note_on_c, 9, 42, 0
1, 24840, Note_on_c, 9, 42, 64
1, 24880, Note_on_c, 9, 42, 0
1, 24920, Note_on_c, 9, 42, 64
1, 24920, Note_on_c, 9, 36, 64
1, 24960, Note_on_c, 9, 42, 0
1, 24960, Note_on_c, 9, 36, 0
1, 24960, Note_on_c, 9, 42, 64
1, 25000, Note_on_c, 9, 42, 0
1, 25080, Note_on_c, 9, 46, 64
1, 25080, Note_on_c, 9, 36, 64
1, 25120, Note_on_c, 9, 46, 0
1, 25120, Note_on_c, 9, 36, 0
1, 25200, Note_on_c, 9, 42, 64
1, 25240, Note_on_c, 9, 42, 0
1, 25320, Note_on_c, 9, 42, 64
1, 25360, Note_on_c, 9, 42, 0
1, 25400, Note_on_c, 9, 42, 64
1, 25400, Note_on_c, 9, 36, 64
1, 25440, Note_on_c, 9, 42, 0
1, 25440, Note_on_c, 9, 36, 0
1, 25440, Note_on_c, 9, 42, 64
1, 25480, Note_on_c, 9, 42, 0
1, 25560, Note_on_c, 9, 46, 64
1, 25560, Note_on_c, 9, 36, 64
1, 25600, Note_on_c, 9, 46, 0
1, 25600, Note_on_c, 9, 36, 0
1, 25680, Note_on_c, 9, 42, 64
1, 25720, Note_on_c, 9, 42, 0
1, 25800, Note_on_c, 9, 42, 64
1, 25840, Note_on_c, 9, 42, 0
1, 25880, Note_on_c, 9, 42, 64
1, 25880, Note_on_c, 9, 36, 64
1, 25920, Note_on_c, 9, 42, 0
1, 25920, Note_on_c, 9, 36, 0
1, 25920, Note_on_c, 9, 42, 64
1, 25960, Note_on_c, 9, 42, 0
1, 26040, Note_on_c, 9, 46, 64
1, 26040, Note_on_c, 9, 36, 64
1, 26080, Note_on_c, 9, 46, 0
1, 26080, Note_on_c, 9, 36, 0
1, 26160, Note_on_c, 9, 42, 64
1, 26200, Note_on_c, 9, 42, 0
1, 26280, Note_on_c, 9, 42, 64
1, 26320, Note_on_c, 9, 42, 0
1, 26360, Note_on_c, 9, 42, 64
1, 26360, Note_on_c, 9, 36, 64
1, 26400, Note_on_c, 9, 42, 0
1, 26400, Note_on_c, 9, 36, 0
1, 26400, Note_on_c, 9, 42, 64
1, 26440, Note_on_c, 9, 42, 0
1, 26520, Note_on_c, 9, 46, 64
1, 26520, Note_on_c, 9, 36, 64
1, 26560, Note_on_c, 9, 46, 0
1, 26560, Note_on_c, 9, 36, 0
1, 26640, Note_on_c, 9, 42, 64
1, 26680, Note_on_c, 9, 42, 0
1, 26760, Note_on_c, 9, 42, 64
1, 26800, Note_on_c, 9, 42, 0
1, 26840, Note_on_c, 9, 42, 64
1, 26840, Note_on_c, 9, 36, 64
1, 26880, Note_on_c, 9, 42, 0
1, 26880, Note_on_c, 9, 36, 0
1, 26880, Note_on_c, 9, 42, 64
1, 26880, Note_on_c, 9, 36, 64
1, 26920, Note_on_c, 9, 42, 0
1, 26920, Note_on_c, 9, 36, 0
1, 27000, Note_on_c, 9, 46, 64
1, 27040, Note_on_c, 9, 46, 0
1, 27120, Note_on_c, 9, 42, 64
1, 27160, Note_on_c, 9, 42, 0
1, 27240, Note_on_c, 9, 42, 64
1, 27280, Note_on_c, 9, 42, 0
1, 27320, Note_on_c, 9, 42, 64
1, 27320, Note_on_c, 9, 36, 64
1, 27360, Note_on_c, 9, 42, 0
1, 27360, Note_on_c, 9, 36, 0
1, 27360, Note_on_c, 9, 42, 64
1, 27360, Note_on_c, 9, 36, 64
1, 27400, Note_on_c, 9, 42, 0
1, 27400, Note_on_c, 9, 36, 0
1, 27480, Note_on_c, 9, 46, 64
1, 27520, Note_on_c, 9, 46, 0
1, 27600, Note_on_c, 9, 42, 64
1, 27640, Note_on_c, 9, 42, 0
1, 27720, Note_on_c, 9, 42, 64
1, 27760, Note_on_c, 9, 42, 0
1, 27800, Note_on_c, 9, 42, 64
1, 27800, Note_on_c, 9, 36, 64
1, 27840, Note_on_c, 9, 42, 0
1, 27840, Note_on_c, 9, 36, 0
1, 27840, Note_on_c, 9, 42, 64
1, 27840, Note_on_c, 9, 36, 64
1, 27880, Note_on_c, 9, 42, 0
1, 27880, Note_on_c, 9, 36, 0
1, 27960, Note_on_c, 9, 46, 64
1, 28000, Note_on_c, 9, 46, 0
1, 28080, Note_on_c, 9, 42, 64
1, 28120, Note_on_c, 9, 42, 0
1, 28200, Note_on_c, 9, 42, 64
1, 28240, Note_on_c, 9, 42, 0
1, 28280, Note_on_c, 9, 42, 64
1, 28280, Note_on_c, 9, 36, 64
1, 28320, Note_on_c, 9, 42, 0
1, 28320, Note_on_c, 9, 36, 0
1, 28320, Note_on_c, 9, 42, 64
1, 28320, Note_on_c, 9, 36, 64
1, 28360, Note_on_c, 9, 42, 0
1, 28360, Note_on_c, 9, 36, 0
1, 28440, Note_on_c, 9, 46, 64
1, 28480, Note_on_c, 9, 46, 0
1, 28560, Note_on_c, 9, 42, 64
1, 28600, Note_on_c, 9, 42, 0
1, 28680, Note_on_c, 9, 42, 64
1, 28720, Note_on_c, 9, 42, 0
1, 28760, Note_on_c, 9, 42, 64
1, 28760, Note_on_c, 9, 36, 64
1, 28800, Note_on_c, 9, 42, 0
1, 28800, Note_on_c, 9, 36, 0
1, 28800, Note_on_c, 9, 42, 64
1, 28800, Note_on_c, 9, 36, 64
1, 28840, Note_on_c, 9, 42, 0
1, 28840, Note_on_c, 9, 36, 0
1, 28920, Note_on_c, 9, 46, 64
1, 28960, Note_on_c, 9, 46, 0
1, 29040, Note_on_c, 9, 42, 64
1, 29080, Note_on_c, 9, 42, 0
1, 29160, Note_on_c, 9, 42, 64
1, 29200, Note_on_c, 9, 42, 0
1, 29240, Note_on_c, 9, 42, 64
1, 29240, Note_on_c, 9, 36, 64
1, 29280, Note_on_c, 9, 42, 0
1, 29280, Note_on_c, 9, 36, 0
1, 29280, Note_on_c, 9, 42, 64
1, 29320, Note_on_c, 9, 42, 0
1, 29400, Note_on_c, 9, 42, 64
1, 29400, Note_on_c, 9, 36, 64
1, 29440, Note_on_c, 9, 42, 0
1, 29440, Note_on_c, 9, 36, 0
1, 29520, Note_on_c, 9, 42, 64
1, 29560, Note_on_c, 9, 42, 0
1, 29600, Note_on_c, 9, 42, 64
1, 29640, Note_on_c, 9, 42, 0
1, 29640, Note_on_c, 9, 42, 64
1, 29640, Note_on_c, 9, 36, 64
1, 29680, Note_on_c, 9, 42, 0
1, 29680, Note_on_c, 9, 36, 0
1, 29720, Note_on_c, 9, 42, 64
1, 29760, Note_on_c, 9, 42, 0
1, 29760, Note_on_c, 9, 42, 64
1, 29760, Note_on_c, 9, 36, 64
1, 29800, Note_on_c, 9, 42, 0
1, 29800, Note_on_c, 9, 36, 0
1, 29880, Note_on_c, 9, 46, 64
1, 29920, Note_on_c, 9, 46, 0
1, 30000, Note_on_c, 9, 42, 64
1, 30040, Note_on_c, 9, 42, 0
1, 30120, Note_on_c, 9, 42, 64
1, 30160, Note_on_c, 9, 42, 0
1, 30200, Note_on_c, 9, 42, 64
1, 30200, Note_on_c, 9, 36, 64
1, 30240, Note_on_c, 9, 42, 0
1, 30240, Note_on_c, 9, 36, 0
1, 30240, Note_on_c, 9, 42, 64
1, 30280, Note_on_c, 9, 42, 0
1, 30360, Note_on_c, 9, 42, 64
1, 30360, Note_on_c, 9, 36, 64
1, 30400, Note_on_c, 9, 42, 0
1, 30400, Note_on_c, 9, 36, 0
1, 30480, Note_on_c, 9, 42, 64
1, 30520, Note_on_c, 9, 42, 0
1, 30560, Note_on_c, 9, 42, 64
1, 30600, Note_on_c, 9, 42, 0
1, 30600, Note_on_c, 9, 42, 64
1, 30600, Note_on_c, 9, 36, 64
1, 30640, Note_on_c, 9, 42, 0
1, 30640, Note_on_c, 9, 36, 0
1, 30680, Note_on_c, 9, 42, 64
1, 30720, Note_on_c, 9, 42, 0
1, 30720, Note_on_c, 9, 42, 64
1, 30720, Note_on_c, 9, 36, 64
1, 30760, Note_on_c, 9, 42, 0
1, 30760, Note_on_c, 9, 36, 0
1, 30840, Note_on_c, 9, 42, 64
1, 30880, Note_on_c, 9, 42, 0
1, 30960, Note_on_c, 9, 42, 64
1, 30960, Note_on_c, 9, 38, 64
1, 31000, Note_on_c, 9, 42, 0
1, 31000, Note_on_c, 9, 38, 0
1, 31080, Note_on_c, 9, 42, 64
1, 31120, Note_on_c, 9, 42, 0
1, 31160, Note_on_c, 9, 36, 64
1, 31200, Note_on_c, 9, 36, 0
1, 31200, Note_on_c, 9, 42, 64
1, 31240, Note_on_c, 9, 42, 0
1, 31320, Note_on_c, 9, 46, 64
1, 31360, Note_on_c, 9, 46, 0
1, 31440, Note_on_c, 9, 42, 64
1, 31440, Note_on_c, 9, 38, 64
1, 31480, Note_on_c, 9, 42, 0
1, 31480, Note_on_c, 9, 38, 0
1, 31560, Note_on_c, 9, 42, 64
1, 31600, Note_on_c, 9, 42, 0
1, 31680, Note_on_c, 9, 42, 64
1, 31680, Note_on_c, 9, 36, 64
1, 31720, Note_on_c, 9, 42, 0
1, 31720, Note_on_c, 9, 36, 0
1, 31800, Note_on_c, 9, 42, 64
1, 31840, Note_on_c, 9, 42, 0
1, 31920, Note_on_c, 9, 42, 64
1, 31920, Note_on_c, 9, 38, 64
1, 31960, Note_on_c, 9, 42, 0
1, 31960, Note_on_c, 9, 38, 0
1, 32040, Note_on_c, 9, 42, 64
1, 32080, Note_on_c, 9, 42, 0
1, 32120, Note_on_c, 9, 36, 64
1, 32160, Note_on_c, 9, 36, 0
1, 32160, Note_on_c, 9, 42, 64
1, 32200, Note_on_c, 9, 42, 0
1, 32280, Note_on_c, 9, 46, 64
1, 32320, Note_on_c, 9, 46, 0
1, 32400, Note_on_c, 9, 42, 64
1, 32400, Note_on_c, 9, 38, 64
1, 32440, Note_on_c, 9, 42, 0
1, 32440, Note_on_c, 9, 38, 0
1, 32520, Note_on_c, 9, 42, 64
1, 32560, Note_on_c, 9, 42, 0
1, 32640, Note_on_c, 9, 42, 64
1, 32680, Note_on_c, 9, 42, 0
1, 32760, Note_on_c, 9, 46, 64
1, 32760, Note_on_c, 9, 36, 64
1, 32800, Note_on_c, 9, 46, 0
1, 32800, Note_on_c, 9, 36, 0
1, 32880, Note_on_c, 9, 42, 64
1, 32880, Note_on_c, 9, 38, 64
1, 32920, Note_on_c, 9, 42, 0
1, 32920, Note_on_c, 9, 38, 0
1, 32960, Note_on_c, 9, 42, 64
1, 33000, Note_on_c, 9, 42, 0
1, 33000, Note_on_c, 9, 42, 64
1, 33040, Note_on_c, 9, 42, 0
1, 33080, Note_on_c, 9, 42, 64
1, 33120, Note_on_c, 9, 42, 0
1, 33120, Note_on_c, 9, 42, 64
1, 33160, Note_on_c, 9, 42, 0
1, 33240, Note_on_c, 9, 46, 64
1, 33240, Note_on_c, 9, 36, 64
1, 33280, Note_on_c, 9, 46, 0
1, 33280, Note_on_c, 9, 36, 0
1, 33360, Note_on_c, 9, 42, 64
1, 33360, Note_on_c, 9, 38, 64
1, 33400, Note_on_c, 9, 42, 0
1, 33400, Note_on_c, 9, 38, 0
1, 33440, Note_on_c, 9, 42, 64
1, 33480, Note_on_c, 9, 42, 0
1, 33480, Note_on_c, 9, 42, 64
1, 33520, Note_on_c, 9, 42, 0
1, 33560, Note_on_c, 9, 42, 64
1, 33600, Note_on_c, 9, 42, 0
1, 33600, Note_on_c, 9, 42, 64
1, 33640, Note_on_c, 9, 42, 0
1, 33720, Note_on_c, 9, 46, 64
1, 33720, Note_on_c, 9, 36, 64
1, 33760, Note_on_c, 9, 46, 0
1, 33760, Note_on_c, 9, 36, 0
1, 33840, Note_on_c, 9, 42, 64
1, 33840, Note_on_c, 9, 38, 64
1, 33880, Note_on_c, 9, 42, 0
1, 33880, Note_on_c, 9, 38, 0
1, 33920, Note_on_c, 9, 42, 64
1, 33960, Note_on_c, 9, 42, 0
1, 33960, Note_on_c, 9, 42, 64
1, 34000, Note_on_c, 9, 42, 0
1, 34040, Note_on_c, 9, 42, 64
1, 34080, Note_on_c, 9, 42, 0
1, 34080, Note_on_c, 9, 42, 64
1, 34120, Note_on_c, 9, 42, 0
1, 34200, Note_on_c, 9, 46, 64
1, 34200, Note_on_c, 9, 36, 64
1, 34240, Note_on_c, 9, 46, 0
1, 34240, Note_on_c, 9, 36, 0
1, 34320, Note_on_c, 9, 42, 64
1, 34320, Note_on_c, 9, 38, 64
1, 34360, Note_on_c, 9, 42, 0
1, 34360, Note_on_c, 9, 38, 0
1, 34400, Note_on_c, 9, 42, 64
1, 34440, Note_on_c, 9, 42, 0
1, 34440, Note_on_c, 9, 42, 64
1, 34480, Note_on_c, 9, 42, 0
1, 34520, Note_on_c, 9, 42, 64
1, 34560, Note_on_c, 9, 42, 0
1, 34560, Note_on_c, 9, 42, 64
1, 34600, Note_on_c, 9, 42, 0
1, 34680, Note_on_c, 9, 46, 64
1, 34680, Note_on_c, 9, 36, 64
1, 34720, Note_on_c, 9, 46, 0
1, 34720, Note_on_c, 9, 36, 0
1, 34800, Note_on_c, 9, 42, 64
1, 34800, Note_on_c, 9, 38, 64
1, 34840, Note_on_c, 9, 42, 0
1, 34840, Note_on_c, 9, 38, 0
1, 34880, Note_on_c, 9, 42, 64
1, 34920, Note_on_c, 9, 42, 0
1, 34920, Note_on_c, 9, 42, 64
1, 34960, Note_on_c, 9, 42, 0
1, 35000, Note_on_c, 9, 42, 64
1, 35000, Note_on_c, 9, 38, 64
1, 35040, Note_on_c, 9, 42, 0
1, 35040, Note_on_c, 9, 38, 0
1, 35040, Note_on_c, 9, 42, 64
1, 35080, Note_on_c, 9, 42, 0
1, 35160, Note_on_c, 9, 46, 64
1, 35160, Note_on_c, 9, 36, 64
1, 35200, Note_on_c, 9, 46, 0
1, 35200, Note_on_c, 9, 36, 0
1, 35280, Note_on_c, 9, 42, 64
1, 35280, Note_on_c, 9, 38, 64
1, 35320, Note_on_c, 9, 42, 0
1, 35320, Note_on_c, 9, 38, 0
1, 35360, Note_on_c, 9, 42, 64
1, 35400, Note_on_c, 9, 42, 0
1, 35400, Note_on_c, 9, 42, 64
1, 35440, Note_on_c, 9, 42, 0
1, 35480, Note_on_c, 9, 42, 64
1, 35480, Note_on_c, 9, 38, 64
1, 35520, Note_on_c, 9, 42, 0
1, 35520, Note_on_c, 9, 38, 0
1, 35520, Note_on_c, 9, 42, 64
1, 35560, Note_on_c, 9, 42, 0
1, 35640, Note_on_c, 9, 46, 64
1, 35640, Note_on_c, 9, 36, 64
1, 35680, Note_on_c, 9, 46, 0
1, 35680, Note_on_c, 9, 36, 0
1, 35760, Note_on_c, 9, 42, 64
1, 35760, Note_on_c, 9, 38, 64
1, 35800, Note_on_c, 9, 42, 0
1, 35800, Note_on_c, 9, 38, 0
1, 35840, Note_on_c, 9, 42, 64
1, 35880, Note_on_c, 9, 42, 0
1, 35880, Note_on_c, 9, 42, 64
1, 35920, Note_on_c, 9, 42, 0
1, 35960, Note_on_c, 9, 42, 64
1, 35960, Note_on_c, 9, 38, 64
1, 36000, Note_on_c, 9, 42, 0
1, 36000, Note_on_c, 9, 38, 0
1, 36000, Note_on_c, 9, 42, 64
1, 36040, Note_on_c, 9, 42, 0
1, 36120, Note_on_c, 9, 46, 64
1, 36120, Note_on_c, 9, 36, 64
1, 36160, Note_on_c, 9, 46, 0
1, 36160, Note_on_c, 9, 36, 0
1, 36240, Note_on_c, 9, 42, 64
1, 36240, Note_on_c, 9, 38, 64
1, 36280, Note_on_c, 9, 42, 0
1, 36280, Note_on_c, 9, 38, 0
1, 36320, Note_on_c, 9, 42, 64
1, 36360, Note_on_c, 9, 42, 0
1, 36360, Note_on_c, 9, 42, 64
1, 36400, Note_on_c, 9, 42, 0
1, 36440, Note_on_c, 9, 42, 64
1, 36440, Note_on_c, 9, 38, 64
1, 36480, Note_on_c, 9, 42, 0
1, 36480, Note_on_c, 9, 38, 0
1, 36480, Note_on_c, 9, 42, 64
1, 36480, Note_on_c, 9, 36, 64
1, 36520, Note_on_c, 9, 42, 0
1, 36520, Note_on_c, 9, 36, 0
1, 36600, Note_on_c, 9, 42, 64
1, 36640, Note_on_c, 9, 42, 0
1, 36720, Note_on_c, 9, 42, 64
1, 36720, Note_on_c, 9, 38, 64
1, 36760, Note_on_c, 9, 42, 0
1, 36760, Note_on_c, 9, 38, 0
1, 36840, Note_on_c, 9, 42, 64
1, 36880, Note_on_c, 9, 42, 0
1, 36920, Note_on_c, 9, 36, 64
1, 36960, Note_on_c, 9, 36, 0
1, 36960, Note_on_c, 9, 42, 64
1, 37000, Note_on_c, 9, 42, 0
1, 37080, Note_on_c, 9, 46, 64
1, 37080, Note_on_c, 9, 36, 64
1, 37120, Note_on_c, 9, 46, 0
1, 37120, Note_on_c, 9, 36, 0
1, 37200, Note_on_c, 9, 42, 64
1, 37200, Note_on_c, 9, 38, 64
1, 37240, Note_on_c, 9, 42, 0
1, 37240, Note_on_c, 9, 38, 0
1, 37280, Note_on_c, 9, 42, 64
1, 37320, Note_on_c, 9, 42, 0
1, 37320, Note_on_c, 9, 42, 64
1, 37360, Note_on_c, 9, 42, 0
1, 37400, Note_on_c, 9, 42, 64
1, 37400, Note_on_c, 9, 38, 64
1, 37440, Note_on_c, 9, 42, 0
1, 37440, Note_on_c, 9, 38, 0
1, 37440, Note_on_c, 9, 42, 64
1, 37440, Note_on_c, 9, 36, 64
1, 37480, Note_on_c, 9, 42, 0
1, 37480, Note_on_c, 9, 36, 0
1, 37560, Note_on_c, 9, 42, 64
1, 37600, Note_on_c, 9, 42, 0
1, 37680, Note_on_c, 9, 42, 64
1, 37680, Note_on_c, 9, 38, 64
1, 37720, Note_on_c, 9, 42, 0
1, 37720, Note_on_c, 9, 38, 0
1, 37800, Note_on_c, 9, 42, 64
1, 37840, Note_on_c, 9, 42, 0
1, 37880, Note_on_c, 9, 36, 64
1, 37920, Note_on_c, 9, 36, 0
1, 37920, Note_on_c, 9, 42, 64
1, 37960, Note_on_c, 9, 42, 0
1, 38040, Note_on_c, 9, 46, 64
1, 38040, Note_on_c, 9, 36, 64
1, 38080, Note_on_c, 9, 46, 0
1, 38080, Note_on_c, 9, 36, 0
1, 38160, Note_on_c, 9, 42, 64
1, 38160, Note_on_c, 9, 38, 64
1, 38200, Note_on_c, 9, 42, 0
1, 38200, Note_on_c, 9, 38, 0
1, 38240, Note_on_c, 9, 42, 64
1, 38280, Note_on_c, 9, 42, 0
1, 38280, Note_on_c, 9, 42, 64
1, 38320, Note_on_c, 9, 42, 0
1, 38360, Note_on_c, 9, 42, 64
1, 38360, Note_on_c, 9, 38, 64
1, 38400, Note_on_c, 9, 42, 0
1, 38400, Note_on_c, 9, 38, 0
1, 38400, Note_on_c, 9, 42, 64
1, 38400, Note_on_c, 9, 36, 64
1, 38440, Note_on_c, 9, 42, 0
1, 38440, Note_on_c, 9, 36, 0
1, 38480, Note_on_c, 9, 38, 64
1, 38520, Note_on_c, 9, 38, 0
1, 38520, Note_on_c, 9, 46, 64
1, 38560, Note_on_c, 9, 46, 0
1, 38640, Note_on_c, 9, 42, 64
1, 38640, Note_on_c, 9, 38, 64
1, 38680, Note_on_c, 9, 42, 0
1, 38680, Note_on_c, 9, 38, 0
1, 38720, Note_on_c, 9, 42, 64
1, 38760, Note_on_c, 9, 42, 0
1, 38760, Note_on_c, 9, 42, 64
1, 38800, Note_on_c, 9, 42, 0
1, 38840, Note_on_c, 9, 42, 64
1, 38840, Note_on_c, 9, 38, 64
1, 38880, Note_on_c, 9, 42, 0
1, 38880, Note_on_c, 9, 38, 0
1, 38880, Note_on_c, 9, 42, 64
1, 38880, Note_on_c, 9, 36, 64
1, 38920, Note_on_c, 9, 42, 0
1, 38920, Note_on_c, 9, 36, 0
1, 38960, Note_on_c, 9, 38, 64
1, 39000, Note_on_c, 9, 38, 0
1, 39000, Note_on_c, 9, 46, 64
1, 39040, Note_on_c, 9, 46, 0
1, 39120, Note_on_c, 9, 42, 64
1, 39120, Note_on_c, 9, 38, 64
1, 39160, Note_on_c, 9, 42, 0
1, 39160, Note_on_c, 9, 38, 0
1, 39200, Note_on_c, 9, 42, 64
1, 39240, Note_on_c, 9, 42, 0
1, 39240, Note_on_c, 9, 42, 64
1, 39280, Note_on_c, 9, 42, 0
1, 39320, Note_on_c, 9, 42, 64
1, 39320, Note_on_c, 9, 38, 64
1, 39360, Note_on_c, 9, 42, 0
1, 39360, Note_on_c, 9, 38, 0
1, 39360, Note_on_c, 9, 42, 64
1, 39360, Note_on_c, 9, 36, 64
1, 39400, Note_on_c, 9, 42, 0
1, 39400, Note_on_c, 9, 36, 0
1, 39440, Note_on_c, 9, 38, 64
1, 39480, Note_on_c, 9, 38, 0
1, 39480, Note_on_c, 9, 46, 64
1, 39520, Note_on_c, 9, 46, 0
1, 39600, Note_on_c, 9, 42, 64
1, 39600, Note_on_c, 9, 38, 64
1, 39640, Note_on_c, 9, 42, 0
1, 39640, Note_on_c, 9, 38, 0
1, 39680, Note_on_c, 9, 42, 64
1, 39720, Note_on_c, 9, 42, 0
1, 39720, Note_on_c, 9, 42, 64
1, 39760, Note_on_c, 9, 42, 0
1, 39800, Note_on_c, 9, 42, 64
1, 39800, Note_on_c, 9, 38, 64
1, 39840, Note_on_c, 9, 42, 0
1, 39840, Note_on_c, 9, 38, 0
1, 39840, Note_on_c, 9, 42, 64
1, 39840, Note_on_c, 9, 36, 64
1, 39880, Note_on_c, 9, 42, 0
1, 39880, Note_on_c, 9, 36, 0
1, 39920, Note_on_c, 9, 38, 64
1, 39960, Note_on_c, 9, 38, 0
1, 39960, Note_on_c, 9, 46, 64
1, 40000, Note_on_c, 9, 46, 0
1, 40080, Note_on_c, 9, 42, 64
1, 40080, Note_on_c, 9, 38, 64
1, 40120, Note_on_c, 9, 42, 0
1, 40120, Note_on_c, 9, 38, 0
1, 40160, Note_on_c, 9, 42, 64
1, 40200, Note_on_c, 9, 42, 0
1, 40200, Note_on_c, 9, 42, 64
1, 40240, Note_on_c, 9, 42, 0
1, 40280, Note_on_c, 9, 42, 64
1, 40280, Note_on_c, 9, 38, 64
1, 40320, Note_on_c, 9, 42, 0
1, 40320, Note_on_c, 9, 38, 0
1, 40320, Note_on_c, 9, 42, 64
1, 40360, Note_on_c, 9, 42, 0
1, 40440, Note_on_c, 9, 46, 64
1, 40440, Note_on_c, 9, 36, 64
1, 40480, Note_on_c, 9, 46, 0
1, 40480, Note_on_c, 9, 36, 0
1, 40560, Note_on_c, 9, 42, 64
1, 40560, Note_on_c, 9, 38, 64
1, 40600, Note_on_c, 9, 42, 0
1, 40600, Note_on_c, 9, 38, 0
1, 40640, Note_on_c, 9, 42, 64
1, 40680, Note_on_c, 9, 42, 0
1, 40680, Note_on_c, 9, 42, 64
1, 40720, Note_on_c, 9, 42, 0
1, 40760, Note_on_c, 9, 42, 64
1, 40760, Note_on_c, 9, 38, 64
1, 40800, Note_on_c, 9, 42, 0
1, 40800, Note_on_c, 9, 38, 0
1, 40800, Note_on_c, 9, 42, 64
1, 40800, Note_on_c, 9, 36, 64
1, 40840, Note_on_c, 9, 42, 0
1, 40840, Note_on_c, 9, 36, 0
1, 40880, Note_on_c, 9, 38, 64
1, 40920, Note_on_c, 9, 38, 0
1, 40920, Note_on_c, 9, 46, 64
1, 40960, Note_on_c, 9, 46, 0
1, 41040, Note_on_c, 9, 42, 64
1, 41040, Note_on_c, 9, 38, 64
1, 41080, Note_on_c, 9, 42, 0
1, 41080, Note_on_c, 9, 38, 0
1, 41160, Note_on_c, 9, 42, 64
1, 41200, Note_on_c, 9, 42, 0
1, 41240, Note_on_c, 9, 36, 64
1, 41280, Note_on_c, 9, 36, 0
1, 41280, Note_on_c, 9, 42, 64
1, 41320, Note_on_c, 9, 42, 0
1, 41400, Note_on_c, 9, 46, 64
1, 41400, Note_on_c, 9, 36, 64
1, 41440, Note_on_c, 9, 46, 0
1, 41440, Note_on_c, 9, 36, 0
1, 41520, Note_on_c, 9, 42, 64
1, 41520, Note_on_c, 9, 38, 64
1, 41560, Note_on_c, 9, 42, 0
1, 41560, Note_on_c, 9, 38, 0
1, 41600, Note_on_c, 9, 42, 64
1, 41640, Note_on_c, 9, 42, 0
1, 41640, Note_on_c, 9, 42, 64
1, 41680, Note_on_c, 9, 42, 0
1, 41720, Note_on_c, 9, 42, 64
1, 41720, Note_on_c, 9, 38, 64
1, 41760, Note_on_c, 9, 42, 0
1, 41760, Note_on_c, 9, 38, 0
1, 41760, Note_on_c, 9, 42, 64
1, 41760, Note_on_c, 9, 36, 64
1, 41800, Note_on_c, 9, 42, 0
1, 41800, Note_on_c, 9, 36, 0
1, 41840, Note_on_c, 9, 38, 64
1, 41880, Note_on_c, 9, 38, 0
1, 41880, Note_on_c, 9, 46, 64
1, 41920, Note_on_c, 9, 46, 0
1, 42000, Note_on_c, 9, 42, 64
1, 42000, Note_on_c, 9, 38, 64
1, 42040, Note_on_c, 9, 42, 0
1, 42040, Note_on_c, 9, 38, 0
1, 42120, Note_on_c, 9, 42, 64
1, 42160, Note_on_c, 9, 42, 0
1, 42200, Note_on_c, 9, 36, 64
1, 42240, Note_on_c, 9, 36, 0
1, 42240, Note_on_c, 9, 42, 64
1, 42280, Note_on_c, 9, 42, 0
1, 42360, Note_on_c, 9, 42, 64
1, 42360, Note_on_c, 9, 36, 64
1, 42400, Note_on_c, 9, 42, 0
1, 42400, Note_on_c, 9, 36, 0
1, 42480, Note_on_c, 9, 42, 64
1, 42480, Note_on_c, 9, 38, 64
1, 42520, Note_on_c, 9, 42, 0
1, 42520, Note_on_c, 9, 38, 0
1, 42560, Note_on_c, 9, 42, 64
1, 42600, Note_on_c, 9, 42, 0
1, 42600, Note_on_c, 9, 42, 64
1, 42600, Note_on_c, 9, 36, 64
1, 42640, Note_on_c, 9, 42, 0
1, 42640, Note_on_c, 9, 36, 0
1, 42680, Note_on_c, 9, 42, 64
1, 42720, Note_on_c, 9, 42, 0
1, 42720, Note_on_c, 9, 42, 64
1, 42760, Note_on_c, 9, 42, 0
1, 42840, Note_on_c, 9, 42, 64
1, 42840, Note_on_c, 9, 36, 64
1, 42880, Note_on_c, 9, 42, 0
1, 42880, Note_on_c, 9, 36, 0
1, 42960, Note_on_c, 9, 42, 64
1, 42960, Note_on_c, 9, 38, 64
1, 43000, Note_on_c, 9, 42, 0
1, 43000, Note_on_c, 9, 38, 0
1, 43040, Note_on_c, 9, 42, 64
1, 43080, Note_on_c, 9, 42, 0
1, 43080, Note_on_c, 9, 42, 64
1, 43080, Note_on_c, 9, 36, 64
1, 43120, Note_on_c, 9, 42, 0
1, 43120, Note_on_c, 9, 36, 0
1, 43160, Note_on_c, 9, 42, 64
1, 43200, Note_on_c, 9, 42, 0
1, 43200, Note_on_c, 9, 42, 64
1, 43240, Note_on_c, 9, 42, 0
1, 43320, Note_on_c, 9, 42, 64
1, 43320, Note_on_c, 9, 36, 64
1, 43360, Note_on_c, 9, 42, 0
1, 43360, Note_on_c, 9, 36, 0
1, 43440, Note_on_c, 9, 42, 64
1, 43440, Note_on_c, 9, 38, 64
1, 43480, Note_on_c, 9, 42, 0
1, 43480, Note_on_c, 9, 38, 0
1, 43520, Note_on_c, 9, 42, 64
1, 43560, Note_on_c, 9, 42, 0
1, 43560, Note_on_c, 9, 42, 64
1, 43560, Note_on_c, 9, 36, 64
1, 43600, Note_on_c, 9, 42, 0
1, 43600, Note_on_c, 9, 36, 0
1, 43640, Note_on_c, 9, 42, 64
1, 43680, Note_on_c, 9, 42, 0
1, 43680, Note_on_c, 9, 42, 64
1, 43720, Note_on_c, 9, 42, 0
1, 43800, Note_on_c, 9, 42, 64
1, 43800, Note_on_c, 9, 36, 64
1, 43840, Note_on_c, 9, 42, 0
1, 43840, Note_on_c, 9, 36, 0
1, 43920, Note_on_c, 9, 42, 64
1, 43920, Note_on_c, 9, 38, 64
1, 43960, Note_on_c, 9, 42, 0
1, 43960, Note_on_c, 9, 38, 0
1, 44000, Note_on_c, 9, 42, 64
1, 44040, Note_on_c, 9, 42, 0
1, 44040, Note_on_c, 9, 42, 64
1, 44040, Note_on_c, 9, 36, 64
1, 44080, Note_on_c, 9, 42, 0
1, 44080, Note_on_c, 9, 36, 0
1, 44120, Note_on_c, 9, 42, 64
1, 44160, Note_on_c, 9, 42, 0
1, 44160, Note_on_c, 9, 42, 64
1, 44200, Note_on_c, 9, 42, 0
1, 44280, Note_on_c, 9, 46, 64
1, 44280, Note_on_c, 9, 36, 64
1, 44320, Note_on_c, 9, 46, 0
1, 44320, Note_on_c, 9, 36, 0
1, 44400, Note_on_c, 9, 42, 64
1, 44400, Note_on_c, 9, 38, 64
1, 44440, Note_on_c, 9, 42, 0
1, 44440, Note_on_c, 9, 38, 0
1, 44480, Note_on_c, 9, 42, 64
1, 44520, Note_on_c, 9, 42, 0
1, 44520, Note_on_c, 9, 42, 64
1, 44520, Note_on_c, 9, 36, 64
1, 44560, Note_on_c, 9, 42, 0
1, 44560, Note_on_c, 9, 36, 0
1, 44600, Note_on_c, 9, 42, 64
1, 44640, Note_on_c, 9, 42, 0
1, 44640, Note_on_c, 9, 42, 64
1, 44640, Note_on_c, 9, 36, 64
1, 44680, Note_on_c, 9, 42, 0
1, 44680, Note_on_c, 9, 36, 0
1, 44760, Note_on_c, 9, 42, 64
1, 44800, Note_on_c, 9, 42, 0
1, 44880, Note_on_c, 9, 42, 64
1, 44880, Note_on_c, 9, 38, 64
1, 44920, Note_on_c, 9, 42, 0
1, 44920, Note_on_c, 9, 38, 0
1, 45000, Note_on_c, 9, 42, 64
1, 45040, Note_on_c, 9, 42, 0
1, 45120, Note_on_c, 9, 42, 64
1, 45160, Note_on_c, 9, 42, 0
1, 45240, Note_on_c, 9, 46, 64
1, 45240, Note_on_c, 9, 36, 64
1, 45280, Note_on_c, 9, 46, 0
1, 45280, Note_on_c, 9, 36, 0
1, 45360, Note_on_c, 9, 42, 64
1, 45360, Note_on_c, 9, 38, 64
1, 45400, Note_on_c, 9, 42, 0
1, 45400, Note_on_c, 9, 38, 0
1, 45440, Note_on_c, 9, 42, 64
1, 45480, Note_on_c, 9, 42, 0
1, 45480, Note_on_c, 9, 42, 64
1, 45480, Note_on_c, 9, 36, 64
1, 45520, Note_on_c, 9, 42, 0
1, 45520, Note_on_c, 9, 36, 0
1, 45560, Note_on_c, 9, 42, 64
1, 45600, Note_on_c, 9, 42, 0
1, 45600, Note_on_c, 9, 42, 64
1, 45600, Note_on_c, 9, 36, 64
1, 45640, Note_on_c, 9, 42, 0
1, 45640, Note_on_c, 9, 36, 0
1, 45720, Note_on_c, 9, 42, 64
1, 45760, Note_on_c, 9, 42, 0
1, 45840, Note_on_c, 9, 42, 64
1, 45840, Note_on_c, 9, 38, 64
1, 45880, Note_on_c, 9, 42, 0
1, 45880, Note_on_c, 9, 38, 0
1, 45960, Note_on_c, 9, 42, 64
1, 46000, Note_on_c, 9, 42, 0
1, 46080, Note_on_c, 9, 42, 64
1, 46120, Note_on_c, 9, 42, 0
1, 46200, Note_on_c, 9, 42, 64
1, 46240, Note_on_c, 9, 42, 0
1, 46320, Note_on_c, 9, 42, 64
1, 46360, Note_on_c, 9, 42, 0
1, 46440, Note_on_c, 9, 42, 64
1, 46480, Note_on_c, 9, 42, 0
1, 46560, Note_on_c, 9, 42, 64
1, 46600, Note_on_c, 9, 42, 0
1, 46680, Note_on_c, 9, 46, 64
1, 46720, Note_on_c, 9, 46, 0
1, 46800, Note_on_c, 9, 44, 64
1, 46840, Note_on_c, 9, 44, 0
1, 46880, Note_on_c, 9, 42, 64
1, 46920, Note_on_c, 9, 42, 0
1, 46920, Note_on_c, 9, 42, 64
1, 46960, Note_on_c, 9, 42, 0
1, 47000, Note_on_c, 9, 42, 64
1, 47040, Note_on_c, 9, 42, 0
1, 47040, Note_on_c, 9, 42, 64
1, 47080, Note_on_c, 9, 42, 0
1, 47160, Note_on_c, 9, 46, 64
1, 47200, Note_on_c, 9, 46, 0
1, 47280, Note_on_c, 9, 42, 64
1, 47320, Note_on_c, 9, 42, 0
1, 47400, Note_on_c, 9, 42, 64
1, 47440, Note_on_c, 9, 42, 0
1, 47520, Note_on_c, 9, 42, 64
1, 47560, Note_on_c, 9, 42, 0
1, 47640, Note_on_c, 9, 42, 64
1, 47680, Note_on_c, 9, 42, 0
1, 47760, Note_on_c, 9, 42, 64
1, 47800, Note_on_c, 9, 42, 0
1, 47840, Note_on_c, 9, 42, 64
1, 47880, Note_on_c, 9, 42, 0
1, 47880, Note_on_c, 9, 42, 64
1, 47920, Note_on_c, 9, 42, 0
1, 47960, Note_on_c, 9, 42, 64
1, 48000, Note_on_c, 9, 42, 0
1, 48000, Note_on_c, 9, 42, 64
1, 48040, Note_on_c, 9, 42, 0
1, 48120, Note_on_c, 9, 42, 64
1, 48160, Note_on_c, 9, 42, 0
1, 48240, Note_on_c, 9, 42, 64
1, 48280, Note_on_c, 9, 42, 0
1, 48360, Note_on_c, 9, 42, 64
1, 48400, Note_on_c, 9, 42, 0
1, 48480, Note_on_c, 9, 42, 64
1, 48520, Note_on_c, 9, 42, 0
1, 48600, Note_on_c, 9, 46, 64
1, 48640, Note_on_c, 9, 46, 0
1, 48720, Note_on_c, 9, 44, 64
1, 48760, Note_on_c, 9, 44, 0
1, 48800, Note_on_c, 9, 42, 64
1, 48840, Note_on_c, 9, 42, 0
1, 48840, Note_on_c, 9, 42, 64
1, 48880, Note_on_c, 9, 42, 0
1, 48920, Note_on_c, 9, 42, 64
1, 48960, Note_on_c, 9, 42, 0
1, 48960, Note_on_c, 9, 42, 64
1, 49000, Note_on_c, 9, 42, 0
1, 49080, Note_on_c, 9, 46, 64
1, 49120, Note_on_c, 9, 46, 0
1, 49200, Note_on_c, 9, 42, 64
1, 49240, Note_on_c, 9, 42, 0
1, 49320, Note_on_c, 9, 42, 64
1, 49360, Note_on_c, 9, 42, 0
1, 49440, Note_on_c, 9, 42, 64
1, 49480, Note_on_c, 9, 42, 0
1, 49560, Note_on_c, 9, 42, 64
1, 49600, Note_on_c, 9, 42, 0
1, 49680, Note_on_c, 9, 42, 64
1, 49720, Note_on_c, 9, 42, 0
1, 49760, Note_on_c, 9, 42, 64
1, 49800, Note_on_c, 9, 42, 0
1, 49800, Note_on_c, 9, 42, 64
1, 49840, Note_on_c, 9, 42, 0
1, 49880, Note_on_c, 9, 42, 64
1, 49920, Note_on_c, 9, 42, 0
1, 50160, Note_on_c, 9, 38, 64
1, 50220, Note_on_c, 9, 38, 0
1, 50640, Note_on_c, 9, 38, 64
1, 50700, Note_on_c, 9, 38, 0
1, 50820, Note_on_c, 9, 38, 64
1, 50880, Note_on_c, 9, 38, 0
1, 50940, Note_on_c, 9, 38, 64
1, 51000, Note_on_c, 9, 38, 0
1, 51120, Note_on_c, 9, 38, 64
1, 51180, Note_on_c, 9, 38, 0
1, 51600, Note_on_c, 9, 38, 64
1, 51660, Note_on_c, 9, 38, 0
1, 52080, Note_on_c, 9, 38, 64
1, 52140, Note_on_c, 9, 38, 0
1, 52560, Note_on_c, 9, 38, 64
1, 52620, Note_on_c, 9, 38, 0
1, 52740, Note_on_c, 9, 38, 64
1, 52800, Note_on_c, 9, 38, 0
1, 52860, Note_on_c, 9, 38, 64
1, 52920, Note_on_c, 9, 38, 0
1, 53040, Note_on_c, 9, 38, 64
1, 53100, Note_on_c, 9, 38, 0
1, 53520, Note_on_c, 9, 38, 64
1, 53580, Note_on_c, 9, 38, 0
1, 53760, Note_on_c, 9, 36, 64
1, 53820, Note_on_c, 9, 36, 0
1, 54180, Note_on_c, 9, 36, 64
1, 54240, Note_on_c, 9, 36, 0
1, 54360, Note_on_c, 9, 36, 64
1, 54420, Note_on_c, 9, 36, 0
1, 54720, Note_on_c, 9, 36, 64
1, 54780, Note_on_c, 9, 36, 0
1, 55140, Note_on_c, 9, 36, 64
1, 55200, Note_on_c, 9, 36, 0
1, 55320, Note_on_c, 9, 36, 64
1, 55380, Note_on_c, 9, 36, 0
1, 55560, Note_on_c, 9, 36, 64
1, 55620, Note_on_c, 9, 36, 0
1, 55680, Note_on_c, 9, 36, 64
1, 55740, Note_on_c, 9, 36, 0
1, 56100, Note_on_c, 9, 36, 64
1, 56160, Note_on_c, 9, 36, 0
1, 56280, Note_on_c, 9, 36, 64
1, 56340, Note_on_c, 9, 36, 0
1, 56640, Note_on_c, 9, 36, 64
1, 56700, Note_on_c, 9, 36, 0
1, 57060, Note_on_c, 9, 36, 64
1, 57120, Note_on_c, 9, 36, 0
1, 57240, Note_on_c, 9, 36, 64
1, 57300, Note_on_c, 9, 36, 0
1, 57480, Note_on_c, 9, 36, 64
1, 57540, Note_on_c, 9, 36, 0
1, 57600, Note_on_c, 9, 42, 64
1, 57600, Note_on_c, 9, 36, 64
1, 57640, Note_on_c, 9, 42, 0
1, 57640, Note_on_c, 9, 36, 0
1, 57720, Note_on_c, 9, 42, 64
1, 57760, Note_on_c, 9, 42, 0
1, 57840, Note_on_c, 9, 42, 64
1, 57840, Note_on_c, 9, 38, 64
1, 57880, Note_on_c, 9, 42, 0
1, 57880, Note_on_c, 9, 38, 0
1, 57960, Note_on_c, 9, 42, 64
1, 58000, Note_on_c, 9, 42, 0
1, 58040, Note_on_c, 9, 36, 64
1, 58080, Note_on_c, 9, 36, 0
1, 58080, Note_on_c, 9, 42, 64
1, 58120, Note_on_c, 9, 42, 0
1, 58200, Note_on_c, 9, 46, 64
1, 58240, Note_on_c, 9, 46, 0
1, 58320, Note_on_c, 9, 42, 64
1, 58320, Note_on_c, 9, 38, 64
1, 58360, Note_on_c, 9, 42, 0
1, 58360, Note_on_c, 9, 38, 0
1, 58400, Note_on_c, 9, 42, 64
1, 58440, Note_on_c, 9, 42, 0
1, 58440, Note_on_c, 9, 42, 64
1, 58480, Note_on_c, 9, 42, 0
1, 58520, Note_on_c, 9, 42, 64
1, 58520, Note_on_c, 9, 38, 64
1, 58560, Note_on_c, 9, 42, 0
1, 58560, Note_on_c, 9, 38, 0
1, 58560, Note_on_c, 9, 42, 64
1, 58560, Note_on_c, 9, 36, 64
1, 58600, Note_on_c, 9, 42, 0
1, 58600, Note_on_c, 9, 36, 0
1, 58640, Note_on_c, 9, 38, 64
1, 58680, Note_on_c, 9, 38, 0
1, 58680, Note_on_c, 9, 46, 64
1, 58720, Note_on_c, 9, 46, 0
1, 58800, Note_on_c, 9, 42, 64
1, 58800, Note_on_c, 9, 38, 64
1, 58840, Note_on_c, 9, 42, 0
1, 58840, Note_on_c, 9, 38, 0
1, 58920, Note_on_c, 9, 42, 64
1, 58960, Note_on_c, 9, 42, 0
1, 59000, Note_on_c, 9, 36, 64
1, 59040, Note_on_c, 9, 36, 0
1, 59040, Note_on_c, 9, 42, 64
1, 59080, Note_on_c, 9, 42, 0
1, 59160, Note_on_c, 9, 42, 64
1, 59160, Note_on_c, 9, 36, 64
1, 59200, Note_on_c, 9, 42, 0
1, 59200, Note_on_c, 9, 36, 0
1, 59280, Note_on_c, 9, 42, 64
1, 59280, Note_on_c, 9, 38, 64
1, 59320, Note_on_c, 9, 42, 0
1, 59320, Note_on_c, 9, 38, 0
1, 59360, Note_on_c, 9, 42, 64
1, 59400, Note_on_c, 9, 42, 0
1, 59400, Note_on_c, 9, 42, 64
1, 59400, Note_on_c, 9, 36, 64
1, 59440, Note_on_c, 9, 42, 0
1, 59440, Note_on_c, 9, 36, 0
1, 59480, Note_on_c, 9, 42, 64
1, 59520, Note_on_c, 9, 42, 0
1, 59520, Note_on_c, 9, 42, 64
1, 59520, Note_on_c, 9, 36, 64
1, 59560, Note_on_c, 9, 42, 0
1, 59560, Note_on_c, 9, 36, 0
1, 59640, Note_on_c, 9, 42, 64
1, 59680, Note_on_c, 9, 42, 0
1, 59760, Note_on_c, 9, 42, 64
1, 59760, Note_on_c, 9, 38, 64
1, 59800, Note_on_c, 9, 42, 0
1, 59800, Note_on_c, 9, 38, 0
1, 59880, Note_on_c, 9, 42, 64
1, 59920, Note_on_c, 9, 42, 0
1, 59960, Note_on_c, 9, 36, 64
1, 60000, Note_on_c, 9, 36, 0
1, 60000, Note_on_c, 9, 42, 64
1, 60040, Note_on_c, 9, 42, 0
1, 60120, Note_on_c, 9, 46, 64
1, 60160, Note_on_c, 9, 46, 0
1, 60240, Note_on_c, 9, 42, 64
1, 60240, Note_on_c, 9, 38, 64
1, 60280, Note_on_c, 9, 42, 0
1, 60280, Note_on_c, 9, 38, 0
1, 60320, Note_on_c, 9, 42, 64
1, 60360, Note_on_c, 9, 42, 0
1, 60360, Note_on_c, 9, 42, 64
1, 60400, Note_on_c, 9, 42, 0
1, 60440, Note_on_c, 9, 42, 64
1, 60440, Note_on_c, 9, 38, 64
1, 60480, Note_on_c, 9, 42, 0
1, 60480, Note_on_c, 9, 38, 0
1, 60480, Note_on_c, 9, 42, 64
1, 60480, Note_on_c, 9, 36, 64
1, 60520, Note_on_c, 9, 42, 0
1, 60520, Note_on_c, 9, 36, 0
1, 60560, Note_on_c, 9, 38, 64
1, 60600, Note_on_c, 9, 38, 0
1, 60600, Note_on_c, 9, 46, 64
1, 60640, Note_on_c, 9, 46, 0
1, 60720, Note_on_c, 9, 42, 64
1, 60720, Note_on_c, 9, 38, 64
1, 60760, Note_on_c, 9, 42, 0
1, 60760, Note_on_c, 9, 38, 0
1, 60840, Note_on_c, 9, 42, 64
1, 60880, Note_on_c, 9, 42, 0
1, 60920, Note_on_c, 9, 36, 64
1, 60960, Note_on_c, 9, 36, 0
1, 60960, Note_on_c, 9, 42, 64
1, 61000, Note_on_c, 9, 42, 0
1, 61080, Note_on_c, 9, 42, 64
1, 61080, Note_on_c, 9, 36, 64
1, 61120, Note_on_c, 9, 42, 0
1, 61120, Note_on_c, 9, 36, 0
1, 61200, Note_on_c, 9, 42, 64
1, 61200, Note_on_c, 9, 38, 64
1, 61240, Note_on_c, 9, 42, 0
1, 61240, Note_on_c, 9, 38, 0
1, 61280, Note_on_c, 9, 42, 64
1, 61320, Note_on_c, 9, 42, 0
1, 61320, Note_on_c, 9, 42, 64
1, 61320, Note_on_c, 9, 36, 64
1, 61360, Note_on_c, 9, 42, 0
1, 61360, Note_on_c, 9, 36, 0
1, 61400, Note_on_c, 9, 42, 64
1, 61440, Note_on_c, 9, 42, 0
1, 61440, Note_on_c, 9, 69, 64
1, 61480, Note_on_c, 9, 69, 0
1, 61520, Note_on_c, 9, 69, 64
1, 61560, Note_on_c, 9, 69, 0
1, 61560, Note_on_c, 9, 69, 64
1, 61600, Note_on_c, 9, 69, 0
1, 61640, Note_on_c, 9, 69, 64
1, 61680, Note_on_c, 9, 69, 0
1, 61680, Note_on_c, 9, 69, 64
1, 61720, Note_on_c, 9, 69, 0
1, 61760, Note_on_c, 9, 69, 64
1, 61800, Note_on_c, 9, 69, 0
1, 61800, Note_on_c, 9, 69, 64
1, 61840, Note_on_c, 9, 69, 0
1, 61920, Note_on_c, 9, 69, 64
1, 61960, Note_on_c, 9, 69, 0
1, 62000, Note_on_c, 9, 69, 64
1, 62040, Note_on_c, 9, 69, 0
1, 62040, Note_on_c, 9, 69, 64
1, 62080, Note_on_c, 9, 69, 0
1, 62120, Note_on_c, 9, 69, 64
1, 62160, Note_on_c, 9, 69, 0
1, 62160, Note_on_c, 9, 69, 64
1, 62200, Note_on_c, 9, 69, 0
1, 62400, Note_on_c, 9, 69, 64
1, 62440, Note_on_c, 9, 69, 0
1, 62520, Note_on_c, 9, 69, 64
1, 62560, Note_on_c, 9, 69, 0
1, 62600, Note_on_c, 9, 69, 64
1, 62640, Note_on_c, 9, 69, 0
1, 62640, Note_on_c, 9, 69, 64
1, 62680, Note_on_c, 9, 69, 0
1, 62720, Note_on_c, 9, 69, 64
1, 62760, Note_on_c, 9, 69, 0
1, 62760, Note_on_c, 9, 69, 64
1, 62800, Note_on_c, 9, 69, 0
1, 62880, Note_on_c, 9, 69, 64
1, 62920, Note_on_c, 9, 69, 0
1, 62960, Note_on_c, 9, 69, 64
1, 63000, Note_on_c, 9, 69, 0
1, 63000, Note_on_c, 9, 69, 64
1, 63040, Note_on_c, 9, 69, 0
1, 63080, Note_on_c, 9, 69, 64
1, 63120, Note_on_c, 9, 69, 0
1, 63120, Note_on_c, 9, 69, 64
1, 63160, Note_on_c, 9, 69, 0
1, 63360, Note_on_c, 9, 69, 64
1, 63400, Note_on_c, 9, 69, 0
1, 63440, Note_on_c, 9, 69, 64
1, 63480, Note_on_c, 9, 69, 0
1, 63480, Note_on_c, 9, 69, 64
1, 63520, Note_on_c, 9, 69, 0
1, 63560, Note_on_c, 9, 69, 64
1, 63600, Note_on_c, 9, 69, 0
1, 63600, Note_on_c, 9, 69, 64
1, 63640, Note_on_c, 9, 69, 0
1, 63680, Note_on_c, 9, 69, 64
1, 63720, Note_on_c, 9, 69, 0
1, 63720, Note_on_c, 9, 69, 64
1, 63760, Note_on_c, 9, 69, 0
1, 63840, Note_on_c, 9, 69, 64
1, 63880, Note_on_c, 9, 69, 0
1, 63920, Note_on_c, 9, 69, 64
1, 63960, Note_on_c, 9, 69, 0
1, 63960, Note_on_c, 9, 69, 64
1, 64000, Note_on_c, 9, 69, 0
1, 64040, Note_on_c, 9, 69, 64
1, 64080, Note_on_c, 9, 69, 0
1, 64080, Note_on_c, 9, 69, 64
1, 64120, Note_on_c, 9, 69, 0
1, 64320, Note_on_c, 9, 69, 64
1, 64360, Note_on_c, 9, 69, 0
1, 64440, Note_on_c, 9, 69, 64
1, 64480, Note_on_c, 9, 69, 0
1, 64520, Note_on_c, 9, 69, 64
1, 64560, Note_on_c, 9, 69, 0
1, 64560, Note_on_c, 9, 69, 64
1, 64600, Note_on_c, 9, 69, 0
1, 64640, Note_on_c, 9, 69, 64
1, 64680, Note_on_c, 9, 69, 0
1, 64680, Note_on_c, 9, 69, 64
1, 64720, Note_on_c, 9, 69, 0
1, 64800, Note_on_c, 9, 69, 64
1, 64840, Note_on_c, 9, 69, 0
1, 64880, Note_on_c, 9, 69, 64
1, 64920, Note_on_c, 9, 69, 0
1, 64920, Note_on_c, 9, 69, 64
1, 64960, Note_on_c, 9, 69, 0
1, 65000, Note_on_c, 9, 69, 64
1, 65040, Note_on_c, 9, 69, 0
1, 65040, Note_on_c, 9, 69, 64
1, 65080, Note_on_c, 9, 69, 0
1, 65520, Note_on_c, 9, 39, 64
1, 65580, Note_on_c, 9, 39, 0
1, 66000, Note_on_c, 9, 39, 64
1, 66060, Note_on_c, 9, 39, 0
1, 66180, Note_on_c, 9, 39, 64
1, 66240, Note_on_c, 9, 39, 0
1, 66300, Note_on_c, 9, 39, 64
1, 66360, Note_on_c, 9, 39, 0
1, 66480, Note_on_c, 9, 39, 64
1, 66540, Note_on_c, 9, 39, 0
1, 66960, Note_on_c, 9, 39, 64
1, 67020, Note_on_c, 9, 39, 0
1, 67440, Note_on_c, 9, 39, 64
1, 67500, Note_on_c, 9, 39, 0
1, 67920, Note_on_c, 9, 39, 64
1, 67980, Note_on_c, 9, 39, 0
1, 68100, Note_on_c, 9, 39, 64
1, 68160, Note_on_c, 9, 39, 0
1, 68220, Note_on_c, 9, 39, 64
1, 68280, Note_on_c, 9, 39, 0
1, 68400, Note_on_c, 9, 39, 64
1, 68460, Note_on_c, 9, 39, 0
1, 68880, Note_on_c, 9, 39, 64
1, 68940, Note_on_c, 9, 39, 0
1, 69120, Note_on_c, 9, 56, 64
1, 69180, Note_on_c, 9, 56, 0
1, 69540, Note_on_c, 9, 56, 64
1, 69600, Note_on_c, 9, 56, 0
1, 69660, Note_on_c, 9, 56, 64
1, 69720, Note_on_c, 9, 56, 0
1, 69720, Note_on_c, 9, 56, 64
1, 69780, Note_on_c, 9, 56, 0
1, 70080, Note_on_c, 9, 56, 64
1, 70140, Note_on_c, 9, 56, 0
1, 70500, Note_on_c, 9, 56, 64
1, 70560, Note_on_c, 9, 56, 0
1, 70620, Note_on_c, 9, 56, 64
1, 70680, Note_on_c, 9, 56, 0
1, 70680, Note_on_c, 9, 56, 64
1, 70740, Note_on_c, 9, 56, 0
1, 70920, Note_on_c, 9, 56, 64
1, 70980, Note_on_c, 9, 56, 0
1, 71040, Note_on_c, 9, 56, 64
1, 71100, Note_on_c, 9, 56, 0
1, 71460, Note_on_c, 9, 56, 64
1, 71520, Note_on_c, 9, 56, 0
1, 71580, Note_on_c, 9, 56, 64
1, 71640, Note_on_c, 9, 56, 0
1, 71640, Note_on_c, 9, 56, 64
1, 71700, Note_on_c, 9, 56, 0
1, 72000, Note_on_c, 9, 56, 64
1, 72060, Note_on_c, 9, 56, 0
1, 72420, Note_on_c, 9, 56, 64
1, 72480, Note_on_c, 9, 56, 0
1, 72540, Note_on_c, 9, 56, 64
1, 72600, Note_on_c, 9, 56, 0
1, 72600, Note_on_c, 9, 56, 64
1, 72660, Note_on_c, 9, 56, 0
1, 72840, Note_on_c, 9, 56, 64
1, 72900, Note_on_c, 9, 56, 0
1, 72960, Note_on_c, 9, 69, 64
1, 72960, Note_on_c, 9, 56, 64
1, 73000, Note_on_c, 9, 69, 0
1, 73000, Note_on_c, 9, 56, 0
1, 73040, Note_on_c, 9, 69, 64
1, 73080, Note_on_c, 9, 69, 0
1, 73080, Note_on_c, 9, 69, 64
1, 73120, Note_on_c, 9, 69, 0
1, 73160, Note_on_c, 9, 69, 64
1, 73200, Note_on_c, 9, 69, 0
1, 73200, Note_on_c, 9, 69, 64
1, 73200, Note_on_c, 9, 39, 64
1, 73240, Note_on_c, 9, 69, 0
1, 73240, Note_on_c, 9, 39, 0
1, 73280, Note_on_c, 9, 69, 64
1, 73320, Note_on_c, 9, 69, 0
1, 73320, Note_on_c, 9, 69, 64
1, 73360, Note_on_c, 9, 69, 0
1, 73400, Note_on_c, 9, 56, 64
1, 73440, Note_on_c, 9, 56, 0
1, 73440, Note_on_c, 9, 69, 64
1, 73480, Note_on_c, 9, 69, 0
1, 73520, Note_on_c, 9, 69, 64
1, 73520, Note_on_c, 9, 56, 64
1, 73560, Note_on_c, 9, 69, 0
1, 73560, Note_on_c, 9, 56, 0
1, 73560, Note_on_c, 9, 69, 64
1, 73560, Note_on_c, 9, 56, 64
1, 73600, Note_on_c, 9, 69, 0
1, 73600, Note_on_c, 9, 56, 0
1, 73640, Note_on_c, 9, 69, 64
1, 73680, Note_on_c, 9, 69, 0
1, 73680, Note_on_c, 9, 69, 64
1, 73680, Note_on_c, 9, 39, 64
1, 73720, Note_on_c, 9, 69, 0
1, 73720, Note_on_c, 9, 39, 0
1, 73880, Note_on_c, 9, 39, 64
1, 73920, Note_on_c, 9, 39, 0
1, 73920, Note_on_c, 9, 69, 64
1, 73920, Note_on_c, 9, 56, 64
1, 73960, Note_on_c, 9, 69, 0
1, 73960, Note_on_c, 9, 56, 0
1, 74000, Note_on_c, 9, 39, 64
1, 74040, Note_on_c, 9, 39, 0
1, 74040, Note_on_c, 9, 69, 64
1, 74080, Note_on_c, 9, 69, 0
1, 74120, Note_on_c, 9, 69, 64
1, 74160, Note_on_c, 9, 69, 0
1, 74160, Note_on_c, 9, 69, 64
1, 74160, Note_on_c, 9, 39, 64
1, 74200, Note_on_c, 9, 69, 0
1, 74200, Note_on_c, 9, 39, 0
1, 74240, Note_on_c, 9, 69, 64
1, 74280, Note_on_c, 9, 69, 0
1, 74280, Note_on_c, 9, 69, 64
1, 74320, Note_on_c, 9, 69, 0
1, 74360, Note_on_c, 9, 56, 64
1, 74400, Note_on_c, 9, 56, 0
1, 74400, Note_on_c, 9, 69, 64
1, 74440, Note_on_c, 9, 69, 0
1, 74480, Note_on_c, 9, 69, 64
1, 74480, Note_on_c, 9, 56, 64
1, 74520, Note_on_c, 9, 69, 0
1, 74520, Note_on_c, 9, 56, 0
1, 74520, Note_on_c, 9, 69, 64
1, 74520, Note_on_c, 9, 56, 64
1, 74560, Note_on_c, 9, 69, 0
1, 74560, Note_on_c, 9, 56, 0
1, 74600, Note_on_c, 9, 69, 64
1, 74640, Note_on_c, 9, 69, 0
1, 74640, Note_on_c, 9, 69, 64
1, 74640, Note_on_c, 9, 39, 64
1, 74680, Note_on_c, 9, 69, 0
1, 74680, Note_on_c, 9, 39, 0
1, 74760, Note_on_c, 9, 56, 64
1, 74800, Note_on_c, 9, 56, 0
1, 74880, Note_on_c, 9, 69, 64
1, 74880, Note_on_c, 9, 56, 64
1, 74920, Note_on_c, 9, 69, 0
1, 74920, Note_on_c, 9, 56, 0
1, 74960, Note_on_c, 9, 69, 64
1, 75000, Note_on_c, 9, 69, 0
1, 75000, Note_on_c, 9, 69, 64
1, 75040, Note_on_c, 9, 69, 0
1, 75080, Note_on_c, 9, 69, 64
1, 75120, Note_on_c, 9, 69, 0
1, 75120, Note_on_c, 9, 69, 64
1, 75120, Note_on_c, 9, 39, 64
1, 75160, Note_on_c, 9, 69, 0
1, 75160, Note_on_c, 9, 39, 0
1, 75200, Note_on_c, 9, 69, 64
1, 75240, Note_on_c, 9, 69, 0
1, 75240, Note_on_c, 9, 69, 64
1, 75280, Note_on_c, 9, 69, 0
1, 75320, Note_on_c, 9, 56, 64
1, 75360, Note_on_c, 9, 56, 0
1, 75360, Note_on_c, 9, 69, 64
1, 75400, Note_on_c, 9, 69, 0
1, 75440, Note_on_c, 9, 69, 64
1, 75440, Note_on_c, 9, 56, 64
1, 75480, Note_on_c, 9, 69, 0
1, 75480, Note_on_c, 9, 56, 0
1, 75480, Note_on_c, 9, 69, 64
1, 75480, Note_on_c, 9, 56, 64
1, 75520, Note_on_c, 9, 69, 0
1, 75520, Note_on_c, 9, 56, 0
1, 75560, Note_on_c, 9, 69, 64
1, 75600, Note_on_c, 9, 69, 0
1, 75600, Note_on_c, 9, 69, 64
1, 75600, Note_on_c, 9, 39, 64
1, 75640, Note_on_c, 9, 69, 0
1, 75640, Note_on_c, 9, 39, 0
1, 75800, Note_on_c, 9, 39, 64
1, 75840, Note_on_c, 9, 39, 0
1, 75840, Note_on_c, 9, 69, 64
1, 75840, Note_on_c, 9, 56, 64
1, 75880, Note_on_c, 9, 69, 0
1, 75880, Note_on_c, 9, 56, 0
1, 75920, Note_on_c, 9, 39, 64
1, 75960, Note_on_c, 9, 39, 0
1, 75960, Note_on_c, 9, 69, 64
1, 76000, Note_on_c, 9, 69, 0
1, 76040, Note_on_c, 9, 69, 64
1, 76080, Note_on_c, 9, 69, 0
1, 76080, Note_on_c, 9, 69, 64
1, 76080, Note_on_c, 9, 39, 64
1, 76120, Note_on_c, 9, 69, 0
1, 76120, Note_on_c, 9, 39, 0
1, 76160, Note_on_c, 9, 69, 64
1, 76200, Note_on_c, 9, 69, 0
1, 76200, Note_on_c, 9, 69, 64
1, 76240, Note_on_c, 9, 69, 0
1, 76280, Note_on_c, 9, 56, 64
1, 76320, Note_on_c, 9, 56, 0
1, 76320, Note_on_c, 9, 69, 64
1, 76360, Note_on_c, 9, 69, 0
1, 76400, Note_on_c, 9, 69, 64
1, 76400, Note_on_c, 9, 56, 64
1, 76440, Note_on_c, 9, 69, 0
1, 76440, Note_on_c, 9, 56, 0
1, 76440, Note_on_c, 9, 69, 64
1, 76440, Note_on_c, 9, 56, 64
1, 76480, Note_on_c, 9, 69, 0
1, 76480, Note_on_c, 9, 56, 0
1, 76520, Note_on_c, 9, 69, 64
1, 76560, Note_on_c, 9, 69, 0
1, 76560, Note_on_c, 9, 69, 64
1, 76560, Note_on_c, 9, 39, 64
1, 76600, Note_on_c, 9, 69, 0
1, 76600, Note_on_c, 9, 39, 0
1, 76680, Note_on_c, 9, 56, 64
1, 76720, Note_on_c, 9, 56, 0
1, 76800, Note_on_c, 9, 69, 64
1, 76800, Note_on_c, 9, 56, 64
1, 76800, Note_on_c, 9, 42, 64
1, 76800, Note_on_c, 9, 36, 64
1, 76840, Note_on_c, 9, 69, 0
1, 76840, Note_on_c, 9, 56, 0
1, 76840, Note_on_c, 9, 42, 0
1, 76840, Note_on_c, 9, 36, 0
1, 76880, Note_on_c, 9, 69, 64
1, 76920, Note_on_c, 9, 69, 0
1, 76920, Note_on_c, 9, 69, 64
1, 76920, Note_on_c, 9, 42, 64
1, 76960, Note_on_c, 9, 69, 0
1, 76960, Note_on_c, 9, 42, 0
1, 77000, Note_on_c, 9, 69, 64
1, 77040, Note_on_c, 9, 69, 0
1, 77040, Note_on_c, 9, 69, 64
1, 77040, Note_on_c, 9, 39, 64
1, 77040, Note_on_c, 9, 42, 64
1, 77040, Note_on_c, 9, 38, 64
1, 77080, Note_on_c, 9, 69, 0
1, 77080, Note_on_c, 9, 39, 0
1, 77080, Note_on_c, 9, 42, 0
1, 77080, Note_on_c, 9, 38, 0
1, 77120, Note_on_c, 9, 69, 64
1, 77160, Note_on_c, 9, 69, 0
1, 77160, Note_on_c, 9, 69, 64
1, 77160, Note_on_c, 9, 42, 64
1, 77200, Note_on_c, 9, 69, 0
1, 77200, Note_on_c, 9, 42, 0
1, 77240, Note_on_c, 9, 56, 64
1, 77240, Note_on_c, 9, 36, 64
1, 77280, Note_on_c, 9, 56, 0
1, 77280, Note_on_c, 9, 36, 0
1, 77280, Note_on_c, 9, 69, 64
1, 77280, Note_on_c, 9, 42, 64
1, 77320, Note_on_c, 9, 69, 0
1, 77320, Note_on_c, 9, 42, 0
1, 77360, Note_on_c, 9, 69, 64
1, 77360, Note_on_c, 9, 56, 64
1, 77400, Note_on_c, 9, 69, 0
1, 77400, Note_on_c, 9, 56, 0
1, 77400, Note_on_c, 9, 69, 64
1, 77400, Note_on_c, 9, 56, 64
1, 77400, Note_on_c, 9, 46, 64
1, 77400, Note_on_c, 9, 36, 64
1, 77440, Note_on_c, 9, 69, 0
1, 77440, Note_on_c, 9, 56, 0
1, 77440, Note_on_c, 9, 46, 0
1, 77440, Note_on_c, 9, 36, 0
1, 77480, Note_on_c, 9, 69, 64
1, 77520, Note_on_c, 9, 69, 0
1, 77520, Note_on_c, 9, 69, 64
1, 77520, Note_on_c, 9, 39, 64
1, 77520, Note_on_c, 9, 42, 64
1, 77520, Note_on_c, 9, 38, 64
1, 77560, Note_on_c, 9, 69, 0
1, 77560, Note_on_c, 9, 39, 0
1, 77560, Note_on_c, 9, 42, 0
1, 77560, Note_on_c, 9, 38, 0
1, 77600, Note_on_c, 9, 42, 64
1, 77640, Note_on_c, 9, 42, 0
1, 77640, Note_on_c, 9, 42, 64
1, 77680, Note_on_c, 9, 42, 0
1, 77680, Note_on_c, 9, 38, 64
1, 77720, Note_on_c, 9, 38, 0
1, 77720, Note_on_c, 9, 39, 64
1, 77720, Note_on_c, 9, 42, 64
1, 77760, Note_on_c, 9, 39, 0
1, 77760, Note_on_c, 9, 42, 0
1, 77760, Note_on_c, 9, 69, 64
1, 77760, Note_on_c, 9, 56, 64
1, 77760, Note_on_c, 9, 42, 64
1, 77760, Note_on_c, 9, 36, 64
1, 77800, Note_on_c, 9, 69, 0
1, 77800, Note_on_c, 9, 56, 0
1, 77800, Note_on_c, 9, 42, 0
1, 77800, Note_on_c, 9, 36, 0
1, 77840, Note_on_c, 9, 39, 64
1, 77840, Note_on_c, 9, 38, 64
1, 77880, Note_on_c, 9, 39, 0
1, 77880, Note_on_c, 9, 38, 0
1, 77880, Note_on_c, 9, 69, 64
1, 77880, Note_on_c, 9, 46, 64
1, 77920, Note_on_c, 9, 69, 0
1, 77920, Note_on_c, 9, 46, 0
1, 77960, Note_on_c, 9, 69, 64
1, 78000, Note_on_c, 9, 69, 0
1, 78000, Note_on_c, 9, 69, 64
1, 78000, Note_on_c, 9, 39, 64
1, 78000, Note_on_c, 9, 42, 64
1, 78000, Note_on_c, 9, 38, 64
1, 78040, Note_on_c, 9, 69, 0
1, 78040, Note_on_c, 9, 39, 0
1, 78040, Note_on_c, 9, 42, 0
1, 78040, Note_on_c, 9, 38, 0
1, 78080, Note_on_c, 9, 69, 64
1, 78120, Note_on_c, 9, 69, 0
1, 78120, Note_on_c, 9, 69, 64
1, 78120, Note_on_c, 9, 42, 64
1, 78160, Note_on_c, 9, 69, 0
1, 78160, Note_on_c, 9, 42, 0
1, 78200, Note_on_c, 9, 56, 64
1, 78200, Note_on_c, 9, 36, 64
1, 78240, Note_on_c, 9, 56, 0
1, 78240, Note_on_c, 9, 36, 0
1, 78240, Note_on_c, 9, 69, 64
1, 78240, Note_on_c, 9, 42, 64
1, 78280, Note_on_c, 9, 69, 0
1, 78280, Note_on_c, 9, 42, 0
1, 78320, Note_on_c, 9, 69, 64
1, 78320, Note_on_c, 9, 56, 64
1, 78360, Note_on_c, 9, 69, 0
1, 78360, Note_on_c, 9, 56, 0
1, 78360, Note_on_c, 9, 69, 64
1, 78360, Note_on_c, 9, 56, 64
1, 78360, Note_on_c, 9, 42, 64
1, 78360, Note_on_c, 9, 36, 64
1, 78400, Note_on_c, 9, 69, 0
1, 78400, Note_on_c, 9, 56, 0
1, 78400, Note_on_c, 9, 42, 0
1, 78400, Note_on_c, 9, 36, 0
1, 78440, Note_on_c, 9, 69, 64
1, 78480, Note_on_c, 9, 69, 0
1, 78480, Note_on_c, 9, 69, 64
1, 78480, Note_on_c, 9, 39, 64
1, 78480, Note_on_c, 9, 42, 64
1, 78480, Note_on_c, 9, 38, 64
1, 78520, Note_on_c, 9, 69, 0
1, 78520, Note_on_c, 9, 39, 0
1, 78520, Note_on_c, 9, 42, 0
1, 78520, Note_on_c, 9, 38, 0
1, 78560, Note_on_c, 9, 42, 64
1, 78600, Note_on_c, 9, 42, 0
1, 78600, Note_on_c, 9, 56, 64
1, 78600, Note_on_c, 9, 42, 64
1, 78600, Note_on_c, 9, 36, 64
1, 78640, Note_on_c, 9, 56, 0
1, 78640, Note_on_c, 9, 42, 0
1, 78640, Note_on_c, 9, 36, 0
1, 78680, Note_on_c, 9, 42, 64
1, 78720, Note_on_c, 9, 42, 0
1, 78720, Note_on_c, 9, 69, 64
1, 78720, Note_on_c, 9, 56, 64
1, 78720, Note_on_c, 9, 42, 64
1, 78720, Note_on_c, 9, 36, 64
1, 78760, Note_on_c, 9, 69, 0
1, 78760, Note_on_c, 9, 56, 0
1, 78760, Note_on_c, 9, 42, 0
1, 78760, Note_on_c, 9, 36, 0
1, 78800, Note_on_c, 9, 69, 64
1, 78840, Note_on_c, 9, 69, 0
1, 78840, Note_on_c, 9, 69, 64
1, 78840, Note_on_c, 9, 42, 64
1, 78880, Note_on_c, 9, 69, 0
1, 78880, Note_on_c, 9, 42, 0
1, 78920, Note_on_c, 9, 69, 64
1, 78960, Note_on_c, 9, 69, 0
1, 78960, Note_on_c, 9, 69, 64
1, 78960, Note_on_c, 9, 39, 64
1, 78960, Note_on_c, 9, 42, 64
1, 78960, Note_on_c, 9, 38, 64
1, 79000, Note_on_c, 9, 69, 0
1, 79000, Note_on_c, 9, 39, 0
1, 79000, Note_on_c, 9, 42, 0
1, 79000, Note_on_c, 9, 38, 0
1, 79040, Note_on_c, 9, 69, 64
1, 79080, Note_on_c, 9, 69, 0
1, 79080, Note_on_c, 9, 69, 64
1, 79080, Note_on_c, 9, 42, 64
1, 79120, Note_on_c, 9, 69, 0
1, 79120, Note_on_c, 9, 42, 0
1, 79160, Note_on_c, 9, 56, 64
1, 79160, Note_on_c, 9, 36, 64
1, 79200, Note_on_c, 9, 56, 0
1, 79200, Note_on_c, 9, 36, 0
1, 79200, Note_on_c, 9, 69, 64
1, 79200, Note_on_c, 9, 42, 64
1, 79240, Note_on_c, 9, 69, 0
1, 79240, Note_on_c, 9, 42, 0
1, 79280, Note_on_c, 9, 69, 64
1, 79280, Note_on_c, 9, 56, 64
1, 79320, Note_on_c, 9, 69, 0
1, 79320, Note_on_c, 9, 56, 0
1, 79320, Note_on_c, 9, 69, 64
1, 79320, Note_on_c, 9, 56, 64
1, 79320, Note_on_c, 9, 46, 64
1, 79320, Note_on_c, 9, 36, 64
1, 79360, Note_on_c, 9, 69, 0
1, 79360, Note_on_c, 9, 56, 0
1, 79360, Note_on_c, 9, 46, 0
1, 79360, Note_on_c, 9, 36, 0
1, 79400, Note_on_c, 9, 69, 64
1, 79440, Note_on_c, 9, 69, 0
1, 79440, Note_on_c, 9, 69, 64
1, 79440, Note_on_c, 9, 39, 64
1, 79440, Note_on_c, 9, 42, 64
1, 79440, Note_on_c, 9, 38, 64
1, 79480, Note_on_c, 9, 69, 0
1, 79480, Note_on_c, 9, 39, 0
1, 79480, Note_on_c, 9, 42, 0
1, 79480, Note_on_c, 9, 38, 0
1, 79520, Note_on_c, 9, 42, 64
1, 79560, Note_on_c, 9, 42, 0
1, 79560, Note_on_c, 9, 42, 64
1, 79600, Note_on_c, 9, 42, 0
1, 79600, Note_on_c, 9, 38, 64
1, 79640, Note_on_c, 9, 38, 0
1, 79640, Note_on_c, 9, 39, 64
1, 79640, Note_on_c, 9, 42, 64
1, 79680, Note_on_c, 9, 39, 0
1, 79680, Note_on_c, 9, 42, 0
1, 79680, Note_on_c, 9, 69, 64
1, 79680, Note_on_c, 9, 56, 64
1, 79680, Note_on_c, 9, 42, 64
1, 79680, Note_on_c, 9, 36, 64
1, 79720, Note_on_c, 9, 69, 0
1, 79720, Note_on_c, 9, 56, 0
1, 79720, Note_on_c, 9, 42, 0
1, 79720, Note_on_c, 9, 36, 0
1, 79760, Note_on_c, 9, 39, 64
1, 79760, Note_on_c, 9, 38, 64
1, 79800, Note_on_c, 9, 39, 0
1, 79800, Note_on_c, 9, 38, 0
1, 79800, Note_on_c, 9, 69, 64
1, 79800, Note_on_c, 9, 46, 64
1, 79840, Note_on_c, 9, 69, 0
1, 79840, Note_on_c, 9, 46, 0
1, 79880, Note_on_c, 9, 69, 64
1, 79920, Note_on_c, 9, 69, 0
1, 79920, Note_on_c, 9, 69, 64
1, 79920, Note_on_c, 9, 39, 64
1, 79920, Note_on_c, 9, 42, 64
1, 79920, Note_on_c, 9, 38, 64
1, 79960, Note_on_c, 9, 69, 0
1, 79960, Note_on_c, 9, 39, 0
1, 79960, Note_on_c, 9, 42, 0
1, 79960, Note_on_c, 9, 38, 0
1, 80000, Note_on_c, 9, 69, 64
1, 80040, Note_on_c, 9, 69, 0
1, 80040, Note_on_c, 9, 69, 64
1, 80040, Note_on_c, 9, 42, 64
1, 80080, Note_on_c, 9, 69, 0
1, 80080, Note_on_c, 9, 42, 0
1, 80120, Note_on_c, 9, 56, 64
1, 80120, Note_on_c, 9, 36, 64
1, 80160, Note_on_c, 9, 56, 0
1, 80160, Note_on_c, 9, 36, 0
1, 80160, Note_on_c, 9, 69, 64
1, 80160, Note_on_c, 9, 42, 64
1, 80200, Note_on_c, 9, 69, 0
1, 80200, Note_on_c, 9, 42, 0
1, 80240, Note_on_c, 9, 69, 64
1, 80240, Note_on_c, 9, 56, 64
1, 80280, Note_on_c, 9, 69, 0
1, 80280, Note_on_c, 9, 56, 0
1, 80280, Note_on_c, 9, 69, 64
1, 80280, Note_on_c, 9, 56, 64
1, 80280, Note_on_c, 9, 42, 64
1, 80280, Note_on_c, 9, 36, 64
1, 80320, Note_on_c, 9, 69, 0
1, 80320, Note_on_c, 9, 56, 0
1, 80320, Note_on_c, 9, 42, 0
1, 80320, Note_on_c, 9, 36, 0
1, 80360, Note_on_c, 9, 69, 64
1, 80400, Note_on_c, 9, 69, 0
1, 80400, Note_on_c, 9, 69, 64
1, 80400, Note_on_c, 9, 39, 64
1, 80400, Note_on_c, 9, 42, 64
1, 80400, Note_on_c, 9, 38, 64
1, 80440, Note_on_c, 9, 69, 0
1, 80440, Note_on_c, 9, 39, 0
1, 80440, Note_on_c, 9, 42, 0
1, 80440, Note_on_c, 9, 38, 0
1, 80480, Note_on_c, 9, 42, 64
1, 80520, Note_on_c, 9, 42, 0
1, 80520, Note_on_c, 9, 56, 64
1, 80520, Note_on_c, 9, 42, 64
1, 80520, Note_on_c, 9, 36, 64
1, 80560, Note_on_c, 9, 56, 0
1, 80560, Note_on_c, 9, 42, 0
1, 80560, Note_on_c, 9, 36, 0
1, 80600, Note_on_c, 9, 42, 64
1, 80640, Note_on_c, 9, 42, 0
1, 80640, Note_on_c, 9, 38, 64
1, 80680, Note_on_c, 9, 38, 0
1, 80720, Note_on_c, 9, 46, 64
1, 80760, Note_on_c, 9, 46, 0
1, 80760, Note_on_c, 9, 36, 64
1, 80800, Note_on_c, 9, 36, 0
1, 80840, Note_on_c, 9, 36, 64
1, 80880, Note_on_c, 9, 36, 0
1, 80880, Note_on_c, 9, 38, 64
1, 80920, Note_on_c, 9, 38, 0
1, 80960, Note_on_c, 9, 46, 64
1, 81000, Note_on_c, 9, 46, 0
1, 81000, Note_on_c, 9, 36, 64
1, 81040, Note_on_c, 9, 36, 0
1, 81080, Note_on_c, 9, 36, 64
1, 81120, Note_on_c, 9, 36, 0
1, 81120, Note_on_c, 9, 38, 64
1, 81160, Note_on_c, 9, 38, 0
1, 81200, Note_on_c, 9, 38, 64
1, 81240, Note_on_c, 9, 38, 0
1, 81320, Note_on_c, 9, 38, 64
1, 81360, Note_on_c, 9, 38, 0
1, 81440, Note_on_c, 9, 38, 64
1, 81480, Note_on_c, 9, 38, 0
1, 81560, Note_on_c, 9, 38, 64
1, 81600, Note_on_c, 9, 38, 0
1, 81600, Note_on_c, 9, 38, 64
1, 81640, Note_on_c, 9, 38, 0
1, 81680, Note_on_c, 9, 46, 64
1, 81720, Note_on_c, 9, 46, 0
1, 81720, Note_on_c, 9, 36, 64
1, 81760, Note_on_c, 9, 36, 0
1, 81800, Note_on_c, 9, 36, 64
1, 81840, Note_on_c, 9, 36, 0
1, 81840, Note_on_c, 9, 38, 64
1, 81880, Note_on_c, 9, 38, 0
1, 81920, Note_on_c, 9, 46, 64
1, 81960, Note_on_c, 9, 46, 0
1, 81960, Note_on_c, 9, 36, 64
1, 82000, Note_on_c, 9, 36, 0
1, 82040, Note_on_c, 9, 36, 64
1, 82080, Note_on_c, 9, 36, 0
1, 82080, Note_on_c, 9, 38, 64
1, 82120, Note_on_c, 9, 38, 0
1, 82160, Note_on_c, 9, 38, 64
1, 82200, Note_on_c, 9, 38, 0
1, 82280, Note_on_c, 9, 38, 64
1, 82320, Note_on_c, 9, 38, 0
1, 82400, Note_on_c, 9, 38, 64
1, 82440, Note_on_c, 9, 38, 0
1, 82520, Note_on_c, 9, 38, 64
1, 82560, Note_on_c, 9, 38, 0
1, 82560, Note_on_c, 9, 49, 64
1, 82560, Note_on_c, 9, 42, 64
1, 82560, Note_on_c, 9, 38, 64
1, 82560, Note_on_c, 9, 36, 64
1, 82620, Note_on_c, 9, 49, 0
1, 82620, Note_on_c, 9, 42, 0
1, 82620, Note_on_c, 9, 38, 0
1, 82620, Note_on_c, 9, 36, 0
1, 82620, End_track
0, 0, End_of_file
