0, 0, Header, 0, 1, 240
1, 0, Start_track
1, 0, Key_signature, 0, "major"
1, 0, SMPTE_offset, 96, 0, 0, 0, 0
1, 0, Sequencer_specific, 24, 0, 0, 0, 106, 0, 1, 0, 0, 0, 0, 0, 0, 0, 0, 0, 0, 0, 0, 0, 0, 0, 0, 29, 29
1, 0, Tempo, 689655
1, 0, Time_signature, 4, 2, 24, 8
1, 0, Lyric_t, "(c)joel Sampson 1994"
1, 0, Lyric_t, "Shaker"
1, 0, Lyric_t, "Hand clap"
1, 0, Lyric_t, "Cow bell"
1, 0, Lyric_t, "Crash"
1, 0, Lyric_t, "Pedal hat"
1, 0, Lyric_t, "Closed hat"
1, 0, Note_on_c, 9, 42, 64
1, 0, Lyric_t, "Snare drum"
1, 0, Lyric_t, "Bass drum"
1, 0, Lyric_t, "(c)joel Sampson 1994"
1, 0, Pitch_bend_c, 0, 8192
1, 40, Note_on_c, 9, 42, 0
1, 120, Note_on_c, 9, 42, 64
1, 160, Note_on_c, 9, 42, 0
1, 200, Note_on_c, 9, 42, 64
1, 240, Note_on_c, 9, 42, 0
1, 240, Note_on_c, 9, 42, 64
1, 240, Note_on_c, 9, 38, 64
1, 280, Note_on_c, 9, 42, 0
1, 280, Note_on_c, 9, 38, 0
1, 360, Note_on_c, 9, 42, 64
1, 400, Note_on_c, 9, 42, 0
1, 440, Note_on_c, 9, 42, 64
1, 480, Note_on_c, 9, 42, 0
1, 480, Note_on_c, 9, 42, 64
1, 520, Note_on_c, 9, 42, 0
1, 600, Note_on_c, 9, 42, 64
1, 640, Note_on_c, 9, 42, 0
1, 680, Note_on_c, 9, 42, 64
1, 720, Note_on_c, 9, 42, 0
1, 720, Note_on_c, 9, 42, 64
1, 720, Note_on_c, 9, 38, 64
1, 760, Note_on_c, 9, 42, 0
1, 760, Note_on_c, 9, 38, 0
1, 840, Note_on_c, 9, 42, 64
1, 880, Note_on_c, 9, 42, 0
1, 920, Note_on_c, 9, 42, 64
1, 960, Note_on_c, 9, 42, 0
1, 960, Note_on_c, 9, 42, 64
1, 1000, Note_on_c, 9, 42, 0
1, 1080, Note_on_c, 9, 42, 64
1, 1120, Note_on_c, 9, 42, 0
1, 1160, Note_on_c, 9, 42, 64
1, 1200, Note_on_c, 9, 42, 0
1, 1200, Note_on_c, 9, 42, 64
1, 1200, Note_on_c, 9, 38, 64
1, 1240, Note_on_c, 9, 42, 0
1, 1240, Note_on_c, 9, 38, 0
1, 1320, Note_on_c, 9, 42, 64
1, 1360, Note_on_c, 9, 42, 0
1, 1400, Note_on_c, 9, 42, 64
1, 1440, Note_on_c, 9, 42, 0
1, 1440, Note_on_c, 9, 42, 64
1, 1480, Note_on_c, 9, 42, 0
1, 1560, Note_on_c, 9, 42, 64
1, 1600, Note_on_c, 9, 42, 0
1, 1640, Note_on_c, 9, 42, 64
1, 1680, Note_on_c, 9, 42, 0
1, 1680, Note_on_c, 9, 42, 64
1, 1680, Note_on_c, 9, 38, 64
1, 1720, Note_on_c, 9, 42, 0
1, 1720, Note_on_c, 9, 38, 0
1, 1800, Note_on_c, 9, 42, 64
1, 1840, Note_on_c, 9, 42, 0
1, 1880, Note_on_c, 9, 42, 64
1, 1920, Note_on_c, 9, 42, 0
1, 1920, Note_on_c, 9, 42, 64
1, 1960, Note_on_c, 9, 42, 0
1, 2040, Note_on_c, 9, 42, 64
1, 2080, Note_on_c, 9, 42, 0
1, 2120, Note_on_c, 9, 42, 64
1, 2160, Note_on_c, 9, 42, 0
1, 2160, Note_on_c, 9, 42, 64
1, 2160, Note_on_c, 9, 38, 64
1, 2200, Note_on_c, 9, 42, 0
1, 2200, Note_on_c, 9, 38, 0
1, 2280, Note_on_c, 9, 42, 64
1, 2280, Note_on_c, 9, 38, 64
1, 2320, Note_on_c, 9, 42, 0
1, 2320, Note_on_c, 9, 38, 0
1, 2360, Note_on_c, 9, 42, 64
1, 2400, Note_on_c, 9, 42, 0
1, 2400, Note_on_c, 9, 42, 64
1, 2440, Note_on_c, 9, 42, 0
1, 2520, Note_on_c, 9, 42, 64
1, 2560, Note_on_c, 9, 42, 0
1, 2600, Note_on_c, 9, 42, 64
1, 2640, Note_on_c, 9, 42, 0
1, 2640, Note_on_c, 9, 42, 64
1, 2640, Note_on_c, 9, 38, 64
1, 2680, Note_on_c, 9, 42, 0
1, 2680, Note_on_c, 9, 38, 0
1, 2760, Note_on_c, 9, 42, 64
1, 2760, Note_on_c, 9, 38, 64
1, 2800, Note_on_c, 9, 42, 0
1, 2800, Note_on_c, 9, 38, 0
1, 2840, Note_on_c, 9, 42, 64
1, 2880, Note_on_c, 9, 42, 0
1, 2880, Note_on_c, 9, 42, 64
1, 2920, Note_on_c, 9, 42, 0
1, 3000, Note_on_c, 9, 42, 64
1, 3040, Note_on_c, 9, 42, 0
1, 3080, Note_on_c, 9, 42, 64
1, 3120, Note_on_c, 9, 42, 0
1, 3120, Note_on_c, 9, 42, 64
1, 3120, Note_on_c, 9, 38, 64
1, 3160, Note_on_c, 9, 42, 0
1, 3160, Note_on_c, 9, 38, 0
1, 3240, Note_on_c, 9, 42, 64
1, 3240, Note_on_c, 9, 38, 64
1, 3280, Note_on_c, 9, 42, 0
1, 3280, Note_on_c, 9, 38, 0
1, 3320, Note_on_c, 9, 42, 64
1, 3360, Note_on_c, 9, 42, 0
1, 3360, Note_on_c, 9, 42, 64
1, 3400, Note_on_c, 9, 42, 0
1, 3480, Note_on_c, 9, 42, 64
1, 3520, Note_on_c, 9, 42, 0
1, 3560, Note_on_c, 9, 42, 64
1, 3600, Note_on_c, 9, 42, 0
1, 3600, Note_on_c, 9, 42, 64
1, 3600, Note_on_c, 9, 38, 64
1, 3640, Note_on_c, 9, 42, 0
1, 3640, Note_on_c, 9, 38, 0
1, 3720, Note_on_c, 9, 42, 64
1, 3720, Note_on_c, 9, 38, 64
1, 3760, Note_on_c, 9, 42, 0
1, 3760, Note_on_c, 9, 38, 0
1, 3800, Note_on_c, 9, 42, 64
1, 3840, Note_on_c, 9, 42, 0
1, 3840, Note_on_c, 9, 42, 64
1, 3880, Note_on_c, 9, 42, 0
1, 3960, Note_on_c, 9, 42, 64
1, 4000, Note_on_c, 9, 42, 0
1, 4040, Note_on_c, 9, 42, 64
1, 4080, Note_on_c, 9, 42, 0
1, 4080, Note_on_c, 9, 42, 64
1, 4080, Note_on_c, 9, 38, 64
1, 4120, Note_on_c, 9, 42, 0
1, 4120, Note_on_c, 9, 38, 0
1, 4200, Note_on_c, 9, 42, 64
1, 4240, Note_on_c, 9, 42, 0
1, 4280, Note_on_c, 9, 42, 64
1, 4280, Note_on_c, 9, 38, 64
1, 4320, Note_on_c, 9, 42, 0
1, 4320, Note_on_c, 9, 38, 0
1, 4320, Note_on_c, 9, 42, 64
1, 4360, Note_on_c, 9, 42, 0
1, 4440, Note_on_c, 9, 42, 64
1, 4480, Note_on_c, 9, 42, 0
1, 4520, Note_on_c, 9, 42, 64
1, 4560, Note_on_c, 9, 42, 0
1, 4560, Note_on_c, 9, 42, 64
1, 4560, Note_on_c, 9, 38, 64
1, 4600, Note_on_c, 9, 42, 0
1, 4600, Note_on_c, 9, 38, 0
1, 4680, Note_on_c, 9, 42, 64
1, 4720, Note_on_c, 9, 42, 0
1, 4760, Note_on_c, 9, 42, 64
1, 4760, Note_on_c, 9, 38, 64
1, 4800, Note_on_c, 9, 42, 0
1, 4800, Note_on_c, 9, 38, 0
1, 4800, Note_on_c, 9, 42, 64
1, 4840, Note_on_c, 9, 42, 0
1, 4920, Note_on_c, 9, 42, 64
1, 4960, Note_on_c, 9, 42, 0
1, 5000, Note_on_c, 9, 42, 64
1, 5040, Note_on_c, 9, 42, 0
1, 5040, Note_on_c, 9, 42, 64
1, 5040, Note_on_c, 9, 38, 64
1, 5080, Note_on_c, 9, 42, 0
1, 5080, Note_on_c, 9, 38, 0
1, 5160, Note_on_c, 9, 42, 64
1, 5200, Note_on_c, 9, 42, 0
1, 5240, Note_on_c, 9, 42, 64
1, 5240, Note_on_c, 9, 38, 64
1, 5280, Note_on_c, 9, 42, 0
1, 5280, Note_on_c, 9, 38, 0
1, 5280, Note_on_c, 9, 42, 64
1, 5320, Note_on_c, 9, 42, 0
1, 5400, Note_on_c, 9, 42, 64
1, 5440, Note_on_c, 9, 42, 0
1, 5480, Note_on_c, 9, 42, 64
1, 5520, Note_on_c, 9, 42, 0
1, 5520, Note_on_c, 9, 42, 64
1, 5520, Note_on_c, 9, 38, 64
1, 5560, Note_on_c, 9, 42, 0
1, 5560, Note_on_c, 9, 38, 0
1, 5640, Note_on_c, 9, 42, 64
1, 5680, Note_on_c, 9, 42, 0
1, 5720, Note_on_c, 9, 42, 64
1, 5720, Note_on_c, 9, 38, 64
1, 5760, Note_on_c, 9, 42, 0
1, 5760, Note_on_c, 9, 38, 0
1, 5760, Note_on_c, 9, 42, 64
1, 5800, Note_on_c, 9, 42, 0
1, 5880, Note_on_c, 9, 42, 64
1, 5920, Note_on_c, 9, 42, 0
1, 5960, Note_on_c, 9, 42, 64
1, 6000, Note_on_c, 9, 42, 0
1, 6000, Note_on_c, 9, 42, 64
1, 6000, Note_on_c, 9, 38, 64
1, 6040, Note_on_c, 9, 42, 0
1, 6040, Note_on_c, 9, 38, 0
1, 6120, Note_on_c, 9, 42, 64
1, 6120, Note_on_c, 9, 38, 64
1, 6160, Note_on_c, 9, 42, 0
1, 6160, Note_on_c, 9, 38, 0
1, 6200, Note_on_c, 9, 42, 64
1, 6200, Note_on_c, 9, 38, 64
1, 6240, Note_on_c, 9, 42, 0
1, 6240, Note_on_c, 9, 38, 0
1, 6240, Note_on_c, 9, 42, 64
1, 6280, Note_on_c, 9, 42, 0
1, 6360, Note_on_c, 9, 42, 64
1, 6400, Note_on_c, 9, 42, 0
1, 6440, Note_on_c, 9, 42, 64
1, 6480, Note_on_c, 9, 42, 0
1, 6480, Note_on_c, 9, 42, 64
1, 6480, Note_on_c, 9, 38, 64
1, 6520, Note_on_c, 9, 42, 0
1, 6520, Note_on_c, 9, 38, 0
1, 6600, Note_on_c, 9, 42, 64
1, 6600, Note_on_c, 9, 38, 64
1, 6640, Note_on_c, 9, 42, 0
1, 6640, Note_on_c, 9, 38, 0
1, 6680, Note_on_c, 9, 42, 64
1, 6680, Note_on_c, 9, 38, 64
1, 6720, Note_on_c, 9, 42, 0
1, 6720, Note_on_c, 9, 38, 0
1, 6720, Note_on_c, 9, 42, 64
1, 6760, Note_on_c, 9, 42, 0
1, 6840, Note_on_c, 9, 42, 64
1, 6880, Note_on_c, 9, 42, 0
1, 6920, Note_on_c, 9, 42, 64
1, 6960, Note_on_c, 9, 42, 0
1, 6960, Note_on_c, 9, 42, 64
1, 6960, Note_on_c, 9, 38, 64
1, 7000, Note_on_c, 9, 42, 0
1, 7000, Note_on_c, 9, 38, 0
1, 7080, Note_on_c, 9, 42, 64
1, 7080, Note_on_c, 9, 38, 64
1, 7120, Note_on_c, 9, 42, 0
1, 7120, Note_on_c, 9, 38, 0
1, 7160, Note_on_c, 9, 42, 64
1, 7160, Note_on_c, 9, 38, 64
1, 7200, Note_on_c, 9, 42, 0
1, 7200, Note_on_c, 9, 38, 0
1, 7200, Note_on_c, 9, 42, 64
1, 7240, Note_on_c, 9, 42, 0
1, 7320, Note_on_c, 9, 42, 64
1, 7360, Note_on_c, 9, 42, 0
1, 7400, Note_on_c, 9, 42, 64
1, 7440, Note_on_c, 9, 42, 0
1, 7440, Note_on_c, 9, 42, 64
1, 7440, Note_on_c, 9, 38, 64
1, 7480, Note_on_c, 9, 42, 0
1, 7480, Note_on_c, 9, 38, 0
1, 7560, Note_on_c, 9, 42, 64
1, 7560, Note_on_c, 9, 38, 64
1, 7600, Note_on_c, 9, 42, 0
1, 7600, Note_on_c, 9, 38, 0
1, 7640, Note_on_c, 9, 42, 64
1, 7640, Note_on_c, 9, 38, 64
1, 7680, Note_on_c, 9, 42, 0
1, 7680, Note_on_c, 9, 38, 0
1, 7680, Note_on_c, 9, 42, 64
1, 7720, Note_on_c, 9, 42, 0
1, 7800, Note_on_c, 9, 42, 64
1, 7840, Note_on_c, 9, 42, 0
1, 7880, Note_on_c, 9, 42, 64
1, 7920, Note_on_c, 9, 42, 0
1, 7920, Note_on_c, 9, 42, 64
1, 7920, Note_on_c, 9, 38, 64
1, 7960, Note_on_c, 9, 42, 0
1, 7960, Note_on_c, 9, 38, 0
1, 8040, Note_on_c, 9, 42, 64
1, 8080, Note_on_c, 9, 42, 0
1, 8120, Note_on_c, 9, 42, 64
1, 8160, Note_on_c, 9, 42, 0
1, 8160, Note_on_c, 9, 42, 64
1, 8200, Note_on_c, 9, 42, 0
1, 8280, Note_on_c, 9, 42, 64
1, 8320, Note_on_c, 9, 42, 0
1, 8360, Note_on_c, 9, 42, 64
1, 8400, Note_on_c, 9, 42, 0
1, 8400, Note_on_c, 9, 42, 64
1, 8400, Note_on_c, 9, 38, 64
1, 8440, Note_on_c, 9, 42, 0
1, 8440, Note_on_c, 9, 38, 0
1, 8520, Note_on_c, 9, 42, 64
1, 8520, Note_on_c, 9, 38, 64
1, 8560, Note_on_c, 9, 42, 0
1, 8560, Note_on_c, 9, 38, 0
1, 8600, Note_on_c, 9, 42, 64
1, 8640, Note_on_c, 9, 42, 0
1, 8640, Note_on_c, 9, 42, 64
1, 8680, Note_on_c, 9, 42, 0
1, 8760, Note_on_c, 9, 42, 64
1, 8800, Note_on_c, 9, 42, 0
1, 8840, Note_on_c, 9, 42, 64
1, 8880, Note_on_c, 9, 42, 0
1, 8880, Note_on_c, 9, 42, 64
1, 8880, Note_on_c, 9, 38, 64
1, 8920, Note_on_c, 9, 42, 0
1, 8920, Note_on_c, 9, 38, 0
1, 9000, Note_on_c, 9, 42, 64
1, 9040, Note_on_c, 9, 42, 0
1, 9080, Note_on_c, 9, 42, 64
1, 9120, Note_on_c, 9, 42, 0
1, 9120, Note_on_c, 9, 42, 64
1, 9160, Note_on_c, 9, 42, 0
1, 9240, Note_on_c, 9, 42, 64
1, 9280, Note_on_c, 9, 42, 0
1, 9320, Note_on_c, 9, 42, 64
1, 9360, Note_on_c, 9, 42, 0
1, 9360, Note_on_c, 9, 42, 64
1, 9360, Note_on_c, 9, 38, 64
1, 9400, Note_on_c, 9, 42, 0
1, 9400, Note_on_c, 9, 38, 0
1, 9480, Note_on_c, 9, 42, 64
1, 9480, Note_on_c, 9, 38, 64
1, 9520, Note_on_c, 9, 42, 0
1, 9520, Note_on_c, 9, 38, 0
1, 9560, Note_on_c, 9, 42, 64
1, 9600, Note_on_c, 9, 42, 0
1, 9600, Note_on_c, 9, 42, 64
1, 9640, Note_on_c, 9, 42, 0
1, 9720, Note_on_c, 9, 42, 64
1, 9760, Note_on_c, 9, 42, 0
1, 9800, Note_on_c, 9, 42, 64
1, 9840, Note_on_c, 9, 42, 0
1, 9840, Note_on_c, 9, 42, 64
1, 9840, Note_on_c, 9, 38, 64
1, 9880, Note_on_c, 9, 42, 0
1, 9880, Note_on_c, 9, 38, 0
1, 9960, Note_on_c, 9, 42, 64
1, 10000, Note_on_c, 9, 42, 0
1, 10040, Note_on_c, 9, 42, 64
1, 10080, Note_on_c, 9, 42, 0
1, 10080, Note_on_c, 9, 42, 64
1, 10120, Note_on_c, 9, 42, 0
1, 10200, Note_on_c, 9, 42, 64
1, 10240, Note_on_c, 9, 42, 0
1, 10280, Note_on_c, 9, 42, 64
1, 10320, Note_on_c, 9, 42, 0
1, 10320, Note_on_c, 9, 42, 64
1, 10320, Note_on_c, 9, 38, 64
1, 10360, Note_on_c, 9, 42, 0
1, 10360, Note_on_c, 9, 38, 0
1, 10440, Note_on_c, 9, 42, 64
1, 10480, Note_on_c, 9, 42, 0
1, 10520, Note_on_c, 9, 42, 64
1, 10520, Note_on_c, 9, 38, 64
1, 10560, Note_on_c, 9, 42, 0
1, 10560, Note_on_c, 9, 38, 0
1, 10560, Note_on_c, 9, 42, 64
1, 10600, Note_on_c, 9, 42, 0
1, 10680, Note_on_c, 9, 42, 64
1, 10720, Note_on_c, 9, 42, 0
1, 10760, Note_on_c, 9, 42, 64
1, 10800, Note_on_c, 9, 42, 0
1, 10800, Note_on_c, 9, 42, 64
1, 10800, Note_on_c, 9, 38, 64
1, 10840, Note_on_c, 9, 42, 0
1, 10840, Note_on_c, 9, 38, 0
1, 10920, Note_on_c, 9, 42, 64
1, 10960, Note_on_c, 9, 42, 0
1, 11000, Note_on_c, 9, 42, 64
1, 11040, Note_on_c, 9, 42, 0
1, 11040, Note_on_c, 9, 42, 64
1, 11080, Note_on_c, 9, 42, 0
1, 11160, Note_on_c, 9, 42, 64
1, 11200, Note_on_c, 9, 42, 0
1, 11240, Note_on_c, 9, 42, 64
1, 11280, Note_on_c, 9, 42, 0
1, 11280, Note_on_c, 9, 42, 64
1, 11280, Note_on_c, 9, 38, 64
1, 11320, Note_on_c, 9, 42, 0
1, 11320, Note_on_c, 9, 38, 0
1, 11400, Note_on_c, 9, 42, 64
1, 11440, Note_on_c, 9, 42, 0
1, 11480, Note_on_c, 9, 42, 64
1, 11480, Note_on_c, 9, 38, 64
1, 11520, Note_on_c, 9, 42, 0
1, 11520, Note_on_c, 9, 38, 0
1, 11520, Note_on_c, 9, 42, 64
1, 11560, Note_on_c, 9, 42, 0
1, 11640, Note_on_c, 9, 42, 64
1, 11680, Note_on_c, 9, 42, 0
1, 11720, Note_on_c, 9, 42, 64
1, 11760, Note_on_c, 9, 42, 0
1, 11760, Note_on_c, 9, 42, 64
1, 11760, Note_on_c, 9, 38, 64
1, 11800, Note_on_c, 9, 42, 0
1, 11800, Note_on_c, 9, 38, 0
1, 11880, Note_on_c, 9, 42, 64
1, 11920, Note_on_c, 9, 42, 0
1, 11960, Note_on_c, 9, 42, 64
1, 12000, Note_on_c, 9, 42, 0
1, 12000, Note_on_c, 9, 42, 64
1, 12040, Note_on_c, 9, 42, 0
1, 12120, Note_on_c, 9, 42, 64
1, 12160, Note_on_c, 9, 42, 0
1, 12200, Note_on_c, 9, 42, 64
1, 12240, Note_on_c, 9, 42, 0
1, 12240, Note_on_c, 9, 42, 64
1, 12240, Note_on_c, 9, 38, 64
1, 12280, Note_on_c, 9, 42, 0
1, 12280, Note_on_c, 9, 38, 0
1, 12360, Note_on_c, 9, 42, 64
1, 12360, Note_on_c, 9, 38, 64
1, 12400, Note_on_c, 9, 42, 0
1, 12400, Note_on_c, 9, 38, 0
1, 12440, Note_on_c, 9, 42, 64
1, 12440, Note_on_c, 9, 38, 64
1, 12480, Note_on_c, 9, 42, 0
1, 12480, Note_on_c, 9, 38, 0
1, 12480, Note_on_c, 9, 42, 64
1, 12520, Note_on_c, 9, 42, 0
1, 12600, Note_on_c, 9, 42, 64
1, 12640, Note_on_c, 9, 42, 0
1, 12680, Note_on_c, 9, 42, 64
1, 12720, Note_on_c, 9, 42, 0
1, 12720, Note_on_c, 9, 42, 64
1, 12720, Note_on_c, 9, 38, 64
1, 12760, Note_on_c, 9, 42, 0
1, 12760, Note_on_c, 9, 38, 0
1, 12840, Note_on_c, 9, 42, 64
1, 12880, Note_on_c, 9, 42, 0
1, 12920, Note_on_c, 9, 42, 64
1, 12960, Note_on_c, 9, 42, 0
1, 12960, Note_on_c, 9, 42, 64
1, 13000, Note_on_c, 9, 42, 0
1, 13080, Note_on_c, 9, 42, 64
1, 13120, Note_on_c, 9, 42, 0
1, 13160, Note_on_c, 9, 42, 64
1, 13200, Note_on_c, 9, 42, 0
1, 13200, Note_on_c, 9, 42, 64
1, 13200, Note_on_c, 9, 38, 64
1, 13240, Note_on_c, 9, 42, 0
1, 13240, Note_on_c, 9, 38, 0
1, 13320, Note_on_c, 9, 42, 64
1, 13320, Note_on_c, 9, 38, 64
1, 13360, Note_on_c, 9, 42, 0
1, 13360, Note_on_c, 9, 38, 0
1, 13400, Note_on_c, 9, 42, 64
1, 13400, Note_on_c, 9, 38, 64
1, 13440, Note_on_c, 9, 42, 0
1, 13440, Note_on_c, 9, 38, 0
1, 13440, Note_on_c, 9, 42, 64
1, 13480, Note_on_c, 9, 42, 0
1, 13560, Note_on_c, 9, 42, 64
1, 13600, Note_on_c, 9, 42, 0
1, 13640, Note_on_c, 9, 42, 64
1, 13680, Note_on_c, 9, 42, 0
1, 13680, Note_on_c, 9, 42, 64
1, 13680, Note_on_c, 9, 38, 64
1, 13720, Note_on_c, 9, 42, 0
1, 13720, Note_on_c, 9, 38, 0
1, 13800, Note_on_c, 9, 42, 64
1, 13800, Note_on_c, 9, 38, 64
1, 13840, Note_on_c, 9, 42, 0
1, 13840, Note_on_c, 9, 38, 0
1, 13880, Note_on_c, 9, 42, 64
1, 13880, Note_on_c, 9, 38, 64
1, 13920, Note_on_c, 9, 42, 0
1, 13920, Note_on_c, 9, 38, 0
1, 13920, Note_on_c, 9, 42, 64
1, 13960, Note_on_c, 9, 42, 0
1, 14040, Note_on_c, 9, 42, 64
1, 14080, Note_on_c, 9, 42, 0
1, 14120, Note_on_c, 9, 42, 64
1, 14160, Note_on_c, 9, 42, 0
1, 14160, Note_on_c, 9, 42, 64
1, 14160, Note_on_c, 9, 38, 64
1, 14200, Note_on_c, 9, 42, 0
1, 14200, Note_on_c, 9, 38, 0
1, 14280, Note_on_c, 9, 42, 64
1, 14320, Note_on_c, 9, 42, 0
1, 14360, Note_on_c, 9, 42, 64
1, 14400, Note_on_c, 9, 42, 0
1, 14400, Note_on_c, 9, 42, 64
1, 14440, Note_on_c, 9, 42, 0
1, 14520, Note_on_c, 9, 42, 64
1, 14560, Note_on_c, 9, 42, 0
1, 14600, Note_on_c, 9, 42, 64
1, 14640, Note_on_c, 9, 42, 0
1, 14640, Note_on_c, 9, 42, 64
1, 14640, Note_on_c, 9, 38, 64
1, 14680, Note_on_c, 9, 42, 0
1, 14680, Note_on_c, 9, 38, 0
1, 14760, Note_on_c, 9, 42, 64
1, 14760, Note_on_c, 9, 38, 64
1, 14800, Note_on_c, 9, 42, 0
1, 14800, Note_on_c, 9, 38, 0
1, 14840, Note_on_c, 9, 42, 64
1, 14840, Note_on_c, 9, 38, 64
1, 14880, Note_on_c, 9, 42, 0
1, 14880, Note_on_c, 9, 38, 0
1, 14880, Note_on_c, 9, 42, 64
1, 14920, Note_on_c, 9, 42, 0
1, 15000, Note_on_c, 9, 42, 64
1, 15040, Note_on_c, 9, 42, 0
1, 15080, Note_on_c, 9, 42, 64
1, 15120, Note_on_c, 9, 42, 0
1, 15120, Note_on_c, 9, 42, 64
1, 15120, Note_on_c, 9, 38, 64
1, 15160, Note_on_c, 9, 42, 0
1, 15160, Note_on_c, 9, 38, 0
1, 15240, Note_on_c, 9, 42, 64
1, 15280, Note_on_c, 9, 42, 0
1, 15320, Note_on_c, 9, 42, 64
1, 15360, Note_on_c, 9, 42, 0
1, 15360, Note_on_c, 9, 42, 64
1, 15360, Note_on_c, 9, 36, 64
1, 15400, Note_on_c, 9, 42, 0
1, 15400, Note_on_c, 9, 36, 0
1, 15480, Note_on_c, 9, 42, 64
1, 15520, Note_on_c, 9, 42, 0
1, 15560, Note_on_c, 9, 42, 64
1, 15560, Note_on_c, 9, 36, 64
1, 15600, Note_on_c, 9, 42, 0
1, 15600, Note_on_c, 9, 36, 0
1, 15600, Note_on_c, 9, 42, 64
1, 15640, Note_on_c, 9, 42, 0
1, 15720, Note_on_c, 9, 42, 64
1, 15720, Note_on_c, 9, 36, 64
1, 15760, Note_on_c, 9, 42, 0
1, 15760, Note_on_c, 9, 36, 0
1, 15800, Note_on_c, 9, 42, 64
1, 15840, Note_on_c, 9, 42, 0
1, 15840, Note_on_c, 9, 42, 64
1, 15840, Note_on_c, 9, 36, 64
1, 15880, Note_on_c, 9, 42, 0
1, 15880, Note_on_c, 9, 36, 0
1, 15960, Note_on_c, 9, 42, 64
1, 16000, Note_on_c, 9, 42, 0
1, 16040, Note_on_c, 9, 42, 64
1, 16040, Note_on_c, 9, 36, 64
1, 16080, Note_on_c, 9, 42, 0
1, 16080, Note_on_c, 9, 36, 0
1, 16080, Note_on_c, 9, 42, 64
1, 16120, Note_on_c, 9, 42, 0
1, 16200, Note_on_c, 9, 42, 64
1, 16200, Note_on_c, 9, 36, 64
1, 16240, Note_on_c, 9, 42, 0
1, 16240, Note_on_c, 9, 36, 0
1, 16280, Note_on_c, 9, 42, 64
1, 16320, Note_on_c, 9, 42, 0
1, 16320, Note_on_c, 9, 42, 64
1, 16320, Note_on_c, 9, 36, 64
1, 16360, Note_on_c, 9, 42, 0
1, 16360, Note_on_c, 9, 36, 0
1, 16440, Note_on_c, 9, 42, 64
1, 16480, Note_on_c, 9, 42, 0
1, 16520, Note_on_c, 9, 42, 64
1, 16520, Note_on_c, 9, 36, 64
1, 16560, Note_on_c, 9, 42, 0
1, 16560, Note_on_c, 9, 36, 0
1, 16560, Note_on_c, 9, 42, 64
1, 16600, Note_on_c, 9, 42, 0
1, 16680, Note_on_c, 9, 42, 64
1, 16680, Note_on_c, 9, 36, 64
1, 16720, Note_on_c, 9, 42, 0
1, 16720, Note_on_c, 9, 36, 0
1, 16760, Note_on_c, 9, 42, 64
1, 16800, Note_on_c, 9, 42, 0
1, 16800, Note_on_c, 9, 42, 64
1, 16800, Note_on_c, 9, 36, 64
1, 16840, Note_on_c, 9, 42, 0
1, 16840, Note_on_c, 9, 36, 0
1, 16920, Note_on_c, 9, 42, 64
1, 16960, Note_on_c, 9, 42, 0
1, 17000, Note_on_c, 9, 42, 64
1, 17000, Note_on_c, 9, 36, 64
1, 17040, Note_on_c, 9, 42, 0
1, 17040, Note_on_c, 9, 36, 0
1, 17040, Note_on_c, 9, 42, 64
1, 17080, Note_on_c, 9, 42, 0
1, 17160, Note_on_c, 9, 42, 64
1, 17160, Note_on_c, 9, 36, 64
1, 17200, Note_on_c, 9, 42, 0
1, 17200, Note_on_c, 9, 36, 0
1, 17240, Note_on_c, 9, 42, 64
1, 17280, Note_on_c, 9, 42, 0
1, 17280, Note_on_c, 9, 42, 64
1, 17320, Note_on_c, 9, 42, 0
1, 17400, Note_on_c, 9, 42, 64
1, 17440, Note_on_c, 9, 42, 0
1, 17480, Note_on_c, 9, 42, 64
1, 17480, Note_on_c, 9, 36, 64
1, 17520, Note_on_c, 9, 42, 0
1, 17520, Note_on_c, 9, 36, 0
1, 17520, Note_on_c, 9, 42, 64
1, 17560, Note_on_c, 9, 42, 0
1, 17600, Note_on_c, 9, 36, 64
1, 17640, Note_on_c, 9, 36, 0
1, 17640, Note_on_c, 9, 42, 64
1, 17680, Note_on_c, 9, 42, 0
1, 17720, Note_on_c, 9, 42, 64
1, 17760, Note_on_c, 9, 42, 0
1, 17760, Note_on_c, 9, 42, 64
1, 17800, Note_on_c, 9, 42, 0
1, 17880, Note_on_c, 9, 42, 64
1, 17920, Note_on_c, 9, 42, 0
1, 17960, Note_on_c, 9, 42, 64
1, 17960, Note_on_c, 9, 36, 64
1, 18000, Note_on_c, 9, 42, 0
1, 18000, Note_on_c, 9, 36, 0
1, 18000, Note_on_c, 9, 42, 64
1, 18040, Note_on_c, 9, 42, 0
1, 18080, Note_on_c, 9, 36, 64
1, 18120, Note_on_c, 9, 36, 0
1, 18120, Note_on_c, 9, 42, 64
1, 18160, Note_on_c, 9, 42, 0
1, 18200, Note_on_c, 9, 42, 64
1, 18240, Note_on_c, 9, 42, 0
1, 18240, Note_on_c, 9, 42, 64
1, 18280, Note_on_c, 9, 42, 0
1, 18360, Note_on_c, 9, 42, 64
1, 18400, Note_on_c, 9, 42, 0
1, 18440, Note_on_c, 9, 42, 64
1, 18440, Note_on_c, 9, 36, 64
1, 18480, Note_on_c, 9, 42, 0
1, 18480, Note_on_c, 9, 36, 0
1, 18480, Note_on_c, 9, 42, 64
1, 18520, Note_on_c, 9, 42, 0
1, 18560, Note_on_c, 9, 36, 64
1, 18600, Note_on_c, 9, 36, 0
1, 18600, Note_on_c, 9, 42, 64
1, 18640, Note_on_c, 9, 42, 0
1, 18680, Note_on_c, 9, 42, 64
1, 18720, Note_on_c, 9, 42, 0
1, 18720, Note_on_c, 9, 42, 64
1, 18760, Note_on_c, 9, 42, 0
1, 18840, Note_on_c, 9, 42, 64
1, 18880, Note_on_c, 9, 42, 0
1, 18920, Note_on_c, 9, 42, 64
1, 18920, Note_on_c, 9, 36, 64
1, 18960, Note_on_c, 9, 42, 0
1, 18960, Note_on_c, 9, 36, 0
1, 18960, Note_on_c, 9, 42, 64
1, 19000, Note_on_c, 9, 42, 0
1, 19040, Note_on_c, 9, 36, 64
1, 19080, Note_on_c, 9, 36, 0
1, 19080, Note_on_c, 9, 42, 64
1, 19120, Note_on_c, 9, 42, 0
1, 19160, Note_on_c, 9, 42, 64
1, 19200, Note_on_c, 9, 42, 0
1, 19200, Note_on_c, 9, 42, 64
1, 19240, Note_on_c, 9, 42, 0
1, 19320, Note_on_c, 9, 42, 64
1, 19320, Note_on_c, 9, 36, 64
1, 19360, Note_on_c, 9, 42, 0
1, 19360, Note_on_c, 9, 36, 0
1, 19400, Note_on_c, 9, 42, 64
1, 19440, Note_on_c, 9, 42, 0
1, 19440, Note_on_c, 9, 42, 64
1, 19480, Note_on_c, 9, 42, 0
1, 19520, Note_on_c, 9, 36, 64
1, 19560, Note_on_c, 9, 36, 0
1, 19560, Note_on_c, 9, 42, 64
1, 19600, Note_on_c, 9, 42, 0
1, 19640, Note_on_c, 9, 42, 64
1, 19680, Note_on_c, 9, 42, 0
1, 19680, Note_on_c, 9, 42, 64
1, 19720, Note_on_c, 9, 42, 0
1, 19800, Note_on_c, 9, 42, 64
1, 19800, Note_on_c, 9, 36, 64
1, 19840, Note_on_c, 9, 42, 0
1, 19840, Note_on_c, 9, 36, 0
1, 19880, Note_on_c, 9, 42, 64
1, 19920, Note_on_c, 9, 42, 0
1, 19920, Note_on_c, 9, 42, 64
1, 19960, Note_on_c, 9, 42, 0
1, 20000, Note_on_c, 9, 36, 64
1, 20040, Note_on_c, 9, 36, 0
1, 20040, Note_on_c, 9, 42, 64
1, 20080, Note_on_c, 9, 42, 0
1, 20120, Note_on_c, 9, 42, 64
1, 20160, Note_on_c, 9, 42, 0
1, 20160, Note_on_c, 9, 42, 64
1, 20200, Note_on_c, 9, 42, 0
1, 20280, Note_on_c, 9, 42, 64
1, 20280, Note_on_c, 9, 36, 64
1, 20320, Note_on_c, 9, 42, 0
1, 20320, Note_on_c, 9, 36, 0
1, 20360, Note_on_c, 9, 42, 64
1, 20400, Note_on_c, 9, 42, 0
1, 20400, Note_on_c, 9, 42, 64
1, 20440, Note_on_c, 9, 42, 0
1, 20480, Note_on_c, 9, 36, 64
1, 20520, Note_on_c, 9, 36, 0
1, 20520, Note_on_c, 9, 42, 64
1, 20560, Note_on_c, 9, 42, 0
1, 20600, Note_on_c, 9, 42, 64
1, 20640, Note_on_c, 9, 42, 0
1, 20640, Note_on_c, 9, 42, 64
1, 20680, Note_on_c, 9, 42, 0
1, 20760, Note_on_c, 9, 42, 64
1, 20760, Note_on_c, 9, 36, 64
1, 20800, Note_on_c, 9, 42, 0
1, 20800, Note_on_c, 9, 36, 0
1, 20840, Note_on_c, 9, 42, 64
1, 20880, Note_on_c, 9, 42, 0
1, 20880, Note_on_c, 9, 42, 64
1, 20920, Note_on_c, 9, 42, 0
1, 20960, Note_on_c, 9, 36, 64
1, 21000, Note_on_c, 9, 36, 0
1, 21000, Note_on_c, 9, 42, 64
1, 21040, Note_on_c, 9, 42, 0
1, 21080, Note_on_c, 9, 42, 64
1, 21120, Note_on_c, 9, 42, 0
1, 21120, Note_on_c, 9, 42, 64
1, 21160, Note_on_c, 9, 42, 0
1, 21240, Note_on_c, 9, 42, 64
1, 21280, Note_on_c, 9, 42, 0
1, 21320, Note_on_c, 9, 42, 64
1, 21360, Note_on_c, 9, 42, 0
1, 21360, Note_on_c, 9, 42, 64
1, 21400, Note_on_c, 9, 42, 0
1, 21480, Note_on_c, 9, 42, 64
1, 21520, Note_on_c, 9, 42, 0
1, 21560, Note_on_c, 9, 42, 64
1, 21600, Note_on_c, 9, 42, 0
1, 21600, Note_on_c, 9, 42, 64
1, 21600, Note_on_c, 9, 36, 64
1, 21640, Note_on_c, 9, 42, 0
1, 21640, Note_on_c, 9, 36, 0
1, 21720, Note_on_c, 9, 42, 64
1, 21760, Note_on_c, 9, 42, 0
1, 21800, Note_on_c, 9, 42, 64
1, 21800, Note_on_c, 9, 36, 64
1, 21840, Note_on_c, 9, 42, 0
1, 21840, Note_on_c, 9, 36, 0
1, 21840, Note_on_c, 9, 42, 64
1, 21880, Note_on_c, 9, 42, 0
1, 21960, Note_on_c, 9, 42, 64
1, 21960, Note_on_c, 9, 36, 64
1, 22000, Note_on_c, 9, 42, 0
1, 22000, Note_on_c, 9, 36, 0
1, 22040, Note_on_c, 9, 42, 64
1, 22080, Note_on_c, 9, 42, 0
1, 22080, Note_on_c, 9, 42, 64
1, 22120, Note_on_c, 9, 42, 0
1, 22200, Note_on_c, 9, 42, 64
1, 22240, Note_on_c, 9, 42, 0
1, 22280, Note_on_c, 9, 42, 64
1, 22320, Note_on_c, 9, 42, 0
1, 22320, Note_on_c, 9, 42, 64
1, 22360, Note_on_c, 9, 42, 0
1, 22440, Note_on_c, 9, 42, 64
1, 22480, Note_on_c, 9, 42, 0
1, 22520, Note_on_c, 9, 42, 64
1, 22560, Note_on_c, 9, 42, 0
1, 22560, Note_on_c, 9, 42, 64
1, 22560, Note_on_c, 9, 36, 64
1, 22600, Note_on_c, 9, 42, 0
1, 22600, Note_on_c, 9, 36, 0
1, 22680, Note_on_c, 9, 42, 64
1, 22720, Note_on_c, 9, 42, 0
1, 22760, Note_on_c, 9, 42, 64
1, 22760, Note_on_c, 9, 36, 64
1, 22800, Note_on_c, 9, 42, 0
1, 22800, Note_on_c, 9, 36, 0
1, 22800, Note_on_c, 9, 42, 64
1, 22840, Note_on_c, 9, 42, 0
1, 22920, Note_on_c, 9, 42, 64
1, 22920, Note_on_c, 9, 36, 64
1, 22960, Note_on_c, 9, 42, 0
1, 22960, Note_on_c, 9, 36, 0
1, 23000, Note_on_c, 9, 42, 64
1, 23040, Note_on_c, 9, 42, 0
1, 23040, Note_on_c, 9, 42, 64
1, 23040, Note_on_c, 9, 36, 64
1, 23080, Note_on_c, 9, 42, 0
1, 23080, Note_on_c, 9, 36, 0
1, 23160, Note_on_c, 9, 42, 64
1, 23200, Note_on_c, 9, 42, 0
1, 23240, Note_on_c, 9, 42, 64
1, 23240, Note_on_c, 9, 36, 64
1, 23280, Note_on_c, 9, 42, 0
1, 23280, Note_on_c, 9, 36, 0
1, 23280, Note_on_c, 9, 42, 64
1, 23320, Note_on_c, 9, 42, 0
1, 23400, Note_on_c, 9, 42, 64
1, 23400, Note_on_c, 9, 36, 64
1, 23440, Note_on_c, 9, 42, 0
1, 23440, Note_on_c, 9, 36, 0
1, 23480, Note_on_c, 9, 42, 64
1, 23520, Note_on_c, 9, 42, 0
1, 23520, Note_on_c, 9, 42, 64
1, 23560, Note_on_c, 9, 42, 0
1, 23640, Note_on_c, 9, 42, 64
1, 23680, Note_on_c, 9, 42, 0
1, 23720, Note_on_c, 9, 42, 64
1, 23720, Note_on_c, 9, 36, 64
1, 23760, Note_on_c, 9, 42, 0
1, 23760, Note_on_c, 9, 36, 0
1, 23760, Note_on_c, 9, 42, 64
1, 23800, Note_on_c, 9, 42, 0
1, 23840, Note_on_c, 9, 36, 64
1, 23880, Note_on_c, 9, 36, 0
1, 23880, Note_on_c, 9, 42, 64
1, 23920, Note_on_c, 9, 42, 0
1, 23960, Note_on_c, 9, 42, 64
1, 24000, Note_on_c, 9, 42, 0
1, 24000, Note_on_c, 9, 42, 64
1, 24000, Note_on_c, 9, 36, 64
1, 24040, Note_on_c, 9, 42, 0
1, 24040, Note_on_c, 9, 36, 0
1, 24120, Note_on_c, 9, 42, 64
1, 24160, Note_on_c, 9, 42, 0
1, 24200, Note_on_c, 9, 42, 64
1, 24200, Note_on_c, 9, 36, 64
1, 24240, Note_on_c, 9, 42, 0
1, 24240, Note_on_c, 9, 36, 0
1, 24240, Note_on_c, 9, 42, 64
1, 24280, Note_on_c, 9, 42, 0
1, 24360, Note_on_c, 9, 42, 64
1, 24360, Note_on_c, 9, 36, 64
1, 24400, Note_on_c, 9, 42, 0
1, 24400, Note_on_c, 9, 36, 0
1, 24440, Note_on_c, 9, 42, 64
1, 24480, Note_on_c, 9, 42, 0
1, 24480, Note_on_c, 9, 42, 64
1, 24520, Note_on_c, 9, 42, 0
1, 24600, Note_on_c, 9, 42, 64
1, 24640, Note_on_c, 9, 42, 0
1, 24680, Note_on_c, 9, 42, 64
1, 24680, Note_on_c, 9, 36, 64
1, 24720, Note_on_c, 9, 42, 0
1, 24720, Note_on_c, 9, 36, 0
1, 24720, Note_on_c, 9, 42, 64
1, 24760, Note_on_c, 9, 42, 0
1, 24800, Note_on_c, 9, 36, 64
1, 24840, Note_on_c, 9, 36, 0
1, 24840, Note_on_c, 9, 42, 64
1, 24880, Note_on_c, 9, 42, 0
1, 24920, Note_on_c, 9, 42, 64
1, 24960, Note_on_c, 9, 42, 0
1, 24960, Note_on_c, 9, 42, 64
1, 25000, Note_on_c, 9, 42, 0
1, 25080, Note_on_c, 9, 42, 64
1, 25120, Note_on_c, 9, 42, 0
1, 25160, Note_on_c, 9, 42, 64
1, 25160, Note_on_c, 9, 36, 64
1, 25200, Note_on_c, 9, 42, 0
1, 25200, Note_on_c, 9, 36, 0
1, 25200, Note_on_c, 9, 42, 64
1, 25240, Note_on_c, 9, 42, 0
1, 25280, Note_on_c, 9, 36, 64
1, 25320, Note_on_c, 9, 36, 0
1, 25320, Note_on_c, 9, 42, 64
1, 25360, Note_on_c, 9, 42, 0
1, 25400, Note_on_c, 9, 42, 64
1, 25440, Note_on_c, 9, 42, 0
1, 25440, Note_on_c, 9, 42, 64
1, 25480, Note_on_c, 9, 42, 0
1, 25560, Note_on_c, 9, 42, 64
1, 25560, Note_on_c, 9, 36, 64
1, 25600, Note_on_c, 9, 42, 0
1, 25600, Note_on_c, 9, 36, 0
1, 25640, Note_on_c, 9, 42, 64
1, 25680, Note_on_c, 9, 42, 0
1, 25680, Note_on_c, 9, 42, 64
1, 25720, Note_on_c, 9, 42, 0
1, 25760, Note_on_c, 9, 36, 64
1, 25800, Note_on_c, 9, 36, 0
1, 25800, Note_on_c, 9, 42, 64
1, 25840, Note_on_c, 9, 42, 0
1, 25880, Note_on_c, 9, 42, 64
1, 25920, Note_on_c, 9, 42, 0
1, 25920, Note_on_c, 9, 42, 64
1, 25960, Note_on_c, 9, 42, 0
1, 26040, Note_on_c, 9, 42, 64
1, 26080, Note_on_c, 9, 42, 0
1, 26120, Note_on_c, 9, 42, 64
1, 26120, Note_on_c, 9, 36, 64
1, 26160, Note_on_c, 9, 42, 0
1, 26160, Note_on_c, 9, 36, 0
1, 26160, Note_on_c, 9, 42, 64
1, 26200, Note_on_c, 9, 42, 0
1, 26240, Note_on_c, 9, 36, 64
1, 26280, Note_on_c, 9, 36, 0
1, 26280, Note_on_c, 9, 42, 64
1, 26320, Note_on_c, 9, 42, 0
1, 26360, Note_on_c, 9, 42, 64
1, 26400, Note_on_c, 9, 42, 0
1, 26400, Note_on_c, 9, 42, 64
1, 26440, Note_on_c, 9, 42, 0
1, 26520, Note_on_c, 9, 42, 64
1, 26520, Note_on_c, 9, 36, 64
1, 26560, Note_on_c, 9, 42, 0
1, 26560, Note_on_c, 9, 36, 0
1, 26600, Note_on_c, 9, 42, 64
1, 26640, Note_on_c, 9, 42, 0
1, 26640, Note_on_c, 9, 42, 64
1, 26680, Note_on_c, 9, 42, 0
1, 26720, Note_on_c, 9, 36, 64
1, 26760, Note_on_c, 9, 36, 0
1, 26760, Note_on_c, 9, 42, 64
1, 26800, Note_on_c, 9, 42, 0
1, 26840, Note_on_c, 9, 42, 64
1, 26880, Note_on_c, 9, 42, 0
1, 26880, Note_on_c, 9, 42, 64
1, 26920, Note_on_c, 9, 42, 0
1, 27000, Note_on_c, 9, 42, 64
1, 27000, Note_on_c, 9, 36, 64
1, 27040, Note_on_c, 9, 42, 0
1, 27040, Note_on_c, 9, 36, 0
1, 27080, Note_on_c, 9, 42, 64
1, 27120, Note_on_c, 9, 42, 0
1, 27120, Note_on_c, 9, 42, 64
1, 27160, Note_on_c, 9, 42, 0
1, 27200, Note_on_c, 9, 36, 64
1, 27240, Note_on_c, 9, 36, 0
1, 27240, Note_on_c, 9, 42, 64
1, 27280, Note_on_c, 9, 42, 0
1, 27320, Note_on_c, 9, 42, 64
1, 27360, Note_on_c, 9, 42, 0
1, 27360, Note_on_c, 9, 42, 64
1, 27360, Note_on_c, 9, 36, 64
1, 27400, Note_on_c, 9, 42, 0
1, 27400, Note_on_c, 9, 36, 0
1, 27480, Note_on_c, 9, 42, 64
1, 27520, Note_on_c, 9, 42, 0
1, 27560, Note_on_c, 9, 42, 64
1, 27560, Note_on_c, 9, 36, 64
1, 27600, Note_on_c, 9, 42, 0
1, 27600, Note_on_c, 9, 36, 0
1, 27600, Note_on_c, 9, 42, 64
1, 27640, Note_on_c, 9, 42, 0
1, 27720, Note_on_c, 9, 42, 64
1, 27720, Note_on_c, 9, 36, 64
1, 27760, Note_on_c, 9, 42, 0
1, 27760, Note_on_c, 9, 36, 0
1, 27800, Note_on_c, 9, 42, 64
1, 27840, Note_on_c, 9, 42, 0
1, 27840, Note_on_c, 9, 42, 64
1, 27880, Note_on_c, 9, 42, 0
1, 27960, Note_on_c, 9, 42, 64
1, 27960, Note_on_c, 9, 36, 64
1, 28000, Note_on_c, 9, 42, 0
1, 28000, Note_on_c, 9, 36, 0
1, 28040, Note_on_c, 9, 42, 64
1, 28080, Note_on_c, 9, 42, 0
1, 28080, Note_on_c, 9, 42, 64
1, 28120, Note_on_c, 9, 42, 0
1, 28160, Note_on_c, 9, 36, 64
1, 28200, Note_on_c, 9, 36, 0
1, 28200, Note_on_c, 9, 42, 64
1, 28240, Note_on_c, 9, 42, 0
1, 28280, Note_on_c, 9, 42, 64
1, 28320, Note_on_c, 9, 42, 0
1, 28320, Note_on_c, 9, 42, 64
1, 28320, Note_on_c, 9, 36, 64
1, 28360, Note_on_c, 9, 42, 0
1, 28360, Note_on_c, 9, 36, 0
1, 28440, Note_on_c, 9, 42, 64
1, 28480, Note_on_c, 9, 42, 0
1, 28520, Note_on_c, 9, 42, 64
1, 28520, Note_on_c, 9, 36, 64
1, 28560, Note_on_c, 9, 42, 0
1, 28560, Note_on_c, 9, 36, 0
1, 28560, Note_on_c, 9, 42, 64
1, 28600, Note_on_c, 9, 42, 0
1, 28680, Note_on_c, 9, 42, 64
1, 28680, Note_on_c, 9, 36, 64
1, 28720, Note_on_c, 9, 42, 0
1, 28720, Note_on_c, 9, 36, 0
1, 28760, Note_on_c, 9, 42, 64
1, 28800, Note_on_c, 9, 42, 0
1, 28800, Note_on_c, 9, 42, 64
1, 28800, Note_on_c, 9, 36, 64
1, 28840, Note_on_c, 9, 42, 0
1, 28840, Note_on_c, 9, 36, 0
1, 28920, Note_on_c, 9, 42, 64
1, 28960, Note_on_c, 9, 42, 0
1, 29000, Note_on_c, 9, 42, 64
1, 29000, Note_on_c, 9, 36, 64
1, 29040, Note_on_c, 9, 42, 0
1, 29040, Note_on_c, 9, 36, 0
1, 29040, Note_on_c, 9, 42, 64
1, 29080, Note_on_c, 9, 42, 0
1, 29160, Note_on_c, 9, 42, 64
1, 29160, Note_on_c, 9, 36, 64
1, 29200, Note_on_c, 9, 42, 0
1, 29200, Note_on_c, 9, 36, 0
1, 29240, Note_on_c, 9, 42, 64
1, 29280, Note_on_c, 9, 42, 0
1, 29280, Note_on_c, 9, 42, 64
1, 29280, Note_on_c, 9, 36, 64
1, 29320, Note_on_c, 9, 42, 0
1, 29320, Note_on_c, 9, 36, 0
1, 29400, Note_on_c, 9, 42, 64
1, 29440, Note_on_c, 9, 42, 0
1, 29480, Note_on_c, 9, 42, 64
1, 29520, Note_on_c, 9, 42, 0
1, 29520, Note_on_c, 9, 42, 64
1, 29560, Note_on_c, 9, 42, 0
1, 29640, Note_on_c, 9, 42, 64
1, 29680, Note_on_c, 9, 42, 0
1, 29720, Note_on_c, 9, 42, 64
1, 29760, Note_on_c, 9, 42, 0
1, 29760, Note_on_c, 9, 42, 64
1, 29760, Note_on_c, 9, 36, 64
1, 29800, Note_on_c, 9, 42, 0
1, 29800, Note_on_c, 9, 36, 0
1, 29880, Note_on_c, 9, 42, 64
1, 29920, Note_on_c, 9, 42, 0
1, 29960, Note_on_c, 9, 42, 64
1, 29960, Note_on_c, 9, 36, 64
1, 30000, Note_on_c, 9, 42, 0
1, 30000, Note_on_c, 9, 36, 0
1, 30000, Note_on_c, 9, 42, 64
1, 30040, Note_on_c, 9, 42, 0
1, 30120, Note_on_c, 9, 42, 64
1, 30120, Note_on_c, 9, 36, 64
1, 30160, Note_on_c, 9, 42, 0
1, 30160, Note_on_c, 9, 36, 0
1, 30200, Note_on_c, 9, 42, 64
1, 30240, Note_on_c, 9, 42, 0
1, 30240, Note_on_c, 9, 42, 64
1, 30240, Note_on_c, 9, 36, 64
1, 30280, Note_on_c, 9, 42, 0
1, 30280, Note_on_c, 9, 36, 0
1, 30360, Note_on_c, 9, 42, 64
1, 30400, Note_on_c, 9, 42, 0
1, 30440, Note_on_c, 9, 42, 64
1, 30480, Note_on_c, 9, 42, 0
1, 30480, Note_on_c, 9, 42, 64
1, 30520, Note_on_c, 9, 42, 0
1, 30600, Note_on_c, 9, 42, 64
1, 30640, Note_on_c, 9, 42, 0
1, 30680, Note_on_c, 9, 42, 64
1, 30720, Note_on_c, 9, 42, 0
1, 30720, Note_on_c, 9, 42, 64
1, 30720, Note_on_c, 9, 36, 64
1, 30760, Note_on_c, 9, 42, 0
1, 30760, Note_on_c, 9, 36, 0
1, 30840, Note_on_c, 9, 42, 64
1, 30880, Note_on_c, 9, 42, 0
1, 30920, Note_on_c, 9, 42, 64
1, 30920, Note_on_c, 9, 36, 64
1, 30960, Note_on_c, 9, 42, 0
1, 30960, Note_on_c, 9, 36, 0
1, 30960, Note_on_c, 9, 42, 64
1, 30960, Note_on_c, 9, 38, 64
1, 31000, Note_on_c, 9, 42, 0
1, 31000, Note_on_c, 9, 38, 0
1, 31080, Note_on_c, 9, 42, 64
1, 31080, Note_on_c, 9, 36, 64
1, 31120, Note_on_c, 9, 42, 0
1, 31120, Note_on_c, 9, 36, 0
1, 31160, Note_on_c, 9, 42, 64
1, 31200, Note_on_c, 9, 42, 0
1, 31200, Note_on_c, 9, 42, 64
1, 31200, Note_on_c, 9, 36, 64
1, 31240, Note_on_c, 9, 42, 0
1, 31240, Note_on_c, 9, 36, 0
1, 31320, Note_on_c, 9, 42, 64
1, 31360, Note_on_c, 9, 42, 0
1, 31400, Note_on_c, 9, 42, 64
1, 31400, Note_on_c, 9, 36, 64
1, 31440, Note_on_c, 9, 42, 0
1, 31440, Note_on_c, 9, 36, 0
1, 31440, Note_on_c, 9, 42, 64
1, 31440, Note_on_c, 9, 38, 64
1, 31480, Note_on_c, 9, 42, 0
1, 31480, Note_on_c, 9, 38, 0
1, 31560, Note_on_c, 9, 42, 64
1, 31560, Note_on_c, 9, 36, 64
1, 31600, Note_on_c, 9, 42, 0
1, 31600, Note_on_c, 9, 36, 0
1, 31640, Note_on_c, 9, 42, 64
1, 31680, Note_on_c, 9, 42, 0
1, 31680, Note_on_c, 9, 42, 64
1, 31680, Note_on_c, 9, 36, 64
1, 31720, Note_on_c, 9, 42, 0
1, 31720, Note_on_c, 9, 36, 0
1, 31800, Note_on_c, 9, 42, 64
1, 31840, Note_on_c, 9, 42, 0
1, 31880, Note_on_c, 9, 42, 64
1, 31880, Note_on_c, 9, 36, 64
1, 31920, Note_on_c, 9, 42, 0
1, 31920, Note_on_c, 9, 36, 0
1, 31920, Note_on_c, 9, 42, 64
1, 31920, Note_on_c, 9, 38, 64
1, 31960, Note_on_c, 9, 42, 0
1, 31960, Note_on_c, 9, 38, 0
1, 32040, Note_on_c, 9, 42, 64
1, 32040, Note_on_c, 9, 36, 64
1, 32080, Note_on_c, 9, 42, 0
1, 32080, Note_on_c, 9, 36, 0
1, 32120, Note_on_c, 9, 42, 64
1, 32160, Note_on_c, 9, 42, 0
1, 32160, Note_on_c, 9, 42, 64
1, 32160, Note_on_c, 9, 36, 64
1, 32200, Note_on_c, 9, 42, 0
1, 32200, Note_on_c, 9, 36, 0
1, 32280, Note_on_c, 9, 42, 64
1, 32320, Note_on_c, 9, 42, 0
1, 32360, Note_on_c, 9, 42, 64
1, 32360, Note_on_c, 9, 36, 64
1, 32400, Note_on_c, 9, 42, 0
1, 32400, Note_on_c, 9, 36, 0
1, 32400, Note_on_c, 9, 42, 64
1, 32400, Note_on_c, 9, 38, 64
1, 32440, Note_on_c, 9, 42, 0
1, 32440, Note_on_c, 9, 38, 0
1, 32520, Note_on_c, 9, 42, 64
1, 32520, Note_on_c, 9, 36, 64
1, 32560, Note_on_c, 9, 42, 0
1, 32560, Note_on_c, 9, 36, 0
1, 32600, Note_on_c, 9, 42, 64
1, 32640, Note_on_c, 9, 42, 0
1, 32640, Note_on_c, 9, 42, 64
1, 32680, Note_on_c, 9, 42, 0
1, 32760, Note_on_c, 9, 42, 64
1, 32800, Note_on_c, 9, 42, 0
1, 32840, Note_on_c, 9, 42, 64
1, 32840, Note_on_c, 9, 36, 64
1, 32880, Note_on_c, 9, 42, 0
1, 32880, Note_on_c, 9, 36, 0
1, 32880, Note_on_c, 9, 42, 64
1, 32880, Note_on_c, 9, 38, 64
1, 32920, Note_on_c, 9, 42, 0
1, 32920, Note_on_c, 9, 38, 0
1, 32960, Note_on_c, 9, 36, 64
1, 33000, Note_on_c, 9, 36, 0
1, 33000, Note_on_c, 9, 42, 64
1, 33000, Note_on_c, 9, 38, 64
1, 33040, Note_on_c, 9, 42, 0
1, 33040, Note_on_c, 9, 38, 0
1, 33080, Note_on_c, 9, 42, 64
1, 33080, Note_on_c, 9, 38, 64
1, 33120, Note_on_c, 9, 42, 0
1, 33120, Note_on_c, 9, 38, 0
1, 33120, Note_on_c, 9, 42, 64
1, 33160, Note_on_c, 9, 42, 0
1, 33240, Note_on_c, 9, 42, 64
1, 33280, Note_on_c, 9, 42, 0
1, 33320, Note_on_c, 9, 42, 64
1, 33320, Note_on_c, 9, 36, 64
1, 33360, Note_on_c, 9, 42, 0
1, 33360, Note_on_c, 9, 36, 0
1, 33360, Note_on_c, 9, 42, 64
1, 33360, Note_on_c, 9, 38, 64
1, 33400, Note_on_c, 9, 42, 0
1, 33400, Note_on_c, 9, 38, 0
1, 33440, Note_on_c, 9, 36, 64
1, 33480, Note_on_c, 9, 36, 0
1, 33480, Note_on_c, 9, 42, 64
1, 33480, Note_on_c, 9, 38, 64
1, 33520, Note_on_c, 9, 42, 0
1, 33520, Note_on_c, 9, 38, 0
1, 33560, Note_on_c, 9, 42, 64
1, 33560, Note_on_c, 9, 38, 64
1, 33600, Note_on_c, 9, 42, 0
1, 33600, Note_on_c, 9, 38, 0
1, 33600, Note_on_c, 9, 42, 64
1, 33640, Note_on_c, 9, 42, 0
1, 33720, Note_on_c, 9, 42, 64
1, 33760, Note_on_c, 9, 42, 0
1, 33800, Note_on_c, 9, 42, 64
1, 33800, Note_on_c, 9, 36, 64
1, 33840, Note_on_c, 9, 42, 0
1, 33840, Note_on_c, 9, 36, 0
1, 33840, Note_on_c, 9, 42, 64
1, 33840, Note_on_c, 9, 38, 64
1, 33880, Note_on_c, 9, 42, 0
1, 33880, Note_on_c, 9, 38, 0
1, 33920, Note_on_c, 9, 36, 64
1, 33960, Note_on_c, 9, 36, 0
1, 33960, Note_on_c, 9, 42, 64
1, 33960, Note_on_c, 9, 38, 64
1, 34000, Note_on_c, 9, 42, 0
1, 34000, Note_on_c, 9, 38, 0
1, 34040, Note_on_c, 9, 42, 64
1, 34040, Note_on_c, 9, 38, 64
1, 34080, Note_on_c, 9, 42, 0
1, 34080, Note_on_c, 9, 38, 0
1, 34080, Note_on_c, 9, 42, 64
1, 34120, Note_on_c, 9, 42, 0
1, 34200, Note_on_c, 9, 42, 64
1, 34240, Note_on_c, 9, 42, 0
1, 34280, Note_on_c, 9, 42, 64
1, 34280, Note_on_c, 9, 36, 64
1, 34320, Note_on_c, 9, 42, 0
1, 34320, Note_on_c, 9, 36, 0
1, 34320, Note_on_c, 9, 42, 64
1, 34320, Note_on_c, 9, 38, 64
1, 34360, Note_on_c, 9, 42, 0
1, 34360, Note_on_c, 9, 38, 0
1, 34400, Note_on_c, 9, 36, 64
1, 34440, Note_on_c, 9, 36, 0
1, 34440, Note_on_c, 9, 42, 64
1, 34440, Note_on_c, 9, 38, 64
1, 34480, Note_on_c, 9, 42, 0
1, 34480, Note_on_c, 9, 38, 0
1, 34520, Note_on_c, 9, 42, 64
1, 34520, Note_on_c, 9, 38, 64
1, 34560, Note_on_c, 9, 42, 0
1, 34560, Note_on_c, 9, 38, 0
1, 34560, Note_on_c, 9, 42, 64
1, 34600, Note_on_c, 9, 42, 0
1, 34680, Note_on_c, 9, 42, 64
1, 34680, Note_on_c, 9, 36, 64
1, 34720, Note_on_c, 9, 42, 0
1, 34720, Note_on_c, 9, 36, 0
1, 34760, Note_on_c, 9, 42, 64
1, 34800, Note_on_c, 9, 42, 0
1, 34800, Note_on_c, 9, 42, 64
1, 34800, Note_on_c, 9, 38, 64
1, 34840, Note_on_c, 9, 42, 0
1, 34840, Note_on_c, 9, 38, 0
1, 34880, Note_on_c, 9, 36, 64
1, 34920, Note_on_c, 9, 36, 0
1, 34920, Note_on_c, 9, 42, 64
1, 34960, Note_on_c, 9, 42, 0
1, 35000, Note_on_c, 9, 42, 64
1, 35040, Note_on_c, 9, 42, 0
1, 35040, Note_on_c, 9, 42, 64
1, 35080, Note_on_c, 9, 42, 0
1, 35160, Note_on_c, 9, 42, 64
1, 35160, Note_on_c, 9, 36, 64
1, 35200, Note_on_c, 9, 42, 0
1, 35200, Note_on_c, 9, 36, 0
1, 35240, Note_on_c, 9, 42, 64
1, 35280, Note_on_c, 9, 42, 0
1, 35280, Note_on_c, 9, 42, 64
1, 35280, Note_on_c, 9, 38, 64
1, 35320, Note_on_c, 9, 42, 0
1, 35320, Note_on_c, 9, 38, 0
1, 35360, Note_on_c, 9, 36, 64
1, 35400, Note_on_c, 9, 36, 0
1, 35400, Note_on_c, 9, 42, 64
1, 35440, Note_on_c, 9, 42, 0
1, 35480, Note_on_c, 9, 42, 64
1, 35520, Note_on_c, 9, 42, 0
1, 35520, Note_on_c, 9, 42, 64
1, 35560, Note_on_c, 9, 42, 0
1, 35640, Note_on_c, 9, 42, 64
1, 35640, Note_on_c, 9, 36, 64
1, 35680, Note_on_c, 9, 42, 0
1, 35680, Note_on_c, 9, 36, 0
1, 35720, Note_on_c, 9, 42, 64
1, 35760, Note_on_c, 9, 42, 0
1, 35760, Note_on_c, 9, 42, 64
1, 35760, Note_on_c, 9, 38, 64
1, 35800, Note_on_c, 9, 42, 0
1, 35800, Note_on_c, 9, 38, 0
1, 35840, Note_on_c, 9, 36, 64
1, 35880, Note_on_c, 9, 36, 0
1, 35880, Note_on_c, 9, 42, 64
1, 35920, Note_on_c, 9, 42, 0
1, 35960, Note_on_c, 9, 42, 64
1, 36000, Note_on_c, 9, 42, 0
1, 36000, Note_on_c, 9, 42, 64
1, 36040, Note_on_c, 9, 42, 0
1, 36120, Note_on_c, 9, 42, 64
1, 36120, Note_on_c, 9, 36, 64
1, 36160, Note_on_c, 9, 42, 0
1, 36160, Note_on_c, 9, 36, 0
1, 36200, Note_on_c, 9, 42, 64
1, 36240, Note_on_c, 9, 42, 0
1, 36240, Note_on_c, 9, 42, 64
1, 36240, Note_on_c, 9, 38, 64
1, 36280, Note_on_c, 9, 42, 0
1, 36280, Note_on_c, 9, 38, 0
1, 36320, Note_on_c, 9, 36, 64
1, 36360, Note_on_c, 9, 36, 0
1, 36360, Note_on_c, 9, 42, 64
1, 36400, Note_on_c, 9, 42, 0
1, 36440, Note_on_c, 9, 42, 64
1, 36480, Note_on_c, 9, 42, 0
1, 36480, Note_on_c, 9, 42, 64
1, 36520, Note_on_c, 9, 42, 0
1, 36600, Note_on_c, 9, 42, 64
1, 36640, Note_on_c, 9, 42, 0
1, 36680, Note_on_c, 9, 42, 64
1, 36720, Note_on_c, 9, 42, 0
1, 36720, Note_on_c, 9, 42, 64
1, 36720, Note_on_c, 9, 38, 64
1, 36760, Note_on_c, 9, 42, 0
1, 36760, Note_on_c, 9, 38, 0
1, 36840, Note_on_c, 9, 42, 64
1, 36880, Note_on_c, 9, 42, 0
1, 36920, Note_on_c, 9, 42, 64
1, 36960, Note_on_c, 9, 42, 0
1, 36960, Note_on_c, 9, 42, 64
1, 36960, Note_on_c, 9, 36, 64
1, 37000, Note_on_c, 9, 42, 0
1, 37000, Note_on_c, 9, 36, 0
1, 37080, Note_on_c, 9, 42, 64
1, 37120, Note_on_c, 9, 42, 0
1, 37160, Note_on_c, 9, 42, 64
1, 37160, Note_on_c, 9, 36, 64
1, 37200, Note_on_c, 9, 42, 0
1, 37200, Note_on_c, 9, 36, 0
1, 37200, Note_on_c, 9, 42, 64
1, 37200, Note_on_c, 9, 38, 64
1, 37240, Note_on_c, 9, 42, 0
1, 37240, Note_on_c, 9, 38, 0
1, 37320, Note_on_c, 9, 42, 64
1, 37320, Note_on_c, 9, 36, 64
1, 37360, Note_on_c, 9, 42, 0
1, 37360, Note_on_c, 9, 36, 0
1, 37400, Note_on_c, 9, 42, 64
1, 37440, Note_on_c, 9, 42, 0
1, 37440, Note_on_c, 9, 42, 64
1, 37480, Note_on_c, 9, 42, 0
1, 37560, Note_on_c, 9, 42, 64
1, 37600, Note_on_c, 9, 42, 0
1, 37640, Note_on_c, 9, 42, 64
1, 37680, Note_on_c, 9, 42, 0
1, 37680, Note_on_c, 9, 42, 64
1, 37680, Note_on_c, 9, 38, 64
1, 37720, Note_on_c, 9, 42, 0
1, 37720, Note_on_c, 9, 38, 0
1, 37800, Note_on_c, 9, 42, 64
1, 37840, Note_on_c, 9, 42, 0
1, 37880, Note_on_c, 9, 42, 64
1, 37920, Note_on_c, 9, 42, 0
1, 37920, Note_on_c, 9, 42, 64
1, 37920, Note_on_c, 9, 36, 64
1, 37960, Note_on_c, 9, 42, 0
1, 37960, Note_on_c, 9, 36, 0
1, 38040, Note_on_c, 9, 42, 64
1, 38080, Note_on_c, 9, 42, 0
1, 38120, Note_on_c, 9, 42, 64
1, 38120, Note_on_c, 9, 36, 64
1, 38160, Note_on_c, 9, 42, 0
1, 38160, Note_on_c, 9, 36, 0
1, 38160, Note_on_c, 9, 42, 64
1, 38160, Note_on_c, 9, 38, 64
1, 38200, Note_on_c, 9, 42, 0
1, 38200, Note_on_c, 9, 38, 0
1, 38280, Note_on_c, 9, 42, 64
1, 38280, Note_on_c, 9, 36, 64
1, 38320, Note_on_c, 9, 42, 0
1, 38320, Note_on_c, 9, 36, 0
1, 38360, Note_on_c, 9, 42, 64
1, 38400, Note_on_c, 9, 42, 0
1, 38400, Note_on_c, 9, 42, 64
1, 38400, Note_on_c, 9, 36, 64
1, 38440, Note_on_c, 9, 42, 0
1, 38440, Note_on_c, 9, 36, 0
1, 38520, Note_on_c, 9, 42, 64
1, 38560, Note_on_c, 9, 42, 0
1, 38600, Note_on_c, 9, 42, 64
1, 38600, Note_on_c, 9, 36, 64
1, 38640, Note_on_c, 9, 42, 0
1, 38640, Note_on_c, 9, 36, 0
1, 38640, Note_on_c, 9, 42, 64
1, 38640, Note_on_c, 9, 38, 64
1, 38680, Note_on_c, 9, 42, 0
1, 38680, Note_on_c, 9, 38, 0
1, 38760, Note_on_c, 9, 42, 64
1, 38760, Note_on_c, 9, 36, 64
1, 38800, Note_on_c, 9, 42, 0
1, 38800, Note_on_c, 9, 36, 0
1, 38840, Note_on_c, 9, 42, 64
1, 38880, Note_on_c, 9, 42, 0
1, 38880, Note_on_c, 9, 42, 64
1, 38920, Note_on_c, 9, 42, 0
1, 39000, Note_on_c, 9, 42, 64
1, 39040, Note_on_c, 9, 42, 0
1, 39080, Note_on_c, 9, 42, 64
1, 39080, Note_on_c, 9, 36, 64
1, 39120, Note_on_c, 9, 42, 0
1, 39120, Note_on_c, 9, 36, 0
1, 39120, Note_on_c, 9, 42, 64
1, 39120, Note_on_c, 9, 38, 64
1, 39160, Note_on_c, 9, 42, 0
1, 39160, Note_on_c, 9, 38, 0
1, 39200, Note_on_c, 9, 36, 64
1, 39240, Note_on_c, 9, 36, 0
1, 39240, Note_on_c, 9, 42, 64
1, 39240, Note_on_c, 9, 38, 64
1, 39280, Note_on_c, 9, 42, 0
1, 39280, Note_on_c, 9, 38, 0
1, 39320, Note_on_c, 9, 42, 64
1, 39320, Note_on_c, 9, 38, 64
1, 39360, Note_on_c, 9, 42, 0
1, 39360, Note_on_c, 9, 38, 0
1, 39360, Note_on_c, 9, 42, 64
1, 39360, Note_on_c, 9, 36, 64
1, 39400, Note_on_c, 9, 42, 0
1, 39400, Note_on_c, 9, 36, 0
1, 39480, Note_on_c, 9, 42, 64
1, 39520, Note_on_c, 9, 42, 0
1, 39560, Note_on_c, 9, 42, 64
1, 39560, Note_on_c, 9, 36, 64
1, 39600, Note_on_c, 9, 42, 0
1, 39600, Note_on_c, 9, 36, 0
1, 39600, Note_on_c, 9, 42, 64
1, 39600, Note_on_c, 9, 38, 64
1, 39640, Note_on_c, 9, 42, 0
1, 39640, Note_on_c, 9, 38, 0
1, 39720, Note_on_c, 9, 42, 64
1, 39720, Note_on_c, 9, 36, 64
1, 39760, Note_on_c, 9, 42, 0
1, 39760, Note_on_c, 9, 36, 0
1, 39800, Note_on_c, 9, 42, 64
1, 39840, Note_on_c, 9, 42, 0
1, 39840, Note_on_c, 9, 42, 64
1, 39880, Note_on_c, 9, 42, 0
1, 39960, Note_on_c, 9, 42, 64
1, 40000, Note_on_c, 9, 42, 0
1, 40040, Note_on_c, 9, 42, 64
1, 40040, Note_on_c, 9, 36, 64
1, 40080, Note_on_c, 9, 42, 0
1, 40080, Note_on_c, 9, 36, 0
1, 40080, Note_on_c, 9, 42, 64
1, 40080, Note_on_c, 9, 38, 64
1, 40120, Note_on_c, 9, 42, 0
1, 40120, Note_on_c, 9, 38, 0
1, 40160, Note_on_c, 9, 36, 64
1, 40200, Note_on_c, 9, 36, 0
1, 40200, Note_on_c, 9, 42, 64
1, 40200, Note_on_c, 9, 38, 64
1, 40240, Note_on_c, 9, 42, 0
1, 40240, Note_on_c, 9, 38, 0
1, 40280, Note_on_c, 9, 42, 64
1, 40280, Note_on_c, 9, 38, 64
1, 40320, Note_on_c, 9, 42, 0
1, 40320, Note_on_c, 9, 38, 0
1, 40320, Note_on_c, 9, 42, 64
1, 40360, Note_on_c, 9, 42, 0
1, 40440, Note_on_c, 9, 42, 64
1, 40480, Note_on_c, 9, 42, 0
1, 40520, Note_on_c, 9, 42, 64
1, 40520, Note_on_c, 9, 36, 64
1, 40560, Note_on_c, 9, 42, 0
1, 40560, Note_on_c, 9, 36, 0
1, 40560, Note_on_c, 9, 42, 64
1, 40560, Note_on_c, 9, 38, 64
1, 40600, Note_on_c, 9, 42, 0
1, 40600, Note_on_c, 9, 38, 0
1, 40640, Note_on_c, 9, 36, 64
1, 40680, Note_on_c, 9, 36, 0
1, 40680, Note_on_c, 9, 42, 64
1, 40680, Note_on_c, 9, 38, 64
1, 40720, Note_on_c, 9, 42, 0
1, 40720, Note_on_c, 9, 38, 0
1, 40760, Note_on_c, 9, 42, 64
1, 40760, Note_on_c, 9, 38, 64
1, 40800, Note_on_c, 9, 42, 0
1, 40800, Note_on_c, 9, 38, 0
1, 40800, Note_on_c, 9, 42, 64
1, 40840, Note_on_c, 9, 42, 0
1, 40920, Note_on_c, 9, 42, 64
1, 40920, Note_on_c, 9, 36, 64
1, 40960, Note_on_c, 9, 42, 0
1, 40960, Note_on_c, 9, 36, 0
1, 41000, Note_on_c, 9, 42, 64
1, 41040, Note_on_c, 9, 42, 0
1, 41040, Note_on_c, 9, 42, 64
1, 41040, Note_on_c, 9, 38, 64
1, 41080, Note_on_c, 9, 42, 0
1, 41080, Note_on_c, 9, 38, 0
1, 41120, Note_on_c, 9, 36, 64
1, 41160, Note_on_c, 9, 36, 0
1, 41160, Note_on_c, 9, 42, 64
1, 41200, Note_on_c, 9, 42, 0
1, 41240, Note_on_c, 9, 42, 64
1, 41280, Note_on_c, 9, 42, 0
1, 41280, Note_on_c, 9, 42, 64
1, 41320, Note_on_c, 9, 42, 0
1, 41400, Note_on_c, 9, 42, 64
1, 41440, Note_on_c, 9, 42, 0
1, 41480, Note_on_c, 9, 42, 64
1, 41480, Note_on_c, 9, 36, 64
1, 41520, Note_on_c, 9, 42, 0
1, 41520, Note_on_c, 9, 36, 0
1, 41520, Note_on_c, 9, 42, 64
1, 41520, Note_on_c, 9, 38, 64
1, 41560, Note_on_c, 9, 42, 0
1, 41560, Note_on_c, 9, 38, 0
1, 41600, Note_on_c, 9, 36, 64
1, 41640, Note_on_c, 9, 36, 0
1, 41640, Note_on_c, 9, 42, 64
1, 41640, Note_on_c, 9, 38, 64
1, 41680, Note_on_c, 9, 42, 0
1, 41680, Note_on_c, 9, 38, 0
1, 41720, Note_on_c, 9, 42, 64
1, 41720, Note_on_c, 9, 38, 64
1, 41760, Note_on_c, 9, 42, 0
1, 41760, Note_on_c, 9, 38, 0
1, 41760, Note_on_c, 9, 42, 64
1, 41800, Note_on_c, 9, 42, 0
1, 41880, Note_on_c, 9, 42, 64
1, 41880, Note_on_c, 9, 36, 64
1, 41920, Note_on_c, 9, 42, 0
1, 41920, Note_on_c, 9, 36, 0
1, 41960, Note_on_c, 9, 42, 64
1, 42000, Note_on_c, 9, 42, 0
1, 42000, Note_on_c, 9, 42, 64
1, 42000, Note_on_c, 9, 38, 64
1, 42040, Note_on_c, 9, 42, 0
1, 42040, Note_on_c, 9, 38, 0
1, 42080, Note_on_c, 9, 36, 64
1, 42120, Note_on_c, 9, 36, 0
1, 42120, Note_on_c, 9, 42, 64
1, 42160, Note_on_c, 9, 42, 0
1, 42200, Note_on_c, 9, 42, 64
1, 42240, Note_on_c, 9, 42, 0
1, 42240, Note_on_c, 9, 42, 64
1, 42280, Note_on_c, 9, 42, 0
1, 42360, Note_on_c, 9, 42, 64
1, 42360, Note_on_c, 9, 36, 64
1, 42400, Note_on_c, 9, 42, 0
1, 42400, Note_on_c, 9, 36, 0
1, 42440, Note_on_c, 9, 42, 64
1, 42480, Note_on_c, 9, 42, 0
1, 42480, Note_on_c, 9, 42, 64
1, 42480, Note_on_c, 9, 38, 64
1, 42520, Note_on_c, 9, 42, 0
1, 42520, Note_on_c, 9, 38, 0
1, 42560, Note_on_c, 9, 36, 64
1, 42600, Note_on_c, 9, 36, 0
1, 42600, Note_on_c, 9, 42, 64
1, 42640, Note_on_c, 9, 42, 0
1, 42680, Note_on_c, 9, 42, 64
1, 42720, Note_on_c, 9, 42, 0
1, 42720, Note_on_c, 9, 42, 64
1, 42720, Note_on_c, 9, 36, 64
1, 42760, Note_on_c, 9, 42, 0
1, 42760, Note_on_c, 9, 36, 0
1, 42840, Note_on_c, 9, 42, 64
1, 42880, Note_on_c, 9, 42, 0
1, 42920, Note_on_c, 9, 42, 64
1, 42920, Note_on_c, 9, 36, 64
1, 42960, Note_on_c, 9, 42, 0
1, 42960, Note_on_c, 9, 36, 0
1, 42960, Note_on_c, 9, 42, 64
1, 42960, Note_on_c, 9, 38, 64
1, 43000, Note_on_c, 9, 42, 0
1, 43000, Note_on_c, 9, 38, 0
1, 43080, Note_on_c, 9, 42, 64
1, 43080, Note_on_c, 9, 36, 64
1, 43120, Note_on_c, 9, 42, 0
1, 43120, Note_on_c, 9, 36, 0
1, 43160, Note_on_c, 9, 42, 64
1, 43200, Note_on_c, 9, 42, 0
1, 43200, Note_on_c, 9, 42, 64
1, 43240, Note_on_c, 9, 42, 0
1, 43320, Note_on_c, 9, 42, 64
1, 43320, Note_on_c, 9, 36, 64
1, 43360, Note_on_c, 9, 42, 0
1, 43360, Note_on_c, 9, 36, 0
1, 43400, Note_on_c, 9, 42, 64
1, 43440, Note_on_c, 9, 42, 0
1, 43440, Note_on_c, 9, 42, 64
1, 43440, Note_on_c, 9, 38, 64
1, 43480, Note_on_c, 9, 42, 0
1, 43480, Note_on_c, 9, 38, 0
1, 43520, Note_on_c, 9, 36, 64
1, 43560, Note_on_c, 9, 36, 0
1, 43560, Note_on_c, 9, 42, 64
1, 43600, Note_on_c, 9, 42, 0
1, 43640, Note_on_c, 9, 42, 64
1, 43680, Note_on_c, 9, 42, 0
1, 43680, Note_on_c, 9, 42, 64
1, 43680, Note_on_c, 9, 36, 64
1, 43720, Note_on_c, 9, 42, 0
1, 43720, Note_on_c, 9, 36, 0
1, 43800, Note_on_c, 9, 42, 64
1, 43840, Note_on_c, 9, 42, 0
1, 43880, Note_on_c, 9, 42, 64
1, 43880, Note_on_c, 9, 36, 64
1, 43920, Note_on_c, 9, 42, 0
1, 43920, Note_on_c, 9, 36, 0
1, 43920, Note_on_c, 9, 42, 64
1, 43920, Note_on_c, 9, 38, 64
1, 43960, Note_on_c, 9, 42, 0
1, 43960, Note_on_c, 9, 38, 0
1, 44040, Note_on_c, 9, 42, 64
1, 44040, Note_on_c, 9, 36, 64
1, 44080, Note_on_c, 9, 42, 0
1, 44080, Note_on_c, 9, 36, 0
1, 44120, Note_on_c, 9, 42, 64
1, 44160, Note_on_c, 9, 42, 0
1, 44160, Note_on_c, 9, 42, 64
1, 44160, Note_on_c, 9, 36, 64
1, 44200, Note_on_c, 9, 42, 0
1, 44200, Note_on_c, 9, 36, 0
1, 44280, Note_on_c, 9, 42, 64
1, 44320, Note_on_c, 9, 42, 0
1, 44360, Note_on_c, 9, 42, 64
1, 44400, Note_on_c, 9, 42, 0
1, 44400, Note_on_c, 9, 42, 64
1, 44400, Note_on_c, 9, 38, 64
1, 44440, Note_on_c, 9, 42, 0
1, 44440, Note_on_c, 9, 38, 0
1, 44520, Note_on_c, 9, 42, 64
1, 44560, Note_on_c, 9, 42, 0
1, 44600, Note_on_c, 9, 42, 64
1, 44640, Note_on_c, 9, 42, 0
1, 44640, Note_on_c, 9, 42, 64
1, 44640, Note_on_c, 9, 36, 64
1, 44680, Note_on_c, 9, 42, 0
1, 44680, Note_on_c, 9, 36, 0
1, 44760, Note_on_c, 9, 42, 64
1, 44800, Note_on_c, 9, 42, 0
1, 44840, Note_on_c, 9, 42, 64
1, 44840, Note_on_c, 9, 36, 64
1, 44880, Note_on_c, 9, 42, 0
1, 44880, Note_on_c, 9, 36, 0
1, 44880, Note_on_c, 9, 42, 64
1, 44880, Note_on_c, 9, 38, 64
1, 44920, Note_on_c, 9, 42, 0
1, 44920, Note_on_c, 9, 38, 0
1, 45000, Note_on_c, 9, 42, 64
1, 45000, Note_on_c, 9, 36, 64
1, 45040, Note_on_c, 9, 42, 0
1, 45040, Note_on_c, 9, 36, 0
1, 45080, Note_on_c, 9, 42, 64
1, 45120, Note_on_c, 9, 42, 0
1, 45120, Note_on_c, 9, 42, 64
1, 45120, Note_on_c, 9, 36, 64
1, 45160, Note_on_c, 9, 42, 0
1, 45160, Note_on_c, 9, 36, 0
1, 45240, Note_on_c, 9, 42, 64
1, 45280, Note_on_c, 9, 42, 0
1, 45320, Note_on_c, 9, 42, 64
1, 45360, Note_on_c, 9, 42, 0
1, 45360, Note_on_c, 9, 42, 64
1, 45360, Note_on_c, 9, 38, 64
1, 45400, Note_on_c, 9, 42, 0
1, 45400, Note_on_c, 9, 38, 0
1, 45480, Note_on_c, 9, 42, 64
1, 45520, Note_on_c, 9, 42, 0
1, 45560, Note_on_c, 9, 42, 64
1, 45600, Note_on_c, 9, 42, 0
1, 45600, Note_on_c, 9, 42, 64
1, 45600, Note_on_c, 9, 36, 64
1, 45640, Note_on_c, 9, 42, 0
1, 45640, Note_on_c, 9, 36, 0
1, 45720, Note_on_c, 9, 42, 64
1, 45760, Note_on_c, 9, 42, 0
1, 45800, Note_on_c, 9, 42, 64
1, 45800, Note_on_c, 9, 36, 64
1, 45840, Note_on_c, 9, 42, 0
1, 45840, Note_on_c, 9, 36, 0
1, 45840, Note_on_c, 9, 42, 64
1, 45840, Note_on_c, 9, 38, 64
1, 45880, Note_on_c, 9, 42, 0
1, 45880, Note_on_c, 9, 38, 0
1, 45960, Note_on_c, 9, 42, 64
1, 45960, Note_on_c, 9, 36, 64
1, 46000, Note_on_c, 9, 42, 0
1, 46000, Note_on_c, 9, 36, 0
1, 46040, Note_on_c, 9, 42, 64
1, 46080, Note_on_c, 9, 42, 0
1, 46080, Note_on_c, 9, 42, 64
1, 46120, Note_on_c, 9, 42, 0
1, 46200, Note_on_c, 9, 42, 64
1, 46240, Note_on_c, 9, 42, 0
1, 46280, Note_on_c, 9, 42, 64
1, 46320, Note_on_c, 9, 42, 0
1, 46320, Note_on_c, 9, 42, 64
1, 46360, Note_on_c, 9, 42, 0
1, 46440, Note_on_c, 9, 42, 64
1, 46480, Note_on_c, 9, 42, 0
1, 46520, Note_on_c, 9, 42, 64
1, 46560, Note_on_c, 9, 42, 0
1, 46560, Note_on_c, 9, 42, 64
1, 46600, Note_on_c, 9, 42, 0
1, 46680, Note_on_c, 9, 42, 64
1, 46720, Note_on_c, 9, 42, 0
1, 46760, Note_on_c, 9, 42, 64
1, 46800, Note_on_c, 9, 42, 0
1, 46800, Note_on_c, 9, 42, 64
1, 46840, Note_on_c, 9, 42, 0
1, 46920, Note_on_c, 9, 42, 64
1, 46960, Note_on_c, 9, 42, 0
1, 47000, Note_on_c, 9, 42, 64
1, 47040, Note_on_c, 9, 42, 0
1, 47040, Note_on_c, 9, 42, 64
1, 47080, Note_on_c, 9, 42, 0
1, 47160, Note_on_c, 9, 42, 64
1, 47200, Note_on_c, 9, 42, 0
1, 47240, Note_on_c, 9, 42, 64
1, 47280, Note_on_c, 9, 42, 0
1, 47280, Note_on_c, 9, 42, 64
1, 47320, Note_on_c, 9, 42, 0
1, 47400, Note_on_c, 9, 42, 64
1, 47440, Note_on_c, 9, 42, 0
1, 47480, Note_on_c, 9, 42, 64
1, 47520, Note_on_c, 9, 42, 0
1, 47520, Note_on_c, 9, 42, 64
1, 47560, Note_on_c, 9, 42, 0
1, 47640, Note_on_c, 9, 42, 64
1, 47680, Note_on_c, 9, 42, 0
1, 47720, Note_on_c, 9, 42, 64
1, 47760, Note_on_c, 9, 42, 0
1, 47760, Note_on_c, 9, 42, 64
1, 47800, Note_on_c, 9, 42, 0
1, 47880, Note_on_c, 9, 42, 64
1, 47920, Note_on_c, 9, 42, 0
1, 47960, Note_on_c, 9, 42, 64
1, 48000, Note_on_c, 9, 42, 0
1, 48000, Note_on_c, 9, 42, 64
1, 48040, Note_on_c, 9, 42, 0
1, 48120, Note_on_c, 9, 42, 64
1, 48160, Note_on_c, 9, 42, 0
1, 48200, Note_on_c, 9, 42, 64
1, 48240, Note_on_c, 9, 42, 0
1, 48240, Note_on_c, 9, 42, 64
1, 48280, Note_on_c, 9, 42, 0
1, 48360, Note_on_c, 9, 42, 64
1, 48400, Note_on_c, 9, 42, 0
1, 48440, Note_on_c, 9, 42, 64
1, 48480, Note_on_c, 9, 42, 0
1, 48480, Note_on_c, 9, 42, 64
1, 48520, Note_on_c, 9, 42, 0
1, 48600, Note_on_c, 9, 42, 64
1, 48640, Note_on_c, 9, 42, 0
1, 48680, Note_on_c, 9, 42, 64
1, 48720, Note_on_c, 9, 42, 0
1, 48720, Note_on_c, 9, 42, 64
1, 48760, Note_on_c, 9, 42, 0
1, 48840, Note_on_c, 9, 42, 64
1, 48880, Note_on_c, 9, 42, 0
1, 48920, Note_on_c, 9, 42, 64
1, 48960, Note_on_c, 9, 42, 0
1, 48960, Note_on_c, 9, 42, 64
1, 49000, Note_on_c, 9, 42, 0
1, 49080, Note_on_c, 9, 42, 64
1, 49120, Note_on_c, 9, 42, 0
1, 49160, Note_on_c, 9, 42, 64
1, 49200, Note_on_c, 9, 42, 0
1, 49200, Note_on_c, 9, 42, 64
1, 49240, Note_on_c, 9, 42, 0
1, 49320, Note_on_c, 9, 42, 64
1, 49360, Note_on_c, 9, 42, 0
1, 49400, Note_on_c, 9, 42, 64
1, 49440, Note_on_c, 9, 42, 0
1, 49440, Note_on_c, 9, 42, 64
1, 49480, Note_on_c, 9, 42, 0
1, 49560, Note_on_c, 9, 42, 64
1, 49600, Note_on_c, 9, 42, 0
1, 49640, Note_on_c, 9, 42, 64
1, 49680, Note_on_c, 9, 42, 0
1, 49680, Note_on_c, 9, 42, 64
1, 49720, Note_on_c, 9, 42, 0
1, 49800, Note_on_c, 9, 42, 64
1, 49840, Note_on_c, 9, 42, 0
1, 49880, Note_on_c, 9, 42, 64
1, 49920, Note_on_c, 9, 42, 0
1, 50160, Note_on_c, 9, 38, 64
1, 50200, Note_on_c, 9, 38, 0
1, 50640, Note_on_c, 9, 38, 64
1, 50680, Note_on_c, 9, 38, 0
1, 50760, Note_on_c, 9, 38, 64
1, 50800, Note_on_c, 9, 38, 0
1, 50840, Note_on_c, 9, 38, 64
1, 50880, Note_on_c, 9, 38, 0
1, 51120, Note_on_c, 9, 38, 64
1, 51180, Note_on_c, 9, 38, 0
1, 51600, Note_on_c, 9, 38, 64
1, 51660, Note_on_c, 9, 38, 0
1, 52080, Note_on_c, 9, 38, 64
1, 52120, Note_on_c, 9, 38, 0
1, 52560, Note_on_c, 9, 38, 64
1, 52600, Note_on_c, 9, 38, 0
1, 52680, Note_on_c, 9, 38, 64
1, 52720, Note_on_c, 9, 38, 0
1, 52760, Note_on_c, 9, 38, 64
1, 52800, Note_on_c, 9, 38, 0
1, 53040, Note_on_c, 9, 38, 64
1, 53100, Note_on_c, 9, 38, 0
1, 53520, Note_on_c, 9, 38, 64
1, 53580, Note_on_c, 9, 38, 0
1, 53760, Note_on_c, 9, 36, 64
1, 53800, Note_on_c, 9, 36, 0
1, 53960, Note_on_c, 9, 36, 64
1, 54000, Note_on_c, 9, 36, 0
1, 54120, Note_on_c, 9, 36, 64
1, 54160, Note_on_c, 9, 36, 0
1, 54440, Note_on_c, 9, 36, 64
1, 54480, Note_on_c, 9, 36, 0
1, 54560, Note_on_c, 9, 36, 64
1, 54600, Note_on_c, 9, 36, 0
1, 54840, Note_on_c, 9, 36, 64
1, 54880, Note_on_c, 9, 36, 0
1, 55040, Note_on_c, 9, 36, 64
1, 55080, Note_on_c, 9, 36, 0
1, 55200, Note_on_c, 9, 36, 64
1, 55240, Note_on_c, 9, 36, 0
1, 55400, Note_on_c, 9, 36, 64
1, 55440, Note_on_c, 9, 36, 0
1, 55560, Note_on_c, 9, 36, 64
1, 55600, Note_on_c, 9, 36, 0
1, 55680, Note_on_c, 9, 36, 64
1, 55720, Note_on_c, 9, 36, 0
1, 55880, Note_on_c, 9, 36, 64
1, 55920, Note_on_c, 9, 36, 0
1, 56040, Note_on_c, 9, 36, 64
1, 56080, Note_on_c, 9, 36, 0
1, 56360, Note_on_c, 9, 36, 64
1, 56400, Note_on_c, 9, 36, 0
1, 56480, Note_on_c, 9, 36, 64
1, 56520, Note_on_c, 9, 36, 0
1, 56760, Note_on_c, 9, 36, 64
1, 56800, Note_on_c, 9, 36, 0
1, 56960, Note_on_c, 9, 36, 64
1, 57000, Note_on_c, 9, 36, 0
1, 57120, Note_on_c, 9, 36, 64
1, 57160, Note_on_c, 9, 36, 0
1, 57320, Note_on_c, 9, 36, 64
1, 57360, Note_on_c, 9, 36, 0
1, 57480, Note_on_c, 9, 36, 64
1, 57520, Note_on_c, 9, 36, 0
1, 57600, Note_on_c, 9, 42, 64
1, 57600, Note_on_c, 9, 36, 64
1, 57640, Note_on_c, 9, 42, 0
1, 57640, Note_on_c, 9, 36, 0
1, 57720, Note_on_c, 9, 42, 64
1, 57760, Note_on_c, 9, 42, 0
1, 57800, Note_on_c, 9, 42, 64
1, 57800, Note_on_c, 9, 36, 64
1, 57840, Note_on_c, 9, 42, 0
1, 57840, Note_on_c, 9, 36, 0
1, 57840, Note_on_c, 9, 42, 64
1, 57840, Note_on_c, 9, 38, 64
1, 57880, Note_on_c, 9, 42, 0
1, 57880, Note_on_c, 9, 38, 0
1, 57920, Note_on_c, 9, 36, 64
1, 57960, Note_on_c, 9, 36, 0
1, 57960, Note_on_c, 9, 42, 64
1, 58000, Note_on_c, 9, 42, 0
1, 58040, Note_on_c, 9, 42, 64
1, 58080, Note_on_c, 9, 42, 0
1, 58080, Note_on_c, 9, 42, 64
1, 58120, Note_on_c, 9, 42, 0
1, 58200, Note_on_c, 9, 42, 64
1, 58240, Note_on_c, 9, 42, 0
1, 58280, Note_on_c, 9, 42, 64
1, 58280, Note_on_c, 9, 36, 64
1, 58320, Note_on_c, 9, 42, 0
1, 58320, Note_on_c, 9, 36, 0
1, 58320, Note_on_c, 9, 42, 64
1, 58320, Note_on_c, 9, 38, 64
1, 58360, Note_on_c, 9, 42, 0
1, 58360, Note_on_c, 9, 38, 0
1, 58400, Note_on_c, 9, 36, 64
1, 58440, Note_on_c, 9, 36, 0
1, 58440, Note_on_c, 9, 42, 64
1, 58440, Note_on_c, 9, 38, 64
1, 58480, Note_on_c, 9, 42, 0
1, 58480, Note_on_c, 9, 38, 0
1, 58520, Note_on_c, 9, 42, 64
1, 58520, Note_on_c, 9, 38, 64
1, 58560, Note_on_c, 9, 42, 0
1, 58560, Note_on_c, 9, 38, 0
1, 58560, Note_on_c, 9, 42, 64
1, 58600, Note_on_c, 9, 42, 0
1, 58680, Note_on_c, 9, 42, 64
1, 58680, Note_on_c, 9, 36, 64
1, 58720, Note_on_c, 9, 42, 0
1, 58720, Note_on_c, 9, 36, 0
1, 58760, Note_on_c, 9, 42, 64
1, 58800, Note_on_c, 9, 42, 0
1, 58800, Note_on_c, 9, 42, 64
1, 58800, Note_on_c, 9, 38, 64
1, 58840, Note_on_c, 9, 42, 0
1, 58840, Note_on_c, 9, 38, 0
1, 58880, Note_on_c, 9, 36, 64
1, 58920, Note_on_c, 9, 36, 0
1, 58920, Note_on_c, 9, 42, 64
1, 58960, Note_on_c, 9, 42, 0
1, 59000, Note_on_c, 9, 42, 64
1, 59040, Note_on_c, 9, 42, 0
1, 59040, Note_on_c, 9, 42, 64
1, 59040, Note_on_c, 9, 36, 64
1, 59080, Note_on_c, 9, 42, 0
1, 59080, Note_on_c, 9, 36, 0
1, 59160, Note_on_c, 9, 42, 64
1, 59200, Note_on_c, 9, 42, 0
1, 59240, Note_on_c, 9, 42, 64
1, 59240, Note_on_c, 9, 36, 64
1, 59280, Note_on_c, 9, 42, 0
1, 59280, Note_on_c, 9, 36, 0
1, 59280, Note_on_c, 9, 42, 64
1, 59280, Note_on_c, 9, 38, 64
1, 59320, Note_on_c, 9, 42, 0
1, 59320, Note_on_c, 9, 38, 0
1, 59400, Note_on_c, 9, 42, 64
1, 59400, Note_on_c, 9, 36, 64
1, 59440, Note_on_c, 9, 42, 0
1, 59440, Note_on_c, 9, 36, 0
1, 59480, Note_on_c, 9, 42, 64
1, 59520, Note_on_c, 9, 42, 0
1, 59520, Note_on_c, 9, 42, 64
1, 59520, Note_on_c, 9, 36, 64
1, 59560, Note_on_c, 9, 42, 0
1, 59560, Note_on_c, 9, 36, 0
1, 59640, Note_on_c, 9, 42, 64
1, 59680, Note_on_c, 9, 42, 0
1, 59720, Note_on_c, 9, 42, 64
1, 59720, Note_on_c, 9, 36, 64
1, 59760, Note_on_c, 9, 42, 0
1, 59760, Note_on_c, 9, 36, 0
1, 59760, Note_on_c, 9, 42, 64
1, 59760, Note_on_c, 9, 38, 64
1, 59800, Note_on_c, 9, 42, 0
1, 59800, Note_on_c, 9, 38, 0
1, 59840, Note_on_c, 9, 36, 64
1, 59880, Note_on_c, 9, 36, 0
1, 59880, Note_on_c, 9, 42, 64
1, 59920, Note_on_c, 9, 42, 0
1, 59960, Note_on_c, 9, 42, 64
1, 60000, Note_on_c, 9, 42, 0
1, 60000, Note_on_c, 9, 42, 64
1, 60040, Note_on_c, 9, 42, 0
1, 60120, Note_on_c, 9, 42, 64
1, 60160, Note_on_c, 9, 42, 0
1, 60200, Note_on_c, 9, 42, 64
1, 60200, Note_on_c, 9, 36, 64
1, 60240, Note_on_c, 9, 42, 0
1, 60240, Note_on_c, 9, 36, 0
1, 60240, Note_on_c, 9, 42, 64
1, 60240, Note_on_c, 9, 38, 64
1, 60280, Note_on_c, 9, 42, 0
1, 60280, Note_on_c, 9, 38, 0
1, 60320, Note_on_c, 9, 36, 64
1, 60360, Note_on_c, 9, 36, 0
1, 60360, Note_on_c, 9, 42, 64
1, 60360, Note_on_c, 9, 38, 64
1, 60400, Note_on_c, 9, 42, 0
1, 60400, Note_on_c, 9, 38, 0
1, 60440, Note_on_c, 9, 42, 64
1, 60440, Note_on_c, 9, 38, 64
1, 60480, Note_on_c, 9, 42, 0
1, 60480, Note_on_c, 9, 38, 0
1, 60480, Note_on_c, 9, 42, 64
1, 60520, Note_on_c, 9, 42, 0
1, 60600, Note_on_c, 9, 42, 64
1, 60600, Note_on_c, 9, 36, 64
1, 60640, Note_on_c, 9, 42, 0
1, 60640, Note_on_c, 9, 36, 0
1, 60680, Note_on_c, 9, 42, 64
1, 60720, Note_on_c, 9, 42, 0
1, 60720, Note_on_c, 9, 42, 64
1, 60720, Note_on_c, 9, 38, 64
1, 60760, Note_on_c, 9, 42, 0
1, 60760, Note_on_c, 9, 38, 0
1, 60800, Note_on_c, 9, 36, 64
1, 60840, Note_on_c, 9, 36, 0
1, 60840, Note_on_c, 9, 42, 64
1, 60880, Note_on_c, 9, 42, 0
1, 60920, Note_on_c, 9, 42, 64
1, 60960, Note_on_c, 9, 42, 0
1, 60960, Note_on_c, 9, 42, 64
1, 60960, Note_on_c, 9, 36, 64
1, 61000, Note_on_c, 9, 42, 0
1, 61000, Note_on_c, 9, 36, 0
1, 61080, Note_on_c, 9, 42, 64
1, 61120, Note_on_c, 9, 42, 0
1, 61160, Note_on_c, 9, 42, 64
1, 61160, Note_on_c, 9, 36, 64
1, 61200, Note_on_c, 9, 42, 0
1, 61200, Note_on_c, 9, 36, 0
1, 61200, Note_on_c, 9, 42, 64
1, 61200, Note_on_c, 9, 38, 64
1, 61240, Note_on_c, 9, 42, 0
1, 61240, Note_on_c, 9, 38, 0
1, 61320, Note_on_c, 9, 42, 64
1, 61320, Note_on_c, 9, 36, 64
1, 61360, Note_on_c, 9, 42, 0
1, 61360, Note_on_c, 9, 36, 0
1, 61400, Note_on_c, 9, 42, 64
1, 61440, Note_on_c, 9, 42, 0
1, 61560, Note_on_c, 9, 69, 64
1, 61600, Note_on_c, 9, 69, 0
1, 61800, Note_on_c, 9, 69, 64
1, 61840, Note_on_c, 9, 69, 0
1, 62040, Note_on_c, 9, 69, 64
1, 62080, Note_on_c, 9, 69, 0
1, 62280, Note_on_c, 9, 69, 64
1, 62320, Note_on_c, 9, 69, 0
1, 62520, Note_on_c, 9, 69, 64
1, 62580, Note_on_c, 9, 69, 0
1, 62760, Note_on_c, 9, 69, 64
1, 62820, Note_on_c, 9, 69, 0
1, 63000, Note_on_c, 9, 69, 64
1, 63060, Note_on_c, 9, 69, 0
1, 63240, Note_on_c, 9, 69, 64
1, 63300, Note_on_c, 9, 69, 0
1, 63480, Note_on_c, 9, 69, 64
1, 63520, Note_on_c, 9, 69, 0
1, 63720, Note_on_c, 9, 69, 64
1, 63760, Note_on_c, 9, 69, 0
1, 63960, Note_on_c, 9, 69, 64
1, 64000, Note_on_c, 9, 69, 0
1, 64200, Note_on_c, 9, 69, 64
1, 64240, Note_on_c, 9, 69, 0
1, 64440, Note_on_c, 9, 69, 64
1, 64500, Note_on_c, 9, 69, 0
1, 64680, Note_on_c, 9, 69, 64
1, 64740, Note_on_c, 9, 69, 0
1, 64920, Note_on_c, 9, 69, 64
1, 64980, Note_on_c, 9, 69, 0
1, 65160, Note_on_c, 9, 69, 64
1, 65220, Note_on_c, 9, 69, 0
1, 65400, Note_on_c, 9, 39, 64
1, 65460, Note_on_c, 9, 39, 0
1, 66120, Note_on_c, 9, 39, 64
1, 66180, Note_on_c, 9, 39, 0
1, 66600, Note_on_c, 9, 39, 64
1, 66660, Note_on_c, 9, 39, 0
1, 67080, Note_on_c, 9, 39, 64
1, 67140, Note_on_c, 9, 39, 0
1, 67320, Note_on_c, 9, 39, 64
1, 67380, Note_on_c, 9, 39, 0
1, 68040, Note_on_c, 9, 39, 64
1, 68100, Note_on_c, 9, 39, 0
1, 68520, Note_on_c, 9, 39, 64
1, 68580, Note_on_c, 9, 39, 0
1, 69000, Note_on_c, 9, 39, 64
1, 69060, Note_on_c, 9, 39, 0
1, 69120, Note_on_c, 9, 56, 64
1, 69160, Note_on_c, 9, 56, 0
1, 69200, Note_on_c, 9, 56, 64
1, 69240, Note_on_c, 9, 56, 0
1, 69600, Note_on_c, 9, 56, 64
1, 69640, Note_on_c, 9, 56, 0
1, 69680, Note_on_c, 9, 56, 64
1, 69720, Note_on_c, 9, 56, 0
1, 70080, Note_on_c, 9, 56, 64
1, 70120, Note_on_c, 9, 56, 0
1, 70160, Note_on_c, 9, 56, 64
1, 70200, Note_on_c, 9, 56, 0
1, 70280, Note_on_c, 9, 56, 64
1, 70320, Note_on_c, 9, 56, 0
1, 70440, Note_on_c, 9, 56, 64
1, 70480, Note_on_c, 9, 56, 0
1, 70520, Note_on_c, 9, 56, 64
1, 70560, Note_on_c, 9, 56, 0
1, 70640, Note_on_c, 9, 56, 64
1, 70680, Note_on_c, 9, 56, 0
1, 70680, Note_on_c, 9, 56, 64
1, 70720, Note_on_c, 9, 56, 0
1, 70880, Note_on_c, 9, 56, 64
1, 70920, Note_on_c, 9, 56, 0
1, 70920, Note_on_c, 9, 56, 64
1, 70960, Note_on_c, 9, 56, 0
1, 71040, Note_on_c, 9, 56, 64
1, 71080, Note_on_c, 9, 56, 0
1, 71120, Note_on_c, 9, 56, 64
1, 71160, Note_on_c, 9, 56, 0
1, 71520, Note_on_c, 9, 56, 64
1, 71560, Note_on_c, 9, 56, 0
1, 71600, Note_on_c, 9, 56, 64
1, 71640, Note_on_c, 9, 56, 0
1, 72000, Note_on_c, 9, 56, 64
1, 72040, Note_on_c, 9, 56, 0
1, 72080, Note_on_c, 9, 56, 64
1, 72120, Note_on_c, 9, 56, 0
1, 72200, Note_on_c, 9, 56, 64
1, 72240, Note_on_c, 9, 56, 0
1, 72360, Note_on_c, 9, 56, 64
1, 72400, Note_on_c, 9, 56, 0
1, 72440, Note_on_c, 9, 56, 64
1, 72480, Note_on_c, 9, 56, 0
1, 72560, Note_on_c, 9, 56, 64
1, 72600, Note_on_c, 9, 56, 0
1, 72600, Note_on_c, 9, 56, 64
1, 72640, Note_on_c, 9, 56, 0
1, 72800, Note_on_c, 9, 56, 64
1, 72840, Note_on_c, 9, 56, 0
1, 72840, Note_on_c, 9, 56, 64
1, 72880, Note_on_c, 9, 56, 0
1, 72960, Note_on_c, 9, 56, 64
1, 73000, Note_on_c, 9, 56, 0
1, 73040, Note_on_c, 9, 56, 64
1, 73080, Note_on_c, 9, 56, 0
1, 73080, Note_on_c, 9, 69, 64
1, 73080, Note_on_c, 9, 39, 64
1, 73120, Note_on_c, 9, 69, 0
1, 73120, Note_on_c, 9, 39, 0
1, 73320, Note_on_c, 9, 69, 64
1, 73360, Note_on_c, 9, 69, 0
1, 73440, Note_on_c, 9, 56, 64
1, 73480, Note_on_c, 9, 56, 0
1, 73520, Note_on_c, 9, 56, 64
1, 73560, Note_on_c, 9, 56, 0
1, 73560, Note_on_c, 9, 69, 64
1, 73560, Note_on_c, 9, 39, 64
1, 73600, Note_on_c, 9, 69, 0
1, 73600, Note_on_c, 9, 39, 0
1, 73800, Note_on_c, 9, 69, 64
1, 73840, Note_on_c, 9, 69, 0
1, 73920, Note_on_c, 9, 56, 64
1, 73960, Note_on_c, 9, 56, 0
1, 74000, Note_on_c, 9, 56, 64
1, 74040, Note_on_c, 9, 56, 0
1, 74040, Note_on_c, 9, 69, 64
1, 74080, Note_on_c, 9, 69, 0
1, 74120, Note_on_c, 9, 56, 64
1, 74160, Note_on_c, 9, 56, 0
1, 74280, Note_on_c, 9, 69, 64
1, 74280, Note_on_c, 9, 39, 64
1, 74280, Note_on_c, 9, 56, 64
1, 74320, Note_on_c, 9, 69, 0
1, 74320, Note_on_c, 9, 39, 0
1, 74320, Note_on_c, 9, 56, 0
1, 74360, Note_on_c, 9, 56, 64
1, 74400, Note_on_c, 9, 56, 0
1, 74480, Note_on_c, 9, 56, 64
1, 74520, Note_on_c, 9, 56, 0
1, 74520, Note_on_c, 9, 69, 64
1, 74520, Note_on_c, 9, 56, 64
1, 74560, Note_on_c, 9, 69, 0
1, 74560, Note_on_c, 9, 56, 0
1, 74720, Note_on_c, 9, 56, 64
1, 74760, Note_on_c, 9, 56, 0
1, 74760, Note_on_c, 9, 69, 64
1, 74760, Note_on_c, 9, 39, 64
1, 74760, Note_on_c, 9, 56, 64
1, 74800, Note_on_c, 9, 69, 0
1, 74800, Note_on_c, 9, 39, 0
1, 74800, Note_on_c, 9, 56, 0
1, 74880, Note_on_c, 9, 56, 64
1, 74920, Note_on_c, 9, 56, 0
1, 74960, Note_on_c, 9, 56, 64
1, 75000, Note_on_c, 9, 56, 0
1, 75000, Note_on_c, 9, 69, 64
1, 75000, Note_on_c, 9, 39, 64
1, 75040, Note_on_c, 9, 69, 0
1, 75040, Note_on_c, 9, 39, 0
1, 75240, Note_on_c, 9, 69, 64
1, 75280, Note_on_c, 9, 69, 0
1, 75360, Note_on_c, 9, 56, 64
1, 75400, Note_on_c, 9, 56, 0
1, 75440, Note_on_c, 9, 56, 64
1, 75480, Note_on_c, 9, 56, 0
1, 75480, Note_on_c, 9, 69, 64
1, 75480, Note_on_c, 9, 39, 64
1, 75520, Note_on_c, 9, 69, 0
1, 75520, Note_on_c, 9, 39, 0
1, 75720, Note_on_c, 9, 69, 64
1, 75760, Note_on_c, 9, 69, 0
1, 75840, Note_on_c, 9, 56, 64
1, 75880, Note_on_c, 9, 56, 0
1, 75920, Note_on_c, 9, 56, 64
1, 75960, Note_on_c, 9, 56, 0
1, 75960, Note_on_c, 9, 69, 64
1, 76000, Note_on_c, 9, 69, 0
1, 76040, Note_on_c, 9, 56, 64
1, 76080, Note_on_c, 9, 56, 0
1, 76200, Note_on_c, 9, 69, 64
1, 76200, Note_on_c, 9, 39, 64
1, 76200, Note_on_c, 9, 56, 64
1, 76240, Note_on_c, 9, 69, 0
1, 76240, Note_on_c, 9, 39, 0
1, 76240, Note_on_c, 9, 56, 0
1, 76280, Note_on_c, 9, 56, 64
1, 76320, Note_on_c, 9, 56, 0
1, 76400, Note_on_c, 9, 56, 64
1, 76440, Note_on_c, 9, 56, 0
1, 76440, Note_on_c, 9, 69, 64
1, 76440, Note_on_c, 9, 56, 64
1, 76480, Note_on_c, 9, 69, 0
1, 76480, Note_on_c, 9, 56, 0
1, 76640, Note_on_c, 9, 56, 64
1, 76680, Note_on_c, 9, 56, 0
1, 76680, Note_on_c, 9, 69, 64
1, 76680, Note_on_c, 9, 39, 64
1, 76680, Note_on_c, 9, 56, 64
1, 76720, Note_on_c, 9, 69, 0
1, 76720, Note_on_c, 9, 39, 0
1, 76720, Note_on_c, 9, 56, 0
1, 76800, Note_on_c, 9, 56, 64
1, 76800, Note_on_c, 9, 42, 64
1, 76800, Note_on_c, 9, 36, 64
1, 76840, Note_on_c, 9, 56, 0
1, 76840, Note_on_c, 9, 42, 0
1, 76840, Note_on_c, 9, 36, 0
1, 76880, Note_on_c, 9, 56, 64
1, 76920, Note_on_c, 9, 56, 0
1, 76920, Note_on_c, 9, 69, 64
1, 76920, Note_on_c, 9, 39, 64
1, 76920, Note_on_c, 9, 42, 64
1, 76960, Note_on_c, 9, 69, 0
1, 76960, Note_on_c, 9, 39, 0
1, 76960, Note_on_c, 9, 42, 0
1, 77000, Note_on_c, 9, 42, 64
1, 77000, Note_on_c, 9, 36, 64
1, 77040, Note_on_c, 9, 42, 0
1, 77040, Note_on_c, 9, 36, 0
1, 77040, Note_on_c, 9, 42, 64
1, 77040, Note_on_c, 9, 38, 64
1, 77080, Note_on_c, 9, 42, 0
1, 77080, Note_on_c, 9, 38, 0
1, 77120, Note_on_c, 9, 36, 64
1, 77160, Note_on_c, 9, 36, 0
1, 77160, Note_on_c, 9, 69, 64
1, 77160, Note_on_c, 9, 42, 64
1, 77200, Note_on_c, 9, 69, 0
1, 77200, Note_on_c, 9, 42, 0
1, 77240, Note_on_c, 9, 42, 64
1, 77280, Note_on_c, 9, 42, 0
1, 77280, Note_on_c, 9, 56, 64
1, 77280, Note_on_c, 9, 42, 64
1, 77320, Note_on_c, 9, 56, 0
1, 77320, Note_on_c, 9, 42, 0
1, 77360, Note_on_c, 9, 56, 64
1, 77400, Note_on_c, 9, 56, 0
1, 77400, Note_on_c, 9, 69, 64
1, 77400, Note_on_c, 9, 39, 64
1, 77400, Note_on_c, 9, 42, 64
1, 77440, Note_on_c, 9, 69, 0
1, 77440, Note_on_c, 9, 39, 0
1, 77440, Note_on_c, 9, 42, 0
1, 77480, Note_on_c, 9, 42, 64
1, 77480, Note_on_c, 9, 36, 64
1, 77520, Note_on_c, 9, 42, 0
1, 77520, Note_on_c, 9, 36, 0
1, 77520, Note_on_c, 9, 42, 64
1, 77520, Note_on_c, 9, 38, 64
1, 77560, Note_on_c, 9, 42, 0
1, 77560, Note_on_c, 9, 38, 0
1, 77600, Note_on_c, 9, 36, 64
1, 77640, Note_on_c, 9, 36, 0
1, 77640, Note_on_c, 9, 69, 64
1, 77640, Note_on_c, 9, 42, 64
1, 77640, Note_on_c, 9, 38, 64
1, 77680, Note_on_c, 9, 69, 0
1, 77680, Note_on_c, 9, 42, 0
1, 77680, Note_on_c, 9, 38, 0
1, 77720, Note_on_c, 9, 42, 64
1, 77720, Note_on_c, 9, 38, 64
1, 77760, Note_on_c, 9, 42, 0
1, 77760, Note_on_c, 9, 38, 0
1, 77760, Note_on_c, 9, 56, 64
1, 77760, Note_on_c, 9, 42, 64
1, 77800, Note_on_c, 9, 56, 0
1, 77800, Note_on_c, 9, 42, 0
1, 77840, Note_on_c, 9, 56, 64
1, 77880, Note_on_c, 9, 56, 0
1, 77880, Note_on_c, 9, 69, 64
1, 77880, Note_on_c, 9, 42, 64
1, 77880, Note_on_c, 9, 36, 64
1, 77920, Note_on_c, 9, 69, 0
1, 77920, Note_on_c, 9, 42, 0
1, 77920, Note_on_c, 9, 36, 0
1, 77960, Note_on_c, 9, 56, 64
1, 77960, Note_on_c, 9, 42, 64
1, 78000, Note_on_c, 9, 56, 0
1, 78000, Note_on_c, 9, 42, 0
1, 78000, Note_on_c, 9, 42, 64
1, 78000, Note_on_c, 9, 38, 64
1, 78040, Note_on_c, 9, 42, 0
1, 78040, Note_on_c, 9, 38, 0
1, 78080, Note_on_c, 9, 36, 64
1, 78120, Note_on_c, 9, 36, 0
1, 78120, Note_on_c, 9, 69, 64
1, 78120, Note_on_c, 9, 39, 64
1, 78120, Note_on_c, 9, 56, 64
1, 78120, Note_on_c, 9, 42, 64
1, 78160, Note_on_c, 9, 69, 0
1, 78160, Note_on_c, 9, 39, 0
1, 78160, Note_on_c, 9, 56, 0
1, 78160, Note_on_c, 9, 42, 0
1, 78200, Note_on_c, 9, 56, 64
1, 78200, Note_on_c, 9, 42, 64
1, 78240, Note_on_c, 9, 56, 0
1, 78240, Note_on_c, 9, 42, 0
1, 78240, Note_on_c, 9, 42, 64
1, 78240, Note_on_c, 9, 36, 64
1, 78280, Note_on_c, 9, 42, 0
1, 78280, Note_on_c, 9, 36, 0
1, 78320, Note_on_c, 9, 56, 64
1, 78360, Note_on_c, 9, 56, 0
1, 78360, Note_on_c, 9, 69, 64
1, 78360, Note_on_c, 9, 56, 64
1, 78360, Note_on_c, 9, 42, 64
1, 78400, Note_on_c, 9, 69, 0
1, 78400, Note_on_c, 9, 56, 0
1, 78400, Note_on_c, 9, 42, 0
1, 78440, Note_on_c, 9, 42, 64
1, 78440, Note_on_c, 9, 36, 64
1, 78480, Note_on_c, 9, 42, 0
1, 78480, Note_on_c, 9, 36, 0
1, 78480, Note_on_c, 9, 42, 64
1, 78480, Note_on_c, 9, 38, 64
1, 78520, Note_on_c, 9, 42, 0
1, 78520, Note_on_c, 9, 38, 0
1, 78560, Note_on_c, 9, 56, 64
1, 78600, Note_on_c, 9, 56, 0
1, 78600, Note_on_c, 9, 69, 64
1, 78600, Note_on_c, 9, 39, 64
1, 78600, Note_on_c, 9, 56, 64
1, 78600, Note_on_c, 9, 42, 64
1, 78600, Note_on_c, 9, 36, 64
1, 78640, Note_on_c, 9, 69, 0
1, 78640, Note_on_c, 9, 39, 0
1, 78640, Note_on_c, 9, 56, 0
1, 78640, Note_on_c, 9, 42, 0
1, 78640, Note_on_c, 9, 36, 0
1, 78680, Note_on_c, 9, 42, 64
1, 78720, Note_on_c, 9, 42, 0
1, 78720, Note_on_c, 9, 56, 64
1, 78720, Note_on_c, 9, 42, 64
1, 78720, Note_on_c, 9, 36, 64
1, 78760, Note_on_c, 9, 56, 0
1, 78760, Note_on_c, 9, 42, 0
1, 78760, Note_on_c, 9, 36, 0
1, 78800, Note_on_c, 9, 56, 64
1, 78840, Note_on_c, 9, 56, 0
1, 78840, Note_on_c, 9, 69, 64
1, 78840, Note_on_c, 9, 39, 64
1, 78840, Note_on_c, 9, 42, 64
1, 78880, Note_on_c, 9, 69, 0
1, 78880, Note_on_c, 9, 39, 0
1, 78880, Note_on_c, 9, 42, 0
1, 78920, Note_on_c, 9, 42, 64
1, 78920, Note_on_c, 9, 36, 64
1, 78960, Note_on_c, 9, 42, 0
1, 78960, Note_on_c, 9, 36, 0
1, 78960, Note_on_c, 9, 42, 64
1, 78960, Note_on_c, 9, 38, 64
1, 79000, Note_on_c, 9, 42, 0
1, 79000, Note_on_c, 9, 38, 0
1, 79040, Note_on_c, 9, 36, 64
1, 79080, Note_on_c, 9, 36, 0
1, 79080, Note_on_c, 9, 69, 64
1, 79080, Note_on_c, 9, 42, 64
1, 79120, Note_on_c, 9, 69, 0
1, 79120, Note_on_c, 9, 42, 0
1, 79160, Note_on_c, 9, 42, 64
1, 79200, Note_on_c, 9, 42, 0
1, 79200, Note_on_c, 9, 56, 64
1, 79200, Note_on_c, 9, 42, 64
1, 79240, Note_on_c, 9, 56, 0
1, 79240, Note_on_c, 9, 42, 0
1, 79280, Note_on_c, 9, 56, 64
1, 79320, Note_on_c, 9, 56, 0
1, 79320, Note_on_c, 9, 69, 64
1, 79320, Note_on_c, 9, 39, 64
1, 79320, Note_on_c, 9, 42, 64
1, 79360, Note_on_c, 9, 69, 0
1, 79360, Note_on_c, 9, 39, 0
1, 79360, Note_on_c, 9, 42, 0
1, 79400, Note_on_c, 9, 42, 64
1, 79400, Note_on_c, 9, 36, 64
1, 79440, Note_on_c, 9, 42, 0
1, 79440, Note_on_c, 9, 36, 0
1, 79440, Note_on_c, 9, 42, 64
1, 79440, Note_on_c, 9, 38, 64
1, 79480, Note_on_c, 9, 42, 0
1, 79480, Note_on_c, 9, 38, 0
1, 79520, Note_on_c, 9, 36, 64
1, 79560, Note_on_c, 9, 36, 0
1, 79560, Note_on_c, 9, 69, 64
1, 79560, Note_on_c, 9, 42, 64
1, 79560, Note_on_c, 9, 38, 64
1, 79600, Note_on_c, 9, 69, 0
1, 79600, Note_on_c, 9, 42, 0
1, 79600, Note_on_c, 9, 38, 0
1, 79640, Note_on_c, 9, 42, 64
1, 79640, Note_on_c, 9, 38, 64
1, 79680, Note_on_c, 9, 42, 0
1, 79680, Note_on_c, 9, 38, 0
1, 79680, Note_on_c, 9, 56, 64
1, 79680, Note_on_c, 9, 42, 64
1, 79720, Note_on_c, 9, 56, 0
1, 79720, Note_on_c, 9, 42, 0
1, 79760, Note_on_c, 9, 56, 64
1, 79800, Note_on_c, 9, 56, 0
1, 79800, Note_on_c, 9, 69, 64
1, 79800, Note_on_c, 9, 42, 64
1, 79800, Note_on_c, 9, 36, 64
1, 79840, Note_on_c, 9, 69, 0
1, 79840, Note_on_c, 9, 42, 0
1, 79840, Note_on_c, 9, 36, 0
1, 79880, Note_on_c, 9, 56, 64
1, 79880, Note_on_c, 9, 42, 64
1, 79920, Note_on_c, 9, 56, 0
1, 79920, Note_on_c, 9, 42, 0
1, 79920, Note_on_c, 9, 42, 64
1, 79920, Note_on_c, 9, 38, 64
1, 79960, Note_on_c, 9, 42, 0
1, 79960, Note_on_c, 9, 38, 0
1, 80000, Note_on_c, 9, 36, 64
1, 80040, Note_on_c, 9, 36, 0
1, 80040, Note_on_c, 9, 69, 64
1, 80040, Note_on_c, 9, 39, 64
1, 80040, Note_on_c, 9, 56, 64
1, 80040, Note_on_c, 9, 42, 64
1, 80080, Note_on_c, 9, 69, 0
1, 80080, Note_on_c, 9, 39, 0
1, 80080, Note_on_c, 9, 56, 0
1, 80080, Note_on_c, 9, 42, 0
1, 80120, Note_on_c, 9, 56, 64
1, 80120, Note_on_c, 9, 42, 64
1, 80160, Note_on_c, 9, 56, 0
1, 80160, Note_on_c, 9, 42, 0
1, 80160, Note_on_c, 9, 42, 64
1, 80160, Note_on_c, 9, 36, 64
1, 80200, Note_on_c, 9, 42, 0
1, 80200, Note_on_c, 9, 36, 0
1, 80240, Note_on_c, 9, 56, 64
1, 80280, Note_on_c, 9, 56, 0
1, 80280, Note_on_c, 9, 69, 64
1, 80280, Note_on_c, 9, 56, 64
1, 80280, Note_on_c, 9, 42, 64
1, 80320, Note_on_c, 9, 69, 0
1, 80320, Note_on_c, 9, 56, 0
1, 80320, Note_on_c, 9, 42, 0
1, 80360, Note_on_c, 9, 42, 64
1, 80360, Note_on_c, 9, 36, 64
1, 80400, Note_on_c, 9, 42, 0
1, 80400, Note_on_c, 9, 36, 0
1, 80400, Note_on_c, 9, 42, 64
1, 80400, Note_on_c, 9, 38, 64
1, 80440, Note_on_c, 9, 42, 0
1, 80440, Note_on_c, 9, 38, 0
1, 80480, Note_on_c, 9, 56, 64
1, 80520, Note_on_c, 9, 56, 0
1, 80520, Note_on_c, 9, 69, 64
1, 80520, Note_on_c, 9, 39, 64
1, 80520, Note_on_c, 9, 56, 64
1, 80520, Note_on_c, 9, 42, 64
1, 80520, Note_on_c, 9, 36, 64
1, 80560, Note_on_c, 9, 69, 0
1, 80560, Note_on_c, 9, 39, 0
1, 80560, Note_on_c, 9, 56, 0
1, 80560, Note_on_c, 9, 42, 0
1, 80560, Note_on_c, 9, 36, 0
1, 80600, Note_on_c, 9, 42, 64
1, 80640, Note_on_c, 9, 42, 0
1, 80640, Note_on_c, 9, 36, 64
1, 80660, Note_on_c, 9, 36, 0
1, 80720, Note_on_c, 9, 36, 64
1, 80740, Note_on_c, 9, 36, 0
1, 80840, Note_on_c, 9, 36, 64
1, 80860, Note_on_c, 9, 36, 0
1, 80960, Note_on_c, 9, 38, 64
1, 80980, Note_on_c, 9, 38, 0
1, 80980, Note_on_c, 9, 38, 64
1, 81000, Note_on_c, 9, 38, 0
1, 81000, Note_on_c, 9, 36, 64
1, 81020, Note_on_c, 9, 36, 0
1, 81080, Note_on_c, 9, 36, 64
1, 81100, Note_on_c, 9, 36, 0
1, 81200, Note_on_c, 9, 36, 64
1, 81220, Note_on_c, 9, 36, 0
1, 81240, Note_on_c, 9, 36, 64
1, 81260, Note_on_c, 9, 36, 0
1, 81360, Note_on_c, 9, 36, 64
1, 81380, Note_on_c, 9, 36, 0
1, 81440, Note_on_c, 9, 38, 64
1, 81460, Note_on_c, 9, 38, 0
1, 81560, Note_on_c, 9, 38, 64
1, 81580, Note_on_c, 9, 38, 0
1, 81600, Note_on_c, 9, 36, 64
1, 81620, Note_on_c, 9, 36, 0
1, 81680, Note_on_c, 9, 36, 64
1, 81700, Note_on_c, 9, 36, 0
1, 81800, Note_on_c, 9, 36, 64
1, 81820, Note_on_c, 9, 36, 0
1, 81920, Note_on_c, 9, 38, 64
1, 81940, Note_on_c, 9, 38, 0
1, 81940, Note_on_c, 9, 38, 64
1, 81960, Note_on_c, 9, 38, 0
1, 81960, Note_on_c, 9, 36, 64
1, 81980, Note_on_c, 9, 36, 0
1, 82040, Note_on_c, 9, 36, 64
1, 82060, Note_on_c, 9, 36, 0
1, 82160, Note_on_c, 9, 36, 64
1, 82180, Note_on_c, 9, 36, 0
1, 82200, Note_on_c, 9, 36, 64
1, 82220, Note_on_c, 9, 36, 0
1, 82320, Note_on_c, 9, 36, 64
1, 82340, Note_on_c, 9, 36, 0
1, 82400, Note_on_c, 9, 38, 64
1, 82420, Note_on_c, 9, 38, 0
1, 82520, Note_on_c, 9, 38, 64
1, 82540, Note_on_c, 9, 38, 0
1, 82560, Note_on_c, 9, 49, 64
1, 82560, Note_on_c, 9, 44, 64
1, 82560, Note_on_c, 9, 38, 64
1, 82560, Note_on_c, 9, 36, 64
1, 82620, Note_on_c, 9, 49, 0
1, 82620, Note_on_c, 9, 44, 0
1, 82620, Note_on_c, 9, 38, 0
1, 82620, Note_on_c, 9, 36, 0
1, 82620, End_track
0, 0, End_of_file
