0, 0, Header, 0, 1, 240
1, 0, Start_track
1, 0, Key_signature, 0, "major"
1, 0, SMPTE_offset, 96, 0, 0, 0, 0
1, 0, Sequencer_specific, 24, 0, 0, 0, 106, 0, 1, 0, 0, 0, 0, 0, 0, 0, 0, 0, 0, 0, 0, 0, 0, 0, 0, 29, 29
1, 0, Tempo, 800000
1, 0, Time_signature, 4, 2, 24, 8
1, 0, Lyric_t, "(c)joel Sampson 1994"
1, 0, Lyric_t, "Shaker"
1, 0, Lyric_t, "Hand clap"
1, 0, Lyric_t, "Cow bell"
1, 0, Lyric_t, "Crash"
1, 0, Lyric_t, "Pedal hat"
1, 0, Lyric_t, "Closed hat"
1, 0, Note_on_c, 9, 42, 64
1, 0, Lyric_t, "Mid tom"
1, 0, Lyric_t, "Low tom"
1, 0, Lyric_t, "Snare drum"
1, 0, Lyric_t, "Bass drum"
1, 0, Lyric_t, "(c)joel Sampson 1994"
1, 0, Pitch_bend_c, 0, 8192
1, 30, Note_on_c, 9, 42, 0
1, 90, Note_on_c, 9, 42, 64
1, 120, Note_on_c, 9, 42, 0
1, 120, Note_on_c, 9, 42, 64
1, 150, Note_on_c, 9, 42, 0
1, 210, Note_on_c, 9, 42, 64
1, 240, Note_on_c, 9, 42, 0
1, 240, Note_on_c, 9, 42, 64
1, 240, Note_on_c, 9, 38, 64
1, 270, Note_on_c, 9, 42, 0
1, 270, Note_on_c, 9, 38, 0
1, 330, Note_on_c, 9, 42, 64
1, 360, Note_on_c, 9, 42, 0
1, 360, Note_on_c, 9, 42, 64
1, 390, Note_on_c, 9, 42, 0
1, 450, Note_on_c, 9, 42, 64
1, 480, Note_on_c, 9, 42, 0
1, 480, Note_on_c, 9, 42, 64
1, 510, Note_on_c, 9, 42, 0
1, 570, Note_on_c, 9, 42, 64
1, 600, Note_on_c, 9, 42, 0
1, 600, Note_on_c, 9, 42, 64
1, 630, Note_on_c, 9, 42, 0
1, 690, Note_on_c, 9, 42, 64
1, 720, Note_on_c, 9, 42, 0
1, 720, Note_on_c, 9, 42, 64
1, 720, Note_on_c, 9, 38, 64
1, 750, Note_on_c, 9, 42, 0
1, 750, Note_on_c, 9, 38, 0
1, 810, Note_on_c, 9, 42, 64
1, 840, Note_on_c, 9, 42, 0
1, 840, Note_on_c, 9, 42, 64
1, 870, Note_on_c, 9, 42, 0
1, 930, Note_on_c, 9, 42, 64
1, 960, Note_on_c, 9, 42, 0
1, 960, Note_on_c, 9, 42, 64
1, 990, Note_on_c, 9, 42, 0
1, 1050, Note_on_c, 9, 42, 64
1, 1080, Note_on_c, 9, 42, 0
1, 1080, Note_on_c, 9, 42, 64
1, 1110, Note_on_c, 9, 42, 0
1, 1170, Note_on_c, 9, 42, 64
1, 1200, Note_on_c, 9, 42, 0
1, 1200, Note_on_c, 9, 42, 64
1, 1200, Note_on_c, 9, 38, 64
1, 1230, Note_on_c, 9, 42, 0
1, 1230, Note_on_c, 9, 38, 0
1, 1290, Note_on_c, 9, 42, 64
1, 1320, Note_on_c, 9, 42, 0
1, 1320, Note_on_c, 9, 42, 64
1, 1350, Note_on_c, 9, 42, 0
1, 1410, Note_on_c, 9, 42, 64
1, 1440, Note_on_c, 9, 42, 0
1, 1440, Note_on_c, 9, 42, 64
1, 1470, Note_on_c, 9, 42, 0
1, 1530, Note_on_c, 9, 42, 64
1, 1560, Note_on_c, 9, 42, 0
1, 1560, Note_on_c, 9, 42, 64
1, 1590, Note_on_c, 9, 42, 0
1, 1650, Note_on_c, 9, 42, 64
1, 1680, Note_on_c, 9, 42, 0
1, 1680, Note_on_c, 9, 42, 64
1, 1680, Note_on_c, 9, 38, 64
1, 1710, Note_on_c, 9, 42, 0
1, 1710, Note_on_c, 9, 38, 0
1, 1770, Note_on_c, 9, 42, 64
1, 1800, Note_on_c, 9, 42, 0
1, 1800, Note_on_c, 9, 42, 64
1, 1830, Note_on_c, 9, 42, 0
1, 1890, Note_on_c, 9, 42, 64
1, 1920, Note_on_c, 9, 42, 0
1, 1920, Note_on_c, 9, 42, 64
1, 1950, Note_on_c, 9, 42, 0
1, 2010, Note_on_c, 9, 42, 64
1, 2010, Note_on_c, 9, 47, 64
1, 2040, Note_on_c, 9, 42, 0
1, 2040, Note_on_c, 9, 47, 0
1, 2040, Note_on_c, 9, 42, 64
1, 2070, Note_on_c, 9, 42, 0
1, 2130, Note_on_c, 9, 42, 64
1, 2160, Note_on_c, 9, 42, 0
1, 2160, Note_on_c, 9, 42, 64
1, 2160, Note_on_c, 9, 38, 64
1, 2190, Note_on_c, 9, 42, 0
1, 2190, Note_on_c, 9, 38, 0
1, 2250, Note_on_c, 9, 42, 64
1, 2280, Note_on_c, 9, 42, 0
1, 2280, Note_on_c, 9, 42, 64
1, 2310, Note_on_c, 9, 42, 0
1, 2370, Note_on_c, 9, 42, 64
1, 2400, Note_on_c, 9, 42, 0
1, 2400, Note_on_c, 9, 42, 64
1, 2430, Note_on_c, 9, 42, 0
1, 2490, Note_on_c, 9, 42, 64
1, 2490, Note_on_c, 9, 47, 64
1, 2520, Note_on_c, 9, 42, 0
1, 2520, Note_on_c, 9, 47, 0
1, 2520, Note_on_c, 9, 42, 64
1, 2550, Note_on_c, 9, 42, 0
1, 2610, Note_on_c, 9, 42, 64
1, 2640, Note_on_c, 9, 42, 0
1, 2640, Note_on_c, 9, 42, 64
1, 2640, Note_on_c, 9, 38, 64
1, 2670, Note_on_c, 9, 42, 0
1, 2670, Note_on_c, 9, 38, 0
1, 2730, Note_on_c, 9, 42, 64
1, 2760, Note_on_c, 9, 42, 0
1, 2760, Note_on_c, 9, 42, 64
1, 2790, Note_on_c, 9, 42, 0
1, 2850, Note_on_c, 9, 42, 64
1, 2880, Note_on_c, 9, 42, 0
1, 2880, Note_on_c, 9, 42, 64
1, 2910, Note_on_c, 9, 42, 0
1, 2970, Note_on_c, 9, 42, 64
1, 2970, Note_on_c, 9, 47, 64
1, 3000, Note_on_c, 9, 42, 0
1, 3000, Note_on_c, 9, 47, 0
1, 3000, Note_on_c, 9, 42, 64
1, 3030, Note_on_c, 9, 42, 0
1, 3090, Note_on_c, 9, 42, 64
1, 3120, Note_on_c, 9, 42, 0
1, 3120, Note_on_c, 9, 42, 64
1, 3120, Note_on_c, 9, 38, 64
1, 3150, Note_on_c, 9, 42, 0
1, 3150, Note_on_c, 9, 38, 0
1, 3210, Note_on_c, 9, 42, 64
1, 3240, Note_on_c, 9, 42, 0
1, 3240, Note_on_c, 9, 42, 64
1, 3270, Note_on_c, 9, 42, 0
1, 3330, Note_on_c, 9, 42, 64
1, 3360, Note_on_c, 9, 42, 0
1, 3360, Note_on_c, 9, 42, 64
1, 3390, Note_on_c, 9, 42, 0
1, 3450, Note_on_c, 9, 42, 64
1, 3450, Note_on_c, 9, 47, 64
1, 3480, Note_on_c, 9, 42, 0
1, 3480, Note_on_c, 9, 47, 0
1, 3480, Note_on_c, 9, 42, 64
1, 3510, Note_on_c, 9, 42, 0
1, 3570, Note_on_c, 9, 42, 64
1, 3600, Note_on_c, 9, 42, 0
1, 3600, Note_on_c, 9, 42, 64
1, 3600, Note_on_c, 9, 38, 64
1, 3630, Note_on_c, 9, 42, 0
1, 3630, Note_on_c, 9, 38, 0
1, 3690, Note_on_c, 9, 42, 64
1, 3720, Note_on_c, 9, 42, 0
1, 3720, Note_on_c, 9, 42, 64
1, 3750, Note_on_c, 9, 42, 0
1, 3810, Note_on_c, 9, 42, 64
1, 3840, Note_on_c, 9, 42, 0
1, 3840, Note_on_c, 9, 42, 64
1, 3870, Note_on_c, 9, 42, 0
1, 3930, Note_on_c, 9, 42, 64
1, 3960, Note_on_c, 9, 42, 0
1, 3960, Note_on_c, 9, 42, 64
1, 3960, Note_on_c, 9, 47, 64
1, 3990, Note_on_c, 9, 42, 0
1, 3990, Note_on_c, 9, 47, 0
1, 4050, Note_on_c, 9, 42, 64
1, 4080, Note_on_c, 9, 42, 0
1, 4080, Note_on_c, 9, 42, 64
1, 4080, Note_on_c, 9, 38, 64
1, 4110, Note_on_c, 9, 42, 0
1, 4110, Note_on_c, 9, 38, 0
1, 4170, Note_on_c, 9, 42, 64
1, 4200, Note_on_c, 9, 42, 0
1, 4200, Note_on_c, 9, 42, 64
1, 4230, Note_on_c, 9, 42, 0
1, 4290, Note_on_c, 9, 42, 64
1, 4290, Note_on_c, 9, 38, 64
1, 4320, Note_on_c, 9, 42, 0
1, 4320, Note_on_c, 9, 38, 0
1, 4320, Note_on_c, 9, 42, 64
1, 4350, Note_on_c, 9, 42, 0
1, 4410, Note_on_c, 9, 42, 64
1, 4440, Note_on_c, 9, 42, 0
1, 4440, Note_on_c, 9, 42, 64
1, 4440, Note_on_c, 9, 47, 64
1, 4470, Note_on_c, 9, 42, 0
1, 4470, Note_on_c, 9, 47, 0
1, 4530, Note_on_c, 9, 42, 64
1, 4560, Note_on_c, 9, 42, 0
1, 4560, Note_on_c, 9, 42, 64
1, 4560, Note_on_c, 9, 38, 64
1, 4590, Note_on_c, 9, 42, 0
1, 4590, Note_on_c, 9, 38, 0
1, 4650, Note_on_c, 9, 42, 64
1, 4680, Note_on_c, 9, 42, 0
1, 4680, Note_on_c, 9, 42, 64
1, 4710, Note_on_c, 9, 42, 0
1, 4770, Note_on_c, 9, 42, 64
1, 4770, Note_on_c, 9, 38, 64
1, 4800, Note_on_c, 9, 42, 0
1, 4800, Note_on_c, 9, 38, 0
1, 4800, Note_on_c, 9, 42, 64
1, 4830, Note_on_c, 9, 42, 0
1, 4890, Note_on_c, 9, 42, 64
1, 4920, Note_on_c, 9, 42, 0
1, 4920, Note_on_c, 9, 42, 64
1, 4920, Note_on_c, 9, 47, 64
1, 4950, Note_on_c, 9, 42, 0
1, 4950, Note_on_c, 9, 47, 0
1, 5010, Note_on_c, 9, 42, 64
1, 5040, Note_on_c, 9, 42, 0
1, 5040, Note_on_c, 9, 42, 64
1, 5040, Note_on_c, 9, 38, 64
1, 5070, Note_on_c, 9, 42, 0
1, 5070, Note_on_c, 9, 38, 0
1, 5130, Note_on_c, 9, 42, 64
1, 5160, Note_on_c, 9, 42, 0
1, 5160, Note_on_c, 9, 42, 64
1, 5190, Note_on_c, 9, 42, 0
1, 5250, Note_on_c, 9, 42, 64
1, 5250, Note_on_c, 9, 38, 64
1, 5280, Note_on_c, 9, 42, 0
1, 5280, Note_on_c, 9, 38, 0
1, 5280, Note_on_c, 9, 42, 64
1, 5310, Note_on_c, 9, 42, 0
1, 5370, Note_on_c, 9, 42, 64
1, 5400, Note_on_c, 9, 42, 0
1, 5400, Note_on_c, 9, 42, 64
1, 5400, Note_on_c, 9, 47, 64
1, 5430, Note_on_c, 9, 42, 0
1, 5430, Note_on_c, 9, 47, 0
1, 5490, Note_on_c, 9, 42, 64
1, 5520, Note_on_c, 9, 42, 0
1, 5520, Note_on_c, 9, 42, 64
1, 5520, Note_on_c, 9, 38, 64
1, 5550, Note_on_c, 9, 42, 0
1, 5550, Note_on_c, 9, 38, 0
1, 5610, Note_on_c, 9, 42, 64
1, 5640, Note_on_c, 9, 42, 0
1, 5640, Note_on_c, 9, 42, 64
1, 5670, Note_on_c, 9, 42, 0
1, 5730, Note_on_c, 9, 42, 64
1, 5730, Note_on_c, 9, 38, 64
1, 5760, Note_on_c, 9, 42, 0
1, 5760, Note_on_c, 9, 38, 0
1, 5760, Note_on_c, 9, 42, 64
1, 5790, Note_on_c, 9, 42, 0
1, 5850, Note_on_c, 9, 42, 64
1, 5850, Note_on_c, 9, 38, 64
1, 5880, Note_on_c, 9, 42, 0
1, 5880, Note_on_c, 9, 38, 0
1, 5880, Note_on_c, 9, 42, 64
1, 5910, Note_on_c, 9, 42, 0
1, 5970, Note_on_c, 9, 42, 64
1, 6000, Note_on_c, 9, 42, 0
1, 6000, Note_on_c, 9, 42, 64
1, 6000, Note_on_c, 9, 38, 64
1, 6030, Note_on_c, 9, 42, 0
1, 6030, Note_on_c, 9, 38, 0
1, 6090, Note_on_c, 9, 42, 64
1, 6120, Note_on_c, 9, 42, 0
1, 6120, Note_on_c, 9, 42, 64
1, 6150, Note_on_c, 9, 42, 0
1, 6210, Note_on_c, 9, 42, 64
1, 6210, Note_on_c, 9, 38, 64
1, 6240, Note_on_c, 9, 42, 0
1, 6240, Note_on_c, 9, 38, 0
1, 6240, Note_on_c, 9, 42, 64
1, 6270, Note_on_c, 9, 42, 0
1, 6330, Note_on_c, 9, 42, 64
1, 6330, Note_on_c, 9, 38, 64
1, 6360, Note_on_c, 9, 42, 0
1, 6360, Note_on_c, 9, 38, 0
1, 6360, Note_on_c, 9, 42, 64
1, 6390, Note_on_c, 9, 42, 0
1, 6450, Note_on_c, 9, 42, 64
1, 6480, Note_on_c, 9, 42, 0
1, 6480, Note_on_c, 9, 42, 64
1, 6480, Note_on_c, 9, 38, 64
1, 6510, Note_on_c, 9, 42, 0
1, 6510, Note_on_c, 9, 38, 0
1, 6570, Note_on_c, 9, 42, 64
1, 6600, Note_on_c, 9, 42, 0
1, 6600, Note_on_c, 9, 42, 64
1, 6630, Note_on_c, 9, 42, 0
1, 6690, Note_on_c, 9, 42, 64
1, 6690, Note_on_c, 9, 38, 64
1, 6720, Note_on_c, 9, 42, 0
1, 6720, Note_on_c, 9, 38, 0
1, 6720, Note_on_c, 9, 42, 64
1, 6750, Note_on_c, 9, 42, 0
1, 6810, Note_on_c, 9, 42, 64
1, 6810, Note_on_c, 9, 38, 64
1, 6840, Note_on_c, 9, 42, 0
1, 6840, Note_on_c, 9, 38, 0
1, 6840, Note_on_c, 9, 42, 64
1, 6870, Note_on_c, 9, 42, 0
1, 6930, Note_on_c, 9, 42, 64
1, 6960, Note_on_c, 9, 42, 0
1, 6960, Note_on_c, 9, 42, 64
1, 6960, Note_on_c, 9, 38, 64
1, 6990, Note_on_c, 9, 42, 0
1, 6990, Note_on_c, 9, 38, 0
1, 7050, Note_on_c, 9, 42, 64
1, 7080, Note_on_c, 9, 42, 0
1, 7080, Note_on_c, 9, 42, 64
1, 7110, Note_on_c, 9, 42, 0
1, 7170, Note_on_c, 9, 42, 64
1, 7170, Note_on_c, 9, 38, 64
1, 7200, Note_on_c, 9, 42, 0
1, 7200, Note_on_c, 9, 38, 0
1, 7200, Note_on_c, 9, 42, 64
1, 7230, Note_on_c, 9, 42, 0
1, 7290, Note_on_c, 9, 42, 64
1, 7290, Note_on_c, 9, 38, 64
1, 7320, Note_on_c, 9, 42, 0
1, 7320, Note_on_c, 9, 38, 0
1, 7320, Note_on_c, 9, 42, 64
1, 7350, Note_on_c, 9, 42, 0
1, 7410, Note_on_c, 9, 42, 64
1, 7440, Note_on_c, 9, 42, 0
1, 7440, Note_on_c, 9, 42, 64
1, 7440, Note_on_c, 9, 38, 64
1, 7470, Note_on_c, 9, 42, 0
1, 7470, Note_on_c, 9, 38, 0
1, 7530, Note_on_c, 9, 42, 64
1, 7560, Note_on_c, 9, 42, 0
1, 7560, Note_on_c, 9, 42, 64
1, 7590, Note_on_c, 9, 42, 0
1, 7650, Note_on_c, 9, 42, 64
1, 7650, Note_on_c, 9, 38, 64
1, 7680, Note_on_c, 9, 42, 0
1, 7680, Note_on_c, 9, 38, 0
1, 7680, Note_on_c, 9, 42, 64
1, 7710, Note_on_c, 9, 42, 0
1, 7770, Note_on_c, 9, 42, 64
1, 7800, Note_on_c, 9, 42, 0
1, 7800, Note_on_c, 9, 42, 64
1, 7830, Note_on_c, 9, 42, 0
1, 7890, Note_on_c, 9, 42, 64
1, 7920, Note_on_c, 9, 42, 0
1, 7920, Note_on_c, 9, 42, 64
1, 7920, Note_on_c, 9, 38, 64
1, 7950, Note_on_c, 9, 42, 0
1, 7950, Note_on_c, 9, 38, 0
1, 8010, Note_on_c, 9, 42, 64
1, 8040, Note_on_c, 9, 42, 0
1, 8040, Note_on_c, 9, 42, 64
1, 8070, Note_on_c, 9, 42, 0
1, 8130, Note_on_c, 9, 42, 64
1, 8160, Note_on_c, 9, 42, 0
1, 8160, Note_on_c, 9, 42, 64
1, 8190, Note_on_c, 9, 42, 0
1, 8250, Note_on_c, 9, 42, 64
1, 8250, Note_on_c, 9, 47, 64
1, 8280, Note_on_c, 9, 42, 0
1, 8280, Note_on_c, 9, 47, 0
1, 8280, Note_on_c, 9, 42, 64
1, 8310, Note_on_c, 9, 42, 0
1, 8370, Note_on_c, 9, 42, 64
1, 8400, Note_on_c, 9, 42, 0
1, 8400, Note_on_c, 9, 42, 64
1, 8400, Note_on_c, 9, 38, 64
1, 8430, Note_on_c, 9, 42, 0
1, 8430, Note_on_c, 9, 38, 0
1, 8490, Note_on_c, 9, 42, 64
1, 8520, Note_on_c, 9, 42, 0
1, 8520, Note_on_c, 9, 42, 64
1, 8550, Note_on_c, 9, 42, 0
1, 8610, Note_on_c, 9, 42, 64
1, 8640, Note_on_c, 9, 42, 0
1, 8640, Note_on_c, 9, 42, 64
1, 8670, Note_on_c, 9, 42, 0
1, 8730, Note_on_c, 9, 42, 64
1, 8760, Note_on_c, 9, 42, 0
1, 8760, Note_on_c, 9, 42, 64
1, 8790, Note_on_c, 9, 42, 0
1, 8850, Note_on_c, 9, 42, 64
1, 8880, Note_on_c, 9, 42, 0
1, 8880, Note_on_c, 9, 42, 64
1, 8880, Note_on_c, 9, 38, 64
1, 8910, Note_on_c, 9, 42, 0
1, 8910, Note_on_c, 9, 38, 0
1, 8970, Note_on_c, 9, 42, 64
1, 9000, Note_on_c, 9, 42, 0
1, 9000, Note_on_c, 9, 42, 64
1, 9030, Note_on_c, 9, 42, 0
1, 9090, Note_on_c, 9, 42, 64
1, 9120, Note_on_c, 9, 42, 0
1, 9120, Note_on_c, 9, 42, 64
1, 9150, Note_on_c, 9, 42, 0
1, 9210, Note_on_c, 9, 42, 64
1, 9210, Note_on_c, 9, 47, 64
1, 9240, Note_on_c, 9, 42, 0
1, 9240, Note_on_c, 9, 47, 0
1, 9240, Note_on_c, 9, 42, 64
1, 9270, Note_on_c, 9, 42, 0
1, 9330, Note_on_c, 9, 42, 64
1, 9360, Note_on_c, 9, 42, 0
1, 9360, Note_on_c, 9, 42, 64
1, 9360, Note_on_c, 9, 38, 64
1, 9390, Note_on_c, 9, 42, 0
1, 9390, Note_on_c, 9, 38, 0
1, 9450, Note_on_c, 9, 42, 64
1, 9480, Note_on_c, 9, 42, 0
1, 9480, Note_on_c, 9, 42, 64
1, 9510, Note_on_c, 9, 42, 0
1, 9570, Note_on_c, 9, 42, 64
1, 9600, Note_on_c, 9, 42, 0
1, 9600, Note_on_c, 9, 42, 64
1, 9630, Note_on_c, 9, 42, 0
1, 9690, Note_on_c, 9, 42, 64
1, 9690, Note_on_c, 9, 47, 64
1, 9720, Note_on_c, 9, 42, 0
1, 9720, Note_on_c, 9, 47, 0
1, 9720, Note_on_c, 9, 42, 64
1, 9750, Note_on_c, 9, 42, 0
1, 9810, Note_on_c, 9, 42, 64
1, 9840, Note_on_c, 9, 42, 0
1, 9840, Note_on_c, 9, 42, 64
1, 9840, Note_on_c, 9, 38, 64
1, 9870, Note_on_c, 9, 42, 0
1, 9870, Note_on_c, 9, 38, 0
1, 9930, Note_on_c, 9, 42, 64
1, 9960, Note_on_c, 9, 42, 0
1, 9960, Note_on_c, 9, 42, 64
1, 9990, Note_on_c, 9, 42, 0
1, 10050, Note_on_c, 9, 42, 64
1, 10080, Note_on_c, 9, 42, 0
1, 10080, Note_on_c, 9, 42, 64
1, 10110, Note_on_c, 9, 42, 0
1, 10170, Note_on_c, 9, 42, 64
1, 10200, Note_on_c, 9, 42, 0
1, 10200, Note_on_c, 9, 42, 64
1, 10200, Note_on_c, 9, 43, 64
1, 10230, Note_on_c, 9, 42, 0
1, 10230, Note_on_c, 9, 43, 0
1, 10290, Note_on_c, 9, 42, 64
1, 10320, Note_on_c, 9, 42, 0
1, 10320, Note_on_c, 9, 42, 64
1, 10320, Note_on_c, 9, 38, 64
1, 10350, Note_on_c, 9, 42, 0
1, 10350, Note_on_c, 9, 38, 0
1, 10410, Note_on_c, 9, 42, 64
1, 10440, Note_on_c, 9, 42, 0
1, 10440, Note_on_c, 9, 42, 64
1, 10470, Note_on_c, 9, 42, 0
1, 10530, Note_on_c, 9, 42, 64
1, 10530, Note_on_c, 9, 38, 64
1, 10560, Note_on_c, 9, 42, 0
1, 10560, Note_on_c, 9, 38, 0
1, 10560, Note_on_c, 9, 42, 64
1, 10590, Note_on_c, 9, 42, 0
1, 10650, Note_on_c, 9, 42, 64
1, 10650, Note_on_c, 9, 47, 64
1, 10680, Note_on_c, 9, 42, 0
1, 10680, Note_on_c, 9, 47, 0
1, 10680, Note_on_c, 9, 42, 64
1, 10710, Note_on_c, 9, 42, 0
1, 10770, Note_on_c, 9, 42, 64
1, 10800, Note_on_c, 9, 42, 0
1, 10800, Note_on_c, 9, 42, 64
1, 10800, Note_on_c, 9, 38, 64
1, 10830, Note_on_c, 9, 42, 0
1, 10830, Note_on_c, 9, 38, 0
1, 10890, Note_on_c, 9, 42, 64
1, 10920, Note_on_c, 9, 42, 0
1, 10920, Note_on_c, 9, 42, 64
1, 10950, Note_on_c, 9, 42, 0
1, 11010, Note_on_c, 9, 42, 64
1, 11040, Note_on_c, 9, 42, 0
1, 11040, Note_on_c, 9, 42, 64
1, 11070, Note_on_c, 9, 42, 0
1, 11130, Note_on_c, 9, 42, 64
1, 11160, Note_on_c, 9, 42, 0
1, 11160, Note_on_c, 9, 42, 64
1, 11160, Note_on_c, 9, 43, 64
1, 11190, Note_on_c, 9, 42, 0
1, 11190, Note_on_c, 9, 43, 0
1, 11250, Note_on_c, 9, 42, 64
1, 11280, Note_on_c, 9, 42, 0
1, 11280, Note_on_c, 9, 42, 64
1, 11280, Note_on_c, 9, 38, 64
1, 11310, Note_on_c, 9, 42, 0
1, 11310, Note_on_c, 9, 38, 0
1, 11370, Note_on_c, 9, 42, 64
1, 11400, Note_on_c, 9, 42, 0
1, 11400, Note_on_c, 9, 42, 64
1, 11430, Note_on_c, 9, 42, 0
1, 11490, Note_on_c, 9, 42, 64
1, 11490, Note_on_c, 9, 38, 64
1, 11520, Note_on_c, 9, 42, 0
1, 11520, Note_on_c, 9, 38, 0
1, 11520, Note_on_c, 9, 42, 64
1, 11550, Note_on_c, 9, 42, 0
1, 11610, Note_on_c, 9, 42, 64
1, 11640, Note_on_c, 9, 42, 0
1, 11640, Note_on_c, 9, 42, 64
1, 11640, Note_on_c, 9, 47, 64
1, 11670, Note_on_c, 9, 42, 0
1, 11670, Note_on_c, 9, 47, 0
1, 11730, Note_on_c, 9, 42, 64
1, 11760, Note_on_c, 9, 42, 0
1, 11760, Note_on_c, 9, 42, 64
1, 11760, Note_on_c, 9, 38, 64
1, 11790, Note_on_c, 9, 42, 0
1, 11790, Note_on_c, 9, 38, 0
1, 11850, Note_on_c, 9, 42, 64
1, 11880, Note_on_c, 9, 42, 0
1, 11880, Note_on_c, 9, 42, 64
1, 11910, Note_on_c, 9, 42, 0
1, 11970, Note_on_c, 9, 42, 64
1, 11970, Note_on_c, 9, 38, 64
1, 12000, Note_on_c, 9, 42, 0
1, 12000, Note_on_c, 9, 38, 0
1, 12000, Note_on_c, 9, 42, 64
1, 12030, Note_on_c, 9, 42, 0
1, 12090, Note_on_c, 9, 42, 64
1, 12090, Note_on_c, 9, 38, 64
1, 12120, Note_on_c, 9, 42, 0
1, 12120, Note_on_c, 9, 38, 0
1, 12120, Note_on_c, 9, 42, 64
1, 12150, Note_on_c, 9, 42, 0
1, 12210, Note_on_c, 9, 42, 64
1, 12240, Note_on_c, 9, 42, 0
1, 12240, Note_on_c, 9, 42, 64
1, 12240, Note_on_c, 9, 38, 64
1, 12270, Note_on_c, 9, 42, 0
1, 12270, Note_on_c, 9, 38, 0
1, 12330, Note_on_c, 9, 42, 64
1, 12360, Note_on_c, 9, 42, 0
1, 12360, Note_on_c, 9, 42, 64
1, 12390, Note_on_c, 9, 42, 0
1, 12450, Note_on_c, 9, 42, 64
1, 12450, Note_on_c, 9, 38, 64
1, 12480, Note_on_c, 9, 42, 0
1, 12480, Note_on_c, 9, 38, 0
1, 12480, Note_on_c, 9, 42, 64
1, 12510, Note_on_c, 9, 42, 0
1, 12570, Note_on_c, 9, 42, 64
1, 12600, Note_on_c, 9, 42, 0
1, 12600, Note_on_c, 9, 42, 64
1, 12600, Note_on_c, 9, 47, 64
1, 12630, Note_on_c, 9, 42, 0
1, 12630, Note_on_c, 9, 47, 0
1, 12690, Note_on_c, 9, 42, 64
1, 12720, Note_on_c, 9, 42, 0
1, 12720, Note_on_c, 9, 42, 64
1, 12720, Note_on_c, 9, 38, 64
1, 12750, Note_on_c, 9, 42, 0
1, 12750, Note_on_c, 9, 38, 0
1, 12810, Note_on_c, 9, 42, 64
1, 12840, Note_on_c, 9, 42, 0
1, 12840, Note_on_c, 9, 42, 64
1, 12870, Note_on_c, 9, 42, 0
1, 12930, Note_on_c, 9, 42, 64
1, 12930, Note_on_c, 9, 38, 64
1, 12960, Note_on_c, 9, 42, 0
1, 12960, Note_on_c, 9, 38, 0
1, 12960, Note_on_c, 9, 42, 64
1, 12990, Note_on_c, 9, 42, 0
1, 13050, Note_on_c, 9, 42, 64
1, 13050, Note_on_c, 9, 38, 64
1, 13080, Note_on_c, 9, 42, 0
1, 13080, Note_on_c, 9, 38, 0
1, 13080, Note_on_c, 9, 42, 64
1, 13110, Note_on_c, 9, 42, 0
1, 13170, Note_on_c, 9, 42, 64
1, 13200, Note_on_c, 9, 42, 0
1, 13200, Note_on_c, 9, 42, 64
1, 13200, Note_on_c, 9, 38, 64
1, 13230, Note_on_c, 9, 42, 0
1, 13230, Note_on_c, 9, 38, 0
1, 13290, Note_on_c, 9, 42, 64
1, 13320, Note_on_c, 9, 42, 0
1, 13320, Note_on_c, 9, 42, 64
1, 13350, Note_on_c, 9, 42, 0
1, 13410, Note_on_c, 9, 42, 64
1, 13410, Note_on_c, 9, 38, 64
1, 13440, Note_on_c, 9, 42, 0
1, 13440, Note_on_c, 9, 38, 0
1, 13440, Note_on_c, 9, 42, 64
1, 13470, Note_on_c, 9, 42, 0
1, 13530, Note_on_c, 9, 42, 64
1, 13530, Note_on_c, 9, 38, 64
1, 13560, Note_on_c, 9, 42, 0
1, 13560, Note_on_c, 9, 38, 0
1, 13560, Note_on_c, 9, 42, 64
1, 13590, Note_on_c, 9, 42, 0
1, 13650, Note_on_c, 9, 42, 64
1, 13680, Note_on_c, 9, 42, 0
1, 13680, Note_on_c, 9, 42, 64
1, 13680, Note_on_c, 9, 38, 64
1, 13710, Note_on_c, 9, 42, 0
1, 13710, Note_on_c, 9, 38, 0
1, 13770, Note_on_c, 9, 42, 64
1, 13800, Note_on_c, 9, 42, 0
1, 13800, Note_on_c, 9, 42, 64
1, 13830, Note_on_c, 9, 42, 0
1, 13890, Note_on_c, 9, 42, 64
1, 13890, Note_on_c, 9, 38, 64
1, 13920, Note_on_c, 9, 42, 0
1, 13920, Note_on_c, 9, 38, 0
1, 13920, Note_on_c, 9, 42, 64
1, 13950, Note_on_c, 9, 42, 0
1, 14010, Note_on_c, 9, 42, 64
1, 14040, Note_on_c, 9, 42, 0
1, 14040, Note_on_c, 9, 42, 64
1, 14070, Note_on_c, 9, 42, 0
1, 14130, Note_on_c, 9, 42, 64
1, 14160, Note_on_c, 9, 42, 0
1, 14160, Note_on_c, 9, 42, 64
1, 14160, Note_on_c, 9, 38, 64
1, 14190, Note_on_c, 9, 42, 0
1, 14190, Note_on_c, 9, 38, 0
1, 14250, Note_on_c, 9, 42, 64
1, 14280, Note_on_c, 9, 42, 0
1, 14280, Note_on_c, 9, 42, 64
1, 14310, Note_on_c, 9, 42, 0
1, 14370, Note_on_c, 9, 42, 64
1, 14400, Note_on_c, 9, 42, 0
1, 14400, Note_on_c, 9, 42, 64
1, 14430, Note_on_c, 9, 42, 0
1, 14490, Note_on_c, 9, 42, 64
1, 14490, Note_on_c, 9, 38, 64
1, 14520, Note_on_c, 9, 42, 0
1, 14520, Note_on_c, 9, 38, 0
1, 14520, Note_on_c, 9, 42, 64
1, 14550, Note_on_c, 9, 42, 0
1, 14610, Note_on_c, 9, 42, 64
1, 14640, Note_on_c, 9, 42, 0
1, 14640, Note_on_c, 9, 42, 64
1, 14640, Note_on_c, 9, 38, 64
1, 14670, Note_on_c, 9, 42, 0
1, 14670, Note_on_c, 9, 38, 0
1, 14730, Note_on_c, 9, 42, 64
1, 14760, Note_on_c, 9, 42, 0
1, 14760, Note_on_c, 9, 42, 64
1, 14790, Note_on_c, 9, 42, 0
1, 14850, Note_on_c, 9, 42, 64
1, 14850, Note_on_c, 9, 38, 64
1, 14880, Note_on_c, 9, 42, 0
1, 14880, Note_on_c, 9, 38, 0
1, 14880, Note_on_c, 9, 42, 64
1, 14910, Note_on_c, 9, 42, 0
1, 14970, Note_on_c, 9, 42, 64
1, 15000, Note_on_c, 9, 42, 0
1, 15000, Note_on_c, 9, 42, 64
1, 15030, Note_on_c, 9, 42, 0
1, 15090, Note_on_c, 9, 42, 64
1, 15120, Note_on_c, 9, 42, 0
1, 15120, Note_on_c, 9, 42, 64
1, 15120, Note_on_c, 9, 38, 64
1, 15150, Note_on_c, 9, 42, 0
1, 15150, Note_on_c, 9, 38, 0
1, 15210, Note_on_c, 9, 42, 64
1, 15240, Note_on_c, 9, 42, 0
1, 15240, Note_on_c, 9, 42, 64
1, 15270, Note_on_c, 9, 42, 0
1, 15330, Note_on_c, 9, 42, 64
1, 15360, Note_on_c, 9, 42, 0
1, 15360, Note_on_c, 9, 42, 64
1, 15360, Note_on_c, 9, 36, 64
1, 15390, Note_on_c, 9, 42, 0
1, 15390, Note_on_c, 9, 36, 0
1, 15450, Note_on_c, 9, 42, 64
1, 15480, Note_on_c, 9, 42, 0
1, 15480, Note_on_c, 9, 42, 64
1, 15510, Note_on_c, 9, 42, 0
1, 15570, Note_on_c, 9, 42, 64
1, 15600, Note_on_c, 9, 42, 0
1, 15600, Note_on_c, 9, 42, 64
1, 15630, Note_on_c, 9, 42, 0
1, 15690, Note_on_c, 9, 42, 64
1, 15720, Note_on_c, 9, 42, 0
1, 15720, Note_on_c, 9, 42, 64
1, 15750, Note_on_c, 9, 42, 0
1, 15810, Note_on_c, 9, 42, 64
1, 15840, Note_on_c, 9, 42, 0
1, 15840, Note_on_c, 9, 42, 64
1, 15840, Note_on_c, 9, 36, 64
1, 15870, Note_on_c, 9, 42, 0
1, 15870, Note_on_c, 9, 36, 0
1, 15930, Note_on_c, 9, 42, 64
1, 15960, Note_on_c, 9, 42, 0
1, 15960, Note_on_c, 9, 42, 64
1, 15990, Note_on_c, 9, 42, 0
1, 16050, Note_on_c, 9, 42, 64
1, 16080, Note_on_c, 9, 42, 0
1, 16080, Note_on_c, 9, 42, 64
1, 16110, Note_on_c, 9, 42, 0
1, 16170, Note_on_c, 9, 42, 64
1, 16200, Note_on_c, 9, 42, 0
1, 16200, Note_on_c, 9, 42, 64
1, 16230, Note_on_c, 9, 42, 0
1, 16290, Note_on_c, 9, 42, 64
1, 16320, Note_on_c, 9, 42, 0
1, 16320, Note_on_c, 9, 42, 64
1, 16320, Note_on_c, 9, 36, 64
1, 16350, Note_on_c, 9, 42, 0
1, 16350, Note_on_c, 9, 36, 0
1, 16410, Note_on_c, 9, 42, 64
1, 16440, Note_on_c, 9, 42, 0
1, 16440, Note_on_c, 9, 42, 64
1, 16470, Note_on_c, 9, 42, 0
1, 16530, Note_on_c, 9, 42, 64
1, 16560, Note_on_c, 9, 42, 0
1, 16560, Note_on_c, 9, 42, 64
1, 16590, Note_on_c, 9, 42, 0
1, 16650, Note_on_c, 9, 42, 64
1, 16680, Note_on_c, 9, 42, 0
1, 16680, Note_on_c, 9, 42, 64
1, 16710, Note_on_c, 9, 42, 0
1, 16770, Note_on_c, 9, 42, 64
1, 16800, Note_on_c, 9, 42, 0
1, 16800, Note_on_c, 9, 42, 64
1, 16800, Note_on_c, 9, 36, 64
1, 16830, Note_on_c, 9, 42, 0
1, 16830, Note_on_c, 9, 36, 0
1, 16890, Note_on_c, 9, 42, 64
1, 16920, Note_on_c, 9, 42, 0
1, 16920, Note_on_c, 9, 42, 64
1, 16950, Note_on_c, 9, 42, 0
1, 17010, Note_on_c, 9, 42, 64
1, 17040, Note_on_c, 9, 42, 0
1, 17040, Note_on_c, 9, 42, 64
1, 17070, Note_on_c, 9, 42, 0
1, 17130, Note_on_c, 9, 42, 64
1, 17160, Note_on_c, 9, 42, 0
1, 17160, Note_on_c, 9, 42, 64
1, 17190, Note_on_c, 9, 42, 0
1, 17250, Note_on_c, 9, 42, 64
1, 17280, Note_on_c, 9, 42, 0
1, 17280, Note_on_c, 9, 42, 64
1, 17310, Note_on_c, 9, 42, 0
1, 17370, Note_on_c, 9, 42, 64
1, 17370, Note_on_c, 9, 36, 64
1, 17400, Note_on_c, 9, 42, 0
1, 17400, Note_on_c, 9, 36, 0
1, 17400, Note_on_c, 9, 42, 64
1, 17400, Note_on_c, 9, 36, 64
1, 17430, Note_on_c, 9, 42, 0
1, 17430, Note_on_c, 9, 36, 0
1, 17490, Note_on_c, 9, 42, 64
1, 17520, Note_on_c, 9, 42, 0
1, 17520, Note_on_c, 9, 42, 64
1, 17550, Note_on_c, 9, 42, 0
1, 17610, Note_on_c, 9, 42, 64
1, 17610, Note_on_c, 9, 36, 64
1, 17640, Note_on_c, 9, 42, 0
1, 17640, Note_on_c, 9, 36, 0
1, 17640, Note_on_c, 9, 42, 64
1, 17670, Note_on_c, 9, 42, 0
1, 17730, Note_on_c, 9, 42, 64
1, 17760, Note_on_c, 9, 42, 0
1, 17760, Note_on_c, 9, 42, 64
1, 17790, Note_on_c, 9, 42, 0
1, 17850, Note_on_c, 9, 42, 64
1, 17850, Note_on_c, 9, 36, 64
1, 17880, Note_on_c, 9, 42, 0
1, 17880, Note_on_c, 9, 36, 0
1, 17880, Note_on_c, 9, 42, 64
1, 17880, Note_on_c, 9, 36, 64
1, 17910, Note_on_c, 9, 42, 0
1, 17910, Note_on_c, 9, 36, 0
1, 17970, Note_on_c, 9, 42, 64
1, 18000, Note_on_c, 9, 42, 0
1, 18000, Note_on_c, 9, 42, 64
1, 18030, Note_on_c, 9, 42, 0
1, 18090, Note_on_c, 9, 42, 64
1, 18090, Note_on_c, 9, 36, 64
1, 18120, Note_on_c, 9, 42, 0
1, 18120, Note_on_c, 9, 36, 0
1, 18120, Note_on_c, 9, 42, 64
1, 18150, Note_on_c, 9, 42, 0
1, 18210, Note_on_c, 9, 42, 64
1, 18240, Note_on_c, 9, 42, 0
1, 18240, Note_on_c, 9, 42, 64
1, 18270, Note_on_c, 9, 42, 0
1, 18330, Note_on_c, 9, 42, 64
1, 18330, Note_on_c, 9, 36, 64
1, 18360, Note_on_c, 9, 42, 0
1, 18360, Note_on_c, 9, 36, 0
1, 18360, Note_on_c, 9, 42, 64
1, 18360, Note_on_c, 9, 36, 64
1, 18390, Note_on_c, 9, 42, 0
1, 18390, Note_on_c, 9, 36, 0
1, 18450, Note_on_c, 9, 42, 64
1, 18480, Note_on_c, 9, 42, 0
1, 18480, Note_on_c, 9, 42, 64
1, 18510, Note_on_c, 9, 42, 0
1, 18570, Note_on_c, 9, 42, 64
1, 18570, Note_on_c, 9, 36, 64
1, 18600, Note_on_c, 9, 42, 0
1, 18600, Note_on_c, 9, 36, 0
1, 18600, Note_on_c, 9, 42, 64
1, 18630, Note_on_c, 9, 42, 0
1, 18690, Note_on_c, 9, 42, 64
1, 18720, Note_on_c, 9, 42, 0
1, 18720, Note_on_c, 9, 42, 64
1, 18750, Note_on_c, 9, 42, 0
1, 18810, Note_on_c, 9, 42, 64
1, 18810, Note_on_c, 9, 36, 64
1, 18840, Note_on_c, 9, 42, 0
1, 18840, Note_on_c, 9, 36, 0
1, 18840, Note_on_c, 9, 42, 64
1, 18840, Note_on_c, 9, 36, 64
1, 18870, Note_on_c, 9, 42, 0
1, 18870, Note_on_c, 9, 36, 0
1, 18930, Note_on_c, 9, 42, 64
1, 18960, Note_on_c, 9, 42, 0
1, 18960, Note_on_c, 9, 42, 64
1, 18990, Note_on_c, 9, 42, 0
1, 19050, Note_on_c, 9, 42, 64
1, 19050, Note_on_c, 9, 36, 64
1, 19080, Note_on_c, 9, 42, 0
1, 19080, Note_on_c, 9, 36, 0
1, 19080, Note_on_c, 9, 42, 64
1, 19110, Note_on_c, 9, 42, 0
1, 19170, Note_on_c, 9, 42, 64
1, 19200, Note_on_c, 9, 42, 0
1, 19200, Note_on_c, 9, 42, 64
1, 19200, Note_on_c, 9, 36, 64
1, 19230, Note_on_c, 9, 42, 0
1, 19230, Note_on_c, 9, 36, 0
1, 19290, Note_on_c, 9, 42, 64
1, 19320, Note_on_c, 9, 42, 0
1, 19320, Note_on_c, 9, 42, 64
1, 19350, Note_on_c, 9, 42, 0
1, 19410, Note_on_c, 9, 42, 64
1, 19410, Note_on_c, 9, 36, 64
1, 19440, Note_on_c, 9, 42, 0
1, 19440, Note_on_c, 9, 36, 0
1, 19440, Note_on_c, 9, 42, 64
1, 19470, Note_on_c, 9, 42, 0
1, 19530, Note_on_c, 9, 42, 64
1, 19560, Note_on_c, 9, 42, 0
1, 19560, Note_on_c, 9, 42, 64
1, 19590, Note_on_c, 9, 42, 0
1, 19650, Note_on_c, 9, 42, 64
1, 19680, Note_on_c, 9, 42, 0
1, 19680, Note_on_c, 9, 42, 64
1, 19680, Note_on_c, 9, 36, 64
1, 19710, Note_on_c, 9, 42, 0
1, 19710, Note_on_c, 9, 36, 0
1, 19770, Note_on_c, 9, 42, 64
1, 19800, Note_on_c, 9, 42, 0
1, 19800, Note_on_c, 9, 42, 64
1, 19830, Note_on_c, 9, 42, 0
1, 19890, Note_on_c, 9, 42, 64
1, 19890, Note_on_c, 9, 36, 64
1, 19920, Note_on_c, 9, 42, 0
1, 19920, Note_on_c, 9, 36, 0
1, 19920, Note_on_c, 9, 42, 64
1, 19950, Note_on_c, 9, 42, 0
1, 20010, Note_on_c, 9, 42, 64
1, 20040, Note_on_c, 9, 42, 0
1, 20040, Note_on_c, 9, 42, 64
1, 20070, Note_on_c, 9, 42, 0
1, 20130, Note_on_c, 9, 42, 64
1, 20160, Note_on_c, 9, 42, 0
1, 20160, Note_on_c, 9, 42, 64
1, 20160, Note_on_c, 9, 36, 64
1, 20190, Note_on_c, 9, 42, 0
1, 20190, Note_on_c, 9, 36, 0
1, 20250, Note_on_c, 9, 42, 64
1, 20280, Note_on_c, 9, 42, 0
1, 20280, Note_on_c, 9, 42, 64
1, 20310, Note_on_c, 9, 42, 0
1, 20370, Note_on_c, 9, 42, 64
1, 20370, Note_on_c, 9, 36, 64
1, 20400, Note_on_c, 9, 42, 0
1, 20400, Note_on_c, 9, 36, 0
1, 20400, Note_on_c, 9, 42, 64
1, 20430, Note_on_c, 9, 42, 0
1, 20490, Note_on_c, 9, 42, 64
1, 20520, Note_on_c, 9, 42, 0
1, 20520, Note_on_c, 9, 42, 64
1, 20550, Note_on_c, 9, 42, 0
1, 20610, Note_on_c, 9, 42, 64
1, 20640, Note_on_c, 9, 42, 0
1, 20640, Note_on_c, 9, 42, 64
1, 20640, Note_on_c, 9, 36, 64
1, 20670, Note_on_c, 9, 42, 0
1, 20670, Note_on_c, 9, 36, 0
1, 20730, Note_on_c, 9, 42, 64
1, 20760, Note_on_c, 9, 42, 0
1, 20760, Note_on_c, 9, 42, 64
1, 20790, Note_on_c, 9, 42, 0
1, 20850, Note_on_c, 9, 42, 64
1, 20850, Note_on_c, 9, 36, 64
1, 20880, Note_on_c, 9, 42, 0
1, 20880, Note_on_c, 9, 36, 0
1, 20880, Note_on_c, 9, 42, 64
1, 20910, Note_on_c, 9, 42, 0
1, 20970, Note_on_c, 9, 42, 64
1, 21000, Note_on_c, 9, 42, 0
1, 21000, Note_on_c, 9, 42, 64
1, 21030, Note_on_c, 9, 42, 0
1, 21090, Note_on_c, 9, 42, 64
1, 21120, Note_on_c, 9, 42, 0
1, 21120, Note_on_c, 9, 42, 64
1, 21150, Note_on_c, 9, 42, 0
1, 21210, Note_on_c, 9, 42, 64
1, 21240, Note_on_c, 9, 42, 0
1, 21240, Note_on_c, 9, 42, 64
1, 21240, Note_on_c, 9, 36, 64
1, 21270, Note_on_c, 9, 42, 0
1, 21270, Note_on_c, 9, 36, 0
1, 21330, Note_on_c, 9, 42, 64
1, 21330, Note_on_c, 9, 36, 64
1, 21360, Note_on_c, 9, 42, 0
1, 21360, Note_on_c, 9, 36, 0
1, 21360, Note_on_c, 9, 42, 64
1, 21390, Note_on_c, 9, 42, 0
1, 21450, Note_on_c, 9, 42, 64
1, 21450, Note_on_c, 9, 36, 64
1, 21480, Note_on_c, 9, 42, 0
1, 21480, Note_on_c, 9, 36, 0
1, 21480, Note_on_c, 9, 42, 64
1, 21480, Note_on_c, 9, 36, 64
1, 21510, Note_on_c, 9, 42, 0
1, 21510, Note_on_c, 9, 36, 0
1, 21570, Note_on_c, 9, 42, 64
1, 21600, Note_on_c, 9, 42, 0
1, 21600, Note_on_c, 9, 42, 64
1, 21630, Note_on_c, 9, 42, 0
1, 21690, Note_on_c, 9, 42, 64
1, 21720, Note_on_c, 9, 42, 0
1, 21720, Note_on_c, 9, 42, 64
1, 21720, Note_on_c, 9, 36, 64
1, 21750, Note_on_c, 9, 42, 0
1, 21750, Note_on_c, 9, 36, 0
1, 21810, Note_on_c, 9, 42, 64
1, 21810, Note_on_c, 9, 36, 64
1, 21840, Note_on_c, 9, 42, 0
1, 21840, Note_on_c, 9, 36, 0
1, 21840, Note_on_c, 9, 42, 64
1, 21870, Note_on_c, 9, 42, 0
1, 21930, Note_on_c, 9, 42, 64
1, 21930, Note_on_c, 9, 36, 64
1, 21960, Note_on_c, 9, 42, 0
1, 21960, Note_on_c, 9, 36, 0
1, 21960, Note_on_c, 9, 42, 64
1, 21960, Note_on_c, 9, 36, 64
1, 21990, Note_on_c, 9, 42, 0
1, 21990, Note_on_c, 9, 36, 0
1, 22050, Note_on_c, 9, 42, 64
1, 22080, Note_on_c, 9, 42, 0
1, 22080, Note_on_c, 9, 42, 64
1, 22110, Note_on_c, 9, 42, 0
1, 22170, Note_on_c, 9, 42, 64
1, 22200, Note_on_c, 9, 42, 0
1, 22200, Note_on_c, 9, 42, 64
1, 22200, Note_on_c, 9, 36, 64
1, 22230, Note_on_c, 9, 42, 0
1, 22230, Note_on_c, 9, 36, 0
1, 22290, Note_on_c, 9, 42, 64
1, 22290, Note_on_c, 9, 36, 64
1, 22320, Note_on_c, 9, 42, 0
1, 22320, Note_on_c, 9, 36, 0
1, 22320, Note_on_c, 9, 42, 64
1, 22350, Note_on_c, 9, 42, 0
1, 22410, Note_on_c, 9, 42, 64
1, 22410, Note_on_c, 9, 36, 64
1, 22440, Note_on_c, 9, 42, 0
1, 22440, Note_on_c, 9, 36, 0
1, 22440, Note_on_c, 9, 42, 64
1, 22440, Note_on_c, 9, 36, 64
1, 22470, Note_on_c, 9, 42, 0
1, 22470, Note_on_c, 9, 36, 0
1, 22530, Note_on_c, 9, 42, 64
1, 22560, Note_on_c, 9, 42, 0
1, 22560, Note_on_c, 9, 42, 64
1, 22590, Note_on_c, 9, 42, 0
1, 22650, Note_on_c, 9, 42, 64
1, 22680, Note_on_c, 9, 42, 0
1, 22680, Note_on_c, 9, 42, 64
1, 22680, Note_on_c, 9, 36, 64
1, 22710, Note_on_c, 9, 42, 0
1, 22710, Note_on_c, 9, 36, 0
1, 22770, Note_on_c, 9, 42, 64
1, 22770, Note_on_c, 9, 36, 64
1, 22800, Note_on_c, 9, 42, 0
1, 22800, Note_on_c, 9, 36, 0
1, 22800, Note_on_c, 9, 42, 64
1, 22830, Note_on_c, 9, 42, 0
1, 22890, Note_on_c, 9, 42, 64
1, 22890, Note_on_c, 9, 36, 64
1, 22920, Note_on_c, 9, 42, 0
1, 22920, Note_on_c, 9, 36, 0
1, 22920, Note_on_c, 9, 42, 64
1, 22920, Note_on_c, 9, 36, 64
1, 22950, Note_on_c, 9, 42, 0
1, 22950, Note_on_c, 9, 36, 0
1, 23010, Note_on_c, 9, 42, 64
1, 23040, Note_on_c, 9, 42, 0
1, 23040, Note_on_c, 9, 42, 64
1, 23040, Note_on_c, 9, 36, 64
1, 23070, Note_on_c, 9, 42, 0
1, 23070, Note_on_c, 9, 36, 0
1, 23130, Note_on_c, 9, 42, 64
1, 23160, Note_on_c, 9, 42, 0
1, 23160, Note_on_c, 9, 42, 64
1, 23190, Note_on_c, 9, 42, 0
1, 23250, Note_on_c, 9, 42, 64
1, 23280, Note_on_c, 9, 42, 0
1, 23280, Note_on_c, 9, 42, 64
1, 23310, Note_on_c, 9, 42, 0
1, 23370, Note_on_c, 9, 42, 64
1, 23400, Note_on_c, 9, 42, 0
1, 23400, Note_on_c, 9, 42, 64
1, 23430, Note_on_c, 9, 42, 0
1, 23490, Note_on_c, 9, 42, 64
1, 23520, Note_on_c, 9, 42, 0
1, 23520, Note_on_c, 9, 42, 64
1, 23550, Note_on_c, 9, 42, 0
1, 23610, Note_on_c, 9, 42, 64
1, 23610, Note_on_c, 9, 36, 64
1, 23640, Note_on_c, 9, 42, 0
1, 23640, Note_on_c, 9, 36, 0
1, 23640, Note_on_c, 9, 42, 64
1, 23640, Note_on_c, 9, 36, 64
1, 23670, Note_on_c, 9, 42, 0
1, 23670, Note_on_c, 9, 36, 0
1, 23730, Note_on_c, 9, 42, 64
1, 23760, Note_on_c, 9, 42, 0
1, 23760, Note_on_c, 9, 42, 64
1, 23790, Note_on_c, 9, 42, 0
1, 23850, Note_on_c, 9, 42, 64
1, 23880, Note_on_c, 9, 42, 0
1, 23880, Note_on_c, 9, 42, 64
1, 23880, Note_on_c, 9, 36, 64
1, 23910, Note_on_c, 9, 42, 0
1, 23910, Note_on_c, 9, 36, 0
1, 23970, Note_on_c, 9, 42, 64
1, 24000, Note_on_c, 9, 42, 0
1, 24000, Note_on_c, 9, 42, 64
1, 24000, Note_on_c, 9, 36, 64
1, 24030, Note_on_c, 9, 42, 0
1, 24030, Note_on_c, 9, 36, 0
1, 24090, Note_on_c, 9, 42, 64
1, 24120, Note_on_c, 9, 42, 0
1, 24120, Note_on_c, 9, 42, 64
1, 24150, Note_on_c, 9, 42, 0
1, 24210, Note_on_c, 9, 42, 64
1, 24240, Note_on_c, 9, 42, 0
1, 24240, Note_on_c, 9, 42, 64
1, 24270, Note_on_c, 9, 42, 0
1, 24330, Note_on_c, 9, 42, 64
1, 24360, Note_on_c, 9, 42, 0
1, 24360, Note_on_c, 9, 42, 64
1, 24390, Note_on_c, 9, 42, 0
1, 24450, Note_on_c, 9, 42, 64
1, 24480, Note_on_c, 9, 42, 0
1, 24480, Note_on_c, 9, 42, 64
1, 24510, Note_on_c, 9, 42, 0
1, 24570, Note_on_c, 9, 42, 64
1, 24570, Note_on_c, 9, 36, 64
1, 24600, Note_on_c, 9, 42, 0
1, 24600, Note_on_c, 9, 36, 0
1, 24600, Note_on_c, 9, 42, 64
1, 24600, Note_on_c, 9, 36, 64
1, 24630, Note_on_c, 9, 42, 0
1, 24630, Note_on_c, 9, 36, 0
1, 24690, Note_on_c, 9, 42, 64
1, 24720, Note_on_c, 9, 42, 0
1, 24720, Note_on_c, 9, 42, 64
1, 24750, Note_on_c, 9, 42, 0
1, 24810, Note_on_c, 9, 42, 64
1, 24840, Note_on_c, 9, 42, 0
1, 24840, Note_on_c, 9, 42, 64
1, 24840, Note_on_c, 9, 36, 64
1, 24870, Note_on_c, 9, 42, 0
1, 24870, Note_on_c, 9, 36, 0
1, 24930, Note_on_c, 9, 42, 64
1, 24960, Note_on_c, 9, 42, 0
1, 24960, Note_on_c, 9, 42, 64
1, 24990, Note_on_c, 9, 42, 0
1, 25050, Note_on_c, 9, 42, 64
1, 25050, Note_on_c, 9, 36, 64
1, 25080, Note_on_c, 9, 42, 0
1, 25080, Note_on_c, 9, 36, 0
1, 25080, Note_on_c, 9, 42, 64
1, 25080, Note_on_c, 9, 36, 64
1, 25110, Note_on_c, 9, 42, 0
1, 25110, Note_on_c, 9, 36, 0
1, 25170, Note_on_c, 9, 42, 64
1, 25200, Note_on_c, 9, 42, 0
1, 25200, Note_on_c, 9, 42, 64
1, 25230, Note_on_c, 9, 42, 0
1, 25290, Note_on_c, 9, 42, 64
1, 25290, Note_on_c, 9, 36, 64
1, 25320, Note_on_c, 9, 42, 0
1, 25320, Note_on_c, 9, 36, 0
1, 25320, Note_on_c, 9, 42, 64
1, 25350, Note_on_c, 9, 42, 0
1, 25410, Note_on_c, 9, 42, 64
1, 25440, Note_on_c, 9, 42, 0
1, 25440, Note_on_c, 9, 42, 64
1, 25440, Note_on_c, 9, 36, 64
1, 25470, Note_on_c, 9, 42, 0
1, 25470, Note_on_c, 9, 36, 0
1, 25530, Note_on_c, 9, 42, 64
1, 25560, Note_on_c, 9, 42, 0
1, 25560, Note_on_c, 9, 42, 64
1, 25590, Note_on_c, 9, 42, 0
1, 25650, Note_on_c, 9, 42, 64
1, 25650, Note_on_c, 9, 36, 64
1, 25680, Note_on_c, 9, 42, 0
1, 25680, Note_on_c, 9, 36, 0
1, 25680, Note_on_c, 9, 42, 64
1, 25710, Note_on_c, 9, 42, 0
1, 25770, Note_on_c, 9, 42, 64
1, 25800, Note_on_c, 9, 42, 0
1, 25800, Note_on_c, 9, 42, 64
1, 25830, Note_on_c, 9, 42, 0
1, 25890, Note_on_c, 9, 42, 64
1, 25920, Note_on_c, 9, 42, 0
1, 25920, Note_on_c, 9, 42, 64
1, 25950, Note_on_c, 9, 42, 0
1, 26010, Note_on_c, 9, 42, 64
1, 26010, Note_on_c, 9, 36, 64
1, 26040, Note_on_c, 9, 42, 0
1, 26040, Note_on_c, 9, 36, 0
1, 26040, Note_on_c, 9, 42, 64
1, 26040, Note_on_c, 9, 36, 64
1, 26070, Note_on_c, 9, 42, 0
1, 26070, Note_on_c, 9, 36, 0
1, 26130, Note_on_c, 9, 42, 64
1, 26160, Note_on_c, 9, 42, 0
1, 26160, Note_on_c, 9, 42, 64
1, 26190, Note_on_c, 9, 42, 0
1, 26250, Note_on_c, 9, 42, 64
1, 26250, Note_on_c, 9, 36, 64
1, 26280, Note_on_c, 9, 42, 0
1, 26280, Note_on_c, 9, 36, 0
1, 26280, Note_on_c, 9, 42, 64
1, 26310, Note_on_c, 9, 42, 0
1, 26370, Note_on_c, 9, 42, 64
1, 26400, Note_on_c, 9, 42, 0
1, 26400, Note_on_c, 9, 42, 64
1, 26400, Note_on_c, 9, 36, 64
1, 26430, Note_on_c, 9, 42, 0
1, 26430, Note_on_c, 9, 36, 0
1, 26490, Note_on_c, 9, 42, 64
1, 26520, Note_on_c, 9, 42, 0
1, 26520, Note_on_c, 9, 42, 64
1, 26550, Note_on_c, 9, 42, 0
1, 26610, Note_on_c, 9, 42, 64
1, 26610, Note_on_c, 9, 36, 64
1, 26640, Note_on_c, 9, 42, 0
1, 26640, Note_on_c, 9, 36, 0
1, 26640, Note_on_c, 9, 42, 64
1, 26670, Note_on_c, 9, 42, 0
1, 26730, Note_on_c, 9, 42, 64
1, 26760, Note_on_c, 9, 42, 0
1, 26760, Note_on_c, 9, 42, 64
1, 26790, Note_on_c, 9, 42, 0
1, 26850, Note_on_c, 9, 42, 64
1, 26880, Note_on_c, 9, 42, 0
1, 26880, Note_on_c, 9, 42, 64
1, 26880, Note_on_c, 9, 36, 64
1, 26910, Note_on_c, 9, 42, 0
1, 26910, Note_on_c, 9, 36, 0
1, 26970, Note_on_c, 9, 42, 64
1, 27000, Note_on_c, 9, 42, 0
1, 27000, Note_on_c, 9, 42, 64
1, 27030, Note_on_c, 9, 42, 0
1, 27090, Note_on_c, 9, 42, 64
1, 27090, Note_on_c, 9, 36, 64
1, 27120, Note_on_c, 9, 42, 0
1, 27120, Note_on_c, 9, 36, 0
1, 27120, Note_on_c, 9, 42, 64
1, 27150, Note_on_c, 9, 42, 0
1, 27210, Note_on_c, 9, 42, 64
1, 27240, Note_on_c, 9, 42, 0
1, 27240, Note_on_c, 9, 42, 64
1, 27270, Note_on_c, 9, 42, 0
1, 27330, Note_on_c, 9, 42, 64
1, 27360, Note_on_c, 9, 42, 0
1, 27360, Note_on_c, 9, 42, 64
1, 27390, Note_on_c, 9, 42, 0
1, 27450, Note_on_c, 9, 42, 64
1, 27480, Note_on_c, 9, 42, 0
1, 27480, Note_on_c, 9, 42, 64
1, 27480, Note_on_c, 9, 36, 64
1, 27510, Note_on_c, 9, 42, 0
1, 27510, Note_on_c, 9, 36, 0
1, 27570, Note_on_c, 9, 42, 64
1, 27570, Note_on_c, 9, 36, 64
1, 27600, Note_on_c, 9, 42, 0
1, 27600, Note_on_c, 9, 36, 0
1, 27600, Note_on_c, 9, 42, 64
1, 27630, Note_on_c, 9, 42, 0
1, 27690, Note_on_c, 9, 42, 64
1, 27690, Note_on_c, 9, 36, 64
1, 27720, Note_on_c, 9, 42, 0
1, 27720, Note_on_c, 9, 36, 0
1, 27720, Note_on_c, 9, 42, 64
1, 27720, Note_on_c, 9, 36, 64
1, 27750, Note_on_c, 9, 42, 0
1, 27750, Note_on_c, 9, 36, 0
1, 27810, Note_on_c, 9, 42, 64
1, 27840, Note_on_c, 9, 42, 0
1, 27840, Note_on_c, 9, 42, 64
1, 27840, Note_on_c, 9, 36, 64
1, 27870, Note_on_c, 9, 42, 0
1, 27870, Note_on_c, 9, 36, 0
1, 27930, Note_on_c, 9, 42, 64
1, 27960, Note_on_c, 9, 42, 0
1, 27960, Note_on_c, 9, 42, 64
1, 27990, Note_on_c, 9, 42, 0
1, 28050, Note_on_c, 9, 42, 64
1, 28050, Note_on_c, 9, 36, 64
1, 28080, Note_on_c, 9, 42, 0
1, 28080, Note_on_c, 9, 36, 0
1, 28080, Note_on_c, 9, 42, 64
1, 28110, Note_on_c, 9, 42, 0
1, 28170, Note_on_c, 9, 42, 64
1, 28200, Note_on_c, 9, 42, 0
1, 28200, Note_on_c, 9, 42, 64
1, 28230, Note_on_c, 9, 42, 0
1, 28290, Note_on_c, 9, 42, 64
1, 28320, Note_on_c, 9, 42, 0
1, 28320, Note_on_c, 9, 42, 64
1, 28350, Note_on_c, 9, 42, 0
1, 28410, Note_on_c, 9, 42, 64
1, 28440, Note_on_c, 9, 42, 0
1, 28440, Note_on_c, 9, 42, 64
1, 28440, Note_on_c, 9, 36, 64
1, 28470, Note_on_c, 9, 42, 0
1, 28470, Note_on_c, 9, 36, 0
1, 28530, Note_on_c, 9, 42, 64
1, 28530, Note_on_c, 9, 36, 64
1, 28560, Note_on_c, 9, 42, 0
1, 28560, Note_on_c, 9, 36, 0
1, 28560, Note_on_c, 9, 42, 64
1, 28590, Note_on_c, 9, 42, 0
1, 28650, Note_on_c, 9, 42, 64
1, 28650, Note_on_c, 9, 36, 64
1, 28680, Note_on_c, 9, 42, 0
1, 28680, Note_on_c, 9, 36, 0
1, 28680, Note_on_c, 9, 42, 64
1, 28680, Note_on_c, 9, 36, 64
1, 28710, Note_on_c, 9, 42, 0
1, 28710, Note_on_c, 9, 36, 0
1, 28770, Note_on_c, 9, 42, 64
1, 28800, Note_on_c, 9, 42, 0
1, 28800, Note_on_c, 9, 42, 64
1, 28830, Note_on_c, 9, 42, 0
1, 28890, Note_on_c, 9, 42, 64
1, 28920, Note_on_c, 9, 42, 0
1, 28920, Note_on_c, 9, 42, 64
1, 28920, Note_on_c, 9, 36, 64
1, 28950, Note_on_c, 9, 42, 0
1, 28950, Note_on_c, 9, 36, 0
1, 29010, Note_on_c, 9, 42, 64
1, 29010, Note_on_c, 9, 36, 64
1, 29040, Note_on_c, 9, 42, 0
1, 29040, Note_on_c, 9, 36, 0
1, 29040, Note_on_c, 9, 42, 64
1, 29070, Note_on_c, 9, 42, 0
1, 29130, Note_on_c, 9, 42, 64
1, 29130, Note_on_c, 9, 36, 64
1, 29160, Note_on_c, 9, 42, 0
1, 29160, Note_on_c, 9, 36, 0
1, 29160, Note_on_c, 9, 42, 64
1, 29160, Note_on_c, 9, 36, 64
1, 29190, Note_on_c, 9, 42, 0
1, 29190, Note_on_c, 9, 36, 0
1, 29250, Note_on_c, 9, 42, 64
1, 29280, Note_on_c, 9, 42, 0
1, 29280, Note_on_c, 9, 42, 64
1, 29280, Note_on_c, 9, 36, 64
1, 29310, Note_on_c, 9, 42, 0
1, 29310, Note_on_c, 9, 36, 0
1, 29370, Note_on_c, 9, 42, 64
1, 29400, Note_on_c, 9, 42, 0
1, 29400, Note_on_c, 9, 42, 64
1, 29430, Note_on_c, 9, 42, 0
1, 29490, Note_on_c, 9, 42, 64
1, 29520, Note_on_c, 9, 42, 0
1, 29520, Note_on_c, 9, 42, 64
1, 29550, Note_on_c, 9, 42, 0
1, 29610, Note_on_c, 9, 42, 64
1, 29640, Note_on_c, 9, 42, 0
1, 29640, Note_on_c, 9, 42, 64
1, 29670, Note_on_c, 9, 42, 0
1, 29730, Note_on_c, 9, 42, 64
1, 29760, Note_on_c, 9, 42, 0
1, 29760, Note_on_c, 9, 42, 64
1, 29790, Note_on_c, 9, 42, 0
1, 29850, Note_on_c, 9, 42, 64
1, 29880, Note_on_c, 9, 42, 0
1, 29880, Note_on_c, 9, 42, 64
1, 29880, Note_on_c, 9, 36, 64
1, 29910, Note_on_c, 9, 42, 0
1, 29910, Note_on_c, 9, 36, 0
1, 29970, Note_on_c, 9, 42, 64
1, 29970, Note_on_c, 9, 36, 64
1, 30000, Note_on_c, 9, 42, 0
1, 30000, Note_on_c, 9, 36, 0
1, 30000, Note_on_c, 9, 42, 64
1, 30030, Note_on_c, 9, 42, 0
1, 30090, Note_on_c, 9, 42, 64
1, 30090, Note_on_c, 9, 36, 64
1, 30120, Note_on_c, 9, 42, 0
1, 30120, Note_on_c, 9, 36, 0
1, 30120, Note_on_c, 9, 42, 64
1, 30120, Note_on_c, 9, 36, 64
1, 30150, Note_on_c, 9, 42, 0
1, 30150, Note_on_c, 9, 36, 0
1, 30210, Note_on_c, 9, 42, 64
1, 30240, Note_on_c, 9, 42, 0
1, 30240, Note_on_c, 9, 42, 64
1, 30240, Note_on_c, 9, 36, 64
1, 30270, Note_on_c, 9, 42, 0
1, 30270, Note_on_c, 9, 36, 0
1, 30330, Note_on_c, 9, 42, 64
1, 30360, Note_on_c, 9, 42, 0
1, 30360, Note_on_c, 9, 42, 64
1, 30390, Note_on_c, 9, 42, 0
1, 30450, Note_on_c, 9, 42, 64
1, 30480, Note_on_c, 9, 42, 0
1, 30480, Note_on_c, 9, 42, 64
1, 30510, Note_on_c, 9, 42, 0
1, 30570, Note_on_c, 9, 42, 64
1, 30600, Note_on_c, 9, 42, 0
1, 30600, Note_on_c, 9, 42, 64
1, 30630, Note_on_c, 9, 42, 0
1, 30690, Note_on_c, 9, 42, 64
1, 30720, Note_on_c, 9, 42, 0
1, 30720, Note_on_c, 9, 42, 64
1, 30720, Note_on_c, 9, 36, 64
1, 30750, Note_on_c, 9, 42, 0
1, 30750, Note_on_c, 9, 36, 0
1, 30810, Note_on_c, 9, 42, 64
1, 30840, Note_on_c, 9, 42, 0
1, 30840, Note_on_c, 9, 42, 64
1, 30870, Note_on_c, 9, 42, 0
1, 30930, Note_on_c, 9, 42, 64
1, 30960, Note_on_c, 9, 42, 0
1, 30960, Note_on_c, 9, 42, 64
1, 30960, Note_on_c, 9, 38, 64
1, 30990, Note_on_c, 9, 42, 0
1, 30990, Note_on_c, 9, 38, 0
1, 31050, Note_on_c, 9, 42, 64
1, 31080, Note_on_c, 9, 42, 0
1, 31080, Note_on_c, 9, 42, 64
1, 31110, Note_on_c, 9, 42, 0
1, 31170, Note_on_c, 9, 42, 64
1, 31200, Note_on_c, 9, 42, 0
1, 31200, Note_on_c, 9, 42, 64
1, 31200, Note_on_c, 9, 36, 64
1, 31230, Note_on_c, 9, 42, 0
1, 31230, Note_on_c, 9, 36, 0
1, 31290, Note_on_c, 9, 42, 64
1, 31320, Note_on_c, 9, 42, 0
1, 31320, Note_on_c, 9, 42, 64
1, 31350, Note_on_c, 9, 42, 0
1, 31410, Note_on_c, 9, 42, 64
1, 31440, Note_on_c, 9, 42, 0
1, 31440, Note_on_c, 9, 42, 64
1, 31440, Note_on_c, 9, 38, 64
1, 31470, Note_on_c, 9, 42, 0
1, 31470, Note_on_c, 9, 38, 0
1, 31530, Note_on_c, 9, 42, 64
1, 31560, Note_on_c, 9, 42, 0
1, 31560, Note_on_c, 9, 42, 64
1, 31590, Note_on_c, 9, 42, 0
1, 31650, Note_on_c, 9, 42, 64
1, 31680, Note_on_c, 9, 42, 0
1, 31680, Note_on_c, 9, 42, 64
1, 31680, Note_on_c, 9, 36, 64
1, 31710, Note_on_c, 9, 42, 0
1, 31710, Note_on_c, 9, 36, 0
1, 31770, Note_on_c, 9, 42, 64
1, 31800, Note_on_c, 9, 42, 0
1, 31800, Note_on_c, 9, 42, 64
1, 31830, Note_on_c, 9, 42, 0
1, 31890, Note_on_c, 9, 42, 64
1, 31920, Note_on_c, 9, 42, 0
1, 31920, Note_on_c, 9, 42, 64
1, 31920, Note_on_c, 9, 38, 64
1, 31950, Note_on_c, 9, 42, 0
1, 31950, Note_on_c, 9, 38, 0
1, 32010, Note_on_c, 9, 42, 64
1, 32040, Note_on_c, 9, 42, 0
1, 32040, Note_on_c, 9, 42, 64
1, 32070, Note_on_c, 9, 42, 0
1, 32130, Note_on_c, 9, 42, 64
1, 32160, Note_on_c, 9, 42, 0
1, 32160, Note_on_c, 9, 42, 64
1, 32160, Note_on_c, 9, 36, 64
1, 32190, Note_on_c, 9, 42, 0
1, 32190, Note_on_c, 9, 36, 0
1, 32250, Note_on_c, 9, 42, 64
1, 32280, Note_on_c, 9, 42, 0
1, 32280, Note_on_c, 9, 42, 64
1, 32310, Note_on_c, 9, 42, 0
1, 32370, Note_on_c, 9, 42, 64
1, 32400, Note_on_c, 9, 42, 0
1, 32400, Note_on_c, 9, 42, 64
1, 32400, Note_on_c, 9, 38, 64
1, 32430, Note_on_c, 9, 42, 0
1, 32430, Note_on_c, 9, 38, 0
1, 32490, Note_on_c, 9, 42, 64
1, 32520, Note_on_c, 9, 42, 0
1, 32520, Note_on_c, 9, 42, 64
1, 32550, Note_on_c, 9, 42, 0
1, 32610, Note_on_c, 9, 42, 64
1, 32640, Note_on_c, 9, 42, 0
1, 32640, Note_on_c, 9, 42, 64
1, 32670, Note_on_c, 9, 42, 0
1, 32730, Note_on_c, 9, 42, 64
1, 32730, Note_on_c, 9, 47, 64
1, 32730, Note_on_c, 9, 36, 64
1, 32760, Note_on_c, 9, 42, 0
1, 32760, Note_on_c, 9, 47, 0
1, 32760, Note_on_c, 9, 36, 0
1, 32760, Note_on_c, 9, 42, 64
1, 32760, Note_on_c, 9, 36, 64
1, 32790, Note_on_c, 9, 42, 0
1, 32790, Note_on_c, 9, 36, 0
1, 32850, Note_on_c, 9, 42, 64
1, 32880, Note_on_c, 9, 42, 0
1, 32880, Note_on_c, 9, 42, 64
1, 32880, Note_on_c, 9, 38, 64
1, 32910, Note_on_c, 9, 42, 0
1, 32910, Note_on_c, 9, 38, 0
1, 32970, Note_on_c, 9, 42, 64
1, 32970, Note_on_c, 9, 36, 64
1, 33000, Note_on_c, 9, 42, 0
1, 33000, Note_on_c, 9, 36, 0
1, 33000, Note_on_c, 9, 42, 64
1, 33030, Note_on_c, 9, 42, 0
1, 33090, Note_on_c, 9, 42, 64
1, 33120, Note_on_c, 9, 42, 0
1, 33120, Note_on_c, 9, 42, 64
1, 33150, Note_on_c, 9, 42, 0
1, 33210, Note_on_c, 9, 42, 64
1, 33210, Note_on_c, 9, 43, 64
1, 33210, Note_on_c, 9, 36, 64
1, 33240, Note_on_c, 9, 42, 0
1, 33240, Note_on_c, 9, 43, 0
1, 33240, Note_on_c, 9, 36, 0
1, 33240, Note_on_c, 9, 42, 64
1, 33240, Note_on_c, 9, 36, 64
1, 33270, Note_on_c, 9, 42, 0
1, 33270, Note_on_c, 9, 36, 0
1, 33330, Note_on_c, 9, 42, 64
1, 33360, Note_on_c, 9, 42, 0
1, 33360, Note_on_c, 9, 42, 64
1, 33360, Note_on_c, 9, 38, 64
1, 33390, Note_on_c, 9, 42, 0
1, 33390, Note_on_c, 9, 38, 0
1, 33450, Note_on_c, 9, 42, 64
1, 33450, Note_on_c, 9, 36, 64
1, 33480, Note_on_c, 9, 42, 0
1, 33480, Note_on_c, 9, 36, 0
1, 33480, Note_on_c, 9, 42, 64
1, 33510, Note_on_c, 9, 42, 0
1, 33570, Note_on_c, 9, 42, 64
1, 33600, Note_on_c, 9, 42, 0
1, 33600, Note_on_c, 9, 42, 64
1, 33630, Note_on_c, 9, 42, 0
1, 33690, Note_on_c, 9, 42, 64
1, 33690, Note_on_c, 9, 47, 64
1, 33690, Note_on_c, 9, 36, 64
1, 33720, Note_on_c, 9, 42, 0
1, 33720, Note_on_c, 9, 47, 0
1, 33720, Note_on_c, 9, 36, 0
1, 33720, Note_on_c, 9, 42, 64
1, 33720, Note_on_c, 9, 36, 64
1, 33750, Note_on_c, 9, 42, 0
1, 33750, Note_on_c, 9, 36, 0
1, 33810, Note_on_c, 9, 42, 64
1, 33840, Note_on_c, 9, 42, 0
1, 33840, Note_on_c, 9, 42, 64
1, 33840, Note_on_c, 9, 38, 64
1, 33870, Note_on_c, 9, 42, 0
1, 33870, Note_on_c, 9, 38, 0
1, 33930, Note_on_c, 9, 42, 64
1, 33930, Note_on_c, 9, 36, 64
1, 33960, Note_on_c, 9, 42, 0
1, 33960, Note_on_c, 9, 36, 0
1, 33960, Note_on_c, 9, 42, 64
1, 33990, Note_on_c, 9, 42, 0
1, 34050, Note_on_c, 9, 42, 64
1, 34080, Note_on_c, 9, 42, 0
1, 34080, Note_on_c, 9, 42, 64
1, 34110, Note_on_c, 9, 42, 0
1, 34170, Note_on_c, 9, 42, 64
1, 34170, Note_on_c, 9, 43, 64
1, 34170, Note_on_c, 9, 36, 64
1, 34200, Note_on_c, 9, 42, 0
1, 34200, Note_on_c, 9, 43, 0
1, 34200, Note_on_c, 9, 36, 0
1, 34200, Note_on_c, 9, 42, 64
1, 34200, Note_on_c, 9, 36, 64
1, 34230, Note_on_c, 9, 42, 0
1, 34230, Note_on_c, 9, 36, 0
1, 34290, Note_on_c, 9, 42, 64
1, 34320, Note_on_c, 9, 42, 0
1, 34320, Note_on_c, 9, 42, 64
1, 34320, Note_on_c, 9, 38, 64
1, 34350, Note_on_c, 9, 42, 0
1, 34350, Note_on_c, 9, 38, 0
1, 34410, Note_on_c, 9, 42, 64
1, 34410, Note_on_c, 9, 36, 64
1, 34440, Note_on_c, 9, 42, 0
1, 34440, Note_on_c, 9, 36, 0
1, 34440, Note_on_c, 9, 42, 64
1, 34470, Note_on_c, 9, 42, 0
1, 34530, Note_on_c, 9, 42, 64
1, 34560, Note_on_c, 9, 42, 0
1, 34560, Note_on_c, 9, 42, 64
1, 34560, Note_on_c, 9, 36, 64
1, 34590, Note_on_c, 9, 42, 0
1, 34590, Note_on_c, 9, 36, 0
1, 34650, Note_on_c, 9, 42, 64
1, 34680, Note_on_c, 9, 42, 0
1, 34680, Note_on_c, 9, 42, 64
1, 34680, Note_on_c, 9, 47, 64
1, 34710, Note_on_c, 9, 42, 0
1, 34710, Note_on_c, 9, 47, 0
1, 34770, Note_on_c, 9, 42, 64
1, 34770, Note_on_c, 9, 36, 64
1, 34800, Note_on_c, 9, 42, 0
1, 34800, Note_on_c, 9, 36, 0
1, 34800, Note_on_c, 9, 42, 64
1, 34800, Note_on_c, 9, 38, 64
1, 34830, Note_on_c, 9, 42, 0
1, 34830, Note_on_c, 9, 38, 0
1, 34890, Note_on_c, 9, 42, 64
1, 34920, Note_on_c, 9, 42, 0
1, 34920, Note_on_c, 9, 42, 64
1, 34950, Note_on_c, 9, 42, 0
1, 35010, Note_on_c, 9, 42, 64
1, 35010, Note_on_c, 9, 38, 64
1, 35040, Note_on_c, 9, 42, 0
1, 35040, Note_on_c, 9, 38, 0
1, 35040, Note_on_c, 9, 42, 64
1, 35040, Note_on_c, 9, 36, 64
1, 35070, Note_on_c, 9, 42, 0
1, 35070, Note_on_c, 9, 36, 0
1, 35130, Note_on_c, 9, 42, 64
1, 35160, Note_on_c, 9, 42, 0
1, 35160, Note_on_c, 9, 42, 64
1, 35160, Note_on_c, 9, 43, 64
1, 35190, Note_on_c, 9, 42, 0
1, 35190, Note_on_c, 9, 43, 0
1, 35250, Note_on_c, 9, 42, 64
1, 35250, Note_on_c, 9, 36, 64
1, 35280, Note_on_c, 9, 42, 0
1, 35280, Note_on_c, 9, 36, 0
1, 35280, Note_on_c, 9, 42, 64
1, 35280, Note_on_c, 9, 38, 64
1, 35310, Note_on_c, 9, 42, 0
1, 35310, Note_on_c, 9, 38, 0
1, 35370, Note_on_c, 9, 42, 64
1, 35400, Note_on_c, 9, 42, 0
1, 35400, Note_on_c, 9, 42, 64
1, 35430, Note_on_c, 9, 42, 0
1, 35490, Note_on_c, 9, 42, 64
1, 35490, Note_on_c, 9, 38, 64
1, 35520, Note_on_c, 9, 42, 0
1, 35520, Note_on_c, 9, 38, 0
1, 35520, Note_on_c, 9, 42, 64
1, 35520, Note_on_c, 9, 36, 64
1, 35550, Note_on_c, 9, 42, 0
1, 35550, Note_on_c, 9, 36, 0
1, 35610, Note_on_c, 9, 42, 64
1, 35640, Note_on_c, 9, 42, 0
1, 35640, Note_on_c, 9, 42, 64
1, 35640, Note_on_c, 9, 47, 64
1, 35670, Note_on_c, 9, 42, 0
1, 35670, Note_on_c, 9, 47, 0
1, 35730, Note_on_c, 9, 42, 64
1, 35730, Note_on_c, 9, 36, 64
1, 35760, Note_on_c, 9, 42, 0
1, 35760, Note_on_c, 9, 36, 0
1, 35760, Note_on_c, 9, 42, 64
1, 35760, Note_on_c, 9, 38, 64
1, 35790, Note_on_c, 9, 42, 0
1, 35790, Note_on_c, 9, 38, 0
1, 35850, Note_on_c, 9, 42, 64
1, 35880, Note_on_c, 9, 42, 0
1, 35880, Note_on_c, 9, 42, 64
1, 35910, Note_on_c, 9, 42, 0
1, 35970, Note_on_c, 9, 42, 64
1, 35970, Note_on_c, 9, 38, 64
1, 36000, Note_on_c, 9, 42, 0
1, 36000, Note_on_c, 9, 38, 0
1, 36000, Note_on_c, 9, 42, 64
1, 36000, Note_on_c, 9, 36, 64
1, 36030, Note_on_c, 9, 42, 0
1, 36030, Note_on_c, 9, 36, 0
1, 36090, Note_on_c, 9, 42, 64
1, 36120, Note_on_c, 9, 42, 0
1, 36120, Note_on_c, 9, 42, 64
1, 36120, Note_on_c, 9, 43, 64
1, 36150, Note_on_c, 9, 42, 0
1, 36150, Note_on_c, 9, 43, 0
1, 36210, Note_on_c, 9, 42, 64
1, 36210, Note_on_c, 9, 36, 64
1, 36240, Note_on_c, 9, 42, 0
1, 36240, Note_on_c, 9, 36, 0
1, 36240, Note_on_c, 9, 42, 64
1, 36240, Note_on_c, 9, 38, 64
1, 36270, Note_on_c, 9, 42, 0
1, 36270, Note_on_c, 9, 38, 0
1, 36330, Note_on_c, 9, 42, 64
1, 36360, Note_on_c, 9, 42, 0
1, 36360, Note_on_c, 9, 42, 64
1, 36390, Note_on_c, 9, 42, 0
1, 36450, Note_on_c, 9, 42, 64
1, 36450, Note_on_c, 9, 38, 64
1, 36480, Note_on_c, 9, 42, 0
1, 36480, Note_on_c, 9, 38, 0
1, 36480, Note_on_c, 9, 42, 64
1, 36510, Note_on_c, 9, 42, 0
1, 36570, Note_on_c, 9, 42, 64
1, 36570, Note_on_c, 9, 38, 64
1, 36600, Note_on_c, 9, 42, 0
1, 36600, Note_on_c, 9, 38, 0
1, 36600, Note_on_c, 9, 42, 64
1, 36600, Note_on_c, 9, 36, 64
1, 36630, Note_on_c, 9, 42, 0
1, 36630, Note_on_c, 9, 36, 0
1, 36690, Note_on_c, 9, 42, 64
1, 36690, Note_on_c, 9, 36, 64
1, 36720, Note_on_c, 9, 42, 0
1, 36720, Note_on_c, 9, 36, 0
1, 36720, Note_on_c, 9, 42, 64
1, 36720, Note_on_c, 9, 38, 64
1, 36750, Note_on_c, 9, 42, 0
1, 36750, Note_on_c, 9, 38, 0
1, 36810, Note_on_c, 9, 42, 64
1, 36810, Note_on_c, 9, 36, 64
1, 36840, Note_on_c, 9, 42, 0
1, 36840, Note_on_c, 9, 36, 0
1, 36840, Note_on_c, 9, 42, 64
1, 36840, Note_on_c, 9, 36, 64
1, 36870, Note_on_c, 9, 42, 0
1, 36870, Note_on_c, 9, 36, 0
1, 36930, Note_on_c, 9, 42, 64
1, 36930, Note_on_c, 9, 38, 64
1, 36960, Note_on_c, 9, 42, 0
1, 36960, Note_on_c, 9, 38, 0
1, 36960, Note_on_c, 9, 42, 64
1, 36990, Note_on_c, 9, 42, 0
1, 37050, Note_on_c, 9, 42, 64
1, 37050, Note_on_c, 9, 38, 64
1, 37080, Note_on_c, 9, 42, 0
1, 37080, Note_on_c, 9, 38, 0
1, 37080, Note_on_c, 9, 42, 64
1, 37080, Note_on_c, 9, 36, 64
1, 37110, Note_on_c, 9, 42, 0
1, 37110, Note_on_c, 9, 36, 0
1, 37170, Note_on_c, 9, 42, 64
1, 37170, Note_on_c, 9, 36, 64
1, 37200, Note_on_c, 9, 42, 0
1, 37200, Note_on_c, 9, 36, 0
1, 37200, Note_on_c, 9, 42, 64
1, 37200, Note_on_c, 9, 38, 64
1, 37230, Note_on_c, 9, 42, 0
1, 37230, Note_on_c, 9, 38, 0
1, 37290, Note_on_c, 9, 42, 64
1, 37290, Note_on_c, 9, 36, 64
1, 37320, Note_on_c, 9, 42, 0
1, 37320, Note_on_c, 9, 36, 0
1, 37320, Note_on_c, 9, 42, 64
1, 37320, Note_on_c, 9, 36, 64
1, 37350, Note_on_c, 9, 42, 0
1, 37350, Note_on_c, 9, 36, 0
1, 37410, Note_on_c, 9, 42, 64
1, 37410, Note_on_c, 9, 38, 64
1, 37440, Note_on_c, 9, 42, 0
1, 37440, Note_on_c, 9, 38, 0
1, 37440, Note_on_c, 9, 42, 64
1, 37470, Note_on_c, 9, 42, 0
1, 37530, Note_on_c, 9, 42, 64
1, 37530, Note_on_c, 9, 38, 64
1, 37560, Note_on_c, 9, 42, 0
1, 37560, Note_on_c, 9, 38, 0
1, 37560, Note_on_c, 9, 42, 64
1, 37560, Note_on_c, 9, 36, 64
1, 37590, Note_on_c, 9, 42, 0
1, 37590, Note_on_c, 9, 36, 0
1, 37650, Note_on_c, 9, 42, 64
1, 37650, Note_on_c, 9, 36, 64
1, 37680, Note_on_c, 9, 42, 0
1, 37680, Note_on_c, 9, 36, 0
1, 37680, Note_on_c, 9, 42, 64
1, 37680, Note_on_c, 9, 38, 64
1, 37710, Note_on_c, 9, 42, 0
1, 37710, Note_on_c, 9, 38, 0
1, 37770, Note_on_c, 9, 42, 64
1, 37770, Note_on_c, 9, 36, 64
1, 37800, Note_on_c, 9, 42, 0
1, 37800, Note_on_c, 9, 36, 0
1, 37800, Note_on_c, 9, 42, 64
1, 37800, Note_on_c, 9, 36, 64
1, 37830, Note_on_c, 9, 42, 0
1, 37830, Note_on_c, 9, 36, 0
1, 37890, Note_on_c, 9, 42, 64
1, 37890, Note_on_c, 9, 38, 64
1, 37920, Note_on_c, 9, 42, 0
1, 37920, Note_on_c, 9, 38, 0
1, 37920, Note_on_c, 9, 42, 64
1, 37950, Note_on_c, 9, 42, 0
1, 38010, Note_on_c, 9, 42, 64
1, 38010, Note_on_c, 9, 38, 64
1, 38040, Note_on_c, 9, 42, 0
1, 38040, Note_on_c, 9, 38, 0
1, 38040, Note_on_c, 9, 42, 64
1, 38040, Note_on_c, 9, 36, 64
1, 38070, Note_on_c, 9, 42, 0
1, 38070, Note_on_c, 9, 36, 0
1, 38130, Note_on_c, 9, 42, 64
1, 38130, Note_on_c, 9, 36, 64
1, 38160, Note_on_c, 9, 42, 0
1, 38160, Note_on_c, 9, 36, 0
1, 38160, Note_on_c, 9, 42, 64
1, 38160, Note_on_c, 9, 38, 64
1, 38190, Note_on_c, 9, 42, 0
1, 38190, Note_on_c, 9, 38, 0
1, 38250, Note_on_c, 9, 42, 64
1, 38250, Note_on_c, 9, 36, 64
1, 38280, Note_on_c, 9, 42, 0
1, 38280, Note_on_c, 9, 36, 0
1, 38280, Note_on_c, 9, 42, 64
1, 38280, Note_on_c, 9, 36, 64
1, 38310, Note_on_c, 9, 42, 0
1, 38310, Note_on_c, 9, 36, 0
1, 38370, Note_on_c, 9, 42, 64
1, 38370, Note_on_c, 9, 38, 64
1, 38400, Note_on_c, 9, 42, 0
1, 38400, Note_on_c, 9, 38, 0
1, 38400, Note_on_c, 9, 42, 64
1, 38400, Note_on_c, 9, 36, 64
1, 38430, Note_on_c, 9, 42, 0
1, 38430, Note_on_c, 9, 36, 0
1, 38490, Note_on_c, 9, 42, 64
1, 38520, Note_on_c, 9, 42, 0
1, 38520, Note_on_c, 9, 42, 64
1, 38550, Note_on_c, 9, 42, 0
1, 38610, Note_on_c, 9, 42, 64
1, 38640, Note_on_c, 9, 42, 0
1, 38640, Note_on_c, 9, 42, 64
1, 38640, Note_on_c, 9, 38, 64
1, 38670, Note_on_c, 9, 42, 0
1, 38670, Note_on_c, 9, 38, 0
1, 38730, Note_on_c, 9, 42, 64
1, 38760, Note_on_c, 9, 42, 0
1, 38760, Note_on_c, 9, 42, 64
1, 38790, Note_on_c, 9, 42, 0
1, 38850, Note_on_c, 9, 42, 64
1, 38880, Note_on_c, 9, 42, 0
1, 38880, Note_on_c, 9, 42, 64
1, 38910, Note_on_c, 9, 42, 0
1, 38970, Note_on_c, 9, 42, 64
1, 38970, Note_on_c, 9, 47, 64
1, 38970, Note_on_c, 9, 36, 64
1, 39000, Note_on_c, 9, 42, 0
1, 39000, Note_on_c, 9, 47, 0
1, 39000, Note_on_c, 9, 36, 0
1, 39000, Note_on_c, 9, 42, 64
1, 39000, Note_on_c, 9, 36, 64
1, 39030, Note_on_c, 9, 42, 0
1, 39030, Note_on_c, 9, 36, 0
1, 39090, Note_on_c, 9, 42, 64
1, 39120, Note_on_c, 9, 42, 0
1, 39120, Note_on_c, 9, 42, 64
1, 39120, Note_on_c, 9, 38, 64
1, 39150, Note_on_c, 9, 42, 0
1, 39150, Note_on_c, 9, 38, 0
1, 39210, Note_on_c, 9, 42, 64
1, 39210, Note_on_c, 9, 36, 64
1, 39240, Note_on_c, 9, 42, 0
1, 39240, Note_on_c, 9, 36, 0
1, 39240, Note_on_c, 9, 42, 64
1, 39270, Note_on_c, 9, 42, 0
1, 39330, Note_on_c, 9, 42, 64
1, 39360, Note_on_c, 9, 42, 0
1, 39360, Note_on_c, 9, 42, 64
1, 39360, Note_on_c, 9, 36, 64
1, 39390, Note_on_c, 9, 42, 0
1, 39390, Note_on_c, 9, 36, 0
1, 39450, Note_on_c, 9, 42, 64
1, 39480, Note_on_c, 9, 42, 0
1, 39480, Note_on_c, 9, 42, 64
1, 39510, Note_on_c, 9, 42, 0
1, 39570, Note_on_c, 9, 42, 64
1, 39600, Note_on_c, 9, 42, 0
1, 39600, Note_on_c, 9, 42, 64
1, 39600, Note_on_c, 9, 38, 64
1, 39630, Note_on_c, 9, 42, 0
1, 39630, Note_on_c, 9, 38, 0
1, 39690, Note_on_c, 9, 42, 64
1, 39720, Note_on_c, 9, 42, 0
1, 39720, Note_on_c, 9, 42, 64
1, 39750, Note_on_c, 9, 42, 0
1, 39810, Note_on_c, 9, 42, 64
1, 39840, Note_on_c, 9, 42, 0
1, 39840, Note_on_c, 9, 42, 64
1, 39870, Note_on_c, 9, 42, 0
1, 39930, Note_on_c, 9, 42, 64
1, 39930, Note_on_c, 9, 47, 64
1, 39930, Note_on_c, 9, 36, 64
1, 39960, Note_on_c, 9, 42, 0
1, 39960, Note_on_c, 9, 47, 0
1, 39960, Note_on_c, 9, 36, 0
1, 39960, Note_on_c, 9, 42, 64
1, 39960, Note_on_c, 9, 36, 64
1, 39990, Note_on_c, 9, 42, 0
1, 39990, Note_on_c, 9, 36, 0
1, 40050, Note_on_c, 9, 42, 64
1, 40080, Note_on_c, 9, 42, 0
1, 40080, Note_on_c, 9, 42, 64
1, 40080, Note_on_c, 9, 38, 64
1, 40110, Note_on_c, 9, 42, 0
1, 40110, Note_on_c, 9, 38, 0
1, 40170, Note_on_c, 9, 42, 64
1, 40170, Note_on_c, 9, 36, 64
1, 40200, Note_on_c, 9, 42, 0
1, 40200, Note_on_c, 9, 36, 0
1, 40200, Note_on_c, 9, 42, 64
1, 40230, Note_on_c, 9, 42, 0
1, 40290, Note_on_c, 9, 42, 64
1, 40320, Note_on_c, 9, 42, 0
1, 40320, Note_on_c, 9, 42, 64
1, 40350, Note_on_c, 9, 42, 0
1, 40410, Note_on_c, 9, 42, 64
1, 40410, Note_on_c, 9, 47, 64
1, 40410, Note_on_c, 9, 36, 64
1, 40440, Note_on_c, 9, 42, 0
1, 40440, Note_on_c, 9, 47, 0
1, 40440, Note_on_c, 9, 36, 0
1, 40440, Note_on_c, 9, 42, 64
1, 40440, Note_on_c, 9, 36, 64
1, 40470, Note_on_c, 9, 42, 0
1, 40470, Note_on_c, 9, 36, 0
1, 40530, Note_on_c, 9, 42, 64
1, 40560, Note_on_c, 9, 42, 0
1, 40560, Note_on_c, 9, 42, 64
1, 40560, Note_on_c, 9, 38, 64
1, 40590, Note_on_c, 9, 42, 0
1, 40590, Note_on_c, 9, 38, 0
1, 40650, Note_on_c, 9, 42, 64
1, 40650, Note_on_c, 9, 36, 64
1, 40680, Note_on_c, 9, 42, 0
1, 40680, Note_on_c, 9, 36, 0
1, 40680, Note_on_c, 9, 42, 64
1, 40710, Note_on_c, 9, 42, 0
1, 40770, Note_on_c, 9, 42, 64
1, 40800, Note_on_c, 9, 42, 0
1, 40800, Note_on_c, 9, 42, 64
1, 40800, Note_on_c, 9, 36, 64
1, 40830, Note_on_c, 9, 42, 0
1, 40830, Note_on_c, 9, 36, 0
1, 40890, Note_on_c, 9, 42, 64
1, 40920, Note_on_c, 9, 42, 0
1, 40920, Note_on_c, 9, 42, 64
1, 40920, Note_on_c, 9, 47, 64
1, 40950, Note_on_c, 9, 42, 0
1, 40950, Note_on_c, 9, 47, 0
1, 41010, Note_on_c, 9, 42, 64
1, 41010, Note_on_c, 9, 36, 64
1, 41040, Note_on_c, 9, 42, 0
1, 41040, Note_on_c, 9, 36, 0
1, 41040, Note_on_c, 9, 42, 64
1, 41040, Note_on_c, 9, 38, 64
1, 41070, Note_on_c, 9, 42, 0
1, 41070, Note_on_c, 9, 38, 0
1, 41130, Note_on_c, 9, 42, 64
1, 41160, Note_on_c, 9, 42, 0
1, 41160, Note_on_c, 9, 42, 64
1, 41190, Note_on_c, 9, 42, 0
1, 41250, Note_on_c, 9, 42, 64
1, 41250, Note_on_c, 9, 38, 64
1, 41280, Note_on_c, 9, 42, 0
1, 41280, Note_on_c, 9, 38, 0
1, 41280, Note_on_c, 9, 42, 64
1, 41310, Note_on_c, 9, 42, 0
1, 41370, Note_on_c, 9, 42, 64
1, 41370, Note_on_c, 9, 47, 64
1, 41370, Note_on_c, 9, 36, 64
1, 41400, Note_on_c, 9, 42, 0
1, 41400, Note_on_c, 9, 47, 0
1, 41400, Note_on_c, 9, 36, 0
1, 41400, Note_on_c, 9, 42, 64
1, 41400, Note_on_c, 9, 36, 64
1, 41430, Note_on_c, 9, 42, 0
1, 41430, Note_on_c, 9, 36, 0
1, 41490, Note_on_c, 9, 42, 64
1, 41520, Note_on_c, 9, 42, 0
1, 41520, Note_on_c, 9, 42, 64
1, 41520, Note_on_c, 9, 38, 64
1, 41550, Note_on_c, 9, 42, 0
1, 41550, Note_on_c, 9, 38, 0
1, 41610, Note_on_c, 9, 42, 64
1, 41610, Note_on_c, 9, 36, 64
1, 41640, Note_on_c, 9, 42, 0
1, 41640, Note_on_c, 9, 36, 0
1, 41640, Note_on_c, 9, 42, 64
1, 41670, Note_on_c, 9, 42, 0
1, 41730, Note_on_c, 9, 42, 64
1, 41760, Note_on_c, 9, 42, 0
1, 41760, Note_on_c, 9, 42, 64
1, 41760, Note_on_c, 9, 36, 64
1, 41790, Note_on_c, 9, 42, 0
1, 41790, Note_on_c, 9, 36, 0
1, 41850, Note_on_c, 9, 42, 64
1, 41880, Note_on_c, 9, 42, 0
1, 41880, Note_on_c, 9, 42, 64
1, 41880, Note_on_c, 9, 47, 64
1, 41910, Note_on_c, 9, 42, 0
1, 41910, Note_on_c, 9, 47, 0
1, 41970, Note_on_c, 9, 42, 64
1, 41970, Note_on_c, 9, 36, 64
1, 42000, Note_on_c, 9, 42, 0
1, 42000, Note_on_c, 9, 36, 0
1, 42000, Note_on_c, 9, 42, 64
1, 42000, Note_on_c, 9, 38, 64
1, 42030, Note_on_c, 9, 42, 0
1, 42030, Note_on_c, 9, 38, 0
1, 42090, Note_on_c, 9, 42, 64
1, 42120, Note_on_c, 9, 42, 0
1, 42120, Note_on_c, 9, 42, 64
1, 42150, Note_on_c, 9, 42, 0
1, 42210, Note_on_c, 9, 42, 64
1, 42210, Note_on_c, 9, 38, 64
1, 42240, Note_on_c, 9, 42, 0
1, 42240, Note_on_c, 9, 38, 0
1, 42240, Note_on_c, 9, 42, 64
1, 42240, Note_on_c, 9, 36, 64
1, 42270, Note_on_c, 9, 42, 0
1, 42270, Note_on_c, 9, 36, 0
1, 42330, Note_on_c, 9, 42, 64
1, 42360, Note_on_c, 9, 42, 0
1, 42360, Note_on_c, 9, 42, 64
1, 42360, Note_on_c, 9, 47, 64
1, 42390, Note_on_c, 9, 42, 0
1, 42390, Note_on_c, 9, 47, 0
1, 42450, Note_on_c, 9, 42, 64
1, 42450, Note_on_c, 9, 36, 64
1, 42480, Note_on_c, 9, 42, 0
1, 42480, Note_on_c, 9, 36, 0
1, 42480, Note_on_c, 9, 42, 64
1, 42480, Note_on_c, 9, 38, 64
1, 42510, Note_on_c, 9, 42, 0
1, 42510, Note_on_c, 9, 38, 0
1, 42570, Note_on_c, 9, 42, 64
1, 42600, Note_on_c, 9, 42, 0
1, 42600, Note_on_c, 9, 42, 64
1, 42630, Note_on_c, 9, 42, 0
1, 42690, Note_on_c, 9, 42, 64
1, 42690, Note_on_c, 9, 38, 64
1, 42720, Note_on_c, 9, 42, 0
1, 42720, Note_on_c, 9, 38, 0
1, 42720, Note_on_c, 9, 42, 64
1, 42750, Note_on_c, 9, 42, 0
1, 42810, Note_on_c, 9, 42, 64
1, 42810, Note_on_c, 9, 38, 64
1, 42840, Note_on_c, 9, 42, 0
1, 42840, Note_on_c, 9, 38, 0
1, 42840, Note_on_c, 9, 42, 64
1, 42840, Note_on_c, 9, 36, 64
1, 42870, Note_on_c, 9, 42, 0
1, 42870, Note_on_c, 9, 36, 0
1, 42930, Note_on_c, 9, 42, 64
1, 42930, Note_on_c, 9, 36, 64
1, 42960, Note_on_c, 9, 42, 0
1, 42960, Note_on_c, 9, 36, 0
1, 42960, Note_on_c, 9, 42, 64
1, 42960, Note_on_c, 9, 38, 64
1, 42990, Note_on_c, 9, 42, 0
1, 42990, Note_on_c, 9, 38, 0
1, 43050, Note_on_c, 9, 42, 64
1, 43050, Note_on_c, 9, 36, 64
1, 43080, Note_on_c, 9, 42, 0
1, 43080, Note_on_c, 9, 36, 0
1, 43080, Note_on_c, 9, 42, 64
1, 43080, Note_on_c, 9, 36, 64
1, 43110, Note_on_c, 9, 42, 0
1, 43110, Note_on_c, 9, 36, 0
1, 43170, Note_on_c, 9, 42, 64
1, 43170, Note_on_c, 9, 38, 64
1, 43200, Note_on_c, 9, 42, 0
1, 43200, Note_on_c, 9, 38, 0
1, 43200, Note_on_c, 9, 42, 64
1, 43200, Note_on_c, 9, 36, 64
1, 43230, Note_on_c, 9, 42, 0
1, 43230, Note_on_c, 9, 36, 0
1, 43290, Note_on_c, 9, 42, 64
1, 43320, Note_on_c, 9, 42, 0
1, 43320, Note_on_c, 9, 42, 64
1, 43320, Note_on_c, 9, 47, 64
1, 43350, Note_on_c, 9, 42, 0
1, 43350, Note_on_c, 9, 47, 0
1, 43410, Note_on_c, 9, 42, 64
1, 43410, Note_on_c, 9, 36, 64
1, 43440, Note_on_c, 9, 42, 0
1, 43440, Note_on_c, 9, 36, 0
1, 43440, Note_on_c, 9, 42, 64
1, 43440, Note_on_c, 9, 38, 64
1, 43470, Note_on_c, 9, 42, 0
1, 43470, Note_on_c, 9, 38, 0
1, 43530, Note_on_c, 9, 42, 64
1, 43560, Note_on_c, 9, 42, 0
1, 43560, Note_on_c, 9, 42, 64
1, 43590, Note_on_c, 9, 42, 0
1, 43650, Note_on_c, 9, 42, 64
1, 43650, Note_on_c, 9, 38, 64
1, 43680, Note_on_c, 9, 42, 0
1, 43680, Note_on_c, 9, 38, 0
1, 43680, Note_on_c, 9, 42, 64
1, 43710, Note_on_c, 9, 42, 0
1, 43770, Note_on_c, 9, 42, 64
1, 43770, Note_on_c, 9, 38, 64
1, 43800, Note_on_c, 9, 42, 0
1, 43800, Note_on_c, 9, 38, 0
1, 43800, Note_on_c, 9, 42, 64
1, 43800, Note_on_c, 9, 36, 64
1, 43830, Note_on_c, 9, 42, 0
1, 43830, Note_on_c, 9, 36, 0
1, 43890, Note_on_c, 9, 42, 64
1, 43890, Note_on_c, 9, 36, 64
1, 43920, Note_on_c, 9, 42, 0
1, 43920, Note_on_c, 9, 36, 0
1, 43920, Note_on_c, 9, 42, 64
1, 43920, Note_on_c, 9, 38, 64
1, 43950, Note_on_c, 9, 42, 0
1, 43950, Note_on_c, 9, 38, 0
1, 44010, Note_on_c, 9, 42, 64
1, 44010, Note_on_c, 9, 36, 64
1, 44040, Note_on_c, 9, 42, 0
1, 44040, Note_on_c, 9, 36, 0
1, 44040, Note_on_c, 9, 42, 64
1, 44040, Note_on_c, 9, 36, 64
1, 44070, Note_on_c, 9, 42, 0
1, 44070, Note_on_c, 9, 36, 0
1, 44130, Note_on_c, 9, 42, 64
1, 44130, Note_on_c, 9, 38, 64
1, 44160, Note_on_c, 9, 42, 0
1, 44160, Note_on_c, 9, 38, 0
1, 44160, Note_on_c, 9, 42, 64
1, 44190, Note_on_c, 9, 42, 0
1, 44250, Note_on_c, 9, 42, 64
1, 44250, Note_on_c, 9, 38, 64
1, 44280, Note_on_c, 9, 42, 0
1, 44280, Note_on_c, 9, 38, 0
1, 44280, Note_on_c, 9, 42, 64
1, 44280, Note_on_c, 9, 36, 64
1, 44310, Note_on_c, 9, 42, 0
1, 44310, Note_on_c, 9, 36, 0
1, 44370, Note_on_c, 9, 42, 64
1, 44370, Note_on_c, 9, 36, 64
1, 44400, Note_on_c, 9, 42, 0
1, 44400, Note_on_c, 9, 36, 0
1, 44400, Note_on_c, 9, 42, 64
1, 44400, Note_on_c, 9, 38, 64
1, 44430, Note_on_c, 9, 42, 0
1, 44430, Note_on_c, 9, 38, 0
1, 44490, Note_on_c, 9, 42, 64
1, 44490, Note_on_c, 9, 36, 64
1, 44520, Note_on_c, 9, 42, 0
1, 44520, Note_on_c, 9, 36, 0
1, 44520, Note_on_c, 9, 42, 64
1, 44520, Note_on_c, 9, 36, 64
1, 44550, Note_on_c, 9, 42, 0
1, 44550, Note_on_c, 9, 36, 0
1, 44610, Note_on_c, 9, 42, 64
1, 44610, Note_on_c, 9, 38, 64
1, 44640, Note_on_c, 9, 42, 0
1, 44640, Note_on_c, 9, 38, 0
1, 44640, Note_on_c, 9, 42, 64
1, 44640, Note_on_c, 9, 36, 64
1, 44670, Note_on_c, 9, 42, 0
1, 44670, Note_on_c, 9, 36, 0
1, 44730, Note_on_c, 9, 42, 64
1, 44760, Note_on_c, 9, 42, 0
1, 44760, Note_on_c, 9, 42, 64
1, 44790, Note_on_c, 9, 42, 0
1, 44850, Note_on_c, 9, 42, 64
1, 44880, Note_on_c, 9, 42, 0
1, 44880, Note_on_c, 9, 42, 64
1, 44880, Note_on_c, 9, 38, 64
1, 44910, Note_on_c, 9, 42, 0
1, 44910, Note_on_c, 9, 38, 0
1, 44970, Note_on_c, 9, 42, 64
1, 45000, Note_on_c, 9, 42, 0
1, 45000, Note_on_c, 9, 42, 64
1, 45030, Note_on_c, 9, 42, 0
1, 45090, Note_on_c, 9, 42, 64
1, 45120, Note_on_c, 9, 42, 0
1, 45120, Note_on_c, 9, 42, 64
1, 45150, Note_on_c, 9, 42, 0
1, 45210, Note_on_c, 9, 42, 64
1, 45210, Note_on_c, 9, 38, 64
1, 45240, Note_on_c, 9, 42, 0
1, 45240, Note_on_c, 9, 38, 0
1, 45240, Note_on_c, 9, 42, 64
1, 45240, Note_on_c, 9, 36, 64
1, 45270, Note_on_c, 9, 42, 0
1, 45270, Note_on_c, 9, 36, 0
1, 45330, Note_on_c, 9, 42, 64
1, 45330, Note_on_c, 9, 36, 64
1, 45360, Note_on_c, 9, 42, 0
1, 45360, Note_on_c, 9, 36, 0
1, 45360, Note_on_c, 9, 42, 64
1, 45360, Note_on_c, 9, 38, 64
1, 45390, Note_on_c, 9, 42, 0
1, 45390, Note_on_c, 9, 38, 0
1, 45450, Note_on_c, 9, 42, 64
1, 45450, Note_on_c, 9, 36, 64
1, 45480, Note_on_c, 9, 42, 0
1, 45480, Note_on_c, 9, 36, 0
1, 45480, Note_on_c, 9, 42, 64
1, 45480, Note_on_c, 9, 36, 64
1, 45510, Note_on_c, 9, 42, 0
1, 45510, Note_on_c, 9, 36, 0
1, 45570, Note_on_c, 9, 42, 64
1, 45570, Note_on_c, 9, 38, 64
1, 45600, Note_on_c, 9, 42, 0
1, 45600, Note_on_c, 9, 38, 0
1, 45600, Note_on_c, 9, 42, 64
1, 45600, Note_on_c, 9, 36, 64
1, 45630, Note_on_c, 9, 42, 0
1, 45630, Note_on_c, 9, 36, 0
1, 45690, Note_on_c, 9, 42, 64
1, 45720, Note_on_c, 9, 42, 0
1, 45720, Note_on_c, 9, 42, 64
1, 45750, Note_on_c, 9, 42, 0
1, 45810, Note_on_c, 9, 42, 64
1, 45840, Note_on_c, 9, 42, 0
1, 45840, Note_on_c, 9, 42, 64
1, 45840, Note_on_c, 9, 38, 64
1, 45870, Note_on_c, 9, 42, 0
1, 45870, Note_on_c, 9, 38, 0
1, 45930, Note_on_c, 9, 42, 64
1, 45960, Note_on_c, 9, 42, 0
1, 45960, Note_on_c, 9, 42, 64
1, 45990, Note_on_c, 9, 42, 0
1, 46050, Note_on_c, 9, 42, 64
1, 46080, Note_on_c, 9, 42, 0
1, 46080, Note_on_c, 9, 42, 64
1, 46110, Note_on_c, 9, 42, 0
1, 46170, Note_on_c, 9, 42, 64
1, 46200, Note_on_c, 9, 42, 0
1, 46200, Note_on_c, 9, 42, 64
1, 46230, Note_on_c, 9, 42, 0
1, 46290, Note_on_c, 9, 42, 64
1, 46320, Note_on_c, 9, 42, 0
1, 46320, Note_on_c, 9, 42, 64
1, 46350, Note_on_c, 9, 42, 0
1, 46410, Note_on_c, 9, 42, 64
1, 46440, Note_on_c, 9, 42, 0
1, 46440, Note_on_c, 9, 42, 64
1, 46470, Note_on_c, 9, 42, 0
1, 46530, Note_on_c, 9, 42, 64
1, 46560, Note_on_c, 9, 42, 0
1, 46560, Note_on_c, 9, 42, 64
1, 46590, Note_on_c, 9, 42, 0
1, 46650, Note_on_c, 9, 42, 64
1, 46680, Note_on_c, 9, 42, 0
1, 46680, Note_on_c, 9, 42, 64
1, 46710, Note_on_c, 9, 42, 0
1, 46770, Note_on_c, 9, 42, 64
1, 46800, Note_on_c, 9, 42, 0
1, 46800, Note_on_c, 9, 42, 64
1, 46830, Note_on_c, 9, 42, 0
1, 46890, Note_on_c, 9, 42, 64
1, 46920, Note_on_c, 9, 42, 0
1, 46920, Note_on_c, 9, 42, 64
1, 46950, Note_on_c, 9, 42, 0
1, 47010, Note_on_c, 9, 42, 64
1, 47040, Note_on_c, 9, 42, 0
1, 47040, Note_on_c, 9, 42, 64
1, 47070, Note_on_c, 9, 42, 0
1, 47130, Note_on_c, 9, 42, 64
1, 47160, Note_on_c, 9, 42, 0
1, 47160, Note_on_c, 9, 42, 64
1, 47190, Note_on_c, 9, 42, 0
1, 47250, Note_on_c, 9, 42, 64
1, 47280, Note_on_c, 9, 42, 0
1, 47280, Note_on_c, 9, 42, 64
1, 47310, Note_on_c, 9, 42, 0
1, 47370, Note_on_c, 9, 42, 64
1, 47400, Note_on_c, 9, 42, 0
1, 47400, Note_on_c, 9, 42, 64
1, 47430, Note_on_c, 9, 42, 0
1, 47490, Note_on_c, 9, 42, 64
1, 47520, Note_on_c, 9, 42, 0
1, 47520, Note_on_c, 9, 42, 64
1, 47550, Note_on_c, 9, 42, 0
1, 47610, Note_on_c, 9, 42, 64
1, 47640, Note_on_c, 9, 42, 0
1, 47640, Note_on_c, 9, 42, 64
1, 47670, Note_on_c, 9, 42, 0
1, 47730, Note_on_c, 9, 42, 64
1, 47760, Note_on_c, 9, 42, 0
1, 47760, Note_on_c, 9, 42, 64
1, 47790, Note_on_c, 9, 42, 0
1, 47850, Note_on_c, 9, 42, 64
1, 47880, Note_on_c, 9, 42, 0
1, 47880, Note_on_c, 9, 42, 64
1, 47910, Note_on_c, 9, 42, 0
1, 47970, Note_on_c, 9, 42, 64
1, 48000, Note_on_c, 9, 42, 0
1, 48000, Note_on_c, 9, 42, 64
1, 48030, Note_on_c, 9, 42, 0
1, 48090, Note_on_c, 9, 42, 64
1, 48120, Note_on_c, 9, 42, 0
1, 48120, Note_on_c, 9, 42, 64
1, 48150, Note_on_c, 9, 42, 0
1, 48210, Note_on_c, 9, 42, 64
1, 48240, Note_on_c, 9, 42, 0
1, 48240, Note_on_c, 9, 42, 64
1, 48270, Note_on_c, 9, 42, 0
1, 48330, Note_on_c, 9, 42, 64
1, 48360, Note_on_c, 9, 42, 0
1, 48360, Note_on_c, 9, 42, 64
1, 48390, Note_on_c, 9, 42, 0
1, 48450, Note_on_c, 9, 42, 64
1, 48480, Note_on_c, 9, 42, 0
1, 48480, Note_on_c, 9, 42, 64
1, 48510, Note_on_c, 9, 42, 0
1, 48570, Note_on_c, 9, 42, 64
1, 48600, Note_on_c, 9, 42, 0
1, 48600, Note_on_c, 9, 42, 64
1, 48630, Note_on_c, 9, 42, 0
1, 48690, Note_on_c, 9, 42, 64
1, 48720, Note_on_c, 9, 42, 0
1, 48720, Note_on_c, 9, 42, 64
1, 48750, Note_on_c, 9, 42, 0
1, 48810, Note_on_c, 9, 42, 64
1, 48840, Note_on_c, 9, 42, 0
1, 48840, Note_on_c, 9, 42, 64
1, 48870, Note_on_c, 9, 42, 0
1, 48930, Note_on_c, 9, 42, 64
1, 48960, Note_on_c, 9, 42, 0
1, 48960, Note_on_c, 9, 42, 64
1, 48990, Note_on_c, 9, 42, 0
1, 49050, Note_on_c, 9, 42, 64
1, 49080, Note_on_c, 9, 42, 0
1, 49080, Note_on_c, 9, 42, 64
1, 49110, Note_on_c, 9, 42, 0
1, 49170, Note_on_c, 9, 42, 64
1, 49200, Note_on_c, 9, 42, 0
1, 49200, Note_on_c, 9, 42, 64
1, 49230, Note_on_c, 9, 42, 0
1, 49290, Note_on_c, 9, 42, 64
1, 49320, Note_on_c, 9, 42, 0
1, 49320, Note_on_c, 9, 42, 64
1, 49350, Note_on_c, 9, 42, 0
1, 49410, Note_on_c, 9, 42, 64
1, 49440, Note_on_c, 9, 42, 0
1, 49440, Note_on_c, 9, 42, 64
1, 49470, Note_on_c, 9, 42, 0
1, 49530, Note_on_c, 9, 42, 64
1, 49560, Note_on_c, 9, 42, 0
1, 49560, Note_on_c, 9, 42, 64
1, 49590, Note_on_c, 9, 42, 0
1, 49650, Note_on_c, 9, 42, 64
1, 49680, Note_on_c, 9, 42, 0
1, 49680, Note_on_c, 9, 42, 64
1, 49710, Note_on_c, 9, 42, 0
1, 49770, Note_on_c, 9, 42, 64
1, 49800, Note_on_c, 9, 42, 0
1, 49800, Note_on_c, 9, 42, 64
1, 49830, Note_on_c, 9, 42, 0
1, 49890, Note_on_c, 9, 42, 64
1, 49920, Note_on_c, 9, 42, 0
1, 50160, Note_on_c, 9, 38, 64
1, 50190, Note_on_c, 9, 38, 0
1, 50490, Note_on_c, 9, 47, 64
1, 50520, Note_on_c, 9, 47, 0
1, 50640, Note_on_c, 9, 38, 64
1, 50670, Note_on_c, 9, 38, 0
1, 51000, Note_on_c, 9, 47, 64
1, 51030, Note_on_c, 9, 47, 0
1, 51120, Note_on_c, 9, 38, 64
1, 51150, Note_on_c, 9, 38, 0
1, 51330, Note_on_c, 9, 38, 64
1, 51360, Note_on_c, 9, 38, 0
1, 51450, Note_on_c, 9, 47, 64
1, 51480, Note_on_c, 9, 47, 0
1, 51600, Note_on_c, 9, 38, 64
1, 51630, Note_on_c, 9, 38, 0
1, 51810, Note_on_c, 9, 38, 64
1, 51840, Note_on_c, 9, 38, 0
1, 52080, Note_on_c, 9, 38, 64
1, 52110, Note_on_c, 9, 38, 0
1, 52410, Note_on_c, 9, 47, 64
1, 52440, Note_on_c, 9, 47, 0
1, 52560, Note_on_c, 9, 38, 64
1, 52590, Note_on_c, 9, 38, 0
1, 52920, Note_on_c, 9, 47, 64
1, 52950, Note_on_c, 9, 47, 0
1, 53040, Note_on_c, 9, 38, 64
1, 53070, Note_on_c, 9, 38, 0
1, 53250, Note_on_c, 9, 38, 64
1, 53280, Note_on_c, 9, 38, 0
1, 53370, Note_on_c, 9, 47, 64
1, 53400, Note_on_c, 9, 47, 0
1, 53520, Note_on_c, 9, 38, 64
1, 53550, Note_on_c, 9, 38, 0
1, 53730, Note_on_c, 9, 38, 64
1, 53760, Note_on_c, 9, 38, 0
1, 53760, Note_on_c, 9, 36, 64
1, 53790, Note_on_c, 9, 36, 0
1, 54330, Note_on_c, 9, 36, 64
1, 54360, Note_on_c, 9, 36, 0
1, 54360, Note_on_c, 9, 36, 64
1, 54390, Note_on_c, 9, 36, 0
1, 54570, Note_on_c, 9, 36, 64
1, 54600, Note_on_c, 9, 36, 0
1, 54720, Note_on_c, 9, 36, 64
1, 54750, Note_on_c, 9, 36, 0
1, 54930, Note_on_c, 9, 36, 64
1, 54960, Note_on_c, 9, 36, 0
1, 55320, Note_on_c, 9, 36, 64
1, 55350, Note_on_c, 9, 36, 0
1, 55410, Note_on_c, 9, 36, 64
1, 55440, Note_on_c, 9, 36, 0
1, 55530, Note_on_c, 9, 36, 64
1, 55560, Note_on_c, 9, 36, 0
1, 55560, Note_on_c, 9, 36, 64
1, 55590, Note_on_c, 9, 36, 0
1, 55680, Note_on_c, 9, 36, 64
1, 55710, Note_on_c, 9, 36, 0
1, 56250, Note_on_c, 9, 36, 64
1, 56280, Note_on_c, 9, 36, 0
1, 56280, Note_on_c, 9, 36, 64
1, 56310, Note_on_c, 9, 36, 0
1, 56490, Note_on_c, 9, 36, 64
1, 56520, Note_on_c, 9, 36, 0
1, 56640, Note_on_c, 9, 36, 64
1, 56670, Note_on_c, 9, 36, 0
1, 56850, Note_on_c, 9, 36, 64
1, 56880, Note_on_c, 9, 36, 0
1, 57240, Note_on_c, 9, 36, 64
1, 57270, Note_on_c, 9, 36, 0
1, 57330, Note_on_c, 9, 36, 64
1, 57360, Note_on_c, 9, 36, 0
1, 57450, Note_on_c, 9, 36, 64
1, 57480, Note_on_c, 9, 36, 0
1, 57480, Note_on_c, 9, 36, 64
1, 57510, Note_on_c, 9, 36, 0
1, 57600, Note_on_c, 9, 42, 64
1, 57600, Note_on_c, 9, 36, 64
1, 57630, Note_on_c, 9, 42, 0
1, 57630, Note_on_c, 9, 36, 0
1, 57690, Note_on_c, 9, 42, 64
1, 57720, Note_on_c, 9, 42, 0
1, 57720, Note_on_c, 9, 42, 64
1, 57750, Note_on_c, 9, 42, 0
1, 57810, Note_on_c, 9, 42, 64
1, 57840, Note_on_c, 9, 42, 0
1, 57840, Note_on_c, 9, 42, 64
1, 57840, Note_on_c, 9, 38, 64
1, 57870, Note_on_c, 9, 42, 0
1, 57870, Note_on_c, 9, 38, 0
1, 57930, Note_on_c, 9, 42, 64
1, 57960, Note_on_c, 9, 42, 0
1, 57960, Note_on_c, 9, 42, 64
1, 57990, Note_on_c, 9, 42, 0
1, 58050, Note_on_c, 9, 42, 64
1, 58080, Note_on_c, 9, 42, 0
1, 58080, Note_on_c, 9, 42, 64
1, 58110, Note_on_c, 9, 42, 0
1, 58170, Note_on_c, 9, 42, 64
1, 58170, Note_on_c, 9, 47, 64
1, 58170, Note_on_c, 9, 36, 64
1, 58200, Note_on_c, 9, 42, 0
1, 58200, Note_on_c, 9, 47, 0
1, 58200, Note_on_c, 9, 36, 0
1, 58200, Note_on_c, 9, 42, 64
1, 58200, Note_on_c, 9, 36, 64
1, 58230, Note_on_c, 9, 42, 0
1, 58230, Note_on_c, 9, 36, 0
1, 58290, Note_on_c, 9, 42, 64
1, 58320, Note_on_c, 9, 42, 0
1, 58320, Note_on_c, 9, 42, 64
1, 58320, Note_on_c, 9, 38, 64
1, 58350, Note_on_c, 9, 42, 0
1, 58350, Note_on_c, 9, 38, 0
1, 58410, Note_on_c, 9, 42, 64
1, 58410, Note_on_c, 9, 36, 64
1, 58440, Note_on_c, 9, 42, 0
1, 58440, Note_on_c, 9, 36, 0
1, 58440, Note_on_c, 9, 42, 64
1, 58470, Note_on_c, 9, 42, 0
1, 58530, Note_on_c, 9, 42, 64
1, 58560, Note_on_c, 9, 42, 0
1, 58560, Note_on_c, 9, 42, 64
1, 58560, Note_on_c, 9, 36, 64
1, 58590, Note_on_c, 9, 42, 0
1, 58590, Note_on_c, 9, 36, 0
1, 58650, Note_on_c, 9, 42, 64
1, 58680, Note_on_c, 9, 42, 0
1, 58680, Note_on_c, 9, 42, 64
1, 58680, Note_on_c, 9, 47, 64
1, 58710, Note_on_c, 9, 42, 0
1, 58710, Note_on_c, 9, 47, 0
1, 58770, Note_on_c, 9, 42, 64
1, 58770, Note_on_c, 9, 36, 64
1, 58800, Note_on_c, 9, 42, 0
1, 58800, Note_on_c, 9, 36, 0
1, 58800, Note_on_c, 9, 42, 64
1, 58800, Note_on_c, 9, 38, 64
1, 58830, Note_on_c, 9, 42, 0
1, 58830, Note_on_c, 9, 38, 0
1, 58890, Note_on_c, 9, 42, 64
1, 58920, Note_on_c, 9, 42, 0
1, 58920, Note_on_c, 9, 42, 64
1, 58950, Note_on_c, 9, 42, 0
1, 59010, Note_on_c, 9, 42, 64
1, 59010, Note_on_c, 9, 38, 64
1, 59040, Note_on_c, 9, 42, 0
1, 59040, Note_on_c, 9, 38, 0
1, 59040, Note_on_c, 9, 42, 64
1, 59070, Note_on_c, 9, 42, 0
1, 59130, Note_on_c, 9, 42, 64
1, 59130, Note_on_c, 9, 38, 64
1, 59160, Note_on_c, 9, 42, 0
1, 59160, Note_on_c, 9, 38, 0
1, 59160, Note_on_c, 9, 42, 64
1, 59160, Note_on_c, 9, 36, 64
1, 59190, Note_on_c, 9, 42, 0
1, 59190, Note_on_c, 9, 36, 0
1, 59250, Note_on_c, 9, 42, 64
1, 59250, Note_on_c, 9, 36, 64
1, 59280, Note_on_c, 9, 42, 0
1, 59280, Note_on_c, 9, 36, 0
1, 59280, Note_on_c, 9, 42, 64
1, 59280, Note_on_c, 9, 38, 64
1, 59310, Note_on_c, 9, 42, 0
1, 59310, Note_on_c, 9, 38, 0
1, 59370, Note_on_c, 9, 42, 64
1, 59370, Note_on_c, 9, 36, 64
1, 59400, Note_on_c, 9, 42, 0
1, 59400, Note_on_c, 9, 36, 0
1, 59400, Note_on_c, 9, 42, 64
1, 59400, Note_on_c, 9, 36, 64
1, 59430, Note_on_c, 9, 42, 0
1, 59430, Note_on_c, 9, 36, 0
1, 59490, Note_on_c, 9, 42, 64
1, 59490, Note_on_c, 9, 38, 64
1, 59520, Note_on_c, 9, 42, 0
1, 59520, Note_on_c, 9, 38, 0
1, 59520, Note_on_c, 9, 42, 64
1, 59520, Note_on_c, 9, 36, 64
1, 59550, Note_on_c, 9, 42, 0
1, 59550, Note_on_c, 9, 36, 0
1, 59610, Note_on_c, 9, 42, 64
1, 59640, Note_on_c, 9, 42, 0
1, 59640, Note_on_c, 9, 42, 64
1, 59670, Note_on_c, 9, 42, 0
1, 59730, Note_on_c, 9, 42, 64
1, 59760, Note_on_c, 9, 42, 0
1, 59760, Note_on_c, 9, 42, 64
1, 59760, Note_on_c, 9, 38, 64
1, 59790, Note_on_c, 9, 42, 0
1, 59790, Note_on_c, 9, 38, 0
1, 59850, Note_on_c, 9, 42, 64
1, 59880, Note_on_c, 9, 42, 0
1, 59880, Note_on_c, 9, 42, 64
1, 59910, Note_on_c, 9, 42, 0
1, 59970, Note_on_c, 9, 42, 64
1, 60000, Note_on_c, 9, 42, 0
1, 60000, Note_on_c, 9, 42, 64
1, 60030, Note_on_c, 9, 42, 0
1, 60090, Note_on_c, 9, 42, 64
1, 60090, Note_on_c, 9, 47, 64
1, 60090, Note_on_c, 9, 36, 64
1, 60120, Note_on_c, 9, 42, 0
1, 60120, Note_on_c, 9, 47, 0
1, 60120, Note_on_c, 9, 36, 0
1, 60120, Note_on_c, 9, 42, 64
1, 60120, Note_on_c, 9, 36, 64
1, 60150, Note_on_c, 9, 42, 0
1, 60150, Note_on_c, 9, 36, 0
1, 60210, Note_on_c, 9, 42, 64
1, 60240, Note_on_c, 9, 42, 0
1, 60240, Note_on_c, 9, 42, 64
1, 60240, Note_on_c, 9, 38, 64
1, 60270, Note_on_c, 9, 42, 0
1, 60270, Note_on_c, 9, 38, 0
1, 60330, Note_on_c, 9, 42, 64
1, 60330, Note_on_c, 9, 36, 64
1, 60360, Note_on_c, 9, 42, 0
1, 60360, Note_on_c, 9, 36, 0
1, 60360, Note_on_c, 9, 42, 64
1, 60390, Note_on_c, 9, 42, 0
1, 60450, Note_on_c, 9, 42, 64
1, 60480, Note_on_c, 9, 42, 0
1, 60480, Note_on_c, 9, 42, 64
1, 60480, Note_on_c, 9, 36, 64
1, 60510, Note_on_c, 9, 42, 0
1, 60510, Note_on_c, 9, 36, 0
1, 60570, Note_on_c, 9, 42, 64
1, 60600, Note_on_c, 9, 42, 0
1, 60600, Note_on_c, 9, 42, 64
1, 60600, Note_on_c, 9, 47, 64
1, 60630, Note_on_c, 9, 42, 0
1, 60630, Note_on_c, 9, 47, 0
1, 60690, Note_on_c, 9, 42, 64
1, 60690, Note_on_c, 9, 36, 64
1, 60720, Note_on_c, 9, 42, 0
1, 60720, Note_on_c, 9, 36, 0
1, 60720, Note_on_c, 9, 42, 64
1, 60720, Note_on_c, 9, 38, 64
1, 60750, Note_on_c, 9, 42, 0
1, 60750, Note_on_c, 9, 38, 0
1, 60810, Note_on_c, 9, 42, 64
1, 60840, Note_on_c, 9, 42, 0
1, 60840, Note_on_c, 9, 42, 64
1, 60870, Note_on_c, 9, 42, 0
1, 60930, Note_on_c, 9, 42, 64
1, 60930, Note_on_c, 9, 38, 64
1, 60960, Note_on_c, 9, 42, 0
1, 60960, Note_on_c, 9, 38, 0
1, 60960, Note_on_c, 9, 42, 64
1, 60990, Note_on_c, 9, 42, 0
1, 61050, Note_on_c, 9, 42, 64
1, 61050, Note_on_c, 9, 38, 64
1, 61080, Note_on_c, 9, 42, 0
1, 61080, Note_on_c, 9, 38, 0
1, 61080, Note_on_c, 9, 42, 64
1, 61080, Note_on_c, 9, 36, 64
1, 61110, Note_on_c, 9, 42, 0
1, 61110, Note_on_c, 9, 36, 0
1, 61170, Note_on_c, 9, 42, 64
1, 61170, Note_on_c, 9, 36, 64
1, 61200, Note_on_c, 9, 42, 0
1, 61200, Note_on_c, 9, 36, 0
1, 61200, Note_on_c, 9, 42, 64
1, 61200, Note_on_c, 9, 38, 64
1, 61230, Note_on_c, 9, 42, 0
1, 61230, Note_on_c, 9, 38, 0
1, 61290, Note_on_c, 9, 42, 64
1, 61290, Note_on_c, 9, 36, 64
1, 61320, Note_on_c, 9, 42, 0
1, 61320, Note_on_c, 9, 36, 0
1, 61320, Note_on_c, 9, 42, 64
1, 61320, Note_on_c, 9, 36, 64
1, 61350, Note_on_c, 9, 42, 0
1, 61350, Note_on_c, 9, 36, 0
1, 61410, Note_on_c, 9, 42, 64
1, 61410, Note_on_c, 9, 38, 64
1, 61440, Note_on_c, 9, 42, 0
1, 61440, Note_on_c, 9, 38, 0
1, 61560, Note_on_c, 9, 69, 64
1, 61590, Note_on_c, 9, 69, 0
1, 61800, Note_on_c, 9, 69, 64
1, 61830, Note_on_c, 9, 69, 0
1, 62040, Note_on_c, 9, 69, 64
1, 62070, Note_on_c, 9, 69, 0
1, 62130, Note_on_c, 9, 69, 64
1, 62160, Note_on_c, 9, 69, 0
1, 62160, Note_on_c, 9, 69, 64
1, 62190, Note_on_c, 9, 69, 0
1, 62250, Note_on_c, 9, 69, 64
1, 62280, Note_on_c, 9, 69, 0
1, 62280, Note_on_c, 9, 69, 64
1, 62310, Note_on_c, 9, 69, 0
1, 62370, Note_on_c, 9, 69, 64
1, 62400, Note_on_c, 9, 69, 0
1, 62520, Note_on_c, 9, 69, 64
1, 62550, Note_on_c, 9, 69, 0
1, 62760, Note_on_c, 9, 69, 64
1, 62790, Note_on_c, 9, 69, 0
1, 62850, Note_on_c, 9, 69, 64
1, 62880, Note_on_c, 9, 69, 0
1, 62880, Note_on_c, 9, 69, 64
1, 62910, Note_on_c, 9, 69, 0
1, 62970, Note_on_c, 9, 69, 64
1, 63000, Note_on_c, 9, 69, 0
1, 63000, Note_on_c, 9, 69, 64
1, 63030, Note_on_c, 9, 69, 0
1, 63120, Note_on_c, 9, 69, 64
1, 63150, Note_on_c, 9, 69, 0
1, 63240, Note_on_c, 9, 69, 64
1, 63270, Note_on_c, 9, 69, 0
1, 63480, Note_on_c, 9, 69, 64
1, 63510, Note_on_c, 9, 69, 0
1, 63720, Note_on_c, 9, 69, 64
1, 63750, Note_on_c, 9, 69, 0
1, 63960, Note_on_c, 9, 69, 64
1, 63990, Note_on_c, 9, 69, 0
1, 64050, Note_on_c, 9, 69, 64
1, 64080, Note_on_c, 9, 69, 0
1, 64080, Note_on_c, 9, 69, 64
1, 64110, Note_on_c, 9, 69, 0
1, 64170, Note_on_c, 9, 69, 64
1, 64200, Note_on_c, 9, 69, 0
1, 64200, Note_on_c, 9, 69, 64
1, 64230, Note_on_c, 9, 69, 0
1, 64290, Note_on_c, 9, 69, 64
1, 64320, Note_on_c, 9, 69, 0
1, 64440, Note_on_c, 9, 69, 64
1, 64470, Note_on_c, 9, 69, 0
1, 64680, Note_on_c, 9, 69, 64
1, 64710, Note_on_c, 9, 69, 0
1, 64770, Note_on_c, 9, 69, 64
1, 64800, Note_on_c, 9, 69, 0
1, 64800, Note_on_c, 9, 69, 64
1, 64830, Note_on_c, 9, 69, 0
1, 64890, Note_on_c, 9, 69, 64
1, 64920, Note_on_c, 9, 69, 0
1, 64920, Note_on_c, 9, 69, 64
1, 64950, Note_on_c, 9, 69, 0
1, 65040, Note_on_c, 9, 69, 64
1, 65070, Note_on_c, 9, 69, 0
1, 65160, Note_on_c, 9, 69, 64
1, 65190, Note_on_c, 9, 69, 0
1, 65520, Note_on_c, 9, 39, 64
1, 65580, Note_on_c, 9, 39, 0
1, 66000, Note_on_c, 9, 39, 64
1, 66060, Note_on_c, 9, 39, 0
1, 66480, Note_on_c, 9, 39, 64
1, 66510, Note_on_c, 9, 39, 0
1, 66810, Note_on_c, 9, 39, 64
1, 66840, Note_on_c, 9, 39, 0
1, 66960, Note_on_c, 9, 39, 64
1, 66990, Note_on_c, 9, 39, 0
1, 67170, Note_on_c, 9, 39, 64
1, 67200, Note_on_c, 9, 39, 0
1, 67440, Note_on_c, 9, 39, 64
1, 67500, Note_on_c, 9, 39, 0
1, 67920, Note_on_c, 9, 39, 64
1, 67980, Note_on_c, 9, 39, 0
1, 68400, Note_on_c, 9, 39, 64
1, 68430, Note_on_c, 9, 39, 0
1, 68730, Note_on_c, 9, 39, 64
1, 68760, Note_on_c, 9, 39, 0
1, 68880, Note_on_c, 9, 39, 64
1, 68910, Note_on_c, 9, 39, 0
1, 69090, Note_on_c, 9, 39, 64
1, 69120, Note_on_c, 9, 39, 0
1, 69120, Note_on_c, 9, 56, 64
1, 69150, Note_on_c, 9, 56, 0
1, 69360, Note_on_c, 9, 56, 64
1, 69390, Note_on_c, 9, 56, 0
1, 69690, Note_on_c, 9, 56, 64
1, 69720, Note_on_c, 9, 56, 0
1, 69720, Note_on_c, 9, 56, 64
1, 69750, Note_on_c, 9, 56, 0
1, 69960, Note_on_c, 9, 56, 64
1, 69990, Note_on_c, 9, 56, 0
1, 70050, Note_on_c, 9, 56, 64
1, 70080, Note_on_c, 9, 56, 0
1, 70170, Note_on_c, 9, 56, 64
1, 70200, Note_on_c, 9, 56, 0
1, 70320, Note_on_c, 9, 56, 64
1, 70350, Note_on_c, 9, 56, 0
1, 70680, Note_on_c, 9, 56, 64
1, 70710, Note_on_c, 9, 56, 0
1, 70770, Note_on_c, 9, 56, 64
1, 70800, Note_on_c, 9, 56, 0
1, 70890, Note_on_c, 9, 56, 64
1, 70920, Note_on_c, 9, 56, 0
1, 70920, Note_on_c, 9, 56, 64
1, 70950, Note_on_c, 9, 56, 0
1, 71040, Note_on_c, 9, 56, 64
1, 71070, Note_on_c, 9, 56, 0
1, 71280, Note_on_c, 9, 56, 64
1, 71310, Note_on_c, 9, 56, 0
1, 71610, Note_on_c, 9, 56, 64
1, 71640, Note_on_c, 9, 56, 0
1, 71640, Note_on_c, 9, 56, 64
1, 71670, Note_on_c, 9, 56, 0
1, 71880, Note_on_c, 9, 56, 64
1, 71910, Note_on_c, 9, 56, 0
1, 71970, Note_on_c, 9, 56, 64
1, 72000, Note_on_c, 9, 56, 0
1, 72090, Note_on_c, 9, 56, 64
1, 72120, Note_on_c, 9, 56, 0
1, 72240, Note_on_c, 9, 56, 64
1, 72270, Note_on_c, 9, 56, 0
1, 72600, Note_on_c, 9, 56, 64
1, 72630, Note_on_c, 9, 56, 0
1, 72690, Note_on_c, 9, 56, 64
1, 72720, Note_on_c, 9, 56, 0
1, 72810, Note_on_c, 9, 56, 64
1, 72840, Note_on_c, 9, 56, 0
1, 72840, Note_on_c, 9, 56, 64
1, 72870, Note_on_c, 9, 56, 0
1, 72960, Note_on_c, 9, 56, 64
1, 72990, Note_on_c, 9, 56, 0
1, 73080, Note_on_c, 9, 69, 64
1, 73110, Note_on_c, 9, 69, 0
1, 73200, Note_on_c, 9, 39, 64
1, 73200, Note_on_c, 9, 56, 64
1, 73230, Note_on_c, 9, 39, 0
1, 73230, Note_on_c, 9, 56, 0
1, 73320, Note_on_c, 9, 69, 64
1, 73350, Note_on_c, 9, 69, 0
1, 73530, Note_on_c, 9, 56, 64
1, 73560, Note_on_c, 9, 56, 0
1, 73560, Note_on_c, 9, 69, 64
1, 73560, Note_on_c, 9, 56, 64
1, 73590, Note_on_c, 9, 69, 0
1, 73590, Note_on_c, 9, 56, 0
1, 73650, Note_on_c, 9, 69, 64
1, 73680, Note_on_c, 9, 69, 0
1, 73680, Note_on_c, 9, 69, 64
1, 73680, Note_on_c, 9, 39, 64
1, 73710, Note_on_c, 9, 69, 0
1, 73710, Note_on_c, 9, 39, 0
1, 73770, Note_on_c, 9, 69, 64
1, 73800, Note_on_c, 9, 69, 0
1, 73800, Note_on_c, 9, 69, 64
1, 73800, Note_on_c, 9, 56, 64
1, 73830, Note_on_c, 9, 69, 0
1, 73830, Note_on_c, 9, 56, 0
1, 73890, Note_on_c, 9, 69, 64
1, 73890, Note_on_c, 9, 56, 64
1, 73920, Note_on_c, 9, 69, 0
1, 73920, Note_on_c, 9, 56, 0
1, 74010, Note_on_c, 9, 56, 64
1, 74040, Note_on_c, 9, 56, 0
1, 74040, Note_on_c, 9, 69, 64
1, 74070, Note_on_c, 9, 69, 0
1, 74160, Note_on_c, 9, 39, 64
1, 74160, Note_on_c, 9, 56, 64
1, 74190, Note_on_c, 9, 39, 0
1, 74190, Note_on_c, 9, 56, 0
1, 74280, Note_on_c, 9, 69, 64
1, 74310, Note_on_c, 9, 69, 0
1, 74370, Note_on_c, 9, 69, 64
1, 74400, Note_on_c, 9, 69, 0
1, 74400, Note_on_c, 9, 69, 64
1, 74430, Note_on_c, 9, 69, 0
1, 74490, Note_on_c, 9, 69, 64
1, 74490, Note_on_c, 9, 39, 64
1, 74520, Note_on_c, 9, 69, 0
1, 74520, Note_on_c, 9, 39, 0
1, 74520, Note_on_c, 9, 69, 64
1, 74520, Note_on_c, 9, 56, 64
1, 74550, Note_on_c, 9, 69, 0
1, 74550, Note_on_c, 9, 56, 0
1, 74610, Note_on_c, 9, 56, 64
1, 74640, Note_on_c, 9, 56, 0
1, 74640, Note_on_c, 9, 69, 64
1, 74640, Note_on_c, 9, 39, 64
1, 74670, Note_on_c, 9, 69, 0
1, 74670, Note_on_c, 9, 39, 0
1, 74730, Note_on_c, 9, 56, 64
1, 74760, Note_on_c, 9, 56, 0
1, 74760, Note_on_c, 9, 69, 64
1, 74760, Note_on_c, 9, 56, 64
1, 74790, Note_on_c, 9, 69, 0
1, 74790, Note_on_c, 9, 56, 0
1, 74850, Note_on_c, 9, 39, 64
1, 74880, Note_on_c, 9, 39, 0
1, 74880, Note_on_c, 9, 56, 64
1, 74910, Note_on_c, 9, 56, 0
1, 75000, Note_on_c, 9, 69, 64
1, 75030, Note_on_c, 9, 69, 0
1, 75120, Note_on_c, 9, 39, 64
1, 75120, Note_on_c, 9, 56, 64
1, 75150, Note_on_c, 9, 39, 0
1, 75150, Note_on_c, 9, 56, 0
1, 75240, Note_on_c, 9, 69, 64
1, 75270, Note_on_c, 9, 69, 0
1, 75450, Note_on_c, 9, 56, 64
1, 75480, Note_on_c, 9, 56, 0
1, 75480, Note_on_c, 9, 69, 64
1, 75480, Note_on_c, 9, 56, 64
1, 75510, Note_on_c, 9, 69, 0
1, 75510, Note_on_c, 9, 56, 0
1, 75570, Note_on_c, 9, 69, 64
1, 75600, Note_on_c, 9, 69, 0
1, 75600, Note_on_c, 9, 69, 64
1, 75600, Note_on_c, 9, 39, 64
1, 75630, Note_on_c, 9, 69, 0
1, 75630, Note_on_c, 9, 39, 0
1, 75690, Note_on_c, 9, 69, 64
1, 75720, Note_on_c, 9, 69, 0
1, 75720, Note_on_c, 9, 69, 64
1, 75720, Note_on_c, 9, 56, 64
1, 75750, Note_on_c, 9, 69, 0
1, 75750, Note_on_c, 9, 56, 0
1, 75810, Note_on_c, 9, 69, 64
1, 75810, Note_on_c, 9, 56, 64
1, 75840, Note_on_c, 9, 69, 0
1, 75840, Note_on_c, 9, 56, 0
1, 75930, Note_on_c, 9, 56, 64
1, 75960, Note_on_c, 9, 56, 0
1, 75960, Note_on_c, 9, 69, 64
1, 75990, Note_on_c, 9, 69, 0
1, 76080, Note_on_c, 9, 39, 64
1, 76080, Note_on_c, 9, 56, 64
1, 76110, Note_on_c, 9, 39, 0
1, 76110, Note_on_c, 9, 56, 0
1, 76200, Note_on_c, 9, 69, 64
1, 76230, Note_on_c, 9, 69, 0
1, 76290, Note_on_c, 9, 69, 64
1, 76320, Note_on_c, 9, 69, 0
1, 76320, Note_on_c, 9, 69, 64
1, 76350, Note_on_c, 9, 69, 0
1, 76410, Note_on_c, 9, 69, 64
1, 76410, Note_on_c, 9, 39, 64
1, 76440, Note_on_c, 9, 69, 0
1, 76440, Note_on_c, 9, 39, 0
1, 76440, Note_on_c, 9, 69, 64
1, 76440, Note_on_c, 9, 56, 64
1, 76470, Note_on_c, 9, 69, 0
1, 76470, Note_on_c, 9, 56, 0
1, 76530, Note_on_c, 9, 56, 64
1, 76560, Note_on_c, 9, 56, 0
1, 76560, Note_on_c, 9, 69, 64
1, 76560, Note_on_c, 9, 39, 64
1, 76590, Note_on_c, 9, 69, 0
1, 76590, Note_on_c, 9, 39, 0
1, 76650, Note_on_c, 9, 56, 64
1, 76680, Note_on_c, 9, 56, 0
1, 76680, Note_on_c, 9, 69, 64
1, 76680, Note_on_c, 9, 56, 64
1, 76710, Note_on_c, 9, 69, 0
1, 76710, Note_on_c, 9, 56, 0
1, 76770, Note_on_c, 9, 39, 64
1, 76800, Note_on_c, 9, 39, 0
1, 76800, Note_on_c, 9, 56, 64
1, 76800, Note_on_c, 9, 42, 64
1, 76800, Note_on_c, 9, 36, 64
1, 76830, Note_on_c, 9, 56, 0
1, 76830, Note_on_c, 9, 42, 0
1, 76830, Note_on_c, 9, 36, 0
1, 76890, Note_on_c, 9, 42, 64
1, 76920, Note_on_c, 9, 42, 0
1, 76920, Note_on_c, 9, 69, 64
1, 76920, Note_on_c, 9, 42, 64
1, 76950, Note_on_c, 9, 69, 0
1, 76950, Note_on_c, 9, 42, 0
1, 77010, Note_on_c, 9, 42, 64
1, 77040, Note_on_c, 9, 42, 0
1, 77040, Note_on_c, 9, 39, 64
1, 77040, Note_on_c, 9, 56, 64
1, 77040, Note_on_c, 9, 42, 64
1, 77040, Note_on_c, 9, 38, 64
1, 77070, Note_on_c, 9, 39, 0
1, 77070, Note_on_c, 9, 56, 0
1, 77070, Note_on_c, 9, 42, 0
1, 77070, Note_on_c, 9, 38, 0
1, 77130, Note_on_c, 9, 42, 64
1, 77160, Note_on_c, 9, 42, 0
1, 77160, Note_on_c, 9, 69, 64
1, 77160, Note_on_c, 9, 42, 64
1, 77190, Note_on_c, 9, 69, 0
1, 77190, Note_on_c, 9, 42, 0
1, 77250, Note_on_c, 9, 42, 64
1, 77280, Note_on_c, 9, 42, 0
1, 77280, Note_on_c, 9, 42, 64
1, 77310, Note_on_c, 9, 42, 0
1, 77370, Note_on_c, 9, 56, 64
1, 77370, Note_on_c, 9, 42, 64
1, 77370, Note_on_c, 9, 47, 64
1, 77370, Note_on_c, 9, 36, 64
1, 77400, Note_on_c, 9, 56, 0
1, 77400, Note_on_c, 9, 42, 0
1, 77400, Note_on_c, 9, 47, 0
1, 77400, Note_on_c, 9, 36, 0
1, 77400, Note_on_c, 9, 69, 64
1, 77400, Note_on_c, 9, 56, 64
1, 77400, Note_on_c, 9, 42, 64
1, 77400, Note_on_c, 9, 36, 64
1, 77430, Note_on_c, 9, 69, 0
1, 77430, Note_on_c, 9, 56, 0
1, 77430, Note_on_c, 9, 42, 0
1, 77430, Note_on_c, 9, 36, 0
1, 77490, Note_on_c, 9, 69, 64
1, 77490, Note_on_c, 9, 42, 64
1, 77520, Note_on_c, 9, 69, 0
1, 77520, Note_on_c, 9, 42, 0
1, 77520, Note_on_c, 9, 69, 64
1, 77520, Note_on_c, 9, 39, 64
1, 77520, Note_on_c, 9, 42, 64
1, 77520, Note_on_c, 9, 38, 64
1, 77550, Note_on_c, 9, 69, 0
1, 77550, Note_on_c, 9, 39, 0
1, 77550, Note_on_c, 9, 42, 0
1, 77550, Note_on_c, 9, 38, 0
1, 77610, Note_on_c, 9, 69, 64
1, 77610, Note_on_c, 9, 42, 64
1, 77610, Note_on_c, 9, 36, 64
1, 77640, Note_on_c, 9, 69, 0
1, 77640, Note_on_c, 9, 42, 0
1, 77640, Note_on_c, 9, 36, 0
1, 77640, Note_on_c, 9, 69, 64
1, 77640, Note_on_c, 9, 56, 64
1, 77640, Note_on_c, 9, 42, 64
1, 77670, Note_on_c, 9, 69, 0
1, 77670, Note_on_c, 9, 56, 0
1, 77670, Note_on_c, 9, 42, 0
1, 77730, Note_on_c, 9, 69, 64
1, 77730, Note_on_c, 9, 56, 64
1, 77730, Note_on_c, 9, 42, 64
1, 77760, Note_on_c, 9, 69, 0
1, 77760, Note_on_c, 9, 56, 0
1, 77760, Note_on_c, 9, 42, 0
1, 77760, Note_on_c, 9, 42, 64
1, 77760, Note_on_c, 9, 36, 64
1, 77790, Note_on_c, 9, 42, 0
1, 77790, Note_on_c, 9, 36, 0
1, 77850, Note_on_c, 9, 56, 64
1, 77850, Note_on_c, 9, 42, 64
1, 77880, Note_on_c, 9, 56, 0
1, 77880, Note_on_c, 9, 42, 0
1, 77880, Note_on_c, 9, 69, 64
1, 77880, Note_on_c, 9, 42, 64
1, 77880, Note_on_c, 9, 47, 64
1, 77910, Note_on_c, 9, 69, 0
1, 77910, Note_on_c, 9, 42, 0
1, 77910, Note_on_c, 9, 47, 0
1, 77970, Note_on_c, 9, 42, 64
1, 77970, Note_on_c, 9, 36, 64
1, 78000, Note_on_c, 9, 42, 0
1, 78000, Note_on_c, 9, 36, 0
1, 78000, Note_on_c, 9, 39, 64
1, 78000, Note_on_c, 9, 56, 64
1, 78000, Note_on_c, 9, 42, 64
1, 78000, Note_on_c, 9, 38, 64
1, 78030, Note_on_c, 9, 39, 0
1, 78030, Note_on_c, 9, 56, 0
1, 78030, Note_on_c, 9, 42, 0
1, 78030, Note_on_c, 9, 38, 0
1, 78090, Note_on_c, 9, 42, 64
1, 78120, Note_on_c, 9, 42, 0
1, 78120, Note_on_c, 9, 69, 64
1, 78120, Note_on_c, 9, 42, 64
1, 78150, Note_on_c, 9, 69, 0
1, 78150, Note_on_c, 9, 42, 0
1, 78210, Note_on_c, 9, 69, 64
1, 78210, Note_on_c, 9, 42, 64
1, 78210, Note_on_c, 9, 38, 64
1, 78240, Note_on_c, 9, 69, 0
1, 78240, Note_on_c, 9, 42, 0
1, 78240, Note_on_c, 9, 38, 0
1, 78240, Note_on_c, 9, 69, 64
1, 78240, Note_on_c, 9, 42, 64
1, 78240, Note_on_c, 9, 38, 64
1, 78270, Note_on_c, 9, 69, 0
1, 78270, Note_on_c, 9, 42, 0
1, 78270, Note_on_c, 9, 38, 0
1, 78330, Note_on_c, 9, 69, 64
1, 78330, Note_on_c, 9, 39, 64
1, 78330, Note_on_c, 9, 42, 64
1, 78360, Note_on_c, 9, 69, 0
1, 78360, Note_on_c, 9, 39, 0
1, 78360, Note_on_c, 9, 42, 0
1, 78360, Note_on_c, 9, 69, 64
1, 78360, Note_on_c, 9, 56, 64
1, 78360, Note_on_c, 9, 42, 64
1, 78360, Note_on_c, 9, 36, 64
1, 78390, Note_on_c, 9, 69, 0
1, 78390, Note_on_c, 9, 56, 0
1, 78390, Note_on_c, 9, 42, 0
1, 78390, Note_on_c, 9, 36, 0
1, 78450, Note_on_c, 9, 56, 64
1, 78450, Note_on_c, 9, 42, 64
1, 78450, Note_on_c, 9, 36, 64
1, 78480, Note_on_c, 9, 56, 0
1, 78480, Note_on_c, 9, 42, 0
1, 78480, Note_on_c, 9, 36, 0
1, 78480, Note_on_c, 9, 69, 64
1, 78480, Note_on_c, 9, 39, 64
1, 78480, Note_on_c, 9, 42, 64
1, 78480, Note_on_c, 9, 38, 64
1, 78510, Note_on_c, 9, 69, 0
1, 78510, Note_on_c, 9, 39, 0
1, 78510, Note_on_c, 9, 42, 0
1, 78510, Note_on_c, 9, 38, 0
1, 78570, Note_on_c, 9, 56, 64
1, 78570, Note_on_c, 9, 42, 64
1, 78570, Note_on_c, 9, 36, 64
1, 78600, Note_on_c, 9, 56, 0
1, 78600, Note_on_c, 9, 42, 0
1, 78600, Note_on_c, 9, 36, 0
1, 78600, Note_on_c, 9, 69, 64
1, 78600, Note_on_c, 9, 56, 64
1, 78600, Note_on_c, 9, 42, 64
1, 78600, Note_on_c, 9, 36, 64
1, 78630, Note_on_c, 9, 69, 0
1, 78630, Note_on_c, 9, 56, 0
1, 78630, Note_on_c, 9, 42, 0
1, 78630, Note_on_c, 9, 36, 0
1, 78690, Note_on_c, 9, 39, 64
1, 78690, Note_on_c, 9, 42, 64
1, 78690, Note_on_c, 9, 38, 64
1, 78720, Note_on_c, 9, 39, 0
1, 78720, Note_on_c, 9, 42, 0
1, 78720, Note_on_c, 9, 38, 0
1, 78720, Note_on_c, 9, 56, 64
1, 78720, Note_on_c, 9, 42, 64
1, 78720, Note_on_c, 9, 36, 64
1, 78750, Note_on_c, 9, 56, 0
1, 78750, Note_on_c, 9, 42, 0
1, 78750, Note_on_c, 9, 36, 0
1, 78810, Note_on_c, 9, 42, 64
1, 78840, Note_on_c, 9, 42, 0
1, 78840, Note_on_c, 9, 69, 64
1, 78840, Note_on_c, 9, 42, 64
1, 78870, Note_on_c, 9, 69, 0
1, 78870, Note_on_c, 9, 42, 0
1, 78930, Note_on_c, 9, 42, 64
1, 78960, Note_on_c, 9, 42, 0
1, 78960, Note_on_c, 9, 39, 64
1, 78960, Note_on_c, 9, 56, 64
1, 78960, Note_on_c, 9, 42, 64
1, 78960, Note_on_c, 9, 38, 64
1, 78990, Note_on_c, 9, 39, 0
1, 78990, Note_on_c, 9, 56, 0
1, 78990, Note_on_c, 9, 42, 0
1, 78990, Note_on_c, 9, 38, 0
1, 79050, Note_on_c, 9, 42, 64
1, 79080, Note_on_c, 9, 42, 0
1, 79080, Note_on_c, 9, 69, 64
1, 79080, Note_on_c, 9, 42, 64
1, 79110, Note_on_c, 9, 69, 0
1, 79110, Note_on_c, 9, 42, 0
1, 79170, Note_on_c, 9, 42, 64
1, 79200, Note_on_c, 9, 42, 0
1, 79200, Note_on_c, 9, 42, 64
1, 79230, Note_on_c, 9, 42, 0
1, 79290, Note_on_c, 9, 56, 64
1, 79290, Note_on_c, 9, 42, 64
1, 79290, Note_on_c, 9, 47, 64
1, 79290, Note_on_c, 9, 36, 64
1, 79320, Note_on_c, 9, 56, 0
1, 79320, Note_on_c, 9, 42, 0
1, 79320, Note_on_c, 9, 47, 0
1, 79320, Note_on_c, 9, 36, 0
1, 79320, Note_on_c, 9, 69, 64
1, 79320, Note_on_c, 9, 56, 64
1, 79320, Note_on_c, 9, 42, 64
1, 79320, Note_on_c, 9, 36, 64
1, 79350, Note_on_c, 9, 69, 0
1, 79350, Note_on_c, 9, 56, 0
1, 79350, Note_on_c, 9, 42, 0
1, 79350, Note_on_c, 9, 36, 0
1, 79410, Note_on_c, 9, 69, 64
1, 79410, Note_on_c, 9, 42, 64
1, 79440, Note_on_c, 9, 69, 0
1, 79440, Note_on_c, 9, 42, 0
1, 79440, Note_on_c, 9, 69, 64
1, 79440, Note_on_c, 9, 39, 64
1, 79440, Note_on_c, 9, 42, 64
1, 79440, Note_on_c, 9, 38, 64
1, 79470, Note_on_c, 9, 69, 0
1, 79470, Note_on_c, 9, 39, 0
1, 79470, Note_on_c, 9, 42, 0
1, 79470, Note_on_c, 9, 38, 0
1, 79530, Note_on_c, 9, 69, 64
1, 79530, Note_on_c, 9, 42, 64
1, 79530, Note_on_c, 9, 36, 64
1, 79560, Note_on_c, 9, 69, 0
1, 79560, Note_on_c, 9, 42, 0
1, 79560, Note_on_c, 9, 36, 0
1, 79560, Note_on_c, 9, 69, 64
1, 79560, Note_on_c, 9, 56, 64
1, 79560, Note_on_c, 9, 42, 64
1, 79590, Note_on_c, 9, 69, 0
1, 79590, Note_on_c, 9, 56, 0
1, 79590, Note_on_c, 9, 42, 0
1, 79650, Note_on_c, 9, 69, 64
1, 79650, Note_on_c, 9, 56, 64
1, 79650, Note_on_c, 9, 42, 64
1, 79680, Note_on_c, 9, 69, 0
1, 79680, Note_on_c, 9, 56, 0
1, 79680, Note_on_c, 9, 42, 0
1, 79680, Note_on_c, 9, 42, 64
1, 79680, Note_on_c, 9, 36, 64
1, 79710, Note_on_c, 9, 42, 0
1, 79710, Note_on_c, 9, 36, 0
1, 79770, Note_on_c, 9, 56, 64
1, 79770, Note_on_c, 9, 42, 64
1, 79800, Note_on_c, 9, 56, 0
1, 79800, Note_on_c, 9, 42, 0
1, 79800, Note_on_c, 9, 69, 64
1, 79800, Note_on_c, 9, 42, 64
1, 79800, Note_on_c, 9, 47, 64
1, 79830, Note_on_c, 9, 69, 0
1, 79830, Note_on_c, 9, 42, 0
1, 79830, Note_on_c, 9, 47, 0
1, 79890, Note_on_c, 9, 42, 64
1, 79890, Note_on_c, 9, 36, 64
1, 79920, Note_on_c, 9, 42, 0
1, 79920, Note_on_c, 9, 36, 0
1, 79920, Note_on_c, 9, 39, 64
1, 79920, Note_on_c, 9, 56, 64
1, 79920, Note_on_c, 9, 42, 64
1, 79920, Note_on_c, 9, 38, 64
1, 79950, Note_on_c, 9, 39, 0
1, 79950, Note_on_c, 9, 56, 0
1, 79950, Note_on_c, 9, 42, 0
1, 79950, Note_on_c, 9, 38, 0
1, 80010, Note_on_c, 9, 42, 64
1, 80040, Note_on_c, 9, 42, 0
1, 80040, Note_on_c, 9, 69, 64
1, 80040, Note_on_c, 9, 42, 64
1, 80070, Note_on_c, 9, 69, 0
1, 80070, Note_on_c, 9, 42, 0
1, 80130, Note_on_c, 9, 69, 64
1, 80130, Note_on_c, 9, 42, 64
1, 80130, Note_on_c, 9, 38, 64
1, 80160, Note_on_c, 9, 69, 0
1, 80160, Note_on_c, 9, 42, 0
1, 80160, Note_on_c, 9, 38, 0
1, 80160, Note_on_c, 9, 69, 64
1, 80160, Note_on_c, 9, 42, 64
1, 80160, Note_on_c, 9, 38, 64
1, 80190, Note_on_c, 9, 69, 0
1, 80190, Note_on_c, 9, 42, 0
1, 80190, Note_on_c, 9, 38, 0
1, 80250, Note_on_c, 9, 69, 64
1, 80250, Note_on_c, 9, 39, 64
1, 80250, Note_on_c, 9, 42, 64
1, 80280, Note_on_c, 9, 69, 0
1, 80280, Note_on_c, 9, 39, 0
1, 80280, Note_on_c, 9, 42, 0
1, 80280, Note_on_c, 9, 69, 64
1, 80280, Note_on_c, 9, 56, 64
1, 80280, Note_on_c, 9, 42, 64
1, 80280, Note_on_c, 9, 36, 64
1, 80310, Note_on_c, 9, 69, 0
1, 80310, Note_on_c, 9, 56, 0
1, 80310, Note_on_c, 9, 42, 0
1, 80310, Note_on_c, 9, 36, 0
1, 80370, Note_on_c, 9, 56, 64
1, 80370, Note_on_c, 9, 42, 64
1, 80370, Note_on_c, 9, 36, 64
1, 80400, Note_on_c, 9, 56, 0
1, 80400, Note_on_c, 9, 42, 0
1, 80400, Note_on_c, 9, 36, 0
1, 80400, Note_on_c, 9, 69, 64
1, 80400, Note_on_c, 9, 39, 64
1, 80400, Note_on_c, 9, 42, 64
1, 80400, Note_on_c, 9, 38, 64
1, 80430, Note_on_c, 9, 69, 0
1, 80430, Note_on_c, 9, 39, 0
1, 80430, Note_on_c, 9, 42, 0
1, 80430, Note_on_c, 9, 38, 0
1, 80490, Note_on_c, 9, 56, 64
1, 80490, Note_on_c, 9, 42, 64
1, 80490, Note_on_c, 9, 36, 64
1, 80520, Note_on_c, 9, 56, 0
1, 80520, Note_on_c, 9, 42, 0
1, 80520, Note_on_c, 9, 36, 0
1, 80520, Note_on_c, 9, 69, 64
1, 80520, Note_on_c, 9, 56, 64
1, 80520, Note_on_c, 9, 42, 64
1, 80520, Note_on_c, 9, 36, 64
1, 80550, Note_on_c, 9, 69, 0
1, 80550, Note_on_c, 9, 56, 0
1, 80550, Note_on_c, 9, 42, 0
1, 80550, Note_on_c, 9, 36, 0
1, 80610, Note_on_c, 9, 39, 64
1, 80610, Note_on_c, 9, 42, 64
1, 80610, Note_on_c, 9, 38, 64
1, 80640, Note_on_c, 9, 39, 0
1, 80640, Note_on_c, 9, 42, 0
1, 80640, Note_on_c, 9, 38, 0
1, 80640, Note_on_c, 9, 36, 64
1, 80660, Note_on_c, 9, 36, 0
1, 80720, Note_on_c, 9, 36, 64
1, 80740, Note_on_c, 9, 36, 0
1, 80840, Note_on_c, 9, 36, 64
1, 80860, Note_on_c, 9, 36, 0
1, 80960, Note_on_c, 9, 36, 64
1, 80980, Note_on_c, 9, 36, 0
1, 81080, Note_on_c, 9, 36, 64
1, 81100, Note_on_c, 9, 36, 0
1, 81120, Note_on_c, 9, 47, 64
1, 81140, Note_on_c, 9, 47, 0
1, 81200, Note_on_c, 9, 38, 64
1, 81220, Note_on_c, 9, 38, 0
1, 81240, Note_on_c, 9, 47, 64
1, 81260, Note_on_c, 9, 47, 0
1, 81320, Note_on_c, 9, 36, 64
1, 81340, Note_on_c, 9, 36, 0
1, 81360, Note_on_c, 9, 43, 64
1, 81380, Note_on_c, 9, 43, 0
1, 81400, Note_on_c, 9, 43, 64
1, 81420, Note_on_c, 9, 43, 0
1, 81440, Note_on_c, 9, 38, 64
1, 81460, Note_on_c, 9, 38, 0
1, 81480, Note_on_c, 9, 43, 64
1, 81500, Note_on_c, 9, 43, 0
1, 81560, Note_on_c, 9, 38, 64
1, 81580, Note_on_c, 9, 38, 0
1, 81600, Note_on_c, 9, 36, 64
1, 81620, Note_on_c, 9, 36, 0
1, 81680, Note_on_c, 9, 36, 64
1, 81700, Note_on_c, 9, 36, 0
1, 81800, Note_on_c, 9, 36, 64
1, 81820, Note_on_c, 9, 36, 0
1, 81920, Note_on_c, 9, 36, 64
1, 81940, Note_on_c, 9, 36, 0
1, 82040, Note_on_c, 9, 36, 64
1, 82060, Note_on_c, 9, 36, 0
1, 82080, Note_on_c, 9, 47, 64
1, 82100, Note_on_c, 9, 47, 0
1, 82160, Note_on_c, 9, 38, 64
1, 82180, Note_on_c, 9, 38, 0
1, 82200, Note_on_c, 9, 47, 64
1, 82220, Note_on_c, 9, 47, 0
1, 82280, Note_on_c, 9, 36, 64
1, 82300, Note_on_c, 9, 36, 0
1, 82320, Note_on_c, 9, 43, 64
1, 82340, Note_on_c, 9, 43, 0
1, 82360, Note_on_c, 9, 43, 64
1, 82380, Note_on_c, 9, 43, 0
1, 82400, Note_on_c, 9, 38, 64
1, 82420, Note_on_c, 9, 38, 0
1, 82440, Note_on_c, 9, 43, 64
1, 82460, Note_on_c, 9, 43, 0
1, 82520, Note_on_c, 9, 38, 64
1, 82540, Note_on_c, 9, 38, 0
1, 82560, Note_on_c, 9, 49, 64
1, 82560, Note_on_c, 9, 44, 64
1, 82560, Note_on_c, 9, 38, 64
1, 82560, Note_on_c, 9, 36, 64
1, 82620, Note_on_c, 9, 49, 0
1, 82620, Note_on_c, 9, 44, 0
1, 82620, Note_on_c, 9, 38, 0
1, 82620, Note_on_c, 9, 36, 0
1, 82620, End_track
0, 0, End_of_file
