0, 0, Header, 0, 1, 240
1, 0, Start_track
1, 0, Key_signature, 0, "major"
1, 0, SMPTE_offset, 96, 0, 0, 0, 0
1, 0, Sequencer_specific, 24, 0, 0, 0, 106, 0, 1, 0, 0, 0, 0, 0, 0, 0, 0, 0, 0, 0, 0, 0, 0, 0, 0, 29, 29
1, 0, Tempo, 526315
1, 0, Time_signature, 4, 2, 24, 8
1, 0, Lyric_t, "Ride cymbal"
1, 0, Note_on_c, 9, 51, 64
1, 0, Lyric_t, "Closed hat"
1, 0, Lyric_t, "Mid tom"
1, 0, Lyric_t, "Low tom"
1, 0, Lyric_t, "Snare drum"
1, 0, Lyric_t, "Bass drum"
1, 0, Note_on_c, 9, 36, 64
1, 0, Lyric_t, "(c)joelSampson"
1, 0, Poly_aftertouch_c, 0, 60, 64
1, 60, Note_on_c, 9, 51, 0
1, 60, Note_on_c, 9, 36, 0
1, 180, Note_on_c, 9, 36, 64
1, 240, Note_on_c, 9, 36, 0
1, 240, Note_on_c, 9, 51, 64
1, 240, Note_on_c, 9, 38, 64
1, 300, Note_on_c, 9, 51, 0
1, 300, Note_on_c, 9, 38, 0
1, 420, Note_on_c, 9, 36, 64
1, 480, Note_on_c, 9, 36, 0
1, 480, Note_on_c, 9, 51, 64
1, 480, Note_on_c, 9, 36, 64
1, 540, Note_on_c, 9, 51, 0
1, 540, Note_on_c, 9, 36, 0
1, 660, Note_on_c, 9, 36, 64
1, 720, Note_on_c, 9, 36, 0
1, 720, Note_on_c, 9, 51, 64
1, 720, Note_on_c, 9, 38, 64
1, 780, Note_on_c, 9, 51, 0
1, 780, Note_on_c, 9, 38, 0
1, 900, Note_on_c, 9, 36, 64
1, 960, Note_on_c, 9, 36, 0
1, 960, Note_on_c, 9, 51, 64
1, 960, Note_on_c, 9, 36, 64
1, 1020, Note_on_c, 9, 51, 0
1, 1020, Note_on_c, 9, 36, 0
1, 1140, Note_on_c, 9, 36, 64
1, 1200, Note_on_c, 9, 36, 0
1, 1200, Note_on_c, 9, 51, 64
1, 1200, Note_on_c, 9, 38, 64
1, 1260, Note_on_c, 9, 51, 0
1, 1260, Note_on_c, 9, 38, 0
1, 1380, Note_on_c, 9, 36, 64
1, 1440, Note_on_c, 9, 36, 0
1, 1440, Note_on_c, 9, 51, 64
1, 1440, Note_on_c, 9, 36, 64
1, 1500, Note_on_c, 9, 51, 0
1, 1500, Note_on_c, 9, 36, 0
1, 1620, Note_on_c, 9, 36, 64
1, 1680, Note_on_c, 9, 36, 0
1, 1680, Note_on_c, 9, 51, 64
1, 1680, Note_on_c, 9, 38, 64
1, 1740, Note_on_c, 9, 51, 0
1, 1740, Note_on_c, 9, 38, 0
1, 1860, Note_on_c, 9, 36, 64
1, 1920, Note_on_c, 9, 51, 64
1, 1920, Note_on_c, 9, 36, 64
1, 1921, Note_on_c, 9, 36, 0
1, 1980, Note_on_c, 9, 51, 0
1, 1980, Note_on_c, 9, 36, 0
1, 2100, Note_on_c, 9, 51, 64
1, 2160, Note_on_c, 9, 51, 0
1, 2160, Note_on_c, 9, 51, 64
1, 2160, Note_on_c, 9, 38, 64
1, 2220, Note_on_c, 9, 51, 0
1, 2220, Note_on_c, 9, 38, 0
1, 2340, Note_on_c, 9, 51, 64
1, 2400, Note_on_c, 9, 51, 0
1, 2400, Note_on_c, 9, 51, 64
1, 2400, Note_on_c, 9, 36, 64
1, 2460, Note_on_c, 9, 51, 0
1, 2460, Note_on_c, 9, 36, 0
1, 2580, Note_on_c, 9, 51, 64
1, 2580, Note_on_c, 9, 36, 64
1, 2640, Note_on_c, 9, 51, 0
1, 2640, Note_on_c, 9, 36, 0
1, 2640, Note_on_c, 9, 51, 64
1, 2640, Note_on_c, 9, 38, 64
1, 2700, Note_on_c, 9, 51, 0
1, 2700, Note_on_c, 9, 38, 0
1, 2820, Note_on_c, 9, 51, 64
1, 2880, Note_on_c, 9, 51, 0
1, 2880, Note_on_c, 9, 51, 64
1, 2880, Note_on_c, 9, 36, 64
1, 2940, Note_on_c, 9, 51, 0
1, 2940, Note_on_c, 9, 36, 0
1, 3060, Note_on_c, 9, 51, 64
1, 3120, Note_on_c, 9, 51, 0
1, 3120, Note_on_c, 9, 51, 64
1, 3120, Note_on_c, 9, 38, 64
1, 3180, Note_on_c, 9, 51, 0
1, 3180, Note_on_c, 9, 38, 0
1, 3300, Note_on_c, 9, 51, 64
1, 3360, Note_on_c, 9, 51, 0
1, 3360, Note_on_c, 9, 51, 64
1, 3360, Note_on_c, 9, 36, 64
1, 3420, Note_on_c, 9, 51, 0
1, 3420, Note_on_c, 9, 36, 0
1, 3540, Note_on_c, 9, 51, 64
1, 3540, Note_on_c, 9, 36, 64
1, 3600, Note_on_c, 9, 51, 0
1, 3600, Note_on_c, 9, 36, 0
1, 3600, Note_on_c, 9, 51, 64
1, 3600, Note_on_c, 9, 38, 64
1, 3660, Note_on_c, 9, 51, 0
1, 3660, Note_on_c, 9, 38, 0
1, 3780, Note_on_c, 9, 51, 64
1, 3840, Note_on_c, 9, 51, 64
1, 3840, Note_on_c, 9, 36, 64
1, 3841, Note_on_c, 9, 51, 0
1, 3900, Note_on_c, 9, 51, 0
1, 3900, Note_on_c, 9, 36, 0
1, 4020, Note_on_c, 9, 51, 64
1, 4020, Note_on_c, 9, 36, 64
1, 4080, Note_on_c, 9, 51, 0
1, 4080, Note_on_c, 9, 36, 0
1, 4080, Note_on_c, 9, 51, 64
1, 4080, Note_on_c, 9, 38, 64
1, 4140, Note_on_c, 9, 51, 0
1, 4140, Note_on_c, 9, 38, 0
1, 4260, Note_on_c, 9, 51, 64
1, 4260, Note_on_c, 9, 38, 64
1, 4320, Note_on_c, 9, 51, 0
1, 4320, Note_on_c, 9, 38, 0
1, 4320, Note_on_c, 9, 51, 64
1, 4320, Note_on_c, 9, 36, 64
1, 4380, Note_on_c, 9, 51, 0
1, 4380, Note_on_c, 9, 36, 0
1, 4500, Note_on_c, 9, 51, 64
1, 4500, Note_on_c, 9, 36, 64
1, 4560, Note_on_c, 9, 51, 0
1, 4560, Note_on_c, 9, 36, 0
1, 4560, Note_on_c, 9, 51, 64
1, 4560, Note_on_c, 9, 38, 64
1, 4620, Note_on_c, 9, 51, 0
1, 4620, Note_on_c, 9, 38, 0
1, 4740, Note_on_c, 9, 51, 64
1, 4740, Note_on_c, 9, 38, 64
1, 4800, Note_on_c, 9, 51, 0
1, 4800, Note_on_c, 9, 38, 0
1, 4800, Note_on_c, 9, 51, 64
1, 4800, Note_on_c, 9, 36, 64
1, 4860, Note_on_c, 9, 51, 0
1, 4860, Note_on_c, 9, 36, 0
1, 4980, Note_on_c, 9, 51, 64
1, 4980, Note_on_c, 9, 36, 64
1, 5040, Note_on_c, 9, 51, 0
1, 5040, Note_on_c, 9, 36, 0
1, 5040, Note_on_c, 9, 51, 64
1, 5040, Note_on_c, 9, 38, 64
1, 5100, Note_on_c, 9, 51, 0
1, 5100, Note_on_c, 9, 38, 0
1, 5220, Note_on_c, 9, 51, 64
1, 5220, Note_on_c, 9, 38, 64
1, 5280, Note_on_c, 9, 51, 0
1, 5280, Note_on_c, 9, 38, 0
1, 5280, Note_on_c, 9, 51, 64
1, 5280, Note_on_c, 9, 36, 64
1, 5340, Note_on_c, 9, 51, 0
1, 5340, Note_on_c, 9, 36, 0
1, 5460, Note_on_c, 9, 51, 64
1, 5460, Note_on_c, 9, 36, 64
1, 5520, Note_on_c, 9, 51, 0
1, 5520, Note_on_c, 9, 36, 0
1, 5520, Note_on_c, 9, 51, 64
1, 5520, Note_on_c, 9, 38, 64
1, 5580, Note_on_c, 9, 51, 0
1, 5580, Note_on_c, 9, 38, 0
1, 5700, Note_on_c, 9, 51, 64
1, 5700, Note_on_c, 9, 38, 64
1, 5760, Note_on_c, 9, 51, 0
1, 5760, Note_on_c, 9, 38, 0
1, 5760, Note_on_c, 9, 42, 64
1, 5760, Note_on_c, 9, 36, 64
1, 5840, Note_on_c, 9, 42, 0
1, 5840, Note_on_c, 9, 36, 0
1, 5840, Note_on_c, 9, 38, 64
1, 5920, Note_on_c, 9, 38, 0
1, 5920, Note_on_c, 9, 38, 64
1, 6000, Note_on_c, 9, 38, 0
1, 6000, Note_on_c, 9, 42, 64
1, 6000, Note_on_c, 9, 36, 64
1, 6080, Note_on_c, 9, 42, 0
1, 6080, Note_on_c, 9, 36, 0
1, 6080, Note_on_c, 9, 47, 64
1, 6160, Note_on_c, 9, 47, 0
1, 6160, Note_on_c, 9, 47, 64
1, 6240, Note_on_c, 9, 47, 0
1, 6240, Note_on_c, 9, 42, 64
1, 6240, Note_on_c, 9, 36, 64
1, 6320, Note_on_c, 9, 42, 0
1, 6320, Note_on_c, 9, 36, 0
1, 6320, Note_on_c, 9, 38, 64
1, 6400, Note_on_c, 9, 38, 0
1, 6400, Note_on_c, 9, 38, 64
1, 6480, Note_on_c, 9, 38, 0
1, 6480, Note_on_c, 9, 42, 64
1, 6480, Note_on_c, 9, 36, 64
1, 6560, Note_on_c, 9, 42, 0
1, 6560, Note_on_c, 9, 36, 0
1, 6560, Note_on_c, 9, 43, 64
1, 6640, Note_on_c, 9, 43, 0
1, 6640, Note_on_c, 9, 43, 64
1, 6720, Note_on_c, 9, 43, 0
1, 6720, Note_on_c, 9, 42, 64
1, 6720, Note_on_c, 9, 36, 64
1, 6800, Note_on_c, 9, 42, 0
1, 6800, Note_on_c, 9, 36, 0
1, 6800, Note_on_c, 9, 38, 64
1, 6880, Note_on_c, 9, 38, 0
1, 6880, Note_on_c, 9, 38, 64
1, 6960, Note_on_c, 9, 38, 0
1, 6960, Note_on_c, 9, 42, 64
1, 6960, Note_on_c, 9, 36, 64
1, 7040, Note_on_c, 9, 42, 0
1, 7040, Note_on_c, 9, 36, 0
1, 7040, Note_on_c, 9, 47, 64
1, 7120, Note_on_c, 9, 47, 0
1, 7120, Note_on_c, 9, 47, 64
1, 7200, Note_on_c, 9, 47, 0
1, 7200, Note_on_c, 9, 42, 64
1, 7200, Note_on_c, 9, 36, 64
1, 7280, Note_on_c, 9, 42, 0
1, 7280, Note_on_c, 9, 36, 0
1, 7280, Note_on_c, 9, 38, 64
1, 7360, Note_on_c, 9, 38, 0
1, 7360, Note_on_c, 9, 38, 64
1, 7440, Note_on_c, 9, 38, 0
1, 7440, Note_on_c, 9, 42, 64
1, 7440, Note_on_c, 9, 36, 64
1, 7520, Note_on_c, 9, 42, 0
1, 7520, Note_on_c, 9, 36, 0
1, 7520, Note_on_c, 9, 43, 64
1, 7600, Note_on_c, 9, 43, 0
1, 7600, Note_on_c, 9, 43, 64
1, 7680, Note_on_c, 9, 43, 0
1, 7680, Note_on_c, 9, 38, 64
1, 7760, Note_on_c, 9, 38, 0
1, 7760, Note_on_c, 9, 38, 64
1, 7840, Note_on_c, 9, 38, 64
1, 7841, Note_on_c, 9, 38, 0
1, 7920, Note_on_c, 9, 38, 0
1, 7920, Note_on_c, 9, 47, 64
1, 8000, Note_on_c, 9, 47, 0
1, 8000, Note_on_c, 9, 47, 64
1, 8080, Note_on_c, 9, 47, 64
1, 8081, Note_on_c, 9, 47, 0
1, 8160, Note_on_c, 9, 47, 0
1, 8160, Note_on_c, 9, 38, 64
1, 8240, Note_on_c, 9, 38, 0
1, 8240, Note_on_c, 9, 38, 64
1, 8320, Note_on_c, 9, 38, 64
1, 8321, Note_on_c, 9, 38, 0
1, 8400, Note_on_c, 9, 38, 0
1, 8400, Note_on_c, 9, 43, 64
1, 8480, Note_on_c, 9, 43, 0
1, 8480, Note_on_c, 9, 43, 64
1, 8560, Note_on_c, 9, 43, 64
1, 8561, Note_on_c, 9, 43, 0
1, 8640, Note_on_c, 9, 43, 0
1, 8640, Note_on_c, 9, 38, 64
1, 8720, Note_on_c, 9, 38, 0
1, 8720, Note_on_c, 9, 38, 64
1, 8800, Note_on_c, 9, 38, 64
1, 8801, Note_on_c, 9, 38, 0
1, 8880, Note_on_c, 9, 38, 0
1, 8880, Note_on_c, 9, 47, 64
1, 8960, Note_on_c, 9, 47, 0
1, 8960, Note_on_c, 9, 47, 64
1, 9040, Note_on_c, 9, 47, 64
1, 9041, Note_on_c, 9, 47, 0
1, 9120, Note_on_c, 9, 47, 0
1, 9120, Note_on_c, 9, 38, 64
1, 9200, Note_on_c, 9, 38, 0
1, 9200, Note_on_c, 9, 38, 64
1, 9280, Note_on_c, 9, 38, 64
1, 9281, Note_on_c, 9, 38, 0
1, 9360, Note_on_c, 9, 38, 0
1, 9360, Note_on_c, 9, 43, 64
1, 9440, Note_on_c, 9, 43, 0
1, 9440, Note_on_c, 9, 43, 64
1, 9520, Note_on_c, 9, 43, 64
1, 9521, Note_on_c, 9, 43, 0
1, 9600, Note_on_c, 9, 43, 64
1, 9601, Note_on_c, 9, 43, 0
1, 9680, Note_on_c, 9, 43, 0
1, 9680, Note_on_c, 9, 38, 64
1, 9760, Note_on_c, 9, 38, 0
1, 9760, Note_on_c, 9, 38, 64
1, 9840, Note_on_c, 9, 38, 0
1, 9840, Note_on_c, 9, 47, 64
1, 9920, Note_on_c, 9, 47, 0
1, 9920, Note_on_c, 9, 38, 64
1, 10000, Note_on_c, 9, 38, 0
1, 10000, Note_on_c, 9, 38, 64
1, 10080, Note_on_c, 9, 38, 0
1, 10080, Note_on_c, 9, 43, 64
1, 10160, Note_on_c, 9, 43, 0
1, 10160, Note_on_c, 9, 38, 64
1, 10240, Note_on_c, 9, 38, 0
1, 10240, Note_on_c, 9, 38, 64
1, 10320, Note_on_c, 9, 38, 0
1, 10320, Note_on_c, 9, 47, 64
1, 10400, Note_on_c, 9, 47, 0
1, 10400, Note_on_c, 9, 38, 64
1, 10480, Note_on_c, 9, 38, 0
1, 10480, Note_on_c, 9, 38, 64
1, 10560, Note_on_c, 9, 38, 0
1, 10560, Note_on_c, 9, 43, 64
1, 10640, Note_on_c, 9, 43, 0
1, 10640, Note_on_c, 9, 38, 64
1, 10720, Note_on_c, 9, 38, 0
1, 10720, Note_on_c, 9, 38, 64
1, 10800, Note_on_c, 9, 38, 0
1, 10800, Note_on_c, 9, 47, 64
1, 10880, Note_on_c, 9, 47, 0
1, 10880, Note_on_c, 9, 38, 64
1, 10960, Note_on_c, 9, 38, 0
1, 10960, Note_on_c, 9, 38, 64
1, 11040, Note_on_c, 9, 38, 0
1, 11040, Note_on_c, 9, 43, 64
1, 11120, Note_on_c, 9, 43, 0
1, 11120, Note_on_c, 9, 38, 64
1, 11200, Note_on_c, 9, 38, 0
1, 11200, Note_on_c, 9, 38, 64
1, 11280, Note_on_c, 9, 38, 0
1, 11280, Note_on_c, 9, 47, 64
1, 11360, Note_on_c, 9, 47, 0
1, 11360, Note_on_c, 9, 38, 64
1, 11440, Note_on_c, 9, 38, 0
1, 11440, Note_on_c, 9, 38, 64
1, 11520, Note_on_c, 9, 38, 0
1, 11520, End_track
0, 0, End_of_file
