0, 0, Header, 0, 1, 240
1, 0, Start_track
1, 0, Key_signature, 0, "major"
1, 0, SMPTE_offset, 96, 0, 0, 0, 0
1, 0, Sequencer_specific, 24, 0, 0, 0, 106, 0, 1, 0, 0, 0, 0, 0, 0, 0, 0, 0, 0, 0, 0, 0, 0, 0, 0, 29, 29
1, 0, Tempo, 612244
1, 0, Time_signature, 4, 2, 24, 8
1, 0, Lyric_t, "Closed hat"
1, 0, Note_on_c, 9, 42, 64
1, 0, Lyric_t, "Open hat"
1, 0, Lyric_t, "High tom"
1, 0, Lyric_t, "Mid tom"
1, 0, Lyric_t, "Low tom"
1, 0, Lyric_t, "Rim shot"
1, 0, Lyric_t, "Snare drum"
1, 0, Lyric_t, "Bass drum"
1, 0, Note_on_c, 9, 36, 64
1, 0, Lyric_t, "(c)joelSampson"
1, 0, Poly_aftertouch_c, 0, 60, 64
1, 60, Note_on_c, 9, 42, 0
1, 60, Note_on_c, 9, 36, 0
1, 60, Note_on_c, 9, 42, 64
1, 120, Note_on_c, 9, 42, 0
1, 180, Note_on_c, 9, 42, 64
1, 240, Note_on_c, 9, 42, 0
1, 240, Note_on_c, 9, 44, 64
1, 240, Note_on_c, 9, 36, 64
1, 300, Note_on_c, 9, 44, 0
1, 300, Note_on_c, 9, 36, 0
1, 480, Note_on_c, 9, 42, 64
1, 480, Note_on_c, 9, 38, 64
1, 480, Note_on_c, 9, 36, 88
1, 540, Note_on_c, 9, 42, 0
1, 540, Note_on_c, 9, 38, 0
1, 540, Note_on_c, 9, 36, 0
1, 600, Note_on_c, 9, 42, 64
1, 660, Note_on_c, 9, 42, 0
1, 720, Note_on_c, 9, 42, 64
1, 720, Note_on_c, 9, 36, 64
1, 780, Note_on_c, 9, 42, 0
1, 780, Note_on_c, 9, 36, 0
1, 840, Note_on_c, 9, 42, 64
1, 900, Note_on_c, 9, 42, 0
1, 960, Note_on_c, 9, 42, 64
1, 960, Note_on_c, 9, 36, 64
1, 1020, Note_on_c, 9, 42, 0
1, 1020, Note_on_c, 9, 36, 0
1, 1020, Note_on_c, 9, 42, 64
1, 1080, Note_on_c, 9, 42, 0
1, 1140, Note_on_c, 9, 42, 64
1, 1200, Note_on_c, 9, 42, 0
1, 1200, Note_on_c, 9, 44, 64
1, 1200, Note_on_c, 9, 36, 64
1, 1260, Note_on_c, 9, 44, 0
1, 1260, Note_on_c, 9, 36, 0
1, 1440, Note_on_c, 9, 42, 64
1, 1440, Note_on_c, 9, 38, 64
1, 1440, Note_on_c, 9, 36, 88
1, 1500, Note_on_c, 9, 42, 0
1, 1500, Note_on_c, 9, 38, 0
1, 1500, Note_on_c, 9, 36, 0
1, 1560, Note_on_c, 9, 42, 64
1, 1620, Note_on_c, 9, 42, 0
1, 1680, Note_on_c, 9, 42, 64
1, 1680, Note_on_c, 9, 36, 64
1, 1740, Note_on_c, 9, 42, 0
1, 1740, Note_on_c, 9, 36, 0
1, 1800, Note_on_c, 9, 42, 64
1, 1860, Note_on_c, 9, 42, 0
1, 1920, Note_on_c, 9, 36, 64
1, 1980, Note_on_c, 9, 36, 0
1, 2040, Note_on_c, 9, 42, 64
1, 2040, Note_on_c, 9, 36, 64
1, 2100, Note_on_c, 9, 42, 0
1, 2100, Note_on_c, 9, 36, 0
1, 2160, Note_on_c, 9, 37, 88
1, 2220, Note_on_c, 9, 37, 0
1, 2280, Note_on_c, 9, 42, 64
1, 2280, Note_on_c, 9, 36, 64
1, 2340, Note_on_c, 9, 42, 0
1, 2340, Note_on_c, 9, 36, 0
1, 2400, Note_on_c, 9, 36, 64
1, 2460, Note_on_c, 9, 36, 0
1, 2520, Note_on_c, 9, 42, 64
1, 2520, Note_on_c, 9, 36, 64
1, 2580, Note_on_c, 9, 42, 0
1, 2580, Note_on_c, 9, 36, 0
1, 2640, Note_on_c, 9, 37, 88
1, 2700, Note_on_c, 9, 37, 0
1, 2760, Note_on_c, 9, 42, 64
1, 2760, Note_on_c, 9, 37, 64
1, 2820, Note_on_c, 9, 42, 0
1, 2820, Note_on_c, 9, 37, 0
1, 2880, Note_on_c, 9, 36, 64
1, 2940, Note_on_c, 9, 36, 0
1, 3000, Note_on_c, 9, 42, 64
1, 3000, Note_on_c, 9, 36, 64
1, 3060, Note_on_c, 9, 42, 0
1, 3060, Note_on_c, 9, 36, 0
1, 3120, Note_on_c, 9, 37, 88
1, 3180, Note_on_c, 9, 37, 0
1, 3240, Note_on_c, 9, 42, 64
1, 3240, Note_on_c, 9, 36, 64
1, 3300, Note_on_c, 9, 42, 0
1, 3300, Note_on_c, 9, 36, 0
1, 3360, Note_on_c, 9, 36, 64
1, 3420, Note_on_c, 9, 36, 0
1, 3480, Note_on_c, 9, 42, 64
1, 3480, Note_on_c, 9, 36, 64
1, 3540, Note_on_c, 9, 42, 0
1, 3540, Note_on_c, 9, 36, 0
1, 3600, Note_on_c, 9, 37, 88
1, 3660, Note_on_c, 9, 37, 0
1, 3720, Note_on_c, 9, 42, 64
1, 3720, Note_on_c, 9, 37, 64
1, 3780, Note_on_c, 9, 42, 0
1, 3780, Note_on_c, 9, 37, 0
1, 3840, Note_on_c, 9, 36, 64
1, 3900, Note_on_c, 9, 36, 0
1, 3960, Note_on_c, 9, 42, 64
1, 4020, Note_on_c, 9, 42, 0
1, 4020, Note_on_c, 9, 36, 64
1, 4080, Note_on_c, 9, 36, 0
1, 4080, Note_on_c, 9, 37, 88
1, 4140, Note_on_c, 9, 37, 0
1, 4200, Note_on_c, 9, 42, 64
1, 4260, Note_on_c, 9, 42, 0
1, 4260, Note_on_c, 9, 42, 64
1, 4320, Note_on_c, 9, 42, 0
1, 4320, Note_on_c, 9, 36, 64
1, 4380, Note_on_c, 9, 36, 0
1, 4380, Note_on_c, 9, 37, 64
1, 4440, Note_on_c, 9, 37, 0
1, 4440, Note_on_c, 9, 42, 64
1, 4500, Note_on_c, 9, 42, 0
1, 4500, Note_on_c, 9, 36, 64
1, 4560, Note_on_c, 9, 36, 0
1, 4560, Note_on_c, 9, 37, 88
1, 4620, Note_on_c, 9, 37, 0
1, 4680, Note_on_c, 9, 42, 64
1, 4740, Note_on_c, 9, 42, 0
1, 4740, Note_on_c, 9, 42, 64
1, 4800, Note_on_c, 9, 42, 0
1, 4800, Note_on_c, 9, 36, 64
1, 4860, Note_on_c, 9, 36, 0
1, 4920, Note_on_c, 9, 42, 64
1, 4980, Note_on_c, 9, 42, 0
1, 4980, Note_on_c, 9, 36, 64
1, 5040, Note_on_c, 9, 36, 0
1, 5040, Note_on_c, 9, 37, 88
1, 5100, Note_on_c, 9, 37, 0
1, 5160, Note_on_c, 9, 42, 64
1, 5220, Note_on_c, 9, 42, 0
1, 5220, Note_on_c, 9, 42, 64
1, 5280, Note_on_c, 9, 42, 0
1, 5280, Note_on_c, 9, 36, 64
1, 5340, Note_on_c, 9, 36, 0
1, 5340, Note_on_c, 9, 37, 64
1, 5400, Note_on_c, 9, 37, 0
1, 5400, Note_on_c, 9, 42, 64
1, 5460, Note_on_c, 9, 42, 0
1, 5460, Note_on_c, 9, 36, 64
1, 5520, Note_on_c, 9, 36, 0
1, 5520, Note_on_c, 9, 37, 88
1, 5580, Note_on_c, 9, 37, 0
1, 5640, Note_on_c, 9, 42, 64
1, 5700, Note_on_c, 9, 42, 0
1, 5700, Note_on_c, 9, 42, 64
1, 5760, Note_on_c, 9, 42, 0
1, 5880, Note_on_c, 9, 42, 64
1, 5940, Note_on_c, 9, 42, 0
1, 6000, Note_on_c, 9, 37, 64
1, 6000, Note_on_c, 9, 36, 64
1, 6060, Note_on_c, 9, 37, 0
1, 6060, Note_on_c, 9, 36, 0
1, 6120, Note_on_c, 9, 42, 64
1, 6180, Note_on_c, 9, 42, 0
1, 6360, Note_on_c, 9, 42, 64
1, 6360, Note_on_c, 9, 36, 64
1, 6420, Note_on_c, 9, 42, 0
1, 6420, Note_on_c, 9, 36, 0
1, 6480, Note_on_c, 9, 37, 64
1, 6480, Note_on_c, 9, 36, 64
1, 6540, Note_on_c, 9, 37, 0
1, 6540, Note_on_c, 9, 36, 0
1, 6600, Note_on_c, 9, 42, 64
1, 6660, Note_on_c, 9, 42, 0
1, 6840, Note_on_c, 9, 42, 64
1, 6900, Note_on_c, 9, 42, 0
1, 6960, Note_on_c, 9, 37, 64
1, 6960, Note_on_c, 9, 36, 64
1, 7020, Note_on_c, 9, 37, 0
1, 7020, Note_on_c, 9, 36, 0
1, 7080, Note_on_c, 9, 42, 64
1, 7140, Note_on_c, 9, 42, 0
1, 7320, Note_on_c, 9, 42, 64
1, 7320, Note_on_c, 9, 36, 64
1, 7380, Note_on_c, 9, 42, 0
1, 7380, Note_on_c, 9, 36, 0
1, 7440, Note_on_c, 9, 37, 64
1, 7440, Note_on_c, 9, 36, 64
1, 7500, Note_on_c, 9, 37, 0
1, 7500, Note_on_c, 9, 36, 0
1, 7560, Note_on_c, 9, 42, 64
1, 7620, Note_on_c, 9, 42, 0
1, 7680, Note_on_c, 9, 42, 64
1, 7740, Note_on_c, 9, 42, 0
1, 7800, Note_on_c, 9, 42, 64
1, 7860, Note_on_c, 9, 42, 0
1, 7920, Note_on_c, 9, 42, 64
1, 7920, Note_on_c, 9, 37, 64
1, 7980, Note_on_c, 9, 42, 0
1, 7980, Note_on_c, 9, 37, 0
1, 8040, Note_on_c, 9, 42, 64
1, 8040, Note_on_c, 9, 37, 64
1, 8100, Note_on_c, 9, 42, 0
1, 8100, Note_on_c, 9, 37, 0
1, 8160, Note_on_c, 9, 42, 64
1, 8160, Note_on_c, 9, 36, 88
1, 8220, Note_on_c, 9, 42, 0
1, 8220, Note_on_c, 9, 36, 0
1, 8280, Note_on_c, 9, 42, 64
1, 8340, Note_on_c, 9, 42, 0
1, 8400, Note_on_c, 9, 42, 64
1, 8400, Note_on_c, 9, 37, 64
1, 8460, Note_on_c, 9, 42, 0
1, 8460, Note_on_c, 9, 37, 0
1, 8520, Note_on_c, 9, 42, 64
1, 8520, Note_on_c, 9, 37, 64
1, 8580, Note_on_c, 9, 42, 0
1, 8580, Note_on_c, 9, 37, 0
1, 8640, Note_on_c, 9, 42, 64
1, 8700, Note_on_c, 9, 42, 0
1, 8760, Note_on_c, 9, 42, 64
1, 8820, Note_on_c, 9, 42, 0
1, 8880, Note_on_c, 9, 42, 64
1, 8880, Note_on_c, 9, 37, 64
1, 8940, Note_on_c, 9, 42, 0
1, 8940, Note_on_c, 9, 37, 0
1, 9000, Note_on_c, 9, 42, 64
1, 9000, Note_on_c, 9, 37, 64
1, 9060, Note_on_c, 9, 42, 0
1, 9060, Note_on_c, 9, 37, 0
1, 9120, Note_on_c, 9, 42, 64
1, 9120, Note_on_c, 9, 36, 88
1, 9180, Note_on_c, 9, 42, 0
1, 9180, Note_on_c, 9, 36, 0
1, 9240, Note_on_c, 9, 42, 64
1, 9300, Note_on_c, 9, 42, 0
1, 9360, Note_on_c, 9, 42, 64
1, 9360, Note_on_c, 9, 37, 64
1, 9420, Note_on_c, 9, 42, 0
1, 9420, Note_on_c, 9, 37, 0
1, 9480, Note_on_c, 9, 42, 64
1, 9480, Note_on_c, 9, 37, 64
1, 9540, Note_on_c, 9, 42, 0
1, 9540, Note_on_c, 9, 37, 0
1, 9600, Note_on_c, 9, 42, 64
1, 9600, Note_on_c, 9, 37, 64
1, 9680, Note_on_c, 9, 42, 0
1, 9680, Note_on_c, 9, 37, 0
1, 9760, Note_on_c, 9, 42, 64
1, 9840, Note_on_c, 9, 42, 0
1, 9840, Note_on_c, 9, 42, 88
1, 9920, Note_on_c, 9, 42, 0
1, 10000, Note_on_c, 9, 42, 64
1, 10000, Note_on_c, 9, 37, 64
1, 10080, Note_on_c, 9, 42, 0
1, 10080, Note_on_c, 9, 37, 0
1, 10080, Note_on_c, 9, 42, 64
1, 10080, Note_on_c, 9, 36, 64
1, 10160, Note_on_c, 9, 42, 0
1, 10160, Note_on_c, 9, 36, 0
1, 10240, Note_on_c, 9, 42, 64
1, 10320, Note_on_c, 9, 42, 0
1, 10320, Note_on_c, 9, 42, 88
1, 10320, Note_on_c, 9, 37, 64
1, 10400, Note_on_c, 9, 42, 0
1, 10400, Note_on_c, 9, 37, 0
1, 10560, Note_on_c, 9, 42, 64
1, 10560, Note_on_c, 9, 37, 64
1, 10640, Note_on_c, 9, 42, 0
1, 10640, Note_on_c, 9, 37, 0
1, 10720, Note_on_c, 9, 42, 64
1, 10800, Note_on_c, 9, 42, 0
1, 10800, Note_on_c, 9, 42, 88
1, 10880, Note_on_c, 9, 42, 0
1, 10960, Note_on_c, 9, 42, 64
1, 10960, Note_on_c, 9, 37, 64
1, 11040, Note_on_c, 9, 42, 0
1, 11040, Note_on_c, 9, 37, 0
1, 11040, Note_on_c, 9, 42, 64
1, 11040, Note_on_c, 9, 36, 64
1, 11120, Note_on_c, 9, 42, 0
1, 11120, Note_on_c, 9, 36, 0
1, 11200, Note_on_c, 9, 42, 64
1, 11280, Note_on_c, 9, 42, 0
1, 11280, Note_on_c, 9, 42, 88
1, 11280, Note_on_c, 9, 37, 64
1, 11360, Note_on_c, 9, 42, 0
1, 11360, Note_on_c, 9, 37, 0
1, 11520, Note_on_c, 9, 42, 64
1, 11520, Note_on_c, 9, 37, 64
1, 11600, Note_on_c, 9, 42, 0
1, 11600, Note_on_c, 9, 37, 0
1, 11680, Note_on_c, 9, 42, 64
1, 11680, Note_on_c, 9, 36, 64
1, 11760, Note_on_c, 9, 42, 0
1, 11760, Note_on_c, 9, 36, 0
1, 11760, Note_on_c, 9, 44, 64
1, 11840, Note_on_c, 9, 44, 0
1, 12000, Note_on_c, 9, 42, 64
1, 12000, Note_on_c, 9, 37, 64
1, 12000, Note_on_c, 9, 36, 64
1, 12080, Note_on_c, 9, 42, 0
1, 12080, Note_on_c, 9, 37, 0
1, 12080, Note_on_c, 9, 36, 0
1, 12160, Note_on_c, 9, 42, 64
1, 12240, Note_on_c, 9, 42, 0
1, 12240, Note_on_c, 9, 44, 64
1, 12320, Note_on_c, 9, 44, 0
1, 12480, Note_on_c, 9, 42, 64
1, 12480, Note_on_c, 9, 37, 64
1, 12560, Note_on_c, 9, 42, 0
1, 12560, Note_on_c, 9, 37, 0
1, 12640, Note_on_c, 9, 42, 64
1, 12640, Note_on_c, 9, 36, 64
1, 12720, Note_on_c, 9, 42, 0
1, 12720, Note_on_c, 9, 36, 0
1, 12720, Note_on_c, 9, 44, 64
1, 12800, Note_on_c, 9, 44, 0
1, 12960, Note_on_c, 9, 42, 64
1, 12960, Note_on_c, 9, 37, 64
1, 12960, Note_on_c, 9, 36, 64
1, 13040, Note_on_c, 9, 42, 0
1, 13040, Note_on_c, 9, 37, 0
1, 13040, Note_on_c, 9, 36, 0
1, 13120, Note_on_c, 9, 42, 64
1, 13200, Note_on_c, 9, 42, 0
1, 13200, Note_on_c, 9, 44, 64
1, 13280, Note_on_c, 9, 44, 0
1, 13440, Note_on_c, 9, 42, 64
1, 13440, Note_on_c, 9, 36, 64
1, 13520, Note_on_c, 9, 42, 0
1, 13520, Note_on_c, 9, 36, 0
1, 13680, Note_on_c, 9, 42, 64
1, 13680, Note_on_c, 9, 37, 64
1, 13760, Note_on_c, 9, 42, 0
1, 13760, Note_on_c, 9, 37, 0
1, 13840, Note_on_c, 9, 42, 64
1, 13920, Note_on_c, 9, 42, 0
1, 13920, Note_on_c, 9, 42, 64
1, 13920, Note_on_c, 9, 36, 64
1, 14000, Note_on_c, 9, 42, 0
1, 14000, Note_on_c, 9, 36, 0
1, 14160, Note_on_c, 9, 42, 64
1, 14160, Note_on_c, 9, 37, 64
1, 14240, Note_on_c, 9, 42, 0
1, 14240, Note_on_c, 9, 37, 0
1, 14320, Note_on_c, 9, 42, 64
1, 14320, Note_on_c, 9, 37, 64
1, 14400, Note_on_c, 9, 42, 0
1, 14400, Note_on_c, 9, 37, 0
1, 14400, Note_on_c, 9, 42, 64
1, 14400, Note_on_c, 9, 36, 64
1, 14480, Note_on_c, 9, 42, 0
1, 14480, Note_on_c, 9, 36, 0
1, 14640, Note_on_c, 9, 42, 64
1, 14640, Note_on_c, 9, 37, 64
1, 14720, Note_on_c, 9, 42, 0
1, 14720, Note_on_c, 9, 37, 0
1, 14800, Note_on_c, 9, 42, 64
1, 14880, Note_on_c, 9, 42, 0
1, 14880, Note_on_c, 9, 42, 64
1, 14880, Note_on_c, 9, 36, 64
1, 14960, Note_on_c, 9, 42, 0
1, 14960, Note_on_c, 9, 36, 0
1, 15120, Note_on_c, 9, 42, 64
1, 15120, Note_on_c, 9, 37, 64
1, 15200, Note_on_c, 9, 42, 0
1, 15200, Note_on_c, 9, 37, 0
1, 15280, Note_on_c, 9, 42, 64
1, 15280, Note_on_c, 9, 37, 64
1, 15360, Note_on_c, 9, 37, 0
1, 15360, Note_on_c, 9, 42, 64
1, 15360, Note_on_c, 9, 36, 64
1, 15361, Note_on_c, 9, 42, 0
1, 15420, Note_on_c, 9, 42, 0
1, 15420, Note_on_c, 9, 36, 0
1, 15480, Note_on_c, 9, 42, 64
1, 15480, Note_on_c, 9, 37, 64
1, 15540, Note_on_c, 9, 42, 0
1, 15540, Note_on_c, 9, 37, 0
1, 15540, Note_on_c, 9, 42, 64
1, 15540, Note_on_c, 9, 37, 64
1, 15600, Note_on_c, 9, 37, 0
1, 15600, Note_on_c, 9, 42, 64
1, 15600, Note_on_c, 9, 36, 64
1, 15601, Note_on_c, 9, 42, 0
1, 15660, Note_on_c, 9, 42, 0
1, 15660, Note_on_c, 9, 36, 0
1, 15720, Note_on_c, 9, 42, 64
1, 15720, Note_on_c, 9, 37, 64
1, 15780, Note_on_c, 9, 42, 0
1, 15780, Note_on_c, 9, 37, 0
1, 15780, Note_on_c, 9, 42, 64
1, 15780, Note_on_c, 9, 37, 64
1, 15840, Note_on_c, 9, 37, 0
1, 15840, Note_on_c, 9, 42, 64
1, 15840, Note_on_c, 9, 36, 64
1, 15841, Note_on_c, 9, 42, 0
1, 15900, Note_on_c, 9, 42, 0
1, 15900, Note_on_c, 9, 36, 0
1, 15960, Note_on_c, 9, 42, 64
1, 16020, Note_on_c, 9, 42, 0
1, 16020, Note_on_c, 9, 38, 64
1, 16080, Note_on_c, 9, 38, 0
1, 16080, Note_on_c, 9, 42, 64
1, 16080, Note_on_c, 9, 36, 64
1, 16140, Note_on_c, 9, 42, 0
1, 16140, Note_on_c, 9, 36, 0
1, 16200, Note_on_c, 9, 42, 64
1, 16200, Note_on_c, 9, 38, 64
1, 16260, Note_on_c, 9, 42, 0
1, 16260, Note_on_c, 9, 38, 0
1, 16320, Note_on_c, 9, 42, 64
1, 16320, Note_on_c, 9, 36, 64
1, 16380, Note_on_c, 9, 42, 0
1, 16380, Note_on_c, 9, 36, 0
1, 16440, Note_on_c, 9, 42, 64
1, 16440, Note_on_c, 9, 37, 64
1, 16500, Note_on_c, 9, 42, 0
1, 16500, Note_on_c, 9, 37, 0
1, 16500, Note_on_c, 9, 42, 64
1, 16500, Note_on_c, 9, 37, 64
1, 16560, Note_on_c, 9, 37, 0
1, 16560, Note_on_c, 9, 42, 64
1, 16560, Note_on_c, 9, 36, 64
1, 16561, Note_on_c, 9, 42, 0
1, 16620, Note_on_c, 9, 42, 0
1, 16620, Note_on_c, 9, 36, 0
1, 16680, Note_on_c, 9, 42, 64
1, 16680, Note_on_c, 9, 37, 64
1, 16740, Note_on_c, 9, 42, 0
1, 16740, Note_on_c, 9, 37, 0
1, 16740, Note_on_c, 9, 42, 64
1, 16740, Note_on_c, 9, 37, 64
1, 16800, Note_on_c, 9, 37, 0
1, 16800, Note_on_c, 9, 42, 64
1, 16800, Note_on_c, 9, 36, 64
1, 16801, Note_on_c, 9, 42, 0
1, 16860, Note_on_c, 9, 42, 0
1, 16860, Note_on_c, 9, 36, 0
1, 16920, Note_on_c, 9, 42, 64
1, 16980, Note_on_c, 9, 42, 0
1, 16980, Note_on_c, 9, 38, 64
1, 17040, Note_on_c, 9, 38, 0
1, 17040, Note_on_c, 9, 42, 64
1, 17040, Note_on_c, 9, 36, 64
1, 17100, Note_on_c, 9, 42, 0
1, 17100, Note_on_c, 9, 36, 0
1, 17160, Note_on_c, 9, 42, 64
1, 17160, Note_on_c, 9, 38, 64
1, 17220, Note_on_c, 9, 42, 0
1, 17220, Note_on_c, 9, 38, 0
1, 17280, Note_on_c, 9, 42, 64
1, 17340, Note_on_c, 9, 42, 0
1, 17340, Note_on_c, 9, 44, 64
1, 17400, Note_on_c, 9, 44, 0
1, 17460, Note_on_c, 9, 42, 64
1, 17520, Note_on_c, 9, 42, 0
1, 17520, Note_on_c, 9, 44, 64
1, 17580, Note_on_c, 9, 44, 0
1, 17640, Note_on_c, 9, 42, 64
1, 17700, Note_on_c, 9, 42, 0
1, 17760, Note_on_c, 9, 42, 64
1, 17760, Note_on_c, 9, 36, 64
1, 17820, Note_on_c, 9, 42, 0
1, 17820, Note_on_c, 9, 36, 0
1, 17880, Note_on_c, 9, 42, 64
1, 17940, Note_on_c, 9, 42, 0
1, 17940, Note_on_c, 9, 42, 64
1, 18000, Note_on_c, 9, 42, 64
1, 18001, Note_on_c, 9, 42, 0
1, 18060, Note_on_c, 9, 42, 0
1, 18120, Note_on_c, 9, 44, 64
1, 18180, Note_on_c, 9, 44, 0
1, 18240, Note_on_c, 9, 42, 64
1, 18300, Note_on_c, 9, 42, 0
1, 18300, Note_on_c, 9, 44, 64
1, 18360, Note_on_c, 9, 44, 0
1, 18420, Note_on_c, 9, 42, 64
1, 18480, Note_on_c, 9, 42, 0
1, 18480, Note_on_c, 9, 44, 64
1, 18540, Note_on_c, 9, 44, 0
1, 18600, Note_on_c, 9, 42, 64
1, 18660, Note_on_c, 9, 42, 0
1, 18720, Note_on_c, 9, 42, 64
1, 18720, Note_on_c, 9, 36, 64
1, 18780, Note_on_c, 9, 42, 0
1, 18780, Note_on_c, 9, 36, 0
1, 18840, Note_on_c, 9, 42, 64
1, 18900, Note_on_c, 9, 42, 0
1, 18900, Note_on_c, 9, 42, 64
1, 18960, Note_on_c, 9, 42, 64
1, 18961, Note_on_c, 9, 42, 0
1, 19020, Note_on_c, 9, 42, 0
1, 19080, Note_on_c, 9, 44, 64
1, 19140, Note_on_c, 9, 44, 0
1, 19200, Note_on_c, 9, 42, 64
1, 19200, Note_on_c, 9, 36, 64
1, 19260, Note_on_c, 9, 42, 0
1, 19260, Note_on_c, 9, 36, 0
1, 19320, Note_on_c, 9, 42, 64
1, 19380, Note_on_c, 9, 42, 0
1, 19440, Note_on_c, 9, 42, 64
1, 19500, Note_on_c, 9, 42, 0
1, 19560, Note_on_c, 9, 42, 64
1, 19560, Note_on_c, 9, 36, 64
1, 19620, Note_on_c, 9, 42, 0
1, 19620, Note_on_c, 9, 36, 0
1, 19680, Note_on_c, 9, 42, 64
1, 19680, Note_on_c, 9, 37, 64
1, 19740, Note_on_c, 9, 42, 0
1, 19740, Note_on_c, 9, 37, 0
1, 19740, Note_on_c, 9, 36, 64
1, 19800, Note_on_c, 9, 36, 0
1, 19800, Note_on_c, 9, 42, 64
1, 19860, Note_on_c, 9, 42, 0
1, 19860, Note_on_c, 9, 36, 64
1, 19920, Note_on_c, 9, 36, 0
1, 19920, Note_on_c, 9, 42, 64
1, 19920, Note_on_c, 9, 36, 64
1, 19980, Note_on_c, 9, 42, 0
1, 19980, Note_on_c, 9, 36, 0
1, 20040, Note_on_c, 9, 42, 64
1, 20100, Note_on_c, 9, 42, 0
1, 20160, Note_on_c, 9, 42, 64
1, 20160, Note_on_c, 9, 36, 64
1, 20220, Note_on_c, 9, 42, 0
1, 20220, Note_on_c, 9, 36, 0
1, 20280, Note_on_c, 9, 42, 64
1, 20340, Note_on_c, 9, 42, 0
1, 20400, Note_on_c, 9, 42, 64
1, 20460, Note_on_c, 9, 42, 0
1, 20520, Note_on_c, 9, 42, 64
1, 20520, Note_on_c, 9, 36, 64
1, 20580, Note_on_c, 9, 42, 0
1, 20580, Note_on_c, 9, 36, 0
1, 20640, Note_on_c, 9, 42, 64
1, 20640, Note_on_c, 9, 37, 64
1, 20700, Note_on_c, 9, 42, 0
1, 20700, Note_on_c, 9, 37, 0
1, 20700, Note_on_c, 9, 36, 64
1, 20760, Note_on_c, 9, 36, 0
1, 20760, Note_on_c, 9, 42, 64
1, 20820, Note_on_c, 9, 42, 0
1, 20820, Note_on_c, 9, 36, 64
1, 20880, Note_on_c, 9, 36, 0
1, 20880, Note_on_c, 9, 42, 64
1, 20880, Note_on_c, 9, 36, 64
1, 20940, Note_on_c, 9, 42, 0
1, 20940, Note_on_c, 9, 36, 0
1, 21000, Note_on_c, 9, 42, 64
1, 21060, Note_on_c, 9, 42, 0
1, 21120, Note_on_c, 9, 44, 88
1, 21120, Note_on_c, 9, 38, 64
1, 21120, Note_on_c, 9, 36, 64
1, 21180, Note_on_c, 9, 44, 0
1, 21180, Note_on_c, 9, 38, 0
1, 21180, Note_on_c, 9, 36, 0
1, 21360, Note_on_c, 9, 50, 64
1, 21420, Note_on_c, 9, 50, 0
1, 21420, Note_on_c, 9, 50, 64
1, 21480, Note_on_c, 9, 50, 0
1, 21480, Note_on_c, 9, 47, 64
1, 21540, Note_on_c, 9, 47, 0
1, 21540, Note_on_c, 9, 47, 64
1, 21600, Note_on_c, 9, 47, 0
1, 21600, Note_on_c, 9, 43, 64
1, 21660, Note_on_c, 9, 43, 0
1, 21720, Note_on_c, 9, 43, 64
1, 21780, Note_on_c, 9, 43, 0
1, 21840, Note_on_c, 9, 42, 88
1, 21840, Note_on_c, 9, 36, 64
1, 21900, Note_on_c, 9, 42, 0
1, 21900, Note_on_c, 9, 36, 0
1, 22080, Note_on_c, 9, 44, 88
1, 22080, Note_on_c, 9, 38, 64
1, 22080, Note_on_c, 9, 36, 64
1, 22140, Note_on_c, 9, 44, 0
1, 22140, Note_on_c, 9, 38, 0
1, 22140, Note_on_c, 9, 36, 0
1, 22320, Note_on_c, 9, 50, 64
1, 22380, Note_on_c, 9, 50, 0
1, 22380, Note_on_c, 9, 50, 64
1, 22440, Note_on_c, 9, 50, 0
1, 22440, Note_on_c, 9, 47, 64
1, 22500, Note_on_c, 9, 47, 0
1, 22500, Note_on_c, 9, 47, 64
1, 22560, Note_on_c, 9, 47, 0
1, 22560, Note_on_c, 9, 43, 64
1, 22620, Note_on_c, 9, 43, 0
1, 22680, Note_on_c, 9, 43, 64
1, 22740, Note_on_c, 9, 43, 0
1, 22800, Note_on_c, 9, 42, 88
1, 22800, Note_on_c, 9, 36, 64
1, 22860, Note_on_c, 9, 42, 0
1, 22860, Note_on_c, 9, 36, 0
1, 23280, Note_on_c, 9, 38, 88
1, 23340, Note_on_c, 9, 38, 0
1, 23400, Note_on_c, 9, 44, 64
1, 23400, Note_on_c, 9, 36, 64
1, 23460, Note_on_c, 9, 44, 0
1, 23460, Note_on_c, 9, 36, 0
1, 23520, Note_on_c, 9, 50, 64
1, 23580, Note_on_c, 9, 50, 0
1, 23640, Note_on_c, 9, 44, 64
1, 23640, Note_on_c, 9, 36, 64
1, 23700, Note_on_c, 9, 44, 0
1, 23700, Note_on_c, 9, 36, 0
1, 23760, Note_on_c, 9, 47, 88
1, 23820, Note_on_c, 9, 47, 0
1, 23820, Note_on_c, 9, 47, 88
1, 23880, Note_on_c, 9, 47, 0
1, 23880, Note_on_c, 9, 44, 64
1, 23880, Note_on_c, 9, 36, 64
1, 23940, Note_on_c, 9, 44, 0
1, 23940, Note_on_c, 9, 36, 0
1, 24240, Note_on_c, 9, 38, 88
1, 24300, Note_on_c, 9, 38, 0
1, 24360, Note_on_c, 9, 44, 64
1, 24360, Note_on_c, 9, 36, 64
1, 24420, Note_on_c, 9, 44, 0
1, 24420, Note_on_c, 9, 36, 0
1, 24480, Note_on_c, 9, 50, 64
1, 24540, Note_on_c, 9, 50, 0
1, 24600, Note_on_c, 9, 44, 64
1, 24600, Note_on_c, 9, 36, 64
1, 24660, Note_on_c, 9, 44, 0
1, 24660, Note_on_c, 9, 36, 0
1, 24720, Note_on_c, 9, 47, 88
1, 24780, Note_on_c, 9, 47, 0
1, 24780, Note_on_c, 9, 47, 88
1, 24840, Note_on_c, 9, 47, 0
1, 24840, Note_on_c, 9, 44, 64
1, 24840, Note_on_c, 9, 36, 64
1, 24900, Note_on_c, 9, 44, 0
1, 24900, Note_on_c, 9, 36, 0
1, 24960, Note_on_c, 9, 38, 64
1, 25020, Note_on_c, 9, 38, 0
1, 25020, Note_on_c, 9, 38, 64
1, 25080, Note_on_c, 9, 38, 0
1, 25080, Note_on_c, 9, 47, 64
1, 25140, Note_on_c, 9, 47, 0
1, 25140, Note_on_c, 9, 47, 64
1, 25200, Note_on_c, 9, 47, 0
1, 25200, Note_on_c, 9, 43, 64
1, 25260, Note_on_c, 9, 43, 0
1, 25320, Note_on_c, 9, 38, 64
1, 25380, Note_on_c, 9, 38, 0
1, 25380, Note_on_c, 9, 38, 64
1, 25440, Note_on_c, 9, 38, 0
1, 25440, Note_on_c, 9, 50, 64
1, 25500, Note_on_c, 9, 50, 0
1, 25500, Note_on_c, 9, 50, 64
1, 25560, Note_on_c, 9, 50, 0
1, 25560, Note_on_c, 9, 43, 64
1, 25620, Note_on_c, 9, 43, 0
1, 25680, Note_on_c, 9, 38, 88
1, 25740, Note_on_c, 9, 38, 0
1, 25740, Note_on_c, 9, 38, 88
1, 25800, Note_on_c, 9, 38, 0
1, 25800, Note_on_c, 9, 44, 88
1, 25800, Note_on_c, 9, 36, 64
1, 25860, Note_on_c, 9, 44, 0
1, 25860, Note_on_c, 9, 36, 0
1, 25920, Note_on_c, 9, 38, 64
1, 25980, Note_on_c, 9, 38, 0
1, 25980, Note_on_c, 9, 38, 64
1, 26040, Note_on_c, 9, 38, 0
1, 26040, Note_on_c, 9, 47, 64
1, 26100, Note_on_c, 9, 47, 0
1, 26100, Note_on_c, 9, 47, 64
1, 26160, Note_on_c, 9, 47, 0
1, 26160, Note_on_c, 9, 43, 64
1, 26220, Note_on_c, 9, 43, 0
1, 26280, Note_on_c, 9, 38, 64
1, 26340, Note_on_c, 9, 38, 0
1, 26340, Note_on_c, 9, 38, 64
1, 26400, Note_on_c, 9, 38, 0
1, 26400, Note_on_c, 9, 50, 64
1, 26460, Note_on_c, 9, 50, 0
1, 26460, Note_on_c, 9, 50, 64
1, 26520, Note_on_c, 9, 50, 0
1, 26520, Note_on_c, 9, 43, 64
1, 26580, Note_on_c, 9, 43, 0
1, 26640, Note_on_c, 9, 38, 88
1, 26700, Note_on_c, 9, 38, 0
1, 26700, Note_on_c, 9, 38, 88
1, 26760, Note_on_c, 9, 38, 0
1, 26760, Note_on_c, 9, 44, 88
1, 26760, Note_on_c, 9, 36, 64
1, 26820, Note_on_c, 9, 44, 0
1, 26820, Note_on_c, 9, 36, 0
1, 26880, Note_on_c, 9, 38, 88
1, 26910, Note_on_c, 9, 38, 0
1, 27000, Note_on_c, 9, 38, 64
1, 27030, Note_on_c, 9, 38, 0
1, 27120, Note_on_c, 9, 42, 64
1, 27150, Note_on_c, 9, 42, 0
1, 27240, Note_on_c, 9, 38, 64
1, 27270, Note_on_c, 9, 38, 0
1, 27360, Note_on_c, 9, 38, 88
1, 27390, Note_on_c, 9, 38, 0
1, 27480, Note_on_c, 9, 38, 64
1, 27510, Note_on_c, 9, 38, 0
1, 27600, Note_on_c, 9, 44, 88
1, 27600, Note_on_c, 9, 38, 64
1, 27600, Note_on_c, 9, 36, 64
1, 27630, Note_on_c, 9, 44, 0
1, 27630, Note_on_c, 9, 38, 0
1, 27630, Note_on_c, 9, 36, 0
1, 27810, Note_on_c, 9, 38, 40
1, 27840, Note_on_c, 9, 38, 0
1, 27840, Note_on_c, 9, 38, 88
1, 27870, Note_on_c, 9, 38, 0
1, 27960, Note_on_c, 9, 38, 64
1, 27990, Note_on_c, 9, 38, 0
1, 28080, Note_on_c, 9, 42, 64
1, 28110, Note_on_c, 9, 42, 0
1, 28200, Note_on_c, 9, 38, 64
1, 28230, Note_on_c, 9, 38, 0
1, 28320, Note_on_c, 9, 38, 88
1, 28350, Note_on_c, 9, 38, 0
1, 28440, Note_on_c, 9, 38, 64
1, 28470, Note_on_c, 9, 38, 0
1, 28560, Note_on_c, 9, 44, 88
1, 28560, Note_on_c, 9, 38, 64
1, 28560, Note_on_c, 9, 36, 64
1, 28590, Note_on_c, 9, 44, 0
1, 28590, Note_on_c, 9, 38, 0
1, 28590, Note_on_c, 9, 36, 0
1, 28770, Note_on_c, 9, 38, 40
1, 28800, Note_on_c, 9, 38, 64
1, 28801, Note_on_c, 9, 38, 0
1, 28830, Note_on_c, 9, 38, 0
1, 28920, Note_on_c, 9, 42, 64
1, 28920, Note_on_c, 9, 36, 64
1, 28950, Note_on_c, 9, 42, 0
1, 28950, Note_on_c, 9, 36, 0
1, 29040, Note_on_c, 9, 44, 64
1, 29040, Note_on_c, 9, 36, 64
1, 29070, Note_on_c, 9, 44, 0
1, 29070, Note_on_c, 9, 36, 0
1, 29130, Note_on_c, 9, 38, 40
1, 29160, Note_on_c, 9, 38, 0
1, 29160, Note_on_c, 9, 38, 64
1, 29190, Note_on_c, 9, 38, 0
1, 29280, Note_on_c, 9, 36, 64
1, 29310, Note_on_c, 9, 36, 0
1, 29400, Note_on_c, 9, 42, 64
1, 29400, Note_on_c, 9, 36, 64
1, 29430, Note_on_c, 9, 42, 0
1, 29430, Note_on_c, 9, 36, 0
1, 29490, Note_on_c, 9, 38, 40
1, 29520, Note_on_c, 9, 38, 0
1, 29520, Note_on_c, 9, 44, 64
1, 29520, Note_on_c, 9, 38, 64
1, 29550, Note_on_c, 9, 44, 0
1, 29550, Note_on_c, 9, 38, 0
1, 29730, Note_on_c, 9, 38, 40
1, 29760, Note_on_c, 9, 38, 0
1, 29760, Note_on_c, 9, 38, 64
1, 29790, Note_on_c, 9, 38, 0
1, 29880, Note_on_c, 9, 42, 64
1, 29880, Note_on_c, 9, 36, 64
1, 29910, Note_on_c, 9, 42, 0
1, 29910, Note_on_c, 9, 36, 0
1, 30000, Note_on_c, 9, 44, 64
1, 30000, Note_on_c, 9, 36, 64
1, 30030, Note_on_c, 9, 44, 0
1, 30030, Note_on_c, 9, 36, 0
1, 30090, Note_on_c, 9, 38, 40
1, 30120, Note_on_c, 9, 38, 0
1, 30120, Note_on_c, 9, 38, 64
1, 30150, Note_on_c, 9, 38, 0
1, 30240, Note_on_c, 9, 36, 64
1, 30270, Note_on_c, 9, 36, 0
1, 30360, Note_on_c, 9, 42, 64
1, 30360, Note_on_c, 9, 36, 64
1, 30390, Note_on_c, 9, 42, 0
1, 30390, Note_on_c, 9, 36, 0
1, 30450, Note_on_c, 9, 38, 40
1, 30480, Note_on_c, 9, 38, 0
1, 30480, Note_on_c, 9, 44, 64
1, 30480, Note_on_c, 9, 38, 64
1, 30510, Note_on_c, 9, 44, 0
1, 30510, Note_on_c, 9, 38, 0
1, 30690, Note_on_c, 9, 38, 40
1, 30720, Note_on_c, 9, 38, 88
1, 30720, Note_on_c, 9, 36, 64
1, 30721, Note_on_c, 9, 38, 0
1, 30780, Note_on_c, 9, 38, 0
1, 30780, Note_on_c, 9, 36, 0
1, 31080, Note_on_c, 9, 47, 64
1, 31140, Note_on_c, 9, 47, 0
1, 31140, Note_on_c, 9, 47, 64
1, 31200, Note_on_c, 9, 47, 0
1, 31200, Note_on_c, 9, 50, 64
1, 31260, Note_on_c, 9, 50, 0
1, 31260, Note_on_c, 9, 50, 64
1, 31320, Note_on_c, 9, 50, 0
1, 31320, Note_on_c, 9, 43, 64
1, 31380, Note_on_c, 9, 43, 0
1, 31440, Note_on_c, 9, 44, 88
1, 31440, Note_on_c, 9, 43, 64
1, 31500, Note_on_c, 9, 44, 0
1, 31500, Note_on_c, 9, 43, 0
1, 31680, Note_on_c, 9, 38, 88
1, 31680, Note_on_c, 9, 36, 64
1, 31740, Note_on_c, 9, 38, 0
1, 31740, Note_on_c, 9, 36, 0
1, 32040, Note_on_c, 9, 47, 64
1, 32100, Note_on_c, 9, 47, 0
1, 32100, Note_on_c, 9, 47, 64
1, 32160, Note_on_c, 9, 47, 0
1, 32160, Note_on_c, 9, 50, 64
1, 32220, Note_on_c, 9, 50, 0
1, 32220, Note_on_c, 9, 50, 64
1, 32280, Note_on_c, 9, 50, 0
1, 32280, Note_on_c, 9, 43, 64
1, 32340, Note_on_c, 9, 43, 0
1, 32400, Note_on_c, 9, 44, 88
1, 32400, Note_on_c, 9, 43, 64
1, 32460, Note_on_c, 9, 44, 0
1, 32460, Note_on_c, 9, 43, 0
1, 32640, Note_on_c, 9, 38, 64
1, 32640, Note_on_c, 9, 36, 64
1, 32680, Note_on_c, 9, 38, 0
1, 32680, Note_on_c, 9, 36, 0
1, 32720, Note_on_c, 9, 38, 64
1, 32760, Note_on_c, 9, 38, 0
1, 32800, Note_on_c, 9, 38, 64
1, 32840, Note_on_c, 9, 38, 0
1, 32880, Note_on_c, 9, 38, 64
1, 32880, Note_on_c, 9, 36, 64
1, 32920, Note_on_c, 9, 38, 0
1, 32920, Note_on_c, 9, 36, 0
1, 33080, Note_on_c, 9, 47, 40
1, 33120, Note_on_c, 9, 47, 0
1, 33120, Note_on_c, 9, 47, 64
1, 33120, Note_on_c, 9, 36, 64
1, 33160, Note_on_c, 9, 47, 0
1, 33160, Note_on_c, 9, 36, 0
1, 33200, Note_on_c, 9, 47, 64
1, 33240, Note_on_c, 9, 47, 0
1, 33280, Note_on_c, 9, 47, 64
1, 33320, Note_on_c, 9, 47, 0
1, 33360, Note_on_c, 9, 44, 64
1, 33360, Note_on_c, 9, 43, 64
1, 33360, Note_on_c, 9, 36, 64
1, 33400, Note_on_c, 9, 44, 0
1, 33400, Note_on_c, 9, 43, 0
1, 33400, Note_on_c, 9, 36, 0
1, 33560, Note_on_c, 9, 38, 40
1, 33600, Note_on_c, 9, 38, 0
1, 33600, Note_on_c, 9, 38, 64
1, 33600, Note_on_c, 9, 36, 64
1, 33640, Note_on_c, 9, 38, 0
1, 33640, Note_on_c, 9, 36, 0
1, 33680, Note_on_c, 9, 38, 64
1, 33720, Note_on_c, 9, 38, 0
1, 33760, Note_on_c, 9, 38, 64
1, 33800, Note_on_c, 9, 38, 0
1, 33840, Note_on_c, 9, 38, 64
1, 33840, Note_on_c, 9, 36, 64
1, 33880, Note_on_c, 9, 38, 0
1, 33880, Note_on_c, 9, 36, 0
1, 34040, Note_on_c, 9, 47, 40
1, 34080, Note_on_c, 9, 47, 0
1, 34080, Note_on_c, 9, 47, 64
1, 34080, Note_on_c, 9, 36, 64
1, 34120, Note_on_c, 9, 47, 0
1, 34120, Note_on_c, 9, 36, 0
1, 34160, Note_on_c, 9, 47, 64
1, 34200, Note_on_c, 9, 47, 0
1, 34240, Note_on_c, 9, 47, 64
1, 34280, Note_on_c, 9, 47, 0
1, 34320, Note_on_c, 9, 44, 64
1, 34320, Note_on_c, 9, 43, 64
1, 34320, Note_on_c, 9, 36, 64
1, 34360, Note_on_c, 9, 44, 0
1, 34360, Note_on_c, 9, 43, 0
1, 34360, Note_on_c, 9, 36, 0
1, 34520, Note_on_c, 9, 38, 40
1, 34560, Note_on_c, 9, 38, 64
1, 34560, Note_on_c, 9, 36, 64
1, 34561, Note_on_c, 9, 38, 0
1, 34640, Note_on_c, 9, 38, 0
1, 34640, Note_on_c, 9, 36, 0
1, 34720, Note_on_c, 9, 38, 64
1, 34800, Note_on_c, 9, 38, 0
1, 34800, Note_on_c, 9, 50, 64
1, 34880, Note_on_c, 9, 50, 0
1, 34880, Note_on_c, 9, 50, 64
1, 34960, Note_on_c, 9, 50, 64
1, 34961, Note_on_c, 9, 50, 0
1, 35040, Note_on_c, 9, 50, 0
1, 35040, Note_on_c, 9, 47, 64
1, 35120, Note_on_c, 9, 47, 0
1, 35200, Note_on_c, 9, 47, 64
1, 35280, Note_on_c, 9, 47, 0
1, 35280, Note_on_c, 9, 43, 64
1, 35360, Note_on_c, 9, 43, 0
1, 35360, Note_on_c, 9, 44, 64
1, 35360, Note_on_c, 9, 43, 64
1, 35440, Note_on_c, 9, 44, 0
1, 35440, Note_on_c, 9, 42, 64
1, 35440, Note_on_c, 9, 43, 64
1, 35441, Note_on_c, 9, 43, 0
1, 35520, Note_on_c, 9, 42, 0
1, 35520, Note_on_c, 9, 43, 0
1, 35520, Note_on_c, 9, 38, 64
1, 35520, Note_on_c, 9, 36, 64
1, 35600, Note_on_c, 9, 38, 0
1, 35600, Note_on_c, 9, 36, 0
1, 35680, Note_on_c, 9, 38, 64
1, 35760, Note_on_c, 9, 38, 0
1, 35760, Note_on_c, 9, 50, 64
1, 35840, Note_on_c, 9, 50, 0
1, 35840, Note_on_c, 9, 50, 64
1, 35920, Note_on_c, 9, 50, 64
1, 35921, Note_on_c, 9, 50, 0
1, 36000, Note_on_c, 9, 50, 0
1, 36000, Note_on_c, 9, 47, 64
1, 36080, Note_on_c, 9, 47, 0
1, 36160, Note_on_c, 9, 47, 64
1, 36240, Note_on_c, 9, 47, 0
1, 36240, Note_on_c, 9, 43, 64
1, 36320, Note_on_c, 9, 43, 0
1, 36320, Note_on_c, 9, 44, 64
1, 36320, Note_on_c, 9, 43, 64
1, 36400, Note_on_c, 9, 44, 0
1, 36400, Note_on_c, 9, 42, 64
1, 36400, Note_on_c, 9, 43, 64
1, 36401, Note_on_c, 9, 43, 0
1, 36480, Note_on_c, 9, 43, 0
1, 36480, Note_on_c, 9, 42, 88
1, 36480, Note_on_c, 9, 36, 52
1, 36481, Note_on_c, 9, 42, 0
1, 36560, Note_on_c, 9, 42, 0
1, 36560, Note_on_c, 9, 36, 0
1, 36640, Note_on_c, 9, 47, 88
1, 36720, Note_on_c, 9, 47, 0
1, 36720, Note_on_c, 9, 47, 52
1, 36800, Note_on_c, 9, 47, 0
1, 36800, Note_on_c, 9, 38, 88
1, 36880, Note_on_c, 9, 38, 0
1, 36880, Note_on_c, 9, 38, 52
1, 36960, Note_on_c, 9, 38, 0
1, 36960, Note_on_c, 9, 47, 88
1, 37040, Note_on_c, 9, 47, 0
1, 37040, Note_on_c, 9, 47, 52
1, 37120, Note_on_c, 9, 47, 0
1, 37120, Note_on_c, 9, 38, 88
1, 37200, Note_on_c, 9, 38, 0
1, 37200, Note_on_c, 9, 38, 52
1, 37280, Note_on_c, 9, 38, 0
1, 37280, Note_on_c, 9, 47, 88
1, 37360, Note_on_c, 9, 47, 0
1, 37360, Note_on_c, 9, 47, 52
1, 37440, Note_on_c, 9, 47, 0
1, 37440, Note_on_c, 9, 42, 88
1, 37440, Note_on_c, 9, 36, 52
1, 37520, Note_on_c, 9, 42, 0
1, 37520, Note_on_c, 9, 36, 0
1, 37600, Note_on_c, 9, 47, 88
1, 37680, Note_on_c, 9, 47, 0
1, 37680, Note_on_c, 9, 47, 52
1, 37760, Note_on_c, 9, 47, 0
1, 37760, Note_on_c, 9, 38, 88
1, 37840, Note_on_c, 9, 38, 0
1, 37840, Note_on_c, 9, 38, 52
1, 37920, Note_on_c, 9, 38, 0
1, 37920, Note_on_c, 9, 47, 88
1, 38000, Note_on_c, 9, 47, 0
1, 38000, Note_on_c, 9, 47, 52
1, 38080, Note_on_c, 9, 47, 0
1, 38080, Note_on_c, 9, 38, 88
1, 38160, Note_on_c, 9, 38, 0
1, 38160, Note_on_c, 9, 38, 52
1, 38240, Note_on_c, 9, 38, 0
1, 38240, Note_on_c, 9, 47, 88
1, 38320, Note_on_c, 9, 47, 0
1, 38320, Note_on_c, 9, 47, 52
1, 38400, Note_on_c, 9, 47, 0
1, 38400, End_track
0, 0, End_of_file
