0, 0, Header, 1, 3, 480
1, 0, Start_track
1, 0, Time_signature, 4, 2, 24, 8
1, 0, Key_signature, 0, "major"
1, 0, SMPTE_offset, 96, 0, 0, 0, 0
1, 0, Tempo, 588235
1, 264960, End_track
2, 0, Start_track
2, 0, Channel_prefix, 9
2, 0, Title_t, "Ride cymbal"
2, 0, Instrument_name_t, "Final rock dataset"
2, 0, Note_on_c, 9, 36, 64
2, 0, Note_on_c, 9, 42, 64
2, 120, Note_on_c, 9, 36, 0
2, 120, Note_on_c, 9, 42, 0
2, 480, Note_on_c, 9, 38, 64
2, 480, Note_on_c, 9, 42, 110
2, 600, Note_on_c, 9, 38, 0
2, 600, Note_on_c, 9, 42, 0
2, 720, Note_on_c, 9, 36, 64
2, 840, Note_on_c, 9, 36, 0
2, 960, Note_on_c, 9, 36, 64
2, 960, Note_on_c, 9, 42, 64
2, 1080, Note_on_c, 9, 36, 0
2, 1080, Note_on_c, 9, 42, 0
2, 1440, Note_on_c, 9, 38, 64
2, 1440, Note_on_c, 9, 42, 64
2, 1560, Note_on_c, 9, 38, 0
2, 1560, Note_on_c, 9, 42, 0
2, 1920, Note_on_c, 9, 36, 64
2, 1920, Note_on_c, 9, 42, 64
2, 2040, Note_on_c, 9, 36, 0
2, 2040, Note_on_c, 9, 42, 0
2, 2400, Note_on_c, 9, 38, 64
2, 2400, Note_on_c, 9, 42, 110
2, 2520, Note_on_c, 9, 38, 0
2, 2520, Note_on_c, 9, 42, 0
2, 2640, Note_on_c, 9, 36, 64
2, 2760, Note_on_c, 9, 36, 0
2, 2880, Note_on_c, 9, 36, 64
2, 2880, Note_on_c, 9, 42, 64
2, 3000, Note_on_c, 9, 36, 0
2, 3000, Note_on_c, 9, 42, 0
2, 3360, Note_on_c, 9, 38, 64
2, 3360, Note_on_c, 9, 42, 64
2, 3480, Note_on_c, 9, 38, 0
2, 3480, Note_on_c, 9, 42, 0
2, 3840, Note_on_c, 9, 36, 64
2, 3840, Note_on_c, 9, 42, 64
2, 3960, Note_on_c, 9, 36, 0
2, 3960, Note_on_c, 9, 42, 0
2, 4320, Note_on_c, 9, 38, 64
2, 4320, Note_on_c, 9, 42, 64
2, 4440, Note_on_c, 9, 38, 0
2, 4440, Note_on_c, 9, 42, 0
2, 4560, Note_on_c, 9, 36, 64
2, 4680, Note_on_c, 9, 36, 0
2, 4800, Note_on_c, 9, 36, 64
2, 4800, Note_on_c, 9, 42, 64
2, 4920, Note_on_c, 9, 36, 0
2, 4920, Note_on_c, 9, 42, 0
2, 5040, Note_on_c, 9, 36, 64
2, 5160, Note_on_c, 9, 36, 0
2, 5280, Note_on_c, 9, 38, 64
2, 5280, Note_on_c, 9, 42, 64
2, 5400, Note_on_c, 9, 38, 0
2, 5400, Note_on_c, 9, 42, 0
2, 5520, Note_on_c, 9, 36, 64
2, 5640, Note_on_c, 9, 36, 0
2, 5760, Note_on_c, 9, 36, 64
2, 5760, Note_on_c, 9, 42, 64
2, 5880, Note_on_c, 9, 36, 0
2, 5880, Note_on_c, 9, 42, 0
2, 6240, Note_on_c, 9, 38, 64
2, 6240, Note_on_c, 9, 42, 64
2, 6360, Note_on_c, 9, 38, 0
2, 6360, Note_on_c, 9, 42, 0
2, 6480, Note_on_c, 9, 36, 64
2, 6600, Note_on_c, 9, 36, 0
2, 6720, Note_on_c, 9, 36, 64
2, 6720, Note_on_c, 9, 42, 64
2, 6840, Note_on_c, 9, 36, 0
2, 6840, Note_on_c, 9, 42, 0
2, 6960, Note_on_c, 9, 36, 64
2, 7080, Note_on_c, 9, 36, 0
2, 7200, Note_on_c, 9, 38, 64
2, 7200, Note_on_c, 9, 42, 64
2, 7320, Note_on_c, 9, 38, 0
2, 7320, Note_on_c, 9, 42, 0
2, 7440, Note_on_c, 9, 36, 64
2, 7560, Note_on_c, 9, 36, 0
2, 7680, Note_on_c, 9, 36, 110
2, 7680, Note_on_c, 9, 42, 127
2, 7800, Note_on_c, 9, 36, 0
2, 7800, Note_on_c, 9, 42, 0
2, 7920, Note_on_c, 9, 38, 64
2, 8040, Note_on_c, 9, 38, 0
2, 8040, Note_on_c, 9, 50, 64
2, 8160, Note_on_c, 9, 50, 0
2, 8160, Note_on_c, 9, 50, 64
2, 8280, Note_on_c, 9, 50, 0
2, 8400, Note_on_c, 9, 38, 64
2, 8520, Note_on_c, 9, 38, 0
2, 8520, Note_on_c, 9, 50, 64
2, 8640, Note_on_c, 9, 50, 0
2, 8640, Note_on_c, 9, 50, 64
2, 8760, Note_on_c, 9, 50, 0
2, 8880, Note_on_c, 9, 38, 64
2, 9000, Note_on_c, 9, 38, 0
2, 9000, Note_on_c, 9, 50, 64
2, 9120, Note_on_c, 9, 38, 110
2, 9120, Note_on_c, 9, 50, 0
2, 9240, Note_on_c, 9, 38, 0
2, 9240, Note_on_c, 9, 38, 64
2, 9360, Note_on_c, 9, 38, 64
2, 9362, Note_on_c, 9, 38, 0
2, 9480, Note_on_c, 9, 38, 110
2, 9482, Note_on_c, 9, 38, 0
2, 9600, Note_on_c, 9, 36, 110
2, 9600, Note_on_c, 9, 38, 0
2, 9600, Note_on_c, 9, 42, 127
2, 9720, Note_on_c, 9, 36, 0
2, 9720, Note_on_c, 9, 42, 0
2, 9840, Note_on_c, 9, 38, 64
2, 9960, Note_on_c, 9, 38, 0
2, 9960, Note_on_c, 9, 50, 64
2, 10080, Note_on_c, 9, 50, 0
2, 10080, Note_on_c, 9, 50, 64
2, 10200, Note_on_c, 9, 50, 0
2, 10320, Note_on_c, 9, 38, 64
2, 10440, Note_on_c, 9, 38, 0
2, 10440, Note_on_c, 9, 50, 64
2, 10560, Note_on_c, 9, 50, 0
2, 10560, Note_on_c, 9, 50, 64
2, 10680, Note_on_c, 9, 50, 0
2, 10800, Note_on_c, 9, 38, 64
2, 10920, Note_on_c, 9, 38, 0
2, 10920, Note_on_c, 9, 50, 64
2, 11040, Note_on_c, 9, 38, 110
2, 11040, Note_on_c, 9, 50, 0
2, 11160, Note_on_c, 9, 38, 0
2, 11160, Note_on_c, 9, 38, 64
2, 11280, Note_on_c, 9, 38, 64
2, 11282, Note_on_c, 9, 38, 0
2, 11400, Note_on_c, 9, 38, 110
2, 11402, Note_on_c, 9, 38, 0
2, 11520, Note_on_c, 9, 36, 64
2, 11520, Note_on_c, 9, 38, 0
2, 11520, Note_on_c, 9, 42, 127
2, 11640, Note_on_c, 9, 36, 0
2, 11640, Note_on_c, 9, 42, 0
2, 11640, Note_on_c, 9, 42, 64
2, 11760, Note_on_c, 9, 36, 64
2, 11760, Note_on_c, 9, 42, 127
2, 11762, Note_on_c, 9, 42, 0
2, 11880, Note_on_c, 9, 36, 0
2, 11880, Note_on_c, 9, 42, 64
2, 11882, Note_on_c, 9, 42, 0
2, 12000, Note_on_c, 9, 38, 64
2, 12000, Note_on_c, 9, 42, 127
2, 12002, Note_on_c, 9, 42, 0
2, 12120, Note_on_c, 9, 36, 64
2, 12120, Note_on_c, 9, 38, 0
2, 12120, Note_on_c, 9, 42, 64
2, 12122, Note_on_c, 9, 42, 0
2, 12240, Note_on_c, 9, 36, 0
2, 12240, Note_on_c, 9, 42, 127
2, 12242, Note_on_c, 9, 42, 0
2, 12360, Note_on_c, 9, 42, 64
2, 12362, Note_on_c, 9, 42, 0
2, 12480, Note_on_c, 9, 36, 64
2, 12480, Note_on_c, 9, 42, 127
2, 12482, Note_on_c, 9, 42, 0
2, 12600, Note_on_c, 9, 36, 0
2, 12600, Note_on_c, 9, 42, 64
2, 12602, Note_on_c, 9, 42, 0
2, 12720, Note_on_c, 9, 42, 127
2, 12722, Note_on_c, 9, 42, 0
2, 12840, Note_on_c, 9, 42, 64
2, 12842, Note_on_c, 9, 42, 0
2, 12960, Note_on_c, 9, 38, 64
2, 12960, Note_on_c, 9, 42, 127
2, 12962, Note_on_c, 9, 42, 0
2, 13080, Note_on_c, 9, 38, 0
2, 13080, Note_on_c, 9, 42, 64
2, 13082, Note_on_c, 9, 42, 0
2, 13200, Note_on_c, 9, 42, 127
2, 13202, Note_on_c, 9, 42, 0
2, 13320, Note_on_c, 9, 36, 64
2, 13320, Note_on_c, 9, 42, 0
2, 13320, Note_on_c, 9, 44, 64
2, 13440, Note_on_c, 9, 36, 0
2, 13440, Note_on_c, 9, 36, 64
2, 13440, Note_on_c, 9, 42, 127
2, 13440, Note_on_c, 9, 44, 0
2, 13560, Note_on_c, 9, 36, 0
2, 13560, Note_on_c, 9, 42, 0
2, 13560, Note_on_c, 9, 42, 64
2, 13680, Note_on_c, 9, 36, 64
2, 13680, Note_on_c, 9, 42, 127
2, 13682, Note_on_c, 9, 42, 0
2, 13800, Note_on_c, 9, 36, 0
2, 13800, Note_on_c, 9, 42, 64
2, 13802, Note_on_c, 9, 42, 0
2, 13920, Note_on_c, 9, 38, 64
2, 13920, Note_on_c, 9, 42, 127
2, 13922, Note_on_c, 9, 42, 0
2, 14040, Note_on_c, 9, 36, 64
2, 14040, Note_on_c, 9, 38, 0
2, 14040, Note_on_c, 9, 42, 64
2, 14042, Note_on_c, 9, 42, 0
2, 14160, Note_on_c, 9, 36, 0
2, 14160, Note_on_c, 9, 42, 127
2, 14162, Note_on_c, 9, 42, 0
2, 14280, Note_on_c, 9, 42, 64
2, 14282, Note_on_c, 9, 42, 0
2, 14400, Note_on_c, 9, 36, 64
2, 14400, Note_on_c, 9, 42, 127
2, 14402, Note_on_c, 9, 42, 0
2, 14520, Note_on_c, 9, 36, 0
2, 14520, Note_on_c, 9, 42, 64
2, 14522, Note_on_c, 9, 42, 0
2, 14640, Note_on_c, 9, 42, 127
2, 14642, Note_on_c, 9, 42, 0
2, 14760, Note_on_c, 9, 42, 64
2, 14762, Note_on_c, 9, 42, 0
2, 14880, Note_on_c, 9, 38, 64
2, 14880, Note_on_c, 9, 42, 127
2, 14882, Note_on_c, 9, 42, 0
2, 15000, Note_on_c, 9, 38, 0
2, 15000, Note_on_c, 9, 42, 64
2, 15002, Note_on_c, 9, 42, 0
2, 15120, Note_on_c, 9, 42, 127
2, 15122, Note_on_c, 9, 42, 0
2, 15240, Note_on_c, 9, 36, 64
2, 15240, Note_on_c, 9, 42, 0
2, 15240, Note_on_c, 9, 44, 64
2, 15360, Note_on_c, 9, 36, 64
2, 15360, Note_on_c, 9, 42, 127
2, 15360, Note_on_c, 9, 44, 0
2, 15362, Note_on_c, 9, 36, 0
2, 15480, Note_on_c, 9, 36, 0
2, 15480, Note_on_c, 9, 42, 0
2, 15480, Note_on_c, 9, 42, 64
2, 15600, Note_on_c, 9, 36, 64
2, 15600, Note_on_c, 9, 42, 127
2, 15602, Note_on_c, 9, 42, 0
2, 15720, Note_on_c, 9, 36, 0
2, 15720, Note_on_c, 9, 42, 64
2, 15722, Note_on_c, 9, 42, 0
2, 15840, Note_on_c, 9, 38, 64
2, 15840, Note_on_c, 9, 42, 127
2, 15842, Note_on_c, 9, 42, 0
2, 15960, Note_on_c, 9, 36, 64
2, 15960, Note_on_c, 9, 38, 0
2, 15960, Note_on_c, 9, 42, 64
2, 15962, Note_on_c, 9, 42, 0
2, 16080, Note_on_c, 9, 36, 0
2, 16080, Note_on_c, 9, 42, 127
2, 16082, Note_on_c, 9, 42, 0
2, 16200, Note_on_c, 9, 42, 0
2, 16200, Note_on_c, 9, 44, 110
2, 16320, Note_on_c, 9, 36, 64
2, 16320, Note_on_c, 9, 42, 127
2, 16320, Note_on_c, 9, 44, 0
2, 16440, Note_on_c, 9, 36, 0
2, 16440, Note_on_c, 9, 42, 0
2, 16440, Note_on_c, 9, 42, 64
2, 16560, Note_on_c, 9, 42, 127
2, 16562, Note_on_c, 9, 42, 0
2, 16680, Note_on_c, 9, 42, 64
2, 16682, Note_on_c, 9, 42, 0
2, 16800, Note_on_c, 9, 38, 64
2, 16800, Note_on_c, 9, 42, 127
2, 16802, Note_on_c, 9, 42, 0
2, 16920, Note_on_c, 9, 38, 0
2, 16920, Note_on_c, 9, 42, 64
2, 16922, Note_on_c, 9, 42, 0
2, 17040, Note_on_c, 9, 38, 64
2, 17040, Note_on_c, 9, 42, 127
2, 17042, Note_on_c, 9, 42, 0
2, 17160, Note_on_c, 9, 36, 88
2, 17160, Note_on_c, 9, 38, 0
2, 17160, Note_on_c, 9, 42, 0
2, 17160, Note_on_c, 9, 44, 110
2, 17280, Note_on_c, 9, 36, 0
2, 17280, Note_on_c, 9, 36, 64
2, 17280, Note_on_c, 9, 42, 127
2, 17280, Note_on_c, 9, 44, 0
2, 17400, Note_on_c, 9, 36, 0
2, 17400, Note_on_c, 9, 42, 0
2, 17400, Note_on_c, 9, 42, 64
2, 17520, Note_on_c, 9, 36, 64
2, 17520, Note_on_c, 9, 42, 127
2, 17522, Note_on_c, 9, 42, 0
2, 17640, Note_on_c, 9, 36, 0
2, 17640, Note_on_c, 9, 42, 64
2, 17642, Note_on_c, 9, 42, 0
2, 17760, Note_on_c, 9, 38, 64
2, 17760, Note_on_c, 9, 42, 127
2, 17762, Note_on_c, 9, 42, 0
2, 17880, Note_on_c, 9, 36, 64
2, 17880, Note_on_c, 9, 38, 0
2, 17880, Note_on_c, 9, 42, 64
2, 17882, Note_on_c, 9, 42, 0
2, 18000, Note_on_c, 9, 36, 0
2, 18000, Note_on_c, 9, 42, 127
2, 18002, Note_on_c, 9, 42, 0
2, 18120, Note_on_c, 9, 42, 0
2, 18120, Note_on_c, 9, 44, 110
2, 18240, Note_on_c, 9, 36, 64
2, 18240, Note_on_c, 9, 42, 127
2, 18240, Note_on_c, 9, 44, 0
2, 18360, Note_on_c, 9, 36, 0
2, 18360, Note_on_c, 9, 42, 0
2, 18360, Note_on_c, 9, 42, 64
2, 18480, Note_on_c, 9, 42, 127
2, 18482, Note_on_c, 9, 42, 0
2, 18600, Note_on_c, 9, 42, 64
2, 18602, Note_on_c, 9, 42, 0
2, 18720, Note_on_c, 9, 38, 64
2, 18720, Note_on_c, 9, 42, 127
2, 18722, Note_on_c, 9, 42, 0
2, 18840, Note_on_c, 9, 38, 0
2, 18840, Note_on_c, 9, 42, 64
2, 18842, Note_on_c, 9, 42, 0
2, 18960, Note_on_c, 9, 38, 64
2, 18960, Note_on_c, 9, 42, 127
2, 18962, Note_on_c, 9, 42, 0
2, 19080, Note_on_c, 9, 36, 88
2, 19080, Note_on_c, 9, 38, 0
2, 19080, Note_on_c, 9, 42, 0
2, 19080, Note_on_c, 9, 44, 110
2, 19200, Note_on_c, 9, 36, 88
2, 19200, Note_on_c, 9, 38, 64
2, 19200, Note_on_c, 9, 44, 0
2, 19202, Note_on_c, 9, 36, 0
2, 19320, Note_on_c, 9, 36, 0
2, 19320, Note_on_c, 9, 38, 0
2, 19320, Note_on_c, 9, 38, 64
2, 19440, Note_on_c, 9, 36, 64
2, 19440, Note_on_c, 9, 38, 64
2, 19442, Note_on_c, 9, 38, 0
2, 19560, Note_on_c, 9, 36, 0
2, 19560, Note_on_c, 9, 38, 64
2, 19562, Note_on_c, 9, 38, 0
2, 19680, Note_on_c, 9, 38, 0
2, 19680, Note_on_c, 9, 47, 64
2, 19800, Note_on_c, 9, 36, 64
2, 19800, Note_on_c, 9, 47, 0
2, 19800, Note_on_c, 9, 47, 64
2, 19920, Note_on_c, 9, 36, 0
2, 19920, Note_on_c, 9, 47, 64
2, 19922, Note_on_c, 9, 47, 0
2, 20040, Note_on_c, 9, 47, 64
2, 20042, Note_on_c, 9, 47, 0
2, 20160, Note_on_c, 9, 36, 88
2, 20160, Note_on_c, 9, 43, 64
2, 20160, Note_on_c, 9, 47, 0
2, 20280, Note_on_c, 9, 36, 0
2, 20280, Note_on_c, 9, 43, 0
2, 20280, Note_on_c, 9, 43, 64
2, 20400, Note_on_c, 9, 36, 64
2, 20400, Note_on_c, 9, 43, 64
2, 20402, Note_on_c, 9, 43, 0
2, 20520, Note_on_c, 9, 36, 0
2, 20520, Note_on_c, 9, 43, 64
2, 20522, Note_on_c, 9, 43, 0
2, 20640, Note_on_c, 9, 36, 64
2, 20640, Note_on_c, 9, 43, 0
2, 20640, Note_on_c, 9, 51, 88
2, 20760, Note_on_c, 9, 36, 0
2, 20760, Note_on_c, 9, 51, 0
2, 20880, Note_on_c, 9, 36, 64
2, 20880, Note_on_c, 9, 51, 88
2, 21000, Note_on_c, 9, 36, 0
2, 21000, Note_on_c, 9, 51, 0
2, 21120, Note_on_c, 9, 36, 88
2, 21120, Note_on_c, 9, 38, 64
2, 21240, Note_on_c, 9, 36, 0
2, 21240, Note_on_c, 9, 38, 0
2, 21240, Note_on_c, 9, 38, 64
2, 21360, Note_on_c, 9, 36, 64
2, 21360, Note_on_c, 9, 38, 64
2, 21362, Note_on_c, 9, 38, 0
2, 21480, Note_on_c, 9, 36, 0
2, 21480, Note_on_c, 9, 38, 64
2, 21482, Note_on_c, 9, 38, 0
2, 21600, Note_on_c, 9, 38, 0
2, 21600, Note_on_c, 9, 47, 64
2, 21720, Note_on_c, 9, 36, 64
2, 21720, Note_on_c, 9, 47, 0
2, 21720, Note_on_c, 9, 47, 64
2, 21840, Note_on_c, 9, 36, 0
2, 21840, Note_on_c, 9, 47, 64
2, 21842, Note_on_c, 9, 47, 0
2, 21960, Note_on_c, 9, 47, 64
2, 21962, Note_on_c, 9, 47, 0
2, 22080, Note_on_c, 9, 36, 88
2, 22080, Note_on_c, 9, 43, 64
2, 22080, Note_on_c, 9, 47, 0
2, 22200, Note_on_c, 9, 36, 0
2, 22200, Note_on_c, 9, 43, 0
2, 22200, Note_on_c, 9, 43, 64
2, 22320, Note_on_c, 9, 36, 64
2, 22320, Note_on_c, 9, 43, 64
2, 22322, Note_on_c, 9, 43, 0
2, 22440, Note_on_c, 9, 36, 0
2, 22440, Note_on_c, 9, 43, 64
2, 22442, Note_on_c, 9, 43, 0
2, 22560, Note_on_c, 9, 36, 64
2, 22560, Note_on_c, 9, 43, 0
2, 22560, Note_on_c, 9, 51, 88
2, 22680, Note_on_c, 9, 36, 0
2, 22680, Note_on_c, 9, 51, 0
2, 22800, Note_on_c, 9, 36, 64
2, 22800, Note_on_c, 9, 51, 88
2, 22920, Note_on_c, 9, 36, 0
2, 22920, Note_on_c, 9, 51, 0
2, 23040, Note_on_c, 9, 36, 64
2, 23040, Note_on_c, 9, 42, 64
2, 23160, Note_on_c, 9, 36, 0
2, 23160, Note_on_c, 9, 42, 0
2, 23280, Note_on_c, 9, 42, 64
2, 23400, Note_on_c, 9, 42, 0
2, 23520, Note_on_c, 9, 38, 64
2, 23520, Note_on_c, 9, 42, 64
2, 23640, Note_on_c, 9, 38, 0
2, 23640, Note_on_c, 9, 42, 0
2, 23760, Note_on_c, 9, 42, 64
2, 23880, Note_on_c, 9, 42, 0
2, 24000, Note_on_c, 9, 42, 64
2, 24120, Note_on_c, 9, 42, 0
2, 24240, Note_on_c, 9, 36, 64
2, 24240, Note_on_c, 9, 42, 64
2, 24360, Note_on_c, 9, 36, 0
2, 24360, Note_on_c, 9, 42, 0
2, 24480, Note_on_c, 9, 38, 64
2, 24480, Note_on_c, 9, 42, 64
2, 24600, Note_on_c, 9, 38, 0
2, 24600, Note_on_c, 9, 42, 0
2, 24720, Note_on_c, 9, 42, 64
2, 24840, Note_on_c, 9, 36, 64
2, 24840, Note_on_c, 9, 42, 0
2, 24960, Note_on_c, 9, 36, 0
2, 24960, Note_on_c, 9, 36, 64
2, 24960, Note_on_c, 9, 42, 64
2, 25080, Note_on_c, 9, 36, 0
2, 25080, Note_on_c, 9, 42, 0
2, 25200, Note_on_c, 9, 42, 64
2, 25320, Note_on_c, 9, 42, 0
2, 25440, Note_on_c, 9, 38, 64
2, 25440, Note_on_c, 9, 42, 64
2, 25560, Note_on_c, 9, 38, 0
2, 25560, Note_on_c, 9, 42, 0
2, 25680, Note_on_c, 9, 42, 64
2, 25800, Note_on_c, 9, 42, 0
2, 25920, Note_on_c, 9, 42, 64
2, 26040, Note_on_c, 9, 42, 0
2, 26160, Note_on_c, 9, 36, 64
2, 26160, Note_on_c, 9, 42, 64
2, 26280, Note_on_c, 9, 36, 0
2, 26280, Note_on_c, 9, 42, 0
2, 26400, Note_on_c, 9, 38, 64
2, 26400, Note_on_c, 9, 42, 64
2, 26520, Note_on_c, 9, 38, 0
2, 26520, Note_on_c, 9, 42, 0
2, 26640, Note_on_c, 9, 42, 64
2, 26760, Note_on_c, 9, 36, 64
2, 26760, Note_on_c, 9, 42, 0
2, 26880, Note_on_c, 9, 36, 64
2, 26880, Note_on_c, 9, 42, 64
2, 26882, Note_on_c, 9, 36, 0
2, 27000, Note_on_c, 9, 36, 0
2, 27000, Note_on_c, 9, 42, 0
2, 27120, Note_on_c, 9, 42, 64
2, 27240, Note_on_c, 9, 42, 0
2, 27360, Note_on_c, 9, 38, 64
2, 27360, Note_on_c, 9, 42, 64
2, 27480, Note_on_c, 9, 38, 0
2, 27480, Note_on_c, 9, 42, 0
2, 27600, Note_on_c, 9, 42, 64
2, 27720, Note_on_c, 9, 42, 0
2, 27840, Note_on_c, 9, 36, 64
2, 27840, Note_on_c, 9, 42, 64
2, 27960, Note_on_c, 9, 36, 0
2, 27960, Note_on_c, 9, 42, 0
2, 28080, Note_on_c, 9, 36, 64
2, 28080, Note_on_c, 9, 42, 64
2, 28200, Note_on_c, 9, 36, 0
2, 28200, Note_on_c, 9, 42, 0
2, 28320, Note_on_c, 9, 38, 64
2, 28320, Note_on_c, 9, 42, 64
2, 28440, Note_on_c, 9, 38, 0
2, 28440, Note_on_c, 9, 42, 0
2, 28560, Note_on_c, 9, 42, 64
2, 28680, Note_on_c, 9, 42, 0
2, 28800, Note_on_c, 9, 36, 64
2, 28800, Note_on_c, 9, 42, 64
2, 28920, Note_on_c, 9, 36, 0
2, 28920, Note_on_c, 9, 42, 0
2, 29040, Note_on_c, 9, 42, 64
2, 29160, Note_on_c, 9, 42, 0
2, 29280, Note_on_c, 9, 38, 64
2, 29280, Note_on_c, 9, 42, 64
2, 29400, Note_on_c, 9, 38, 0
2, 29400, Note_on_c, 9, 42, 0
2, 29520, Note_on_c, 9, 42, 64
2, 29640, Note_on_c, 9, 42, 0
2, 29760, Note_on_c, 9, 36, 64
2, 29760, Note_on_c, 9, 42, 64
2, 29880, Note_on_c, 9, 36, 0
2, 29880, Note_on_c, 9, 42, 0
2, 30000, Note_on_c, 9, 36, 64
2, 30000, Note_on_c, 9, 42, 64
2, 30120, Note_on_c, 9, 36, 0
2, 30120, Note_on_c, 9, 42, 0
2, 30240, Note_on_c, 9, 38, 64
2, 30240, Note_on_c, 9, 42, 64
2, 30360, Note_on_c, 9, 38, 0
2, 30360, Note_on_c, 9, 42, 0
2, 30480, Note_on_c, 9, 42, 64
2, 30600, Note_on_c, 9, 42, 0
2, 30720, Note_on_c, 9, 36, 64
2, 30720, Note_on_c, 9, 42, 64
2, 30840, Note_on_c, 9, 36, 0
2, 30840, Note_on_c, 9, 42, 0
2, 30960, Note_on_c, 9, 38, 64
2, 30960, Note_on_c, 9, 44, 64
2, 31080, Note_on_c, 9, 38, 0
2, 31080, Note_on_c, 9, 44, 0
2, 31200, Note_on_c, 9, 42, 64
2, 31320, Note_on_c, 9, 42, 0
2, 31440, Note_on_c, 9, 38, 64
2, 31440, Note_on_c, 9, 44, 64
2, 31560, Note_on_c, 9, 38, 0
2, 31560, Note_on_c, 9, 44, 0
2, 31680, Note_on_c, 9, 36, 64
2, 31680, Note_on_c, 9, 42, 64
2, 31800, Note_on_c, 9, 36, 0
2, 31800, Note_on_c, 9, 42, 0
2, 31920, Note_on_c, 9, 36, 64
2, 31920, Note_on_c, 9, 44, 64
2, 32040, Note_on_c, 9, 36, 0
2, 32040, Note_on_c, 9, 44, 0
2, 32160, Note_on_c, 9, 38, 64
2, 32160, Note_on_c, 9, 42, 64
2, 32280, Note_on_c, 9, 38, 0
2, 32280, Note_on_c, 9, 42, 0
2, 32400, Note_on_c, 9, 44, 64
2, 32520, Note_on_c, 9, 44, 0
2, 32640, Note_on_c, 9, 36, 64
2, 32640, Note_on_c, 9, 42, 64
2, 32760, Note_on_c, 9, 36, 0
2, 32760, Note_on_c, 9, 42, 0
2, 32880, Note_on_c, 9, 38, 64
2, 32880, Note_on_c, 9, 44, 64
2, 33000, Note_on_c, 9, 38, 0
2, 33000, Note_on_c, 9, 44, 0
2, 33120, Note_on_c, 9, 42, 64
2, 33240, Note_on_c, 9, 42, 0
2, 33360, Note_on_c, 9, 38, 64
2, 33360, Note_on_c, 9, 44, 64
2, 33480, Note_on_c, 9, 38, 0
2, 33480, Note_on_c, 9, 44, 0
2, 33600, Note_on_c, 9, 36, 64
2, 33600, Note_on_c, 9, 42, 64
2, 33720, Note_on_c, 9, 36, 0
2, 33720, Note_on_c, 9, 42, 0
2, 33840, Note_on_c, 9, 36, 64
2, 33840, Note_on_c, 9, 44, 64
2, 33960, Note_on_c, 9, 36, 0
2, 33960, Note_on_c, 9, 44, 0
2, 34080, Note_on_c, 9, 38, 64
2, 34080, Note_on_c, 9, 42, 64
2, 34200, Note_on_c, 9, 38, 0
2, 34200, Note_on_c, 9, 42, 0
2, 34320, Note_on_c, 9, 44, 64
2, 34440, Note_on_c, 9, 44, 0
2, 34560, Note_on_c, 9, 36, 64
2, 34560, Note_on_c, 9, 42, 64
2, 34680, Note_on_c, 9, 36, 0
2, 34680, Note_on_c, 9, 42, 0
2, 34800, Note_on_c, 9, 42, 64
2, 34920, Note_on_c, 9, 42, 0
2, 35040, Note_on_c, 9, 36, 64
2, 35040, Note_on_c, 9, 38, 64
2, 35040, Note_on_c, 9, 42, 64
2, 35160, Note_on_c, 9, 36, 0
2, 35160, Note_on_c, 9, 38, 0
2, 35160, Note_on_c, 9, 42, 0
2, 35280, Note_on_c, 9, 42, 64
2, 35400, Note_on_c, 9, 42, 0
2, 35520, Note_on_c, 9, 36, 64
2, 35520, Note_on_c, 9, 42, 64
2, 35640, Note_on_c, 9, 36, 0
2, 35640, Note_on_c, 9, 42, 0
2, 35760, Note_on_c, 9, 42, 64
2, 35880, Note_on_c, 9, 42, 0
2, 36000, Note_on_c, 9, 36, 64
2, 36000, Note_on_c, 9, 38, 64
2, 36000, Note_on_c, 9, 42, 64
2, 36120, Note_on_c, 9, 36, 0
2, 36120, Note_on_c, 9, 38, 0
2, 36120, Note_on_c, 9, 42, 0
2, 36240, Note_on_c, 9, 42, 64
2, 36360, Note_on_c, 9, 42, 0
2, 36480, Note_on_c, 9, 36, 64
2, 36480, Note_on_c, 9, 42, 64
2, 36600, Note_on_c, 9, 36, 0
2, 36600, Note_on_c, 9, 42, 0
2, 36720, Note_on_c, 9, 42, 64
2, 36840, Note_on_c, 9, 42, 0
2, 36960, Note_on_c, 9, 36, 64
2, 36960, Note_on_c, 9, 38, 64
2, 36960, Note_on_c, 9, 42, 64
2, 37080, Note_on_c, 9, 36, 0
2, 37080, Note_on_c, 9, 38, 0
2, 37080, Note_on_c, 9, 42, 0
2, 37200, Note_on_c, 9, 42, 64
2, 37320, Note_on_c, 9, 42, 0
2, 37440, Note_on_c, 9, 36, 64
2, 37440, Note_on_c, 9, 42, 64
2, 37560, Note_on_c, 9, 36, 0
2, 37560, Note_on_c, 9, 42, 0
2, 37680, Note_on_c, 9, 42, 64
2, 37800, Note_on_c, 9, 42, 0
2, 37920, Note_on_c, 9, 36, 64
2, 37920, Note_on_c, 9, 38, 64
2, 37920, Note_on_c, 9, 42, 64
2, 38040, Note_on_c, 9, 36, 0
2, 38040, Note_on_c, 9, 38, 0
2, 38040, Note_on_c, 9, 42, 0
2, 38160, Note_on_c, 9, 42, 64
2, 38280, Note_on_c, 9, 42, 0
2, 38400, Note_on_c, 9, 36, 64
2, 38400, Note_on_c, 9, 38, 64
2, 38400, Note_on_c, 9, 42, 64
2, 38520, Note_on_c, 9, 36, 0
2, 38520, Note_on_c, 9, 38, 0
2, 38520, Note_on_c, 9, 42, 0
2, 38640, Note_on_c, 9, 42, 64
2, 38760, Note_on_c, 9, 42, 0
2, 38880, Note_on_c, 9, 36, 64
2, 38880, Note_on_c, 9, 38, 64
2, 38880, Note_on_c, 9, 42, 110
2, 39000, Note_on_c, 9, 36, 0
2, 39000, Note_on_c, 9, 38, 0
2, 39000, Note_on_c, 9, 42, 0
2, 39120, Note_on_c, 9, 42, 64
2, 39240, Note_on_c, 9, 42, 0
2, 39360, Note_on_c, 9, 36, 64
2, 39360, Note_on_c, 9, 38, 64
2, 39360, Note_on_c, 9, 42, 64
2, 39480, Note_on_c, 9, 36, 0
2, 39480, Note_on_c, 9, 38, 0
2, 39480, Note_on_c, 9, 42, 0
2, 39600, Note_on_c, 9, 42, 64
2, 39720, Note_on_c, 9, 42, 0
2, 39840, Note_on_c, 9, 36, 64
2, 39840, Note_on_c, 9, 38, 64
2, 39840, Note_on_c, 9, 42, 110
2, 39960, Note_on_c, 9, 36, 0
2, 39960, Note_on_c, 9, 38, 0
2, 39960, Note_on_c, 9, 42, 0
2, 40080, Note_on_c, 9, 42, 64
2, 40200, Note_on_c, 9, 42, 0
2, 40320, Note_on_c, 9, 36, 64
2, 40320, Note_on_c, 9, 38, 64
2, 40320, Note_on_c, 9, 42, 64
2, 40440, Note_on_c, 9, 36, 0
2, 40440, Note_on_c, 9, 38, 0
2, 40440, Note_on_c, 9, 42, 0
2, 40560, Note_on_c, 9, 42, 64
2, 40680, Note_on_c, 9, 42, 0
2, 40800, Note_on_c, 9, 36, 64
2, 40800, Note_on_c, 9, 38, 64
2, 40800, Note_on_c, 9, 42, 110
2, 40920, Note_on_c, 9, 36, 0
2, 40920, Note_on_c, 9, 38, 0
2, 40920, Note_on_c, 9, 42, 0
2, 41040, Note_on_c, 9, 42, 64
2, 41160, Note_on_c, 9, 42, 0
2, 41280, Note_on_c, 9, 36, 64
2, 41280, Note_on_c, 9, 38, 64
2, 41280, Note_on_c, 9, 42, 64
2, 41400, Note_on_c, 9, 36, 0
2, 41400, Note_on_c, 9, 38, 0
2, 41400, Note_on_c, 9, 42, 0
2, 41520, Note_on_c, 9, 42, 64
2, 41640, Note_on_c, 9, 42, 0
2, 41760, Note_on_c, 9, 36, 64
2, 41760, Note_on_c, 9, 38, 64
2, 41760, Note_on_c, 9, 42, 110
2, 41880, Note_on_c, 9, 36, 0
2, 41880, Note_on_c, 9, 38, 0
2, 41880, Note_on_c, 9, 42, 0
2, 42000, Note_on_c, 9, 42, 64
2, 42120, Note_on_c, 9, 42, 0
2, 42240, Note_on_c, 9, 36, 64
2, 42240, Note_on_c, 9, 38, 110
2, 42360, Note_on_c, 9, 36, 0
2, 42360, Note_on_c, 9, 38, 0
2, 42360, Note_on_c, 9, 38, 64
2, 42480, Note_on_c, 9, 38, 64
2, 42482, Note_on_c, 9, 38, 0
2, 42600, Note_on_c, 9, 38, 110
2, 42602, Note_on_c, 9, 38, 0
2, 42720, Note_on_c, 9, 36, 64
2, 42720, Note_on_c, 9, 38, 110
2, 42722, Note_on_c, 9, 38, 0
2, 42840, Note_on_c, 9, 36, 0
2, 42840, Note_on_c, 9, 38, 64
2, 42842, Note_on_c, 9, 38, 0
2, 42960, Note_on_c, 9, 38, 64
2, 42962, Note_on_c, 9, 38, 0
2, 43080, Note_on_c, 9, 38, 110
2, 43082, Note_on_c, 9, 38, 0
2, 43200, Note_on_c, 9, 36, 64
2, 43200, Note_on_c, 9, 38, 110
2, 43202, Note_on_c, 9, 38, 0
2, 43320, Note_on_c, 9, 36, 0
2, 43320, Note_on_c, 9, 38, 64
2, 43322, Note_on_c, 9, 38, 0
2, 43440, Note_on_c, 9, 38, 64
2, 43442, Note_on_c, 9, 38, 0
2, 43560, Note_on_c, 9, 38, 110
2, 43562, Note_on_c, 9, 38, 0
2, 43680, Note_on_c, 9, 36, 64
2, 43680, Note_on_c, 9, 38, 110
2, 43682, Note_on_c, 9, 38, 0
2, 43800, Note_on_c, 9, 36, 0
2, 43800, Note_on_c, 9, 38, 64
2, 43802, Note_on_c, 9, 38, 0
2, 43920, Note_on_c, 9, 38, 64
2, 43922, Note_on_c, 9, 38, 0
2, 44040, Note_on_c, 9, 38, 110
2, 44042, Note_on_c, 9, 38, 0
2, 44160, Note_on_c, 9, 36, 64
2, 44160, Note_on_c, 9, 38, 110
2, 44162, Note_on_c, 9, 38, 0
2, 44280, Note_on_c, 9, 36, 0
2, 44280, Note_on_c, 9, 38, 64
2, 44282, Note_on_c, 9, 38, 0
2, 44400, Note_on_c, 9, 38, 64
2, 44402, Note_on_c, 9, 38, 0
2, 44520, Note_on_c, 9, 38, 110
2, 44522, Note_on_c, 9, 38, 0
2, 44640, Note_on_c, 9, 36, 64
2, 44640, Note_on_c, 9, 38, 110
2, 44642, Note_on_c, 9, 38, 0
2, 44760, Note_on_c, 9, 36, 0
2, 44760, Note_on_c, 9, 38, 64
2, 44762, Note_on_c, 9, 38, 0
2, 44880, Note_on_c, 9, 38, 64
2, 44882, Note_on_c, 9, 38, 0
2, 45000, Note_on_c, 9, 38, 110
2, 45002, Note_on_c, 9, 38, 0
2, 45120, Note_on_c, 9, 36, 64
2, 45120, Note_on_c, 9, 38, 110
2, 45122, Note_on_c, 9, 38, 0
2, 45240, Note_on_c, 9, 36, 0
2, 45240, Note_on_c, 9, 38, 64
2, 45242, Note_on_c, 9, 38, 0
2, 45360, Note_on_c, 9, 38, 64
2, 45362, Note_on_c, 9, 38, 0
2, 45480, Note_on_c, 9, 38, 110
2, 45482, Note_on_c, 9, 38, 0
2, 45600, Note_on_c, 9, 36, 64
2, 45600, Note_on_c, 9, 38, 110
2, 45602, Note_on_c, 9, 38, 0
2, 45720, Note_on_c, 9, 36, 0
2, 45720, Note_on_c, 9, 38, 64
2, 45722, Note_on_c, 9, 38, 0
2, 45840, Note_on_c, 9, 38, 64
2, 45842, Note_on_c, 9, 38, 0
2, 45960, Note_on_c, 9, 38, 110
2, 45962, Note_on_c, 9, 38, 0
2, 46080, Note_on_c, 9, 36, 64
2, 46080, Note_on_c, 9, 38, 0
2, 46080, Note_on_c, 9, 42, 64
2, 46200, Note_on_c, 9, 36, 0
2, 46200, Note_on_c, 9, 42, 0
2, 46560, Note_on_c, 9, 38, 64
2, 46560, Note_on_c, 9, 42, 64
2, 46680, Note_on_c, 9, 38, 0
2, 46680, Note_on_c, 9, 42, 0
2, 47040, Note_on_c, 9, 36, 64
2, 47040, Note_on_c, 9, 42, 64
2, 47160, Note_on_c, 9, 36, 0
2, 47160, Note_on_c, 9, 42, 0
2, 47280, Note_on_c, 9, 36, 64
2, 47400, Note_on_c, 9, 36, 0
2, 47520, Note_on_c, 9, 38, 64
2, 47520, Note_on_c, 9, 42, 64
2, 47640, Note_on_c, 9, 38, 0
2, 47640, Note_on_c, 9, 42, 0
2, 48000, Note_on_c, 9, 36, 64
2, 48000, Note_on_c, 9, 42, 64
2, 48120, Note_on_c, 9, 36, 0
2, 48120, Note_on_c, 9, 42, 0
2, 48480, Note_on_c, 9, 38, 64
2, 48480, Note_on_c, 9, 42, 64
2, 48600, Note_on_c, 9, 38, 0
2, 48600, Note_on_c, 9, 42, 0
2, 48960, Note_on_c, 9, 36, 64
2, 48960, Note_on_c, 9, 42, 64
2, 49080, Note_on_c, 9, 36, 0
2, 49080, Note_on_c, 9, 42, 0
2, 49200, Note_on_c, 9, 36, 64
2, 49320, Note_on_c, 9, 36, 0
2, 49440, Note_on_c, 9, 38, 64
2, 49440, Note_on_c, 9, 42, 64
2, 49560, Note_on_c, 9, 38, 0
2, 49560, Note_on_c, 9, 42, 0
2, 49920, Note_on_c, 9, 36, 64
2, 49920, Note_on_c, 9, 42, 64
2, 50040, Note_on_c, 9, 36, 0
2, 50040, Note_on_c, 9, 42, 0
2, 50400, Note_on_c, 9, 38, 64
2, 50400, Note_on_c, 9, 42, 64
2, 50520, Note_on_c, 9, 38, 0
2, 50520, Note_on_c, 9, 42, 0
2, 50640, Note_on_c, 9, 36, 64
2, 50760, Note_on_c, 9, 36, 0
2, 50880, Note_on_c, 9, 36, 64
2, 50880, Note_on_c, 9, 42, 64
2, 51000, Note_on_c, 9, 36, 0
2, 51000, Note_on_c, 9, 42, 0
2, 51360, Note_on_c, 9, 38, 64
2, 51360, Note_on_c, 9, 42, 64
2, 51480, Note_on_c, 9, 38, 0
2, 51480, Note_on_c, 9, 42, 0
2, 51840, Note_on_c, 9, 36, 64
2, 51840, Note_on_c, 9, 42, 64
2, 51960, Note_on_c, 9, 36, 0
2, 51960, Note_on_c, 9, 42, 0
2, 52320, Note_on_c, 9, 38, 64
2, 52320, Note_on_c, 9, 42, 64
2, 52440, Note_on_c, 9, 38, 0
2, 52440, Note_on_c, 9, 42, 0
2, 52560, Note_on_c, 9, 36, 64
2, 52680, Note_on_c, 9, 36, 0
2, 52800, Note_on_c, 9, 36, 64
2, 52800, Note_on_c, 9, 42, 64
2, 52920, Note_on_c, 9, 36, 0
2, 52920, Note_on_c, 9, 42, 0
2, 53280, Note_on_c, 9, 38, 64
2, 53280, Note_on_c, 9, 42, 64
2, 53400, Note_on_c, 9, 38, 0
2, 53400, Note_on_c, 9, 42, 0
2, 53760, Note_on_c, 9, 36, 64
2, 53760, Note_on_c, 9, 42, 64
2, 53880, Note_on_c, 9, 36, 0
2, 53880, Note_on_c, 9, 42, 0
2, 54240, Note_on_c, 9, 38, 64
2, 54360, Note_on_c, 9, 38, 0
2, 54600, Note_on_c, 9, 38, 88
2, 54720, Note_on_c, 9, 38, 0
2, 54960, Note_on_c, 9, 38, 88
2, 55080, Note_on_c, 9, 38, 0
2, 55200, Note_on_c, 9, 38, 88
2, 55320, Note_on_c, 9, 38, 0
2, 55680, Note_on_c, 9, 36, 64
2, 55680, Note_on_c, 9, 42, 64
2, 55800, Note_on_c, 9, 36, 0
2, 55800, Note_on_c, 9, 42, 0
2, 56160, Note_on_c, 9, 38, 64
2, 56280, Note_on_c, 9, 38, 0
2, 56520, Note_on_c, 9, 38, 88
2, 56640, Note_on_c, 9, 38, 0
2, 56880, Note_on_c, 9, 38, 88
2, 57000, Note_on_c, 9, 38, 0
2, 57120, Note_on_c, 9, 38, 88
2, 57240, Note_on_c, 9, 38, 0
3, 57600, Note_on_c, 9, 36, 88
3, 57600, Note_on_c, 9, 42, 64
3, 57720, Note_on_c, 9, 36, 0
3, 57720, Note_on_c, 9, 42, 0
3, 57840, Note_on_c, 9, 36, 64
3, 57840, Note_on_c, 9, 42, 64
3, 57960, Note_on_c, 9, 36, 0
3, 57960, Note_on_c, 9, 42, 0
3, 58080, Note_on_c, 9, 38, 88
3, 58080, Note_on_c, 9, 42, 64
3, 58200, Note_on_c, 9, 38, 0
3, 58200, Note_on_c, 9, 42, 0
3, 58320, Note_on_c, 9, 42, 64
3, 58440, Note_on_c, 9, 42, 0
3, 58560, Note_on_c, 9, 36, 64
3, 58560, Note_on_c, 9, 42, 64
3, 58680, Note_on_c, 9, 36, 0
3, 58680, Note_on_c, 9, 42, 0
3, 58800, Note_on_c, 9, 36, 64
3, 58800, Note_on_c, 9, 42, 64
3, 58920, Note_on_c, 9, 36, 0
3, 58920, Note_on_c, 9, 42, 0
3, 59040, Note_on_c, 9, 38, 88
3, 59040, Note_on_c, 9, 42, 64
3, 59160, Note_on_c, 9, 38, 0
3, 59160, Note_on_c, 9, 42, 0
3, 59280, Note_on_c, 9, 42, 64
3, 59400, Note_on_c, 9, 42, 0
3, 59520, Note_on_c, 9, 36, 88
3, 59520, Note_on_c, 9, 42, 64
3, 59640, Note_on_c, 9, 36, 0
3, 59640, Note_on_c, 9, 42, 0
3, 59760, Note_on_c, 9, 36, 64
3, 59760, Note_on_c, 9, 42, 64
3, 59880, Note_on_c, 9, 36, 0
3, 59880, Note_on_c, 9, 42, 0
3, 60000, Note_on_c, 9, 38, 88
3, 60000, Note_on_c, 9, 42, 64
3, 60120, Note_on_c, 9, 38, 0
3, 60120, Note_on_c, 9, 42, 0
3, 60240, Note_on_c, 9, 42, 64
3, 60360, Note_on_c, 9, 42, 0
3, 60480, Note_on_c, 9, 36, 64
3, 60480, Note_on_c, 9, 42, 64
3, 60600, Note_on_c, 9, 36, 0
3, 60600, Note_on_c, 9, 42, 0
3, 60720, Note_on_c, 9, 36, 64
3, 60720, Note_on_c, 9, 42, 64
3, 60840, Note_on_c, 9, 36, 0
3, 60840, Note_on_c, 9, 42, 0
3, 60960, Note_on_c, 9, 38, 88
3, 60960, Note_on_c, 9, 42, 64
3, 61080, Note_on_c, 9, 38, 0
3, 61080, Note_on_c, 9, 42, 0
3, 61200, Note_on_c, 9, 42, 64
3, 61320, Note_on_c, 9, 42, 0
3, 61440, Note_on_c, 9, 36, 64
3, 61440, Note_on_c, 9, 42, 64
3, 61560, Note_on_c, 9, 36, 0
3, 61560, Note_on_c, 9, 42, 0
3, 61680, Note_on_c, 9, 36, 64
3, 61680, Note_on_c, 9, 42, 64
3, 61800, Note_on_c, 9, 36, 0
3, 61800, Note_on_c, 9, 42, 0
3, 61920, Note_on_c, 9, 38, 88
3, 61920, Note_on_c, 9, 42, 64
3, 62040, Note_on_c, 9, 38, 0
3, 62040, Note_on_c, 9, 42, 0
3, 62160, Note_on_c, 9, 36, 64
3, 62160, Note_on_c, 9, 42, 64
3, 62280, Note_on_c, 9, 36, 0
3, 62280, Note_on_c, 9, 42, 0
3, 62400, Note_on_c, 9, 36, 64
3, 62400, Note_on_c, 9, 42, 64
3, 62520, Note_on_c, 9, 36, 0
3, 62520, Note_on_c, 9, 42, 0
3, 62640, Note_on_c, 9, 36, 64
3, 62640, Note_on_c, 9, 42, 64
3, 62760, Note_on_c, 9, 36, 0
3, 62760, Note_on_c, 9, 42, 0
3, 62880, Note_on_c, 9, 38, 88
3, 62880, Note_on_c, 9, 42, 64
3, 63000, Note_on_c, 9, 38, 0
3, 63000, Note_on_c, 9, 42, 0
3, 63120, Note_on_c, 9, 36, 64
3, 63120, Note_on_c, 9, 42, 64
3, 63240, Note_on_c, 9, 36, 0
3, 63240, Note_on_c, 9, 42, 0
3, 63360, Note_on_c, 9, 36, 64
3, 63360, Note_on_c, 9, 42, 64
3, 63480, Note_on_c, 9, 36, 0
3, 63480, Note_on_c, 9, 42, 0
3, 63600, Note_on_c, 9, 36, 64
3, 63600, Note_on_c, 9, 42, 64
3, 63720, Note_on_c, 9, 36, 0
3, 63720, Note_on_c, 9, 42, 0
3, 63840, Note_on_c, 9, 38, 88
3, 63840, Note_on_c, 9, 42, 64
3, 63960, Note_on_c, 9, 38, 0
3, 63960, Note_on_c, 9, 42, 0
3, 64080, Note_on_c, 9, 36, 64
3, 64080, Note_on_c, 9, 42, 64
3, 64200, Note_on_c, 9, 36, 0
3, 64200, Note_on_c, 9, 42, 0
3, 64320, Note_on_c, 9, 36, 64
3, 64320, Note_on_c, 9, 42, 64
3, 64440, Note_on_c, 9, 36, 0
3, 64440, Note_on_c, 9, 42, 0
3, 64560, Note_on_c, 9, 36, 64
3, 64560, Note_on_c, 9, 42, 64
3, 64680, Note_on_c, 9, 36, 0
3, 64680, Note_on_c, 9, 42, 0
3, 64800, Note_on_c, 9, 38, 88
3, 64800, Note_on_c, 9, 42, 64
3, 64920, Note_on_c, 9, 38, 0
3, 64920, Note_on_c, 9, 42, 0
3, 65040, Note_on_c, 9, 36, 64
3, 65040, Note_on_c, 9, 42, 64
3, 65160, Note_on_c, 9, 36, 0
3, 65160, Note_on_c, 9, 42, 0
3, 65280, Note_on_c, 9, 36, 64
3, 65280, Note_on_c, 9, 42, 64
3, 65400, Note_on_c, 9, 36, 0
3, 65400, Note_on_c, 9, 42, 0
3, 65520, Note_on_c, 9, 42, 64
3, 65640, Note_on_c, 9, 42, 0
3, 65760, Note_on_c, 9, 38, 88
3, 65760, Note_on_c, 9, 42, 64
3, 65880, Note_on_c, 9, 38, 0
3, 65880, Note_on_c, 9, 42, 0
3, 66000, Note_on_c, 9, 36, 64
3, 66000, Note_on_c, 9, 42, 64
3, 66120, Note_on_c, 9, 36, 0
3, 66120, Note_on_c, 9, 42, 0
3, 66240, Note_on_c, 9, 36, 64
3, 66240, Note_on_c, 9, 42, 64
3, 66360, Note_on_c, 9, 36, 0
3, 66360, Note_on_c, 9, 42, 0
3, 66480, Note_on_c, 9, 42, 64
3, 66600, Note_on_c, 9, 42, 0
3, 66720, Note_on_c, 9, 38, 88
3, 66720, Note_on_c, 9, 42, 64
3, 66840, Note_on_c, 9, 38, 0
3, 66840, Note_on_c, 9, 42, 0
3, 66960, Note_on_c, 9, 38, 64
3, 66960, Note_on_c, 9, 42, 64
3, 67080, Note_on_c, 9, 38, 0
3, 67080, Note_on_c, 9, 42, 0
3, 67200, Note_on_c, 9, 36, 64
3, 67200, Note_on_c, 9, 42, 64
3, 67320, Note_on_c, 9, 36, 0
3, 67320, Note_on_c, 9, 42, 0
3, 67440, Note_on_c, 9, 42, 64
3, 67560, Note_on_c, 9, 42, 0
3, 67680, Note_on_c, 9, 38, 88
3, 67680, Note_on_c, 9, 42, 64
3, 67800, Note_on_c, 9, 38, 0
3, 67800, Note_on_c, 9, 42, 0
3, 67920, Note_on_c, 9, 36, 64
3, 67920, Note_on_c, 9, 42, 64
3, 68040, Note_on_c, 9, 36, 0
3, 68040, Note_on_c, 9, 42, 0
3, 68160, Note_on_c, 9, 36, 64
3, 68160, Note_on_c, 9, 42, 64
3, 68280, Note_on_c, 9, 36, 0
3, 68280, Note_on_c, 9, 42, 0
3, 68400, Note_on_c, 9, 42, 64
3, 68520, Note_on_c, 9, 42, 0
3, 68640, Note_on_c, 9, 38, 88
3, 68640, Note_on_c, 9, 42, 64
3, 68760, Note_on_c, 9, 38, 0
3, 68760, Note_on_c, 9, 42, 0
3, 68880, Note_on_c, 9, 38, 64
3, 68880, Note_on_c, 9, 42, 64
3, 69000, Note_on_c, 9, 38, 0
3, 69000, Note_on_c, 9, 42, 0
3, 69120, Note_on_c, 9, 36, 64
3, 69120, Note_on_c, 9, 42, 64
3, 69240, Note_on_c, 9, 36, 0
3, 69240, Note_on_c, 9, 42, 0
3, 69360, Note_on_c, 9, 42, 64
3, 69480, Note_on_c, 9, 42, 0
3, 69600, Note_on_c, 9, 38, 88
3, 69600, Note_on_c, 9, 42, 64
3, 69720, Note_on_c, 9, 38, 0
3, 69720, Note_on_c, 9, 42, 0
3, 69840, Note_on_c, 9, 36, 64
3, 69840, Note_on_c, 9, 42, 64
3, 69960, Note_on_c, 9, 36, 0
3, 69960, Note_on_c, 9, 42, 0
3, 70080, Note_on_c, 9, 42, 64
3, 70200, Note_on_c, 9, 42, 0
3, 70320, Note_on_c, 9, 36, 64
3, 70320, Note_on_c, 9, 42, 64
3, 70440, Note_on_c, 9, 36, 0
3, 70440, Note_on_c, 9, 42, 0
3, 70560, Note_on_c, 9, 38, 88
3, 70560, Note_on_c, 9, 42, 64
3, 70680, Note_on_c, 9, 38, 0
3, 70680, Note_on_c, 9, 42, 0
3, 70800, Note_on_c, 9, 36, 64
3, 70800, Note_on_c, 9, 42, 64
3, 70920, Note_on_c, 9, 36, 0
3, 70920, Note_on_c, 9, 42, 0
3, 71040, Note_on_c, 9, 36, 64
3, 71040, Note_on_c, 9, 42, 64
3, 71160, Note_on_c, 9, 36, 0
3, 71160, Note_on_c, 9, 42, 0
3, 71280, Note_on_c, 9, 42, 64
3, 71400, Note_on_c, 9, 42, 0
3, 71520, Note_on_c, 9, 38, 88
3, 71520, Note_on_c, 9, 42, 64
3, 71640, Note_on_c, 9, 38, 0
3, 71640, Note_on_c, 9, 42, 0
3, 71760, Note_on_c, 9, 36, 64
3, 71760, Note_on_c, 9, 42, 64
3, 71880, Note_on_c, 9, 36, 0
3, 71880, Note_on_c, 9, 42, 0
3, 72000, Note_on_c, 9, 42, 64
3, 72120, Note_on_c, 9, 42, 0
3, 72240, Note_on_c, 9, 36, 64
3, 72240, Note_on_c, 9, 42, 64
3, 72360, Note_on_c, 9, 36, 0
3, 72360, Note_on_c, 9, 42, 0
3, 72480, Note_on_c, 9, 38, 88
3, 72480, Note_on_c, 9, 42, 64
3, 72600, Note_on_c, 9, 38, 0
3, 72600, Note_on_c, 9, 42, 0
3, 72720, Note_on_c, 9, 36, 64
3, 72720, Note_on_c, 9, 42, 64
3, 72840, Note_on_c, 9, 36, 0
3, 72840, Note_on_c, 9, 42, 0
3, 72960, Note_on_c, 9, 36, 64
3, 72960, Note_on_c, 9, 42, 64
3, 73080, Note_on_c, 9, 36, 0
3, 73080, Note_on_c, 9, 42, 0
3, 73200, Note_on_c, 9, 36, 64
3, 73200, Note_on_c, 9, 42, 64
3, 73320, Note_on_c, 9, 36, 0
3, 73320, Note_on_c, 9, 42, 0
3, 73440, Note_on_c, 9, 38, 88
3, 73440, Note_on_c, 9, 42, 64
3, 73560, Note_on_c, 9, 38, 0
3, 73560, Note_on_c, 9, 42, 0
3, 73680, Note_on_c, 9, 36, 64
3, 73680, Note_on_c, 9, 42, 64
3, 73800, Note_on_c, 9, 36, 0
3, 73800, Note_on_c, 9, 42, 0
3, 73920, Note_on_c, 9, 42, 64
3, 74040, Note_on_c, 9, 42, 0
3, 74160, Note_on_c, 9, 36, 64
3, 74160, Note_on_c, 9, 42, 64
3, 74280, Note_on_c, 9, 36, 0
3, 74280, Note_on_c, 9, 42, 0
3, 74400, Note_on_c, 9, 38, 88
3, 74400, Note_on_c, 9, 42, 64
3, 74520, Note_on_c, 9, 38, 0
3, 74520, Note_on_c, 9, 42, 0
3, 74640, Note_on_c, 9, 42, 64
3, 74760, Note_on_c, 9, 42, 0
3, 74880, Note_on_c, 9, 36, 64
3, 74880, Note_on_c, 9, 42, 64
3, 75000, Note_on_c, 9, 36, 0
3, 75000, Note_on_c, 9, 42, 0
3, 75120, Note_on_c, 9, 36, 64
3, 75120, Note_on_c, 9, 42, 64
3, 75240, Note_on_c, 9, 36, 0
3, 75240, Note_on_c, 9, 42, 0
3, 75360, Note_on_c, 9, 38, 88
3, 75360, Note_on_c, 9, 42, 64
3, 75480, Note_on_c, 9, 38, 0
3, 75480, Note_on_c, 9, 42, 0
3, 75600, Note_on_c, 9, 36, 64
3, 75600, Note_on_c, 9, 42, 64
3, 75720, Note_on_c, 9, 36, 0
3, 75720, Note_on_c, 9, 42, 0
3, 75840, Note_on_c, 9, 42, 64
3, 75960, Note_on_c, 9, 42, 0
3, 76080, Note_on_c, 9, 36, 64
3, 76080, Note_on_c, 9, 42, 64
3, 76200, Note_on_c, 9, 36, 0
3, 76200, Note_on_c, 9, 42, 0
3, 76320, Note_on_c, 9, 38, 88
3, 76320, Note_on_c, 9, 42, 64
3, 76440, Note_on_c, 9, 38, 0
3, 76440, Note_on_c, 9, 42, 0
3, 76560, Note_on_c, 9, 42, 64
3, 76680, Note_on_c, 9, 42, 0
3, 76800, Note_on_c, 9, 36, 64
3, 76800, Note_on_c, 9, 42, 64
3, 76920, Note_on_c, 9, 36, 0
3, 76920, Note_on_c, 9, 42, 0
3, 77040, Note_on_c, 9, 42, 64
3, 77160, Note_on_c, 9, 42, 0
3, 77280, Note_on_c, 9, 38, 88
3, 77280, Note_on_c, 9, 42, 64
3, 77400, Note_on_c, 9, 38, 0
3, 77400, Note_on_c, 9, 42, 0
3, 77520, Note_on_c, 9, 36, 64
3, 77520, Note_on_c, 9, 42, 64
3, 77640, Note_on_c, 9, 36, 0
3, 77640, Note_on_c, 9, 38, 64
3, 77640, Note_on_c, 9, 42, 0
3, 77760, Note_on_c, 9, 36, 64
3, 77760, Note_on_c, 9, 38, 0
3, 77760, Note_on_c, 9, 42, 64
3, 77880, Note_on_c, 9, 36, 0
3, 77880, Note_on_c, 9, 38, 64
3, 77880, Note_on_c, 9, 42, 0
3, 78000, Note_on_c, 9, 36, 64
3, 78000, Note_on_c, 9, 38, 0
3, 78000, Note_on_c, 9, 42, 64
3, 78120, Note_on_c, 9, 36, 0
3, 78120, Note_on_c, 9, 42, 0
3, 78240, Note_on_c, 9, 38, 88
3, 78240, Note_on_c, 9, 42, 64
3, 78360, Note_on_c, 9, 38, 0
3, 78360, Note_on_c, 9, 42, 0
3, 78480, Note_on_c, 9, 36, 64
3, 78480, Note_on_c, 9, 42, 64
3, 78600, Note_on_c, 9, 36, 0
3, 78600, Note_on_c, 9, 42, 0
3, 78720, Note_on_c, 9, 36, 64
3, 78720, Note_on_c, 9, 42, 64
3, 78840, Note_on_c, 9, 36, 0
3, 78840, Note_on_c, 9, 42, 0
3, 78960, Note_on_c, 9, 42, 64
3, 79080, Note_on_c, 9, 42, 0
3, 79200, Note_on_c, 9, 38, 88
3, 79200, Note_on_c, 9, 42, 64
3, 79320, Note_on_c, 9, 38, 0
3, 79320, Note_on_c, 9, 42, 0
3, 79440, Note_on_c, 9, 36, 64
3, 79440, Note_on_c, 9, 42, 64
3, 79560, Note_on_c, 9, 36, 0
3, 79560, Note_on_c, 9, 38, 64
3, 79560, Note_on_c, 9, 42, 0
3, 79680, Note_on_c, 9, 36, 64
3, 79680, Note_on_c, 9, 38, 0
3, 79680, Note_on_c, 9, 42, 64
3, 79800, Note_on_c, 9, 36, 0
3, 79800, Note_on_c, 9, 38, 64
3, 79800, Note_on_c, 9, 42, 0
3, 79920, Note_on_c, 9, 36, 64
3, 79920, Note_on_c, 9, 38, 0
3, 79920, Note_on_c, 9, 42, 64
3, 80040, Note_on_c, 9, 36, 0
3, 80040, Note_on_c, 9, 42, 0
3, 80160, Note_on_c, 9, 38, 88
3, 80160, Note_on_c, 9, 42, 64
3, 80280, Note_on_c, 9, 38, 0
3, 80280, Note_on_c, 9, 42, 0
3, 80400, Note_on_c, 9, 36, 64
3, 80400, Note_on_c, 9, 42, 64
3, 80520, Note_on_c, 9, 36, 0
3, 80520, Note_on_c, 9, 42, 0
3, 80640, Note_on_c, 9, 36, 64
3, 80640, Note_on_c, 9, 42, 64
3, 80760, Note_on_c, 9, 36, 0
3, 80760, Note_on_c, 9, 42, 0
3, 80880, Note_on_c, 9, 36, 64
3, 80880, Note_on_c, 9, 42, 64
3, 81000, Note_on_c, 9, 36, 0
3, 81000, Note_on_c, 9, 42, 0
3, 81120, Note_on_c, 9, 38, 88
3, 81120, Note_on_c, 9, 42, 64
3, 81240, Note_on_c, 9, 38, 0
3, 81240, Note_on_c, 9, 42, 0
3, 81360, Note_on_c, 9, 42, 64
3, 81480, Note_on_c, 9, 38, 64
3, 81480, Note_on_c, 9, 42, 0
3, 81600, Note_on_c, 9, 36, 64
3, 81600, Note_on_c, 9, 38, 0
3, 81600, Note_on_c, 9, 42, 64
3, 81720, Note_on_c, 9, 36, 0
3, 81720, Note_on_c, 9, 38, 64
3, 81720, Note_on_c, 9, 42, 0
3, 81840, Note_on_c, 9, 36, 64
3, 81840, Note_on_c, 9, 38, 0
3, 81840, Note_on_c, 9, 42, 64
3, 81960, Note_on_c, 9, 36, 0
3, 81960, Note_on_c, 9, 42, 0
3, 82080, Note_on_c, 9, 38, 88
3, 82080, Note_on_c, 9, 42, 64
3, 82200, Note_on_c, 9, 38, 0
3, 82200, Note_on_c, 9, 42, 0
3, 82320, Note_on_c, 9, 42, 64
3, 82440, Note_on_c, 9, 38, 64
3, 82440, Note_on_c, 9, 42, 0
3, 82560, Note_on_c, 9, 36, 64
3, 82560, Note_on_c, 9, 38, 0
3, 82560, Note_on_c, 9, 42, 64
3, 82680, Note_on_c, 9, 36, 0
3, 82680, Note_on_c, 9, 42, 0
3, 82800, Note_on_c, 9, 36, 64
3, 82800, Note_on_c, 9, 42, 64
3, 82920, Note_on_c, 9, 36, 0
3, 82920, Note_on_c, 9, 42, 0
3, 83040, Note_on_c, 9, 38, 88
3, 83040, Note_on_c, 9, 42, 64
3, 83160, Note_on_c, 9, 38, 0
3, 83160, Note_on_c, 9, 42, 0
3, 83280, Note_on_c, 9, 42, 64
3, 83400, Note_on_c, 9, 38, 64
3, 83400, Note_on_c, 9, 42, 0
3, 83520, Note_on_c, 9, 36, 64
3, 83520, Note_on_c, 9, 38, 0
3, 83520, Note_on_c, 9, 42, 64
3, 83640, Note_on_c, 9, 36, 0
3, 83640, Note_on_c, 9, 38, 64
3, 83640, Note_on_c, 9, 42, 0
3, 83760, Note_on_c, 9, 36, 64
3, 83760, Note_on_c, 9, 38, 0
3, 83760, Note_on_c, 9, 42, 64
3, 83880, Note_on_c, 9, 36, 0
3, 83880, Note_on_c, 9, 42, 0
3, 84000, Note_on_c, 9, 38, 88
3, 84000, Note_on_c, 9, 42, 64
3, 84120, Note_on_c, 9, 38, 0
3, 84120, Note_on_c, 9, 42, 0
3, 84240, Note_on_c, 9, 42, 64
3, 84360, Note_on_c, 9, 38, 64
3, 84360, Note_on_c, 9, 42, 0
3, 84480, Note_on_c, 9, 36, 64
3, 84480, Note_on_c, 9, 38, 0
3, 84480, Note_on_c, 9, 42, 64
3, 84600, Note_on_c, 9, 36, 0
3, 84600, Note_on_c, 9, 42, 0
3, 84720, Note_on_c, 9, 42, 64
3, 84840, Note_on_c, 9, 42, 0
3, 84960, Note_on_c, 9, 38, 88
3, 84960, Note_on_c, 9, 42, 64
3, 85080, Note_on_c, 9, 38, 0
3, 85080, Note_on_c, 9, 42, 0
3, 85200, Note_on_c, 9, 42, 64
3, 85320, Note_on_c, 9, 38, 64
3, 85320, Note_on_c, 9, 42, 0
3, 85440, Note_on_c, 9, 36, 64
3, 85440, Note_on_c, 9, 38, 0
3, 85440, Note_on_c, 9, 42, 64
3, 85560, Note_on_c, 9, 36, 0
3, 85560, Note_on_c, 9, 42, 0
3, 85680, Note_on_c, 9, 38, 64
3, 85680, Note_on_c, 9, 42, 64
3, 85800, Note_on_c, 9, 38, 0
3, 85800, Note_on_c, 9, 42, 0
3, 85920, Note_on_c, 9, 42, 88
3, 86040, Note_on_c, 9, 42, 0
3, 86160, Note_on_c, 9, 36, 64
3, 86160, Note_on_c, 9, 42, 64
3, 86280, Note_on_c, 9, 36, 0
3, 86280, Note_on_c, 9, 38, 64
3, 86280, Note_on_c, 9, 42, 0
3, 86400, Note_on_c, 9, 36, 64
3, 86400, Note_on_c, 9, 38, 0
3, 86400, Note_on_c, 9, 42, 64
3, 86520, Note_on_c, 9, 36, 0
3, 86520, Note_on_c, 9, 42, 0
3, 86640, Note_on_c, 9, 42, 64
3, 86760, Note_on_c, 9, 42, 0
3, 86880, Note_on_c, 9, 38, 88
3, 86880, Note_on_c, 9, 42, 64
3, 87000, Note_on_c, 9, 38, 0
3, 87000, Note_on_c, 9, 42, 0
3, 87120, Note_on_c, 9, 42, 64
3, 87240, Note_on_c, 9, 38, 64
3, 87240, Note_on_c, 9, 42, 0
3, 87360, Note_on_c, 9, 36, 64
3, 87360, Note_on_c, 9, 38, 0
3, 87360, Note_on_c, 9, 42, 64
3, 87480, Note_on_c, 9, 36, 0
3, 87480, Note_on_c, 9, 42, 0
3, 87600, Note_on_c, 9, 38, 64
3, 87600, Note_on_c, 9, 42, 64
3, 87720, Note_on_c, 9, 38, 0
3, 87720, Note_on_c, 9, 42, 0
3, 87840, Note_on_c, 9, 42, 88
3, 87960, Note_on_c, 9, 42, 0
3, 88080, Note_on_c, 9, 36, 64
3, 88080, Note_on_c, 9, 42, 64
3, 88200, Note_on_c, 9, 36, 0
3, 88200, Note_on_c, 9, 38, 64
3, 88200, Note_on_c, 9, 42, 0
3, 88320, Note_on_c, 9, 36, 64
3, 88320, Note_on_c, 9, 38, 0
3, 88320, Note_on_c, 9, 42, 64
3, 88440, Note_on_c, 9, 36, 0
3, 88440, Note_on_c, 9, 42, 0
3, 88560, Note_on_c, 9, 36, 64
3, 88560, Note_on_c, 9, 42, 64
3, 88680, Note_on_c, 9, 36, 0
3, 88680, Note_on_c, 9, 36, 64
3, 88680, Note_on_c, 9, 42, 0
3, 88800, Note_on_c, 9, 36, 0
3, 88800, Note_on_c, 9, 38, 64
3, 88800, Note_on_c, 9, 42, 64
3, 88920, Note_on_c, 9, 36, 64
3, 88920, Note_on_c, 9, 38, 0
3, 88920, Note_on_c, 9, 42, 0
3, 89040, Note_on_c, 9, 36, 0
3, 89040, Note_on_c, 9, 42, 64
3, 89160, Note_on_c, 9, 42, 0
3, 89280, Note_on_c, 9, 36, 64
3, 89280, Note_on_c, 9, 42, 64
3, 89400, Note_on_c, 9, 36, 0
3, 89400, Note_on_c, 9, 42, 0
3, 89520, Note_on_c, 9, 36, 64
3, 89520, Note_on_c, 9, 42, 64
3, 89640, Note_on_c, 9, 36, 0
3, 89640, Note_on_c, 9, 36, 64
3, 89640, Note_on_c, 9, 42, 0
3, 89760, Note_on_c, 9, 36, 0
3, 89760, Note_on_c, 9, 38, 88
3, 89760, Note_on_c, 9, 42, 64
3, 89880, Note_on_c, 9, 36, 64
3, 89880, Note_on_c, 9, 38, 0
3, 89880, Note_on_c, 9, 42, 0
3, 90000, Note_on_c, 9, 36, 0
3, 90000, Note_on_c, 9, 42, 64
3, 90120, Note_on_c, 9, 42, 0
3, 90240, Note_on_c, 9, 36, 64
3, 90240, Note_on_c, 9, 42, 64
3, 90360, Note_on_c, 9, 36, 0
3, 90360, Note_on_c, 9, 42, 0
3, 90480, Note_on_c, 9, 36, 64
3, 90480, Note_on_c, 9, 42, 64
3, 90600, Note_on_c, 9, 36, 0
3, 90600, Note_on_c, 9, 36, 64
3, 90600, Note_on_c, 9, 42, 0
3, 90720, Note_on_c, 9, 36, 0
3, 90720, Note_on_c, 9, 38, 64
3, 90720, Note_on_c, 9, 42, 64
3, 90840, Note_on_c, 9, 36, 64
3, 90840, Note_on_c, 9, 38, 0
3, 90840, Note_on_c, 9, 42, 0
3, 90960, Note_on_c, 9, 36, 0
3, 90960, Note_on_c, 9, 42, 64
3, 91080, Note_on_c, 9, 42, 0
3, 91200, Note_on_c, 9, 36, 64
3, 91200, Note_on_c, 9, 42, 64
3, 91320, Note_on_c, 9, 36, 0
3, 91320, Note_on_c, 9, 42, 0
3, 91440, Note_on_c, 9, 36, 64
3, 91440, Note_on_c, 9, 42, 64
3, 91560, Note_on_c, 9, 36, 0
3, 91560, Note_on_c, 9, 36, 64
3, 91560, Note_on_c, 9, 42, 0
3, 91680, Note_on_c, 9, 36, 0
3, 91680, Note_on_c, 9, 38, 88
3, 91680, Note_on_c, 9, 42, 64
3, 91800, Note_on_c, 9, 36, 64
3, 91800, Note_on_c, 9, 38, 0
3, 91800, Note_on_c, 9, 42, 0
3, 91920, Note_on_c, 9, 36, 0
3, 91920, Note_on_c, 9, 42, 64
3, 92040, Note_on_c, 9, 42, 0
3, 92160, Note_on_c, 9, 36, 64
3, 92160, Note_on_c, 9, 42, 64
3, 92280, Note_on_c, 9, 36, 0
3, 92280, Note_on_c, 9, 42, 0
3, 92400, Note_on_c, 9, 38, 64
3, 92400, Note_on_c, 9, 42, 64
3, 92520, Note_on_c, 9, 38, 0
3, 92520, Note_on_c, 9, 42, 0
3, 92640, Note_on_c, 9, 42, 64
3, 92760, Note_on_c, 9, 42, 0
3, 92880, Note_on_c, 9, 36, 64
3, 92880, Note_on_c, 9, 42, 64
3, 93000, Note_on_c, 9, 36, 0
3, 93000, Note_on_c, 9, 42, 0
3, 93120, Note_on_c, 9, 36, 64
3, 93120, Note_on_c, 9, 42, 64
3, 93240, Note_on_c, 9, 36, 0
3, 93240, Note_on_c, 9, 42, 0
3, 93360, Note_on_c, 9, 42, 64
3, 93480, Note_on_c, 9, 42, 0
3, 93600, Note_on_c, 9, 38, 88
3, 93600, Note_on_c, 9, 42, 64
3, 93720, Note_on_c, 9, 38, 0
3, 93720, Note_on_c, 9, 42, 0
3, 93840, Note_on_c, 9, 42, 64
3, 93960, Note_on_c, 9, 42, 0
3, 94080, Note_on_c, 9, 36, 64
3, 94080, Note_on_c, 9, 42, 64
3, 94200, Note_on_c, 9, 36, 0
3, 94200, Note_on_c, 9, 42, 0
3, 94320, Note_on_c, 9, 38, 64
3, 94320, Note_on_c, 9, 42, 64
3, 94440, Note_on_c, 9, 38, 0
3, 94440, Note_on_c, 9, 42, 0
3, 94560, Note_on_c, 9, 42, 64
3, 94680, Note_on_c, 9, 42, 0
3, 94800, Note_on_c, 9, 36, 64
3, 94800, Note_on_c, 9, 42, 64
3, 94920, Note_on_c, 9, 36, 0
3, 94920, Note_on_c, 9, 42, 0
3, 95040, Note_on_c, 9, 36, 64
3, 95040, Note_on_c, 9, 42, 64
3, 95160, Note_on_c, 9, 36, 0
3, 95160, Note_on_c, 9, 42, 0
3, 95280, Note_on_c, 9, 42, 64
3, 95400, Note_on_c, 9, 42, 0
3, 95520, Note_on_c, 9, 38, 88
3, 95520, Note_on_c, 9, 42, 64
3, 95640, Note_on_c, 9, 38, 0
3, 95640, Note_on_c, 9, 42, 0
3, 95760, Note_on_c, 9, 42, 64
3, 95880, Note_on_c, 9, 42, 0
3, 96000, Note_on_c, 9, 36, 64
3, 96000, Note_on_c, 9, 42, 64
3, 96120, Note_on_c, 9, 36, 0
3, 96120, Note_on_c, 9, 42, 0
3, 96240, Note_on_c, 9, 36, 64
3, 96240, Note_on_c, 9, 42, 64
3, 96360, Note_on_c, 9, 36, 0
3, 96360, Note_on_c, 9, 42, 0
3, 96480, Note_on_c, 9, 38, 88
3, 96480, Note_on_c, 9, 42, 64
3, 96600, Note_on_c, 9, 38, 0
3, 96600, Note_on_c, 9, 42, 0
3, 96720, Note_on_c, 9, 36, 64
3, 96720, Note_on_c, 9, 42, 64
3, 96840, Note_on_c, 9, 36, 0
3, 96840, Note_on_c, 9, 42, 0
3, 96960, Note_on_c, 9, 42, 64
3, 97080, Note_on_c, 9, 38, 64
3, 97080, Note_on_c, 9, 42, 0
3, 97200, Note_on_c, 9, 36, 64
3, 97200, Note_on_c, 9, 38, 0
3, 97200, Note_on_c, 9, 42, 64
3, 97320, Note_on_c, 9, 36, 0
3, 97320, Note_on_c, 9, 42, 0
3, 97440, Note_on_c, 9, 38, 88
3, 97440, Note_on_c, 9, 42, 64
3, 97560, Note_on_c, 9, 38, 0
3, 97560, Note_on_c, 9, 42, 0
3, 97680, Note_on_c, 9, 42, 64
3, 97800, Note_on_c, 9, 42, 0
3, 97920, Note_on_c, 9, 36, 64
3, 97920, Note_on_c, 9, 42, 64
3, 98040, Note_on_c, 9, 36, 0
3, 98040, Note_on_c, 9, 42, 0
3, 98160, Note_on_c, 9, 36, 64
3, 98160, Note_on_c, 9, 42, 64
3, 98280, Note_on_c, 9, 36, 0
3, 98280, Note_on_c, 9, 42, 0
3, 98400, Note_on_c, 9, 38, 88
3, 98400, Note_on_c, 9, 42, 64
3, 98520, Note_on_c, 9, 38, 0
3, 98520, Note_on_c, 9, 42, 0
3, 98640, Note_on_c, 9, 36, 64
3, 98640, Note_on_c, 9, 42, 64
3, 98760, Note_on_c, 9, 36, 0
3, 98760, Note_on_c, 9, 42, 0
3, 98880, Note_on_c, 9, 42, 64
3, 99000, Note_on_c, 9, 38, 64
3, 99000, Note_on_c, 9, 42, 0
3, 99120, Note_on_c, 9, 36, 64
3, 99120, Note_on_c, 9, 38, 0
3, 99120, Note_on_c, 9, 42, 64
3, 99240, Note_on_c, 9, 36, 0
3, 99240, Note_on_c, 9, 42, 0
3, 99360, Note_on_c, 9, 38, 88
3, 99360, Note_on_c, 9, 42, 64
3, 99480, Note_on_c, 9, 38, 0
3, 99480, Note_on_c, 9, 42, 0
3, 99600, Note_on_c, 9, 42, 64
3, 99720, Note_on_c, 9, 42, 0
3, 99840, Note_on_c, 9, 36, 64
3, 99840, Note_on_c, 9, 42, 110
3, 99960, Note_on_c, 9, 36, 0
3, 99960, Note_on_c, 9, 42, 0
3, 99960, Note_on_c, 9, 42, 64
3, 100080, Note_on_c, 9, 42, 64
3, 100082, Note_on_c, 9, 42, 0
3, 100200, Note_on_c, 9, 42, 64
3, 100202, Note_on_c, 9, 42, 0
3, 100320, Note_on_c, 9, 38, 64
3, 100320, Note_on_c, 9, 42, 110
3, 100322, Note_on_c, 9, 42, 0
3, 100440, Note_on_c, 9, 38, 0
3, 100440, Note_on_c, 9, 42, 64
3, 100442, Note_on_c, 9, 42, 0
3, 100560, Note_on_c, 9, 42, 64
3, 100562, Note_on_c, 9, 42, 0
3, 100680, Note_on_c, 9, 36, 64
3, 100680, Note_on_c, 9, 42, 64
3, 100682, Note_on_c, 9, 42, 0
3, 100800, Note_on_c, 9, 36, 0
3, 100800, Note_on_c, 9, 36, 64
3, 100800, Note_on_c, 9, 42, 110
3, 100802, Note_on_c, 9, 42, 0
3, 100920, Note_on_c, 9, 36, 0
3, 100920, Note_on_c, 9, 42, 64
3, 100922, Note_on_c, 9, 42, 0
3, 101040, Note_on_c, 9, 42, 64
3, 101042, Note_on_c, 9, 42, 0
3, 101160, Note_on_c, 9, 42, 64
3, 101162, Note_on_c, 9, 42, 0
3, 101280, Note_on_c, 9, 38, 64
3, 101280, Note_on_c, 9, 42, 110
3, 101282, Note_on_c, 9, 42, 0
3, 101400, Note_on_c, 9, 38, 0
3, 101400, Note_on_c, 9, 42, 64
3, 101402, Note_on_c, 9, 42, 0
3, 101520, Note_on_c, 9, 42, 64
3, 101522, Note_on_c, 9, 42, 0
3, 101640, Note_on_c, 9, 42, 64
3, 101642, Note_on_c, 9, 42, 0
3, 101760, Note_on_c, 9, 36, 64
3, 101760, Note_on_c, 9, 42, 110
3, 101762, Note_on_c, 9, 42, 0
3, 101880, Note_on_c, 9, 36, 0
3, 101880, Note_on_c, 9, 42, 64
3, 101882, Note_on_c, 9, 42, 0
3, 102000, Note_on_c, 9, 42, 64
3, 102002, Note_on_c, 9, 42, 0
3, 102120, Note_on_c, 9, 42, 64
3, 102122, Note_on_c, 9, 42, 0
3, 102240, Note_on_c, 9, 38, 64
3, 102240, Note_on_c, 9, 42, 110
3, 102242, Note_on_c, 9, 42, 0
3, 102360, Note_on_c, 9, 38, 0
3, 102360, Note_on_c, 9, 42, 64
3, 102362, Note_on_c, 9, 42, 0
3, 102480, Note_on_c, 9, 42, 64
3, 102482, Note_on_c, 9, 42, 0
3, 102600, Note_on_c, 9, 36, 64
3, 102600, Note_on_c, 9, 42, 64
3, 102602, Note_on_c, 9, 42, 0
3, 102720, Note_on_c, 9, 36, 0
3, 102720, Note_on_c, 9, 36, 64
3, 102720, Note_on_c, 9, 42, 110
3, 102722, Note_on_c, 9, 42, 0
3, 102840, Note_on_c, 9, 36, 0
3, 102840, Note_on_c, 9, 42, 64
3, 102842, Note_on_c, 9, 42, 0
3, 102960, Note_on_c, 9, 42, 64
3, 102962, Note_on_c, 9, 42, 0
3, 103080, Note_on_c, 9, 42, 64
3, 103082, Note_on_c, 9, 42, 0
3, 103200, Note_on_c, 9, 38, 64
3, 103200, Note_on_c, 9, 42, 110
3, 103202, Note_on_c, 9, 42, 0
3, 103320, Note_on_c, 9, 38, 0
3, 103320, Note_on_c, 9, 42, 64
3, 103322, Note_on_c, 9, 42, 0
3, 103440, Note_on_c, 9, 42, 64
3, 103442, Note_on_c, 9, 42, 0
3, 103560, Note_on_c, 9, 42, 64
3, 103562, Note_on_c, 9, 42, 0
3, 103680, Note_on_c, 9, 36, 64
3, 103680, Note_on_c, 9, 42, 110
3, 103682, Note_on_c, 9, 42, 0
3, 103800, Note_on_c, 9, 36, 0
3, 103800, Note_on_c, 9, 42, 64
3, 103802, Note_on_c, 9, 42, 0
3, 103920, Note_on_c, 9, 42, 64
3, 103922, Note_on_c, 9, 42, 0
3, 104040, Note_on_c, 9, 36, 64
3, 104040, Note_on_c, 9, 42, 64
3, 104042, Note_on_c, 9, 42, 0
3, 104160, Note_on_c, 9, 36, 0
3, 104160, Note_on_c, 9, 38, 64
3, 104160, Note_on_c, 9, 42, 110
3, 104162, Note_on_c, 9, 42, 0
3, 104280, Note_on_c, 9, 38, 0
3, 104280, Note_on_c, 9, 42, 64
3, 104282, Note_on_c, 9, 42, 0
3, 104400, Note_on_c, 9, 36, 64
3, 104400, Note_on_c, 9, 42, 64
3, 104402, Note_on_c, 9, 42, 0
3, 104520, Note_on_c, 9, 36, 0
3, 104520, Note_on_c, 9, 42, 64
3, 104522, Note_on_c, 9, 42, 0
3, 104640, Note_on_c, 9, 36, 64
3, 104640, Note_on_c, 9, 42, 110
3, 104642, Note_on_c, 9, 42, 0
3, 104760, Note_on_c, 9, 36, 0
3, 104760, Note_on_c, 9, 42, 64
3, 104762, Note_on_c, 9, 42, 0
3, 104880, Note_on_c, 9, 42, 64
3, 104882, Note_on_c, 9, 42, 0
3, 105000, Note_on_c, 9, 42, 64
3, 105002, Note_on_c, 9, 42, 0
3, 105120, Note_on_c, 9, 38, 64
3, 105120, Note_on_c, 9, 42, 110
3, 105122, Note_on_c, 9, 42, 0
3, 105240, Note_on_c, 9, 38, 0
3, 105240, Note_on_c, 9, 42, 64
3, 105242, Note_on_c, 9, 42, 0
3, 105360, Note_on_c, 9, 42, 64
3, 105362, Note_on_c, 9, 42, 0
3, 105480, Note_on_c, 9, 36, 64
3, 105480, Note_on_c, 9, 42, 64
3, 105482, Note_on_c, 9, 42, 0
3, 105600, Note_on_c, 9, 36, 0
3, 105600, Note_on_c, 9, 36, 64
3, 105600, Note_on_c, 9, 42, 110
3, 105602, Note_on_c, 9, 42, 0
3, 105720, Note_on_c, 9, 36, 0
3, 105720, Note_on_c, 9, 42, 64
3, 105722, Note_on_c, 9, 42, 0
3, 105840, Note_on_c, 9, 42, 64
3, 105842, Note_on_c, 9, 42, 0
3, 105960, Note_on_c, 9, 36, 64
3, 105960, Note_on_c, 9, 42, 64
3, 105962, Note_on_c, 9, 42, 0
3, 106080, Note_on_c, 9, 36, 0
3, 106080, Note_on_c, 9, 38, 64
3, 106080, Note_on_c, 9, 42, 110
3, 106082, Note_on_c, 9, 42, 0
3, 106200, Note_on_c, 9, 38, 0
3, 106200, Note_on_c, 9, 42, 64
3, 106202, Note_on_c, 9, 42, 0
3, 106320, Note_on_c, 9, 36, 64
3, 106320, Note_on_c, 9, 42, 64
3, 106322, Note_on_c, 9, 42, 0
3, 106440, Note_on_c, 9, 36, 0
3, 106440, Note_on_c, 9, 42, 64
3, 106442, Note_on_c, 9, 42, 0
3, 106560, Note_on_c, 9, 36, 64
3, 106560, Note_on_c, 9, 42, 110
3, 106562, Note_on_c, 9, 42, 0
3, 106680, Note_on_c, 9, 36, 0
3, 106680, Note_on_c, 9, 42, 64
3, 106682, Note_on_c, 9, 42, 0
3, 106800, Note_on_c, 9, 42, 64
3, 106802, Note_on_c, 9, 42, 0
3, 106920, Note_on_c, 9, 42, 64
3, 106922, Note_on_c, 9, 42, 0
3, 107040, Note_on_c, 9, 38, 64
3, 107040, Note_on_c, 9, 42, 110
3, 107042, Note_on_c, 9, 42, 0
3, 107160, Note_on_c, 9, 38, 0
3, 107160, Note_on_c, 9, 42, 64
3, 107162, Note_on_c, 9, 42, 0
3, 107280, Note_on_c, 9, 42, 64
3, 107282, Note_on_c, 9, 42, 0
3, 107400, Note_on_c, 9, 36, 64
3, 107400, Note_on_c, 9, 42, 64
3, 107402, Note_on_c, 9, 42, 0
3, 107520, Note_on_c, 9, 36, 64
3, 107520, Note_on_c, 9, 42, 64
3, 107522, Note_on_c, 9, 36, 0
3, 107522, Note_on_c, 9, 42, 0
3, 107640, Note_on_c, 9, 36, 0
3, 107640, Note_on_c, 9, 42, 0
3, 107760, Note_on_c, 9, 42, 64
3, 107880, Note_on_c, 9, 36, 64
3, 107880, Note_on_c, 9, 42, 0
3, 108000, Note_on_c, 9, 36, 0
3, 108000, Note_on_c, 9, 38, 88
3, 108000, Note_on_c, 9, 42, 64
3, 108120, Note_on_c, 9, 36, 64
3, 108120, Note_on_c, 9, 38, 0
3, 108120, Note_on_c, 9, 42, 0
3, 108240, Note_on_c, 9, 36, 0
3, 108240, Note_on_c, 9, 36, 64
3, 108240, Note_on_c, 9, 42, 64
3, 108360, Note_on_c, 9, 36, 0
3, 108360, Note_on_c, 9, 42, 0
3, 108480, Note_on_c, 9, 36, 64
3, 108480, Note_on_c, 9, 42, 64
3, 108600, Note_on_c, 9, 36, 0
3, 108600, Note_on_c, 9, 42, 0
3, 108720, Note_on_c, 9, 42, 64
3, 108840, Note_on_c, 9, 42, 0
3, 108960, Note_on_c, 9, 38, 88
3, 108960, Note_on_c, 9, 42, 64
3, 109080, Note_on_c, 9, 38, 0
3, 109080, Note_on_c, 9, 42, 0
3, 109200, Note_on_c, 9, 44, 64
3, 109320, Note_on_c, 9, 44, 0
3, 109440, Note_on_c, 9, 36, 64
3, 109440, Note_on_c, 9, 42, 64
3, 109560, Note_on_c, 9, 36, 0
3, 109560, Note_on_c, 9, 42, 0
3, 109680, Note_on_c, 9, 42, 64
3, 109800, Note_on_c, 9, 36, 64
3, 109800, Note_on_c, 9, 42, 0
3, 109920, Note_on_c, 9, 36, 0
3, 109920, Note_on_c, 9, 38, 88
3, 109920, Note_on_c, 9, 42, 64
3, 110040, Note_on_c, 9, 36, 64
3, 110040, Note_on_c, 9, 38, 0
3, 110040, Note_on_c, 9, 42, 0
3, 110160, Note_on_c, 9, 36, 0
3, 110160, Note_on_c, 9, 36, 64
3, 110160, Note_on_c, 9, 42, 64
3, 110280, Note_on_c, 9, 36, 0
3, 110280, Note_on_c, 9, 42, 0
3, 110400, Note_on_c, 9, 36, 64
3, 110400, Note_on_c, 9, 42, 64
3, 110520, Note_on_c, 9, 36, 0
3, 110520, Note_on_c, 9, 42, 0
3, 110640, Note_on_c, 9, 42, 64
3, 110760, Note_on_c, 9, 42, 0
3, 110880, Note_on_c, 9, 38, 88
3, 110880, Note_on_c, 9, 42, 64
3, 111000, Note_on_c, 9, 38, 0
3, 111000, Note_on_c, 9, 42, 0
3, 111120, Note_on_c, 9, 44, 64
3, 111240, Note_on_c, 9, 44, 0
3, 111240, End_track
0, 0, End_of_file
