0, 0, Header, 1, 2, 480
1, 0, Start_track
1, 0, Tempo, 588235
1, 0, Time_signature, 4, 2, 24, 8
1, 0, Key_signature, 0, "major"
1, 1, End_track
2, 0, Start_track
2, 0, Title_t, "Classic Studio Kit"
2, 0, Program_c, 9, 0
2, 0, Control_c, 9, 17, 49
2, 8, Control_c, 9, 4, 110
2, 25, Note_on_c, 9, 48, 60
2, 91, Control_c, 9, 4, 102
2, 107, Note_on_c, 9, 48, 0
2, 125, Control_c, 9, 4, 89
2, 135, Control_c, 9, 17, 58
2, 136, Note_on_c, 9, 51, 73
2, 155, Control_c, 9, 4, 70
2, 185, Control_c, 9, 4, 0
2, 217, Note_on_c, 9, 51, 0
2, 247, Control_c, 9, 4, 34
2, 253, Note_on_c, 9, 44, 127
2, 257, Note_on_c, 9, 36, 51
2, 278, Control_c, 9, 4, 124
2, 295, Note_on_c, 9, 49, 7
2, 326, Control_c, 9, 4, 95
2, 335, Note_on_c, 9, 44, 0
2, 339, Note_on_c, 9, 36, 0
2, 371, Control_c, 9, 4, 86
2, 377, Note_on_c, 9, 49, 0
2, 485, Control_c, 9, 4, 102
2, 501, Note_on_c, 9, 36, 76
2, 503, Control_c, 9, 17, 48
2, 503, Note_on_c, 9, 51, 91
2, 505, Control_c, 9, 16, 0
2, 505, Note_on_c, 9, 38, 66
2, 552, Control_c, 9, 4, 97
2, 583, Note_on_c, 9, 36, 0
2, 584, Note_on_c, 9, 51, 0
2, 588, Note_on_c, 9, 38, 0
2, 596, Control_c, 9, 4, 83
2, 628, Control_c, 9, 4, 69
2, 660, Control_c, 9, 4, 0
2, 722, Control_c, 9, 4, 32
2, 730, Note_on_c, 9, 44, 127
2, 749, Control_c, 9, 17, 95
2, 749, Note_on_c, 9, 51, 64
2, 754, Control_c, 9, 4, 120
2, 796, Control_c, 9, 4, 98
2, 810, Note_on_c, 9, 44, 0
2, 832, Control_c, 9, 4, 87
2, 832, Note_on_c, 9, 51, 0
2, 860, Control_c, 9, 18, 0
2, 860, Note_on_c, 9, 36, 61
2, 862, Note_on_c, 9, 48, 43
2, 942, Control_c, 9, 17, 61
2, 942, Note_on_c, 9, 51, 51
2, 945, Note_on_c, 9, 36, 0
2, 945, Note_on_c, 9, 48, 0
2, 956, Control_c, 9, 4, 102
2, 980, Note_on_c, 9, 48, 63
2, 1024, Note_on_c, 9, 51, 0
2, 1062, Note_on_c, 9, 48, 0
2, 1067, Control_c, 9, 4, 91
2, 1085, Control_c, 9, 17, 49
2, 1086, Note_on_c, 9, 51, 76
2, 1109, Control_c, 9, 4, 73
2, 1150, Control_c, 9, 4, 0
2, 1168, Note_on_c, 9, 51, 0
2, 1200, Control_c, 9, 4, 49
2, 1204, Note_on_c, 9, 44, 113
2, 1211, Note_on_c, 9, 36, 51
2, 1230, Control_c, 9, 4, 120
2, 1246, Note_on_c, 9, 49, 5
2, 1284, Control_c, 9, 4, 91
2, 1286, Note_on_c, 9, 44, 0
2, 1293, Note_on_c, 9, 36, 0
2, 1315, Control_c, 9, 4, 86
2, 1329, Note_on_c, 9, 49, 0
2, 1433, Control_c, 9, 4, 97
2, 1452, Note_on_c, 9, 36, 67
2, 1461, Control_c, 9, 17, 17
2, 1462, Note_on_c, 9, 51, 85
2, 1466, Note_on_c, 9, 38, 60
2, 1534, Note_on_c, 9, 36, 0
2, 1545, Note_on_c, 9, 51, 0
2, 1548, Note_on_c, 9, 38, 0
2, 1562, Control_c, 9, 4, 85
2, 1598, Control_c, 9, 4, 71
2, 1640, Control_c, 9, 4, 0
2, 1688, Control_c, 9, 4, 33
2, 1694, Note_on_c, 9, 44, 113
2, 1708, Control_c, 9, 17, 94
2, 1708, Note_on_c, 9, 51, 73
2, 1720, Control_c, 9, 4, 120
2, 1776, Note_on_c, 9, 44, 0
2, 1777, Control_c, 9, 4, 91
2, 1791, Note_on_c, 9, 51, 0
2, 1807, Control_c, 9, 4, 86
2, 1826, Control_c, 9, 17, 94
2, 1826, Note_on_c, 9, 51, 5
2, 1829, Control_c, 9, 18, 0
2, 1830, Note_on_c, 9, 36, 57
2, 1830, Note_on_c, 9, 48, 46
2, 1883, Control_c, 9, 17, 41
2, 1883, Note_on_c, 9, 51, 0
2, 1884, Note_on_c, 9, 51, 55
2, 1908, Note_on_c, 9, 51, 0
2, 1910, Note_on_c, 9, 48, 0
2, 1911, Note_on_c, 9, 36, 0
2, 1925, Control_c, 9, 4, 99
2, 1942, Note_on_c, 9, 48, 68
2, 2024, Note_on_c, 9, 48, 0
2, 2028, Control_c, 9, 17, 20
2, 2029, Note_on_c, 9, 51, 78
2, 2051, Control_c, 9, 4, 86
2, 2084, Control_c, 9, 4, 70
2, 2111, Note_on_c, 9, 51, 0
2, 2122, Control_c, 9, 4, 0
2, 2166, Control_c, 9, 4, 48
2, 2171, Note_on_c, 9, 44, 113
2, 2174, Note_on_c, 9, 36, 49
2, 2197, Control_c, 9, 4, 126
2, 2214, Note_on_c, 9, 49, 6
2, 2243, Control_c, 9, 4, 94
2, 2253, Note_on_c, 9, 44, 0
2, 2255, Note_on_c, 9, 36, 0
2, 2278, Control_c, 9, 4, 84
2, 2295, Note_on_c, 9, 49, 0
2, 2393, Control_c, 9, 4, 97
2, 2410, Note_on_c, 9, 36, 65
2, 2414, Control_c, 9, 17, 5
2, 2415, Note_on_c, 9, 51, 94
2, 2419, Control_c, 9, 16, 0
2, 2420, Note_on_c, 9, 38, 71
2, 2493, Note_on_c, 9, 36, 0
2, 2495, Note_on_c, 9, 51, 0
2, 2501, Note_on_c, 9, 38, 0
2, 2516, Control_c, 9, 4, 85
2, 2552, Control_c, 9, 4, 71
2, 2597, Control_c, 9, 4, 0
2, 2645, Control_c, 9, 4, 49
2, 2650, Note_on_c, 9, 44, 113
2, 2657, Control_c, 9, 17, 37
2, 2658, Note_on_c, 9, 51, 80
2, 2675, Control_c, 9, 4, 120
2, 2717, Control_c, 9, 4, 97
2, 2731, Note_on_c, 9, 44, 0
2, 2738, Note_on_c, 9, 51, 0
2, 2757, Control_c, 9, 4, 85
2, 2773, Control_c, 9, 18, 0
2, 2774, Note_on_c, 9, 48, 49
2, 2779, Note_on_c, 9, 36, 61
2, 2855, Note_on_c, 9, 48, 0
2, 2861, Note_on_c, 9, 36, 0
2, 2886, Control_c, 9, 4, 108
2, 2892, Control_c, 9, 18, 0
2, 2893, Note_on_c, 9, 48, 72
2, 2904, Control_c, 9, 17, 72
2, 2904, Note_on_c, 9, 51, 51
2, 2940, Control_c, 9, 4, 102
2, 2974, Note_on_c, 9, 48, 0
2, 2981, Control_c, 9, 4, 90
2, 2986, Note_on_c, 9, 51, 0
2, 3023, Control_c, 9, 4, 72
2, 3031, Control_c, 9, 17, 38
2, 3031, Note_on_c, 9, 51, 82
2, 3065, Control_c, 9, 4, 0
2, 3113, Note_on_c, 9, 51, 0
2, 3118, Control_c, 9, 4, 32
2, 3125, Note_on_c, 9, 44, 119
2, 3129, Note_on_c, 9, 36, 50
2, 3151, Control_c, 9, 4, 118
2, 3201, Control_c, 9, 4, 91
2, 3208, Note_on_c, 9, 44, 0
2, 3211, Note_on_c, 9, 36, 0
2, 3241, Control_c, 9, 4, 87
2, 3351, Control_c, 9, 4, 92
2, 3379, Control_c, 9, 17, 6
2, 3379, Note_on_c, 9, 36, 64
2, 3379, Note_on_c, 9, 51, 88
2, 3387, Note_on_c, 9, 38, 65
2, 3462, Note_on_c, 9, 36, 0
2, 3462, Note_on_c, 9, 51, 0
2, 3468, Note_on_c, 9, 38, 0
2, 3488, Control_c, 9, 4, 85
2, 3525, Control_c, 9, 4, 71
2, 3565, Control_c, 9, 4, 0
2, 3619, Control_c, 9, 4, 48
2, 3621, Control_c, 9, 17, 72
2, 3622, Note_on_c, 9, 51, 81
2, 3624, Note_on_c, 9, 44, 113
2, 3649, Control_c, 9, 4, 120
2, 3690, Control_c, 9, 4, 96
2, 3704, Note_on_c, 9, 51, 0
2, 3705, Note_on_c, 9, 44, 0
2, 3728, Control_c, 9, 4, 84
2, 3736, Control_c, 9, 18, 21
2, 3736, Note_on_c, 9, 48, 45
2, 3759, Note_on_c, 9, 36, 46
2, 3818, Note_on_c, 9, 48, 0
2, 3841, Note_on_c, 9, 36, 0
2, 3842, Control_c, 9, 4, 99
2, 3864, Control_c, 9, 18, 0
2, 3864, Note_on_c, 9, 48, 63
2, 3872, Control_c, 9, 17, 75
2, 3873, Note_on_c, 9, 51, 54
2, 3938, Control_c, 9, 4, 94
2, 3945, Note_on_c, 9, 48, 0
2, 3954, Note_on_c, 9, 51, 0
2, 3985, Control_c, 9, 4, 83
2, 3998, Control_c, 9, 17, 92
2, 3998, Note_on_c, 9, 51, 69
2, 4031, Control_c, 9, 4, 54
2, 4066, Control_c, 9, 4, 0
2, 4080, Note_on_c, 9, 51, 0
2, 4101, Control_c, 9, 4, 49
2, 4106, Note_on_c, 9, 44, 93
2, 4114, Note_on_c, 9, 36, 54
2, 4131, Control_c, 9, 4, 120
2, 4168, Control_c, 9, 4, 97
2, 4188, Note_on_c, 9, 44, 0
2, 4196, Note_on_c, 9, 36, 0
2, 4205, Control_c, 9, 4, 84
2, 4330, Control_c, 9, 4, 95
2, 4348, Control_c, 9, 17, 27
2, 4349, Note_on_c, 9, 51, 87
2, 4358, Note_on_c, 9, 36, 58
2, 4364, Control_c, 9, 16, 0
2, 4364, Note_on_c, 9, 38, 69
2, 4430, Note_on_c, 9, 51, 0
2, 4441, Note_on_c, 9, 36, 0
2, 4446, Note_on_c, 9, 38, 0
2, 4469, Control_c, 9, 4, 83
2, 4505, Control_c, 9, 4, 70
2, 4549, Control_c, 9, 4, 0
2, 4592, Control_c, 9, 4, 48
2, 4597, Note_on_c, 9, 44, 93
2, 4602, Control_c, 9, 17, 65
2, 4602, Note_on_c, 9, 51, 75
2, 4622, Control_c, 9, 4, 120
2, 4659, Control_c, 9, 4, 100
2, 4678, Note_on_c, 9, 44, 0
2, 4683, Note_on_c, 9, 51, 0
2, 4698, Control_c, 9, 4, 85
2, 4719, Note_on_c, 9, 48, 46
2, 4729, Note_on_c, 9, 36, 51
2, 4801, Note_on_c, 9, 48, 0
2, 4811, Note_on_c, 9, 36, 0
2, 4818, Control_c, 9, 4, 97
2, 4845, Control_c, 9, 18, 0
2, 4846, Note_on_c, 9, 48, 67
2, 4849, Control_c, 9, 17, 65
2, 4850, Note_on_c, 9, 51, 53
2, 4927, Note_on_c, 9, 48, 0
2, 4931, Note_on_c, 9, 51, 0
2, 4947, Control_c, 9, 4, 84
2, 4975, Control_c, 9, 17, 77
2, 4975, Note_on_c, 9, 51, 77
2, 4980, Control_c, 9, 4, 70
2, 5025, Control_c, 9, 4, 0
2, 5057, Note_on_c, 9, 51, 0
2, 5070, Control_c, 9, 4, 33
2, 5076, Note_on_c, 9, 44, 106
2, 5078, Note_on_c, 9, 36, 51
2, 5102, Control_c, 9, 4, 120
2, 5139, Control_c, 9, 4, 97
2, 5159, Note_on_c, 9, 44, 0
2, 5160, Note_on_c, 9, 36, 0
2, 5177, Control_c, 9, 4, 84
2, 5220, Control_c, 9, 17, 31
2, 5221, Note_on_c, 9, 51, 90
2, 5302, Note_on_c, 9, 51, 0
2, 5303, Control_c, 9, 4, 94
2, 5325, Note_on_c, 9, 36, 60
2, 5342, Note_on_c, 9, 38, 62
2, 5408, Note_on_c, 9, 36, 0
2, 5423, Note_on_c, 9, 38, 0
2, 5428, Control_c, 9, 4, 83
2, 5466, Control_c, 9, 4, 70
2, 5510, Control_c, 9, 4, 0
2, 5555, Control_c, 9, 4, 48
2, 5559, Note_on_c, 9, 44, 106
2, 5561, Control_c, 9, 17, 49
2, 5561, Note_on_c, 9, 51, 85
2, 5585, Control_c, 9, 4, 120
2, 5626, Control_c, 9, 4, 95
2, 5641, Note_on_c, 9, 44, 0
2, 5643, Note_on_c, 9, 51, 0
2, 5660, Control_c, 9, 4, 83
2, 5683, Note_on_c, 9, 36, 50
2, 5683, Note_on_c, 9, 48, 43
2, 5765, Note_on_c, 9, 36, 0
2, 5765, Note_on_c, 9, 48, 0
2, 5784, Control_c, 9, 4, 98
2, 5802, Control_c, 9, 18, 0
2, 5803, Note_on_c, 9, 48, 68
2, 5806, Control_c, 9, 17, 63
2, 5807, Note_on_c, 9, 51, 57
2, 5879, Control_c, 9, 4, 94
2, 5884, Note_on_c, 9, 48, 0
2, 5888, Note_on_c, 9, 51, 0
2, 5926, Control_c, 9, 4, 83
2, 5932, Control_c, 9, 17, 122
2, 5933, Note_on_c, 9, 51, 66
2, 5970, Control_c, 9, 4, 54
2, 6001, Control_c, 9, 4, 0
2, 6015, Note_on_c, 9, 51, 0
2, 6042, Control_c, 9, 4, 49
2, 6047, Note_on_c, 9, 44, 100
2, 6049, Note_on_c, 9, 36, 54
2, 6072, Control_c, 9, 4, 114
2, 6105, Control_c, 9, 4, 98
2, 6128, Note_on_c, 9, 44, 0
2, 6131, Note_on_c, 9, 36, 0
2, 6145, Control_c, 9, 4, 85
2, 6253, Control_c, 9, 4, 90
2, 6292, Control_c, 9, 17, 36
2, 6292, Note_on_c, 9, 51, 90
2, 6300, Control_c, 9, 16, 0
2, 6300, Note_on_c, 9, 38, 53
2, 6302, Note_on_c, 9, 36, 57
2, 6376, Note_on_c, 9, 51, 0
2, 6382, Note_on_c, 9, 38, 0
2, 6385, Note_on_c, 9, 36, 0
2, 6396, Control_c, 9, 4, 83
2, 6433, Control_c, 9, 4, 70
2, 6470, Control_c, 9, 4, 0
2, 6521, Control_c, 9, 4, 33
2, 6528, Note_on_c, 9, 44, 113
2, 6531, Control_c, 9, 17, 44
2, 6531, Note_on_c, 9, 51, 72
2, 6554, Control_c, 9, 4, 118
2, 6591, Control_c, 9, 4, 97
2, 6610, Note_on_c, 9, 44, 0
2, 6612, Note_on_c, 9, 51, 0
2, 6632, Control_c, 9, 4, 84
2, 6646, Note_on_c, 9, 48, 46
2, 6666, Note_on_c, 9, 36, 42
2, 6727, Note_on_c, 9, 48, 0
2, 6749, Control_c, 9, 4, 98
2, 6749, Note_on_c, 9, 36, 0
2, 6769, Control_c, 9, 18, 0
2, 6770, Note_on_c, 9, 48, 62
2, 6781, Control_c, 9, 17, 119
2, 6781, Note_on_c, 9, 51, 54
2, 6851, Note_on_c, 9, 48, 0
2, 6861, Control_c, 9, 4, 88
2, 6863, Note_on_c, 9, 51, 0
2, 6901, Control_c, 9, 4, 73
2, 6908, Control_c, 9, 17, 95
2, 6908, Note_on_c, 9, 51, 67
2, 6948, Control_c, 9, 4, 0
2, 6989, Note_on_c, 9, 51, 0
2, 6995, Control_c, 9, 4, 33
2, 7001, Note_on_c, 9, 44, 113
2, 7005, Note_on_c, 9, 36, 57
2, 7021, Control_c, 9, 17, 95
2, 7022, Note_on_c, 9, 51, 5
2, 7026, Control_c, 9, 4, 116
2, 7061, Control_c, 9, 4, 98
2, 7082, Note_on_c, 9, 44, 0
2, 7085, Note_on_c, 9, 36, 0
2, 7099, Control_c, 9, 4, 85
2, 7103, Note_on_c, 9, 51, 0
2, 7142, Control_c, 9, 17, 22
2, 7143, Note_on_c, 9, 51, 89
2, 7213, Control_c, 9, 4, 90
2, 7224, Note_on_c, 9, 51, 0
2, 7259, Note_on_c, 9, 36, 61
2, 7262, Note_on_c, 9, 38, 63
2, 7341, Note_on_c, 9, 36, 0
2, 7343, Note_on_c, 9, 38, 0
2, 7360, Control_c, 9, 4, 83
2, 7398, Control_c, 9, 4, 70
2, 7440, Control_c, 9, 4, 0
2, 7488, Control_c, 9, 4, 32
2, 7493, Control_c, 9, 17, 46
2, 7494, Note_on_c, 9, 51, 69
2, 7496, Note_on_c, 9, 44, 113
2, 7520, Control_c, 9, 4, 120
2, 7559, Control_c, 9, 4, 96
2, 7575, Note_on_c, 9, 51, 0
2, 7577, Note_on_c, 9, 44, 0
2, 7592, Control_c, 9, 4, 83
2, 7593, End_track
0, 0, End_of_file
