0, 0, Header, 1, 2, 480
1, 0, Start_track
1, 0, Tempo, 588235
1, 0, Time_signature, 4, 2, 24, 8
1, 0, Key_signature, 0, "major"
1, 1, End_track
2, 0, Start_track
2, 0, Title_t, "Classic Studio Kit"
2, 0, Program_c, 9, 0
2, 0, Control_c, 9, 16, 0
2, 19, Note_on_c, 9, 38, 67
2, 24, Control_c, 9, 4, 122
2, 37, Control_c, 9, 17, 72
2, 37, Note_on_c, 9, 51, 75
2, 101, Note_on_c, 9, 38, 0
2, 108, Control_c, 9, 4, 90
2, 119, Note_on_c, 9, 51, 0
2, 139, Control_c, 9, 4, 71
2, 142, Control_c, 9, 17, 59
2, 143, Note_on_c, 9, 51, 64
2, 177, Control_c, 9, 4, 0
2, 224, Note_on_c, 9, 51, 0
2, 246, Note_on_c, 9, 36, 78
2, 247, Note_on_c, 9, 46, 14
2, 253, Control_c, 9, 4, 34
2, 258, Note_on_c, 9, 44, 127
2, 284, Control_c, 9, 4, 127
2, 327, Note_on_c, 9, 36, 0
2, 327, Note_on_c, 9, 46, 0
2, 329, Control_c, 9, 4, 102
2, 341, Note_on_c, 9, 44, 0
2, 359, Control_c, 9, 4, 90
2, 481, Control_c, 9, 4, 112
2, 498, Control_c, 9, 16, 0
2, 498, Note_on_c, 9, 38, 62
2, 499, Control_c, 9, 17, 79
2, 500, Note_on_c, 9, 51, 96
2, 504, Note_on_c, 9, 36, 81
2, 516, Control_c, 9, 4, 106
2, 579, Note_on_c, 9, 38, 0
2, 580, Note_on_c, 9, 51, 0
2, 586, Note_on_c, 9, 36, 0
2, 593, Control_c, 9, 4, 91
2, 628, Control_c, 9, 4, 73
2, 670, Control_c, 9, 4, 0
2, 733, Note_on_c, 9, 46, 10
2, 740, Control_c, 9, 4, 33
2, 746, Note_on_c, 9, 44, 127
2, 751, Control_c, 9, 17, 71
2, 752, Note_on_c, 9, 51, 77
2, 771, Control_c, 9, 4, 127
2, 814, Note_on_c, 9, 46, 0
2, 815, Control_c, 9, 4, 102
2, 827, Note_on_c, 9, 44, 0
2, 834, Note_on_c, 9, 51, 0
2, 854, Control_c, 9, 4, 88
2, 870, Note_on_c, 9, 48, 41
2, 876, Note_on_c, 9, 36, 54
2, 951, Note_on_c, 9, 48, 0
2, 957, Note_on_c, 9, 36, 0
2, 982, Control_c, 9, 4, 127
2, 989, Control_c, 9, 18, 0
2, 990, Note_on_c, 9, 48, 62
2, 992, Control_c, 9, 17, 0
2, 992, Note_on_c, 9, 51, 72
2, 1030, Control_c, 9, 4, 120
2, 1071, Note_on_c, 9, 48, 0
2, 1074, Note_on_c, 9, 51, 0
2, 1076, Control_c, 9, 4, 91
2, 1110, Control_c, 9, 4, 71
2, 1114, Control_c, 9, 17, 102
2, 1115, Note_on_c, 9, 51, 73
2, 1145, Control_c, 9, 4, 0
2, 1195, Note_on_c, 9, 51, 0
2, 1208, Note_on_c, 9, 36, 76
2, 1214, Note_on_c, 9, 46, 7
2, 1226, Note_on_c, 9, 44, 127
2, 1231, Control_c, 9, 4, 127
2, 1276, Control_c, 9, 4, 118
2, 1291, Note_on_c, 9, 36, 0
2, 1295, Note_on_c, 9, 46, 0
2, 1308, Note_on_c, 9, 44, 0
2, 1312, Control_c, 9, 4, 91
2, 1348, Control_c, 9, 4, 87
2, 1452, Control_c, 9, 4, 106
2, 1460, Note_on_c, 9, 36, 77
2, 1467, Control_c, 9, 17, 43
2, 1468, Note_on_c, 9, 51, 75
2, 1473, Note_on_c, 9, 38, 88
2, 1542, Note_on_c, 9, 36, 0
2, 1549, Note_on_c, 9, 51, 0
2, 1554, Note_on_c, 9, 38, 0
2, 1555, Control_c, 9, 4, 92
2, 1592, Control_c, 9, 4, 74
2, 1633, Control_c, 9, 4, 0
2, 1704, Control_c, 9, 4, 35
2, 1709, Note_on_c, 9, 44, 127
2, 1714, Control_c, 9, 17, 59
2, 1714, Note_on_c, 9, 51, 70
2, 1735, Control_c, 9, 4, 127
2, 1780, Control_c, 9, 4, 100
2, 1791, Note_on_c, 9, 44, 0
2, 1797, Note_on_c, 9, 51, 0
2, 1824, Control_c, 9, 4, 87
2, 1828, Note_on_c, 9, 48, 43
2, 1834, Note_on_c, 9, 36, 58
2, 1908, Note_on_c, 9, 48, 0
2, 1917, Note_on_c, 9, 36, 0
2, 1947, Control_c, 9, 4, 120
2, 1950, Control_c, 9, 18, 0
2, 1951, Note_on_c, 9, 48, 70
2, 1956, Control_c, 9, 17, 127
2, 1956, Note_on_c, 9, 51, 65
2, 2005, Control_c, 9, 4, 114
2, 2032, Note_on_c, 9, 48, 0
2, 2037, Note_on_c, 9, 51, 0
2, 2048, Control_c, 9, 4, 90
2, 2069, Control_c, 9, 17, 61
2, 2069, Note_on_c, 9, 51, 74
2, 2079, Control_c, 9, 4, 72
2, 2116, Control_c, 9, 4, 0
2, 2152, Note_on_c, 9, 51, 0
2, 2181, Note_on_c, 9, 46, 11
2, 2191, Note_on_c, 9, 36, 61
2, 2193, Note_on_c, 9, 44, 127
2, 2199, Control_c, 9, 4, 127
2, 2243, Control_c, 9, 4, 118
2, 2262, Note_on_c, 9, 46, 0
2, 2273, Note_on_c, 9, 36, 0
2, 2275, Note_on_c, 9, 44, 0
2, 2281, Control_c, 9, 4, 91
2, 2427, Control_c, 9, 4, 104
2, 2434, Note_on_c, 9, 36, 67
2, 2440, Control_c, 9, 17, 11
2, 2440, Note_on_c, 9, 51, 89
2, 2452, Control_c, 9, 16, 0
2, 2453, Note_on_c, 9, 38, 65
2, 2516, Note_on_c, 9, 36, 0
2, 2517, Control_c, 9, 4, 91
2, 2521, Note_on_c, 9, 51, 0
2, 2533, Note_on_c, 9, 38, 0
2, 2555, Control_c, 9, 4, 74
2, 2594, Control_c, 9, 4, 0
2, 2661, Note_on_c, 9, 46, 8
2, 2669, Control_c, 9, 4, 32
2, 2675, Note_on_c, 9, 44, 127
2, 2685, Control_c, 9, 17, 41
2, 2685, Note_on_c, 9, 51, 80
2, 2701, Control_c, 9, 4, 122
2, 2743, Note_on_c, 9, 46, 0
2, 2756, Note_on_c, 9, 44, 0
2, 2762, Control_c, 9, 4, 91
2, 2768, Note_on_c, 9, 51, 0
2, 2792, Control_c, 9, 4, 85
2, 2799, Note_on_c, 9, 38, 45
2, 2805, Note_on_c, 9, 36, 51
2, 2881, Note_on_c, 9, 38, 0
2, 2887, Note_on_c, 9, 36, 0
2, 2919, Control_c, 9, 4, 118
2, 2919, Control_c, 9, 17, 0
2, 2920, Note_on_c, 9, 51, 62
2, 2924, Control_c, 9, 16, 0
2, 2924, Note_on_c, 9, 38, 56
2, 3002, Note_on_c, 9, 51, 0
2, 3005, Note_on_c, 9, 38, 0
2, 3010, Control_c, 9, 4, 91
2, 3041, Control_c, 9, 17, 124
2, 3042, Note_on_c, 9, 51, 76
2, 3046, Control_c, 9, 4, 72
2, 3081, Control_c, 9, 4, 0
2, 3123, Note_on_c, 9, 51, 0
2, 3145, Note_on_c, 9, 36, 76
2, 3147, Note_on_c, 9, 46, 15
2, 3151, Control_c, 9, 4, 18
2, 3154, Control_c, 9, 17, 124
2, 3155, Note_on_c, 9, 51, 7
2, 3158, Note_on_c, 9, 44, 127
2, 3182, Control_c, 9, 4, 127
2, 3213, Control_c, 9, 4, 118
2, 3227, Note_on_c, 9, 36, 0
2, 3227, Note_on_c, 9, 46, 0
2, 3237, Note_on_c, 9, 51, 0
2, 3238, Note_on_c, 9, 44, 0
2, 3251, Control_c, 9, 4, 90
2, 3376, Control_c, 9, 4, 112
2, 3393, Control_c, 9, 17, 20
2, 3394, Note_on_c, 9, 51, 100
2, 3399, Note_on_c, 9, 48, 74
2, 3404, Note_on_c, 9, 36, 81
2, 3468, Control_c, 9, 4, 94
2, 3476, Note_on_c, 9, 51, 0
2, 3480, Note_on_c, 9, 48, 0
2, 3486, Note_on_c, 9, 36, 0
2, 3518, Control_c, 9, 4, 71
2, 3554, Control_c, 9, 4, 0
2, 3620, Note_on_c, 9, 46, 13
2, 3628, Control_c, 9, 4, 33
2, 3633, Note_on_c, 9, 44, 127
2, 3634, Control_c, 9, 17, 127
2, 3634, Note_on_c, 9, 51, 79
2, 3659, Control_c, 9, 4, 122
2, 3699, Control_c, 9, 4, 112
2, 3702, Note_on_c, 9, 46, 0
2, 3715, Note_on_c, 9, 44, 0
2, 3716, Note_on_c, 9, 51, 0
2, 3730, Control_c, 9, 4, 91
2, 3756, Note_on_c, 9, 36, 79
2, 3759, Control_c, 9, 18, 0
2, 3759, Note_on_c, 9, 45, 42
2, 3764, Control_c, 9, 4, 87
2, 3836, Note_on_c, 9, 36, 0
2, 3840, Note_on_c, 9, 45, 0
2, 3873, Control_c, 9, 4, 120
2, 3876, Note_on_c, 9, 45, 55
2, 3928, Control_c, 9, 4, 102
2, 3957, Control_c, 9, 4, 89
2, 3957, Note_on_c, 9, 45, 0
2, 3989, Control_c, 9, 4, 73
2, 3995, Control_c, 9, 18, 0
2, 3995, Note_on_c, 9, 45, 62
2, 4031, Control_c, 9, 4, 0
2, 4076, Note_on_c, 9, 45, 0
2, 4102, Control_c, 9, 4, 33
2, 4107, Note_on_c, 9, 44, 127
2, 4124, Note_on_c, 9, 45, 76
2, 4133, Control_c, 9, 4, 127
2, 4189, Note_on_c, 9, 44, 0
2, 4193, Control_c, 9, 4, 91
2, 4205, Note_on_c, 9, 45, 0
2, 4351, Control_c, 9, 4, 102
2, 4369, Note_on_c, 9, 36, 64
2, 4369, Note_on_c, 9, 38, 57
2, 4373, Control_c, 9, 17, 0
2, 4374, Note_on_c, 9, 51, 119
2, 4438, Control_c, 9, 4, 90
2, 4450, Note_on_c, 9, 38, 0
2, 4452, Note_on_c, 9, 36, 0
2, 4454, Note_on_c, 9, 51, 0
2, 4477, Control_c, 9, 4, 71
2, 4515, Control_c, 9, 4, 0
2, 4591, Note_on_c, 9, 44, 127
2, 4597, Control_c, 9, 4, 127
2, 4604, Control_c, 9, 17, 42
2, 4605, Note_on_c, 9, 51, 85
2, 4640, Control_c, 9, 4, 120
2, 4672, Note_on_c, 9, 44, 0
2, 4679, Control_c, 9, 4, 90
2, 4686, Note_on_c, 9, 51, 0
2, 4722, Control_c, 9, 18, 0
2, 4723, Note_on_c, 9, 48, 42
2, 4725, Note_on_c, 9, 36, 48
2, 4804, Note_on_c, 9, 48, 0
2, 4808, Note_on_c, 9, 36, 0
2, 4817, Control_c, 9, 4, 114
2, 4841, Control_c, 9, 17, 69
2, 4841, Note_on_c, 9, 51, 75
2, 4848, Note_on_c, 9, 48, 68
2, 4920, Control_c, 9, 4, 91
2, 4923, Note_on_c, 9, 51, 0
2, 4929, Note_on_c, 9, 48, 0
2, 4959, Control_c, 9, 4, 74
2, 4970, Control_c, 9, 17, 42
2, 4970, Note_on_c, 9, 51, 75
2, 4997, Control_c, 9, 4, 0
2, 5052, Note_on_c, 9, 51, 0
2, 5057, Control_c, 9, 4, 33
2, 5063, Note_on_c, 9, 36, 70
2, 5063, Note_on_c, 9, 44, 127
2, 5088, Control_c, 9, 4, 127
2, 5131, Control_c, 9, 4, 104
2, 5145, Note_on_c, 9, 36, 0
2, 5145, Note_on_c, 9, 44, 0
2, 5163, Control_c, 9, 4, 90
2, 5217, Control_c, 9, 17, 30
2, 5217, Note_on_c, 9, 51, 74
2, 5294, Control_c, 9, 4, 106
2, 5300, Note_on_c, 9, 51, 0
2, 5306, Note_on_c, 9, 36, 76
2, 5327, Control_c, 9, 16, 0
2, 5328, Note_on_c, 9, 38, 71
2, 5366, Control_c, 9, 4, 102
2, 5388, Note_on_c, 9, 36, 0
2, 5398, Control_c, 9, 4, 90
2, 5409, Note_on_c, 9, 38, 0
2, 5434, Control_c, 9, 4, 72
2, 5471, Control_c, 9, 4, 0
2, 5537, Note_on_c, 9, 46, 10
2, 5546, Control_c, 9, 4, 51
2, 5548, Control_c, 9, 17, 37
2, 5549, Note_on_c, 9, 51, 96
2, 5551, Note_on_c, 9, 44, 127
2, 5576, Control_c, 9, 4, 120
2, 5617, Note_on_c, 9, 46, 0
2, 5629, Note_on_c, 9, 51, 0
2, 5631, Note_on_c, 9, 44, 0
2, 5642, Control_c, 9, 4, 91
2, 5672, Control_c, 9, 18, 0
2, 5673, Note_on_c, 9, 50, 60
2, 5675, Control_c, 9, 4, 87
2, 5676, Note_on_c, 9, 36, 45
2, 5754, Note_on_c, 9, 50, 0
2, 5759, Note_on_c, 9, 36, 0
2, 5790, Control_c, 9, 4, 118
2, 5792, Control_c, 9, 17, 70
2, 5793, Note_on_c, 9, 51, 71
2, 5797, Note_on_c, 9, 48, 63
2, 5857, Control_c, 9, 4, 99
2, 5875, Note_on_c, 9, 51, 0
2, 5878, Note_on_c, 9, 48, 0
2, 5896, Control_c, 9, 4, 85
2, 5915, Control_c, 9, 17, 46
2, 5916, Note_on_c, 9, 51, 67
2, 5928, Control_c, 9, 4, 69
2, 5958, Control_c, 9, 4, 0
2, 5997, Note_on_c, 9, 51, 0
2, 6017, Note_on_c, 9, 36, 65
2, 6022, Note_on_c, 9, 44, 127
2, 6028, Control_c, 9, 4, 127
2, 6072, Control_c, 9, 4, 120
2, 6098, Note_on_c, 9, 36, 0
2, 6103, Note_on_c, 9, 44, 0
2, 6109, Control_c, 9, 4, 91
2, 6253, Control_c, 9, 4, 110
2, 6262, Note_on_c, 9, 36, 59
2, 6265, Note_on_c, 9, 38, 87
2, 6268, Control_c, 9, 17, 10
2, 6268, Note_on_c, 9, 51, 94
2, 6337, Control_c, 9, 4, 90
2, 6345, Note_on_c, 9, 36, 0
2, 6346, Note_on_c, 9, 38, 0
2, 6350, Note_on_c, 9, 51, 0
2, 6376, Control_c, 9, 4, 73
2, 6418, Control_c, 9, 4, 0
2, 6488, Control_c, 9, 4, 34
2, 6494, Note_on_c, 9, 44, 127
2, 6506, Control_c, 9, 17, 48
2, 6507, Note_on_c, 9, 51, 75
2, 6519, Control_c, 9, 4, 124
2, 6563, Control_c, 9, 4, 106
2, 6576, Note_on_c, 9, 44, 0
2, 6588, Note_on_c, 9, 51, 0
2, 6594, Control_c, 9, 4, 90
2, 6624, Control_c, 9, 18, 0
2, 6625, Note_on_c, 9, 48, 45
2, 6635, Note_on_c, 9, 36, 46
2, 6706, Note_on_c, 9, 48, 0
2, 6717, Note_on_c, 9, 36, 0
2, 6742, Control_c, 9, 17, 52
2, 6742, Note_on_c, 9, 51, 72
2, 6744, Control_c, 9, 4, 126
2, 6749, Note_on_c, 9, 48, 69
2, 6805, Control_c, 9, 4, 97
2, 6824, Note_on_c, 9, 51, 0
2, 6830, Note_on_c, 9, 48, 0
2, 6845, Control_c, 9, 4, 70
2, 6868, Control_c, 9, 17, 25
2, 6869, Note_on_c, 9, 51, 61
2, 6880, Control_c, 9, 4, 0
2, 6921, Control_c, 9, 4, 0
2, 6921, Note_on_c, 9, 46, 24
2, 6949, Note_on_c, 9, 51, 0
2, 6968, Control_c, 9, 4, 35
2, 6974, Note_on_c, 9, 44, 127
2, 6984, Note_on_c, 9, 36, 72
2, 6999, Control_c, 9, 4, 127
2, 7002, Note_on_c, 9, 46, 0
2, 7048, Control_c, 9, 4, 100
2, 7056, Note_on_c, 9, 44, 0
2, 7065, Note_on_c, 9, 36, 0
2, 7088, Control_c, 9, 17, 7
2, 7089, Control_c, 9, 4, 70
2, 7089, Note_on_c, 9, 51, 89
2, 7119, Control_c, 9, 4, 0
2, 7170, Note_on_c, 9, 51, 0
2, 7197, Note_on_c, 9, 46, 13
2, 7206, Control_c, 9, 4, 35
2, 7212, Note_on_c, 9, 44, 119
2, 7222, Note_on_c, 9, 36, 82
2, 7225, Control_c, 9, 16, 0
2, 7225, Note_on_c, 9, 38, 62
2, 7238, Control_c, 9, 4, 116
2, 7278, Note_on_c, 9, 46, 0
2, 7292, Control_c, 9, 4, 91
2, 7294, Note_on_c, 9, 44, 0
2, 7304, Note_on_c, 9, 36, 0
2, 7306, Note_on_c, 9, 38, 0
2, 7334, Control_c, 9, 4, 78
2, 7434, Control_c, 9, 4, 89
2, 7443, Control_c, 9, 17, 5
2, 7444, Note_on_c, 9, 51, 95
2, 7466, Control_c, 9, 4, 127
2, 7514, Control_c, 9, 4, 98
2, 7526, Note_on_c, 9, 51, 0
2, 7556, Control_c, 9, 4, 71
2, 7566, Note_on_c, 9, 36, 55
2, 7567, Control_c, 9, 18, 0
2, 7568, Note_on_c, 9, 48, 48
2, 7592, Control_c, 9, 4, 0
2, 7648, Note_on_c, 9, 36, 0
2, 7648, Note_on_c, 9, 48, 0
2, 7677, Control_c, 9, 4, 32
2, 7678, End_track
0, 0, End_of_file
