0, 0, Header, 1, 2, 480
1, 0, Start_track
1, 0, Tempo, 705882
1, 0, Time_signature, 4, 2, 24, 8
1, 0, Time_signature, 4, 2, 24, 8
1, 0, Key_signature, 0, "major"
1, 1, End_track
2, 0, Start_track
2, 0, Title_t, "SoCal"
2, 0, Program_c, 9, 0
2, 0, Control_c, 9, 16, 0
2, 4, Control_c, 9, 4, 32
2, 16, Note_on_c, 9, 44, 54
2, 28, Control_c, 9, 16, 0
2, 28, Note_on_c, 9, 38, 39
2, 29, Note_on_c, 9, 36, 43
2, 37, Control_c, 9, 4, 92
2, 81, Control_c, 9, 4, 98
2, 84, Note_on_c, 9, 44, 0
2, 96, Note_on_c, 9, 38, 0
2, 98, Note_on_c, 9, 36, 0
2, 139, Control_c, 9, 4, 87
2, 139, Control_c, 9, 16, 0
2, 140, Note_on_c, 9, 40, 16
2, 175, Control_c, 9, 4, 69
2, 207, Note_on_c, 9, 40, 0
2, 208, Control_c, 9, 4, 27
2, 243, Control_c, 9, 4, 30
2, 261, Note_on_c, 9, 44, 41
2, 263, Control_c, 9, 16, 0
2, 263, Note_on_c, 9, 38, 53
2, 275, Control_c, 9, 4, 104
2, 307, Control_c, 9, 4, 98
2, 329, Note_on_c, 9, 44, 0
2, 331, Note_on_c, 9, 38, 0
2, 375, Control_c, 9, 4, 87
2, 391, Control_c, 9, 16, 0
2, 391, Note_on_c, 9, 38, 25
2, 416, Control_c, 9, 4, 74
2, 452, Control_c, 9, 4, 45
2, 460, Note_on_c, 9, 38, 0
2, 494, Note_on_c, 9, 44, 28
2, 507, Control_c, 9, 16, 0
2, 507, Note_on_c, 9, 38, 36
2, 511, Control_c, 9, 4, 99
2, 513, Note_on_c, 9, 36, 44
2, 543, Control_c, 9, 4, 92
2, 562, Note_on_c, 9, 44, 0
2, 575, Note_on_c, 9, 38, 0
2, 581, Note_on_c, 9, 36, 0
2, 613, Control_c, 9, 4, 87
2, 623, Control_c, 9, 16, 0
2, 623, Note_on_c, 9, 36, 42
2, 623, Note_on_c, 9, 38, 25
2, 649, Control_c, 9, 4, 69
2, 650, Note_on_c, 9, 46, 6
2, 687, Control_c, 9, 4, 10
2, 691, Note_on_c, 9, 38, 0
2, 692, Note_on_c, 9, 36, 0
2, 718, Note_on_c, 9, 46, 0
2, 720, Control_c, 9, 4, 13
2, 741, Note_on_c, 9, 44, 61
2, 742, Control_c, 9, 16, 0
2, 743, Note_on_c, 9, 38, 49
2, 753, Control_c, 9, 4, 104
2, 783, Control_c, 9, 4, 95
2, 809, Note_on_c, 9, 44, 0
2, 810, Note_on_c, 9, 38, 0
2, 859, Control_c, 9, 4, 89
2, 866, Control_c, 9, 16, 0
2, 867, Note_on_c, 9, 38, 45
2, 892, Control_c, 9, 4, 82
2, 934, Control_c, 9, 4, 57
2, 934, Note_on_c, 9, 38, 0
2, 966, Control_c, 9, 4, 62
2, 980, Note_on_c, 9, 44, 22
2, 986, Control_c, 9, 16, 0
2, 986, Note_on_c, 9, 38, 35
2, 989, Note_on_c, 9, 36, 54
2, 1001, Control_c, 9, 4, 98
2, 1048, Note_on_c, 9, 44, 0
2, 1054, Note_on_c, 9, 38, 0
2, 1057, Note_on_c, 9, 36, 0
2, 1065, Control_c, 9, 4, 93
2, 1103, Control_c, 9, 16, 0
2, 1103, Note_on_c, 9, 38, 27
2, 1116, Control_c, 9, 4, 82
2, 1154, Control_c, 9, 4, 52
2, 1172, Note_on_c, 9, 38, 0
2, 1187, Control_c, 9, 4, 26
2, 1219, Note_on_c, 9, 44, 48
2, 1223, Control_c, 9, 4, 94
2, 1228, Control_c, 9, 16, 0
2, 1228, Note_on_c, 9, 38, 57
2, 1260, Control_c, 9, 4, 95
2, 1287, Note_on_c, 9, 44, 0
2, 1295, Note_on_c, 9, 38, 0
2, 1333, Control_c, 9, 4, 89
2, 1357, Control_c, 9, 16, 0
2, 1357, Note_on_c, 9, 38, 28
2, 1381, Control_c, 9, 4, 76
2, 1419, Control_c, 9, 4, 45
2, 1425, Note_on_c, 9, 38, 0
2, 1449, Control_c, 9, 4, 51
2, 1461, Note_on_c, 9, 44, 28
2, 1467, Control_c, 9, 16, 0
2, 1467, Note_on_c, 9, 38, 39
2, 1476, Note_on_c, 9, 36, 42
2, 1483, Control_c, 9, 4, 98
2, 1529, Note_on_c, 9, 44, 0
2, 1535, Note_on_c, 9, 38, 0
2, 1544, Note_on_c, 9, 36, 0
2, 1561, Control_c, 9, 4, 92
2, 1585, Control_c, 9, 16, 0
2, 1585, Note_on_c, 9, 36, 37
2, 1585, Note_on_c, 9, 38, 25
2, 1605, Control_c, 9, 4, 79
2, 1610, Note_on_c, 9, 46, 7
2, 1639, Control_c, 9, 4, 0
2, 1653, Note_on_c, 9, 36, 0
2, 1653, Note_on_c, 9, 38, 0
2, 1678, Note_on_c, 9, 46, 0
2, 1695, Note_on_c, 9, 44, 74
2, 1706, Control_c, 9, 4, 106
2, 1710, Control_c, 9, 16, 0
2, 1710, Note_on_c, 9, 38, 51
2, 1737, Control_c, 9, 4, 92
2, 1763, Note_on_c, 9, 44, 0
2, 1778, Note_on_c, 9, 38, 0
2, 1829, Control_c, 9, 4, 78
2, 1829, Control_c, 9, 16, 0
2, 1829, Note_on_c, 9, 46, 7
2, 1831, Note_on_c, 9, 38, 44
2, 1867, Control_c, 9, 4, 0
2, 1897, Note_on_c, 9, 38, 0
2, 1897, Note_on_c, 9, 46, 0
2, 1922, Control_c, 9, 4, 32
2, 1934, Note_on_c, 9, 44, 54
2, 1937, Note_on_c, 9, 36, 54
2, 1946, Control_c, 9, 16, 0
2, 1946, Note_on_c, 9, 38, 41
2, 1955, Control_c, 9, 4, 76
2, 1994, Control_c, 9, 4, 0
2, 2002, Note_on_c, 9, 44, 0
2, 2005, Note_on_c, 9, 36, 0
2, 2014, Note_on_c, 9, 38, 0
2, 2073, Control_c, 9, 16, 21
2, 2073, Note_on_c, 9, 38, 27
2, 2141, Note_on_c, 9, 38, 0
2, 2152, Control_c, 9, 4, 32
2, 2165, Note_on_c, 9, 44, 54
2, 2184, Control_c, 9, 16, 0
2, 2184, Note_on_c, 9, 38, 54
2, 2186, Control_c, 9, 4, 91
2, 2233, Note_on_c, 9, 44, 0
2, 2237, Control_c, 9, 4, 100
2, 2253, Note_on_c, 9, 38, 0
2, 2275, Control_c, 9, 4, 89
2, 2308, Control_c, 9, 16, 0
2, 2309, Note_on_c, 9, 38, 29
2, 2319, Control_c, 9, 4, 67
2, 2355, Control_c, 9, 4, 11
2, 2376, Note_on_c, 9, 38, 0
2, 2393, Control_c, 9, 4, 43
2, 2402, Note_on_c, 9, 44, 54
2, 2419, Control_c, 9, 16, 0
2, 2419, Note_on_c, 9, 38, 40
2, 2423, Control_c, 9, 4, 102
2, 2429, Note_on_c, 9, 36, 44
2, 2470, Note_on_c, 9, 44, 0
2, 2476, Control_c, 9, 4, 97
2, 2487, Note_on_c, 9, 38, 0
2, 2497, Note_on_c, 9, 36, 0
2, 2521, Control_c, 9, 4, 87
2, 2533, Control_c, 9, 16, 0
2, 2533, Note_on_c, 9, 38, 25
2, 2540, Note_on_c, 9, 36, 39
2, 2561, Control_c, 9, 4, 74
2, 2595, Control_c, 9, 4, 48
2, 2601, Note_on_c, 9, 38, 0
2, 2608, Note_on_c, 9, 36, 0
2, 2644, Note_on_c, 9, 44, 22
2, 2658, Control_c, 9, 16, 0
2, 2659, Note_on_c, 9, 38, 49
2, 2666, Control_c, 9, 4, 95
2, 2712, Note_on_c, 9, 44, 0
2, 2726, Note_on_c, 9, 38, 0
2, 2774, Control_c, 9, 16, 0
2, 2774, Note_on_c, 9, 38, 44
2, 2778, Control_c, 9, 4, 89
2, 2824, Control_c, 9, 4, 75
2, 2843, Note_on_c, 9, 38, 0
2, 2860, Control_c, 9, 4, 47
2, 2897, Control_c, 9, 16, 0
2, 2897, Note_on_c, 9, 38, 37
2, 2897, Note_on_c, 9, 44, 28
2, 2903, Control_c, 9, 4, 94
2, 2911, Note_on_c, 9, 36, 57
2, 2939, Control_c, 9, 4, 93
2, 2964, Note_on_c, 9, 44, 0
2, 2965, Note_on_c, 9, 38, 0
2, 2979, Note_on_c, 9, 36, 0
2, 3014, Control_c, 9, 16, 0
2, 3014, Note_on_c, 9, 38, 25
2, 3016, Control_c, 9, 4, 88
2, 3058, Control_c, 9, 4, 74
2, 3082, Note_on_c, 9, 38, 0
2, 3090, Control_c, 9, 4, 45
2, 3131, Note_on_c, 9, 44, 35
2, 3136, Control_c, 9, 16, 0
2, 3137, Note_on_c, 9, 38, 57
2, 3139, Control_c, 9, 4, 95
2, 3175, Control_c, 9, 4, 95
2, 3199, Note_on_c, 9, 44, 0
2, 3204, Note_on_c, 9, 38, 0
2, 3248, Control_c, 9, 4, 89
2, 3262, Control_c, 9, 16, 0
2, 3262, Note_on_c, 9, 38, 26
2, 3298, Control_c, 9, 4, 67
2, 3328, Control_c, 9, 4, 30
2, 3330, Note_on_c, 9, 38, 0
2, 3359, Control_c, 9, 4, 46
2, 3370, Note_on_c, 9, 44, 35
2, 3371, Control_c, 9, 16, 0
2, 3371, Note_on_c, 9, 38, 37
2, 3385, Note_on_c, 9, 36, 42
2, 3391, Control_c, 9, 4, 98
2, 3437, Note_on_c, 9, 38, 0
2, 3437, Note_on_c, 9, 44, 0
2, 3454, Note_on_c, 9, 36, 0
2, 3475, Control_c, 9, 4, 92
2, 3491, Control_c, 9, 16, 0
2, 3492, Note_on_c, 9, 38, 28
2, 3494, Note_on_c, 9, 36, 42
2, 3522, Control_c, 9, 4, 68
2, 3556, Control_c, 9, 4, 8
2, 3560, Note_on_c, 9, 38, 0
2, 3563, Note_on_c, 9, 36, 0
2, 3593, Control_c, 9, 4, 29
2, 3605, Note_on_c, 9, 44, 54
2, 3612, Control_c, 9, 16, 0
2, 3612, Note_on_c, 9, 38, 50
2, 3626, Control_c, 9, 4, 104
2, 3673, Note_on_c, 9, 44, 0
2, 3681, Note_on_c, 9, 38, 0
2, 3703, Control_c, 9, 4, 92
2, 3733, Control_c, 9, 16, 0
2, 3733, Note_on_c, 9, 38, 41
2, 3744, Control_c, 9, 4, 79
2, 3748, Note_on_c, 9, 46, 9
2, 3776, Control_c, 9, 4, 0
2, 3801, Note_on_c, 9, 38, 0
2, 3816, Note_on_c, 9, 46, 0
2, 3839, Control_c, 9, 4, 76
2, 3840, Note_on_c, 9, 44, 80
2, 3848, Control_c, 9, 16, 0
2, 3848, Note_on_c, 9, 38, 40
2, 3850, Note_on_c, 9, 36, 57
2, 3874, Control_c, 9, 4, 51
2, 3907, Control_c, 9, 4, 0
2, 3908, Note_on_c, 9, 44, 0
2, 3916, Note_on_c, 9, 38, 0
2, 3919, Note_on_c, 9, 36, 0
2, 3982, Control_c, 9, 16, 21
2, 3982, Note_on_c, 9, 38, 26
2, 4051, Note_on_c, 9, 38, 0
2, 4079, Note_on_c, 9, 44, 54
2, 4086, Control_c, 9, 4, 90
2, 4096, Control_c, 9, 16, 0
2, 4097, Note_on_c, 9, 38, 54
2, 4130, Control_c, 9, 4, 95
2, 4147, Note_on_c, 9, 44, 0
2, 4164, Note_on_c, 9, 38, 0
2, 4209, Control_c, 9, 4, 82
2, 4217, Control_c, 9, 16, 0
2, 4217, Note_on_c, 9, 40, 20
2, 4230, Note_on_c, 9, 46, 7
2, 4239, Control_c, 9, 4, 67
2, 4271, Control_c, 9, 4, 30
2, 4285, Note_on_c, 9, 40, 0
2, 4298, Note_on_c, 9, 46, 0
2, 4304, Control_c, 9, 4, 44
2, 4318, Note_on_c, 9, 44, 35
2, 4329, Control_c, 9, 16, 0
2, 4330, Note_on_c, 9, 38, 44
2, 4339, Control_c, 9, 4, 95
2, 4347, Note_on_c, 9, 36, 48
2, 4387, Note_on_c, 9, 44, 0
2, 4397, Note_on_c, 9, 38, 0
2, 4415, Note_on_c, 9, 36, 0
2, 4432, Control_c, 9, 4, 89
2, 4443, Control_c, 9, 16, 0
2, 4443, Note_on_c, 9, 38, 27
2, 4471, Note_on_c, 9, 36, 39
2, 4485, Control_c, 9, 4, 67
2, 4511, Note_on_c, 9, 38, 0
2, 4516, Control_c, 9, 4, 30
2, 4539, Note_on_c, 9, 36, 0
2, 4550, Control_c, 9, 4, 45
2, 4562, Note_on_c, 9, 44, 35
2, 4573, Control_c, 9, 16, 0
2, 4573, Note_on_c, 9, 38, 46
2, 4583, Control_c, 9, 4, 98
2, 4630, Note_on_c, 9, 44, 0
2, 4642, Note_on_c, 9, 38, 0
2, 4672, Control_c, 9, 4, 93
2, 4691, Control_c, 9, 16, 0
2, 4692, Note_on_c, 9, 38, 42
2, 4716, Control_c, 9, 4, 81
2, 4754, Control_c, 9, 4, 56
2, 4760, Note_on_c, 9, 38, 0
2, 4793, Control_c, 9, 4, 65
2, 4802, Note_on_c, 9, 44, 22
2, 4817, Control_c, 9, 16, 0
2, 4817, Note_on_c, 9, 38, 40
2, 4821, Note_on_c, 9, 36, 48
2, 4823, Control_c, 9, 4, 98
2, 4866, Control_c, 9, 4, 94
2, 4870, Note_on_c, 9, 44, 0
2, 4885, Note_on_c, 9, 38, 0
2, 4889, Note_on_c, 9, 36, 0
2, 4908, Control_c, 9, 4, 89
2, 4934, Control_c, 9, 16, 0
2, 4934, Note_on_c, 9, 38, 29
2, 4960, Control_c, 9, 4, 67
2, 4995, Control_c, 9, 4, 17
2, 5002, Note_on_c, 9, 38, 0
2, 5029, Control_c, 9, 4, 46
2, 5038, Note_on_c, 9, 44, 41
2, 5050, Control_c, 9, 16, 0
2, 5051, Note_on_c, 9, 38, 52
2, 5059, Control_c, 9, 4, 98
2, 5106, Note_on_c, 9, 44, 0
2, 5119, Note_on_c, 9, 38, 0
2, 5159, Control_c, 9, 4, 87
2, 5173, Control_c, 9, 16, 0
2, 5174, Note_on_c, 9, 38, 27
2, 5193, Control_c, 9, 4, 70
2, 5228, Control_c, 9, 4, 30
2, 5242, Note_on_c, 9, 38, 0
2, 5263, Control_c, 9, 4, 44
2, 5276, Note_on_c, 9, 44, 35
2, 5287, Control_c, 9, 16, 64
2, 5287, Note_on_c, 9, 38, 43
2, 5297, Control_c, 9, 4, 99
2, 5303, Note_on_c, 9, 36, 43
2, 5341, Control_c, 9, 4, 95
2, 5344, Note_on_c, 9, 44, 0
2, 5355, Note_on_c, 9, 38, 0
2, 5372, Note_on_c, 9, 36, 0
2, 5405, Control_c, 9, 4, 82
2, 5408, Control_c, 9, 16, 0
2, 5408, Note_on_c, 9, 38, 27
2, 5414, Note_on_c, 9, 46, 7
2, 5416, Note_on_c, 9, 36, 38
2, 5435, Control_c, 9, 4, 53
2, 5465, Control_c, 9, 4, 0
2, 5475, Note_on_c, 9, 38, 0
2, 5482, Note_on_c, 9, 46, 0
2, 5484, Note_on_c, 9, 36, 0
2, 5509, Control_c, 9, 4, 44
2, 5518, Note_on_c, 9, 44, 54
2, 5528, Control_c, 9, 16, 0
2, 5528, Note_on_c, 9, 38, 46
2, 5539, Control_c, 9, 4, 95
2, 5586, Note_on_c, 9, 44, 0
2, 5597, Note_on_c, 9, 38, 0
2, 5635, Control_c, 9, 4, 89
2, 5649, Control_c, 9, 16, 0
2, 5650, Note_on_c, 9, 38, 41
2, 5679, Control_c, 9, 4, 74
2, 5712, Control_c, 9, 4, 45
2, 5718, Note_on_c, 9, 38, 0
2, 5743, Control_c, 9, 4, 55
2, 5755, Note_on_c, 9, 44, 22
2, 5767, Control_c, 9, 16, 21
2, 5767, Note_on_c, 9, 38, 37
2, 5776, Control_c, 9, 4, 98
2, 5776, Note_on_c, 9, 36, 52
2, 5823, Note_on_c, 9, 44, 0
2, 5824, Control_c, 9, 4, 94
2, 5835, Note_on_c, 9, 38, 0
2, 5845, Note_on_c, 9, 36, 0
2, 5875, Control_c, 9, 4, 89
2, 5889, Control_c, 9, 16, 0
2, 5890, Note_on_c, 9, 38, 28
2, 5928, Control_c, 9, 4, 67
2, 5957, Note_on_c, 9, 38, 0
2, 5960, Control_c, 9, 4, 32
2, 5999, Note_on_c, 9, 44, 35
2, 6004, Control_c, 9, 4, 94
2, 6005, Control_c, 9, 16, 42
2, 6005, Note_on_c, 9, 38, 52
2, 6043, Control_c, 9, 4, 95
2, 6067, Note_on_c, 9, 44, 0
2, 6074, Note_on_c, 9, 38, 0
2, 6114, Control_c, 9, 4, 89
2, 6131, Control_c, 9, 16, 0
2, 6132, Note_on_c, 9, 38, 28
2, 6154, Control_c, 9, 4, 74
2, 6194, Control_c, 9, 4, 28
2, 6199, Note_on_c, 9, 38, 0
2, 6230, Control_c, 9, 4, 43
2, 6242, Note_on_c, 9, 44, 41
2, 6244, Control_c, 9, 16, 0
2, 6244, Note_on_c, 9, 38, 41
2, 6255, Note_on_c, 9, 36, 48
2, 6264, Control_c, 9, 4, 98
2, 6311, Note_on_c, 9, 44, 0
2, 6312, Note_on_c, 9, 38, 0
2, 6323, Note_on_c, 9, 36, 0
2, 6359, Control_c, 9, 4, 88
2, 6360, Control_c, 9, 16, 0
2, 6361, Note_on_c, 9, 38, 26
2, 6369, Note_on_c, 9, 36, 42
2, 6401, Control_c, 9, 4, 69
2, 6428, Note_on_c, 9, 38, 0
2, 6437, Note_on_c, 9, 36, 0
2, 6440, Control_c, 9, 4, 17
2, 6476, Control_c, 9, 4, 46
2, 6482, Control_c, 9, 16, 0
2, 6482, Note_on_c, 9, 38, 49
2, 6486, Note_on_c, 9, 44, 48
2, 6507, Control_c, 9, 4, 95
2, 6551, Note_on_c, 9, 38, 0
2, 6554, Note_on_c, 9, 44, 0
2, 6601, Control_c, 9, 16, 0
2, 6601, Note_on_c, 9, 38, 40
2, 6607, Control_c, 9, 4, 89
2, 6653, Control_c, 9, 4, 76
2, 6669, Note_on_c, 9, 38, 0
2, 6690, Control_c, 9, 4, 48
2, 6722, Note_on_c, 9, 44, 28
2, 6724, Control_c, 9, 16, 0
2, 6724, Note_on_c, 9, 38, 36
2, 6737, Note_on_c, 9, 36, 62
2, 6740, Control_c, 9, 4, 98
2, 6770, Control_c, 9, 4, 94
2, 6790, Note_on_c, 9, 38, 0
2, 6790, Note_on_c, 9, 44, 0
2, 6805, Note_on_c, 9, 36, 0
2, 6832, Control_c, 9, 4, 89
2, 6847, Control_c, 9, 16, 0
2, 6847, Note_on_c, 9, 38, 26
2, 6864, Control_c, 9, 4, 82
2, 6906, Control_c, 9, 4, 31
2, 6915, Note_on_c, 9, 38, 0
2, 6941, Control_c, 9, 4, 36
2, 6956, Control_c, 9, 16, 0
2, 6956, Note_on_c, 9, 38, 54
2, 6958, Note_on_c, 9, 44, 35
2, 6972, Control_c, 9, 4, 99
2, 7002, Control_c, 9, 4, 92
2, 7024, Note_on_c, 9, 38, 0
2, 7024, Note_on_c, 9, 44, 0
2, 7079, Control_c, 9, 16, 0
2, 7079, Note_on_c, 9, 38, 26
2, 7090, Control_c, 9, 4, 87
2, 7124, Control_c, 9, 4, 69
2, 7148, Note_on_c, 9, 38, 0
2, 7160, Control_c, 9, 4, 35
2, 7193, Control_c, 9, 16, 0
2, 7194, Note_on_c, 9, 38, 40
2, 7196, Note_on_c, 9, 44, 35
2, 7202, Control_c, 9, 4, 94
2, 7209, Note_on_c, 9, 36, 52
2, 7242, Control_c, 9, 4, 94
2, 7262, Note_on_c, 9, 38, 0
2, 7262, Note_on_c, 9, 44, 0
2, 7277, Note_on_c, 9, 36, 0
2, 7315, Control_c, 9, 4, 89
2, 7317, Note_on_c, 9, 36, 42
2, 7319, Control_c, 9, 16, 0
2, 7319, Note_on_c, 9, 38, 24
2, 7367, Control_c, 9, 4, 67
2, 7385, Note_on_c, 9, 36, 0
2, 7387, Note_on_c, 9, 38, 0
2, 7404, Control_c, 9, 4, 17
2, 7442, Control_c, 9, 16, 0
2, 7442, Note_on_c, 9, 38, 44
2, 7447, Note_on_c, 9, 44, 41
2, 7460, Control_c, 9, 4, 104
2, 7492, Control_c, 9, 4, 93
2, 7510, Note_on_c, 9, 38, 0
2, 7515, Note_on_c, 9, 44, 0
2, 7562, Note_on_c, 9, 36, 38
2, 7573, Control_c, 9, 16, 0
2, 7573, Note_on_c, 9, 38, 38
2, 7582, Control_c, 9, 4, 88
2, 7627, Control_c, 9, 4, 67
2, 7630, Note_on_c, 9, 36, 0
2, 7641, Note_on_c, 9, 38, 0
2, 7657, Control_c, 9, 4, 31
2, 7658, End_track
0, 0, End_of_file
