0, 0, Header, 1, 2, 480
1, 0, Start_track
1, 0, Tempo, 705882
1, 0, Time_signature, 4, 2, 24, 8
1, 0, Time_signature, 4, 2, 24, 8
1, 0, Key_signature, 0, "major"
1, 1, End_track
2, 0, Start_track
2, 0, Title_t, "SoCal"
2, 0, Program_c, 9, 0
2, 0, Control_c, 9, 16, 0
2, 9, Note_on_c, 9, 36, 52
2, 18, Control_c, 9, 4, 94
2, 77, Note_on_c, 9, 36, 0
2, 109, Control_c, 9, 4, 83
2, 116, Control_c, 9, 16, 0
2, 116, Note_on_c, 9, 38, 31
2, 159, Control_c, 9, 4, 52
2, 184, Note_on_c, 9, 38, 0
2, 190, Control_c, 9, 4, 22
2, 221, Control_c, 9, 4, 50
2, 230, Note_on_c, 9, 44, 41
2, 239, Control_c, 9, 16, 0
2, 240, Note_on_c, 9, 38, 48
2, 251, Control_c, 9, 4, 92
2, 298, Note_on_c, 9, 44, 0
2, 307, Note_on_c, 9, 38, 0
2, 353, Control_c, 9, 16, 0
2, 354, Note_on_c, 9, 38, 28
2, 358, Control_c, 9, 4, 83
2, 375, Note_on_c, 9, 46, 10
2, 388, Control_c, 9, 4, 68
2, 422, Control_c, 9, 4, 30
2, 422, Note_on_c, 9, 38, 0
2, 443, Note_on_c, 9, 46, 0
2, 456, Control_c, 9, 4, 45
2, 468, Note_on_c, 9, 44, 41
2, 474, Control_c, 9, 16, 0
2, 474, Note_on_c, 9, 38, 37
2, 479, Note_on_c, 9, 36, 43
2, 489, Control_c, 9, 4, 94
2, 536, Note_on_c, 9, 44, 0
2, 542, Note_on_c, 9, 38, 0
2, 547, Note_on_c, 9, 36, 0
2, 558, Control_c, 9, 4, 89
2, 590, Control_c, 9, 4, 84
2, 590, Note_on_c, 9, 36, 37
2, 595, Control_c, 9, 16, 0
2, 595, Note_on_c, 9, 38, 22
2, 617, Note_on_c, 9, 46, 8
2, 625, Control_c, 9, 4, 67
2, 658, Control_c, 9, 4, 9
2, 658, Note_on_c, 9, 36, 0
2, 663, Note_on_c, 9, 38, 0
2, 685, Note_on_c, 9, 46, 0
2, 699, Control_c, 9, 4, 35
2, 710, Note_on_c, 9, 44, 48
2, 718, Control_c, 9, 16, 106
2, 719, Note_on_c, 9, 38, 47
2, 732, Control_c, 9, 4, 92
2, 778, Note_on_c, 9, 44, 0
2, 786, Note_on_c, 9, 38, 0
2, 819, Control_c, 9, 4, 87
2, 838, Control_c, 9, 16, 0
2, 838, Note_on_c, 9, 38, 47
2, 870, Control_c, 9, 4, 67
2, 905, Control_c, 9, 4, 32
2, 906, Note_on_c, 9, 38, 0
2, 938, Control_c, 9, 4, 46
2, 950, Note_on_c, 9, 44, 35
2, 957, Control_c, 9, 16, 21
2, 957, Note_on_c, 9, 38, 33
2, 966, Note_on_c, 9, 36, 49
2, 971, Control_c, 9, 4, 95
2, 1018, Note_on_c, 9, 44, 0
2, 1026, Note_on_c, 9, 38, 0
2, 1034, Note_on_c, 9, 36, 0
2, 1038, Control_c, 9, 4, 90
2, 1076, Control_c, 9, 4, 85
2, 1080, Control_c, 9, 16, 0
2, 1080, Note_on_c, 9, 38, 28
2, 1110, Control_c, 9, 4, 68
2, 1131, Note_on_c, 9, 46, 9
2, 1148, Control_c, 9, 4, 21
2, 1148, Note_on_c, 9, 38, 0
2, 1183, Control_c, 9, 4, 46
2, 1193, Note_on_c, 9, 44, 41
2, 1198, Note_on_c, 9, 46, 0
2, 1209, Control_c, 9, 16, 42
2, 1209, Note_on_c, 9, 38, 55
2, 1215, Control_c, 9, 4, 95
2, 1261, Note_on_c, 9, 44, 0
2, 1277, Note_on_c, 9, 38, 0
2, 1319, Control_c, 9, 4, 86
2, 1319, Control_c, 9, 16, 0
2, 1319, Note_on_c, 9, 38, 26
2, 1354, Control_c, 9, 4, 69
2, 1388, Note_on_c, 9, 38, 0
2, 1391, Control_c, 9, 4, 35
2, 1422, Control_c, 9, 4, 46
2, 1433, Control_c, 9, 16, 0
2, 1433, Note_on_c, 9, 38, 25
2, 1436, Note_on_c, 9, 44, 35
2, 1445, Note_on_c, 9, 36, 46
2, 1457, Control_c, 9, 4, 93
2, 1486, Control_c, 9, 16, 0
2, 1486, Note_on_c, 9, 38, 0
2, 1488, Note_on_c, 9, 38, 22
2, 1501, Note_on_c, 9, 38, 0
2, 1503, Note_on_c, 9, 44, 0
2, 1514, Note_on_c, 9, 36, 0
2, 1551, Control_c, 9, 16, 0
2, 1552, Note_on_c, 9, 38, 30
2, 1554, Note_on_c, 9, 36, 37
2, 1556, Note_on_c, 9, 38, 0
2, 1565, Control_c, 9, 4, 83
2, 1595, Control_c, 9, 4, 67
2, 1603, Control_c, 9, 16, 0
2, 1604, Note_on_c, 9, 38, 33
2, 1609, Note_on_c, 9, 46, 8
2, 1619, Note_on_c, 9, 38, 0
2, 1622, Note_on_c, 9, 36, 0
2, 1635, Control_c, 9, 4, 13
2, 1669, Control_c, 9, 4, 39
2, 1675, Control_c, 9, 16, 21
2, 1676, Note_on_c, 9, 38, 30
2, 1676, Note_on_c, 9, 46, 0
2, 1680, Note_on_c, 9, 44, 48
2, 1701, Control_c, 9, 4, 95
2, 1744, Control_c, 9, 16, 0
2, 1745, Note_on_c, 9, 38, 0
2, 1749, Note_on_c, 9, 44, 0
2, 1781, Control_c, 9, 4, 90
2, 1806, Control_c, 9, 16, 0
2, 1806, Note_on_c, 9, 38, 26
2, 1812, Note_on_c, 9, 38, 0
2, 1824, Note_on_c, 9, 46, 9
2, 1835, Control_c, 9, 4, 69
2, 1863, Control_c, 9, 16, 0
2, 1864, Note_on_c, 9, 38, 35
2, 1874, Control_c, 9, 4, 14
2, 1874, Note_on_c, 9, 38, 0
2, 1891, Note_on_c, 9, 46, 0
2, 1908, Control_c, 9, 4, 30
2, 1920, Note_on_c, 9, 44, 48
2, 1924, Control_c, 9, 16, 0
2, 1924, Note_on_c, 9, 38, 44
2, 1932, Note_on_c, 9, 38, 0
2, 1940, Note_on_c, 9, 36, 68
2, 1942, Control_c, 9, 4, 95
2, 1988, Note_on_c, 9, 44, 0
2, 2008, Note_on_c, 9, 36, 0
2, 2037, Control_c, 9, 4, 85
2, 2040, Control_c, 9, 16, 0
2, 2040, Note_on_c, 9, 38, 23
2, 2061, Note_on_c, 9, 46, 9
2, 2073, Control_c, 9, 4, 69
2, 2109, Note_on_c, 9, 38, 0
2, 2111, Control_c, 9, 4, 11
2, 2129, Note_on_c, 9, 46, 0
2, 2150, Control_c, 9, 4, 41
2, 2160, Note_on_c, 9, 44, 54
2, 2173, Control_c, 9, 16, 42
2, 2174, Note_on_c, 9, 38, 54
2, 2181, Control_c, 9, 4, 95
2, 2228, Note_on_c, 9, 44, 0
2, 2241, Note_on_c, 9, 38, 0
2, 2263, Control_c, 9, 4, 89
2, 2309, Note_on_c, 9, 46, 6
2, 2310, Control_c, 9, 16, 0
2, 2310, Note_on_c, 9, 38, 38
2, 2318, Control_c, 9, 4, 68
2, 2359, Control_c, 9, 4, 18
2, 2377, Note_on_c, 9, 46, 0
2, 2378, Note_on_c, 9, 38, 0
2, 2390, Control_c, 9, 4, 45
2, 2400, Note_on_c, 9, 44, 41
2, 2415, Note_on_c, 9, 36, 52
2, 2420, Control_c, 9, 16, 0
2, 2420, Note_on_c, 9, 38, 32
2, 2422, Control_c, 9, 4, 95
2, 2468, Note_on_c, 9, 44, 0
2, 2482, Note_on_c, 9, 36, 0
2, 2488, Note_on_c, 9, 38, 0
2, 2497, Control_c, 9, 4, 90
2, 2526, Note_on_c, 9, 36, 37
2, 2531, Control_c, 9, 16, 0
2, 2531, Note_on_c, 9, 38, 25
2, 2538, Note_on_c, 9, 46, 7
2, 2553, Control_c, 9, 4, 69
2, 2589, Control_c, 9, 4, 0
2, 2595, Note_on_c, 9, 36, 0
2, 2599, Note_on_c, 9, 38, 0
2, 2606, Note_on_c, 9, 46, 0
2, 2638, Control_c, 9, 4, 31
2, 2648, Note_on_c, 9, 44, 61
2, 2649, Control_c, 9, 16, 0
2, 2649, Note_on_c, 9, 38, 51
2, 2669, Control_c, 9, 4, 94
2, 2716, Note_on_c, 9, 44, 0
2, 2717, Note_on_c, 9, 38, 0
2, 2755, Control_c, 9, 4, 89
2, 2772, Control_c, 9, 16, 0
2, 2772, Note_on_c, 9, 38, 41
2, 2801, Note_on_c, 9, 46, 6
2, 2814, Control_c, 9, 4, 68
2, 2840, Note_on_c, 9, 38, 0
2, 2847, Control_c, 9, 4, 30
2, 2869, Note_on_c, 9, 46, 0
2, 2881, Control_c, 9, 4, 45
2, 2892, Control_c, 9, 16, 0
2, 2893, Note_on_c, 9, 38, 33
2, 2895, Note_on_c, 9, 44, 35
2, 2898, Note_on_c, 9, 36, 57
2, 2914, Control_c, 9, 4, 95
2, 2961, Note_on_c, 9, 38, 0
2, 2961, Note_on_c, 9, 44, 0
2, 2967, Note_on_c, 9, 36, 0
2, 2976, Control_c, 9, 4, 90
2, 3013, Control_c, 9, 4, 86
2, 3018, Control_c, 9, 16, 0
2, 3018, Note_on_c, 9, 38, 27
2, 3048, Control_c, 9, 4, 69
2, 3086, Note_on_c, 9, 38, 0
2, 3088, Control_c, 9, 4, 15
2, 3122, Control_c, 9, 4, 30
2, 3136, Note_on_c, 9, 44, 48
2, 3139, Control_c, 9, 16, 0
2, 3140, Note_on_c, 9, 38, 54
2, 3157, Control_c, 9, 4, 94
2, 3204, Note_on_c, 9, 44, 0
2, 3207, Note_on_c, 9, 38, 0
2, 3235, Control_c, 9, 4, 89
2, 3261, Control_c, 9, 16, 0
2, 3261, Note_on_c, 9, 38, 26
2, 3295, Control_c, 9, 4, 67
2, 3329, Note_on_c, 9, 38, 0
2, 3333, Control_c, 9, 4, 11
2, 3364, Control_c, 9, 4, 26
2, 3371, Control_c, 9, 16, 0
2, 3371, Note_on_c, 9, 38, 33
2, 3379, Note_on_c, 9, 44, 54
2, 3382, Note_on_c, 9, 36, 44
2, 3401, Control_c, 9, 4, 94
2, 3439, Note_on_c, 9, 38, 0
2, 3447, Note_on_c, 9, 44, 0
2, 3450, Note_on_c, 9, 36, 0
2, 3494, Control_c, 9, 16, 0
2, 3494, Note_on_c, 9, 38, 23
2, 3496, Note_on_c, 9, 36, 37
2, 3498, Control_c, 9, 4, 83
2, 3529, Control_c, 9, 4, 68
2, 3562, Note_on_c, 9, 38, 0
2, 3564, Note_on_c, 9, 36, 0
2, 3571, Control_c, 9, 4, 15
2, 3613, Control_c, 9, 4, 45
2, 3617, Control_c, 9, 16, 42
2, 3617, Note_on_c, 9, 38, 45
2, 3623, Note_on_c, 9, 44, 41
2, 3644, Control_c, 9, 4, 94
2, 3686, Note_on_c, 9, 38, 0
2, 3692, Note_on_c, 9, 44, 0
2, 3714, Control_c, 9, 4, 89
2, 3739, Control_c, 9, 16, 0
2, 3740, Note_on_c, 9, 38, 46
2, 3753, Control_c, 9, 4, 84
2, 3784, Control_c, 9, 4, 68
2, 3808, Note_on_c, 9, 38, 0
2, 3818, Control_c, 9, 4, 30
2, 3852, Control_c, 9, 4, 45
2, 3863, Control_c, 9, 16, 21
2, 3863, Note_on_c, 9, 38, 32
2, 3865, Note_on_c, 9, 44, 35
2, 3872, Note_on_c, 9, 36, 56
2, 3886, Control_c, 9, 4, 94
2, 3931, Note_on_c, 9, 38, 0
2, 3931, Note_on_c, 9, 44, 0
2, 3941, Note_on_c, 9, 36, 0
2, 3952, Control_c, 9, 4, 89
2, 3982, Control_c, 9, 4, 83
2, 3992, Control_c, 9, 16, 0
2, 3992, Note_on_c, 9, 38, 25
2, 4010, Note_on_c, 9, 46, 9
2, 4020, Control_c, 9, 4, 67
2, 4056, Control_c, 9, 4, 18
2, 4060, Note_on_c, 9, 38, 0
2, 4078, Note_on_c, 9, 46, 0
2, 4094, Control_c, 9, 4, 48
2, 4103, Note_on_c, 9, 44, 48
2, 4113, Control_c, 9, 16, 42
2, 4113, Note_on_c, 9, 38, 52
2, 4124, Control_c, 9, 4, 92
2, 4171, Note_on_c, 9, 44, 0
2, 4181, Note_on_c, 9, 38, 0
2, 4209, Control_c, 9, 4, 87
2, 4230, Control_c, 9, 16, 0
2, 4231, Note_on_c, 9, 38, 28
2, 4255, Control_c, 9, 4, 77
2, 4256, Note_on_c, 9, 46, 10
2, 4288, Control_c, 9, 4, 41
2, 4299, Note_on_c, 9, 38, 0
2, 4323, Control_c, 9, 4, 42
2, 4324, Note_on_c, 9, 46, 0
2, 4339, Note_on_c, 9, 44, 35
2, 4347, Control_c, 9, 16, 0
2, 4347, Note_on_c, 9, 38, 34
2, 4354, Note_on_c, 9, 36, 47
2, 4360, Control_c, 9, 4, 94
2, 4406, Note_on_c, 9, 44, 0
2, 4414, Note_on_c, 9, 38, 0
2, 4422, Note_on_c, 9, 36, 0
2, 4430, Control_c, 9, 4, 89
2, 4461, Control_c, 9, 4, 84
2, 4464, Control_c, 9, 16, 21
2, 4464, Note_on_c, 9, 38, 24
2, 4466, Note_on_c, 9, 36, 39
2, 4491, Control_c, 9, 4, 68
2, 4529, Control_c, 9, 4, 10
2, 4532, Note_on_c, 9, 38, 0
2, 4534, Note_on_c, 9, 36, 0
2, 4572, Control_c, 9, 4, 39
2, 4584, Note_on_c, 9, 44, 48
2, 4591, Control_c, 9, 16, 21
2, 4591, Note_on_c, 9, 38, 48
2, 4605, Control_c, 9, 4, 93
2, 4651, Note_on_c, 9, 44, 0
2, 4660, Note_on_c, 9, 38, 0
2, 4694, Control_c, 9, 4, 88
2, 4714, Control_c, 9, 16, 0
2, 4714, Note_on_c, 9, 38, 47
2, 4737, Note_on_c, 9, 46, 10
2, 4746, Control_c, 9, 4, 67
2, 4778, Control_c, 9, 4, 30
2, 4782, Note_on_c, 9, 38, 0
2, 4804, Note_on_c, 9, 46, 0
2, 4810, Control_c, 9, 4, 44
2, 4824, Note_on_c, 9, 44, 35
2, 4826, Control_c, 9, 16, 0
2, 4827, Note_on_c, 9, 38, 31
2, 4837, Note_on_c, 9, 36, 64
2, 4846, Control_c, 9, 4, 95
2, 4892, Note_on_c, 9, 44, 0
2, 4894, Note_on_c, 9, 38, 0
2, 4905, Note_on_c, 9, 36, 0
2, 4947, Control_c, 9, 4, 85
2, 4950, Control_c, 9, 16, 0
2, 4950, Note_on_c, 9, 38, 26
2, 4979, Control_c, 9, 4, 69
2, 5018, Note_on_c, 9, 38, 0
2, 5020, Control_c, 9, 4, 17
2, 5058, Control_c, 9, 4, 46
2, 5067, Note_on_c, 9, 44, 48
2, 5076, Control_c, 9, 16, 0
2, 5076, Note_on_c, 9, 38, 54
2, 5088, Control_c, 9, 4, 94
2, 5134, Note_on_c, 9, 44, 0
2, 5145, Note_on_c, 9, 38, 0
2, 5168, Control_c, 9, 4, 89
2, 5198, Control_c, 9, 16, 0
2, 5198, Note_on_c, 9, 38, 25
2, 5218, Control_c, 9, 4, 79
2, 5218, Note_on_c, 9, 46, 10
2, 5256, Control_c, 9, 4, 45
2, 5266, Note_on_c, 9, 38, 0
2, 5286, Control_c, 9, 4, 47
2, 5286, Note_on_c, 9, 46, 0
2, 5304, Note_on_c, 9, 44, 28
2, 5312, Control_c, 9, 16, 0
2, 5313, Note_on_c, 9, 36, 43
2, 5313, Note_on_c, 9, 38, 23
2, 5325, Control_c, 9, 4, 94
2, 5372, Control_c, 9, 16, 0
2, 5372, Note_on_c, 9, 38, 0
2, 5373, Note_on_c, 9, 38, 19
2, 5373, Note_on_c, 9, 44, 0
2, 5380, Note_on_c, 9, 38, 0
2, 5382, Note_on_c, 9, 36, 0
2, 5428, Control_c, 9, 16, 0
2, 5428, Note_on_c, 9, 36, 37
2, 5430, Note_on_c, 9, 38, 26
2, 5433, Control_c, 9, 4, 85
2, 5440, Note_on_c, 9, 38, 0
2, 5455, Note_on_c, 9, 46, 10
2, 5464, Control_c, 9, 4, 67
2, 5493, Control_c, 9, 16, 0
2, 5493, Note_on_c, 9, 38, 30
2, 5496, Note_on_c, 9, 36, 0
2, 5496, Note_on_c, 9, 38, 0
2, 5498, Control_c, 9, 4, 10
2, 5523, Note_on_c, 9, 46, 0
2, 5538, Control_c, 9, 4, 37
2, 5551, Note_on_c, 9, 44, 48
2, 5555, Control_c, 9, 16, 0
2, 5556, Note_on_c, 9, 38, 34
2, 5562, Note_on_c, 9, 38, 0
2, 5571, Control_c, 9, 4, 93
2, 5618, Note_on_c, 9, 44, 0
2, 5620, Control_c, 9, 16, 0
2, 5620, Note_on_c, 9, 38, 32
2, 5623, Note_on_c, 9, 38, 0
2, 5661, Control_c, 9, 4, 88
2, 5674, Control_c, 9, 16, 0
2, 5675, Note_on_c, 9, 38, 28
2, 5688, Note_on_c, 9, 38, 0
2, 5703, Control_c, 9, 4, 80
2, 5703, Note_on_c, 9, 46, 9
2, 5736, Control_c, 9, 16, 0
2, 5736, Note_on_c, 9, 38, 32
2, 5740, Control_c, 9, 4, 43
2, 5742, Note_on_c, 9, 38, 0
2, 5771, Note_on_c, 9, 46, 0
2, 5778, Control_c, 9, 4, 47
2, 5791, Note_on_c, 9, 44, 35
2, 5796, Control_c, 9, 16, 0
2, 5796, Note_on_c, 9, 38, 47
2, 5805, Note_on_c, 9, 36, 68
2, 5805, Note_on_c, 9, 38, 0
2, 5812, Control_c, 9, 4, 95
2, 5858, Note_on_c, 9, 44, 0
2, 5873, Note_on_c, 9, 36, 0
2, 5886, Control_c, 9, 4, 90
2, 5943, Control_c, 9, 4, 80
2, 5985, Control_c, 9, 4, 41
2, 6024, Control_c, 9, 4, 47
2, 6034, Note_on_c, 9, 44, 41
2, 6035, Control_c, 9, 16, 21
2, 6035, Note_on_c, 9, 38, 55
2, 6056, Control_c, 9, 4, 95
2, 6103, Note_on_c, 9, 38, 0
2, 6103, Note_on_c, 9, 44, 0
2, 6140, Control_c, 9, 4, 89
2, 6166, Control_c, 9, 16, 0
2, 6166, Note_on_c, 9, 38, 43
2, 6190, Note_on_c, 9, 46, 7
2, 6200, Control_c, 9, 4, 68
2, 6231, Control_c, 9, 4, 29
2, 6234, Note_on_c, 9, 38, 0
2, 6257, Note_on_c, 9, 46, 0
2, 6264, Control_c, 9, 4, 45
2, 6275, Note_on_c, 9, 44, 35
2, 6280, Note_on_c, 9, 36, 52
2, 6281, Control_c, 9, 16, 0
2, 6281, Note_on_c, 9, 38, 33
2, 6296, Control_c, 9, 4, 95
2, 6343, Note_on_c, 9, 44, 0
2, 6348, Note_on_c, 9, 36, 0
2, 6349, Note_on_c, 9, 38, 0
2, 6362, Control_c, 9, 4, 90
2, 6396, Note_on_c, 9, 36, 37
2, 6400, Control_c, 9, 16, 0
2, 6400, Note_on_c, 9, 38, 25
2, 6409, Control_c, 9, 4, 79
2, 6429, Note_on_c, 9, 46, 7
2, 6441, Control_c, 9, 4, 52
2, 6464, Note_on_c, 9, 36, 0
2, 6468, Note_on_c, 9, 38, 0
2, 6476, Control_c, 9, 4, 0
2, 6496, Note_on_c, 9, 46, 0
2, 6511, Control_c, 9, 4, 39
2, 6515, Control_c, 9, 16, 21
2, 6516, Note_on_c, 9, 38, 54
2, 6521, Note_on_c, 9, 44, 48
2, 6542, Control_c, 9, 4, 93
2, 6583, Note_on_c, 9, 38, 0
2, 6589, Note_on_c, 9, 44, 0
2, 6627, Control_c, 9, 4, 88
2, 6643, Control_c, 9, 16, 0
2, 6643, Note_on_c, 9, 38, 44
2, 6667, Control_c, 9, 4, 80
2, 6667, Note_on_c, 9, 46, 7
2, 6708, Control_c, 9, 4, 44
2, 6711, Note_on_c, 9, 38, 0
2, 6735, Note_on_c, 9, 46, 0
2, 6741, Control_c, 9, 4, 46
2, 6756, Control_c, 9, 16, 0
2, 6756, Note_on_c, 9, 44, 28
2, 6758, Note_on_c, 9, 38, 34
2, 6771, Note_on_c, 9, 36, 57
2, 6778, Control_c, 9, 4, 95
2, 6825, Note_on_c, 9, 38, 0
2, 6825, Note_on_c, 9, 44, 0
2, 6839, Note_on_c, 9, 36, 0
2, 6851, Control_c, 9, 4, 90
2, 6879, Control_c, 9, 16, 0
2, 6880, Note_on_c, 9, 38, 26
2, 6907, Control_c, 9, 4, 79
2, 6907, Note_on_c, 9, 46, 9
2, 6943, Control_c, 9, 4, 39
2, 6947, Note_on_c, 9, 38, 0
2, 6975, Note_on_c, 9, 46, 0
2, 6979, Control_c, 9, 4, 41
2, 6991, Control_c, 9, 16, 0
2, 6992, Note_on_c, 9, 38, 54
2, 6996, Note_on_c, 9, 44, 35
2, 7017, Control_c, 9, 4, 95
2, 7059, Note_on_c, 9, 38, 0
2, 7064, Note_on_c, 9, 44, 0
2, 7083, Control_c, 9, 4, 89
2, 7110, Control_c, 9, 16, 0
2, 7111, Note_on_c, 9, 38, 27
2, 7141, Control_c, 9, 4, 77
2, 7141, Note_on_c, 9, 46, 7
2, 7177, Control_c, 9, 4, 43
2, 7179, Note_on_c, 9, 38, 0
2, 7210, Note_on_c, 9, 46, 0
2, 7215, Control_c, 9, 4, 47
2, 7220, Control_c, 9, 16, 0
2, 7220, Note_on_c, 9, 38, 33
2, 7227, Note_on_c, 9, 44, 35
2, 7235, Note_on_c, 9, 36, 49
2, 7249, Control_c, 9, 4, 95
2, 7288, Note_on_c, 9, 38, 0
2, 7295, Note_on_c, 9, 44, 0
2, 7303, Note_on_c, 9, 36, 0
2, 7315, Control_c, 9, 4, 90
2, 7344, Note_on_c, 9, 36, 37
2, 7351, Control_c, 9, 16, 0
2, 7351, Note_on_c, 9, 38, 22
2, 7369, Control_c, 9, 4, 76
2, 7369, Note_on_c, 9, 46, 9
2, 7406, Control_c, 9, 4, 0
2, 7412, Note_on_c, 9, 36, 0
2, 7420, Note_on_c, 9, 38, 0
2, 7437, Note_on_c, 9, 46, 0
2, 7459, Control_c, 9, 4, 33
2, 7469, Note_on_c, 9, 44, 61
2, 7472, Control_c, 9, 16, 21
2, 7472, Note_on_c, 9, 38, 48
2, 7490, Control_c, 9, 4, 93
2, 7537, Note_on_c, 9, 44, 0
2, 7540, Note_on_c, 9, 38, 0
2, 7582, Control_c, 9, 4, 89
2, 7598, Control_c, 9, 16, 0
2, 7598, Note_on_c, 9, 38, 44
2, 7631, Control_c, 9, 4, 76
2, 7663, Control_c, 9, 4, 41
2, 7665, Note_on_c, 9, 38, 0
2, 7666, End_track
0, 0, End_of_file
