0, 0, Header, 1, 2, 480
1, 0, Start_track
1, 0, Tempo, 441176
1, 0, Time_signature, 4, 2, 24, 8
1, 0, Key_signature, 0, "major"
1, 1, End_track
2, 0, Start_track
2, 0, Title_t, "Midi Drums"
2, 0, Program_c, 9, 0
2, 3, Note_on_c, 9, 36, 40
2, 5, Control_c, 9, 4, 90
2, 11, Note_on_c, 9, 55, 93
2, 47, Control_c, 9, 4, 66
2, 70, Note_on_c, 9, 36, 0
2, 70, Note_on_c, 9, 36, 12
2, 85, Control_c, 9, 4, 73
2, 109, Note_on_c, 9, 36, 0
2, 109, Note_on_c, 9, 36, 10
2, 113, Note_on_c, 9, 36, 0
2, 121, Note_on_c, 9, 55, 0
2, 135, Control_c, 9, 4, 86
2, 170, Control_c, 9, 4, 90
2, 318, Control_c, 9, 4, 74
2, 353, Control_c, 9, 4, 0
2, 476, Note_on_c, 9, 51, 119
2, 489, Control_c, 9, 4, 76
2, 489, Note_on_c, 9, 44, 50
2, 491, Note_on_c, 9, 38, 96
2, 524, Control_c, 9, 4, 90
2, 585, Note_on_c, 9, 51, 0
2, 600, Note_on_c, 9, 38, 0
2, 600, Note_on_c, 9, 44, 0
2, 703, Note_on_c, 9, 51, 48
2, 813, Note_on_c, 9, 51, 0
2, 830, Note_on_c, 9, 38, 5
2, 867, Control_c, 9, 4, 58
2, 905, Control_c, 9, 4, 18
2, 940, Note_on_c, 9, 38, 0
2, 961, Note_on_c, 9, 51, 52
2, 966, Control_c, 9, 4, 78
2, 967, Note_on_c, 9, 44, 27
2, 979, Note_on_c, 9, 36, 35
2, 1001, Control_c, 9, 4, 90
2, 1071, Note_on_c, 9, 51, 0
2, 1076, Note_on_c, 9, 44, 0
2, 1088, Note_on_c, 9, 36, 0
2, 1184, Note_on_c, 9, 51, 47
2, 1214, Note_on_c, 9, 36, 35
2, 1267, Control_c, 9, 4, 58
2, 1294, Note_on_c, 9, 51, 0
2, 1303, Control_c, 9, 4, 0
2, 1324, Note_on_c, 9, 36, 0
2, 1421, Control_c, 9, 4, 76
2, 1422, Note_on_c, 9, 44, 55
2, 1435, Note_on_c, 9, 51, 103
2, 1453, Note_on_c, 9, 40, 108
2, 1456, Control_c, 9, 4, 90
2, 1531, Note_on_c, 9, 44, 0
2, 1545, Note_on_c, 9, 51, 0
2, 1563, Note_on_c, 9, 40, 0
2, 1674, Note_on_c, 9, 51, 44
2, 1783, Note_on_c, 9, 51, 0
2, 1800, Control_c, 9, 4, 41
2, 1834, Control_c, 9, 4, 0
2, 1846, Note_on_c, 9, 38, 11
2, 1909, Control_c, 9, 4, 76
2, 1909, Note_on_c, 9, 36, 33
2, 1909, Note_on_c, 9, 44, 72
2, 1925, Note_on_c, 9, 51, 61
2, 1943, Control_c, 9, 4, 90
2, 1955, Note_on_c, 9, 38, 0
2, 1968, Note_on_c, 9, 36, 0
2, 1968, Note_on_c, 9, 36, 12
2, 1989, Control_c, 9, 4, 78
2, 2018, Note_on_c, 9, 36, 0
2, 2018, Note_on_c, 9, 44, 0
2, 2030, Control_c, 9, 4, 82
2, 2035, Note_on_c, 9, 51, 0
2, 2063, Control_c, 9, 4, 90
2, 2169, Note_on_c, 9, 51, 46
2, 2207, Control_c, 9, 4, 41
2, 2237, Control_c, 9, 4, 0
2, 2278, Note_on_c, 9, 51, 0
2, 2366, Control_c, 9, 4, 78
2, 2366, Note_on_c, 9, 44, 65
2, 2399, Note_on_c, 9, 51, 93
2, 2401, Control_c, 9, 4, 90
2, 2409, Note_on_c, 9, 40, 111
2, 2476, Note_on_c, 9, 44, 0
2, 2509, Note_on_c, 9, 51, 0
2, 2519, Note_on_c, 9, 40, 0
2, 2646, Note_on_c, 9, 36, 36
2, 2649, Note_on_c, 9, 51, 57
2, 2710, Note_on_c, 9, 36, 0
2, 2710, Note_on_c, 9, 36, 13
2, 2747, Control_c, 9, 4, 74
2, 2756, Note_on_c, 9, 36, 0
2, 2759, Note_on_c, 9, 51, 0
2, 2781, Control_c, 9, 4, 27
2, 2814, Control_c, 9, 4, 6
2, 2880, Control_c, 9, 4, 78
2, 2880, Note_on_c, 9, 44, 55
2, 2884, Note_on_c, 9, 51, 39
2, 2915, Control_c, 9, 4, 90
2, 2943, Note_on_c, 9, 38, 15
2, 2990, Note_on_c, 9, 44, 0
2, 2994, Note_on_c, 9, 51, 0
2, 3003, Note_on_c, 9, 38, 0
2, 3003, Note_on_c, 9, 38, 11
2, 3048, Note_on_c, 9, 38, 0
2, 3048, Note_on_c, 9, 38, 10
2, 3053, Note_on_c, 9, 38, 0
2, 3115, Note_on_c, 9, 36, 33
2, 3132, Note_on_c, 9, 51, 44
2, 3175, Note_on_c, 9, 36, 0
2, 3175, Note_on_c, 9, 36, 12
2, 3182, Control_c, 9, 4, 40
2, 3212, Control_c, 9, 4, 0
2, 3225, Note_on_c, 9, 36, 0
2, 3242, Note_on_c, 9, 51, 0
2, 3342, Control_c, 9, 4, 76
2, 3343, Note_on_c, 9, 44, 80
2, 3362, Note_on_c, 9, 51, 77
2, 3364, Note_on_c, 9, 40, 115
2, 3377, Control_c, 9, 4, 90
2, 3453, Note_on_c, 9, 44, 0
2, 3472, Note_on_c, 9, 51, 0
2, 3474, Note_on_c, 9, 40, 0
2, 3492, Control_c, 9, 4, 81
2, 3534, Control_c, 9, 4, 90
2, 3605, Note_on_c, 9, 38, 94
2, 3696, Control_c, 9, 4, 74
2, 3715, Note_on_c, 9, 38, 0
2, 3727, Control_c, 9, 4, 26
2, 3727, Note_on_c, 9, 40, 122
2, 3758, Control_c, 9, 4, 4
2, 3837, Note_on_c, 9, 40, 0
2, 3840, Note_on_c, 9, 51, 74
2, 3843, Control_c, 9, 4, 78
2, 3843, Note_on_c, 9, 44, 50
2, 3855, Note_on_c, 9, 36, 36
2, 3877, Control_c, 9, 4, 90
2, 3919, Note_on_c, 9, 36, 0
2, 3919, Note_on_c, 9, 36, 10
2, 3950, Note_on_c, 9, 51, 0
2, 3953, Note_on_c, 9, 38, 28
2, 3953, Note_on_c, 9, 44, 0
2, 3965, Note_on_c, 9, 36, 0
2, 3990, Note_on_c, 9, 38, 0
2, 3990, Note_on_c, 9, 38, 19
2, 4061, Note_on_c, 9, 38, 0
2, 4061, Note_on_c, 9, 38, 10
2, 4063, Note_on_c, 9, 38, 0
2, 4105, Note_on_c, 9, 51, 52
2, 4183, Control_c, 9, 4, 42
2, 4215, Note_on_c, 9, 51, 0
2, 4218, Control_c, 9, 4, 0
2, 4342, Note_on_c, 9, 51, 95
2, 4351, Control_c, 9, 4, 78
2, 4351, Note_on_c, 9, 40, 105
2, 4351, Note_on_c, 9, 44, 65
2, 4386, Control_c, 9, 4, 90
2, 4451, Note_on_c, 9, 51, 0
2, 4461, Note_on_c, 9, 40, 0
2, 4461, Note_on_c, 9, 44, 0
2, 4581, Note_on_c, 9, 51, 52
2, 4662, Control_c, 9, 4, 41
2, 4671, Note_on_c, 9, 38, 13
2, 4690, Note_on_c, 9, 51, 0
2, 4695, Control_c, 9, 4, 0
2, 4744, Note_on_c, 9, 38, 0
2, 4744, Note_on_c, 9, 38, 5
2, 4781, Note_on_c, 9, 38, 0
2, 4803, Control_c, 9, 4, 77
2, 4804, Note_on_c, 9, 36, 31
2, 4804, Note_on_c, 9, 44, 55
2, 4818, Note_on_c, 9, 51, 54
2, 4838, Control_c, 9, 4, 90
2, 4914, Note_on_c, 9, 36, 0
2, 4914, Note_on_c, 9, 44, 0
2, 4929, Note_on_c, 9, 51, 0
2, 4947, Note_on_c, 9, 38, 5
2, 5046, Note_on_c, 9, 51, 55
2, 5054, Note_on_c, 9, 36, 33
2, 5057, Note_on_c, 9, 38, 0
2, 5114, Note_on_c, 9, 36, 0
2, 5114, Note_on_c, 9, 36, 12
2, 5133, Control_c, 9, 4, 41
2, 5156, Note_on_c, 9, 51, 0
2, 5164, Note_on_c, 9, 36, 0
2, 5166, Control_c, 9, 4, 0
2, 5284, Control_c, 9, 4, 78
2, 5284, Note_on_c, 9, 44, 55
2, 5289, Note_on_c, 9, 51, 117
2, 5298, Note_on_c, 9, 40, 115
2, 5319, Control_c, 9, 4, 90
2, 5394, Note_on_c, 9, 44, 0
2, 5399, Note_on_c, 9, 51, 0
2, 5408, Note_on_c, 9, 40, 0
2, 5532, Note_on_c, 9, 51, 45
2, 5605, Control_c, 9, 4, 41
2, 5641, Note_on_c, 9, 51, 0
2, 5643, Control_c, 9, 4, 0
2, 5683, Note_on_c, 9, 38, 14
2, 5752, Control_c, 9, 4, 76
2, 5752, Note_on_c, 9, 44, 55
2, 5761, Note_on_c, 9, 36, 23
2, 5772, Note_on_c, 9, 51, 62
2, 5787, Control_c, 9, 4, 90
2, 5793, Note_on_c, 9, 38, 0
2, 5823, Note_on_c, 9, 38, 15
2, 5862, Note_on_c, 9, 44, 0
2, 5871, Note_on_c, 9, 36, 0
2, 5873, Note_on_c, 9, 38, 0
2, 5873, Note_on_c, 9, 38, 13
2, 5882, Note_on_c, 9, 51, 0
2, 5916, Note_on_c, 9, 38, 0
2, 5916, Note_on_c, 9, 38, 10
2, 5933, Note_on_c, 9, 38, 0
2, 5950, Note_on_c, 9, 38, 11
2, 5983, Note_on_c, 9, 38, 0
2, 5992, Note_on_c, 9, 36, 31
2, 6000, Note_on_c, 9, 51, 57
2, 6050, Note_on_c, 9, 36, 0
2, 6050, Note_on_c, 9, 36, 9
2, 6068, Control_c, 9, 4, 41
2, 6101, Note_on_c, 9, 36, 0
2, 6102, Control_c, 9, 4, 0
2, 6109, Note_on_c, 9, 51, 0
2, 6223, Control_c, 9, 4, 76
2, 6223, Note_on_c, 9, 44, 57
2, 6241, Note_on_c, 9, 51, 74
2, 6244, Note_on_c, 9, 38, 96
2, 6257, Control_c, 9, 4, 90
2, 6333, Note_on_c, 9, 44, 0
2, 6351, Note_on_c, 9, 51, 0
2, 6354, Note_on_c, 9, 38, 0
2, 6483, Note_on_c, 9, 51, 110
2, 6487, Note_on_c, 9, 40, 127
2, 6558, Control_c, 9, 4, 42
2, 6592, Control_c, 9, 4, 0
2, 6592, Note_on_c, 9, 51, 0
2, 6597, Note_on_c, 9, 40, 0
2, 6708, Control_c, 9, 4, 78
2, 6708, Note_on_c, 9, 44, 52
2, 6711, Note_on_c, 9, 51, 37
2, 6743, Control_c, 9, 4, 90
2, 6789, Note_on_c, 9, 38, 25
2, 6819, Note_on_c, 9, 44, 0
2, 6821, Note_on_c, 9, 51, 0
2, 6848, Note_on_c, 9, 38, 0
2, 6848, Note_on_c, 9, 38, 15
2, 6899, Note_on_c, 9, 38, 0
2, 6906, Note_on_c, 9, 38, 15
2, 6928, Note_on_c, 9, 36, 41
2, 6935, Note_on_c, 9, 51, 61
2, 6959, Note_on_c, 9, 38, 0
2, 6998, Note_on_c, 9, 36, 0
2, 6998, Note_on_c, 9, 36, 10
2, 7013, Control_c, 9, 4, 57
2, 7037, Note_on_c, 9, 36, 0
2, 7045, Note_on_c, 9, 51, 0
2, 7050, Control_c, 9, 4, 0
2, 7182, Note_on_c, 9, 51, 75
2, 7186, Control_c, 9, 4, 77
2, 7186, Note_on_c, 9, 44, 55
2, 7191, Note_on_c, 9, 40, 120
2, 7220, Control_c, 9, 4, 90
2, 7274, Control_c, 9, 4, 82
2, 7292, Note_on_c, 9, 51, 0
2, 7296, Note_on_c, 9, 44, 0
2, 7301, Note_on_c, 9, 40, 0
2, 7310, Control_c, 9, 4, 90
2, 7426, Note_on_c, 9, 47, 97
2, 7506, Control_c, 9, 4, 42
2, 7536, Note_on_c, 9, 47, 0
2, 7538, Control_c, 9, 4, 0
2, 7539, Note_on_c, 9, 48, 103
2, 7648, Control_c, 9, 4, 76
2, 7648, Note_on_c, 9, 48, 0
2, 7649, End_track
0, 0, End_of_file
