0, 0, Header, 1, 2, 480
1, 0, Start_track
1, 0, Tempo, 545454
1, 0, Time_signature, 4, 2, 24, 8
1, 0, Key_signature, 0, "major"
1, 1, End_track
2, 0, Start_track
2, 0, Title_t, "TD-30 #9 Djembe"
2, 0, Program_c, 9, 0
2, 0, Control_c, 9, 17, 21
2, 10, Control_c, 9, 4, 94
2, 56, Control_c, 9, 16, 0
2, 57, Note_on_c, 9, 38, 9
2, 58, Control_c, 9, 4, 87
2, 90, Control_c, 9, 4, 71
2, 135, Control_c, 9, 4, 0
2, 145, Note_on_c, 9, 38, 0
2, 213, Control_c, 9, 4, 49
2, 216, Control_c, 9, 17, 6
2, 217, Note_on_c, 9, 51, 46
2, 219, Note_on_c, 9, 44, 126
2, 245, Control_c, 9, 4, 78
2, 295, Control_c, 9, 4, 40
2, 305, Note_on_c, 9, 51, 0
2, 307, Note_on_c, 9, 44, 0
2, 352, Control_c, 9, 4, 63
2, 352, Note_on_c, 9, 46, 7
2, 440, Note_on_c, 9, 46, 0
2, 484, Note_on_c, 9, 36, 69
2, 489, Control_c, 9, 17, 14
2, 490, Note_on_c, 9, 51, 60
2, 510, Control_c, 9, 4, 59
2, 549, Control_c, 9, 4, 45
2, 572, Note_on_c, 9, 36, 0
2, 576, Note_on_c, 9, 51, 0
2, 587, Control_c, 9, 4, 0
2, 698, Control_c, 9, 4, 64
2, 702, Note_on_c, 9, 44, 80
2, 722, Control_c, 9, 17, 15
2, 722, Note_on_c, 9, 51, 38
2, 730, Control_c, 9, 4, 90
2, 790, Note_on_c, 9, 44, 0
2, 810, Note_on_c, 9, 51, 0
2, 873, Control_c, 9, 4, 85
2, 952, Control_c, 9, 17, 30
2, 952, Note_on_c, 9, 51, 50
2, 984, Control_c, 9, 4, 95
2, 1029, Control_c, 9, 4, 90
2, 1041, Note_on_c, 9, 51, 0
2, 1065, Control_c, 9, 4, 72
2, 1110, Control_c, 9, 4, 0
2, 1190, Control_c, 9, 4, 52
2, 1194, Control_c, 9, 17, 33
2, 1194, Note_on_c, 9, 51, 56
2, 1196, Note_on_c, 9, 44, 126
2, 1198, Control_c, 9, 16, 126
2, 1199, Note_on_c, 9, 40, 66
2, 1222, Control_c, 9, 4, 78
2, 1273, Control_c, 9, 4, 47
2, 1283, Note_on_c, 9, 44, 0
2, 1283, Note_on_c, 9, 51, 0
2, 1286, Note_on_c, 9, 40, 0
2, 1314, Control_c, 9, 4, 64
2, 1437, Control_c, 9, 17, 3
2, 1438, Note_on_c, 9, 51, 40
2, 1503, Control_c, 9, 4, 54
2, 1526, Note_on_c, 9, 51, 0
2, 1547, Control_c, 9, 4, 29
2, 1585, Control_c, 9, 4, 0
2, 1661, Control_c, 9, 17, 35
2, 1662, Note_on_c, 9, 51, 48
2, 1664, Control_c, 9, 4, 61
2, 1671, Note_on_c, 9, 44, 61
2, 1672, Note_on_c, 9, 36, 58
2, 1698, Control_c, 9, 4, 83
2, 1750, Note_on_c, 9, 51, 0
2, 1759, Note_on_c, 9, 44, 0
2, 1761, Note_on_c, 9, 36, 0
2, 1911, Control_c, 9, 4, 89
2, 1928, Control_c, 9, 16, 91
2, 1929, Note_on_c, 9, 40, 59
2, 1930, Control_c, 9, 17, 17
2, 1931, Note_on_c, 9, 51, 64
2, 1995, Control_c, 9, 16, 0
2, 1996, Note_on_c, 9, 38, 10
2, 2003, Control_c, 9, 4, 81
2, 2016, Note_on_c, 9, 40, 0
2, 2018, Note_on_c, 9, 51, 0
2, 2043, Control_c, 9, 4, 57
2, 2075, Control_c, 9, 4, 0
2, 2083, Note_on_c, 9, 38, 0
2, 2139, Control_c, 9, 17, 34
2, 2140, Note_on_c, 9, 51, 30
2, 2144, Control_c, 9, 4, 64
2, 2148, Note_on_c, 9, 44, 93
2, 2175, Control_c, 9, 4, 78
2, 2220, Control_c, 9, 4, 59
2, 2228, Note_on_c, 9, 51, 0
2, 2236, Note_on_c, 9, 44, 0
2, 2251, Control_c, 9, 4, 63
2, 2288, Note_on_c, 9, 38, 18
2, 2376, Note_on_c, 9, 38, 0
2, 2395, Control_c, 9, 17, 21
2, 2396, Note_on_c, 9, 51, 66
2, 2411, Note_on_c, 9, 36, 97
2, 2449, Control_c, 9, 4, 59
2, 2483, Note_on_c, 9, 51, 0
2, 2487, Control_c, 9, 4, 43
2, 2500, Note_on_c, 9, 36, 0
2, 2521, Note_on_c, 9, 38, 20
2, 2523, Control_c, 9, 4, 0
2, 2608, Note_on_c, 9, 38, 0
2, 2612, Control_c, 9, 4, 64
2, 2618, Note_on_c, 9, 44, 74
2, 2620, Control_c, 9, 17, 22
2, 2620, Note_on_c, 9, 51, 46
2, 2646, Control_c, 9, 4, 88
2, 2706, Note_on_c, 9, 44, 0
2, 2708, Note_on_c, 9, 51, 0
2, 2735, Control_c, 9, 16, 0
2, 2735, Note_on_c, 9, 38, 21
2, 2755, Control_c, 9, 17, 44
2, 2756, Note_on_c, 9, 51, 39
2, 2809, Control_c, 9, 4, 84
2, 2823, Note_on_c, 9, 38, 0
2, 2843, Note_on_c, 9, 51, 0
2, 2857, Control_c, 9, 16, 42
2, 2858, Note_on_c, 9, 38, 13
2, 2892, Control_c, 9, 17, 12
2, 2892, Note_on_c, 9, 51, 68
2, 2894, Control_c, 9, 4, 89
2, 2925, Control_c, 9, 4, 94
2, 2946, Note_on_c, 9, 38, 0
2, 2977, Control_c, 9, 4, 89
2, 2980, Note_on_c, 9, 51, 0
2, 3011, Control_c, 9, 4, 72
2, 3031, Note_on_c, 9, 46, 6
2, 3057, Control_c, 9, 4, 0
2, 3119, Note_on_c, 9, 46, 0
2, 3126, Control_c, 9, 17, 70
2, 3128, Note_on_c, 9, 51, 77
2, 3129, Control_c, 9, 16, 117
2, 3130, Note_on_c, 9, 40, 54
2, 3136, Control_c, 9, 4, 67
2, 3139, Note_on_c, 9, 44, 119
2, 3166, Control_c, 9, 4, 80
2, 3214, Control_c, 9, 4, 48
2, 3215, Note_on_c, 9, 40, 0
2, 3215, Note_on_c, 9, 51, 0
2, 3227, Note_on_c, 9, 44, 0
2, 3257, Control_c, 9, 4, 66
2, 3350, Control_c, 9, 17, 70
2, 3351, Note_on_c, 9, 51, 31
2, 3382, Control_c, 9, 4, 60
2, 3433, Control_c, 9, 4, 44
2, 3439, Note_on_c, 9, 51, 0
2, 3470, Control_c, 9, 4, 0
2, 3580, Control_c, 9, 4, 64
2, 3584, Note_on_c, 9, 44, 74
2, 3597, Control_c, 9, 17, 41
2, 3597, Note_on_c, 9, 51, 64
2, 3612, Control_c, 9, 4, 89
2, 3673, Note_on_c, 9, 44, 0
2, 3685, Note_on_c, 9, 51, 0
2, 3860, Control_c, 9, 16, 0
2, 3861, Control_c, 9, 17, 42
2, 3861, Note_on_c, 9, 40, 68
2, 3863, Note_on_c, 9, 51, 75
2, 3949, Note_on_c, 9, 40, 0
2, 3949, Note_on_c, 9, 51, 0
2, 3970, Control_c, 9, 4, 72
2, 4019, Control_c, 9, 4, 0
2, 4092, Control_c, 9, 4, 67
2, 4093, Control_c, 9, 17, 44
2, 4094, Note_on_c, 9, 51, 38
2, 4096, Note_on_c, 9, 44, 106
2, 4122, Control_c, 9, 4, 77
2, 4159, Control_c, 9, 4, 53
2, 4182, Note_on_c, 9, 51, 0
2, 4183, Note_on_c, 9, 44, 0
2, 4225, Control_c, 9, 4, 64
2, 4359, Note_on_c, 9, 36, 68
2, 4363, Control_c, 9, 17, 8
2, 4364, Note_on_c, 9, 51, 73
2, 4389, Control_c, 9, 4, 59
2, 4427, Control_c, 9, 4, 44
2, 4448, Note_on_c, 9, 36, 0
2, 4451, Note_on_c, 9, 51, 0
2, 4461, Control_c, 9, 4, 0
2, 4559, Control_c, 9, 4, 64
2, 4564, Note_on_c, 9, 44, 74
2, 4592, Control_c, 9, 4, 88
2, 4605, Control_c, 9, 17, 25
2, 4606, Note_on_c, 9, 51, 48
2, 4652, Note_on_c, 9, 44, 0
2, 4693, Note_on_c, 9, 51, 0
2, 4750, Control_c, 9, 4, 84
2, 4819, Control_c, 9, 4, 88
2, 4828, Control_c, 9, 17, 25
2, 4828, Note_on_c, 9, 51, 69
2, 4855, Control_c, 9, 4, 92
2, 4908, Control_c, 9, 4, 85
2, 4917, Note_on_c, 9, 51, 0
2, 4943, Control_c, 9, 4, 70
2, 4989, Control_c, 9, 4, 0
2, 5051, Control_c, 9, 17, 37
2, 5052, Note_on_c, 9, 51, 53
2, 5066, Control_c, 9, 16, 9
2, 5066, Note_on_c, 9, 40, 64
2, 5068, Note_on_c, 9, 44, 113
2, 5073, Control_c, 9, 4, 93
2, 5117, Control_c, 9, 4, 63
2, 5140, Note_on_c, 9, 51, 0
2, 5149, Control_c, 9, 4, 50
2, 5155, Note_on_c, 9, 40, 0
2, 5156, Note_on_c, 9, 44, 0
2, 5184, Control_c, 9, 4, 63
2, 5294, Control_c, 9, 17, 17
2, 5294, Note_on_c, 9, 51, 53
2, 5340, Control_c, 9, 4, 59
2, 5380, Control_c, 9, 4, 43
2, 5382, Note_on_c, 9, 51, 0
2, 5416, Control_c, 9, 4, 0
2, 5528, Control_c, 9, 4, 65
2, 5530, Control_c, 9, 17, 12
2, 5531, Note_on_c, 9, 51, 61
2, 5533, Note_on_c, 9, 44, 74
2, 5544, Note_on_c, 9, 48, 53
2, 5560, Control_c, 9, 4, 89
2, 5619, Note_on_c, 9, 51, 0
2, 5621, Note_on_c, 9, 44, 0
2, 5632, Note_on_c, 9, 48, 0
2, 5728, Control_c, 9, 4, 85
2, 5774, Control_c, 9, 4, 90
2, 5782, Note_on_c, 9, 48, 73
2, 5789, Control_c, 9, 17, 45
2, 5789, Note_on_c, 9, 51, 69
2, 5865, Control_c, 9, 4, 83
2, 5870, Note_on_c, 9, 48, 0
2, 5877, Note_on_c, 9, 51, 0
2, 5898, Control_c, 9, 4, 68
2, 5933, Control_c, 9, 4, 0
2, 6010, Control_c, 9, 4, 66
2, 6012, Note_on_c, 9, 44, 106
2, 6016, Control_c, 9, 17, 47
2, 6016, Note_on_c, 9, 51, 46
2, 6040, Control_c, 9, 4, 79
2, 6089, Control_c, 9, 4, 48
2, 6101, Note_on_c, 9, 44, 0
2, 6105, Note_on_c, 9, 51, 0
2, 6137, Control_c, 9, 4, 63
2, 6265, Control_c, 9, 17, 19
2, 6265, Note_on_c, 9, 51, 73
2, 6267, Note_on_c, 9, 36, 87
2, 6293, Control_c, 9, 4, 59
2, 6339, Control_c, 9, 4, 44
2, 6353, Note_on_c, 9, 51, 0
2, 6355, Note_on_c, 9, 36, 0
2, 6379, Control_c, 9, 4, 0
2, 6474, Control_c, 9, 4, 66
2, 6479, Note_on_c, 9, 44, 74
2, 6485, Control_c, 9, 17, 28
2, 6485, Note_on_c, 9, 51, 58
2, 6507, Control_c, 9, 4, 89
2, 6567, Note_on_c, 9, 44, 0
2, 6573, Note_on_c, 9, 51, 0
2, 6615, Control_c, 9, 17, 53
2, 6615, Note_on_c, 9, 51, 53
2, 6665, Control_c, 9, 4, 84
2, 6702, Note_on_c, 9, 51, 0
2, 6725, Control_c, 9, 17, 117
2, 6726, Note_on_c, 9, 51, 51
2, 6733, Control_c, 9, 4, 89
2, 6781, Control_c, 9, 4, 94
2, 6814, Note_on_c, 9, 51, 0
2, 6827, Control_c, 9, 4, 88
2, 6862, Control_c, 9, 4, 71
2, 6909, Control_c, 9, 4, 0
2, 6984, Control_c, 9, 4, 33
2, 6987, Control_c, 9, 16, 0
2, 6988, Note_on_c, 9, 40, 69
2, 6989, Control_c, 9, 17, 41
2, 6989, Note_on_c, 9, 51, 88
2, 6993, Note_on_c, 9, 44, 119
2, 7018, Control_c, 9, 4, 82
2, 7063, Control_c, 9, 4, 48
2, 7076, Note_on_c, 9, 40, 0
2, 7077, Note_on_c, 9, 51, 0
2, 7079, Note_on_c, 9, 44, 0
2, 7105, Control_c, 9, 4, 65
2, 7220, Control_c, 9, 17, 55
2, 7221, Note_on_c, 9, 51, 44
2, 7262, Control_c, 9, 4, 60
2, 7305, Control_c, 9, 4, 46
2, 7308, Note_on_c, 9, 51, 0
2, 7346, Control_c, 9, 4, 0
2, 7446, Control_c, 9, 4, 65
2, 7451, Note_on_c, 9, 44, 74
2, 7461, Control_c, 9, 18, 0
2, 7462, Control_c, 9, 17, 14
2, 7462, Note_on_c, 9, 48, 55
2, 7464, Note_on_c, 9, 51, 75
2, 7478, Control_c, 9, 4, 89
2, 7539, Note_on_c, 9, 44, 0
2, 7549, Note_on_c, 9, 48, 0
2, 7551, Note_on_c, 9, 51, 0
2, 7552, End_track
0, 0, End_of_file
