0, 0, Header, 1, 2, 480
1, 0, Start_track
1, 0, Tempo, 588235
1, 0, Time_signature, 4, 2, 24, 8
1, 0, Key_signature, 0, "major"
1, 1, End_track
2, 0, Start_track
2, 0, Title_t, "Classic Studio Kit"
2, 0, Program_c, 9, 0
2, 0, Control_c, 9, 18, 0
2, 14, Control_c, 9, 4, 108
2, 20, Control_c, 9, 17, 53
2, 20, Note_on_c, 9, 51, 58
2, 35, Control_c, 9, 18, 42
2, 36, Note_on_c, 9, 48, 67
2, 102, Note_on_c, 9, 51, 0
2, 112, Control_c, 9, 4, 102
2, 117, Note_on_c, 9, 48, 0
2, 142, Control_c, 9, 17, 17
2, 142, Note_on_c, 9, 51, 80
2, 155, Control_c, 9, 4, 92
2, 213, Control_c, 9, 4, 87
2, 224, Note_on_c, 9, 51, 0
2, 250, Control_c, 9, 4, 97
2, 250, Note_on_c, 9, 36, 67
2, 292, Control_c, 9, 4, 110
2, 324, Control_c, 9, 4, 94
2, 333, Note_on_c, 9, 36, 0
2, 492, Control_c, 9, 17, 0
2, 492, Note_on_c, 9, 51, 118
2, 494, Note_on_c, 9, 38, 103
2, 496, Note_on_c, 9, 36, 76
2, 522, Control_c, 9, 4, 102
2, 574, Note_on_c, 9, 38, 0
2, 574, Note_on_c, 9, 51, 0
2, 579, Note_on_c, 9, 36, 0
2, 595, Control_c, 9, 4, 91
2, 632, Control_c, 9, 4, 73
2, 669, Control_c, 9, 4, 0
2, 734, Note_on_c, 9, 44, 127
2, 740, Control_c, 9, 4, 127
2, 745, Control_c, 9, 17, 22
2, 745, Note_on_c, 9, 51, 81
2, 787, Control_c, 9, 4, 118
2, 816, Note_on_c, 9, 44, 0
2, 822, Control_c, 9, 4, 90
2, 827, Note_on_c, 9, 51, 0
2, 851, Control_c, 9, 18, 0
2, 852, Note_on_c, 9, 48, 47
2, 865, Note_on_c, 9, 36, 65
2, 934, Note_on_c, 9, 48, 0
2, 948, Note_on_c, 9, 36, 0
2, 953, Control_c, 9, 4, 110
2, 966, Control_c, 9, 17, 45
2, 966, Note_on_c, 9, 51, 68
2, 979, Note_on_c, 9, 48, 69
2, 1016, Control_c, 9, 4, 98
2, 1049, Note_on_c, 9, 51, 0
2, 1061, Note_on_c, 9, 48, 0
2, 1083, Control_c, 9, 17, 1
2, 1083, Note_on_c, 9, 51, 87
2, 1165, Note_on_c, 9, 51, 0
2, 1186, Control_c, 9, 4, 106
2, 1202, Note_on_c, 9, 36, 57
2, 1252, Control_c, 9, 4, 99
2, 1285, Note_on_c, 9, 36, 0
2, 1287, Control_c, 9, 4, 84
2, 1321, Control_c, 9, 4, 70
2, 1326, Control_c, 9, 17, 43
2, 1327, Note_on_c, 9, 51, 57
2, 1355, Control_c, 9, 4, 0
2, 1409, Note_on_c, 9, 51, 0
2, 1418, Note_on_c, 9, 46, 6
2, 1430, Control_c, 9, 4, 49
2, 1435, Note_on_c, 9, 44, 126
2, 1447, Note_on_c, 9, 36, 75
2, 1450, Control_c, 9, 16, 0
2, 1451, Control_c, 9, 17, 0
2, 1451, Note_on_c, 9, 38, 91
2, 1453, Note_on_c, 9, 51, 96
2, 1460, Control_c, 9, 4, 120
2, 1500, Note_on_c, 9, 46, 0
2, 1507, Control_c, 9, 4, 98
2, 1516, Note_on_c, 9, 44, 0
2, 1530, Note_on_c, 9, 36, 0
2, 1532, Note_on_c, 9, 38, 0
2, 1533, Note_on_c, 9, 51, 0
2, 1552, Control_c, 9, 4, 85
2, 1669, Control_c, 9, 4, 116
2, 1693, Control_c, 9, 17, 85
2, 1694, Note_on_c, 9, 51, 76
2, 1759, Control_c, 9, 4, 99
2, 1776, Note_on_c, 9, 51, 0
2, 1794, Control_c, 9, 4, 85
2, 1813, Control_c, 9, 18, 0
2, 1813, Note_on_c, 9, 48, 45
2, 1826, Note_on_c, 9, 36, 61
2, 1827, Control_c, 9, 4, 70
2, 1868, Control_c, 9, 4, 0
2, 1895, Note_on_c, 9, 48, 0
2, 1908, Note_on_c, 9, 36, 0
2, 1917, Control_c, 9, 17, 52
2, 1917, Note_on_c, 9, 51, 63
2, 1935, Control_c, 9, 4, 35
2, 1937, Note_on_c, 9, 48, 73
2, 1941, Note_on_c, 9, 44, 127
2, 1966, Control_c, 9, 4, 127
2, 1999, Note_on_c, 9, 51, 0
2, 2009, Control_c, 9, 4, 108
2, 2019, Note_on_c, 9, 48, 0
2, 2022, Note_on_c, 9, 44, 0
2, 2041, Control_c, 9, 4, 91
2, 2044, Control_c, 9, 17, 17
2, 2044, Note_on_c, 9, 51, 84
2, 2126, Note_on_c, 9, 51, 0
2, 2152, Control_c, 9, 4, 112
2, 2176, Note_on_c, 9, 36, 60
2, 2182, Control_c, 9, 4, 98
2, 2217, Control_c, 9, 4, 93
2, 2258, Note_on_c, 9, 36, 0
2, 2412, Note_on_c, 9, 38, 86
2, 2415, Control_c, 9, 17, 2
2, 2415, Note_on_c, 9, 51, 122
2, 2421, Note_on_c, 9, 36, 81
2, 2442, Control_c, 9, 4, 112
2, 2493, Note_on_c, 9, 38, 0
2, 2496, Note_on_c, 9, 51, 0
2, 2502, Note_on_c, 9, 36, 0
2, 2504, Control_c, 9, 4, 91
2, 2537, Control_c, 9, 4, 74
2, 2580, Control_c, 9, 4, 0
2, 2643, Control_c, 9, 4, 33
2, 2650, Note_on_c, 9, 44, 127
2, 2660, Control_c, 9, 17, 53
2, 2661, Note_on_c, 9, 51, 79
2, 2675, Control_c, 9, 4, 127
2, 2720, Control_c, 9, 4, 100
2, 2732, Note_on_c, 9, 44, 0
2, 2742, Note_on_c, 9, 51, 0
2, 2761, Control_c, 9, 4, 88
2, 2768, Control_c, 9, 18, 0
2, 2769, Note_on_c, 9, 48, 47
2, 2773, Note_on_c, 9, 36, 61
2, 2851, Note_on_c, 9, 48, 0
2, 2856, Note_on_c, 9, 36, 0
2, 2873, Control_c, 9, 4, 122
2, 2876, Control_c, 9, 17, 51
2, 2876, Note_on_c, 9, 51, 62
2, 2894, Note_on_c, 9, 48, 72
2, 2947, Control_c, 9, 4, 97
2, 2958, Note_on_c, 9, 51, 0
2, 2975, Note_on_c, 9, 48, 0
2, 2979, Control_c, 9, 4, 82
2, 2999, Control_c, 9, 17, 8
2, 3000, Note_on_c, 9, 51, 82
2, 3029, Control_c, 9, 4, 54
2, 3064, Control_c, 9, 4, 0
2, 3082, Note_on_c, 9, 51, 0
2, 3103, Note_on_c, 9, 36, 74
2, 3105, Note_on_c, 9, 44, 93
2, 3111, Control_c, 9, 4, 127
2, 3153, Control_c, 9, 4, 116
2, 3185, Note_on_c, 9, 36, 0
2, 3185, Note_on_c, 9, 44, 0
2, 3193, Control_c, 9, 4, 90
2, 3238, Control_c, 9, 17, 19
2, 3238, Note_on_c, 9, 51, 58
2, 3309, Control_c, 9, 4, 98
2, 3320, Note_on_c, 9, 51, 0
2, 3334, Note_on_c, 9, 36, 78
2, 3349, Control_c, 9, 4, 104
2, 3351, Control_c, 9, 16, 0
2, 3352, Note_on_c, 9, 38, 106
2, 3362, Control_c, 9, 17, 0
2, 3363, Note_on_c, 9, 51, 101
2, 3391, Control_c, 9, 4, 93
2, 3416, Note_on_c, 9, 36, 0
2, 3433, Note_on_c, 9, 38, 0
2, 3444, Note_on_c, 9, 51, 0
2, 3548, Control_c, 9, 4, 116
2, 3597, Control_c, 9, 17, 23
2, 3597, Note_on_c, 9, 51, 86
2, 3643, Control_c, 9, 4, 91
2, 3679, Note_on_c, 9, 51, 0
2, 3682, Note_on_c, 9, 36, 58
2, 3686, Control_c, 9, 4, 74
2, 3707, Control_c, 9, 18, 0
2, 3707, Note_on_c, 9, 48, 46
2, 3727, Control_c, 9, 4, 0
2, 3765, Note_on_c, 9, 36, 0
2, 3788, Note_on_c, 9, 48, 0
2, 3797, Control_c, 9, 4, 51
2, 3801, Note_on_c, 9, 44, 127
2, 3826, Control_c, 9, 17, 46
2, 3827, Control_c, 9, 4, 127
2, 3827, Note_on_c, 9, 51, 63
2, 3836, Note_on_c, 9, 50, 91
2, 3864, Control_c, 9, 4, 110
2, 3883, Note_on_c, 9, 44, 0
2, 3895, Control_c, 9, 4, 94
2, 3908, Note_on_c, 9, 51, 0
2, 3917, Note_on_c, 9, 50, 0
2, 3948, Control_c, 9, 17, 26
2, 3949, Note_on_c, 9, 51, 75
2, 4031, Note_on_c, 9, 51, 0
2, 4033, Control_c, 9, 4, 112
2, 4054, Note_on_c, 9, 36, 65
2, 4072, Control_c, 9, 4, 98
2, 4137, Note_on_c, 9, 36, 0
2, 4263, Control_c, 9, 4, 94
2, 4303, Note_on_c, 9, 36, 81
2, 4319, Note_on_c, 9, 38, 82
2, 4320, Control_c, 9, 17, 0
2, 4320, Note_on_c, 9, 51, 114
2, 4346, Control_c, 9, 4, 110
2, 4386, Note_on_c, 9, 36, 0
2, 4400, Note_on_c, 9, 38, 0
2, 4401, Note_on_c, 9, 51, 0
2, 4415, Control_c, 9, 4, 92
2, 4452, Control_c, 9, 4, 77
2, 4492, Control_c, 9, 4, 0
2, 4558, Note_on_c, 9, 44, 126
2, 4560, Control_c, 9, 17, 54
2, 4561, Note_on_c, 9, 51, 77
2, 4564, Control_c, 9, 4, 127
2, 4608, Control_c, 9, 4, 116
2, 4640, Note_on_c, 9, 44, 0
2, 4642, Note_on_c, 9, 51, 0
2, 4648, Control_c, 9, 4, 91
2, 4669, Control_c, 9, 18, 0
2, 4670, Note_on_c, 9, 48, 46
2, 4694, Note_on_c, 9, 36, 62
2, 4751, Note_on_c, 9, 48, 0
2, 4774, Control_c, 9, 4, 108
2, 4777, Note_on_c, 9, 36, 0
2, 4782, Control_c, 9, 17, 58
2, 4783, Note_on_c, 9, 51, 62
2, 4794, Note_on_c, 9, 48, 68
2, 4807, Control_c, 9, 4, 114
2, 4865, Note_on_c, 9, 51, 0
2, 4875, Note_on_c, 9, 48, 0
2, 4895, Control_c, 9, 4, 93
2, 4907, Control_c, 9, 17, 14
2, 4907, Note_on_c, 9, 51, 81
2, 4932, Control_c, 9, 4, 71
2, 4962, Control_c, 9, 4, 0
2, 4989, Note_on_c, 9, 51, 0
2, 5029, Note_on_c, 9, 36, 74
2, 5037, Note_on_c, 9, 44, 127
2, 5042, Control_c, 9, 4, 127
2, 5087, Control_c, 9, 4, 114
2, 5112, Note_on_c, 9, 36, 0
2, 5118, Note_on_c, 9, 44, 0
2, 5126, Control_c, 9, 4, 90
2, 5166, Control_c, 9, 17, 12
2, 5167, Note_on_c, 9, 51, 72
2, 5248, Note_on_c, 9, 51, 0
2, 5250, Control_c, 9, 4, 108
2, 5261, Note_on_c, 9, 36, 73
2, 5278, Control_c, 9, 16, 0
2, 5278, Note_on_c, 9, 38, 77
2, 5282, Control_c, 9, 17, 0
2, 5283, Note_on_c, 9, 51, 115
2, 5290, Control_c, 9, 4, 97
2, 5322, Control_c, 9, 4, 92
2, 5344, Note_on_c, 9, 36, 0
2, 5359, Note_on_c, 9, 38, 0
2, 5363, Note_on_c, 9, 51, 0
2, 5464, Control_c, 9, 4, 98
2, 5530, Control_c, 9, 17, 13
2, 5530, Note_on_c, 9, 51, 93
2, 5539, Control_c, 9, 4, 108
2, 5611, Control_c, 9, 4, 90
2, 5612, Note_on_c, 9, 51, 0
2, 5633, Control_c, 9, 18, 0
2, 5633, Note_on_c, 9, 48, 46
2, 5646, Control_c, 9, 4, 75
2, 5684, Control_c, 9, 4, 0
2, 5715, Note_on_c, 9, 48, 0
2, 5747, Note_on_c, 9, 46, 11
2, 5756, Control_c, 9, 4, 32
2, 5761, Control_c, 9, 17, 47
2, 5761, Note_on_c, 9, 51, 71
2, 5763, Note_on_c, 9, 44, 127
2, 5768, Note_on_c, 9, 48, 81
2, 5770, Note_on_c, 9, 36, 77
2, 5787, Control_c, 9, 4, 127
2, 5828, Control_c, 9, 4, 106
2, 5830, Note_on_c, 9, 46, 0
2, 5843, Note_on_c, 9, 44, 0
2, 5843, Note_on_c, 9, 51, 0
2, 5849, Note_on_c, 9, 48, 0
2, 5852, Note_on_c, 9, 36, 0
2, 5863, Control_c, 9, 4, 92
2, 5881, Control_c, 9, 17, 17
2, 5881, Note_on_c, 9, 51, 81
2, 5963, Note_on_c, 9, 51, 0
2, 5987, Control_c, 9, 4, 120
2, 6039, Control_c, 9, 4, 96
2, 6071, Control_c, 9, 4, 92
2, 6253, Note_on_c, 9, 38, 74
2, 6262, Control_c, 9, 17, 6
2, 6263, Note_on_c, 9, 51, 123
2, 6264, Note_on_c, 9, 36, 33
2, 6334, Note_on_c, 9, 38, 0
2, 6345, Note_on_c, 9, 36, 0
2, 6345, Note_on_c, 9, 51, 0
2, 6491, Note_on_c, 9, 36, 57
2, 6503, Control_c, 9, 17, 25
2, 6504, Note_on_c, 9, 51, 86
2, 6524, Control_c, 9, 4, 106
2, 6574, Note_on_c, 9, 36, 0
2, 6586, Note_on_c, 9, 51, 0
2, 6593, Control_c, 9, 4, 91
2, 6610, Control_c, 9, 18, 0
2, 6611, Note_on_c, 9, 48, 45
2, 6631, Control_c, 9, 4, 75
2, 6671, Control_c, 9, 4, 0
2, 6693, Note_on_c, 9, 48, 0
2, 6714, Control_c, 9, 17, 37
2, 6715, Note_on_c, 9, 51, 69
2, 6736, Note_on_c, 9, 48, 70
2, 6745, Note_on_c, 9, 44, 126
2, 6752, Control_c, 9, 4, 127
2, 6796, Control_c, 9, 4, 112
2, 6798, Note_on_c, 9, 51, 0
2, 6818, Note_on_c, 9, 48, 0
2, 6828, Note_on_c, 9, 44, 0
2, 6835, Control_c, 9, 17, 6
2, 6835, Note_on_c, 9, 51, 88
2, 6838, Control_c, 9, 4, 93
2, 6917, Note_on_c, 9, 51, 0
2, 6977, Control_c, 9, 4, 108
2, 7020, Control_c, 9, 4, 97
2, 7194, Control_c, 9, 16, 0
2, 7194, Note_on_c, 9, 38, 84
2, 7197, Control_c, 9, 17, 4
2, 7198, Note_on_c, 9, 51, 119
2, 7270, Control_c, 9, 4, 93
2, 7276, Note_on_c, 9, 38, 0
2, 7279, Note_on_c, 9, 51, 0
2, 7443, Control_c, 9, 17, 9
2, 7444, Note_on_c, 9, 51, 96
2, 7525, Note_on_c, 9, 51, 0
2, 7526, End_track
0, 0, End_of_file
