0, 0, Header, 1, 2, 480
1, 0, Start_track
1, 0, Tempo, 588235
1, 0, Time_signature, 4, 2, 24, 8
1, 0, Key_signature, 0, "major"
1, 1, End_track
2, 0, Start_track
2, 0, Title_t, "Classic Studio Kit"
2, 0, Program_c, 9, 0
2, 0, Control_c, 9, 18, 0
2, 15, Control_c, 9, 4, 98
2, 46, Note_on_c, 9, 48, 84
2, 48, Control_c, 9, 17, 45
2, 48, Note_on_c, 9, 51, 74
2, 128, Note_on_c, 9, 48, 0
2, 130, Note_on_c, 9, 51, 0
2, 146, Control_c, 9, 4, 85
2, 164, Control_c, 9, 17, 21
2, 165, Note_on_c, 9, 51, 75
2, 182, Control_c, 9, 4, 70
2, 223, Control_c, 9, 4, 0
2, 246, Note_on_c, 9, 51, 0
2, 267, Control_c, 9, 4, 49
2, 272, Note_on_c, 9, 44, 106
2, 277, Note_on_c, 9, 36, 58
2, 297, Control_c, 9, 4, 120
2, 329, Control_c, 9, 4, 97
2, 353, Note_on_c, 9, 44, 0
2, 359, Note_on_c, 9, 36, 0
2, 363, Control_c, 9, 4, 85
2, 400, Control_c, 9, 17, 3
2, 401, Note_on_c, 9, 51, 91
2, 482, Note_on_c, 9, 51, 0
2, 492, Control_c, 9, 4, 96
2, 518, Note_on_c, 9, 38, 101
2, 524, Note_on_c, 9, 36, 61
2, 599, Note_on_c, 9, 38, 0
2, 606, Note_on_c, 9, 36, 0
2, 623, Control_c, 9, 4, 83
2, 654, Control_c, 9, 4, 70
2, 693, Control_c, 9, 4, 0
2, 746, Control_c, 9, 4, 48
2, 746, Control_c, 9, 17, 8
2, 746, Note_on_c, 9, 51, 86
2, 751, Note_on_c, 9, 44, 106
2, 776, Control_c, 9, 4, 122
2, 813, Control_c, 9, 4, 97
2, 828, Note_on_c, 9, 51, 0
2, 832, Note_on_c, 9, 44, 0
2, 848, Control_c, 9, 4, 84
2, 866, Control_c, 9, 18, 0
2, 866, Note_on_c, 9, 48, 54
2, 880, Note_on_c, 9, 36, 57
2, 948, Note_on_c, 9, 48, 0
2, 963, Note_on_c, 9, 36, 0
2, 969, Control_c, 9, 4, 98
2, 994, Control_c, 9, 17, 44
2, 995, Note_on_c, 9, 51, 76
2, 996, Note_on_c, 9, 48, 79
2, 1075, Note_on_c, 9, 51, 0
2, 1078, Note_on_c, 9, 48, 0
2, 1093, Control_c, 9, 4, 86
2, 1113, Control_c, 9, 17, 40
2, 1114, Note_on_c, 9, 51, 70
2, 1125, Control_c, 9, 4, 70
2, 1169, Control_c, 9, 4, 0
2, 1196, Note_on_c, 9, 51, 0
2, 1213, Control_c, 9, 4, 49
2, 1218, Note_on_c, 9, 44, 100
2, 1222, Note_on_c, 9, 36, 59
2, 1243, Control_c, 9, 4, 120
2, 1293, Control_c, 9, 4, 90
2, 1299, Note_on_c, 9, 44, 0
2, 1304, Note_on_c, 9, 36, 0
2, 1324, Control_c, 9, 4, 85
2, 1424, Control_c, 9, 4, 91
2, 1468, Control_c, 9, 17, 7
2, 1468, Note_on_c, 9, 51, 88
2, 1470, Note_on_c, 9, 36, 59
2, 1472, Control_c, 9, 16, 0
2, 1472, Note_on_c, 9, 38, 77
2, 1550, Note_on_c, 9, 51, 0
2, 1551, Note_on_c, 9, 36, 0
2, 1554, Note_on_c, 9, 38, 0
2, 1568, Control_c, 9, 4, 83
2, 1599, Control_c, 9, 4, 70
2, 1637, Control_c, 9, 4, 0
2, 1701, Control_c, 9, 4, 34
2, 1707, Note_on_c, 9, 44, 127
2, 1717, Control_c, 9, 17, 32
2, 1718, Note_on_c, 9, 51, 83
2, 1732, Control_c, 9, 4, 120
2, 1786, Control_c, 9, 4, 91
2, 1789, Note_on_c, 9, 44, 0
2, 1799, Note_on_c, 9, 51, 0
2, 1825, Control_c, 9, 4, 87
2, 1832, Control_c, 9, 18, 0
2, 1832, Note_on_c, 9, 48, 53
2, 1845, Note_on_c, 9, 36, 62
2, 1914, Note_on_c, 9, 48, 0
2, 1927, Note_on_c, 9, 36, 0
2, 1928, Control_c, 9, 4, 94
2, 1965, Note_on_c, 9, 48, 71
2, 1966, Control_c, 9, 17, 62
2, 1967, Note_on_c, 9, 51, 70
2, 2047, Note_on_c, 9, 48, 0
2, 2047, Note_on_c, 9, 51, 0
2, 2065, Control_c, 9, 4, 87
2, 2081, Control_c, 9, 17, 127
2, 2082, Note_on_c, 9, 51, 70
2, 2100, Control_c, 9, 4, 70
2, 2136, Control_c, 9, 4, 0
2, 2163, Note_on_c, 9, 51, 0
2, 2190, Control_c, 9, 4, 35
2, 2193, Note_on_c, 9, 36, 61
2, 2196, Note_on_c, 9, 44, 126
2, 2221, Control_c, 9, 4, 120
2, 2257, Control_c, 9, 4, 97
2, 2275, Note_on_c, 9, 36, 0
2, 2278, Note_on_c, 9, 44, 0
2, 2295, Control_c, 9, 4, 85
2, 2333, Control_c, 9, 17, 4
2, 2334, Note_on_c, 9, 51, 88
2, 2415, Note_on_c, 9, 51, 0
2, 2417, Control_c, 9, 4, 97
2, 2438, Note_on_c, 9, 36, 65
2, 2446, Note_on_c, 9, 38, 71
2, 2520, Note_on_c, 9, 36, 0
2, 2527, Note_on_c, 9, 38, 0
2, 2542, Control_c, 9, 4, 84
2, 2572, Control_c, 9, 4, 70
2, 2610, Control_c, 9, 4, 0
2, 2671, Control_c, 9, 17, 28
2, 2672, Note_on_c, 9, 51, 80
2, 2673, Note_on_c, 9, 44, 127
2, 2677, Control_c, 9, 4, 127
2, 2715, Control_c, 9, 4, 110
2, 2751, Note_on_c, 9, 51, 0
2, 2752, Note_on_c, 9, 44, 0
2, 2762, Control_c, 9, 4, 85
2, 2795, Control_c, 9, 18, 0
2, 2796, Note_on_c, 9, 48, 48
2, 2799, Note_on_c, 9, 36, 59
2, 2877, Note_on_c, 9, 48, 0
2, 2881, Note_on_c, 9, 36, 0
2, 2889, Control_c, 9, 4, 99
2, 2915, Control_c, 9, 17, 52
2, 2915, Note_on_c, 9, 51, 68
2, 2921, Note_on_c, 9, 48, 72
2, 2996, Note_on_c, 9, 51, 0
2, 3002, Note_on_c, 9, 48, 0
2, 3015, Control_c, 9, 4, 88
2, 3042, Control_c, 9, 17, 39
2, 3043, Note_on_c, 9, 51, 75
2, 3045, Control_c, 9, 4, 70
2, 3080, Control_c, 9, 4, 0
2, 3124, Note_on_c, 9, 51, 0
2, 3140, Control_c, 9, 4, 33
2, 3145, Note_on_c, 9, 36, 59
2, 3147, Note_on_c, 9, 44, 127
2, 3171, Control_c, 9, 4, 122
2, 3205, Control_c, 9, 4, 97
2, 3227, Note_on_c, 9, 36, 0
2, 3227, Note_on_c, 9, 44, 0
2, 3246, Control_c, 9, 4, 85
2, 3374, Control_c, 9, 17, 6
2, 3374, Note_on_c, 9, 51, 90
2, 3376, Control_c, 9, 4, 94
2, 3387, Control_c, 9, 16, 0
2, 3387, Note_on_c, 9, 38, 70
2, 3390, Note_on_c, 9, 36, 65
2, 3456, Note_on_c, 9, 51, 0
2, 3470, Note_on_c, 9, 38, 0
2, 3473, Note_on_c, 9, 36, 0
2, 3514, Control_c, 9, 4, 72
2, 3558, Control_c, 9, 4, 0
2, 3618, Control_c, 9, 4, 32
2, 3624, Note_on_c, 9, 44, 127
2, 3630, Control_c, 9, 17, 36
2, 3631, Note_on_c, 9, 51, 80
2, 3649, Control_c, 9, 4, 122
2, 3686, Control_c, 9, 4, 98
2, 3706, Note_on_c, 9, 44, 0
2, 3712, Note_on_c, 9, 51, 0
2, 3725, Control_c, 9, 4, 85
2, 3736, Control_c, 9, 18, 0
2, 3736, Note_on_c, 9, 48, 48
2, 3745, Note_on_c, 9, 36, 49
2, 3818, Note_on_c, 9, 48, 0
2, 3828, Note_on_c, 9, 36, 0
2, 3851, Control_c, 9, 4, 120
2, 3858, Note_on_c, 9, 48, 73
2, 3862, Control_c, 9, 17, 60
2, 3863, Note_on_c, 9, 51, 65
2, 3916, Control_c, 9, 4, 99
2, 3940, Note_on_c, 9, 48, 0
2, 3944, Note_on_c, 9, 51, 0
2, 3959, Control_c, 9, 4, 72
2, 3987, Control_c, 9, 17, 39
2, 3988, Note_on_c, 9, 51, 76
2, 4006, Control_c, 9, 4, 0
2, 4069, Note_on_c, 9, 51, 0
2, 4090, Control_c, 9, 4, 34
2, 4090, Note_on_c, 9, 36, 65
2, 4095, Note_on_c, 9, 44, 127
2, 4121, Control_c, 9, 4, 120
2, 4172, Note_on_c, 9, 36, 0
2, 4175, Control_c, 9, 4, 95
2, 4178, Note_on_c, 9, 44, 0
2, 4216, Control_c, 9, 4, 70
2, 4230, Control_c, 9, 17, 38
2, 4230, Note_on_c, 9, 51, 71
2, 4250, Control_c, 9, 4, 0
2, 4313, Note_on_c, 9, 51, 0
2, 4320, Note_on_c, 9, 46, 7
2, 4329, Control_c, 9, 4, 32
2, 4335, Note_on_c, 9, 44, 126
2, 4338, Note_on_c, 9, 36, 81
2, 4346, Note_on_c, 9, 38, 71
2, 4360, Control_c, 9, 4, 102
2, 4392, Control_c, 9, 4, 98
2, 4401, Note_on_c, 9, 46, 0
2, 4416, Note_on_c, 9, 44, 0
2, 4421, Note_on_c, 9, 36, 0
2, 4427, Note_on_c, 9, 38, 0
2, 4438, Control_c, 9, 4, 84
2, 4570, Control_c, 9, 17, 41
2, 4571, Note_on_c, 9, 51, 86
2, 4578, Control_c, 9, 4, 120
2, 4636, Control_c, 9, 4, 96
2, 4653, Note_on_c, 9, 51, 0
2, 4679, Control_c, 9, 4, 70
2, 4687, Note_on_c, 9, 36, 54
2, 4688, Control_c, 9, 18, 0
2, 4689, Note_on_c, 9, 48, 50
2, 4713, Control_c, 9, 4, 0
2, 4769, Note_on_c, 9, 36, 0
2, 4769, Note_on_c, 9, 48, 0
2, 4804, Note_on_c, 9, 44, 127
2, 4812, Control_c, 9, 4, 127
2, 4818, Note_on_c, 9, 48, 77
2, 4822, Control_c, 9, 17, 0
2, 4822, Note_on_c, 9, 51, 56
2, 4855, Control_c, 9, 4, 120
2, 4887, Note_on_c, 9, 44, 0
2, 4895, Control_c, 9, 4, 92
2, 4898, Note_on_c, 9, 48, 0
2, 4904, Note_on_c, 9, 51, 0
2, 4943, Control_c, 9, 17, 47
2, 4943, Note_on_c, 9, 51, 69
2, 5025, Note_on_c, 9, 51, 0
2, 5033, Control_c, 9, 4, 110
2, 5037, Note_on_c, 9, 36, 62
2, 5071, Control_c, 9, 4, 102
2, 5104, Control_c, 9, 4, 92
2, 5119, Note_on_c, 9, 36, 0
2, 5240, Control_c, 9, 17, 63
2, 5241, Note_on_c, 9, 51, 62
2, 5271, Note_on_c, 9, 36, 74
2, 5280, Control_c, 9, 16, 0
2, 5281, Note_on_c, 9, 38, 93
2, 5300, Control_c, 9, 4, 96
2, 5322, Note_on_c, 9, 51, 0
2, 5354, Note_on_c, 9, 36, 0
2, 5355, Control_c, 9, 4, 90
2, 5362, Note_on_c, 9, 38, 0
2, 5394, Control_c, 9, 4, 72
2, 5439, Control_c, 9, 4, 0
2, 5512, Note_on_c, 9, 44, 127
2, 5518, Control_c, 9, 17, 43
2, 5519, Note_on_c, 9, 51, 88
2, 5521, Control_c, 9, 4, 127
2, 5562, Control_c, 9, 4, 112
2, 5594, Note_on_c, 9, 44, 0
2, 5598, Control_c, 9, 4, 93
2, 5601, Note_on_c, 9, 51, 0
2, 5631, Control_c, 9, 4, 88
2, 5635, Control_c, 9, 18, 0
2, 5635, Note_on_c, 9, 48, 51
2, 5642, Note_on_c, 9, 36, 53
2, 5718, Note_on_c, 9, 48, 0
2, 5724, Note_on_c, 9, 36, 0
2, 5758, Control_c, 9, 4, 112
2, 5766, Note_on_c, 9, 48, 80
2, 5767, Control_c, 9, 17, 99
2, 5768, Note_on_c, 9, 51, 66
2, 5848, Note_on_c, 9, 48, 0
2, 5850, Note_on_c, 9, 51, 0
2, 5859, Control_c, 9, 4, 92
2, 5891, Control_c, 9, 17, 37
2, 5891, Note_on_c, 9, 51, 69
2, 5892, Control_c, 9, 4, 74
2, 5929, Control_c, 9, 4, 0
2, 5973, Note_on_c, 9, 51, 0
2, 5991, Note_on_c, 9, 36, 62
2, 5996, Note_on_c, 9, 46, 14
2, 6006, Note_on_c, 9, 44, 127
2, 6010, Control_c, 9, 4, 127
2, 6056, Control_c, 9, 4, 120
2, 6073, Note_on_c, 9, 36, 0
2, 6077, Note_on_c, 9, 46, 0
2, 6088, Note_on_c, 9, 44, 0
2, 6094, Control_c, 9, 4, 85
2, 6125, Control_c, 9, 17, 41
2, 6126, Note_on_c, 9, 51, 80
2, 6140, Control_c, 9, 4, 76
2, 6207, Note_on_c, 9, 51, 0
2, 6228, Control_c, 9, 4, 116
2, 6231, Note_on_c, 9, 36, 86
2, 6241, Note_on_c, 9, 38, 75
2, 6259, Control_c, 9, 4, 110
2, 6295, Control_c, 9, 4, 93
2, 6313, Note_on_c, 9, 36, 0
2, 6323, Note_on_c, 9, 38, 0
2, 6341, Control_c, 9, 4, 81
2, 6389, Control_c, 9, 4, 70
2, 6425, Control_c, 9, 4, 50
2, 6462, Control_c, 9, 4, 66
2, 6469, Note_on_c, 9, 44, 28
2, 6480, Control_c, 9, 17, 73
2, 6481, Note_on_c, 9, 51, 96
2, 6494, Control_c, 9, 4, 118
2, 6543, Control_c, 9, 4, 95
2, 6551, Note_on_c, 9, 44, 0
2, 6563, Note_on_c, 9, 51, 0
2, 6574, Control_c, 9, 4, 82
2, 6596, Note_on_c, 9, 36, 59
2, 6599, Control_c, 9, 18, 0
2, 6600, Note_on_c, 9, 48, 46
2, 6607, Control_c, 9, 4, 63
2, 6641, Control_c, 9, 4, 0
2, 6679, Note_on_c, 9, 36, 0
2, 6681, Note_on_c, 9, 48, 0
2, 6704, Control_c, 9, 4, 33
2, 6711, Note_on_c, 9, 44, 113
2, 6720, Control_c, 9, 17, 127
2, 6721, Note_on_c, 9, 51, 63
2, 6723, Note_on_c, 9, 48, 78
2, 6736, Control_c, 9, 4, 120
2, 6774, Control_c, 9, 4, 110
2, 6792, Note_on_c, 9, 44, 0
2, 6803, Note_on_c, 9, 48, 0
2, 6803, Note_on_c, 9, 51, 0
2, 6805, Control_c, 9, 4, 92
2, 6840, Control_c, 9, 17, 56
2, 6840, Note_on_c, 9, 51, 75
2, 6909, Control_c, 9, 4, 88
2, 6922, Note_on_c, 9, 51, 0
2, 6949, Control_c, 9, 4, 112
2, 6959, Note_on_c, 9, 36, 62
2, 6994, Control_c, 9, 4, 94
2, 7027, Control_c, 9, 4, 90
2, 7041, Note_on_c, 9, 36, 0
2, 7194, Control_c, 9, 17, 35
2, 7195, Control_c, 9, 16, 0
2, 7195, Note_on_c, 9, 51, 96
2, 7196, Note_on_c, 9, 38, 77
2, 7201, Note_on_c, 9, 36, 76
2, 7209, Control_c, 9, 4, 95
2, 7240, Control_c, 9, 4, 99
2, 7272, Control_c, 9, 4, 93
2, 7275, Note_on_c, 9, 51, 0
2, 7277, Note_on_c, 9, 38, 0
2, 7284, Note_on_c, 9, 36, 0
2, 7321, Control_c, 9, 4, 70
2, 7359, Control_c, 9, 4, 0
2, 7422, Note_on_c, 9, 46, 11
2, 7430, Control_c, 9, 4, 34
2, 7435, Note_on_c, 9, 44, 127
2, 7445, Control_c, 9, 17, 39
2, 7445, Note_on_c, 9, 51, 78
2, 7461, Control_c, 9, 4, 120
2, 7504, Note_on_c, 9, 46, 0
2, 7517, Note_on_c, 9, 44, 0
2, 7520, Control_c, 9, 4, 92
2, 7527, Note_on_c, 9, 51, 0
2, 7554, Control_c, 9, 18, 0
2, 7555, Note_on_c, 9, 48, 48
2, 7556, Control_c, 9, 4, 87
2, 7566, Note_on_c, 9, 36, 57
2, 7637, Note_on_c, 9, 48, 0
2, 7647, Note_on_c, 9, 36, 0
2, 7673, Control_c, 9, 4, 110
2, 7678, Control_c, 9, 17, 56
2, 7679, End_track
0, 0, End_of_file
