0, 0, Header, 1, 2, 480
1, 0, Start_track
1, 0, Tempo, 588235
1, 0, Time_signature, 4, 2, 24, 8
1, 0, Key_signature, 0, "major"
1, 1, End_track
2, 0, Start_track
2, 0, Title_t, "Classic Studio Kit"
2, 0, Program_c, 9, 0
2, 0, Control_c, 9, 17, 0
2, 40, Control_c, 9, 4, 23
2, 101, Control_c, 9, 4, 0
2, 130, Note_on_c, 9, 48, 54
2, 209, Control_c, 9, 4, 50
2, 211, Note_on_c, 9, 48, 0
2, 216, Note_on_c, 9, 44, 74
2, 242, Control_c, 9, 4, 92
2, 244, Note_on_c, 9, 38, 60
2, 291, Control_c, 9, 4, 118
2, 298, Note_on_c, 9, 44, 0
2, 324, Control_c, 9, 4, 110
2, 326, Note_on_c, 9, 38, 0
2, 359, Control_c, 9, 4, 79
2, 367, Note_on_c, 9, 36, 84
2, 399, Control_c, 9, 4, 0
2, 449, Note_on_c, 9, 36, 0
2, 477, Control_c, 9, 4, 17
2, 477, Control_c, 9, 17, 26
2, 478, Note_on_c, 9, 51, 74
2, 482, Note_on_c, 9, 44, 127
2, 508, Control_c, 9, 4, 78
2, 548, Control_c, 9, 4, 0
2, 559, Note_on_c, 9, 51, 0
2, 564, Note_on_c, 9, 44, 0
2, 595, Control_c, 9, 4, 26
2, 612, Control_c, 9, 16, 0
2, 612, Note_on_c, 9, 38, 52
2, 631, Control_c, 9, 4, 60
2, 694, Note_on_c, 9, 38, 0
2, 698, Control_c, 9, 4, 48
2, 724, Control_c, 9, 17, 0
2, 724, Note_on_c, 9, 51, 60
2, 726, Note_on_c, 9, 36, 77
2, 806, Note_on_c, 9, 51, 0
2, 808, Note_on_c, 9, 36, 0
2, 963, Control_c, 9, 16, 106
2, 963, Note_on_c, 9, 38, 72
2, 965, Control_c, 9, 17, 64
2, 965, Note_on_c, 9, 51, 72
2, 1010, Control_c, 9, 4, 39
2, 1041, Control_c, 9, 4, 0
2, 1046, Note_on_c, 9, 38, 0
2, 1046, Note_on_c, 9, 51, 0
2, 1175, Control_c, 9, 4, 48
2, 1182, Note_on_c, 9, 44, 87
2, 1208, Control_c, 9, 4, 92
2, 1211, Control_c, 9, 17, 127
2, 1211, Note_on_c, 9, 51, 100
2, 1264, Note_on_c, 9, 44, 0
2, 1294, Note_on_c, 9, 51, 0
2, 1327, Control_c, 9, 16, 0
2, 1328, Note_on_c, 9, 38, 27
2, 1379, Control_c, 9, 16, 0
2, 1379, Note_on_c, 9, 38, 0
2, 1381, Note_on_c, 9, 38, 15
2, 1409, Note_on_c, 9, 38, 0
2, 1442, Control_c, 9, 17, 33
2, 1442, Note_on_c, 9, 51, 59
2, 1451, Control_c, 9, 4, 116
2, 1454, Note_on_c, 9, 36, 73
2, 1520, Control_c, 9, 4, 89
2, 1524, Note_on_c, 9, 51, 0
2, 1536, Note_on_c, 9, 36, 0
2, 1552, Control_c, 9, 4, 71
2, 1591, Control_c, 9, 4, 0
2, 1664, Control_c, 9, 4, 35
2, 1669, Note_on_c, 9, 44, 127
2, 1686, Control_c, 9, 17, 70
2, 1687, Note_on_c, 9, 51, 82
2, 1689, Control_c, 9, 16, 126
2, 1690, Note_on_c, 9, 40, 68
2, 1694, Control_c, 9, 4, 82
2, 1733, Control_c, 9, 4, 0
2, 1751, Note_on_c, 9, 44, 0
2, 1768, Note_on_c, 9, 51, 0
2, 1771, Note_on_c, 9, 40, 0
2, 1774, Control_c, 9, 4, 14
2, 1808, Control_c, 9, 4, 69
2, 1808, Note_on_c, 9, 46, 28
2, 1853, Control_c, 9, 4, 63
2, 1889, Note_on_c, 9, 46, 0
2, 1914, Control_c, 9, 4, 50
2, 1917, Note_on_c, 9, 59, 52
2, 1955, Control_c, 9, 4, 0
2, 1999, Note_on_c, 9, 59, 0
2, 2039, Control_c, 9, 18, 0
2, 2040, Note_on_c, 9, 48, 56
2, 2078, Control_c, 9, 4, 49
2, 2085, Note_on_c, 9, 44, 80
2, 2110, Control_c, 9, 4, 89
2, 2121, Note_on_c, 9, 48, 0
2, 2150, Control_c, 9, 16, 0
2, 2151, Note_on_c, 9, 38, 54
2, 2167, Note_on_c, 9, 44, 0
2, 2187, Control_c, 9, 4, 118
2, 2232, Note_on_c, 9, 38, 0
2, 2238, Control_c, 9, 4, 106
2, 2269, Note_on_c, 9, 36, 77
2, 2271, Control_c, 9, 4, 72
2, 2305, Control_c, 9, 4, 0
2, 2351, Note_on_c, 9, 36, 0
2, 2371, Note_on_c, 9, 46, 10
2, 2387, Control_c, 9, 4, 18
2, 2393, Note_on_c, 9, 44, 127
2, 2401, Note_on_c, 9, 49, 9
2, 2402, Control_c, 9, 17, 51
2, 2403, Note_on_c, 9, 51, 72
2, 2418, Control_c, 9, 4, 75
2, 2452, Note_on_c, 9, 46, 0
2, 2455, Control_c, 9, 4, 0
2, 2474, Note_on_c, 9, 44, 0
2, 2483, Note_on_c, 9, 49, 0
2, 2484, Note_on_c, 9, 51, 0
2, 2541, Control_c, 9, 4, 30
2, 2546, Note_on_c, 9, 38, 18
2, 2627, Note_on_c, 9, 38, 0
2, 2636, Control_c, 9, 17, 0
2, 2637, Note_on_c, 9, 51, 74
2, 2706, Control_c, 9, 4, 21
2, 2718, Note_on_c, 9, 51, 0
2, 2741, Control_c, 9, 4, 0
2, 2854, Note_on_c, 9, 44, 61
2, 2864, Control_c, 9, 4, 91
2, 2871, Control_c, 9, 16, 0
2, 2872, Note_on_c, 9, 40, 75
2, 2877, Control_c, 9, 17, 27
2, 2878, Note_on_c, 9, 51, 111
2, 2909, Control_c, 9, 4, 120
2, 2936, Note_on_c, 9, 44, 0
2, 2953, Note_on_c, 9, 40, 0
2, 2958, Control_c, 9, 4, 97
2, 2960, Note_on_c, 9, 51, 0
2, 2997, Control_c, 9, 4, 69
2, 3032, Control_c, 9, 4, 0
2, 3097, Note_on_c, 9, 46, 19
2, 3113, Control_c, 9, 4, 19
2, 3116, Control_c, 9, 17, 54
2, 3117, Note_on_c, 9, 51, 127
2, 3118, Note_on_c, 9, 44, 127
2, 3143, Control_c, 9, 4, 80
2, 3179, Control_c, 9, 4, 0
2, 3179, Note_on_c, 9, 46, 0
2, 3197, Note_on_c, 9, 51, 0
2, 3199, Note_on_c, 9, 44, 0
2, 3247, Note_on_c, 9, 48, 48
2, 3301, Control_c, 9, 4, 6
2, 3329, Note_on_c, 9, 48, 0
2, 3366, Note_on_c, 9, 38, 58
2, 3447, Note_on_c, 9, 38, 0
2, 3459, Control_c, 9, 4, 0
2, 3574, Control_c, 9, 4, 62
2, 3582, Note_on_c, 9, 46, 17
2, 3583, Note_on_c, 9, 44, 54
2, 3607, Control_c, 9, 4, 86
2, 3612, Note_on_c, 9, 36, 92
2, 3613, Control_c, 9, 17, 83
2, 3613, Note_on_c, 9, 51, 85
2, 3619, Control_c, 9, 16, 0
2, 3619, Note_on_c, 9, 40, 77
2, 3657, Control_c, 9, 4, 110
2, 3663, Note_on_c, 9, 44, 0
2, 3663, Note_on_c, 9, 46, 0
2, 3692, Note_on_c, 9, 38, 7
2, 3693, Note_on_c, 9, 36, 0
2, 3694, Note_on_c, 9, 51, 0
2, 3698, Control_c, 9, 4, 92
2, 3701, Note_on_c, 9, 40, 0
2, 3729, Control_c, 9, 4, 72
2, 3751, Control_c, 9, 16, 0
2, 3751, Note_on_c, 9, 38, 0
2, 3751, Note_on_c, 9, 38, 5
2, 3770, Control_c, 9, 4, 0
2, 3772, Note_on_c, 9, 38, 0
2, 3840, Note_on_c, 9, 46, 11
2, 3845, Control_c, 9, 4, 35
2, 3848, Control_c, 9, 17, 0
2, 3849, Note_on_c, 9, 51, 63
2, 3851, Note_on_c, 9, 44, 127
2, 3875, Control_c, 9, 4, 80
2, 3915, Control_c, 9, 4, 0
2, 3921, Note_on_c, 9, 46, 0
2, 3930, Note_on_c, 9, 51, 0
2, 3932, Note_on_c, 9, 44, 0
2, 3970, Control_c, 9, 16, 0
2, 3970, Note_on_c, 9, 38, 27
2, 4052, Note_on_c, 9, 38, 0
2, 4081, Control_c, 9, 17, 0
2, 4081, Note_on_c, 9, 51, 73
2, 4099, Note_on_c, 9, 36, 77
2, 4163, Note_on_c, 9, 51, 0
2, 4181, Note_on_c, 9, 36, 0
2, 4295, Control_c, 9, 4, 0
2, 4296, Note_on_c, 9, 46, 8
2, 4320, Note_on_c, 9, 44, 87
2, 4327, Control_c, 9, 4, 92
2, 4328, Control_c, 9, 17, 17
2, 4329, Control_c, 9, 16, 126
2, 4329, Note_on_c, 9, 51, 97
2, 4331, Note_on_c, 9, 40, 62
2, 4334, Note_on_c, 9, 36, 88
2, 4367, Control_c, 9, 4, 114
2, 4376, Note_on_c, 9, 46, 0
2, 4402, Note_on_c, 9, 44, 0
2, 4404, Control_c, 9, 4, 102
2, 4411, Note_on_c, 9, 40, 0
2, 4411, Note_on_c, 9, 51, 0
2, 4417, Note_on_c, 9, 36, 0
2, 4446, Control_c, 9, 4, 71
2, 4481, Control_c, 9, 4, 0
2, 4556, Control_c, 9, 4, 18
2, 4559, Control_c, 9, 17, 14
2, 4560, Note_on_c, 9, 51, 80
2, 4562, Note_on_c, 9, 44, 127
2, 4587, Control_c, 9, 4, 79
2, 4594, Control_c, 9, 17, 14
2, 4594, Note_on_c, 9, 51, 0
2, 4594, Note_on_c, 9, 51, 46
2, 4623, Control_c, 9, 4, 0
2, 4641, Note_on_c, 9, 51, 0
2, 4643, Note_on_c, 9, 44, 0
2, 4681, Control_c, 9, 16, 0
2, 4682, Note_on_c, 9, 38, 30
2, 4763, Note_on_c, 9, 38, 0
2, 4794, Note_on_c, 9, 44, 80
2, 4797, Control_c, 9, 16, 21
2, 4798, Note_on_c, 9, 38, 54
2, 4804, Control_c, 9, 4, 91
2, 4838, Control_c, 9, 4, 110
2, 4876, Note_on_c, 9, 44, 0
2, 4879, Note_on_c, 9, 38, 0
2, 4898, Control_c, 9, 4, 90
2, 4928, Control_c, 9, 4, 70
2, 4933, Control_c, 9, 18, 0
2, 4933, Note_on_c, 9, 48, 78
2, 4964, Control_c, 9, 4, 0
2, 5016, Note_on_c, 9, 48, 0
2, 5034, Note_on_c, 9, 46, 7
2, 5040, Control_c, 9, 4, 33
2, 5045, Note_on_c, 9, 44, 127
2, 5052, Control_c, 9, 17, 0
2, 5053, Note_on_c, 9, 51, 95
2, 5070, Control_c, 9, 4, 82
2, 5109, Control_c, 9, 4, 0
2, 5115, Note_on_c, 9, 46, 0
2, 5126, Note_on_c, 9, 44, 0
2, 5133, Note_on_c, 9, 51, 0
2, 5158, Control_c, 9, 4, 14
2, 5177, Note_on_c, 9, 36, 76
2, 5189, Control_c, 9, 4, 62
2, 5220, Control_c, 9, 4, 63
2, 5258, Note_on_c, 9, 36, 0
2, 5279, Note_on_c, 9, 40, 63
2, 5296, Control_c, 9, 16, 42
2, 5297, Note_on_c, 9, 38, 104
2, 5359, Note_on_c, 9, 40, 0
2, 5377, Note_on_c, 9, 38, 0
2, 5400, Control_c, 9, 4, 59
2, 5456, Control_c, 9, 4, 63
2, 5515, Note_on_c, 9, 59, 88
2, 5516, Control_c, 9, 4, 67
2, 5516, Note_on_c, 9, 36, 102
2, 5576, Control_c, 9, 4, 92
2, 5597, Note_on_c, 9, 59, 0
2, 5599, Note_on_c, 9, 36, 0
2, 5612, Control_c, 9, 16, 0
2, 5613, Note_on_c, 9, 38, 31
2, 5630, Control_c, 9, 4, 84
2, 5669, Control_c, 9, 4, 55
2, 5688, Note_on_c, 9, 38, 0
2, 5689, Note_on_c, 9, 38, 30
2, 5695, Note_on_c, 9, 38, 0
2, 5700, Control_c, 9, 4, 0
2, 5745, Control_c, 9, 4, 50
2, 5750, Note_on_c, 9, 44, 106
2, 5756, Control_c, 9, 16, 0
2, 5756, Note_on_c, 9, 38, 46
2, 5769, Note_on_c, 9, 38, 0
2, 5775, Control_c, 9, 4, 127
2, 5821, Control_c, 9, 4, 102
2, 5832, Note_on_c, 9, 44, 0
2, 5858, Control_c, 9, 4, 69
2, 5879, Note_on_c, 9, 36, 83
2, 5889, Control_c, 9, 4, 0
2, 5929, Control_c, 9, 4, 0
2, 5929, Note_on_c, 9, 46, 28
2, 5961, Note_on_c, 9, 36, 0
2, 5967, Note_on_c, 9, 46, 0
2, 5968, Note_on_c, 9, 46, 20
2, 5982, Control_c, 9, 4, 50
2, 5985, Note_on_c, 9, 44, 127
2, 5993, Note_on_c, 9, 49, 5
2, 6002, Control_c, 9, 16, 0
2, 6003, Note_on_c, 9, 38, 46
2, 6012, Control_c, 9, 4, 82
2, 6012, Note_on_c, 9, 46, 0
2, 6053, Control_c, 9, 4, 12
2, 6068, Note_on_c, 9, 44, 0
2, 6074, Note_on_c, 9, 49, 0
2, 6083, Note_on_c, 9, 38, 0
2, 6089, Control_c, 9, 4, 32
2, 6119, Control_c, 9, 4, 69
2, 6129, Note_on_c, 9, 48, 81
2, 6163, Control_c, 9, 4, 63
2, 6210, Note_on_c, 9, 48, 0
2, 6249, Note_on_c, 9, 36, 92
2, 6255, Control_c, 9, 18, 0
2, 6256, Note_on_c, 9, 45, 92
2, 6315, Control_c, 9, 4, 48
2, 6331, Note_on_c, 9, 36, 0
2, 6336, Note_on_c, 9, 45, 0
2, 6357, Control_c, 9, 4, 0
2, 6473, Control_c, 9, 4, 64
2, 6473, Note_on_c, 9, 38, 58
2, 6478, Note_on_c, 9, 44, 67
2, 6492, Control_c, 9, 16, 74
2, 6493, Note_on_c, 9, 38, 0
2, 6493, Note_on_c, 9, 38, 82
2, 6504, Control_c, 9, 4, 84
2, 6554, Note_on_c, 9, 38, 0
2, 6559, Note_on_c, 9, 44, 0
2, 6732, Note_on_c, 9, 36, 90
2, 6737, Note_on_c, 9, 45, 87
2, 6741, Control_c, 9, 4, 91
2, 6773, Control_c, 9, 4, 108
2, 6813, Note_on_c, 9, 36, 0
2, 6818, Note_on_c, 9, 45, 0
2, 6825, Control_c, 9, 4, 90
2, 6852, Control_c, 9, 16, 0
2, 6853, Note_on_c, 9, 38, 49
2, 6857, Control_c, 9, 4, 71
2, 6895, Control_c, 9, 4, 0
2, 6934, Note_on_c, 9, 38, 0
2, 6959, Control_c, 9, 4, 33
2, 6965, Note_on_c, 9, 44, 127
2, 6980, Note_on_c, 9, 38, 38
2, 6990, Control_c, 9, 4, 84
2, 7029, Control_c, 9, 4, 37
2, 7047, Note_on_c, 9, 44, 0
2, 7062, Note_on_c, 9, 38, 0
2, 7078, Note_on_c, 9, 36, 46
2, 7081, Control_c, 9, 4, 67
2, 7090, Control_c, 9, 16, 0
2, 7091, Note_on_c, 9, 38, 29
2, 7160, Note_on_c, 9, 36, 0
2, 7171, Note_on_c, 9, 38, 0
2, 7184, Note_on_c, 9, 36, 75
2, 7209, Note_on_c, 9, 55, 66
2, 7266, Note_on_c, 9, 36, 0
2, 7291, Note_on_c, 9, 55, 0
2, 7453, Control_c, 9, 17, 18
2, 7453, Note_on_c, 9, 36, 92
2, 7454, Note_on_c, 9, 51, 127
2, 7510, Control_c, 9, 4, 56
2, 7535, Note_on_c, 9, 36, 0
2, 7535, Note_on_c, 9, 51, 0
2, 7551, Control_c, 9, 4, 0
2, 7555, Note_on_c, 9, 38, 28
2, 7636, Note_on_c, 9, 38, 0
2, 7667, Control_c, 9, 4, 49
2, 7668, End_track
0, 0, End_of_file
