0, 0, Header, 1, 2, 480
1, 0, Start_track
1, 0, Tempo, 588235
1, 0, Time_signature, 4, 2, 24, 8
1, 0, Key_signature, 0, "major"
1, 1, End_track
2, 0, Start_track
2, 0, Title_t, "Classic Studio Kit"
2, 0, Program_c, 9, 0
2, 0, Control_c, 9, 17, 40
2, 34, Control_c, 9, 16, 126
2, 34, Note_on_c, 9, 40, 66
2, 45, Control_c, 9, 17, 127
2, 46, Note_on_c, 9, 51, 116
2, 77, Control_c, 9, 4, 92
2, 116, Note_on_c, 9, 40, 0
2, 127, Note_on_c, 9, 51, 0
2, 178, Control_c, 9, 4, 85
2, 276, Control_c, 9, 4, 97
2, 313, Control_c, 9, 4, 90
2, 516, Control_c, 9, 16, 0
2, 517, Note_on_c, 9, 40, 72
2, 520, Control_c, 9, 17, 0
2, 520, Note_on_c, 9, 51, 104
2, 525, Note_on_c, 9, 36, 84
2, 553, Control_c, 9, 4, 104
2, 591, Control_c, 9, 4, 96
2, 599, Note_on_c, 9, 40, 0
2, 602, Note_on_c, 9, 51, 0
2, 608, Note_on_c, 9, 36, 0
2, 635, Control_c, 9, 4, 72
2, 680, Control_c, 9, 4, 0
2, 755, Note_on_c, 9, 44, 127
2, 760, Control_c, 9, 17, 48
2, 760, Note_on_c, 9, 51, 77
2, 762, Control_c, 9, 4, 127
2, 805, Control_c, 9, 4, 112
2, 837, Note_on_c, 9, 44, 0
2, 841, Note_on_c, 9, 51, 0
2, 854, Control_c, 9, 4, 92
2, 881, Control_c, 9, 18, 0
2, 881, Note_on_c, 9, 48, 44
2, 883, Note_on_c, 9, 36, 86
2, 963, Note_on_c, 9, 48, 0
2, 964, Note_on_c, 9, 36, 0
2, 986, Control_c, 9, 17, 7
2, 986, Note_on_c, 9, 51, 70
2, 987, Control_c, 9, 4, 104
2, 1004, Note_on_c, 9, 50, 103
2, 1019, Control_c, 9, 4, 110
2, 1068, Note_on_c, 9, 51, 0
2, 1072, Control_c, 9, 4, 97
2, 1087, Note_on_c, 9, 50, 0
2, 1116, Control_c, 9, 17, 2
2, 1116, Note_on_c, 9, 51, 86
2, 1118, Control_c, 9, 4, 70
2, 1150, Control_c, 9, 4, 0
2, 1199, Note_on_c, 9, 51, 0
2, 1222, Note_on_c, 9, 36, 76
2, 1222, Note_on_c, 9, 44, 127
2, 1229, Control_c, 9, 4, 127
2, 1265, Control_c, 9, 4, 110
2, 1299, Control_c, 9, 4, 93
2, 1304, Note_on_c, 9, 44, 0
2, 1305, Note_on_c, 9, 36, 0
2, 1334, Control_c, 9, 4, 89
2, 1431, Control_c, 9, 4, 96
2, 1469, Control_c, 9, 17, 0
2, 1469, Note_on_c, 9, 36, 88
2, 1470, Note_on_c, 9, 51, 127
2, 1472, Control_c, 9, 16, 0
2, 1473, Note_on_c, 9, 40, 73
2, 1517, Control_c, 9, 4, 100
2, 1551, Control_c, 9, 16, 53
2, 1551, Note_on_c, 9, 38, 7
2, 1553, Note_on_c, 9, 36, 0
2, 1553, Note_on_c, 9, 51, 0
2, 1554, Control_c, 9, 4, 95
2, 1555, Note_on_c, 9, 40, 0
2, 1597, Control_c, 9, 4, 71
2, 1634, Note_on_c, 9, 38, 0
2, 1639, Control_c, 9, 4, 0
2, 1702, Note_on_c, 9, 44, 127
2, 1708, Control_c, 9, 4, 127
2, 1712, Control_c, 9, 17, 3
2, 1713, Note_on_c, 9, 51, 80
2, 1752, Control_c, 9, 4, 114
2, 1784, Note_on_c, 9, 44, 0
2, 1793, Note_on_c, 9, 51, 0
2, 1794, Control_c, 9, 4, 92
2, 1822, Control_c, 9, 18, 0
2, 1823, Note_on_c, 9, 48, 65
2, 1836, Note_on_c, 9, 36, 89
2, 1890, Control_c, 9, 4, 86
2, 1904, Note_on_c, 9, 48, 0
2, 1918, Note_on_c, 9, 36, 0
2, 1939, Control_c, 9, 17, 9
2, 1940, Note_on_c, 9, 51, 78
2, 1953, Control_c, 9, 4, 98
2, 2022, Note_on_c, 9, 51, 0
2, 2045, Control_c, 9, 4, 91
2, 2083, Control_c, 9, 4, 72
2, 2128, Control_c, 9, 4, 0
2, 2177, Control_c, 9, 4, 48
2, 2179, Control_c, 9, 17, 0
2, 2180, Note_on_c, 9, 51, 108
2, 2183, Control_c, 9, 16, 127
2, 2183, Note_on_c, 9, 44, 113
2, 2184, Note_on_c, 9, 38, 68
2, 2191, Note_on_c, 9, 36, 78
2, 2207, Control_c, 9, 4, 127
2, 2249, Control_c, 9, 4, 95
2, 2262, Note_on_c, 9, 51, 0
2, 2263, Note_on_c, 9, 44, 0
2, 2264, Note_on_c, 9, 38, 0
2, 2272, Note_on_c, 9, 36, 0
2, 2290, Control_c, 9, 4, 85
2, 2392, Control_c, 9, 4, 97
2, 2429, Control_c, 9, 16, 126
2, 2429, Note_on_c, 9, 40, 65
2, 2431, Note_on_c, 9, 36, 95
2, 2435, Control_c, 9, 17, 0
2, 2436, Note_on_c, 9, 51, 106
2, 2474, Control_c, 9, 4, 102
2, 2512, Note_on_c, 9, 40, 0
2, 2515, Note_on_c, 9, 36, 0
2, 2517, Note_on_c, 9, 51, 0
2, 2519, Control_c, 9, 4, 90
2, 2552, Control_c, 9, 4, 71
2, 2591, Control_c, 9, 4, 0
2, 2661, Note_on_c, 9, 44, 127
2, 2667, Control_c, 9, 4, 127
2, 2670, Control_c, 9, 17, 36
2, 2671, Note_on_c, 9, 51, 70
2, 2711, Control_c, 9, 4, 116
2, 2743, Note_on_c, 9, 44, 0
2, 2747, Control_c, 9, 4, 90
2, 2752, Note_on_c, 9, 51, 0
2, 2785, Note_on_c, 9, 48, 46
2, 2792, Note_on_c, 9, 36, 78
2, 2865, Note_on_c, 9, 48, 0
2, 2875, Note_on_c, 9, 36, 0
2, 2893, Control_c, 9, 4, 110
2, 2901, Control_c, 9, 17, 12
2, 2901, Note_on_c, 9, 51, 67
2, 2915, Control_c, 9, 18, 0
2, 2915, Note_on_c, 9, 48, 77
2, 2974, Control_c, 9, 4, 99
2, 2982, Note_on_c, 9, 51, 0
2, 2996, Note_on_c, 9, 48, 0
2, 3008, Control_c, 9, 4, 84
2, 3030, Control_c, 9, 17, 0
2, 3031, Note_on_c, 9, 51, 100
2, 3040, Control_c, 9, 4, 68
2, 3071, Control_c, 9, 4, 0
2, 3112, Note_on_c, 9, 51, 0
2, 3136, Note_on_c, 9, 36, 74
2, 3136, Note_on_c, 9, 44, 127
2, 3141, Control_c, 9, 4, 127
2, 3177, Control_c, 9, 4, 110
2, 3215, Control_c, 9, 4, 91
2, 3217, Note_on_c, 9, 44, 0
2, 3218, Note_on_c, 9, 36, 0
2, 3278, Note_on_c, 9, 51, 97
2, 3359, Note_on_c, 9, 51, 0
2, 3369, Control_c, 9, 4, 102
2, 3381, Note_on_c, 9, 36, 89
2, 3394, Control_c, 9, 16, 127
2, 3395, Note_on_c, 9, 38, 76
2, 3463, Note_on_c, 9, 36, 0
2, 3468, Control_c, 9, 4, 91
2, 3476, Note_on_c, 9, 38, 0
2, 3509, Control_c, 9, 4, 72
2, 3552, Control_c, 9, 4, 0
2, 3612, Control_c, 9, 4, 32
2, 3618, Note_on_c, 9, 44, 127
2, 3619, Control_c, 9, 17, 0
2, 3620, Note_on_c, 9, 51, 118
2, 3643, Control_c, 9, 4, 127
2, 3688, Control_c, 9, 4, 96
2, 3700, Note_on_c, 9, 44, 0
2, 3700, Note_on_c, 9, 51, 0
2, 3725, Control_c, 9, 4, 84
2, 3743, Note_on_c, 9, 36, 78
2, 3744, Note_on_c, 9, 48, 47
2, 3824, Note_on_c, 9, 36, 0
2, 3825, Note_on_c, 9, 48, 0
2, 3842, Control_c, 9, 4, 108
2, 3863, Control_c, 9, 17, 32
2, 3863, Note_on_c, 9, 51, 72
2, 3869, Control_c, 9, 18, 0
2, 3870, Note_on_c, 9, 50, 92
2, 3926, Control_c, 9, 4, 100
2, 3944, Note_on_c, 9, 51, 0
2, 3951, Note_on_c, 9, 50, 0
2, 3960, Control_c, 9, 4, 86
2, 3981, Control_c, 9, 17, 11
2, 3981, Note_on_c, 9, 51, 76
2, 3990, Control_c, 9, 4, 69
2, 4023, Control_c, 9, 4, 0
2, 4063, Note_on_c, 9, 51, 0
2, 4093, Note_on_c, 9, 36, 77
2, 4095, Note_on_c, 9, 44, 127
2, 4099, Control_c, 9, 4, 127
2, 4136, Control_c, 9, 4, 110
2, 4170, Control_c, 9, 4, 92
2, 4174, Note_on_c, 9, 36, 0
2, 4176, Note_on_c, 9, 44, 0
2, 4201, Control_c, 9, 4, 87
2, 4321, Control_c, 9, 4, 100
2, 4334, Control_c, 9, 16, 21
2, 4334, Note_on_c, 9, 38, 74
2, 4336, Control_c, 9, 17, 0
2, 4337, Note_on_c, 9, 51, 116
2, 4341, Note_on_c, 9, 36, 84
2, 4415, Note_on_c, 9, 38, 0
2, 4418, Note_on_c, 9, 51, 0
2, 4422, Note_on_c, 9, 36, 0
2, 4444, Control_c, 9, 4, 85
2, 4476, Control_c, 9, 4, 69
2, 4510, Control_c, 9, 4, 0
2, 4573, Control_c, 9, 4, 35
2, 4578, Note_on_c, 9, 44, 127
2, 4581, Control_c, 9, 17, 50
2, 4581, Note_on_c, 9, 51, 75
2, 4604, Control_c, 9, 4, 127
2, 4641, Control_c, 9, 4, 102
2, 4659, Note_on_c, 9, 44, 0
2, 4662, Note_on_c, 9, 51, 0
2, 4671, Control_c, 9, 4, 90
2, 4703, Note_on_c, 9, 48, 49
2, 4710, Note_on_c, 9, 36, 73
2, 4785, Note_on_c, 9, 48, 0
2, 4792, Note_on_c, 9, 36, 0
2, 4797, Control_c, 9, 4, 102
2, 4818, Control_c, 9, 17, 49
2, 4819, Note_on_c, 9, 51, 68
2, 4828, Control_c, 9, 4, 102
2, 4832, Control_c, 9, 18, 0
2, 4832, Note_on_c, 9, 48, 72
2, 4900, Note_on_c, 9, 51, 0
2, 4914, Note_on_c, 9, 48, 0
2, 4928, Control_c, 9, 4, 90
2, 4946, Control_c, 9, 17, 0
2, 4946, Note_on_c, 9, 51, 94
2, 4972, Control_c, 9, 4, 67
2, 5003, Control_c, 9, 4, 0
2, 5027, Note_on_c, 9, 51, 0
2, 5063, Note_on_c, 9, 36, 71
2, 5065, Note_on_c, 9, 44, 119
2, 5071, Control_c, 9, 4, 127
2, 5111, Control_c, 9, 4, 110
2, 5144, Control_c, 9, 4, 91
2, 5145, Note_on_c, 9, 36, 0
2, 5146, Note_on_c, 9, 44, 0
2, 5204, Control_c, 9, 17, 0
2, 5204, Note_on_c, 9, 51, 105
2, 5286, Note_on_c, 9, 51, 0
2, 5292, Control_c, 9, 4, 97
2, 5310, Control_c, 9, 16, 0
2, 5310, Note_on_c, 9, 38, 77
2, 5314, Note_on_c, 9, 36, 74
2, 5391, Note_on_c, 9, 38, 0
2, 5396, Note_on_c, 9, 36, 0
2, 5408, Control_c, 9, 4, 91
2, 5448, Control_c, 9, 4, 71
2, 5487, Control_c, 9, 4, 0
2, 5534, Control_c, 9, 17, 1
2, 5535, Note_on_c, 9, 51, 108
2, 5550, Note_on_c, 9, 44, 127
2, 5556, Control_c, 9, 4, 127
2, 5600, Control_c, 9, 4, 116
2, 5615, Note_on_c, 9, 51, 0
2, 5632, Note_on_c, 9, 44, 0
2, 5638, Control_c, 9, 4, 89
2, 5667, Note_on_c, 9, 48, 46
2, 5677, Note_on_c, 9, 36, 67
2, 5748, Note_on_c, 9, 48, 0
2, 5759, Note_on_c, 9, 36, 0
2, 5780, Control_c, 9, 4, 108
2, 5783, Control_c, 9, 17, 9
2, 5784, Note_on_c, 9, 51, 90
2, 5788, Control_c, 9, 18, 0
2, 5788, Note_on_c, 9, 48, 72
2, 5860, Control_c, 9, 4, 102
2, 5865, Note_on_c, 9, 51, 0
2, 5869, Note_on_c, 9, 48, 0
2, 5892, Control_c, 9, 4, 89
2, 5911, Control_c, 9, 17, 30
2, 5912, Note_on_c, 9, 51, 73
2, 5925, Control_c, 9, 4, 71
2, 5962, Control_c, 9, 4, 0
2, 5992, Note_on_c, 9, 51, 0
2, 6018, Control_c, 9, 4, 33
2, 6024, Note_on_c, 9, 36, 68
2, 6024, Note_on_c, 9, 44, 127
2, 6050, Control_c, 9, 4, 127
2, 6089, Control_c, 9, 4, 99
2, 6105, Note_on_c, 9, 36, 0
2, 6105, Note_on_c, 9, 44, 0
2, 6126, Control_c, 9, 4, 88
2, 6253, Control_c, 9, 4, 104
2, 6271, Control_c, 9, 17, 0
2, 6272, Note_on_c, 9, 36, 71
2, 6272, Note_on_c, 9, 51, 121
2, 6274, Note_on_c, 9, 38, 87
2, 6353, Note_on_c, 9, 36, 0
2, 6353, Note_on_c, 9, 51, 0
2, 6355, Note_on_c, 9, 38, 0
2, 6363, Control_c, 9, 4, 90
2, 6399, Control_c, 9, 4, 71
2, 6436, Control_c, 9, 4, 0
2, 6504, Note_on_c, 9, 44, 127
2, 6510, Control_c, 9, 4, 127
2, 6516, Control_c, 9, 17, 127
2, 6517, Note_on_c, 9, 51, 77
2, 6554, Control_c, 9, 4, 120
2, 6586, Note_on_c, 9, 44, 0
2, 6598, Control_c, 9, 4, 92
2, 6598, Note_on_c, 9, 51, 0
2, 6633, Control_c, 9, 18, 0
2, 6633, Note_on_c, 9, 48, 47
2, 6644, Note_on_c, 9, 36, 64
2, 6649, Control_c, 9, 4, 88
2, 6715, Note_on_c, 9, 48, 0
2, 6725, Note_on_c, 9, 36, 0
2, 6743, Control_c, 9, 17, 65
2, 6743, Note_on_c, 9, 51, 63
2, 6746, Control_c, 9, 4, 118
2, 6759, Control_c, 9, 18, 85
2, 6759, Note_on_c, 9, 48, 72
2, 6826, Note_on_c, 9, 51, 0
2, 6829, Control_c, 9, 4, 97
2, 6840, Note_on_c, 9, 48, 0
2, 6867, Control_c, 9, 4, 70
2, 6894, Control_c, 9, 17, 61
2, 6894, Note_on_c, 9, 51, 43
2, 6906, Control_c, 9, 4, 0
2, 6976, Note_on_c, 9, 51, 0
2, 6983, Note_on_c, 9, 46, 13
2, 6990, Control_c, 9, 4, 34
2, 6995, Note_on_c, 9, 36, 76
2, 6996, Note_on_c, 9, 44, 127
2, 7021, Control_c, 9, 4, 127
2, 7065, Note_on_c, 9, 46, 0
2, 7073, Control_c, 9, 17, 16
2, 7074, Control_c, 9, 4, 98
2, 7074, Note_on_c, 9, 51, 109
2, 7076, Note_on_c, 9, 36, 0
2, 7076, Note_on_c, 9, 44, 0
2, 7114, Control_c, 9, 4, 70
2, 7154, Control_c, 9, 4, 0
2, 7155, Note_on_c, 9, 51, 0
2, 7224, Note_on_c, 9, 46, 6
2, 7232, Control_c, 9, 4, 34
2, 7233, Control_c, 9, 16, 0
2, 7234, Note_on_c, 9, 38, 74
2, 7239, Note_on_c, 9, 44, 127
2, 7243, Note_on_c, 9, 36, 78
2, 7264, Control_c, 9, 4, 122
2, 7305, Note_on_c, 9, 46, 0
2, 7315, Control_c, 9, 4, 92
2, 7316, Note_on_c, 9, 38, 0
2, 7319, Note_on_c, 9, 44, 0
2, 7324, Note_on_c, 9, 36, 0
2, 7352, Control_c, 9, 4, 81
2, 7465, Control_c, 9, 4, 118
2, 7468, Control_c, 9, 17, 1
2, 7469, Note_on_c, 9, 51, 123
2, 7504, Control_c, 9, 4, 120
2, 7546, Control_c, 9, 4, 90
2, 7549, Note_on_c, 9, 51, 0
2, 7580, Control_c, 9, 4, 71
2, 7584, Note_on_c, 9, 36, 74
2, 7621, Control_c, 9, 4, 0
2, 7667, Note_on_c, 9, 36, 0
2, 7668, End_track
0, 0, End_of_file
