0, 0, Header, 1, 2, 480
1, 0, Start_track
1, 0, Tempo, 588235
1, 0, Time_signature, 4, 2, 24, 8
1, 0, Key_signature, 0, "major"
1, 1, End_track
2, 0, Start_track
2, 0, Title_t, "Classic Studio Kit"
2, 0, Program_c, 9, 0
2, 0, Control_c, 9, 18, 21
2, 2, Control_c, 9, 4, 99
2, 24, Control_c, 9, 18, 0
2, 24, Note_on_c, 9, 48, 63
2, 32, Control_c, 9, 17, 75
2, 33, Note_on_c, 9, 51, 54
2, 98, Control_c, 9, 4, 94
2, 105, Note_on_c, 9, 48, 0
2, 114, Note_on_c, 9, 51, 0
2, 145, Control_c, 9, 4, 83
2, 158, Control_c, 9, 17, 92
2, 158, Note_on_c, 9, 51, 69
2, 191, Control_c, 9, 4, 54
2, 226, Control_c, 9, 4, 0
2, 240, Note_on_c, 9, 51, 0
2, 261, Control_c, 9, 4, 49
2, 266, Note_on_c, 9, 44, 93
2, 274, Note_on_c, 9, 36, 54
2, 291, Control_c, 9, 4, 120
2, 328, Control_c, 9, 4, 97
2, 348, Note_on_c, 9, 44, 0
2, 356, Note_on_c, 9, 36, 0
2, 365, Control_c, 9, 4, 84
2, 490, Control_c, 9, 4, 95
2, 508, Control_c, 9, 17, 27
2, 509, Note_on_c, 9, 51, 87
2, 518, Note_on_c, 9, 36, 58
2, 524, Control_c, 9, 16, 0
2, 524, Note_on_c, 9, 38, 69
2, 590, Note_on_c, 9, 51, 0
2, 601, Note_on_c, 9, 36, 0
2, 606, Note_on_c, 9, 38, 0
2, 629, Control_c, 9, 4, 83
2, 665, Control_c, 9, 4, 70
2, 709, Control_c, 9, 4, 0
2, 752, Control_c, 9, 4, 48
2, 757, Note_on_c, 9, 44, 93
2, 762, Control_c, 9, 17, 65
2, 762, Note_on_c, 9, 51, 75
2, 782, Control_c, 9, 4, 120
2, 819, Control_c, 9, 4, 100
2, 838, Note_on_c, 9, 44, 0
2, 843, Note_on_c, 9, 51, 0
2, 858, Control_c, 9, 4, 85
2, 879, Note_on_c, 9, 48, 46
2, 889, Note_on_c, 9, 36, 51
2, 961, Note_on_c, 9, 48, 0
2, 971, Note_on_c, 9, 36, 0
2, 978, Control_c, 9, 4, 97
2, 1005, Control_c, 9, 18, 0
2, 1006, Note_on_c, 9, 48, 67
2, 1009, Control_c, 9, 17, 65
2, 1010, Note_on_c, 9, 51, 53
2, 1087, Note_on_c, 9, 48, 0
2, 1091, Note_on_c, 9, 51, 0
2, 1107, Control_c, 9, 4, 84
2, 1135, Control_c, 9, 17, 77
2, 1135, Note_on_c, 9, 51, 77
2, 1140, Control_c, 9, 4, 70
2, 1185, Control_c, 9, 4, 0
2, 1217, Note_on_c, 9, 51, 0
2, 1230, Control_c, 9, 4, 33
2, 1236, Note_on_c, 9, 44, 106
2, 1238, Note_on_c, 9, 36, 51
2, 1262, Control_c, 9, 4, 120
2, 1299, Control_c, 9, 4, 97
2, 1319, Note_on_c, 9, 44, 0
2, 1320, Note_on_c, 9, 36, 0
2, 1337, Control_c, 9, 4, 84
2, 1380, Control_c, 9, 17, 31
2, 1381, Note_on_c, 9, 51, 90
2, 1462, Note_on_c, 9, 51, 0
2, 1463, Control_c, 9, 4, 94
2, 1485, Note_on_c, 9, 36, 60
2, 1502, Note_on_c, 9, 38, 62
2, 1568, Note_on_c, 9, 36, 0
2, 1583, Note_on_c, 9, 38, 0
2, 1588, Control_c, 9, 4, 83
2, 1626, Control_c, 9, 4, 70
2, 1670, Control_c, 9, 4, 0
2, 1715, Control_c, 9, 4, 48
2, 1719, Note_on_c, 9, 44, 106
2, 1721, Control_c, 9, 17, 49
2, 1721, Note_on_c, 9, 51, 85
2, 1745, Control_c, 9, 4, 120
2, 1786, Control_c, 9, 4, 95
2, 1801, Note_on_c, 9, 44, 0
2, 1803, Note_on_c, 9, 51, 0
2, 1820, Control_c, 9, 4, 83
2, 1843, Note_on_c, 9, 36, 50
2, 1843, Note_on_c, 9, 48, 43
2, 1925, Note_on_c, 9, 36, 0
2, 1925, Note_on_c, 9, 48, 0
2, 1944, Control_c, 9, 4, 98
2, 1962, Control_c, 9, 18, 0
2, 1963, Note_on_c, 9, 48, 68
2, 1966, Control_c, 9, 17, 63
2, 1967, Note_on_c, 9, 51, 57
2, 2039, Control_c, 9, 4, 94
2, 2044, Note_on_c, 9, 48, 0
2, 2048, Note_on_c, 9, 51, 0
2, 2086, Control_c, 9, 4, 83
2, 2092, Control_c, 9, 17, 122
2, 2093, Note_on_c, 9, 51, 66
2, 2130, Control_c, 9, 4, 54
2, 2161, Control_c, 9, 4, 0
2, 2175, Note_on_c, 9, 51, 0
2, 2202, Control_c, 9, 4, 49
2, 2207, Note_on_c, 9, 44, 100
2, 2209, Note_on_c, 9, 36, 54
2, 2232, Control_c, 9, 4, 114
2, 2265, Control_c, 9, 4, 98
2, 2288, Note_on_c, 9, 44, 0
2, 2291, Note_on_c, 9, 36, 0
2, 2305, Control_c, 9, 4, 85
2, 2413, Control_c, 9, 4, 90
2, 2452, Control_c, 9, 17, 36
2, 2452, Note_on_c, 9, 51, 90
2, 2460, Control_c, 9, 16, 0
2, 2460, Note_on_c, 9, 38, 53
2, 2462, Note_on_c, 9, 36, 57
2, 2536, Note_on_c, 9, 51, 0
2, 2542, Note_on_c, 9, 38, 0
2, 2545, Note_on_c, 9, 36, 0
2, 2556, Control_c, 9, 4, 83
2, 2593, Control_c, 9, 4, 70
2, 2630, Control_c, 9, 4, 0
2, 2681, Control_c, 9, 4, 33
2, 2688, Note_on_c, 9, 44, 113
2, 2691, Control_c, 9, 17, 44
2, 2691, Note_on_c, 9, 51, 72
2, 2714, Control_c, 9, 4, 118
2, 2751, Control_c, 9, 4, 97
2, 2770, Note_on_c, 9, 44, 0
2, 2772, Note_on_c, 9, 51, 0
2, 2792, Control_c, 9, 4, 84
2, 2806, Note_on_c, 9, 48, 46
2, 2826, Note_on_c, 9, 36, 42
2, 2887, Note_on_c, 9, 48, 0
2, 2909, Control_c, 9, 4, 98
2, 2909, Note_on_c, 9, 36, 0
2, 2929, Control_c, 9, 18, 0
2, 2930, Note_on_c, 9, 48, 62
2, 2941, Control_c, 9, 17, 119
2, 2941, Note_on_c, 9, 51, 54
2, 3011, Note_on_c, 9, 48, 0
2, 3021, Control_c, 9, 4, 88
2, 3023, Note_on_c, 9, 51, 0
2, 3061, Control_c, 9, 4, 73
2, 3068, Control_c, 9, 17, 95
2, 3068, Note_on_c, 9, 51, 67
2, 3108, Control_c, 9, 4, 0
2, 3149, Note_on_c, 9, 51, 0
2, 3155, Control_c, 9, 4, 33
2, 3161, Note_on_c, 9, 44, 113
2, 3165, Note_on_c, 9, 36, 57
2, 3181, Control_c, 9, 17, 95
2, 3182, Note_on_c, 9, 51, 5
2, 3186, Control_c, 9, 4, 116
2, 3221, Control_c, 9, 4, 98
2, 3242, Note_on_c, 9, 44, 0
2, 3245, Note_on_c, 9, 36, 0
2, 3259, Control_c, 9, 4, 85
2, 3263, Note_on_c, 9, 51, 0
2, 3302, Control_c, 9, 17, 22
2, 3303, Note_on_c, 9, 51, 89
2, 3373, Control_c, 9, 4, 90
2, 3384, Note_on_c, 9, 51, 0
2, 3419, Note_on_c, 9, 36, 61
2, 3422, Note_on_c, 9, 38, 63
2, 3501, Note_on_c, 9, 36, 0
2, 3503, Note_on_c, 9, 38, 0
2, 3520, Control_c, 9, 4, 83
2, 3558, Control_c, 9, 4, 70
2, 3600, Control_c, 9, 4, 0
2, 3648, Control_c, 9, 4, 32
2, 3653, Control_c, 9, 17, 46
2, 3654, Note_on_c, 9, 51, 69
2, 3656, Note_on_c, 9, 44, 113
2, 3680, Control_c, 9, 4, 120
2, 3719, Control_c, 9, 4, 96
2, 3735, Note_on_c, 9, 51, 0
2, 3737, Note_on_c, 9, 44, 0
2, 3752, Control_c, 9, 4, 83
2, 3784, Note_on_c, 9, 36, 50
2, 3794, Note_on_c, 9, 48, 41
2, 3865, Note_on_c, 9, 36, 0
2, 3875, Note_on_c, 9, 48, 0
2, 3877, Control_c, 9, 4, 97
2, 3910, Control_c, 9, 18, 0
2, 3911, Note_on_c, 9, 48, 59
2, 3916, Control_c, 9, 17, 48
2, 3916, Note_on_c, 9, 51, 78
2, 3971, Control_c, 9, 4, 92
2, 3992, Note_on_c, 9, 48, 0
2, 3998, Note_on_c, 9, 51, 0
2, 4025, Control_c, 9, 4, 79
2, 4051, Control_c, 9, 17, 121
2, 4051, Note_on_c, 9, 51, 72
2, 4058, Control_c, 9, 4, 55
2, 4092, Control_c, 9, 4, 0
2, 4127, Control_c, 9, 4, 49
2, 4131, Note_on_c, 9, 44, 87
2, 4133, Note_on_c, 9, 51, 0
2, 4141, Note_on_c, 9, 36, 46
2, 4157, Control_c, 9, 4, 114
2, 4199, Control_c, 9, 4, 93
2, 4213, Note_on_c, 9, 44, 0
2, 4223, Note_on_c, 9, 36, 0
2, 4239, Control_c, 9, 4, 84
2, 4335, Control_c, 9, 4, 89
2, 4387, Control_c, 9, 17, 37
2, 4388, Note_on_c, 9, 51, 95
2, 4389, Note_on_c, 9, 36, 53
2, 4394, Control_c, 9, 16, 0
2, 4395, Note_on_c, 9, 38, 63
2, 4404, Control_c, 9, 4, 93
2, 4461, Control_c, 9, 4, 87
2, 4469, Note_on_c, 9, 36, 0
2, 4469, Note_on_c, 9, 51, 0
2, 4476, Note_on_c, 9, 38, 0
2, 4500, Control_c, 9, 4, 72
2, 4544, Control_c, 9, 4, 0
2, 4594, Control_c, 9, 4, 49
2, 4600, Note_on_c, 9, 44, 100
2, 4615, Control_c, 9, 17, 42
2, 4616, Note_on_c, 9, 51, 76
2, 4625, Control_c, 9, 4, 116
2, 4667, Control_c, 9, 4, 93
2, 4681, Note_on_c, 9, 44, 0
2, 4698, Note_on_c, 9, 51, 0
2, 4702, Control_c, 9, 4, 83
2, 4729, Note_on_c, 9, 48, 49
2, 4737, Note_on_c, 9, 36, 43
2, 4810, Note_on_c, 9, 48, 0
2, 4818, Control_c, 9, 4, 97
2, 4819, Note_on_c, 9, 36, 0
2, 4850, Control_c, 9, 18, 0
2, 4850, Note_on_c, 9, 48, 68
2, 4851, Control_c, 9, 17, 86
2, 4852, Note_on_c, 9, 51, 63
2, 4931, Note_on_c, 9, 48, 0
2, 4933, Note_on_c, 9, 51, 0
2, 4945, Control_c, 9, 4, 84
2, 4977, Control_c, 9, 4, 70
2, 4979, Control_c, 9, 17, 96
2, 4980, Note_on_c, 9, 51, 69
2, 5023, Control_c, 9, 4, 0
2, 5062, Note_on_c, 9, 51, 0
2, 5066, Control_c, 9, 4, 49
2, 5071, Note_on_c, 9, 46, 61
2, 5072, Note_on_c, 9, 44, 100
2, 5077, Note_on_c, 9, 36, 50
2, 5096, Control_c, 9, 4, 118
2, 5130, Control_c, 9, 4, 97
2, 5152, Note_on_c, 9, 46, 0
2, 5153, Note_on_c, 9, 44, 0
2, 5159, Note_on_c, 9, 36, 0
2, 5169, Control_c, 9, 4, 85
2, 5196, Control_c, 9, 17, 40
2, 5197, Note_on_c, 9, 51, 86
2, 5279, Note_on_c, 9, 51, 0
2, 5301, Control_c, 9, 4, 94
2, 5317, Note_on_c, 9, 38, 56
2, 5332, Note_on_c, 9, 36, 58
2, 5398, Note_on_c, 9, 38, 0
2, 5414, Note_on_c, 9, 36, 0
2, 5417, Control_c, 9, 4, 84
2, 5450, Control_c, 9, 4, 70
2, 5490, Control_c, 9, 4, 0
2, 5545, Control_c, 9, 4, 49
2, 5550, Note_on_c, 9, 44, 113
2, 5551, Control_c, 9, 17, 55
2, 5552, Note_on_c, 9, 51, 77
2, 5575, Control_c, 9, 4, 116
2, 5617, Control_c, 9, 4, 93
2, 5631, Note_on_c, 9, 44, 0
2, 5633, Note_on_c, 9, 51, 0
2, 5655, Control_c, 9, 4, 84
2, 5671, Note_on_c, 9, 48, 44
2, 5679, Note_on_c, 9, 36, 48
2, 5752, Note_on_c, 9, 48, 0
2, 5760, Note_on_c, 9, 36, 0
2, 5773, Control_c, 9, 4, 97
2, 5795, Control_c, 9, 18, 0
2, 5796, Note_on_c, 9, 48, 64
2, 5797, Control_c, 9, 17, 59
2, 5797, Note_on_c, 9, 51, 75
2, 5866, Control_c, 9, 4, 91
2, 5879, Note_on_c, 9, 48, 0
2, 5879, Note_on_c, 9, 51, 0
2, 5897, Control_c, 9, 4, 85
2, 5929, Control_c, 9, 17, 127
2, 5930, Note_on_c, 9, 51, 68
2, 5932, Control_c, 9, 4, 70
2, 5975, Control_c, 9, 4, 0
2, 6012, Note_on_c, 9, 51, 0
2, 6026, Control_c, 9, 4, 49
2, 6031, Note_on_c, 9, 44, 106
2, 6039, Note_on_c, 9, 36, 48
2, 6047, Control_c, 9, 17, 127
2, 6047, Note_on_c, 9, 51, 6
2, 6056, Control_c, 9, 4, 110
2, 6104, Control_c, 9, 4, 91
2, 6113, Note_on_c, 9, 44, 0
2, 6121, Note_on_c, 9, 36, 0
2, 6128, Note_on_c, 9, 51, 0
2, 6136, Control_c, 9, 4, 85
2, 6259, Control_c, 9, 4, 94
2, 6283, Control_c, 9, 17, 44
2, 6284, Note_on_c, 9, 51, 96
2, 6287, Control_c, 9, 16, 0
2, 6287, Note_on_c, 9, 38, 61
2, 6288, Note_on_c, 9, 36, 60
2, 6366, Note_on_c, 9, 51, 0
2, 6369, Note_on_c, 9, 38, 0
2, 6370, Note_on_c, 9, 36, 0
2, 6375, Control_c, 9, 4, 83
2, 6406, Control_c, 9, 4, 70
2, 6448, Control_c, 9, 4, 0
2, 6504, Control_c, 9, 4, 34
2, 6510, Note_on_c, 9, 44, 113
2, 6517, Control_c, 9, 17, 56
2, 6517, Note_on_c, 9, 51, 73
2, 6535, Control_c, 9, 4, 114
2, 6580, Control_c, 9, 4, 92
2, 6592, Note_on_c, 9, 44, 0
2, 6598, Note_on_c, 9, 51, 0
2, 6622, Control_c, 9, 4, 83
2, 6630, Note_on_c, 9, 48, 48
2, 6649, Note_on_c, 9, 36, 43
2, 6712, Note_on_c, 9, 48, 0
2, 6729, Control_c, 9, 4, 97
2, 6731, Note_on_c, 9, 36, 0
2, 6756, Control_c, 9, 18, 0
2, 6757, Note_on_c, 9, 48, 62
2, 6763, Control_c, 9, 17, 109
2, 6763, Note_on_c, 9, 51, 62
2, 6837, Note_on_c, 9, 48, 0
2, 6844, Note_on_c, 9, 51, 0
2, 6855, Control_c, 9, 4, 85
2, 6886, Control_c, 9, 17, 88
2, 6886, Note_on_c, 9, 51, 69
2, 6890, Control_c, 9, 4, 70
2, 6936, Control_c, 9, 4, 0
2, 6968, Note_on_c, 9, 51, 0
2, 6985, Control_c, 9, 4, 49
2, 6990, Note_on_c, 9, 44, 106
2, 6996, Note_on_c, 9, 36, 46
2, 7015, Control_c, 9, 4, 112
2, 7063, Control_c, 9, 4, 91
2, 7072, Note_on_c, 9, 44, 0
2, 7077, Note_on_c, 9, 36, 0
2, 7098, Control_c, 9, 4, 87
2, 7121, Control_c, 9, 17, 51
2, 7122, Note_on_c, 9, 51, 92
2, 7203, Note_on_c, 9, 51, 0
2, 7211, Control_c, 9, 4, 92
2, 7244, Note_on_c, 9, 38, 54
2, 7254, Note_on_c, 9, 36, 58
2, 7325, Note_on_c, 9, 38, 0
2, 7337, Note_on_c, 9, 36, 0
2, 7344, Control_c, 9, 4, 86
2, 7380, Control_c, 9, 4, 71
2, 7427, Control_c, 9, 4, 0
2, 7474, Control_c, 9, 4, 49
2, 7479, Note_on_c, 9, 44, 100
2, 7480, Control_c, 9, 17, 63
2, 7480, Note_on_c, 9, 51, 78
2, 7504, Control_c, 9, 4, 118
2, 7542, Control_c, 9, 4, 97
2, 7561, Note_on_c, 9, 44, 0
2, 7561, Note_on_c, 9, 51, 0
2, 7573, Control_c, 9, 4, 84
2, 7574, End_track
0, 0, End_of_file
