0, 0, Header, 1, 2, 480
1, 0, Start_track
1, 0, Tempo, 500000
1, 0, Time_signature, 4, 2, 24, 8
1, 0, Key_signature, 0, "major"
1, 1, End_track
2, 0, Start_track
2, 0, Title_t, "Midi Drums"
2, 0, Program_c, 9, 0
2, 35, Note_on_c, 9, 38, 127
2, 66, Control_c, 9, 4, 74
2, 101, Control_c, 9, 4, 0
2, 132, Note_on_c, 9, 38, 0
2, 146, Note_on_c, 9, 38, 125
2, 205, Control_c, 9, 4, 9
2, 243, Note_on_c, 9, 38, 0
2, 248, Control_c, 9, 4, 76
2, 249, Note_on_c, 9, 44, 22
2, 262, Note_on_c, 9, 48, 93
2, 279, Control_c, 9, 4, 90
2, 346, Note_on_c, 9, 44, 0
2, 359, Note_on_c, 9, 48, 0
2, 380, Note_on_c, 9, 48, 89
2, 477, Note_on_c, 9, 48, 0
2, 499, Note_on_c, 9, 36, 36
2, 596, Note_on_c, 9, 36, 0
2, 623, Note_on_c, 9, 36, 51
2, 721, Note_on_c, 9, 36, 0
2, 735, Note_on_c, 9, 40, 127
2, 821, Note_on_c, 9, 38, 127
2, 831, Note_on_c, 9, 40, 0
2, 918, Note_on_c, 9, 38, 0
2, 951, Note_on_c, 9, 48, 92
2, 1048, Note_on_c, 9, 48, 0
2, 1077, Note_on_c, 9, 48, 96
2, 1173, Note_on_c, 9, 48, 0
2, 1182, Note_on_c, 9, 45, 93
2, 1279, Note_on_c, 9, 45, 0
2, 1305, Note_on_c, 9, 45, 100
2, 1402, Note_on_c, 9, 45, 0
2, 1424, Note_on_c, 9, 43, 120
2, 1521, Note_on_c, 9, 43, 0
2, 1545, Note_on_c, 9, 43, 127
2, 1641, Note_on_c, 9, 43, 0
2, 1662, Note_on_c, 9, 43, 97
2, 1759, Note_on_c, 9, 43, 0
2, 1778, Note_on_c, 9, 43, 127
2, 1852, Control_c, 9, 4, 77
2, 1875, Note_on_c, 9, 43, 0
2, 1888, Note_on_c, 9, 36, 72
2, 1889, Control_c, 9, 4, 30
2, 1903, Note_on_c, 9, 52, 127
2, 1926, Control_c, 9, 4, 0
2, 1985, Note_on_c, 9, 36, 0
2, 2000, Note_on_c, 9, 52, 0
2, 2407, Control_c, 9, 4, 78
2, 2407, Note_on_c, 9, 44, 87
2, 2438, Control_c, 9, 4, 90
2, 2504, Note_on_c, 9, 44, 0
2, 2868, Note_on_c, 9, 43, 118
2, 2964, Note_on_c, 9, 43, 0
2, 2968, Control_c, 9, 4, 56
2, 3004, Control_c, 9, 4, 39
2, 3035, Control_c, 9, 4, 21
2, 3079, Control_c, 9, 4, 9
2, 3121, Control_c, 9, 4, 0
2, 3336, Control_c, 9, 4, 78
2, 3336, Note_on_c, 9, 44, 70
2, 3358, Note_on_c, 9, 38, 127
2, 3362, Note_on_c, 9, 43, 127
2, 3367, Control_c, 9, 4, 90
2, 3434, Note_on_c, 9, 44, 0
2, 3455, Note_on_c, 9, 38, 0
2, 3459, Note_on_c, 9, 43, 0
2, 3576, Note_on_c, 9, 36, 62
2, 3590, Note_on_c, 9, 43, 45
2, 3673, Note_on_c, 9, 36, 0
2, 3686, Note_on_c, 9, 43, 0
2, 3824, Note_on_c, 9, 43, 127
2, 3920, Note_on_c, 9, 43, 0
2, 4035, Control_c, 9, 4, 74
2, 4052, Note_on_c, 9, 43, 35
2, 4059, Note_on_c, 9, 36, 52
2, 4067, Control_c, 9, 4, 28
2, 4101, Control_c, 9, 4, 11
2, 4148, Note_on_c, 9, 43, 0
2, 4153, Control_c, 9, 4, 0
2, 4156, Note_on_c, 9, 36, 0
2, 4281, Control_c, 9, 4, 78
2, 4281, Note_on_c, 9, 44, 67
2, 4302, Note_on_c, 9, 38, 127
2, 4307, Note_on_c, 9, 58, 127
2, 4312, Control_c, 9, 4, 90
2, 4378, Note_on_c, 9, 44, 0
2, 4399, Note_on_c, 9, 38, 0
2, 4403, Note_on_c, 9, 58, 0
2, 4527, Note_on_c, 9, 43, 48
2, 4528, Note_on_c, 9, 36, 41
2, 4553, Control_c, 9, 4, 57
2, 4590, Control_c, 9, 4, 0
2, 4624, Note_on_c, 9, 36, 0
2, 4624, Note_on_c, 9, 43, 0
2, 4700, Control_c, 9, 4, 7
2, 4732, Control_c, 9, 4, 11
2, 4764, Note_on_c, 9, 48, 86
2, 4767, Note_on_c, 9, 36, 55
2, 4775, Note_on_c, 9, 43, 113
2, 4860, Note_on_c, 9, 48, 0
2, 4864, Note_on_c, 9, 36, 0
2, 4872, Note_on_c, 9, 43, 0
2, 4900, Control_c, 9, 4, 7
2, 4957, Control_c, 9, 4, 0
2, 5007, Note_on_c, 9, 48, 121
2, 5008, Note_on_c, 9, 36, 55
2, 5009, Note_on_c, 9, 43, 94
2, 5104, Note_on_c, 9, 36, 0
2, 5104, Note_on_c, 9, 48, 0
2, 5106, Note_on_c, 9, 43, 0
2, 5223, Control_c, 9, 4, 77
2, 5223, Note_on_c, 9, 44, 82
2, 5239, Note_on_c, 9, 38, 127
2, 5252, Note_on_c, 9, 43, 127
2, 5254, Control_c, 9, 4, 90
2, 5321, Note_on_c, 9, 44, 0
2, 5336, Note_on_c, 9, 38, 0
2, 5349, Note_on_c, 9, 43, 0
2, 5479, Note_on_c, 9, 43, 48
2, 5482, Note_on_c, 9, 36, 70
2, 5505, Control_c, 9, 4, 40
2, 5536, Control_c, 9, 4, 0
2, 5576, Note_on_c, 9, 43, 0
2, 5578, Note_on_c, 9, 36, 0
2, 5740, Note_on_c, 9, 43, 124
2, 5803, Control_c, 9, 4, 0
2, 5838, Note_on_c, 9, 43, 0
2, 5956, Note_on_c, 9, 36, 63
2, 5979, Note_on_c, 9, 43, 53
2, 6053, Note_on_c, 9, 36, 0
2, 6076, Note_on_c, 9, 43, 0
2, 6214, Note_on_c, 9, 38, 127
2, 6216, Control_c, 9, 4, 76
2, 6216, Note_on_c, 9, 44, 85
2, 6222, Note_on_c, 9, 43, 127
2, 6247, Control_c, 9, 4, 90
2, 6311, Note_on_c, 9, 38, 0
2, 6313, Note_on_c, 9, 44, 0
2, 6319, Note_on_c, 9, 43, 0
2, 6458, Note_on_c, 9, 36, 47
2, 6472, Note_on_c, 9, 43, 39
2, 6555, Note_on_c, 9, 36, 0
2, 6568, Note_on_c, 9, 43, 0
2, 6695, Note_on_c, 9, 36, 41
2, 6710, Note_on_c, 9, 43, 111
2, 6711, Note_on_c, 9, 48, 96
2, 6792, Note_on_c, 9, 36, 0
2, 6807, Note_on_c, 9, 43, 0
2, 6807, Note_on_c, 9, 48, 0
2, 6852, Control_c, 9, 4, 75
2, 6884, Control_c, 9, 4, 54
2, 6925, Control_c, 9, 4, 16
2, 6930, Note_on_c, 9, 36, 51
2, 6952, Note_on_c, 9, 45, 78
2, 6957, Note_on_c, 9, 43, 79
2, 6958, Control_c, 9, 4, 0
2, 7027, Note_on_c, 9, 36, 0
2, 7049, Note_on_c, 9, 45, 0
2, 7054, Note_on_c, 9, 43, 0
2, 7182, Control_c, 9, 4, 78
2, 7182, Note_on_c, 9, 44, 90
2, 7188, Note_on_c, 9, 45, 122
2, 7202, Note_on_c, 9, 43, 127
2, 7213, Control_c, 9, 4, 90
2, 7279, Note_on_c, 9, 44, 0
2, 7285, Note_on_c, 9, 45, 0
2, 7299, Note_on_c, 9, 43, 0
2, 7418, Note_on_c, 9, 38, 127
2, 7431, Note_on_c, 9, 43, 113
2, 7515, Note_on_c, 9, 38, 0
2, 7528, Note_on_c, 9, 43, 0
2, 7540, Control_c, 9, 4, 57
2, 7571, Control_c, 9, 4, 0
2, 7572, End_track
0, 0, End_of_file
