0, 0, Header, 1, 2, 480
1, 0, Start_track
1, 0, Tempo, 588235
1, 0, Time_signature, 4, 2, 24, 8
1, 0, Key_signature, 0, "major"
1, 1, End_track
2, 0, Start_track
2, 0, Title_t, "Classic Studio Kit"
2, 0, Program_c, 9, 0
2, 0, Control_c, 9, 16, 0
2, 1, Control_c, 9, 4, 116
2, 25, Control_c, 9, 17, 24
2, 25, Note_on_c, 9, 51, 112
2, 34, Control_c, 9, 4, 120
2, 93, Control_c, 9, 4, 91
2, 108, Note_on_c, 9, 51, 0
2, 125, Control_c, 9, 4, 72
2, 135, Note_on_c, 9, 38, 34
2, 162, Control_c, 9, 4, 0
2, 215, Note_on_c, 9, 38, 0
2, 244, Note_on_c, 9, 46, 13
2, 251, Control_c, 9, 4, 34
2, 257, Note_on_c, 9, 44, 127
2, 260, Control_c, 9, 16, 0
2, 261, Note_on_c, 9, 38, 48
2, 282, Control_c, 9, 4, 98
2, 313, Control_c, 9, 4, 72
2, 325, Note_on_c, 9, 46, 0
2, 338, Note_on_c, 9, 44, 0
2, 343, Note_on_c, 9, 38, 0
2, 388, Control_c, 9, 16, 0
2, 388, Note_on_c, 9, 38, 36
2, 408, Control_c, 9, 4, 72
2, 470, Note_on_c, 9, 38, 0
2, 482, Control_c, 9, 4, 67
2, 496, Note_on_c, 9, 36, 92
2, 507, Control_c, 9, 18, 0
2, 508, Note_on_c, 9, 48, 107
2, 527, Control_c, 9, 4, 46
2, 566, Control_c, 9, 4, 18
2, 578, Note_on_c, 9, 36, 0
2, 589, Note_on_c, 9, 48, 0
2, 597, Control_c, 9, 4, 0
2, 738, Note_on_c, 9, 36, 97
2, 819, Note_on_c, 9, 36, 0
2, 943, Control_c, 9, 4, 0
2, 944, Note_on_c, 9, 46, 8
2, 965, Note_on_c, 9, 44, 100
2, 979, Control_c, 9, 4, 97
2, 983, Control_c, 9, 16, 21
2, 983, Note_on_c, 9, 38, 76
2, 1015, Control_c, 9, 4, 81
2, 1025, Note_on_c, 9, 46, 0
2, 1046, Note_on_c, 9, 44, 0
2, 1065, Note_on_c, 9, 38, 0
2, 1081, Control_c, 9, 4, 71
2, 1085, Control_c, 9, 16, 0
2, 1086, Note_on_c, 9, 38, 8
2, 1167, Note_on_c, 9, 38, 0
2, 1216, Note_on_c, 9, 38, 37
2, 1219, Control_c, 9, 4, 67
2, 1222, Note_on_c, 9, 36, 95
2, 1254, Control_c, 9, 4, 52
2, 1293, Control_c, 9, 4, 0
2, 1297, Note_on_c, 9, 38, 0
2, 1304, Note_on_c, 9, 36, 0
2, 1345, Control_c, 9, 18, 0
2, 1346, Note_on_c, 9, 48, 62
2, 1410, Control_c, 9, 4, 49
2, 1417, Note_on_c, 9, 44, 74
2, 1427, Note_on_c, 9, 48, 0
2, 1441, Control_c, 9, 16, 0
2, 1441, Note_on_c, 9, 38, 67
2, 1443, Control_c, 9, 4, 90
2, 1473, Control_c, 9, 4, 98
2, 1499, Note_on_c, 9, 44, 0
2, 1516, Control_c, 9, 4, 96
2, 1523, Note_on_c, 9, 38, 0
2, 1547, Control_c, 9, 4, 80
2, 1552, Note_on_c, 9, 36, 67
2, 1585, Control_c, 9, 4, 0
2, 1635, Note_on_c, 9, 36, 0
2, 1657, Note_on_c, 9, 46, 6
2, 1665, Control_c, 9, 4, 34
2, 1670, Note_on_c, 9, 44, 127
2, 1672, Note_on_c, 9, 38, 65
2, 1691, Control_c, 9, 18, 85
2, 1691, Note_on_c, 9, 48, 87
2, 1696, Control_c, 9, 4, 80
2, 1731, Control_c, 9, 16, 0
2, 1732, Note_on_c, 9, 38, 0
2, 1733, Note_on_c, 9, 38, 18
2, 1735, Control_c, 9, 4, 37
2, 1738, Note_on_c, 9, 46, 0
2, 1752, Note_on_c, 9, 44, 0
2, 1753, Note_on_c, 9, 38, 0
2, 1773, Note_on_c, 9, 48, 0
2, 1778, Control_c, 9, 4, 69
2, 1897, Control_c, 9, 4, 63
2, 1919, Note_on_c, 9, 38, 36
2, 1931, Note_on_c, 9, 36, 89
2, 1961, Control_c, 9, 4, 48
2, 2000, Note_on_c, 9, 38, 0
2, 2006, Control_c, 9, 4, 0
2, 2014, Note_on_c, 9, 36, 0
2, 2034, Control_c, 9, 16, 0
2, 2034, Note_on_c, 9, 38, 35
2, 2116, Note_on_c, 9, 38, 0
2, 2130, Control_c, 9, 4, 48
2, 2138, Note_on_c, 9, 44, 80
2, 2157, Control_c, 9, 16, 21
2, 2157, Note_on_c, 9, 38, 73
2, 2163, Control_c, 9, 4, 91
2, 2210, Control_c, 9, 4, 95
2, 2220, Note_on_c, 9, 44, 0
2, 2239, Note_on_c, 9, 38, 0
2, 2269, Control_c, 9, 4, 80
2, 2275, Note_on_c, 9, 36, 74
2, 2310, Control_c, 9, 4, 0
2, 2357, Note_on_c, 9, 36, 0
2, 2383, Note_on_c, 9, 46, 9
2, 2389, Control_c, 9, 4, 33
2, 2395, Note_on_c, 9, 44, 127
2, 2400, Control_c, 9, 16, 0
2, 2401, Note_on_c, 9, 38, 70
2, 2420, Control_c, 9, 4, 72
2, 2424, Control_c, 9, 18, 0
2, 2425, Note_on_c, 9, 48, 94
2, 2463, Control_c, 9, 4, 32
2, 2465, Note_on_c, 9, 46, 0
2, 2477, Note_on_c, 9, 44, 0
2, 2482, Note_on_c, 9, 38, 0
2, 2506, Note_on_c, 9, 48, 0
2, 2516, Control_c, 9, 4, 54
2, 2588, Control_c, 9, 4, 48
2, 2630, Control_c, 9, 4, 42
2, 2643, Note_on_c, 9, 38, 35
2, 2656, Note_on_c, 9, 36, 89
2, 2663, Control_c, 9, 4, 24
2, 2698, Control_c, 9, 4, 0
2, 2724, Note_on_c, 9, 38, 0
2, 2738, Note_on_c, 9, 36, 0
2, 2765, Control_c, 9, 16, 0
2, 2766, Note_on_c, 9, 38, 40
2, 2847, Note_on_c, 9, 38, 0
2, 2868, Control_c, 9, 4, 48
2, 2876, Note_on_c, 9, 44, 74
2, 2886, Control_c, 9, 16, 21
2, 2886, Note_on_c, 9, 38, 71
2, 2902, Control_c, 9, 4, 86
2, 2942, Control_c, 9, 4, 74
2, 2958, Note_on_c, 9, 44, 0
2, 2968, Note_on_c, 9, 38, 0
2, 2978, Control_c, 9, 4, 57
2, 3010, Note_on_c, 9, 36, 64
2, 3015, Control_c, 9, 4, 0
2, 3092, Note_on_c, 9, 36, 0
2, 3134, Control_c, 9, 16, 0
2, 3134, Note_on_c, 9, 38, 61
2, 3143, Note_on_c, 9, 44, 93
2, 3158, Control_c, 9, 4, 102
2, 3193, Control_c, 9, 4, 84
2, 3216, Note_on_c, 9, 38, 0
2, 3224, Note_on_c, 9, 44, 0
2, 3260, Control_c, 9, 4, 76
2, 3377, Note_on_c, 9, 38, 55
2, 3390, Note_on_c, 9, 48, 82
2, 3393, Note_on_c, 9, 36, 82
2, 3407, Control_c, 9, 4, 72
2, 3457, Note_on_c, 9, 38, 0
2, 3471, Note_on_c, 9, 48, 0
2, 3474, Note_on_c, 9, 36, 0
2, 3623, Control_c, 9, 16, 0
2, 3623, Note_on_c, 9, 38, 47
2, 3629, Note_on_c, 9, 36, 102
2, 3691, Control_c, 9, 4, 49
2, 3705, Note_on_c, 9, 38, 0
2, 3711, Note_on_c, 9, 36, 0
2, 3726, Control_c, 9, 4, 0
2, 3849, Control_c, 9, 4, 48
2, 3855, Note_on_c, 9, 44, 80
2, 3866, Note_on_c, 9, 38, 48
2, 3881, Control_c, 9, 4, 92
2, 3936, Note_on_c, 9, 44, 0
2, 3947, Note_on_c, 9, 38, 0
2, 3973, Control_c, 9, 4, 87
2, 4064, Control_c, 9, 4, 83
2, 4100, Control_c, 9, 16, 0
2, 4100, Note_on_c, 9, 38, 52
2, 4101, Note_on_c, 9, 36, 93
2, 4109, Control_c, 9, 18, 0
2, 4110, Note_on_c, 9, 50, 99
2, 4147, Control_c, 9, 4, 71
2, 4177, Control_c, 9, 4, 60
2, 4183, Note_on_c, 9, 36, 0
2, 4183, Note_on_c, 9, 38, 0
2, 4192, Note_on_c, 9, 50, 0
2, 4217, Control_c, 9, 4, 0
2, 4321, Control_c, 9, 4, 49
2, 4326, Note_on_c, 9, 44, 93
2, 4338, Control_c, 9, 16, 21
2, 4339, Note_on_c, 9, 38, 45
2, 4352, Control_c, 9, 4, 92
2, 4410, Note_on_c, 9, 44, 0
2, 4420, Note_on_c, 9, 38, 0
2, 4449, Control_c, 9, 4, 88
2, 4453, Control_c, 9, 16, 0
2, 4453, Note_on_c, 9, 38, 31
2, 4536, Note_on_c, 9, 38, 0
2, 4565, Control_c, 9, 4, 84
2, 4572, Note_on_c, 9, 36, 88
2, 4584, Note_on_c, 9, 45, 110
2, 4625, Control_c, 9, 4, 71
2, 4655, Note_on_c, 9, 36, 0
2, 4665, Note_on_c, 9, 45, 0
2, 4669, Control_c, 9, 4, 62
2, 4707, Note_on_c, 9, 38, 34
2, 4708, Control_c, 9, 4, 0
2, 4789, Note_on_c, 9, 38, 0
2, 4804, Control_c, 9, 4, 65
2, 4809, Note_on_c, 9, 44, 67
2, 4823, Control_c, 9, 16, 0
2, 4824, Note_on_c, 9, 38, 35
2, 4834, Control_c, 9, 4, 89
2, 4862, Note_on_c, 9, 38, 0
2, 4863, Note_on_c, 9, 38, 19
2, 4890, Note_on_c, 9, 44, 0
2, 4906, Note_on_c, 9, 38, 0
2, 4924, Control_c, 9, 16, 0
2, 4925, Note_on_c, 9, 38, 16
2, 4927, Control_c, 9, 4, 85
2, 4929, Note_on_c, 9, 36, 52
2, 4943, Note_on_c, 9, 38, 0
2, 5010, Note_on_c, 9, 36, 0
2, 5057, Note_on_c, 9, 38, 38
2, 5059, Note_on_c, 9, 36, 83
2, 5103, Control_c, 9, 4, 80
2, 5137, Control_c, 9, 4, 70
2, 5138, Note_on_c, 9, 38, 0
2, 5141, Note_on_c, 9, 36, 0
2, 5174, Control_c, 9, 4, 48
2, 5179, Control_c, 9, 18, 0
2, 5180, Note_on_c, 9, 48, 64
2, 5205, Control_c, 9, 4, 0
2, 5262, Note_on_c, 9, 48, 0
2, 5281, Control_c, 9, 4, 64
2, 5287, Note_on_c, 9, 44, 61
2, 5302, Control_c, 9, 16, 0
2, 5302, Note_on_c, 9, 38, 87
2, 5312, Control_c, 9, 4, 92
2, 5344, Control_c, 9, 4, 100
2, 5369, Note_on_c, 9, 44, 0
2, 5383, Note_on_c, 9, 38, 0
2, 5388, Control_c, 9, 4, 92
2, 5409, Note_on_c, 9, 36, 78
2, 5418, Control_c, 9, 4, 70
2, 5449, Control_c, 9, 4, 0
2, 5491, Note_on_c, 9, 36, 0
2, 5521, Note_on_c, 9, 46, 11
2, 5528, Control_c, 9, 4, 34
2, 5534, Note_on_c, 9, 44, 127
2, 5537, Note_on_c, 9, 38, 38
2, 5560, Control_c, 9, 4, 89
2, 5598, Control_c, 9, 4, 41
2, 5603, Note_on_c, 9, 46, 0
2, 5616, Note_on_c, 9, 44, 0
2, 5617, Note_on_c, 9, 38, 0
2, 5644, Control_c, 9, 4, 70
2, 5653, Control_c, 9, 16, 0
2, 5654, Note_on_c, 9, 38, 69
2, 5736, Note_on_c, 9, 38, 0
2, 5774, Note_on_c, 9, 36, 87
2, 5781, Note_on_c, 9, 38, 40
2, 5823, Control_c, 9, 4, 63
2, 5857, Note_on_c, 9, 36, 0
2, 5861, Control_c, 9, 4, 47
2, 5863, Note_on_c, 9, 38, 0
2, 5895, Control_c, 9, 4, 0
2, 5900, Note_on_c, 9, 48, 43
2, 5981, Note_on_c, 9, 48, 0
2, 5987, Control_c, 9, 4, 65
2, 5993, Note_on_c, 9, 44, 54
2, 6008, Control_c, 9, 16, 0
2, 6009, Note_on_c, 9, 38, 57
2, 6018, Control_c, 9, 4, 89
2, 6050, Control_c, 9, 4, 95
2, 6074, Note_on_c, 9, 44, 0
2, 6090, Note_on_c, 9, 38, 0
2, 6097, Control_c, 9, 4, 90
2, 6131, Note_on_c, 9, 36, 62
2, 6132, Control_c, 9, 4, 74
2, 6168, Control_c, 9, 4, 39
2, 6202, Control_c, 9, 4, 3
2, 6213, Note_on_c, 9, 36, 0
2, 6234, Control_c, 9, 16, 0
2, 6235, Note_on_c, 9, 38, 63
2, 6237, Note_on_c, 9, 44, 67
2, 6243, Control_c, 9, 4, 110
2, 6277, Control_c, 9, 4, 100
2, 6297, Control_c, 9, 18, 0
2, 6297, Note_on_c, 9, 50, 70
2, 6317, Note_on_c, 9, 38, 0
2, 6317, Note_on_c, 9, 44, 0
2, 6332, Control_c, 9, 4, 88
2, 6359, Note_on_c, 9, 36, 85
2, 6362, Control_c, 9, 4, 84
2, 6379, Note_on_c, 9, 50, 0
2, 6427, Control_c, 9, 18, 60
2, 6428, Note_on_c, 9, 50, 79
2, 6441, Note_on_c, 9, 36, 0
2, 6466, Control_c, 9, 16, 127
2, 6467, Note_on_c, 9, 38, 69
2, 6486, Control_c, 9, 4, 120
2, 6508, Note_on_c, 9, 50, 0
2, 6548, Note_on_c, 9, 38, 0
2, 6550, Control_c, 9, 4, 90
2, 6561, Note_on_c, 9, 36, 76
2, 6592, Control_c, 9, 4, 54
2, 6629, Control_c, 9, 4, 0
2, 6632, Control_c, 9, 16, 0
2, 6633, Note_on_c, 9, 38, 37
2, 6644, Note_on_c, 9, 36, 0
2, 6671, Control_c, 9, 4, 48
2, 6677, Note_on_c, 9, 44, 80
2, 6694, Control_c, 9, 18, 0
2, 6694, Note_on_c, 9, 48, 55
2, 6703, Control_c, 9, 4, 127
2, 6715, Note_on_c, 9, 38, 0
2, 6736, Control_c, 9, 4, 100
2, 6760, Note_on_c, 9, 44, 0
2, 6766, Control_c, 9, 4, 82
2, 6769, Note_on_c, 9, 36, 71
2, 6776, Note_on_c, 9, 48, 0
2, 6802, Control_c, 9, 4, 66
2, 6817, Note_on_c, 9, 48, 55
2, 6841, Control_c, 9, 4, 38
2, 6852, Note_on_c, 9, 36, 0
2, 6882, Note_on_c, 9, 44, 35
2, 6894, Note_on_c, 9, 38, 70
2, 6896, Control_c, 9, 4, 112
2, 6898, Note_on_c, 9, 48, 0
2, 6933, Control_c, 9, 4, 104
2, 6965, Note_on_c, 9, 44, 0
2, 6973, Control_c, 9, 4, 92
2, 6976, Note_on_c, 9, 38, 0
2, 6990, Note_on_c, 9, 36, 74
2, 7045, Control_c, 9, 4, 81
2, 7072, Note_on_c, 9, 36, 0
2, 7114, Control_c, 9, 16, 0
2, 7115, Note_on_c, 9, 38, 38
2, 7136, Control_c, 9, 4, 112
2, 7169, Control_c, 9, 4, 110
2, 7196, Note_on_c, 9, 38, 0
2, 7207, Control_c, 9, 4, 90
2, 7240, Control_c, 9, 4, 72
2, 7248, Control_c, 9, 18, 0
2, 7249, Note_on_c, 9, 48, 88
2, 7272, Control_c, 9, 4, 48
2, 7303, Control_c, 9, 4, 0
2, 7331, Note_on_c, 9, 48, 0
2, 7356, Control_c, 9, 4, 49
2, 7362, Note_on_c, 9, 44, 100
2, 7386, Control_c, 9, 4, 127
2, 7391, Note_on_c, 9, 45, 113
2, 7430, Control_c, 9, 4, 100
2, 7443, Note_on_c, 9, 44, 0
2, 7466, Control_c, 9, 4, 83
2, 7473, Note_on_c, 9, 45, 0
2, 7497, Control_c, 9, 4, 71
2, 7514, Note_on_c, 9, 38, 58
2, 7596, Note_on_c, 9, 38, 0
2, 7623, Control_c, 9, 16, 0
2, 7633, Control_c, 9, 4, 118
2, 7673, Control_c, 9, 4, 97
2, 7674, End_track
0, 0, End_of_file
