0, 0, Header, 1, 2, 480
1, 0, Start_track
1, 0, Tempo, 638297
1, 0, Time_signature, 4, 2, 24, 8
1, 0, Key_signature, 0, "major"
1, 1, End_track
2, 0, Start_track
2, 0, Title_t, "Midi Drums"
2, 0, Program_c, 9, 0
2, 228, Note_on_c, 9, 36, 127
2, 304, Note_on_c, 9, 36, 0
2, 485, Note_on_c, 9, 40, 127
2, 508, Note_on_c, 9, 38, 127
2, 561, Note_on_c, 9, 40, 0
2, 584, Note_on_c, 9, 38, 0
2, 938, Note_on_c, 9, 36, 127
2, 1014, Note_on_c, 9, 36, 0
2, 1166, Note_on_c, 9, 36, 118
2, 1241, Note_on_c, 9, 36, 0
2, 1405, Note_on_c, 9, 40, 127
2, 1430, Note_on_c, 9, 40, 0
2, 1430, Note_on_c, 9, 40, 127
2, 1481, Note_on_c, 9, 40, 0
2, 1658, Note_on_c, 9, 40, 127
2, 1734, Note_on_c, 9, 40, 0
2, 1777, Note_on_c, 9, 40, 127
2, 1853, Note_on_c, 9, 40, 0
2, 1893, Note_on_c, 9, 36, 127
2, 1968, Note_on_c, 9, 36, 0
2, 2129, Note_on_c, 9, 36, 127
2, 2205, Note_on_c, 9, 36, 0
2, 2377, Note_on_c, 9, 40, 127
2, 2393, Note_on_c, 9, 40, 0
2, 2393, Note_on_c, 9, 40, 127
2, 2453, Note_on_c, 9, 40, 0
2, 2865, Note_on_c, 9, 36, 127
2, 2941, Note_on_c, 9, 36, 0
2, 3095, Note_on_c, 9, 36, 126
2, 3171, Note_on_c, 9, 36, 0
2, 3351, Note_on_c, 9, 40, 127
2, 3366, Note_on_c, 9, 40, 0
2, 3366, Note_on_c, 9, 40, 127
2, 3427, Note_on_c, 9, 40, 0
2, 3833, Note_on_c, 9, 36, 127
2, 3909, Note_on_c, 9, 36, 0
2, 4064, Note_on_c, 9, 36, 127
2, 4140, Note_on_c, 9, 36, 0
2, 4323, Note_on_c, 9, 40, 127
2, 4338, Note_on_c, 9, 40, 0
2, 4338, Note_on_c, 9, 40, 127
2, 4398, Note_on_c, 9, 40, 0
2, 4790, Note_on_c, 9, 36, 127
2, 4866, Note_on_c, 9, 36, 0
2, 5031, Note_on_c, 9, 36, 127
2, 5107, Note_on_c, 9, 36, 0
2, 5271, Note_on_c, 9, 40, 127
2, 5288, Note_on_c, 9, 40, 0
2, 5288, Note_on_c, 9, 40, 127
2, 5346, Note_on_c, 9, 40, 0
2, 5525, Note_on_c, 9, 40, 127
2, 5601, Note_on_c, 9, 40, 0
2, 5651, Note_on_c, 9, 40, 127
2, 5727, Note_on_c, 9, 40, 0
2, 5739, Note_on_c, 9, 36, 127
2, 5815, Note_on_c, 9, 36, 0
2, 5975, Note_on_c, 9, 36, 127
2, 6051, Note_on_c, 9, 36, 0
2, 6218, Note_on_c, 9, 40, 127
2, 6245, Note_on_c, 9, 40, 0
2, 6245, Note_on_c, 9, 40, 127
2, 6295, Note_on_c, 9, 40, 0
2, 6704, Note_on_c, 9, 36, 127
2, 6780, Note_on_c, 9, 36, 0
2, 6947, Note_on_c, 9, 36, 115
2, 7023, Note_on_c, 9, 36, 0
2, 7195, Note_on_c, 9, 40, 127
2, 7215, Note_on_c, 9, 40, 0
2, 7215, Note_on_c, 9, 40, 127
2, 7271, Note_on_c, 9, 40, 0
2, 7272, End_track
0, 0, End_of_file
