0, 0, Header, 1, 2, 480
1, 0, Start_track
1, 0, Tempo, 588235
1, 0, Time_signature, 4, 2, 24, 8
1, 0, Key_signature, 0, "major"
1, 1, End_track
2, 0, Start_track
2, 0, Title_t, "Classic Studio Kit"
2, 0, Program_c, 9, 0
2, 0, Control_c, 9, 18, 0
2, 13, Control_c, 9, 4, 110
2, 15, Control_c, 9, 17, 127
2, 15, Note_on_c, 9, 51, 53
2, 27, Note_on_c, 9, 48, 59
2, 59, Control_c, 9, 4, 104
2, 96, Note_on_c, 9, 51, 0
2, 105, Control_c, 9, 4, 91
2, 108, Note_on_c, 9, 48, 0
2, 148, Control_c, 9, 17, 127
2, 149, Note_on_c, 9, 51, 67
2, 151, Control_c, 9, 4, 78
2, 181, Control_c, 9, 4, 54
2, 214, Control_c, 9, 4, 0
2, 231, Note_on_c, 9, 51, 0
2, 248, Control_c, 9, 4, 49
2, 253, Note_on_c, 9, 44, 93
2, 256, Note_on_c, 9, 36, 46
2, 278, Control_c, 9, 4, 120
2, 334, Note_on_c, 9, 44, 0
2, 335, Control_c, 9, 4, 91
2, 338, Note_on_c, 9, 36, 0
2, 369, Control_c, 9, 4, 86
2, 476, Control_c, 9, 4, 97
2, 506, Note_on_c, 9, 36, 58
2, 507, Control_c, 9, 17, 45
2, 508, Note_on_c, 9, 51, 87
2, 518, Control_c, 9, 16, 0
2, 518, Note_on_c, 9, 38, 59
2, 588, Note_on_c, 9, 36, 0
2, 588, Note_on_c, 9, 51, 0
2, 600, Note_on_c, 9, 38, 0
2, 611, Control_c, 9, 4, 86
2, 644, Control_c, 9, 4, 71
2, 693, Control_c, 9, 4, 0
2, 737, Control_c, 9, 4, 48
2, 742, Note_on_c, 9, 44, 106
2, 757, Control_c, 9, 17, 113
2, 757, Note_on_c, 9, 51, 68
2, 768, Control_c, 9, 4, 120
2, 812, Control_c, 9, 4, 98
2, 823, Note_on_c, 9, 44, 0
2, 839, Note_on_c, 9, 51, 0
2, 853, Control_c, 9, 4, 84
2, 868, Control_c, 9, 18, 0
2, 869, Note_on_c, 9, 48, 45
2, 875, Note_on_c, 9, 36, 46
2, 950, Note_on_c, 9, 48, 0
2, 958, Note_on_c, 9, 36, 0
2, 960, Control_c, 9, 4, 98
2, 986, Control_c, 9, 17, 127
2, 987, Note_on_c, 9, 51, 57
2, 996, Note_on_c, 9, 48, 56
2, 1068, Note_on_c, 9, 51, 0
2, 1071, Control_c, 9, 4, 93
2, 1078, Note_on_c, 9, 48, 0
2, 1115, Control_c, 9, 4, 82
2, 1118, Control_c, 9, 17, 127
2, 1118, Note_on_c, 9, 51, 65
2, 1150, Control_c, 9, 4, 62
2, 1181, Control_c, 9, 4, 16
2, 1199, Note_on_c, 9, 51, 0
2, 1217, Control_c, 9, 4, 59
2, 1221, Note_on_c, 9, 44, 80
2, 1222, Note_on_c, 9, 36, 42
2, 1247, Control_c, 9, 4, 120
2, 1285, Control_c, 9, 4, 97
2, 1303, Note_on_c, 9, 44, 0
2, 1304, Note_on_c, 9, 36, 0
2, 1321, Control_c, 9, 4, 84
2, 1365, Control_c, 9, 17, 70
2, 1366, Note_on_c, 9, 51, 84
2, 1435, Control_c, 9, 4, 96
2, 1447, Note_on_c, 9, 51, 0
2, 1472, Control_c, 9, 16, 21
2, 1473, Note_on_c, 9, 38, 62
2, 1483, Note_on_c, 9, 36, 57
2, 1553, Note_on_c, 9, 38, 0
2, 1565, Note_on_c, 9, 36, 0
2, 1589, Control_c, 9, 4, 84
2, 1628, Control_c, 9, 4, 70
2, 1672, Control_c, 9, 4, 0
2, 1706, Control_c, 9, 17, 110
2, 1706, Note_on_c, 9, 51, 72
2, 1708, Control_c, 9, 4, 49
2, 1713, Note_on_c, 9, 44, 93
2, 1739, Control_c, 9, 4, 120
2, 1784, Control_c, 9, 4, 96
2, 1788, Note_on_c, 9, 51, 0
2, 1794, Note_on_c, 9, 44, 0
2, 1822, Control_c, 9, 4, 84
2, 1830, Control_c, 9, 18, 0
2, 1830, Note_on_c, 9, 48, 45
2, 1832, Note_on_c, 9, 36, 41
2, 1912, Note_on_c, 9, 48, 0
2, 1913, Note_on_c, 9, 36, 0
2, 1927, Control_c, 9, 4, 99
2, 1948, Control_c, 9, 17, 79
2, 1949, Note_on_c, 9, 51, 59
2, 1957, Note_on_c, 9, 48, 58
2, 2030, Note_on_c, 9, 51, 0
2, 2038, Note_on_c, 9, 48, 0
2, 2052, Control_c, 9, 4, 89
2, 2077, Control_c, 9, 17, 127
2, 2077, Note_on_c, 9, 51, 70
2, 2090, Control_c, 9, 4, 74
2, 2132, Control_c, 9, 4, 0
2, 2159, Note_on_c, 9, 51, 0
2, 2184, Control_c, 9, 4, 34
2, 2191, Note_on_c, 9, 44, 119
2, 2194, Note_on_c, 9, 36, 40
2, 2216, Control_c, 9, 4, 120
2, 2272, Note_on_c, 9, 44, 0
2, 2276, Control_c, 9, 4, 91
2, 2276, Note_on_c, 9, 36, 0
2, 2307, Control_c, 9, 4, 86
2, 2419, Control_c, 9, 4, 97
2, 2434, Control_c, 9, 17, 48
2, 2434, Note_on_c, 9, 51, 93
2, 2440, Control_c, 9, 16, 0
2, 2441, Note_on_c, 9, 38, 59
2, 2444, Note_on_c, 9, 36, 59
2, 2516, Note_on_c, 9, 51, 0
2, 2521, Note_on_c, 9, 38, 0
2, 2526, Note_on_c, 9, 36, 0
2, 2555, Control_c, 9, 4, 83
2, 2593, Control_c, 9, 4, 70
2, 2627, Control_c, 9, 4, 0
2, 2675, Control_c, 9, 4, 33
2, 2681, Note_on_c, 9, 44, 113
2, 2693, Control_c, 9, 17, 113
2, 2694, Note_on_c, 9, 51, 72
2, 2707, Control_c, 9, 4, 120
2, 2763, Note_on_c, 9, 44, 0
2, 2766, Control_c, 9, 4, 90
2, 2775, Note_on_c, 9, 51, 0
2, 2797, Control_c, 9, 4, 84
2, 2803, Note_on_c, 9, 36, 45
2, 2809, Control_c, 9, 18, 0
2, 2810, Note_on_c, 9, 48, 44
2, 2885, Note_on_c, 9, 36, 0
2, 2891, Note_on_c, 9, 48, 0
2, 2911, Control_c, 9, 4, 112
2, 2915, Control_c, 9, 17, 127
2, 2916, Note_on_c, 9, 51, 53
2, 2923, Note_on_c, 9, 48, 61
2, 2987, Control_c, 9, 4, 91
2, 2996, Note_on_c, 9, 51, 0
2, 3004, Note_on_c, 9, 48, 0
2, 3025, Control_c, 9, 4, 74
2, 3045, Control_c, 9, 17, 127
2, 3045, Note_on_c, 9, 51, 67
2, 3066, Control_c, 9, 4, 0
2, 3127, Note_on_c, 9, 51, 0
2, 3136, Note_on_c, 9, 46, 9
2, 3143, Control_c, 9, 4, 33
2, 3149, Note_on_c, 9, 44, 127
2, 3150, Note_on_c, 9, 36, 51
2, 3174, Control_c, 9, 4, 120
2, 3217, Note_on_c, 9, 46, 0
2, 3224, Control_c, 9, 4, 93
2, 3230, Note_on_c, 9, 44, 0
2, 3232, Note_on_c, 9, 36, 0
2, 3254, Control_c, 9, 4, 76
2, 3293, Control_c, 9, 4, 58
2, 3330, Control_c, 9, 4, 33
2, 3362, Control_c, 9, 4, 60
2, 3372, Note_on_c, 9, 46, 40
2, 3374, Note_on_c, 9, 44, 28
2, 3386, Control_c, 9, 17, 88
2, 3387, Note_on_c, 9, 51, 82
2, 3390, Note_on_c, 9, 36, 69
2, 3398, Note_on_c, 9, 38, 58
2, 3399, Control_c, 9, 4, 116
2, 3440, Control_c, 9, 4, 93
2, 3454, Note_on_c, 9, 44, 0
2, 3454, Note_on_c, 9, 46, 0
2, 3468, Note_on_c, 9, 51, 0
2, 3471, Control_c, 9, 4, 74
2, 3472, Note_on_c, 9, 36, 0
2, 3479, Note_on_c, 9, 38, 0
2, 3501, Control_c, 9, 4, 57
2, 3537, Control_c, 9, 4, 0
2, 3607, Control_c, 9, 4, 34
2, 3613, Note_on_c, 9, 44, 119
2, 3635, Control_c, 9, 17, 114
2, 3636, Note_on_c, 9, 51, 73
2, 3639, Control_c, 9, 4, 114
2, 3684, Control_c, 9, 4, 93
2, 3695, Note_on_c, 9, 44, 0
2, 3717, Note_on_c, 9, 51, 0
2, 3734, Control_c, 9, 4, 84
2, 3750, Note_on_c, 9, 36, 38
2, 3754, Control_c, 9, 18, 0
2, 3755, Note_on_c, 9, 48, 47
2, 3832, Note_on_c, 9, 36, 0
2, 3836, Note_on_c, 9, 48, 0
2, 3860, Control_c, 9, 4, 112
2, 3863, Control_c, 9, 17, 0
2, 3864, Note_on_c, 9, 51, 40
2, 3868, Note_on_c, 9, 48, 63
2, 3915, Control_c, 9, 4, 100
2, 3945, Note_on_c, 9, 51, 0
2, 3949, Note_on_c, 9, 48, 0
2, 3953, Control_c, 9, 4, 89
2, 3985, Control_c, 9, 4, 73
2, 3996, Control_c, 9, 17, 123
2, 3997, Note_on_c, 9, 51, 70
2, 4029, Control_c, 9, 4, 0
2, 4078, Note_on_c, 9, 51, 0
2, 4093, Control_c, 9, 4, 35
2, 4099, Note_on_c, 9, 44, 126
2, 4103, Note_on_c, 9, 36, 43
2, 4124, Control_c, 9, 4, 116
2, 4170, Control_c, 9, 17, 123
2, 4171, Note_on_c, 9, 51, 5
2, 4180, Note_on_c, 9, 44, 0
2, 4184, Control_c, 9, 4, 90
2, 4185, Note_on_c, 9, 36, 0
2, 4216, Control_c, 9, 4, 85
2, 4251, Note_on_c, 9, 51, 0
2, 4325, Control_c, 9, 4, 96
2, 4344, Note_on_c, 9, 36, 62
2, 4351, Control_c, 9, 17, 46
2, 4352, Note_on_c, 9, 51, 90
2, 4356, Control_c, 9, 16, 0
2, 4357, Note_on_c, 9, 38, 62
2, 4426, Note_on_c, 9, 36, 0
2, 4433, Note_on_c, 9, 51, 0
2, 4438, Note_on_c, 9, 38, 0
2, 4454, Control_c, 9, 4, 83
2, 4486, Control_c, 9, 4, 70
2, 4523, Control_c, 9, 4, 0
2, 4582, Control_c, 9, 4, 35
2, 4588, Note_on_c, 9, 44, 126
2, 4604, Control_c, 9, 17, 102
2, 4605, Note_on_c, 9, 51, 77
2, 4613, Control_c, 9, 4, 120
2, 4662, Control_c, 9, 4, 97
2, 4670, Note_on_c, 9, 44, 0
2, 4688, Note_on_c, 9, 51, 0
2, 4704, Control_c, 9, 4, 84
2, 4716, Note_on_c, 9, 36, 50
2, 4717, Control_c, 9, 18, 0
2, 4717, Note_on_c, 9, 48, 47
2, 4797, Note_on_c, 9, 36, 0
2, 4799, Note_on_c, 9, 48, 0
2, 4817, Control_c, 9, 4, 108
2, 4835, Control_c, 9, 17, 127
2, 4835, Note_on_c, 9, 51, 54
2, 4837, Note_on_c, 9, 48, 63
2, 4856, Control_c, 9, 4, 110
2, 4896, Control_c, 9, 4, 97
2, 4917, Note_on_c, 9, 48, 0
2, 4917, Note_on_c, 9, 51, 0
2, 4938, Control_c, 9, 4, 84
2, 4962, Control_c, 9, 17, 127
2, 4963, Note_on_c, 9, 51, 78
2, 4975, Control_c, 9, 4, 70
2, 5016, Control_c, 9, 4, 0
2, 5044, Note_on_c, 9, 51, 0
2, 5065, Control_c, 9, 4, 34
2, 5066, Note_on_c, 9, 36, 43
2, 5073, Note_on_c, 9, 44, 119
2, 5097, Control_c, 9, 4, 118
2, 5140, Control_c, 9, 4, 96
2, 5148, Note_on_c, 9, 36, 0
2, 5154, Note_on_c, 9, 44, 0
2, 5182, Control_c, 9, 4, 85
2, 5221, Control_c, 9, 17, 47
2, 5222, Note_on_c, 9, 51, 89
2, 5295, Control_c, 9, 4, 100
2, 5303, Note_on_c, 9, 51, 0
2, 5307, Note_on_c, 9, 36, 51
2, 5314, Control_c, 9, 16, 21
2, 5315, Note_on_c, 9, 38, 68
2, 5371, Control_c, 9, 4, 94
2, 5389, Note_on_c, 9, 36, 0
2, 5396, Note_on_c, 9, 38, 0
2, 5411, Control_c, 9, 4, 83
2, 5443, Control_c, 9, 4, 70
2, 5488, Control_c, 9, 4, 0
2, 5539, Control_c, 9, 4, 50
2, 5544, Note_on_c, 9, 44, 106
2, 5560, Control_c, 9, 17, 86
2, 5560, Note_on_c, 9, 51, 77
2, 5569, Control_c, 9, 4, 118
2, 5613, Control_c, 9, 4, 98
2, 5625, Note_on_c, 9, 44, 0
2, 5642, Note_on_c, 9, 51, 0
2, 5656, Control_c, 9, 4, 84
2, 5663, Note_on_c, 9, 36, 55
2, 5667, Control_c, 9, 18, 0
2, 5668, Note_on_c, 9, 48, 41
2, 5744, Note_on_c, 9, 36, 0
2, 5749, Note_on_c, 9, 48, 0
2, 5780, Control_c, 9, 4, 110
2, 5793, Note_on_c, 9, 48, 60
2, 5796, Control_c, 9, 17, 61
2, 5797, Note_on_c, 9, 51, 65
2, 5839, Control_c, 9, 4, 98
2, 5874, Note_on_c, 9, 48, 0
2, 5877, Note_on_c, 9, 51, 0
2, 5895, Control_c, 9, 4, 85
2, 5915, Control_c, 9, 17, 64
2, 5916, Note_on_c, 9, 51, 68
2, 5930, Control_c, 9, 4, 70
2, 5978, Control_c, 9, 4, 0
2, 5997, Note_on_c, 9, 51, 0
2, 6021, Control_c, 9, 4, 48
2, 6023, Note_on_c, 9, 36, 52
2, 6026, Note_on_c, 9, 44, 106
2, 6051, Control_c, 9, 4, 118
2, 6104, Note_on_c, 9, 36, 0
2, 6108, Note_on_c, 9, 44, 0
2, 6111, Control_c, 9, 4, 90
2, 6146, Control_c, 9, 4, 85
2, 6256, Control_c, 9, 4, 95
2, 6280, Control_c, 9, 16, 0
2, 6281, Control_c, 9, 17, 39
2, 6281, Note_on_c, 9, 38, 57
2, 6282, Note_on_c, 9, 36, 53
2, 6282, Note_on_c, 9, 51, 88
2, 6360, Control_c, 9, 4, 91
2, 6360, Note_on_c, 9, 38, 0
2, 6361, Note_on_c, 9, 51, 0
2, 6362, Note_on_c, 9, 36, 0
2, 6403, Control_c, 9, 4, 77
2, 6439, Control_c, 9, 4, 54
2, 6470, Control_c, 9, 4, 0
2, 6511, Control_c, 9, 4, 50
2, 6516, Note_on_c, 9, 44, 100
2, 6525, Control_c, 9, 17, 51
2, 6525, Note_on_c, 9, 51, 79
2, 6542, Control_c, 9, 4, 116
2, 6585, Control_c, 9, 4, 95
2, 6597, Note_on_c, 9, 44, 0
2, 6607, Note_on_c, 9, 51, 0
2, 6622, Control_c, 9, 4, 84
2, 6640, Control_c, 9, 18, 0
2, 6640, Note_on_c, 9, 48, 48
2, 6644, Note_on_c, 9, 36, 44
2, 6721, Note_on_c, 9, 48, 0
2, 6726, Note_on_c, 9, 36, 0
2, 6751, Control_c, 9, 4, 102
2, 6764, Control_c, 9, 17, 121
2, 6764, Note_on_c, 9, 51, 57
2, 6771, Note_on_c, 9, 48, 59
2, 6831, Control_c, 9, 4, 91
2, 6845, Note_on_c, 9, 51, 0
2, 6852, Note_on_c, 9, 48, 0
2, 6862, Control_c, 9, 4, 83
2, 6893, Control_c, 9, 17, 102
2, 6894, Note_on_c, 9, 51, 66
2, 6902, Control_c, 9, 4, 69
2, 6944, Control_c, 9, 4, 8
2, 6975, Note_on_c, 9, 51, 0
2, 6980, Control_c, 9, 4, 48
2, 6986, Note_on_c, 9, 36, 40
2, 6986, Note_on_c, 9, 44, 87
2, 7012, Control_c, 9, 4, 114
2, 7046, Control_c, 9, 4, 100
2, 7067, Note_on_c, 9, 44, 0
2, 7069, Note_on_c, 9, 36, 0
2, 7089, Control_c, 9, 4, 87
2, 7119, Control_c, 9, 17, 94
2, 7119, Note_on_c, 9, 51, 79
2, 7201, Note_on_c, 9, 51, 0
2, 7203, Control_c, 9, 4, 92
2, 7240, Note_on_c, 9, 36, 54
2, 7247, Note_on_c, 9, 38, 61
2, 7323, Note_on_c, 9, 36, 0
2, 7328, Note_on_c, 9, 38, 0
2, 7342, Control_c, 9, 4, 86
2, 7378, Control_c, 9, 4, 73
2, 7428, Control_c, 9, 4, 14
2, 7466, Control_c, 9, 4, 53
2, 7469, Control_c, 9, 17, 88
2, 7470, Note_on_c, 9, 51, 78
2, 7472, Note_on_c, 9, 44, 80
2, 7497, Control_c, 9, 4, 116
2, 7541, Control_c, 9, 4, 95
2, 7551, Note_on_c, 9, 51, 0
2, 7553, Note_on_c, 9, 44, 0
2, 7577, Control_c, 9, 4, 85
2, 7590, Control_c, 9, 18, 0
2, 7591, Note_on_c, 9, 48, 44
2, 7597, Note_on_c, 9, 36, 33
2, 7672, Note_on_c, 9, 48, 0
2, 7679, Note_on_c, 9, 36, 0
2, 7680, End_track
0, 0, End_of_file
