0, 0, Header, 1, 2, 480
1, 0, Start_track
1, 0, Tempo, 588235
1, 0, Time_signature, 4, 2, 24, 8
1, 0, Key_signature, 0, "major"
1, 1, End_track
2, 0, Start_track
2, 0, Title_t, "Classic Studio Kit"
2, 0, Program_c, 9, 0
2, 0, Control_c, 9, 17, 20
2, 5, Control_c, 9, 17, 43
2, 5, Note_on_c, 9, 51, 51
2, 16, Control_c, 9, 18, 0
2, 17, Note_on_c, 9, 48, 78
2, 21, Control_c, 9, 4, 110
2, 44, Control_c, 9, 18, 0
2, 45, Note_on_c, 9, 48, 65
2, 71, Note_on_c, 9, 51, 0
2, 78, Control_c, 9, 4, 100
2, 97, Control_c, 9, 17, 8
2, 97, Note_on_c, 9, 51, 75
2, 99, Note_on_c, 9, 48, 0
2, 99, Note_on_c, 9, 48, 0
2, 115, Control_c, 9, 4, 88
2, 144, Control_c, 9, 17, 33
2, 145, Control_c, 9, 4, 72
2, 145, Note_on_c, 9, 51, 76
2, 179, Note_on_c, 9, 51, 0
2, 179, Note_on_c, 9, 51, 0
2, 182, Control_c, 9, 4, 0
2, 247, Control_c, 9, 4, 35
2, 247, Control_c, 9, 4, 88
2, 252, Note_on_c, 9, 44, 127
2, 255, Note_on_c, 9, 36, 73
2, 278, Control_c, 9, 4, 120
2, 286, Control_c, 9, 4, 92
2, 309, Control_c, 9, 16, 0
2, 309, Note_on_c, 9, 38, 39
2, 322, Control_c, 9, 4, 95
2, 334, Note_on_c, 9, 44, 0
2, 336, Note_on_c, 9, 36, 0
2, 357, Control_c, 9, 4, 83
2, 392, Note_on_c, 9, 38, 0
2, 480, Control_c, 9, 4, 96
2, 491, Note_on_c, 9, 36, 84
2, 499, Control_c, 9, 17, 1
2, 500, Note_on_c, 9, 51, 107
2, 505, Control_c, 9, 17, 3
2, 505, Note_on_c, 9, 38, 85
2, 505, Note_on_c, 9, 38, 86
2, 506, Note_on_c, 9, 51, 89
2, 526, Note_on_c, 9, 36, 71
2, 527, Control_c, 9, 4, 97
2, 573, Note_on_c, 9, 36, 0
2, 573, Note_on_c, 9, 36, 0
2, 581, Note_on_c, 9, 51, 0
2, 581, Note_on_c, 9, 51, 0
2, 586, Note_on_c, 9, 38, 0
2, 586, Note_on_c, 9, 38, 0
2, 596, Control_c, 9, 4, 83
2, 600, Control_c, 9, 4, 83
2, 629, Control_c, 9, 4, 70
2, 636, Control_c, 9, 4, 70
2, 664, Control_c, 9, 4, 0
2, 675, Control_c, 9, 4, 0
2, 728, Control_c, 9, 4, 32
2, 729, Control_c, 9, 4, 36
2, 735, Note_on_c, 9, 44, 119
2, 735, Note_on_c, 9, 44, 127
2, 744, Control_c, 9, 17, 24
2, 744, Note_on_c, 9, 51, 75
2, 752, Control_c, 9, 17, 37
2, 753, Note_on_c, 9, 51, 67
2, 760, Control_c, 9, 4, 116
2, 760, Control_c, 9, 4, 120
2, 803, Control_c, 9, 4, 98
2, 805, Control_c, 9, 4, 97
2, 817, Note_on_c, 9, 44, 0
2, 817, Note_on_c, 9, 44, 0
2, 827, Note_on_c, 9, 51, 0
2, 827, Note_on_c, 9, 51, 0
2, 841, Control_c, 9, 4, 86
2, 847, Control_c, 9, 4, 85
2, 855, Control_c, 9, 18, 21
2, 855, Note_on_c, 9, 48, 51
2, 866, Note_on_c, 9, 36, 71
2, 867, Control_c, 9, 18, 0
2, 868, Note_on_c, 9, 36, 62
2, 868, Note_on_c, 9, 48, 46
2, 938, Note_on_c, 9, 48, 0
2, 938, Note_on_c, 9, 48, 0
2, 948, Note_on_c, 9, 36, 0
2, 948, Note_on_c, 9, 36, 0
2, 958, Control_c, 9, 17, 28
2, 959, Note_on_c, 9, 51, 54
2, 973, Control_c, 9, 4, 120
2, 975, Control_c, 9, 4, 108
2, 982, Control_c, 9, 17, 39
2, 982, Note_on_c, 9, 51, 61
2, 984, Note_on_c, 9, 48, 73
2, 988, Control_c, 9, 18, 0
2, 989, Note_on_c, 9, 48, 68
2, 1006, Control_c, 9, 4, 116
2, 1040, Note_on_c, 9, 51, 0
2, 1040, Note_on_c, 9, 51, 0
2, 1044, Control_c, 9, 4, 91
2, 1053, Control_c, 9, 4, 92
2, 1065, Note_on_c, 9, 48, 0
2, 1065, Note_on_c, 9, 48, 0
2, 1080, Control_c, 9, 4, 73
2, 1091, Control_c, 9, 4, 73
2, 1101, Control_c, 9, 17, 35
2, 1102, Note_on_c, 9, 51, 74
2, 1113, Control_c, 9, 17, 9
2, 1113, Note_on_c, 9, 51, 72
2, 1118, Control_c, 9, 4, 0
2, 1130, Control_c, 9, 4, 0
2, 1183, Note_on_c, 9, 51, 0
2, 1183, Note_on_c, 9, 51, 0
2, 1191, Note_on_c, 9, 46, 18
2, 1198, Control_c, 9, 4, 35
2, 1198, Note_on_c, 9, 46, 11
2, 1203, Note_on_c, 9, 44, 127
2, 1204, Note_on_c, 9, 36, 57
2, 1207, Note_on_c, 9, 36, 65
2, 1210, Note_on_c, 9, 44, 127
2, 1216, Control_c, 9, 4, 127
2, 1228, Control_c, 9, 4, 120
2, 1244, Note_on_c, 9, 49, 6
2, 1260, Control_c, 9, 4, 120
2, 1273, Control_c, 9, 4, 96
2, 1273, Note_on_c, 9, 46, 0
2, 1273, Note_on_c, 9, 46, 0
2, 1285, Note_on_c, 9, 36, 0
2, 1285, Note_on_c, 9, 36, 0
2, 1285, Note_on_c, 9, 44, 0
2, 1285, Note_on_c, 9, 44, 0
2, 1296, Control_c, 9, 4, 90
2, 1311, Control_c, 9, 4, 70
2, 1327, Note_on_c, 9, 49, 0
2, 1333, Control_c, 9, 4, 77
2, 1352, Control_c, 9, 4, 0
2, 1408, Control_c, 9, 4, 83
2, 1427, Note_on_c, 9, 46, 13
2, 1436, Control_c, 9, 4, 34
2, 1443, Note_on_c, 9, 44, 119
2, 1446, Note_on_c, 9, 36, 80
2, 1448, Note_on_c, 9, 36, 83
2, 1451, Control_c, 9, 4, 100
2, 1453, Control_c, 9, 17, 0
2, 1454, Note_on_c, 9, 51, 105
2, 1457, Control_c, 9, 17, 3
2, 1458, Note_on_c, 9, 51, 95
2, 1460, Control_c, 9, 16, 0
2, 1461, Note_on_c, 9, 38, 75
2, 1465, Note_on_c, 9, 38, 82
2, 1468, Control_c, 9, 4, 98
2, 1509, Note_on_c, 9, 46, 0
2, 1525, Note_on_c, 9, 44, 0
2, 1528, Note_on_c, 9, 36, 0
2, 1528, Note_on_c, 9, 36, 0
2, 1535, Note_on_c, 9, 51, 0
2, 1535, Note_on_c, 9, 51, 0
2, 1539, Control_c, 9, 4, 83
2, 1539, Note_on_c, 9, 38, 0
2, 1539, Note_on_c, 9, 38, 0
2, 1541, Control_c, 9, 4, 84
2, 1571, Control_c, 9, 4, 70
2, 1588, Control_c, 9, 4, 79
2, 1604, Control_c, 9, 4, 0
2, 1635, Control_c, 9, 4, 81
2, 1671, Note_on_c, 9, 46, 10
2, 1678, Control_c, 9, 4, 33
2, 1683, Control_c, 9, 4, 114
2, 1683, Note_on_c, 9, 44, 127
2, 1695, Control_c, 9, 17, 38
2, 1695, Note_on_c, 9, 51, 69
2, 1701, Control_c, 9, 17, 40
2, 1701, Note_on_c, 9, 51, 66
2, 1709, Control_c, 9, 4, 116
2, 1734, Control_c, 9, 4, 102
2, 1752, Note_on_c, 9, 46, 0
2, 1760, Control_c, 9, 4, 95
2, 1765, Control_c, 9, 4, 89
2, 1765, Note_on_c, 9, 44, 0
2, 1776, Note_on_c, 9, 51, 0
2, 1776, Note_on_c, 9, 51, 0
2, 1796, Control_c, 9, 4, 84
2, 1808, Note_on_c, 9, 36, 57
2, 1810, Note_on_c, 9, 48, 52
2, 1812, Control_c, 9, 4, 70
2, 1820, Note_on_c, 9, 36, 60
2, 1821, Note_on_c, 9, 50, 71
2, 1846, Control_c, 9, 4, 0
2, 1890, Note_on_c, 9, 36, 0
2, 1890, Note_on_c, 9, 36, 0
2, 1891, Note_on_c, 9, 48, 0
2, 1896, Control_c, 9, 17, 62
2, 1897, Note_on_c, 9, 51, 47
2, 1901, Note_on_c, 9, 50, 0
2, 1912, Note_on_c, 9, 46, 7
2, 1915, Control_c, 9, 17, 39
2, 1916, Note_on_c, 9, 51, 56
2, 1922, Control_c, 9, 4, 116
2, 1925, Note_on_c, 9, 44, 127
2, 1932, Control_c, 9, 4, 127
2, 1933, Control_c, 9, 18, 0
2, 1934, Note_on_c, 9, 48, 71
2, 1942, Note_on_c, 9, 48, 71
2, 1975, Control_c, 9, 4, 120
2, 1979, Note_on_c, 9, 51, 0
2, 1979, Note_on_c, 9, 51, 0
2, 1994, Note_on_c, 9, 46, 0
2, 2005, Control_c, 9, 4, 91
2, 2007, Note_on_c, 9, 44, 0
2, 2012, Control_c, 9, 4, 91
2, 2015, Note_on_c, 9, 48, 0
2, 2015, Note_on_c, 9, 48, 0
2, 2037, Control_c, 9, 4, 73
2, 2038, Control_c, 9, 17, 16
2, 2039, Note_on_c, 9, 51, 70
2, 2042, Control_c, 9, 17, 9
2, 2043, Note_on_c, 9, 51, 69
2, 2079, Control_c, 9, 4, 0
2, 2120, Note_on_c, 9, 51, 0
2, 2120, Note_on_c, 9, 51, 0
2, 2147, Control_c, 9, 4, 34
2, 2147, Control_c, 9, 4, 104
2, 2152, Note_on_c, 9, 44, 127
2, 2161, Note_on_c, 9, 36, 67
2, 2168, Note_on_c, 9, 36, 62
2, 2177, Control_c, 9, 4, 100
2, 2179, Control_c, 9, 4, 126
2, 2227, Control_c, 9, 4, 91
2, 2228, Control_c, 9, 4, 92
2, 2234, Note_on_c, 9, 44, 0
2, 2243, Note_on_c, 9, 36, 0
2, 2243, Note_on_c, 9, 36, 0
2, 2259, Control_c, 9, 4, 87
2, 2403, Control_c, 9, 17, 0
2, 2404, Note_on_c, 9, 51, 96
2, 2405, Control_c, 9, 16, 0
2, 2406, Control_c, 9, 4, 96
2, 2406, Note_on_c, 9, 36, 75
2, 2406, Note_on_c, 9, 38, 66
2, 2409, Note_on_c, 9, 36, 78
2, 2415, Control_c, 9, 17, 11
2, 2415, Note_on_c, 9, 51, 91
2, 2417, Control_c, 9, 16, 0
2, 2417, Note_on_c, 9, 38, 69
2, 2485, Note_on_c, 9, 51, 0
2, 2485, Note_on_c, 9, 51, 0
2, 2487, Note_on_c, 9, 38, 0
2, 2487, Note_on_c, 9, 38, 0
2, 2489, Note_on_c, 9, 36, 0
2, 2489, Note_on_c, 9, 36, 0
2, 2506, Control_c, 9, 4, 83
2, 2508, Control_c, 9, 4, 83
2, 2537, Control_c, 9, 4, 70
2, 2543, Control_c, 9, 4, 70
2, 2570, Control_c, 9, 4, 0
2, 2586, Control_c, 9, 4, 0
2, 2637, Control_c, 9, 4, 35
2, 2643, Note_on_c, 9, 44, 127
2, 2644, Control_c, 9, 4, 35
2, 2650, Note_on_c, 9, 44, 119
2, 2661, Control_c, 9, 17, 36
2, 2661, Note_on_c, 9, 51, 77
2, 2667, Control_c, 9, 17, 21
2, 2668, Control_c, 9, 4, 116
2, 2668, Note_on_c, 9, 51, 57
2, 2675, Control_c, 9, 4, 120
2, 2719, Control_c, 9, 4, 97
2, 2726, Note_on_c, 9, 44, 0
2, 2726, Note_on_c, 9, 44, 0
2, 2734, Control_c, 9, 4, 90
2, 2744, Note_on_c, 9, 51, 0
2, 2744, Note_on_c, 9, 51, 0
2, 2764, Control_c, 9, 4, 85
2, 2765, Control_c, 9, 4, 84
2, 2775, Note_on_c, 9, 48, 49
2, 2777, Note_on_c, 9, 36, 70
2, 2782, Note_on_c, 9, 36, 69
2, 2783, Control_c, 9, 18, 0
2, 2783, Note_on_c, 9, 48, 49
2, 2857, Note_on_c, 9, 48, 0
2, 2857, Note_on_c, 9, 48, 0
2, 2861, Note_on_c, 9, 36, 0
2, 2861, Note_on_c, 9, 36, 0
2, 2879, Control_c, 9, 17, 52
2, 2880, Note_on_c, 9, 51, 51
2, 2885, Control_c, 9, 17, 14
2, 2885, Note_on_c, 9, 51, 62
2, 2893, Control_c, 9, 4, 110
2, 2895, Control_c, 9, 4, 110
2, 2903, Note_on_c, 9, 48, 70
2, 2905, Control_c, 9, 18, 0
2, 2905, Note_on_c, 9, 48, 74
2, 2951, Control_c, 9, 4, 102
2, 2958, Control_c, 9, 4, 104
2, 2962, Note_on_c, 9, 51, 0
2, 2962, Note_on_c, 9, 51, 0
2, 2985, Note_on_c, 9, 48, 0
2, 2985, Note_on_c, 9, 48, 0
2, 2986, Control_c, 9, 4, 91
2, 2994, Control_c, 9, 4, 90
2, 3016, Control_c, 9, 17, 4
2, 3016, Note_on_c, 9, 51, 72
2, 3024, Control_c, 9, 4, 74
2, 3025, Control_c, 9, 4, 71
2, 3031, Control_c, 9, 17, 28
2, 3032, Note_on_c, 9, 51, 78
2, 3061, Control_c, 9, 4, 0
2, 3066, Control_c, 9, 4, 0
2, 3098, Note_on_c, 9, 51, 0
2, 3098, Note_on_c, 9, 51, 0
2, 3127, Note_on_c, 9, 36, 65
2, 3130, Control_c, 9, 4, 34
2, 3135, Note_on_c, 9, 36, 67
2, 3137, Note_on_c, 9, 44, 127
2, 3137, Note_on_c, 9, 44, 127
2, 3143, Control_c, 9, 4, 127
2, 3161, Control_c, 9, 4, 127
2, 3178, Note_on_c, 9, 49, 5
2, 3187, Control_c, 9, 4, 118
2, 3200, Control_c, 9, 4, 98
2, 3210, Note_on_c, 9, 36, 0
2, 3210, Note_on_c, 9, 36, 0
2, 3217, Note_on_c, 9, 44, 0
2, 3217, Note_on_c, 9, 44, 0
2, 3228, Control_c, 9, 4, 87
2, 3239, Control_c, 9, 4, 86
2, 3259, Control_c, 9, 4, 83
2, 3259, Note_on_c, 9, 49, 0
2, 3316, Control_c, 9, 4, 87
2, 3361, Control_c, 9, 4, 92
2, 3370, Control_c, 9, 4, 97
2, 3370, Note_on_c, 9, 36, 74
2, 3375, Control_c, 9, 17, 12
2, 3376, Note_on_c, 9, 51, 82
2, 3379, Control_c, 9, 17, 7
2, 3380, Control_c, 9, 16, 21
2, 3380, Note_on_c, 9, 38, 61
2, 3380, Note_on_c, 9, 51, 89
2, 3383, Note_on_c, 9, 36, 81
2, 3384, Control_c, 9, 16, 0
2, 3384, Note_on_c, 9, 38, 79
2, 3405, Control_c, 9, 4, 96
2, 3452, Note_on_c, 9, 36, 0
2, 3452, Note_on_c, 9, 36, 0
2, 3457, Note_on_c, 9, 51, 0
2, 3457, Note_on_c, 9, 51, 0
2, 3462, Note_on_c, 9, 38, 0
2, 3462, Note_on_c, 9, 38, 0
2, 3474, Control_c, 9, 4, 84
2, 3497, Control_c, 9, 4, 83
2, 3506, Control_c, 9, 4, 70
2, 3530, Control_c, 9, 4, 70
2, 3552, Control_c, 9, 4, 0
2, 3563, Control_c, 9, 4, 0
2, 3612, Control_c, 9, 4, 33
2, 3617, Note_on_c, 9, 44, 127
2, 3618, Control_c, 9, 4, 32
2, 3621, Control_c, 9, 17, 44
2, 3621, Note_on_c, 9, 51, 64
2, 3624, Note_on_c, 9, 44, 127
2, 3629, Control_c, 9, 17, 36
2, 3630, Note_on_c, 9, 51, 65
2, 3643, Control_c, 9, 4, 120
2, 3649, Control_c, 9, 4, 122
2, 3686, Control_c, 9, 4, 96
2, 3695, Control_c, 9, 4, 96
2, 3700, Note_on_c, 9, 44, 0
2, 3700, Note_on_c, 9, 44, 0
2, 3703, Note_on_c, 9, 51, 0
2, 3703, Note_on_c, 9, 51, 0
2, 3725, Control_c, 9, 4, 85
2, 3727, Control_c, 9, 4, 84
2, 3733, Note_on_c, 9, 48, 49
2, 3745, Note_on_c, 9, 36, 60
2, 3746, Note_on_c, 9, 48, 46
2, 3747, Note_on_c, 9, 36, 68
2, 3815, Note_on_c, 9, 48, 0
2, 3815, Note_on_c, 9, 48, 0
2, 3827, Note_on_c, 9, 36, 0
2, 3827, Note_on_c, 9, 36, 0
2, 3830, Control_c, 9, 17, 48
2, 3831, Control_c, 9, 4, 92
2, 3831, Note_on_c, 9, 51, 49
2, 3848, Control_c, 9, 17, 26
2, 3849, Note_on_c, 9, 51, 59
2, 3860, Control_c, 9, 4, 110
2, 3863, Control_c, 9, 18, 0
2, 3863, Note_on_c, 9, 48, 67
2, 3865, Note_on_c, 9, 48, 62
2, 3874, Control_c, 9, 4, 106
2, 3913, Note_on_c, 9, 51, 0
2, 3913, Note_on_c, 9, 51, 0
2, 3920, Control_c, 9, 4, 100
2, 3945, Note_on_c, 9, 48, 0
2, 3945, Note_on_c, 9, 48, 0
2, 3950, Control_c, 9, 4, 93
2, 3956, Control_c, 9, 4, 90
2, 3975, Control_c, 9, 17, 41
2, 3976, Note_on_c, 9, 51, 63
2, 3987, Control_c, 9, 17, 9
2, 3987, Note_on_c, 9, 51, 77
2, 3990, Control_c, 9, 4, 72
2, 4000, Control_c, 9, 4, 70
2, 4028, Control_c, 9, 4, 0
2, 4033, Control_c, 9, 4, 0
2, 4056, Note_on_c, 9, 51, 0
2, 4056, Note_on_c, 9, 51, 0
2, 4089, Control_c, 9, 4, 32
2, 4089, Control_c, 9, 4, 33
2, 4093, Note_on_c, 9, 36, 58
2, 4095, Note_on_c, 9, 44, 126
2, 4095, Note_on_c, 9, 44, 127
2, 4101, Note_on_c, 9, 36, 52
2, 4120, Control_c, 9, 4, 124
2, 4120, Control_c, 9, 4, 126
2, 4136, Note_on_c, 9, 49, 6
2, 4137, Note_on_c, 9, 49, 6
2, 4167, Control_c, 9, 4, 94
2, 4167, Control_c, 9, 4, 94
2, 4176, Note_on_c, 9, 36, 0
2, 4176, Note_on_c, 9, 36, 0
2, 4176, Note_on_c, 9, 44, 0
2, 4176, Note_on_c, 9, 44, 0
2, 4208, Control_c, 9, 4, 84
2, 4208, Control_c, 9, 4, 85
2, 4219, Note_on_c, 9, 49, 0
2, 4219, Note_on_c, 9, 49, 0
2, 4277, Control_c, 9, 4, 89
2, 4279, Control_c, 9, 4, 88
2, 4325, Control_c, 9, 4, 92
2, 4332, Control_c, 9, 17, 40
2, 4332, Note_on_c, 9, 51, 71
2, 4337, Note_on_c, 9, 36, 76
2, 4337, Note_on_c, 9, 38, 60
2, 4341, Note_on_c, 9, 36, 76
2, 4345, Control_c, 9, 17, 0
2, 4346, Control_c, 9, 16, 0
2, 4346, Note_on_c, 9, 51, 93
2, 4348, Note_on_c, 9, 38, 77
2, 4414, Note_on_c, 9, 51, 0
2, 4414, Note_on_c, 9, 51, 0
2, 4418, Note_on_c, 9, 38, 0
2, 4418, Note_on_c, 9, 38, 0
2, 4419, Note_on_c, 9, 36, 0
2, 4419, Note_on_c, 9, 36, 0
2, 4446, Control_c, 9, 4, 85
2, 4478, Control_c, 9, 4, 70
2, 4516, Control_c, 9, 4, 0
2, 4575, Control_c, 9, 4, 34
2, 4581, Note_on_c, 9, 44, 126
2, 4585, Control_c, 9, 17, 38
2, 4585, Note_on_c, 9, 51, 70
2, 4588, Control_c, 9, 17, 28
2, 4588, Note_on_c, 9, 51, 70
2, 4606, Control_c, 9, 4, 120
2, 4663, Control_c, 9, 4, 90
2, 4663, Note_on_c, 9, 44, 0
2, 4667, Note_on_c, 9, 51, 0
2, 4667, Note_on_c, 9, 51, 0
2, 4693, Control_c, 9, 4, 85
2, 4704, Control_c, 9, 18, 0
2, 4704, Note_on_c, 9, 48, 47
2, 4709, Note_on_c, 9, 36, 58
2, 4720, Note_on_c, 9, 48, 51
2, 4778, Control_c, 9, 17, 15
2, 4779, Note_on_c, 9, 51, 60
2, 4786, Note_on_c, 9, 48, 0
2, 4786, Note_on_c, 9, 48, 0
2, 4791, Note_on_c, 9, 36, 0
2, 4800, Control_c, 9, 17, 53
2, 4801, Note_on_c, 9, 51, 48
2, 4823, Note_on_c, 9, 48, 67
2, 4824, Control_c, 9, 4, 108
2, 4824, Control_c, 9, 18, 0
2, 4824, Note_on_c, 9, 48, 69
2, 4861, Note_on_c, 9, 51, 0
2, 4861, Note_on_c, 9, 51, 0
2, 4878, Control_c, 9, 17, 29
2, 4878, Note_on_c, 9, 51, 62
2, 4881, Control_c, 9, 4, 102
2, 4882, Note_on_c, 9, 51, 0
2, 4905, Note_on_c, 9, 48, 0
2, 4905, Note_on_c, 9, 48, 0
2, 4914, Control_c, 9, 4, 90
2, 4945, Control_c, 9, 4, 74
2, 4952, Control_c, 9, 17, 12
2, 4953, Note_on_c, 9, 51, 70
2, 4960, Note_on_c, 9, 51, 0
2, 4985, Control_c, 9, 4, 0
2, 5048, Note_on_c, 9, 36, 57
2, 5049, Control_c, 9, 4, 33
2, 5054, Note_on_c, 9, 44, 127
2, 5080, Control_c, 9, 4, 120
2, 5122, Control_c, 9, 4, 96
2, 5130, Note_on_c, 9, 36, 0
2, 5136, Note_on_c, 9, 44, 0
2, 5160, Control_c, 9, 4, 85
2, 5280, Control_c, 9, 4, 95
2, 5297, Control_c, 9, 17, 1
2, 5297, Note_on_c, 9, 36, 79
2, 5298, Note_on_c, 9, 51, 93
2, 5306, Control_c, 9, 17, 20
2, 5306, Note_on_c, 9, 38, 94
2, 5306, Note_on_c, 9, 51, 76
2, 5309, Note_on_c, 9, 38, 63
2, 5378, Note_on_c, 9, 36, 0
2, 5378, Note_on_c, 9, 51, 0
2, 5378, Note_on_c, 9, 51, 0
2, 5387, Note_on_c, 9, 38, 0
2, 5387, Note_on_c, 9, 38, 0
2, 5412, Control_c, 9, 4, 83
2, 5448, Control_c, 9, 4, 70
2, 5483, Control_c, 9, 4, 0
2, 5531, Control_c, 9, 4, 50
2, 5536, Note_on_c, 9, 44, 119
2, 5544, Control_c, 9, 17, 41
2, 5545, Note_on_c, 9, 51, 63
2, 5560, Control_c, 9, 4, 120
2, 5560, Control_c, 9, 17, 18
2, 5560, Note_on_c, 9, 51, 60
2, 5606, Control_c, 9, 4, 96
2, 5617, Note_on_c, 9, 44, 0
2, 5626, Note_on_c, 9, 51, 0
2, 5626, Note_on_c, 9, 51, 0
2, 5644, Control_c, 9, 4, 84
2, 5660, Note_on_c, 9, 48, 46
2, 5665, Note_on_c, 9, 36, 55
2, 5671, Note_on_c, 9, 48, 42
2, 5741, Note_on_c, 9, 48, 0
2, 5741, Note_on_c, 9, 48, 0
2, 5747, Note_on_c, 9, 36, 0
2, 5759, Control_c, 9, 17, 46
2, 5760, Note_on_c, 9, 51, 49
2, 5767, Control_c, 9, 17, 7
2, 5768, Note_on_c, 9, 51, 53
2, 5771, Control_c, 9, 4, 108
2, 5782, Control_c, 9, 18, 0
2, 5782, Note_on_c, 9, 48, 71
2, 5795, Note_on_c, 9, 48, 70
2, 5830, Control_c, 9, 4, 100
2, 5842, Note_on_c, 9, 51, 0
2, 5842, Note_on_c, 9, 51, 0
2, 5865, Note_on_c, 9, 48, 0
2, 5865, Note_on_c, 9, 48, 0
2, 5871, Control_c, 9, 4, 89
2, 5893, Control_c, 9, 17, 44
2, 5894, Note_on_c, 9, 51, 50
2, 5903, Control_c, 9, 4, 72
2, 5912, Control_c, 9, 17, 10
2, 5913, Note_on_c, 9, 51, 73
2, 5941, Control_c, 9, 4, 0
2, 5976, Note_on_c, 9, 51, 0
2, 5976, Note_on_c, 9, 51, 0
2, 6005, Control_c, 9, 4, 34
2, 6010, Note_on_c, 9, 44, 127
2, 6021, Note_on_c, 9, 36, 57
2, 6036, Control_c, 9, 4, 120
2, 6078, Control_c, 9, 4, 96
2, 6094, Note_on_c, 9, 44, 0
2, 6102, Note_on_c, 9, 36, 0
2, 6120, Control_c, 9, 4, 85
2, 6198, Control_c, 9, 4, 89
2, 6252, Control_c, 9, 4, 94
2, 6260, Control_c, 9, 17, 0
2, 6261, Control_c, 9, 16, 0
2, 6261, Note_on_c, 9, 38, 62
2, 6261, Note_on_c, 9, 51, 91
2, 6263, Control_c, 9, 17, 0
2, 6264, Note_on_c, 9, 36, 72
2, 6264, Note_on_c, 9, 51, 90
2, 6267, Note_on_c, 9, 38, 66
2, 6275, Note_on_c, 9, 36, 69
2, 6302, Control_c, 9, 4, 99
2, 6343, Note_on_c, 9, 51, 0
2, 6343, Note_on_c, 9, 51, 0
2, 6344, Note_on_c, 9, 38, 0
2, 6344, Note_on_c, 9, 38, 0
2, 6346, Note_on_c, 9, 36, 0
2, 6346, Note_on_c, 9, 36, 0
2, 6355, Control_c, 9, 4, 86
2, 6373, Control_c, 9, 4, 83
2, 6385, Control_c, 9, 4, 70
2, 6403, Control_c, 9, 4, 70
2, 6421, Control_c, 9, 4, 0
2, 6435, Control_c, 9, 4, 0
2, 6490, Control_c, 9, 4, 36
2, 6494, Control_c, 9, 4, 34
2, 6496, Note_on_c, 9, 44, 127
2, 6499, Note_on_c, 9, 44, 126
2, 6504, Control_c, 9, 17, 23
2, 6505, Note_on_c, 9, 51, 67
2, 6513, Control_c, 9, 17, 39
2, 6513, Note_on_c, 9, 51, 68
2, 6521, Control_c, 9, 4, 122
2, 6525, Control_c, 9, 4, 120
2, 6563, Control_c, 9, 4, 99
2, 6569, Control_c, 9, 4, 97
2, 6578, Note_on_c, 9, 44, 0
2, 6578, Note_on_c, 9, 44, 0
2, 6586, Note_on_c, 9, 51, 0
2, 6586, Note_on_c, 9, 51, 0
2, 6606, Control_c, 9, 4, 87
2, 6609, Control_c, 9, 4, 85
2, 6614, Note_on_c, 9, 48, 50
2, 6621, Control_c, 9, 18, 0
2, 6621, Note_on_c, 9, 48, 48
2, 6628, Note_on_c, 9, 36, 64
2, 6628, Note_on_c, 9, 36, 72
2, 6696, Note_on_c, 9, 48, 0
2, 6696, Note_on_c, 9, 48, 0
2, 6710, Note_on_c, 9, 36, 0
2, 6710, Note_on_c, 9, 36, 0
2, 6721, Control_c, 9, 4, 96
2, 6729, Control_c, 9, 17, 55
2, 6730, Note_on_c, 9, 51, 48
2, 6731, Control_c, 9, 4, 110
2, 6741, Control_c, 9, 17, 57
2, 6741, Note_on_c, 9, 48, 72
2, 6741, Note_on_c, 9, 51, 53
2, 6743, Control_c, 9, 18, 0
2, 6743, Note_on_c, 9, 48, 69
2, 6761, Control_c, 9, 4, 114
2, 6810, Control_c, 9, 4, 92
2, 6811, Note_on_c, 9, 51, 0
2, 6811, Note_on_c, 9, 51, 0
2, 6822, Note_on_c, 9, 48, 0
2, 6822, Note_on_c, 9, 48, 0
2, 6828, Control_c, 9, 4, 91
2, 6844, Control_c, 9, 4, 73
2, 6862, Control_c, 9, 4, 72
2, 6875, Control_c, 9, 17, 40
2, 6876, Control_c, 9, 17, 18
2, 6876, Note_on_c, 9, 51, 59
2, 6876, Note_on_c, 9, 51, 71
2, 6882, Control_c, 9, 4, 0
2, 6901, Control_c, 9, 4, 0
2, 6957, Note_on_c, 9, 51, 0
2, 6957, Note_on_c, 9, 51, 0
2, 6958, Note_on_c, 9, 46, 9
2, 6965, Control_c, 9, 4, 34
2, 6968, Control_c, 9, 4, 33
2, 6971, Note_on_c, 9, 36, 64
2, 6971, Note_on_c, 9, 44, 127
2, 6973, Note_on_c, 9, 44, 127
2, 6983, Note_on_c, 9, 36, 57
2, 6996, Control_c, 9, 4, 122
2, 6999, Control_c, 9, 4, 127
2, 7014, Note_on_c, 9, 49, 7
2, 7041, Note_on_c, 9, 46, 0
2, 7044, Control_c, 9, 4, 96
2, 7044, Control_c, 9, 4, 96
2, 7053, Note_on_c, 9, 36, 0
2, 7053, Note_on_c, 9, 36, 0
2, 7053, Note_on_c, 9, 44, 0
2, 7053, Note_on_c, 9, 44, 0
2, 7080, Control_c, 9, 4, 69
2, 7089, Control_c, 9, 4, 85
2, 7097, Note_on_c, 9, 49, 0
2, 7112, Control_c, 9, 4, 0
2, 7147, Control_c, 9, 4, 89
2, 7194, Note_on_c, 9, 46, 14
2, 7204, Control_c, 9, 4, 95
2, 7205, Control_c, 9, 4, 51
2, 7210, Note_on_c, 9, 44, 119
2, 7217, Note_on_c, 9, 36, 86
2, 7218, Control_c, 9, 17, 5
2, 7219, Note_on_c, 9, 51, 98
2, 7222, Note_on_c, 9, 36, 88
2, 7224, Note_on_c, 9, 38, 64
2, 7225, Control_c, 9, 16, 0
2, 7226, Note_on_c, 9, 38, 68
2, 7227, Control_c, 9, 17, 7
2, 7227, Note_on_c, 9, 51, 96
2, 7236, Control_c, 9, 4, 95
2, 7276, Note_on_c, 9, 46, 0
2, 7292, Note_on_c, 9, 44, 0
2, 7300, Note_on_c, 9, 36, 0
2, 7300, Note_on_c, 9, 36, 0
2, 7300, Note_on_c, 9, 51, 0
2, 7300, Note_on_c, 9, 51, 0
2, 7304, Note_on_c, 9, 38, 0
2, 7304, Note_on_c, 9, 38, 0
2, 7310, Control_c, 9, 4, 84
2, 7330, Control_c, 9, 4, 83
2, 7340, Control_c, 9, 4, 80
2, 7363, Control_c, 9, 4, 70
2, 7400, Control_c, 9, 4, 0
2, 7447, Control_c, 9, 4, 110
2, 7456, Control_c, 9, 4, 32
2, 7462, Note_on_c, 9, 44, 119
2, 7466, Control_c, 9, 17, 44
2, 7466, Note_on_c, 9, 51, 67
2, 7468, Control_c, 9, 17, 54
2, 7469, Note_on_c, 9, 51, 69
2, 7488, Control_c, 9, 4, 118
2, 7519, Control_c, 9, 4, 92
2, 7530, Control_c, 9, 4, 96
2, 7545, Note_on_c, 9, 44, 0
2, 7547, Note_on_c, 9, 51, 0
2, 7547, Note_on_c, 9, 51, 0
2, 7567, Control_c, 9, 4, 69
2, 7571, Note_on_c, 9, 36, 37
2, 7572, Control_c, 9, 4, 85
2, 7578, Note_on_c, 9, 48, 49
2, 7588, Note_on_c, 9, 48, 45
2, 7595, Note_on_c, 9, 36, 62
2, 7599, Control_c, 9, 4, 0
2, 7654, Note_on_c, 9, 36, 0
2, 7654, Note_on_c, 9, 36, 0
2, 7661, Note_on_c, 9, 48, 0
2, 7661, Note_on_c, 9, 48, 0
2, 7667, Control_c, 9, 17, 74
2, 7679, Control_c, 9, 4, 36
2, 7680, End_track
0, 0, End_of_file
