0, 0, Header, 1, 2, 480
1, 0, Start_track
1, 0, Tempo, 652173
1, 0, Time_signature, 4, 2, 24, 8
1, 0, Key_signature, 0, "major"
1, 1, End_track
2, 0, Start_track
2, 0, Title_t, "Midi Drums"
2, 0, Program_c, 9, 0
2, 237, Note_on_c, 9, 38, 127
2, 311, Note_on_c, 9, 38, 0
2, 359, Note_on_c, 9, 38, 84
2, 433, Note_on_c, 9, 38, 0
2, 473, Note_on_c, 9, 51, 92
2, 547, Note_on_c, 9, 51, 0
2, 591, Note_on_c, 9, 36, 98
2, 665, Note_on_c, 9, 36, 0
2, 709, Note_on_c, 9, 51, 127
2, 710, Note_on_c, 9, 38, 127
2, 783, Note_on_c, 9, 51, 0
2, 784, Note_on_c, 9, 38, 0
2, 949, Note_on_c, 9, 36, 127
2, 954, Note_on_c, 9, 51, 99
2, 1023, Note_on_c, 9, 36, 0
2, 1029, Note_on_c, 9, 51, 0
2, 1190, Note_on_c, 9, 51, 91
2, 1264, Note_on_c, 9, 51, 0
2, 1317, Note_on_c, 9, 51, 89
2, 1391, Note_on_c, 9, 51, 0
2, 1435, Note_on_c, 9, 38, 127
2, 1439, Note_on_c, 9, 51, 110
2, 1509, Note_on_c, 9, 38, 0
2, 1514, Note_on_c, 9, 51, 0
2, 1668, Note_on_c, 9, 51, 59
2, 1742, Note_on_c, 9, 51, 0
2, 1904, Note_on_c, 9, 36, 126
2, 1911, Note_on_c, 9, 51, 127
2, 1978, Note_on_c, 9, 36, 0
2, 1985, Note_on_c, 9, 51, 0
2, 2150, Note_on_c, 9, 51, 89
2, 2158, Note_on_c, 9, 38, 127
2, 2225, Note_on_c, 9, 51, 0
2, 2233, Note_on_c, 9, 38, 0
2, 2278, Note_on_c, 9, 38, 88
2, 2352, Note_on_c, 9, 38, 0
2, 2404, Note_on_c, 9, 51, 79
2, 2478, Note_on_c, 9, 51, 0
2, 2519, Note_on_c, 9, 36, 81
2, 2593, Note_on_c, 9, 36, 0
2, 2637, Note_on_c, 9, 51, 127
2, 2638, Note_on_c, 9, 38, 127
2, 2712, Note_on_c, 9, 38, 0
2, 2712, Note_on_c, 9, 51, 0
2, 2859, Note_on_c, 9, 36, 127
2, 2878, Note_on_c, 9, 51, 85
2, 2933, Note_on_c, 9, 36, 0
2, 2952, Note_on_c, 9, 51, 0
2, 3100, Note_on_c, 9, 51, 61
2, 3174, Note_on_c, 9, 51, 0
2, 3234, Note_on_c, 9, 36, 73
2, 3308, Note_on_c, 9, 36, 0
2, 3343, Note_on_c, 9, 38, 127
2, 3343, Note_on_c, 9, 51, 127
2, 3418, Note_on_c, 9, 38, 0
2, 3418, Note_on_c, 9, 51, 0
2, 3586, Note_on_c, 9, 51, 27
2, 3661, Note_on_c, 9, 51, 0
2, 3815, Note_on_c, 9, 51, 106
2, 3818, Note_on_c, 9, 36, 122
2, 3889, Note_on_c, 9, 51, 0
2, 3892, Note_on_c, 9, 36, 0
2, 4057, Note_on_c, 9, 38, 127
2, 4059, Note_on_c, 9, 51, 112
2, 4132, Note_on_c, 9, 38, 0
2, 4133, Note_on_c, 9, 51, 0
2, 4198, Note_on_c, 9, 38, 96
2, 4272, Note_on_c, 9, 38, 0
2, 4320, Note_on_c, 9, 51, 67
2, 4394, Note_on_c, 9, 51, 0
2, 4422, Note_on_c, 9, 36, 67
2, 4497, Note_on_c, 9, 36, 0
2, 4539, Note_on_c, 9, 38, 127
2, 4540, Note_on_c, 9, 51, 127
2, 4614, Note_on_c, 9, 38, 0
2, 4614, Note_on_c, 9, 51, 0
2, 4773, Note_on_c, 9, 59, 43
2, 4847, Note_on_c, 9, 59, 0
2, 4885, Note_on_c, 9, 36, 64
2, 4960, Note_on_c, 9, 36, 0
2, 5013, Note_on_c, 9, 51, 83
2, 5088, Note_on_c, 9, 51, 0
2, 5123, Note_on_c, 9, 36, 90
2, 5197, Note_on_c, 9, 36, 0
2, 5241, Note_on_c, 9, 51, 127
2, 5245, Note_on_c, 9, 38, 127
2, 5315, Note_on_c, 9, 51, 0
2, 5319, Note_on_c, 9, 38, 0
2, 5733, Note_on_c, 9, 36, 127
2, 5739, Note_on_c, 9, 51, 125
2, 5807, Note_on_c, 9, 36, 0
2, 5813, Note_on_c, 9, 51, 0
2, 5992, Note_on_c, 9, 51, 103
2, 5999, Note_on_c, 9, 38, 127
2, 6067, Note_on_c, 9, 51, 0
2, 6073, Note_on_c, 9, 38, 0
2, 6119, Note_on_c, 9, 38, 100
2, 6194, Note_on_c, 9, 38, 0
2, 6243, Note_on_c, 9, 51, 80
2, 6318, Note_on_c, 9, 51, 0
2, 6365, Note_on_c, 9, 36, 71
2, 6440, Note_on_c, 9, 36, 0
2, 6468, Note_on_c, 9, 38, 127
2, 6470, Note_on_c, 9, 51, 120
2, 6542, Note_on_c, 9, 38, 0
2, 6544, Note_on_c, 9, 51, 0
2, 6712, Note_on_c, 9, 59, 47
2, 6719, Note_on_c, 9, 36, 98
2, 6786, Note_on_c, 9, 59, 0
2, 6793, Note_on_c, 9, 36, 0
2, 6837, Note_on_c, 9, 38, 127
2, 6843, Note_on_c, 9, 59, 127
2, 6911, Note_on_c, 9, 38, 0
2, 6917, Note_on_c, 9, 59, 0
2, 7083, Note_on_c, 9, 36, 106
2, 7157, Note_on_c, 9, 36, 0
2, 7168, Note_on_c, 9, 38, 127
2, 7183, Note_on_c, 9, 51, 127
2, 7243, Note_on_c, 9, 38, 0
2, 7257, Note_on_c, 9, 51, 0
2, 7425, Note_on_c, 9, 52, 127
2, 7427, Note_on_c, 9, 55, 111
2, 7500, Note_on_c, 9, 52, 0
2, 7501, Note_on_c, 9, 55, 0
2, 7502, End_track
0, 0, End_of_file
