0, 0, Header, 1, 2, 480
1, 0, Start_track
1, 0, Tempo, 588235
1, 0, Time_signature, 4, 2, 24, 8
1, 0, Key_signature, 0, "major"
1, 1, End_track
2, 0, Start_track
2, 0, Title_t, "Classic Studio Kit"
2, 0, Program_c, 9, 0
2, 0, Control_c, 9, 18, 0
2, 7, Control_c, 9, 4, 116
2, 14, Note_on_c, 9, 48, 65
2, 19, Control_c, 9, 17, 127
2, 20, Note_on_c, 9, 51, 66
2, 96, Note_on_c, 9, 48, 0
2, 101, Note_on_c, 9, 51, 0
2, 107, Control_c, 9, 4, 91
2, 138, Control_c, 9, 17, 49
2, 138, Note_on_c, 9, 51, 68
2, 145, Control_c, 9, 4, 72
2, 182, Control_c, 9, 4, 0
2, 220, Note_on_c, 9, 51, 0
2, 245, Note_on_c, 9, 36, 71
2, 253, Note_on_c, 9, 44, 127
2, 259, Control_c, 9, 4, 127
2, 303, Control_c, 9, 4, 120
2, 327, Note_on_c, 9, 36, 0
2, 335, Note_on_c, 9, 44, 0
2, 340, Control_c, 9, 4, 90
2, 368, Control_c, 9, 17, 16
2, 368, Note_on_c, 9, 51, 73
2, 375, Control_c, 9, 4, 85
2, 451, Note_on_c, 9, 51, 0
2, 468, Control_c, 9, 4, 102
2, 485, Note_on_c, 9, 36, 81
2, 487, Note_on_c, 9, 38, 65
2, 500, Control_c, 9, 4, 104
2, 567, Note_on_c, 9, 36, 0
2, 567, Note_on_c, 9, 38, 0
2, 568, Control_c, 9, 4, 92
2, 616, Control_c, 9, 4, 70
2, 649, Control_c, 9, 4, 0
2, 712, Control_c, 9, 17, 47
2, 712, Note_on_c, 9, 51, 78
2, 719, Note_on_c, 9, 44, 127
2, 725, Control_c, 9, 4, 127
2, 769, Control_c, 9, 4, 120
2, 794, Note_on_c, 9, 51, 0
2, 800, Note_on_c, 9, 44, 0
2, 804, Control_c, 9, 4, 91
2, 832, Control_c, 9, 18, 0
2, 832, Note_on_c, 9, 48, 44
2, 837, Note_on_c, 9, 36, 59
2, 914, Note_on_c, 9, 48, 0
2, 919, Note_on_c, 9, 36, 0
2, 944, Control_c, 9, 4, 120
2, 962, Control_c, 9, 17, 0
2, 962, Note_on_c, 9, 48, 66
2, 964, Note_on_c, 9, 51, 61
2, 1022, Control_c, 9, 4, 97
2, 1044, Note_on_c, 9, 48, 0
2, 1044, Note_on_c, 9, 51, 0
2, 1063, Control_c, 9, 4, 71
2, 1090, Control_c, 9, 17, 109
2, 1090, Note_on_c, 9, 51, 60
2, 1099, Control_c, 9, 4, 0
2, 1172, Note_on_c, 9, 51, 0
2, 1175, Note_on_c, 9, 46, 8
2, 1182, Control_c, 9, 4, 35
2, 1186, Note_on_c, 9, 36, 76
2, 1188, Note_on_c, 9, 44, 127
2, 1213, Control_c, 9, 4, 127
2, 1230, Note_on_c, 9, 49, 6
2, 1257, Note_on_c, 9, 46, 0
2, 1268, Note_on_c, 9, 36, 0
2, 1268, Note_on_c, 9, 44, 0
2, 1271, Control_c, 9, 4, 94
2, 1312, Control_c, 9, 4, 70
2, 1312, Note_on_c, 9, 49, 0
2, 1322, Control_c, 9, 17, 48
2, 1323, Note_on_c, 9, 51, 55
2, 1344, Control_c, 9, 4, 0
2, 1404, Note_on_c, 9, 51, 0
2, 1421, Note_on_c, 9, 46, 11
2, 1428, Control_c, 9, 4, 32
2, 1434, Note_on_c, 9, 44, 127
2, 1441, Control_c, 9, 16, 0
2, 1441, Note_on_c, 9, 36, 84
2, 1441, Note_on_c, 9, 38, 67
2, 1460, Control_c, 9, 4, 112
2, 1502, Note_on_c, 9, 46, 0
2, 1507, Control_c, 9, 4, 96
2, 1516, Note_on_c, 9, 44, 0
2, 1523, Note_on_c, 9, 38, 0
2, 1524, Note_on_c, 9, 36, 0
2, 1544, Control_c, 9, 4, 84
2, 1655, Control_c, 9, 4, 93
2, 1683, Control_c, 9, 17, 54
2, 1684, Control_c, 9, 4, 124
2, 1684, Note_on_c, 9, 51, 73
2, 1718, Control_c, 9, 4, 120
2, 1758, Control_c, 9, 4, 91
2, 1766, Note_on_c, 9, 51, 0
2, 1789, Note_on_c, 9, 36, 67
2, 1790, Control_c, 9, 4, 71
2, 1798, Control_c, 9, 17, 54
2, 1799, Note_on_c, 9, 51, 6
2, 1803, Control_c, 9, 18, 0
2, 1803, Note_on_c, 9, 48, 43
2, 1825, Control_c, 9, 4, 0
2, 1871, Note_on_c, 9, 36, 0
2, 1880, Note_on_c, 9, 51, 0
2, 1883, Note_on_c, 9, 48, 0
2, 1902, Note_on_c, 9, 46, 7
2, 1909, Control_c, 9, 4, 33
2, 1913, Note_on_c, 9, 44, 127
2, 1926, Note_on_c, 9, 48, 69
2, 1927, Control_c, 9, 17, 127
2, 1928, Note_on_c, 9, 51, 67
2, 1940, Control_c, 9, 4, 127
2, 1971, Control_c, 9, 4, 118
2, 1984, Note_on_c, 9, 46, 0
2, 1996, Note_on_c, 9, 44, 0
2, 2007, Note_on_c, 9, 48, 0
2, 2008, Control_c, 9, 4, 92
2, 2008, Note_on_c, 9, 51, 0
2, 2043, Control_c, 9, 17, 127
2, 2043, Note_on_c, 9, 51, 14
2, 2045, Note_on_c, 9, 51, 0
2, 2046, Note_on_c, 9, 51, 57
2, 2125, Note_on_c, 9, 51, 0
2, 2133, Control_c, 9, 4, 116
2, 2138, Note_on_c, 9, 36, 67
2, 2199, Control_c, 9, 4, 94
2, 2220, Note_on_c, 9, 36, 0
2, 2391, Note_on_c, 9, 36, 78
2, 2410, Control_c, 9, 17, 44
2, 2411, Control_c, 9, 16, 0
2, 2411, Note_on_c, 9, 51, 89
2, 2413, Control_c, 9, 4, 100
2, 2413, Note_on_c, 9, 38, 99
2, 2474, Note_on_c, 9, 36, 0
2, 2480, Control_c, 9, 4, 92
2, 2492, Note_on_c, 9, 51, 0
2, 2493, Note_on_c, 9, 38, 0
2, 2527, Control_c, 9, 4, 70
2, 2559, Control_c, 9, 4, 0
2, 2623, Note_on_c, 9, 46, 9
2, 2636, Note_on_c, 9, 44, 127
2, 2642, Control_c, 9, 4, 127
2, 2650, Control_c, 9, 17, 59
2, 2650, Note_on_c, 9, 51, 72
2, 2686, Control_c, 9, 4, 120
2, 2704, Note_on_c, 9, 46, 0
2, 2718, Note_on_c, 9, 44, 0
2, 2723, Control_c, 9, 4, 92
2, 2733, Note_on_c, 9, 51, 0
2, 2771, Control_c, 9, 18, 0
2, 2772, Note_on_c, 9, 48, 46
2, 2777, Note_on_c, 9, 36, 70
2, 2853, Note_on_c, 9, 48, 0
2, 2858, Note_on_c, 9, 36, 0
2, 2888, Control_c, 9, 4, 118
2, 2893, Note_on_c, 9, 48, 72
2, 2899, Control_c, 9, 17, 127
2, 2899, Note_on_c, 9, 51, 54
2, 2975, Note_on_c, 9, 48, 0
2, 2981, Note_on_c, 9, 51, 0
2, 2987, Control_c, 9, 4, 98
2, 3018, Control_c, 9, 4, 81
2, 3021, Control_c, 9, 17, 76
2, 3021, Note_on_c, 9, 51, 64
2, 3059, Control_c, 9, 4, 0
2, 3103, Note_on_c, 9, 51, 0
2, 3131, Note_on_c, 9, 46, 16
2, 3132, Note_on_c, 9, 36, 61
2, 3137, Control_c, 9, 4, 33
2, 3142, Note_on_c, 9, 44, 127
2, 3168, Control_c, 9, 4, 127
2, 3212, Note_on_c, 9, 46, 0
2, 3215, Note_on_c, 9, 36, 0
2, 3216, Control_c, 9, 4, 102
2, 3225, Note_on_c, 9, 44, 0
2, 3254, Control_c, 9, 4, 70
2, 3266, Control_c, 9, 17, 49
2, 3267, Note_on_c, 9, 51, 65
2, 3287, Control_c, 9, 4, 0
2, 3349, Note_on_c, 9, 51, 0
2, 3364, Note_on_c, 9, 46, 8
2, 3372, Control_c, 9, 4, 34
2, 3379, Note_on_c, 9, 36, 87
2, 3379, Note_on_c, 9, 44, 127
2, 3386, Control_c, 9, 16, 21
2, 3386, Note_on_c, 9, 38, 62
2, 3404, Control_c, 9, 4, 110
2, 3446, Note_on_c, 9, 46, 0
2, 3460, Note_on_c, 9, 36, 0
2, 3460, Note_on_c, 9, 44, 0
2, 3463, Control_c, 9, 4, 91
2, 3469, Note_on_c, 9, 38, 0
2, 3511, Control_c, 9, 4, 81
2, 3617, Control_c, 9, 17, 73
2, 3617, Note_on_c, 9, 51, 79
2, 3619, Control_c, 9, 4, 120
2, 3692, Control_c, 9, 4, 97
2, 3701, Note_on_c, 9, 51, 0
2, 3736, Control_c, 9, 4, 70
2, 3740, Note_on_c, 9, 36, 62
2, 3742, Control_c, 9, 18, 0
2, 3742, Note_on_c, 9, 48, 43
2, 3767, Control_c, 9, 4, 0
2, 3821, Note_on_c, 9, 36, 0
2, 3824, Note_on_c, 9, 48, 0
2, 3843, Note_on_c, 9, 46, 14
2, 3850, Control_c, 9, 4, 33
2, 3855, Note_on_c, 9, 44, 127
2, 3861, Control_c, 9, 17, 127
2, 3862, Note_on_c, 9, 51, 66
2, 3865, Note_on_c, 9, 48, 67
2, 3881, Control_c, 9, 4, 127
2, 3912, Control_c, 9, 4, 118
2, 3927, Note_on_c, 9, 46, 0
2, 3937, Note_on_c, 9, 44, 0
2, 3943, Note_on_c, 9, 51, 0
2, 3946, Note_on_c, 9, 48, 0
2, 3949, Control_c, 9, 4, 92
2, 3985, Control_c, 9, 17, 57
2, 3986, Note_on_c, 9, 51, 61
2, 4068, Note_on_c, 9, 51, 0
2, 4073, Control_c, 9, 4, 112
2, 4077, Note_on_c, 9, 36, 65
2, 4114, Control_c, 9, 4, 102
2, 4144, Control_c, 9, 4, 92
2, 4159, Note_on_c, 9, 36, 0
2, 4323, Note_on_c, 9, 36, 71
2, 4330, Control_c, 9, 4, 97
2, 4332, Control_c, 9, 17, 40
2, 4332, Note_on_c, 9, 51, 85
2, 4335, Control_c, 9, 16, 0
2, 4335, Note_on_c, 9, 38, 85
2, 4406, Control_c, 9, 4, 91
2, 4406, Note_on_c, 9, 36, 0
2, 4414, Note_on_c, 9, 51, 0
2, 4416, Note_on_c, 9, 38, 0
2, 4452, Control_c, 9, 4, 69
2, 4483, Control_c, 9, 4, 0
2, 4547, Note_on_c, 9, 46, 9
2, 4560, Note_on_c, 9, 44, 127
2, 4566, Control_c, 9, 4, 127
2, 4576, Control_c, 9, 17, 75
2, 4576, Note_on_c, 9, 51, 75
2, 4610, Control_c, 9, 4, 120
2, 4628, Note_on_c, 9, 46, 0
2, 4642, Note_on_c, 9, 44, 0
2, 4650, Control_c, 9, 4, 91
2, 4659, Note_on_c, 9, 51, 0
2, 4682, Control_c, 9, 4, 87
2, 4690, Control_c, 9, 17, 75
2, 4691, Control_c, 9, 18, 0
2, 4691, Note_on_c, 9, 51, 6
2, 4693, Note_on_c, 9, 48, 48
2, 4707, Note_on_c, 9, 36, 62
2, 4774, Note_on_c, 9, 51, 0
2, 4775, Note_on_c, 9, 48, 0
2, 4789, Note_on_c, 9, 36, 0
2, 4815, Control_c, 9, 4, 120
2, 4816, Note_on_c, 9, 48, 72
2, 4819, Control_c, 9, 17, 127
2, 4820, Note_on_c, 9, 51, 68
2, 4898, Note_on_c, 9, 48, 0
2, 4901, Note_on_c, 9, 51, 0
2, 4911, Control_c, 9, 4, 91
2, 4940, Control_c, 9, 17, 92
2, 4940, Note_on_c, 9, 51, 65
2, 4945, Control_c, 9, 4, 71
2, 4979, Control_c, 9, 4, 0
2, 5023, Note_on_c, 9, 51, 0
2, 5047, Note_on_c, 9, 36, 71
2, 5047, Note_on_c, 9, 46, 14
2, 5054, Control_c, 9, 4, 35
2, 5056, Control_c, 9, 17, 92
2, 5056, Note_on_c, 9, 51, 5
2, 5059, Note_on_c, 9, 44, 127
2, 5084, Control_c, 9, 4, 127
2, 5117, Control_c, 9, 4, 120
2, 5128, Note_on_c, 9, 46, 0
2, 5129, Note_on_c, 9, 36, 0
2, 5138, Note_on_c, 9, 51, 0
2, 5140, Note_on_c, 9, 44, 0
2, 5152, Control_c, 9, 4, 89
2, 5174, Control_c, 9, 17, 56
2, 5175, Note_on_c, 9, 51, 65
2, 5183, Control_c, 9, 4, 73
2, 5257, Note_on_c, 9, 51, 0
2, 5263, Control_c, 9, 4, 76
2, 5264, Note_on_c, 9, 46, 11
2, 5290, Note_on_c, 9, 36, 81
2, 5297, Note_on_c, 9, 38, 63
2, 5298, Control_c, 9, 4, 112
2, 5343, Control_c, 9, 4, 97
2, 5346, Note_on_c, 9, 46, 0
2, 5373, Note_on_c, 9, 36, 0
2, 5378, Note_on_c, 9, 38, 0
2, 5388, Control_c, 9, 4, 83
2, 5422, Control_c, 9, 4, 70
2, 5467, Control_c, 9, 4, 0
2, 5531, Control_c, 9, 17, 56
2, 5532, Note_on_c, 9, 51, 83
2, 5533, Control_c, 9, 4, 34
2, 5537, Note_on_c, 9, 44, 127
2, 5563, Control_c, 9, 4, 120
2, 5593, Control_c, 9, 4, 112
2, 5613, Note_on_c, 9, 51, 0
2, 5618, Note_on_c, 9, 44, 0
2, 5623, Control_c, 9, 4, 92
2, 5655, Control_c, 9, 4, 87
2, 5658, Control_c, 9, 18, 0
2, 5658, Note_on_c, 9, 36, 69
2, 5659, Note_on_c, 9, 48, 44
2, 5740, Note_on_c, 9, 36, 0
2, 5741, Note_on_c, 9, 48, 0
2, 5776, Note_on_c, 9, 48, 68
2, 5783, Control_c, 9, 17, 127
2, 5783, Note_on_c, 9, 51, 62
2, 5786, Control_c, 9, 4, 122
2, 5840, Control_c, 9, 4, 114
2, 5857, Note_on_c, 9, 48, 0
2, 5865, Note_on_c, 9, 51, 0
2, 5883, Control_c, 9, 4, 89
2, 5905, Control_c, 9, 17, 106
2, 5906, Note_on_c, 9, 51, 64
2, 5913, Control_c, 9, 4, 71
2, 5948, Control_c, 9, 4, 0
2, 5987, Note_on_c, 9, 51, 0
2, 6006, Note_on_c, 9, 36, 70
2, 6018, Control_c, 9, 17, 106
2, 6018, Note_on_c, 9, 51, 5
2, 6021, Note_on_c, 9, 44, 127
2, 6025, Control_c, 9, 4, 127
2, 6075, Control_c, 9, 4, 118
2, 6088, Note_on_c, 9, 36, 0
2, 6101, Note_on_c, 9, 44, 0
2, 6101, Note_on_c, 9, 51, 0
2, 6110, Control_c, 9, 4, 91
2, 6144, Control_c, 9, 4, 87
2, 6245, Control_c, 9, 4, 112
2, 6261, Note_on_c, 9, 36, 76
2, 6266, Control_c, 9, 16, 0
2, 6267, Control_c, 9, 17, 36
2, 6267, Note_on_c, 9, 38, 89
2, 6269, Note_on_c, 9, 51, 86
2, 6315, Control_c, 9, 4, 102
2, 6344, Note_on_c, 9, 36, 0
2, 6349, Control_c, 9, 4, 89
2, 6349, Note_on_c, 9, 38, 0
2, 6349, Note_on_c, 9, 51, 0
2, 6380, Control_c, 9, 4, 71
2, 6416, Control_c, 9, 4, 0
2, 6485, Note_on_c, 9, 46, 8
2, 6499, Note_on_c, 9, 44, 127
2, 6504, Control_c, 9, 4, 127
2, 6512, Control_c, 9, 17, 61
2, 6512, Note_on_c, 9, 51, 69
2, 6548, Control_c, 9, 4, 120
2, 6567, Note_on_c, 9, 46, 0
2, 6580, Note_on_c, 9, 44, 0
2, 6587, Control_c, 9, 4, 91
2, 6594, Note_on_c, 9, 51, 0
2, 6622, Control_c, 9, 4, 87
2, 6627, Control_c, 9, 18, 0
2, 6627, Note_on_c, 9, 48, 46
2, 6632, Note_on_c, 9, 36, 62
2, 6708, Note_on_c, 9, 48, 0
2, 6713, Note_on_c, 9, 36, 0
2, 6736, Control_c, 9, 4, 120
2, 6749, Control_c, 9, 17, 127
2, 6749, Note_on_c, 9, 51, 62
2, 6751, Note_on_c, 9, 48, 65
2, 6826, Control_c, 9, 4, 94
2, 6832, Note_on_c, 9, 48, 0
2, 6832, Note_on_c, 9, 51, 0
2, 6858, Control_c, 9, 4, 79
2, 6867, Control_c, 9, 17, 91
2, 6867, Note_on_c, 9, 51, 71
2, 6901, Control_c, 9, 4, 0
2, 6949, Note_on_c, 9, 51, 0
2, 6967, Note_on_c, 9, 46, 8
2, 6972, Note_on_c, 9, 36, 65
2, 6973, Control_c, 9, 4, 34
2, 6978, Note_on_c, 9, 44, 127
2, 6982, Control_c, 9, 17, 91
2, 6982, Note_on_c, 9, 51, 7
2, 7004, Control_c, 9, 4, 127
2, 7044, Control_c, 9, 4, 102
2, 7048, Note_on_c, 9, 46, 0
2, 7053, Note_on_c, 9, 36, 0
2, 7060, Note_on_c, 9, 44, 0
2, 7063, Note_on_c, 9, 51, 0
2, 7076, Control_c, 9, 4, 89
2, 7120, Control_c, 9, 17, 63
2, 7120, Note_on_c, 9, 51, 65
2, 7202, Note_on_c, 9, 51, 0
2, 7210, Control_c, 9, 4, 108
2, 7210, Note_on_c, 9, 36, 81
2, 7232, Note_on_c, 9, 38, 70
2, 7293, Note_on_c, 9, 36, 0
2, 7299, Control_c, 9, 4, 95
2, 7313, Note_on_c, 9, 38, 0
2, 7332, Control_c, 9, 4, 83
2, 7362, Control_c, 9, 4, 68
2, 7392, Control_c, 9, 4, 0
2, 7461, Control_c, 9, 17, 50
2, 7461, Note_on_c, 9, 44, 127
2, 7462, Note_on_c, 9, 51, 93
2, 7466, Control_c, 9, 4, 127
2, 7510, Control_c, 9, 4, 120
2, 7542, Note_on_c, 9, 44, 0
2, 7543, Note_on_c, 9, 51, 0
2, 7546, Control_c, 9, 4, 91
2, 7577, Control_c, 9, 4, 85
2, 7585, Control_c, 9, 18, 0
2, 7586, Note_on_c, 9, 48, 43
2, 7587, Note_on_c, 9, 36, 62
2, 7667, Note_on_c, 9, 48, 0
2, 7670, Note_on_c, 9, 36, 0
2, 7671, End_track
0, 0, End_of_file
