0, 0, Header, 1, 2, 480
1, 0, Start_track
1, 0, Tempo, 588235
1, 0, Time_signature, 4, 2, 24, 8
1, 0, Key_signature, 0, "major"
1, 1, End_track
2, 0, Start_track
2, 0, Title_t, "Classic Studio Kit"
2, 0, Program_c, 9, 0
2, 0, Control_c, 9, 18, 0
2, 17, Control_c, 9, 4, 95
2, 51, Note_on_c, 9, 48, 62
2, 57, Note_on_c, 9, 51, 77
2, 132, Note_on_c, 9, 48, 0
2, 137, Note_on_c, 9, 51, 0
2, 150, Control_c, 9, 4, 83
2, 176, Control_c, 9, 17, 127
2, 177, Note_on_c, 9, 51, 54
2, 184, Control_c, 9, 4, 70
2, 220, Control_c, 9, 4, 22
2, 258, Control_c, 9, 4, 44
2, 258, Note_on_c, 9, 51, 0
2, 267, Note_on_c, 9, 44, 67
2, 278, Note_on_c, 9, 36, 34
2, 290, Control_c, 9, 17, 127
2, 291, Control_c, 9, 4, 110
2, 291, Note_on_c, 9, 51, 5
2, 327, Control_c, 9, 4, 98
2, 349, Note_on_c, 9, 44, 0
2, 359, Note_on_c, 9, 36, 0
2, 371, Control_c, 9, 4, 86
2, 372, Note_on_c, 9, 51, 0
2, 481, Control_c, 9, 4, 91
2, 512, Control_c, 9, 17, 83
2, 513, Note_on_c, 9, 51, 84
2, 521, Note_on_c, 9, 38, 69
2, 528, Note_on_c, 9, 36, 51
2, 594, Note_on_c, 9, 51, 0
2, 602, Note_on_c, 9, 38, 0
2, 610, Note_on_c, 9, 36, 0
2, 615, Control_c, 9, 4, 83
2, 655, Control_c, 9, 4, 70
2, 698, Control_c, 9, 4, 0
2, 740, Control_c, 9, 4, 49
2, 745, Note_on_c, 9, 44, 93
2, 763, Control_c, 9, 17, 127
2, 763, Note_on_c, 9, 51, 74
2, 770, Control_c, 9, 4, 112
2, 806, Control_c, 9, 4, 98
2, 827, Note_on_c, 9, 44, 0
2, 843, Control_c, 9, 4, 85
2, 845, Note_on_c, 9, 51, 0
2, 877, Control_c, 9, 17, 127
2, 878, Note_on_c, 9, 51, 6
2, 880, Control_c, 9, 18, 0
2, 881, Note_on_c, 9, 48, 48
2, 884, Note_on_c, 9, 36, 37
2, 960, Note_on_c, 9, 51, 0
2, 961, Note_on_c, 9, 48, 0
2, 966, Note_on_c, 9, 36, 0
2, 969, Control_c, 9, 4, 96
2, 1009, Note_on_c, 9, 48, 65
2, 1010, Control_c, 9, 17, 0
2, 1010, Note_on_c, 9, 51, 53
2, 1067, Control_c, 9, 4, 91
2, 1090, Note_on_c, 9, 48, 0
2, 1091, Note_on_c, 9, 51, 0
2, 1099, Control_c, 9, 4, 84
2, 1125, Control_c, 9, 17, 0
2, 1125, Note_on_c, 9, 51, 33
2, 1135, Control_c, 9, 4, 70
2, 1180, Control_c, 9, 4, 9
2, 1208, Note_on_c, 9, 51, 0
2, 1215, Control_c, 9, 4, 49
2, 1222, Note_on_c, 9, 44, 80
2, 1227, Note_on_c, 9, 36, 40
2, 1247, Control_c, 9, 4, 110
2, 1294, Control_c, 9, 4, 92
2, 1303, Note_on_c, 9, 44, 0
2, 1309, Note_on_c, 9, 36, 0
2, 1326, Control_c, 9, 4, 86
2, 1355, Control_c, 9, 17, 101
2, 1355, Note_on_c, 9, 51, 83
2, 1436, Control_c, 9, 4, 92
2, 1437, Note_on_c, 9, 51, 0
2, 1479, Control_c, 9, 16, 0
2, 1480, Note_on_c, 9, 36, 50
2, 1480, Note_on_c, 9, 38, 58
2, 1561, Note_on_c, 9, 38, 0
2, 1562, Note_on_c, 9, 36, 0
2, 1593, Control_c, 9, 4, 79
2, 1629, Control_c, 9, 4, 55
2, 1663, Control_c, 9, 4, 0
2, 1698, Control_c, 9, 4, 50
2, 1703, Note_on_c, 9, 44, 87
2, 1706, Control_c, 9, 17, 127
2, 1707, Note_on_c, 9, 51, 83
2, 1728, Control_c, 9, 4, 114
2, 1762, Control_c, 9, 4, 100
2, 1785, Note_on_c, 9, 44, 0
2, 1787, Note_on_c, 9, 51, 0
2, 1800, Control_c, 9, 4, 85
2, 1831, Control_c, 9, 18, 0
2, 1832, Note_on_c, 9, 48, 48
2, 1836, Note_on_c, 9, 36, 43
2, 1914, Note_on_c, 9, 48, 0
2, 1917, Note_on_c, 9, 36, 0
2, 1929, Control_c, 9, 4, 97
2, 1958, Note_on_c, 9, 51, 63
2, 1965, Note_on_c, 9, 48, 61
2, 2024, Control_c, 9, 4, 92
2, 2039, Note_on_c, 9, 51, 0
2, 2046, Note_on_c, 9, 48, 0
2, 2080, Control_c, 9, 4, 78
2, 2085, Control_c, 9, 17, 127
2, 2086, Note_on_c, 9, 51, 59
2, 2111, Control_c, 9, 4, 54
2, 2142, Control_c, 9, 4, 0
2, 2168, Note_on_c, 9, 51, 0
2, 2178, Control_c, 9, 4, 50
2, 2183, Note_on_c, 9, 44, 87
2, 2187, Note_on_c, 9, 36, 39
2, 2199, Control_c, 9, 17, 127
2, 2199, Note_on_c, 9, 51, 6
2, 2208, Control_c, 9, 4, 112
2, 2244, Control_c, 9, 4, 98
2, 2265, Note_on_c, 9, 44, 0
2, 2268, Note_on_c, 9, 36, 0
2, 2280, Note_on_c, 9, 51, 0
2, 2285, Control_c, 9, 4, 86
2, 2399, Control_c, 9, 4, 92
2, 2430, Note_on_c, 9, 36, 46
2, 2437, Control_c, 9, 17, 47
2, 2438, Note_on_c, 9, 51, 83
2, 2441, Control_c, 9, 16, 21
2, 2442, Note_on_c, 9, 38, 65
2, 2512, Note_on_c, 9, 36, 0
2, 2519, Note_on_c, 9, 51, 0
2, 2520, Control_c, 9, 4, 86
2, 2523, Note_on_c, 9, 38, 0
2, 2560, Control_c, 9, 4, 72
2, 2612, Control_c, 9, 4, 0
2, 2657, Control_c, 9, 4, 49
2, 2662, Note_on_c, 9, 44, 93
2, 2674, Control_c, 9, 17, 87
2, 2675, Note_on_c, 9, 51, 80
2, 2687, Control_c, 9, 4, 114
2, 2733, Control_c, 9, 4, 94
2, 2744, Note_on_c, 9, 44, 0
2, 2757, Note_on_c, 9, 51, 0
2, 2775, Control_c, 9, 4, 84
2, 2793, Note_on_c, 9, 36, 42
2, 2801, Control_c, 9, 18, 0
2, 2802, Note_on_c, 9, 48, 55
2, 2875, Note_on_c, 9, 36, 0
2, 2883, Note_on_c, 9, 48, 0
2, 2891, Control_c, 9, 4, 97
2, 2930, Control_c, 9, 17, 111
2, 2930, Note_on_c, 9, 51, 67
2, 2933, Note_on_c, 9, 48, 65
2, 2993, Control_c, 9, 4, 92
2, 3011, Note_on_c, 9, 51, 0
2, 3014, Note_on_c, 9, 48, 0
2, 3040, Control_c, 9, 4, 79
2, 3054, Control_c, 9, 17, 115
2, 3055, Note_on_c, 9, 51, 66
2, 3074, Control_c, 9, 4, 54
2, 3106, Control_c, 9, 4, 0
2, 3136, Note_on_c, 9, 51, 0
2, 3143, Control_c, 9, 4, 50
2, 3148, Note_on_c, 9, 44, 87
2, 3153, Note_on_c, 9, 36, 45
2, 3168, Control_c, 9, 17, 115
2, 3168, Note_on_c, 9, 51, 6
2, 3174, Control_c, 9, 4, 114
2, 3205, Control_c, 9, 4, 99
2, 3229, Note_on_c, 9, 44, 0
2, 3233, Note_on_c, 9, 36, 0
2, 3241, Control_c, 9, 4, 85
2, 3250, Note_on_c, 9, 51, 0
2, 3286, Control_c, 9, 17, 52
2, 3286, Note_on_c, 9, 51, 78
2, 3369, Note_on_c, 9, 51, 0
2, 3370, Control_c, 9, 4, 94
2, 3398, Note_on_c, 9, 36, 54
2, 3404, Control_c, 9, 16, 0
2, 3405, Note_on_c, 9, 38, 63
2, 3477, Control_c, 9, 4, 90
2, 3480, Note_on_c, 9, 36, 0
2, 3487, Note_on_c, 9, 38, 0
2, 3520, Control_c, 9, 4, 78
2, 3556, Control_c, 9, 4, 54
2, 3587, Control_c, 9, 4, 11
2, 3617, Control_c, 9, 4, 43
2, 3624, Note_on_c, 9, 44, 80
2, 3630, Control_c, 9, 17, 103
2, 3630, Note_on_c, 9, 51, 82
2, 3649, Control_c, 9, 4, 114
2, 3691, Control_c, 9, 4, 93
2, 3706, Note_on_c, 9, 44, 0
2, 3711, Note_on_c, 9, 51, 0
2, 3728, Control_c, 9, 4, 82
2, 3755, Note_on_c, 9, 36, 39
2, 3758, Control_c, 9, 18, 0
2, 3759, Note_on_c, 9, 48, 49
2, 3837, Note_on_c, 9, 36, 0
2, 3840, Note_on_c, 9, 48, 0
2, 3843, Control_c, 9, 4, 96
2, 3883, Control_c, 9, 17, 127
2, 3883, Note_on_c, 9, 51, 69
2, 3888, Note_on_c, 9, 48, 60
2, 3946, Control_c, 9, 4, 91
2, 3964, Note_on_c, 9, 51, 0
2, 3968, Note_on_c, 9, 48, 0
2, 3981, Control_c, 9, 4, 83
2, 4006, Control_c, 9, 17, 0
2, 4007, Note_on_c, 9, 51, 52
2, 4018, Control_c, 9, 4, 70
2, 4061, Control_c, 9, 4, 10
2, 4088, Note_on_c, 9, 51, 0
2, 4094, Control_c, 9, 4, 51
2, 4099, Note_on_c, 9, 44, 80
2, 4106, Note_on_c, 9, 36, 43
2, 4118, Control_c, 9, 17, 0
2, 4119, Note_on_c, 9, 51, 6
2, 4125, Control_c, 9, 4, 114
2, 4156, Control_c, 9, 4, 99
2, 4181, Note_on_c, 9, 44, 0
2, 4189, Note_on_c, 9, 36, 0
2, 4198, Control_c, 9, 4, 85
2, 4200, Note_on_c, 9, 51, 0
2, 4332, Control_c, 9, 4, 94
2, 4350, Control_c, 9, 17, 64
2, 4351, Note_on_c, 9, 51, 87
2, 4358, Note_on_c, 9, 36, 55
2, 4360, Note_on_c, 9, 38, 74
2, 4433, Note_on_c, 9, 51, 0
2, 4440, Note_on_c, 9, 36, 0
2, 4442, Note_on_c, 9, 38, 0
2, 4449, Control_c, 9, 4, 83
2, 4486, Control_c, 9, 4, 70
2, 4531, Control_c, 9, 4, 0
2, 4575, Control_c, 9, 4, 49
2, 4580, Note_on_c, 9, 44, 100
2, 4593, Control_c, 9, 17, 127
2, 4593, Note_on_c, 9, 51, 62
2, 4605, Control_c, 9, 4, 116
2, 4646, Control_c, 9, 4, 95
2, 4661, Note_on_c, 9, 44, 0
2, 4675, Note_on_c, 9, 51, 0
2, 4678, Control_c, 9, 4, 83
2, 4704, Control_c, 9, 18, 0
2, 4705, Note_on_c, 9, 48, 51
2, 4713, Note_on_c, 9, 36, 45
2, 4787, Note_on_c, 9, 48, 0
2, 4795, Note_on_c, 9, 36, 0
2, 4802, Control_c, 9, 4, 98
2, 4831, Note_on_c, 9, 48, 70
2, 4840, Note_on_c, 9, 51, 64
2, 4890, Control_c, 9, 4, 94
2, 4913, Note_on_c, 9, 48, 0
2, 4922, Note_on_c, 9, 51, 0
2, 4935, Control_c, 9, 4, 83
2, 4964, Control_c, 9, 17, 127
2, 4965, Note_on_c, 9, 51, 60
2, 4988, Control_c, 9, 4, 54
2, 5019, Control_c, 9, 4, 0
2, 5046, Note_on_c, 9, 51, 0
2, 5054, Control_c, 9, 4, 50
2, 5058, Note_on_c, 9, 36, 51
2, 5059, Note_on_c, 9, 44, 93
2, 5084, Control_c, 9, 4, 112
2, 5119, Control_c, 9, 4, 98
2, 5140, Note_on_c, 9, 36, 0
2, 5140, Note_on_c, 9, 44, 0
2, 5156, Control_c, 9, 4, 85
2, 5200, Control_c, 9, 17, 66
2, 5201, Note_on_c, 9, 51, 83
2, 5279, Control_c, 9, 4, 96
2, 5282, Note_on_c, 9, 51, 0
2, 5303, Note_on_c, 9, 36, 61
2, 5323, Control_c, 9, 16, 0
2, 5324, Note_on_c, 9, 38, 65
2, 5385, Note_on_c, 9, 36, 0
2, 5400, Control_c, 9, 4, 84
2, 5405, Note_on_c, 9, 38, 0
2, 5440, Control_c, 9, 4, 70
2, 5484, Control_c, 9, 4, 0
2, 5533, Control_c, 9, 4, 50
2, 5534, Control_c, 9, 17, 79
2, 5535, Note_on_c, 9, 51, 77
2, 5538, Note_on_c, 9, 44, 106
2, 5563, Control_c, 9, 4, 114
2, 5596, Control_c, 9, 4, 100
2, 5617, Note_on_c, 9, 51, 0
2, 5619, Note_on_c, 9, 44, 0
2, 5631, Control_c, 9, 4, 85
2, 5665, Note_on_c, 9, 36, 46
2, 5666, Control_c, 9, 18, 0
2, 5667, Note_on_c, 9, 48, 50
2, 5747, Note_on_c, 9, 36, 0
2, 5749, Note_on_c, 9, 48, 0
2, 5760, Control_c, 9, 4, 97
2, 5790, Control_c, 9, 17, 120
2, 5790, Note_on_c, 9, 51, 64
2, 5795, Note_on_c, 9, 48, 66
2, 5872, Note_on_c, 9, 51, 0
2, 5877, Note_on_c, 9, 48, 0
2, 5894, Control_c, 9, 4, 85
2, 5916, Control_c, 9, 17, 127
2, 5916, Note_on_c, 9, 51, 67
2, 5930, Control_c, 9, 4, 70
2, 5968, Control_c, 9, 4, 0
2, 5999, Note_on_c, 9, 51, 0
2, 6017, Control_c, 9, 4, 34
2, 6018, Note_on_c, 9, 36, 49
2, 6024, Note_on_c, 9, 44, 119
2, 6049, Control_c, 9, 4, 114
2, 6083, Control_c, 9, 4, 100
2, 6101, Note_on_c, 9, 36, 0
2, 6105, Note_on_c, 9, 44, 0
2, 6119, Control_c, 9, 4, 87
2, 6255, Control_c, 9, 4, 96
2, 6260, Control_c, 9, 17, 38
2, 6260, Note_on_c, 9, 51, 90
2, 6264, Note_on_c, 9, 36, 67
2, 6267, Note_on_c, 9, 38, 69
2, 6341, Note_on_c, 9, 51, 0
2, 6347, Note_on_c, 9, 36, 0
2, 6349, Note_on_c, 9, 38, 0
2, 6367, Control_c, 9, 4, 84
2, 6402, Control_c, 9, 4, 70
2, 6445, Control_c, 9, 4, 0
2, 6495, Control_c, 9, 4, 49
2, 6500, Note_on_c, 9, 44, 119
2, 6506, Control_c, 9, 17, 127
2, 6506, Note_on_c, 9, 51, 79
2, 6526, Control_c, 9, 4, 116
2, 6571, Control_c, 9, 4, 94
2, 6582, Note_on_c, 9, 44, 0
2, 6589, Note_on_c, 9, 51, 0
2, 6612, Control_c, 9, 4, 84
2, 6616, Note_on_c, 9, 36, 53
2, 6622, Control_c, 9, 18, 0
2, 6623, Note_on_c, 9, 48, 49
2, 6699, Note_on_c, 9, 36, 0
2, 6704, Note_on_c, 9, 48, 0
2, 6737, Control_c, 9, 4, 112
2, 6746, Note_on_c, 9, 48, 65
2, 6748, Control_c, 9, 17, 127
2, 6748, Note_on_c, 9, 51, 65
2, 6810, Control_c, 9, 4, 92
2, 6828, Note_on_c, 9, 48, 0
2, 6829, Note_on_c, 9, 51, 0
2, 6855, Control_c, 9, 4, 69
2, 6868, Control_c, 9, 17, 109
2, 6869, Note_on_c, 9, 51, 64
2, 6886, Control_c, 9, 4, 0
2, 6952, Note_on_c, 9, 51, 0
2, 6958, Note_on_c, 9, 36, 58
2, 6958, Note_on_c, 9, 46, 11
2, 6967, Control_c, 9, 4, 35
2, 6971, Note_on_c, 9, 44, 127
2, 6997, Control_c, 9, 4, 116
2, 7039, Note_on_c, 9, 46, 0
2, 7040, Note_on_c, 9, 36, 0
2, 7049, Control_c, 9, 4, 94
2, 7053, Note_on_c, 9, 44, 0
2, 7092, Control_c, 9, 4, 69
2, 7125, Control_c, 9, 4, 0
2, 7193, Note_on_c, 9, 46, 11
2, 7202, Control_c, 9, 4, 34
2, 7203, Control_c, 9, 17, 102
2, 7203, Note_on_c, 9, 51, 82
2, 7205, Control_c, 9, 16, 0
2, 7206, Note_on_c, 9, 38, 82
2, 7208, Note_on_c, 9, 44, 126
2, 7212, Note_on_c, 9, 36, 81
2, 7234, Control_c, 9, 4, 102
2, 7275, Note_on_c, 9, 46, 0
2, 7278, Control_c, 9, 4, 95
2, 7286, Note_on_c, 9, 38, 0
2, 7286, Note_on_c, 9, 51, 0
2, 7290, Note_on_c, 9, 44, 0
2, 7295, Note_on_c, 9, 36, 0
2, 7308, Control_c, 9, 4, 83
2, 7357, Control_c, 9, 4, 79
2, 7397, Control_c, 9, 4, 81
2, 7449, Control_c, 9, 4, 120
2, 7453, Control_c, 9, 17, 127
2, 7454, Note_on_c, 9, 51, 70
2, 7515, Control_c, 9, 4, 90
2, 7535, Note_on_c, 9, 51, 0
2, 7545, Control_c, 9, 4, 73
2, 7551, Note_on_c, 9, 36, 48
2, 7559, Control_c, 9, 18, 0
2, 7560, Note_on_c, 9, 48, 49
2, 7592, Control_c, 9, 4, 0
2, 7633, Note_on_c, 9, 36, 0
2, 7641, Note_on_c, 9, 48, 0
2, 7670, Control_c, 9, 4, 33
2, 7671, End_track
0, 0, End_of_file
