0, 0, Header, 1, 2, 480
1, 0, Start_track
1, 0, Tempo, 600000
1, 0, Time_signature, 4, 2, 24, 8
1, 0, Key_signature, 0, "major"
1, 1, End_track
2, 0, Start_track
2, 0, Title_t, "Midi Drums"
2, 0, Program_c, 9, 0
2, 9, Note_on_c, 9, 45, 117
2, 20, Note_on_c, 9, 36, 69
2, 90, Note_on_c, 9, 45, 0
2, 101, Note_on_c, 9, 36, 0
2, 260, Note_on_c, 9, 45, 55
2, 341, Note_on_c, 9, 45, 0
2, 379, Note_on_c, 9, 45, 74
2, 460, Note_on_c, 9, 45, 0
2, 488, Note_on_c, 9, 45, 127
2, 494, Note_on_c, 9, 38, 127
2, 568, Note_on_c, 9, 45, 0
2, 574, Note_on_c, 9, 38, 0
2, 723, Note_on_c, 9, 45, 58
2, 803, Note_on_c, 9, 45, 0
2, 831, Note_on_c, 9, 45, 53
2, 912, Note_on_c, 9, 45, 0
2, 941, Note_on_c, 9, 36, 96
2, 945, Note_on_c, 9, 45, 81
2, 1021, Note_on_c, 9, 36, 0
2, 1025, Note_on_c, 9, 45, 0
2, 1164, Note_on_c, 9, 45, 34
2, 1245, Note_on_c, 9, 45, 0
2, 1314, Note_on_c, 9, 45, 59
2, 1394, Note_on_c, 9, 45, 0
2, 1418, Note_on_c, 9, 45, 98
2, 1427, Note_on_c, 9, 38, 127
2, 1432, Note_on_c, 9, 36, 105
2, 1499, Note_on_c, 9, 45, 0
2, 1508, Note_on_c, 9, 38, 0
2, 1513, Note_on_c, 9, 36, 0
2, 1684, Note_on_c, 9, 45, 57
2, 1765, Note_on_c, 9, 45, 0
2, 1791, Note_on_c, 9, 45, 56
2, 1872, Note_on_c, 9, 45, 0
2, 1902, Note_on_c, 9, 45, 83
2, 1920, Note_on_c, 9, 36, 107
2, 1982, Note_on_c, 9, 45, 0
2, 2001, Note_on_c, 9, 36, 0
2, 2137, Note_on_c, 9, 45, 46
2, 2217, Note_on_c, 9, 45, 0
2, 2285, Note_on_c, 9, 45, 53
2, 2366, Note_on_c, 9, 45, 0
2, 2380, Note_on_c, 9, 45, 106
2, 2393, Note_on_c, 9, 36, 121
2, 2393, Note_on_c, 9, 38, 116
2, 2461, Note_on_c, 9, 45, 0
2, 2473, Note_on_c, 9, 36, 0
2, 2473, Note_on_c, 9, 38, 0
2, 2633, Note_on_c, 9, 45, 54
2, 2714, Note_on_c, 9, 45, 0
2, 2750, Note_on_c, 9, 45, 49
2, 2830, Note_on_c, 9, 45, 0
2, 2859, Note_on_c, 9, 45, 97
2, 2868, Note_on_c, 9, 36, 124
2, 2940, Note_on_c, 9, 45, 0
2, 2948, Note_on_c, 9, 36, 0
2, 3097, Note_on_c, 9, 45, 59
2, 3178, Note_on_c, 9, 45, 0
2, 3219, Note_on_c, 9, 45, 73
2, 3299, Note_on_c, 9, 45, 0
2, 3340, Note_on_c, 9, 36, 127
2, 3341, Note_on_c, 9, 45, 123
2, 3350, Note_on_c, 9, 38, 127
2, 3420, Note_on_c, 9, 36, 0
2, 3422, Note_on_c, 9, 45, 0
2, 3431, Note_on_c, 9, 38, 0
2, 3598, Note_on_c, 9, 45, 58
2, 3679, Note_on_c, 9, 45, 0
2, 3706, Note_on_c, 9, 45, 58
2, 3787, Note_on_c, 9, 45, 0
2, 3826, Note_on_c, 9, 36, 127
2, 3828, Note_on_c, 9, 45, 77
2, 3907, Note_on_c, 9, 36, 0
2, 3909, Note_on_c, 9, 45, 0
2, 4076, Note_on_c, 9, 45, 53
2, 4157, Note_on_c, 9, 45, 0
2, 4190, Note_on_c, 9, 45, 59
2, 4271, Note_on_c, 9, 45, 0
2, 4310, Note_on_c, 9, 45, 126
2, 4316, Note_on_c, 9, 38, 127
2, 4319, Note_on_c, 9, 36, 127
2, 4390, Note_on_c, 9, 45, 0
2, 4397, Note_on_c, 9, 38, 0
2, 4400, Note_on_c, 9, 36, 0
2, 4561, Note_on_c, 9, 45, 70
2, 4642, Note_on_c, 9, 45, 0
2, 4664, Note_on_c, 9, 45, 62
2, 4745, Note_on_c, 9, 45, 0
2, 4790, Note_on_c, 9, 45, 77
2, 4802, Note_on_c, 9, 36, 127
2, 4871, Note_on_c, 9, 45, 0
2, 4883, Note_on_c, 9, 36, 0
2, 5043, Note_on_c, 9, 45, 54
2, 5125, Note_on_c, 9, 45, 0
2, 5153, Note_on_c, 9, 45, 69
2, 5234, Note_on_c, 9, 45, 0
2, 5283, Note_on_c, 9, 36, 127
2, 5285, Note_on_c, 9, 38, 127
2, 5285, Note_on_c, 9, 45, 108
2, 5364, Note_on_c, 9, 36, 0
2, 5366, Note_on_c, 9, 38, 0
2, 5366, Note_on_c, 9, 45, 0
2, 5545, Note_on_c, 9, 45, 63
2, 5625, Note_on_c, 9, 45, 0
2, 5647, Note_on_c, 9, 45, 65
2, 5728, Note_on_c, 9, 45, 0
2, 5767, Note_on_c, 9, 45, 87
2, 5773, Note_on_c, 9, 36, 127
2, 5848, Note_on_c, 9, 45, 0
2, 5853, Note_on_c, 9, 36, 0
2, 6006, Note_on_c, 9, 45, 54
2, 6087, Note_on_c, 9, 45, 0
2, 6126, Note_on_c, 9, 45, 61
2, 6206, Note_on_c, 9, 45, 0
2, 6241, Note_on_c, 9, 45, 127
2, 6247, Note_on_c, 9, 36, 127
2, 6251, Note_on_c, 9, 38, 127
2, 6321, Note_on_c, 9, 45, 0
2, 6328, Note_on_c, 9, 36, 0
2, 6332, Note_on_c, 9, 38, 0
2, 6499, Note_on_c, 9, 45, 56
2, 6581, Note_on_c, 9, 45, 0
2, 6608, Note_on_c, 9, 45, 54
2, 6688, Note_on_c, 9, 45, 0
2, 6726, Note_on_c, 9, 45, 87
2, 6728, Note_on_c, 9, 36, 127
2, 6806, Note_on_c, 9, 45, 0
2, 6809, Note_on_c, 9, 36, 0
2, 6975, Note_on_c, 9, 45, 55
2, 7056, Note_on_c, 9, 45, 0
2, 7082, Note_on_c, 9, 45, 52
2, 7163, Note_on_c, 9, 45, 0
2, 7206, Note_on_c, 9, 36, 127
2, 7208, Note_on_c, 9, 45, 124
2, 7214, Note_on_c, 9, 38, 127
2, 7286, Note_on_c, 9, 36, 0
2, 7288, Note_on_c, 9, 45, 0
2, 7295, Note_on_c, 9, 38, 0
2, 7455, Note_on_c, 9, 45, 58
2, 7536, Note_on_c, 9, 45, 0
2, 7563, Note_on_c, 9, 45, 56
2, 7644, Note_on_c, 9, 45, 0
2, 7645, End_track
0, 0, End_of_file
