0, 0, Header, 1, 2, 480
1, 0, Start_track
1, 0, Tempo, 588235
1, 0, Time_signature, 4, 2, 24, 8
1, 0, Key_signature, 0, "major"
1, 1, End_track
2, 0, Start_track
2, 0, Title_t, "Classic Studio Kit"
2, 0, Program_c, 9, 0
2, 0, Control_c, 9, 18, 0
2, 20, Control_c, 9, 4, 118
2, 29, Control_c, 9, 17, 127
2, 30, Note_on_c, 9, 51, 62
2, 36, Note_on_c, 9, 48, 67
2, 95, Control_c, 9, 4, 100
2, 111, Note_on_c, 9, 51, 0
2, 117, Note_on_c, 9, 48, 0
2, 132, Control_c, 9, 4, 85
2, 152, Control_c, 9, 17, 58
2, 153, Note_on_c, 9, 51, 67
2, 162, Control_c, 9, 4, 69
2, 192, Control_c, 9, 4, 0
2, 234, Note_on_c, 9, 51, 0
2, 260, Note_on_c, 9, 36, 72
2, 265, Note_on_c, 9, 44, 127
2, 270, Control_c, 9, 4, 127
2, 314, Control_c, 9, 4, 116
2, 343, Note_on_c, 9, 36, 0
2, 346, Note_on_c, 9, 44, 0
2, 353, Control_c, 9, 4, 89
2, 497, Control_c, 9, 4, 102
2, 504, Note_on_c, 9, 36, 65
2, 513, Control_c, 9, 17, 41
2, 514, Note_on_c, 9, 51, 91
2, 515, Control_c, 9, 16, 0
2, 515, Note_on_c, 9, 38, 62
2, 571, Control_c, 9, 4, 97
2, 585, Note_on_c, 9, 36, 0
2, 595, Note_on_c, 9, 51, 0
2, 597, Note_on_c, 9, 38, 0
2, 611, Control_c, 9, 4, 83
2, 642, Control_c, 9, 4, 69
2, 673, Control_c, 9, 4, 0
2, 744, Note_on_c, 9, 44, 127
2, 750, Control_c, 9, 4, 127
2, 757, Control_c, 9, 17, 50
2, 757, Note_on_c, 9, 51, 73
2, 793, Control_c, 9, 4, 120
2, 825, Note_on_c, 9, 44, 0
2, 832, Control_c, 9, 4, 92
2, 839, Note_on_c, 9, 51, 0
2, 867, Control_c, 9, 4, 88
2, 874, Control_c, 9, 18, 0
2, 874, Note_on_c, 9, 48, 46
2, 882, Note_on_c, 9, 36, 54
2, 957, Note_on_c, 9, 48, 0
2, 965, Note_on_c, 9, 36, 0
2, 984, Control_c, 9, 4, 122
2, 992, Control_c, 9, 17, 0
2, 993, Note_on_c, 9, 51, 59
2, 998, Note_on_c, 9, 48, 70
2, 1069, Control_c, 9, 4, 90
2, 1076, Note_on_c, 9, 51, 0
2, 1081, Note_on_c, 9, 48, 0
2, 1099, Control_c, 9, 4, 71
2, 1122, Control_c, 9, 17, 61
2, 1122, Note_on_c, 9, 51, 66
2, 1135, Control_c, 9, 4, 0
2, 1204, Note_on_c, 9, 51, 0
2, 1212, Note_on_c, 9, 46, 13
2, 1219, Control_c, 9, 4, 34
2, 1222, Note_on_c, 9, 36, 70
2, 1225, Note_on_c, 9, 44, 127
2, 1251, Control_c, 9, 4, 127
2, 1293, Note_on_c, 9, 46, 0
2, 1302, Control_c, 9, 4, 100
2, 1304, Note_on_c, 9, 36, 0
2, 1308, Note_on_c, 9, 44, 0
2, 1341, Control_c, 9, 4, 70
2, 1354, Control_c, 9, 17, 37
2, 1354, Note_on_c, 9, 51, 79
2, 1372, Control_c, 9, 4, 0
2, 1411, Control_c, 9, 4, 0
2, 1412, Note_on_c, 9, 46, 31
2, 1436, Note_on_c, 9, 51, 0
2, 1450, Note_on_c, 9, 46, 0
2, 1451, Note_on_c, 9, 46, 12
2, 1460, Control_c, 9, 4, 33
2, 1467, Note_on_c, 9, 36, 81
2, 1467, Note_on_c, 9, 44, 119
2, 1478, Note_on_c, 9, 38, 68
2, 1492, Control_c, 9, 4, 112
2, 1494, Note_on_c, 9, 46, 0
2, 1536, Control_c, 9, 4, 98
2, 1549, Note_on_c, 9, 36, 0
2, 1549, Note_on_c, 9, 44, 0
2, 1560, Note_on_c, 9, 38, 0
2, 1571, Control_c, 9, 4, 84
2, 1709, Control_c, 9, 4, 127
2, 1711, Control_c, 9, 17, 42
2, 1712, Note_on_c, 9, 51, 95
2, 1746, Control_c, 9, 4, 120
2, 1787, Control_c, 9, 4, 91
2, 1794, Note_on_c, 9, 51, 0
2, 1821, Control_c, 9, 4, 71
2, 1827, Note_on_c, 9, 36, 64
2, 1833, Control_c, 9, 18, 0
2, 1834, Note_on_c, 9, 48, 44
2, 1857, Control_c, 9, 4, 0
2, 1909, Note_on_c, 9, 36, 0
2, 1915, Note_on_c, 9, 48, 0
2, 1931, Note_on_c, 9, 46, 14
2, 1942, Note_on_c, 9, 44, 127
2, 1947, Control_c, 9, 4, 127
2, 1950, Control_c, 9, 17, 0
2, 1950, Note_on_c, 9, 51, 54
2, 1959, Note_on_c, 9, 48, 69
2, 1997, Control_c, 9, 4, 120
2, 2012, Note_on_c, 9, 46, 0
2, 2025, Note_on_c, 9, 44, 0
2, 2032, Note_on_c, 9, 51, 0
2, 2039, Control_c, 9, 4, 93
2, 2041, Note_on_c, 9, 48, 0
2, 2072, Control_c, 9, 17, 47
2, 2073, Note_on_c, 9, 51, 63
2, 2154, Note_on_c, 9, 51, 0
2, 2161, Control_c, 9, 4, 106
2, 2165, Note_on_c, 9, 36, 79
2, 2200, Control_c, 9, 4, 102
2, 2238, Control_c, 9, 4, 92
2, 2248, Note_on_c, 9, 36, 0
2, 2414, Note_on_c, 9, 36, 76
2, 2427, Control_c, 9, 17, 45
2, 2428, Note_on_c, 9, 51, 84
2, 2432, Control_c, 9, 16, 0
2, 2433, Note_on_c, 9, 38, 82
2, 2456, Control_c, 9, 4, 104
2, 2496, Note_on_c, 9, 36, 0
2, 2505, Control_c, 9, 4, 91
2, 2509, Note_on_c, 9, 51, 0
2, 2513, Note_on_c, 9, 38, 0
2, 2540, Control_c, 9, 4, 74
2, 2581, Control_c, 9, 4, 0
2, 2644, Note_on_c, 9, 46, 8
2, 2658, Note_on_c, 9, 44, 127
2, 2664, Control_c, 9, 4, 127
2, 2672, Control_c, 9, 17, 72
2, 2673, Note_on_c, 9, 51, 76
2, 2708, Control_c, 9, 4, 120
2, 2726, Note_on_c, 9, 46, 0
2, 2739, Note_on_c, 9, 44, 0
2, 2744, Control_c, 9, 4, 90
2, 2754, Note_on_c, 9, 51, 0
2, 2782, Control_c, 9, 4, 86
2, 2784, Control_c, 9, 18, 0
2, 2784, Note_on_c, 9, 48, 47
2, 2793, Note_on_c, 9, 36, 65
2, 2866, Note_on_c, 9, 48, 0
2, 2875, Note_on_c, 9, 36, 0
2, 2878, Control_c, 9, 4, 95
2, 2908, Control_c, 9, 17, 127
2, 2908, Note_on_c, 9, 51, 56
2, 2909, Control_c, 9, 4, 126
2, 2912, Note_on_c, 9, 48, 68
2, 2947, Control_c, 9, 4, 120
2, 2990, Note_on_c, 9, 51, 0
2, 2993, Note_on_c, 9, 48, 0
2, 2998, Control_c, 9, 4, 91
2, 3029, Control_c, 9, 4, 71
2, 3043, Control_c, 9, 17, 99
2, 3044, Note_on_c, 9, 51, 68
2, 3062, Control_c, 9, 4, 0
2, 3125, Note_on_c, 9, 51, 0
2, 3134, Note_on_c, 9, 46, 17
2, 3142, Note_on_c, 9, 36, 67
2, 3147, Note_on_c, 9, 44, 127
2, 3155, Control_c, 9, 4, 127
2, 3188, Control_c, 9, 4, 127
2, 3216, Note_on_c, 9, 46, 0
2, 3224, Note_on_c, 9, 36, 0
2, 3226, Control_c, 9, 4, 100
2, 3228, Note_on_c, 9, 44, 0
2, 3266, Control_c, 9, 4, 70
2, 3267, Control_c, 9, 17, 50
2, 3268, Note_on_c, 9, 51, 69
2, 3300, Control_c, 9, 4, 0
2, 3351, Note_on_c, 9, 51, 0
2, 3376, Note_on_c, 9, 46, 12
2, 3383, Control_c, 9, 4, 32
2, 3390, Note_on_c, 9, 44, 127
2, 3394, Note_on_c, 9, 36, 83
2, 3398, Note_on_c, 9, 38, 68
2, 3415, Control_c, 9, 4, 110
2, 3458, Note_on_c, 9, 46, 0
2, 3461, Control_c, 9, 4, 98
2, 3472, Note_on_c, 9, 44, 0
2, 3476, Note_on_c, 9, 36, 0
2, 3480, Note_on_c, 9, 38, 0
2, 3497, Control_c, 9, 4, 84
2, 3619, Control_c, 9, 4, 93
2, 3630, Control_c, 9, 17, 64
2, 3631, Note_on_c, 9, 51, 79
2, 3649, Control_c, 9, 4, 124
2, 3706, Control_c, 9, 4, 97
2, 3712, Note_on_c, 9, 51, 0
2, 3749, Control_c, 9, 4, 71
2, 3749, Note_on_c, 9, 36, 68
2, 3751, Control_c, 9, 18, 0
2, 3752, Note_on_c, 9, 48, 44
2, 3782, Control_c, 9, 4, 0
2, 3832, Note_on_c, 9, 36, 0
2, 3833, Note_on_c, 9, 48, 0
2, 3860, Note_on_c, 9, 46, 12
2, 3864, Control_c, 9, 4, 16
2, 3866, Control_c, 9, 17, 0
2, 3867, Note_on_c, 9, 51, 56
2, 3871, Note_on_c, 9, 44, 127
2, 3873, Note_on_c, 9, 48, 77
2, 3897, Control_c, 9, 4, 127
2, 3931, Control_c, 9, 4, 116
2, 3941, Note_on_c, 9, 46, 0
2, 3948, Note_on_c, 9, 51, 0
2, 3954, Note_on_c, 9, 44, 0
2, 3955, Note_on_c, 9, 48, 0
2, 3969, Control_c, 9, 4, 90
2, 3989, Control_c, 9, 17, 50
2, 3989, Note_on_c, 9, 51, 60
2, 4071, Note_on_c, 9, 51, 0
2, 4089, Control_c, 9, 4, 116
2, 4090, Note_on_c, 9, 36, 78
2, 4102, Control_c, 9, 17, 50
2, 4102, Note_on_c, 9, 51, 4
2, 4148, Control_c, 9, 4, 94
2, 4173, Note_on_c, 9, 36, 0
2, 4184, Note_on_c, 9, 51, 0
2, 4328, Control_c, 9, 17, 42
2, 4328, Note_on_c, 9, 51, 89
2, 4332, Control_c, 9, 16, 0
2, 4332, Note_on_c, 9, 38, 75
2, 4333, Note_on_c, 9, 36, 75
2, 4354, Control_c, 9, 4, 100
2, 4404, Control_c, 9, 4, 94
2, 4410, Note_on_c, 9, 51, 0
2, 4413, Note_on_c, 9, 38, 0
2, 4416, Note_on_c, 9, 36, 0
2, 4452, Control_c, 9, 4, 70
2, 4485, Control_c, 9, 4, 0
2, 4558, Note_on_c, 9, 46, 12
2, 4565, Control_c, 9, 4, 34
2, 4570, Note_on_c, 9, 44, 127
2, 4578, Control_c, 9, 17, 71
2, 4578, Note_on_c, 9, 51, 77
2, 4596, Control_c, 9, 4, 127
2, 4631, Control_c, 9, 4, 118
2, 4640, Note_on_c, 9, 46, 0
2, 4652, Note_on_c, 9, 44, 0
2, 4661, Note_on_c, 9, 51, 0
2, 4673, Control_c, 9, 4, 91
2, 4692, Control_c, 9, 18, 0
2, 4692, Note_on_c, 9, 48, 46
2, 4710, Note_on_c, 9, 36, 60
2, 4774, Note_on_c, 9, 48, 0
2, 4792, Note_on_c, 9, 36, 0
2, 4817, Control_c, 9, 4, 127
2, 4817, Note_on_c, 9, 48, 71
2, 4819, Control_c, 9, 17, 0
2, 4820, Note_on_c, 9, 51, 56
2, 4877, Control_c, 9, 4, 120
2, 4897, Note_on_c, 9, 48, 0
2, 4900, Note_on_c, 9, 51, 0
2, 4913, Control_c, 9, 4, 91
2, 4943, Control_c, 9, 17, 81
2, 4944, Control_c, 9, 4, 71
2, 4944, Note_on_c, 9, 51, 66
2, 4976, Control_c, 9, 4, 0
2, 5025, Note_on_c, 9, 51, 0
2, 5048, Note_on_c, 9, 36, 70
2, 5050, Note_on_c, 9, 46, 14
2, 5055, Control_c, 9, 4, 35
2, 5058, Control_c, 9, 17, 81
2, 5058, Note_on_c, 9, 51, 5
2, 5061, Note_on_c, 9, 44, 127
2, 5085, Control_c, 9, 4, 127
2, 5104, Note_on_c, 9, 49, 6
2, 5120, Control_c, 9, 4, 118
2, 5130, Note_on_c, 9, 36, 0
2, 5130, Note_on_c, 9, 46, 0
2, 5140, Note_on_c, 9, 51, 0
2, 5143, Note_on_c, 9, 44, 0
2, 5160, Control_c, 9, 4, 87
2, 5184, Control_c, 9, 17, 45
2, 5184, Note_on_c, 9, 51, 72
2, 5186, Note_on_c, 9, 49, 0
2, 5200, Control_c, 9, 4, 77
2, 5267, Note_on_c, 9, 51, 0
2, 5288, Note_on_c, 9, 36, 87
2, 5299, Control_c, 9, 17, 45
2, 5300, Control_c, 9, 4, 116
2, 5300, Note_on_c, 9, 51, 5
2, 5309, Note_on_c, 9, 38, 71
2, 5345, Control_c, 9, 4, 102
2, 5370, Note_on_c, 9, 36, 0
2, 5377, Control_c, 9, 4, 90
2, 5382, Note_on_c, 9, 51, 0
2, 5391, Note_on_c, 9, 38, 0
2, 5421, Control_c, 9, 4, 70
2, 5466, Control_c, 9, 4, 0
2, 5536, Control_c, 9, 4, 33
2, 5540, Control_c, 9, 17, 97
2, 5541, Note_on_c, 9, 51, 83
2, 5542, Note_on_c, 9, 44, 127
2, 5566, Control_c, 9, 4, 127
2, 5619, Control_c, 9, 4, 98
2, 5622, Note_on_c, 9, 51, 0
2, 5623, Note_on_c, 9, 44, 0
2, 5662, Control_c, 9, 4, 85
2, 5668, Control_c, 9, 18, 0
2, 5668, Note_on_c, 9, 48, 45
2, 5679, Note_on_c, 9, 36, 64
2, 5751, Note_on_c, 9, 48, 0
2, 5761, Note_on_c, 9, 36, 0
2, 5784, Control_c, 9, 4, 127
2, 5791, Note_on_c, 9, 48, 71
2, 5793, Control_c, 9, 17, 127
2, 5794, Note_on_c, 9, 51, 67
2, 5861, Control_c, 9, 4, 98
2, 5873, Note_on_c, 9, 48, 0
2, 5875, Note_on_c, 9, 51, 0
2, 5904, Control_c, 9, 4, 71
2, 5909, Control_c, 9, 17, 70
2, 5910, Note_on_c, 9, 51, 62
2, 5939, Control_c, 9, 4, 0
2, 5991, Note_on_c, 9, 51, 0
2, 6008, Note_on_c, 9, 46, 8
2, 6018, Note_on_c, 9, 36, 70
2, 6021, Note_on_c, 9, 44, 127
2, 6026, Control_c, 9, 4, 127
2, 6070, Control_c, 9, 4, 120
2, 6090, Note_on_c, 9, 46, 0
2, 6100, Note_on_c, 9, 36, 0
2, 6102, Note_on_c, 9, 44, 0
2, 6110, Control_c, 9, 4, 91
2, 6239, Control_c, 9, 4, 102
2, 6259, Note_on_c, 9, 36, 78
2, 6270, Control_c, 9, 17, 39
2, 6271, Note_on_c, 9, 51, 85
2, 6274, Control_c, 9, 16, 0
2, 6274, Note_on_c, 9, 38, 93
2, 6275, Control_c, 9, 4, 108
2, 6318, Control_c, 9, 4, 102
2, 6340, Note_on_c, 9, 36, 0
2, 6350, Control_c, 9, 4, 88
2, 6352, Note_on_c, 9, 51, 0
2, 6356, Note_on_c, 9, 38, 0
2, 6383, Control_c, 9, 4, 71
2, 6421, Control_c, 9, 4, 0
2, 6486, Note_on_c, 9, 46, 9
2, 6500, Note_on_c, 9, 44, 127
2, 6505, Control_c, 9, 4, 127
2, 6511, Control_c, 9, 17, 82
2, 6511, Note_on_c, 9, 51, 80
2, 6549, Control_c, 9, 4, 120
2, 6568, Note_on_c, 9, 46, 0
2, 6581, Note_on_c, 9, 44, 0
2, 6587, Control_c, 9, 4, 91
2, 6593, Note_on_c, 9, 51, 0
2, 6620, Control_c, 9, 4, 86
2, 6627, Control_c, 9, 18, 0
2, 6628, Note_on_c, 9, 48, 44
2, 6638, Note_on_c, 9, 36, 62
2, 6709, Note_on_c, 9, 48, 0
2, 6721, Note_on_c, 9, 36, 0
2, 6735, Control_c, 9, 4, 127
2, 6745, Control_c, 9, 17, 0
2, 6746, Note_on_c, 9, 51, 68
2, 6748, Note_on_c, 9, 48, 70
2, 6781, Control_c, 9, 4, 120
2, 6811, Control_c, 9, 4, 96
2, 6828, Note_on_c, 9, 51, 0
2, 6829, Note_on_c, 9, 48, 0
2, 6853, Control_c, 9, 4, 70
2, 6868, Control_c, 9, 17, 88
2, 6869, Note_on_c, 9, 51, 63
2, 6886, Control_c, 9, 4, 0
2, 6951, Note_on_c, 9, 51, 0
2, 6962, Note_on_c, 9, 46, 10
2, 6970, Control_c, 9, 4, 33
2, 6976, Note_on_c, 9, 36, 71
2, 6976, Note_on_c, 9, 44, 127
2, 7002, Control_c, 9, 4, 124
2, 7019, Note_on_c, 9, 49, 6
2, 7044, Note_on_c, 9, 46, 0
2, 7058, Note_on_c, 9, 36, 0
2, 7058, Note_on_c, 9, 44, 0
2, 7059, Control_c, 9, 4, 92
2, 7090, Control_c, 9, 4, 71
2, 7100, Note_on_c, 9, 49, 0
2, 7102, Control_c, 9, 17, 38
2, 7103, Note_on_c, 9, 51, 81
2, 7123, Control_c, 9, 4, 0
2, 7184, Note_on_c, 9, 51, 0
2, 7209, Control_c, 9, 4, 50
2, 7214, Note_on_c, 9, 44, 119
2, 7224, Note_on_c, 9, 36, 84
2, 7229, Note_on_c, 9, 38, 70
2, 7240, Control_c, 9, 4, 112
2, 7286, Control_c, 9, 4, 94
2, 7296, Note_on_c, 9, 44, 0
2, 7307, Note_on_c, 9, 36, 0
2, 7311, Note_on_c, 9, 38, 0
2, 7321, Control_c, 9, 4, 82
2, 7407, Control_c, 9, 4, 81
2, 7457, Control_c, 9, 4, 120
2, 7463, Control_c, 9, 17, 50
2, 7463, Note_on_c, 9, 51, 84
2, 7528, Control_c, 9, 4, 96
2, 7545, Note_on_c, 9, 51, 0
2, 7571, Control_c, 9, 4, 71
2, 7581, Note_on_c, 9, 36, 61
2, 7582, Control_c, 9, 18, 0
2, 7582, Note_on_c, 9, 48, 45
2, 7603, Control_c, 9, 4, 0
2, 7663, Note_on_c, 9, 36, 0
2, 7664, Note_on_c, 9, 48, 0
2, 7665, End_track
0, 0, End_of_file
