0, 0, Header, 1, 2, 480
1, 0, Start_track
1, 0, Tempo, 588235
1, 0, Time_signature, 4, 2, 24, 8
1, 0, Key_signature, 0, "major"
1, 1, End_track
2, 0, Start_track
2, 0, Title_t, "Classic Studio Kit"
2, 0, Program_c, 9, 0
2, 0, Control_c, 9, 17, 71
2, 26, Control_c, 9, 4, 98
2, 64, Control_c, 9, 4, 93
2, 115, Control_c, 9, 17, 58
2, 116, Note_on_c, 9, 51, 75
2, 197, Note_on_c, 9, 51, 0
2, 217, Note_on_c, 9, 36, 64
2, 300, Note_on_c, 9, 36, 0
2, 468, Note_on_c, 9, 36, 80
2, 471, Control_c, 9, 16, 0
2, 471, Note_on_c, 9, 38, 74
2, 550, Note_on_c, 9, 36, 0
2, 554, Note_on_c, 9, 38, 0
2, 719, Control_c, 9, 17, 55
2, 719, Note_on_c, 9, 51, 101
2, 802, Note_on_c, 9, 51, 0
2, 964, Control_c, 9, 16, 61
2, 965, Note_on_c, 9, 40, 73
2, 1046, Note_on_c, 9, 40, 0
2, 1157, Control_c, 9, 4, 89
2, 1195, Control_c, 9, 4, 97
2, 1256, Control_c, 9, 4, 92
2, 1452, Control_c, 9, 16, 0
2, 1453, Note_on_c, 9, 38, 91
2, 1457, Control_c, 9, 17, 1
2, 1458, Note_on_c, 9, 51, 104
2, 1459, Note_on_c, 9, 36, 67
2, 1489, Control_c, 9, 4, 108
2, 1533, Note_on_c, 9, 38, 0
2, 1539, Note_on_c, 9, 51, 0
2, 1542, Note_on_c, 9, 36, 0
2, 1549, Control_c, 9, 4, 91
2, 1586, Control_c, 9, 4, 72
2, 1625, Control_c, 9, 4, 0
2, 1684, Control_c, 9, 4, 32
2, 1690, Note_on_c, 9, 44, 126
2, 1710, Control_c, 9, 17, 31
2, 1710, Note_on_c, 9, 51, 70
2, 1715, Control_c, 9, 4, 127
2, 1753, Control_c, 9, 4, 98
2, 1772, Note_on_c, 9, 44, 0
2, 1791, Note_on_c, 9, 51, 0
2, 1792, Control_c, 9, 4, 87
2, 1812, Note_on_c, 9, 36, 62
2, 1823, Control_c, 9, 18, 0
2, 1823, Note_on_c, 9, 48, 51
2, 1894, Note_on_c, 9, 36, 0
2, 1904, Control_c, 9, 4, 94
2, 1905, Note_on_c, 9, 48, 0
2, 1944, Control_c, 9, 4, 98
2, 1947, Note_on_c, 9, 48, 71
2, 1950, Control_c, 9, 17, 51
2, 1951, Note_on_c, 9, 51, 59
2, 1995, Control_c, 9, 4, 102
2, 2029, Note_on_c, 9, 48, 0
2, 2033, Note_on_c, 9, 51, 0
2, 2049, Control_c, 9, 4, 90
2, 2066, Control_c, 9, 17, 76
2, 2067, Note_on_c, 9, 51, 76
2, 2079, Control_c, 9, 4, 70
2, 2115, Control_c, 9, 4, 0
2, 2149, Note_on_c, 9, 51, 0
2, 2171, Note_on_c, 9, 36, 55
2, 2171, Note_on_c, 9, 44, 113
2, 2178, Control_c, 9, 4, 127
2, 2221, Control_c, 9, 4, 116
2, 2252, Note_on_c, 9, 44, 0
2, 2253, Note_on_c, 9, 36, 0
2, 2261, Control_c, 9, 4, 91
2, 2419, Control_c, 9, 17, 32
2, 2419, Note_on_c, 9, 51, 85
2, 2421, Note_on_c, 9, 36, 71
2, 2425, Note_on_c, 9, 38, 70
2, 2449, Control_c, 9, 4, 95
2, 2501, Note_on_c, 9, 51, 0
2, 2502, Note_on_c, 9, 36, 0
2, 2506, Note_on_c, 9, 38, 0
2, 2528, Control_c, 9, 4, 90
2, 2563, Control_c, 9, 4, 73
2, 2607, Control_c, 9, 4, 0
2, 2656, Control_c, 9, 4, 51
2, 2661, Note_on_c, 9, 44, 113
2, 2675, Control_c, 9, 17, 50
2, 2675, Note_on_c, 9, 51, 65
2, 2687, Control_c, 9, 4, 126
2, 2737, Control_c, 9, 4, 92
2, 2743, Note_on_c, 9, 44, 0
2, 2758, Note_on_c, 9, 51, 0
2, 2780, Control_c, 9, 4, 84
2, 2786, Control_c, 9, 18, 0
2, 2786, Note_on_c, 9, 48, 45
2, 2789, Note_on_c, 9, 36, 60
2, 2868, Note_on_c, 9, 48, 0
2, 2871, Note_on_c, 9, 36, 0
2, 2877, Control_c, 9, 4, 99
2, 2906, Note_on_c, 9, 48, 72
2, 2908, Control_c, 9, 17, 63
2, 2909, Note_on_c, 9, 51, 66
2, 2988, Note_on_c, 9, 48, 0
2, 2990, Note_on_c, 9, 51, 0
2, 3010, Control_c, 9, 4, 88
2, 3041, Control_c, 9, 17, 44
2, 3041, Note_on_c, 9, 51, 68
2, 3044, Control_c, 9, 4, 71
2, 3089, Control_c, 9, 4, 0
2, 3123, Note_on_c, 9, 51, 0
2, 3134, Control_c, 9, 4, 48
2, 3136, Note_on_c, 9, 36, 51
2, 3138, Note_on_c, 9, 44, 106
2, 3164, Control_c, 9, 4, 126
2, 3201, Control_c, 9, 4, 100
2, 3219, Note_on_c, 9, 36, 0
2, 3220, Note_on_c, 9, 44, 0
2, 3241, Control_c, 9, 4, 88
2, 3276, Control_c, 9, 17, 33
2, 3277, Note_on_c, 9, 51, 82
2, 3359, Note_on_c, 9, 51, 0
2, 3365, Control_c, 9, 4, 94
2, 3389, Control_c, 9, 16, 0
2, 3389, Note_on_c, 9, 38, 61
2, 3396, Note_on_c, 9, 36, 57
2, 3472, Note_on_c, 9, 38, 0
2, 3478, Note_on_c, 9, 36, 0
2, 3521, Control_c, 9, 4, 83
2, 3555, Control_c, 9, 4, 56
2, 3586, Control_c, 9, 4, 0
2, 3625, Control_c, 9, 4, 49
2, 3627, Control_c, 9, 17, 52
2, 3628, Note_on_c, 9, 51, 83
2, 3631, Note_on_c, 9, 44, 93
2, 3655, Control_c, 9, 4, 126
2, 3702, Control_c, 9, 4, 93
2, 3710, Note_on_c, 9, 51, 0
2, 3711, Note_on_c, 9, 44, 0
2, 3746, Control_c, 9, 18, 0
2, 3747, Note_on_c, 9, 48, 44
2, 3750, Control_c, 9, 4, 84
2, 3757, Note_on_c, 9, 36, 43
2, 3829, Note_on_c, 9, 48, 0
2, 3839, Note_on_c, 9, 36, 0
2, 3843, Control_c, 9, 4, 94
2, 3873, Note_on_c, 9, 48, 75
2, 3874, Control_c, 9, 17, 41
2, 3874, Note_on_c, 9, 51, 80
2, 3954, Note_on_c, 9, 48, 0
2, 3954, Note_on_c, 9, 51, 0
2, 3967, Control_c, 9, 4, 91
2, 3996, Control_c, 9, 17, 81
2, 3996, Note_on_c, 9, 51, 72
2, 4020, Control_c, 9, 4, 70
2, 4057, Control_c, 9, 4, 0
2, 4079, Note_on_c, 9, 51, 0
2, 4097, Control_c, 9, 4, 32
2, 4104, Note_on_c, 9, 44, 106
2, 4116, Note_on_c, 9, 36, 48
2, 4129, Control_c, 9, 4, 120
2, 4182, Control_c, 9, 4, 91
2, 4186, Note_on_c, 9, 44, 0
2, 4198, Note_on_c, 9, 36, 0
2, 4358, Note_on_c, 9, 38, 65
2, 4364, Control_c, 9, 17, 10
2, 4364, Note_on_c, 9, 51, 92
2, 4367, Note_on_c, 9, 36, 74
2, 4409, Control_c, 9, 4, 96
2, 4439, Note_on_c, 9, 38, 0
2, 4447, Note_on_c, 9, 51, 0
2, 4449, Note_on_c, 9, 36, 0
2, 4458, Control_c, 9, 4, 91
2, 4497, Control_c, 9, 4, 73
2, 4537, Control_c, 9, 4, 0
2, 4590, Control_c, 9, 4, 35
2, 4596, Note_on_c, 9, 44, 119
2, 4604, Control_c, 9, 17, 46
2, 4604, Note_on_c, 9, 51, 77
2, 4621, Control_c, 9, 4, 120
2, 4678, Note_on_c, 9, 44, 0
2, 4680, Control_c, 9, 4, 90
2, 4686, Note_on_c, 9, 51, 0
2, 4714, Control_c, 9, 4, 86
2, 4718, Control_c, 9, 18, 0
2, 4718, Note_on_c, 9, 48, 49
2, 4735, Note_on_c, 9, 36, 58
2, 4799, Note_on_c, 9, 48, 0
2, 4819, Note_on_c, 9, 36, 0
2, 4834, Control_c, 9, 17, 108
2, 4835, Control_c, 9, 4, 114
2, 4835, Note_on_c, 9, 51, 58
2, 4841, Note_on_c, 9, 48, 75
2, 4906, Control_c, 9, 4, 95
2, 4916, Note_on_c, 9, 51, 0
2, 4921, Note_on_c, 9, 48, 0
2, 4947, Control_c, 9, 4, 71
2, 4959, Control_c, 9, 17, 46
2, 4959, Note_on_c, 9, 51, 72
2, 4985, Control_c, 9, 4, 0
2, 5042, Note_on_c, 9, 51, 0
2, 5055, Note_on_c, 9, 46, 10
2, 5068, Note_on_c, 9, 44, 127
2, 5069, Note_on_c, 9, 36, 72
2, 5075, Control_c, 9, 4, 127
2, 5109, Control_c, 9, 4, 127
2, 5112, Note_on_c, 9, 49, 7
2, 5137, Note_on_c, 9, 46, 0
2, 5149, Control_c, 9, 4, 98
2, 5149, Note_on_c, 9, 44, 0
2, 5152, Note_on_c, 9, 36, 0
2, 5190, Control_c, 9, 4, 70
2, 5193, Note_on_c, 9, 49, 0
2, 5199, Control_c, 9, 17, 37
2, 5200, Note_on_c, 9, 51, 71
2, 5221, Control_c, 9, 4, 0
2, 5281, Note_on_c, 9, 51, 0
2, 5297, Note_on_c, 9, 46, 8
2, 5304, Control_c, 9, 4, 35
2, 5310, Note_on_c, 9, 36, 81
2, 5310, Note_on_c, 9, 44, 127
2, 5322, Control_c, 9, 16, 0
2, 5322, Note_on_c, 9, 38, 65
2, 5335, Control_c, 9, 4, 110
2, 5378, Note_on_c, 9, 46, 0
2, 5381, Control_c, 9, 4, 96
2, 5391, Note_on_c, 9, 44, 0
2, 5392, Note_on_c, 9, 36, 0
2, 5404, Note_on_c, 9, 38, 0
2, 5413, Control_c, 9, 4, 83
2, 5544, Control_c, 9, 4, 120
2, 5547, Control_c, 9, 17, 31
2, 5548, Note_on_c, 9, 51, 85
2, 5626, Control_c, 9, 4, 91
2, 5629, Note_on_c, 9, 51, 0
2, 5657, Control_c, 9, 4, 71
2, 5671, Note_on_c, 9, 36, 59
2, 5672, Control_c, 9, 18, 0
2, 5672, Note_on_c, 9, 48, 47
2, 5694, Control_c, 9, 4, 0
2, 5752, Note_on_c, 9, 36, 0
2, 5752, Note_on_c, 9, 48, 0
2, 5768, Note_on_c, 9, 46, 12
2, 5774, Control_c, 9, 4, 35
2, 5779, Note_on_c, 9, 44, 127
2, 5797, Note_on_c, 9, 48, 74
2, 5802, Control_c, 9, 17, 127
2, 5803, Note_on_c, 9, 51, 57
2, 5804, Control_c, 9, 4, 127
2, 5841, Control_c, 9, 4, 116
2, 5849, Note_on_c, 9, 46, 0
2, 5861, Note_on_c, 9, 44, 0
2, 5878, Note_on_c, 9, 48, 0
2, 5880, Control_c, 9, 4, 92
2, 5883, Note_on_c, 9, 51, 0
2, 5918, Control_c, 9, 17, 42
2, 5919, Note_on_c, 9, 51, 63
2, 5999, Note_on_c, 9, 51, 0
2, 6002, Control_c, 9, 4, 108
2, 6009, Note_on_c, 9, 36, 67
2, 6062, Control_c, 9, 4, 94
2, 6091, Note_on_c, 9, 36, 0
2, 6259, Note_on_c, 9, 36, 79
2, 6263, Control_c, 9, 17, 35
2, 6263, Note_on_c, 9, 51, 84
2, 6266, Note_on_c, 9, 38, 78
2, 6297, Control_c, 9, 4, 98
2, 6341, Note_on_c, 9, 36, 0
2, 6345, Note_on_c, 9, 51, 0
2, 6346, Note_on_c, 9, 38, 0
2, 6355, Control_c, 9, 4, 91
2, 6388, Control_c, 9, 4, 73
2, 6428, Control_c, 9, 4, 0
2, 6497, Control_c, 9, 4, 32
2, 6503, Note_on_c, 9, 44, 127
2, 6515, Control_c, 9, 17, 42
2, 6515, Note_on_c, 9, 51, 87
2, 6528, Control_c, 9, 4, 122
2, 6579, Control_c, 9, 4, 98
2, 6585, Note_on_c, 9, 44, 0
2, 6597, Note_on_c, 9, 51, 0
2, 6625, Control_c, 9, 4, 88
2, 6627, Control_c, 9, 18, 0
2, 6627, Note_on_c, 9, 48, 47
2, 6638, Note_on_c, 9, 36, 51
2, 6710, Note_on_c, 9, 48, 0
2, 6719, Note_on_c, 9, 36, 0
2, 6750, Note_on_c, 9, 48, 70
2, 6755, Control_c, 9, 17, 127
2, 6755, Note_on_c, 9, 51, 56
2, 6766, Control_c, 9, 4, 120
2, 6818, Control_c, 9, 4, 112
2, 6831, Note_on_c, 9, 48, 0
2, 6837, Note_on_c, 9, 51, 0
2, 6848, Control_c, 9, 4, 92
2, 6877, Control_c, 9, 17, 43
2, 6878, Control_c, 9, 4, 73
2, 6878, Note_on_c, 9, 51, 66
2, 6916, Control_c, 9, 4, 0
2, 6959, Note_on_c, 9, 51, 0
2, 6984, Note_on_c, 9, 46, 13
2, 6985, Note_on_c, 9, 36, 67
2, 6989, Control_c, 9, 4, 33
2, 6995, Note_on_c, 9, 44, 127
2, 7020, Control_c, 9, 4, 127
2, 7063, Control_c, 9, 4, 112
2, 7064, Note_on_c, 9, 46, 0
2, 7068, Note_on_c, 9, 36, 0
2, 7077, Note_on_c, 9, 44, 0
2, 7098, Control_c, 9, 4, 78
2, 7110, Control_c, 9, 17, 34
2, 7111, Note_on_c, 9, 51, 67
2, 7139, Control_c, 9, 4, 0
2, 7192, Note_on_c, 9, 51, 0
2, 7215, Note_on_c, 9, 46, 9
2, 7227, Note_on_c, 9, 44, 127
2, 7230, Note_on_c, 9, 36, 90
2, 7235, Control_c, 9, 4, 127
2, 7240, Control_c, 9, 16, 0
2, 7241, Note_on_c, 9, 38, 60
2, 7277, Control_c, 9, 4, 110
2, 7296, Note_on_c, 9, 46, 0
2, 7307, Control_c, 9, 4, 91
2, 7308, Note_on_c, 9, 44, 0
2, 7312, Note_on_c, 9, 36, 0
2, 7322, Note_on_c, 9, 38, 0
2, 7354, Control_c, 9, 4, 79
2, 7422, Control_c, 9, 4, 81
2, 7466, Control_c, 9, 4, 120
2, 7469, Control_c, 9, 17, 44
2, 7469, Note_on_c, 9, 51, 88
2, 7529, Control_c, 9, 4, 96
2, 7552, Note_on_c, 9, 51, 0
2, 7569, Control_c, 9, 4, 70
2, 7588, Note_on_c, 9, 36, 52
2, 7595, Control_c, 9, 18, 0
2, 7595, Note_on_c, 9, 48, 44
2, 7608, Control_c, 9, 4, 0
2, 7670, Note_on_c, 9, 36, 0
2, 7676, Note_on_c, 9, 48, 0
2, 7677, End_track
0, 0, End_of_file
