0, 0, Header, 1, 2, 480
1, 0, Start_track
1, 0, Tempo, 588235
1, 0, Time_signature, 4, 2, 24, 8
1, 0, Key_signature, 0, "major"
1, 1, End_track
2, 0, Start_track
2, 0, Title_t, "Classic Studio Kit"
2, 0, Program_c, 9, 0
2, 0, Control_c, 9, 17, 0
2, 39, Control_c, 9, 4, 112
2, 71, Control_c, 9, 4, 91
2, 103, Control_c, 9, 4, 73
2, 105, Control_c, 9, 17, 82
2, 106, Note_on_c, 9, 51, 72
2, 145, Control_c, 9, 4, 0
2, 187, Note_on_c, 9, 51, 0
2, 211, Note_on_c, 9, 46, 13
2, 218, Control_c, 9, 4, 35
2, 221, Note_on_c, 9, 36, 74
2, 222, Note_on_c, 9, 44, 127
2, 248, Control_c, 9, 4, 127
2, 292, Note_on_c, 9, 46, 0
2, 299, Control_c, 9, 4, 102
2, 302, Note_on_c, 9, 36, 0
2, 304, Note_on_c, 9, 44, 0
2, 338, Control_c, 9, 4, 71
2, 344, Control_c, 9, 17, 44
2, 344, Note_on_c, 9, 51, 80
2, 374, Control_c, 9, 4, 0
2, 427, Note_on_c, 9, 51, 0
2, 462, Note_on_c, 9, 36, 86
2, 467, Note_on_c, 9, 44, 126
2, 476, Control_c, 9, 16, 0
2, 476, Note_on_c, 9, 38, 79
2, 478, Control_c, 9, 4, 127
2, 516, Control_c, 9, 4, 104
2, 544, Note_on_c, 9, 36, 0
2, 549, Control_c, 9, 4, 91
2, 549, Note_on_c, 9, 44, 0
2, 557, Note_on_c, 9, 38, 0
2, 588, Control_c, 9, 4, 78
2, 678, Control_c, 9, 4, 99
2, 707, Control_c, 9, 17, 85
2, 708, Note_on_c, 9, 51, 85
2, 720, Control_c, 9, 4, 120
2, 770, Control_c, 9, 4, 90
2, 789, Note_on_c, 9, 51, 0
2, 800, Control_c, 9, 4, 71
2, 823, Note_on_c, 9, 36, 68
2, 832, Control_c, 9, 18, 0
2, 832, Note_on_c, 9, 48, 46
2, 838, Control_c, 9, 4, 0
2, 905, Note_on_c, 9, 36, 0
2, 914, Note_on_c, 9, 46, 13
2, 915, Note_on_c, 9, 48, 0
2, 920, Control_c, 9, 4, 35
2, 925, Note_on_c, 9, 44, 127
2, 950, Control_c, 9, 4, 127
2, 954, Note_on_c, 9, 48, 82
2, 956, Note_on_c, 9, 59, 35
2, 990, Control_c, 9, 4, 108
2, 995, Note_on_c, 9, 46, 0
2, 1007, Note_on_c, 9, 44, 0
2, 1026, Control_c, 9, 4, 92
2, 1035, Note_on_c, 9, 48, 0
2, 1039, Note_on_c, 9, 59, 0
2, 1078, Control_c, 9, 17, 59
2, 1078, Note_on_c, 9, 51, 65
2, 1147, Control_c, 9, 4, 104
2, 1159, Note_on_c, 9, 51, 0
2, 1176, Note_on_c, 9, 36, 64
2, 1180, Control_c, 9, 4, 98
2, 1229, Control_c, 9, 4, 94
2, 1259, Note_on_c, 9, 36, 0
2, 1426, Control_c, 9, 17, 44
2, 1426, Note_on_c, 9, 51, 81
2, 1430, Note_on_c, 9, 36, 76
2, 1433, Note_on_c, 9, 38, 83
2, 1454, Control_c, 9, 4, 100
2, 1508, Note_on_c, 9, 51, 0
2, 1512, Note_on_c, 9, 36, 0
2, 1513, Note_on_c, 9, 38, 0
2, 1526, Control_c, 9, 4, 86
2, 1557, Control_c, 9, 4, 70
2, 1592, Control_c, 9, 4, 0
2, 1659, Note_on_c, 9, 46, 12
2, 1672, Note_on_c, 9, 44, 127
2, 1678, Control_c, 9, 4, 127
2, 1682, Control_c, 9, 17, 104
2, 1683, Note_on_c, 9, 51, 81
2, 1721, Control_c, 9, 4, 112
2, 1741, Note_on_c, 9, 46, 0
2, 1753, Note_on_c, 9, 44, 0
2, 1760, Control_c, 9, 4, 93
2, 1764, Note_on_c, 9, 51, 0
2, 1796, Control_c, 9, 18, 0
2, 1796, Note_on_c, 9, 48, 50
2, 1806, Note_on_c, 9, 36, 67
2, 1867, Control_c, 9, 4, 89
2, 1877, Note_on_c, 9, 48, 0
2, 1888, Note_on_c, 9, 36, 0
2, 1917, Note_on_c, 9, 48, 71
2, 1921, Control_c, 9, 17, 0
2, 1922, Note_on_c, 9, 51, 64
2, 1925, Control_c, 9, 4, 118
2, 1996, Control_c, 9, 4, 112
2, 1999, Note_on_c, 9, 48, 0
2, 2003, Note_on_c, 9, 51, 0
2, 2028, Control_c, 9, 4, 91
2, 2043, Control_c, 9, 17, 115
2, 2044, Note_on_c, 9, 51, 68
2, 2063, Control_c, 9, 4, 71
2, 2099, Control_c, 9, 4, 0
2, 2125, Note_on_c, 9, 51, 0
2, 2154, Note_on_c, 9, 36, 68
2, 2158, Control_c, 9, 17, 115
2, 2158, Note_on_c, 9, 51, 5
2, 2165, Note_on_c, 9, 46, 13
2, 2169, Control_c, 9, 4, 17
2, 2174, Note_on_c, 9, 44, 127
2, 2200, Control_c, 9, 4, 127
2, 2216, Note_on_c, 9, 49, 7
2, 2236, Note_on_c, 9, 36, 0
2, 2239, Control_c, 9, 4, 112
2, 2240, Note_on_c, 9, 51, 0
2, 2245, Note_on_c, 9, 46, 0
2, 2256, Note_on_c, 9, 44, 0
2, 2270, Control_c, 9, 4, 72
2, 2272, Control_c, 9, 17, 31
2, 2273, Note_on_c, 9, 51, 62
2, 2298, Note_on_c, 9, 49, 0
2, 2306, Control_c, 9, 4, 0
2, 2354, Note_on_c, 9, 51, 0
2, 2392, Control_c, 9, 4, 34
2, 2399, Note_on_c, 9, 44, 126
2, 2400, Note_on_c, 9, 36, 84
2, 2402, Control_c, 9, 16, 0
2, 2403, Note_on_c, 9, 38, 76
2, 2424, Control_c, 9, 4, 120
2, 2464, Control_c, 9, 4, 99
2, 2480, Note_on_c, 9, 44, 0
2, 2481, Note_on_c, 9, 36, 0
2, 2484, Note_on_c, 9, 38, 0
2, 2502, Control_c, 9, 4, 83
2, 2630, Control_c, 9, 4, 120
2, 2640, Control_c, 9, 17, 83
2, 2641, Note_on_c, 9, 51, 88
2, 2709, Control_c, 9, 4, 92
2, 2722, Note_on_c, 9, 51, 0
2, 2742, Control_c, 9, 4, 70
2, 2757, Control_c, 9, 18, 0
2, 2758, Note_on_c, 9, 48, 45
2, 2761, Note_on_c, 9, 36, 59
2, 2778, Control_c, 9, 4, 0
2, 2839, Note_on_c, 9, 48, 0
2, 2843, Note_on_c, 9, 36, 0
2, 2853, Note_on_c, 9, 46, 11
2, 2859, Control_c, 9, 4, 36
2, 2864, Note_on_c, 9, 44, 127
2, 2878, Control_c, 9, 17, 0
2, 2878, Note_on_c, 9, 51, 55
2, 2883, Note_on_c, 9, 48, 81
2, 2890, Control_c, 9, 4, 127
2, 2928, Control_c, 9, 4, 110
2, 2934, Note_on_c, 9, 46, 0
2, 2945, Note_on_c, 9, 44, 0
2, 2960, Control_c, 9, 4, 92
2, 2960, Note_on_c, 9, 51, 0
2, 2964, Note_on_c, 9, 48, 0
2, 3004, Control_c, 9, 17, 62
2, 3005, Note_on_c, 9, 51, 73
2, 3079, Control_c, 9, 4, 108
2, 3086, Note_on_c, 9, 51, 0
2, 3109, Note_on_c, 9, 36, 64
2, 3119, Control_c, 9, 17, 62
2, 3120, Note_on_c, 9, 51, 6
2, 3123, Control_c, 9, 4, 98
2, 3158, Control_c, 9, 4, 94
2, 3190, Note_on_c, 9, 36, 0
2, 3201, Note_on_c, 9, 51, 0
2, 3356, Note_on_c, 9, 38, 105
2, 3357, Control_c, 9, 17, 47
2, 3358, Note_on_c, 9, 36, 76
2, 3358, Note_on_c, 9, 51, 82
2, 3373, Control_c, 9, 4, 102
2, 3428, Control_c, 9, 4, 96
2, 3437, Note_on_c, 9, 38, 0
2, 3438, Note_on_c, 9, 36, 0
2, 3438, Note_on_c, 9, 51, 0
2, 3473, Control_c, 9, 4, 73
2, 3516, Control_c, 9, 4, 0
2, 3581, Note_on_c, 9, 46, 11
2, 3588, Control_c, 9, 4, 34
2, 3594, Note_on_c, 9, 44, 127
2, 3603, Control_c, 9, 17, 85
2, 3603, Note_on_c, 9, 51, 79
2, 3620, Control_c, 9, 4, 127
2, 3664, Control_c, 9, 4, 102
2, 3664, Note_on_c, 9, 46, 0
2, 3676, Note_on_c, 9, 44, 0
2, 3686, Note_on_c, 9, 51, 0
2, 3699, Control_c, 9, 4, 89
2, 3717, Control_c, 9, 18, 0
2, 3718, Note_on_c, 9, 48, 49
2, 3724, Note_on_c, 9, 36, 58
2, 3800, Note_on_c, 9, 48, 0
2, 3807, Note_on_c, 9, 36, 0
2, 3833, Control_c, 9, 4, 106
2, 3837, Note_on_c, 9, 48, 79
2, 3845, Control_c, 9, 17, 0
2, 3846, Note_on_c, 9, 51, 66
2, 3865, Control_c, 9, 4, 114
2, 3918, Note_on_c, 9, 48, 0
2, 3927, Note_on_c, 9, 51, 0
2, 3940, Control_c, 9, 4, 97
2, 3960, Control_c, 9, 17, 81
2, 3961, Note_on_c, 9, 51, 67
2, 3983, Control_c, 9, 4, 70
2, 4015, Control_c, 9, 4, 0
2, 4042, Note_on_c, 9, 51, 0
2, 4073, Note_on_c, 9, 36, 65
2, 4083, Note_on_c, 9, 46, 17
2, 4089, Control_c, 9, 4, 34
2, 4094, Note_on_c, 9, 44, 127
2, 4119, Control_c, 9, 4, 127
2, 4155, Note_on_c, 9, 36, 0
2, 4159, Control_c, 9, 4, 112
2, 4164, Note_on_c, 9, 46, 0
2, 4175, Note_on_c, 9, 44, 0
2, 4191, Control_c, 9, 4, 76
2, 4208, Control_c, 9, 17, 35
2, 4208, Note_on_c, 9, 51, 77
2, 4227, Control_c, 9, 4, 0
2, 4289, Note_on_c, 9, 51, 0
2, 4303, Note_on_c, 9, 46, 7
2, 4313, Control_c, 9, 4, 50
2, 4318, Note_on_c, 9, 36, 80
2, 4318, Note_on_c, 9, 44, 127
2, 4328, Control_c, 9, 16, 0
2, 4329, Note_on_c, 9, 38, 81
2, 4343, Control_c, 9, 4, 114
2, 4385, Note_on_c, 9, 46, 0
2, 4387, Control_c, 9, 4, 96
2, 4399, Note_on_c, 9, 44, 0
2, 4400, Note_on_c, 9, 36, 0
2, 4410, Note_on_c, 9, 38, 0
2, 4425, Control_c, 9, 4, 83
2, 4552, Control_c, 9, 4, 118
2, 4560, Control_c, 9, 17, 72
2, 4561, Note_on_c, 9, 51, 84
2, 4630, Control_c, 9, 4, 90
2, 4642, Note_on_c, 9, 51, 0
2, 4661, Control_c, 9, 4, 71
2, 4675, Note_on_c, 9, 36, 65
2, 4683, Control_c, 9, 18, 0
2, 4683, Note_on_c, 9, 48, 44
2, 4699, Control_c, 9, 4, 0
2, 4759, Note_on_c, 9, 36, 0
2, 4765, Note_on_c, 9, 48, 0
2, 4773, Note_on_c, 9, 46, 17
2, 4780, Control_c, 9, 4, 36
2, 4784, Note_on_c, 9, 44, 127
2, 4804, Note_on_c, 9, 59, 40
2, 4807, Note_on_c, 9, 48, 86
2, 4810, Control_c, 9, 4, 127
2, 4848, Control_c, 9, 4, 110
2, 4854, Note_on_c, 9, 46, 0
2, 4865, Note_on_c, 9, 44, 0
2, 4883, Control_c, 9, 4, 92
2, 4886, Note_on_c, 9, 59, 0
2, 4888, Note_on_c, 9, 48, 0
2, 4926, Control_c, 9, 17, 52
2, 4927, Note_on_c, 9, 51, 70
2, 5004, Control_c, 9, 4, 110
2, 5007, Note_on_c, 9, 51, 0
2, 5026, Note_on_c, 9, 36, 68
2, 5052, Control_c, 9, 4, 96
2, 5083, Control_c, 9, 4, 92
2, 5109, Note_on_c, 9, 36, 0
2, 5266, Control_c, 9, 17, 56
2, 5266, Note_on_c, 9, 51, 78
2, 5269, Note_on_c, 9, 38, 101
2, 5270, Note_on_c, 9, 36, 76
2, 5291, Control_c, 9, 4, 98
2, 5348, Note_on_c, 9, 51, 0
2, 5349, Note_on_c, 9, 38, 0
2, 5353, Note_on_c, 9, 36, 0
2, 5359, Control_c, 9, 4, 91
2, 5394, Control_c, 9, 4, 73
2, 5437, Control_c, 9, 4, 0
2, 5510, Note_on_c, 9, 44, 127
2, 5515, Control_c, 9, 17, 108
2, 5515, Note_on_c, 9, 51, 85
2, 5517, Control_c, 9, 4, 127
2, 5560, Control_c, 9, 4, 116
2, 5592, Note_on_c, 9, 44, 0
2, 5597, Note_on_c, 9, 51, 0
2, 5598, Control_c, 9, 4, 90
2, 5628, Control_c, 9, 18, 0
2, 5629, Note_on_c, 9, 48, 46
2, 5646, Note_on_c, 9, 36, 62
2, 5710, Note_on_c, 9, 48, 0
2, 5727, Note_on_c, 9, 36, 0
2, 5749, Control_c, 9, 4, 114
2, 5754, Note_on_c, 9, 48, 75
2, 5758, Note_on_c, 9, 59, 40
2, 5836, Note_on_c, 9, 48, 0
2, 5840, Note_on_c, 9, 59, 0
2, 5859, Control_c, 9, 4, 91
2, 5878, Control_c, 9, 17, 84
2, 5878, Note_on_c, 9, 51, 72
2, 5893, Control_c, 9, 4, 71
2, 5927, Control_c, 9, 4, 0
2, 5961, Note_on_c, 9, 51, 0
2, 5990, Note_on_c, 9, 46, 10
2, 5993, Control_c, 9, 17, 84
2, 5994, Control_c, 9, 4, 16
2, 5994, Note_on_c, 9, 51, 5
2, 5996, Note_on_c, 9, 36, 72
2, 6001, Note_on_c, 9, 44, 127
2, 6027, Control_c, 9, 4, 127
2, 6044, Note_on_c, 9, 49, 7
2, 6072, Note_on_c, 9, 46, 0
2, 6074, Control_c, 9, 4, 98
2, 6075, Note_on_c, 9, 51, 0
2, 6078, Note_on_c, 9, 36, 0
2, 6083, Note_on_c, 9, 44, 0
2, 6113, Control_c, 9, 4, 70
2, 6113, Control_c, 9, 17, 38
2, 6113, Note_on_c, 9, 51, 70
2, 6126, Note_on_c, 9, 49, 0
2, 6151, Control_c, 9, 4, 0
2, 6195, Note_on_c, 9, 51, 0
2, 6220, Note_on_c, 9, 46, 8
2, 6227, Control_c, 9, 4, 34
2, 6233, Note_on_c, 9, 44, 127
2, 6236, Note_on_c, 9, 36, 79
2, 6239, Control_c, 9, 16, 0
2, 6240, Note_on_c, 9, 38, 73
2, 6258, Control_c, 9, 4, 116
2, 6294, Control_c, 9, 4, 100
2, 6302, Note_on_c, 9, 46, 0
2, 6315, Note_on_c, 9, 44, 0
2, 6317, Note_on_c, 9, 36, 0
2, 6320, Note_on_c, 9, 38, 0
2, 6330, Control_c, 9, 4, 84
2, 6464, Control_c, 9, 4, 118
2, 6472, Control_c, 9, 17, 101
2, 6473, Note_on_c, 9, 51, 93
2, 6520, Control_c, 9, 4, 110
2, 6550, Control_c, 9, 4, 91
2, 6555, Note_on_c, 9, 51, 0
2, 6585, Control_c, 9, 4, 72
2, 6589, Control_c, 9, 17, 101
2, 6590, Note_on_c, 9, 51, 7
2, 6594, Control_c, 9, 18, 0
2, 6595, Note_on_c, 9, 48, 47
2, 6602, Note_on_c, 9, 36, 64
2, 6622, Control_c, 9, 4, 0
2, 6670, Note_on_c, 9, 51, 0
2, 6676, Note_on_c, 9, 48, 0
2, 6684, Note_on_c, 9, 36, 0
2, 6695, Note_on_c, 9, 46, 16
2, 6706, Note_on_c, 9, 44, 127
2, 6711, Control_c, 9, 4, 127
2, 6715, Note_on_c, 9, 59, 39
2, 6720, Note_on_c, 9, 48, 88
2, 6755, Control_c, 9, 4, 116
2, 6776, Note_on_c, 9, 46, 0
2, 6787, Note_on_c, 9, 44, 0
2, 6797, Note_on_c, 9, 59, 0
2, 6801, Control_c, 9, 4, 93
2, 6801, Note_on_c, 9, 48, 0
2, 6836, Control_c, 9, 17, 70
2, 6836, Note_on_c, 9, 51, 67
2, 6914, Control_c, 9, 4, 102
2, 6918, Note_on_c, 9, 51, 0
2, 6945, Control_c, 9, 4, 100
2, 6950, Note_on_c, 9, 36, 71
2, 6951, Control_c, 9, 17, 70
2, 6951, Note_on_c, 9, 51, 5
2, 6979, Control_c, 9, 4, 95
2, 7032, Note_on_c, 9, 36, 0
2, 7032, Note_on_c, 9, 51, 0
2, 7136, Control_c, 9, 4, 91
2, 7185, Control_c, 9, 17, 76
2, 7186, Note_on_c, 9, 51, 92
2, 7187, Note_on_c, 9, 36, 74
2, 7191, Note_on_c, 9, 38, 83
2, 7229, Control_c, 9, 4, 102
2, 7267, Note_on_c, 9, 51, 0
2, 7269, Note_on_c, 9, 36, 0
2, 7273, Note_on_c, 9, 38, 0
2, 7282, Control_c, 9, 4, 91
2, 7314, Control_c, 9, 4, 73
2, 7356, Control_c, 9, 4, 0
2, 7425, Control_c, 9, 4, 35
2, 7431, Note_on_c, 9, 44, 127
2, 7437, Control_c, 9, 17, 90
2, 7438, Note_on_c, 9, 51, 83
2, 7456, Control_c, 9, 4, 127
2, 7495, Control_c, 9, 4, 104
2, 7513, Note_on_c, 9, 44, 0
2, 7520, Note_on_c, 9, 51, 0
2, 7527, Control_c, 9, 4, 90
2, 7552, Control_c, 9, 18, 0
2, 7553, Note_on_c, 9, 48, 45
2, 7571, Note_on_c, 9, 36, 65
2, 7634, Note_on_c, 9, 48, 0
2, 7653, Note_on_c, 9, 36, 0
2, 7662, Control_c, 9, 4, 116
2, 7663, End_track
0, 0, End_of_file
