0, 0, Header, 1, 2, 480
1, 0, Start_track
1, 0, Tempo, 588235
1, 0, Time_signature, 4, 2, 24, 8
1, 0, Key_signature, 0, "major"
1, 1, End_track
2, 0, Start_track
2, 0, Title_t, "Classic Studio Kit"
2, 0, Program_c, 9, 0
2, 0, Control_c, 9, 18, 0
2, 24, Control_c, 9, 4, 127
2, 31, Note_on_c, 9, 48, 71
2, 33, Control_c, 9, 17, 127
2, 34, Note_on_c, 9, 51, 67
2, 101, Control_c, 9, 4, 98
2, 113, Note_on_c, 9, 48, 0
2, 115, Note_on_c, 9, 51, 0
2, 144, Control_c, 9, 4, 71
2, 149, Control_c, 9, 17, 70
2, 150, Note_on_c, 9, 51, 62
2, 179, Control_c, 9, 4, 0
2, 231, Note_on_c, 9, 51, 0
2, 248, Note_on_c, 9, 46, 8
2, 258, Note_on_c, 9, 36, 70
2, 261, Note_on_c, 9, 44, 127
2, 266, Control_c, 9, 4, 127
2, 310, Control_c, 9, 4, 120
2, 330, Note_on_c, 9, 46, 0
2, 340, Note_on_c, 9, 36, 0
2, 342, Note_on_c, 9, 44, 0
2, 350, Control_c, 9, 4, 91
2, 479, Control_c, 9, 4, 102
2, 499, Note_on_c, 9, 36, 78
2, 510, Control_c, 9, 17, 39
2, 511, Note_on_c, 9, 51, 85
2, 514, Control_c, 9, 16, 0
2, 514, Note_on_c, 9, 38, 93
2, 515, Control_c, 9, 4, 108
2, 558, Control_c, 9, 4, 102
2, 580, Note_on_c, 9, 36, 0
2, 590, Control_c, 9, 4, 88
2, 592, Note_on_c, 9, 51, 0
2, 596, Note_on_c, 9, 38, 0
2, 623, Control_c, 9, 4, 71
2, 661, Control_c, 9, 4, 0
2, 726, Note_on_c, 9, 46, 9
2, 740, Note_on_c, 9, 44, 127
2, 745, Control_c, 9, 4, 127
2, 751, Control_c, 9, 17, 82
2, 751, Note_on_c, 9, 51, 80
2, 789, Control_c, 9, 4, 120
2, 808, Note_on_c, 9, 46, 0
2, 821, Note_on_c, 9, 44, 0
2, 827, Control_c, 9, 4, 91
2, 833, Note_on_c, 9, 51, 0
2, 860, Control_c, 9, 4, 86
2, 867, Control_c, 9, 18, 0
2, 868, Note_on_c, 9, 48, 44
2, 878, Note_on_c, 9, 36, 62
2, 949, Note_on_c, 9, 48, 0
2, 961, Note_on_c, 9, 36, 0
2, 975, Control_c, 9, 4, 127
2, 985, Control_c, 9, 17, 0
2, 986, Note_on_c, 9, 51, 68
2, 988, Note_on_c, 9, 48, 70
2, 1021, Control_c, 9, 4, 120
2, 1051, Control_c, 9, 4, 96
2, 1068, Note_on_c, 9, 51, 0
2, 1069, Note_on_c, 9, 48, 0
2, 1093, Control_c, 9, 4, 70
2, 1108, Control_c, 9, 17, 88
2, 1109, Note_on_c, 9, 51, 63
2, 1126, Control_c, 9, 4, 0
2, 1191, Note_on_c, 9, 51, 0
2, 1202, Note_on_c, 9, 46, 10
2, 1210, Control_c, 9, 4, 33
2, 1216, Note_on_c, 9, 36, 71
2, 1216, Note_on_c, 9, 44, 127
2, 1242, Control_c, 9, 4, 124
2, 1259, Note_on_c, 9, 49, 6
2, 1284, Note_on_c, 9, 46, 0
2, 1298, Note_on_c, 9, 36, 0
2, 1298, Note_on_c, 9, 44, 0
2, 1299, Control_c, 9, 4, 92
2, 1330, Control_c, 9, 4, 71
2, 1340, Note_on_c, 9, 49, 0
2, 1342, Control_c, 9, 17, 38
2, 1343, Note_on_c, 9, 51, 81
2, 1363, Control_c, 9, 4, 0
2, 1424, Note_on_c, 9, 51, 0
2, 1449, Control_c, 9, 4, 50
2, 1454, Note_on_c, 9, 44, 119
2, 1464, Note_on_c, 9, 36, 84
2, 1469, Note_on_c, 9, 38, 70
2, 1480, Control_c, 9, 4, 112
2, 1526, Control_c, 9, 4, 94
2, 1536, Note_on_c, 9, 44, 0
2, 1547, Note_on_c, 9, 36, 0
2, 1551, Note_on_c, 9, 38, 0
2, 1561, Control_c, 9, 4, 82
2, 1647, Control_c, 9, 4, 81
2, 1697, Control_c, 9, 4, 120
2, 1703, Control_c, 9, 17, 50
2, 1703, Note_on_c, 9, 51, 84
2, 1768, Control_c, 9, 4, 96
2, 1785, Note_on_c, 9, 51, 0
2, 1811, Control_c, 9, 4, 71
2, 1821, Note_on_c, 9, 36, 61
2, 1822, Control_c, 9, 18, 0
2, 1822, Note_on_c, 9, 48, 45
2, 1843, Control_c, 9, 4, 0
2, 1903, Note_on_c, 9, 36, 0
2, 1904, Note_on_c, 9, 48, 0
2, 1924, Note_on_c, 9, 46, 16
2, 1932, Control_c, 9, 4, 34
2, 1938, Note_on_c, 9, 44, 127
2, 1942, Control_c, 9, 17, 0
2, 1942, Note_on_c, 9, 48, 73
2, 1943, Note_on_c, 9, 51, 66
2, 1963, Control_c, 9, 4, 127
2, 2002, Control_c, 9, 4, 110
2, 2005, Note_on_c, 9, 46, 0
2, 2019, Note_on_c, 9, 44, 0
2, 2023, Note_on_c, 9, 48, 0
2, 2023, Note_on_c, 9, 51, 0
2, 2033, Control_c, 9, 4, 92
2, 2060, Control_c, 9, 17, 72
2, 2061, Note_on_c, 9, 51, 67
2, 2142, Note_on_c, 9, 51, 0
2, 2171, Control_c, 9, 4, 118
2, 2175, Control_c, 9, 17, 72
2, 2176, Note_on_c, 9, 36, 72
2, 2176, Note_on_c, 9, 51, 5
2, 2211, Control_c, 9, 4, 102
2, 2248, Control_c, 9, 4, 91
2, 2257, Note_on_c, 9, 36, 0
2, 2257, Note_on_c, 9, 51, 0
2, 2412, Note_on_c, 9, 36, 68
2, 2413, Control_c, 9, 4, 97
2, 2418, Control_c, 9, 16, 0
2, 2418, Note_on_c, 9, 38, 87
2, 2420, Control_c, 9, 17, 68
2, 2421, Note_on_c, 9, 51, 82
2, 2485, Control_c, 9, 4, 91
2, 2493, Note_on_c, 9, 36, 0
2, 2501, Note_on_c, 9, 38, 0
2, 2501, Note_on_c, 9, 51, 0
2, 2522, Control_c, 9, 4, 73
2, 2564, Control_c, 9, 4, 0
2, 2635, Note_on_c, 9, 46, 11
2, 2643, Control_c, 9, 4, 32
2, 2648, Note_on_c, 9, 44, 127
2, 2662, Control_c, 9, 17, 100
2, 2662, Note_on_c, 9, 51, 83
2, 2673, Control_c, 9, 4, 120
2, 2716, Note_on_c, 9, 46, 0
2, 2730, Note_on_c, 9, 44, 0
2, 2731, Control_c, 9, 4, 96
2, 2745, Note_on_c, 9, 51, 0
2, 2771, Control_c, 9, 4, 86
2, 2776, Control_c, 9, 18, 0
2, 2776, Note_on_c, 9, 48, 46
2, 2787, Note_on_c, 9, 36, 65
2, 2858, Note_on_c, 9, 48, 0
2, 2869, Note_on_c, 9, 36, 0
2, 2902, Control_c, 9, 17, 127
2, 2902, Note_on_c, 9, 51, 68
2, 2904, Control_c, 9, 18, 0
2, 2904, Note_on_c, 9, 48, 63
2, 2905, Control_c, 9, 4, 127
2, 2936, Control_c, 9, 4, 122
2, 2979, Control_c, 9, 4, 98
2, 2984, Note_on_c, 9, 51, 0
2, 2985, Note_on_c, 9, 48, 0
2, 3023, Control_c, 9, 4, 71
2, 3027, Control_c, 9, 17, 90
2, 3028, Note_on_c, 9, 51, 62
2, 3056, Control_c, 9, 4, 0
2, 3109, Note_on_c, 9, 51, 0
2, 3132, Note_on_c, 9, 46, 14
2, 3138, Note_on_c, 9, 36, 68
2, 3139, Control_c, 9, 4, 35
2, 3144, Note_on_c, 9, 44, 127
2, 3171, Control_c, 9, 4, 127
2, 3215, Note_on_c, 9, 46, 0
2, 3220, Note_on_c, 9, 36, 0
2, 3226, Control_c, 9, 4, 98
2, 3226, Note_on_c, 9, 44, 0
2, 3254, Control_c, 9, 17, 41
2, 3255, Note_on_c, 9, 51, 78
2, 3266, Control_c, 9, 4, 70
2, 3300, Control_c, 9, 4, 0
2, 3336, Note_on_c, 9, 51, 0
2, 3372, Note_on_c, 9, 46, 11
2, 3382, Control_c, 9, 4, 50
2, 3386, Note_on_c, 9, 44, 127
2, 3391, Note_on_c, 9, 38, 58
2, 3392, Note_on_c, 9, 36, 82
2, 3412, Control_c, 9, 4, 112
2, 3454, Note_on_c, 9, 46, 0
2, 3457, Control_c, 9, 4, 96
2, 3468, Note_on_c, 9, 44, 0
2, 3473, Note_on_c, 9, 36, 0
2, 3473, Note_on_c, 9, 38, 0
2, 3488, Control_c, 9, 4, 83
2, 3615, Control_c, 9, 17, 84
2, 3616, Note_on_c, 9, 51, 80
2, 3632, Control_c, 9, 4, 127
2, 3697, Note_on_c, 9, 51, 0
2, 3703, Control_c, 9, 4, 95
2, 3742, Control_c, 9, 4, 71
2, 3746, Control_c, 9, 18, 42
2, 3747, Note_on_c, 9, 48, 46
2, 3752, Note_on_c, 9, 36, 67
2, 3778, Control_c, 9, 4, 0
2, 3828, Note_on_c, 9, 48, 0
2, 3833, Note_on_c, 9, 36, 0
2, 3855, Note_on_c, 9, 46, 14
2, 3867, Note_on_c, 9, 44, 127
2, 3869, Control_c, 9, 18, 0
2, 3869, Note_on_c, 9, 59, 46
2, 3871, Note_on_c, 9, 48, 75
2, 3874, Control_c, 9, 4, 127
2, 3923, Control_c, 9, 4, 120
2, 3937, Note_on_c, 9, 46, 0
2, 3950, Note_on_c, 9, 44, 0
2, 3952, Note_on_c, 9, 48, 0
2, 3952, Note_on_c, 9, 59, 0
2, 3967, Control_c, 9, 4, 92
2, 3989, Control_c, 9, 17, 89
2, 3989, Note_on_c, 9, 51, 64
2, 4071, Note_on_c, 9, 51, 0
2, 4088, Control_c, 9, 4, 116
2, 4094, Note_on_c, 9, 36, 71
2, 4103, Control_c, 9, 17, 89
2, 4103, Note_on_c, 9, 51, 6
2, 4152, Control_c, 9, 4, 95
2, 4177, Note_on_c, 9, 36, 0
2, 4186, Note_on_c, 9, 51, 0
2, 4335, Note_on_c, 9, 36, 74
2, 4345, Control_c, 9, 17, 55
2, 4345, Note_on_c, 9, 51, 87
2, 4346, Control_c, 9, 16, 0
2, 4347, Note_on_c, 9, 38, 101
2, 4371, Control_c, 9, 4, 100
2, 4417, Note_on_c, 9, 36, 0
2, 4427, Note_on_c, 9, 38, 0
2, 4427, Note_on_c, 9, 51, 0
2, 4432, Control_c, 9, 4, 87
2, 4462, Control_c, 9, 4, 70
2, 4496, Control_c, 9, 4, 0
2, 4563, Note_on_c, 9, 46, 7
2, 4576, Note_on_c, 9, 44, 127
2, 4582, Control_c, 9, 4, 127
2, 4591, Control_c, 9, 17, 101
2, 4591, Note_on_c, 9, 51, 82
2, 4625, Control_c, 9, 4, 120
2, 4644, Note_on_c, 9, 46, 0
2, 4657, Note_on_c, 9, 44, 0
2, 4669, Control_c, 9, 4, 91
2, 4673, Note_on_c, 9, 51, 0
2, 4706, Control_c, 9, 17, 101
2, 4706, Note_on_c, 9, 51, 6
2, 4709, Note_on_c, 9, 48, 44
2, 4710, Note_on_c, 9, 36, 67
2, 4788, Note_on_c, 9, 51, 0
2, 4789, Note_on_c, 9, 48, 0
2, 4792, Note_on_c, 9, 36, 0
2, 4830, Control_c, 9, 18, 0
2, 4831, Control_c, 9, 4, 127
2, 4831, Control_c, 9, 17, 127
2, 4831, Note_on_c, 9, 48, 63
2, 4833, Note_on_c, 9, 51, 69
2, 4909, Control_c, 9, 4, 95
2, 4912, Note_on_c, 9, 48, 0
2, 4913, Note_on_c, 9, 51, 0
2, 4949, Control_c, 9, 4, 70
2, 4953, Control_c, 9, 17, 101
2, 4953, Note_on_c, 9, 51, 67
2, 4983, Control_c, 9, 4, 0
2, 5024, Control_c, 9, 4, 0
2, 5024, Note_on_c, 9, 46, 27
2, 5035, Note_on_c, 9, 51, 0
2, 5058, Note_on_c, 9, 36, 69
2, 5065, Control_c, 9, 4, 33
2, 5068, Control_c, 9, 17, 101
2, 5068, Note_on_c, 9, 51, 6
2, 5071, Note_on_c, 9, 44, 127
2, 5096, Control_c, 9, 4, 127
2, 5106, Note_on_c, 9, 46, 0
2, 5139, Note_on_c, 9, 36, 0
2, 5149, Note_on_c, 9, 51, 0
2, 5153, Note_on_c, 9, 44, 0
2, 5157, Control_c, 9, 4, 91
2, 5185, Control_c, 9, 17, 21
2, 5185, Note_on_c, 9, 51, 70
2, 5187, Control_c, 9, 4, 71
2, 5222, Control_c, 9, 4, 0
2, 5267, Note_on_c, 9, 51, 0
2, 5299, Note_on_c, 9, 46, 14
2, 5303, Note_on_c, 9, 36, 83
2, 5308, Control_c, 9, 4, 34
2, 5312, Note_on_c, 9, 38, 62
2, 5315, Note_on_c, 9, 44, 126
2, 5339, Control_c, 9, 4, 114
2, 5379, Control_c, 9, 4, 97
2, 5380, Note_on_c, 9, 46, 0
2, 5384, Note_on_c, 9, 36, 0
2, 5394, Note_on_c, 9, 38, 0
2, 5394, Note_on_c, 9, 44, 0
2, 5410, Control_c, 9, 4, 83
2, 5543, Control_c, 9, 17, 50
2, 5544, Note_on_c, 9, 51, 88
2, 5552, Control_c, 9, 4, 127
2, 5621, Control_c, 9, 4, 98
2, 5626, Note_on_c, 9, 51, 0
2, 5664, Control_c, 9, 4, 71
2, 5668, Note_on_c, 9, 36, 62
2, 5672, Note_on_c, 9, 48, 40
2, 5695, Control_c, 9, 4, 0
2, 5735, Control_c, 9, 4, 0
2, 5736, Note_on_c, 9, 46, 34
2, 5751, Note_on_c, 9, 36, 0
2, 5754, Note_on_c, 9, 48, 0
2, 5783, Control_c, 9, 4, 32
2, 5789, Note_on_c, 9, 44, 127
2, 5791, Control_c, 9, 18, 0
2, 5792, Note_on_c, 9, 48, 75
2, 5793, Control_c, 9, 17, 127
2, 5794, Note_on_c, 9, 51, 65
2, 5814, Control_c, 9, 4, 127
2, 5818, Note_on_c, 9, 46, 0
2, 5855, Control_c, 9, 4, 110
2, 5871, Note_on_c, 9, 44, 0
2, 5872, Note_on_c, 9, 48, 0
2, 5874, Note_on_c, 9, 51, 0
2, 5886, Control_c, 9, 4, 91
2, 5915, Control_c, 9, 17, 60
2, 5916, Note_on_c, 9, 51, 60
2, 5996, Note_on_c, 9, 51, 0
2, 6019, Control_c, 9, 4, 120
2, 6021, Note_on_c, 9, 36, 71
2, 6031, Control_c, 9, 17, 60
2, 6031, Note_on_c, 9, 51, 4
2, 6075, Control_c, 9, 4, 94
2, 6102, Note_on_c, 9, 36, 0
2, 6112, Note_on_c, 9, 51, 0
2, 6261, Note_on_c, 9, 36, 77
2, 6265, Control_c, 9, 17, 70
2, 6266, Note_on_c, 9, 51, 90
2, 6269, Control_c, 9, 4, 98
2, 6270, Control_c, 9, 16, 0
2, 6271, Note_on_c, 9, 38, 91
2, 6333, Control_c, 9, 4, 91
2, 6344, Note_on_c, 9, 36, 0
2, 6348, Note_on_c, 9, 51, 0
2, 6352, Note_on_c, 9, 38, 0
2, 6367, Control_c, 9, 4, 73
2, 6409, Control_c, 9, 4, 0
2, 6484, Note_on_c, 9, 46, 14
2, 6496, Note_on_c, 9, 44, 127
2, 6502, Control_c, 9, 4, 127
2, 6516, Control_c, 9, 17, 73
2, 6517, Note_on_c, 9, 51, 74
2, 6546, Control_c, 9, 4, 122
2, 6565, Note_on_c, 9, 46, 0
2, 6576, Control_c, 9, 4, 100
2, 6578, Note_on_c, 9, 44, 0
2, 6597, Note_on_c, 9, 51, 0
2, 6620, Control_c, 9, 4, 88
2, 6624, Note_on_c, 9, 48, 44
2, 6642, Note_on_c, 9, 36, 62
2, 6706, Note_on_c, 9, 48, 0
2, 6725, Note_on_c, 9, 36, 0
2, 6748, Control_c, 9, 18, 0
2, 6749, Note_on_c, 9, 48, 66
2, 6753, Control_c, 9, 17, 0
2, 6753, Note_on_c, 9, 51, 55
2, 6754, Control_c, 9, 4, 127
2, 6829, Control_c, 9, 4, 97
2, 6830, Note_on_c, 9, 48, 0
2, 6834, Note_on_c, 9, 51, 0
2, 6872, Control_c, 9, 4, 70
2, 6875, Control_c, 9, 17, 79
2, 6875, Note_on_c, 9, 51, 60
2, 6904, Control_c, 9, 4, 0
2, 6957, Note_on_c, 9, 51, 0
2, 6980, Note_on_c, 9, 46, 15
2, 6986, Note_on_c, 9, 36, 68
2, 6987, Control_c, 9, 4, 35
2, 6992, Note_on_c, 9, 44, 127
2, 7018, Control_c, 9, 4, 127
2, 7061, Note_on_c, 9, 46, 0
2, 7068, Control_c, 9, 4, 98
2, 7068, Note_on_c, 9, 36, 0
2, 7073, Note_on_c, 9, 44, 0
2, 7106, Control_c, 9, 4, 69
2, 7126, Control_c, 9, 17, 19
2, 7126, Note_on_c, 9, 51, 64
2, 7136, Control_c, 9, 4, 0
2, 7208, Note_on_c, 9, 51, 0
2, 7216, Note_on_c, 9, 46, 14
2, 7224, Control_c, 9, 4, 34
2, 7230, Note_on_c, 9, 44, 127
2, 7231, Note_on_c, 9, 36, 83
2, 7234, Note_on_c, 9, 38, 61
2, 7255, Control_c, 9, 4, 114
2, 7298, Note_on_c, 9, 46, 0
2, 7312, Control_c, 9, 4, 90
2, 7312, Note_on_c, 9, 44, 0
2, 7313, Note_on_c, 9, 36, 0
2, 7316, Note_on_c, 9, 38, 0
2, 7356, Control_c, 9, 4, 79
2, 7418, Control_c, 9, 4, 81
2, 7457, Control_c, 9, 17, 34
2, 7457, Note_on_c, 9, 51, 89
2, 7471, Control_c, 9, 4, 127
2, 7539, Note_on_c, 9, 51, 0
2, 7547, Control_c, 9, 4, 92
2, 7572, Control_c, 9, 16, 0
2, 7573, Note_on_c, 9, 38, 42
2, 7578, Control_c, 9, 4, 72
2, 7595, Note_on_c, 9, 36, 65
2, 7616, Control_c, 9, 4, 0
2, 7654, Note_on_c, 9, 38, 0
2, 7655, Control_c, 9, 4, 0
2, 7676, Note_on_c, 9, 36, 0
2, 7677, End_track
0, 0, End_of_file
