0, 0, Header, 1, 2, 480
1, 0, Start_track
1, 0, Tempo, 545454
1, 0, Time_signature, 4, 2, 24, 8
1, 0, Key_signature, 0, "major"
1, 1, End_track
2, 0, Start_track
2, 0, Title_t, "TD-30 #9 Djembe"
2, 0, Program_c, 9, 0
2, 0, Control_c, 9, 17, 48
2, 7, Note_on_c, 9, 36, 74
2, 10, Control_c, 9, 4, 90
2, 95, Note_on_c, 9, 36, 0
2, 97, Control_c, 9, 4, 77
2, 139, Control_c, 9, 4, 56
2, 170, Control_c, 9, 4, 0
2, 227, Note_on_c, 9, 44, 100
2, 232, Control_c, 9, 17, 99
2, 233, Note_on_c, 9, 51, 75
2, 241, Control_c, 9, 4, 104
2, 281, Control_c, 9, 4, 97
2, 316, Note_on_c, 9, 44, 0
2, 321, Note_on_c, 9, 51, 0
2, 330, Control_c, 9, 4, 84
2, 419, Control_c, 9, 4, 90
2, 476, Note_on_c, 9, 36, 92
2, 478, Control_c, 9, 17, 69
2, 479, Note_on_c, 9, 51, 84
2, 563, Note_on_c, 9, 36, 0
2, 565, Control_c, 9, 4, 75
2, 566, Note_on_c, 9, 51, 0
2, 609, Control_c, 9, 4, 58
2, 643, Control_c, 9, 4, 0
2, 697, Control_c, 9, 4, 68
2, 700, Note_on_c, 9, 44, 93
2, 709, Control_c, 9, 17, 114
2, 710, Note_on_c, 9, 51, 53
2, 727, Control_c, 9, 4, 97
2, 770, Control_c, 9, 4, 95
2, 788, Note_on_c, 9, 44, 0
2, 797, Note_on_c, 9, 51, 0
2, 811, Control_c, 9, 4, 84
2, 842, Control_c, 9, 17, 51
2, 843, Note_on_c, 9, 51, 55
2, 921, Control_c, 9, 4, 89
2, 931, Note_on_c, 9, 51, 0
2, 946, Control_c, 9, 17, 58
2, 946, Note_on_c, 9, 51, 64
2, 990, Control_c, 9, 4, 85
2, 1034, Note_on_c, 9, 51, 0
2, 1161, Control_c, 9, 4, 90
2, 1196, Control_c, 9, 17, 89
2, 1197, Note_on_c, 9, 51, 99
2, 1199, Note_on_c, 9, 40, 66
2, 1251, Control_c, 9, 4, 84
2, 1284, Note_on_c, 9, 51, 0
2, 1286, Note_on_c, 9, 40, 0
2, 1291, Control_c, 9, 4, 72
2, 1321, Control_c, 9, 4, 62
2, 1360, Control_c, 9, 4, 0
2, 1423, Control_c, 9, 4, 65
2, 1426, Note_on_c, 9, 44, 87
2, 1435, Control_c, 9, 17, 127
2, 1436, Note_on_c, 9, 51, 50
2, 1453, Control_c, 9, 4, 92
2, 1492, Control_c, 9, 4, 72
2, 1514, Note_on_c, 9, 44, 0
2, 1524, Note_on_c, 9, 51, 0
2, 1670, Control_c, 9, 17, 51
2, 1671, Note_on_c, 9, 51, 57
2, 1697, Control_c, 9, 4, 68
2, 1758, Note_on_c, 9, 51, 0
2, 1914, Note_on_c, 9, 36, 97
2, 1919, Control_c, 9, 17, 39
2, 1920, Note_on_c, 9, 51, 112
2, 1974, Control_c, 9, 4, 55
2, 1979, Control_c, 9, 17, 39
2, 1980, Note_on_c, 9, 51, 0
2, 1981, Note_on_c, 9, 51, 43
2, 2002, Note_on_c, 9, 36, 0
2, 2006, Note_on_c, 9, 51, 0
2, 2013, Control_c, 9, 4, 0
2, 2105, Note_on_c, 9, 46, 7
2, 2121, Control_c, 9, 4, 67
2, 2124, Note_on_c, 9, 44, 100
2, 2151, Control_c, 9, 4, 82
2, 2192, Note_on_c, 9, 46, 0
2, 2204, Control_c, 9, 4, 44
2, 2212, Note_on_c, 9, 44, 0
2, 2234, Control_c, 9, 4, 0
2, 2358, Control_c, 9, 4, 0
2, 2358, Note_on_c, 9, 46, 7
2, 2377, Note_on_c, 9, 44, 113
2, 2393, Control_c, 9, 4, 76
2, 2430, Control_c, 9, 4, 54
2, 2446, Note_on_c, 9, 46, 0
2, 2464, Note_on_c, 9, 44, 0
2, 2466, Control_c, 9, 4, 0
2, 2660, Note_on_c, 9, 38, 15
2, 2724, Note_on_c, 9, 38, 0
2, 2725, Note_on_c, 9, 38, 29
2, 2747, Note_on_c, 9, 38, 0
2, 2777, Control_c, 9, 16, 0
2, 2778, Note_on_c, 9, 38, 28
2, 2811, Note_on_c, 9, 38, 0
2, 2849, Control_c, 9, 16, 66
2, 2850, Note_on_c, 9, 40, 68
2, 2937, Note_on_c, 9, 40, 0
2, 3080, Control_c, 9, 16, 0
2, 3081, Note_on_c, 9, 40, 66
2, 3168, Note_on_c, 9, 40, 0
2, 3330, Control_c, 9, 4, 67
2, 3330, Note_on_c, 9, 46, 11
2, 3336, Note_on_c, 9, 40, 64
2, 3371, Control_c, 9, 4, 55
2, 3418, Note_on_c, 9, 46, 0
2, 3423, Note_on_c, 9, 40, 0
2, 3449, Note_on_c, 9, 38, 30
2, 3536, Note_on_c, 9, 38, 0
2, 3572, Note_on_c, 9, 38, 25
2, 3575, Control_c, 9, 4, 50
2, 3660, Note_on_c, 9, 38, 0
2, 3701, Control_c, 9, 16, 0
2, 3702, Note_on_c, 9, 38, 16
2, 3789, Note_on_c, 9, 38, 0
2, 3805, Control_c, 9, 16, 0
2, 3806, Note_on_c, 9, 40, 82
2, 3864, Control_c, 9, 4, 54
2, 3892, Note_on_c, 9, 40, 0
2, 3953, Control_c, 9, 4, 63
2, 4068, Control_c, 9, 4, 67
2, 4241, Control_c, 9, 4, 74
2, 4272, Control_c, 9, 4, 81
2, 4292, Control_c, 9, 17, 64
2, 4293, Note_on_c, 9, 51, 90
2, 4299, Note_on_c, 9, 36, 97
2, 4364, Control_c, 9, 4, 74
2, 4381, Note_on_c, 9, 51, 0
2, 4387, Note_on_c, 9, 36, 0
2, 4407, Control_c, 9, 4, 59
2, 4448, Control_c, 9, 4, 0
2, 4502, Control_c, 9, 4, 65
2, 4505, Note_on_c, 9, 46, 51
2, 4507, Note_on_c, 9, 44, 80
2, 4529, Control_c, 9, 17, 127
2, 4530, Note_on_c, 9, 51, 40
2, 4532, Control_c, 9, 4, 92
2, 4569, Control_c, 9, 4, 86
2, 4594, Note_on_c, 9, 44, 0
2, 4594, Note_on_c, 9, 46, 0
2, 4599, Control_c, 9, 4, 82
2, 4618, Note_on_c, 9, 51, 0
2, 4730, Control_c, 9, 4, 81
2, 4770, Control_c, 9, 17, 45
2, 4770, Note_on_c, 9, 51, 58
2, 4858, Note_on_c, 9, 51, 0
2, 5034, Control_c, 9, 16, 117
2, 5034, Note_on_c, 9, 40, 60
2, 5036, Control_c, 9, 17, 87
2, 5037, Note_on_c, 9, 51, 79
2, 5043, Control_c, 9, 4, 84
2, 5081, Control_c, 9, 4, 88
2, 5119, Control_c, 9, 4, 83
2, 5123, Note_on_c, 9, 40, 0
2, 5123, Note_on_c, 9, 51, 0
2, 5162, Control_c, 9, 4, 70
2, 5199, Control_c, 9, 4, 47
2, 5235, Control_c, 9, 4, 5
2, 5274, Control_c, 9, 17, 127
2, 5275, Note_on_c, 9, 51, 43
2, 5276, Note_on_c, 9, 44, 67
2, 5284, Control_c, 9, 4, 93
2, 5328, Control_c, 9, 4, 89
2, 5358, Control_c, 9, 4, 84
2, 5363, Note_on_c, 9, 44, 0
2, 5363, Note_on_c, 9, 51, 0
2, 5520, Control_c, 9, 17, 58
2, 5521, Note_on_c, 9, 51, 46
2, 5546, Control_c, 9, 4, 89
2, 5608, Note_on_c, 9, 51, 0
2, 5636, Control_c, 9, 4, 77
2, 5679, Control_c, 9, 4, 59
2, 5714, Control_c, 9, 4, 0
2, 5772, Note_on_c, 9, 44, 100
2, 5783, Control_c, 9, 17, 69
2, 5784, Note_on_c, 9, 51, 70
2, 5785, Control_c, 9, 4, 102
2, 5824, Control_c, 9, 4, 94
2, 5858, Note_on_c, 9, 44, 0
2, 5865, Control_c, 9, 4, 83
2, 5871, Note_on_c, 9, 51, 0
2, 5918, Control_c, 9, 4, 77
2, 5976, Control_c, 9, 4, 90
2, 6010, Control_c, 9, 4, 84
2, 6021, Control_c, 9, 17, 61
2, 6021, Note_on_c, 9, 51, 39
2, 6110, Note_on_c, 9, 51, 0
2, 6132, Control_c, 9, 16, 0
2, 6133, Note_on_c, 9, 38, 7
2, 6197, Note_on_c, 9, 38, 0
2, 6198, Note_on_c, 9, 38, 6
2, 6220, Note_on_c, 9, 38, 0
2, 6248, Note_on_c, 9, 36, 73
2, 6249, Control_c, 9, 4, 89
2, 6255, Note_on_c, 9, 38, 4
2, 6263, Control_c, 9, 17, 47
2, 6264, Note_on_c, 9, 51, 75
2, 6285, Note_on_c, 9, 38, 0
2, 6338, Note_on_c, 9, 36, 0
2, 6340, Control_c, 9, 4, 76
2, 6352, Note_on_c, 9, 51, 0
2, 6385, Control_c, 9, 4, 59
2, 6425, Control_c, 9, 4, 0
2, 6476, Control_c, 9, 4, 65
2, 6479, Note_on_c, 9, 44, 87
2, 6483, Control_c, 9, 17, 104
2, 6483, Note_on_c, 9, 51, 55
2, 6506, Control_c, 9, 4, 96
2, 6565, Control_c, 9, 4, 84
2, 6567, Note_on_c, 9, 44, 0
2, 6571, Note_on_c, 9, 51, 0
2, 6604, Control_c, 9, 4, 79
2, 6624, Control_c, 9, 17, 41
2, 6625, Note_on_c, 9, 51, 52
2, 6699, Control_c, 9, 4, 83
2, 6712, Note_on_c, 9, 51, 0
2, 6732, Control_c, 9, 17, 45
2, 6733, Note_on_c, 9, 51, 60
2, 6821, Note_on_c, 9, 51, 0
2, 6990, Control_c, 9, 17, 89
2, 6990, Note_on_c, 9, 51, 83
2, 6999, Control_c, 9, 16, 0
2, 7000, Note_on_c, 9, 40, 60
2, 7019, Control_c, 9, 4, 89
2, 7078, Note_on_c, 9, 51, 0
2, 7087, Note_on_c, 9, 40, 0
2, 7113, Control_c, 9, 4, 76
2, 7144, Control_c, 9, 4, 59
2, 7182, Control_c, 9, 4, 21
2, 7221, Control_c, 9, 4, 70
2, 7224, Note_on_c, 9, 44, 54
2, 7225, Control_c, 9, 17, 105
2, 7226, Note_on_c, 9, 51, 44
2, 7252, Control_c, 9, 4, 95
2, 7312, Note_on_c, 9, 44, 0
2, 7313, Note_on_c, 9, 51, 0
2, 7319, Control_c, 9, 4, 85
2, 7425, Control_c, 9, 4, 89
2, 7454, Control_c, 9, 17, 51
2, 7454, Note_on_c, 9, 51, 53
2, 7543, Note_on_c, 9, 51, 0
2, 7554, Control_c, 9, 4, 83
2, 7584, Control_c, 9, 4, 76
2, 7621, Control_c, 9, 4, 57
2, 7654, Control_c, 9, 4, 0
2, 7655, End_track
0, 0, End_of_file
