0, 0, Header, 1, 2, 480
1, 0, Start_track
1, 0, Tempo, 545454
1, 0, Time_signature, 4, 2, 24, 8
1, 0, Key_signature, 0, "major"
1, 1, End_track
2, 0, Start_track
2, 0, Title_t, "Midi Drums"
2, 0, Program_c, 9, 0
2, 0, Note_on_c, 9, 38, 112
2, 5, Note_on_c, 9, 36, 73
2, 87, Note_on_c, 9, 38, 0
2, 93, Note_on_c, 9, 36, 0
2, 123, Note_on_c, 9, 38, 45
2, 212, Note_on_c, 9, 38, 0
2, 248, Note_on_c, 9, 38, 60
2, 336, Note_on_c, 9, 38, 0
2, 374, Note_on_c, 9, 38, 39
2, 462, Note_on_c, 9, 38, 0
2, 485, Note_on_c, 9, 36, 119
2, 490, Note_on_c, 9, 38, 127
2, 574, Note_on_c, 9, 36, 0
2, 579, Note_on_c, 9, 38, 0
2, 643, Note_on_c, 9, 38, 39
2, 731, Note_on_c, 9, 38, 0
2, 750, Note_on_c, 9, 38, 51
2, 839, Note_on_c, 9, 38, 0
2, 881, Note_on_c, 9, 38, 40
2, 967, Note_on_c, 9, 36, 98
2, 969, Note_on_c, 9, 38, 0
2, 981, Note_on_c, 9, 38, 127
2, 1056, Note_on_c, 9, 36, 0
2, 1070, Note_on_c, 9, 38, 0
2, 1122, Note_on_c, 9, 38, 41
2, 1210, Note_on_c, 9, 38, 0
2, 1227, Note_on_c, 9, 38, 67
2, 1316, Note_on_c, 9, 38, 0
2, 1346, Note_on_c, 9, 38, 37
2, 1434, Note_on_c, 9, 38, 0
2, 1457, Note_on_c, 9, 36, 97
2, 1459, Note_on_c, 9, 38, 127
2, 1546, Note_on_c, 9, 36, 0
2, 1548, Note_on_c, 9, 38, 0
2, 1589, Note_on_c, 9, 38, 44
2, 1677, Note_on_c, 9, 38, 0
2, 1694, Note_on_c, 9, 38, 127
2, 1783, Note_on_c, 9, 38, 0
2, 1807, Note_on_c, 9, 38, 57
2, 1896, Note_on_c, 9, 38, 0
2, 1936, Note_on_c, 9, 38, 127
2, 1938, Note_on_c, 9, 36, 121
2, 2024, Note_on_c, 9, 38, 0
2, 2027, Note_on_c, 9, 36, 0
2, 2057, Note_on_c, 9, 38, 38
2, 2146, Note_on_c, 9, 38, 0
2, 2177, Note_on_c, 9, 38, 77
2, 2266, Note_on_c, 9, 38, 0
2, 2306, Note_on_c, 9, 38, 42
2, 2395, Note_on_c, 9, 38, 0
2, 2408, Note_on_c, 9, 36, 107
2, 2420, Note_on_c, 9, 38, 127
2, 2497, Note_on_c, 9, 36, 0
2, 2508, Note_on_c, 9, 38, 0
2, 2588, Note_on_c, 9, 38, 36
2, 2668, Note_on_c, 9, 38, 0
2, 2668, Note_on_c, 9, 38, 65
2, 2676, Note_on_c, 9, 38, 0
2, 2788, Note_on_c, 9, 38, 42
2, 2876, Note_on_c, 9, 38, 0
2, 2885, Note_on_c, 9, 36, 114
2, 2902, Note_on_c, 9, 38, 127
2, 2974, Note_on_c, 9, 36, 0
2, 2990, Note_on_c, 9, 38, 0
2, 3023, Note_on_c, 9, 38, 40
2, 3112, Note_on_c, 9, 38, 0
2, 3149, Note_on_c, 9, 38, 71
2, 3238, Note_on_c, 9, 38, 0
2, 3239, Note_on_c, 9, 38, 48
2, 3328, Note_on_c, 9, 38, 0
2, 3361, Note_on_c, 9, 36, 127
2, 3370, Note_on_c, 9, 38, 127
2, 3451, Note_on_c, 9, 36, 0
2, 3458, Note_on_c, 9, 38, 0
2, 3504, Note_on_c, 9, 38, 43
2, 3593, Note_on_c, 9, 38, 0
2, 3615, Note_on_c, 9, 38, 127
2, 3703, Note_on_c, 9, 38, 0
2, 3741, Note_on_c, 9, 38, 62
2, 3830, Note_on_c, 9, 38, 0
2, 3850, Note_on_c, 9, 36, 127
2, 3856, Note_on_c, 9, 38, 127
2, 3938, Note_on_c, 9, 36, 0
2, 3944, Note_on_c, 9, 38, 0
2, 4002, Note_on_c, 9, 37, 31
2, 4090, Note_on_c, 9, 37, 0
2, 4101, Note_on_c, 9, 38, 72
2, 4190, Note_on_c, 9, 38, 0
2, 4226, Note_on_c, 9, 38, 40
2, 4315, Note_on_c, 9, 38, 0
2, 4326, Note_on_c, 9, 36, 105
2, 4339, Note_on_c, 9, 38, 127
2, 4415, Note_on_c, 9, 36, 0
2, 4428, Note_on_c, 9, 38, 0
2, 4468, Note_on_c, 9, 38, 36
2, 4557, Note_on_c, 9, 38, 0
2, 4577, Note_on_c, 9, 38, 92
2, 4666, Note_on_c, 9, 38, 0
2, 4689, Note_on_c, 9, 38, 39
2, 4778, Note_on_c, 9, 38, 0
2, 4805, Note_on_c, 9, 36, 119
2, 4806, Note_on_c, 9, 38, 127
2, 4894, Note_on_c, 9, 36, 0
2, 4894, Note_on_c, 9, 38, 0
2, 4939, Note_on_c, 9, 38, 37
2, 5028, Note_on_c, 9, 38, 0
2, 5055, Note_on_c, 9, 38, 76
2, 5144, Note_on_c, 9, 38, 0
2, 5168, Note_on_c, 9, 38, 38
2, 5256, Note_on_c, 9, 38, 0
2, 5276, Note_on_c, 9, 36, 113
2, 5291, Note_on_c, 9, 38, 127
2, 5365, Note_on_c, 9, 36, 0
2, 5380, Note_on_c, 9, 38, 0
2, 5411, Note_on_c, 9, 38, 28
2, 5500, Note_on_c, 9, 38, 0
2, 5529, Note_on_c, 9, 38, 127
2, 5618, Note_on_c, 9, 38, 0
2, 5633, Note_on_c, 9, 38, 56
2, 5722, Note_on_c, 9, 38, 0
2, 5761, Note_on_c, 9, 36, 127
2, 5764, Note_on_c, 9, 38, 127
2, 5850, Note_on_c, 9, 36, 0
2, 5853, Note_on_c, 9, 38, 0
2, 5885, Note_on_c, 9, 38, 37
2, 5973, Note_on_c, 9, 38, 0
2, 5997, Note_on_c, 9, 38, 100
2, 6086, Note_on_c, 9, 38, 0
2, 6107, Note_on_c, 9, 38, 49
2, 6196, Note_on_c, 9, 38, 0
2, 6229, Control_c, 9, 4, 90
2, 6229, Note_on_c, 9, 42, 17
2, 6235, Note_on_c, 9, 36, 127
2, 6241, Note_on_c, 9, 38, 127
2, 6318, Note_on_c, 9, 42, 0
2, 6324, Note_on_c, 9, 36, 0
2, 6330, Note_on_c, 9, 38, 0
2, 6351, Note_on_c, 9, 38, 49
2, 6440, Note_on_c, 9, 38, 0
2, 6466, Control_c, 9, 4, 90
2, 6466, Note_on_c, 9, 42, 26
2, 6481, Note_on_c, 9, 38, 108
2, 6555, Note_on_c, 9, 42, 0
2, 6570, Note_on_c, 9, 38, 0
2, 6580, Note_on_c, 9, 38, 55
2, 6669, Note_on_c, 9, 38, 0
2, 6719, Note_on_c, 9, 38, 127
2, 6808, Note_on_c, 9, 38, 0
2, 6822, Note_on_c, 9, 38, 80
2, 6911, Note_on_c, 9, 38, 0
2, 6952, Note_on_c, 9, 38, 114
2, 7041, Note_on_c, 9, 38, 0
2, 7059, Note_on_c, 9, 38, 83
2, 7148, Note_on_c, 9, 38, 0
2, 7182, Note_on_c, 9, 38, 127
2, 7271, Note_on_c, 9, 38, 0
2, 7309, Note_on_c, 9, 38, 111
2, 7398, Note_on_c, 9, 38, 0
2, 7418, Note_on_c, 9, 48, 127
2, 7507, Note_on_c, 9, 48, 0
2, 7537, Note_on_c, 9, 48, 109
2, 7625, Note_on_c, 9, 48, 0
2, 7626, End_track
0, 0, End_of_file
