0, 0, Header, 1, 2, 480
1, 0, Start_track
1, 0, Tempo, 588235
1, 0, Time_signature, 4, 2, 24, 8
1, 0, Key_signature, 0, "major"
1, 1, End_track
2, 0, Start_track
2, 0, Title_t, "Classic Studio Kit"
2, 0, Program_c, 9, 0
2, 0, Control_c, 9, 17, 51
2, 8, Control_c, 9, 4, 106
2, 17, Control_c, 9, 18, 0
2, 17, Note_on_c, 9, 48, 65
2, 29, Note_on_c, 9, 36, 38
2, 61, Control_c, 9, 4, 95
2, 99, Note_on_c, 9, 48, 0
2, 110, Note_on_c, 9, 36, 0
2, 125, Control_c, 9, 17, 121
2, 126, Note_on_c, 9, 51, 69
2, 207, Note_on_c, 9, 51, 0
2, 254, Control_c, 9, 4, 91
2, 255, Note_on_c, 9, 36, 49
2, 338, Note_on_c, 9, 36, 0
2, 478, Control_c, 9, 17, 127
2, 478, Note_on_c, 9, 51, 84
2, 487, Control_c, 9, 16, 0
2, 487, Note_on_c, 9, 38, 72
2, 561, Note_on_c, 9, 51, 0
2, 569, Note_on_c, 9, 38, 0
2, 733, Control_c, 9, 17, 123
2, 734, Note_on_c, 9, 51, 80
2, 815, Note_on_c, 9, 51, 0
2, 851, Note_on_c, 9, 48, 79
2, 933, Note_on_c, 9, 48, 0
2, 981, Note_on_c, 9, 38, 49
2, 1062, Note_on_c, 9, 38, 0
2, 1093, Control_c, 9, 16, 0
2, 1094, Note_on_c, 9, 38, 36
2, 1175, Note_on_c, 9, 38, 0
2, 1229, Control_c, 9, 16, 0
2, 1230, Note_on_c, 9, 38, 60
2, 1311, Note_on_c, 9, 38, 0
2, 1452, Control_c, 9, 16, 85
2, 1452, Note_on_c, 9, 38, 61
2, 1534, Note_on_c, 9, 38, 0
2, 1701, Control_c, 9, 16, 64
2, 1701, Note_on_c, 9, 38, 56
2, 1782, Note_on_c, 9, 38, 0
2, 1935, Control_c, 9, 16, 42
2, 1936, Note_on_c, 9, 38, 58
2, 2017, Note_on_c, 9, 38, 0
2, 2050, Control_c, 9, 16, 0
2, 2050, Note_on_c, 9, 38, 54
2, 2132, Note_on_c, 9, 38, 0
2, 2171, Control_c, 9, 16, 42
2, 2171, Note_on_c, 9, 38, 47
2, 2253, Note_on_c, 9, 38, 0
2, 2426, Control_c, 9, 16, 0
2, 2426, Note_on_c, 9, 38, 68
2, 2442, Control_c, 9, 17, 2
2, 2443, Note_on_c, 9, 36, 52
2, 2443, Note_on_c, 9, 51, 90
2, 2460, Control_c, 9, 4, 98
2, 2508, Note_on_c, 9, 38, 0
2, 2524, Note_on_c, 9, 36, 0
2, 2524, Note_on_c, 9, 51, 0
2, 2539, Control_c, 9, 4, 85
2, 2571, Control_c, 9, 4, 70
2, 2606, Control_c, 9, 4, 0
2, 2659, Control_c, 9, 4, 49
2, 2663, Note_on_c, 9, 44, 106
2, 2672, Control_c, 9, 17, 65
2, 2673, Note_on_c, 9, 51, 73
2, 2689, Control_c, 9, 4, 120
2, 2745, Note_on_c, 9, 44, 0
2, 2747, Control_c, 9, 4, 91
2, 2755, Note_on_c, 9, 51, 0
2, 2784, Control_c, 9, 18, 0
2, 2784, Note_on_c, 9, 36, 61
2, 2786, Note_on_c, 9, 48, 42
2, 2867, Note_on_c, 9, 36, 0
2, 2867, Note_on_c, 9, 48, 0
2, 2906, Control_c, 9, 17, 60
2, 2907, Note_on_c, 9, 51, 52
2, 2908, Control_c, 9, 4, 104
2, 2910, Note_on_c, 9, 48, 59
2, 2986, Control_c, 9, 4, 92
2, 2988, Note_on_c, 9, 51, 0
2, 2990, Note_on_c, 9, 48, 0
2, 3036, Control_c, 9, 4, 70
2, 3038, Control_c, 9, 17, 107
2, 3039, Note_on_c, 9, 51, 61
2, 3072, Control_c, 9, 4, 0
2, 3120, Note_on_c, 9, 51, 0
2, 3124, Control_c, 9, 4, 49
2, 3129, Note_on_c, 9, 46, 60
2, 3130, Note_on_c, 9, 44, 93
2, 3137, Note_on_c, 9, 36, 43
2, 3154, Control_c, 9, 4, 116
2, 3206, Control_c, 9, 4, 92
2, 3210, Note_on_c, 9, 44, 0
2, 3210, Note_on_c, 9, 46, 0
2, 3218, Note_on_c, 9, 36, 0
2, 3238, Control_c, 9, 4, 88
2, 3341, Control_c, 9, 4, 93
2, 3374, Note_on_c, 9, 36, 73
2, 3383, Control_c, 9, 17, 22
2, 3383, Note_on_c, 9, 51, 75
2, 3390, Note_on_c, 9, 38, 63
2, 3457, Note_on_c, 9, 36, 0
2, 3466, Note_on_c, 9, 51, 0
2, 3470, Note_on_c, 9, 38, 0
2, 3498, Control_c, 9, 4, 87
2, 3532, Control_c, 9, 4, 72
2, 3577, Control_c, 9, 4, 10
2, 3610, Control_c, 9, 4, 54
2, 3615, Note_on_c, 9, 46, 58
2, 3616, Note_on_c, 9, 44, 87
2, 3620, Control_c, 9, 17, 97
2, 3621, Note_on_c, 9, 51, 60
2, 3640, Control_c, 9, 4, 120
2, 3678, Control_c, 9, 4, 99
2, 3696, Note_on_c, 9, 44, 0
2, 3696, Note_on_c, 9, 46, 0
2, 3702, Note_on_c, 9, 51, 0
2, 3716, Control_c, 9, 4, 85
2, 3739, Note_on_c, 9, 36, 55
2, 3745, Control_c, 9, 18, 0
2, 3746, Note_on_c, 9, 48, 39
2, 3821, Note_on_c, 9, 36, 0
2, 3828, Note_on_c, 9, 48, 0
2, 3829, Control_c, 9, 17, 67
2, 3830, Note_on_c, 9, 51, 47
2, 3833, Control_c, 9, 4, 97
2, 3859, Note_on_c, 9, 48, 55
2, 3912, Note_on_c, 9, 51, 0
2, 3941, Note_on_c, 9, 48, 0
2, 3971, Control_c, 9, 4, 84
2, 3975, Control_c, 9, 17, 127
2, 3975, Note_on_c, 9, 51, 60
2, 4002, Control_c, 9, 4, 70
2, 4042, Control_c, 9, 4, 7
2, 4057, Note_on_c, 9, 51, 0
2, 4075, Control_c, 9, 4, 48
2, 4081, Note_on_c, 9, 36, 55
2, 4081, Note_on_c, 9, 44, 87
2, 4106, Control_c, 9, 4, 120
2, 4162, Note_on_c, 9, 36, 0
2, 4162, Note_on_c, 9, 44, 0
2, 4166, Control_c, 9, 4, 91
2, 4197, Control_c, 9, 4, 87
2, 4308, Control_c, 9, 4, 97
2, 4331, Note_on_c, 9, 36, 62
2, 4333, Control_c, 9, 16, 0
2, 4334, Control_c, 9, 17, 8
2, 4334, Note_on_c, 9, 38, 74
2, 4335, Note_on_c, 9, 51, 80
2, 4414, Note_on_c, 9, 36, 0
2, 4415, Note_on_c, 9, 38, 0
2, 4415, Note_on_c, 9, 51, 0
2, 4427, Control_c, 9, 4, 91
2, 4469, Control_c, 9, 4, 79
2, 4499, Control_c, 9, 4, 54
2, 4529, Control_c, 9, 4, 0
2, 4569, Note_on_c, 9, 44, 93
2, 4577, Control_c, 9, 4, 127
2, 4581, Control_c, 9, 17, 43
2, 4582, Note_on_c, 9, 51, 69
2, 4618, Control_c, 9, 4, 116
2, 4650, Note_on_c, 9, 44, 0
2, 4656, Control_c, 9, 4, 88
2, 4663, Note_on_c, 9, 51, 0
2, 4688, Control_c, 9, 4, 84
2, 4697, Control_c, 9, 18, 0
2, 4698, Note_on_c, 9, 48, 41
2, 4707, Note_on_c, 9, 36, 58
2, 4779, Note_on_c, 9, 48, 0
2, 4790, Note_on_c, 9, 36, 0
2, 4796, Control_c, 9, 4, 104
2, 4818, Control_c, 9, 17, 74
2, 4818, Note_on_c, 9, 48, 56
2, 4819, Note_on_c, 9, 51, 46
2, 4827, Control_c, 9, 4, 100
2, 4890, Control_c, 9, 4, 95
2, 4899, Note_on_c, 9, 48, 0
2, 4899, Note_on_c, 9, 51, 0
2, 4931, Control_c, 9, 4, 83
2, 4959, Control_c, 9, 17, 90
2, 4959, Note_on_c, 9, 51, 64
2, 4976, Control_c, 9, 4, 54
2, 5007, Control_c, 9, 4, 10
2, 5038, Control_c, 9, 4, 42
2, 5041, Note_on_c, 9, 51, 0
2, 5045, Note_on_c, 9, 44, 80
2, 5052, Note_on_c, 9, 36, 47
2, 5071, Control_c, 9, 4, 120
2, 5107, Control_c, 9, 4, 99
2, 5127, Note_on_c, 9, 44, 0
2, 5133, Note_on_c, 9, 36, 0
2, 5149, Control_c, 9, 4, 87
2, 5263, Control_c, 9, 4, 92
2, 5295, Note_on_c, 9, 36, 65
2, 5296, Control_c, 9, 17, 35
2, 5296, Note_on_c, 9, 51, 85
2, 5297, Control_c, 9, 16, 21
2, 5298, Note_on_c, 9, 38, 62
2, 5377, Note_on_c, 9, 36, 0
2, 5378, Note_on_c, 9, 51, 0
2, 5379, Note_on_c, 9, 38, 0
2, 5405, Control_c, 9, 4, 85
2, 5444, Control_c, 9, 4, 70
2, 5489, Control_c, 9, 4, 0
2, 5531, Control_c, 9, 4, 50
2, 5536, Note_on_c, 9, 44, 93
2, 5543, Control_c, 9, 17, 117
2, 5543, Note_on_c, 9, 51, 67
2, 5561, Control_c, 9, 4, 120
2, 5604, Control_c, 9, 4, 97
2, 5617, Note_on_c, 9, 44, 0
2, 5626, Note_on_c, 9, 51, 0
2, 5643, Control_c, 9, 4, 85
2, 5650, Control_c, 9, 18, 0
2, 5650, Note_on_c, 9, 48, 43
2, 5667, Note_on_c, 9, 36, 45
2, 5732, Note_on_c, 9, 48, 0
2, 5750, Note_on_c, 9, 36, 0
2, 5761, Control_c, 9, 4, 99
2, 5777, Control_c, 9, 17, 83
2, 5777, Note_on_c, 9, 51, 52
2, 5780, Note_on_c, 9, 48, 60
2, 5859, Note_on_c, 9, 51, 0
2, 5861, Note_on_c, 9, 48, 0
2, 5869, Control_c, 9, 4, 92
2, 5910, Control_c, 9, 17, 109
2, 5910, Note_on_c, 9, 51, 63
2, 5914, Control_c, 9, 4, 78
2, 5945, Control_c, 9, 4, 54
2, 5976, Control_c, 9, 4, 0
2, 5992, Note_on_c, 9, 51, 0
2, 6014, Control_c, 9, 4, 49
2, 6019, Note_on_c, 9, 44, 100
2, 6020, Note_on_c, 9, 36, 46
2, 6044, Control_c, 9, 4, 116
2, 6084, Control_c, 9, 4, 96
2, 6100, Note_on_c, 9, 44, 0
2, 6103, Note_on_c, 9, 36, 0
2, 6126, Control_c, 9, 4, 87
2, 6233, Control_c, 9, 4, 92
2, 6264, Control_c, 9, 17, 41
2, 6264, Note_on_c, 9, 51, 81
2, 6266, Note_on_c, 9, 36, 58
2, 6273, Control_c, 9, 16, 0
2, 6274, Control_c, 9, 4, 96
2, 6274, Note_on_c, 9, 38, 61
2, 6346, Note_on_c, 9, 51, 0
2, 6348, Note_on_c, 9, 36, 0
2, 6355, Note_on_c, 9, 38, 0
2, 6367, Control_c, 9, 4, 84
2, 6404, Control_c, 9, 4, 71
2, 6453, Control_c, 9, 4, 0
2, 6495, Control_c, 9, 4, 49
2, 6499, Note_on_c, 9, 44, 93
2, 6517, Control_c, 9, 17, 105
2, 6518, Note_on_c, 9, 51, 62
2, 6525, Control_c, 9, 4, 120
2, 6568, Control_c, 9, 4, 97
2, 6582, Note_on_c, 9, 44, 0
2, 6600, Note_on_c, 9, 51, 0
2, 6606, Control_c, 9, 4, 85
2, 6625, Control_c, 9, 18, 0
2, 6625, Note_on_c, 9, 48, 43
2, 6638, Note_on_c, 9, 36, 47
2, 6707, Note_on_c, 9, 48, 0
2, 6721, Note_on_c, 9, 36, 0
2, 6727, Control_c, 9, 4, 100
2, 6734, Control_c, 9, 17, 67
2, 6734, Note_on_c, 9, 51, 52
2, 6753, Note_on_c, 9, 48, 59
2, 6816, Control_c, 9, 4, 95
2, 6816, Note_on_c, 9, 51, 0
2, 6834, Note_on_c, 9, 48, 0
2, 6863, Control_c, 9, 4, 83
2, 6874, Control_c, 9, 17, 127
2, 6875, Note_on_c, 9, 51, 63
2, 6912, Control_c, 9, 4, 54
2, 6946, Control_c, 9, 4, 0
2, 6956, Note_on_c, 9, 51, 0
2, 6978, Control_c, 9, 4, 49
2, 6984, Note_on_c, 9, 44, 93
2, 6994, Note_on_c, 9, 36, 42
2, 7009, Control_c, 9, 4, 116
2, 7051, Control_c, 9, 4, 95
2, 7066, Note_on_c, 9, 44, 0
2, 7075, Note_on_c, 9, 36, 0
2, 7088, Control_c, 9, 4, 85
2, 7212, Control_c, 9, 4, 95
2, 7234, Note_on_c, 9, 36, 49
2, 7237, Note_on_c, 9, 38, 73
2, 7238, Control_c, 9, 17, 49
2, 7239, Note_on_c, 9, 51, 84
2, 7316, Note_on_c, 9, 36, 0
2, 7316, Note_on_c, 9, 38, 0
2, 7319, Note_on_c, 9, 51, 0
2, 7336, Control_c, 9, 4, 83
2, 7373, Control_c, 9, 4, 70
2, 7417, Control_c, 9, 4, 0
2, 7462, Control_c, 9, 4, 49
2, 7468, Note_on_c, 9, 44, 100
2, 7479, Control_c, 9, 17, 126
2, 7479, Note_on_c, 9, 51, 63
2, 7493, Control_c, 9, 4, 120
2, 7533, Control_c, 9, 4, 98
2, 7550, Note_on_c, 9, 44, 0
2, 7560, Note_on_c, 9, 51, 0
2, 7573, Control_c, 9, 4, 87
2, 7601, Control_c, 9, 18, 0
2, 7602, End_track
0, 0, End_of_file
