0, 0, Header, 1, 2, 480
1, 0, Start_track
1, 0, Tempo, 588235
1, 0, Time_signature, 4, 2, 24, 8
1, 0, Key_signature, 0, "major"
1, 1, End_track
2, 0, Start_track
2, 0, Title_t, "Classic Studio Kit"
2, 0, Program_c, 9, 0
2, 0, Control_c, 9, 17, 76
2, 9, Note_on_c, 9, 44, 127
2, 11, Control_c, 9, 4, 33
2, 12, Control_c, 9, 17, 80
2, 13, Note_on_c, 9, 51, 49
2, 14, Control_c, 9, 4, 127
2, 16, Note_on_c, 9, 44, 127
2, 34, Control_c, 9, 18, 0
2, 35, Note_on_c, 9, 48, 73
2, 35, Note_on_c, 9, 48, 79
2, 42, Control_c, 9, 4, 126
2, 58, Control_c, 9, 4, 118
2, 75, Note_on_c, 9, 51, 0
2, 80, Control_c, 9, 4, 102
2, 91, Note_on_c, 9, 44, 0
2, 91, Note_on_c, 9, 44, 0
2, 99, Control_c, 9, 4, 92
2, 115, Control_c, 9, 4, 88
2, 116, Note_on_c, 9, 48, 0
2, 116, Note_on_c, 9, 48, 0
2, 140, Control_c, 9, 17, 24
2, 141, Control_c, 9, 17, 13
2, 141, Note_on_c, 9, 51, 57
2, 141, Note_on_c, 9, 51, 71
2, 222, Note_on_c, 9, 51, 0
2, 222, Note_on_c, 9, 51, 0
2, 235, Control_c, 9, 4, 108
2, 243, Control_c, 9, 4, 108
2, 257, Note_on_c, 9, 36, 61
2, 270, Note_on_c, 9, 36, 54
2, 286, Control_c, 9, 4, 94
2, 288, Control_c, 9, 4, 94
2, 319, Control_c, 9, 4, 90
2, 338, Note_on_c, 9, 36, 0
2, 338, Note_on_c, 9, 36, 0
2, 486, Note_on_c, 9, 36, 62
2, 501, Control_c, 9, 17, 43
2, 501, Note_on_c, 9, 51, 74
2, 502, Note_on_c, 9, 36, 68
2, 505, Control_c, 9, 16, 0
2, 506, Note_on_c, 9, 38, 94
2, 511, Control_c, 9, 17, 3
2, 511, Note_on_c, 9, 51, 103
2, 513, Control_c, 9, 16, 21
2, 514, Note_on_c, 9, 38, 75
2, 523, Control_c, 9, 4, 94
2, 568, Note_on_c, 9, 36, 0
2, 568, Note_on_c, 9, 36, 0
2, 575, Control_c, 9, 4, 89
2, 583, Note_on_c, 9, 51, 0
2, 583, Note_on_c, 9, 51, 0
2, 586, Note_on_c, 9, 38, 0
2, 586, Note_on_c, 9, 38, 0
2, 587, Control_c, 9, 4, 89
2, 605, Control_c, 9, 4, 73
2, 621, Control_c, 9, 4, 74
2, 651, Control_c, 9, 4, 0
2, 664, Control_c, 9, 4, 0
2, 722, Control_c, 9, 4, 34
2, 728, Note_on_c, 9, 44, 126
2, 735, Control_c, 9, 4, 34
2, 740, Note_on_c, 9, 44, 127
2, 749, Control_c, 9, 17, 47
2, 750, Note_on_c, 9, 51, 66
2, 754, Control_c, 9, 4, 120
2, 754, Control_c, 9, 17, 38
2, 755, Note_on_c, 9, 51, 75
2, 765, Control_c, 9, 4, 120
2, 810, Note_on_c, 9, 44, 0
2, 810, Note_on_c, 9, 44, 0
2, 811, Control_c, 9, 4, 91
2, 825, Control_c, 9, 4, 90
2, 832, Note_on_c, 9, 51, 0
2, 832, Note_on_c, 9, 51, 0
2, 849, Control_c, 9, 4, 86
2, 860, Control_c, 9, 4, 85
2, 867, Note_on_c, 9, 48, 47
2, 875, Control_c, 9, 18, 0
2, 875, Note_on_c, 9, 48, 46
2, 877, Note_on_c, 9, 36, 74
2, 884, Note_on_c, 9, 36, 67
2, 949, Note_on_c, 9, 48, 0
2, 949, Note_on_c, 9, 48, 0
2, 954, Control_c, 9, 17, 54
2, 955, Note_on_c, 9, 51, 51
2, 959, Note_on_c, 9, 36, 0
2, 959, Note_on_c, 9, 36, 0
2, 975, Control_c, 9, 17, 59
2, 975, Note_on_c, 9, 51, 51
2, 979, Control_c, 9, 4, 110
2, 989, Note_on_c, 9, 48, 72
2, 990, Control_c, 9, 4, 114
2, 992, Control_c, 9, 18, 0
2, 993, Note_on_c, 9, 48, 65
2, 1037, Note_on_c, 9, 51, 0
2, 1037, Note_on_c, 9, 51, 0
2, 1063, Control_c, 9, 4, 93
2, 1068, Control_c, 9, 4, 91
2, 1070, Note_on_c, 9, 48, 0
2, 1070, Note_on_c, 9, 48, 0
2, 1094, Control_c, 9, 4, 76
2, 1099, Control_c, 9, 17, 10
2, 1100, Note_on_c, 9, 51, 71
2, 1105, Control_c, 9, 4, 74
2, 1105, Control_c, 9, 17, 36
2, 1105, Note_on_c, 9, 51, 65
2, 1133, Control_c, 9, 4, 0
2, 1145, Control_c, 9, 4, 0
2, 1182, Note_on_c, 9, 51, 0
2, 1182, Note_on_c, 9, 51, 0
2, 1208, Note_on_c, 9, 46, 14
2, 1214, Control_c, 9, 4, 35
2, 1214, Note_on_c, 9, 36, 68
2, 1214, Note_on_c, 9, 46, 14
2, 1219, Note_on_c, 9, 44, 127
2, 1220, Control_c, 9, 4, 34
2, 1220, Note_on_c, 9, 36, 62
2, 1225, Note_on_c, 9, 44, 127
2, 1245, Control_c, 9, 4, 127
2, 1250, Control_c, 9, 4, 127
2, 1260, Note_on_c, 9, 49, 6
2, 1276, Control_c, 9, 4, 116
2, 1290, Note_on_c, 9, 46, 0
2, 1290, Note_on_c, 9, 46, 0
2, 1296, Note_on_c, 9, 36, 0
2, 1296, Note_on_c, 9, 36, 0
2, 1299, Control_c, 9, 4, 93
2, 1302, Note_on_c, 9, 44, 0
2, 1302, Note_on_c, 9, 44, 0
2, 1307, Control_c, 9, 4, 80
2, 1343, Note_on_c, 9, 49, 0
2, 1345, Control_c, 9, 4, 81
2, 1349, Control_c, 9, 4, 0
2, 1389, Control_c, 9, 4, 0
2, 1389, Note_on_c, 9, 46, 23
2, 1429, Note_on_c, 9, 46, 0
2, 1429, Note_on_c, 9, 46, 10
2, 1431, Control_c, 9, 4, 89
2, 1438, Control_c, 9, 4, 33
2, 1444, Note_on_c, 9, 44, 119
2, 1451, Note_on_c, 9, 36, 82
2, 1456, Note_on_c, 9, 36, 83
2, 1459, Note_on_c, 9, 38, 75
2, 1461, Control_c, 9, 17, 3
2, 1462, Note_on_c, 9, 51, 96
2, 1465, Control_c, 9, 17, 7
2, 1465, Note_on_c, 9, 51, 94
2, 1469, Control_c, 9, 4, 102
2, 1469, Control_c, 9, 4, 110
2, 1471, Note_on_c, 9, 46, 0
2, 1472, Control_c, 9, 16, 21
2, 1473, Note_on_c, 9, 38, 74
2, 1513, Control_c, 9, 4, 98
2, 1526, Note_on_c, 9, 44, 0
2, 1533, Note_on_c, 9, 36, 0
2, 1533, Note_on_c, 9, 36, 0
2, 1540, Note_on_c, 9, 38, 0
2, 1540, Note_on_c, 9, 38, 0
2, 1542, Note_on_c, 9, 51, 0
2, 1542, Note_on_c, 9, 51, 0
2, 1543, Control_c, 9, 4, 91
2, 1550, Control_c, 9, 4, 83
2, 1584, Control_c, 9, 4, 73
2, 1622, Control_c, 9, 4, 0
2, 1685, Control_c, 9, 4, 116
2, 1690, Note_on_c, 9, 46, 10
2, 1698, Control_c, 9, 4, 32
2, 1703, Control_c, 9, 17, 34
2, 1703, Control_c, 9, 17, 43
2, 1703, Note_on_c, 9, 51, 70
2, 1705, Note_on_c, 9, 51, 72
2, 1706, Note_on_c, 9, 44, 127
2, 1729, Control_c, 9, 4, 118
2, 1743, Control_c, 9, 4, 99
2, 1772, Control_c, 9, 4, 96
2, 1772, Note_on_c, 9, 46, 0
2, 1784, Control_c, 9, 4, 84
2, 1786, Note_on_c, 9, 44, 0
2, 1786, Note_on_c, 9, 51, 0
2, 1786, Note_on_c, 9, 51, 0
2, 1811, Control_c, 9, 4, 85
2, 1813, Note_on_c, 9, 36, 67
2, 1814, Control_c, 9, 4, 70
2, 1820, Note_on_c, 9, 48, 45
2, 1825, Note_on_c, 9, 48, 51
2, 1837, Note_on_c, 9, 36, 65
2, 1848, Control_c, 9, 4, 0
2, 1895, Note_on_c, 9, 36, 0
2, 1895, Note_on_c, 9, 36, 0
2, 1901, Note_on_c, 9, 48, 0
2, 1901, Note_on_c, 9, 48, 0
2, 1903, Control_c, 9, 17, 50
2, 1903, Note_on_c, 9, 51, 50
2, 1917, Note_on_c, 9, 46, 9
2, 1923, Control_c, 9, 17, 63
2, 1923, Note_on_c, 9, 51, 48
2, 1928, Note_on_c, 9, 44, 127
2, 1933, Control_c, 9, 4, 127
2, 1941, Control_c, 9, 18, 0
2, 1942, Note_on_c, 9, 48, 67
2, 1945, Control_c, 9, 4, 110
2, 1950, Note_on_c, 9, 48, 71
2, 1978, Control_c, 9, 4, 118
2, 1985, Note_on_c, 9, 51, 0
2, 1985, Note_on_c, 9, 51, 0
2, 1998, Note_on_c, 9, 46, 0
2, 2009, Note_on_c, 9, 44, 0
2, 2017, Control_c, 9, 4, 91
2, 2024, Note_on_c, 9, 48, 0
2, 2024, Note_on_c, 9, 48, 0
2, 2030, Control_c, 9, 4, 90
2, 2052, Control_c, 9, 17, 3
2, 2052, Control_c, 9, 17, 22
2, 2052, Note_on_c, 9, 51, 72
2, 2052, Note_on_c, 9, 51, 77
2, 2065, Control_c, 9, 4, 73
2, 2102, Control_c, 9, 4, 0
2, 2133, Note_on_c, 9, 51, 0
2, 2133, Note_on_c, 9, 51, 0
2, 2137, Control_c, 9, 4, 102
2, 2168, Control_c, 9, 4, 35
2, 2169, Note_on_c, 9, 36, 52
2, 2169, Note_on_c, 9, 36, 65
2, 2172, Control_c, 9, 4, 100
2, 2174, Note_on_c, 9, 44, 127
2, 2199, Control_c, 9, 4, 124
2, 2215, Note_on_c, 9, 49, 6
2, 2221, Control_c, 9, 4, 90
2, 2243, Control_c, 9, 4, 96
2, 2251, Note_on_c, 9, 36, 0
2, 2251, Note_on_c, 9, 36, 0
2, 2255, Note_on_c, 9, 44, 0
2, 2281, Control_c, 9, 4, 85
2, 2297, Note_on_c, 9, 49, 0
2, 2398, Control_c, 9, 4, 97
2, 2406, Control_c, 9, 17, 7
2, 2407, Note_on_c, 9, 51, 87
2, 2410, Note_on_c, 9, 36, 70
2, 2411, Control_c, 9, 17, 8
2, 2411, Note_on_c, 9, 51, 83
2, 2412, Control_c, 9, 16, 0
2, 2412, Note_on_c, 9, 38, 66
2, 2414, Note_on_c, 9, 36, 73
2, 2420, Note_on_c, 9, 38, 62
2, 2421, Control_c, 9, 4, 95
2, 2488, Note_on_c, 9, 51, 0
2, 2488, Note_on_c, 9, 51, 0
2, 2491, Note_on_c, 9, 36, 0
2, 2491, Note_on_c, 9, 36, 0
2, 2494, Note_on_c, 9, 38, 0
2, 2494, Note_on_c, 9, 38, 0
2, 2504, Control_c, 9, 4, 82
2, 2514, Control_c, 9, 4, 85
2, 2538, Control_c, 9, 4, 69
2, 2545, Control_c, 9, 4, 70
2, 2570, Control_c, 9, 4, 0
2, 2580, Control_c, 9, 4, 0
2, 2638, Control_c, 9, 4, 34
2, 2643, Note_on_c, 9, 44, 127
2, 2646, Control_c, 9, 4, 34
2, 2647, Control_c, 9, 17, 39
2, 2648, Note_on_c, 9, 51, 69
2, 2652, Note_on_c, 9, 44, 127
2, 2664, Control_c, 9, 17, 32
2, 2664, Note_on_c, 9, 51, 64
2, 2669, Control_c, 9, 4, 120
2, 2677, Control_c, 9, 4, 120
2, 2720, Control_c, 9, 4, 98
2, 2721, Control_c, 9, 4, 96
2, 2726, Note_on_c, 9, 44, 0
2, 2726, Note_on_c, 9, 44, 0
2, 2730, Note_on_c, 9, 51, 0
2, 2730, Note_on_c, 9, 51, 0
2, 2756, Control_c, 9, 4, 84
2, 2765, Control_c, 9, 4, 88
2, 2770, Control_c, 9, 18, 0
2, 2771, Note_on_c, 9, 48, 51
2, 2778, Control_c, 9, 18, 21
2, 2779, Note_on_c, 9, 48, 48
2, 2781, Note_on_c, 9, 36, 65
2, 2793, Note_on_c, 9, 36, 72
2, 2853, Note_on_c, 9, 48, 0
2, 2853, Note_on_c, 9, 48, 0
2, 2864, Control_c, 9, 17, 59
2, 2864, Note_on_c, 9, 36, 0
2, 2864, Note_on_c, 9, 36, 0
2, 2864, Note_on_c, 9, 51, 49
2, 2880, Control_c, 9, 4, 116
2, 2883, Control_c, 9, 17, 50
2, 2883, Note_on_c, 9, 51, 53
2, 2886, Control_c, 9, 4, 114
2, 2890, Control_c, 9, 18, 0
2, 2890, Note_on_c, 9, 48, 70
2, 2906, Note_on_c, 9, 48, 67
2, 2945, Note_on_c, 9, 51, 0
2, 2945, Note_on_c, 9, 51, 0
2, 2952, Control_c, 9, 4, 106
2, 2961, Control_c, 9, 4, 90
2, 2972, Note_on_c, 9, 48, 0
2, 2972, Note_on_c, 9, 48, 0
2, 2986, Control_c, 9, 4, 91
2, 2992, Control_c, 9, 4, 71
2, 3006, Note_on_c, 9, 46, 7
2, 3011, Control_c, 9, 17, 34
2, 3012, Note_on_c, 9, 51, 75
2, 3014, Control_c, 9, 17, 33
2, 3015, Note_on_c, 9, 51, 62
2, 3026, Control_c, 9, 4, 0
2, 3026, Control_c, 9, 4, 73
2, 3065, Control_c, 9, 4, 0
2, 3065, Note_on_c, 9, 46, 0
2, 3067, Note_on_c, 9, 46, 28
2, 3088, Note_on_c, 9, 46, 0
2, 3094, Note_on_c, 9, 51, 0
2, 3094, Note_on_c, 9, 51, 0
2, 3100, Note_on_c, 9, 46, 16
2, 3108, Control_c, 9, 4, 33
2, 3110, Note_on_c, 9, 36, 62
2, 3112, Note_on_c, 9, 44, 127
2, 3132, Note_on_c, 9, 44, 127
2, 3133, Note_on_c, 9, 36, 68
2, 3138, Control_c, 9, 4, 124
2, 3138, Control_c, 9, 4, 127
2, 3148, Note_on_c, 9, 46, 0
2, 3156, Note_on_c, 9, 49, 5
2, 3173, Control_c, 9, 4, 102
2, 3183, Control_c, 9, 4, 120
2, 3193, Note_on_c, 9, 36, 0
2, 3193, Note_on_c, 9, 36, 0
2, 3194, Note_on_c, 9, 44, 0
2, 3194, Note_on_c, 9, 44, 0
2, 3209, Control_c, 9, 4, 70
2, 3218, Control_c, 9, 4, 90
2, 3238, Note_on_c, 9, 49, 0
2, 3241, Control_c, 9, 4, 0
2, 3250, Control_c, 9, 4, 85
2, 3324, Note_on_c, 9, 46, 16
2, 3336, Control_c, 9, 4, 51
2, 3341, Note_on_c, 9, 44, 113
2, 3350, Note_on_c, 9, 36, 86
2, 3356, Control_c, 9, 17, 30
2, 3357, Note_on_c, 9, 51, 86
2, 3361, Control_c, 9, 16, 0
2, 3362, Note_on_c, 9, 38, 61
2, 3366, Control_c, 9, 4, 97
2, 3369, Control_c, 9, 4, 110
2, 3370, Control_c, 9, 17, 12
2, 3370, Note_on_c, 9, 51, 82
2, 3375, Note_on_c, 9, 36, 84
2, 3377, Note_on_c, 9, 38, 59
2, 3404, Control_c, 9, 4, 92
2, 3405, Note_on_c, 9, 46, 0
2, 3423, Note_on_c, 9, 44, 0
2, 3432, Note_on_c, 9, 36, 0
2, 3432, Note_on_c, 9, 36, 0
2, 3438, Note_on_c, 9, 51, 0
2, 3438, Note_on_c, 9, 51, 0
2, 3443, Control_c, 9, 4, 83
2, 3443, Control_c, 9, 4, 87
2, 3443, Note_on_c, 9, 38, 0
2, 3443, Note_on_c, 9, 38, 0
2, 3544, Control_c, 9, 4, 91
2, 3595, Control_c, 9, 4, 114
2, 3607, Control_c, 9, 17, 54
2, 3607, Note_on_c, 9, 51, 62
2, 3667, Control_c, 9, 4, 90
2, 3689, Note_on_c, 9, 51, 0
2, 3702, Control_c, 9, 4, 72
2, 3721, Note_on_c, 9, 36, 67
2, 3724, Control_c, 9, 18, 0
2, 3724, Note_on_c, 9, 48, 47
2, 3739, Control_c, 9, 4, 0
2, 3797, Control_c, 9, 17, 83
2, 3797, Note_on_c, 9, 51, 47
2, 3803, Note_on_c, 9, 36, 0
2, 3806, Note_on_c, 9, 48, 0
2, 3817, Note_on_c, 9, 46, 14
2, 3824, Control_c, 9, 4, 34
2, 3829, Note_on_c, 9, 44, 127
2, 3844, Note_on_c, 9, 48, 76
2, 3854, Control_c, 9, 4, 120
2, 3880, Note_on_c, 9, 51, 0
2, 3898, Note_on_c, 9, 46, 0
2, 3911, Note_on_c, 9, 44, 0
2, 3923, Control_c, 9, 4, 91
2, 3925, Note_on_c, 9, 48, 0
2, 3951, Control_c, 9, 17, 35
2, 3951, Note_on_c, 9, 51, 76
2, 4032, Note_on_c, 9, 51, 0
2, 4065, Control_c, 9, 4, 102
2, 4078, Note_on_c, 9, 36, 65
2, 4119, Control_c, 9, 4, 92
2, 4159, Note_on_c, 9, 36, 0
2, 4312, Note_on_c, 9, 36, 71
2, 4332, Control_c, 9, 17, 18
2, 4333, Control_c, 9, 16, 0
2, 4333, Note_on_c, 9, 51, 83
2, 4335, Note_on_c, 9, 38, 72
2, 4393, Note_on_c, 9, 36, 0
2, 4411, Control_c, 9, 4, 85
2, 4414, Note_on_c, 9, 51, 0
2, 4415, Note_on_c, 9, 38, 0
2, 4442, Control_c, 9, 4, 70
2, 4475, Control_c, 9, 4, 0
2, 4547, Control_c, 9, 4, 35
2, 4553, Note_on_c, 9, 44, 127
2, 4575, Control_c, 9, 17, 44
2, 4576, Note_on_c, 9, 51, 74
2, 4579, Control_c, 9, 4, 118
2, 4634, Note_on_c, 9, 44, 0
2, 4642, Control_c, 9, 4, 92
2, 4658, Note_on_c, 9, 51, 0
2, 4675, Control_c, 9, 4, 88
2, 4687, Control_c, 9, 18, 0
2, 4688, Note_on_c, 9, 36, 68
2, 4688, Note_on_c, 9, 48, 49
2, 4726, Control_c, 9, 4, 87
2, 4770, Note_on_c, 9, 48, 0
2, 4771, Control_c, 9, 4, 84
2, 4771, Note_on_c, 9, 36, 0
2, 4776, Control_c, 9, 17, 64
2, 4776, Note_on_c, 9, 51, 48
2, 4810, Control_c, 9, 4, 120
2, 4813, Note_on_c, 9, 48, 71
2, 4859, Note_on_c, 9, 51, 0
2, 4885, Control_c, 9, 4, 91
2, 4894, Note_on_c, 9, 48, 0
2, 4917, Control_c, 9, 4, 72
2, 4926, Control_c, 9, 17, 37
2, 4927, Note_on_c, 9, 51, 78
2, 4952, Control_c, 9, 4, 0
2, 4993, Control_c, 9, 4, 0
2, 4993, Note_on_c, 9, 46, 24
2, 5009, Note_on_c, 9, 51, 0
2, 5027, Note_on_c, 9, 46, 0
2, 5028, Note_on_c, 9, 46, 12
2, 5032, Note_on_c, 9, 36, 62
2, 5034, Control_c, 9, 4, 33
2, 5040, Note_on_c, 9, 44, 127
2, 5042, Control_c, 9, 17, 37
2, 5042, Note_on_c, 9, 51, 6
2, 5065, Control_c, 9, 4, 127
2, 5076, Note_on_c, 9, 46, 0
2, 5105, Control_c, 9, 4, 100
2, 5114, Note_on_c, 9, 36, 0
2, 5121, Note_on_c, 9, 44, 0
2, 5124, Note_on_c, 9, 51, 0
2, 5144, Control_c, 9, 4, 70
2, 5180, Control_c, 9, 4, 0
2, 5263, Note_on_c, 9, 46, 11
2, 5272, Control_c, 9, 4, 32
2, 5277, Note_on_c, 9, 36, 83
2, 5279, Note_on_c, 9, 44, 119
2, 5282, Control_c, 9, 17, 19
2, 5282, Note_on_c, 9, 51, 85
2, 5289, Control_c, 9, 16, 21
2, 5289, Note_on_c, 9, 38, 66
2, 5303, Control_c, 9, 4, 110
2, 5345, Note_on_c, 9, 46, 0
2, 5351, Control_c, 9, 4, 91
2, 5359, Note_on_c, 9, 36, 0
2, 5360, Note_on_c, 9, 44, 0
2, 5364, Note_on_c, 9, 51, 0
2, 5371, Note_on_c, 9, 38, 0
2, 5392, Control_c, 9, 4, 78
2, 5484, Control_c, 9, 4, 88
2, 5524, Control_c, 9, 4, 118
2, 5534, Control_c, 9, 17, 66
2, 5534, Note_on_c, 9, 51, 63
2, 5568, Control_c, 9, 4, 97
2, 5605, Control_c, 9, 4, 83
2, 5615, Note_on_c, 9, 51, 0
2, 5636, Control_c, 9, 4, 69
2, 5638, Note_on_c, 9, 36, 69
2, 5650, Control_c, 9, 18, 0
2, 5651, Note_on_c, 9, 48, 51
2, 5667, Control_c, 9, 4, 0
2, 5721, Note_on_c, 9, 36, 0
2, 5732, Control_c, 9, 17, 108
2, 5733, Note_on_c, 9, 48, 0
2, 5733, Note_on_c, 9, 51, 48
2, 5738, Note_on_c, 9, 46, 15
2, 5751, Note_on_c, 9, 44, 127
2, 5756, Control_c, 9, 4, 127
2, 5772, Note_on_c, 9, 48, 83
2, 5800, Control_c, 9, 4, 118
2, 5813, Note_on_c, 9, 51, 0
2, 5819, Note_on_c, 9, 46, 0
2, 5832, Note_on_c, 9, 44, 0
2, 5838, Control_c, 9, 4, 90
2, 5854, Note_on_c, 9, 48, 0
2, 5880, Control_c, 9, 17, 84
2, 5881, Note_on_c, 9, 51, 74
2, 5962, Note_on_c, 9, 51, 0
2, 5967, Control_c, 9, 4, 100
2, 5993, Note_on_c, 9, 36, 57
2, 5998, Control_c, 9, 4, 100
2, 6046, Control_c, 9, 4, 91
2, 6075, Note_on_c, 9, 36, 0
2, 6237, Note_on_c, 9, 36, 75
2, 6240, Control_c, 9, 4, 0
2, 6253, Control_c, 9, 16, 21
2, 6253, Note_on_c, 9, 38, 73
2, 6254, Control_c, 9, 17, 25
2, 6254, Note_on_c, 9, 51, 88
2, 6319, Note_on_c, 9, 36, 0
2, 6332, Control_c, 9, 4, 83
2, 6335, Note_on_c, 9, 38, 0
2, 6336, Note_on_c, 9, 51, 0
2, 6364, Control_c, 9, 4, 70
2, 6400, Control_c, 9, 4, 0
2, 6470, Note_on_c, 9, 46, 13
2, 6477, Control_c, 9, 4, 33
2, 6483, Note_on_c, 9, 44, 127
2, 6500, Control_c, 9, 17, 49
2, 6501, Note_on_c, 9, 51, 73
2, 6508, Control_c, 9, 4, 120
2, 6551, Note_on_c, 9, 46, 0
2, 6564, Note_on_c, 9, 44, 0
2, 6570, Control_c, 9, 4, 92
2, 6582, Note_on_c, 9, 51, 0
2, 6601, Control_c, 9, 4, 86
2, 6610, Control_c, 9, 18, 0
2, 6611, Note_on_c, 9, 48, 48
2, 6623, Note_on_c, 9, 36, 71
2, 6692, Note_on_c, 9, 48, 0
2, 6699, Control_c, 9, 17, 62
2, 6700, Note_on_c, 9, 51, 49
2, 6705, Note_on_c, 9, 36, 0
2, 6732, Note_on_c, 9, 48, 77
2, 6740, Control_c, 9, 4, 120
2, 6780, Note_on_c, 9, 51, 0
2, 6814, Note_on_c, 9, 48, 0
2, 6815, Control_c, 9, 4, 91
2, 6850, Control_c, 9, 4, 71
2, 6852, Control_c, 9, 17, 60
2, 6853, Note_on_c, 9, 51, 75
2, 6886, Control_c, 9, 4, 0
2, 6935, Note_on_c, 9, 51, 0
2, 6958, Note_on_c, 9, 36, 69
2, 6967, Control_c, 9, 4, 34
2, 6971, Note_on_c, 9, 44, 127
2, 6997, Control_c, 9, 4, 127
2, 7040, Note_on_c, 9, 36, 0
2, 7043, Control_c, 9, 4, 95
2, 7053, Note_on_c, 9, 44, 0
2, 7076, Control_c, 9, 4, 84
2, 7200, Note_on_c, 9, 36, 86
2, 7207, Control_c, 9, 17, 8
2, 7208, Note_on_c, 9, 51, 83
2, 7211, Control_c, 9, 16, 0
2, 7211, Note_on_c, 9, 38, 70
2, 7215, Control_c, 9, 4, 112
2, 7268, Control_c, 9, 4, 94
2, 7282, Note_on_c, 9, 36, 0
2, 7290, Note_on_c, 9, 51, 0
2, 7293, Note_on_c, 9, 38, 0
2, 7301, Control_c, 9, 4, 82
2, 7333, Control_c, 9, 4, 70
2, 7370, Control_c, 9, 4, 0
2, 7441, Control_c, 9, 4, 35
2, 7446, Note_on_c, 9, 44, 127
2, 7450, Control_c, 9, 17, 44
2, 7451, Note_on_c, 9, 51, 63
2, 7472, Control_c, 9, 4, 116
2, 7523, Control_c, 9, 4, 95
2, 7529, Note_on_c, 9, 44, 0
2, 7533, Note_on_c, 9, 51, 0
2, 7562, Control_c, 9, 4, 84
2, 7569, Control_c, 9, 18, 0
2, 7569, Note_on_c, 9, 48, 48
2, 7574, Note_on_c, 9, 36, 65
2, 7639, Control_c, 9, 17, 58
2, 7651, Note_on_c, 9, 48, 0
2, 7656, Note_on_c, 9, 36, 0
2, 7657, End_track
0, 0, End_of_file
