0, 0, Header, 1, 2, 480
1, 0, Start_track
1, 0, Tempo, 588235
1, 0, Time_signature, 4, 2, 24, 8
1, 0, Key_signature, 0, "major"
1, 1, End_track
2, 0, Start_track
2, 0, Title_t, "Classic Studio Kit"
2, 0, Program_c, 9, 0
2, 0, Control_c, 9, 18, 0
2, 11, Control_c, 9, 4, 98
2, 29, Control_c, 9, 17, 11
2, 30, Note_on_c, 9, 51, 80
2, 38, Note_on_c, 9, 48, 70
2, 81, Control_c, 9, 4, 102
2, 111, Note_on_c, 9, 51, 0
2, 119, Note_on_c, 9, 48, 0
2, 145, Control_c, 9, 4, 90
2, 153, Control_c, 9, 17, 34
2, 154, Note_on_c, 9, 51, 71
2, 181, Control_c, 9, 4, 70
2, 219, Control_c, 9, 4, 0
2, 236, Note_on_c, 9, 51, 0
2, 259, Control_c, 9, 4, 49
2, 264, Note_on_c, 9, 44, 106
2, 270, Note_on_c, 9, 36, 68
2, 290, Control_c, 9, 4, 127
2, 322, Control_c, 9, 4, 100
2, 345, Note_on_c, 9, 44, 0
2, 353, Note_on_c, 9, 36, 0
2, 361, Control_c, 9, 4, 87
2, 492, Control_c, 9, 4, 97
2, 513, Note_on_c, 9, 38, 63
2, 517, Note_on_c, 9, 36, 74
2, 518, Control_c, 9, 17, 0
2, 518, Note_on_c, 9, 51, 94
2, 595, Note_on_c, 9, 38, 0
2, 599, Note_on_c, 9, 36, 0
2, 599, Note_on_c, 9, 51, 0
2, 606, Control_c, 9, 4, 91
2, 639, Control_c, 9, 4, 71
2, 676, Control_c, 9, 4, 0
2, 737, Control_c, 9, 4, 33
2, 743, Note_on_c, 9, 44, 127
2, 758, Control_c, 9, 17, 8
2, 758, Note_on_c, 9, 51, 76
2, 768, Control_c, 9, 4, 127
2, 805, Control_c, 9, 4, 102
2, 824, Note_on_c, 9, 44, 0
2, 840, Control_c, 9, 4, 90
2, 840, Note_on_c, 9, 51, 0
2, 877, Control_c, 9, 18, 0
2, 877, Note_on_c, 9, 48, 46
2, 882, Note_on_c, 9, 36, 78
2, 959, Note_on_c, 9, 48, 0
2, 965, Note_on_c, 9, 36, 0
2, 987, Control_c, 9, 4, 110
2, 996, Control_c, 9, 17, 33
2, 996, Note_on_c, 9, 51, 65
2, 1000, Note_on_c, 9, 48, 72
2, 1067, Control_c, 9, 4, 97
2, 1077, Note_on_c, 9, 51, 0
2, 1080, Note_on_c, 9, 48, 0
2, 1108, Control_c, 9, 4, 71
2, 1121, Control_c, 9, 17, 8
2, 1121, Note_on_c, 9, 51, 62
2, 1147, Control_c, 9, 4, 0
2, 1204, Note_on_c, 9, 51, 0
2, 1219, Note_on_c, 9, 46, 11
2, 1227, Control_c, 9, 4, 33
2, 1231, Note_on_c, 9, 36, 71
2, 1233, Note_on_c, 9, 44, 127
2, 1258, Control_c, 9, 4, 127
2, 1301, Note_on_c, 9, 46, 0
2, 1308, Control_c, 9, 4, 98
2, 1313, Note_on_c, 9, 36, 0
2, 1314, Note_on_c, 9, 44, 0
2, 1347, Control_c, 9, 4, 69
2, 1379, Control_c, 9, 4, 0
2, 1403, Control_c, 9, 17, 84
2, 1404, Note_on_c, 9, 51, 46
2, 1446, Note_on_c, 9, 46, 7
2, 1456, Control_c, 9, 4, 34
2, 1462, Note_on_c, 9, 44, 127
2, 1467, Control_c, 9, 16, 0
2, 1467, Note_on_c, 9, 38, 63
2, 1477, Note_on_c, 9, 36, 91
2, 1485, Note_on_c, 9, 51, 0
2, 1487, Control_c, 9, 4, 118
2, 1528, Note_on_c, 9, 46, 0
2, 1529, Control_c, 9, 4, 97
2, 1543, Note_on_c, 9, 44, 0
2, 1549, Note_on_c, 9, 38, 0
2, 1560, Note_on_c, 9, 36, 0
2, 1571, Control_c, 9, 4, 85
2, 1712, Control_c, 9, 4, 120
2, 1720, Control_c, 9, 17, 41
2, 1720, Note_on_c, 9, 51, 84
2, 1789, Control_c, 9, 4, 91
2, 1803, Note_on_c, 9, 51, 0
2, 1825, Control_c, 9, 4, 70
2, 1825, Note_on_c, 9, 36, 62
2, 1833, Control_c, 9, 18, 0
2, 1834, Note_on_c, 9, 48, 41
2, 1859, Control_c, 9, 4, 0
2, 1907, Note_on_c, 9, 36, 0
2, 1915, Note_on_c, 9, 48, 0
2, 1931, Note_on_c, 9, 46, 7
2, 1945, Note_on_c, 9, 44, 127
2, 1950, Control_c, 9, 4, 127
2, 1958, Note_on_c, 9, 48, 75
2, 1960, Control_c, 9, 17, 50
2, 1960, Note_on_c, 9, 51, 61
2, 1993, Control_c, 9, 4, 110
2, 2012, Note_on_c, 9, 46, 0
2, 2026, Note_on_c, 9, 44, 0
2, 2031, Control_c, 9, 4, 92
2, 2040, Note_on_c, 9, 48, 0
2, 2042, Note_on_c, 9, 51, 0
2, 2081, Control_c, 9, 17, 20
2, 2082, Note_on_c, 9, 51, 65
2, 2162, Note_on_c, 9, 51, 0
2, 2171, Control_c, 9, 4, 108
2, 2186, Note_on_c, 9, 36, 62
2, 2208, Control_c, 9, 4, 94
2, 2268, Note_on_c, 9, 36, 0
2, 2429, Note_on_c, 9, 36, 78
2, 2433, Note_on_c, 9, 38, 83
2, 2434, Control_c, 9, 17, 4
2, 2434, Note_on_c, 9, 51, 92
2, 2469, Control_c, 9, 4, 106
2, 2512, Note_on_c, 9, 36, 0
2, 2514, Note_on_c, 9, 38, 0
2, 2516, Note_on_c, 9, 51, 0
2, 2517, Control_c, 9, 4, 91
2, 2550, Control_c, 9, 4, 72
2, 2590, Control_c, 9, 4, 0
2, 2653, Note_on_c, 9, 46, 11
2, 2666, Note_on_c, 9, 44, 127
2, 2672, Control_c, 9, 4, 127
2, 2681, Control_c, 9, 17, 29
2, 2681, Note_on_c, 9, 51, 75
2, 2716, Control_c, 9, 4, 116
2, 2734, Note_on_c, 9, 46, 0
2, 2748, Note_on_c, 9, 44, 0
2, 2756, Control_c, 9, 4, 92
2, 2762, Note_on_c, 9, 51, 0
2, 2800, Control_c, 9, 18, 0
2, 2800, Note_on_c, 9, 48, 45
2, 2806, Note_on_c, 9, 36, 62
2, 2810, Control_c, 9, 4, 88
2, 2882, Note_on_c, 9, 48, 0
2, 2889, Note_on_c, 9, 36, 0
2, 2912, Control_c, 9, 4, 118
2, 2920, Control_c, 9, 17, 92
2, 2920, Note_on_c, 9, 51, 57
2, 2923, Note_on_c, 9, 48, 65
2, 2999, Control_c, 9, 4, 98
2, 3001, Note_on_c, 9, 51, 0
2, 3004, Note_on_c, 9, 48, 0
2, 3044, Control_c, 9, 4, 70
2, 3050, Control_c, 9, 17, 55
2, 3050, Note_on_c, 9, 51, 63
2, 3079, Control_c, 9, 4, 0
2, 3133, Note_on_c, 9, 51, 0
2, 3147, Note_on_c, 9, 46, 14
2, 3152, Control_c, 9, 4, 17
2, 3154, Note_on_c, 9, 36, 68
2, 3159, Note_on_c, 9, 44, 127
2, 3184, Control_c, 9, 4, 120
2, 3228, Note_on_c, 9, 46, 0
2, 3236, Note_on_c, 9, 36, 0
2, 3238, Control_c, 9, 4, 98
2, 3240, Note_on_c, 9, 44, 0
2, 3280, Control_c, 9, 4, 84
2, 3283, Control_c, 9, 17, 17
2, 3284, Note_on_c, 9, 51, 63
2, 3364, Note_on_c, 9, 51, 0
2, 3394, Note_on_c, 9, 36, 77
2, 3399, Control_c, 9, 16, 0
2, 3399, Note_on_c, 9, 38, 62
2, 3412, Control_c, 9, 4, 114
2, 3448, Control_c, 9, 4, 106
2, 3475, Note_on_c, 9, 36, 0
2, 3480, Note_on_c, 9, 38, 0
2, 3487, Control_c, 9, 4, 90
2, 3526, Control_c, 9, 4, 72
2, 3569, Control_c, 9, 4, 0
2, 3636, Control_c, 9, 4, 33
2, 3639, Control_c, 9, 17, 39
2, 3640, Note_on_c, 9, 51, 85
2, 3643, Note_on_c, 9, 44, 127
2, 3667, Control_c, 9, 4, 122
2, 3720, Control_c, 9, 4, 98
2, 3722, Note_on_c, 9, 51, 0
2, 3724, Note_on_c, 9, 44, 0
2, 3762, Note_on_c, 9, 36, 61
2, 3764, Control_c, 9, 4, 85
2, 3770, Control_c, 9, 18, 0
2, 3770, Note_on_c, 9, 48, 43
2, 3844, Note_on_c, 9, 36, 0
2, 3853, Note_on_c, 9, 48, 0
2, 3884, Control_c, 9, 17, 66
2, 3884, Note_on_c, 9, 51, 58
2, 3888, Control_c, 9, 4, 120
2, 3889, Note_on_c, 9, 48, 66
2, 3941, Control_c, 9, 4, 112
2, 3965, Note_on_c, 9, 51, 0
2, 3971, Note_on_c, 9, 48, 0
2, 3972, Control_c, 9, 4, 92
2, 4014, Control_c, 9, 17, 46
2, 4014, Note_on_c, 9, 51, 71
2, 4016, Control_c, 9, 4, 72
2, 4053, Control_c, 9, 4, 0
2, 4096, Note_on_c, 9, 51, 0
2, 4115, Control_c, 9, 4, 33
2, 4117, Note_on_c, 9, 36, 61
2, 4121, Note_on_c, 9, 44, 127
2, 4146, Control_c, 9, 4, 120
2, 4199, Note_on_c, 9, 36, 0
2, 4203, Note_on_c, 9, 44, 0
2, 4206, Control_c, 9, 4, 91
2, 4352, Note_on_c, 9, 38, 98
2, 4354, Note_on_c, 9, 36, 74
2, 4357, Control_c, 9, 17, 19
2, 4358, Control_c, 9, 4, 97
2, 4358, Note_on_c, 9, 51, 85
2, 4433, Note_on_c, 9, 38, 0
2, 4436, Note_on_c, 9, 36, 0
2, 4439, Note_on_c, 9, 51, 0
2, 4454, Control_c, 9, 4, 90
2, 4502, Control_c, 9, 4, 69
2, 4534, Control_c, 9, 4, 0
2, 4594, Control_c, 9, 4, 34
2, 4600, Note_on_c, 9, 44, 127
2, 4604, Control_c, 9, 17, 51
2, 4604, Note_on_c, 9, 51, 67
2, 4626, Control_c, 9, 4, 122
2, 4658, Control_c, 9, 4, 112
2, 4682, Note_on_c, 9, 44, 0
2, 4686, Note_on_c, 9, 51, 0
2, 4689, Control_c, 9, 4, 92
2, 4718, Control_c, 9, 18, 0
2, 4718, Note_on_c, 9, 48, 45
2, 4723, Control_c, 9, 4, 88
2, 4725, Note_on_c, 9, 36, 52
2, 4800, Note_on_c, 9, 48, 0
2, 4808, Note_on_c, 9, 36, 0
2, 4833, Control_c, 9, 17, 93
2, 4834, Note_on_c, 9, 51, 52
2, 4844, Note_on_c, 9, 48, 69
2, 4849, Control_c, 9, 4, 120
2, 4912, Control_c, 9, 4, 97
2, 4915, Note_on_c, 9, 51, 0
2, 4925, Note_on_c, 9, 48, 0
2, 4951, Control_c, 9, 17, 45
2, 4952, Control_c, 9, 4, 71
2, 4952, Note_on_c, 9, 51, 72
2, 4995, Control_c, 9, 4, 0
2, 5034, Note_on_c, 9, 51, 0
2, 5070, Note_on_c, 9, 46, 17
2, 5075, Control_c, 9, 4, 34
2, 5077, Note_on_c, 9, 36, 65
2, 5080, Note_on_c, 9, 44, 127
2, 5106, Control_c, 9, 4, 127
2, 5124, Note_on_c, 9, 49, 7
2, 5151, Note_on_c, 9, 46, 0
2, 5159, Control_c, 9, 4, 98
2, 5159, Note_on_c, 9, 36, 0
2, 5162, Note_on_c, 9, 44, 0
2, 5185, Control_c, 9, 17, 28
2, 5185, Note_on_c, 9, 51, 64
2, 5195, Control_c, 9, 4, 70
2, 5205, Note_on_c, 9, 49, 0
2, 5227, Control_c, 9, 4, 0
2, 5266, Note_on_c, 9, 51, 0
2, 5302, Note_on_c, 9, 46, 6
2, 5309, Control_c, 9, 4, 33
2, 5315, Note_on_c, 9, 44, 127
2, 5316, Note_on_c, 9, 36, 81
2, 5322, Control_c, 9, 16, 0
2, 5323, Note_on_c, 9, 38, 59
2, 5341, Control_c, 9, 4, 110
2, 5383, Note_on_c, 9, 46, 0
2, 5388, Control_c, 9, 4, 97
2, 5397, Note_on_c, 9, 44, 0
2, 5398, Note_on_c, 9, 36, 0
2, 5404, Note_on_c, 9, 38, 0
2, 5419, Control_c, 9, 4, 83
2, 5553, Control_c, 9, 17, 43
2, 5553, Note_on_c, 9, 51, 77
2, 5554, Control_c, 9, 4, 120
2, 5625, Control_c, 9, 4, 97
2, 5635, Note_on_c, 9, 51, 0
2, 5668, Control_c, 9, 4, 70
2, 5670, Note_on_c, 9, 36, 55
2, 5675, Control_c, 9, 18, 0
2, 5676, Note_on_c, 9, 48, 44
2, 5706, Control_c, 9, 4, 0
2, 5753, Note_on_c, 9, 36, 0
2, 5757, Note_on_c, 9, 48, 0
2, 5781, Note_on_c, 9, 46, 15
2, 5792, Note_on_c, 9, 44, 127
2, 5794, Control_c, 9, 17, 88
2, 5795, Note_on_c, 9, 51, 60
2, 5798, Control_c, 9, 4, 127
2, 5801, Note_on_c, 9, 48, 66
2, 5847, Control_c, 9, 4, 118
2, 5862, Note_on_c, 9, 46, 0
2, 5874, Note_on_c, 9, 44, 0
2, 5877, Note_on_c, 9, 51, 0
2, 5882, Note_on_c, 9, 48, 0
2, 5886, Control_c, 9, 4, 91
2, 5907, Control_c, 9, 17, 41
2, 5907, Note_on_c, 9, 51, 63
2, 5990, Note_on_c, 9, 51, 0
2, 6015, Control_c, 9, 4, 112
2, 6025, Control_c, 9, 17, 41
2, 6025, Note_on_c, 9, 36, 67
2, 6025, Note_on_c, 9, 51, 4
2, 6048, Control_c, 9, 4, 102
2, 6082, Control_c, 9, 4, 92
2, 6106, Note_on_c, 9, 51, 0
2, 6107, Note_on_c, 9, 36, 0
2, 6264, Note_on_c, 9, 36, 78
2, 6266, Control_c, 9, 17, 36
2, 6266, Note_on_c, 9, 51, 75
2, 6269, Note_on_c, 9, 38, 68
2, 6288, Control_c, 9, 4, 98
2, 6346, Note_on_c, 9, 36, 0
2, 6348, Note_on_c, 9, 51, 0
2, 6349, Note_on_c, 9, 38, 0
2, 6355, Control_c, 9, 4, 91
2, 6399, Control_c, 9, 4, 69
2, 6432, Control_c, 9, 4, 0
2, 6502, Control_c, 9, 4, 34
2, 6508, Note_on_c, 9, 44, 127
2, 6522, Control_c, 9, 17, 60
2, 6522, Note_on_c, 9, 51, 63
2, 6533, Control_c, 9, 4, 122
2, 6566, Control_c, 9, 4, 112
2, 6589, Note_on_c, 9, 44, 0
2, 6600, Control_c, 9, 4, 93
2, 6604, Note_on_c, 9, 51, 0
2, 6633, Control_c, 9, 18, 0
2, 6634, Control_c, 9, 4, 89
2, 6634, Note_on_c, 9, 48, 44
2, 6645, Note_on_c, 9, 36, 55
2, 6715, Note_on_c, 9, 48, 0
2, 6728, Note_on_c, 9, 36, 0
2, 6753, Control_c, 9, 17, 101
2, 6754, Note_on_c, 9, 51, 62
2, 6759, Note_on_c, 9, 48, 67
2, 6765, Control_c, 9, 4, 118
2, 6837, Note_on_c, 9, 51, 0
2, 6841, Note_on_c, 9, 48, 0
2, 6851, Control_c, 9, 4, 91
2, 6882, Control_c, 9, 4, 72
2, 6886, Control_c, 9, 17, 58
2, 6887, Note_on_c, 9, 51, 63
2, 6917, Control_c, 9, 4, 0
2, 6969, Note_on_c, 9, 51, 0
2, 6989, Note_on_c, 9, 36, 69
2, 6989, Note_on_c, 9, 46, 18
2, 6996, Control_c, 9, 4, 35
2, 7001, Note_on_c, 9, 44, 127
2, 7002, Control_c, 9, 17, 58
2, 7002, Note_on_c, 9, 51, 5
2, 7026, Control_c, 9, 4, 127
2, 7070, Note_on_c, 9, 46, 0
2, 7072, Note_on_c, 9, 36, 0
2, 7076, Control_c, 9, 4, 98
2, 7082, Note_on_c, 9, 44, 0
2, 7083, Note_on_c, 9, 51, 0
2, 7110, Control_c, 9, 4, 86
2, 7125, Control_c, 9, 17, 56
2, 7126, Note_on_c, 9, 51, 59
2, 7206, Note_on_c, 9, 51, 0
2, 7219, Control_c, 9, 4, 96
2, 7223, Note_on_c, 9, 36, 89
2, 7247, Control_c, 9, 16, 0
2, 7247, Note_on_c, 9, 38, 63
2, 7255, Control_c, 9, 4, 112
2, 7295, Control_c, 9, 4, 99
2, 7305, Note_on_c, 9, 36, 0
2, 7330, Note_on_c, 9, 38, 0
2, 7338, Control_c, 9, 4, 85
2, 7373, Control_c, 9, 4, 70
2, 7410, Control_c, 9, 4, 0
2, 7472, Control_c, 9, 4, 34
2, 7474, Control_c, 9, 17, 50
2, 7475, Note_on_c, 9, 51, 74
2, 7478, Note_on_c, 9, 44, 127
2, 7503, Control_c, 9, 4, 120
2, 7543, Control_c, 9, 4, 98
2, 7556, Note_on_c, 9, 51, 0
2, 7560, Note_on_c, 9, 44, 0
2, 7580, Control_c, 9, 4, 85
2, 7596, Note_on_c, 9, 36, 58
2, 7600, Control_c, 9, 18, 0
2, 7677, Note_on_c, 9, 36, 0
2, 7678, End_track
0, 0, End_of_file
