0, 0, Header, 1, 2, 480
1, 0, Start_track
1, 0, Tempo, 545454
1, 0, Time_signature, 4, 2, 24, 8
1, 0, Key_signature, 0, "major"
1, 1, End_track
2, 0, Start_track
2, 0, Title_t, "TD-30 #9 Djembe"
2, 0, Program_c, 9, 0
2, 0, Control_c, 9, 16, 126
2, 91, Control_c, 9, 4, 77
2, 119, Note_on_c, 9, 57, 70
2, 127, Control_c, 9, 4, 55
2, 160, Control_c, 9, 4, 0
2, 208, Note_on_c, 9, 57, 0
2, 212, Control_c, 9, 4, 49
2, 218, Note_on_c, 9, 44, 93
2, 242, Control_c, 9, 4, 100
2, 265, Note_on_c, 9, 49, 9
2, 272, Control_c, 9, 4, 100
2, 307, Note_on_c, 9, 44, 0
2, 318, Control_c, 9, 4, 89
2, 354, Note_on_c, 9, 49, 0
2, 371, Note_on_c, 9, 48, 51
2, 458, Note_on_c, 9, 48, 0
2, 481, Note_on_c, 9, 36, 89
2, 498, Control_c, 9, 4, 94
2, 505, Note_on_c, 9, 57, 101
2, 545, Control_c, 9, 4, 89
2, 570, Note_on_c, 9, 36, 0
2, 583, Control_c, 9, 4, 76
2, 593, Note_on_c, 9, 57, 0
2, 620, Control_c, 9, 4, 56
2, 661, Control_c, 9, 4, 0
2, 699, Control_c, 9, 4, 64
2, 703, Note_on_c, 9, 44, 80
2, 722, Note_on_c, 9, 57, 95
2, 730, Control_c, 9, 4, 106
2, 777, Control_c, 9, 4, 92
2, 791, Note_on_c, 9, 44, 0
2, 809, Control_c, 9, 4, 86
2, 811, Note_on_c, 9, 57, 0
2, 906, Control_c, 9, 4, 90
2, 950, Note_on_c, 9, 57, 91
2, 962, Control_c, 9, 16, 0
2, 962, Note_on_c, 9, 40, 73
2, 1039, Note_on_c, 9, 57, 0
2, 1050, Note_on_c, 9, 40, 0
2, 1054, Control_c, 9, 4, 76
2, 1089, Control_c, 9, 4, 55
2, 1124, Control_c, 9, 4, 0
2, 1169, Control_c, 9, 4, 50
2, 1174, Note_on_c, 9, 44, 87
2, 1180, Note_on_c, 9, 57, 100
2, 1201, Control_c, 9, 4, 110
2, 1249, Control_c, 9, 4, 91
2, 1263, Note_on_c, 9, 44, 0
2, 1268, Note_on_c, 9, 57, 0
2, 1293, Control_c, 9, 4, 87
2, 1310, Note_on_c, 9, 48, 40
2, 1331, Note_on_c, 9, 57, 96
2, 1362, Control_c, 9, 4, 91
2, 1398, Note_on_c, 9, 48, 0
2, 1419, Note_on_c, 9, 57, 0
2, 1423, Control_c, 9, 18, 0
2, 1424, Note_on_c, 9, 48, 59
2, 1441, Note_on_c, 9, 36, 77
2, 1512, Note_on_c, 9, 48, 0
2, 1522, Control_c, 9, 4, 78
2, 1530, Note_on_c, 9, 36, 0
2, 1562, Control_c, 9, 4, 56
2, 1596, Control_c, 9, 4, 0
2, 1653, Note_on_c, 9, 44, 100
2, 1661, Note_on_c, 9, 57, 122
2, 1662, Control_c, 9, 4, 108
2, 1706, Control_c, 9, 4, 102
2, 1738, Control_c, 9, 4, 90
2, 1741, Note_on_c, 9, 44, 0
2, 1749, Note_on_c, 9, 57, 0
2, 1771, Control_c, 9, 4, 84
2, 1844, Control_c, 9, 4, 90
2, 1891, Note_on_c, 9, 57, 93
2, 1903, Control_c, 9, 16, 126
2, 1904, Note_on_c, 9, 40, 62
2, 1980, Note_on_c, 9, 57, 0
2, 1983, Control_c, 9, 4, 76
2, 1992, Note_on_c, 9, 40, 0
2, 2015, Note_on_c, 9, 57, 105
2, 2023, Control_c, 9, 4, 56
2, 2062, Control_c, 9, 4, 0
2, 2101, Control_c, 9, 4, 49
2, 2104, Note_on_c, 9, 57, 0
2, 2107, Note_on_c, 9, 44, 87
2, 2134, Control_c, 9, 4, 110
2, 2168, Note_on_c, 9, 57, 99
2, 2188, Control_c, 9, 4, 92
2, 2195, Note_on_c, 9, 44, 0
2, 2229, Control_c, 9, 4, 88
2, 2254, Control_c, 9, 18, 21
2, 2255, Note_on_c, 9, 48, 40
2, 2256, Note_on_c, 9, 57, 0
2, 2294, Control_c, 9, 4, 93
2, 2343, Note_on_c, 9, 48, 0
2, 2344, Control_c, 9, 18, 0
2, 2344, Note_on_c, 9, 48, 45
2, 2392, Note_on_c, 9, 36, 88
2, 2433, Note_on_c, 9, 48, 0
2, 2464, Control_c, 9, 4, 79
2, 2481, Note_on_c, 9, 36, 0
2, 2506, Control_c, 9, 4, 55
2, 2544, Control_c, 9, 4, 0
2, 2583, Note_on_c, 9, 57, 106
2, 2584, Control_c, 9, 4, 64
2, 2586, Note_on_c, 9, 44, 80
2, 2614, Control_c, 9, 4, 108
2, 2660, Control_c, 9, 4, 91
2, 2672, Note_on_c, 9, 57, 0
2, 2674, Note_on_c, 9, 44, 0
2, 2700, Control_c, 9, 4, 85
2, 2777, Control_c, 9, 4, 91
2, 2847, Note_on_c, 9, 57, 97
2, 2850, Control_c, 9, 16, 0
2, 2851, Note_on_c, 9, 40, 63
2, 2931, Control_c, 9, 4, 77
2, 2937, Note_on_c, 9, 57, 0
2, 2939, Note_on_c, 9, 40, 0
2, 2970, Control_c, 9, 4, 55
2, 3002, Control_c, 9, 4, 0
2, 3051, Control_c, 9, 4, 66
2, 3055, Note_on_c, 9, 44, 87
2, 3082, Control_c, 9, 4, 110
2, 3092, Note_on_c, 9, 57, 110
2, 3131, Control_c, 9, 4, 91
2, 3143, Note_on_c, 9, 44, 0
2, 3181, Note_on_c, 9, 57, 0
2, 3199, Note_on_c, 9, 50, 50
2, 3286, Note_on_c, 9, 50, 0
2, 3318, Note_on_c, 9, 48, 57
2, 3326, Note_on_c, 9, 36, 74
2, 3405, Note_on_c, 9, 48, 0
2, 3415, Note_on_c, 9, 36, 0
2, 3425, Control_c, 9, 4, 77
2, 3464, Control_c, 9, 4, 56
2, 3499, Control_c, 9, 4, 12
2, 3537, Control_c, 9, 4, 55
2, 3543, Note_on_c, 9, 44, 67
2, 3571, Control_c, 9, 4, 108
2, 3588, Note_on_c, 9, 57, 60
2, 3617, Control_c, 9, 4, 92
2, 3631, Note_on_c, 9, 44, 0
2, 3677, Note_on_c, 9, 57, 0
2, 3684, Control_c, 9, 4, 83
2, 3736, Control_c, 9, 4, 89
2, 3844, Control_c, 9, 16, 126
2, 3845, Note_on_c, 9, 40, 64
2, 3853, Note_on_c, 9, 57, 98
2, 3933, Note_on_c, 9, 40, 0
2, 3938, Control_c, 9, 4, 75
2, 3942, Note_on_c, 9, 57, 0
2, 3974, Control_c, 9, 4, 56
2, 3976, Note_on_c, 9, 57, 81
2, 4009, Control_c, 9, 4, 16
2, 4044, Control_c, 9, 4, 64
2, 4048, Note_on_c, 9, 44, 61
2, 4065, Note_on_c, 9, 57, 0
2, 4076, Control_c, 9, 4, 102
2, 4128, Control_c, 9, 4, 91
2, 4137, Note_on_c, 9, 44, 0
2, 4181, Control_c, 9, 4, 87
2, 4209, Note_on_c, 9, 48, 45
2, 4238, Control_c, 9, 4, 91
2, 4297, Note_on_c, 9, 48, 0
2, 4321, Note_on_c, 9, 36, 64
2, 4330, Note_on_c, 9, 57, 116
2, 4410, Note_on_c, 9, 36, 0
2, 4418, Note_on_c, 9, 57, 0
2, 4426, Control_c, 9, 4, 78
2, 4465, Control_c, 9, 4, 56
2, 4503, Control_c, 9, 4, 20
2, 4533, Control_c, 9, 4, 69
2, 4537, Note_on_c, 9, 46, 36
2, 4538, Note_on_c, 9, 44, 54
2, 4563, Note_on_c, 9, 57, 85
2, 4564, Control_c, 9, 4, 100
2, 4619, Control_c, 9, 4, 90
2, 4625, Note_on_c, 9, 44, 0
2, 4625, Note_on_c, 9, 46, 0
2, 4650, Note_on_c, 9, 57, 0
2, 4655, Control_c, 9, 4, 84
2, 4725, Control_c, 9, 4, 90
2, 4816, Note_on_c, 9, 57, 96
2, 4825, Control_c, 9, 16, 0
2, 4826, Note_on_c, 9, 40, 72
2, 4890, Control_c, 9, 4, 77
2, 4904, Note_on_c, 9, 57, 0
2, 4914, Note_on_c, 9, 40, 0
2, 4932, Control_c, 9, 4, 56
2, 4969, Control_c, 9, 4, 0
2, 5010, Control_c, 9, 4, 66
2, 5014, Note_on_c, 9, 44, 80
2, 5041, Control_c, 9, 4, 104
2, 5044, Note_on_c, 9, 57, 92
2, 5090, Control_c, 9, 4, 90
2, 5102, Note_on_c, 9, 44, 0
2, 5133, Control_c, 9, 4, 85
2, 5134, Note_on_c, 9, 57, 0
2, 5173, Control_c, 9, 18, 0
2, 5174, Note_on_c, 9, 48, 37
2, 5192, Control_c, 9, 4, 90
2, 5262, Note_on_c, 9, 48, 0
2, 5281, Note_on_c, 9, 48, 52
2, 5287, Note_on_c, 9, 36, 63
2, 5369, Note_on_c, 9, 48, 0
2, 5375, Note_on_c, 9, 36, 0
2, 5383, Control_c, 9, 4, 76
2, 5421, Control_c, 9, 4, 57
2, 5455, Control_c, 9, 4, 13
2, 5495, Control_c, 9, 4, 54
2, 5501, Note_on_c, 9, 44, 74
2, 5528, Control_c, 9, 4, 102
2, 5532, Note_on_c, 9, 57, 91
2, 5580, Control_c, 9, 4, 91
2, 5589, Note_on_c, 9, 44, 0
2, 5613, Control_c, 9, 4, 85
2, 5621, Note_on_c, 9, 57, 0
2, 5697, Control_c, 9, 4, 90
2, 5763, Note_on_c, 9, 57, 82
2, 5780, Control_c, 9, 16, 127
2, 5780, Note_on_c, 9, 40, 65
2, 5851, Note_on_c, 9, 57, 0
2, 5858, Control_c, 9, 4, 76
2, 5869, Note_on_c, 9, 40, 0
2, 5900, Control_c, 9, 4, 57
2, 5901, Note_on_c, 9, 57, 57
2, 5939, Control_c, 9, 4, 21
2, 5971, Control_c, 9, 4, 69
2, 5974, Note_on_c, 9, 44, 54
2, 5975, Note_on_c, 9, 46, 54
2, 5990, Note_on_c, 9, 57, 0
2, 6002, Control_c, 9, 4, 99
2, 6063, Note_on_c, 9, 44, 0
2, 6063, Note_on_c, 9, 46, 0
2, 6068, Control_c, 9, 4, 90
2, 6103, Control_c, 9, 4, 85
2, 6137, Control_c, 9, 16, 85
2, 6138, Note_on_c, 9, 38, 31
2, 6159, Control_c, 9, 4, 90
2, 6226, Note_on_c, 9, 38, 0
2, 6242, Note_on_c, 9, 36, 53
2, 6250, Note_on_c, 9, 57, 108
2, 6319, Control_c, 9, 4, 83
2, 6331, Note_on_c, 9, 36, 0
2, 6338, Note_on_c, 9, 57, 0
2, 6360, Control_c, 9, 4, 70
2, 6416, Control_c, 9, 4, 40
2, 6449, Control_c, 9, 4, 72
2, 6453, Note_on_c, 9, 46, 31
2, 6455, Note_on_c, 9, 44, 35
2, 6480, Control_c, 9, 4, 97
2, 6510, Note_on_c, 9, 57, 61
2, 6524, Control_c, 9, 4, 91
2, 6542, Note_on_c, 9, 44, 0
2, 6542, Note_on_c, 9, 46, 0
2, 6559, Control_c, 9, 4, 85
2, 6599, Note_on_c, 9, 57, 0
2, 6648, Control_c, 9, 4, 89
2, 6745, Control_c, 9, 16, 0
2, 6746, Note_on_c, 9, 40, 69
2, 6746, Note_on_c, 9, 57, 83
2, 6772, Control_c, 9, 4, 83
2, 6790, Control_c, 9, 16, 0
2, 6790, Note_on_c, 9, 40, 0
2, 6791, Note_on_c, 9, 40, 19
2, 6815, Control_c, 9, 4, 70
2, 6834, Note_on_c, 9, 40, 0
2, 6834, Note_on_c, 9, 57, 0
2, 6851, Control_c, 9, 4, 45
2, 6886, Control_c, 9, 4, 6
2, 6922, Control_c, 9, 4, 71
2, 6925, Note_on_c, 9, 44, 67
2, 6927, Note_on_c, 9, 46, 54
2, 6952, Control_c, 9, 4, 97
2, 7013, Note_on_c, 9, 44, 0
2, 7014, Control_c, 9, 4, 87
2, 7014, Note_on_c, 9, 46, 0
2, 7049, Control_c, 9, 4, 83
2, 7114, Control_c, 9, 4, 88
2, 7139, Control_c, 9, 16, 42
2, 7139, Note_on_c, 9, 38, 10
2, 7203, Note_on_c, 9, 36, 89
2, 7221, Note_on_c, 9, 57, 93
2, 7228, Note_on_c, 9, 38, 0
2, 7292, Note_on_c, 9, 36, 0
2, 7310, Control_c, 9, 4, 75
2, 7310, Note_on_c, 9, 57, 0
2, 7349, Control_c, 9, 4, 57
2, 7391, Control_c, 9, 4, 0
2, 7433, Control_c, 9, 4, 64
2, 7437, Note_on_c, 9, 44, 74
2, 7449, Note_on_c, 9, 57, 47
2, 7465, Control_c, 9, 4, 99
2, 7509, Control_c, 9, 4, 93
2, 7525, Note_on_c, 9, 44, 0
2, 7537, Note_on_c, 9, 57, 0
2, 7566, Control_c, 9, 4, 84
2, 7633, Control_c, 9, 4, 90
2, 7634, End_track
0, 0, End_of_file
