0, 0, Header, 1, 2, 480
1, 0, Start_track
1, 0, Tempo, 588235
1, 0, Time_signature, 4, 2, 24, 8
1, 0, Key_signature, 0, "major"
1, 1, End_track
2, 0, Start_track
2, 0, Title_t, "Classic Studio Kit"
2, 0, Program_c, 9, 0
2, 0, Control_c, 9, 17, 39
2, 2, Control_c, 9, 4, 116
2, 5, Note_on_c, 9, 44, 127
2, 12, Control_c, 9, 4, 127
2, 13, Control_c, 9, 18, 0
2, 14, Note_on_c, 9, 48, 71
2, 22, Note_on_c, 9, 48, 71
2, 55, Control_c, 9, 4, 120
2, 85, Control_c, 9, 4, 91
2, 87, Note_on_c, 9, 44, 0
2, 92, Control_c, 9, 4, 91
2, 95, Note_on_c, 9, 48, 0
2, 95, Note_on_c, 9, 48, 0
2, 117, Control_c, 9, 4, 73
2, 118, Control_c, 9, 17, 16
2, 119, Note_on_c, 9, 51, 70
2, 122, Control_c, 9, 17, 9
2, 123, Note_on_c, 9, 51, 69
2, 159, Control_c, 9, 4, 0
2, 200, Note_on_c, 9, 51, 0
2, 200, Note_on_c, 9, 51, 0
2, 227, Control_c, 9, 4, 34
2, 227, Control_c, 9, 4, 104
2, 232, Note_on_c, 9, 44, 127
2, 241, Note_on_c, 9, 36, 67
2, 248, Note_on_c, 9, 36, 62
2, 257, Control_c, 9, 4, 100
2, 259, Control_c, 9, 4, 126
2, 307, Control_c, 9, 4, 91
2, 308, Control_c, 9, 4, 92
2, 314, Note_on_c, 9, 44, 0
2, 323, Note_on_c, 9, 36, 0
2, 323, Note_on_c, 9, 36, 0
2, 339, Control_c, 9, 4, 87
2, 483, Control_c, 9, 17, 0
2, 484, Note_on_c, 9, 51, 96
2, 485, Control_c, 9, 16, 0
2, 486, Control_c, 9, 4, 96
2, 486, Note_on_c, 9, 36, 75
2, 486, Note_on_c, 9, 38, 66
2, 489, Note_on_c, 9, 36, 78
2, 495, Control_c, 9, 17, 11
2, 495, Note_on_c, 9, 51, 91
2, 497, Control_c, 9, 16, 0
2, 497, Note_on_c, 9, 38, 69
2, 565, Note_on_c, 9, 51, 0
2, 565, Note_on_c, 9, 51, 0
2, 567, Note_on_c, 9, 38, 0
2, 567, Note_on_c, 9, 38, 0
2, 569, Note_on_c, 9, 36, 0
2, 569, Note_on_c, 9, 36, 0
2, 586, Control_c, 9, 4, 83
2, 588, Control_c, 9, 4, 83
2, 617, Control_c, 9, 4, 70
2, 623, Control_c, 9, 4, 70
2, 650, Control_c, 9, 4, 0
2, 666, Control_c, 9, 4, 0
2, 717, Control_c, 9, 4, 35
2, 723, Note_on_c, 9, 44, 127
2, 724, Control_c, 9, 4, 35
2, 730, Note_on_c, 9, 44, 119
2, 741, Control_c, 9, 17, 36
2, 741, Note_on_c, 9, 51, 77
2, 747, Control_c, 9, 17, 21
2, 748, Control_c, 9, 4, 116
2, 748, Note_on_c, 9, 51, 57
2, 755, Control_c, 9, 4, 120
2, 799, Control_c, 9, 4, 97
2, 806, Note_on_c, 9, 44, 0
2, 806, Note_on_c, 9, 44, 0
2, 814, Control_c, 9, 4, 90
2, 824, Note_on_c, 9, 51, 0
2, 824, Note_on_c, 9, 51, 0
2, 844, Control_c, 9, 4, 85
2, 845, Control_c, 9, 4, 84
2, 855, Note_on_c, 9, 48, 49
2, 857, Note_on_c, 9, 36, 70
2, 862, Note_on_c, 9, 36, 69
2, 863, Control_c, 9, 18, 0
2, 863, Note_on_c, 9, 48, 49
2, 937, Note_on_c, 9, 48, 0
2, 937, Note_on_c, 9, 48, 0
2, 941, Note_on_c, 9, 36, 0
2, 941, Note_on_c, 9, 36, 0
2, 959, Control_c, 9, 17, 52
2, 960, Note_on_c, 9, 51, 51
2, 965, Control_c, 9, 17, 14
2, 965, Note_on_c, 9, 51, 62
2, 973, Control_c, 9, 4, 110
2, 975, Control_c, 9, 4, 110
2, 983, Note_on_c, 9, 48, 70
2, 985, Control_c, 9, 18, 0
2, 985, Note_on_c, 9, 48, 74
2, 1031, Control_c, 9, 4, 102
2, 1038, Control_c, 9, 4, 104
2, 1042, Note_on_c, 9, 51, 0
2, 1042, Note_on_c, 9, 51, 0
2, 1065, Note_on_c, 9, 48, 0
2, 1065, Note_on_c, 9, 48, 0
2, 1066, Control_c, 9, 4, 91
2, 1074, Control_c, 9, 4, 90
2, 1096, Control_c, 9, 17, 4
2, 1096, Note_on_c, 9, 51, 72
2, 1104, Control_c, 9, 4, 74
2, 1105, Control_c, 9, 4, 71
2, 1111, Control_c, 9, 17, 28
2, 1112, Note_on_c, 9, 51, 78
2, 1141, Control_c, 9, 4, 0
2, 1146, Control_c, 9, 4, 0
2, 1178, Note_on_c, 9, 51, 0
2, 1178, Note_on_c, 9, 51, 0
2, 1207, Note_on_c, 9, 36, 65
2, 1210, Control_c, 9, 4, 34
2, 1215, Note_on_c, 9, 36, 67
2, 1217, Note_on_c, 9, 44, 127
2, 1217, Note_on_c, 9, 44, 127
2, 1223, Control_c, 9, 4, 127
2, 1241, Control_c, 9, 4, 127
2, 1258, Note_on_c, 9, 49, 5
2, 1267, Control_c, 9, 4, 118
2, 1280, Control_c, 9, 4, 98
2, 1290, Note_on_c, 9, 36, 0
2, 1290, Note_on_c, 9, 36, 0
2, 1297, Note_on_c, 9, 44, 0
2, 1297, Note_on_c, 9, 44, 0
2, 1308, Control_c, 9, 4, 87
2, 1319, Control_c, 9, 4, 86
2, 1339, Control_c, 9, 4, 83
2, 1339, Note_on_c, 9, 49, 0
2, 1396, Control_c, 9, 4, 87
2, 1441, Control_c, 9, 4, 92
2, 1450, Control_c, 9, 4, 97
2, 1450, Note_on_c, 9, 36, 74
2, 1455, Control_c, 9, 17, 12
2, 1456, Note_on_c, 9, 51, 82
2, 1459, Control_c, 9, 17, 7
2, 1460, Control_c, 9, 16, 21
2, 1460, Note_on_c, 9, 38, 61
2, 1460, Note_on_c, 9, 51, 89
2, 1463, Note_on_c, 9, 36, 81
2, 1464, Control_c, 9, 16, 0
2, 1464, Note_on_c, 9, 38, 79
2, 1485, Control_c, 9, 4, 96
2, 1532, Note_on_c, 9, 36, 0
2, 1532, Note_on_c, 9, 36, 0
2, 1537, Note_on_c, 9, 51, 0
2, 1537, Note_on_c, 9, 51, 0
2, 1542, Note_on_c, 9, 38, 0
2, 1542, Note_on_c, 9, 38, 0
2, 1554, Control_c, 9, 4, 84
2, 1577, Control_c, 9, 4, 83
2, 1586, Control_c, 9, 4, 70
2, 1610, Control_c, 9, 4, 70
2, 1632, Control_c, 9, 4, 0
2, 1643, Control_c, 9, 4, 0
2, 1692, Control_c, 9, 4, 33
2, 1697, Note_on_c, 9, 44, 127
2, 1698, Control_c, 9, 4, 32
2, 1701, Control_c, 9, 17, 44
2, 1701, Note_on_c, 9, 51, 64
2, 1704, Note_on_c, 9, 44, 127
2, 1709, Control_c, 9, 17, 36
2, 1710, Note_on_c, 9, 51, 65
2, 1723, Control_c, 9, 4, 120
2, 1729, Control_c, 9, 4, 122
2, 1766, Control_c, 9, 4, 96
2, 1775, Control_c, 9, 4, 96
2, 1780, Note_on_c, 9, 44, 0
2, 1780, Note_on_c, 9, 44, 0
2, 1783, Note_on_c, 9, 51, 0
2, 1783, Note_on_c, 9, 51, 0
2, 1805, Control_c, 9, 4, 85
2, 1807, Control_c, 9, 4, 84
2, 1813, Note_on_c, 9, 48, 49
2, 1825, Note_on_c, 9, 36, 60
2, 1826, Note_on_c, 9, 48, 46
2, 1827, Note_on_c, 9, 36, 68
2, 1895, Note_on_c, 9, 48, 0
2, 1895, Note_on_c, 9, 48, 0
2, 1907, Note_on_c, 9, 36, 0
2, 1907, Note_on_c, 9, 36, 0
2, 1910, Control_c, 9, 17, 48
2, 1911, Control_c, 9, 4, 92
2, 1911, Note_on_c, 9, 51, 49
2, 1928, Control_c, 9, 17, 26
2, 1929, Note_on_c, 9, 51, 59
2, 1940, Control_c, 9, 4, 110
2, 1943, Control_c, 9, 18, 0
2, 1943, Note_on_c, 9, 48, 67
2, 1945, Note_on_c, 9, 48, 62
2, 1954, Control_c, 9, 4, 106
2, 1993, Note_on_c, 9, 51, 0
2, 1993, Note_on_c, 9, 51, 0
2, 2000, Control_c, 9, 4, 100
2, 2025, Note_on_c, 9, 48, 0
2, 2025, Note_on_c, 9, 48, 0
2, 2030, Control_c, 9, 4, 93
2, 2036, Control_c, 9, 4, 90
2, 2055, Control_c, 9, 17, 41
2, 2056, Note_on_c, 9, 51, 63
2, 2067, Control_c, 9, 17, 9
2, 2067, Note_on_c, 9, 51, 77
2, 2070, Control_c, 9, 4, 72
2, 2080, Control_c, 9, 4, 70
2, 2108, Control_c, 9, 4, 0
2, 2113, Control_c, 9, 4, 0
2, 2136, Note_on_c, 9, 51, 0
2, 2136, Note_on_c, 9, 51, 0
2, 2169, Control_c, 9, 4, 32
2, 2169, Control_c, 9, 4, 33
2, 2173, Note_on_c, 9, 36, 58
2, 2175, Note_on_c, 9, 44, 126
2, 2175, Note_on_c, 9, 44, 127
2, 2181, Note_on_c, 9, 36, 52
2, 2200, Control_c, 9, 4, 124
2, 2200, Control_c, 9, 4, 126
2, 2216, Note_on_c, 9, 49, 6
2, 2217, Note_on_c, 9, 49, 6
2, 2247, Control_c, 9, 4, 94
2, 2247, Control_c, 9, 4, 94
2, 2256, Note_on_c, 9, 36, 0
2, 2256, Note_on_c, 9, 36, 0
2, 2256, Note_on_c, 9, 44, 0
2, 2256, Note_on_c, 9, 44, 0
2, 2288, Control_c, 9, 4, 84
2, 2288, Control_c, 9, 4, 85
2, 2299, Note_on_c, 9, 49, 0
2, 2299, Note_on_c, 9, 49, 0
2, 2357, Control_c, 9, 4, 89
2, 2359, Control_c, 9, 4, 88
2, 2405, Control_c, 9, 4, 92
2, 2412, Control_c, 9, 17, 40
2, 2412, Note_on_c, 9, 51, 71
2, 2417, Note_on_c, 9, 36, 76
2, 2417, Note_on_c, 9, 38, 60
2, 2421, Note_on_c, 9, 36, 76
2, 2425, Control_c, 9, 17, 0
2, 2426, Control_c, 9, 16, 0
2, 2426, Note_on_c, 9, 51, 93
2, 2428, Note_on_c, 9, 38, 77
2, 2494, Note_on_c, 9, 51, 0
2, 2494, Note_on_c, 9, 51, 0
2, 2498, Note_on_c, 9, 38, 0
2, 2498, Note_on_c, 9, 38, 0
2, 2499, Note_on_c, 9, 36, 0
2, 2499, Note_on_c, 9, 36, 0
2, 2526, Control_c, 9, 4, 85
2, 2558, Control_c, 9, 4, 70
2, 2596, Control_c, 9, 4, 0
2, 2655, Control_c, 9, 4, 34
2, 2661, Note_on_c, 9, 44, 126
2, 2665, Control_c, 9, 17, 38
2, 2665, Note_on_c, 9, 51, 70
2, 2668, Control_c, 9, 17, 28
2, 2668, Note_on_c, 9, 51, 70
2, 2686, Control_c, 9, 4, 120
2, 2743, Control_c, 9, 4, 90
2, 2743, Note_on_c, 9, 44, 0
2, 2747, Note_on_c, 9, 51, 0
2, 2747, Note_on_c, 9, 51, 0
2, 2773, Control_c, 9, 4, 85
2, 2784, Control_c, 9, 18, 0
2, 2784, Note_on_c, 9, 48, 47
2, 2789, Note_on_c, 9, 36, 58
2, 2800, Note_on_c, 9, 48, 51
2, 2858, Control_c, 9, 17, 15
2, 2859, Note_on_c, 9, 51, 60
2, 2866, Note_on_c, 9, 48, 0
2, 2866, Note_on_c, 9, 48, 0
2, 2871, Note_on_c, 9, 36, 0
2, 2880, Control_c, 9, 17, 53
2, 2881, Note_on_c, 9, 51, 48
2, 2903, Note_on_c, 9, 48, 67
2, 2904, Control_c, 9, 4, 108
2, 2904, Control_c, 9, 18, 0
2, 2904, Note_on_c, 9, 48, 69
2, 2941, Note_on_c, 9, 51, 0
2, 2941, Note_on_c, 9, 51, 0
2, 2958, Control_c, 9, 17, 29
2, 2958, Note_on_c, 9, 51, 62
2, 2961, Control_c, 9, 4, 102
2, 2962, Note_on_c, 9, 51, 0
2, 2985, Note_on_c, 9, 48, 0
2, 2985, Note_on_c, 9, 48, 0
2, 2994, Control_c, 9, 4, 90
2, 3025, Control_c, 9, 4, 74
2, 3032, Control_c, 9, 17, 12
2, 3033, Note_on_c, 9, 51, 70
2, 3040, Note_on_c, 9, 51, 0
2, 3065, Control_c, 9, 4, 0
2, 3128, Note_on_c, 9, 36, 57
2, 3129, Control_c, 9, 4, 33
2, 3134, Note_on_c, 9, 44, 127
2, 3160, Control_c, 9, 4, 120
2, 3202, Control_c, 9, 4, 96
2, 3210, Note_on_c, 9, 36, 0
2, 3216, Note_on_c, 9, 44, 0
2, 3240, Control_c, 9, 4, 85
2, 3360, Control_c, 9, 4, 95
2, 3377, Control_c, 9, 17, 1
2, 3377, Note_on_c, 9, 36, 79
2, 3378, Note_on_c, 9, 51, 93
2, 3386, Control_c, 9, 17, 20
2, 3386, Note_on_c, 9, 38, 94
2, 3386, Note_on_c, 9, 51, 76
2, 3389, Note_on_c, 9, 38, 63
2, 3458, Note_on_c, 9, 36, 0
2, 3458, Note_on_c, 9, 51, 0
2, 3458, Note_on_c, 9, 51, 0
2, 3467, Note_on_c, 9, 38, 0
2, 3467, Note_on_c, 9, 38, 0
2, 3492, Control_c, 9, 4, 83
2, 3528, Control_c, 9, 4, 70
2, 3563, Control_c, 9, 4, 0
2, 3611, Control_c, 9, 4, 50
2, 3616, Note_on_c, 9, 44, 119
2, 3624, Control_c, 9, 17, 41
2, 3625, Note_on_c, 9, 51, 63
2, 3640, Control_c, 9, 4, 120
2, 3640, Control_c, 9, 17, 18
2, 3640, Note_on_c, 9, 51, 60
2, 3686, Control_c, 9, 4, 96
2, 3697, Note_on_c, 9, 44, 0
2, 3706, Note_on_c, 9, 51, 0
2, 3706, Note_on_c, 9, 51, 0
2, 3724, Control_c, 9, 4, 84
2, 3740, Note_on_c, 9, 48, 46
2, 3745, Note_on_c, 9, 36, 55
2, 3751, Note_on_c, 9, 48, 42
2, 3821, Note_on_c, 9, 48, 0
2, 3821, Note_on_c, 9, 48, 0
2, 3827, Note_on_c, 9, 36, 0
2, 3839, Control_c, 9, 17, 46
2, 3840, Note_on_c, 9, 51, 49
2, 3847, Control_c, 9, 17, 7
2, 3848, Note_on_c, 9, 51, 53
2, 3851, Control_c, 9, 4, 108
2, 3862, Control_c, 9, 18, 0
2, 3862, Note_on_c, 9, 48, 71
2, 3875, Note_on_c, 9, 48, 70
2, 3910, Control_c, 9, 4, 100
2, 3922, Note_on_c, 9, 51, 0
2, 3922, Note_on_c, 9, 51, 0
2, 3945, Note_on_c, 9, 48, 0
2, 3945, Note_on_c, 9, 48, 0
2, 3951, Control_c, 9, 4, 89
2, 3973, Control_c, 9, 17, 44
2, 3974, Note_on_c, 9, 51, 50
2, 3983, Control_c, 9, 4, 72
2, 3992, Control_c, 9, 17, 10
2, 3993, Note_on_c, 9, 51, 73
2, 4021, Control_c, 9, 4, 0
2, 4056, Note_on_c, 9, 51, 0
2, 4056, Note_on_c, 9, 51, 0
2, 4085, Control_c, 9, 4, 34
2, 4090, Note_on_c, 9, 44, 127
2, 4101, Note_on_c, 9, 36, 57
2, 4116, Control_c, 9, 4, 120
2, 4158, Control_c, 9, 4, 96
2, 4174, Note_on_c, 9, 44, 0
2, 4182, Note_on_c, 9, 36, 0
2, 4200, Control_c, 9, 4, 85
2, 4278, Control_c, 9, 4, 89
2, 4332, Control_c, 9, 4, 94
2, 4340, Control_c, 9, 17, 0
2, 4341, Control_c, 9, 16, 0
2, 4341, Note_on_c, 9, 38, 62
2, 4341, Note_on_c, 9, 51, 91
2, 4343, Control_c, 9, 17, 0
2, 4344, Note_on_c, 9, 36, 72
2, 4344, Note_on_c, 9, 51, 90
2, 4347, Note_on_c, 9, 38, 66
2, 4355, Note_on_c, 9, 36, 69
2, 4382, Control_c, 9, 4, 99
2, 4423, Note_on_c, 9, 51, 0
2, 4423, Note_on_c, 9, 51, 0
2, 4424, Note_on_c, 9, 38, 0
2, 4424, Note_on_c, 9, 38, 0
2, 4426, Note_on_c, 9, 36, 0
2, 4426, Note_on_c, 9, 36, 0
2, 4435, Control_c, 9, 4, 86
2, 4453, Control_c, 9, 4, 83
2, 4465, Control_c, 9, 4, 70
2, 4483, Control_c, 9, 4, 70
2, 4501, Control_c, 9, 4, 0
2, 4515, Control_c, 9, 4, 0
2, 4570, Control_c, 9, 4, 36
2, 4574, Control_c, 9, 4, 34
2, 4576, Note_on_c, 9, 44, 127
2, 4579, Note_on_c, 9, 44, 126
2, 4584, Control_c, 9, 17, 23
2, 4585, Note_on_c, 9, 51, 67
2, 4593, Control_c, 9, 17, 39
2, 4593, Note_on_c, 9, 51, 68
2, 4601, Control_c, 9, 4, 122
2, 4605, Control_c, 9, 4, 120
2, 4643, Control_c, 9, 4, 99
2, 4649, Control_c, 9, 4, 97
2, 4658, Note_on_c, 9, 44, 0
2, 4658, Note_on_c, 9, 44, 0
2, 4666, Note_on_c, 9, 51, 0
2, 4666, Note_on_c, 9, 51, 0
2, 4686, Control_c, 9, 4, 87
2, 4689, Control_c, 9, 4, 85
2, 4694, Note_on_c, 9, 48, 50
2, 4701, Control_c, 9, 18, 0
2, 4701, Note_on_c, 9, 48, 48
2, 4708, Note_on_c, 9, 36, 64
2, 4708, Note_on_c, 9, 36, 72
2, 4776, Note_on_c, 9, 48, 0
2, 4776, Note_on_c, 9, 48, 0
2, 4790, Note_on_c, 9, 36, 0
2, 4790, Note_on_c, 9, 36, 0
2, 4801, Control_c, 9, 4, 96
2, 4809, Control_c, 9, 17, 55
2, 4810, Note_on_c, 9, 51, 48
2, 4811, Control_c, 9, 4, 110
2, 4821, Control_c, 9, 17, 57
2, 4821, Note_on_c, 9, 48, 72
2, 4821, Note_on_c, 9, 51, 53
2, 4823, Control_c, 9, 18, 0
2, 4823, Note_on_c, 9, 48, 69
2, 4841, Control_c, 9, 4, 114
2, 4890, Control_c, 9, 4, 92
2, 4891, Note_on_c, 9, 51, 0
2, 4891, Note_on_c, 9, 51, 0
2, 4902, Note_on_c, 9, 48, 0
2, 4902, Note_on_c, 9, 48, 0
2, 4908, Control_c, 9, 4, 91
2, 4924, Control_c, 9, 4, 73
2, 4942, Control_c, 9, 4, 72
2, 4955, Control_c, 9, 17, 40
2, 4956, Control_c, 9, 17, 18
2, 4956, Note_on_c, 9, 51, 59
2, 4956, Note_on_c, 9, 51, 71
2, 4962, Control_c, 9, 4, 0
2, 4981, Control_c, 9, 4, 0
2, 5037, Note_on_c, 9, 51, 0
2, 5037, Note_on_c, 9, 51, 0
2, 5038, Note_on_c, 9, 46, 9
2, 5045, Control_c, 9, 4, 34
2, 5048, Control_c, 9, 4, 33
2, 5051, Note_on_c, 9, 36, 64
2, 5051, Note_on_c, 9, 44, 127
2, 5053, Note_on_c, 9, 44, 127
2, 5063, Note_on_c, 9, 36, 57
2, 5076, Control_c, 9, 4, 122
2, 5079, Control_c, 9, 4, 127
2, 5094, Note_on_c, 9, 49, 7
2, 5121, Note_on_c, 9, 46, 0
2, 5124, Control_c, 9, 4, 96
2, 5124, Control_c, 9, 4, 96
2, 5133, Note_on_c, 9, 36, 0
2, 5133, Note_on_c, 9, 36, 0
2, 5133, Note_on_c, 9, 44, 0
2, 5133, Note_on_c, 9, 44, 0
2, 5160, Control_c, 9, 4, 69
2, 5169, Control_c, 9, 4, 85
2, 5177, Note_on_c, 9, 49, 0
2, 5192, Control_c, 9, 4, 0
2, 5227, Control_c, 9, 4, 89
2, 5274, Note_on_c, 9, 46, 14
2, 5284, Control_c, 9, 4, 95
2, 5285, Control_c, 9, 4, 51
2, 5290, Note_on_c, 9, 44, 119
2, 5297, Note_on_c, 9, 36, 86
2, 5298, Control_c, 9, 17, 5
2, 5299, Note_on_c, 9, 51, 98
2, 5302, Note_on_c, 9, 36, 88
2, 5304, Note_on_c, 9, 38, 64
2, 5305, Control_c, 9, 16, 0
2, 5306, Note_on_c, 9, 38, 68
2, 5307, Control_c, 9, 17, 7
2, 5307, Note_on_c, 9, 51, 96
2, 5316, Control_c, 9, 4, 95
2, 5356, Note_on_c, 9, 46, 0
2, 5372, Note_on_c, 9, 44, 0
2, 5380, Note_on_c, 9, 36, 0
2, 5380, Note_on_c, 9, 36, 0
2, 5380, Note_on_c, 9, 51, 0
2, 5380, Note_on_c, 9, 51, 0
2, 5384, Note_on_c, 9, 38, 0
2, 5384, Note_on_c, 9, 38, 0
2, 5390, Control_c, 9, 4, 84
2, 5410, Control_c, 9, 4, 83
2, 5420, Control_c, 9, 4, 80
2, 5443, Control_c, 9, 4, 70
2, 5480, Control_c, 9, 4, 0
2, 5527, Control_c, 9, 4, 110
2, 5536, Control_c, 9, 4, 32
2, 5542, Note_on_c, 9, 44, 119
2, 5546, Control_c, 9, 17, 44
2, 5546, Note_on_c, 9, 51, 67
2, 5548, Control_c, 9, 17, 54
2, 5549, Note_on_c, 9, 51, 69
2, 5568, Control_c, 9, 4, 118
2, 5599, Control_c, 9, 4, 92
2, 5610, Control_c, 9, 4, 96
2, 5625, Note_on_c, 9, 44, 0
2, 5627, Note_on_c, 9, 51, 0
2, 5627, Note_on_c, 9, 51, 0
2, 5647, Control_c, 9, 4, 69
2, 5651, Note_on_c, 9, 36, 37
2, 5652, Control_c, 9, 4, 85
2, 5658, Note_on_c, 9, 48, 49
2, 5668, Note_on_c, 9, 48, 45
2, 5675, Note_on_c, 9, 36, 62
2, 5679, Control_c, 9, 4, 0
2, 5734, Note_on_c, 9, 36, 0
2, 5734, Note_on_c, 9, 36, 0
2, 5741, Note_on_c, 9, 48, 0
2, 5741, Note_on_c, 9, 48, 0
2, 5747, Control_c, 9, 17, 74
2, 5747, Note_on_c, 9, 51, 46
2, 5751, Note_on_c, 9, 46, 8
2, 5759, Control_c, 9, 4, 36
2, 5764, Control_c, 9, 17, 59
2, 5764, Note_on_c, 9, 51, 52
2, 5765, Control_c, 9, 4, 97
2, 5765, Note_on_c, 9, 44, 127
2, 5784, Control_c, 9, 18, 0
2, 5784, Note_on_c, 9, 48, 75
2, 5789, Note_on_c, 9, 48, 67
2, 5790, Control_c, 9, 4, 114
2, 5830, Note_on_c, 9, 51, 0
2, 5830, Note_on_c, 9, 51, 0
2, 5832, Note_on_c, 9, 46, 0
2, 5845, Control_c, 9, 4, 92
2, 5847, Note_on_c, 9, 44, 0
2, 5866, Note_on_c, 9, 48, 0
2, 5866, Note_on_c, 9, 48, 0
2, 5872, Control_c, 9, 4, 91
2, 5890, Control_c, 9, 17, 47
2, 5890, Note_on_c, 9, 51, 70
2, 5898, Control_c, 9, 17, 9
2, 5899, Note_on_c, 9, 51, 68
2, 5919, Control_c, 9, 4, 69
2, 5950, Control_c, 9, 4, 0
2, 5972, Note_on_c, 9, 51, 0
2, 5972, Note_on_c, 9, 51, 0
2, 5989, Control_c, 9, 4, 99
2, 6007, Control_c, 9, 4, 35
2, 6007, Note_on_c, 9, 36, 61
2, 6014, Note_on_c, 9, 44, 119
2, 6025, Note_on_c, 9, 36, 57
2, 6038, Control_c, 9, 4, 94
2, 6039, Control_c, 9, 4, 120
2, 6072, Control_c, 9, 4, 90
2, 6090, Note_on_c, 9, 36, 0
2, 6090, Note_on_c, 9, 36, 0
2, 6097, Control_c, 9, 4, 90
2, 6097, Note_on_c, 9, 44, 0
2, 6249, Note_on_c, 9, 36, 74
2, 6258, Control_c, 9, 17, 4
2, 6259, Note_on_c, 9, 51, 95
2, 6271, Control_c, 9, 17, 7
2, 6271, Note_on_c, 9, 38, 67
2, 6271, Note_on_c, 9, 51, 98
2, 6273, Note_on_c, 9, 36, 73
2, 6274, Control_c, 9, 4, 94
2, 6274, Control_c, 9, 16, 0
2, 6275, Note_on_c, 9, 38, 74
2, 6290, Control_c, 9, 4, 94
2, 6331, Note_on_c, 9, 36, 0
2, 6331, Note_on_c, 9, 36, 0
2, 6339, Note_on_c, 9, 51, 0
2, 6339, Note_on_c, 9, 51, 0
2, 6352, Note_on_c, 9, 38, 0
2, 6352, Note_on_c, 9, 38, 0
2, 6364, Control_c, 9, 4, 83
2, 6380, Control_c, 9, 4, 82
2, 6396, Control_c, 9, 4, 70
2, 6415, Control_c, 9, 4, 69
2, 6430, Control_c, 9, 4, 0
2, 6447, Control_c, 9, 4, 0
2, 6498, Note_on_c, 9, 44, 127
2, 6502, Control_c, 9, 4, 34
2, 6505, Control_c, 9, 4, 127
2, 6509, Note_on_c, 9, 44, 119
2, 6512, Control_c, 9, 17, 50
2, 6513, Control_c, 9, 17, 49
2, 6513, Note_on_c, 9, 51, 68
2, 6514, Note_on_c, 9, 51, 65
2, 6534, Control_c, 9, 4, 120
2, 6548, Control_c, 9, 4, 112
2, 6578, Control_c, 9, 4, 92
2, 6579, Note_on_c, 9, 44, 0
2, 6579, Note_on_c, 9, 44, 0
2, 6591, Control_c, 9, 4, 90
2, 6595, Note_on_c, 9, 51, 0
2, 6595, Note_on_c, 9, 51, 0
2, 6608, Control_c, 9, 4, 87
2, 6622, Note_on_c, 9, 48, 49
2, 6627, Control_c, 9, 4, 85
2, 6627, Control_c, 9, 18, 0
2, 6627, Note_on_c, 9, 48, 46
2, 6633, Note_on_c, 9, 36, 62
2, 6642, Note_on_c, 9, 36, 61
2, 6703, Note_on_c, 9, 48, 0
2, 6703, Note_on_c, 9, 48, 0
2, 6715, Note_on_c, 9, 36, 0
2, 6715, Note_on_c, 9, 36, 0
2, 6725, Control_c, 9, 17, 55
2, 6726, Note_on_c, 9, 51, 47
2, 6739, Control_c, 9, 17, 56
2, 6740, Note_on_c, 9, 51, 52
2, 6743, Control_c, 9, 4, 110
2, 6747, Control_c, 9, 4, 112
2, 6748, Note_on_c, 9, 48, 65
2, 6749, Control_c, 9, 18, 0
2, 6750, Note_on_c, 9, 48, 70
2, 6807, Note_on_c, 9, 51, 0
2, 6807, Note_on_c, 9, 51, 0
2, 6829, Control_c, 9, 4, 91
2, 6829, Note_on_c, 9, 48, 0
2, 6829, Note_on_c, 9, 48, 0
2, 6831, Control_c, 9, 4, 91
2, 6861, Control_c, 9, 4, 72
2, 6861, Control_c, 9, 17, 36
2, 6861, Note_on_c, 9, 51, 63
2, 6865, Control_c, 9, 4, 71
2, 6869, Control_c, 9, 17, 19
2, 6870, Note_on_c, 9, 51, 72
2, 6899, Control_c, 9, 4, 0
2, 6899, Control_c, 9, 4, 0
2, 6943, Note_on_c, 9, 51, 0
2, 6943, Note_on_c, 9, 51, 0
2, 6974, Note_on_c, 9, 46, 13
2, 6977, Note_on_c, 9, 46, 15
2, 6981, Control_c, 9, 4, 35
2, 6984, Control_c, 9, 4, 33
2, 6986, Note_on_c, 9, 44, 127
2, 6988, Note_on_c, 9, 36, 55
2, 6990, Note_on_c, 9, 44, 127
2, 6994, Note_on_c, 9, 36, 62
2, 7011, Control_c, 9, 4, 126
2, 7015, Control_c, 9, 4, 122
2, 7027, Note_on_c, 9, 49, 7
2, 7055, Note_on_c, 9, 46, 0
2, 7055, Note_on_c, 9, 46, 0
2, 7057, Control_c, 9, 4, 93
2, 7067, Control_c, 9, 4, 96
2, 7067, Note_on_c, 9, 44, 0
2, 7067, Note_on_c, 9, 44, 0
2, 7069, Note_on_c, 9, 36, 0
2, 7069, Note_on_c, 9, 36, 0
2, 7088, Control_c, 9, 4, 71
2, 7106, Control_c, 9, 4, 71
2, 7111, Note_on_c, 9, 49, 0
2, 7128, Control_c, 9, 4, 0
2, 7148, Control_c, 9, 4, 0
2, 7205, Note_on_c, 9, 46, 11
2, 7214, Control_c, 9, 4, 34
2, 7218, Note_on_c, 9, 46, 13
2, 7220, Note_on_c, 9, 44, 126
2, 7227, Control_c, 9, 4, 35
2, 7227, Control_c, 9, 16, 21
2, 7227, Note_on_c, 9, 38, 75
2, 7230, Note_on_c, 9, 36, 86
2, 7231, Control_c, 9, 17, 7
2, 7232, Note_on_c, 9, 51, 94
2, 7233, Note_on_c, 9, 44, 126
2, 7236, Note_on_c, 9, 36, 89
2, 7237, Control_c, 9, 17, 34
2, 7238, Note_on_c, 9, 51, 79
2, 7240, Note_on_c, 9, 38, 99
2, 7245, Control_c, 9, 4, 100
2, 7259, Control_c, 9, 4, 108
2, 7287, Note_on_c, 9, 46, 0
2, 7287, Note_on_c, 9, 46, 0
2, 7290, Control_c, 9, 4, 93
2, 7299, Control_c, 9, 4, 96
2, 7302, Note_on_c, 9, 44, 0
2, 7302, Note_on_c, 9, 44, 0
2, 7309, Note_on_c, 9, 38, 0
2, 7309, Note_on_c, 9, 38, 0
2, 7312, Note_on_c, 9, 36, 0
2, 7312, Note_on_c, 9, 36, 0
2, 7313, Note_on_c, 9, 51, 0
2, 7313, Note_on_c, 9, 51, 0
2, 7328, Control_c, 9, 4, 81
2, 7330, Control_c, 9, 4, 82
2, 7447, Control_c, 9, 4, 92
2, 7454, Control_c, 9, 4, 112
2, 7472, Control_c, 9, 17, 41
2, 7472, Control_c, 9, 17, 77
2, 7472, Note_on_c, 9, 51, 66
2, 7472, Note_on_c, 9, 51, 71
2, 7482, Control_c, 9, 4, 120
2, 7529, Control_c, 9, 4, 93
2, 7533, Control_c, 9, 4, 90
2, 7553, Note_on_c, 9, 51, 0
2, 7553, Note_on_c, 9, 51, 0
2, 7563, Control_c, 9, 4, 73
2, 7577, Control_c, 9, 4, 70
2, 7585, Note_on_c, 9, 36, 68
2, 7593, Note_on_c, 9, 48, 52
2, 7594, Note_on_c, 9, 36, 67
2, 7597, Note_on_c, 9, 48, 47
2, 7606, Control_c, 9, 4, 0
2, 7613, Control_c, 9, 4, 0
2, 7667, Note_on_c, 9, 36, 0
2, 7667, Note_on_c, 9, 36, 0
2, 7672, Control_c, 9, 17, 76
2, 7675, Note_on_c, 9, 48, 0
2, 7675, Note_on_c, 9, 48, 0
2, 7676, End_track
0, 0, End_of_file
