0, 0, Header, 1, 2, 480
1, 0, Start_track
1, 0, Tempo, 588235
1, 0, Time_signature, 4, 2, 24, 8
1, 0, Key_signature, 0, "major"
1, 1, End_track
2, 0, Start_track
2, 0, Title_t, "Classic Studio Kit"
2, 0, Program_c, 9, 0
2, 0, Control_c, 9, 17, 58
2, 9, Note_on_c, 9, 48, 70
2, 16, Control_c, 9, 4, 116
2, 90, Control_c, 9, 4, 91
2, 91, Note_on_c, 9, 48, 0
2, 112, Control_c, 9, 17, 76
2, 112, Note_on_c, 9, 51, 75
2, 125, Control_c, 9, 4, 74
2, 165, Control_c, 9, 4, 0
2, 193, Note_on_c, 9, 51, 0
2, 232, Note_on_c, 9, 46, 14
2, 238, Note_on_c, 9, 36, 67
2, 240, Control_c, 9, 4, 35
2, 244, Note_on_c, 9, 44, 127
2, 270, Control_c, 9, 4, 122
2, 312, Control_c, 9, 4, 95
2, 314, Note_on_c, 9, 46, 0
2, 320, Note_on_c, 9, 36, 0
2, 326, Note_on_c, 9, 44, 0
2, 348, Control_c, 9, 4, 84
2, 454, Control_c, 9, 4, 90
2, 475, Note_on_c, 9, 36, 77
2, 484, Control_c, 9, 17, 11
2, 484, Note_on_c, 9, 51, 87
2, 485, Control_c, 9, 4, 106
2, 487, Control_c, 9, 16, 21
2, 488, Note_on_c, 9, 38, 71
2, 524, Control_c, 9, 4, 98
2, 557, Note_on_c, 9, 36, 0
2, 565, Note_on_c, 9, 51, 0
2, 569, Note_on_c, 9, 38, 0
2, 573, Control_c, 9, 4, 83
2, 608, Control_c, 9, 4, 70
2, 647, Control_c, 9, 4, 0
2, 715, Control_c, 9, 4, 35
2, 719, Control_c, 9, 17, 57
2, 719, Note_on_c, 9, 51, 65
2, 721, Note_on_c, 9, 44, 127
2, 745, Control_c, 9, 4, 120
2, 789, Control_c, 9, 4, 98
2, 800, Note_on_c, 9, 51, 0
2, 802, Note_on_c, 9, 44, 0
2, 830, Control_c, 9, 4, 85
2, 839, Control_c, 9, 18, 0
2, 840, Note_on_c, 9, 48, 47
2, 842, Note_on_c, 9, 36, 64
2, 883, Control_c, 9, 17, 62
2, 884, Note_on_c, 9, 51, 47
2, 922, Note_on_c, 9, 48, 0
2, 924, Note_on_c, 9, 36, 0
2, 958, Note_on_c, 9, 48, 63
2, 963, Control_c, 9, 4, 114
2, 965, Note_on_c, 9, 51, 0
2, 1020, Control_c, 9, 4, 97
2, 1033, Control_c, 9, 17, 31
2, 1034, Note_on_c, 9, 51, 76
2, 1038, Note_on_c, 9, 48, 0
2, 1055, Control_c, 9, 4, 83
2, 1087, Control_c, 9, 4, 70
2, 1115, Note_on_c, 9, 51, 0
2, 1127, Control_c, 9, 4, 0
2, 1189, Note_on_c, 9, 36, 71
2, 1198, Note_on_c, 9, 44, 127
2, 1203, Control_c, 9, 4, 127
2, 1247, Control_c, 9, 4, 120
2, 1272, Note_on_c, 9, 36, 0
2, 1279, Note_on_c, 9, 44, 0
2, 1287, Control_c, 9, 4, 87
2, 1320, Control_c, 9, 4, 83
2, 1369, Control_c, 9, 4, 87
2, 1425, Control_c, 9, 17, 6
2, 1426, Control_c, 9, 4, 102
2, 1426, Note_on_c, 9, 51, 100
2, 1431, Note_on_c, 9, 36, 74
2, 1433, Control_c, 9, 16, 0
2, 1433, Note_on_c, 9, 38, 85
2, 1483, Control_c, 9, 4, 98
2, 1509, Note_on_c, 9, 51, 0
2, 1514, Note_on_c, 9, 36, 0
2, 1514, Note_on_c, 9, 38, 0
2, 1526, Control_c, 9, 4, 84
2, 1561, Control_c, 9, 4, 70
2, 1601, Control_c, 9, 4, 0
2, 1661, Control_c, 9, 4, 33
2, 1664, Control_c, 9, 17, 47
2, 1665, Note_on_c, 9, 51, 63
2, 1668, Note_on_c, 9, 44, 127
2, 1692, Control_c, 9, 4, 120
2, 1735, Control_c, 9, 4, 97
2, 1747, Note_on_c, 9, 51, 0
2, 1749, Note_on_c, 9, 44, 0
2, 1775, Control_c, 9, 4, 85
2, 1785, Control_c, 9, 18, 0
2, 1785, Note_on_c, 9, 48, 49
2, 1793, Note_on_c, 9, 36, 60
2, 1838, Control_c, 9, 17, 53
2, 1839, Note_on_c, 9, 51, 50
2, 1867, Note_on_c, 9, 48, 0
2, 1875, Note_on_c, 9, 36, 0
2, 1894, Control_c, 9, 4, 110
2, 1907, Note_on_c, 9, 48, 71
2, 1920, Note_on_c, 9, 51, 0
2, 1957, Control_c, 9, 4, 99
2, 1983, Control_c, 9, 17, 39
2, 1984, Note_on_c, 9, 51, 67
2, 1988, Note_on_c, 9, 48, 0
2, 2000, Control_c, 9, 4, 87
2, 2031, Control_c, 9, 4, 73
2, 2064, Note_on_c, 9, 51, 0
2, 2074, Control_c, 9, 4, 0
2, 2131, Control_c, 9, 4, 35
2, 2137, Note_on_c, 9, 36, 68
2, 2138, Note_on_c, 9, 44, 127
2, 2162, Control_c, 9, 4, 124
2, 2179, Note_on_c, 9, 49, 7
2, 2202, Control_c, 9, 4, 102
2, 2218, Note_on_c, 9, 36, 0
2, 2219, Note_on_c, 9, 44, 0
2, 2237, Control_c, 9, 4, 86
2, 2261, Note_on_c, 9, 49, 0
2, 2364, Control_c, 9, 4, 99
2, 2378, Control_c, 9, 17, 9
2, 2378, Note_on_c, 9, 51, 94
2, 2382, Note_on_c, 9, 38, 74
2, 2383, Note_on_c, 9, 36, 76
2, 2432, Control_c, 9, 4, 98
2, 2460, Note_on_c, 9, 51, 0
2, 2464, Note_on_c, 9, 36, 0
2, 2464, Note_on_c, 9, 38, 0
2, 2478, Control_c, 9, 4, 85
2, 2512, Control_c, 9, 4, 71
2, 2556, Control_c, 9, 4, 0
2, 2612, Control_c, 9, 4, 34
2, 2617, Control_c, 9, 17, 39
2, 2618, Note_on_c, 9, 51, 73
2, 2620, Note_on_c, 9, 44, 126
2, 2644, Control_c, 9, 4, 127
2, 2684, Control_c, 9, 4, 100
2, 2700, Note_on_c, 9, 51, 0
2, 2701, Note_on_c, 9, 44, 0
2, 2719, Control_c, 9, 4, 85
2, 2733, Control_c, 9, 18, 0
2, 2734, Note_on_c, 9, 48, 45
2, 2750, Note_on_c, 9, 36, 57
2, 2816, Note_on_c, 9, 48, 0
2, 2832, Note_on_c, 9, 36, 0
2, 2845, Control_c, 9, 4, 104
2, 2861, Note_on_c, 9, 48, 75
2, 2881, Control_c, 9, 17, 72
2, 2882, Note_on_c, 9, 51, 58
2, 2883, Control_c, 9, 4, 102
2, 2928, Control_c, 9, 4, 98
2, 2942, Note_on_c, 9, 48, 0
2, 2963, Note_on_c, 9, 51, 0
2, 2977, Control_c, 9, 4, 83
2, 3007, Control_c, 9, 4, 69
2, 3010, Control_c, 9, 17, 42
2, 3011, Note_on_c, 9, 51, 67
2, 3045, Control_c, 9, 4, 0
2, 3092, Note_on_c, 9, 51, 0
2, 3094, Control_c, 9, 4, 49
2, 3099, Note_on_c, 9, 44, 113
2, 3105, Note_on_c, 9, 36, 48
2, 3124, Control_c, 9, 4, 120
2, 3175, Control_c, 9, 4, 91
2, 3180, Note_on_c, 9, 44, 0
2, 3188, Note_on_c, 9, 36, 0
2, 3208, Control_c, 9, 4, 86
2, 3308, Control_c, 9, 4, 91
2, 3342, Control_c, 9, 4, 95
2, 3352, Note_on_c, 9, 36, 64
2, 3353, Control_c, 9, 17, 2
2, 3353, Note_on_c, 9, 51, 100
2, 3362, Control_c, 9, 16, 0
2, 3362, Note_on_c, 9, 38, 65
2, 3433, Note_on_c, 9, 36, 0
2, 3434, Note_on_c, 9, 51, 0
2, 3438, Control_c, 9, 4, 90
2, 3444, Note_on_c, 9, 38, 0
2, 3481, Control_c, 9, 4, 78
2, 3515, Control_c, 9, 4, 54
2, 3545, Control_c, 9, 4, 9
2, 3578, Control_c, 9, 4, 57
2, 3583, Note_on_c, 9, 44, 80
2, 3597, Control_c, 9, 17, 50
2, 3597, Note_on_c, 9, 51, 75
2, 3608, Control_c, 9, 4, 122
2, 3648, Control_c, 9, 4, 98
2, 3664, Note_on_c, 9, 44, 0
2, 3679, Control_c, 9, 4, 84
2, 3679, Note_on_c, 9, 51, 0
2, 3704, Control_c, 9, 18, 0
2, 3705, Note_on_c, 9, 48, 51
2, 3709, Note_on_c, 9, 36, 55
2, 3787, Note_on_c, 9, 48, 0
2, 3792, Note_on_c, 9, 36, 0
2, 3805, Control_c, 9, 4, 102
2, 3823, Control_c, 9, 17, 127
2, 3823, Note_on_c, 9, 51, 50
2, 3828, Note_on_c, 9, 48, 67
2, 3875, Control_c, 9, 4, 97
2, 3904, Note_on_c, 9, 51, 0
2, 3910, Note_on_c, 9, 48, 0
2, 3929, Control_c, 9, 4, 85
2, 3960, Control_c, 9, 17, 51
2, 3961, Note_on_c, 9, 51, 70
2, 3967, Control_c, 9, 4, 70
2, 4017, Control_c, 9, 4, 10
2, 4042, Note_on_c, 9, 51, 0
2, 4050, Control_c, 9, 4, 55
2, 4054, Note_on_c, 9, 44, 80
2, 4064, Note_on_c, 9, 36, 47
2, 4074, Control_c, 9, 17, 51
2, 4075, Note_on_c, 9, 51, 6
2, 4080, Control_c, 9, 4, 120
2, 4116, Control_c, 9, 4, 98
2, 4136, Note_on_c, 9, 44, 0
2, 4147, Note_on_c, 9, 36, 0
2, 4156, Note_on_c, 9, 51, 0
2, 4158, Control_c, 9, 4, 85
2, 4258, Control_c, 9, 4, 89
2, 4288, Control_c, 9, 4, 94
2, 4311, Note_on_c, 9, 36, 61
2, 4323, Control_c, 9, 17, 17
2, 4324, Note_on_c, 9, 51, 93
2, 4329, Control_c, 9, 16, 0
2, 4330, Note_on_c, 9, 38, 63
2, 4394, Note_on_c, 9, 36, 0
2, 4405, Note_on_c, 9, 51, 0
2, 4412, Note_on_c, 9, 38, 0
2, 4432, Control_c, 9, 4, 84
2, 4479, Control_c, 9, 4, 54
2, 4511, Control_c, 9, 4, 0
2, 4550, Control_c, 9, 4, 49
2, 4555, Note_on_c, 9, 44, 93
2, 4567, Control_c, 9, 17, 85
2, 4568, Note_on_c, 9, 51, 74
2, 4580, Control_c, 9, 4, 120
2, 4618, Control_c, 9, 4, 98
2, 4636, Note_on_c, 9, 44, 0
2, 4649, Note_on_c, 9, 51, 0
2, 4652, Control_c, 9, 4, 84
2, 4684, Control_c, 9, 18, 0
2, 4684, Note_on_c, 9, 48, 49
2, 4692, Note_on_c, 9, 36, 53
2, 4766, Note_on_c, 9, 48, 0
2, 4774, Note_on_c, 9, 36, 0
2, 4776, Control_c, 9, 4, 97
2, 4794, Control_c, 9, 17, 91
2, 4795, Note_on_c, 9, 51, 50
2, 4809, Note_on_c, 9, 48, 64
2, 4875, Note_on_c, 9, 51, 0
2, 4890, Note_on_c, 9, 48, 0
2, 4907, Control_c, 9, 4, 85
2, 4941, Control_c, 9, 4, 70
2, 4942, Control_c, 9, 17, 89
2, 4943, Note_on_c, 9, 51, 68
2, 4981, Control_c, 9, 4, 0
2, 5025, Note_on_c, 9, 51, 0
2, 5030, Control_c, 9, 4, 50
2, 5034, Note_on_c, 9, 44, 106
2, 5045, Note_on_c, 9, 36, 50
2, 5055, Control_c, 9, 17, 89
2, 5056, Note_on_c, 9, 51, 6
2, 5060, Control_c, 9, 4, 116
2, 5096, Control_c, 9, 4, 97
2, 5116, Note_on_c, 9, 44, 0
2, 5127, Note_on_c, 9, 36, 0
2, 5133, Control_c, 9, 4, 85
2, 5136, Note_on_c, 9, 51, 0
2, 5269, Control_c, 9, 4, 94
2, 5284, Note_on_c, 9, 36, 54
2, 5288, Control_c, 9, 17, 35
2, 5288, Note_on_c, 9, 51, 84
2, 5301, Control_c, 9, 16, 21
2, 5301, Note_on_c, 9, 38, 60
2, 5367, Note_on_c, 9, 36, 0
2, 5371, Note_on_c, 9, 51, 0
2, 5382, Note_on_c, 9, 38, 0
2, 5397, Control_c, 9, 4, 83
2, 5433, Control_c, 9, 4, 70
2, 5473, Control_c, 9, 4, 0
2, 5521, Control_c, 9, 4, 49
2, 5526, Note_on_c, 9, 44, 106
2, 5540, Control_c, 9, 17, 107
2, 5541, Note_on_c, 9, 51, 70
2, 5551, Control_c, 9, 4, 118
2, 5593, Control_c, 9, 4, 97
2, 5607, Note_on_c, 9, 44, 0
2, 5623, Note_on_c, 9, 51, 0
2, 5629, Control_c, 9, 4, 85
2, 5653, Control_c, 9, 18, 0
2, 5654, Note_on_c, 9, 48, 47
2, 5659, Note_on_c, 9, 36, 51
2, 5735, Note_on_c, 9, 48, 0
2, 5741, Note_on_c, 9, 36, 0
2, 5748, Control_c, 9, 4, 98
2, 5753, Control_c, 9, 17, 71
2, 5754, Note_on_c, 9, 51, 51
2, 5779, Note_on_c, 9, 48, 61
2, 5836, Note_on_c, 9, 51, 0
2, 5848, Control_c, 9, 4, 92
2, 5861, Note_on_c, 9, 48, 0
2, 5880, Control_c, 9, 4, 86
2, 5898, Control_c, 9, 17, 71
2, 5899, Note_on_c, 9, 51, 74
2, 5913, Control_c, 9, 4, 70
2, 5955, Control_c, 9, 4, 0
2, 5980, Note_on_c, 9, 51, 0
2, 5998, Control_c, 9, 4, 49
2, 6003, Note_on_c, 9, 46, 63
2, 6005, Note_on_c, 9, 44, 100
2, 6014, Note_on_c, 9, 36, 50
2, 6028, Control_c, 9, 4, 116
2, 6079, Control_c, 9, 4, 91
2, 6085, Note_on_c, 9, 44, 0
2, 6085, Note_on_c, 9, 46, 0
2, 6095, Note_on_c, 9, 36, 0
2, 6109, Control_c, 9, 4, 87
2, 6227, Control_c, 9, 4, 92
2, 6258, Control_c, 9, 17, 4
2, 6258, Note_on_c, 9, 51, 98
2, 6262, Note_on_c, 9, 36, 74
2, 6271, Control_c, 9, 16, 0
2, 6271, Note_on_c, 9, 38, 69
2, 6340, Note_on_c, 9, 51, 0
2, 6344, Note_on_c, 9, 36, 0
2, 6352, Note_on_c, 9, 38, 0
2, 6363, Control_c, 9, 4, 85
2, 6399, Control_c, 9, 4, 70
2, 6436, Control_c, 9, 4, 0
2, 6489, Control_c, 9, 4, 32
2, 6496, Note_on_c, 9, 44, 119
2, 6512, Control_c, 9, 17, 94
2, 6512, Note_on_c, 9, 51, 71
2, 6521, Control_c, 9, 4, 120
2, 6560, Control_c, 9, 4, 98
2, 6577, Note_on_c, 9, 44, 0
2, 6595, Control_c, 9, 4, 85
2, 6595, Note_on_c, 9, 51, 0
2, 6618, Control_c, 9, 18, 0
2, 6619, Note_on_c, 9, 48, 47
2, 6627, Note_on_c, 9, 36, 54
2, 6701, Note_on_c, 9, 48, 0
2, 6710, Control_c, 9, 4, 97
2, 6710, Note_on_c, 9, 36, 0
2, 6715, Control_c, 9, 17, 69
2, 6716, Note_on_c, 9, 51, 53
2, 6744, Note_on_c, 9, 48, 63
2, 6773, Control_c, 9, 4, 92
2, 6798, Note_on_c, 9, 51, 0
2, 6825, Note_on_c, 9, 48, 0
2, 6852, Control_c, 9, 17, 56
2, 6852, Note_on_c, 9, 51, 76
2, 6933, Note_on_c, 9, 51, 0
2, 6976, Note_on_c, 9, 36, 49
2, 7058, Note_on_c, 9, 36, 0
2, 7222, Control_c, 9, 17, 46
2, 7222, Note_on_c, 9, 51, 98
2, 7230, Note_on_c, 9, 38, 86
2, 7233, Note_on_c, 9, 36, 80
2, 7252, Control_c, 9, 4, 97
2, 7304, Note_on_c, 9, 51, 0
2, 7312, Control_c, 9, 4, 84
2, 7313, Note_on_c, 9, 38, 0
2, 7315, Note_on_c, 9, 36, 0
2, 7344, Control_c, 9, 4, 70
2, 7383, Control_c, 9, 4, 0
2, 7448, Control_c, 9, 4, 33
2, 7455, Note_on_c, 9, 44, 119
2, 7461, Control_c, 9, 17, 76
2, 7462, Note_on_c, 9, 51, 63
2, 7480, Control_c, 9, 4, 110
2, 7536, Note_on_c, 9, 44, 0
2, 7540, Control_c, 9, 4, 91
2, 7544, Note_on_c, 9, 51, 0
2, 7577, Control_c, 9, 4, 87
2, 7580, Note_on_c, 9, 36, 64
2, 7590, Control_c, 9, 18, 0
2, 7590, Note_on_c, 9, 48, 45
2, 7661, Note_on_c, 9, 36, 0
2, 7663, Control_c, 9, 17, 45
2, 7673, Note_on_c, 9, 48, 0
2, 7674, End_track
0, 0, End_of_file
