0, 0, Header, 1, 2, 480
1, 0, Start_track
1, 0, Tempo, 588235
1, 0, Time_signature, 4, 2, 24, 8
1, 0, Key_signature, 0, "major"
1, 1, End_track
2, 0, Start_track
2, 0, Title_t, "Classic Studio Kit"
2, 0, Program_c, 9, 0
2, 0, Control_c, 9, 16, 42
2, 3, Control_c, 9, 4, 48
2, 9, Note_on_c, 9, 44, 74
2, 35, Control_c, 9, 4, 91
2, 40, Note_on_c, 9, 57, 91
2, 74, Control_c, 9, 4, 96
2, 91, Note_on_c, 9, 44, 0
2, 122, Note_on_c, 9, 57, 0
2, 146, Control_c, 9, 4, 83
2, 153, Control_c, 9, 16, 0
2, 153, Note_on_c, 9, 38, 31
2, 196, Control_c, 9, 4, 71
2, 234, Note_on_c, 9, 38, 0
2, 262, Note_on_c, 9, 38, 49
2, 266, Note_on_c, 9, 44, 9
2, 291, Control_c, 9, 4, 118
2, 321, Control_c, 9, 4, 97
2, 343, Note_on_c, 9, 38, 0
2, 347, Note_on_c, 9, 44, 0
2, 376, Control_c, 9, 4, 83
2, 409, Control_c, 9, 4, 70
2, 452, Control_c, 9, 4, 34
2, 499, Note_on_c, 9, 44, 41
2, 510, Control_c, 9, 4, 110
2, 518, Control_c, 9, 16, 0
2, 518, Note_on_c, 9, 40, 78
2, 540, Control_c, 9, 4, 97
2, 580, Note_on_c, 9, 44, 0
2, 588, Control_c, 9, 4, 92
2, 600, Note_on_c, 9, 40, 0
2, 629, Note_on_c, 9, 57, 111
2, 656, Control_c, 9, 4, 81
2, 705, Control_c, 9, 4, 76
2, 709, Note_on_c, 9, 57, 0
2, 762, Note_on_c, 9, 38, 39
2, 770, Control_c, 9, 4, 118
2, 825, Control_c, 9, 4, 93
2, 844, Note_on_c, 9, 38, 0
2, 866, Control_c, 9, 16, 0
2, 867, Note_on_c, 9, 38, 43
2, 871, Control_c, 9, 4, 70
2, 905, Control_c, 9, 4, 48
2, 935, Control_c, 9, 4, 0
2, 948, Note_on_c, 9, 38, 0
2, 976, Note_on_c, 9, 57, 78
2, 992, Note_on_c, 9, 44, 100
2, 1001, Control_c, 9, 4, 127
2, 1034, Control_c, 9, 4, 110
2, 1058, Note_on_c, 9, 57, 0
2, 1071, Control_c, 9, 4, 93
2, 1074, Note_on_c, 9, 44, 0
2, 1107, Control_c, 9, 4, 81
2, 1114, Note_on_c, 9, 38, 43
2, 1188, Control_c, 9, 4, 79
2, 1196, Note_on_c, 9, 38, 0
2, 1228, Control_c, 9, 4, 122
2, 1229, Control_c, 9, 16, 0
2, 1229, Note_on_c, 9, 38, 50
2, 1281, Control_c, 9, 4, 98
2, 1312, Note_on_c, 9, 38, 0
2, 1321, Control_c, 9, 4, 85
2, 1366, Control_c, 9, 4, 81
2, 1422, Control_c, 9, 4, 92
2, 1459, Control_c, 9, 4, 81
2, 1466, Note_on_c, 9, 57, 103
2, 1543, Control_c, 9, 4, 87
2, 1548, Note_on_c, 9, 57, 0
2, 1701, Control_c, 9, 4, 93
2, 1719, Note_on_c, 9, 36, 96
2, 1723, Note_on_c, 9, 55, 53
2, 1738, Control_c, 9, 4, 116
2, 1784, Control_c, 9, 4, 96
2, 1800, Note_on_c, 9, 36, 0
2, 1805, Note_on_c, 9, 55, 0
2, 1822, Control_c, 9, 4, 70
2, 1859, Control_c, 9, 4, 0
2, 1896, Control_c, 9, 4, 0
2, 1897, Note_on_c, 9, 46, 22
2, 1936, Note_on_c, 9, 46, 0
2, 1936, Note_on_c, 9, 46, 18
2, 1949, Control_c, 9, 4, 36
2, 1954, Note_on_c, 9, 44, 127
2, 1976, Control_c, 9, 17, 1
2, 1976, Note_on_c, 9, 51, 90
2, 1979, Note_on_c, 9, 46, 0
2, 1980, Control_c, 9, 4, 73
2, 2014, Control_c, 9, 4, 23
2, 2035, Note_on_c, 9, 44, 0
2, 2045, Control_c, 9, 4, 27
2, 2057, Note_on_c, 9, 51, 0
2, 2082, Control_c, 9, 4, 55
2, 2094, Note_on_c, 9, 38, 34
2, 2146, Control_c, 9, 4, 48
2, 2175, Note_on_c, 9, 38, 0
2, 2185, Control_c, 9, 4, 33
2, 2220, Note_on_c, 9, 59, 86
2, 2257, Control_c, 9, 16, 0
2, 2257, Note_on_c, 9, 38, 20
2, 2302, Note_on_c, 9, 59, 0
2, 2304, Note_on_c, 9, 36, 54
2, 2317, Note_on_c, 9, 38, 0
2, 2318, Note_on_c, 9, 38, 11
2, 2335, Control_c, 9, 4, 21
2, 2339, Note_on_c, 9, 38, 0
2, 2353, Control_c, 9, 16, 0
2, 2354, Note_on_c, 9, 38, 8
2, 2385, Note_on_c, 9, 36, 0
2, 2393, Note_on_c, 9, 38, 0
2, 2393, Note_on_c, 9, 38, 4
2, 2399, Note_on_c, 9, 38, 0
2, 2415, Note_on_c, 9, 36, 74
2, 2459, Control_c, 9, 4, 16
2, 2490, Control_c, 9, 16, 0
2, 2491, Note_on_c, 9, 38, 10
2, 2495, Control_c, 9, 4, 0
2, 2497, Note_on_c, 9, 36, 0
2, 2546, Note_on_c, 9, 38, 0
2, 2547, Note_on_c, 9, 38, 32
2, 2574, Note_on_c, 9, 38, 0
2, 2596, Control_c, 9, 16, 0
2, 2597, Note_on_c, 9, 38, 35
2, 2626, Control_c, 9, 4, 65
2, 2628, Note_on_c, 9, 38, 0
2, 2631, Note_on_c, 9, 44, 67
2, 2657, Control_c, 9, 4, 92
2, 2664, Control_c, 9, 16, 127
2, 2665, Note_on_c, 9, 40, 56
2, 2698, Control_c, 9, 4, 110
2, 2713, Note_on_c, 9, 44, 0
2, 2736, Control_c, 9, 4, 98
2, 2747, Note_on_c, 9, 40, 0
2, 2780, Control_c, 9, 4, 70
2, 2798, Note_on_c, 9, 36, 90
2, 2811, Control_c, 9, 4, 0
2, 2875, Note_on_c, 9, 46, 15
2, 2879, Note_on_c, 9, 36, 0
2, 2896, Note_on_c, 9, 44, 127
2, 2901, Control_c, 9, 4, 112
2, 2909, Note_on_c, 9, 49, 5
2, 2917, Control_c, 9, 16, 0
2, 2917, Note_on_c, 9, 38, 57
2, 2938, Control_c, 9, 4, 56
2, 2957, Note_on_c, 9, 46, 0
2, 2968, Control_c, 9, 4, 16
2, 2978, Note_on_c, 9, 44, 0
2, 2991, Note_on_c, 9, 49, 0
2, 2999, Note_on_c, 9, 38, 0
2, 3001, Control_c, 9, 4, 36
2, 3035, Note_on_c, 9, 48, 61
2, 3038, Control_c, 9, 4, 62
2, 3089, Control_c, 9, 4, 56
2, 3117, Note_on_c, 9, 48, 0
2, 3130, Note_on_c, 9, 36, 78
2, 3149, Control_c, 9, 17, 3
2, 3149, Note_on_c, 9, 51, 88
2, 3190, Control_c, 9, 4, 52
2, 3210, Control_c, 9, 17, 3
2, 3211, Note_on_c, 9, 51, 0
2, 3211, Note_on_c, 9, 51, 26
2, 3213, Note_on_c, 9, 36, 0
2, 3231, Note_on_c, 9, 51, 0
2, 3251, Control_c, 9, 4, 47
2, 3266, Note_on_c, 9, 38, 35
2, 3347, Note_on_c, 9, 38, 0
2, 3378, Control_c, 9, 17, 48
2, 3378, Note_on_c, 9, 51, 127
2, 3379, Note_on_c, 9, 36, 96
2, 3418, Control_c, 9, 4, 40
2, 3460, Note_on_c, 9, 51, 0
2, 3462, Control_c, 9, 4, 0
2, 3462, Note_on_c, 9, 36, 0
2, 3598, Note_on_c, 9, 44, 87
2, 3613, Control_c, 9, 17, 127
2, 3613, Note_on_c, 9, 51, 108
2, 3614, Control_c, 9, 4, 102
2, 3614, Control_c, 9, 16, 0
2, 3615, Note_on_c, 9, 40, 71
2, 3649, Control_c, 9, 4, 110
2, 3679, Note_on_c, 9, 44, 0
2, 3694, Note_on_c, 9, 51, 0
2, 3696, Note_on_c, 9, 40, 0
2, 3700, Control_c, 9, 4, 91
2, 3733, Control_c, 9, 4, 72
2, 3781, Control_c, 9, 4, 0
2, 3853, Control_c, 9, 17, 12
2, 3854, Note_on_c, 9, 51, 54
2, 3858, Control_c, 9, 4, 33
2, 3863, Note_on_c, 9, 44, 127
2, 3889, Control_c, 9, 4, 72
2, 3927, Control_c, 9, 4, 0
2, 3936, Note_on_c, 9, 51, 0
2, 3945, Note_on_c, 9, 44, 0
2, 4003, Control_c, 9, 4, 10
2, 4038, Control_c, 9, 4, 20
2, 4097, Control_c, 9, 17, 46
2, 4097, Note_on_c, 9, 40, 72
2, 4099, Note_on_c, 9, 51, 92
2, 4178, Note_on_c, 9, 40, 0
2, 4180, Note_on_c, 9, 51, 0
2, 4181, Control_c, 9, 4, 0
2, 4308, Note_on_c, 9, 44, 80
2, 4316, Control_c, 9, 4, 93
2, 4338, Control_c, 9, 17, 36
2, 4339, Note_on_c, 9, 51, 77
2, 4347, Note_on_c, 9, 36, 68
2, 4359, Control_c, 9, 4, 104
2, 4382, Control_c, 9, 17, 36
2, 4382, Note_on_c, 9, 51, 0
2, 4384, Note_on_c, 9, 51, 36
2, 4390, Note_on_c, 9, 44, 0
2, 4408, Control_c, 9, 4, 90
2, 4419, Note_on_c, 9, 51, 0
2, 4429, Note_on_c, 9, 36, 0
2, 4442, Control_c, 9, 4, 71
2, 4444, Control_c, 9, 18, 0
2, 4445, Note_on_c, 9, 48, 55
2, 4480, Control_c, 9, 4, 0
2, 4526, Note_on_c, 9, 48, 0
2, 4552, Control_c, 9, 4, 17
2, 4555, Note_on_c, 9, 46, 11
2, 4559, Note_on_c, 9, 44, 127
2, 4570, Control_c, 9, 16, 0
2, 4570, Note_on_c, 9, 38, 60
2, 4584, Control_c, 9, 4, 71
2, 4624, Control_c, 9, 4, 0
2, 4637, Note_on_c, 9, 46, 0
2, 4640, Note_on_c, 9, 44, 0
2, 4651, Note_on_c, 9, 38, 0
2, 4699, Note_on_c, 9, 36, 83
2, 4782, Note_on_c, 9, 36, 0
2, 4797, Control_c, 9, 4, 64
2, 4804, Note_on_c, 9, 46, 47
2, 4805, Note_on_c, 9, 44, 74
2, 4818, Control_c, 9, 17, 5
2, 4819, Note_on_c, 9, 51, 70
2, 4828, Control_c, 9, 4, 86
2, 4885, Note_on_c, 9, 44, 0
2, 4885, Note_on_c, 9, 46, 0
2, 4898, Control_c, 9, 4, 82
2, 4903, Note_on_c, 9, 51, 0
2, 4938, Control_c, 9, 16, 0
2, 4939, Note_on_c, 9, 38, 46
2, 5019, Note_on_c, 9, 38, 0
2, 5052, Control_c, 9, 17, 0
2, 5052, Note_on_c, 9, 51, 102
2, 5054, Note_on_c, 9, 36, 86
2, 5134, Note_on_c, 9, 36, 0
2, 5134, Note_on_c, 9, 51, 0
2, 5284, Control_c, 9, 16, 126
2, 5285, Note_on_c, 9, 40, 64
2, 5286, Control_c, 9, 17, 8
2, 5287, Note_on_c, 9, 51, 68
2, 5292, Control_c, 9, 4, 90
2, 5325, Control_c, 9, 4, 116
2, 5365, Note_on_c, 9, 40, 0
2, 5368, Note_on_c, 9, 51, 0
2, 5378, Control_c, 9, 4, 96
2, 5417, Control_c, 9, 4, 69
2, 5424, Note_on_c, 9, 46, 6
2, 5448, Control_c, 9, 4, 0
2, 5506, Note_on_c, 9, 46, 0
2, 5514, Note_on_c, 9, 46, 15
2, 5516, Note_on_c, 9, 36, 81
2, 5518, Control_c, 9, 4, 34
2, 5520, Control_c, 9, 17, 23
2, 5521, Note_on_c, 9, 51, 57
2, 5523, Note_on_c, 9, 46, 0
2, 5524, Note_on_c, 9, 46, 77
2, 5525, Note_on_c, 9, 44, 127
2, 5548, Control_c, 9, 4, 72
2, 5588, Control_c, 9, 4, 0
2, 5594, Note_on_c, 9, 46, 0
2, 5598, Note_on_c, 9, 36, 0
2, 5601, Note_on_c, 9, 51, 0
2, 5603, Note_on_c, 9, 44, 0
2, 5641, Control_c, 9, 16, 0
2, 5642, Note_on_c, 9, 38, 32
2, 5647, Control_c, 9, 4, 11
2, 5683, Control_c, 9, 4, 41
2, 5723, Note_on_c, 9, 38, 0
2, 5750, Note_on_c, 9, 36, 86
2, 5759, Control_c, 9, 4, 28
2, 5759, Control_c, 9, 17, 0
2, 5760, Note_on_c, 9, 51, 60
2, 5800, Control_c, 9, 4, 23
2, 5831, Note_on_c, 9, 36, 0
2, 5843, Note_on_c, 9, 51, 0
2, 5861, Control_c, 9, 4, 0
2, 5890, Note_on_c, 9, 48, 54
2, 5969, Control_c, 9, 4, 50
2, 5971, Note_on_c, 9, 48, 0
2, 5976, Note_on_c, 9, 44, 74
2, 6002, Control_c, 9, 4, 92
2, 6004, Note_on_c, 9, 38, 60
2, 6051, Control_c, 9, 4, 118
2, 6058, Note_on_c, 9, 44, 0
2, 6084, Control_c, 9, 4, 110
2, 6086, Note_on_c, 9, 38, 0
2, 6119, Control_c, 9, 4, 79
2, 6127, Note_on_c, 9, 36, 84
2, 6159, Control_c, 9, 4, 0
2, 6209, Note_on_c, 9, 36, 0
2, 6237, Control_c, 9, 4, 17
2, 6237, Control_c, 9, 17, 26
2, 6238, Note_on_c, 9, 51, 74
2, 6242, Note_on_c, 9, 44, 127
2, 6268, Control_c, 9, 4, 78
2, 6308, Control_c, 9, 4, 0
2, 6319, Note_on_c, 9, 51, 0
2, 6324, Note_on_c, 9, 44, 0
2, 6355, Control_c, 9, 4, 26
2, 6372, Control_c, 9, 16, 0
2, 6372, Note_on_c, 9, 38, 52
2, 6391, Control_c, 9, 4, 60
2, 6454, Note_on_c, 9, 38, 0
2, 6458, Control_c, 9, 4, 48
2, 6484, Control_c, 9, 17, 0
2, 6484, Note_on_c, 9, 51, 60
2, 6486, Note_on_c, 9, 36, 77
2, 6566, Note_on_c, 9, 51, 0
2, 6568, Note_on_c, 9, 36, 0
2, 6723, Control_c, 9, 16, 106
2, 6723, Note_on_c, 9, 38, 72
2, 6725, Control_c, 9, 17, 64
2, 6725, Note_on_c, 9, 51, 72
2, 6770, Control_c, 9, 4, 39
2, 6801, Control_c, 9, 4, 0
2, 6806, Note_on_c, 9, 38, 0
2, 6806, Note_on_c, 9, 51, 0
2, 6935, Control_c, 9, 4, 48
2, 6942, Note_on_c, 9, 44, 87
2, 6968, Control_c, 9, 4, 92
2, 6971, Control_c, 9, 17, 127
2, 6971, Note_on_c, 9, 51, 100
2, 7024, Note_on_c, 9, 44, 0
2, 7054, Note_on_c, 9, 51, 0
2, 7087, Control_c, 9, 16, 0
2, 7088, Note_on_c, 9, 38, 27
2, 7139, Control_c, 9, 16, 0
2, 7139, Note_on_c, 9, 38, 0
2, 7141, Note_on_c, 9, 38, 15
2, 7169, Note_on_c, 9, 38, 0
2, 7202, Control_c, 9, 17, 33
2, 7202, Note_on_c, 9, 51, 59
2, 7211, Control_c, 9, 4, 116
2, 7214, Note_on_c, 9, 36, 73
2, 7280, Control_c, 9, 4, 89
2, 7284, Note_on_c, 9, 51, 0
2, 7296, Note_on_c, 9, 36, 0
2, 7312, Control_c, 9, 4, 71
2, 7351, Control_c, 9, 4, 0
2, 7424, Control_c, 9, 4, 35
2, 7429, Note_on_c, 9, 44, 127
2, 7446, Control_c, 9, 17, 70
2, 7447, Note_on_c, 9, 51, 82
2, 7449, Control_c, 9, 16, 126
2, 7450, Note_on_c, 9, 40, 68
2, 7454, Control_c, 9, 4, 82
2, 7493, Control_c, 9, 4, 0
2, 7511, Note_on_c, 9, 44, 0
2, 7528, Note_on_c, 9, 51, 0
2, 7531, Note_on_c, 9, 40, 0
2, 7534, Control_c, 9, 4, 14
2, 7568, Control_c, 9, 4, 69
2, 7568, Note_on_c, 9, 46, 28
2, 7613, Control_c, 9, 4, 63
2, 7649, Note_on_c, 9, 46, 0
2, 7674, Control_c, 9, 4, 50
2, 7675, End_track
0, 0, End_of_file
