0, 0, Header, 1, 2, 480
1, 0, Start_track
1, 0, Tempo, 588235
1, 0, Time_signature, 4, 2, 24, 8
1, 0, Key_signature, 0, "major"
1, 1, End_track
2, 0, Start_track
2, 0, Title_t, "Classic Studio Kit"
2, 0, Program_c, 9, 0
2, 0, Control_c, 9, 18, 0
2, 15, Control_c, 9, 4, 118
2, 41, Note_on_c, 9, 48, 69
2, 45, Control_c, 9, 17, 127
2, 46, Note_on_c, 9, 51, 68
2, 66, Control_c, 9, 4, 112
2, 112, Control_c, 9, 4, 93
2, 123, Note_on_c, 9, 48, 0
2, 127, Note_on_c, 9, 51, 0
2, 159, Control_c, 9, 4, 70
2, 165, Control_c, 9, 17, 51
2, 166, Note_on_c, 9, 51, 64
2, 192, Control_c, 9, 4, 0
2, 249, Note_on_c, 9, 51, 0
2, 255, Note_on_c, 9, 44, 127
2, 262, Note_on_c, 9, 36, 65
2, 263, Control_c, 9, 4, 127
2, 306, Control_c, 9, 4, 120
2, 338, Note_on_c, 9, 44, 0
2, 343, Note_on_c, 9, 36, 0
2, 344, Control_c, 9, 4, 91
2, 483, Control_c, 9, 4, 100
2, 504, Note_on_c, 9, 36, 68
2, 520, Control_c, 9, 17, 39
2, 521, Note_on_c, 9, 51, 90
2, 523, Note_on_c, 9, 38, 62
2, 586, Note_on_c, 9, 36, 0
2, 590, Control_c, 9, 4, 88
2, 603, Note_on_c, 9, 38, 0
2, 603, Note_on_c, 9, 51, 0
2, 622, Control_c, 9, 4, 71
2, 665, Control_c, 9, 4, 0
2, 728, Note_on_c, 9, 46, 9
2, 735, Control_c, 9, 4, 34
2, 741, Note_on_c, 9, 44, 127
2, 757, Control_c, 9, 17, 54
2, 758, Note_on_c, 9, 51, 74
2, 766, Control_c, 9, 4, 122
2, 809, Note_on_c, 9, 46, 0
2, 823, Note_on_c, 9, 44, 0
2, 830, Control_c, 9, 4, 91
2, 839, Note_on_c, 9, 51, 0
2, 872, Control_c, 9, 17, 54
2, 872, Note_on_c, 9, 51, 6
2, 877, Control_c, 9, 18, 0
2, 877, Note_on_c, 9, 48, 47
2, 884, Note_on_c, 9, 36, 61
2, 955, Note_on_c, 9, 51, 0
2, 959, Note_on_c, 9, 48, 0
2, 967, Note_on_c, 9, 36, 0
2, 987, Control_c, 9, 4, 116
2, 996, Control_c, 9, 17, 85
2, 996, Note_on_c, 9, 51, 72
2, 999, Note_on_c, 9, 48, 69
2, 1066, Control_c, 9, 4, 98
2, 1079, Note_on_c, 9, 51, 0
2, 1081, Note_on_c, 9, 48, 0
2, 1108, Control_c, 9, 4, 70
2, 1125, Control_c, 9, 17, 51
2, 1125, Note_on_c, 9, 51, 56
2, 1139, Control_c, 9, 4, 0
2, 1207, Note_on_c, 9, 51, 0
2, 1212, Note_on_c, 9, 46, 14
2, 1219, Control_c, 9, 4, 32
2, 1225, Note_on_c, 9, 36, 65
2, 1225, Note_on_c, 9, 44, 127
2, 1250, Control_c, 9, 4, 122
2, 1267, Note_on_c, 9, 49, 6
2, 1294, Note_on_c, 9, 46, 0
2, 1300, Control_c, 9, 4, 102
2, 1307, Note_on_c, 9, 44, 0
2, 1309, Note_on_c, 9, 36, 0
2, 1340, Control_c, 9, 4, 70
2, 1349, Note_on_c, 9, 49, 0
2, 1362, Control_c, 9, 17, 31
2, 1362, Note_on_c, 9, 51, 71
2, 1371, Control_c, 9, 4, 0
2, 1444, Note_on_c, 9, 51, 0
2, 1451, Control_c, 9, 4, 35
2, 1457, Note_on_c, 9, 44, 113
2, 1465, Note_on_c, 9, 36, 81
2, 1475, Control_c, 9, 17, 31
2, 1475, Note_on_c, 9, 51, 6
2, 1477, Control_c, 9, 16, 0
2, 1478, Note_on_c, 9, 38, 65
2, 1482, Control_c, 9, 4, 102
2, 1532, Control_c, 9, 4, 95
2, 1540, Note_on_c, 9, 44, 0
2, 1547, Note_on_c, 9, 36, 0
2, 1558, Note_on_c, 9, 38, 0
2, 1558, Note_on_c, 9, 51, 0
2, 1572, Control_c, 9, 4, 85
2, 1702, Control_c, 9, 17, 43
2, 1703, Note_on_c, 9, 51, 96
2, 1708, Control_c, 9, 4, 120
2, 1784, Note_on_c, 9, 51, 0
2, 1787, Control_c, 9, 4, 90
2, 1819, Control_c, 9, 4, 72
2, 1823, Note_on_c, 9, 36, 58
2, 1827, Control_c, 9, 18, 0
2, 1828, Note_on_c, 9, 48, 46
2, 1858, Control_c, 9, 4, 0
2, 1905, Note_on_c, 9, 36, 0
2, 1908, Note_on_c, 9, 48, 0
2, 1925, Note_on_c, 9, 46, 8
2, 1932, Control_c, 9, 4, 34
2, 1938, Note_on_c, 9, 44, 127
2, 1948, Control_c, 9, 17, 0
2, 1949, Note_on_c, 9, 51, 56
2, 1951, Note_on_c, 9, 48, 76
2, 1963, Control_c, 9, 4, 127
2, 2006, Control_c, 9, 4, 110
2, 2006, Note_on_c, 9, 46, 0
2, 2019, Note_on_c, 9, 44, 0
2, 2030, Note_on_c, 9, 51, 0
2, 2032, Note_on_c, 9, 48, 0
2, 2037, Control_c, 9, 4, 92
2, 2068, Control_c, 9, 17, 50
2, 2068, Note_on_c, 9, 51, 69
2, 2150, Note_on_c, 9, 51, 0
2, 2160, Control_c, 9, 4, 114
2, 2170, Note_on_c, 9, 36, 74
2, 2183, Control_c, 9, 17, 50
2, 2183, Note_on_c, 9, 51, 5
2, 2227, Control_c, 9, 4, 92
2, 2254, Note_on_c, 9, 36, 0
2, 2264, Note_on_c, 9, 51, 0
2, 2403, Note_on_c, 9, 36, 73
2, 2418, Control_c, 9, 17, 35
2, 2418, Note_on_c, 9, 51, 85
2, 2420, Control_c, 9, 4, 98
2, 2420, Note_on_c, 9, 38, 78
2, 2481, Control_c, 9, 4, 91
2, 2485, Note_on_c, 9, 36, 0
2, 2498, Note_on_c, 9, 51, 0
2, 2502, Note_on_c, 9, 38, 0
2, 2518, Control_c, 9, 4, 74
2, 2561, Control_c, 9, 4, 0
2, 2626, Note_on_c, 9, 46, 8
2, 2634, Control_c, 9, 4, 34
2, 2639, Note_on_c, 9, 44, 127
2, 2662, Control_c, 9, 17, 52
2, 2662, Note_on_c, 9, 51, 79
2, 2665, Control_c, 9, 4, 122
2, 2707, Note_on_c, 9, 46, 0
2, 2721, Note_on_c, 9, 44, 0
2, 2731, Control_c, 9, 4, 91
2, 2745, Note_on_c, 9, 51, 0
2, 2773, Control_c, 9, 18, 0
2, 2774, Note_on_c, 9, 48, 46
2, 2786, Note_on_c, 9, 36, 69
2, 2855, Note_on_c, 9, 48, 0
2, 2868, Note_on_c, 9, 36, 0
2, 2891, Control_c, 9, 4, 118
2, 2901, Note_on_c, 9, 48, 69
2, 2902, Control_c, 9, 17, 127
2, 2903, Note_on_c, 9, 51, 53
2, 2983, Note_on_c, 9, 48, 0
2, 2983, Note_on_c, 9, 51, 0
2, 2988, Control_c, 9, 4, 94
2, 3026, Control_c, 9, 17, 49
2, 3027, Note_on_c, 9, 51, 65
2, 3031, Control_c, 9, 4, 70
2, 3061, Control_c, 9, 4, 0
2, 3109, Note_on_c, 9, 51, 0
2, 3126, Note_on_c, 9, 36, 71
2, 3126, Note_on_c, 9, 46, 15
2, 3131, Control_c, 9, 4, 18
2, 3136, Note_on_c, 9, 44, 127
2, 3162, Control_c, 9, 4, 127
2, 3207, Control_c, 9, 4, 95
2, 3207, Note_on_c, 9, 36, 0
2, 3207, Note_on_c, 9, 46, 0
2, 3219, Note_on_c, 9, 44, 0
2, 3247, Control_c, 9, 4, 84
2, 3264, Control_c, 9, 17, 22
2, 3265, Note_on_c, 9, 51, 75
2, 3346, Note_on_c, 9, 51, 0
2, 3350, Control_c, 9, 4, 100
2, 3372, Note_on_c, 9, 36, 80
2, 3382, Control_c, 9, 16, 0
2, 3382, Note_on_c, 9, 38, 65
2, 3384, Control_c, 9, 4, 102
2, 3455, Note_on_c, 9, 36, 0
2, 3460, Control_c, 9, 4, 90
2, 3464, Note_on_c, 9, 38, 0
2, 3496, Control_c, 9, 4, 74
2, 3536, Control_c, 9, 4, 0
2, 3600, Note_on_c, 9, 46, 11
2, 3607, Control_c, 9, 4, 36
2, 3612, Note_on_c, 9, 44, 127
2, 3615, Control_c, 9, 17, 44
2, 3615, Note_on_c, 9, 51, 82
2, 3638, Control_c, 9, 4, 124
2, 3682, Control_c, 9, 4, 104
2, 3682, Note_on_c, 9, 46, 0
2, 3695, Note_on_c, 9, 44, 0
2, 3696, Note_on_c, 9, 51, 0
2, 3713, Control_c, 9, 4, 90
2, 3736, Control_c, 9, 18, 0
2, 3737, Note_on_c, 9, 48, 46
2, 3740, Note_on_c, 9, 36, 64
2, 3819, Note_on_c, 9, 48, 0
2, 3822, Note_on_c, 9, 36, 0
2, 3847, Control_c, 9, 4, 116
2, 3861, Control_c, 9, 17, 83
2, 3861, Note_on_c, 9, 51, 70
2, 3864, Note_on_c, 9, 48, 69
2, 3877, Control_c, 9, 4, 112
2, 3933, Control_c, 9, 4, 102
2, 3945, Note_on_c, 9, 48, 0
2, 3945, Note_on_c, 9, 51, 0
2, 3966, Control_c, 9, 4, 89
2, 3980, Control_c, 9, 17, 79
2, 3981, Note_on_c, 9, 51, 65
2, 3997, Control_c, 9, 4, 70
2, 4033, Control_c, 9, 4, 0
2, 4063, Note_on_c, 9, 51, 0
2, 4085, Note_on_c, 9, 36, 67
2, 4086, Control_c, 9, 4, 33
2, 4091, Note_on_c, 9, 44, 127
2, 4117, Control_c, 9, 4, 127
2, 4158, Control_c, 9, 4, 100
2, 4167, Note_on_c, 9, 36, 0
2, 4174, Note_on_c, 9, 44, 0
2, 4195, Control_c, 9, 4, 87
2, 4215, Control_c, 9, 17, 64
2, 4215, Note_on_c, 9, 51, 74
2, 4297, Note_on_c, 9, 51, 0
2, 4305, Control_c, 9, 4, 94
2, 4335, Note_on_c, 9, 36, 77
2, 4335, Note_on_c, 9, 38, 69
2, 4348, Control_c, 9, 4, 100
2, 4415, Note_on_c, 9, 36, 0
2, 4415, Note_on_c, 9, 38, 0
2, 4423, Control_c, 9, 4, 89
2, 4460, Control_c, 9, 4, 72
2, 4503, Control_c, 9, 4, 0
2, 4560, Control_c, 9, 4, 34
2, 4566, Note_on_c, 9, 44, 119
2, 4569, Control_c, 9, 17, 44
2, 4570, Note_on_c, 9, 51, 77
2, 4591, Control_c, 9, 4, 126
2, 4638, Control_c, 9, 4, 97
2, 4649, Note_on_c, 9, 44, 0
2, 4651, Note_on_c, 9, 51, 0
2, 4684, Control_c, 9, 4, 87
2, 4694, Control_c, 9, 18, 0
2, 4695, Note_on_c, 9, 48, 45
2, 4700, Note_on_c, 9, 36, 65
2, 4777, Note_on_c, 9, 48, 0
2, 4782, Note_on_c, 9, 36, 0
2, 4799, Control_c, 9, 4, 110
2, 4825, Note_on_c, 9, 48, 75
2, 4826, Control_c, 9, 17, 127
2, 4827, Note_on_c, 9, 51, 68
2, 4906, Note_on_c, 9, 48, 0
2, 4908, Note_on_c, 9, 51, 0
2, 4915, Control_c, 9, 4, 91
2, 4943, Control_c, 9, 17, 127
2, 4943, Note_on_c, 9, 51, 37
2, 4949, Control_c, 9, 4, 73
2, 4985, Control_c, 9, 4, 0
2, 5026, Note_on_c, 9, 51, 0
2, 5052, Note_on_c, 9, 46, 14
2, 5058, Control_c, 9, 4, 34
2, 5060, Note_on_c, 9, 36, 62
2, 5064, Note_on_c, 9, 44, 127
2, 5089, Control_c, 9, 4, 127
2, 5127, Control_c, 9, 4, 114
2, 5134, Note_on_c, 9, 46, 0
2, 5142, Note_on_c, 9, 36, 0
2, 5145, Note_on_c, 9, 44, 0
2, 5161, Control_c, 9, 4, 79
2, 5183, Control_c, 9, 17, 29
2, 5184, Note_on_c, 9, 51, 63
2, 5201, Control_c, 9, 4, 0
2, 5265, Note_on_c, 9, 51, 0
2, 5278, Note_on_c, 9, 46, 12
2, 5292, Note_on_c, 9, 44, 127
2, 5294, Note_on_c, 9, 36, 91
2, 5297, Control_c, 9, 16, 0
2, 5298, Note_on_c, 9, 38, 68
2, 5301, Control_c, 9, 4, 127
2, 5342, Control_c, 9, 4, 112
2, 5360, Note_on_c, 9, 46, 0
2, 5374, Control_c, 9, 4, 90
2, 5374, Note_on_c, 9, 44, 0
2, 5376, Note_on_c, 9, 36, 0
2, 5379, Note_on_c, 9, 38, 0
2, 5420, Control_c, 9, 4, 79
2, 5522, Control_c, 9, 4, 110
2, 5536, Control_c, 9, 17, 72
2, 5536, Note_on_c, 9, 51, 85
2, 5569, Control_c, 9, 4, 120
2, 5613, Control_c, 9, 4, 91
2, 5618, Note_on_c, 9, 51, 0
2, 5647, Control_c, 9, 4, 72
2, 5656, Note_on_c, 9, 36, 68
2, 5657, Control_c, 9, 18, 0
2, 5657, Note_on_c, 9, 48, 44
2, 5683, Control_c, 9, 4, 0
2, 5739, Note_on_c, 9, 36, 0
2, 5739, Note_on_c, 9, 48, 0
2, 5756, Note_on_c, 9, 46, 13
2, 5763, Control_c, 9, 4, 36
2, 5768, Note_on_c, 9, 44, 127
2, 5779, Control_c, 9, 17, 127
2, 5779, Note_on_c, 9, 48, 72
2, 5780, Note_on_c, 9, 51, 61
2, 5794, Control_c, 9, 4, 127
2, 5836, Control_c, 9, 4, 110
2, 5838, Note_on_c, 9, 46, 0
2, 5850, Note_on_c, 9, 44, 0
2, 5860, Note_on_c, 9, 48, 0
2, 5860, Note_on_c, 9, 51, 0
2, 5866, Control_c, 9, 4, 93
2, 5895, Control_c, 9, 17, 0
2, 5896, Note_on_c, 9, 51, 58
2, 5978, Note_on_c, 9, 51, 0
2, 5986, Control_c, 9, 4, 112
2, 5999, Note_on_c, 9, 36, 71
2, 6010, Control_c, 9, 17, 0
2, 6011, Note_on_c, 9, 51, 5
2, 6044, Control_c, 9, 4, 95
2, 6081, Note_on_c, 9, 36, 0
2, 6091, Note_on_c, 9, 51, 0
2, 6238, Note_on_c, 9, 36, 79
2, 6249, Control_c, 9, 17, 44
2, 6249, Note_on_c, 9, 51, 80
2, 6257, Note_on_c, 9, 38, 73
2, 6260, Control_c, 9, 4, 100
2, 6314, Control_c, 9, 4, 92
2, 6320, Note_on_c, 9, 36, 0
2, 6331, Note_on_c, 9, 51, 0
2, 6339, Note_on_c, 9, 38, 0
2, 6351, Control_c, 9, 4, 75
2, 6391, Control_c, 9, 4, 0
2, 6461, Note_on_c, 9, 46, 13
2, 6469, Control_c, 9, 4, 34
2, 6475, Note_on_c, 9, 44, 127
2, 6495, Control_c, 9, 17, 54
2, 6496, Note_on_c, 9, 51, 79
2, 6500, Control_c, 9, 4, 120
2, 6543, Note_on_c, 9, 46, 0
2, 6544, Control_c, 9, 4, 112
2, 6557, Note_on_c, 9, 44, 0
2, 6575, Control_c, 9, 4, 92
2, 6578, Note_on_c, 9, 51, 0
2, 6614, Control_c, 9, 18, 0
2, 6615, Note_on_c, 9, 48, 46
2, 6623, Note_on_c, 9, 36, 68
2, 6697, Note_on_c, 9, 48, 0
2, 6704, Note_on_c, 9, 36, 0
2, 6730, Control_c, 9, 4, 120
2, 6737, Note_on_c, 9, 48, 69
2, 6746, Control_c, 9, 17, 127
2, 6747, Note_on_c, 9, 51, 53
2, 6799, Control_c, 9, 4, 114
2, 6819, Note_on_c, 9, 48, 0
2, 6828, Note_on_c, 9, 51, 0
2, 6840, Control_c, 9, 4, 91
2, 6864, Control_c, 9, 17, 82
2, 6864, Note_on_c, 9, 51, 69
2, 6872, Control_c, 9, 4, 71
2, 6903, Control_c, 9, 4, 0
2, 6947, Note_on_c, 9, 51, 0
2, 6969, Note_on_c, 9, 36, 68
2, 6969, Note_on_c, 9, 46, 8
2, 6979, Control_c, 9, 17, 82
2, 6980, Note_on_c, 9, 51, 6
2, 6982, Note_on_c, 9, 44, 127
2, 6985, Control_c, 9, 4, 127
2, 7030, Control_c, 9, 4, 116
2, 7050, Note_on_c, 9, 36, 0
2, 7050, Note_on_c, 9, 46, 0
2, 7062, Note_on_c, 9, 44, 0
2, 7062, Note_on_c, 9, 51, 0
2, 7070, Control_c, 9, 4, 89
2, 7090, Control_c, 9, 17, 56
2, 7090, Note_on_c, 9, 51, 69
2, 7173, Note_on_c, 9, 51, 0
2, 7218, Control_c, 9, 4, 100
2, 7219, Note_on_c, 9, 36, 79
2, 7221, Control_c, 9, 16, 0
2, 7222, Note_on_c, 9, 38, 62
2, 7302, Note_on_c, 9, 36, 0
2, 7302, Note_on_c, 9, 38, 0
2, 7316, Control_c, 9, 4, 88
2, 7346, Control_c, 9, 4, 71
2, 7386, Control_c, 9, 4, 0
2, 7449, Control_c, 9, 4, 33
2, 7451, Control_c, 9, 17, 43
2, 7452, Note_on_c, 9, 51, 76
2, 7455, Note_on_c, 9, 44, 127
2, 7480, Control_c, 9, 4, 127
2, 7526, Control_c, 9, 4, 98
2, 7533, Note_on_c, 9, 51, 0
2, 7536, Note_on_c, 9, 44, 0
2, 7563, Control_c, 9, 4, 88
2, 7566, Control_c, 9, 18, 0
2, 7567, Note_on_c, 9, 48, 46
2, 7582, Note_on_c, 9, 36, 64
2, 7648, Note_on_c, 9, 48, 0
2, 7664, Note_on_c, 9, 36, 0
2, 7665, End_track
0, 0, End_of_file
