0, 0, Header, 1, 2, 480
1, 0, Start_track
1, 0, Tempo, 545454
1, 0, Time_signature, 4, 2, 24, 8
1, 0, Key_signature, 0, "major"
1, 1, End_track
2, 0, Start_track
2, 0, Title_t, "TD-30 #9 Djembe"
2, 0, Program_c, 9, 0
2, 0, Control_c, 9, 16, 0
2, 24, Control_c, 9, 4, 54
2, 113, Control_c, 9, 4, 63
2, 228, Control_c, 9, 4, 67
2, 401, Control_c, 9, 4, 74
2, 432, Control_c, 9, 4, 81
2, 452, Control_c, 9, 17, 64
2, 453, Note_on_c, 9, 51, 90
2, 459, Note_on_c, 9, 36, 97
2, 524, Control_c, 9, 4, 74
2, 541, Note_on_c, 9, 51, 0
2, 547, Note_on_c, 9, 36, 0
2, 567, Control_c, 9, 4, 59
2, 608, Control_c, 9, 4, 0
2, 662, Control_c, 9, 4, 65
2, 665, Note_on_c, 9, 46, 51
2, 667, Note_on_c, 9, 44, 80
2, 689, Control_c, 9, 17, 127
2, 690, Note_on_c, 9, 51, 40
2, 692, Control_c, 9, 4, 92
2, 729, Control_c, 9, 4, 86
2, 754, Note_on_c, 9, 44, 0
2, 754, Note_on_c, 9, 46, 0
2, 759, Control_c, 9, 4, 82
2, 778, Note_on_c, 9, 51, 0
2, 890, Control_c, 9, 4, 81
2, 930, Control_c, 9, 17, 45
2, 930, Note_on_c, 9, 51, 58
2, 1018, Note_on_c, 9, 51, 0
2, 1194, Control_c, 9, 16, 117
2, 1194, Note_on_c, 9, 40, 60
2, 1196, Control_c, 9, 17, 87
2, 1197, Note_on_c, 9, 51, 79
2, 1203, Control_c, 9, 4, 84
2, 1241, Control_c, 9, 4, 88
2, 1279, Control_c, 9, 4, 83
2, 1283, Note_on_c, 9, 40, 0
2, 1283, Note_on_c, 9, 51, 0
2, 1322, Control_c, 9, 4, 70
2, 1359, Control_c, 9, 4, 47
2, 1395, Control_c, 9, 4, 5
2, 1434, Control_c, 9, 17, 127
2, 1435, Note_on_c, 9, 51, 43
2, 1436, Note_on_c, 9, 44, 67
2, 1444, Control_c, 9, 4, 93
2, 1488, Control_c, 9, 4, 89
2, 1518, Control_c, 9, 4, 84
2, 1523, Note_on_c, 9, 44, 0
2, 1523, Note_on_c, 9, 51, 0
2, 1680, Control_c, 9, 17, 58
2, 1681, Note_on_c, 9, 51, 46
2, 1706, Control_c, 9, 4, 89
2, 1768, Note_on_c, 9, 51, 0
2, 1796, Control_c, 9, 4, 77
2, 1839, Control_c, 9, 4, 59
2, 1874, Control_c, 9, 4, 0
2, 1932, Note_on_c, 9, 44, 100
2, 1943, Control_c, 9, 17, 69
2, 1944, Note_on_c, 9, 51, 70
2, 1945, Control_c, 9, 4, 102
2, 1984, Control_c, 9, 4, 94
2, 2018, Note_on_c, 9, 44, 0
2, 2025, Control_c, 9, 4, 83
2, 2031, Note_on_c, 9, 51, 0
2, 2078, Control_c, 9, 4, 77
2, 2136, Control_c, 9, 4, 90
2, 2170, Control_c, 9, 4, 84
2, 2181, Control_c, 9, 17, 61
2, 2181, Note_on_c, 9, 51, 39
2, 2270, Note_on_c, 9, 51, 0
2, 2292, Control_c, 9, 16, 0
2, 2293, Note_on_c, 9, 38, 7
2, 2357, Note_on_c, 9, 38, 0
2, 2358, Note_on_c, 9, 38, 6
2, 2380, Note_on_c, 9, 38, 0
2, 2408, Note_on_c, 9, 36, 73
2, 2409, Control_c, 9, 4, 89
2, 2415, Note_on_c, 9, 38, 4
2, 2423, Control_c, 9, 17, 47
2, 2424, Note_on_c, 9, 51, 75
2, 2445, Note_on_c, 9, 38, 0
2, 2498, Note_on_c, 9, 36, 0
2, 2500, Control_c, 9, 4, 76
2, 2512, Note_on_c, 9, 51, 0
2, 2545, Control_c, 9, 4, 59
2, 2585, Control_c, 9, 4, 0
2, 2636, Control_c, 9, 4, 65
2, 2639, Note_on_c, 9, 44, 87
2, 2643, Control_c, 9, 17, 104
2, 2643, Note_on_c, 9, 51, 55
2, 2666, Control_c, 9, 4, 96
2, 2725, Control_c, 9, 4, 84
2, 2727, Note_on_c, 9, 44, 0
2, 2731, Note_on_c, 9, 51, 0
2, 2764, Control_c, 9, 4, 79
2, 2784, Control_c, 9, 17, 41
2, 2785, Note_on_c, 9, 51, 52
2, 2859, Control_c, 9, 4, 83
2, 2872, Note_on_c, 9, 51, 0
2, 2892, Control_c, 9, 17, 45
2, 2893, Note_on_c, 9, 51, 60
2, 2981, Note_on_c, 9, 51, 0
2, 3150, Control_c, 9, 17, 89
2, 3150, Note_on_c, 9, 51, 83
2, 3159, Control_c, 9, 16, 0
2, 3160, Note_on_c, 9, 40, 60
2, 3179, Control_c, 9, 4, 89
2, 3238, Note_on_c, 9, 51, 0
2, 3247, Note_on_c, 9, 40, 0
2, 3273, Control_c, 9, 4, 76
2, 3304, Control_c, 9, 4, 59
2, 3342, Control_c, 9, 4, 21
2, 3381, Control_c, 9, 4, 70
2, 3384, Note_on_c, 9, 44, 54
2, 3385, Control_c, 9, 17, 105
2, 3386, Note_on_c, 9, 51, 44
2, 3412, Control_c, 9, 4, 95
2, 3472, Note_on_c, 9, 44, 0
2, 3473, Note_on_c, 9, 51, 0
2, 3479, Control_c, 9, 4, 85
2, 3585, Control_c, 9, 4, 89
2, 3614, Control_c, 9, 17, 51
2, 3614, Note_on_c, 9, 51, 53
2, 3703, Note_on_c, 9, 51, 0
2, 3714, Control_c, 9, 4, 83
2, 3744, Control_c, 9, 4, 76
2, 3781, Control_c, 9, 4, 57
2, 3814, Control_c, 9, 4, 0
2, 3872, Note_on_c, 9, 44, 100
2, 3874, Control_c, 9, 17, 68
2, 3875, Note_on_c, 9, 51, 85
2, 3886, Control_c, 9, 4, 97
2, 3926, Control_c, 9, 4, 97
2, 3961, Note_on_c, 9, 44, 0
2, 3962, Note_on_c, 9, 51, 0
2, 3973, Control_c, 9, 4, 84
2, 4080, Control_c, 9, 4, 89
2, 4111, Control_c, 9, 17, 63
2, 4111, Note_on_c, 9, 51, 51
2, 4135, Control_c, 9, 4, 84
2, 4199, Note_on_c, 9, 51, 0
2, 4332, Control_c, 9, 17, 51
2, 4333, Note_on_c, 9, 51, 85
2, 4340, Note_on_c, 9, 36, 83
2, 4421, Note_on_c, 9, 51, 0
2, 4429, Note_on_c, 9, 36, 0
2, 4442, Control_c, 9, 4, 78
2, 4484, Control_c, 9, 4, 58
2, 4515, Control_c, 9, 4, 0
2, 4572, Control_c, 9, 17, 127
2, 4572, Note_on_c, 9, 51, 55
2, 4576, Note_on_c, 9, 44, 93
2, 4591, Control_c, 9, 4, 97
2, 4630, Control_c, 9, 4, 97
2, 4661, Note_on_c, 9, 51, 0
2, 4663, Note_on_c, 9, 44, 0
2, 4673, Control_c, 9, 4, 84
2, 4711, Control_c, 9, 4, 80
2, 4777, Control_c, 9, 4, 87
2, 4828, Control_c, 9, 17, 39
2, 4828, Note_on_c, 9, 51, 48
2, 4916, Note_on_c, 9, 51, 0
2, 5058, Control_c, 9, 16, 126
2, 5058, Note_on_c, 9, 40, 49
2, 5066, Control_c, 9, 17, 39
2, 5067, Note_on_c, 9, 51, 103
2, 5144, Control_c, 9, 4, 91
2, 5147, Note_on_c, 9, 40, 0
2, 5154, Note_on_c, 9, 51, 0
2, 5185, Control_c, 9, 4, 83
2, 5224, Control_c, 9, 4, 62
2, 5261, Control_c, 9, 4, 20
2, 5298, Control_c, 9, 4, 65
2, 5302, Control_c, 9, 17, 127
2, 5303, Note_on_c, 9, 51, 51
2, 5304, Note_on_c, 9, 44, 54
2, 5331, Control_c, 9, 4, 102
2, 5384, Control_c, 9, 4, 91
2, 5392, Note_on_c, 9, 44, 0
2, 5392, Note_on_c, 9, 51, 0
2, 5415, Control_c, 9, 4, 85
2, 5506, Control_c, 9, 4, 90
2, 5547, Control_c, 9, 17, 48
2, 5548, Note_on_c, 9, 51, 58
2, 5626, Control_c, 9, 4, 83
2, 5636, Note_on_c, 9, 51, 0
2, 5665, Control_c, 9, 4, 70
2, 5710, Control_c, 9, 4, 0
2, 5779, Note_on_c, 9, 44, 100
2, 5783, Control_c, 9, 4, 93
2, 5792, Control_c, 9, 17, 53
2, 5793, Note_on_c, 9, 51, 87
2, 5832, Control_c, 9, 4, 92
2, 5865, Control_c, 9, 4, 85
2, 5867, Note_on_c, 9, 44, 0
2, 5879, Note_on_c, 9, 51, 0
2, 5986, Control_c, 9, 4, 89
2, 6020, Control_c, 9, 4, 84
2, 6026, Control_c, 9, 17, 91
2, 6026, Note_on_c, 9, 51, 46
2, 6116, Note_on_c, 9, 51, 0
2, 6231, Note_on_c, 9, 36, 97
2, 6242, Control_c, 9, 17, 66
2, 6243, Note_on_c, 9, 51, 78
2, 6319, Note_on_c, 9, 36, 0
2, 6330, Note_on_c, 9, 51, 0
2, 6350, Control_c, 9, 4, 71
2, 6406, Control_c, 9, 4, 0
2, 6470, Control_c, 9, 4, 66
2, 6472, Note_on_c, 9, 44, 100
2, 6473, Control_c, 9, 17, 127
2, 6474, Note_on_c, 9, 51, 62
2, 6500, Control_c, 9, 4, 106
2, 6544, Control_c, 9, 4, 90
2, 6560, Note_on_c, 9, 44, 0
2, 6560, Note_on_c, 9, 51, 0
2, 6589, Control_c, 9, 4, 80
2, 6604, Control_c, 9, 17, 50
2, 6605, Note_on_c, 9, 51, 53
2, 6683, Control_c, 9, 4, 86
2, 6693, Note_on_c, 9, 51, 0
2, 6715, Control_c, 9, 17, 70
2, 6715, Note_on_c, 9, 51, 52
2, 6803, Note_on_c, 9, 51, 0
2, 6965, Control_c, 9, 16, 0
2, 6966, Control_c, 9, 17, 61
2, 6966, Note_on_c, 9, 40, 58
2, 6968, Note_on_c, 9, 51, 96
2, 7000, Control_c, 9, 4, 90
2, 7054, Note_on_c, 9, 40, 0
2, 7054, Note_on_c, 9, 51, 0
2, 7073, Control_c, 9, 4, 81
2, 7107, Control_c, 9, 4, 57
2, 7149, Control_c, 9, 4, 0
2, 7192, Control_c, 9, 4, 64
2, 7196, Note_on_c, 9, 44, 74
2, 7211, Control_c, 9, 17, 127
2, 7212, Note_on_c, 9, 51, 48
2, 7224, Control_c, 9, 4, 97
2, 7264, Control_c, 9, 4, 91
2, 7285, Note_on_c, 9, 44, 0
2, 7296, Control_c, 9, 4, 86
2, 7300, Note_on_c, 9, 51, 0
2, 7456, Control_c, 9, 17, 45
2, 7457, Note_on_c, 9, 51, 56
2, 7484, Control_c, 9, 4, 90
2, 7545, Note_on_c, 9, 51, 0
2, 7589, Control_c, 9, 4, 77
2, 7626, Control_c, 9, 4, 56
2, 7658, Control_c, 9, 4, 0
2, 7659, End_track
0, 0, End_of_file
