0, 0, Header, 1, 2, 480
1, 0, Start_track
1, 0, Tempo, 588235
1, 0, Time_signature, 4, 2, 24, 8
1, 0, Key_signature, 0, "major"
1, 1, End_track
2, 0, Start_track
2, 0, Title_t, "Classic Studio Kit"
2, 0, Program_c, 9, 0
2, 0, Control_c, 9, 18, 0
2, 12, Control_c, 9, 4, 98
2, 30, Control_c, 9, 17, 100
2, 31, Note_on_c, 9, 51, 73
2, 34, Note_on_c, 9, 48, 63
2, 103, Control_c, 9, 4, 92
2, 113, Note_on_c, 9, 51, 0
2, 115, Note_on_c, 9, 48, 0
2, 158, Control_c, 9, 4, 82
2, 162, Control_c, 9, 17, 127
2, 163, Note_on_c, 9, 51, 54
2, 189, Control_c, 9, 4, 69
2, 220, Control_c, 9, 4, 25
2, 244, Note_on_c, 9, 51, 0
2, 256, Control_c, 9, 4, 48
2, 264, Note_on_c, 9, 44, 67
2, 265, Note_on_c, 9, 46, 54
2, 274, Note_on_c, 9, 36, 44
2, 289, Control_c, 9, 4, 112
2, 322, Control_c, 9, 4, 98
2, 345, Note_on_c, 9, 44, 0
2, 346, Note_on_c, 9, 46, 0
2, 356, Note_on_c, 9, 36, 0
2, 363, Control_c, 9, 4, 84
2, 464, Control_c, 9, 4, 89
2, 525, Control_c, 9, 17, 80
2, 526, Note_on_c, 9, 38, 61
2, 526, Note_on_c, 9, 51, 88
2, 533, Note_on_c, 9, 36, 54
2, 606, Note_on_c, 9, 51, 0
2, 607, Note_on_c, 9, 38, 0
2, 615, Note_on_c, 9, 36, 0
2, 625, Control_c, 9, 4, 83
2, 658, Control_c, 9, 4, 70
2, 700, Control_c, 9, 4, 0
2, 741, Control_c, 9, 4, 49
2, 747, Note_on_c, 9, 44, 93
2, 757, Control_c, 9, 17, 127
2, 758, Note_on_c, 9, 51, 64
2, 772, Control_c, 9, 4, 114
2, 807, Control_c, 9, 4, 100
2, 828, Note_on_c, 9, 44, 0
2, 839, Note_on_c, 9, 51, 0
2, 842, Control_c, 9, 4, 87
2, 875, Control_c, 9, 18, 0
2, 876, Note_on_c, 9, 48, 48
2, 889, Note_on_c, 9, 36, 35
2, 957, Note_on_c, 9, 48, 0
2, 964, Control_c, 9, 4, 93
2, 971, Note_on_c, 9, 36, 0
2, 1001, Control_c, 9, 4, 97
2, 1009, Control_c, 9, 17, 0
2, 1009, Note_on_c, 9, 51, 50
2, 1011, Note_on_c, 9, 48, 63
2, 1071, Control_c, 9, 4, 92
2, 1091, Note_on_c, 9, 48, 0
2, 1091, Note_on_c, 9, 51, 0
2, 1103, Control_c, 9, 4, 85
2, 1132, Control_c, 9, 17, 127
2, 1133, Note_on_c, 9, 51, 68
2, 1143, Control_c, 9, 4, 70
2, 1191, Control_c, 9, 4, 10
2, 1214, Note_on_c, 9, 51, 0
2, 1224, Control_c, 9, 4, 55
2, 1229, Note_on_c, 9, 44, 80
2, 1234, Note_on_c, 9, 36, 43
2, 1245, Control_c, 9, 17, 127
2, 1246, Note_on_c, 9, 51, 6
2, 1255, Control_c, 9, 4, 110
2, 1291, Control_c, 9, 4, 98
2, 1311, Note_on_c, 9, 44, 0
2, 1316, Note_on_c, 9, 36, 0
2, 1328, Note_on_c, 9, 51, 0
2, 1332, Control_c, 9, 4, 86
2, 1368, Control_c, 9, 17, 88
2, 1369, Note_on_c, 9, 51, 80
2, 1440, Control_c, 9, 4, 91
2, 1450, Note_on_c, 9, 51, 0
2, 1487, Note_on_c, 9, 36, 48
2, 1489, Control_c, 9, 16, 0
2, 1490, Note_on_c, 9, 38, 59
2, 1569, Note_on_c, 9, 36, 0
2, 1570, Note_on_c, 9, 38, 0
2, 1600, Control_c, 9, 4, 78
2, 1635, Control_c, 9, 4, 54
2, 1668, Control_c, 9, 4, 0
2, 1701, Control_c, 9, 4, 49
2, 1706, Note_on_c, 9, 44, 87
2, 1719, Control_c, 9, 17, 127
2, 1720, Note_on_c, 9, 51, 79
2, 1732, Control_c, 9, 4, 112
2, 1768, Control_c, 9, 4, 98
2, 1789, Note_on_c, 9, 44, 0
2, 1802, Note_on_c, 9, 51, 0
2, 1806, Control_c, 9, 4, 84
2, 1840, Control_c, 9, 18, 0
2, 1840, Note_on_c, 9, 48, 49
2, 1845, Note_on_c, 9, 36, 34
2, 1923, Note_on_c, 9, 48, 0
2, 1927, Note_on_c, 9, 36, 0
2, 1937, Control_c, 9, 4, 95
2, 1971, Note_on_c, 9, 48, 62
2, 1977, Note_on_c, 9, 51, 77
2, 2052, Note_on_c, 9, 48, 0
2, 2057, Note_on_c, 9, 51, 0
2, 2070, Control_c, 9, 4, 83
2, 2096, Control_c, 9, 17, 127
2, 2097, Note_on_c, 9, 51, 54
2, 2104, Control_c, 9, 4, 70
2, 2140, Control_c, 9, 4, 22
2, 2178, Control_c, 9, 4, 44
2, 2178, Note_on_c, 9, 51, 0
2, 2187, Note_on_c, 9, 44, 67
2, 2198, Note_on_c, 9, 36, 34
2, 2210, Control_c, 9, 17, 127
2, 2211, Control_c, 9, 4, 110
2, 2211, Note_on_c, 9, 51, 5
2, 2247, Control_c, 9, 4, 98
2, 2269, Note_on_c, 9, 44, 0
2, 2279, Note_on_c, 9, 36, 0
2, 2291, Control_c, 9, 4, 86
2, 2292, Note_on_c, 9, 51, 0
2, 2401, Control_c, 9, 4, 91
2, 2432, Control_c, 9, 17, 83
2, 2433, Note_on_c, 9, 51, 84
2, 2441, Note_on_c, 9, 38, 69
2, 2448, Note_on_c, 9, 36, 51
2, 2514, Note_on_c, 9, 51, 0
2, 2522, Note_on_c, 9, 38, 0
2, 2530, Note_on_c, 9, 36, 0
2, 2535, Control_c, 9, 4, 83
2, 2575, Control_c, 9, 4, 70
2, 2618, Control_c, 9, 4, 0
2, 2660, Control_c, 9, 4, 49
2, 2665, Note_on_c, 9, 44, 93
2, 2683, Control_c, 9, 17, 127
2, 2683, Note_on_c, 9, 51, 74
2, 2690, Control_c, 9, 4, 112
2, 2726, Control_c, 9, 4, 98
2, 2747, Note_on_c, 9, 44, 0
2, 2763, Control_c, 9, 4, 85
2, 2765, Note_on_c, 9, 51, 0
2, 2797, Control_c, 9, 17, 127
2, 2798, Note_on_c, 9, 51, 6
2, 2800, Control_c, 9, 18, 0
2, 2801, Note_on_c, 9, 48, 48
2, 2804, Note_on_c, 9, 36, 37
2, 2880, Note_on_c, 9, 51, 0
2, 2881, Note_on_c, 9, 48, 0
2, 2886, Note_on_c, 9, 36, 0
2, 2889, Control_c, 9, 4, 96
2, 2929, Note_on_c, 9, 48, 65
2, 2930, Control_c, 9, 17, 0
2, 2930, Note_on_c, 9, 51, 53
2, 2987, Control_c, 9, 4, 91
2, 3010, Note_on_c, 9, 48, 0
2, 3011, Note_on_c, 9, 51, 0
2, 3019, Control_c, 9, 4, 84
2, 3045, Control_c, 9, 17, 0
2, 3045, Note_on_c, 9, 51, 33
2, 3055, Control_c, 9, 4, 70
2, 3100, Control_c, 9, 4, 9
2, 3128, Note_on_c, 9, 51, 0
2, 3135, Control_c, 9, 4, 49
2, 3142, Note_on_c, 9, 44, 80
2, 3147, Note_on_c, 9, 36, 40
2, 3167, Control_c, 9, 4, 110
2, 3214, Control_c, 9, 4, 92
2, 3223, Note_on_c, 9, 44, 0
2, 3229, Note_on_c, 9, 36, 0
2, 3246, Control_c, 9, 4, 86
2, 3275, Control_c, 9, 17, 101
2, 3275, Note_on_c, 9, 51, 83
2, 3356, Control_c, 9, 4, 92
2, 3357, Note_on_c, 9, 51, 0
2, 3399, Control_c, 9, 16, 0
2, 3400, Note_on_c, 9, 36, 50
2, 3400, Note_on_c, 9, 38, 58
2, 3481, Note_on_c, 9, 38, 0
2, 3482, Note_on_c, 9, 36, 0
2, 3513, Control_c, 9, 4, 79
2, 3549, Control_c, 9, 4, 55
2, 3583, Control_c, 9, 4, 0
2, 3618, Control_c, 9, 4, 50
2, 3623, Note_on_c, 9, 44, 87
2, 3626, Control_c, 9, 17, 127
2, 3627, Note_on_c, 9, 51, 83
2, 3648, Control_c, 9, 4, 114
2, 3682, Control_c, 9, 4, 100
2, 3705, Note_on_c, 9, 44, 0
2, 3707, Note_on_c, 9, 51, 0
2, 3720, Control_c, 9, 4, 85
2, 3751, Control_c, 9, 18, 0
2, 3752, Note_on_c, 9, 48, 48
2, 3756, Note_on_c, 9, 36, 43
2, 3834, Note_on_c, 9, 48, 0
2, 3837, Note_on_c, 9, 36, 0
2, 3849, Control_c, 9, 4, 97
2, 3878, Note_on_c, 9, 51, 63
2, 3885, Note_on_c, 9, 48, 61
2, 3944, Control_c, 9, 4, 92
2, 3959, Note_on_c, 9, 51, 0
2, 3966, Note_on_c, 9, 48, 0
2, 4000, Control_c, 9, 4, 78
2, 4005, Control_c, 9, 17, 127
2, 4006, Note_on_c, 9, 51, 59
2, 4031, Control_c, 9, 4, 54
2, 4062, Control_c, 9, 4, 0
2, 4088, Note_on_c, 9, 51, 0
2, 4098, Control_c, 9, 4, 50
2, 4103, Note_on_c, 9, 44, 87
2, 4107, Note_on_c, 9, 36, 39
2, 4119, Control_c, 9, 17, 127
2, 4119, Note_on_c, 9, 51, 6
2, 4128, Control_c, 9, 4, 112
2, 4164, Control_c, 9, 4, 98
2, 4185, Note_on_c, 9, 44, 0
2, 4188, Note_on_c, 9, 36, 0
2, 4200, Note_on_c, 9, 51, 0
2, 4205, Control_c, 9, 4, 86
2, 4319, Control_c, 9, 4, 92
2, 4350, Note_on_c, 9, 36, 46
2, 4357, Control_c, 9, 17, 47
2, 4358, Note_on_c, 9, 51, 83
2, 4361, Control_c, 9, 16, 21
2, 4362, Note_on_c, 9, 38, 65
2, 4432, Note_on_c, 9, 36, 0
2, 4439, Note_on_c, 9, 51, 0
2, 4440, Control_c, 9, 4, 86
2, 4443, Note_on_c, 9, 38, 0
2, 4480, Control_c, 9, 4, 72
2, 4532, Control_c, 9, 4, 0
2, 4577, Control_c, 9, 4, 49
2, 4582, Note_on_c, 9, 44, 93
2, 4594, Control_c, 9, 17, 87
2, 4595, Note_on_c, 9, 51, 80
2, 4607, Control_c, 9, 4, 114
2, 4653, Control_c, 9, 4, 94
2, 4664, Note_on_c, 9, 44, 0
2, 4677, Note_on_c, 9, 51, 0
2, 4695, Control_c, 9, 4, 84
2, 4713, Note_on_c, 9, 36, 42
2, 4721, Control_c, 9, 18, 0
2, 4722, Note_on_c, 9, 48, 55
2, 4795, Note_on_c, 9, 36, 0
2, 4803, Note_on_c, 9, 48, 0
2, 4811, Control_c, 9, 4, 97
2, 4850, Control_c, 9, 17, 111
2, 4850, Note_on_c, 9, 51, 67
2, 4853, Note_on_c, 9, 48, 65
2, 4913, Control_c, 9, 4, 92
2, 4931, Note_on_c, 9, 51, 0
2, 4934, Note_on_c, 9, 48, 0
2, 4960, Control_c, 9, 4, 79
2, 4974, Control_c, 9, 17, 115
2, 4975, Note_on_c, 9, 51, 66
2, 4994, Control_c, 9, 4, 54
2, 5026, Control_c, 9, 4, 0
2, 5056, Note_on_c, 9, 51, 0
2, 5063, Control_c, 9, 4, 50
2, 5068, Note_on_c, 9, 44, 87
2, 5073, Note_on_c, 9, 36, 45
2, 5088, Control_c, 9, 17, 115
2, 5088, Note_on_c, 9, 51, 6
2, 5094, Control_c, 9, 4, 114
2, 5125, Control_c, 9, 4, 99
2, 5149, Note_on_c, 9, 44, 0
2, 5153, Note_on_c, 9, 36, 0
2, 5161, Control_c, 9, 4, 85
2, 5170, Note_on_c, 9, 51, 0
2, 5206, Control_c, 9, 17, 52
2, 5206, Note_on_c, 9, 51, 78
2, 5289, Note_on_c, 9, 51, 0
2, 5290, Control_c, 9, 4, 94
2, 5318, Note_on_c, 9, 36, 54
2, 5324, Control_c, 9, 16, 0
2, 5325, Note_on_c, 9, 38, 63
2, 5397, Control_c, 9, 4, 90
2, 5400, Note_on_c, 9, 36, 0
2, 5407, Note_on_c, 9, 38, 0
2, 5440, Control_c, 9, 4, 78
2, 5476, Control_c, 9, 4, 54
2, 5507, Control_c, 9, 4, 11
2, 5537, Control_c, 9, 4, 43
2, 5544, Note_on_c, 9, 44, 80
2, 5550, Control_c, 9, 17, 103
2, 5550, Note_on_c, 9, 51, 82
2, 5569, Control_c, 9, 4, 114
2, 5611, Control_c, 9, 4, 93
2, 5626, Note_on_c, 9, 44, 0
2, 5631, Note_on_c, 9, 51, 0
2, 5648, Control_c, 9, 4, 82
2, 5675, Note_on_c, 9, 36, 39
2, 5678, Control_c, 9, 18, 0
2, 5679, Note_on_c, 9, 48, 49
2, 5757, Note_on_c, 9, 36, 0
2, 5760, Note_on_c, 9, 48, 0
2, 5763, Control_c, 9, 4, 96
2, 5803, Control_c, 9, 17, 127
2, 5803, Note_on_c, 9, 51, 69
2, 5808, Note_on_c, 9, 48, 60
2, 5866, Control_c, 9, 4, 91
2, 5884, Note_on_c, 9, 51, 0
2, 5888, Note_on_c, 9, 48, 0
2, 5901, Control_c, 9, 4, 83
2, 5926, Control_c, 9, 17, 0
2, 5927, Note_on_c, 9, 51, 52
2, 5938, Control_c, 9, 4, 70
2, 5981, Control_c, 9, 4, 10
2, 6008, Note_on_c, 9, 51, 0
2, 6014, Control_c, 9, 4, 51
2, 6019, Note_on_c, 9, 44, 80
2, 6026, Note_on_c, 9, 36, 43
2, 6038, Control_c, 9, 17, 0
2, 6039, Note_on_c, 9, 51, 6
2, 6045, Control_c, 9, 4, 114
2, 6076, Control_c, 9, 4, 99
2, 6101, Note_on_c, 9, 44, 0
2, 6109, Note_on_c, 9, 36, 0
2, 6118, Control_c, 9, 4, 85
2, 6120, Note_on_c, 9, 51, 0
2, 6252, Control_c, 9, 4, 94
2, 6270, Control_c, 9, 17, 64
2, 6271, Note_on_c, 9, 51, 87
2, 6278, Note_on_c, 9, 36, 55
2, 6280, Note_on_c, 9, 38, 74
2, 6353, Note_on_c, 9, 51, 0
2, 6360, Note_on_c, 9, 36, 0
2, 6362, Note_on_c, 9, 38, 0
2, 6369, Control_c, 9, 4, 83
2, 6406, Control_c, 9, 4, 70
2, 6451, Control_c, 9, 4, 0
2, 6495, Control_c, 9, 4, 49
2, 6500, Note_on_c, 9, 44, 100
2, 6513, Control_c, 9, 17, 127
2, 6513, Note_on_c, 9, 51, 62
2, 6525, Control_c, 9, 4, 116
2, 6566, Control_c, 9, 4, 95
2, 6581, Note_on_c, 9, 44, 0
2, 6595, Note_on_c, 9, 51, 0
2, 6598, Control_c, 9, 4, 83
2, 6624, Control_c, 9, 18, 0
2, 6625, Note_on_c, 9, 48, 51
2, 6633, Note_on_c, 9, 36, 45
2, 6707, Note_on_c, 9, 48, 0
2, 6715, Note_on_c, 9, 36, 0
2, 6722, Control_c, 9, 4, 98
2, 6751, Note_on_c, 9, 48, 70
2, 6760, Note_on_c, 9, 51, 64
2, 6810, Control_c, 9, 4, 94
2, 6833, Note_on_c, 9, 48, 0
2, 6842, Note_on_c, 9, 51, 0
2, 6855, Control_c, 9, 4, 83
2, 6884, Control_c, 9, 17, 127
2, 6885, Note_on_c, 9, 51, 60
2, 6908, Control_c, 9, 4, 54
2, 6939, Control_c, 9, 4, 0
2, 6966, Note_on_c, 9, 51, 0
2, 6974, Control_c, 9, 4, 50
2, 6978, Note_on_c, 9, 36, 51
2, 6979, Note_on_c, 9, 44, 93
2, 7004, Control_c, 9, 4, 112
2, 7039, Control_c, 9, 4, 98
2, 7060, Note_on_c, 9, 36, 0
2, 7060, Note_on_c, 9, 44, 0
2, 7076, Control_c, 9, 4, 85
2, 7120, Control_c, 9, 17, 66
2, 7121, Note_on_c, 9, 51, 83
2, 7199, Control_c, 9, 4, 96
2, 7202, Note_on_c, 9, 51, 0
2, 7223, Note_on_c, 9, 36, 61
2, 7243, Control_c, 9, 16, 0
2, 7244, Note_on_c, 9, 38, 65
2, 7305, Note_on_c, 9, 36, 0
2, 7320, Control_c, 9, 4, 84
2, 7325, Note_on_c, 9, 38, 0
2, 7360, Control_c, 9, 4, 70
2, 7404, Control_c, 9, 4, 0
2, 7453, Control_c, 9, 4, 50
2, 7454, Control_c, 9, 17, 79
2, 7455, Note_on_c, 9, 51, 77
2, 7458, Note_on_c, 9, 44, 106
2, 7483, Control_c, 9, 4, 114
2, 7516, Control_c, 9, 4, 100
2, 7537, Note_on_c, 9, 51, 0
2, 7539, Note_on_c, 9, 44, 0
2, 7551, Control_c, 9, 4, 85
2, 7585, Note_on_c, 9, 36, 46
2, 7586, Control_c, 9, 18, 0
2, 7587, Note_on_c, 9, 48, 50
2, 7667, Note_on_c, 9, 36, 0
2, 7669, Note_on_c, 9, 48, 0
2, 7680, Control_c, 9, 4, 97
2, 7681, End_track
0, 0, End_of_file
