0, 0, Header, 1, 2, 480
1, 0, Start_track
1, 0, Tempo, 588235
1, 0, Time_signature, 4, 2, 24, 8
1, 0, Key_signature, 0, "major"
1, 1, End_track
2, 0, Start_track
2, 0, Title_t, "Classic Studio Kit"
2, 0, Program_c, 9, 0
2, 0, Control_c, 9, 17, 127
2, 1, Note_on_c, 9, 51, 58
2, 8, Note_on_c, 9, 48, 66
2, 9, Control_c, 9, 4, 112
2, 67, Control_c, 9, 4, 102
2, 83, Note_on_c, 9, 51, 0
2, 89, Note_on_c, 9, 48, 0
2, 100, Control_c, 9, 4, 91
2, 125, Control_c, 9, 17, 127
2, 126, Note_on_c, 9, 51, 66
2, 141, Control_c, 9, 4, 73
2, 181, Control_c, 9, 4, 0
2, 207, Note_on_c, 9, 51, 0
2, 232, Control_c, 9, 4, 35
2, 238, Note_on_c, 9, 44, 126
2, 264, Control_c, 9, 4, 122
2, 280, Note_on_c, 9, 49, 5
2, 320, Note_on_c, 9, 44, 0
2, 325, Control_c, 9, 4, 90
2, 363, Note_on_c, 9, 49, 0
2, 479, Control_c, 9, 4, 102
2, 504, Control_c, 9, 17, 88
2, 505, Control_c, 9, 16, 0
2, 505, Note_on_c, 9, 51, 83
2, 506, Note_on_c, 9, 38, 60
2, 514, Note_on_c, 9, 36, 60
2, 571, Control_c, 9, 4, 92
2, 587, Note_on_c, 9, 51, 0
2, 588, Note_on_c, 9, 38, 0
2, 597, Note_on_c, 9, 36, 0
2, 601, Control_c, 9, 4, 85
2, 633, Control_c, 9, 4, 70
2, 673, Control_c, 9, 4, 0
2, 726, Control_c, 9, 4, 33
2, 733, Note_on_c, 9, 44, 119
2, 745, Control_c, 9, 17, 114
2, 746, Note_on_c, 9, 51, 77
2, 758, Control_c, 9, 4, 118
2, 814, Note_on_c, 9, 44, 0
2, 816, Control_c, 9, 4, 90
2, 826, Note_on_c, 9, 51, 0
2, 850, Control_c, 9, 4, 84
2, 857, Note_on_c, 9, 36, 46
2, 861, Control_c, 9, 18, 0
2, 862, Note_on_c, 9, 48, 47
2, 939, Note_on_c, 9, 36, 0
2, 944, Note_on_c, 9, 48, 0
2, 967, Control_c, 9, 4, 112
2, 979, Control_c, 9, 17, 127
2, 979, Note_on_c, 9, 48, 63
2, 981, Note_on_c, 9, 51, 44
2, 1044, Control_c, 9, 4, 95
2, 1060, Note_on_c, 9, 48, 0
2, 1061, Note_on_c, 9, 51, 0
2, 1079, Control_c, 9, 4, 83
2, 1110, Control_c, 9, 17, 115
2, 1111, Note_on_c, 9, 51, 67
2, 1113, Control_c, 9, 4, 70
2, 1151, Control_c, 9, 4, 0
2, 1193, Note_on_c, 9, 51, 0
2, 1200, Note_on_c, 9, 36, 57
2, 1209, Control_c, 9, 4, 33
2, 1215, Note_on_c, 9, 44, 127
2, 1240, Control_c, 9, 4, 120
2, 1283, Note_on_c, 9, 36, 0
2, 1297, Note_on_c, 9, 44, 0
2, 1308, Control_c, 9, 4, 90
2, 1347, Control_c, 9, 17, 87
2, 1347, Note_on_c, 9, 51, 82
2, 1429, Note_on_c, 9, 51, 0
2, 1461, Control_c, 9, 4, 102
2, 1463, Note_on_c, 9, 36, 77
2, 1464, Note_on_c, 9, 38, 69
2, 1540, Control_c, 9, 4, 88
2, 1544, Note_on_c, 9, 36, 0
2, 1544, Note_on_c, 9, 38, 0
2, 1570, Control_c, 9, 4, 72
2, 1617, Control_c, 9, 4, 0
2, 1686, Control_c, 9, 4, 34
2, 1693, Note_on_c, 9, 44, 126
2, 1695, Control_c, 9, 17, 124
2, 1696, Note_on_c, 9, 51, 86
2, 1718, Control_c, 9, 4, 116
2, 1774, Control_c, 9, 4, 95
2, 1775, Note_on_c, 9, 44, 0
2, 1778, Note_on_c, 9, 51, 0
2, 1818, Control_c, 9, 18, 0
2, 1819, Note_on_c, 9, 48, 44
2, 1820, Control_c, 9, 4, 85
2, 1820, Note_on_c, 9, 36, 39
2, 1900, Note_on_c, 9, 48, 0
2, 1903, Note_on_c, 9, 36, 0
2, 1935, Control_c, 9, 17, 127
2, 1936, Note_on_c, 9, 51, 53
2, 1941, Note_on_c, 9, 48, 64
2, 1943, Control_c, 9, 4, 110
2, 1999, Control_c, 9, 4, 99
2, 2018, Note_on_c, 9, 51, 0
2, 2022, Note_on_c, 9, 48, 0
2, 2037, Control_c, 9, 4, 84
2, 2065, Control_c, 9, 17, 127
2, 2065, Note_on_c, 9, 51, 71
2, 2071, Control_c, 9, 4, 70
2, 2111, Control_c, 9, 4, 0
2, 2147, Note_on_c, 9, 51, 0
2, 2162, Control_c, 9, 4, 32
2, 2164, Note_on_c, 9, 36, 40
2, 2170, Note_on_c, 9, 44, 119
2, 2195, Control_c, 9, 4, 118
2, 2245, Note_on_c, 9, 36, 0
2, 2251, Note_on_c, 9, 44, 0
2, 2263, Control_c, 9, 4, 90
2, 2400, Control_c, 9, 4, 96
2, 2419, Control_c, 9, 17, 89
2, 2420, Note_on_c, 9, 51, 85
2, 2423, Control_c, 9, 16, 0
2, 2424, Note_on_c, 9, 38, 62
2, 2437, Note_on_c, 9, 36, 60
2, 2502, Note_on_c, 9, 51, 0
2, 2505, Note_on_c, 9, 38, 0
2, 2520, Note_on_c, 9, 36, 0
2, 2535, Control_c, 9, 4, 84
2, 2569, Control_c, 9, 4, 70
2, 2614, Control_c, 9, 4, 0
2, 2654, Control_c, 9, 4, 49
2, 2659, Note_on_c, 9, 44, 93
2, 2664, Control_c, 9, 17, 111
2, 2664, Note_on_c, 9, 51, 75
2, 2685, Control_c, 9, 4, 120
2, 2741, Note_on_c, 9, 44, 0
2, 2743, Control_c, 9, 4, 90
2, 2746, Note_on_c, 9, 51, 0
2, 2773, Control_c, 9, 18, 0
2, 2773, Note_on_c, 9, 48, 47
2, 2778, Control_c, 9, 4, 85
2, 2785, Note_on_c, 9, 36, 41
2, 2855, Note_on_c, 9, 48, 0
2, 2866, Note_on_c, 9, 36, 0
2, 2889, Control_c, 9, 17, 127
2, 2890, Note_on_c, 9, 51, 54
2, 2897, Control_c, 9, 4, 120
2, 2897, Note_on_c, 9, 48, 59
2, 2961, Control_c, 9, 4, 96
2, 2972, Note_on_c, 9, 51, 0
2, 2977, Note_on_c, 9, 48, 0
2, 3004, Control_c, 9, 4, 73
2, 3017, Control_c, 9, 17, 110
2, 3017, Note_on_c, 9, 51, 66
2, 3052, Control_c, 9, 4, 0
2, 3099, Note_on_c, 9, 51, 0
2, 3123, Note_on_c, 9, 46, 8
2, 3131, Control_c, 9, 4, 34
2, 3136, Note_on_c, 9, 36, 67
2, 3136, Note_on_c, 9, 44, 127
2, 3161, Control_c, 9, 4, 127
2, 3204, Control_c, 9, 4, 102
2, 3205, Note_on_c, 9, 46, 0
2, 3217, Note_on_c, 9, 44, 0
2, 3218, Note_on_c, 9, 36, 0
2, 3244, Control_c, 9, 4, 72
2, 3254, Control_c, 9, 17, 127
2, 3254, Note_on_c, 9, 51, 54
2, 3291, Control_c, 9, 4, 0
2, 3336, Note_on_c, 9, 51, 0
2, 3355, Note_on_c, 9, 46, 7
2, 3366, Control_c, 9, 4, 33
2, 3371, Note_on_c, 9, 44, 119
2, 3375, Note_on_c, 9, 38, 67
2, 3376, Control_c, 9, 17, 106
2, 3376, Note_on_c, 9, 51, 74
2, 3377, Note_on_c, 9, 36, 75
2, 3397, Control_c, 9, 4, 102
2, 3436, Note_on_c, 9, 46, 0
2, 3449, Control_c, 9, 4, 94
2, 3454, Note_on_c, 9, 44, 0
2, 3456, Note_on_c, 9, 38, 0
2, 3456, Note_on_c, 9, 51, 0
2, 3458, Note_on_c, 9, 36, 0
2, 3485, Control_c, 9, 4, 82
2, 3616, Control_c, 9, 4, 118
2, 3617, Control_c, 9, 17, 123
2, 3617, Note_on_c, 9, 51, 79
2, 3686, Control_c, 9, 4, 90
2, 3699, Note_on_c, 9, 51, 0
2, 3718, Control_c, 9, 4, 72
2, 3733, Control_c, 9, 18, 0
2, 3733, Note_on_c, 9, 36, 51
2, 3735, Note_on_c, 9, 48, 46
2, 3759, Control_c, 9, 4, 0
2, 3815, Note_on_c, 9, 36, 0
2, 3815, Note_on_c, 9, 48, 0
2, 3823, Note_on_c, 9, 46, 10
2, 3831, Control_c, 9, 4, 34
2, 3837, Note_on_c, 9, 44, 127
2, 3859, Note_on_c, 9, 48, 58
2, 3863, Control_c, 9, 4, 127
2, 3865, Control_c, 9, 17, 127
2, 3866, Note_on_c, 9, 51, 45
2, 3897, Control_c, 9, 4, 118
2, 3904, Note_on_c, 9, 46, 0
2, 3919, Note_on_c, 9, 44, 0
2, 3936, Control_c, 9, 4, 90
2, 3939, Note_on_c, 9, 48, 0
2, 3947, Note_on_c, 9, 51, 0
2, 3992, Control_c, 9, 17, 105
2, 3992, Note_on_c, 9, 51, 76
2, 4057, Control_c, 9, 4, 108
2, 4062, Note_on_c, 9, 36, 51
2, 4073, Note_on_c, 9, 51, 0
2, 4094, Control_c, 9, 4, 102
2, 4132, Control_c, 9, 4, 92
2, 4143, Note_on_c, 9, 36, 0
2, 4324, Note_on_c, 9, 36, 70
2, 4328, Control_c, 9, 17, 117
2, 4328, Note_on_c, 9, 51, 85
2, 4330, Control_c, 9, 16, 0
2, 4330, Note_on_c, 9, 38, 71
2, 4346, Control_c, 9, 4, 96
2, 4399, Control_c, 9, 4, 91
2, 4406, Note_on_c, 9, 36, 0
2, 4409, Note_on_c, 9, 51, 0
2, 4412, Note_on_c, 9, 38, 0
2, 4450, Control_c, 9, 4, 69
2, 4481, Control_c, 9, 4, 0
2, 4552, Control_c, 9, 4, 34
2, 4559, Note_on_c, 9, 44, 126
2, 4577, Control_c, 9, 17, 127
2, 4578, Note_on_c, 9, 51, 80
2, 4584, Control_c, 9, 4, 116
2, 4639, Note_on_c, 9, 44, 0
2, 4650, Control_c, 9, 4, 91
2, 4660, Note_on_c, 9, 51, 0
2, 4684, Control_c, 9, 18, 0
2, 4684, Note_on_c, 9, 48, 47
2, 4705, Note_on_c, 9, 36, 62
2, 4765, Note_on_c, 9, 48, 0
2, 4786, Note_on_c, 9, 36, 0
2, 4803, Control_c, 9, 4, 110
2, 4816, Control_c, 9, 17, 0
2, 4816, Note_on_c, 9, 48, 60
2, 4817, Note_on_c, 9, 51, 48
2, 4887, Control_c, 9, 4, 96
2, 4897, Note_on_c, 9, 48, 0
2, 4898, Note_on_c, 9, 51, 0
2, 4926, Control_c, 9, 4, 84
2, 4944, Control_c, 9, 17, 127
2, 4945, Note_on_c, 9, 51, 59
2, 4958, Control_c, 9, 4, 70
2, 4993, Control_c, 9, 4, 0
2, 5025, Note_on_c, 9, 51, 0
2, 5042, Control_c, 9, 4, 49
2, 5047, Note_on_c, 9, 44, 113
2, 5049, Note_on_c, 9, 36, 53
2, 5073, Control_c, 9, 4, 120
2, 5089, Note_on_c, 9, 49, 5
2, 5129, Note_on_c, 9, 44, 0
2, 5131, Note_on_c, 9, 36, 0
2, 5133, Control_c, 9, 4, 91
2, 5171, Note_on_c, 9, 49, 0
2, 5194, Control_c, 9, 17, 45
2, 5194, Note_on_c, 9, 51, 86
2, 5276, Note_on_c, 9, 51, 0
2, 5279, Control_c, 9, 4, 97
2, 5304, Note_on_c, 9, 36, 68
2, 5310, Control_c, 9, 16, 21
2, 5310, Note_on_c, 9, 38, 59
2, 5385, Note_on_c, 9, 36, 0
2, 5388, Control_c, 9, 4, 92
2, 5392, Note_on_c, 9, 38, 0
2, 5433, Control_c, 9, 4, 78
2, 5464, Control_c, 9, 4, 54
2, 5494, Control_c, 9, 4, 0
2, 5536, Control_c, 9, 4, 50
2, 5540, Control_c, 9, 17, 109
2, 5540, Note_on_c, 9, 51, 77
2, 5542, Note_on_c, 9, 44, 93
2, 5566, Control_c, 9, 4, 120
2, 5610, Control_c, 9, 4, 97
2, 5623, Note_on_c, 9, 51, 0
2, 5624, Note_on_c, 9, 44, 0
2, 5649, Control_c, 9, 4, 85
2, 5655, Control_c, 9, 18, 0
2, 5656, Note_on_c, 9, 48, 46
2, 5668, Note_on_c, 9, 36, 48
2, 5736, Note_on_c, 9, 48, 0
2, 5749, Note_on_c, 9, 36, 0
2, 5773, Control_c, 9, 4, 110
2, 5775, Control_c, 9, 17, 127
2, 5775, Note_on_c, 9, 51, 53
2, 5787, Note_on_c, 9, 48, 59
2, 5819, Control_c, 9, 4, 104
2, 5856, Note_on_c, 9, 51, 0
2, 5865, Control_c, 9, 4, 91
2, 5868, Note_on_c, 9, 48, 0
2, 5908, Control_c, 9, 17, 127
2, 5909, Note_on_c, 9, 51, 67
2, 5911, Control_c, 9, 4, 78
2, 5941, Control_c, 9, 4, 54
2, 5974, Control_c, 9, 4, 0
2, 5991, Note_on_c, 9, 51, 0
2, 6008, Control_c, 9, 4, 49
2, 6013, Note_on_c, 9, 44, 93
2, 6016, Note_on_c, 9, 36, 46
2, 6038, Control_c, 9, 4, 120
2, 6094, Note_on_c, 9, 44, 0
2, 6095, Control_c, 9, 4, 91
2, 6098, Note_on_c, 9, 36, 0
2, 6129, Control_c, 9, 4, 86
2, 6236, Control_c, 9, 4, 97
2, 6266, Note_on_c, 9, 36, 58
2, 6267, Control_c, 9, 17, 45
2, 6268, Note_on_c, 9, 51, 87
2, 6278, Control_c, 9, 16, 0
2, 6278, Note_on_c, 9, 38, 59
2, 6348, Note_on_c, 9, 36, 0
2, 6348, Note_on_c, 9, 51, 0
2, 6360, Note_on_c, 9, 38, 0
2, 6371, Control_c, 9, 4, 86
2, 6404, Control_c, 9, 4, 71
2, 6453, Control_c, 9, 4, 0
2, 6497, Control_c, 9, 4, 48
2, 6502, Note_on_c, 9, 44, 106
2, 6517, Control_c, 9, 17, 113
2, 6517, Note_on_c, 9, 51, 68
2, 6528, Control_c, 9, 4, 120
2, 6572, Control_c, 9, 4, 98
2, 6583, Note_on_c, 9, 44, 0
2, 6599, Note_on_c, 9, 51, 0
2, 6613, Control_c, 9, 4, 84
2, 6628, Control_c, 9, 18, 0
2, 6629, Note_on_c, 9, 48, 45
2, 6635, Note_on_c, 9, 36, 46
2, 6710, Note_on_c, 9, 48, 0
2, 6718, Note_on_c, 9, 36, 0
2, 6720, Control_c, 9, 4, 98
2, 6746, Control_c, 9, 17, 127
2, 6747, Note_on_c, 9, 51, 57
2, 6756, Note_on_c, 9, 48, 56
2, 6828, Note_on_c, 9, 51, 0
2, 6831, Control_c, 9, 4, 93
2, 6838, Note_on_c, 9, 48, 0
2, 6875, Control_c, 9, 4, 82
2, 6878, Control_c, 9, 17, 127
2, 6878, Note_on_c, 9, 51, 65
2, 6910, Control_c, 9, 4, 62
2, 6941, Control_c, 9, 4, 16
2, 6959, Note_on_c, 9, 51, 0
2, 6977, Control_c, 9, 4, 59
2, 6981, Note_on_c, 9, 44, 80
2, 6982, Note_on_c, 9, 36, 42
2, 7007, Control_c, 9, 4, 120
2, 7045, Control_c, 9, 4, 97
2, 7063, Note_on_c, 9, 44, 0
2, 7064, Note_on_c, 9, 36, 0
2, 7081, Control_c, 9, 4, 84
2, 7125, Control_c, 9, 17, 70
2, 7126, Note_on_c, 9, 51, 84
2, 7195, Control_c, 9, 4, 96
2, 7207, Note_on_c, 9, 51, 0
2, 7232, Control_c, 9, 16, 21
2, 7233, Note_on_c, 9, 38, 62
2, 7243, Note_on_c, 9, 36, 57
2, 7313, Note_on_c, 9, 38, 0
2, 7325, Note_on_c, 9, 36, 0
2, 7349, Control_c, 9, 4, 84
2, 7388, Control_c, 9, 4, 70
2, 7432, Control_c, 9, 4, 0
2, 7466, Control_c, 9, 17, 110
2, 7466, Note_on_c, 9, 51, 72
2, 7468, Control_c, 9, 4, 49
2, 7473, Note_on_c, 9, 44, 93
2, 7499, Control_c, 9, 4, 120
2, 7544, Control_c, 9, 4, 96
2, 7548, Note_on_c, 9, 51, 0
2, 7554, Note_on_c, 9, 44, 0
2, 7582, Control_c, 9, 4, 84
2, 7590, Control_c, 9, 18, 0
2, 7590, Note_on_c, 9, 48, 45
2, 7592, Note_on_c, 9, 36, 41
2, 7672, Note_on_c, 9, 48, 0
2, 7673, Note_on_c, 9, 36, 0
2, 7674, End_track
0, 0, End_of_file
