0, 0, Header, 1, 2, 480
1, 0, Start_track
1, 0, Tempo, 545454
1, 0, Time_signature, 4, 2, 24, 8
1, 0, Key_signature, 0, "major"
1, 1, End_track
2, 0, Start_track
2, 0, Title_t, "TD-30 #9 Djembe"
2, 0, Program_c, 9, 0
2, 0, Control_c, 9, 16, 0
2, 15, Note_on_c, 9, 38, 22
2, 23, Control_c, 9, 4, 90
2, 98, Control_c, 9, 4, 83
2, 103, Note_on_c, 9, 38, 0
2, 132, Control_c, 9, 4, 70
2, 174, Control_c, 9, 4, 0
2, 176, Note_on_c, 9, 38, 11
2, 248, Note_on_c, 9, 46, 7
2, 263, Note_on_c, 9, 44, 127
2, 264, Note_on_c, 9, 38, 0
2, 266, Control_c, 9, 4, 93
2, 312, Control_c, 9, 4, 62
2, 334, Note_on_c, 9, 46, 0
2, 343, Control_c, 9, 4, 49
2, 351, Note_on_c, 9, 44, 0
2, 377, Control_c, 9, 4, 63
2, 508, Note_on_c, 9, 55, 101
2, 518, Note_on_c, 9, 36, 102
2, 556, Control_c, 9, 4, 59
2, 597, Note_on_c, 9, 55, 0
2, 608, Note_on_c, 9, 36, 0
2, 625, Control_c, 9, 4, 32
2, 655, Control_c, 9, 4, 0
2, 733, Control_c, 9, 4, 64
2, 739, Note_on_c, 9, 44, 67
2, 761, Control_c, 9, 17, 13
2, 762, Note_on_c, 9, 51, 90
2, 766, Control_c, 9, 4, 85
2, 827, Note_on_c, 9, 44, 0
2, 849, Note_on_c, 9, 51, 0
2, 986, Control_c, 9, 17, 39
2, 986, Note_on_c, 9, 51, 104
2, 989, Control_c, 9, 4, 90
2, 1044, Control_c, 9, 17, 39
2, 1045, Note_on_c, 9, 51, 0
2, 1045, Note_on_c, 9, 51, 38
2, 1075, Note_on_c, 9, 51, 0
2, 1093, Control_c, 9, 4, 72
2, 1095, Note_on_c, 9, 38, 25
2, 1143, Control_c, 9, 4, 0
2, 1183, Note_on_c, 9, 38, 0
2, 1217, Control_c, 9, 4, 67
2, 1219, Note_on_c, 9, 44, 113
2, 1224, Control_c, 9, 16, 0
2, 1225, Note_on_c, 9, 38, 30
2, 1247, Control_c, 9, 4, 75
2, 1299, Control_c, 9, 4, 41
2, 1308, Note_on_c, 9, 44, 0
2, 1312, Note_on_c, 9, 38, 0
2, 1359, Control_c, 9, 4, 63
2, 1362, Note_on_c, 9, 38, 21
2, 1446, Control_c, 9, 16, 0
2, 1447, Note_on_c, 9, 40, 80
2, 1450, Note_on_c, 9, 38, 0
2, 1518, Control_c, 9, 4, 57
2, 1535, Note_on_c, 9, 40, 0
2, 1562, Control_c, 9, 4, 36
2, 1593, Control_c, 9, 4, 0
2, 1681, Control_c, 9, 4, 65
2, 1687, Note_on_c, 9, 44, 67
2, 1699, Control_c, 9, 16, 41
2, 1700, Note_on_c, 9, 40, 72
2, 1715, Control_c, 9, 4, 86
2, 1775, Note_on_c, 9, 44, 0
2, 1787, Note_on_c, 9, 40, 0
2, 1945, Control_c, 9, 16, 0
2, 1946, Note_on_c, 9, 40, 73
2, 1950, Control_c, 9, 4, 95
2, 1994, Control_c, 9, 4, 89
2, 2026, Control_c, 9, 4, 71
2, 2034, Note_on_c, 9, 40, 0
2, 2036, Note_on_c, 9, 38, 6
2, 2072, Control_c, 9, 4, 0
2, 2124, Note_on_c, 9, 38, 0
2, 2141, Note_on_c, 9, 46, 7
2, 2154, Control_c, 9, 4, 52
2, 2158, Note_on_c, 9, 44, 126
2, 2179, Note_on_c, 9, 38, 23
2, 2185, Control_c, 9, 4, 79
2, 2228, Note_on_c, 9, 46, 0
2, 2235, Control_c, 9, 4, 48
2, 2246, Note_on_c, 9, 44, 0
2, 2267, Note_on_c, 9, 38, 0
2, 2278, Control_c, 9, 4, 61
2, 2297, Control_c, 9, 16, 0
2, 2297, Note_on_c, 9, 38, 20
2, 2353, Control_c, 9, 4, 65
2, 2386, Note_on_c, 9, 38, 0
2, 2405, Note_on_c, 9, 55, 97
2, 2416, Control_c, 9, 4, 61
2, 2420, Note_on_c, 9, 36, 97
2, 2486, Control_c, 9, 4, 54
2, 2493, Note_on_c, 9, 55, 0
2, 2509, Note_on_c, 9, 36, 0
2, 2519, Control_c, 9, 4, 34
2, 2562, Control_c, 9, 4, 0
2, 2630, Control_c, 9, 4, 60
2, 2639, Note_on_c, 9, 44, 54
2, 2664, Control_c, 9, 17, 19
2, 2664, Note_on_c, 9, 51, 83
2, 2667, Control_c, 9, 4, 80
2, 2727, Note_on_c, 9, 44, 0
2, 2752, Note_on_c, 9, 51, 0
2, 2902, Control_c, 9, 17, 31
2, 2903, Note_on_c, 9, 51, 36
2, 2933, Control_c, 9, 4, 90
2, 2991, Note_on_c, 9, 51, 0
2, 3000, Control_c, 9, 4, 83
2, 3035, Control_c, 9, 4, 70
2, 3086, Control_c, 9, 4, 0
2, 3151, Control_c, 9, 17, 38
2, 3152, Note_on_c, 9, 51, 67
2, 3154, Control_c, 9, 16, 127
2, 3155, Note_on_c, 9, 40, 45
2, 3157, Control_c, 9, 4, 66
2, 3159, Note_on_c, 9, 44, 100
2, 3187, Control_c, 9, 4, 77
2, 3226, Control_c, 9, 4, 54
2, 3240, Note_on_c, 9, 51, 0
2, 3242, Note_on_c, 9, 40, 0
2, 3247, Note_on_c, 9, 44, 0
2, 3274, Control_c, 9, 4, 62
2, 3382, Control_c, 9, 17, 50
2, 3382, Note_on_c, 9, 51, 33
2, 3428, Control_c, 9, 4, 56
2, 3465, Control_c, 9, 4, 37
2, 3471, Note_on_c, 9, 51, 0
2, 3501, Control_c, 9, 4, 0
2, 3599, Control_c, 9, 4, 65
2, 3604, Note_on_c, 9, 44, 67
2, 3618, Control_c, 9, 17, 27
2, 3619, Note_on_c, 9, 51, 52
2, 3631, Control_c, 9, 4, 87
2, 3692, Note_on_c, 9, 44, 0
2, 3705, Note_on_c, 9, 51, 0
2, 3842, Control_c, 9, 4, 92
2, 3880, Control_c, 9, 17, 41
2, 3880, Note_on_c, 9, 51, 77
2, 3883, Control_c, 9, 18, 0
2, 3883, Note_on_c, 9, 48, 85
2, 3925, Control_c, 9, 4, 84
2, 3962, Control_c, 9, 4, 70
2, 3968, Note_on_c, 9, 51, 0
2, 3971, Note_on_c, 9, 48, 0
2, 4008, Control_c, 9, 4, 0
2, 4082, Control_c, 9, 4, 65
2, 4085, Note_on_c, 9, 44, 100
2, 4110, Control_c, 9, 17, 46
2, 4110, Note_on_c, 9, 51, 35
2, 4113, Control_c, 9, 4, 70
2, 4152, Control_c, 9, 4, 48
2, 4173, Note_on_c, 9, 44, 0
2, 4198, Note_on_c, 9, 51, 0
2, 4216, Control_c, 9, 4, 61
2, 4356, Note_on_c, 9, 55, 57
2, 4360, Note_on_c, 9, 36, 84
2, 4388, Control_c, 9, 4, 55
2, 4425, Control_c, 9, 4, 38
2, 4444, Note_on_c, 9, 55, 0
2, 4449, Note_on_c, 9, 36, 0
2, 4458, Control_c, 9, 4, 0
2, 4569, Control_c, 9, 4, 65
2, 4575, Note_on_c, 9, 44, 74
2, 4602, Control_c, 9, 4, 83
2, 4609, Control_c, 9, 17, 22
2, 4609, Note_on_c, 9, 51, 55
2, 4664, Note_on_c, 9, 44, 0
2, 4697, Note_on_c, 9, 51, 0
2, 4826, Control_c, 9, 4, 89
2, 4855, Control_c, 9, 17, 10
2, 4855, Note_on_c, 9, 51, 51
2, 4911, Control_c, 9, 4, 82
2, 4943, Note_on_c, 9, 51, 0
2, 4951, Control_c, 9, 4, 63
2, 4983, Control_c, 9, 4, 0
2, 5060, Note_on_c, 9, 46, 12
2, 5073, Control_c, 9, 4, 51
2, 5078, Note_on_c, 9, 44, 119
2, 5080, Note_on_c, 9, 40, 54
2, 5087, Control_c, 9, 17, 15
2, 5088, Note_on_c, 9, 51, 68
2, 5104, Control_c, 9, 4, 76
2, 5140, Control_c, 9, 4, 48
2, 5148, Note_on_c, 9, 46, 0
2, 5166, Note_on_c, 9, 44, 0
2, 5167, Note_on_c, 9, 40, 0
2, 5170, Control_c, 9, 4, 31
2, 5176, Note_on_c, 9, 51, 0
2, 5221, Control_c, 9, 4, 63
2, 5328, Control_c, 9, 4, 59
2, 5328, Control_c, 9, 17, 12
2, 5330, Note_on_c, 9, 51, 55
2, 5333, Note_on_c, 9, 48, 82
2, 5361, Control_c, 9, 4, 54
2, 5393, Control_c, 9, 4, 36
2, 5418, Note_on_c, 9, 51, 0
2, 5421, Note_on_c, 9, 48, 0
2, 5429, Control_c, 9, 4, 0
2, 5540, Control_c, 9, 4, 66
2, 5545, Note_on_c, 9, 44, 74
2, 5568, Control_c, 9, 17, 48
2, 5568, Note_on_c, 9, 51, 62
2, 5571, Note_on_c, 9, 48, 87
2, 5572, Control_c, 9, 4, 85
2, 5633, Note_on_c, 9, 44, 0
2, 5656, Note_on_c, 9, 51, 0
2, 5658, Note_on_c, 9, 48, 0
2, 5809, Control_c, 9, 17, 34
2, 5809, Note_on_c, 9, 51, 67
2, 5836, Control_c, 9, 4, 95
2, 5882, Control_c, 9, 4, 90
2, 5897, Note_on_c, 9, 51, 0
2, 5914, Control_c, 9, 4, 71
2, 5957, Control_c, 9, 4, 0
2, 6030, Note_on_c, 9, 46, 7
2, 6037, Control_c, 9, 18, 0
2, 6038, Note_on_c, 9, 45, 60
2, 6045, Control_c, 9, 4, 65
2, 6048, Note_on_c, 9, 44, 126
2, 6075, Control_c, 9, 4, 71
2, 6118, Note_on_c, 9, 46, 0
2, 6125, Note_on_c, 9, 45, 0
2, 6127, Control_c, 9, 4, 32
2, 6136, Note_on_c, 9, 44, 0
2, 6186, Control_c, 9, 4, 62
2, 6292, Note_on_c, 9, 36, 86
2, 6293, Note_on_c, 9, 55, 105
2, 6304, Control_c, 9, 4, 57
2, 6357, Control_c, 9, 4, 39
2, 6381, Note_on_c, 9, 36, 0
2, 6381, Note_on_c, 9, 55, 0
2, 6390, Control_c, 9, 4, 0
2, 6503, Control_c, 9, 4, 65
2, 6508, Note_on_c, 9, 44, 67
2, 6525, Control_c, 9, 17, 47
2, 6526, Note_on_c, 9, 51, 61
2, 6536, Control_c, 9, 4, 84
2, 6597, Note_on_c, 9, 44, 0
2, 6613, Note_on_c, 9, 51, 0
2, 6765, Control_c, 9, 17, 31
2, 6766, Note_on_c, 9, 51, 45
2, 6787, Control_c, 9, 4, 90
2, 6854, Note_on_c, 9, 51, 0
2, 6865, Control_c, 9, 4, 83
2, 6897, Control_c, 9, 4, 70
2, 6941, Control_c, 9, 4, 0
2, 7010, Control_c, 9, 16, 127
2, 7011, Note_on_c, 9, 40, 52
2, 7014, Control_c, 9, 17, 35
2, 7015, Note_on_c, 9, 51, 68
2, 7018, Note_on_c, 9, 44, 113
2, 7022, Control_c, 9, 4, 92
2, 7070, Control_c, 9, 4, 61
2, 7099, Note_on_c, 9, 40, 0
2, 7102, Note_on_c, 9, 51, 0
2, 7104, Control_c, 9, 4, 45
2, 7107, Note_on_c, 9, 44, 0
2, 7142, Control_c, 9, 4, 63
2, 7254, Control_c, 9, 17, 38
2, 7255, Note_on_c, 9, 51, 39
2, 7265, Control_c, 9, 4, 59
2, 7298, Control_c, 9, 4, 45
2, 7336, Control_c, 9, 4, 0
2, 7343, Note_on_c, 9, 51, 0
2, 7454, Control_c, 9, 4, 65
2, 7458, Note_on_c, 9, 44, 74
2, 7472, Control_c, 9, 17, 65
2, 7473, Note_on_c, 9, 51, 76
2, 7487, Control_c, 9, 4, 88
2, 7548, Note_on_c, 9, 44, 0
2, 7560, Note_on_c, 9, 51, 0
2, 7581, Control_c, 9, 4, 84
2, 7582, End_track
0, 0, End_of_file
