0, 0, Header, 1, 2, 480
1, 0, Start_track
1, 0, Tempo, 588235
1, 0, Time_signature, 4, 2, 24, 8
1, 0, Key_signature, 0, "major"
1, 1, End_track
2, 0, Start_track
2, 0, Title_t, "Classic Studio Kit"
2, 0, Program_c, 9, 0
2, 0, Control_c, 9, 18, 0
2, 19, Control_c, 9, 4, 100
2, 49, Control_c, 9, 17, 44
2, 49, Note_on_c, 9, 51, 71
2, 122, Control_c, 9, 4, 93
2, 131, Note_on_c, 9, 51, 0
2, 158, Control_c, 9, 4, 75
2, 167, Control_c, 9, 17, 58
2, 168, Note_on_c, 9, 51, 86
2, 194, Control_c, 9, 4, 0
2, 249, Note_on_c, 9, 51, 0
2, 268, Note_on_c, 9, 44, 127
2, 274, Control_c, 9, 4, 127
2, 279, Control_c, 9, 16, 126
2, 280, Note_on_c, 9, 40, 64
2, 321, Control_c, 9, 4, 97
2, 349, Note_on_c, 9, 44, 0
2, 360, Note_on_c, 9, 40, 0
2, 361, Control_c, 9, 4, 85
2, 401, Control_c, 9, 17, 46
2, 402, Note_on_c, 9, 51, 58
2, 473, Control_c, 9, 4, 95
2, 484, Note_on_c, 9, 51, 0
2, 518, Note_on_c, 9, 36, 64
2, 524, Control_c, 9, 17, 36
2, 524, Note_on_c, 9, 51, 84
2, 600, Note_on_c, 9, 36, 0
2, 606, Note_on_c, 9, 51, 0
2, 614, Control_c, 9, 4, 90
2, 659, Control_c, 9, 4, 85
2, 706, Control_c, 9, 4, 81
2, 753, Control_c, 9, 16, 126
2, 754, Control_c, 9, 4, 110
2, 754, Control_c, 9, 17, 61
2, 754, Note_on_c, 9, 40, 63
2, 755, Note_on_c, 9, 51, 83
2, 785, Control_c, 9, 4, 104
2, 833, Control_c, 9, 4, 92
2, 835, Note_on_c, 9, 40, 0
2, 835, Note_on_c, 9, 51, 0
2, 845, Control_c, 9, 16, 0
2, 846, Note_on_c, 9, 38, 5
2, 869, Control_c, 9, 4, 87
2, 927, Note_on_c, 9, 38, 0
2, 967, Control_c, 9, 4, 93
2, 999, Control_c, 9, 17, 43
2, 999, Note_on_c, 9, 51, 90
2, 1002, Control_c, 9, 4, 102
2, 1068, Control_c, 9, 4, 90
2, 1082, Note_on_c, 9, 51, 0
2, 1108, Control_c, 9, 4, 73
2, 1123, Control_c, 9, 16, 0
2, 1123, Note_on_c, 9, 38, 18
2, 1150, Control_c, 9, 4, 0
2, 1206, Note_on_c, 9, 38, 0
2, 1225, Note_on_c, 9, 44, 119
2, 1233, Control_c, 9, 4, 127
2, 1267, Control_c, 9, 4, 100
2, 1308, Note_on_c, 9, 44, 0
2, 1319, Control_c, 9, 4, 89
2, 1485, Control_c, 9, 17, 2
2, 1485, Note_on_c, 9, 51, 110
2, 1486, Note_on_c, 9, 36, 58
2, 1499, Control_c, 9, 4, 95
2, 1567, Note_on_c, 9, 36, 0
2, 1567, Note_on_c, 9, 51, 0
2, 1599, Control_c, 9, 4, 83
2, 1646, Control_c, 9, 4, 53
2, 1677, Control_c, 9, 4, 11
2, 1712, Note_on_c, 9, 44, 74
2, 1718, Control_c, 9, 4, 110
2, 1722, Control_c, 9, 17, 64
2, 1722, Note_on_c, 9, 51, 94
2, 1724, Control_c, 9, 16, 54
2, 1724, Note_on_c, 9, 40, 69
2, 1754, Control_c, 9, 4, 95
2, 1795, Note_on_c, 9, 44, 0
2, 1797, Control_c, 9, 4, 90
2, 1805, Note_on_c, 9, 40, 0
2, 1805, Note_on_c, 9, 51, 0
2, 1927, Control_c, 9, 4, 97
2, 1965, Control_c, 9, 4, 102
2, 1966, Control_c, 9, 17, 68
2, 1966, Note_on_c, 9, 51, 90
2, 2004, Control_c, 9, 4, 94
2, 2040, Control_c, 9, 4, 79
2, 2049, Note_on_c, 9, 51, 0
2, 2077, Control_c, 9, 16, 0
2, 2077, Note_on_c, 9, 38, 34
2, 2079, Control_c, 9, 4, 0
2, 2160, Note_on_c, 9, 38, 0
2, 2164, Note_on_c, 9, 46, 12
2, 2176, Note_on_c, 9, 44, 127
2, 2181, Control_c, 9, 4, 112
2, 2204, Note_on_c, 9, 38, 38
2, 2217, Control_c, 9, 4, 59
2, 2245, Note_on_c, 9, 46, 0
2, 2253, Control_c, 9, 4, 4
2, 2257, Note_on_c, 9, 44, 0
2, 2286, Note_on_c, 9, 38, 0
2, 2303, Control_c, 9, 4, 31
2, 2325, Control_c, 9, 16, 0
2, 2325, Note_on_c, 9, 38, 30
2, 2333, Control_c, 9, 4, 45
2, 2406, Control_c, 9, 4, 40
2, 2408, Note_on_c, 9, 38, 0
2, 2425, Note_on_c, 9, 40, 92
2, 2443, Control_c, 9, 4, 23
2, 2484, Control_c, 9, 4, 0
2, 2506, Note_on_c, 9, 40, 0
2, 2536, Control_c, 9, 16, 0
2, 2536, Note_on_c, 9, 38, 7
2, 2618, Note_on_c, 9, 38, 0
2, 2627, Control_c, 9, 4, 64
2, 2635, Note_on_c, 9, 44, 54
2, 2651, Note_on_c, 9, 38, 48
2, 2660, Control_c, 9, 4, 85
2, 2705, Control_c, 9, 4, 89
2, 2717, Note_on_c, 9, 44, 0
2, 2732, Note_on_c, 9, 38, 0
2, 2803, Control_c, 9, 16, 0
2, 2804, Note_on_c, 9, 38, 22
2, 2886, Note_on_c, 9, 38, 0
2, 2892, Control_c, 9, 4, 96
2, 2907, Control_c, 9, 16, 64
2, 2907, Note_on_c, 9, 38, 70
2, 2990, Note_on_c, 9, 38, 0
2, 3007, Control_c, 9, 4, 83
2, 3041, Control_c, 9, 4, 70
2, 3082, Control_c, 9, 4, 27
2, 3118, Control_c, 9, 4, 34
2, 3130, Note_on_c, 9, 44, 61
2, 3148, Control_c, 9, 4, 118
2, 3178, Control_c, 9, 4, 104
2, 3211, Note_on_c, 9, 44, 0
2, 3212, Control_c, 9, 4, 90
2, 3381, Control_c, 9, 16, 6
2, 3382, Note_on_c, 9, 40, 72
2, 3382, Note_on_c, 9, 53, 104
2, 3385, Note_on_c, 9, 36, 60
2, 3424, Control_c, 9, 4, 102
2, 3464, Note_on_c, 9, 40, 0
2, 3464, Note_on_c, 9, 53, 0
2, 3468, Note_on_c, 9, 36, 0
2, 3473, Control_c, 9, 4, 90
2, 3500, Control_c, 9, 16, 0
2, 3500, Note_on_c, 9, 38, 6
2, 3505, Control_c, 9, 4, 72
2, 3555, Control_c, 9, 4, 0
2, 3582, Note_on_c, 9, 38, 0
2, 3613, Control_c, 9, 4, 35
2, 3619, Note_on_c, 9, 44, 106
2, 3625, Control_c, 9, 17, 29
2, 3626, Note_on_c, 9, 51, 73
2, 3645, Control_c, 9, 4, 120
2, 3686, Control_c, 9, 4, 99
2, 3702, Note_on_c, 9, 44, 0
2, 3708, Note_on_c, 9, 51, 0
2, 3727, Control_c, 9, 4, 89
2, 3744, Note_on_c, 9, 48, 62
2, 3745, Note_on_c, 9, 36, 68
2, 3826, Note_on_c, 9, 48, 0
2, 3827, Note_on_c, 9, 36, 0
2, 3867, Control_c, 9, 17, 15
2, 3868, Control_c, 9, 4, 110
2, 3868, Note_on_c, 9, 51, 69
2, 3949, Control_c, 9, 4, 92
2, 3949, Note_on_c, 9, 51, 0
2, 3987, Control_c, 9, 4, 71
2, 3989, Control_c, 9, 17, 72
2, 3989, Note_on_c, 9, 51, 69
2, 4023, Control_c, 9, 4, 0
2, 4072, Note_on_c, 9, 51, 0
2, 4089, Note_on_c, 9, 36, 67
2, 4096, Note_on_c, 9, 44, 127
2, 4102, Control_c, 9, 4, 127
2, 4107, Note_on_c, 9, 38, 40
2, 4138, Control_c, 9, 4, 99
2, 4171, Note_on_c, 9, 36, 0
2, 4178, Note_on_c, 9, 44, 0
2, 4187, Note_on_c, 9, 38, 0
2, 4191, Control_c, 9, 4, 87
2, 4235, Control_c, 9, 17, 15
2, 4236, Note_on_c, 9, 51, 57
2, 4287, Control_c, 9, 4, 94
2, 4317, Note_on_c, 9, 51, 0
2, 4326, Control_c, 9, 4, 96
2, 4326, Note_on_c, 9, 36, 88
2, 4348, Control_c, 9, 18, 0
2, 4348, Note_on_c, 9, 48, 65
2, 4352, Control_c, 9, 17, 3
2, 4353, Note_on_c, 9, 51, 82
2, 4409, Note_on_c, 9, 36, 0
2, 4430, Note_on_c, 9, 48, 0
2, 4433, Note_on_c, 9, 51, 0
2, 4441, Control_c, 9, 4, 90
2, 4475, Control_c, 9, 4, 71
2, 4512, Control_c, 9, 4, 0
2, 4573, Control_c, 9, 4, 17
2, 4581, Note_on_c, 9, 44, 126
2, 4582, Control_c, 9, 17, 22
2, 4582, Note_on_c, 9, 51, 77
2, 4604, Control_c, 9, 4, 120
2, 4635, Control_c, 9, 4, 112
2, 4663, Note_on_c, 9, 44, 0
2, 4663, Note_on_c, 9, 51, 0
2, 4668, Control_c, 9, 4, 92
2, 4698, Control_c, 9, 16, 0
2, 4699, Control_c, 9, 4, 87
2, 4699, Note_on_c, 9, 38, 33
2, 4715, Note_on_c, 9, 36, 50
2, 4781, Note_on_c, 9, 38, 0
2, 4796, Note_on_c, 9, 36, 0
2, 4820, Control_c, 9, 4, 108
2, 4827, Control_c, 9, 17, 5
2, 4827, Note_on_c, 9, 51, 77
2, 4884, Control_c, 9, 4, 102
2, 4910, Note_on_c, 9, 51, 0
2, 4917, Control_c, 9, 4, 90
2, 4947, Control_c, 9, 4, 74
2, 4949, Control_c, 9, 17, 98
2, 4950, Note_on_c, 9, 51, 65
2, 4985, Control_c, 9, 4, 0
2, 5031, Note_on_c, 9, 51, 0
2, 5049, Control_c, 9, 4, 32
2, 5052, Note_on_c, 9, 36, 67
2, 5055, Note_on_c, 9, 44, 127
2, 5080, Control_c, 9, 4, 127
2, 5112, Control_c, 9, 4, 100
2, 5134, Note_on_c, 9, 36, 0
2, 5136, Note_on_c, 9, 44, 0
2, 5150, Control_c, 9, 4, 87
2, 5265, Control_c, 9, 4, 97
2, 5299, Note_on_c, 9, 36, 74
2, 5303, Control_c, 9, 17, 0
2, 5303, Note_on_c, 9, 51, 124
2, 5314, Note_on_c, 9, 40, 73
2, 5354, Control_c, 9, 4, 104
2, 5381, Note_on_c, 9, 36, 0
2, 5384, Note_on_c, 9, 51, 0
2, 5395, Control_c, 9, 4, 97
2, 5395, Note_on_c, 9, 40, 0
2, 5438, Control_c, 9, 4, 70
2, 5471, Control_c, 9, 4, 0
2, 5536, Control_c, 9, 4, 33
2, 5541, Note_on_c, 9, 44, 127
2, 5548, Control_c, 9, 17, 49
2, 5549, Note_on_c, 9, 51, 66
2, 5567, Control_c, 9, 4, 127
2, 5617, Control_c, 9, 4, 97
2, 5623, Note_on_c, 9, 44, 0
2, 5629, Note_on_c, 9, 51, 0
2, 5656, Control_c, 9, 4, 88
2, 5659, Note_on_c, 9, 36, 48
2, 5668, Note_on_c, 9, 48, 49
2, 5742, Note_on_c, 9, 36, 0
2, 5748, Note_on_c, 9, 48, 0
2, 5769, Control_c, 9, 4, 116
2, 5779, Control_c, 9, 17, 36
2, 5779, Note_on_c, 9, 51, 67
2, 5780, Control_c, 9, 18, 0
2, 5781, Note_on_c, 9, 48, 82
2, 5853, Control_c, 9, 4, 102
2, 5861, Note_on_c, 9, 48, 0
2, 5861, Note_on_c, 9, 51, 0
2, 5883, Control_c, 9, 4, 90
2, 5899, Control_c, 9, 17, 42
2, 5900, Note_on_c, 9, 51, 73
2, 5914, Control_c, 9, 4, 71
2, 5952, Control_c, 9, 4, 0
2, 5982, Note_on_c, 9, 51, 0
2, 6001, Note_on_c, 9, 36, 67
2, 6009, Control_c, 9, 4, 33
2, 6014, Note_on_c, 9, 44, 127
2, 6040, Control_c, 9, 4, 127
2, 6083, Note_on_c, 9, 36, 0
2, 6094, Control_c, 9, 4, 91
2, 6097, Note_on_c, 9, 44, 0
2, 6128, Control_c, 9, 4, 87
2, 6156, Control_c, 9, 17, 0
2, 6156, Note_on_c, 9, 51, 86
2, 6226, Control_c, 9, 4, 94
2, 6237, Note_on_c, 9, 51, 0
2, 6261, Note_on_c, 9, 36, 80
2, 6262, Control_c, 9, 16, 0
2, 6262, Note_on_c, 9, 40, 86
2, 6304, Control_c, 9, 4, 98
2, 6342, Note_on_c, 9, 36, 0
2, 6342, Note_on_c, 9, 40, 0
2, 6357, Control_c, 9, 4, 91
2, 6368, Control_c, 9, 16, 0
2, 6369, Note_on_c, 9, 38, 4
2, 6389, Control_c, 9, 4, 71
2, 6426, Control_c, 9, 4, 0
2, 6451, Note_on_c, 9, 38, 0
2, 6488, Control_c, 9, 4, 34
2, 6494, Note_on_c, 9, 44, 127
2, 6497, Control_c, 9, 17, 7
2, 6497, Note_on_c, 9, 51, 96
2, 6520, Control_c, 9, 4, 126
2, 6568, Control_c, 9, 4, 95
2, 6578, Note_on_c, 9, 44, 0
2, 6579, Note_on_c, 9, 51, 0
2, 6615, Note_on_c, 9, 36, 59
2, 6617, Control_c, 9, 4, 85
2, 6697, Note_on_c, 9, 36, 0
2, 6723, Control_c, 9, 4, 108
2, 6750, Control_c, 9, 17, 46
2, 6750, Note_on_c, 9, 48, 79
2, 6751, Note_on_c, 9, 51, 81
2, 6800, Control_c, 9, 4, 104
2, 6831, Note_on_c, 9, 48, 0
2, 6831, Note_on_c, 9, 51, 0
2, 6836, Control_c, 9, 4, 90
2, 6881, Control_c, 9, 4, 68
2, 6912, Control_c, 9, 4, 0
2, 6970, Note_on_c, 9, 44, 119
2, 6976, Note_on_c, 9, 36, 61
2, 6978, Control_c, 9, 4, 127
2, 7011, Control_c, 9, 17, 31
2, 7012, Note_on_c, 9, 51, 48
2, 7016, Control_c, 9, 4, 110
2, 7050, Control_c, 9, 4, 92
2, 7052, Note_on_c, 9, 44, 0
2, 7058, Note_on_c, 9, 36, 0
2, 7087, Control_c, 9, 4, 88
2, 7094, Note_on_c, 9, 51, 0
2, 7188, Control_c, 9, 4, 92
2, 7236, Note_on_c, 9, 36, 78
2, 7242, Control_c, 9, 16, 127
2, 7243, Note_on_c, 9, 38, 69
2, 7248, Control_c, 9, 17, 0
2, 7248, Note_on_c, 9, 51, 111
2, 7289, Control_c, 9, 4, 102
2, 7318, Note_on_c, 9, 36, 0
2, 7325, Note_on_c, 9, 38, 0
2, 7330, Note_on_c, 9, 51, 0
2, 7338, Control_c, 9, 4, 90
2, 7359, Control_c, 9, 16, 0
2, 7359, Note_on_c, 9, 38, 10
2, 7369, Control_c, 9, 4, 70
2, 7402, Control_c, 9, 4, 0
2, 7442, Note_on_c, 9, 38, 0
2, 7473, Note_on_c, 9, 44, 127
2, 7478, Control_c, 9, 4, 127
2, 7482, Control_c, 9, 17, 44
2, 7483, Note_on_c, 9, 51, 72
2, 7523, Control_c, 9, 4, 114
2, 7555, Note_on_c, 9, 44, 0
2, 7564, Note_on_c, 9, 51, 0
2, 7566, Control_c, 9, 4, 91
2, 7594, Note_on_c, 9, 36, 73
2, 7611, Control_c, 9, 18, 0
2, 7676, Note_on_c, 9, 36, 0
2, 7677, End_track
0, 0, End_of_file
