0, 0, Header, 1, 2, 480
1, 0, Start_track
1, 0, Tempo, 588235
1, 0, Time_signature, 4, 2, 24, 8
1, 0, Key_signature, 0, "major"
1, 1, End_track
2, 0, Start_track
2, 0, Title_t, "Classic Studio Kit"
2, 0, Program_c, 9, 0
2, 0, Control_c, 9, 18, 0
2, 25, Control_c, 9, 4, 114
2, 36, Note_on_c, 9, 48, 63
2, 37, Note_on_c, 9, 51, 61
2, 87, Control_c, 9, 4, 99
2, 117, Note_on_c, 9, 48, 0
2, 119, Note_on_c, 9, 51, 0
2, 130, Control_c, 9, 4, 84
2, 154, Control_c, 9, 17, 127
2, 155, Note_on_c, 9, 51, 68
2, 164, Control_c, 9, 4, 70
2, 205, Control_c, 9, 4, 0
2, 236, Note_on_c, 9, 51, 0
2, 257, Control_c, 9, 4, 49
2, 258, Note_on_c, 9, 36, 54
2, 261, Note_on_c, 9, 44, 119
2, 287, Control_c, 9, 4, 120
2, 340, Note_on_c, 9, 36, 0
2, 342, Note_on_c, 9, 44, 0
2, 346, Control_c, 9, 4, 90
2, 384, Control_c, 9, 4, 86
2, 499, Control_c, 9, 4, 99
2, 502, Note_on_c, 9, 36, 55
2, 507, Control_c, 9, 17, 79
2, 507, Note_on_c, 9, 51, 82
2, 515, Control_c, 9, 16, 21
2, 516, Note_on_c, 9, 38, 62
2, 583, Note_on_c, 9, 36, 0
2, 588, Note_on_c, 9, 51, 0
2, 596, Note_on_c, 9, 38, 0
2, 603, Control_c, 9, 4, 87
2, 637, Control_c, 9, 4, 73
2, 687, Control_c, 9, 4, 0
2, 743, Control_c, 9, 4, 49
2, 748, Note_on_c, 9, 44, 119
2, 753, Control_c, 9, 17, 127
2, 754, Note_on_c, 9, 51, 76
2, 773, Control_c, 9, 4, 120
2, 817, Control_c, 9, 4, 96
2, 830, Note_on_c, 9, 44, 0
2, 834, Note_on_c, 9, 51, 0
2, 856, Control_c, 9, 4, 84
2, 868, Note_on_c, 9, 36, 32
2, 874, Control_c, 9, 18, 0
2, 874, Note_on_c, 9, 48, 48
2, 950, Note_on_c, 9, 36, 0
2, 956, Note_on_c, 9, 48, 0
2, 986, Control_c, 9, 4, 112
2, 988, Note_on_c, 9, 51, 56
2, 1002, Note_on_c, 9, 48, 62
2, 1054, Control_c, 9, 4, 97
2, 1070, Note_on_c, 9, 51, 0
2, 1083, Note_on_c, 9, 48, 0
2, 1100, Control_c, 9, 4, 83
2, 1114, Control_c, 9, 17, 127
2, 1116, Note_on_c, 9, 51, 70
2, 1134, Control_c, 9, 4, 69
2, 1165, Control_c, 9, 4, 0
2, 1198, Note_on_c, 9, 51, 0
2, 1226, Note_on_c, 9, 36, 54
2, 1227, Control_c, 9, 4, 33
2, 1233, Note_on_c, 9, 44, 127
2, 1258, Control_c, 9, 4, 120
2, 1308, Note_on_c, 9, 36, 0
2, 1314, Note_on_c, 9, 44, 0
2, 1328, Control_c, 9, 4, 89
2, 1342, Control_c, 9, 17, 74
2, 1343, Note_on_c, 9, 51, 50
2, 1358, Control_c, 9, 4, 85
2, 1425, Note_on_c, 9, 51, 0
2, 1460, Control_c, 9, 4, 98
2, 1465, Note_on_c, 9, 36, 71
2, 1479, Control_c, 9, 16, 0
2, 1480, Note_on_c, 9, 38, 70
2, 1546, Note_on_c, 9, 36, 0
2, 1561, Note_on_c, 9, 38, 0
2, 1580, Control_c, 9, 4, 84
2, 1614, Control_c, 9, 4, 70
2, 1660, Control_c, 9, 4, 0
2, 1703, Control_c, 9, 4, 32
2, 1704, Control_c, 9, 17, 96
2, 1704, Note_on_c, 9, 51, 75
2, 1710, Note_on_c, 9, 44, 106
2, 1735, Control_c, 9, 4, 120
2, 1785, Note_on_c, 9, 51, 0
2, 1792, Note_on_c, 9, 44, 0
2, 1800, Control_c, 9, 4, 90
2, 1827, Control_c, 9, 18, 0
2, 1828, Note_on_c, 9, 48, 47
2, 1829, Note_on_c, 9, 36, 48
2, 1831, Control_c, 9, 4, 84
2, 1909, Note_on_c, 9, 48, 0
2, 1912, Note_on_c, 9, 36, 0
2, 1952, Control_c, 9, 4, 112
2, 1959, Note_on_c, 9, 48, 65
2, 1960, Control_c, 9, 17, 127
2, 1961, Note_on_c, 9, 51, 52
2, 2020, Control_c, 9, 4, 96
2, 2041, Note_on_c, 9, 48, 0
2, 2041, Note_on_c, 9, 51, 0
2, 2063, Control_c, 9, 4, 84
2, 2080, Control_c, 9, 17, 127
2, 2081, Note_on_c, 9, 51, 60
2, 2096, Control_c, 9, 4, 70
2, 2136, Control_c, 9, 4, 0
2, 2161, Note_on_c, 9, 51, 0
2, 2183, Control_c, 9, 4, 32
2, 2184, Note_on_c, 9, 36, 57
2, 2190, Note_on_c, 9, 44, 113
2, 2215, Control_c, 9, 4, 120
2, 2267, Note_on_c, 9, 36, 0
2, 2271, Note_on_c, 9, 44, 0
2, 2276, Control_c, 9, 4, 90
2, 2311, Control_c, 9, 4, 85
2, 2415, Control_c, 9, 4, 97
2, 2417, Note_on_c, 9, 36, 58
2, 2422, Control_c, 9, 16, 0
2, 2423, Note_on_c, 9, 38, 74
2, 2424, Control_c, 9, 17, 44
2, 2424, Note_on_c, 9, 51, 82
2, 2499, Note_on_c, 9, 36, 0
2, 2504, Note_on_c, 9, 38, 0
2, 2506, Note_on_c, 9, 51, 0
2, 2525, Control_c, 9, 4, 83
2, 2561, Control_c, 9, 4, 70
2, 2604, Control_c, 9, 4, 0
2, 2655, Control_c, 9, 4, 34
2, 2662, Note_on_c, 9, 44, 113
2, 2675, Control_c, 9, 17, 87
2, 2675, Note_on_c, 9, 51, 71
2, 2688, Control_c, 9, 4, 120
2, 2743, Note_on_c, 9, 44, 0
2, 2745, Control_c, 9, 4, 90
2, 2756, Note_on_c, 9, 51, 0
2, 2776, Control_c, 9, 4, 84
2, 2787, Note_on_c, 9, 36, 44
2, 2790, Control_c, 9, 18, 0
2, 2791, Note_on_c, 9, 48, 48
2, 2869, Note_on_c, 9, 36, 0
2, 2873, Note_on_c, 9, 48, 0
2, 2899, Control_c, 9, 4, 108
2, 2920, Note_on_c, 9, 48, 64
2, 2924, Control_c, 9, 17, 0
2, 2924, Note_on_c, 9, 51, 62
2, 2976, Control_c, 9, 4, 94
2, 3002, Note_on_c, 9, 48, 0
2, 3006, Note_on_c, 9, 51, 0
2, 3013, Control_c, 9, 4, 82
2, 3046, Control_c, 9, 4, 69
2, 3052, Control_c, 9, 17, 127
2, 3053, Note_on_c, 9, 51, 66
2, 3080, Control_c, 9, 4, 0
2, 3135, Note_on_c, 9, 51, 0
2, 3138, Note_on_c, 9, 36, 50
2, 3140, Control_c, 9, 4, 35
2, 3146, Note_on_c, 9, 44, 127
2, 3166, Control_c, 9, 17, 127
2, 3166, Note_on_c, 9, 51, 6
2, 3171, Control_c, 9, 4, 120
2, 3215, Control_c, 9, 4, 96
2, 3220, Note_on_c, 9, 36, 0
2, 3228, Note_on_c, 9, 44, 0
2, 3248, Note_on_c, 9, 51, 0
2, 3256, Control_c, 9, 4, 85
2, 3286, Control_c, 9, 17, 84
2, 3286, Note_on_c, 9, 51, 72
2, 3365, Control_c, 9, 4, 99
2, 3368, Note_on_c, 9, 51, 0
2, 3376, Note_on_c, 9, 36, 67
2, 3403, Control_c, 9, 16, 21
2, 3403, Note_on_c, 9, 38, 62
2, 3448, Control_c, 9, 4, 94
2, 3459, Note_on_c, 9, 36, 0
2, 3485, Note_on_c, 9, 38, 0
2, 3491, Control_c, 9, 4, 83
2, 3525, Control_c, 9, 4, 70
2, 3566, Control_c, 9, 4, 0
2, 3619, Control_c, 9, 4, 48
2, 3624, Note_on_c, 9, 44, 113
2, 3636, Control_c, 9, 17, 127
2, 3637, Note_on_c, 9, 51, 70
2, 3650, Control_c, 9, 4, 118
2, 3693, Control_c, 9, 4, 96
2, 3707, Note_on_c, 9, 44, 0
2, 3719, Note_on_c, 9, 51, 0
2, 3729, Control_c, 9, 4, 84
2, 3744, Note_on_c, 9, 36, 47
2, 3754, Note_on_c, 9, 51, 6
2, 3756, Control_c, 9, 18, 0
2, 3756, Note_on_c, 9, 48, 46
2, 3828, Note_on_c, 9, 36, 0
2, 3837, Note_on_c, 9, 51, 0
2, 3838, Note_on_c, 9, 48, 0
2, 3849, Control_c, 9, 4, 100
2, 3884, Note_on_c, 9, 48, 67
2, 3885, Control_c, 9, 17, 127
2, 3885, Note_on_c, 9, 51, 63
2, 3944, Control_c, 9, 4, 95
2, 3966, Note_on_c, 9, 48, 0
2, 3966, Note_on_c, 9, 51, 0
2, 3984, Control_c, 9, 4, 83
2, 4007, Control_c, 9, 17, 127
2, 4007, Note_on_c, 9, 51, 55
2, 4017, Control_c, 9, 4, 70
2, 4054, Control_c, 9, 4, 0
2, 4090, Note_on_c, 9, 51, 0
2, 4101, Control_c, 9, 4, 33
2, 4105, Note_on_c, 9, 36, 50
2, 4107, Note_on_c, 9, 44, 113
2, 4133, Control_c, 9, 4, 116
2, 4187, Note_on_c, 9, 36, 0
2, 4189, Note_on_c, 9, 44, 0
2, 4194, Control_c, 9, 4, 90
2, 4229, Control_c, 9, 4, 86
2, 4341, Control_c, 9, 4, 95
2, 4353, Control_c, 9, 17, 75
2, 4353, Note_on_c, 9, 36, 67
2, 4353, Note_on_c, 9, 51, 81
2, 4359, Control_c, 9, 16, 0
2, 4360, Note_on_c, 9, 38, 69
2, 4435, Note_on_c, 9, 36, 0
2, 4435, Note_on_c, 9, 51, 0
2, 4440, Note_on_c, 9, 38, 0
2, 4458, Control_c, 9, 4, 83
2, 4495, Control_c, 9, 4, 70
2, 4532, Control_c, 9, 4, 0
2, 4591, Control_c, 9, 4, 33
2, 4596, Note_on_c, 9, 44, 126
2, 4599, Control_c, 9, 17, 120
2, 4599, Note_on_c, 9, 51, 76
2, 4622, Control_c, 9, 4, 114
2, 4666, Control_c, 9, 4, 99
2, 4678, Note_on_c, 9, 44, 0
2, 4681, Note_on_c, 9, 51, 0
2, 4710, Control_c, 9, 4, 87
2, 4717, Control_c, 9, 18, 0
2, 4717, Note_on_c, 9, 48, 46
2, 4720, Note_on_c, 9, 36, 45
2, 4799, Note_on_c, 9, 48, 0
2, 4802, Note_on_c, 9, 36, 0
2, 4840, Control_c, 9, 17, 0
2, 4841, Control_c, 9, 4, 116
2, 4841, Note_on_c, 9, 51, 57
2, 4843, Note_on_c, 9, 48, 63
2, 4908, Control_c, 9, 4, 90
2, 4922, Note_on_c, 9, 51, 0
2, 4926, Note_on_c, 9, 48, 0
2, 4941, Control_c, 9, 4, 73
2, 4960, Control_c, 9, 17, 127
2, 4961, Note_on_c, 9, 51, 59
2, 4990, Control_c, 9, 4, 0
2, 5041, Note_on_c, 9, 51, 0
2, 5059, Note_on_c, 9, 46, 8
2, 5062, Note_on_c, 9, 36, 68
2, 5066, Control_c, 9, 4, 33
2, 5072, Note_on_c, 9, 44, 127
2, 5097, Control_c, 9, 4, 122
2, 5134, Control_c, 9, 4, 108
2, 5140, Note_on_c, 9, 46, 0
2, 5144, Note_on_c, 9, 36, 0
2, 5153, Note_on_c, 9, 44, 0
2, 5172, Control_c, 9, 4, 71
2, 5187, Control_c, 9, 17, 127
2, 5188, Note_on_c, 9, 51, 43
2, 5210, Control_c, 9, 4, 0
2, 5269, Note_on_c, 9, 51, 0
2, 5292, Control_c, 9, 4, 33
2, 5299, Note_on_c, 9, 44, 119
2, 5304, Note_on_c, 9, 36, 82
2, 5311, Control_c, 9, 17, 108
2, 5312, Note_on_c, 9, 51, 77
2, 5313, Note_on_c, 9, 38, 82
2, 5324, Control_c, 9, 4, 108
2, 5366, Control_c, 9, 4, 98
2, 5380, Note_on_c, 9, 44, 0
2, 5387, Note_on_c, 9, 36, 0
2, 5393, Note_on_c, 9, 51, 0
2, 5394, Note_on_c, 9, 38, 0
2, 5401, Control_c, 9, 4, 83
2, 5446, Control_c, 9, 4, 79
2, 5502, Control_c, 9, 4, 80
2, 5547, Control_c, 9, 4, 120
2, 5556, Control_c, 9, 17, 0
2, 5556, Note_on_c, 9, 51, 70
2, 5601, Control_c, 9, 4, 98
2, 5632, Control_c, 9, 4, 83
2, 5637, Note_on_c, 9, 51, 0
2, 5663, Control_c, 9, 4, 69
2, 5667, Note_on_c, 9, 36, 55
2, 5669, Control_c, 9, 18, 0
2, 5669, Note_on_c, 9, 48, 49
2, 5697, Control_c, 9, 4, 0
2, 5748, Note_on_c, 9, 36, 0
2, 5751, Note_on_c, 9, 48, 0
2, 5769, Control_c, 9, 4, 51
2, 5773, Note_on_c, 9, 44, 127
2, 5799, Note_on_c, 9, 48, 67
2, 5800, Control_c, 9, 4, 127
2, 5800, Note_on_c, 9, 59, 35
2, 5848, Control_c, 9, 4, 104
2, 5854, Note_on_c, 9, 44, 0
2, 5881, Control_c, 9, 4, 92
2, 5881, Note_on_c, 9, 48, 0
2, 5883, Note_on_c, 9, 59, 0
2, 5925, Control_c, 9, 17, 82
2, 5926, Note_on_c, 9, 51, 68
2, 6007, Control_c, 9, 4, 110
2, 6008, Note_on_c, 9, 51, 0
2, 6029, Note_on_c, 9, 36, 72
2, 6040, Control_c, 9, 17, 82
2, 6040, Note_on_c, 9, 51, 5
2, 6044, Control_c, 9, 4, 104
2, 6086, Control_c, 9, 4, 92
2, 6111, Note_on_c, 9, 36, 0
2, 6121, Note_on_c, 9, 51, 0
2, 6173, Control_c, 9, 17, 127
2, 6173, Note_on_c, 9, 51, 44
2, 6254, Note_on_c, 9, 51, 0
2, 6267, Note_on_c, 9, 36, 65
2, 6288, Control_c, 9, 16, 0
2, 6289, Note_on_c, 9, 38, 82
2, 6293, Control_c, 9, 17, 91
2, 6293, Note_on_c, 9, 51, 80
2, 6309, Control_c, 9, 4, 97
2, 6350, Note_on_c, 9, 36, 0
2, 6371, Note_on_c, 9, 38, 0
2, 6375, Note_on_c, 9, 51, 0
2, 6387, Control_c, 9, 4, 83
2, 6418, Control_c, 9, 4, 70
2, 6458, Control_c, 9, 4, 0
2, 6508, Control_c, 9, 4, 50
2, 6513, Note_on_c, 9, 44, 106
2, 6522, Control_c, 9, 17, 127
2, 6522, Note_on_c, 9, 51, 77
2, 6539, Control_c, 9, 4, 122
2, 6581, Control_c, 9, 4, 96
2, 6595, Note_on_c, 9, 44, 0
2, 6605, Note_on_c, 9, 51, 0
2, 6618, Control_c, 9, 4, 84
2, 6640, Control_c, 9, 18, 0
2, 6640, Note_on_c, 9, 48, 46
2, 6646, Note_on_c, 9, 36, 46
2, 6722, Note_on_c, 9, 48, 0
2, 6729, Note_on_c, 9, 36, 0
2, 6746, Control_c, 9, 4, 112
2, 6766, Note_on_c, 9, 48, 68
2, 6769, Note_on_c, 9, 59, 42
2, 6823, Control_c, 9, 4, 102
2, 6848, Note_on_c, 9, 48, 0
2, 6852, Note_on_c, 9, 59, 0
2, 6856, Control_c, 9, 4, 88
2, 6888, Control_c, 9, 4, 72
2, 6900, Control_c, 9, 17, 126
2, 6901, Note_on_c, 9, 51, 72
2, 6928, Control_c, 9, 4, 0
2, 6981, Note_on_c, 9, 51, 0
2, 6994, Note_on_c, 9, 36, 65
2, 6995, Control_c, 9, 4, 36
2, 7000, Note_on_c, 9, 44, 127
2, 7026, Control_c, 9, 4, 127
2, 7075, Control_c, 9, 4, 98
2, 7076, Note_on_c, 9, 36, 0
2, 7083, Note_on_c, 9, 44, 0
2, 7113, Control_c, 9, 4, 71
2, 7151, Control_c, 9, 17, 0
2, 7151, Note_on_c, 9, 51, 48
2, 7155, Control_c, 9, 4, 0
2, 7224, Note_on_c, 9, 46, 11
2, 7232, Control_c, 9, 4, 32
2, 7232, Note_on_c, 9, 51, 0
2, 7235, Note_on_c, 9, 36, 86
2, 7238, Note_on_c, 9, 44, 127
2, 7241, Note_on_c, 9, 38, 62
2, 7263, Control_c, 9, 4, 108
2, 7306, Note_on_c, 9, 46, 0
2, 7312, Control_c, 9, 4, 96
2, 7317, Note_on_c, 9, 36, 0
2, 7319, Note_on_c, 9, 44, 0
2, 7323, Note_on_c, 9, 38, 0
2, 7344, Control_c, 9, 4, 83
2, 7475, Control_c, 9, 4, 120
2, 7479, Control_c, 9, 17, 127
2, 7479, Note_on_c, 9, 51, 77
2, 7516, Control_c, 9, 4, 118
2, 7552, Control_c, 9, 4, 89
2, 7561, Note_on_c, 9, 51, 0
2, 7581, Note_on_c, 9, 36, 40
2, 7582, Control_c, 9, 4, 73
2, 7590, Control_c, 9, 18, 0
2, 7590, Note_on_c, 9, 48, 45
2, 7626, Control_c, 9, 4, 0
2, 7663, Note_on_c, 9, 36, 0
2, 7672, Note_on_c, 9, 48, 0
2, 7673, End_track
0, 0, End_of_file
