0, 0, Header, 1, 2, 480
1, 0, Start_track
1, 0, Tempo, 500000
1, 0, Time_signature, 4, 2, 24, 8
1, 0, Key_signature, 0, "major"
1, 1, End_track
2, 0, Start_track
2, 0, Title_t, "Blue Ridge"
2, 0, Program_c, 9, 0
2, 0, Note_on_c, 9, 22, 50
2, 5, Control_c, 9, 4, 90
2, 5, Note_on_c, 9, 36, 58
2, 86, Note_on_c, 9, 22, 0
2, 102, Note_on_c, 9, 36, 0
2, 221, Control_c, 9, 4, 90
2, 221, Note_on_c, 9, 22, 87
2, 228, Note_on_c, 9, 38, 100
2, 319, Note_on_c, 9, 22, 0
2, 325, Note_on_c, 9, 38, 0
2, 454, Control_c, 9, 4, 90
2, 454, Note_on_c, 9, 22, 47
2, 465, Note_on_c, 9, 36, 56
2, 551, Note_on_c, 9, 22, 0
2, 562, Note_on_c, 9, 36, 0
2, 634, Control_c, 9, 4, 73
2, 674, Control_c, 9, 4, 58
2, 695, Note_on_c, 9, 26, 97
2, 697, Note_on_c, 9, 38, 105
2, 704, Control_c, 9, 4, 80
2, 705, Note_on_c, 9, 44, 20
2, 735, Control_c, 9, 4, 90
2, 792, Note_on_c, 9, 26, 0
2, 794, Note_on_c, 9, 38, 0
2, 802, Note_on_c, 9, 44, 0
2, 900, Control_c, 9, 4, 90
2, 933, Control_c, 9, 4, 90
2, 933, Note_on_c, 9, 22, 52
2, 947, Note_on_c, 9, 36, 56
2, 1030, Note_on_c, 9, 22, 0
2, 1044, Note_on_c, 9, 36, 0
2, 1170, Control_c, 9, 4, 90
2, 1170, Note_on_c, 9, 22, 87
2, 1172, Note_on_c, 9, 38, 100
2, 1267, Note_on_c, 9, 22, 0
2, 1267, Note_on_c, 9, 38, 0
2, 1402, Control_c, 9, 4, 90
2, 1402, Note_on_c, 9, 22, 52
2, 1424, Note_on_c, 9, 36, 58
2, 1500, Note_on_c, 9, 22, 0
2, 1521, Note_on_c, 9, 36, 0
2, 1593, Control_c, 9, 4, 55
2, 1635, Control_c, 9, 4, 32
2, 1635, Note_on_c, 9, 26, 83
2, 1638, Note_on_c, 9, 38, 100
2, 1666, Control_c, 9, 4, 38
2, 1703, Control_c, 9, 4, 32
2, 1732, Note_on_c, 9, 26, 0
2, 1735, Note_on_c, 9, 38, 0
2, 1741, Control_c, 9, 4, 18
2, 1789, Control_c, 9, 4, 7
2, 1869, Control_c, 9, 4, 78
2, 1869, Note_on_c, 9, 44, 57
2, 1877, Note_on_c, 9, 22, 58
2, 1885, Note_on_c, 9, 36, 61
2, 1900, Control_c, 9, 4, 90
2, 1967, Note_on_c, 9, 44, 0
2, 1974, Note_on_c, 9, 22, 0
2, 1982, Note_on_c, 9, 36, 0
2, 2116, Control_c, 9, 4, 90
2, 2117, Note_on_c, 9, 22, 68
2, 2118, Note_on_c, 9, 38, 105
2, 2214, Note_on_c, 9, 22, 0
2, 2214, Note_on_c, 9, 38, 0
2, 2340, Control_c, 9, 4, 90
2, 2340, Note_on_c, 9, 22, 60
2, 2358, Note_on_c, 9, 36, 60
2, 2437, Note_on_c, 9, 22, 0
2, 2455, Note_on_c, 9, 36, 0
2, 2586, Control_c, 9, 4, 90
2, 2586, Note_on_c, 9, 22, 93
2, 2589, Note_on_c, 9, 38, 98
2, 2683, Note_on_c, 9, 22, 0
2, 2685, Note_on_c, 9, 38, 0
2, 2840, Control_c, 9, 4, 90
2, 2840, Note_on_c, 9, 22, 47
2, 2850, Note_on_c, 9, 36, 57
2, 2937, Note_on_c, 9, 22, 0
2, 2946, Note_on_c, 9, 36, 0
2, 3038, Control_c, 9, 4, 83
2, 3076, Control_c, 9, 4, 90
2, 3076, Note_on_c, 9, 22, 82
2, 3079, Note_on_c, 9, 38, 84
2, 3174, Note_on_c, 9, 22, 0
2, 3176, Note_on_c, 9, 38, 0
2, 3246, Control_c, 9, 4, 81
2, 3289, Control_c, 9, 4, 69
2, 3318, Note_on_c, 9, 36, 63
2, 3321, Note_on_c, 9, 22, 60
2, 3333, Control_c, 9, 4, 90
2, 3415, Note_on_c, 9, 36, 0
2, 3418, Note_on_c, 9, 22, 0
2, 3463, Control_c, 9, 4, 78
2, 3500, Control_c, 9, 4, 63
2, 3542, Control_c, 9, 4, 75
2, 3566, Note_on_c, 9, 38, 113
2, 3575, Control_c, 9, 4, 90
2, 3663, Note_on_c, 9, 38, 0
2, 3675, Note_on_c, 9, 38, 100
2, 3740, Control_c, 9, 4, 59
2, 3772, Note_on_c, 9, 38, 0
2, 3780, Control_c, 9, 4, 90
2, 3797, Note_on_c, 9, 36, 61
2, 3814, Control_c, 9, 4, 90
2, 3814, Note_on_c, 9, 22, 60
2, 3894, Note_on_c, 9, 36, 0
2, 3911, Note_on_c, 9, 22, 0
2, 4050, Control_c, 9, 4, 90
2, 4051, Note_on_c, 9, 22, 63
2, 4051, Note_on_c, 9, 38, 101
2, 4147, Note_on_c, 9, 22, 0
2, 4147, Note_on_c, 9, 38, 0
2, 4280, Control_c, 9, 4, 90
2, 4280, Note_on_c, 9, 22, 59
2, 4287, Note_on_c, 9, 36, 60
2, 4378, Note_on_c, 9, 22, 0
2, 4383, Note_on_c, 9, 36, 0
2, 4451, Control_c, 9, 4, 73
2, 4490, Control_c, 9, 4, 90
2, 4529, Note_on_c, 9, 38, 103
2, 4531, Control_c, 9, 4, 90
2, 4531, Note_on_c, 9, 22, 76
2, 4626, Note_on_c, 9, 38, 0
2, 4628, Note_on_c, 9, 22, 0
2, 4672, Control_c, 9, 4, 70
2, 4727, Control_c, 9, 4, 90
2, 4763, Control_c, 9, 4, 90
2, 4763, Note_on_c, 9, 22, 59
2, 4764, Note_on_c, 9, 36, 65
2, 4861, Note_on_c, 9, 22, 0
2, 4861, Note_on_c, 9, 36, 0
2, 4884, Note_on_c, 9, 38, 59
2, 4897, Control_c, 9, 4, 59
2, 4938, Note_on_c, 9, 38, 0
2, 4938, Note_on_c, 9, 38, 46
2, 4940, Control_c, 9, 4, 26
2, 4980, Note_on_c, 9, 38, 0
2, 4988, Control_c, 9, 4, 78
2, 4989, Note_on_c, 9, 44, 30
2, 5011, Note_on_c, 9, 38, 127
2, 5019, Control_c, 9, 4, 90
2, 5035, Note_on_c, 9, 38, 0
2, 5086, Note_on_c, 9, 44, 0
2, 5123, Note_on_c, 9, 38, 106
2, 5163, Control_c, 9, 4, 69
2, 5205, Control_c, 9, 4, 83
2, 5220, Note_on_c, 9, 38, 0
2, 5237, Control_c, 9, 4, 90
2, 5237, Note_on_c, 9, 22, 62
2, 5246, Note_on_c, 9, 36, 65
2, 5335, Note_on_c, 9, 22, 0
2, 5343, Note_on_c, 9, 36, 0
2, 5355, Note_on_c, 9, 38, 63
2, 5395, Control_c, 9, 4, 76
2, 5448, Control_c, 9, 4, 90
2, 5452, Note_on_c, 9, 38, 0
2, 5483, Note_on_c, 9, 38, 124
2, 5580, Note_on_c, 9, 38, 0
2, 5595, Note_on_c, 9, 38, 102
2, 5692, Note_on_c, 9, 38, 0
2, 5713, Note_on_c, 9, 36, 67
2, 5727, Note_on_c, 9, 55, 67
2, 5810, Note_on_c, 9, 36, 0
2, 5823, Note_on_c, 9, 55, 0
2, 5960, Control_c, 9, 4, 90
2, 5960, Note_on_c, 9, 22, 66
2, 5966, Note_on_c, 9, 38, 99
2, 6058, Note_on_c, 9, 22, 0
2, 6063, Note_on_c, 9, 38, 0
2, 6209, Control_c, 9, 4, 90
2, 6209, Note_on_c, 9, 22, 38
2, 6216, Note_on_c, 9, 36, 60
2, 6306, Note_on_c, 9, 22, 0
2, 6313, Note_on_c, 9, 36, 0
2, 6389, Control_c, 9, 4, 75
2, 6438, Note_on_c, 9, 22, 89
2, 6444, Note_on_c, 9, 38, 97
2, 6450, Control_c, 9, 4, 90
2, 6535, Note_on_c, 9, 22, 0
2, 6541, Note_on_c, 9, 38, 0
2, 6624, Control_c, 9, 4, 83
2, 6672, Control_c, 9, 4, 90
2, 6672, Note_on_c, 9, 22, 47
2, 6696, Note_on_c, 9, 36, 56
2, 6769, Note_on_c, 9, 22, 0
2, 6793, Note_on_c, 9, 36, 0
2, 6917, Control_c, 9, 4, 90
2, 6917, Note_on_c, 9, 22, 95
2, 6917, Note_on_c, 9, 38, 111
2, 7014, Note_on_c, 9, 22, 0
2, 7014, Note_on_c, 9, 38, 0
2, 7117, Control_c, 9, 4, 86
2, 7155, Control_c, 9, 4, 90
2, 7155, Note_on_c, 9, 22, 50
2, 7174, Note_on_c, 9, 36, 56
2, 7252, Note_on_c, 9, 22, 0
2, 7270, Note_on_c, 9, 36, 0
2, 7394, Control_c, 9, 4, 90
2, 7394, Note_on_c, 9, 22, 101
2, 7397, Note_on_c, 9, 38, 109
2, 7491, Note_on_c, 9, 22, 0
2, 7494, Note_on_c, 9, 38, 0
2, 7624, Control_c, 9, 4, 90
2, 7625, End_track
0, 0, End_of_file
