0, 0, Header, 1, 2, 480
1, 0, Start_track
1, 0, Tempo, 588235
1, 0, Time_signature, 4, 2, 24, 8
1, 0, Key_signature, 0, "major"
1, 1, End_track
2, 0, Start_track
2, 0, Title_t, "Classic Studio Kit"
2, 0, Program_c, 9, 0
2, 0, Control_c, 9, 18, 0
2, 29, Control_c, 9, 17, 19
2, 29, Note_on_c, 9, 51, 61
2, 38, Control_c, 9, 4, 110
2, 112, Note_on_c, 9, 51, 0
2, 156, Control_c, 9, 4, 90
2, 166, Control_c, 9, 17, 127
2, 166, Note_on_c, 9, 51, 69
2, 191, Control_c, 9, 4, 70
2, 224, Control_c, 9, 4, 0
2, 249, Note_on_c, 9, 51, 0
2, 267, Control_c, 9, 4, 33
2, 273, Note_on_c, 9, 44, 119
2, 275, Note_on_c, 9, 36, 58
2, 298, Control_c, 9, 4, 127
2, 315, Note_on_c, 9, 49, 6
2, 340, Control_c, 9, 4, 102
2, 343, Control_c, 9, 17, 127
2, 343, Note_on_c, 9, 51, 5
2, 355, Note_on_c, 9, 44, 0
2, 357, Note_on_c, 9, 36, 0
2, 378, Control_c, 9, 4, 89
2, 396, Note_on_c, 9, 49, 0
2, 425, Note_on_c, 9, 51, 0
2, 513, Control_c, 9, 17, 12
2, 513, Note_on_c, 9, 51, 94
2, 519, Control_c, 9, 4, 99
2, 519, Note_on_c, 9, 36, 81
2, 521, Control_c, 9, 16, 0
2, 521, Note_on_c, 9, 38, 55
2, 595, Note_on_c, 9, 51, 0
2, 601, Note_on_c, 9, 36, 0
2, 603, Note_on_c, 9, 38, 0
2, 624, Control_c, 9, 4, 93
2, 670, Control_c, 9, 4, 70
2, 710, Control_c, 9, 4, 0
2, 754, Note_on_c, 9, 46, 62
2, 755, Note_on_c, 9, 44, 100
2, 757, Control_c, 9, 17, 110
2, 758, Note_on_c, 9, 51, 64
2, 762, Control_c, 9, 4, 127
2, 804, Control_c, 9, 4, 120
2, 836, Note_on_c, 9, 44, 0
2, 836, Note_on_c, 9, 46, 0
2, 839, Control_c, 9, 4, 91
2, 839, Note_on_c, 9, 51, 0
2, 883, Note_on_c, 9, 36, 61
2, 883, Note_on_c, 9, 48, 61
2, 964, Note_on_c, 9, 36, 0
2, 964, Note_on_c, 9, 48, 0
2, 978, Control_c, 9, 4, 99
2, 1008, Control_c, 9, 17, 44
2, 1009, Note_on_c, 9, 51, 58
2, 1090, Note_on_c, 9, 51, 0
2, 1118, Control_c, 9, 4, 94
2, 1134, Control_c, 9, 17, 127
2, 1135, Note_on_c, 9, 51, 53
2, 1150, Control_c, 9, 4, 81
2, 1192, Control_c, 9, 4, 39
2, 1216, Note_on_c, 9, 51, 0
2, 1229, Control_c, 9, 4, 53
2, 1232, Note_on_c, 9, 38, 63
2, 1236, Note_on_c, 9, 44, 67
2, 1244, Note_on_c, 9, 36, 61
2, 1261, Control_c, 9, 4, 122
2, 1314, Note_on_c, 9, 38, 0
2, 1317, Note_on_c, 9, 44, 0
2, 1320, Control_c, 9, 4, 91
2, 1326, Note_on_c, 9, 36, 0
2, 1351, Control_c, 9, 4, 87
2, 1463, Control_c, 9, 4, 98
2, 1477, Control_c, 9, 17, 0
2, 1477, Note_on_c, 9, 51, 100
2, 1478, Note_on_c, 9, 36, 71
2, 1479, Control_c, 9, 16, 0
2, 1479, Note_on_c, 9, 38, 65
2, 1559, Note_on_c, 9, 36, 0
2, 1559, Note_on_c, 9, 51, 0
2, 1561, Note_on_c, 9, 38, 0
2, 1598, Control_c, 9, 4, 83
2, 1632, Control_c, 9, 4, 68
2, 1664, Control_c, 9, 4, 0
2, 1702, Control_c, 9, 4, 32
2, 1709, Note_on_c, 9, 44, 106
2, 1716, Control_c, 9, 17, 127
2, 1716, Note_on_c, 9, 51, 49
2, 1734, Control_c, 9, 4, 127
2, 1775, Control_c, 9, 4, 104
2, 1790, Note_on_c, 9, 44, 0
2, 1798, Note_on_c, 9, 51, 0
2, 1806, Control_c, 9, 4, 88
2, 1838, Control_c, 9, 18, 0
2, 1839, Note_on_c, 9, 48, 60
2, 1848, Note_on_c, 9, 36, 55
2, 1921, Note_on_c, 9, 48, 0
2, 1931, Note_on_c, 9, 36, 0
2, 1936, Control_c, 9, 4, 104
2, 1956, Control_c, 9, 17, 56
2, 1956, Note_on_c, 9, 51, 60
2, 2027, Control_c, 9, 4, 98
2, 2037, Note_on_c, 9, 51, 0
2, 2077, Control_c, 9, 4, 85
2, 2079, Control_c, 9, 17, 105
2, 2079, Note_on_c, 9, 51, 71
2, 2110, Control_c, 9, 4, 70
2, 2142, Control_c, 9, 4, 22
2, 2161, Note_on_c, 9, 51, 0
2, 2177, Control_c, 9, 4, 61
2, 2181, Note_on_c, 9, 44, 74
2, 2189, Note_on_c, 9, 36, 54
2, 2197, Note_on_c, 9, 38, 54
2, 2207, Control_c, 9, 4, 122
2, 2263, Control_c, 9, 4, 91
2, 2263, Note_on_c, 9, 44, 0
2, 2271, Note_on_c, 9, 36, 0
2, 2278, Note_on_c, 9, 38, 0
2, 2297, Control_c, 9, 4, 87
2, 2327, Control_c, 9, 17, 26
2, 2327, Note_on_c, 9, 51, 75
2, 2406, Control_c, 9, 4, 102
2, 2409, Note_on_c, 9, 51, 0
2, 2427, Note_on_c, 9, 36, 71
2, 2444, Note_on_c, 9, 48, 64
2, 2500, Control_c, 9, 4, 97
2, 2507, Note_on_c, 9, 36, 0
2, 2524, Note_on_c, 9, 48, 0
2, 2549, Control_c, 9, 4, 85
2, 2583, Control_c, 9, 4, 70
2, 2616, Control_c, 9, 4, 22
2, 2652, Control_c, 9, 17, 45
2, 2653, Note_on_c, 9, 51, 87
2, 2656, Control_c, 9, 4, 42
2, 2662, Control_c, 9, 16, 0
2, 2663, Note_on_c, 9, 38, 59
2, 2665, Note_on_c, 9, 44, 87
2, 2688, Control_c, 9, 4, 120
2, 2735, Note_on_c, 9, 51, 0
2, 2744, Note_on_c, 9, 38, 0
2, 2745, Note_on_c, 9, 44, 0
2, 2748, Control_c, 9, 4, 91
2, 2804, Note_on_c, 9, 36, 41
2, 2885, Note_on_c, 9, 36, 0
2, 2907, Control_c, 9, 17, 46
2, 2907, Note_on_c, 9, 51, 83
2, 2914, Control_c, 9, 4, 106
2, 2990, Note_on_c, 9, 51, 0
2, 2991, Control_c, 9, 4, 96
2, 3028, Control_c, 9, 16, 21
2, 3029, Note_on_c, 9, 38, 54
2, 3032, Control_c, 9, 4, 83
2, 3075, Control_c, 9, 4, 52
2, 3107, Control_c, 9, 4, 0
2, 3109, Note_on_c, 9, 38, 0
2, 3134, Control_c, 9, 17, 62
2, 3135, Note_on_c, 9, 51, 67
2, 3139, Note_on_c, 9, 44, 87
2, 3143, Note_on_c, 9, 36, 57
2, 3148, Control_c, 9, 4, 127
2, 3189, Control_c, 9, 4, 120
2, 3216, Note_on_c, 9, 51, 0
2, 3220, Note_on_c, 9, 44, 0
2, 3225, Note_on_c, 9, 36, 0
2, 3227, Control_c, 9, 4, 90
2, 3258, Control_c, 9, 4, 85
2, 3306, Control_c, 9, 4, 89
2, 3380, Control_c, 9, 4, 100
2, 3386, Note_on_c, 9, 36, 72
2, 3389, Control_c, 9, 17, 32
2, 3389, Note_on_c, 9, 51, 83
2, 3390, Control_c, 9, 16, 0
2, 3391, Note_on_c, 9, 38, 63
2, 3468, Note_on_c, 9, 36, 0
2, 3470, Note_on_c, 9, 51, 0
2, 3472, Note_on_c, 9, 38, 0
2, 3491, Control_c, 9, 4, 89
2, 3523, Control_c, 9, 4, 74
2, 3565, Control_c, 9, 4, 19
2, 3603, Control_c, 9, 4, 59
2, 3608, Note_on_c, 9, 44, 80
2, 3624, Control_c, 9, 17, 127
2, 3624, Note_on_c, 9, 51, 66
2, 3633, Control_c, 9, 4, 122
2, 3690, Note_on_c, 9, 44, 0
2, 3693, Control_c, 9, 4, 91
2, 3706, Note_on_c, 9, 51, 0
2, 3726, Control_c, 9, 4, 86
2, 3744, Control_c, 9, 18, 0
2, 3744, Note_on_c, 9, 48, 67
2, 3750, Note_on_c, 9, 36, 61
2, 3825, Note_on_c, 9, 48, 0
2, 3831, Control_c, 9, 4, 102
2, 3832, Note_on_c, 9, 36, 0
2, 3863, Control_c, 9, 17, 60
2, 3863, Note_on_c, 9, 51, 61
2, 3871, Control_c, 9, 4, 104
2, 3944, Note_on_c, 9, 51, 0
2, 3962, Control_c, 9, 4, 91
2, 3987, Control_c, 9, 17, 127
2, 3987, Note_on_c, 9, 51, 72
2, 4000, Control_c, 9, 4, 73
2, 4037, Control_c, 9, 4, 29
2, 4068, Note_on_c, 9, 51, 0
2, 4072, Control_c, 9, 4, 51
2, 4077, Note_on_c, 9, 44, 67
2, 4080, Note_on_c, 9, 46, 54
2, 4088, Note_on_c, 9, 36, 46
2, 4099, Control_c, 9, 17, 127
2, 4100, Note_on_c, 9, 51, 5
2, 4103, Control_c, 9, 4, 120
2, 4147, Control_c, 9, 4, 97
2, 4159, Note_on_c, 9, 44, 0
2, 4160, Note_on_c, 9, 46, 0
2, 4170, Note_on_c, 9, 36, 0
2, 4181, Note_on_c, 9, 51, 0
2, 4186, Control_c, 9, 4, 86
2, 4302, Control_c, 9, 4, 97
2, 4326, Control_c, 9, 17, 10
2, 4326, Note_on_c, 9, 51, 91
2, 4331, Note_on_c, 9, 38, 68
2, 4332, Note_on_c, 9, 36, 57
2, 4409, Note_on_c, 9, 51, 0
2, 4412, Note_on_c, 9, 38, 0
2, 4413, Note_on_c, 9, 36, 0
2, 4456, Control_c, 9, 4, 85
2, 4488, Control_c, 9, 4, 70
2, 4520, Control_c, 9, 4, 22
2, 4556, Control_c, 9, 4, 45
2, 4564, Note_on_c, 9, 44, 80
2, 4586, Control_c, 9, 17, 127
2, 4586, Note_on_c, 9, 51, 60
2, 4589, Control_c, 9, 4, 120
2, 4645, Note_on_c, 9, 44, 0
2, 4647, Control_c, 9, 4, 91
2, 4668, Note_on_c, 9, 51, 0
2, 4686, Control_c, 9, 4, 87
2, 4699, Note_on_c, 9, 48, 63
2, 4710, Note_on_c, 9, 36, 64
2, 4780, Note_on_c, 9, 48, 0
2, 4793, Note_on_c, 9, 36, 0
2, 4806, Control_c, 9, 4, 108
2, 4823, Control_c, 9, 17, 59
2, 4823, Note_on_c, 9, 51, 61
2, 4879, Control_c, 9, 4, 102
2, 4906, Note_on_c, 9, 51, 0
2, 4917, Control_c, 9, 4, 90
2, 4954, Control_c, 9, 17, 127
2, 4954, Note_on_c, 9, 51, 67
2, 4955, Control_c, 9, 4, 73
2, 4991, Control_c, 9, 4, 0
2, 5036, Note_on_c, 9, 51, 0
2, 5041, Note_on_c, 9, 36, 50
2, 5043, Note_on_c, 9, 44, 119
2, 5048, Control_c, 9, 4, 127
2, 5092, Control_c, 9, 4, 120
2, 5123, Note_on_c, 9, 36, 0
2, 5123, Note_on_c, 9, 44, 0
2, 5130, Control_c, 9, 4, 91
2, 5273, Control_c, 9, 4, 97
2, 5274, Control_c, 9, 17, 77
2, 5274, Note_on_c, 9, 51, 82
2, 5292, Control_c, 9, 16, 0
2, 5292, Note_on_c, 9, 38, 54
2, 5295, Note_on_c, 9, 36, 65
2, 5356, Note_on_c, 9, 51, 0
2, 5374, Note_on_c, 9, 38, 0
2, 5378, Note_on_c, 9, 36, 0
2, 5397, Control_c, 9, 4, 91
2, 5445, Control_c, 9, 4, 69
2, 5477, Control_c, 9, 4, 0
2, 5522, Control_c, 9, 4, 51
2, 5526, Note_on_c, 9, 44, 113
2, 5535, Control_c, 9, 17, 127
2, 5535, Note_on_c, 9, 51, 73
2, 5552, Control_c, 9, 4, 127
2, 5608, Control_c, 9, 4, 92
2, 5608, Note_on_c, 9, 44, 0
2, 5617, Note_on_c, 9, 51, 0
2, 5650, Control_c, 9, 18, 0
2, 5651, Note_on_c, 9, 36, 62
2, 5651, Note_on_c, 9, 48, 60
2, 5732, Note_on_c, 9, 36, 0
2, 5732, Note_on_c, 9, 48, 0
2, 5771, Control_c, 9, 4, 110
2, 5774, Control_c, 9, 17, 67
2, 5775, Note_on_c, 9, 51, 60
2, 5855, Note_on_c, 9, 51, 0
2, 5861, Control_c, 9, 4, 102
2, 5894, Control_c, 9, 4, 90
2, 5901, Control_c, 9, 17, 127
2, 5901, Note_on_c, 9, 51, 72
2, 5927, Control_c, 9, 4, 73
2, 5969, Control_c, 9, 4, 0
2, 5983, Note_on_c, 9, 51, 0
2, 6007, Note_on_c, 9, 36, 52
2, 6012, Note_on_c, 9, 46, 62
2, 6014, Note_on_c, 9, 44, 100
2, 6020, Control_c, 9, 4, 127
2, 6023, Note_on_c, 9, 38, 54
2, 6062, Control_c, 9, 4, 118
2, 6090, Note_on_c, 9, 36, 0
2, 6094, Note_on_c, 9, 44, 0
2, 6094, Note_on_c, 9, 46, 0
2, 6101, Control_c, 9, 4, 90
2, 6104, Note_on_c, 9, 38, 0
2, 6142, Control_c, 9, 17, 26
2, 6143, Note_on_c, 9, 51, 67
2, 6224, Note_on_c, 9, 51, 0
2, 6248, Note_on_c, 9, 36, 80
2, 6253, Control_c, 9, 4, 110
2, 6255, Note_on_c, 9, 48, 61
2, 6326, Control_c, 9, 4, 96
2, 6330, Note_on_c, 9, 36, 0
2, 6336, Note_on_c, 9, 48, 0
2, 6366, Control_c, 9, 4, 85
2, 6414, Control_c, 9, 4, 54
2, 6444, Control_c, 9, 4, 0
2, 6480, Control_c, 9, 4, 50
2, 6482, Control_c, 9, 17, 53
2, 6482, Note_on_c, 9, 51, 89
2, 6485, Note_on_c, 9, 44, 93
2, 6488, Control_c, 9, 16, 0
2, 6489, Note_on_c, 9, 38, 52
2, 6511, Control_c, 9, 4, 120
2, 6565, Note_on_c, 9, 51, 0
2, 6566, Note_on_c, 9, 44, 0
2, 6569, Note_on_c, 9, 38, 0
2, 6579, Control_c, 9, 4, 91
2, 6625, Note_on_c, 9, 36, 43
2, 6707, Note_on_c, 9, 36, 0
2, 6727, Control_c, 9, 4, 112
2, 6735, Control_c, 9, 17, 9
2, 6736, Note_on_c, 9, 51, 83
2, 6737, Control_c, 9, 18, 0
2, 6738, Note_on_c, 9, 48, 63
2, 6779, Control_c, 9, 4, 104
2, 6817, Note_on_c, 9, 51, 0
2, 6819, Control_c, 9, 4, 92
2, 6819, Note_on_c, 9, 48, 0
2, 6852, Control_c, 9, 4, 86
2, 6882, Control_c, 9, 4, 70
2, 6918, Control_c, 9, 4, 23
2, 6952, Control_c, 9, 4, 48
2, 6959, Note_on_c, 9, 44, 74
2, 6963, Note_on_c, 9, 36, 48
2, 6984, Control_c, 9, 4, 120
2, 7001, Note_on_c, 9, 49, 5
2, 7041, Note_on_c, 9, 44, 0
2, 7043, Control_c, 9, 4, 90
2, 7046, Note_on_c, 9, 36, 0
2, 7080, Control_c, 9, 4, 86
2, 7083, Note_on_c, 9, 49, 0
2, 7189, Control_c, 9, 4, 98
2, 7215, Note_on_c, 9, 36, 59
2, 7220, Note_on_c, 9, 38, 80
2, 7222, Control_c, 9, 17, 9
2, 7222, Note_on_c, 9, 51, 85
2, 7297, Note_on_c, 9, 36, 0
2, 7301, Note_on_c, 9, 38, 0
2, 7304, Note_on_c, 9, 51, 0
2, 7319, Control_c, 9, 4, 85
2, 7358, Control_c, 9, 4, 71
2, 7398, Control_c, 9, 4, 25
2, 7433, Control_c, 9, 4, 48
2, 7441, Note_on_c, 9, 44, 61
2, 7443, Note_on_c, 9, 46, 53
2, 7467, Control_c, 9, 4, 120
2, 7468, Control_c, 9, 17, 127
2, 7469, Note_on_c, 9, 51, 56
2, 7523, Note_on_c, 9, 44, 0
2, 7523, Note_on_c, 9, 46, 0
2, 7526, Control_c, 9, 4, 91
2, 7550, Note_on_c, 9, 51, 0
2, 7564, Control_c, 9, 4, 87
2, 7586, Note_on_c, 9, 36, 42
2, 7586, Note_on_c, 9, 48, 71
2, 7668, Note_on_c, 9, 36, 0
2, 7668, Note_on_c, 9, 48, 0
2, 7669, End_track
0, 0, End_of_file
