0, 0, Header, 1, 2, 480
1, 0, Start_track
1, 0, Tempo, 600000
1, 0, Time_signature, 4, 2, 24, 8
1, 0, Key_signature, 0, "major"
1, 1, End_track
2, 0, Start_track
2, 0, Title_t, "Midi Drums"
2, 0, Program_c, 9, 0
2, 0, Note_on_c, 9, 36, 107
2, 81, Note_on_c, 9, 36, 0
2, 217, Note_on_c, 9, 45, 46
2, 297, Note_on_c, 9, 45, 0
2, 365, Note_on_c, 9, 45, 53
2, 446, Note_on_c, 9, 45, 0
2, 460, Note_on_c, 9, 45, 106
2, 473, Note_on_c, 9, 36, 121
2, 473, Note_on_c, 9, 38, 116
2, 541, Note_on_c, 9, 45, 0
2, 553, Note_on_c, 9, 36, 0
2, 553, Note_on_c, 9, 38, 0
2, 713, Note_on_c, 9, 45, 54
2, 794, Note_on_c, 9, 45, 0
2, 830, Note_on_c, 9, 45, 49
2, 910, Note_on_c, 9, 45, 0
2, 939, Note_on_c, 9, 45, 97
2, 948, Note_on_c, 9, 36, 124
2, 1020, Note_on_c, 9, 45, 0
2, 1028, Note_on_c, 9, 36, 0
2, 1177, Note_on_c, 9, 45, 59
2, 1258, Note_on_c, 9, 45, 0
2, 1299, Note_on_c, 9, 45, 73
2, 1379, Note_on_c, 9, 45, 0
2, 1420, Note_on_c, 9, 36, 127
2, 1421, Note_on_c, 9, 45, 123
2, 1430, Note_on_c, 9, 38, 127
2, 1500, Note_on_c, 9, 36, 0
2, 1502, Note_on_c, 9, 45, 0
2, 1511, Note_on_c, 9, 38, 0
2, 1678, Note_on_c, 9, 45, 58
2, 1759, Note_on_c, 9, 45, 0
2, 1786, Note_on_c, 9, 45, 58
2, 1867, Note_on_c, 9, 45, 0
2, 1906, Note_on_c, 9, 36, 127
2, 1908, Note_on_c, 9, 45, 77
2, 1987, Note_on_c, 9, 36, 0
2, 1989, Note_on_c, 9, 45, 0
2, 2156, Note_on_c, 9, 45, 53
2, 2237, Note_on_c, 9, 45, 0
2, 2270, Note_on_c, 9, 45, 59
2, 2351, Note_on_c, 9, 45, 0
2, 2390, Note_on_c, 9, 45, 126
2, 2396, Note_on_c, 9, 38, 127
2, 2399, Note_on_c, 9, 36, 127
2, 2470, Note_on_c, 9, 45, 0
2, 2477, Note_on_c, 9, 38, 0
2, 2480, Note_on_c, 9, 36, 0
2, 2641, Note_on_c, 9, 45, 70
2, 2722, Note_on_c, 9, 45, 0
2, 2744, Note_on_c, 9, 45, 62
2, 2825, Note_on_c, 9, 45, 0
2, 2870, Note_on_c, 9, 45, 77
2, 2882, Note_on_c, 9, 36, 127
2, 2951, Note_on_c, 9, 45, 0
2, 2963, Note_on_c, 9, 36, 0
2, 3123, Note_on_c, 9, 45, 54
2, 3205, Note_on_c, 9, 45, 0
2, 3233, Note_on_c, 9, 45, 69
2, 3314, Note_on_c, 9, 45, 0
2, 3363, Note_on_c, 9, 36, 127
2, 3365, Note_on_c, 9, 38, 127
2, 3365, Note_on_c, 9, 45, 108
2, 3444, Note_on_c, 9, 36, 0
2, 3446, Note_on_c, 9, 38, 0
2, 3446, Note_on_c, 9, 45, 0
2, 3625, Note_on_c, 9, 45, 63
2, 3705, Note_on_c, 9, 45, 0
2, 3727, Note_on_c, 9, 45, 65
2, 3808, Note_on_c, 9, 45, 0
2, 3847, Note_on_c, 9, 45, 87
2, 3853, Note_on_c, 9, 36, 127
2, 3928, Note_on_c, 9, 45, 0
2, 3933, Note_on_c, 9, 36, 0
2, 4086, Note_on_c, 9, 45, 54
2, 4167, Note_on_c, 9, 45, 0
2, 4206, Note_on_c, 9, 45, 61
2, 4286, Note_on_c, 9, 45, 0
2, 4321, Note_on_c, 9, 45, 127
2, 4327, Note_on_c, 9, 36, 127
2, 4331, Note_on_c, 9, 38, 127
2, 4401, Note_on_c, 9, 45, 0
2, 4408, Note_on_c, 9, 36, 0
2, 4412, Note_on_c, 9, 38, 0
2, 4579, Note_on_c, 9, 45, 56
2, 4661, Note_on_c, 9, 45, 0
2, 4688, Note_on_c, 9, 45, 54
2, 4768, Note_on_c, 9, 45, 0
2, 4806, Note_on_c, 9, 45, 87
2, 4808, Note_on_c, 9, 36, 127
2, 4886, Note_on_c, 9, 45, 0
2, 4889, Note_on_c, 9, 36, 0
2, 5055, Note_on_c, 9, 45, 55
2, 5136, Note_on_c, 9, 45, 0
2, 5162, Note_on_c, 9, 45, 52
2, 5243, Note_on_c, 9, 45, 0
2, 5286, Note_on_c, 9, 36, 127
2, 5288, Note_on_c, 9, 45, 124
2, 5294, Note_on_c, 9, 38, 127
2, 5366, Note_on_c, 9, 36, 0
2, 5368, Note_on_c, 9, 45, 0
2, 5375, Note_on_c, 9, 38, 0
2, 5535, Note_on_c, 9, 45, 58
2, 5616, Note_on_c, 9, 45, 0
2, 5643, Note_on_c, 9, 45, 56
2, 5724, Note_on_c, 9, 45, 0
2, 5757, Note_on_c, 9, 36, 120
2, 5769, Note_on_c, 9, 45, 67
2, 5837, Note_on_c, 9, 36, 0
2, 5850, Note_on_c, 9, 45, 0
2, 5999, Note_on_c, 9, 45, 48
2, 6080, Note_on_c, 9, 45, 0
2, 6118, Note_on_c, 9, 45, 62
2, 6199, Note_on_c, 9, 45, 0
2, 6238, Note_on_c, 9, 45, 127
2, 6241, Note_on_c, 9, 38, 127
2, 6244, Note_on_c, 9, 36, 127
2, 6319, Note_on_c, 9, 45, 0
2, 6321, Note_on_c, 9, 38, 0
2, 6324, Note_on_c, 9, 36, 0
2, 6489, Note_on_c, 9, 45, 56
2, 6570, Note_on_c, 9, 45, 0
2, 6608, Note_on_c, 9, 45, 47
2, 6688, Note_on_c, 9, 45, 0
2, 6716, Note_on_c, 9, 36, 126
2, 6723, Note_on_c, 9, 45, 58
2, 6797, Note_on_c, 9, 36, 0
2, 6804, Note_on_c, 9, 45, 0
2, 6973, Note_on_c, 9, 45, 52
2, 7053, Note_on_c, 9, 45, 0
2, 7192, Note_on_c, 9, 36, 127
2, 7196, Note_on_c, 9, 45, 127
2, 7204, Note_on_c, 9, 38, 127
2, 7273, Note_on_c, 9, 36, 0
2, 7277, Note_on_c, 9, 45, 0
2, 7284, Note_on_c, 9, 38, 0
2, 7449, Note_on_c, 9, 45, 54
2, 7529, Note_on_c, 9, 45, 0
2, 7556, Note_on_c, 9, 45, 54
2, 7636, Note_on_c, 9, 45, 0
2, 7637, End_track
0, 0, End_of_file
