0, 0, Header, 1, 2, 480
1, 0, Start_track
1, 0, Tempo, 545454
1, 0, Time_signature, 4, 2, 24, 8
1, 0, Key_signature, 0, "major"
1, 1, End_track
2, 0, Start_track
2, 0, Title_t, "TD-30 #9 Djembe"
2, 0, Program_c, 9, 0
2, 0, Control_c, 9, 16, 0
2, 21, Note_on_c, 9, 57, 106
2, 57, Control_c, 9, 4, 90
2, 109, Note_on_c, 9, 57, 0
2, 129, Control_c, 9, 4, 83
2, 140, Note_on_c, 9, 57, 44
2, 163, Control_c, 9, 4, 70
2, 208, Control_c, 9, 4, 29
2, 229, Note_on_c, 9, 57, 0
2, 247, Control_c, 9, 4, 67
2, 251, Note_on_c, 9, 44, 61
2, 254, Control_c, 9, 18, 0
2, 255, Note_on_c, 9, 48, 42
2, 278, Control_c, 9, 4, 104
2, 331, Control_c, 9, 4, 92
2, 339, Note_on_c, 9, 44, 0
2, 341, Note_on_c, 9, 48, 0
2, 379, Control_c, 9, 4, 87
2, 380, Note_on_c, 9, 48, 76
2, 389, Note_on_c, 9, 57, 88
2, 437, Control_c, 9, 4, 91
2, 468, Note_on_c, 9, 48, 0
2, 477, Note_on_c, 9, 57, 0
2, 493, Note_on_c, 9, 36, 87
2, 506, Note_on_c, 9, 57, 82
2, 582, Note_on_c, 9, 36, 0
2, 594, Note_on_c, 9, 57, 0
2, 601, Control_c, 9, 4, 77
2, 641, Control_c, 9, 4, 56
2, 680, Control_c, 9, 4, 0
2, 724, Control_c, 9, 4, 66
2, 726, Note_on_c, 9, 44, 80
2, 733, Note_on_c, 9, 57, 70
2, 754, Control_c, 9, 4, 97
2, 806, Control_c, 9, 4, 91
2, 814, Note_on_c, 9, 44, 0
2, 821, Note_on_c, 9, 57, 0
2, 841, Control_c, 9, 4, 85
2, 929, Control_c, 9, 4, 90
2, 981, Note_on_c, 9, 40, 71
2, 986, Note_on_c, 9, 57, 83
2, 1055, Control_c, 9, 4, 83
2, 1070, Note_on_c, 9, 40, 0
2, 1074, Note_on_c, 9, 57, 0
2, 1093, Control_c, 9, 4, 70
2, 1127, Control_c, 9, 4, 40
2, 1160, Control_c, 9, 4, 0
2, 1195, Control_c, 9, 4, 64
2, 1199, Note_on_c, 9, 44, 74
2, 1226, Control_c, 9, 4, 98
2, 1226, Note_on_c, 9, 57, 51
2, 1288, Note_on_c, 9, 44, 0
2, 1292, Control_c, 9, 4, 85
2, 1315, Note_on_c, 9, 57, 0
2, 1353, Note_on_c, 9, 38, 13
2, 1442, Note_on_c, 9, 38, 0
2, 1444, Control_c, 9, 4, 89
2, 1462, Note_on_c, 9, 57, 92
2, 1466, Note_on_c, 9, 36, 91
2, 1485, Control_c, 9, 16, 0
2, 1486, Note_on_c, 9, 38, 4
2, 1550, Note_on_c, 9, 57, 0
2, 1554, Control_c, 9, 4, 75
2, 1554, Note_on_c, 9, 36, 0
2, 1572, Note_on_c, 9, 38, 0
2, 1588, Control_c, 9, 4, 55
2, 1619, Control_c, 9, 4, 0
2, 1678, Control_c, 9, 4, 50
2, 1684, Note_on_c, 9, 44, 93
2, 1703, Note_on_c, 9, 57, 46
2, 1711, Control_c, 9, 4, 99
2, 1729, Note_on_c, 9, 51, 6
2, 1759, Control_c, 9, 4, 92
2, 1772, Note_on_c, 9, 44, 0
2, 1791, Control_c, 9, 4, 86
2, 1791, Note_on_c, 9, 57, 0
2, 1817, Note_on_c, 9, 51, 0
2, 1824, Control_c, 9, 16, 127
2, 1824, Note_on_c, 9, 38, 62
2, 1825, Control_c, 9, 4, 82
2, 1879, Control_c, 9, 4, 89
2, 1913, Note_on_c, 9, 38, 0
2, 1924, Note_on_c, 9, 57, 102
2, 2014, Note_on_c, 9, 57, 0
2, 2034, Control_c, 9, 4, 76
2, 2061, Note_on_c, 9, 57, 52
2, 2068, Control_c, 9, 4, 56
2, 2101, Control_c, 9, 4, 11
2, 2144, Control_c, 9, 4, 66
2, 2148, Note_on_c, 9, 44, 74
2, 2149, Note_on_c, 9, 57, 0
2, 2175, Control_c, 9, 4, 100
2, 2183, Note_on_c, 9, 48, 53
2, 2236, Control_c, 9, 4, 89
2, 2236, Note_on_c, 9, 44, 0
2, 2270, Control_c, 9, 4, 84
2, 2271, Note_on_c, 9, 48, 0
2, 2299, Note_on_c, 9, 57, 101
2, 2308, Note_on_c, 9, 48, 76
2, 2333, Control_c, 9, 4, 90
2, 2388, Note_on_c, 9, 57, 0
2, 2395, Note_on_c, 9, 48, 0
2, 2422, Note_on_c, 9, 36, 83
2, 2423, Note_on_c, 9, 57, 96
2, 2511, Control_c, 9, 4, 77
2, 2511, Note_on_c, 9, 36, 0
2, 2511, Note_on_c, 9, 57, 0
2, 2549, Control_c, 9, 4, 56
2, 2587, Control_c, 9, 4, 0
2, 2634, Control_c, 9, 4, 67
2, 2637, Note_on_c, 9, 44, 80
2, 2649, Note_on_c, 9, 57, 48
2, 2664, Control_c, 9, 4, 99
2, 2708, Control_c, 9, 4, 92
2, 2726, Note_on_c, 9, 44, 0
2, 2738, Note_on_c, 9, 57, 0
2, 2756, Control_c, 9, 4, 83
2, 2827, Control_c, 9, 4, 89
2, 2898, Control_c, 9, 16, 0
2, 2898, Note_on_c, 9, 40, 70
2, 2903, Note_on_c, 9, 57, 89
2, 2987, Note_on_c, 9, 40, 0
2, 2991, Note_on_c, 9, 57, 0
2, 2999, Control_c, 9, 4, 75
2, 3033, Control_c, 9, 4, 58
2, 3071, Control_c, 9, 4, 22
2, 3102, Control_c, 9, 4, 70
2, 3106, Note_on_c, 9, 46, 34
2, 3107, Note_on_c, 9, 44, 48
2, 3131, Note_on_c, 9, 57, 39
2, 3133, Control_c, 9, 4, 98
2, 3172, Control_c, 9, 4, 92
2, 3195, Note_on_c, 9, 44, 0
2, 3195, Note_on_c, 9, 46, 0
2, 3220, Note_on_c, 9, 57, 0
2, 3234, Control_c, 9, 4, 82
2, 3261, Note_on_c, 9, 38, 25
2, 3290, Control_c, 9, 4, 89
2, 3349, Note_on_c, 9, 38, 0
2, 3376, Note_on_c, 9, 57, 76
2, 3378, Note_on_c, 9, 36, 93
2, 3448, Control_c, 9, 4, 76
2, 3452, Note_on_c, 9, 38, 10
2, 3465, Note_on_c, 9, 57, 0
2, 3466, Note_on_c, 9, 36, 0
2, 3488, Control_c, 9, 4, 56
2, 3496, Note_on_c, 9, 38, 0
2, 3497, Note_on_c, 9, 38, 8
2, 3519, Control_c, 9, 4, 0
2, 3541, Note_on_c, 9, 38, 0
2, 3584, Control_c, 9, 4, 67
2, 3586, Note_on_c, 9, 44, 100
2, 3614, Control_c, 9, 4, 102
2, 3615, Note_on_c, 9, 57, 74
2, 3665, Control_c, 9, 4, 91
2, 3675, Note_on_c, 9, 44, 0
2, 3697, Control_c, 9, 4, 85
2, 3703, Note_on_c, 9, 57, 0
2, 3736, Control_c, 9, 16, 0
2, 3737, Note_on_c, 9, 40, 55
2, 3791, Control_c, 9, 4, 90
2, 3825, Note_on_c, 9, 40, 0
2, 3841, Note_on_c, 9, 57, 127
2, 3930, Note_on_c, 9, 57, 0
2, 3945, Control_c, 9, 4, 77
2, 3961, Note_on_c, 9, 57, 51
2, 3982, Control_c, 9, 4, 57
2, 4018, Control_c, 9, 4, 17
2, 4050, Note_on_c, 9, 57, 0
2, 4054, Control_c, 9, 4, 65
2, 4058, Note_on_c, 9, 46, 37
2, 4060, Note_on_c, 9, 44, 61
2, 4069, Control_c, 9, 18, 0
2, 4069, Note_on_c, 9, 48, 50
2, 4085, Control_c, 9, 4, 102
2, 4135, Control_c, 9, 4, 91
2, 4146, Note_on_c, 9, 44, 0
2, 4146, Note_on_c, 9, 46, 0
2, 4157, Note_on_c, 9, 48, 0
2, 4169, Control_c, 9, 4, 85
2, 4204, Note_on_c, 9, 48, 77
2, 4204, Note_on_c, 9, 57, 105
2, 4249, Control_c, 9, 4, 91
2, 4292, Note_on_c, 9, 48, 0
2, 4292, Note_on_c, 9, 57, 0
2, 4326, Note_on_c, 9, 57, 105
2, 4338, Note_on_c, 9, 36, 91
2, 4414, Control_c, 9, 4, 78
2, 4414, Note_on_c, 9, 57, 0
2, 4426, Note_on_c, 9, 36, 0
2, 4452, Control_c, 9, 4, 56
2, 4487, Control_c, 9, 4, 0
2, 4538, Control_c, 9, 4, 65
2, 4542, Note_on_c, 9, 44, 87
2, 4569, Control_c, 9, 4, 100
2, 4571, Note_on_c, 9, 57, 69
2, 4610, Control_c, 9, 4, 93
2, 4630, Note_on_c, 9, 44, 0
2, 4660, Note_on_c, 9, 57, 0
2, 4661, Control_c, 9, 4, 83
2, 4736, Control_c, 9, 4, 89
2, 4820, Note_on_c, 9, 40, 71
2, 4892, Control_c, 9, 4, 82
2, 4908, Note_on_c, 9, 40, 0
2, 4931, Control_c, 9, 4, 69
2, 4976, Control_c, 9, 4, 30
2, 5018, Control_c, 9, 4, 69
2, 5021, Note_on_c, 9, 46, 35
2, 5023, Note_on_c, 9, 44, 48
2, 5049, Control_c, 9, 4, 96
2, 5060, Note_on_c, 9, 57, 29
2, 5093, Control_c, 9, 4, 91
2, 5110, Note_on_c, 9, 44, 0
2, 5110, Note_on_c, 9, 46, 0
2, 5132, Control_c, 9, 4, 86
2, 5149, Note_on_c, 9, 57, 0
2, 5189, Note_on_c, 9, 38, 19
2, 5277, Note_on_c, 9, 38, 0
2, 5278, Control_c, 9, 4, 90
2, 5300, Note_on_c, 9, 36, 84
2, 5300, Note_on_c, 9, 57, 53
2, 5374, Note_on_c, 9, 38, 10
2, 5375, Control_c, 9, 4, 76
2, 5388, Note_on_c, 9, 57, 0
2, 5389, Note_on_c, 9, 36, 0
2, 5411, Control_c, 9, 4, 55
2, 5419, Control_c, 9, 16, 0
2, 5420, Note_on_c, 9, 38, 0
2, 5421, Note_on_c, 9, 38, 7
2, 5441, Control_c, 9, 4, 0
2, 5462, Note_on_c, 9, 38, 0
2, 5506, Control_c, 9, 4, 52
2, 5511, Note_on_c, 9, 44, 93
2, 5538, Control_c, 9, 4, 99
2, 5545, Note_on_c, 9, 57, 74
2, 5582, Control_c, 9, 4, 92
2, 5599, Note_on_c, 9, 44, 0
2, 5617, Control_c, 9, 4, 87
2, 5634, Note_on_c, 9, 57, 0
2, 5667, Note_on_c, 9, 40, 58
2, 5755, Note_on_c, 9, 40, 0
2, 5777, Note_on_c, 9, 57, 125
2, 5866, Note_on_c, 9, 57, 0
2, 5887, Control_c, 9, 4, 73
2, 5895, Note_on_c, 9, 57, 74
2, 5921, Control_c, 9, 4, 53
2, 5956, Control_c, 9, 4, 11
2, 5983, Note_on_c, 9, 57, 0
2, 5991, Control_c, 9, 4, 59
2, 5996, Note_on_c, 9, 44, 67
2, 6001, Note_on_c, 9, 48, 46
2, 6023, Control_c, 9, 4, 104
2, 6072, Control_c, 9, 4, 92
2, 6085, Note_on_c, 9, 44, 0
2, 6088, Note_on_c, 9, 48, 0
2, 6129, Note_on_c, 9, 48, 66
2, 6130, Control_c, 9, 4, 83
2, 6143, Note_on_c, 9, 57, 92
2, 6182, Control_c, 9, 4, 89
2, 6216, Note_on_c, 9, 48, 0
2, 6229, Note_on_c, 9, 57, 0
2, 6253, Note_on_c, 9, 36, 73
2, 6259, Note_on_c, 9, 57, 106
2, 6342, Note_on_c, 9, 36, 0
2, 6347, Note_on_c, 9, 57, 0
2, 6357, Control_c, 9, 4, 75
2, 6392, Control_c, 9, 4, 56
2, 6433, Control_c, 9, 4, 0
2, 6476, Control_c, 9, 4, 67
2, 6480, Note_on_c, 9, 44, 80
2, 6485, Note_on_c, 9, 57, 69
2, 6507, Control_c, 9, 4, 100
2, 6548, Control_c, 9, 4, 92
2, 6568, Note_on_c, 9, 44, 0
2, 6574, Note_on_c, 9, 57, 0
2, 6608, Control_c, 9, 4, 83
2, 6673, Control_c, 9, 4, 89
2, 6741, Note_on_c, 9, 40, 69
2, 6744, Note_on_c, 9, 57, 76
2, 6829, Note_on_c, 9, 40, 0
2, 6832, Note_on_c, 9, 57, 0
2, 6842, Control_c, 9, 4, 75
2, 6886, Control_c, 9, 4, 41
2, 6920, Control_c, 9, 4, 1
2, 6953, Control_c, 9, 4, 66
2, 6958, Note_on_c, 9, 44, 74
2, 6985, Control_c, 9, 4, 97
2, 6996, Note_on_c, 9, 57, 33
2, 7018, Control_c, 9, 17, 100
2, 7018, Note_on_c, 9, 51, 5
2, 7046, Note_on_c, 9, 44, 0
2, 7054, Control_c, 9, 4, 85
2, 7085, Note_on_c, 9, 57, 0
2, 7106, Note_on_c, 9, 51, 0
2, 7113, Note_on_c, 9, 38, 17
2, 7148, Control_c, 9, 4, 90
2, 7201, Note_on_c, 9, 38, 0
2, 7229, Note_on_c, 9, 36, 86
2, 7234, Note_on_c, 9, 57, 60
2, 7312, Control_c, 9, 4, 76
2, 7318, Note_on_c, 9, 36, 0
2, 7322, Note_on_c, 9, 57, 0
2, 7333, Control_c, 9, 16, 0
2, 7333, Note_on_c, 9, 38, 7
2, 7348, Control_c, 9, 4, 56
2, 7371, Note_on_c, 9, 38, 0
2, 7372, Note_on_c, 9, 38, 5
2, 7381, Control_c, 9, 4, 0
2, 7422, Note_on_c, 9, 38, 0
2, 7440, Control_c, 9, 4, 67
2, 7442, Note_on_c, 9, 44, 93
2, 7470, Control_c, 9, 4, 97
2, 7484, Note_on_c, 9, 57, 34
2, 7521, Control_c, 9, 4, 91
2, 7531, Note_on_c, 9, 44, 0
2, 7559, Control_c, 9, 4, 85
2, 7573, Note_on_c, 9, 57, 0
2, 7649, Control_c, 9, 4, 91
2, 7650, End_track
0, 0, End_of_file
