0, 0, Header, 1, 2, 480
1, 0, Start_track
1, 0, Tempo, 588235
1, 0, Time_signature, 4, 2, 24, 8
1, 0, Key_signature, 0, "major"
1, 1, End_track
2, 0, Start_track
2, 0, Title_t, "Classic Studio Kit"
2, 0, Program_c, 9, 0
2, 0, Control_c, 9, 18, 0
2, 4, Control_c, 9, 4, 94
2, 39, Note_on_c, 9, 48, 69
2, 57, Control_c, 9, 17, 71
2, 58, Note_on_c, 9, 51, 70
2, 121, Note_on_c, 9, 48, 0
2, 140, Note_on_c, 9, 51, 0
2, 153, Control_c, 9, 4, 83
2, 177, Control_c, 9, 17, 82
2, 177, Note_on_c, 9, 51, 85
2, 194, Control_c, 9, 4, 52
2, 225, Control_c, 9, 4, 0
2, 258, Note_on_c, 9, 51, 0
2, 268, Note_on_c, 9, 44, 87
2, 277, Note_on_c, 9, 36, 45
2, 278, Control_c, 9, 4, 124
2, 291, Control_c, 9, 17, 82
2, 292, Note_on_c, 9, 51, 7
2, 310, Control_c, 9, 4, 98
2, 350, Note_on_c, 9, 44, 0
2, 354, Control_c, 9, 4, 84
2, 358, Note_on_c, 9, 36, 0
2, 373, Note_on_c, 9, 51, 0
2, 403, Control_c, 9, 17, 35
2, 403, Note_on_c, 9, 51, 84
2, 453, Control_c, 9, 4, 90
2, 484, Note_on_c, 9, 51, 0
2, 510, Note_on_c, 9, 36, 62
2, 530, Control_c, 9, 16, 0
2, 531, Note_on_c, 9, 38, 67
2, 593, Note_on_c, 9, 36, 0
2, 611, Control_c, 9, 4, 84
2, 611, Note_on_c, 9, 38, 0
2, 644, Control_c, 9, 4, 70
2, 682, Control_c, 9, 4, 0
2, 741, Control_c, 9, 17, 19
2, 741, Note_on_c, 9, 51, 82
2, 748, Note_on_c, 9, 44, 113
2, 757, Control_c, 9, 4, 127
2, 798, Control_c, 9, 4, 97
2, 823, Note_on_c, 9, 51, 0
2, 830, Note_on_c, 9, 44, 0
2, 838, Control_c, 9, 4, 84
2, 869, Control_c, 9, 18, 0
2, 869, Note_on_c, 9, 48, 46
2, 883, Note_on_c, 9, 36, 57
2, 942, Control_c, 9, 4, 90
2, 950, Note_on_c, 9, 48, 0
2, 966, Note_on_c, 9, 36, 0
2, 991, Control_c, 9, 17, 55
2, 991, Note_on_c, 9, 51, 65
2, 1001, Note_on_c, 9, 48, 69
2, 1074, Note_on_c, 9, 51, 0
2, 1083, Note_on_c, 9, 48, 0
2, 1097, Control_c, 9, 4, 84
2, 1108, Control_c, 9, 17, 86
2, 1109, Note_on_c, 9, 51, 69
2, 1134, Control_c, 9, 4, 70
2, 1172, Control_c, 9, 4, 0
2, 1190, Note_on_c, 9, 51, 0
2, 1222, Control_c, 9, 17, 86
2, 1223, Note_on_c, 9, 51, 5
2, 1226, Note_on_c, 9, 46, 11
2, 1230, Note_on_c, 9, 44, 106
2, 1235, Note_on_c, 9, 36, 46
2, 1238, Control_c, 9, 4, 127
2, 1272, Control_c, 9, 4, 97
2, 1304, Note_on_c, 9, 51, 0
2, 1307, Note_on_c, 9, 46, 0
2, 1311, Note_on_c, 9, 44, 0
2, 1316, Control_c, 9, 4, 83
2, 1316, Note_on_c, 9, 36, 0
2, 1414, Control_c, 9, 4, 90
2, 1467, Note_on_c, 9, 36, 55
2, 1480, Control_c, 9, 17, 66
2, 1481, Note_on_c, 9, 51, 103
2, 1482, Note_on_c, 9, 38, 66
2, 1550, Note_on_c, 9, 36, 0
2, 1561, Note_on_c, 9, 51, 0
2, 1564, Note_on_c, 9, 38, 0
2, 1575, Control_c, 9, 4, 83
2, 1610, Control_c, 9, 4, 69
2, 1645, Control_c, 9, 4, 0
2, 1705, Note_on_c, 9, 44, 106
2, 1713, Control_c, 9, 4, 127
2, 1714, Control_c, 9, 17, 88
2, 1715, Note_on_c, 9, 51, 76
2, 1746, Control_c, 9, 4, 98
2, 1786, Note_on_c, 9, 44, 0
2, 1793, Control_c, 9, 4, 85
2, 1797, Note_on_c, 9, 51, 0
2, 1830, Control_c, 9, 18, 0
2, 1831, Note_on_c, 9, 48, 52
2, 1843, Note_on_c, 9, 36, 48
2, 1912, Note_on_c, 9, 48, 0
2, 1916, Control_c, 9, 4, 95
2, 1925, Note_on_c, 9, 36, 0
2, 1949, Note_on_c, 9, 48, 77
2, 1962, Control_c, 9, 17, 116
2, 1963, Note_on_c, 9, 51, 69
2, 2031, Note_on_c, 9, 48, 0
2, 2043, Control_c, 9, 4, 90
2, 2044, Note_on_c, 9, 51, 0
2, 2077, Control_c, 9, 17, 127
2, 2078, Note_on_c, 9, 51, 76
2, 2091, Control_c, 9, 4, 69
2, 2126, Control_c, 9, 4, 0
2, 2160, Note_on_c, 9, 51, 0
2, 2181, Note_on_c, 9, 44, 106
2, 2187, Note_on_c, 9, 36, 47
2, 2189, Control_c, 9, 4, 127
2, 2195, Control_c, 9, 17, 127
2, 2196, Note_on_c, 9, 51, 6
2, 2222, Control_c, 9, 4, 99
2, 2262, Note_on_c, 9, 44, 0
2, 2266, Control_c, 9, 4, 86
2, 2269, Note_on_c, 9, 36, 0
2, 2278, Note_on_c, 9, 51, 0
2, 2321, Control_c, 9, 17, 40
2, 2321, Note_on_c, 9, 51, 83
2, 2371, Control_c, 9, 4, 92
2, 2403, Note_on_c, 9, 51, 0
2, 2418, Note_on_c, 9, 36, 55
2, 2440, Control_c, 9, 16, 0
2, 2440, Note_on_c, 9, 38, 64
2, 2500, Note_on_c, 9, 36, 0
2, 2522, Note_on_c, 9, 38, 0
2, 2525, Control_c, 9, 4, 85
2, 2558, Control_c, 9, 4, 70
2, 2594, Control_c, 9, 4, 0
2, 2658, Control_c, 9, 17, 39
2, 2659, Note_on_c, 9, 51, 82
2, 2660, Note_on_c, 9, 44, 119
2, 2668, Control_c, 9, 4, 127
2, 2703, Control_c, 9, 4, 100
2, 2740, Note_on_c, 9, 51, 0
2, 2742, Note_on_c, 9, 44, 0
2, 2747, Control_c, 9, 4, 85
2, 2782, Control_c, 9, 18, 0
2, 2782, Note_on_c, 9, 36, 54
2, 2782, Note_on_c, 9, 48, 50
2, 2853, Control_c, 9, 4, 91
2, 2864, Note_on_c, 9, 36, 0
2, 2864, Note_on_c, 9, 48, 0
2, 2900, Control_c, 9, 17, 62
2, 2901, Note_on_c, 9, 51, 68
2, 2911, Note_on_c, 9, 48, 68
2, 2939, Control_c, 9, 4, 95
2, 2982, Note_on_c, 9, 51, 0
2, 2992, Note_on_c, 9, 48, 0
2, 3001, Control_c, 9, 4, 90
2, 3024, Control_c, 9, 17, 92
2, 3025, Note_on_c, 9, 51, 68
2, 3037, Control_c, 9, 4, 72
2, 3078, Control_c, 9, 4, 0
2, 3107, Note_on_c, 9, 51, 0
2, 3134, Note_on_c, 9, 44, 106
2, 3140, Note_on_c, 9, 36, 51
2, 3142, Control_c, 9, 4, 127
2, 3175, Control_c, 9, 4, 98
2, 3215, Note_on_c, 9, 44, 0
2, 3218, Control_c, 9, 4, 85
2, 3222, Note_on_c, 9, 36, 0
2, 3324, Control_c, 9, 4, 91
2, 3374, Note_on_c, 9, 36, 62
2, 3378, Control_c, 9, 17, 7
2, 3379, Note_on_c, 9, 51, 91
2, 3387, Note_on_c, 9, 38, 68
2, 3419, Control_c, 9, 4, 95
2, 3457, Note_on_c, 9, 36, 0
2, 3459, Note_on_c, 9, 51, 0
2, 3468, Control_c, 9, 4, 89
2, 3469, Note_on_c, 9, 38, 0
2, 3502, Control_c, 9, 4, 72
2, 3543, Control_c, 9, 4, 0
2, 3608, Control_c, 9, 4, 33
2, 3614, Note_on_c, 9, 44, 127
2, 3624, Control_c, 9, 17, 73
2, 3624, Note_on_c, 9, 51, 76
2, 3639, Control_c, 9, 4, 120
2, 3670, Control_c, 9, 4, 98
2, 3695, Note_on_c, 9, 44, 0
2, 3707, Note_on_c, 9, 51, 0
2, 3711, Control_c, 9, 4, 86
2, 3738, Note_on_c, 9, 36, 51
2, 3740, Control_c, 9, 18, 0
2, 3741, Note_on_c, 9, 48, 51
2, 3820, Note_on_c, 9, 36, 0
2, 3822, Note_on_c, 9, 48, 0
2, 3833, Control_c, 9, 4, 100
2, 3858, Control_c, 9, 17, 116
2, 3858, Note_on_c, 9, 51, 69
2, 3862, Note_on_c, 9, 48, 77
2, 3883, Control_c, 9, 4, 104
2, 3915, Control_c, 9, 4, 97
2, 3941, Note_on_c, 9, 51, 0
2, 3944, Note_on_c, 9, 48, 0
2, 3959, Control_c, 9, 4, 72
2, 3978, Control_c, 9, 17, 62
2, 3979, Note_on_c, 9, 51, 66
2, 4009, Control_c, 9, 4, 0
2, 4060, Note_on_c, 9, 51, 0
2, 4087, Control_c, 9, 4, 34
2, 4089, Note_on_c, 9, 36, 68
2, 4093, Note_on_c, 9, 44, 127
2, 4118, Control_c, 9, 4, 127
2, 4171, Note_on_c, 9, 36, 0
2, 4174, Note_on_c, 9, 44, 0
2, 4181, Control_c, 9, 4, 92
2, 4213, Control_c, 9, 4, 71
2, 4222, Control_c, 9, 17, 48
2, 4222, Note_on_c, 9, 51, 63
2, 4253, Control_c, 9, 4, 0
2, 4303, Note_on_c, 9, 51, 0
2, 4333, Note_on_c, 9, 44, 127
2, 4334, Note_on_c, 9, 36, 77
2, 4341, Control_c, 9, 16, 0
2, 4342, Note_on_c, 9, 38, 72
2, 4345, Control_c, 9, 4, 127
2, 4383, Control_c, 9, 4, 106
2, 4414, Control_c, 9, 4, 90
2, 4415, Note_on_c, 9, 44, 0
2, 4417, Note_on_c, 9, 36, 0
2, 4422, Note_on_c, 9, 38, 0
2, 4452, Control_c, 9, 4, 77
2, 4571, Control_c, 9, 4, 120
2, 4573, Control_c, 9, 17, 84
2, 4573, Note_on_c, 9, 51, 94
2, 4607, Control_c, 9, 4, 120
2, 4647, Control_c, 9, 4, 89
2, 4655, Note_on_c, 9, 51, 0
2, 4677, Control_c, 9, 4, 71
2, 4692, Control_c, 9, 18, 0
2, 4692, Note_on_c, 9, 36, 46
2, 4692, Note_on_c, 9, 48, 48
2, 4722, Control_c, 9, 4, 0
2, 4773, Note_on_c, 9, 48, 0
2, 4774, Note_on_c, 9, 36, 0
2, 4788, Note_on_c, 9, 46, 7
2, 4794, Control_c, 9, 4, 33
2, 4800, Note_on_c, 9, 44, 127
2, 4814, Note_on_c, 9, 48, 78
2, 4824, Control_c, 9, 17, 127
2, 4824, Note_on_c, 9, 51, 58
2, 4825, Control_c, 9, 4, 127
2, 4862, Control_c, 9, 4, 104
2, 4870, Note_on_c, 9, 46, 0
2, 4882, Note_on_c, 9, 44, 0
2, 4894, Control_c, 9, 4, 91
2, 4896, Note_on_c, 9, 48, 0
2, 4906, Note_on_c, 9, 51, 0
2, 4938, Control_c, 9, 17, 42
2, 4938, Note_on_c, 9, 51, 73
2, 5020, Control_c, 9, 4, 106
2, 5020, Note_on_c, 9, 51, 0
2, 5034, Note_on_c, 9, 36, 58
2, 5069, Control_c, 9, 4, 95
2, 5101, Control_c, 9, 4, 91
2, 5116, Note_on_c, 9, 36, 0
2, 5270, Note_on_c, 9, 36, 68
2, 5276, Control_c, 9, 17, 35
2, 5276, Note_on_c, 9, 51, 85
2, 5284, Note_on_c, 9, 38, 90
2, 5290, Control_c, 9, 4, 97
2, 5353, Note_on_c, 9, 36, 0
2, 5357, Note_on_c, 9, 51, 0
2, 5361, Control_c, 9, 4, 91
2, 5366, Note_on_c, 9, 38, 0
2, 5406, Control_c, 9, 4, 69
2, 5440, Control_c, 9, 4, 0
2, 5515, Note_on_c, 9, 44, 127
2, 5521, Control_c, 9, 4, 127
2, 5526, Control_c, 9, 17, 59
2, 5527, Note_on_c, 9, 51, 77
2, 5565, Control_c, 9, 4, 112
2, 5597, Note_on_c, 9, 44, 0
2, 5598, Control_c, 9, 4, 93
2, 5609, Note_on_c, 9, 51, 0
2, 5628, Control_c, 9, 4, 89
2, 5632, Control_c, 9, 18, 0
2, 5632, Note_on_c, 9, 48, 49
2, 5649, Note_on_c, 9, 36, 59
2, 5714, Note_on_c, 9, 48, 0
2, 5731, Note_on_c, 9, 36, 0
2, 5753, Note_on_c, 9, 48, 72
2, 5759, Control_c, 9, 17, 127
2, 5759, Note_on_c, 9, 51, 63
2, 5764, Control_c, 9, 4, 120
2, 5832, Control_c, 9, 4, 98
2, 5834, Note_on_c, 9, 48, 0
2, 5841, Note_on_c, 9, 51, 0
2, 5876, Control_c, 9, 4, 72
2, 5900, Control_c, 9, 17, 80
2, 5900, Note_on_c, 9, 51, 68
2, 5915, Control_c, 9, 4, 0
2, 5982, Note_on_c, 9, 51, 0
2, 5987, Note_on_c, 9, 36, 65
2, 5987, Note_on_c, 9, 46, 12
2, 5993, Control_c, 9, 4, 35
2, 5998, Note_on_c, 9, 44, 127
2, 6024, Control_c, 9, 4, 126
2, 6068, Note_on_c, 9, 36, 0
2, 6068, Note_on_c, 9, 46, 0
2, 6074, Control_c, 9, 4, 110
2, 6081, Note_on_c, 9, 44, 0
2, 6112, Control_c, 9, 17, 29
2, 6112, Note_on_c, 9, 51, 77
2, 6114, Control_c, 9, 4, 76
2, 6151, Control_c, 9, 4, 0
2, 6194, Note_on_c, 9, 51, 0
2, 6227, Note_on_c, 9, 46, 7
2, 6231, Note_on_c, 9, 36, 81
2, 6240, Note_on_c, 9, 44, 127
2, 6241, Control_c, 9, 16, 0
2, 6241, Note_on_c, 9, 38, 74
2, 6248, Control_c, 9, 4, 127
2, 6281, Control_c, 9, 4, 102
2, 6309, Note_on_c, 9, 46, 0
2, 6312, Note_on_c, 9, 36, 0
2, 6315, Control_c, 9, 4, 92
2, 6321, Note_on_c, 9, 44, 0
2, 6323, Note_on_c, 9, 38, 0
2, 6360, Control_c, 9, 4, 81
2, 6459, Control_c, 9, 4, 114
2, 6474, Control_c, 9, 17, 94
2, 6474, Note_on_c, 9, 51, 86
2, 6547, Control_c, 9, 4, 91
2, 6555, Note_on_c, 9, 51, 0
2, 6583, Control_c, 9, 4, 71
2, 6591, Control_c, 9, 18, 0
2, 6591, Note_on_c, 9, 48, 47
2, 6593, Note_on_c, 9, 36, 57
2, 6621, Control_c, 9, 4, 0
2, 6675, Note_on_c, 9, 36, 0
2, 6675, Note_on_c, 9, 48, 0
2, 6691, Note_on_c, 9, 46, 9
2, 6702, Note_on_c, 9, 44, 127
2, 6707, Control_c, 9, 4, 127
2, 6712, Note_on_c, 9, 48, 80
2, 6718, Control_c, 9, 17, 127
2, 6719, Note_on_c, 9, 51, 65
2, 6752, Control_c, 9, 4, 114
2, 6772, Note_on_c, 9, 46, 0
2, 6784, Note_on_c, 9, 44, 0
2, 6794, Note_on_c, 9, 48, 0
2, 6795, Control_c, 9, 4, 90
2, 6799, Note_on_c, 9, 51, 0
2, 6832, Control_c, 9, 17, 57
2, 6832, Note_on_c, 9, 51, 65
2, 6914, Note_on_c, 9, 51, 0
2, 6915, Control_c, 9, 4, 108
2, 6938, Note_on_c, 9, 36, 68
2, 6948, Control_c, 9, 17, 57
2, 6949, Note_on_c, 9, 51, 5
2, 6969, Control_c, 9, 4, 95
2, 7021, Note_on_c, 9, 36, 0
2, 7029, Note_on_c, 9, 51, 0
2, 7127, Control_c, 9, 4, 91
2, 7178, Note_on_c, 9, 36, 76
2, 7189, Control_c, 9, 17, 45
2, 7190, Note_on_c, 9, 51, 89
2, 7193, Note_on_c, 9, 38, 102
2, 7203, Control_c, 9, 4, 97
2, 7260, Note_on_c, 9, 36, 0
2, 7272, Note_on_c, 9, 51, 0
2, 7273, Note_on_c, 9, 38, 0
2, 7276, Control_c, 9, 4, 90
2, 7307, Control_c, 9, 4, 73
2, 7353, Control_c, 9, 4, 0
2, 7427, Note_on_c, 9, 44, 127
2, 7433, Control_c, 9, 4, 127
2, 7437, Control_c, 9, 17, 85
2, 7438, Note_on_c, 9, 51, 80
2, 7477, Control_c, 9, 4, 118
2, 7509, Note_on_c, 9, 44, 0
2, 7516, Control_c, 9, 4, 91
2, 7520, Note_on_c, 9, 51, 0
2, 7541, Control_c, 9, 18, 0
2, 7542, Note_on_c, 9, 48, 49
2, 7549, Control_c, 9, 4, 85
2, 7561, Note_on_c, 9, 36, 51
2, 7623, Note_on_c, 9, 48, 0
2, 7642, Note_on_c, 9, 36, 0
2, 7664, Control_c, 9, 4, 112
2, 7672, Control_c, 9, 17, 127
2, 7673, End_track
0, 0, End_of_file
