0, 0, Header, 1, 2, 480
1, 0, Start_track
1, 0, Tempo, 588235
1, 0, Time_signature, 4, 2, 24, 8
1, 0, Key_signature, 0, "major"
1, 1, End_track
2, 0, Start_track
2, 0, Title_t, "Classic Studio Kit"
2, 0, Program_c, 9, 0
2, 0, Control_c, 9, 17, 58
2, 3, Note_on_c, 9, 46, 8
2, 3, Note_on_c, 9, 46, 10
2, 10, Control_c, 9, 4, 33
2, 12, Control_c, 9, 4, 33
2, 16, Note_on_c, 9, 44, 127
2, 17, Note_on_c, 9, 44, 127
2, 25, Control_c, 9, 17, 70
2, 25, Note_on_c, 9, 51, 54
2, 27, Control_c, 9, 18, 0
2, 27, Note_on_c, 9, 48, 75
2, 32, Note_on_c, 9, 48, 87
2, 41, Control_c, 9, 4, 120
2, 43, Control_c, 9, 4, 127
2, 83, Note_on_c, 9, 51, 0
2, 84, Note_on_c, 9, 46, 0
2, 84, Note_on_c, 9, 46, 0
2, 86, Control_c, 9, 4, 102
2, 97, Note_on_c, 9, 44, 0
2, 97, Note_on_c, 9, 44, 0
2, 108, Control_c, 9, 4, 91
2, 108, Note_on_c, 9, 48, 0
2, 108, Note_on_c, 9, 48, 0
2, 122, Control_c, 9, 4, 91
2, 136, Control_c, 9, 17, 11
2, 137, Note_on_c, 9, 51, 71
2, 140, Control_c, 9, 4, 87
2, 152, Control_c, 9, 17, 1
2, 153, Note_on_c, 9, 51, 80
2, 218, Note_on_c, 9, 51, 0
2, 218, Note_on_c, 9, 51, 0
2, 237, Control_c, 9, 4, 104
2, 253, Control_c, 9, 4, 110
2, 258, Note_on_c, 9, 36, 61
2, 264, Note_on_c, 9, 36, 69
2, 291, Control_c, 9, 4, 92
2, 317, Control_c, 9, 4, 104
2, 340, Note_on_c, 9, 36, 0
2, 340, Note_on_c, 9, 36, 0
2, 352, Control_c, 9, 4, 92
2, 390, Control_c, 9, 4, 74
2, 431, Control_c, 9, 4, 0
2, 497, Control_c, 9, 4, 49
2, 498, Note_on_c, 9, 36, 65
2, 502, Note_on_c, 9, 44, 126
2, 504, Control_c, 9, 17, 5
2, 505, Note_on_c, 9, 51, 96
2, 510, Note_on_c, 9, 36, 79
2, 511, Control_c, 9, 16, 0
2, 511, Note_on_c, 9, 38, 82
2, 512, Control_c, 9, 17, 36
2, 512, Note_on_c, 9, 38, 83
2, 514, Note_on_c, 9, 51, 77
2, 527, Control_c, 9, 4, 116
2, 569, Control_c, 9, 4, 96
2, 579, Note_on_c, 9, 36, 0
2, 579, Note_on_c, 9, 36, 0
2, 583, Note_on_c, 9, 44, 0
2, 586, Note_on_c, 9, 51, 0
2, 586, Note_on_c, 9, 51, 0
2, 591, Note_on_c, 9, 38, 0
2, 591, Note_on_c, 9, 38, 0
2, 599, Control_c, 9, 4, 84
2, 603, Control_c, 9, 4, 83
2, 634, Control_c, 9, 4, 70
2, 643, Control_c, 9, 4, 79
2, 668, Control_c, 9, 4, 0
2, 690, Control_c, 9, 4, 80
2, 730, Control_c, 9, 4, 34
2, 732, Control_c, 9, 4, 102
2, 736, Note_on_c, 9, 44, 126
2, 752, Control_c, 9, 17, 17
2, 752, Note_on_c, 9, 51, 72
2, 759, Control_c, 9, 17, 44
2, 759, Note_on_c, 9, 51, 75
2, 761, Control_c, 9, 4, 118
2, 770, Control_c, 9, 4, 104
2, 803, Control_c, 9, 4, 98
2, 815, Control_c, 9, 4, 90
2, 817, Note_on_c, 9, 44, 0
2, 833, Note_on_c, 9, 51, 0
2, 833, Note_on_c, 9, 51, 0
2, 844, Control_c, 9, 4, 84
2, 845, Control_c, 9, 4, 85
2, 864, Control_c, 9, 18, 42
2, 864, Note_on_c, 9, 48, 50
2, 875, Control_c, 9, 4, 70
2, 875, Control_c, 9, 18, 0
2, 875, Note_on_c, 9, 36, 67
2, 875, Note_on_c, 9, 48, 56
2, 879, Note_on_c, 9, 36, 69
2, 912, Control_c, 9, 4, 0
2, 947, Note_on_c, 9, 48, 0
2, 947, Note_on_c, 9, 48, 0
2, 957, Note_on_c, 9, 36, 0
2, 957, Note_on_c, 9, 36, 0
2, 969, Control_c, 9, 17, 21
2, 969, Note_on_c, 9, 51, 58
2, 983, Control_c, 9, 4, 104
2, 983, Note_on_c, 9, 44, 127
2, 989, Control_c, 9, 4, 127
2, 995, Note_on_c, 9, 48, 73
2, 996, Control_c, 9, 17, 116
2, 996, Note_on_c, 9, 51, 53
2, 1003, Note_on_c, 9, 48, 80
2, 1031, Control_c, 9, 4, 110
2, 1051, Note_on_c, 9, 51, 0
2, 1051, Note_on_c, 9, 51, 0
2, 1065, Note_on_c, 9, 44, 0
2, 1070, Control_c, 9, 4, 91
2, 1070, Control_c, 9, 4, 92
2, 1076, Note_on_c, 9, 48, 0
2, 1076, Note_on_c, 9, 48, 0
2, 1105, Control_c, 9, 17, 3
2, 1106, Note_on_c, 9, 51, 74
2, 1107, Control_c, 9, 4, 73
2, 1115, Control_c, 9, 17, 27
2, 1116, Note_on_c, 9, 51, 70
2, 1140, Control_c, 9, 4, 0
2, 1187, Note_on_c, 9, 51, 0
2, 1187, Note_on_c, 9, 51, 0
2, 1201, Control_c, 9, 4, 102
2, 1209, Note_on_c, 9, 46, 11
2, 1217, Control_c, 9, 4, 33
2, 1222, Note_on_c, 9, 36, 58
2, 1223, Note_on_c, 9, 44, 127
2, 1229, Note_on_c, 9, 36, 67
2, 1248, Control_c, 9, 4, 120
2, 1264, Note_on_c, 9, 49, 6
2, 1290, Control_c, 9, 4, 98
2, 1290, Note_on_c, 9, 46, 0
2, 1301, Control_c, 9, 4, 97
2, 1303, Note_on_c, 9, 36, 0
2, 1303, Note_on_c, 9, 36, 0
2, 1304, Note_on_c, 9, 44, 0
2, 1325, Control_c, 9, 4, 84
2, 1345, Note_on_c, 9, 49, 0
2, 1346, Control_c, 9, 4, 84
2, 1376, Control_c, 9, 4, 70
2, 1408, Control_c, 9, 4, 0
2, 1465, Note_on_c, 9, 36, 86
2, 1468, Control_c, 9, 4, 35
2, 1468, Control_c, 9, 4, 95
2, 1471, Control_c, 9, 17, 0
2, 1471, Note_on_c, 9, 51, 103
2, 1473, Control_c, 9, 16, 21
2, 1474, Note_on_c, 9, 38, 62
2, 1474, Note_on_c, 9, 44, 119
2, 1475, Control_c, 9, 17, 50
2, 1476, Note_on_c, 9, 51, 81
2, 1480, Note_on_c, 9, 36, 78
2, 1486, Note_on_c, 9, 38, 79
2, 1499, Control_c, 9, 4, 116
2, 1540, Control_c, 9, 4, 94
2, 1546, Note_on_c, 9, 36, 0
2, 1546, Note_on_c, 9, 36, 0
2, 1553, Note_on_c, 9, 51, 0
2, 1553, Note_on_c, 9, 51, 0
2, 1554, Note_on_c, 9, 38, 0
2, 1554, Note_on_c, 9, 38, 0
2, 1555, Note_on_c, 9, 44, 0
2, 1578, Control_c, 9, 4, 84
2, 1584, Control_c, 9, 4, 84
2, 1621, Control_c, 9, 4, 70
2, 1664, Control_c, 9, 4, 0
2, 1704, Control_c, 9, 4, 108
2, 1718, Control_c, 9, 4, 32
2, 1723, Control_c, 9, 17, 11
2, 1723, Control_c, 9, 17, 64
2, 1723, Note_on_c, 9, 51, 71
2, 1724, Note_on_c, 9, 51, 71
2, 1727, Note_on_c, 9, 44, 119
2, 1750, Control_c, 9, 4, 116
2, 1765, Control_c, 9, 4, 100
2, 1791, Control_c, 9, 4, 96
2, 1805, Note_on_c, 9, 51, 0
2, 1805, Note_on_c, 9, 51, 0
2, 1807, Control_c, 9, 4, 87
2, 1807, Note_on_c, 9, 44, 0
2, 1829, Control_c, 9, 4, 85
2, 1834, Note_on_c, 9, 36, 74
2, 1837, Control_c, 9, 4, 71
2, 1838, Control_c, 9, 18, 0
2, 1838, Note_on_c, 9, 48, 60
2, 1842, Control_c, 9, 18, 42
2, 1843, Note_on_c, 9, 48, 51
2, 1852, Note_on_c, 9, 36, 59
2, 1874, Control_c, 9, 4, 0
2, 1916, Note_on_c, 9, 36, 0
2, 1916, Note_on_c, 9, 36, 0
2, 1919, Note_on_c, 9, 48, 0
2, 1919, Note_on_c, 9, 48, 0
2, 1937, Control_c, 9, 17, 32
2, 1937, Note_on_c, 9, 51, 57
2, 1947, Note_on_c, 9, 44, 127
2, 1952, Control_c, 9, 4, 127
2, 1958, Control_c, 9, 17, 68
2, 1959, Note_on_c, 9, 51, 59
2, 1962, Note_on_c, 9, 48, 74
2, 1967, Control_c, 9, 18, 0
2, 1968, Note_on_c, 9, 48, 73
2, 1970, Control_c, 9, 4, 108
2, 1997, Control_c, 9, 4, 118
2, 2019, Note_on_c, 9, 51, 0
2, 2019, Note_on_c, 9, 51, 0
2, 2024, Control_c, 9, 4, 100
2, 2029, Note_on_c, 9, 44, 0
2, 2034, Control_c, 9, 4, 92
2, 2043, Note_on_c, 9, 48, 0
2, 2043, Note_on_c, 9, 48, 0
2, 2064, Control_c, 9, 4, 85
2, 2073, Control_c, 9, 17, 4
2, 2074, Note_on_c, 9, 51, 69
2, 2080, Control_c, 9, 17, 1
2, 2081, Note_on_c, 9, 51, 79
2, 2097, Control_c, 9, 4, 70
2, 2130, Control_c, 9, 4, 0
2, 2156, Note_on_c, 9, 51, 0
2, 2156, Note_on_c, 9, 51, 0
2, 2184, Control_c, 9, 4, 100
2, 2191, Control_c, 9, 4, 33
2, 2192, Note_on_c, 9, 36, 62
2, 2197, Note_on_c, 9, 36, 55
2, 2197, Note_on_c, 9, 44, 127
2, 2222, Control_c, 9, 4, 118
2, 2238, Note_on_c, 9, 49, 6
2, 2265, Control_c, 9, 4, 95
2, 2273, Note_on_c, 9, 36, 0
2, 2273, Note_on_c, 9, 36, 0
2, 2277, Control_c, 9, 4, 95
2, 2279, Note_on_c, 9, 44, 0
2, 2302, Control_c, 9, 4, 85
2, 2313, Control_c, 9, 4, 83
2, 2321, Note_on_c, 9, 49, 0
2, 2345, Control_c, 9, 4, 69
2, 2377, Control_c, 9, 4, 0
2, 2391, Control_c, 9, 4, 89
2, 2429, Control_c, 9, 4, 35
2, 2436, Note_on_c, 9, 44, 113
2, 2440, Control_c, 9, 4, 93
2, 2441, Note_on_c, 9, 36, 74
2, 2442, Control_c, 9, 17, 0
2, 2442, Note_on_c, 9, 36, 75
2, 2443, Note_on_c, 9, 51, 101
2, 2445, Note_on_c, 9, 51, 104
2, 2449, Control_c, 9, 16, 0
2, 2450, Control_c, 9, 16, 0
2, 2450, Note_on_c, 9, 38, 60
2, 2451, Note_on_c, 9, 38, 68
2, 2461, Control_c, 9, 4, 118
2, 2502, Control_c, 9, 4, 95
2, 2516, Note_on_c, 9, 44, 0
2, 2522, Note_on_c, 9, 36, 0
2, 2522, Note_on_c, 9, 36, 0
2, 2523, Note_on_c, 9, 51, 0
2, 2523, Note_on_c, 9, 51, 0
2, 2529, Note_on_c, 9, 38, 0
2, 2529, Note_on_c, 9, 38, 0
2, 2538, Control_c, 9, 4, 84
2, 2547, Control_c, 9, 4, 87
2, 2583, Control_c, 9, 4, 73
2, 2628, Control_c, 9, 4, 0
2, 2655, Control_c, 9, 4, 92
2, 2679, Control_c, 9, 4, 33
2, 2685, Note_on_c, 9, 44, 119
2, 2688, Control_c, 9, 17, 0
2, 2689, Control_c, 9, 4, 104
2, 2689, Control_c, 9, 17, 18
2, 2689, Note_on_c, 9, 51, 68
2, 2689, Note_on_c, 9, 51, 92
2, 2711, Control_c, 9, 4, 120
2, 2738, Control_c, 9, 4, 98
2, 2756, Control_c, 9, 4, 96
2, 2768, Note_on_c, 9, 44, 0
2, 2771, Note_on_c, 9, 51, 0
2, 2771, Note_on_c, 9, 51, 0
2, 2786, Control_c, 9, 4, 83
2, 2790, Control_c, 9, 4, 84
2, 2803, Control_c, 9, 18, 42
2, 2804, Note_on_c, 9, 48, 46
2, 2806, Control_c, 9, 18, 0
2, 2806, Note_on_c, 9, 48, 57
2, 2809, Note_on_c, 9, 36, 64
2, 2815, Note_on_c, 9, 36, 65
2, 2817, Control_c, 9, 4, 69
2, 2849, Control_c, 9, 4, 0
2, 2885, Note_on_c, 9, 48, 0
2, 2885, Note_on_c, 9, 48, 0
2, 2890, Note_on_c, 9, 36, 0
2, 2890, Note_on_c, 9, 36, 0
2, 2896, Control_c, 9, 17, 20
2, 2897, Note_on_c, 9, 51, 56
2, 2921, Control_c, 9, 4, 110
2, 2923, Note_on_c, 9, 44, 127
2, 2925, Control_c, 9, 17, 20
2, 2926, Note_on_c, 9, 51, 60
2, 2928, Note_on_c, 9, 48, 68
2, 2929, Control_c, 9, 4, 127
2, 2932, Note_on_c, 9, 48, 74
2, 2969, Control_c, 9, 4, 110
2, 2974, Control_c, 9, 4, 102
2, 2978, Note_on_c, 9, 51, 0
2, 2978, Note_on_c, 9, 51, 0
2, 3005, Note_on_c, 9, 44, 0
2, 3008, Control_c, 9, 4, 94
2, 3010, Note_on_c, 9, 48, 0
2, 3010, Note_on_c, 9, 48, 0
2, 3012, Control_c, 9, 4, 90
2, 3034, Control_c, 9, 17, 6
2, 3035, Note_on_c, 9, 51, 70
2, 3049, Control_c, 9, 4, 74
2, 3052, Control_c, 9, 17, 0
2, 3053, Note_on_c, 9, 51, 79
2, 3090, Control_c, 9, 4, 0
2, 3116, Note_on_c, 9, 51, 0
2, 3116, Note_on_c, 9, 51, 0
2, 3151, Control_c, 9, 4, 34
2, 3157, Note_on_c, 9, 44, 127
2, 3160, Control_c, 9, 4, 98
2, 3162, Note_on_c, 9, 36, 60
2, 3164, Note_on_c, 9, 36, 65
2, 3182, Control_c, 9, 4, 122
2, 3199, Note_on_c, 9, 49, 6
2, 3226, Control_c, 9, 4, 96
2, 3239, Note_on_c, 9, 44, 0
2, 3244, Note_on_c, 9, 36, 0
2, 3244, Note_on_c, 9, 36, 0
2, 3263, Control_c, 9, 4, 85
2, 3267, Control_c, 9, 4, 86
2, 3282, Note_on_c, 9, 49, 0
2, 3299, Control_c, 9, 4, 70
2, 3340, Control_c, 9, 4, 0
2, 3387, Control_c, 9, 4, 96
2, 3391, Control_c, 9, 4, 49
2, 3396, Note_on_c, 9, 44, 113
2, 3398, Note_on_c, 9, 36, 78
2, 3399, Note_on_c, 9, 51, 93
2, 3400, Note_on_c, 9, 36, 72
2, 3407, Note_on_c, 9, 38, 57
2, 3407, Note_on_c, 9, 51, 92
2, 3409, Control_c, 9, 16, 21
2, 3409, Note_on_c, 9, 38, 75
2, 3421, Control_c, 9, 4, 120
2, 3460, Control_c, 9, 4, 95
2, 3478, Note_on_c, 9, 44, 0
2, 3480, Note_on_c, 9, 36, 0
2, 3480, Note_on_c, 9, 36, 0
2, 3481, Note_on_c, 9, 51, 0
2, 3481, Note_on_c, 9, 51, 0
2, 3487, Note_on_c, 9, 38, 0
2, 3487, Note_on_c, 9, 38, 0
2, 3493, Control_c, 9, 4, 83
2, 3514, Control_c, 9, 4, 84
2, 3550, Control_c, 9, 4, 70
2, 3593, Control_c, 9, 4, 0
2, 3608, Control_c, 9, 4, 92
2, 3639, Control_c, 9, 4, 49
2, 3642, Control_c, 9, 4, 99
2, 3644, Note_on_c, 9, 44, 106
2, 3647, Control_c, 9, 17, 0
2, 3648, Note_on_c, 9, 51, 90
2, 3650, Control_c, 9, 17, 11
2, 3650, Note_on_c, 9, 51, 77
2, 3669, Control_c, 9, 4, 118
2, 3712, Control_c, 9, 4, 96
2, 3726, Note_on_c, 9, 44, 0
2, 3730, Note_on_c, 9, 51, 0
2, 3730, Note_on_c, 9, 51, 0
2, 3742, Control_c, 9, 4, 84
2, 3753, Control_c, 9, 4, 84
2, 3760, Note_on_c, 9, 36, 59
2, 3763, Control_c, 9, 18, 0
2, 3764, Control_c, 9, 18, 42
2, 3764, Note_on_c, 9, 48, 46
2, 3764, Note_on_c, 9, 48, 55
2, 3772, Control_c, 9, 4, 70
2, 3775, Note_on_c, 9, 36, 62
2, 3807, Control_c, 9, 4, 0
2, 3842, Note_on_c, 9, 36, 0
2, 3842, Note_on_c, 9, 36, 0
2, 3845, Note_on_c, 9, 48, 0
2, 3845, Note_on_c, 9, 48, 0
2, 3855, Control_c, 9, 17, 27
2, 3855, Note_on_c, 9, 51, 59
2, 3878, Control_c, 9, 4, 110
2, 3878, Note_on_c, 9, 44, 127
2, 3883, Control_c, 9, 4, 127
2, 3886, Control_c, 9, 17, 50
2, 3887, Control_c, 9, 18, 42
2, 3887, Note_on_c, 9, 51, 55
2, 3888, Note_on_c, 9, 48, 66
2, 3888, Note_on_c, 9, 48, 70
2, 3928, Control_c, 9, 4, 112
2, 3938, Note_on_c, 9, 51, 0
2, 3938, Note_on_c, 9, 51, 0
2, 3945, Control_c, 9, 4, 96
2, 3959, Note_on_c, 9, 44, 0
2, 3966, Control_c, 9, 4, 94
2, 3969, Note_on_c, 9, 48, 0
2, 3969, Note_on_c, 9, 48, 0
2, 3984, Control_c, 9, 4, 83
2, 3995, Control_c, 9, 17, 5
2, 3995, Note_on_c, 9, 51, 71
2, 4011, Control_c, 9, 17, 0
2, 4012, Note_on_c, 9, 51, 83
2, 4017, Control_c, 9, 4, 70
2, 4051, Control_c, 9, 4, 0
2, 4077, Note_on_c, 9, 51, 0
2, 4077, Note_on_c, 9, 51, 0
2, 4108, Control_c, 9, 4, 32
2, 4108, Note_on_c, 9, 36, 57
2, 4112, Control_c, 9, 4, 95
2, 4113, Note_on_c, 9, 44, 127
2, 4120, Note_on_c, 9, 36, 61
2, 4139, Control_c, 9, 4, 122
2, 4157, Note_on_c, 9, 49, 5
2, 4184, Control_c, 9, 4, 96
2, 4189, Note_on_c, 9, 36, 0
2, 4189, Note_on_c, 9, 36, 0
2, 4196, Note_on_c, 9, 44, 0
2, 4222, Control_c, 9, 4, 85
2, 4240, Note_on_c, 9, 49, 0
2, 4267, Control_c, 9, 4, 91
2, 4348, Control_c, 9, 4, 95
2, 4353, Note_on_c, 9, 36, 81
2, 4356, Control_c, 9, 17, 3
2, 4356, Note_on_c, 9, 36, 71
2, 4357, Note_on_c, 9, 51, 109
2, 4365, Control_c, 9, 16, 0
2, 4365, Control_c, 9, 17, 0
2, 4365, Note_on_c, 9, 51, 90
2, 4366, Note_on_c, 9, 38, 80
2, 4369, Note_on_c, 9, 38, 71
2, 4378, Control_c, 9, 4, 95
2, 4435, Note_on_c, 9, 36, 0
2, 4435, Note_on_c, 9, 36, 0
2, 4438, Note_on_c, 9, 51, 0
2, 4438, Note_on_c, 9, 51, 0
2, 4447, Note_on_c, 9, 38, 0
2, 4447, Note_on_c, 9, 38, 0
2, 4461, Control_c, 9, 4, 83
2, 4467, Control_c, 9, 4, 83
2, 4493, Control_c, 9, 4, 70
2, 4500, Control_c, 9, 4, 69
2, 4532, Control_c, 9, 4, 0
2, 4533, Control_c, 9, 4, 0
2, 4590, Control_c, 9, 4, 33
2, 4596, Note_on_c, 9, 44, 126
2, 4600, Note_on_c, 9, 44, 126
2, 4607, Control_c, 9, 4, 127
2, 4607, Control_c, 9, 17, 25
2, 4607, Note_on_c, 9, 51, 72
2, 4613, Control_c, 9, 17, 11
2, 4614, Note_on_c, 9, 51, 92
2, 4621, Control_c, 9, 4, 120
2, 4651, Control_c, 9, 4, 120
2, 4678, Note_on_c, 9, 44, 0
2, 4678, Note_on_c, 9, 44, 0
2, 4680, Control_c, 9, 4, 91
2, 4686, Control_c, 9, 4, 90
2, 4689, Note_on_c, 9, 51, 0
2, 4689, Note_on_c, 9, 51, 0
2, 4711, Control_c, 9, 4, 85
2, 4718, Control_c, 9, 18, 21
2, 4719, Note_on_c, 9, 48, 47
2, 4720, Control_c, 9, 4, 85
2, 4726, Control_c, 9, 18, 0
2, 4726, Note_on_c, 9, 48, 54
2, 4729, Note_on_c, 9, 36, 64
2, 4733, Note_on_c, 9, 36, 58
2, 4801, Note_on_c, 9, 48, 0
2, 4801, Note_on_c, 9, 48, 0
2, 4810, Note_on_c, 9, 36, 0
2, 4810, Note_on_c, 9, 36, 0
2, 4813, Control_c, 9, 17, 44
2, 4814, Note_on_c, 9, 51, 55
2, 4829, Control_c, 9, 4, 110
2, 4836, Control_c, 9, 17, 26
2, 4836, Note_on_c, 9, 51, 63
2, 4840, Control_c, 9, 4, 118
2, 4847, Note_on_c, 9, 48, 70
2, 4848, Note_on_c, 9, 48, 70
2, 4895, Note_on_c, 9, 51, 0
2, 4895, Note_on_c, 9, 51, 0
2, 4906, Control_c, 9, 4, 91
2, 4906, Control_c, 9, 4, 96
2, 4929, Note_on_c, 9, 48, 0
2, 4929, Note_on_c, 9, 48, 0
2, 4942, Control_c, 9, 4, 73
2, 4947, Control_c, 9, 17, 7
2, 4948, Note_on_c, 9, 51, 75
2, 4950, Control_c, 9, 4, 71
2, 4959, Control_c, 9, 17, 7
2, 4960, Note_on_c, 9, 51, 69
2, 4981, Control_c, 9, 4, 0
2, 4986, Control_c, 9, 4, 0
2, 5030, Note_on_c, 9, 51, 0
2, 5030, Note_on_c, 9, 51, 0
2, 5054, Note_on_c, 9, 46, 12
2, 5061, Control_c, 9, 4, 35
2, 5065, Note_on_c, 9, 46, 14
2, 5066, Note_on_c, 9, 44, 127
2, 5072, Control_c, 9, 4, 34
2, 5075, Note_on_c, 9, 36, 57
2, 5078, Note_on_c, 9, 44, 127
2, 5084, Note_on_c, 9, 36, 65
2, 5092, Control_c, 9, 4, 120
2, 5103, Control_c, 9, 4, 126
2, 5136, Control_c, 9, 4, 104
2, 5136, Note_on_c, 9, 46, 0
2, 5136, Note_on_c, 9, 46, 0
2, 5148, Note_on_c, 9, 44, 0
2, 5148, Note_on_c, 9, 44, 0
2, 5152, Control_c, 9, 4, 95
2, 5156, Note_on_c, 9, 36, 0
2, 5156, Note_on_c, 9, 36, 0
2, 5174, Control_c, 9, 4, 71
2, 5189, Control_c, 9, 4, 70
2, 5208, Control_c, 9, 4, 0
2, 5228, Control_c, 9, 4, 0
2, 5285, Note_on_c, 9, 46, 9
2, 5295, Control_c, 9, 4, 33
2, 5301, Note_on_c, 9, 44, 113
2, 5302, Control_c, 9, 4, 0
2, 5302, Note_on_c, 9, 46, 10
2, 5311, Control_c, 9, 16, 0
2, 5312, Control_c, 9, 17, 1
2, 5312, Note_on_c, 9, 38, 90
2, 5314, Control_c, 9, 17, 0
2, 5314, Note_on_c, 9, 51, 109
2, 5315, Note_on_c, 9, 36, 89
2, 5315, Note_on_c, 9, 51, 102
2, 5318, Note_on_c, 9, 44, 119
2, 5319, Note_on_c, 9, 36, 87
2, 5321, Note_on_c, 9, 38, 66
2, 5327, Control_c, 9, 4, 96
2, 5332, Control_c, 9, 4, 116
2, 5367, Control_c, 9, 4, 106
2, 5367, Note_on_c, 9, 46, 0
2, 5367, Note_on_c, 9, 46, 0
2, 5382, Note_on_c, 9, 44, 0
2, 5382, Note_on_c, 9, 44, 0
2, 5394, Note_on_c, 9, 38, 0
2, 5394, Note_on_c, 9, 38, 0
2, 5394, Note_on_c, 9, 51, 0
2, 5394, Note_on_c, 9, 51, 0
2, 5396, Note_on_c, 9, 36, 0
2, 5396, Note_on_c, 9, 36, 0
2, 5399, Control_c, 9, 4, 90
2, 5402, Control_c, 9, 4, 83
2, 5433, Control_c, 9, 4, 79
2, 5442, Control_c, 9, 4, 79
2, 5523, Control_c, 9, 4, 90
2, 5559, Control_c, 9, 17, 33
2, 5559, Note_on_c, 9, 51, 73
2, 5560, Control_c, 9, 17, 8
2, 5560, Note_on_c, 9, 51, 87
2, 5562, Control_c, 9, 4, 116
2, 5602, Control_c, 9, 4, 116
2, 5622, Control_c, 9, 4, 91
2, 5641, Control_c, 9, 4, 92
2, 5641, Note_on_c, 9, 51, 0
2, 5641, Note_on_c, 9, 51, 0
2, 5658, Control_c, 9, 4, 73
2, 5674, Control_c, 9, 18, 0
2, 5675, Note_on_c, 9, 48, 54
2, 5678, Control_c, 9, 4, 73
2, 5680, Control_c, 9, 18, 21
2, 5680, Note_on_c, 9, 48, 50
2, 5682, Note_on_c, 9, 36, 65
2, 5686, Note_on_c, 9, 36, 72
2, 5696, Control_c, 9, 4, 0
2, 5720, Control_c, 9, 4, 0
2, 5756, Note_on_c, 9, 48, 0
2, 5756, Note_on_c, 9, 48, 0
2, 5763, Control_c, 9, 17, 82
2, 5764, Note_on_c, 9, 36, 0
2, 5764, Note_on_c, 9, 36, 0
2, 5764, Note_on_c, 9, 51, 47
2, 5769, Note_on_c, 9, 46, 15
2, 5776, Control_c, 9, 4, 34
2, 5781, Note_on_c, 9, 44, 127
2, 5784, Control_c, 9, 17, 64
2, 5784, Note_on_c, 9, 51, 52
2, 5789, Note_on_c, 9, 46, 11
2, 5798, Control_c, 9, 18, 0
2, 5798, Note_on_c, 9, 48, 77
2, 5801, Note_on_c, 9, 44, 127
2, 5802, Note_on_c, 9, 48, 75
2, 5806, Control_c, 9, 4, 127
2, 5807, Control_c, 9, 4, 122
2, 5846, Note_on_c, 9, 51, 0
2, 5846, Note_on_c, 9, 51, 0
2, 5850, Control_c, 9, 4, 116
2, 5850, Note_on_c, 9, 46, 0
2, 5850, Note_on_c, 9, 46, 0
2, 5864, Note_on_c, 9, 44, 0
2, 5864, Note_on_c, 9, 44, 0
2, 5870, Control_c, 9, 4, 92
2, 5880, Note_on_c, 9, 48, 0
2, 5880, Note_on_c, 9, 48, 0
2, 5894, Control_c, 9, 4, 92
2, 5902, Control_c, 9, 4, 88
2, 5904, Control_c, 9, 17, 0
2, 5904, Note_on_c, 9, 51, 81
2, 5907, Control_c, 9, 17, 3
2, 5908, Note_on_c, 9, 51, 69
2, 5986, Note_on_c, 9, 51, 0
2, 5986, Note_on_c, 9, 51, 0
2, 6010, Control_c, 9, 4, 110
2, 6012, Control_c, 9, 4, 102
2, 6026, Note_on_c, 9, 36, 65
2, 6043, Note_on_c, 9, 36, 64
2, 6045, Control_c, 9, 4, 99
2, 6069, Control_c, 9, 4, 94
2, 6095, Control_c, 9, 4, 90
2, 6109, Note_on_c, 9, 36, 0
2, 6109, Note_on_c, 9, 36, 0
2, 6117, Control_c, 9, 4, 90
2, 6241, Control_c, 9, 4, 96
2, 6264, Note_on_c, 9, 36, 78
2, 6268, Control_c, 9, 17, 0
2, 6268, Note_on_c, 9, 51, 110
2, 6271, Note_on_c, 9, 36, 73
2, 6275, Note_on_c, 9, 38, 80
2, 6277, Control_c, 9, 17, 0
2, 6278, Note_on_c, 9, 51, 103
2, 6280, Control_c, 9, 16, 0
2, 6281, Control_c, 9, 4, 95
2, 6281, Note_on_c, 9, 38, 69
2, 6347, Note_on_c, 9, 36, 0
2, 6347, Note_on_c, 9, 36, 0
2, 6349, Note_on_c, 9, 51, 0
2, 6349, Note_on_c, 9, 51, 0
2, 6356, Note_on_c, 9, 38, 0
2, 6356, Note_on_c, 9, 38, 0
2, 6360, Control_c, 9, 4, 84
2, 6384, Control_c, 9, 4, 73
2, 6393, Control_c, 9, 4, 70
2, 6425, Control_c, 9, 4, 0
2, 6431, Control_c, 9, 4, 0
2, 6490, Note_on_c, 9, 46, 8
2, 6495, Control_c, 9, 4, 33
2, 6499, Control_c, 9, 4, 33
2, 6501, Note_on_c, 9, 44, 127
2, 6505, Note_on_c, 9, 44, 127
2, 6515, Note_on_c, 9, 36, 51
2, 6522, Control_c, 9, 17, 14
2, 6522, Control_c, 9, 17, 26
2, 6522, Note_on_c, 9, 51, 74
2, 6522, Note_on_c, 9, 51, 82
2, 6526, Control_c, 9, 4, 120
2, 6530, Control_c, 9, 4, 120
2, 6570, Control_c, 9, 4, 98
2, 6572, Note_on_c, 9, 46, 0
2, 6575, Control_c, 9, 4, 99
2, 6584, Note_on_c, 9, 44, 0
2, 6584, Note_on_c, 9, 44, 0
2, 6596, Note_on_c, 9, 36, 0
2, 6603, Note_on_c, 9, 51, 0
2, 6603, Note_on_c, 9, 51, 0
2, 6608, Control_c, 9, 4, 85
2, 6610, Control_c, 9, 4, 85
2, 6625, Note_on_c, 9, 48, 54
2, 6636, Note_on_c, 9, 36, 62
2, 6648, Control_c, 9, 18, 0
2, 6648, Note_on_c, 9, 48, 44
2, 6707, Note_on_c, 9, 48, 0
2, 6707, Note_on_c, 9, 48, 0
2, 6718, Note_on_c, 9, 36, 0
2, 6738, Control_c, 9, 17, 62
2, 6739, Note_on_c, 9, 51, 49
2, 6740, Control_c, 9, 17, 50
2, 6740, Note_on_c, 9, 51, 56
2, 6743, Control_c, 9, 4, 112
2, 6748, Control_c, 9, 4, 112
2, 6756, Note_on_c, 9, 48, 77
2, 6770, Note_on_c, 9, 48, 68
2, 6810, Control_c, 9, 4, 102
2, 6811, Control_c, 9, 4, 102
2, 6820, Note_on_c, 9, 51, 0
2, 6820, Note_on_c, 9, 51, 0
2, 6837, Note_on_c, 9, 48, 0
2, 6837, Note_on_c, 9, 48, 0
2, 6840, Control_c, 9, 4, 90
2, 6846, Control_c, 9, 4, 90
2, 6857, Control_c, 9, 17, 18
2, 6858, Note_on_c, 9, 51, 71
2, 6875, Control_c, 9, 4, 72
2, 6876, Control_c, 9, 17, 127
2, 6877, Control_c, 9, 4, 72
2, 6877, Note_on_c, 9, 51, 72
2, 6913, Control_c, 9, 4, 0
2, 6915, Control_c, 9, 4, 0
2, 6939, Note_on_c, 9, 51, 0
2, 6939, Note_on_c, 9, 51, 0
2, 6976, Control_c, 9, 4, 36
2, 6976, Note_on_c, 9, 46, 13
2, 6978, Note_on_c, 9, 36, 64
2, 6982, Control_c, 9, 4, 33
2, 6982, Note_on_c, 9, 44, 127
2, 6987, Note_on_c, 9, 44, 127
2, 7002, Note_on_c, 9, 36, 53
2, 7008, Control_c, 9, 4, 127
2, 7013, Control_c, 9, 4, 127
2, 7024, Note_on_c, 9, 49, 6
2, 7054, Control_c, 9, 4, 97
2, 7058, Note_on_c, 9, 46, 0
2, 7059, Control_c, 9, 4, 96
2, 7061, Note_on_c, 9, 36, 0
2, 7061, Note_on_c, 9, 36, 0
2, 7064, Note_on_c, 9, 44, 0
2, 7064, Note_on_c, 9, 44, 0
2, 7097, Control_c, 9, 4, 85
2, 7098, Control_c, 9, 4, 84
2, 7106, Note_on_c, 9, 49, 0
2, 7204, Control_c, 9, 4, 106
2, 7209, Control_c, 9, 17, 0
2, 7210, Note_on_c, 9, 51, 108
2, 7217, Note_on_c, 9, 38, 88
2, 7218, Control_c, 9, 4, 99
2, 7224, Note_on_c, 9, 36, 84
2, 7227, Control_c, 9, 17, 0
2, 7227, Note_on_c, 9, 51, 105
2, 7234, Note_on_c, 9, 38, 65
2, 7235, Note_on_c, 9, 36, 73
2, 7245, Control_c, 9, 4, 92
2, 7291, Note_on_c, 9, 51, 0
2, 7291, Note_on_c, 9, 51, 0
2, 7297, Note_on_c, 9, 38, 0
2, 7297, Note_on_c, 9, 38, 0
2, 7307, Note_on_c, 9, 36, 0
2, 7307, Note_on_c, 9, 36, 0
2, 7325, Control_c, 9, 4, 84
2, 7356, Control_c, 9, 4, 69
2, 7388, Control_c, 9, 4, 0
2, 7410, Control_c, 9, 4, 83
2, 7457, Control_c, 9, 4, 98
2, 7459, Control_c, 9, 4, 35
2, 7465, Control_c, 9, 17, 45
2, 7465, Note_on_c, 9, 44, 126
2, 7465, Note_on_c, 9, 51, 76
2, 7473, Control_c, 9, 17, 10
2, 7474, Note_on_c, 9, 51, 70
2, 7490, Control_c, 9, 4, 116
2, 7507, Control_c, 9, 4, 92
2, 7547, Control_c, 9, 4, 91
2, 7547, Note_on_c, 9, 44, 0
2, 7547, Note_on_c, 9, 51, 0
2, 7547, Note_on_c, 9, 51, 0
2, 7565, Control_c, 9, 4, 88
2, 7572, Control_c, 9, 18, 0
2, 7573, Note_on_c, 9, 48, 56
2, 7582, Control_c, 9, 4, 85
2, 7605, Note_on_c, 9, 48, 45
2, 7655, Note_on_c, 9, 48, 0
2, 7655, Note_on_c, 9, 48, 0
2, 7662, Control_c, 9, 4, 92
2, 7668, Control_c, 9, 17, 20
2, 7669, End_track
0, 0, End_of_file
