0, 0, Header, 1, 2, 480
1, 0, Start_track
1, 0, Tempo, 681818
1, 0, Time_signature, 4, 2, 24, 8
1, 0, Key_signature, 0, "major"
1, 1, End_track
2, 0, Start_track
2, 0, Title_t, "Midi Drums"
2, 0, Program_c, 9, 0
2, 9, Note_on_c, 9, 43, 57
2, 79, Note_on_c, 9, 43, 0
2, 116, Note_on_c, 9, 48, 105
2, 186, Note_on_c, 9, 48, 0
2, 229, Note_on_c, 9, 43, 97
2, 300, Note_on_c, 9, 43, 0
2, 353, Note_on_c, 9, 36, 76
2, 424, Note_on_c, 9, 36, 0
2, 470, Note_on_c, 9, 38, 116
2, 490, Note_on_c, 9, 40, 127
2, 541, Note_on_c, 9, 38, 0
2, 561, Note_on_c, 9, 40, 0
2, 711, Note_on_c, 9, 43, 87
2, 782, Note_on_c, 9, 43, 0
2, 838, Note_on_c, 9, 47, 82
2, 909, Note_on_c, 9, 47, 0
2, 940, Note_on_c, 9, 36, 66
2, 1011, Note_on_c, 9, 36, 0
2, 1062, Note_on_c, 9, 47, 84
2, 1133, Note_on_c, 9, 47, 0
2, 1183, Note_on_c, 9, 43, 96
2, 1254, Note_on_c, 9, 43, 0
2, 1301, Note_on_c, 9, 36, 77
2, 1372, Note_on_c, 9, 36, 0
2, 1410, Note_on_c, 9, 38, 127
2, 1427, Note_on_c, 9, 40, 127
2, 1480, Note_on_c, 9, 38, 0
2, 1499, Note_on_c, 9, 40, 0
2, 1659, Note_on_c, 9, 43, 93
2, 1730, Note_on_c, 9, 43, 0
2, 1783, Note_on_c, 9, 48, 71
2, 1854, Note_on_c, 9, 48, 0
2, 1893, Note_on_c, 9, 36, 104
2, 1915, Note_on_c, 9, 43, 54
2, 1964, Note_on_c, 9, 36, 0
2, 1986, Note_on_c, 9, 43, 0
2, 2016, Note_on_c, 9, 48, 104
2, 2087, Note_on_c, 9, 48, 0
2, 2142, Note_on_c, 9, 43, 88
2, 2213, Note_on_c, 9, 43, 0
2, 2264, Note_on_c, 9, 36, 94
2, 2335, Note_on_c, 9, 36, 0
2, 2379, Note_on_c, 9, 38, 101
2, 2395, Note_on_c, 9, 40, 127
2, 2450, Note_on_c, 9, 38, 0
2, 2466, Note_on_c, 9, 40, 0
2, 2618, Note_on_c, 9, 43, 66
2, 2689, Note_on_c, 9, 43, 0
2, 2740, Note_on_c, 9, 47, 81
2, 2811, Note_on_c, 9, 47, 0
2, 2838, Note_on_c, 9, 36, 72
2, 2909, Note_on_c, 9, 36, 0
2, 2920, Note_on_c, 9, 36, 7
2, 2961, Note_on_c, 9, 47, 80
2, 2991, Note_on_c, 9, 36, 0
2, 3031, Note_on_c, 9, 47, 0
2, 3070, Note_on_c, 9, 43, 93
2, 3141, Note_on_c, 9, 43, 0
2, 3194, Note_on_c, 9, 36, 77
2, 3264, Note_on_c, 9, 36, 0
2, 3303, Note_on_c, 9, 38, 127
2, 3323, Note_on_c, 9, 40, 127
2, 3374, Note_on_c, 9, 38, 0
2, 3394, Note_on_c, 9, 40, 0
2, 3569, Note_on_c, 9, 43, 89
2, 3640, Note_on_c, 9, 43, 0
2, 3685, Note_on_c, 9, 48, 73
2, 3756, Note_on_c, 9, 48, 0
2, 3789, Note_on_c, 9, 36, 80
2, 3825, Note_on_c, 9, 43, 65
2, 3860, Note_on_c, 9, 36, 0
2, 3896, Note_on_c, 9, 43, 0
2, 3935, Note_on_c, 9, 50, 117
2, 4006, Note_on_c, 9, 50, 0
2, 4050, Note_on_c, 9, 43, 92
2, 4121, Note_on_c, 9, 43, 0
2, 4174, Note_on_c, 9, 36, 83
2, 4245, Note_on_c, 9, 36, 0
2, 4290, Note_on_c, 9, 38, 103
2, 4309, Note_on_c, 9, 40, 127
2, 4361, Note_on_c, 9, 38, 0
2, 4380, Note_on_c, 9, 40, 0
2, 4529, Note_on_c, 9, 43, 93
2, 4600, Note_on_c, 9, 43, 0
2, 4645, Note_on_c, 9, 47, 93
2, 4716, Note_on_c, 9, 47, 0
2, 4746, Note_on_c, 9, 36, 73
2, 4817, Note_on_c, 9, 36, 0
2, 4873, Note_on_c, 9, 47, 93
2, 4944, Note_on_c, 9, 47, 0
2, 4985, Note_on_c, 9, 43, 127
2, 5056, Note_on_c, 9, 43, 0
2, 5126, Note_on_c, 9, 36, 64
2, 5128, Note_on_c, 9, 38, 107
2, 5198, Note_on_c, 9, 36, 0
2, 5199, Note_on_c, 9, 38, 0
2, 5233, Note_on_c, 9, 36, 10
2, 5244, Note_on_c, 9, 38, 127
2, 5304, Note_on_c, 9, 36, 0
2, 5316, Note_on_c, 9, 38, 0
2, 5367, Note_on_c, 9, 38, 127
2, 5438, Note_on_c, 9, 38, 0
2, 5482, Note_on_c, 9, 38, 127
2, 5554, Note_on_c, 9, 38, 0
2, 5593, Note_on_c, 9, 40, 100
2, 5664, Note_on_c, 9, 40, 0
2, 5709, Note_on_c, 9, 36, 127
2, 5709, Note_on_c, 9, 55, 124
2, 5780, Note_on_c, 9, 36, 0
2, 5780, Note_on_c, 9, 55, 0
2, 5830, Note_on_c, 9, 38, 38
2, 5868, Note_on_c, 9, 38, 0
2, 5868, Note_on_c, 9, 38, 29
2, 5901, Note_on_c, 9, 38, 0
2, 5948, Control_c, 9, 4, 90
2, 5948, Note_on_c, 9, 22, 60
2, 6020, Note_on_c, 9, 22, 0
2, 6075, Note_on_c, 9, 36, 78
2, 6092, Note_on_c, 9, 38, 5
2, 6147, Note_on_c, 9, 36, 0
2, 6163, Note_on_c, 9, 38, 0
2, 6187, Note_on_c, 9, 40, 127
2, 6193, Control_c, 9, 4, 90
2, 6193, Note_on_c, 9, 22, 87
2, 6258, Note_on_c, 9, 40, 0
2, 6264, Note_on_c, 9, 22, 0
2, 6271, Control_c, 9, 4, 79
2, 6305, Control_c, 9, 4, 90
2, 6419, Control_c, 9, 4, 90
2, 6419, Note_on_c, 9, 22, 61
2, 6475, Control_c, 9, 4, 90
2, 6475, Note_on_c, 9, 22, 0
2, 6475, Note_on_c, 9, 22, 43
2, 6491, Note_on_c, 9, 22, 0
2, 6517, Note_on_c, 9, 38, 44
2, 6566, Note_on_c, 9, 38, 0
2, 6566, Note_on_c, 9, 38, 41
2, 6588, Note_on_c, 9, 38, 0
2, 6608, Note_on_c, 9, 38, 29
2, 6632, Note_on_c, 9, 36, 127
2, 6637, Note_on_c, 9, 38, 0
2, 6668, Control_c, 9, 4, 90
2, 6668, Note_on_c, 9, 42, 57
2, 6703, Note_on_c, 9, 36, 0
2, 6740, Note_on_c, 9, 42, 0
2, 6790, Note_on_c, 9, 38, 40
2, 6860, Note_on_c, 9, 38, 0
2, 6884, Control_c, 9, 4, 90
2, 6884, Note_on_c, 9, 42, 88
2, 6955, Note_on_c, 9, 42, 0
2, 7005, Note_on_c, 9, 36, 89
2, 7077, Note_on_c, 9, 36, 0
2, 7120, Note_on_c, 9, 40, 127
2, 7123, Control_c, 9, 4, 90
2, 7123, Note_on_c, 9, 22, 110
2, 7164, Control_c, 9, 4, 74
2, 7191, Note_on_c, 9, 40, 0
2, 7195, Note_on_c, 9, 22, 0
2, 7197, Control_c, 9, 4, 44
2, 7240, Control_c, 9, 4, 90
2, 7361, Control_c, 9, 4, 90
2, 7361, Note_on_c, 9, 42, 38
2, 7409, Control_c, 9, 4, 90
2, 7409, Note_on_c, 9, 22, 30
2, 7432, Note_on_c, 9, 42, 0
2, 7462, Note_on_c, 9, 38, 40
2, 7481, Note_on_c, 9, 22, 0
2, 7510, Note_on_c, 9, 38, 0
2, 7510, Note_on_c, 9, 38, 36
2, 7533, Note_on_c, 9, 38, 0
2, 7550, Note_on_c, 9, 38, 29
2, 7581, Note_on_c, 9, 38, 0
2, 7607, Note_on_c, 9, 36, 127
2, 7620, Control_c, 9, 4, 90
2, 7678, Note_on_c, 9, 36, 0
2, 7679, End_track
0, 0, End_of_file
