0, 0, Header, 1, 2, 480
1, 0, Start_track
1, 0, Tempo, 300000
1, 0, Time_signature, 4, 2, 24, 8
1, 0, Key_signature, 0, "major"
1, 1, End_track
2, 0, Start_track
2, 0, Title_t, "Midi Drums"
2, 0, Program_c, 9, 0
2, 4, Note_on_c, 9, 38, 33
2, 166, Note_on_c, 9, 38, 0
2, 283, Note_on_c, 9, 38, 25
2, 444, Note_on_c, 9, 38, 0
2, 455, Note_on_c, 9, 38, 127
2, 617, Note_on_c, 9, 38, 0
2, 745, Note_on_c, 9, 38, 31
2, 907, Note_on_c, 9, 38, 0
2, 926, Note_on_c, 9, 36, 72
2, 952, Note_on_c, 9, 38, 42
2, 1087, Note_on_c, 9, 36, 0
2, 1113, Note_on_c, 9, 38, 0
2, 1213, Note_on_c, 9, 38, 34
2, 1374, Note_on_c, 9, 38, 0
2, 1431, Note_on_c, 9, 38, 118
2, 1593, Note_on_c, 9, 38, 0
2, 1735, Note_on_c, 9, 38, 36
2, 1897, Note_on_c, 9, 38, 0
2, 1920, Note_on_c, 9, 36, 99
2, 1948, Note_on_c, 9, 38, 37
2, 2081, Note_on_c, 9, 36, 0
2, 2110, Note_on_c, 9, 38, 0
2, 2245, Note_on_c, 9, 38, 31
2, 2399, Note_on_c, 9, 38, 0
2, 2399, Note_on_c, 9, 38, 127
2, 2406, Note_on_c, 9, 38, 0
2, 2715, Note_on_c, 9, 38, 37
2, 2876, Note_on_c, 9, 38, 0
2, 2890, Note_on_c, 9, 36, 81
2, 2894, Note_on_c, 9, 38, 40
2, 3051, Note_on_c, 9, 36, 0
2, 3056, Note_on_c, 9, 38, 0
2, 3197, Note_on_c, 9, 38, 112
2, 3359, Note_on_c, 9, 38, 0
2, 3383, Note_on_c, 9, 38, 126
2, 3545, Note_on_c, 9, 38, 0
2, 3654, Note_on_c, 9, 40, 92
2, 3816, Note_on_c, 9, 40, 0
2, 3835, Note_on_c, 9, 36, 75
2, 3852, Note_on_c, 9, 38, 36
2, 3996, Note_on_c, 9, 36, 0
2, 4014, Note_on_c, 9, 38, 0
2, 4080, Note_on_c, 9, 38, 39
2, 4241, Note_on_c, 9, 38, 0
2, 4285, Note_on_c, 9, 38, 117
2, 4447, Note_on_c, 9, 38, 0
2, 4609, Note_on_c, 9, 38, 27
2, 4771, Note_on_c, 9, 38, 0
2, 4782, Note_on_c, 9, 36, 75
2, 4788, Note_on_c, 9, 38, 42
2, 4943, Note_on_c, 9, 36, 0
2, 4948, Note_on_c, 9, 38, 0
2, 5108, Note_on_c, 9, 38, 28
2, 5266, Note_on_c, 9, 38, 0
2, 5266, Note_on_c, 9, 38, 111
2, 5270, Note_on_c, 9, 38, 0
2, 5326, Note_on_c, 9, 36, 7
2, 5488, Note_on_c, 9, 36, 0
2, 5588, Note_on_c, 9, 38, 35
2, 5748, Note_on_c, 9, 38, 0
2, 5774, Note_on_c, 9, 38, 44
2, 5785, Note_on_c, 9, 36, 76
2, 5935, Note_on_c, 9, 38, 0
2, 5947, Note_on_c, 9, 36, 0
2, 6056, Note_on_c, 9, 38, 16
2, 6217, Note_on_c, 9, 38, 0
2, 6240, Note_on_c, 9, 38, 127
2, 6401, Note_on_c, 9, 38, 0
2, 6523, Note_on_c, 9, 38, 39
2, 6684, Note_on_c, 9, 38, 0
2, 6743, Note_on_c, 9, 36, 69
2, 6749, Note_on_c, 9, 38, 36
2, 6903, Note_on_c, 9, 36, 0
2, 6910, Note_on_c, 9, 38, 0
2, 7020, Note_on_c, 9, 40, 127
2, 7182, Note_on_c, 9, 40, 0
2, 7219, Note_on_c, 9, 38, 117
2, 7380, Note_on_c, 9, 38, 0
2, 7477, Note_on_c, 9, 40, 95
2, 7638, Note_on_c, 9, 40, 0
2, 7639, End_track
0, 0, End_of_file
