0, 0, Header, 1, 2, 480
1, 0, Start_track
1, 0, Tempo, 588235
1, 0, Time_signature, 4, 2, 24, 8
1, 0, Key_signature, 0, "major"
1, 1, End_track
2, 0, Start_track
2, 0, Title_t, "Classic Studio Kit"
2, 0, Program_c, 9, 0
2, 0, Control_c, 9, 18, 0
2, 7, Control_c, 9, 4, 99
2, 28, Control_c, 9, 17, 79
2, 29, Note_on_c, 9, 51, 59
2, 37, Note_on_c, 9, 48, 58
2, 110, Note_on_c, 9, 51, 0
2, 118, Note_on_c, 9, 48, 0
2, 132, Control_c, 9, 4, 89
2, 157, Control_c, 9, 17, 127
2, 157, Note_on_c, 9, 51, 70
2, 170, Control_c, 9, 4, 74
2, 212, Control_c, 9, 4, 0
2, 239, Note_on_c, 9, 51, 0
2, 264, Control_c, 9, 4, 34
2, 271, Note_on_c, 9, 44, 119
2, 274, Note_on_c, 9, 36, 40
2, 296, Control_c, 9, 4, 120
2, 352, Note_on_c, 9, 44, 0
2, 356, Control_c, 9, 4, 91
2, 356, Note_on_c, 9, 36, 0
2, 387, Control_c, 9, 4, 86
2, 499, Control_c, 9, 4, 97
2, 514, Control_c, 9, 17, 48
2, 514, Note_on_c, 9, 51, 93
2, 520, Control_c, 9, 16, 0
2, 521, Note_on_c, 9, 38, 59
2, 524, Note_on_c, 9, 36, 59
2, 596, Note_on_c, 9, 51, 0
2, 601, Note_on_c, 9, 38, 0
2, 606, Note_on_c, 9, 36, 0
2, 635, Control_c, 9, 4, 83
2, 673, Control_c, 9, 4, 70
2, 707, Control_c, 9, 4, 0
2, 755, Control_c, 9, 4, 33
2, 761, Note_on_c, 9, 44, 113
2, 773, Control_c, 9, 17, 113
2, 774, Note_on_c, 9, 51, 72
2, 787, Control_c, 9, 4, 120
2, 843, Note_on_c, 9, 44, 0
2, 846, Control_c, 9, 4, 90
2, 855, Note_on_c, 9, 51, 0
2, 877, Control_c, 9, 4, 84
2, 883, Note_on_c, 9, 36, 45
2, 889, Control_c, 9, 18, 0
2, 890, Note_on_c, 9, 48, 44
2, 965, Note_on_c, 9, 36, 0
2, 971, Note_on_c, 9, 48, 0
2, 991, Control_c, 9, 4, 112
2, 995, Control_c, 9, 17, 127
2, 996, Note_on_c, 9, 51, 53
2, 1003, Note_on_c, 9, 48, 61
2, 1067, Control_c, 9, 4, 91
2, 1076, Note_on_c, 9, 51, 0
2, 1084, Note_on_c, 9, 48, 0
2, 1105, Control_c, 9, 4, 74
2, 1125, Control_c, 9, 17, 127
2, 1125, Note_on_c, 9, 51, 67
2, 1146, Control_c, 9, 4, 0
2, 1207, Note_on_c, 9, 51, 0
2, 1216, Note_on_c, 9, 46, 9
2, 1223, Control_c, 9, 4, 33
2, 1229, Note_on_c, 9, 44, 127
2, 1230, Note_on_c, 9, 36, 51
2, 1254, Control_c, 9, 4, 120
2, 1297, Note_on_c, 9, 46, 0
2, 1304, Control_c, 9, 4, 93
2, 1310, Note_on_c, 9, 44, 0
2, 1312, Note_on_c, 9, 36, 0
2, 1334, Control_c, 9, 4, 76
2, 1373, Control_c, 9, 4, 58
2, 1410, Control_c, 9, 4, 33
2, 1442, Control_c, 9, 4, 60
2, 1452, Note_on_c, 9, 46, 40
2, 1454, Note_on_c, 9, 44, 28
2, 1466, Control_c, 9, 17, 88
2, 1467, Note_on_c, 9, 51, 82
2, 1470, Note_on_c, 9, 36, 69
2, 1478, Note_on_c, 9, 38, 58
2, 1479, Control_c, 9, 4, 116
2, 1520, Control_c, 9, 4, 93
2, 1534, Note_on_c, 9, 44, 0
2, 1534, Note_on_c, 9, 46, 0
2, 1548, Note_on_c, 9, 51, 0
2, 1551, Control_c, 9, 4, 74
2, 1552, Note_on_c, 9, 36, 0
2, 1559, Note_on_c, 9, 38, 0
2, 1581, Control_c, 9, 4, 57
2, 1617, Control_c, 9, 4, 0
2, 1687, Control_c, 9, 4, 34
2, 1693, Note_on_c, 9, 44, 119
2, 1715, Control_c, 9, 17, 114
2, 1716, Note_on_c, 9, 51, 73
2, 1719, Control_c, 9, 4, 114
2, 1764, Control_c, 9, 4, 93
2, 1775, Note_on_c, 9, 44, 0
2, 1797, Note_on_c, 9, 51, 0
2, 1814, Control_c, 9, 4, 84
2, 1830, Note_on_c, 9, 36, 38
2, 1834, Control_c, 9, 18, 0
2, 1835, Note_on_c, 9, 48, 47
2, 1912, Note_on_c, 9, 36, 0
2, 1916, Note_on_c, 9, 48, 0
2, 1940, Control_c, 9, 4, 112
2, 1943, Control_c, 9, 17, 0
2, 1944, Note_on_c, 9, 51, 40
2, 1948, Note_on_c, 9, 48, 63
2, 1995, Control_c, 9, 4, 100
2, 2025, Note_on_c, 9, 51, 0
2, 2029, Note_on_c, 9, 48, 0
2, 2033, Control_c, 9, 4, 89
2, 2065, Control_c, 9, 4, 73
2, 2076, Control_c, 9, 17, 123
2, 2077, Note_on_c, 9, 51, 70
2, 2109, Control_c, 9, 4, 0
2, 2158, Note_on_c, 9, 51, 0
2, 2173, Control_c, 9, 4, 35
2, 2179, Note_on_c, 9, 44, 126
2, 2183, Note_on_c, 9, 36, 43
2, 2204, Control_c, 9, 4, 116
2, 2250, Control_c, 9, 17, 123
2, 2251, Note_on_c, 9, 51, 5
2, 2260, Note_on_c, 9, 44, 0
2, 2264, Control_c, 9, 4, 90
2, 2265, Note_on_c, 9, 36, 0
2, 2296, Control_c, 9, 4, 85
2, 2331, Note_on_c, 9, 51, 0
2, 2405, Control_c, 9, 4, 96
2, 2424, Note_on_c, 9, 36, 62
2, 2431, Control_c, 9, 17, 46
2, 2432, Note_on_c, 9, 51, 90
2, 2436, Control_c, 9, 16, 0
2, 2437, Note_on_c, 9, 38, 62
2, 2506, Note_on_c, 9, 36, 0
2, 2513, Note_on_c, 9, 51, 0
2, 2518, Note_on_c, 9, 38, 0
2, 2534, Control_c, 9, 4, 83
2, 2566, Control_c, 9, 4, 70
2, 2603, Control_c, 9, 4, 0
2, 2662, Control_c, 9, 4, 35
2, 2668, Note_on_c, 9, 44, 126
2, 2684, Control_c, 9, 17, 102
2, 2685, Note_on_c, 9, 51, 77
2, 2693, Control_c, 9, 4, 120
2, 2742, Control_c, 9, 4, 97
2, 2750, Note_on_c, 9, 44, 0
2, 2768, Note_on_c, 9, 51, 0
2, 2784, Control_c, 9, 4, 84
2, 2796, Note_on_c, 9, 36, 50
2, 2797, Control_c, 9, 18, 0
2, 2797, Note_on_c, 9, 48, 47
2, 2877, Note_on_c, 9, 36, 0
2, 2879, Note_on_c, 9, 48, 0
2, 2897, Control_c, 9, 4, 108
2, 2915, Control_c, 9, 17, 127
2, 2915, Note_on_c, 9, 51, 54
2, 2917, Note_on_c, 9, 48, 63
2, 2936, Control_c, 9, 4, 110
2, 2976, Control_c, 9, 4, 97
2, 2997, Note_on_c, 9, 48, 0
2, 2997, Note_on_c, 9, 51, 0
2, 3018, Control_c, 9, 4, 84
2, 3042, Control_c, 9, 17, 127
2, 3043, Note_on_c, 9, 51, 78
2, 3055, Control_c, 9, 4, 70
2, 3096, Control_c, 9, 4, 0
2, 3124, Note_on_c, 9, 51, 0
2, 3145, Control_c, 9, 4, 34
2, 3146, Note_on_c, 9, 36, 43
2, 3153, Note_on_c, 9, 44, 119
2, 3177, Control_c, 9, 4, 118
2, 3220, Control_c, 9, 4, 96
2, 3228, Note_on_c, 9, 36, 0
2, 3234, Note_on_c, 9, 44, 0
2, 3262, Control_c, 9, 4, 85
2, 3301, Control_c, 9, 17, 47
2, 3302, Note_on_c, 9, 51, 89
2, 3375, Control_c, 9, 4, 100
2, 3383, Note_on_c, 9, 51, 0
2, 3387, Note_on_c, 9, 36, 51
2, 3394, Control_c, 9, 16, 21
2, 3395, Note_on_c, 9, 38, 68
2, 3451, Control_c, 9, 4, 94
2, 3469, Note_on_c, 9, 36, 0
2, 3476, Note_on_c, 9, 38, 0
2, 3491, Control_c, 9, 4, 83
2, 3523, Control_c, 9, 4, 70
2, 3568, Control_c, 9, 4, 0
2, 3619, Control_c, 9, 4, 50
2, 3624, Note_on_c, 9, 44, 106
2, 3640, Control_c, 9, 17, 86
2, 3640, Note_on_c, 9, 51, 77
2, 3649, Control_c, 9, 4, 118
2, 3693, Control_c, 9, 4, 98
2, 3705, Note_on_c, 9, 44, 0
2, 3722, Note_on_c, 9, 51, 0
2, 3736, Control_c, 9, 4, 84
2, 3743, Note_on_c, 9, 36, 55
2, 3747, Control_c, 9, 18, 0
2, 3748, Note_on_c, 9, 48, 41
2, 3824, Note_on_c, 9, 36, 0
2, 3829, Note_on_c, 9, 48, 0
2, 3860, Control_c, 9, 4, 110
2, 3873, Note_on_c, 9, 48, 60
2, 3876, Control_c, 9, 17, 61
2, 3877, Note_on_c, 9, 51, 65
2, 3919, Control_c, 9, 4, 98
2, 3954, Note_on_c, 9, 48, 0
2, 3957, Note_on_c, 9, 51, 0
2, 3975, Control_c, 9, 4, 85
2, 3995, Control_c, 9, 17, 64
2, 3996, Note_on_c, 9, 51, 68
2, 4010, Control_c, 9, 4, 70
2, 4058, Control_c, 9, 4, 0
2, 4077, Note_on_c, 9, 51, 0
2, 4101, Control_c, 9, 4, 48
2, 4103, Note_on_c, 9, 36, 52
2, 4106, Note_on_c, 9, 44, 106
2, 4131, Control_c, 9, 4, 118
2, 4184, Note_on_c, 9, 36, 0
2, 4188, Note_on_c, 9, 44, 0
2, 4191, Control_c, 9, 4, 90
2, 4226, Control_c, 9, 4, 85
2, 4336, Control_c, 9, 4, 95
2, 4360, Control_c, 9, 16, 0
2, 4361, Control_c, 9, 17, 39
2, 4361, Note_on_c, 9, 38, 57
2, 4362, Note_on_c, 9, 36, 53
2, 4362, Note_on_c, 9, 51, 88
2, 4440, Control_c, 9, 4, 91
2, 4440, Note_on_c, 9, 38, 0
2, 4441, Note_on_c, 9, 51, 0
2, 4442, Note_on_c, 9, 36, 0
2, 4483, Control_c, 9, 4, 77
2, 4519, Control_c, 9, 4, 54
2, 4550, Control_c, 9, 4, 0
2, 4591, Control_c, 9, 4, 50
2, 4596, Note_on_c, 9, 44, 100
2, 4605, Control_c, 9, 17, 51
2, 4605, Note_on_c, 9, 51, 79
2, 4622, Control_c, 9, 4, 116
2, 4665, Control_c, 9, 4, 95
2, 4677, Note_on_c, 9, 44, 0
2, 4687, Note_on_c, 9, 51, 0
2, 4702, Control_c, 9, 4, 84
2, 4720, Control_c, 9, 18, 0
2, 4720, Note_on_c, 9, 48, 48
2, 4724, Note_on_c, 9, 36, 44
2, 4801, Note_on_c, 9, 48, 0
2, 4806, Note_on_c, 9, 36, 0
2, 4831, Control_c, 9, 4, 102
2, 4844, Control_c, 9, 17, 121
2, 4844, Note_on_c, 9, 51, 57
2, 4851, Note_on_c, 9, 48, 59
2, 4911, Control_c, 9, 4, 91
2, 4925, Note_on_c, 9, 51, 0
2, 4932, Note_on_c, 9, 48, 0
2, 4942, Control_c, 9, 4, 83
2, 4973, Control_c, 9, 17, 102
2, 4974, Note_on_c, 9, 51, 66
2, 4982, Control_c, 9, 4, 69
2, 5024, Control_c, 9, 4, 8
2, 5055, Note_on_c, 9, 51, 0
2, 5060, Control_c, 9, 4, 48
2, 5066, Note_on_c, 9, 36, 40
2, 5066, Note_on_c, 9, 44, 87
2, 5092, Control_c, 9, 4, 114
2, 5126, Control_c, 9, 4, 100
2, 5147, Note_on_c, 9, 44, 0
2, 5149, Note_on_c, 9, 36, 0
2, 5169, Control_c, 9, 4, 87
2, 5199, Control_c, 9, 17, 94
2, 5199, Note_on_c, 9, 51, 79
2, 5281, Note_on_c, 9, 51, 0
2, 5283, Control_c, 9, 4, 92
2, 5320, Note_on_c, 9, 36, 54
2, 5327, Note_on_c, 9, 38, 61
2, 5403, Note_on_c, 9, 36, 0
2, 5408, Note_on_c, 9, 38, 0
2, 5422, Control_c, 9, 4, 86
2, 5458, Control_c, 9, 4, 73
2, 5508, Control_c, 9, 4, 14
2, 5546, Control_c, 9, 4, 53
2, 5549, Control_c, 9, 17, 88
2, 5550, Note_on_c, 9, 51, 78
2, 5552, Note_on_c, 9, 44, 80
2, 5577, Control_c, 9, 4, 116
2, 5621, Control_c, 9, 4, 95
2, 5631, Note_on_c, 9, 51, 0
2, 5633, Note_on_c, 9, 44, 0
2, 5657, Control_c, 9, 4, 85
2, 5670, Control_c, 9, 18, 0
2, 5671, Note_on_c, 9, 48, 44
2, 5677, Note_on_c, 9, 36, 33
2, 5752, Note_on_c, 9, 48, 0
2, 5759, Note_on_c, 9, 36, 0
2, 5776, Control_c, 9, 4, 98
2, 5793, Control_c, 9, 17, 64
2, 5793, Note_on_c, 9, 51, 56
2, 5800, Note_on_c, 9, 48, 60
2, 5874, Note_on_c, 9, 51, 0
2, 5881, Note_on_c, 9, 48, 0
2, 5898, Control_c, 9, 4, 85
2, 5926, Control_c, 9, 17, 127
2, 5927, Note_on_c, 9, 51, 71
2, 5936, Control_c, 9, 4, 70
2, 5979, Control_c, 9, 4, 0
2, 6009, Note_on_c, 9, 51, 0
2, 6022, Note_on_c, 9, 36, 43
2, 6025, Control_c, 9, 4, 48
2, 6029, Note_on_c, 9, 44, 106
2, 6056, Control_c, 9, 4, 116
2, 6099, Control_c, 9, 4, 95
2, 6105, Note_on_c, 9, 36, 0
2, 6112, Note_on_c, 9, 44, 0
2, 6136, Control_c, 9, 4, 85
2, 6256, Control_c, 9, 4, 94
2, 6274, Note_on_c, 9, 36, 51
2, 6275, Control_c, 9, 17, 29
2, 6275, Note_on_c, 9, 51, 83
2, 6280, Control_c, 9, 16, 0
2, 6281, Note_on_c, 9, 38, 59
2, 6356, Note_on_c, 9, 36, 0
2, 6356, Note_on_c, 9, 51, 0
2, 6361, Note_on_c, 9, 38, 0
2, 6397, Control_c, 9, 4, 83
2, 6430, Control_c, 9, 4, 69
2, 6463, Control_c, 9, 4, 0
2, 6512, Control_c, 9, 4, 48
2, 6517, Note_on_c, 9, 44, 106
2, 6525, Control_c, 9, 17, 56
2, 6525, Note_on_c, 9, 51, 72
2, 6543, Control_c, 9, 4, 112
2, 6597, Control_c, 9, 4, 90
2, 6599, Note_on_c, 9, 44, 0
2, 6606, Note_on_c, 9, 51, 0
2, 6632, Control_c, 9, 4, 84
2, 6641, Note_on_c, 9, 36, 38
2, 6643, Control_c, 9, 18, 0
2, 6644, Note_on_c, 9, 48, 45
2, 6723, Control_c, 9, 4, 90
2, 6724, Note_on_c, 9, 36, 0
2, 6724, Note_on_c, 9, 48, 0
2, 6754, Control_c, 9, 4, 108
2, 6758, Control_c, 9, 17, 89
2, 6759, Note_on_c, 9, 51, 56
2, 6762, Note_on_c, 9, 48, 62
2, 6799, Control_c, 9, 4, 98
2, 6832, Control_c, 9, 4, 83
2, 6840, Note_on_c, 9, 51, 0
2, 6843, Note_on_c, 9, 48, 0
2, 6864, Control_c, 9, 4, 70
2, 6887, Control_c, 9, 17, 96
2, 6888, Note_on_c, 9, 51, 69
2, 6902, Control_c, 9, 4, 0
2, 6968, Note_on_c, 9, 51, 0
2, 6973, Note_on_c, 9, 46, 11
2, 6978, Note_on_c, 9, 36, 55
2, 6981, Control_c, 9, 4, 34
2, 6986, Note_on_c, 9, 44, 127
2, 7003, Control_c, 9, 17, 96
2, 7003, Note_on_c, 9, 51, 6
2, 7012, Control_c, 9, 4, 114
2, 7049, Control_c, 9, 4, 99
2, 7053, Note_on_c, 9, 46, 0
2, 7060, Note_on_c, 9, 36, 0
2, 7067, Note_on_c, 9, 44, 0
2, 7084, Note_on_c, 9, 51, 0
2, 7091, Control_c, 9, 4, 72
2, 7135, Control_c, 9, 4, 0
2, 7208, Note_on_c, 9, 46, 7
2, 7217, Control_c, 9, 4, 32
2, 7221, Control_c, 9, 17, 58
2, 7221, Note_on_c, 9, 51, 93
2, 7224, Note_on_c, 9, 44, 126
2, 7229, Note_on_c, 9, 36, 81
2, 7234, Control_c, 9, 16, 0
2, 7234, Note_on_c, 9, 38, 67
2, 7248, Control_c, 9, 4, 108
2, 7288, Note_on_c, 9, 46, 0
2, 7293, Control_c, 9, 4, 89
2, 7304, Note_on_c, 9, 51, 0
2, 7305, Note_on_c, 9, 44, 0
2, 7310, Note_on_c, 9, 36, 0
2, 7315, Note_on_c, 9, 38, 0
2, 7324, Control_c, 9, 4, 73
2, 7452, Control_c, 9, 4, 93
2, 7470, Control_c, 9, 17, 120
2, 7471, Note_on_c, 9, 51, 71
2, 7488, Control_c, 9, 4, 112
2, 7526, Control_c, 9, 4, 92
2, 7552, Note_on_c, 9, 51, 0
2, 7560, Control_c, 9, 4, 73
2, 7581, Note_on_c, 9, 36, 54
2, 7583, Control_c, 9, 18, 0
2, 7584, Note_on_c, 9, 48, 48
2, 7602, Control_c, 9, 4, 0
2, 7664, Note_on_c, 9, 36, 0
2, 7664, Note_on_c, 9, 48, 0
2, 7665, End_track
0, 0, End_of_file
