0, 0, Header, 1, 2, 480
1, 0, Start_track
1, 0, Tempo, 638297
1, 0, Time_signature, 4, 2, 24, 8
1, 0, Key_signature, 0, "major"
1, 1, End_track
2, 0, Start_track
2, 0, Title_t, "Midi Drums"
2, 0, Program_c, 9, 0
2, 476, Note_on_c, 9, 40, 127
2, 552, Note_on_c, 9, 40, 0
2, 919, Note_on_c, 9, 36, 111
2, 995, Note_on_c, 9, 36, 0
2, 1111, Note_on_c, 9, 36, 6
2, 1171, Note_on_c, 9, 43, 98
2, 1173, Note_on_c, 9, 48, 73
2, 1187, Note_on_c, 9, 36, 0
2, 1246, Note_on_c, 9, 43, 0
2, 1249, Note_on_c, 9, 48, 0
2, 1399, Note_on_c, 9, 36, 61
2, 1413, Note_on_c, 9, 48, 110
2, 1421, Note_on_c, 9, 43, 108
2, 1475, Note_on_c, 9, 36, 0
2, 1489, Note_on_c, 9, 48, 0
2, 1497, Note_on_c, 9, 43, 0
2, 1653, Note_on_c, 9, 43, 127
2, 1653, Note_on_c, 9, 48, 127
2, 1730, Note_on_c, 9, 43, 0
2, 1730, Note_on_c, 9, 48, 0
2, 1898, Note_on_c, 9, 36, 127
2, 1974, Note_on_c, 9, 36, 0
2, 2387, Note_on_c, 9, 36, 127
2, 2403, Note_on_c, 9, 40, 127
2, 2463, Note_on_c, 9, 36, 0
2, 2479, Note_on_c, 9, 40, 0
2, 2876, Note_on_c, 9, 36, 127
2, 2952, Note_on_c, 9, 36, 0
2, 3339, Note_on_c, 9, 36, 127
2, 3346, Note_on_c, 9, 40, 127
2, 3415, Note_on_c, 9, 36, 0
2, 3422, Note_on_c, 9, 40, 0
2, 3819, Note_on_c, 9, 36, 127
2, 3895, Note_on_c, 9, 36, 0
2, 4326, Note_on_c, 9, 36, 127
2, 4333, Note_on_c, 9, 40, 127
2, 4402, Note_on_c, 9, 36, 0
2, 4409, Note_on_c, 9, 40, 0
2, 4814, Note_on_c, 9, 36, 127
2, 4890, Note_on_c, 9, 36, 0
2, 5296, Note_on_c, 9, 36, 127
2, 5298, Note_on_c, 9, 40, 127
2, 5372, Note_on_c, 9, 36, 0
2, 5374, Note_on_c, 9, 40, 0
2, 5782, Note_on_c, 9, 36, 108
2, 5858, Note_on_c, 9, 36, 0
2, 6243, Note_on_c, 9, 36, 122
2, 6258, Note_on_c, 9, 40, 127
2, 6319, Note_on_c, 9, 36, 0
2, 6334, Note_on_c, 9, 40, 0
2, 6739, Note_on_c, 9, 36, 120
2, 6815, Note_on_c, 9, 36, 0
2, 7212, Note_on_c, 9, 36, 127
2, 7225, Note_on_c, 9, 40, 127
2, 7288, Note_on_c, 9, 36, 0
2, 7301, Note_on_c, 9, 40, 0
2, 7302, End_track
0, 0, End_of_file
