0, 0, Header, 1, 2, 480
1, 0, Start_track
1, 0, Tempo, 588235
1, 0, Time_signature, 4, 2, 24, 8
1, 0, Key_signature, 0, "major"
1, 1, End_track
2, 0, Start_track
2, 0, Title_t, "Classic Studio Kit"
2, 0, Program_c, 9, 0
2, 0, Control_c, 9, 18, 0
2, 20, Control_c, 9, 4, 110
2, 33, Note_on_c, 9, 48, 60
2, 36, Control_c, 9, 17, 61
2, 37, Note_on_c, 9, 51, 65
2, 79, Control_c, 9, 4, 98
2, 114, Note_on_c, 9, 48, 0
2, 117, Note_on_c, 9, 51, 0
2, 135, Control_c, 9, 4, 85
2, 155, Control_c, 9, 17, 64
2, 156, Note_on_c, 9, 51, 68
2, 170, Control_c, 9, 4, 70
2, 218, Control_c, 9, 4, 0
2, 237, Note_on_c, 9, 51, 0
2, 261, Control_c, 9, 4, 48
2, 263, Note_on_c, 9, 36, 52
2, 266, Note_on_c, 9, 44, 106
2, 291, Control_c, 9, 4, 118
2, 344, Note_on_c, 9, 36, 0
2, 348, Note_on_c, 9, 44, 0
2, 351, Control_c, 9, 4, 90
2, 386, Control_c, 9, 4, 85
2, 496, Control_c, 9, 4, 95
2, 520, Control_c, 9, 16, 0
2, 521, Control_c, 9, 17, 39
2, 521, Note_on_c, 9, 38, 57
2, 522, Note_on_c, 9, 36, 53
2, 522, Note_on_c, 9, 51, 88
2, 600, Control_c, 9, 4, 91
2, 600, Note_on_c, 9, 38, 0
2, 601, Note_on_c, 9, 51, 0
2, 602, Note_on_c, 9, 36, 0
2, 643, Control_c, 9, 4, 77
2, 679, Control_c, 9, 4, 54
2, 710, Control_c, 9, 4, 0
2, 751, Control_c, 9, 4, 50
2, 756, Note_on_c, 9, 44, 100
2, 765, Control_c, 9, 17, 51
2, 765, Note_on_c, 9, 51, 79
2, 782, Control_c, 9, 4, 116
2, 825, Control_c, 9, 4, 95
2, 837, Note_on_c, 9, 44, 0
2, 847, Note_on_c, 9, 51, 0
2, 862, Control_c, 9, 4, 84
2, 880, Control_c, 9, 18, 0
2, 880, Note_on_c, 9, 48, 48
2, 884, Note_on_c, 9, 36, 44
2, 961, Note_on_c, 9, 48, 0
2, 966, Note_on_c, 9, 36, 0
2, 991, Control_c, 9, 4, 102
2, 1004, Control_c, 9, 17, 121
2, 1004, Note_on_c, 9, 51, 57
2, 1011, Note_on_c, 9, 48, 59
2, 1071, Control_c, 9, 4, 91
2, 1085, Note_on_c, 9, 51, 0
2, 1092, Note_on_c, 9, 48, 0
2, 1102, Control_c, 9, 4, 83
2, 1133, Control_c, 9, 17, 102
2, 1134, Note_on_c, 9, 51, 66
2, 1142, Control_c, 9, 4, 69
2, 1184, Control_c, 9, 4, 8
2, 1215, Note_on_c, 9, 51, 0
2, 1220, Control_c, 9, 4, 48
2, 1226, Note_on_c, 9, 36, 40
2, 1226, Note_on_c, 9, 44, 87
2, 1252, Control_c, 9, 4, 114
2, 1286, Control_c, 9, 4, 100
2, 1307, Note_on_c, 9, 44, 0
2, 1309, Note_on_c, 9, 36, 0
2, 1329, Control_c, 9, 4, 87
2, 1359, Control_c, 9, 17, 94
2, 1359, Note_on_c, 9, 51, 79
2, 1441, Note_on_c, 9, 51, 0
2, 1443, Control_c, 9, 4, 92
2, 1480, Note_on_c, 9, 36, 54
2, 1487, Note_on_c, 9, 38, 61
2, 1563, Note_on_c, 9, 36, 0
2, 1568, Note_on_c, 9, 38, 0
2, 1582, Control_c, 9, 4, 86
2, 1618, Control_c, 9, 4, 73
2, 1668, Control_c, 9, 4, 14
2, 1706, Control_c, 9, 4, 53
2, 1709, Control_c, 9, 17, 88
2, 1710, Note_on_c, 9, 51, 78
2, 1712, Note_on_c, 9, 44, 80
2, 1737, Control_c, 9, 4, 116
2, 1781, Control_c, 9, 4, 95
2, 1791, Note_on_c, 9, 51, 0
2, 1793, Note_on_c, 9, 44, 0
2, 1817, Control_c, 9, 4, 85
2, 1830, Control_c, 9, 18, 0
2, 1831, Note_on_c, 9, 48, 44
2, 1837, Note_on_c, 9, 36, 33
2, 1912, Note_on_c, 9, 48, 0
2, 1919, Note_on_c, 9, 36, 0
2, 1936, Control_c, 9, 4, 98
2, 1953, Control_c, 9, 17, 64
2, 1953, Note_on_c, 9, 51, 56
2, 1960, Note_on_c, 9, 48, 60
2, 2034, Note_on_c, 9, 51, 0
2, 2041, Note_on_c, 9, 48, 0
2, 2058, Control_c, 9, 4, 85
2, 2086, Control_c, 9, 17, 127
2, 2087, Note_on_c, 9, 51, 71
2, 2096, Control_c, 9, 4, 70
2, 2139, Control_c, 9, 4, 0
2, 2169, Note_on_c, 9, 51, 0
2, 2182, Note_on_c, 9, 36, 43
2, 2185, Control_c, 9, 4, 48
2, 2189, Note_on_c, 9, 44, 106
2, 2216, Control_c, 9, 4, 116
2, 2259, Control_c, 9, 4, 95
2, 2265, Note_on_c, 9, 36, 0
2, 2272, Note_on_c, 9, 44, 0
2, 2296, Control_c, 9, 4, 85
2, 2416, Control_c, 9, 4, 94
2, 2434, Note_on_c, 9, 36, 51
2, 2435, Control_c, 9, 17, 29
2, 2435, Note_on_c, 9, 51, 83
2, 2440, Control_c, 9, 16, 0
2, 2441, Note_on_c, 9, 38, 59
2, 2516, Note_on_c, 9, 36, 0
2, 2516, Note_on_c, 9, 51, 0
2, 2521, Note_on_c, 9, 38, 0
2, 2557, Control_c, 9, 4, 83
2, 2590, Control_c, 9, 4, 69
2, 2623, Control_c, 9, 4, 0
2, 2672, Control_c, 9, 4, 48
2, 2677, Note_on_c, 9, 44, 106
2, 2685, Control_c, 9, 17, 56
2, 2685, Note_on_c, 9, 51, 72
2, 2703, Control_c, 9, 4, 112
2, 2757, Control_c, 9, 4, 90
2, 2759, Note_on_c, 9, 44, 0
2, 2766, Note_on_c, 9, 51, 0
2, 2792, Control_c, 9, 4, 84
2, 2801, Note_on_c, 9, 36, 38
2, 2803, Control_c, 9, 18, 0
2, 2804, Note_on_c, 9, 48, 45
2, 2883, Control_c, 9, 4, 90
2, 2884, Note_on_c, 9, 36, 0
2, 2884, Note_on_c, 9, 48, 0
2, 2914, Control_c, 9, 4, 108
2, 2918, Control_c, 9, 17, 89
2, 2919, Note_on_c, 9, 51, 56
2, 2922, Note_on_c, 9, 48, 62
2, 2959, Control_c, 9, 4, 98
2, 2992, Control_c, 9, 4, 83
2, 3000, Note_on_c, 9, 51, 0
2, 3003, Note_on_c, 9, 48, 0
2, 3024, Control_c, 9, 4, 70
2, 3047, Control_c, 9, 17, 96
2, 3048, Note_on_c, 9, 51, 69
2, 3062, Control_c, 9, 4, 0
2, 3128, Note_on_c, 9, 51, 0
2, 3133, Note_on_c, 9, 46, 11
2, 3138, Note_on_c, 9, 36, 55
2, 3141, Control_c, 9, 4, 34
2, 3146, Note_on_c, 9, 44, 127
2, 3163, Control_c, 9, 17, 96
2, 3163, Note_on_c, 9, 51, 6
2, 3172, Control_c, 9, 4, 114
2, 3209, Control_c, 9, 4, 99
2, 3213, Note_on_c, 9, 46, 0
2, 3220, Note_on_c, 9, 36, 0
2, 3227, Note_on_c, 9, 44, 0
2, 3244, Note_on_c, 9, 51, 0
2, 3251, Control_c, 9, 4, 72
2, 3295, Control_c, 9, 4, 0
2, 3368, Note_on_c, 9, 46, 7
2, 3377, Control_c, 9, 4, 32
2, 3381, Control_c, 9, 17, 58
2, 3381, Note_on_c, 9, 51, 93
2, 3384, Note_on_c, 9, 44, 126
2, 3389, Note_on_c, 9, 36, 81
2, 3394, Control_c, 9, 16, 0
2, 3394, Note_on_c, 9, 38, 67
2, 3408, Control_c, 9, 4, 108
2, 3448, Note_on_c, 9, 46, 0
2, 3453, Control_c, 9, 4, 89
2, 3464, Note_on_c, 9, 51, 0
2, 3465, Note_on_c, 9, 44, 0
2, 3470, Note_on_c, 9, 36, 0
2, 3475, Note_on_c, 9, 38, 0
2, 3484, Control_c, 9, 4, 73
2, 3612, Control_c, 9, 4, 93
2, 3630, Control_c, 9, 17, 120
2, 3631, Note_on_c, 9, 51, 71
2, 3648, Control_c, 9, 4, 112
2, 3686, Control_c, 9, 4, 92
2, 3712, Note_on_c, 9, 51, 0
2, 3720, Control_c, 9, 4, 73
2, 3741, Note_on_c, 9, 36, 54
2, 3743, Control_c, 9, 18, 0
2, 3744, Note_on_c, 9, 48, 48
2, 3762, Control_c, 9, 4, 0
2, 3824, Note_on_c, 9, 36, 0
2, 3824, Note_on_c, 9, 48, 0
2, 3837, Note_on_c, 9, 46, 12
2, 3847, Control_c, 9, 17, 0
2, 3847, Note_on_c, 9, 51, 42
2, 3851, Note_on_c, 9, 44, 127
2, 3860, Control_c, 9, 4, 127
2, 3862, Note_on_c, 9, 48, 74
2, 3901, Control_c, 9, 4, 120
2, 3918, Note_on_c, 9, 46, 0
2, 3928, Note_on_c, 9, 51, 0
2, 3932, Note_on_c, 9, 44, 0
2, 3943, Note_on_c, 9, 48, 0
2, 3946, Control_c, 9, 4, 91
2, 3976, Control_c, 9, 17, 95
2, 3976, Note_on_c, 9, 51, 72
2, 4057, Note_on_c, 9, 51, 0
2, 4068, Control_c, 9, 4, 98
2, 4091, Note_on_c, 9, 36, 48
2, 4100, Control_c, 9, 4, 102
2, 4144, Control_c, 9, 4, 92
2, 4173, Note_on_c, 9, 36, 0
2, 4333, Note_on_c, 9, 36, 64
2, 4342, Control_c, 9, 17, 43
2, 4343, Note_on_c, 9, 51, 92
2, 4346, Control_c, 9, 16, 21
2, 4347, Note_on_c, 9, 38, 66
2, 4415, Note_on_c, 9, 36, 0
2, 4423, Note_on_c, 9, 51, 0
2, 4428, Control_c, 9, 4, 84
2, 4428, Note_on_c, 9, 38, 0
2, 4461, Control_c, 9, 4, 70
2, 4497, Control_c, 9, 4, 0
2, 4562, Control_c, 9, 4, 34
2, 4568, Note_on_c, 9, 44, 127
2, 4588, Control_c, 9, 17, 92
2, 4588, Note_on_c, 9, 51, 76
2, 4594, Control_c, 9, 4, 114
2, 4649, Note_on_c, 9, 44, 0
2, 4666, Control_c, 9, 4, 90
2, 4670, Note_on_c, 9, 51, 0
2, 4702, Control_c, 9, 18, 0
2, 4703, Note_on_c, 9, 48, 46
2, 4709, Note_on_c, 9, 36, 45
2, 4771, Control_c, 9, 4, 86
2, 4784, Note_on_c, 9, 48, 0
2, 4791, Note_on_c, 9, 36, 0
2, 4819, Control_c, 9, 17, 127
2, 4819, Note_on_c, 9, 51, 49
2, 4821, Control_c, 9, 4, 114
2, 4826, Note_on_c, 9, 48, 63
2, 4874, Control_c, 9, 4, 99
2, 4901, Note_on_c, 9, 51, 0
2, 4908, Note_on_c, 9, 48, 0
2, 4913, Control_c, 9, 4, 85
2, 4945, Control_c, 9, 4, 70
2, 4955, Control_c, 9, 17, 103
2, 4955, Note_on_c, 9, 51, 70
2, 4980, Control_c, 9, 4, 0
2, 5036, Note_on_c, 9, 51, 0
2, 5049, Control_c, 9, 4, 34
2, 5049, Note_on_c, 9, 36, 48
2, 5055, Note_on_c, 9, 44, 127
2, 5080, Control_c, 9, 4, 116
2, 5131, Note_on_c, 9, 36, 0
2, 5136, Control_c, 9, 4, 92
2, 5137, Note_on_c, 9, 44, 0
2, 5175, Control_c, 9, 4, 88
2, 5193, Control_c, 9, 17, 45
2, 5194, Note_on_c, 9, 51, 88
2, 5274, Note_on_c, 9, 51, 0
2, 5301, Control_c, 9, 4, 98
2, 5302, Note_on_c, 9, 36, 76
2, 5315, Control_c, 9, 16, 0
2, 5315, Note_on_c, 9, 38, 70
2, 5384, Note_on_c, 9, 36, 0
2, 5396, Note_on_c, 9, 38, 0
2, 5412, Control_c, 9, 4, 84
2, 5446, Control_c, 9, 4, 69
2, 5479, Control_c, 9, 4, 0
2, 5539, Control_c, 9, 4, 33
2, 5543, Control_c, 9, 17, 58
2, 5544, Note_on_c, 9, 51, 81
2, 5545, Note_on_c, 9, 44, 127
2, 5570, Control_c, 9, 4, 122
2, 5620, Control_c, 9, 4, 95
2, 5624, Note_on_c, 9, 51, 0
2, 5626, Note_on_c, 9, 44, 0
2, 5660, Control_c, 9, 18, 0
2, 5661, Control_c, 9, 4, 84
2, 5661, Note_on_c, 9, 48, 46
2, 5668, Note_on_c, 9, 36, 54
2, 5743, Note_on_c, 9, 48, 0
2, 5749, Note_on_c, 9, 36, 0
2, 5784, Control_c, 9, 17, 127
2, 5785, Control_c, 9, 4, 116
2, 5785, Note_on_c, 9, 51, 54
2, 5792, Note_on_c, 9, 48, 62
2, 5847, Control_c, 9, 4, 99
2, 5867, Note_on_c, 9, 51, 0
2, 5874, Note_on_c, 9, 48, 0
2, 5888, Control_c, 9, 4, 84
2, 5921, Control_c, 9, 4, 70
2, 5922, Control_c, 9, 17, 109
2, 5923, Note_on_c, 9, 51, 72
2, 5955, Control_c, 9, 4, 0
2, 6004, Note_on_c, 9, 51, 0
2, 6010, Note_on_c, 9, 36, 43
2, 6019, Control_c, 9, 4, 50
2, 6024, Note_on_c, 9, 44, 126
2, 6049, Control_c, 9, 4, 118
2, 6091, Note_on_c, 9, 36, 0
2, 6104, Note_on_c, 9, 44, 0
2, 6114, Control_c, 9, 4, 90
2, 6256, Control_c, 9, 4, 95
2, 6273, Control_c, 9, 17, 49
2, 6273, Note_on_c, 9, 51, 87
2, 6276, Note_on_c, 9, 36, 68
2, 6280, Note_on_c, 9, 38, 59
2, 6354, Note_on_c, 9, 51, 0
2, 6357, Note_on_c, 9, 36, 0
2, 6361, Note_on_c, 9, 38, 0
2, 6381, Control_c, 9, 4, 83
2, 6414, Control_c, 9, 4, 68
2, 6444, Control_c, 9, 4, 0
2, 6503, Control_c, 9, 4, 33
2, 6509, Note_on_c, 9, 44, 127
2, 6516, Control_c, 9, 17, 108
2, 6517, Note_on_c, 9, 51, 76
2, 6534, Control_c, 9, 4, 118
2, 6583, Control_c, 9, 4, 95
2, 6590, Note_on_c, 9, 44, 0
2, 6598, Note_on_c, 9, 51, 0
2, 6620, Control_c, 9, 4, 84
2, 6631, Note_on_c, 9, 36, 44
2, 6632, Control_c, 9, 18, 0
2, 6632, Note_on_c, 9, 48, 46
2, 6713, Note_on_c, 9, 36, 0
2, 6713, Note_on_c, 9, 48, 0
2, 6742, Control_c, 9, 4, 112
2, 6751, Control_c, 9, 17, 0
2, 6751, Note_on_c, 9, 51, 45
2, 6758, Note_on_c, 9, 48, 59
2, 6824, Control_c, 9, 4, 91
2, 6833, Note_on_c, 9, 51, 0
2, 6839, Note_on_c, 9, 48, 0
2, 6875, Control_c, 9, 4, 69
2, 6880, Control_c, 9, 17, 127
2, 6880, Note_on_c, 9, 51, 67
2, 6909, Control_c, 9, 4, 0
2, 6961, Note_on_c, 9, 51, 0
2, 6974, Note_on_c, 9, 36, 58
2, 6976, Note_on_c, 9, 46, 9
2, 6982, Control_c, 9, 4, 35
2, 6987, Note_on_c, 9, 44, 127
2, 7012, Control_c, 9, 4, 120
2, 7045, Control_c, 9, 4, 108
2, 7057, Note_on_c, 9, 36, 0
2, 7057, Note_on_c, 9, 46, 0
2, 7069, Note_on_c, 9, 44, 0
2, 7080, Control_c, 9, 4, 70
2, 7113, Control_c, 9, 4, 0
2, 7126, Control_c, 9, 17, 80
2, 7126, Note_on_c, 9, 51, 81
2, 7186, Note_on_c, 9, 46, 11
2, 7196, Control_c, 9, 4, 33
2, 7203, Note_on_c, 9, 44, 113
2, 7208, Note_on_c, 9, 51, 0
2, 7218, Note_on_c, 9, 36, 82
2, 7228, Control_c, 9, 4, 97
2, 7240, Control_c, 9, 16, 0
2, 7241, Note_on_c, 9, 38, 62
2, 7267, Note_on_c, 9, 46, 0
2, 7284, Note_on_c, 9, 44, 0
2, 7300, Note_on_c, 9, 36, 0
2, 7312, Control_c, 9, 4, 84
2, 7323, Note_on_c, 9, 38, 0
2, 7453, Control_c, 9, 4, 116
2, 7461, Control_c, 9, 17, 98
2, 7461, Note_on_c, 9, 51, 83
2, 7502, Control_c, 9, 4, 97
2, 7537, Control_c, 9, 4, 83
2, 7542, Note_on_c, 9, 51, 0
2, 7561, Note_on_c, 9, 36, 43
2, 7568, Control_c, 9, 4, 69
2, 7576, Control_c, 9, 18, 0
2, 7576, Note_on_c, 9, 48, 49
2, 7599, Control_c, 9, 4, 0
2, 7643, Note_on_c, 9, 36, 0
2, 7657, Note_on_c, 9, 48, 0
2, 7665, Control_c, 9, 4, 33
2, 7666, End_track
0, 0, End_of_file
