0, 0, Header, 1, 2, 480
1, 0, Start_track
1, 0, Tempo, 599999
1, 0, Time_signature, 4, 2, 24, 8
1, 0, Key_signature, 0, "major"
1, 1, End_track
2, 0, Start_track
2, 0, Title_t, "Midi Drums"
2, 0, Program_c, 9, 0
2, 226, Note_on_c, 9, 51, 23
2, 306, Note_on_c, 9, 51, 0
2, 471, Note_on_c, 9, 38, 127
2, 472, Note_on_c, 9, 53, 91
2, 551, Note_on_c, 9, 38, 0
2, 553, Note_on_c, 9, 53, 0
2, 710, Note_on_c, 9, 53, 26
2, 791, Note_on_c, 9, 53, 0
2, 848, Note_on_c, 9, 38, 127
2, 928, Note_on_c, 9, 38, 0
2, 1074, Note_on_c, 9, 38, 127
2, 1155, Note_on_c, 9, 38, 0
2, 1178, Note_on_c, 9, 36, 62
2, 1182, Note_on_c, 9, 53, 68
2, 1259, Note_on_c, 9, 36, 0
2, 1263, Note_on_c, 9, 53, 0
2, 1422, Note_on_c, 9, 38, 127
2, 1422, Note_on_c, 9, 53, 78
2, 1503, Note_on_c, 9, 38, 0
2, 1503, Note_on_c, 9, 53, 0
2, 1679, Note_on_c, 9, 51, 32
2, 1759, Note_on_c, 9, 51, 0
2, 1892, Note_on_c, 9, 36, 127
2, 1906, Note_on_c, 9, 51, 93
2, 1972, Note_on_c, 9, 36, 0
2, 1987, Note_on_c, 9, 51, 0
2, 2148, Note_on_c, 9, 51, 30
2, 2229, Note_on_c, 9, 51, 0
2, 2386, Note_on_c, 9, 38, 127
2, 2387, Note_on_c, 9, 53, 62
2, 2467, Note_on_c, 9, 38, 0
2, 2467, Note_on_c, 9, 53, 0
2, 2624, Note_on_c, 9, 53, 25
2, 2704, Note_on_c, 9, 53, 0
2, 2762, Note_on_c, 9, 38, 127
2, 2843, Note_on_c, 9, 38, 0
2, 2866, Note_on_c, 9, 51, 28
2, 2947, Note_on_c, 9, 51, 0
2, 3001, Note_on_c, 9, 38, 127
2, 3082, Note_on_c, 9, 38, 0
2, 3110, Note_on_c, 9, 53, 58
2, 3119, Note_on_c, 9, 36, 71
2, 3191, Note_on_c, 9, 53, 0
2, 3200, Note_on_c, 9, 36, 0
2, 3347, Note_on_c, 9, 38, 127
2, 3347, Note_on_c, 9, 53, 93
2, 3427, Note_on_c, 9, 38, 0
2, 3427, Note_on_c, 9, 53, 0
2, 3583, Note_on_c, 9, 53, 26
2, 3664, Note_on_c, 9, 53, 0
2, 3812, Note_on_c, 9, 36, 127
2, 3815, Note_on_c, 9, 51, 85
2, 3892, Note_on_c, 9, 36, 0
2, 3895, Note_on_c, 9, 51, 0
2, 4064, Note_on_c, 9, 51, 18
2, 4145, Note_on_c, 9, 51, 0
2, 4303, Note_on_c, 9, 53, 93
2, 4308, Note_on_c, 9, 38, 127
2, 4383, Note_on_c, 9, 53, 0
2, 4388, Note_on_c, 9, 38, 0
2, 4540, Note_on_c, 9, 53, 25
2, 4620, Note_on_c, 9, 53, 0
2, 4673, Note_on_c, 9, 38, 127
2, 4754, Note_on_c, 9, 38, 0
2, 4895, Note_on_c, 9, 38, 127
2, 4974, Note_on_c, 9, 36, 98
2, 4976, Note_on_c, 9, 38, 0
2, 5009, Note_on_c, 9, 51, 99
2, 5055, Note_on_c, 9, 36, 0
2, 5089, Note_on_c, 9, 51, 0
2, 5245, Note_on_c, 9, 38, 127
2, 5249, Note_on_c, 9, 51, 119
2, 5326, Note_on_c, 9, 38, 0
2, 5329, Note_on_c, 9, 51, 0
2, 5492, Note_on_c, 9, 53, 24
2, 5572, Note_on_c, 9, 53, 0
2, 5709, Note_on_c, 9, 36, 127
2, 5710, Note_on_c, 9, 53, 53
2, 5790, Note_on_c, 9, 36, 0
2, 5790, Note_on_c, 9, 53, 0
2, 5997, Note_on_c, 9, 51, 17
2, 6078, Note_on_c, 9, 51, 0
2, 6227, Note_on_c, 9, 53, 65
2, 6229, Note_on_c, 9, 38, 127
2, 6308, Note_on_c, 9, 53, 0
2, 6310, Note_on_c, 9, 38, 0
2, 6463, Note_on_c, 9, 51, 36
2, 6544, Note_on_c, 9, 51, 0
2, 6600, Note_on_c, 9, 38, 127
2, 6680, Note_on_c, 9, 38, 0
2, 6826, Note_on_c, 9, 38, 127
2, 6907, Note_on_c, 9, 38, 0
2, 6943, Note_on_c, 9, 53, 67
2, 6946, Note_on_c, 9, 36, 127
2, 7023, Note_on_c, 9, 53, 0
2, 7027, Note_on_c, 9, 36, 0
2, 7193, Note_on_c, 9, 38, 127
2, 7193, Note_on_c, 9, 51, 103
2, 7274, Note_on_c, 9, 38, 0
2, 7274, Note_on_c, 9, 51, 0
2, 7443, Note_on_c, 9, 51, 19
2, 7524, Note_on_c, 9, 51, 0
2, 7525, End_track
0, 0, End_of_file
