0, 0, Header, 1, 2, 480
1, 0, Start_track
1, 0, Tempo, 588235
1, 0, Time_signature, 4, 2, 24, 8
1, 0, Key_signature, 0, "major"
1, 1, End_track
2, 0, Start_track
2, 0, Title_t, "Classic Studio Kit"
2, 0, Program_c, 9, 0
2, 0, Control_c, 9, 18, 0
2, 14, Control_c, 9, 4, 124
2, 18, Note_on_c, 9, 48, 62
2, 20, Note_on_c, 9, 59, 38
2, 53, Control_c, 9, 4, 120
2, 84, Control_c, 9, 4, 98
2, 99, Note_on_c, 9, 48, 0
2, 103, Note_on_c, 9, 59, 0
2, 118, Control_c, 9, 4, 83
2, 147, Control_c, 9, 17, 127
2, 148, Control_c, 9, 4, 69
2, 148, Note_on_c, 9, 51, 62
2, 182, Control_c, 9, 4, 0
2, 230, Note_on_c, 9, 51, 0
2, 243, Note_on_c, 9, 36, 49
2, 249, Note_on_c, 9, 44, 127
2, 256, Control_c, 9, 4, 127
2, 299, Control_c, 9, 4, 120
2, 325, Note_on_c, 9, 36, 0
2, 331, Note_on_c, 9, 44, 0
2, 336, Control_c, 9, 4, 91
2, 367, Control_c, 9, 4, 85
2, 487, Control_c, 9, 4, 104
2, 493, Note_on_c, 9, 36, 65
2, 494, Control_c, 9, 17, 86
2, 494, Note_on_c, 9, 51, 79
2, 498, Note_on_c, 9, 38, 61
2, 550, Control_c, 9, 4, 98
2, 575, Note_on_c, 9, 36, 0
2, 577, Note_on_c, 9, 51, 0
2, 580, Note_on_c, 9, 38, 0
2, 594, Control_c, 9, 4, 84
2, 626, Control_c, 9, 4, 70
2, 662, Control_c, 9, 4, 0
2, 723, Control_c, 9, 4, 32
2, 729, Note_on_c, 9, 44, 126
2, 745, Control_c, 9, 17, 127
2, 745, Note_on_c, 9, 51, 75
2, 754, Control_c, 9, 4, 120
2, 799, Control_c, 9, 4, 98
2, 811, Note_on_c, 9, 44, 0
2, 826, Note_on_c, 9, 51, 0
2, 837, Control_c, 9, 4, 85
2, 856, Control_c, 9, 18, 0
2, 856, Note_on_c, 9, 48, 47
2, 857, Note_on_c, 9, 36, 43
2, 938, Note_on_c, 9, 36, 0
2, 938, Note_on_c, 9, 48, 0
2, 961, Control_c, 9, 4, 110
2, 984, Note_on_c, 9, 51, 57
2, 989, Note_on_c, 9, 48, 63
2, 999, Control_c, 9, 4, 110
2, 1039, Control_c, 9, 4, 95
2, 1065, Note_on_c, 9, 51, 0
2, 1070, Note_on_c, 9, 48, 0
2, 1081, Control_c, 9, 4, 82
2, 1111, Control_c, 9, 4, 69
2, 1113, Control_c, 9, 17, 127
2, 1114, Note_on_c, 9, 51, 67
2, 1145, Control_c, 9, 4, 0
2, 1195, Note_on_c, 9, 51, 0
2, 1202, Control_c, 9, 4, 33
2, 1207, Note_on_c, 9, 36, 51
2, 1208, Note_on_c, 9, 44, 126
2, 1234, Control_c, 9, 4, 120
2, 1288, Note_on_c, 9, 36, 0
2, 1290, Note_on_c, 9, 44, 0
2, 1293, Control_c, 9, 4, 91
2, 1329, Control_c, 9, 4, 86
2, 1347, Control_c, 9, 17, 77
2, 1347, Note_on_c, 9, 51, 79
2, 1429, Note_on_c, 9, 51, 0
2, 1437, Control_c, 9, 4, 100
2, 1447, Note_on_c, 9, 36, 65
2, 1473, Control_c, 9, 16, 0
2, 1473, Note_on_c, 9, 38, 61
2, 1506, Control_c, 9, 4, 96
2, 1530, Note_on_c, 9, 36, 0
2, 1553, Control_c, 9, 4, 83
2, 1554, Note_on_c, 9, 38, 0
2, 1590, Control_c, 9, 4, 70
2, 1631, Control_c, 9, 4, 0
2, 1685, Control_c, 9, 4, 33
2, 1688, Control_c, 9, 17, 103
2, 1689, Note_on_c, 9, 51, 75
2, 1690, Note_on_c, 9, 44, 119
2, 1716, Control_c, 9, 4, 118
2, 1761, Control_c, 9, 4, 96
2, 1770, Note_on_c, 9, 51, 0
2, 1773, Note_on_c, 9, 44, 0
2, 1797, Control_c, 9, 4, 85
2, 1813, Note_on_c, 9, 36, 49
2, 1817, Control_c, 9, 18, 0
2, 1818, Note_on_c, 9, 48, 46
2, 1895, Note_on_c, 9, 36, 0
2, 1898, Note_on_c, 9, 48, 0
2, 1931, Control_c, 9, 17, 127
2, 1931, Note_on_c, 9, 51, 54
2, 1933, Control_c, 9, 4, 108
2, 1945, Note_on_c, 9, 48, 61
2, 1993, Control_c, 9, 4, 97
2, 2014, Note_on_c, 9, 51, 0
2, 2027, Note_on_c, 9, 48, 0
2, 2037, Control_c, 9, 4, 84
2, 2062, Control_c, 9, 17, 127
2, 2062, Note_on_c, 9, 51, 66
2, 2073, Control_c, 9, 4, 70
2, 2112, Control_c, 9, 4, 0
2, 2143, Note_on_c, 9, 51, 0
2, 2161, Control_c, 9, 4, 49
2, 2164, Note_on_c, 9, 36, 45
2, 2165, Note_on_c, 9, 44, 106
2, 2191, Control_c, 9, 4, 116
2, 2237, Control_c, 9, 4, 95
2, 2245, Note_on_c, 9, 36, 0
2, 2248, Note_on_c, 9, 44, 0
2, 2281, Control_c, 9, 4, 84
2, 2393, Control_c, 9, 4, 96
2, 2404, Control_c, 9, 17, 41
2, 2404, Note_on_c, 9, 51, 82
2, 2406, Note_on_c, 9, 36, 60
2, 2415, Control_c, 9, 16, 0
2, 2416, Note_on_c, 9, 38, 56
2, 2485, Note_on_c, 9, 51, 0
2, 2488, Note_on_c, 9, 36, 0
2, 2497, Note_on_c, 9, 38, 0
2, 2515, Control_c, 9, 4, 84
2, 2551, Control_c, 9, 4, 70
2, 2593, Control_c, 9, 4, 0
2, 2644, Control_c, 9, 4, 33
2, 2651, Note_on_c, 9, 44, 119
2, 2656, Control_c, 9, 17, 127
2, 2656, Note_on_c, 9, 51, 73
2, 2676, Control_c, 9, 4, 118
2, 2732, Note_on_c, 9, 44, 0
2, 2733, Control_c, 9, 4, 90
2, 2738, Note_on_c, 9, 51, 0
2, 2768, Control_c, 9, 4, 85
2, 2772, Note_on_c, 9, 36, 46
2, 2777, Control_c, 9, 18, 0
2, 2777, Note_on_c, 9, 48, 47
2, 2854, Note_on_c, 9, 36, 0
2, 2858, Note_on_c, 9, 48, 0
2, 2896, Control_c, 9, 4, 110
2, 2907, Note_on_c, 9, 48, 61
2, 2907, Note_on_c, 9, 51, 47
2, 2981, Control_c, 9, 4, 89
2, 2988, Note_on_c, 9, 48, 0
2, 2989, Note_on_c, 9, 51, 0
2, 3015, Control_c, 9, 4, 73
2, 3028, Control_c, 9, 17, 127
2, 3029, Note_on_c, 9, 51, 71
2, 3066, Control_c, 9, 4, 0
2, 3109, Note_on_c, 9, 51, 0
2, 3127, Note_on_c, 9, 36, 59
2, 3133, Control_c, 9, 4, 32
2, 3138, Note_on_c, 9, 44, 127
2, 3164, Control_c, 9, 4, 120
2, 3210, Note_on_c, 9, 36, 0
2, 3215, Control_c, 9, 4, 94
2, 3220, Note_on_c, 9, 44, 0
2, 3250, Control_c, 9, 4, 83
2, 3262, Control_c, 9, 17, 114
2, 3262, Note_on_c, 9, 51, 63
2, 3299, Control_c, 9, 4, 72
2, 3344, Note_on_c, 9, 51, 0
2, 3373, Note_on_c, 9, 36, 83
2, 3380, Control_c, 9, 4, 106
2, 3384, Control_c, 9, 16, 42
2, 3384, Note_on_c, 9, 38, 67
2, 3419, Control_c, 9, 4, 98
2, 3455, Note_on_c, 9, 36, 0
2, 3466, Note_on_c, 9, 38, 0
2, 3471, Control_c, 9, 4, 83
2, 3508, Control_c, 9, 4, 70
2, 3561, Control_c, 9, 4, 0
2, 3614, Control_c, 9, 4, 33
2, 3619, Note_on_c, 9, 44, 119
2, 3629, Control_c, 9, 17, 127
2, 3630, Note_on_c, 9, 51, 77
2, 3645, Control_c, 9, 4, 118
2, 3702, Note_on_c, 9, 44, 0
2, 3705, Control_c, 9, 4, 90
2, 3712, Note_on_c, 9, 51, 0
2, 3739, Control_c, 9, 4, 84
2, 3743, Note_on_c, 9, 36, 54
2, 3744, Control_c, 9, 18, 0
2, 3745, Note_on_c, 9, 48, 44
2, 3826, Note_on_c, 9, 36, 0
2, 3827, Note_on_c, 9, 48, 0
2, 3865, Control_c, 9, 4, 114
2, 3876, Note_on_c, 9, 48, 63
2, 3877, Note_on_c, 9, 51, 61
2, 3927, Control_c, 9, 4, 99
2, 3957, Note_on_c, 9, 48, 0
2, 3959, Note_on_c, 9, 51, 0
2, 3970, Control_c, 9, 4, 84
2, 3994, Control_c, 9, 17, 127
2, 3995, Note_on_c, 9, 51, 68
2, 4004, Control_c, 9, 4, 70
2, 4045, Control_c, 9, 4, 0
2, 4076, Note_on_c, 9, 51, 0
2, 4097, Control_c, 9, 4, 49
2, 4098, Note_on_c, 9, 36, 54
2, 4101, Note_on_c, 9, 44, 119
2, 4127, Control_c, 9, 4, 120
2, 4180, Note_on_c, 9, 36, 0
2, 4182, Note_on_c, 9, 44, 0
2, 4186, Control_c, 9, 4, 90
2, 4224, Control_c, 9, 4, 86
2, 4339, Control_c, 9, 4, 99
2, 4342, Note_on_c, 9, 36, 55
2, 4347, Control_c, 9, 17, 79
2, 4347, Note_on_c, 9, 51, 82
2, 4355, Control_c, 9, 16, 21
2, 4356, Note_on_c, 9, 38, 62
2, 4423, Note_on_c, 9, 36, 0
2, 4428, Note_on_c, 9, 51, 0
2, 4436, Note_on_c, 9, 38, 0
2, 4443, Control_c, 9, 4, 87
2, 4477, Control_c, 9, 4, 73
2, 4527, Control_c, 9, 4, 0
2, 4583, Control_c, 9, 4, 49
2, 4588, Note_on_c, 9, 44, 119
2, 4593, Control_c, 9, 17, 127
2, 4594, Note_on_c, 9, 51, 76
2, 4613, Control_c, 9, 4, 120
2, 4657, Control_c, 9, 4, 96
2, 4670, Note_on_c, 9, 44, 0
2, 4674, Note_on_c, 9, 51, 0
2, 4696, Control_c, 9, 4, 84
2, 4708, Note_on_c, 9, 36, 32
2, 4714, Control_c, 9, 18, 0
2, 4714, Note_on_c, 9, 48, 48
2, 4790, Note_on_c, 9, 36, 0
2, 4796, Note_on_c, 9, 48, 0
2, 4826, Control_c, 9, 4, 112
2, 4828, Note_on_c, 9, 51, 56
2, 4842, Note_on_c, 9, 48, 62
2, 4894, Control_c, 9, 4, 97
2, 4910, Note_on_c, 9, 51, 0
2, 4923, Note_on_c, 9, 48, 0
2, 4940, Control_c, 9, 4, 83
2, 4954, Control_c, 9, 17, 127
2, 4956, Note_on_c, 9, 51, 70
2, 4974, Control_c, 9, 4, 69
2, 5005, Control_c, 9, 4, 0
2, 5038, Note_on_c, 9, 51, 0
2, 5066, Note_on_c, 9, 36, 54
2, 5067, Control_c, 9, 4, 33
2, 5073, Note_on_c, 9, 44, 127
2, 5098, Control_c, 9, 4, 120
2, 5148, Note_on_c, 9, 36, 0
2, 5154, Note_on_c, 9, 44, 0
2, 5168, Control_c, 9, 4, 89
2, 5182, Control_c, 9, 17, 74
2, 5183, Note_on_c, 9, 51, 50
2, 5198, Control_c, 9, 4, 85
2, 5265, Note_on_c, 9, 51, 0
2, 5300, Control_c, 9, 4, 98
2, 5305, Note_on_c, 9, 36, 71
2, 5319, Control_c, 9, 16, 0
2, 5320, Note_on_c, 9, 38, 70
2, 5386, Note_on_c, 9, 36, 0
2, 5401, Note_on_c, 9, 38, 0
2, 5420, Control_c, 9, 4, 84
2, 5454, Control_c, 9, 4, 70
2, 5500, Control_c, 9, 4, 0
2, 5543, Control_c, 9, 4, 32
2, 5544, Control_c, 9, 17, 96
2, 5544, Note_on_c, 9, 51, 75
2, 5550, Note_on_c, 9, 44, 106
2, 5575, Control_c, 9, 4, 120
2, 5625, Note_on_c, 9, 51, 0
2, 5632, Note_on_c, 9, 44, 0
2, 5640, Control_c, 9, 4, 90
2, 5667, Control_c, 9, 18, 0
2, 5668, Note_on_c, 9, 48, 47
2, 5669, Note_on_c, 9, 36, 48
2, 5671, Control_c, 9, 4, 84
2, 5749, Note_on_c, 9, 48, 0
2, 5752, Note_on_c, 9, 36, 0
2, 5792, Control_c, 9, 4, 112
2, 5799, Note_on_c, 9, 48, 65
2, 5800, Control_c, 9, 17, 127
2, 5801, Note_on_c, 9, 51, 52
2, 5860, Control_c, 9, 4, 96
2, 5881, Note_on_c, 9, 48, 0
2, 5881, Note_on_c, 9, 51, 0
2, 5903, Control_c, 9, 4, 84
2, 5920, Control_c, 9, 17, 127
2, 5921, Note_on_c, 9, 51, 60
2, 5936, Control_c, 9, 4, 70
2, 5976, Control_c, 9, 4, 0
2, 6001, Note_on_c, 9, 51, 0
2, 6023, Control_c, 9, 4, 32
2, 6024, Note_on_c, 9, 36, 57
2, 6030, Note_on_c, 9, 44, 113
2, 6055, Control_c, 9, 4, 120
2, 6107, Note_on_c, 9, 36, 0
2, 6111, Note_on_c, 9, 44, 0
2, 6116, Control_c, 9, 4, 90
2, 6151, Control_c, 9, 4, 85
2, 6255, Control_c, 9, 4, 97
2, 6257, Note_on_c, 9, 36, 58
2, 6262, Control_c, 9, 16, 0
2, 6263, Note_on_c, 9, 38, 74
2, 6264, Control_c, 9, 17, 44
2, 6264, Note_on_c, 9, 51, 82
2, 6339, Note_on_c, 9, 36, 0
2, 6344, Note_on_c, 9, 38, 0
2, 6346, Note_on_c, 9, 51, 0
2, 6365, Control_c, 9, 4, 83
2, 6401, Control_c, 9, 4, 70
2, 6444, Control_c, 9, 4, 0
2, 6495, Control_c, 9, 4, 34
2, 6502, Note_on_c, 9, 44, 113
2, 6515, Control_c, 9, 17, 87
2, 6515, Note_on_c, 9, 51, 71
2, 6528, Control_c, 9, 4, 120
2, 6583, Note_on_c, 9, 44, 0
2, 6585, Control_c, 9, 4, 90
2, 6596, Note_on_c, 9, 51, 0
2, 6616, Control_c, 9, 4, 84
2, 6627, Note_on_c, 9, 36, 44
2, 6630, Control_c, 9, 18, 0
2, 6631, Note_on_c, 9, 48, 48
2, 6709, Note_on_c, 9, 36, 0
2, 6713, Note_on_c, 9, 48, 0
2, 6739, Control_c, 9, 4, 108
2, 6760, Note_on_c, 9, 48, 64
2, 6764, Control_c, 9, 17, 0
2, 6764, Note_on_c, 9, 51, 62
2, 6816, Control_c, 9, 4, 94
2, 6842, Note_on_c, 9, 48, 0
2, 6846, Note_on_c, 9, 51, 0
2, 6853, Control_c, 9, 4, 82
2, 6886, Control_c, 9, 4, 69
2, 6892, Control_c, 9, 17, 127
2, 6893, Note_on_c, 9, 51, 66
2, 6920, Control_c, 9, 4, 0
2, 6975, Note_on_c, 9, 51, 0
2, 6978, Note_on_c, 9, 36, 50
2, 6980, Control_c, 9, 4, 35
2, 6986, Note_on_c, 9, 44, 127
2, 7006, Control_c, 9, 17, 127
2, 7006, Note_on_c, 9, 51, 6
2, 7011, Control_c, 9, 4, 120
2, 7055, Control_c, 9, 4, 96
2, 7060, Note_on_c, 9, 36, 0
2, 7068, Note_on_c, 9, 44, 0
2, 7088, Note_on_c, 9, 51, 0
2, 7096, Control_c, 9, 4, 85
2, 7126, Control_c, 9, 17, 84
2, 7126, Note_on_c, 9, 51, 72
2, 7205, Control_c, 9, 4, 99
2, 7208, Note_on_c, 9, 51, 0
2, 7216, Note_on_c, 9, 36, 67
2, 7243, Control_c, 9, 16, 21
2, 7243, Note_on_c, 9, 38, 62
2, 7288, Control_c, 9, 4, 94
2, 7299, Note_on_c, 9, 36, 0
2, 7325, Note_on_c, 9, 38, 0
2, 7331, Control_c, 9, 4, 83
2, 7365, Control_c, 9, 4, 70
2, 7406, Control_c, 9, 4, 0
2, 7459, Control_c, 9, 4, 48
2, 7464, Note_on_c, 9, 44, 113
2, 7476, Control_c, 9, 17, 127
2, 7477, Note_on_c, 9, 51, 70
2, 7490, Control_c, 9, 4, 118
2, 7533, Control_c, 9, 4, 96
2, 7547, Note_on_c, 9, 44, 0
2, 7559, Note_on_c, 9, 51, 0
2, 7569, Control_c, 9, 4, 84
2, 7584, Note_on_c, 9, 36, 47
2, 7594, Note_on_c, 9, 51, 6
2, 7596, Control_c, 9, 18, 0
2, 7596, Note_on_c, 9, 48, 46
2, 7668, Note_on_c, 9, 36, 0
2, 7677, Note_on_c, 9, 51, 0
2, 7678, Note_on_c, 9, 48, 0
2, 7679, End_track
0, 0, End_of_file
