0, 0, Header, 1, 2, 480
1, 0, Start_track
1, 0, Tempo, 588235
1, 0, Time_signature, 4, 2, 24, 8
1, 0, Key_signature, 0, "major"
1, 1, End_track
2, 0, Start_track
2, 0, Title_t, "Classic Studio Kit"
2, 0, Program_c, 9, 0
2, 0, Control_c, 9, 17, 9
2, 9, Control_c, 9, 18, 0
2, 10, Note_on_c, 9, 48, 94
2, 11, Note_on_c, 9, 40, 63
2, 91, Note_on_c, 9, 40, 0
2, 91, Note_on_c, 9, 48, 0
2, 489, Control_c, 9, 17, 70
2, 490, Note_on_c, 9, 51, 81
2, 493, Control_c, 9, 16, 0
2, 494, Note_on_c, 9, 38, 122
2, 571, Note_on_c, 9, 51, 0
2, 574, Note_on_c, 9, 38, 0
2, 722, Note_on_c, 9, 36, 73
2, 733, Control_c, 9, 17, 24
2, 734, Note_on_c, 9, 51, 75
2, 804, Note_on_c, 9, 36, 0
2, 815, Note_on_c, 9, 51, 0
2, 846, Note_on_c, 9, 48, 67
2, 928, Note_on_c, 9, 48, 0
2, 967, Note_on_c, 9, 36, 96
2, 979, Control_c, 9, 17, 17
2, 979, Note_on_c, 9, 51, 107
2, 1049, Note_on_c, 9, 36, 0
2, 1061, Note_on_c, 9, 51, 0
2, 1092, Note_on_c, 9, 38, 40
2, 1173, Note_on_c, 9, 38, 0
2, 1204, Control_c, 9, 16, 0
2, 1204, Note_on_c, 9, 38, 48
2, 1224, Control_c, 9, 4, 102
2, 1286, Note_on_c, 9, 38, 0
2, 1296, Note_on_c, 9, 36, 71
2, 1307, Control_c, 9, 4, 92
2, 1378, Note_on_c, 9, 36, 0
2, 1448, Control_c, 9, 4, 118
2, 1452, Control_c, 9, 18, 0
2, 1452, Note_on_c, 9, 45, 94
2, 1458, Control_c, 9, 16, 0
2, 1458, Note_on_c, 9, 38, 87
2, 1478, Control_c, 9, 4, 98
2, 1518, Control_c, 9, 4, 94
2, 1534, Note_on_c, 9, 45, 0
2, 1540, Note_on_c, 9, 38, 0
2, 1683, Note_on_c, 9, 36, 86
2, 1686, Note_on_c, 9, 45, 54
2, 1766, Note_on_c, 9, 36, 0
2, 1766, Note_on_c, 9, 45, 0
2, 1931, Control_c, 9, 18, 0
2, 1932, Control_c, 9, 16, 85
2, 1932, Note_on_c, 9, 45, 90
2, 1934, Note_on_c, 9, 38, 90
2, 1944, Control_c, 9, 4, 98
2, 2013, Note_on_c, 9, 38, 0
2, 2013, Note_on_c, 9, 45, 0
2, 2070, Control_c, 9, 4, 94
2, 2161, Control_c, 9, 4, 98
2, 2333, Control_c, 9, 4, 93
2, 2403, Control_c, 9, 16, 127
2, 2403, Note_on_c, 9, 38, 115
2, 2409, Control_c, 9, 17, 10
2, 2410, Note_on_c, 9, 51, 105
2, 2430, Note_on_c, 9, 36, 75
2, 2455, Control_c, 9, 4, 108
2, 2486, Note_on_c, 9, 38, 0
2, 2490, Note_on_c, 9, 51, 0
2, 2512, Note_on_c, 9, 36, 0
2, 2522, Control_c, 9, 4, 89
2, 2556, Control_c, 9, 4, 73
2, 2593, Control_c, 9, 4, 0
2, 2651, Control_c, 9, 4, 34
2, 2653, Control_c, 9, 17, 45
2, 2654, Note_on_c, 9, 51, 76
2, 2658, Note_on_c, 9, 44, 113
2, 2683, Control_c, 9, 4, 126
2, 2721, Control_c, 9, 4, 112
2, 2735, Note_on_c, 9, 51, 0
2, 2738, Note_on_c, 9, 44, 0
2, 2761, Note_on_c, 9, 36, 73
2, 2763, Control_c, 9, 4, 91
2, 2765, Note_on_c, 9, 48, 46
2, 2844, Note_on_c, 9, 36, 0
2, 2845, Note_on_c, 9, 48, 0
2, 2863, Control_c, 9, 17, 2
2, 2863, Note_on_c, 9, 51, 81
2, 2872, Control_c, 9, 4, 102
2, 2883, Control_c, 9, 18, 0
2, 2884, Note_on_c, 9, 48, 93
2, 2905, Control_c, 9, 4, 106
2, 2945, Note_on_c, 9, 51, 0
2, 2965, Note_on_c, 9, 48, 0
2, 2969, Control_c, 9, 4, 110
2, 2972, Control_c, 9, 17, 4
2, 2973, Note_on_c, 9, 51, 98
2, 3036, Control_c, 9, 4, 81
2, 3054, Note_on_c, 9, 51, 0
2, 3073, Control_c, 9, 4, 0
2, 3134, Note_on_c, 9, 44, 126
2, 3141, Control_c, 9, 4, 127
2, 3184, Control_c, 9, 4, 116
2, 3217, Note_on_c, 9, 44, 0
2, 3223, Control_c, 9, 4, 92
2, 3324, Note_on_c, 9, 38, 68
2, 3346, Control_c, 9, 16, 0
2, 3346, Note_on_c, 9, 40, 75
2, 3360, Control_c, 9, 4, 97
2, 3405, Note_on_c, 9, 38, 0
2, 3427, Note_on_c, 9, 40, 0
2, 3556, Control_c, 9, 4, 92
2, 3583, Note_on_c, 9, 45, 114
2, 3665, Note_on_c, 9, 45, 0
2, 3830, Control_c, 9, 18, 0
2, 3830, Note_on_c, 9, 45, 107
2, 3833, Control_c, 9, 4, 110
2, 3853, Control_c, 9, 16, 106
2, 3853, Note_on_c, 9, 38, 86
2, 3887, Control_c, 9, 4, 98
2, 3912, Note_on_c, 9, 45, 0
2, 3921, Control_c, 9, 4, 81
2, 3936, Note_on_c, 9, 38, 0
2, 3957, Control_c, 9, 4, 0
2, 3996, Control_c, 9, 16, 0
2, 3996, Note_on_c, 9, 38, 8
2, 4030, Note_on_c, 9, 46, 12
2, 4037, Control_c, 9, 4, 33
2, 4042, Note_on_c, 9, 44, 127
2, 4068, Control_c, 9, 4, 88
2, 4078, Note_on_c, 9, 38, 0
2, 4112, Note_on_c, 9, 46, 0
2, 4113, Control_c, 9, 4, 23
2, 4124, Note_on_c, 9, 44, 0
2, 4131, Note_on_c, 9, 38, 6
2, 4180, Control_c, 9, 4, 49
2, 4212, Note_on_c, 9, 38, 0
2, 4246, Control_c, 9, 4, 43
2, 4283, Control_c, 9, 4, 26
2, 4322, Note_on_c, 9, 36, 95
2, 4323, Control_c, 9, 4, 16
2, 4404, Note_on_c, 9, 36, 0
2, 4418, Control_c, 9, 4, 0
2, 4566, Note_on_c, 9, 45, 97
2, 4618, Control_c, 9, 16, 0
2, 4619, Note_on_c, 9, 38, 53
2, 4648, Note_on_c, 9, 45, 0
2, 4676, Control_c, 9, 16, 0
2, 4677, Note_on_c, 9, 38, 0
2, 4677, Note_on_c, 9, 38, 49
2, 4701, Note_on_c, 9, 38, 0
2, 4729, Control_c, 9, 16, 127
2, 4730, Note_on_c, 9, 38, 69
2, 4759, Note_on_c, 9, 38, 0
2, 4799, Control_c, 9, 16, 0
2, 4800, Note_on_c, 9, 38, 50
2, 4812, Note_on_c, 9, 38, 0
2, 4912, Control_c, 9, 16, 127
2, 4912, Note_on_c, 9, 38, 94
2, 4986, Control_c, 9, 4, 14
2, 4995, Note_on_c, 9, 38, 0
2, 5037, Control_c, 9, 4, 18
2, 5048, Control_c, 9, 18, 0
2, 5049, Note_on_c, 9, 45, 127
2, 5073, Control_c, 9, 4, 23
2, 5131, Note_on_c, 9, 45, 0
2, 5167, Control_c, 9, 16, 0
2, 5168, Note_on_c, 9, 38, 56
2, 5249, Note_on_c, 9, 38, 0
2, 5283, Control_c, 9, 16, 42
2, 5283, Note_on_c, 9, 38, 112
2, 5365, Note_on_c, 9, 38, 0
2, 5452, Control_c, 9, 4, 28
2, 5525, Control_c, 9, 16, 0
2, 5525, Note_on_c, 9, 40, 84
2, 5594, Control_c, 9, 4, 20
2, 5607, Note_on_c, 9, 40, 0
2, 5633, Control_c, 9, 4, 0
2, 5736, Control_c, 9, 4, 16
2, 5772, Control_c, 9, 4, 69
2, 5772, Note_on_c, 9, 48, 101
2, 5800, Note_on_c, 9, 48, 0
2, 5801, Note_on_c, 9, 48, 74
2, 5816, Control_c, 9, 4, 63
2, 5848, Control_c, 9, 4, 67
2, 5854, Note_on_c, 9, 48, 0
2, 5893, Note_on_c, 9, 38, 54
2, 5975, Note_on_c, 9, 38, 0
2, 6015, Control_c, 9, 16, 0
2, 6016, Note_on_c, 9, 40, 93
2, 6045, Control_c, 9, 4, 71
2, 6092, Note_on_c, 9, 44, 28
2, 6097, Note_on_c, 9, 40, 0
2, 6117, Control_c, 9, 4, 76
2, 6134, Control_c, 9, 16, 0
2, 6134, Note_on_c, 9, 38, 59
2, 6174, Note_on_c, 9, 44, 0
2, 6216, Note_on_c, 9, 38, 0
2, 6273, Control_c, 9, 16, 106
2, 6274, Note_on_c, 9, 38, 86
2, 6274, Note_on_c, 9, 59, 106
2, 6285, Note_on_c, 9, 36, 83
2, 6307, Control_c, 9, 4, 92
2, 6355, Note_on_c, 9, 38, 0
2, 6355, Note_on_c, 9, 59, 0
2, 6366, Note_on_c, 9, 36, 0
2, 6402, Control_c, 9, 4, 71
2, 6437, Control_c, 9, 4, 0
2, 6494, Control_c, 9, 4, 33
2, 6497, Control_c, 9, 17, 53
2, 6498, Note_on_c, 9, 51, 79
2, 6501, Note_on_c, 9, 44, 126
2, 6526, Control_c, 9, 4, 127
2, 6571, Control_c, 9, 4, 98
2, 6581, Note_on_c, 9, 51, 0
2, 6582, Note_on_c, 9, 44, 0
2, 6616, Control_c, 9, 4, 87
2, 6627, Note_on_c, 9, 36, 76
2, 6630, Control_c, 9, 18, 0
2, 6630, Note_on_c, 9, 48, 48
2, 6709, Note_on_c, 9, 36, 0
2, 6711, Note_on_c, 9, 48, 0
2, 6727, Control_c, 9, 4, 112
2, 6745, Control_c, 9, 17, 0
2, 6746, Note_on_c, 9, 51, 81
2, 6747, Note_on_c, 9, 48, 86
2, 6827, Note_on_c, 9, 51, 0
2, 6828, Note_on_c, 9, 48, 0
2, 6832, Control_c, 9, 4, 91
2, 6866, Control_c, 9, 4, 71
2, 6869, Note_on_c, 9, 51, 91
2, 6897, Control_c, 9, 4, 0
2, 6951, Note_on_c, 9, 51, 0
2, 6969, Note_on_c, 9, 44, 127
2, 6972, Note_on_c, 9, 36, 78
2, 6975, Control_c, 9, 4, 127
2, 7012, Control_c, 9, 4, 110
2, 7045, Control_c, 9, 4, 92
2, 7052, Note_on_c, 9, 36, 0
2, 7052, Note_on_c, 9, 44, 0
2, 7077, Control_c, 9, 4, 88
2, 7176, Control_c, 9, 4, 94
2, 7220, Note_on_c, 9, 36, 90
2, 7231, Control_c, 9, 17, 0
2, 7231, Note_on_c, 9, 51, 127
2, 7234, Control_c, 9, 16, 0
2, 7234, Note_on_c, 9, 38, 114
2, 7254, Control_c, 9, 4, 100
2, 7301, Note_on_c, 9, 36, 0
2, 7313, Note_on_c, 9, 51, 0
2, 7315, Control_c, 9, 4, 93
2, 7316, Note_on_c, 9, 38, 0
2, 7351, Control_c, 9, 4, 76
2, 7390, Control_c, 9, 4, 0
2, 7451, Control_c, 9, 4, 35
2, 7456, Note_on_c, 9, 44, 127
2, 7470, Control_c, 9, 17, 0
2, 7471, Note_on_c, 9, 51, 101
2, 7482, Control_c, 9, 4, 127
2, 7521, Control_c, 9, 4, 112
2, 7538, Note_on_c, 9, 44, 0
2, 7552, Note_on_c, 9, 51, 0
2, 7553, Control_c, 9, 4, 92
2, 7583, Control_c, 9, 18, 0
2, 7584, Note_on_c, 9, 48, 52
2, 7594, Note_on_c, 9, 36, 81
2, 7665, Note_on_c, 9, 48, 0
2, 7676, Note_on_c, 9, 36, 0
2, 7677, End_track
0, 0, End_of_file
