0, 0, Header, 1, 2, 480
1, 0, Start_track
1, 0, Tempo, 588235
1, 0, Time_signature, 4, 2, 24, 8
1, 0, Key_signature, 0, "major"
1, 1, End_track
2, 0, Start_track
2, 0, Title_t, "Classic Studio Kit"
2, 0, Program_c, 9, 0
2, 0, Control_c, 9, 17, 127
2, 1, Note_on_c, 9, 48, 77
2, 7, Note_on_c, 9, 36, 78
2, 31, Control_c, 9, 4, 110
2, 72, Control_c, 9, 4, 91
2, 83, Note_on_c, 9, 48, 0
2, 89, Note_on_c, 9, 36, 0
2, 106, Control_c, 9, 4, 87
2, 193, Control_c, 9, 4, 95
2, 230, Control_c, 9, 4, 99
2, 265, Control_c, 9, 4, 94
2, 483, Control_c, 9, 16, 0
2, 484, Note_on_c, 9, 38, 96
2, 490, Control_c, 9, 17, 1
2, 490, Note_on_c, 9, 51, 122
2, 493, Note_on_c, 9, 36, 77
2, 518, Control_c, 9, 4, 110
2, 564, Note_on_c, 9, 38, 0
2, 572, Note_on_c, 9, 51, 0
2, 573, Note_on_c, 9, 36, 0
2, 577, Control_c, 9, 4, 92
2, 608, Control_c, 9, 4, 72
2, 644, Control_c, 9, 4, 0
2, 710, Note_on_c, 9, 46, 13
2, 723, Note_on_c, 9, 44, 127
2, 728, Control_c, 9, 4, 127
2, 731, Control_c, 9, 17, 69
2, 732, Note_on_c, 9, 51, 76
2, 773, Control_c, 9, 4, 116
2, 791, Note_on_c, 9, 46, 0
2, 805, Note_on_c, 9, 44, 0
2, 813, Note_on_c, 9, 51, 0
2, 815, Control_c, 9, 4, 92
2, 834, Control_c, 9, 18, 0
2, 835, Note_on_c, 9, 48, 48
2, 861, Note_on_c, 9, 36, 68
2, 917, Note_on_c, 9, 48, 0
2, 943, Control_c, 9, 4, 108
2, 943, Note_on_c, 9, 36, 0
2, 968, Control_c, 9, 17, 127
2, 968, Note_on_c, 9, 51, 68
2, 972, Note_on_c, 9, 48, 67
2, 980, Control_c, 9, 4, 114
2, 1049, Note_on_c, 9, 51, 0
2, 1052, Note_on_c, 9, 48, 0
2, 1070, Control_c, 9, 4, 91
2, 1098, Control_c, 9, 17, 48
2, 1098, Note_on_c, 9, 51, 72
2, 1104, Control_c, 9, 4, 70
2, 1134, Control_c, 9, 4, 0
2, 1181, Note_on_c, 9, 51, 0
2, 1202, Note_on_c, 9, 46, 15
2, 1215, Note_on_c, 9, 44, 127
2, 1217, Note_on_c, 9, 36, 79
2, 1221, Control_c, 9, 4, 127
2, 1264, Control_c, 9, 4, 118
2, 1284, Note_on_c, 9, 46, 0
2, 1296, Note_on_c, 9, 44, 0
2, 1299, Note_on_c, 9, 36, 0
2, 1304, Control_c, 9, 4, 92
2, 1336, Control_c, 9, 17, 9
2, 1336, Note_on_c, 9, 51, 85
2, 1418, Note_on_c, 9, 51, 0
2, 1429, Control_c, 9, 4, 99
2, 1455, Note_on_c, 9, 38, 102
2, 1461, Note_on_c, 9, 36, 81
2, 1502, Control_c, 9, 4, 94
2, 1536, Note_on_c, 9, 38, 0
2, 1540, Control_c, 9, 4, 90
2, 1544, Note_on_c, 9, 36, 0
2, 1655, Control_c, 9, 4, 97
2, 1686, Control_c, 9, 17, 53
2, 1686, Note_on_c, 9, 51, 87
2, 1699, Control_c, 9, 4, 112
2, 1746, Control_c, 9, 4, 102
2, 1768, Note_on_c, 9, 51, 0
2, 1776, Control_c, 9, 4, 87
2, 1799, Control_c, 9, 18, 0
2, 1799, Note_on_c, 9, 48, 40
2, 1809, Control_c, 9, 4, 71
2, 1845, Control_c, 9, 4, 0
2, 1881, Note_on_c, 9, 48, 0
2, 1912, Note_on_c, 9, 46, 13
2, 1922, Control_c, 9, 17, 115
2, 1922, Note_on_c, 9, 51, 77
2, 1925, Note_on_c, 9, 44, 127
2, 1930, Control_c, 9, 4, 127
2, 1934, Note_on_c, 9, 48, 78
2, 1945, Note_on_c, 9, 36, 67
2, 1974, Control_c, 9, 4, 116
2, 1994, Note_on_c, 9, 46, 0
2, 2005, Note_on_c, 9, 51, 0
2, 2006, Note_on_c, 9, 44, 0
2, 2015, Note_on_c, 9, 48, 0
2, 2017, Control_c, 9, 4, 92
2, 2027, Note_on_c, 9, 36, 0
2, 2049, Control_c, 9, 4, 88
2, 2058, Control_c, 9, 17, 65
2, 2058, Note_on_c, 9, 51, 65
2, 2140, Note_on_c, 9, 51, 0
2, 2152, Control_c, 9, 4, 114
2, 2189, Control_c, 9, 4, 97
2, 2220, Control_c, 9, 4, 92
2, 2411, Control_c, 9, 16, 0
2, 2412, Note_on_c, 9, 38, 124
2, 2419, Note_on_c, 9, 36, 76
2, 2420, Control_c, 9, 17, 9
2, 2421, Note_on_c, 9, 51, 116
2, 2461, Control_c, 9, 4, 110
2, 2493, Note_on_c, 9, 38, 0
2, 2501, Note_on_c, 9, 36, 0
2, 2501, Note_on_c, 9, 51, 0
2, 2510, Control_c, 9, 4, 92
2, 2542, Control_c, 9, 4, 74
2, 2580, Control_c, 9, 4, 0
2, 2655, Note_on_c, 9, 44, 127
2, 2657, Control_c, 9, 17, 72
2, 2658, Note_on_c, 9, 51, 78
2, 2660, Control_c, 9, 4, 127
2, 2708, Control_c, 9, 4, 120
2, 2737, Note_on_c, 9, 44, 0
2, 2739, Note_on_c, 9, 51, 0
2, 2745, Control_c, 9, 4, 91
2, 2764, Control_c, 9, 18, 0
2, 2764, Note_on_c, 9, 48, 47
2, 2791, Note_on_c, 9, 36, 65
2, 2847, Note_on_c, 9, 48, 0
2, 2873, Note_on_c, 9, 36, 0
2, 2900, Note_on_c, 9, 48, 65
2, 2901, Control_c, 9, 4, 110
2, 2902, Control_c, 9, 17, 127
2, 2902, Note_on_c, 9, 51, 71
2, 2982, Note_on_c, 9, 48, 0
2, 2982, Note_on_c, 9, 51, 0
2, 2999, Control_c, 9, 4, 92
2, 3021, Control_c, 9, 17, 47
2, 3022, Note_on_c, 9, 51, 79
2, 3034, Control_c, 9, 4, 72
2, 3068, Control_c, 9, 4, 0
2, 3104, Note_on_c, 9, 51, 0
2, 3132, Note_on_c, 9, 46, 10
2, 3144, Note_on_c, 9, 44, 127
2, 3148, Note_on_c, 9, 36, 74
2, 3150, Control_c, 9, 4, 127
2, 3194, Control_c, 9, 4, 112
2, 3214, Note_on_c, 9, 46, 0
2, 3224, Control_c, 9, 4, 91
2, 3227, Note_on_c, 9, 44, 0
2, 3231, Note_on_c, 9, 36, 0
2, 3255, Control_c, 9, 4, 87
2, 3256, Control_c, 9, 17, 6
2, 3256, Note_on_c, 9, 51, 77
2, 3339, Note_on_c, 9, 51, 0
2, 3370, Control_c, 9, 4, 97
2, 3374, Control_c, 9, 16, 42
2, 3375, Note_on_c, 9, 38, 93
2, 3376, Note_on_c, 9, 36, 70
2, 3401, Control_c, 9, 4, 92
2, 3456, Note_on_c, 9, 38, 0
2, 3459, Note_on_c, 9, 36, 0
2, 3602, Control_c, 9, 17, 21
2, 3602, Note_on_c, 9, 51, 82
2, 3618, Control_c, 9, 4, 98
2, 3652, Control_c, 9, 4, 110
2, 3684, Note_on_c, 9, 51, 0
2, 3696, Control_c, 9, 4, 98
2, 3714, Control_c, 9, 18, 0
2, 3715, Note_on_c, 9, 48, 46
2, 3730, Control_c, 9, 4, 82
2, 3773, Control_c, 9, 4, 0
2, 3796, Note_on_c, 9, 48, 0
2, 3842, Note_on_c, 9, 46, 14
2, 3846, Control_c, 9, 17, 77
2, 3847, Note_on_c, 9, 51, 80
2, 3849, Control_c, 9, 4, 35
2, 3854, Note_on_c, 9, 44, 127
2, 3856, Note_on_c, 9, 48, 73
2, 3863, Note_on_c, 9, 36, 71
2, 3880, Control_c, 9, 4, 127
2, 3923, Note_on_c, 9, 46, 0
2, 3927, Control_c, 9, 4, 98
2, 3929, Note_on_c, 9, 51, 0
2, 3937, Note_on_c, 9, 44, 0
2, 3937, Note_on_c, 9, 48, 0
2, 3945, Note_on_c, 9, 36, 0
2, 3969, Control_c, 9, 17, 46
2, 3970, Note_on_c, 9, 51, 72
2, 3972, Control_c, 9, 4, 88
2, 4052, Note_on_c, 9, 51, 0
2, 4076, Control_c, 9, 4, 114
2, 4106, Control_c, 9, 4, 95
2, 4324, Control_c, 9, 16, 0
2, 4325, Note_on_c, 9, 38, 113
2, 4331, Control_c, 9, 17, 23
2, 4332, Note_on_c, 9, 51, 104
2, 4333, Note_on_c, 9, 36, 68
2, 4374, Control_c, 9, 4, 110
2, 4407, Note_on_c, 9, 38, 0
2, 4412, Note_on_c, 9, 51, 0
2, 4415, Note_on_c, 9, 36, 0
2, 4431, Control_c, 9, 4, 91
2, 4463, Control_c, 9, 4, 73
2, 4500, Control_c, 9, 4, 0
2, 4568, Control_c, 9, 17, 41
2, 4569, Note_on_c, 9, 51, 78
2, 4576, Note_on_c, 9, 44, 127
2, 4581, Control_c, 9, 4, 127
2, 4627, Control_c, 9, 4, 120
2, 4650, Note_on_c, 9, 51, 0
2, 4657, Note_on_c, 9, 44, 0
2, 4664, Control_c, 9, 4, 91
2, 4676, Control_c, 9, 18, 0
2, 4676, Note_on_c, 9, 48, 44
2, 4701, Note_on_c, 9, 36, 71
2, 4759, Note_on_c, 9, 48, 0
2, 4784, Note_on_c, 9, 36, 0
2, 4792, Control_c, 9, 4, 108
2, 4810, Note_on_c, 9, 48, 68
2, 4811, Control_c, 9, 17, 112
2, 4811, Note_on_c, 9, 51, 77
2, 4827, Control_c, 9, 4, 114
2, 4892, Note_on_c, 9, 48, 0
2, 4892, Note_on_c, 9, 51, 0
2, 4905, Control_c, 9, 4, 93
2, 4933, Control_c, 9, 17, 46
2, 4933, Note_on_c, 9, 51, 78
2, 4939, Control_c, 9, 4, 73
2, 4973, Control_c, 9, 4, 0
2, 5015, Note_on_c, 9, 51, 0
2, 5042, Note_on_c, 9, 46, 15
2, 5046, Note_on_c, 9, 36, 75
2, 5049, Control_c, 9, 4, 35
2, 5054, Note_on_c, 9, 44, 127
2, 5079, Control_c, 9, 4, 127
2, 5123, Note_on_c, 9, 46, 0
2, 5128, Note_on_c, 9, 36, 0
2, 5133, Control_c, 9, 4, 93
2, 5135, Note_on_c, 9, 44, 0
2, 5164, Control_c, 9, 4, 89
2, 5174, Control_c, 9, 17, 1
2, 5174, Note_on_c, 9, 51, 87
2, 5255, Note_on_c, 9, 51, 0
2, 5269, Control_c, 9, 4, 102
2, 5281, Note_on_c, 9, 36, 78
2, 5292, Note_on_c, 9, 38, 80
2, 5311, Control_c, 9, 4, 96
2, 5343, Control_c, 9, 4, 91
2, 5363, Note_on_c, 9, 36, 0
2, 5373, Note_on_c, 9, 38, 0
2, 5492, Control_c, 9, 4, 118
2, 5519, Control_c, 9, 17, 23
2, 5520, Note_on_c, 9, 51, 100
2, 5585, Control_c, 9, 4, 95
2, 5601, Note_on_c, 9, 51, 0
2, 5621, Control_c, 9, 4, 83
2, 5637, Note_on_c, 9, 36, 57
2, 5640, Control_c, 9, 18, 0
2, 5641, Note_on_c, 9, 48, 41
2, 5652, Control_c, 9, 4, 69
2, 5686, Control_c, 9, 4, 0
2, 5719, Note_on_c, 9, 36, 0
2, 5723, Note_on_c, 9, 48, 0
2, 5756, Control_c, 9, 4, 34
2, 5762, Note_on_c, 9, 44, 127
2, 5769, Control_c, 9, 17, 81
2, 5769, Note_on_c, 9, 51, 80
2, 5773, Note_on_c, 9, 48, 79
2, 5787, Control_c, 9, 4, 127
2, 5825, Control_c, 9, 4, 110
2, 5844, Note_on_c, 9, 44, 0
2, 5851, Note_on_c, 9, 51, 0
2, 5854, Note_on_c, 9, 48, 0
2, 5856, Control_c, 9, 4, 94
2, 5886, Control_c, 9, 17, 39
2, 5886, Note_on_c, 9, 51, 76
2, 5969, Note_on_c, 9, 51, 0
2, 5977, Control_c, 9, 4, 108
2, 5985, Note_on_c, 9, 36, 76
2, 6009, Control_c, 9, 4, 100
2, 6041, Control_c, 9, 4, 95
2, 6067, Note_on_c, 9, 36, 0
2, 6233, Note_on_c, 9, 36, 86
2, 6252, Control_c, 9, 17, 9
2, 6252, Note_on_c, 9, 51, 109
2, 6294, Control_c, 9, 4, 110
2, 6315, Note_on_c, 9, 36, 0
2, 6334, Note_on_c, 9, 51, 0
2, 6344, Control_c, 9, 4, 91
2, 6380, Control_c, 9, 4, 71
2, 6413, Control_c, 9, 4, 0
2, 6477, Note_on_c, 9, 46, 11
2, 6485, Control_c, 9, 4, 34
2, 6491, Note_on_c, 9, 44, 127
2, 6492, Control_c, 9, 17, 44
2, 6492, Note_on_c, 9, 51, 82
2, 6515, Control_c, 9, 4, 127
2, 6556, Control_c, 9, 4, 106
2, 6559, Note_on_c, 9, 46, 0
2, 6572, Note_on_c, 9, 44, 0
2, 6573, Note_on_c, 9, 51, 0
2, 6586, Control_c, 9, 4, 90
2, 6606, Note_on_c, 9, 36, 74
2, 6611, Control_c, 9, 16, 0
2, 6612, Note_on_c, 9, 38, 46
2, 6688, Note_on_c, 9, 36, 0
2, 6692, Note_on_c, 9, 38, 0
2, 6710, Control_c, 9, 4, 127
2, 6743, Control_c, 9, 17, 127
2, 6743, Note_on_c, 9, 51, 85
2, 6760, Control_c, 9, 4, 120
2, 6797, Control_c, 9, 4, 90
2, 6824, Note_on_c, 9, 51, 0
2, 6833, Control_c, 9, 4, 71
2, 6850, Note_on_c, 9, 38, 31
2, 6863, Control_c, 9, 4, 0
2, 6931, Note_on_c, 9, 38, 0
2, 6934, Note_on_c, 9, 46, 16
2, 6943, Control_c, 9, 4, 34
2, 6943, Note_on_c, 9, 36, 84
2, 6948, Note_on_c, 9, 44, 127
2, 6962, Control_c, 9, 16, 0
2, 6962, Note_on_c, 9, 38, 56
2, 6974, Control_c, 9, 4, 90
2, 7015, Note_on_c, 9, 46, 0
2, 7018, Control_c, 9, 4, 23
2, 7025, Note_on_c, 9, 36, 0
2, 7030, Note_on_c, 9, 44, 0
2, 7044, Note_on_c, 9, 38, 0
2, 7066, Control_c, 9, 4, 46
2, 7091, Control_c, 9, 16, 0
2, 7091, Note_on_c, 9, 38, 29
2, 7102, Control_c, 9, 4, 69
2, 7102, Note_on_c, 9, 46, 11
2, 7174, Note_on_c, 9, 38, 0
2, 7183, Note_on_c, 9, 46, 0
2, 7196, Control_c, 9, 16, 64
2, 7196, Note_on_c, 9, 38, 74
2, 7225, Control_c, 9, 4, 59
2, 7264, Control_c, 9, 4, 0
2, 7277, Note_on_c, 9, 38, 0
2, 7315, Control_c, 9, 16, 0
2, 7316, Note_on_c, 9, 38, 26
2, 7385, Control_c, 9, 4, 64
2, 7387, Note_on_c, 9, 38, 0
2, 7387, Note_on_c, 9, 38, 28
2, 7390, Note_on_c, 9, 44, 61
2, 7397, Note_on_c, 9, 38, 0
2, 7415, Control_c, 9, 4, 87
2, 7431, Control_c, 9, 16, 0
2, 7431, Note_on_c, 9, 40, 68
2, 7472, Note_on_c, 9, 44, 0
2, 7513, Note_on_c, 9, 40, 0
2, 7555, Note_on_c, 9, 38, 70
2, 7636, Note_on_c, 9, 38, 0
2, 7649, Control_c, 9, 4, 92
2, 7666, Control_c, 9, 16, 0
2, 7667, End_track
0, 0, End_of_file
