0, 0, Header, 1, 2, 480
1, 0, Start_track
1, 0, Tempo, 588235
1, 0, Time_signature, 4, 2, 24, 8
1, 0, Key_signature, 0, "major"
1, 1, End_track
2, 0, Start_track
2, 0, Title_t, "Classic Studio Kit"
2, 0, Program_c, 9, 0
2, 0, Control_c, 9, 18, 0
2, 8, Control_c, 9, 4, 118
2, 18, Note_on_c, 9, 48, 63
2, 24, Control_c, 9, 17, 127
2, 25, Note_on_c, 9, 51, 57
2, 63, Control_c, 9, 4, 104
2, 94, Control_c, 9, 4, 91
2, 100, Note_on_c, 9, 48, 0
2, 105, Note_on_c, 9, 51, 0
2, 145, Control_c, 9, 4, 69
2, 153, Control_c, 9, 17, 117
2, 154, Note_on_c, 9, 51, 70
2, 175, Control_c, 9, 4, 0
2, 235, Note_on_c, 9, 36, 43
2, 236, Note_on_c, 9, 51, 0
2, 241, Control_c, 9, 4, 34
2, 247, Note_on_c, 9, 44, 126
2, 266, Control_c, 9, 17, 117
2, 266, Note_on_c, 9, 51, 6
2, 273, Control_c, 9, 4, 118
2, 318, Note_on_c, 9, 36, 0
2, 328, Note_on_c, 9, 44, 0
2, 331, Control_c, 9, 4, 92
2, 349, Note_on_c, 9, 51, 0
2, 362, Control_c, 9, 4, 88
2, 482, Control_c, 9, 4, 102
2, 493, Control_c, 9, 17, 59
2, 493, Note_on_c, 9, 51, 90
2, 495, Note_on_c, 9, 36, 61
2, 500, Control_c, 9, 16, 0
2, 500, Note_on_c, 9, 38, 60
2, 547, Control_c, 9, 4, 98
2, 576, Note_on_c, 9, 51, 0
2, 577, Note_on_c, 9, 36, 0
2, 581, Note_on_c, 9, 38, 0
2, 602, Control_c, 9, 4, 85
2, 635, Control_c, 9, 4, 70
2, 670, Control_c, 9, 4, 0
2, 732, Control_c, 9, 4, 48
2, 737, Note_on_c, 9, 44, 126
2, 741, Control_c, 9, 17, 125
2, 741, Note_on_c, 9, 51, 78
2, 762, Control_c, 9, 4, 116
2, 815, Control_c, 9, 4, 93
2, 819, Note_on_c, 9, 44, 0
2, 823, Note_on_c, 9, 51, 0
2, 852, Control_c, 9, 18, 0
2, 852, Note_on_c, 9, 48, 49
2, 860, Note_on_c, 9, 36, 39
2, 861, Control_c, 9, 4, 84
2, 934, Note_on_c, 9, 48, 0
2, 942, Note_on_c, 9, 36, 0
2, 981, Control_c, 9, 17, 127
2, 981, Note_on_c, 9, 48, 61
2, 981, Note_on_c, 9, 51, 54
2, 983, Control_c, 9, 4, 116
2, 1055, Control_c, 9, 4, 91
2, 1063, Note_on_c, 9, 48, 0
2, 1063, Note_on_c, 9, 51, 0
2, 1102, Control_c, 9, 4, 70
2, 1106, Control_c, 9, 17, 126
2, 1107, Note_on_c, 9, 51, 71
2, 1139, Control_c, 9, 4, 0
2, 1188, Note_on_c, 9, 51, 0
2, 1207, Note_on_c, 9, 46, 10
2, 1210, Note_on_c, 9, 36, 61
2, 1214, Control_c, 9, 4, 32
2, 1220, Note_on_c, 9, 44, 127
2, 1245, Control_c, 9, 4, 120
2, 1289, Note_on_c, 9, 46, 0
2, 1291, Note_on_c, 9, 36, 0
2, 1298, Control_c, 9, 4, 95
2, 1303, Note_on_c, 9, 44, 0
2, 1334, Control_c, 9, 17, 89
2, 1334, Note_on_c, 9, 51, 85
2, 1336, Control_c, 9, 4, 70
2, 1368, Control_c, 9, 4, 0
2, 1416, Note_on_c, 9, 51, 0
2, 1444, Note_on_c, 9, 46, 14
2, 1450, Control_c, 9, 4, 32
2, 1456, Note_on_c, 9, 44, 127
2, 1458, Control_c, 9, 16, 21
2, 1458, Note_on_c, 9, 38, 63
2, 1465, Note_on_c, 9, 36, 73
2, 1481, Control_c, 9, 4, 116
2, 1525, Note_on_c, 9, 46, 0
2, 1534, Control_c, 9, 4, 92
2, 1538, Note_on_c, 9, 44, 0
2, 1539, Note_on_c, 9, 38, 0
2, 1547, Note_on_c, 9, 36, 0
2, 1571, Control_c, 9, 4, 80
2, 1642, Control_c, 9, 4, 82
2, 1689, Control_c, 9, 4, 120
2, 1691, Control_c, 9, 17, 127
2, 1692, Note_on_c, 9, 51, 84
2, 1745, Control_c, 9, 4, 97
2, 1773, Note_on_c, 9, 51, 0
2, 1788, Control_c, 9, 4, 72
2, 1799, Control_c, 9, 18, 0
2, 1799, Note_on_c, 9, 48, 48
2, 1810, Note_on_c, 9, 36, 50
2, 1830, Control_c, 9, 4, 0
2, 1882, Note_on_c, 9, 48, 0
2, 1892, Note_on_c, 9, 36, 0
2, 1905, Note_on_c, 9, 46, 12
2, 1912, Control_c, 9, 4, 35
2, 1918, Note_on_c, 9, 44, 127
2, 1928, Note_on_c, 9, 48, 66
2, 1939, Control_c, 9, 17, 127
2, 1939, Note_on_c, 9, 51, 44
2, 1942, Control_c, 9, 4, 122
2, 1986, Note_on_c, 9, 46, 0
2, 1999, Note_on_c, 9, 44, 0
2, 2010, Control_c, 9, 4, 92
2, 2010, Note_on_c, 9, 48, 0
2, 2021, Note_on_c, 9, 51, 0
2, 2063, Control_c, 9, 17, 81
2, 2063, Note_on_c, 9, 51, 75
2, 2145, Note_on_c, 9, 36, 49
2, 2146, Note_on_c, 9, 51, 0
2, 2151, Control_c, 9, 4, 102
2, 2214, Control_c, 9, 4, 92
2, 2227, Note_on_c, 9, 36, 0
2, 2395, Control_c, 9, 17, 47
2, 2396, Control_c, 9, 16, 0
2, 2396, Note_on_c, 9, 51, 90
2, 2398, Note_on_c, 9, 38, 89
2, 2403, Note_on_c, 9, 36, 46
2, 2428, Control_c, 9, 4, 96
2, 2478, Note_on_c, 9, 38, 0
2, 2478, Note_on_c, 9, 51, 0
2, 2484, Note_on_c, 9, 36, 0
2, 2506, Control_c, 9, 4, 83
2, 2539, Control_c, 9, 4, 70
2, 2572, Control_c, 9, 4, 0
2, 2636, Control_c, 9, 4, 35
2, 2642, Note_on_c, 9, 44, 127
2, 2656, Control_c, 9, 17, 96
2, 2656, Note_on_c, 9, 51, 77
2, 2667, Control_c, 9, 4, 120
2, 2715, Control_c, 9, 4, 95
2, 2724, Note_on_c, 9, 44, 0
2, 2738, Note_on_c, 9, 51, 0
2, 2758, Control_c, 9, 4, 84
2, 2769, Control_c, 9, 18, 0
2, 2769, Note_on_c, 9, 48, 48
2, 2774, Note_on_c, 9, 36, 52
2, 2818, Control_c, 9, 4, 88
2, 2852, Note_on_c, 9, 48, 0
2, 2856, Note_on_c, 9, 36, 0
2, 2879, Control_c, 9, 4, 112
2, 2900, Note_on_c, 9, 48, 60
2, 2901, Control_c, 9, 17, 0
2, 2902, Note_on_c, 9, 51, 45
2, 2982, Note_on_c, 9, 48, 0
2, 2982, Note_on_c, 9, 51, 0
2, 2985, Control_c, 9, 4, 90
2, 3016, Control_c, 9, 4, 75
2, 3028, Control_c, 9, 17, 127
2, 3029, Note_on_c, 9, 51, 72
2, 3055, Control_c, 9, 4, 0
2, 3110, Note_on_c, 9, 51, 0
2, 3119, Note_on_c, 9, 36, 43
2, 3125, Control_c, 9, 4, 34
2, 3130, Note_on_c, 9, 44, 127
2, 3156, Control_c, 9, 4, 120
2, 3201, Note_on_c, 9, 36, 0
2, 3213, Note_on_c, 9, 44, 0
2, 3219, Control_c, 9, 4, 91
2, 3253, Control_c, 9, 4, 87
2, 3259, Control_c, 9, 17, 66
2, 3260, Note_on_c, 9, 51, 84
2, 3342, Note_on_c, 9, 51, 0
2, 3374, Control_c, 9, 4, 112
2, 3377, Note_on_c, 9, 36, 75
2, 3381, Control_c, 9, 16, 21
2, 3381, Note_on_c, 9, 38, 66
2, 3445, Control_c, 9, 4, 97
2, 3459, Note_on_c, 9, 36, 0
2, 3463, Note_on_c, 9, 38, 0
2, 3495, Control_c, 9, 4, 84
2, 3525, Control_c, 9, 4, 70
2, 3559, Control_c, 9, 4, 0
2, 3616, Control_c, 9, 4, 32
2, 3622, Control_c, 9, 17, 127
2, 3623, Note_on_c, 9, 51, 84
2, 3624, Note_on_c, 9, 44, 127
2, 3632, Note_on_c, 9, 36, 73
2, 3647, Control_c, 9, 4, 118
2, 3693, Control_c, 9, 4, 97
2, 3703, Note_on_c, 9, 44, 0
2, 3703, Note_on_c, 9, 51, 0
2, 3715, Note_on_c, 9, 36, 0
2, 3729, Control_c, 9, 4, 85
2, 3751, Control_c, 9, 18, 0
2, 3751, Note_on_c, 9, 48, 42
2, 3833, Note_on_c, 9, 48, 0
2, 3860, Control_c, 9, 4, 112
2, 3862, Control_c, 9, 17, 127
2, 3863, Note_on_c, 9, 51, 54
2, 3868, Note_on_c, 9, 48, 70
2, 3928, Control_c, 9, 4, 102
2, 3945, Note_on_c, 9, 51, 0
2, 3949, Note_on_c, 9, 48, 0
2, 3959, Control_c, 9, 4, 91
2, 3989, Control_c, 9, 17, 112
2, 3990, Note_on_c, 9, 51, 75
2, 4000, Control_c, 9, 4, 73
2, 4035, Control_c, 9, 4, 0
2, 4070, Note_on_c, 9, 51, 0
2, 4092, Control_c, 9, 4, 34
2, 4097, Note_on_c, 9, 44, 127
2, 4123, Control_c, 9, 4, 120
2, 4180, Note_on_c, 9, 44, 0
2, 4194, Control_c, 9, 4, 90
2, 4319, Control_c, 9, 4, 97
2, 4353, Control_c, 9, 17, 74
2, 4354, Note_on_c, 9, 51, 92
2, 4355, Control_c, 9, 16, 0
2, 4355, Note_on_c, 9, 38, 71
2, 4366, Note_on_c, 9, 36, 57
2, 4376, Control_c, 9, 4, 102
2, 4416, Control_c, 9, 4, 97
2, 4435, Note_on_c, 9, 51, 0
2, 4437, Note_on_c, 9, 38, 0
2, 4448, Note_on_c, 9, 36, 0
2, 4462, Control_c, 9, 4, 84
2, 4497, Control_c, 9, 4, 70
2, 4532, Control_c, 9, 4, 0
2, 4587, Control_c, 9, 4, 34
2, 4593, Note_on_c, 9, 44, 126
2, 4597, Control_c, 9, 17, 127
2, 4597, Note_on_c, 9, 51, 81
2, 4619, Control_c, 9, 4, 120
2, 4664, Control_c, 9, 4, 97
2, 4675, Note_on_c, 9, 44, 0
2, 4679, Note_on_c, 9, 51, 0
2, 4703, Control_c, 9, 4, 85
2, 4712, Control_c, 9, 18, 0
2, 4713, Note_on_c, 9, 48, 49
2, 4717, Note_on_c, 9, 36, 58
2, 4794, Note_on_c, 9, 48, 0
2, 4798, Note_on_c, 9, 36, 0
2, 4828, Control_c, 9, 4, 112
2, 4832, Control_c, 9, 17, 127
2, 4833, Note_on_c, 9, 51, 50
2, 4836, Note_on_c, 9, 48, 63
2, 4894, Control_c, 9, 4, 100
2, 4915, Note_on_c, 9, 51, 0
2, 4917, Note_on_c, 9, 48, 0
2, 4929, Control_c, 9, 4, 84
2, 4948, Control_c, 9, 17, 116
2, 4948, Note_on_c, 9, 51, 73
2, 4961, Control_c, 9, 4, 70
2, 4996, Control_c, 9, 4, 0
2, 5030, Note_on_c, 9, 51, 0
2, 5062, Note_on_c, 9, 36, 60
2, 5063, Note_on_c, 9, 46, 11
2, 5069, Control_c, 9, 4, 33
2, 5075, Note_on_c, 9, 44, 127
2, 5100, Control_c, 9, 4, 120
2, 5117, Note_on_c, 9, 49, 6
2, 5144, Note_on_c, 9, 36, 0
2, 5145, Note_on_c, 9, 46, 0
2, 5157, Note_on_c, 9, 44, 0
2, 5166, Control_c, 9, 4, 91
2, 5168, Control_c, 9, 17, 113
2, 5169, Note_on_c, 9, 51, 80
2, 5197, Control_c, 9, 4, 85
2, 5200, Note_on_c, 9, 49, 0
2, 5250, Note_on_c, 9, 51, 0
2, 5285, Control_c, 9, 17, 113
2, 5286, Note_on_c, 9, 51, 6
2, 5303, Control_c, 9, 16, 21
2, 5304, Note_on_c, 9, 38, 69
2, 5310, Note_on_c, 9, 36, 62
2, 5314, Control_c, 9, 4, 110
2, 5368, Note_on_c, 9, 51, 0
2, 5378, Control_c, 9, 4, 95
2, 5386, Note_on_c, 9, 38, 0
2, 5392, Note_on_c, 9, 36, 0
2, 5414, Control_c, 9, 4, 83
2, 5445, Control_c, 9, 4, 69
2, 5476, Control_c, 9, 4, 0
2, 5538, Control_c, 9, 17, 112
2, 5538, Note_on_c, 9, 51, 86
2, 5542, Control_c, 9, 4, 33
2, 5548, Note_on_c, 9, 44, 127
2, 5573, Control_c, 9, 4, 120
2, 5621, Note_on_c, 9, 51, 0
2, 5622, Control_c, 9, 4, 95
2, 5630, Note_on_c, 9, 44, 0
2, 5653, Control_c, 9, 17, 112
2, 5653, Note_on_c, 9, 51, 7
2, 5654, Control_c, 9, 18, 0
2, 5655, Note_on_c, 9, 48, 47
2, 5664, Control_c, 9, 4, 84
2, 5669, Note_on_c, 9, 36, 62
2, 5735, Note_on_c, 9, 48, 0
2, 5735, Note_on_c, 9, 51, 0
2, 5751, Note_on_c, 9, 36, 0
2, 5781, Control_c, 9, 4, 116
2, 5781, Note_on_c, 9, 48, 62
2, 5786, Control_c, 9, 17, 127
2, 5786, Note_on_c, 9, 51, 59
2, 5840, Control_c, 9, 4, 100
2, 5862, Note_on_c, 9, 48, 0
2, 5867, Note_on_c, 9, 51, 0
2, 5875, Control_c, 9, 4, 85
2, 5909, Control_c, 9, 4, 70
2, 5911, Control_c, 9, 17, 123
2, 5911, Note_on_c, 9, 51, 71
2, 5942, Control_c, 9, 4, 0
2, 5993, Note_on_c, 9, 51, 0
2, 6008, Control_c, 9, 4, 32
2, 6013, Note_on_c, 9, 36, 48
2, 6015, Note_on_c, 9, 44, 126
2, 6040, Control_c, 9, 4, 116
2, 6080, Control_c, 9, 4, 102
2, 6096, Note_on_c, 9, 36, 0
2, 6096, Note_on_c, 9, 44, 0
2, 6113, Control_c, 9, 4, 89
2, 6242, Control_c, 9, 4, 96
2, 6257, Control_c, 9, 17, 72
2, 6257, Note_on_c, 9, 51, 92
2, 6262, Note_on_c, 9, 36, 62
2, 6264, Control_c, 9, 16, 21
2, 6265, Note_on_c, 9, 38, 65
2, 6339, Note_on_c, 9, 51, 0
2, 6344, Note_on_c, 9, 36, 0
2, 6346, Note_on_c, 9, 38, 0
2, 6354, Control_c, 9, 4, 90
2, 6404, Control_c, 9, 4, 69
2, 6437, Control_c, 9, 4, 0
2, 6495, Control_c, 9, 4, 32
2, 6501, Note_on_c, 9, 44, 126
2, 6512, Control_c, 9, 17, 95
2, 6512, Note_on_c, 9, 51, 76
2, 6527, Control_c, 9, 4, 120
2, 6575, Control_c, 9, 4, 95
2, 6582, Note_on_c, 9, 44, 0
2, 6593, Note_on_c, 9, 51, 0
2, 6616, Control_c, 9, 4, 84
2, 6623, Control_c, 9, 18, 0
2, 6624, Note_on_c, 9, 48, 51
2, 6627, Note_on_c, 9, 36, 42
2, 6705, Note_on_c, 9, 48, 0
2, 6710, Note_on_c, 9, 36, 0
2, 6735, Control_c, 9, 17, 127
2, 6736, Note_on_c, 9, 51, 54
2, 6737, Control_c, 9, 4, 116
2, 6743, Note_on_c, 9, 48, 65
2, 6809, Control_c, 9, 4, 91
2, 6818, Note_on_c, 9, 51, 0
2, 6824, Note_on_c, 9, 48, 0
2, 6842, Control_c, 9, 4, 72
2, 6864, Control_c, 9, 17, 104
2, 6864, Note_on_c, 9, 51, 70
2, 6878, Control_c, 9, 4, 0
2, 6946, Note_on_c, 9, 51, 0
2, 6953, Note_on_c, 9, 46, 10
2, 6961, Control_c, 9, 4, 35
2, 6966, Note_on_c, 9, 44, 127
2, 6967, Note_on_c, 9, 36, 59
2, 6992, Control_c, 9, 4, 127
2, 7034, Note_on_c, 9, 46, 0
2, 7037, Control_c, 9, 4, 98
2, 7048, Note_on_c, 9, 36, 0
2, 7048, Note_on_c, 9, 44, 0
2, 7075, Control_c, 9, 4, 70
2, 7112, Control_c, 9, 4, 0
2, 7190, Note_on_c, 9, 46, 16
2, 7198, Control_c, 9, 4, 32
2, 7204, Note_on_c, 9, 44, 127
2, 7205, Control_c, 9, 16, 0
2, 7205, Note_on_c, 9, 38, 67
2, 7208, Control_c, 9, 17, 127
2, 7209, Note_on_c, 9, 51, 72
2, 7215, Note_on_c, 9, 36, 83
2, 7229, Control_c, 9, 4, 114
2, 7272, Note_on_c, 9, 46, 0
2, 7280, Control_c, 9, 4, 91
2, 7285, Note_on_c, 9, 44, 0
2, 7286, Note_on_c, 9, 38, 0
2, 7289, Note_on_c, 9, 51, 0
2, 7297, Note_on_c, 9, 36, 0
2, 7322, Control_c, 9, 4, 78
2, 7386, Control_c, 9, 4, 82
2, 7440, Control_c, 9, 4, 120
2, 7454, Control_c, 9, 17, 91
2, 7454, Note_on_c, 9, 51, 72
2, 7515, Control_c, 9, 4, 90
2, 7536, Note_on_c, 9, 51, 0
2, 7546, Control_c, 9, 4, 74
2, 7571, Control_c, 9, 18, 0
2, 7571, Note_on_c, 9, 48, 46
2, 7576, Note_on_c, 9, 36, 57
2, 7587, Control_c, 9, 4, 0
2, 7653, Note_on_c, 9, 48, 0
2, 7657, Note_on_c, 9, 36, 0
2, 7668, Control_c, 9, 4, 33
2, 7669, End_track
0, 0, End_of_file
