0, 0, Header, 1, 2, 480
1, 0, Start_track
1, 0, Tempo, 588235
1, 0, Time_signature, 4, 2, 24, 8
1, 0, Key_signature, 0, "major"
1, 1, End_track
2, 0, Start_track
2, 0, Title_t, "Classic Studio Kit"
2, 0, Program_c, 9, 0
2, 0, Control_c, 9, 18, 0
2, 10, Control_c, 9, 4, 112
2, 30, Control_c, 9, 17, 15
2, 31, Note_on_c, 9, 48, 78
2, 31, Note_on_c, 9, 51, 79
2, 49, Control_c, 9, 4, 116
2, 80, Control_c, 9, 4, 110
2, 113, Note_on_c, 9, 48, 0
2, 113, Note_on_c, 9, 51, 0
2, 118, Control_c, 9, 4, 91
2, 147, Control_c, 9, 17, 8
2, 147, Note_on_c, 9, 51, 74
2, 151, Control_c, 9, 4, 72
2, 188, Control_c, 9, 4, 0
2, 228, Note_on_c, 9, 51, 0
2, 254, Control_c, 9, 4, 32
2, 258, Note_on_c, 9, 36, 75
2, 260, Note_on_c, 9, 44, 127
2, 286, Control_c, 9, 4, 127
2, 317, Control_c, 9, 4, 99
2, 339, Note_on_c, 9, 36, 0
2, 342, Note_on_c, 9, 44, 0
2, 361, Control_c, 9, 4, 87
2, 468, Control_c, 9, 4, 96
2, 497, Control_c, 9, 16, 106
2, 498, Control_c, 9, 17, 0
2, 498, Note_on_c, 9, 36, 79
2, 498, Note_on_c, 9, 38, 82
2, 499, Note_on_c, 9, 51, 119
2, 508, Control_c, 9, 4, 104
2, 579, Note_on_c, 9, 36, 0
2, 579, Note_on_c, 9, 38, 0
2, 580, Note_on_c, 9, 51, 0
2, 582, Control_c, 9, 4, 91
2, 616, Control_c, 9, 4, 71
2, 657, Control_c, 9, 4, 0
2, 722, Control_c, 9, 4, 35
2, 728, Note_on_c, 9, 44, 127
2, 737, Control_c, 9, 17, 0
2, 738, Note_on_c, 9, 51, 99
2, 753, Control_c, 9, 4, 127
2, 801, Control_c, 9, 4, 97
2, 809, Note_on_c, 9, 44, 0
2, 820, Note_on_c, 9, 51, 0
2, 840, Control_c, 9, 4, 88
2, 858, Note_on_c, 9, 36, 75
2, 861, Control_c, 9, 18, 0
2, 862, Note_on_c, 9, 48, 49
2, 940, Note_on_c, 9, 36, 0
2, 942, Note_on_c, 9, 48, 0
2, 959, Control_c, 9, 4, 118
2, 966, Control_c, 9, 17, 22
2, 966, Note_on_c, 9, 51, 70
2, 981, Note_on_c, 9, 48, 74
2, 1028, Control_c, 9, 4, 110
2, 1048, Note_on_c, 9, 51, 0
2, 1060, Control_c, 9, 4, 92
2, 1061, Note_on_c, 9, 48, 0
2, 1089, Control_c, 9, 17, 0
2, 1090, Note_on_c, 9, 51, 86
2, 1099, Control_c, 9, 4, 72
2, 1141, Control_c, 9, 4, 0
2, 1172, Note_on_c, 9, 51, 0
2, 1203, Note_on_c, 9, 36, 80
2, 1208, Note_on_c, 9, 44, 127
2, 1213, Control_c, 9, 4, 127
2, 1260, Control_c, 9, 4, 120
2, 1284, Note_on_c, 9, 36, 0
2, 1290, Note_on_c, 9, 44, 0
2, 1297, Control_c, 9, 4, 89
2, 1351, Control_c, 9, 17, 0
2, 1351, Note_on_c, 9, 51, 127
2, 1428, Control_c, 9, 4, 100
2, 1433, Note_on_c, 9, 51, 0
2, 1450, Control_c, 9, 16, 42
2, 1451, Note_on_c, 9, 38, 83
2, 1453, Note_on_c, 9, 36, 84
2, 1458, Control_c, 9, 4, 102
2, 1520, Control_c, 9, 4, 95
2, 1532, Note_on_c, 9, 38, 0
2, 1536, Note_on_c, 9, 36, 0
2, 1572, Control_c, 9, 4, 70
2, 1599, Control_c, 9, 17, 2
2, 1599, Note_on_c, 9, 51, 103
2, 1611, Control_c, 9, 4, 0
2, 1683, Note_on_c, 9, 51, 0
2, 1688, Note_on_c, 9, 44, 127
2, 1692, Control_c, 9, 4, 127
2, 1696, Control_c, 9, 18, 0
2, 1697, Note_on_c, 9, 48, 52
2, 1738, Control_c, 9, 4, 120
2, 1769, Note_on_c, 9, 44, 0
2, 1777, Note_on_c, 9, 48, 0
2, 1778, Control_c, 9, 4, 91
2, 1809, Note_on_c, 9, 36, 62
2, 1812, Control_c, 9, 4, 85
2, 1892, Note_on_c, 9, 36, 0
2, 1913, Control_c, 9, 17, 18
2, 1914, Note_on_c, 9, 51, 104
2, 1915, Control_c, 9, 4, 112
2, 1925, Control_c, 9, 16, 64
2, 1925, Note_on_c, 9, 38, 75
2, 1948, Control_c, 9, 4, 114
2, 1994, Note_on_c, 9, 51, 0
2, 1996, Control_c, 9, 4, 93
2, 2007, Note_on_c, 9, 38, 0
2, 2043, Control_c, 9, 4, 70
2, 2083, Control_c, 9, 4, 0
2, 2143, Note_on_c, 9, 46, 15
2, 2144, Note_on_c, 9, 44, 126
2, 2149, Control_c, 9, 4, 127
2, 2154, Note_on_c, 9, 36, 69
2, 2160, Control_c, 9, 17, 0
2, 2160, Note_on_c, 9, 51, 95
2, 2194, Control_c, 9, 4, 112
2, 2225, Control_c, 9, 4, 91
2, 2225, Note_on_c, 9, 46, 0
2, 2226, Note_on_c, 9, 44, 0
2, 2236, Note_on_c, 9, 36, 0
2, 2242, Note_on_c, 9, 51, 0
2, 2262, Control_c, 9, 4, 86
2, 2353, Control_c, 9, 4, 93
2, 2387, Control_c, 9, 4, 97
2, 2402, Control_c, 9, 16, 0
2, 2403, Note_on_c, 9, 36, 88
2, 2403, Note_on_c, 9, 38, 75
2, 2406, Control_c, 9, 17, 22
2, 2407, Note_on_c, 9, 51, 89
2, 2478, Control_c, 9, 4, 91
2, 2485, Note_on_c, 9, 36, 0
2, 2485, Note_on_c, 9, 38, 0
2, 2488, Note_on_c, 9, 51, 0
2, 2518, Control_c, 9, 4, 71
2, 2557, Control_c, 9, 4, 0
2, 2625, Note_on_c, 9, 44, 127
2, 2631, Control_c, 9, 4, 127
2, 2638, Control_c, 9, 17, 42
2, 2638, Note_on_c, 9, 51, 68
2, 2675, Control_c, 9, 4, 114
2, 2708, Note_on_c, 9, 44, 0
2, 2717, Control_c, 9, 4, 90
2, 2721, Note_on_c, 9, 51, 0
2, 2757, Control_c, 9, 18, 21
2, 2757, Note_on_c, 9, 48, 47
2, 2779, Note_on_c, 9, 36, 76
2, 2838, Note_on_c, 9, 48, 0
2, 2849, Control_c, 9, 4, 102
2, 2860, Note_on_c, 9, 36, 0
2, 2869, Control_c, 9, 17, 51
2, 2869, Note_on_c, 9, 51, 64
2, 2884, Control_c, 9, 18, 64
2, 2885, Note_on_c, 9, 48, 73
2, 2886, Control_c, 9, 4, 108
2, 2951, Note_on_c, 9, 51, 0
2, 2963, Control_c, 9, 4, 96
2, 2966, Note_on_c, 9, 48, 0
2, 2994, Control_c, 9, 17, 0
2, 2995, Note_on_c, 9, 51, 93
2, 3011, Control_c, 9, 4, 71
2, 3049, Control_c, 9, 4, 0
2, 3076, Note_on_c, 9, 51, 0
2, 3106, Control_c, 9, 4, 48
2, 3110, Note_on_c, 9, 44, 127
2, 3120, Note_on_c, 9, 36, 69
2, 3136, Control_c, 9, 4, 127
2, 3186, Control_c, 9, 4, 92
2, 3191, Note_on_c, 9, 44, 0
2, 3202, Note_on_c, 9, 36, 0
2, 3220, Control_c, 9, 4, 88
2, 3254, Note_on_c, 9, 51, 91
2, 3325, Control_c, 9, 4, 95
2, 3336, Note_on_c, 9, 51, 0
2, 3358, Control_c, 9, 4, 97
2, 3360, Note_on_c, 9, 36, 81
2, 3365, Note_on_c, 9, 38, 72
2, 3441, Note_on_c, 9, 36, 0
2, 3446, Note_on_c, 9, 38, 0
2, 3449, Control_c, 9, 4, 91
2, 3484, Control_c, 9, 4, 72
2, 3526, Control_c, 9, 4, 0
2, 3594, Control_c, 9, 17, 0
2, 3594, Note_on_c, 9, 51, 99
2, 3597, Note_on_c, 9, 44, 127
2, 3603, Control_c, 9, 4, 127
2, 3647, Control_c, 9, 4, 120
2, 3676, Note_on_c, 9, 51, 0
2, 3679, Note_on_c, 9, 44, 0
2, 3684, Control_c, 9, 4, 91
2, 3720, Control_c, 9, 4, 87
2, 3727, Note_on_c, 9, 36, 73
2, 3728, Control_c, 9, 18, 0
2, 3728, Note_on_c, 9, 48, 44
2, 3809, Note_on_c, 9, 36, 0
2, 3809, Note_on_c, 9, 48, 0
2, 3826, Control_c, 9, 4, 110
2, 3845, Control_c, 9, 17, 50
2, 3845, Note_on_c, 9, 51, 62
2, 3857, Control_c, 9, 18, 64
2, 3858, Note_on_c, 9, 48, 73
2, 3907, Control_c, 9, 4, 102
2, 3927, Note_on_c, 9, 51, 0
2, 3940, Note_on_c, 9, 48, 0
2, 3946, Control_c, 9, 4, 91
2, 3968, Control_c, 9, 17, 28
2, 3968, Note_on_c, 9, 51, 75
2, 3980, Control_c, 9, 4, 71
2, 4021, Control_c, 9, 4, 0
2, 4050, Note_on_c, 9, 51, 0
2, 4067, Control_c, 9, 4, 32
2, 4075, Note_on_c, 9, 44, 106
2, 4080, Note_on_c, 9, 36, 68
2, 4100, Control_c, 9, 4, 127
2, 4155, Control_c, 9, 4, 91
2, 4157, Note_on_c, 9, 44, 0
2, 4163, Note_on_c, 9, 36, 0
2, 4195, Control_c, 9, 4, 87
2, 4306, Control_c, 9, 4, 98
2, 4322, Control_c, 9, 17, 0
2, 4323, Control_c, 9, 16, 0
2, 4323, Note_on_c, 9, 51, 111
2, 4324, Note_on_c, 9, 38, 79
2, 4326, Note_on_c, 9, 36, 74
2, 4405, Note_on_c, 9, 38, 0
2, 4405, Note_on_c, 9, 51, 0
2, 4407, Control_c, 9, 4, 92
2, 4409, Note_on_c, 9, 36, 0
2, 4448, Control_c, 9, 4, 73
2, 4491, Control_c, 9, 4, 0
2, 4555, Note_on_c, 9, 44, 126
2, 4562, Control_c, 9, 4, 127
2, 4567, Control_c, 9, 17, 37
2, 4567, Note_on_c, 9, 51, 71
2, 4605, Control_c, 9, 4, 116
2, 4638, Note_on_c, 9, 44, 0
2, 4643, Control_c, 9, 4, 92
2, 4648, Note_on_c, 9, 51, 0
2, 4674, Control_c, 9, 4, 88
2, 4686, Control_c, 9, 18, 0
2, 4687, Note_on_c, 9, 48, 48
2, 4696, Note_on_c, 9, 36, 61
2, 4768, Note_on_c, 9, 48, 0
2, 4777, Note_on_c, 9, 36, 0
2, 4801, Control_c, 9, 17, 70
2, 4802, Note_on_c, 9, 51, 67
2, 4803, Control_c, 9, 4, 118
2, 4811, Note_on_c, 9, 48, 76
2, 4876, Control_c, 9, 4, 99
2, 4882, Note_on_c, 9, 51, 0
2, 4891, Note_on_c, 9, 48, 0
2, 4922, Control_c, 9, 4, 73
2, 4928, Control_c, 9, 17, 20
2, 4928, Note_on_c, 9, 51, 74
2, 4964, Control_c, 9, 4, 0
2, 5010, Note_on_c, 9, 51, 0
2, 5033, Note_on_c, 9, 46, 7
2, 5039, Control_c, 9, 4, 33
2, 5044, Note_on_c, 9, 36, 71
2, 5046, Note_on_c, 9, 44, 127
2, 5070, Control_c, 9, 4, 127
2, 5105, Control_c, 9, 4, 112
2, 5114, Note_on_c, 9, 46, 0
2, 5125, Note_on_c, 9, 36, 0
2, 5125, Note_on_c, 9, 44, 0
2, 5136, Control_c, 9, 4, 71
2, 5169, Control_c, 9, 4, 0
2, 5174, Control_c, 9, 17, 17
2, 5174, Note_on_c, 9, 51, 85
2, 5256, Note_on_c, 9, 46, 11
2, 5257, Note_on_c, 9, 51, 0
2, 5270, Control_c, 9, 4, 49
2, 5275, Note_on_c, 9, 44, 106
2, 5280, Note_on_c, 9, 36, 76
2, 5291, Control_c, 9, 17, 17
2, 5291, Note_on_c, 9, 51, 6
2, 5293, Note_on_c, 9, 38, 68
2, 5300, Control_c, 9, 4, 110
2, 5337, Note_on_c, 9, 46, 0
2, 5354, Control_c, 9, 4, 90
2, 5355, Note_on_c, 9, 44, 0
2, 5362, Note_on_c, 9, 36, 0
2, 5373, Note_on_c, 9, 51, 0
2, 5374, Note_on_c, 9, 38, 0
2, 5401, Control_c, 9, 4, 79
2, 5461, Control_c, 9, 4, 80
2, 5512, Control_c, 9, 17, 2
2, 5512, Note_on_c, 9, 51, 103
2, 5517, Control_c, 9, 4, 122
2, 5593, Control_c, 9, 4, 92
2, 5595, Note_on_c, 9, 51, 0
2, 5629, Control_c, 9, 4, 73
2, 5634, Control_c, 9, 18, 0
2, 5634, Note_on_c, 9, 36, 65
2, 5635, Note_on_c, 9, 48, 49
2, 5671, Control_c, 9, 4, 0
2, 5716, Note_on_c, 9, 36, 0
2, 5716, Note_on_c, 9, 48, 0
2, 5745, Note_on_c, 9, 46, 14
2, 5757, Note_on_c, 9, 44, 127
2, 5760, Control_c, 9, 17, 72
2, 5761, Control_c, 9, 4, 127
2, 5761, Note_on_c, 9, 51, 62
2, 5765, Note_on_c, 9, 48, 76
2, 5806, Control_c, 9, 4, 120
2, 5825, Note_on_c, 9, 46, 0
2, 5839, Note_on_c, 9, 44, 0
2, 5842, Note_on_c, 9, 51, 0
2, 5846, Note_on_c, 9, 48, 0
2, 5847, Control_c, 9, 4, 92
2, 5883, Control_c, 9, 17, 17
2, 5883, Note_on_c, 9, 51, 68
2, 5965, Note_on_c, 9, 51, 0
2, 5977, Control_c, 9, 4, 110
2, 5997, Note_on_c, 9, 36, 68
2, 6007, Control_c, 9, 4, 102
2, 6053, Control_c, 9, 4, 92
2, 6078, Note_on_c, 9, 36, 0
2, 6242, Note_on_c, 9, 36, 75
2, 6245, Control_c, 9, 17, 0
2, 6246, Note_on_c, 9, 51, 104
2, 6250, Control_c, 9, 16, 0
2, 6251, Note_on_c, 9, 38, 75
2, 6277, Control_c, 9, 4, 102
2, 6322, Control_c, 9, 4, 96
2, 6324, Note_on_c, 9, 36, 0
2, 6327, Note_on_c, 9, 51, 0
2, 6331, Note_on_c, 9, 38, 0
2, 6367, Control_c, 9, 4, 72
2, 6406, Control_c, 9, 4, 0
2, 6470, Note_on_c, 9, 46, 11
2, 6483, Note_on_c, 9, 44, 127
2, 6488, Control_c, 9, 4, 127
2, 6497, Control_c, 9, 17, 51
2, 6497, Note_on_c, 9, 51, 84
2, 6533, Control_c, 9, 4, 116
2, 6552, Note_on_c, 9, 46, 0
2, 6563, Control_c, 9, 4, 97
2, 6565, Note_on_c, 9, 44, 0
2, 6579, Note_on_c, 9, 51, 0
2, 6608, Control_c, 9, 4, 88
2, 6618, Control_c, 9, 18, 0
2, 6619, Note_on_c, 9, 48, 45
2, 6630, Note_on_c, 9, 36, 74
2, 6700, Note_on_c, 9, 48, 0
2, 6712, Note_on_c, 9, 36, 0
2, 6721, Control_c, 9, 4, 118
2, 6726, Control_c, 9, 17, 54
2, 6727, Note_on_c, 9, 51, 66
2, 6743, Note_on_c, 9, 48, 68
2, 6808, Note_on_c, 9, 51, 0
2, 6821, Control_c, 9, 4, 91
2, 6824, Note_on_c, 9, 48, 0
2, 6850, Control_c, 9, 17, 33
2, 6852, Note_on_c, 9, 51, 68
2, 6854, Control_c, 9, 4, 70
2, 6891, Control_c, 9, 4, 0
2, 6934, Note_on_c, 9, 51, 0
2, 6961, Note_on_c, 9, 46, 11
2, 6967, Control_c, 9, 4, 32
2, 6972, Note_on_c, 9, 44, 127
2, 6974, Note_on_c, 9, 36, 69
2, 6997, Control_c, 9, 4, 127
2, 7043, Note_on_c, 9, 46, 0
2, 7044, Control_c, 9, 4, 98
2, 7054, Note_on_c, 9, 44, 0
2, 7057, Note_on_c, 9, 36, 0
2, 7079, Control_c, 9, 4, 69
2, 7102, Control_c, 9, 17, 1
2, 7103, Note_on_c, 9, 51, 80
2, 7109, Control_c, 9, 4, 0
2, 7185, Note_on_c, 9, 51, 0
2, 7202, Control_c, 9, 4, 49
2, 7206, Note_on_c, 9, 44, 119
2, 7213, Note_on_c, 9, 36, 78
2, 7219, Note_on_c, 9, 38, 66
2, 7232, Control_c, 9, 4, 112
2, 7267, Control_c, 9, 4, 98
2, 7289, Note_on_c, 9, 44, 0
2, 7294, Note_on_c, 9, 36, 0
2, 7301, Note_on_c, 9, 38, 0
2, 7311, Control_c, 9, 4, 83
2, 7399, Control_c, 9, 4, 87
2, 7449, Control_c, 9, 4, 120
2, 7459, Control_c, 9, 17, 6
2, 7459, Note_on_c, 9, 51, 98
2, 7537, Control_c, 9, 4, 90
2, 7542, Note_on_c, 9, 51, 0
2, 7567, Control_c, 9, 4, 70
2, 7581, Control_c, 9, 18, 0
2, 7582, Note_on_c, 9, 48, 45
2, 7606, Control_c, 9, 4, 0
2, 7665, Note_on_c, 9, 48, 0
2, 7666, End_track
0, 0, End_of_file
