0, 0, Header, 1, 2, 480
1, 0, Start_track
1, 0, Tempo, 705882
1, 0, Time_signature, 4, 2, 24, 8
1, 0, Time_signature, 4, 2, 24, 8
1, 0, Key_signature, 0, "major"
1, 1, End_track
2, 0, Start_track
2, 0, Title_t, "SoCal"
2, 0, Program_c, 9, 0
2, 0, Control_c, 9, 17, 71
2, 24, Control_c, 9, 4, 94
2, 82, Control_c, 9, 4, 89
2, 113, Control_c, 9, 16, 0
2, 113, Note_on_c, 9, 38, 25
2, 141, Control_c, 9, 4, 68
2, 177, Control_c, 9, 4, 37
2, 181, Note_on_c, 9, 38, 0
2, 215, Note_on_c, 9, 44, 28
2, 222, Control_c, 9, 4, 94
2, 240, Control_c, 9, 16, 0
2, 240, Note_on_c, 9, 38, 55
2, 262, Control_c, 9, 4, 93
2, 282, Note_on_c, 9, 44, 0
2, 307, Note_on_c, 9, 38, 0
2, 342, Control_c, 9, 4, 88
2, 362, Control_c, 9, 16, 21
2, 362, Note_on_c, 9, 38, 23
2, 380, Control_c, 9, 4, 73
2, 417, Control_c, 9, 4, 27
2, 431, Note_on_c, 9, 38, 0
2, 455, Control_c, 9, 4, 49
2, 465, Note_on_c, 9, 44, 41
2, 478, Control_c, 9, 16, 0
2, 479, Note_on_c, 9, 38, 35
2, 480, Note_on_c, 9, 36, 49
2, 486, Control_c, 9, 4, 95
2, 533, Note_on_c, 9, 44, 0
2, 546, Note_on_c, 9, 38, 0
2, 549, Note_on_c, 9, 36, 0
2, 594, Note_on_c, 9, 36, 42
2, 599, Control_c, 9, 16, 0
2, 599, Note_on_c, 9, 38, 26
2, 603, Control_c, 9, 4, 85
2, 623, Note_on_c, 9, 46, 10
2, 638, Control_c, 9, 4, 51
2, 663, Note_on_c, 9, 36, 0
2, 667, Note_on_c, 9, 38, 0
2, 673, Control_c, 9, 4, 3
2, 691, Note_on_c, 9, 46, 0
2, 706, Control_c, 9, 4, 44
2, 715, Note_on_c, 9, 44, 54
2, 721, Control_c, 9, 16, 0
2, 721, Note_on_c, 9, 38, 46
2, 736, Control_c, 9, 4, 94
2, 782, Note_on_c, 9, 44, 0
2, 789, Note_on_c, 9, 38, 0
2, 841, Control_c, 9, 16, 0
2, 841, Note_on_c, 9, 38, 47
2, 842, Control_c, 9, 4, 89
2, 886, Control_c, 9, 4, 72
2, 909, Note_on_c, 9, 38, 0
2, 916, Control_c, 9, 4, 44
2, 958, Note_on_c, 9, 44, 28
2, 964, Control_c, 9, 16, 0
2, 964, Note_on_c, 9, 36, 63
2, 965, Control_c, 9, 4, 95
2, 965, Note_on_c, 9, 38, 34
2, 1001, Control_c, 9, 4, 93
2, 1026, Note_on_c, 9, 44, 0
2, 1032, Note_on_c, 9, 36, 0
2, 1032, Note_on_c, 9, 38, 0
2, 1071, Control_c, 9, 4, 88
2, 1082, Control_c, 9, 16, 0
2, 1082, Note_on_c, 9, 38, 27
2, 1120, Control_c, 9, 4, 73
2, 1151, Note_on_c, 9, 38, 0
2, 1156, Control_c, 9, 4, 28
2, 1189, Control_c, 9, 4, 44
2, 1201, Note_on_c, 9, 44, 41
2, 1210, Control_c, 9, 16, 21
2, 1211, Note_on_c, 9, 38, 53
2, 1222, Control_c, 9, 4, 95
2, 1269, Note_on_c, 9, 44, 0
2, 1278, Note_on_c, 9, 38, 0
2, 1311, Control_c, 9, 4, 89
2, 1335, Control_c, 9, 16, 0
2, 1336, Note_on_c, 9, 38, 19
2, 1367, Control_c, 9, 4, 76
2, 1399, Control_c, 9, 4, 42
2, 1403, Note_on_c, 9, 38, 0
2, 1433, Control_c, 9, 4, 48
2, 1444, Note_on_c, 9, 44, 35
2, 1451, Control_c, 9, 16, 21
2, 1451, Note_on_c, 9, 38, 35
2, 1463, Note_on_c, 9, 36, 56
2, 1466, Control_c, 9, 4, 95
2, 1512, Note_on_c, 9, 44, 0
2, 1520, Note_on_c, 9, 38, 0
2, 1531, Note_on_c, 9, 36, 0
2, 1553, Control_c, 9, 4, 89
2, 1575, Note_on_c, 9, 36, 42
2, 1580, Control_c, 9, 16, 0
2, 1580, Note_on_c, 9, 38, 30
2, 1615, Control_c, 9, 4, 68
2, 1643, Note_on_c, 9, 36, 0
2, 1646, Control_c, 9, 4, 27
2, 1648, Note_on_c, 9, 38, 0
2, 1683, Control_c, 9, 4, 46
2, 1693, Control_c, 9, 16, 0
2, 1693, Note_on_c, 9, 38, 45
2, 1693, Note_on_c, 9, 44, 41
2, 1714, Control_c, 9, 4, 94
2, 1762, Note_on_c, 9, 38, 0
2, 1762, Note_on_c, 9, 44, 0
2, 1809, Control_c, 9, 4, 89
2, 1818, Control_c, 9, 16, 0
2, 1818, Note_on_c, 9, 38, 46
2, 1858, Control_c, 9, 4, 76
2, 1886, Note_on_c, 9, 38, 0
2, 1895, Control_c, 9, 4, 52
2, 1926, Note_on_c, 9, 44, 22
2, 1933, Control_c, 9, 16, 21
2, 1933, Note_on_c, 9, 38, 32
2, 1937, Note_on_c, 9, 36, 63
2, 1947, Control_c, 9, 4, 97
2, 1985, Control_c, 9, 4, 93
2, 1994, Note_on_c, 9, 44, 0
2, 2001, Note_on_c, 9, 38, 0
2, 2005, Note_on_c, 9, 36, 0
2, 2045, Control_c, 9, 4, 88
2, 2058, Control_c, 9, 16, 0
2, 2058, Note_on_c, 9, 38, 26
2, 2094, Control_c, 9, 4, 73
2, 2126, Note_on_c, 9, 38, 0
2, 2131, Control_c, 9, 4, 30
2, 2162, Control_c, 9, 4, 54
2, 2171, Note_on_c, 9, 44, 35
2, 2174, Control_c, 9, 16, 64
2, 2175, Note_on_c, 9, 38, 54
2, 2192, Control_c, 9, 4, 95
2, 2237, Note_on_c, 9, 44, 0
2, 2242, Note_on_c, 9, 38, 0
2, 2299, Control_c, 9, 16, 21
2, 2299, Note_on_c, 9, 38, 21
2, 2314, Control_c, 9, 4, 83
2, 2359, Control_c, 9, 4, 57
2, 2367, Note_on_c, 9, 38, 0
2, 2391, Control_c, 9, 4, 63
2, 2403, Note_on_c, 9, 44, 22
2, 2411, Control_c, 9, 16, 0
2, 2412, Note_on_c, 9, 38, 33
2, 2419, Note_on_c, 9, 36, 54
2, 2424, Control_c, 9, 4, 95
2, 2471, Note_on_c, 9, 44, 0
2, 2479, Note_on_c, 9, 38, 0
2, 2487, Note_on_c, 9, 36, 0
2, 2514, Control_c, 9, 4, 89
2, 2527, Note_on_c, 9, 36, 42
2, 2531, Control_c, 9, 16, 0
2, 2531, Note_on_c, 9, 38, 24
2, 2569, Control_c, 9, 4, 67
2, 2595, Note_on_c, 9, 36, 0
2, 2599, Note_on_c, 9, 38, 0
2, 2601, Control_c, 9, 4, 8
2, 2639, Control_c, 9, 4, 35
2, 2650, Note_on_c, 9, 44, 54
2, 2654, Control_c, 9, 16, 0
2, 2654, Note_on_c, 9, 38, 49
2, 2671, Control_c, 9, 4, 95
2, 2718, Note_on_c, 9, 44, 0
2, 2721, Note_on_c, 9, 38, 0
2, 2764, Control_c, 9, 4, 89
2, 2773, Control_c, 9, 16, 0
2, 2773, Note_on_c, 9, 38, 45
2, 2796, Control_c, 9, 4, 83
2, 2828, Control_c, 9, 4, 68
2, 2841, Note_on_c, 9, 38, 0
2, 2875, Control_c, 9, 4, 67
2, 2883, Note_on_c, 9, 44, 22
2, 2894, Note_on_c, 9, 36, 69
2, 2897, Control_c, 9, 16, 0
2, 2897, Note_on_c, 9, 38, 33
2, 2905, Control_c, 9, 4, 95
2, 2951, Note_on_c, 9, 44, 0
2, 2962, Note_on_c, 9, 36, 0
2, 2966, Note_on_c, 9, 38, 0
2, 2998, Control_c, 9, 4, 89
2, 3014, Control_c, 9, 16, 0
2, 3014, Note_on_c, 9, 38, 26
2, 3047, Control_c, 9, 4, 73
2, 3082, Note_on_c, 9, 38, 0
2, 3083, Control_c, 9, 4, 22
2, 3122, Control_c, 9, 4, 48
2, 3132, Note_on_c, 9, 44, 41
2, 3137, Control_c, 9, 16, 0
2, 3137, Note_on_c, 9, 38, 54
2, 3153, Control_c, 9, 4, 95
2, 3200, Note_on_c, 9, 44, 0
2, 3204, Note_on_c, 9, 38, 0
2, 3243, Control_c, 9, 4, 89
2, 3257, Control_c, 9, 16, 21
2, 3257, Note_on_c, 9, 38, 27
2, 3283, Control_c, 9, 4, 73
2, 3319, Control_c, 9, 4, 26
2, 3325, Note_on_c, 9, 38, 0
2, 3366, Note_on_c, 9, 44, 41
2, 3371, Control_c, 9, 4, 95
2, 3378, Control_c, 9, 16, 0
2, 3378, Note_on_c, 9, 38, 37
2, 3385, Note_on_c, 9, 36, 51
2, 3410, Control_c, 9, 4, 94
2, 3434, Note_on_c, 9, 44, 0
2, 3446, Note_on_c, 9, 38, 0
2, 3453, Note_on_c, 9, 36, 0
2, 3493, Control_c, 9, 4, 82
2, 3493, Note_on_c, 9, 36, 42
2, 3496, Control_c, 9, 16, 0
2, 3496, Note_on_c, 9, 38, 28
2, 3532, Control_c, 9, 4, 0
2, 3560, Note_on_c, 9, 36, 0
2, 3564, Note_on_c, 9, 38, 0
2, 3588, Control_c, 9, 4, 17
2, 3598, Note_on_c, 9, 44, 87
2, 3616, Control_c, 9, 16, 0
2, 3616, Note_on_c, 9, 38, 49
2, 3620, Control_c, 9, 4, 74
2, 3660, Control_c, 9, 4, 0
2, 3666, Note_on_c, 9, 44, 0
2, 3683, Note_on_c, 9, 38, 0
2, 3741, Control_c, 9, 16, 0
2, 3741, Note_on_c, 9, 38, 41
2, 3810, Note_on_c, 9, 38, 0
2, 3828, Control_c, 9, 4, 33
2, 3841, Note_on_c, 9, 44, 48
2, 3854, Note_on_c, 9, 36, 57
2, 3859, Control_c, 9, 16, 0
2, 3860, Note_on_c, 9, 38, 35
2, 3862, Control_c, 9, 4, 89
2, 3895, Control_c, 9, 4, 94
2, 3909, Note_on_c, 9, 44, 0
2, 3922, Note_on_c, 9, 36, 0
2, 3927, Note_on_c, 9, 38, 0
2, 3943, Control_c, 9, 4, 89
2, 3972, Control_c, 9, 16, 0
2, 3972, Note_on_c, 9, 38, 27
2, 3993, Control_c, 9, 4, 67
2, 4032, Control_c, 9, 4, 17
2, 4041, Note_on_c, 9, 38, 0
2, 4065, Control_c, 9, 4, 45
2, 4076, Note_on_c, 9, 44, 41
2, 4095, Control_c, 9, 16, 64
2, 4096, Note_on_c, 9, 38, 53
2, 4097, Control_c, 9, 4, 98
2, 4144, Note_on_c, 9, 44, 0
2, 4163, Note_on_c, 9, 38, 0
2, 4190, Control_c, 9, 4, 87
2, 4210, Note_on_c, 9, 46, 7
2, 4213, Control_c, 9, 16, 0
2, 4213, Note_on_c, 9, 38, 26
2, 4223, Control_c, 9, 4, 72
2, 4259, Control_c, 9, 4, 45
2, 4279, Note_on_c, 9, 46, 0
2, 4281, Note_on_c, 9, 38, 0
2, 4299, Control_c, 9, 4, 48
2, 4312, Note_on_c, 9, 44, 35
2, 4326, Control_c, 9, 16, 0
2, 4327, Note_on_c, 9, 38, 41
2, 4333, Control_c, 9, 4, 95
2, 4337, Note_on_c, 9, 36, 42
2, 4379, Note_on_c, 9, 44, 0
2, 4394, Note_on_c, 9, 38, 0
2, 4405, Note_on_c, 9, 36, 0
2, 4448, Control_c, 9, 16, 0
2, 4448, Note_on_c, 9, 38, 25
2, 4450, Control_c, 9, 4, 81
2, 4487, Control_c, 9, 4, 0
2, 4516, Note_on_c, 9, 38, 0
2, 4550, Note_on_c, 9, 44, 80
2, 4558, Control_c, 9, 4, 90
2, 4566, Control_c, 9, 16, 0
2, 4566, Note_on_c, 9, 38, 51
2, 4592, Control_c, 9, 4, 0
2, 4619, Note_on_c, 9, 44, 0
2, 4634, Note_on_c, 9, 38, 0
2, 4694, Control_c, 9, 16, 0
2, 4694, Note_on_c, 9, 38, 40
2, 4762, Note_on_c, 9, 38, 0
2, 4789, Control_c, 9, 4, 48
2, 4798, Note_on_c, 9, 44, 48
2, 4811, Control_c, 9, 16, 0
2, 4811, Note_on_c, 9, 38, 39
2, 4815, Note_on_c, 9, 36, 51
2, 4819, Control_c, 9, 4, 89
2, 4856, Control_c, 9, 4, 95
2, 4866, Note_on_c, 9, 44, 0
2, 4879, Note_on_c, 9, 38, 0
2, 4883, Note_on_c, 9, 36, 0
2, 4932, Control_c, 9, 4, 81
2, 4932, Control_c, 9, 16, 0
2, 4932, Note_on_c, 9, 38, 31
2, 4968, Control_c, 9, 4, 43
2, 4999, Control_c, 9, 4, 11
2, 5000, Note_on_c, 9, 38, 0
2, 5038, Note_on_c, 9, 44, 41
2, 5043, Control_c, 9, 4, 93
2, 5053, Control_c, 9, 16, 0
2, 5053, Note_on_c, 9, 38, 57
2, 5085, Control_c, 9, 4, 99
2, 5106, Note_on_c, 9, 44, 0
2, 5121, Note_on_c, 9, 38, 0
2, 5134, Control_c, 9, 4, 94
2, 5170, Control_c, 9, 4, 81
2, 5171, Note_on_c, 9, 46, 9
2, 5177, Control_c, 9, 16, 0
2, 5177, Note_on_c, 9, 38, 29
2, 5204, Control_c, 9, 4, 0
2, 5239, Note_on_c, 9, 46, 0
2, 5245, Note_on_c, 9, 38, 0
2, 5264, Control_c, 9, 4, 32
2, 5274, Note_on_c, 9, 44, 67
2, 5284, Control_c, 9, 16, 0
2, 5285, Note_on_c, 9, 38, 40
2, 5293, Note_on_c, 9, 36, 37
2, 5295, Control_c, 9, 4, 68
2, 5326, Control_c, 9, 4, 0
2, 5342, Note_on_c, 9, 44, 0
2, 5353, Note_on_c, 9, 38, 0
2, 5361, Note_on_c, 9, 36, 0
2, 5407, Note_on_c, 9, 36, 42
2, 5414, Control_c, 9, 16, 0
2, 5414, Note_on_c, 9, 38, 29
2, 5476, Note_on_c, 9, 36, 0
2, 5481, Note_on_c, 9, 38, 0
2, 5507, Control_c, 9, 4, 32
2, 5519, Note_on_c, 9, 44, 48
2, 5534, Control_c, 9, 16, 0
2, 5534, Note_on_c, 9, 38, 51
2, 5540, Control_c, 9, 4, 90
2, 5577, Control_c, 9, 4, 95
2, 5589, Note_on_c, 9, 44, 0
2, 5602, Note_on_c, 9, 38, 0
2, 5632, Control_c, 9, 4, 89
2, 5658, Control_c, 9, 16, 0
2, 5658, Note_on_c, 9, 38, 40
2, 5673, Control_c, 9, 4, 74
2, 5710, Control_c, 9, 4, 30
2, 5726, Note_on_c, 9, 38, 0
2, 5753, Note_on_c, 9, 44, 28
2, 5762, Control_c, 9, 4, 91
2, 5774, Control_c, 9, 16, 0
2, 5775, Note_on_c, 9, 38, 38
2, 5778, Note_on_c, 9, 36, 66
2, 5796, Control_c, 9, 4, 98
2, 5822, Note_on_c, 9, 44, 0
2, 5843, Note_on_c, 9, 38, 0
2, 5846, Note_on_c, 9, 36, 0
2, 5862, Control_c, 9, 4, 93
2, 5892, Control_c, 9, 16, 0
2, 5892, Note_on_c, 9, 38, 31
2, 5903, Control_c, 9, 4, 81
2, 5940, Control_c, 9, 4, 0
2, 5961, Note_on_c, 9, 38, 0
2, 5990, Control_c, 9, 4, 17
2, 6001, Note_on_c, 9, 44, 74
2, 6010, Control_c, 9, 16, 0
2, 6010, Note_on_c, 9, 38, 57
2, 6022, Control_c, 9, 4, 69
2, 6059, Control_c, 9, 4, 0
2, 6069, Note_on_c, 9, 44, 0
2, 6078, Note_on_c, 9, 38, 0
2, 6136, Control_c, 9, 16, 0
2, 6136, Note_on_c, 9, 38, 29
2, 6204, Note_on_c, 9, 38, 0
2, 6237, Control_c, 9, 4, 32
2, 6249, Note_on_c, 9, 44, 48
2, 6251, Control_c, 9, 16, 0
2, 6251, Note_on_c, 9, 38, 38
2, 6256, Note_on_c, 9, 36, 43
2, 6270, Control_c, 9, 4, 91
2, 6309, Control_c, 9, 4, 96
2, 6317, Note_on_c, 9, 44, 0
2, 6319, Note_on_c, 9, 38, 0
2, 6324, Note_on_c, 9, 36, 0
2, 6348, Control_c, 9, 4, 90
2, 6369, Note_on_c, 9, 36, 37
2, 6372, Control_c, 9, 16, 0
2, 6372, Note_on_c, 9, 38, 28
2, 6397, Control_c, 9, 4, 69
2, 6398, Note_on_c, 9, 46, 7
2, 6433, Control_c, 9, 4, 9
2, 6437, Note_on_c, 9, 36, 0
2, 6437, Note_on_c, 9, 38, 0
2, 6465, Note_on_c, 9, 46, 0
2, 6470, Control_c, 9, 4, 28
2, 6483, Note_on_c, 9, 44, 54
2, 6490, Control_c, 9, 16, 0
2, 6490, Note_on_c, 9, 38, 53
2, 6504, Control_c, 9, 4, 95
2, 6543, Control_c, 9, 4, 99
2, 6551, Note_on_c, 9, 44, 0
2, 6558, Note_on_c, 9, 38, 0
2, 6584, Control_c, 9, 4, 94
2, 6616, Control_c, 9, 16, 0
2, 6616, Note_on_c, 9, 38, 43
2, 6631, Control_c, 9, 4, 79
2, 6632, Note_on_c, 9, 46, 8
2, 6662, Control_c, 9, 4, 0
2, 6685, Note_on_c, 9, 38, 0
2, 6699, Note_on_c, 9, 46, 0
2, 6719, Note_on_c, 9, 44, 74
2, 6726, Control_c, 9, 4, 89
2, 6729, Control_c, 9, 16, 0
2, 6730, Note_on_c, 9, 38, 36
2, 6735, Note_on_c, 9, 36, 54
2, 6762, Control_c, 9, 4, 0
2, 6787, Note_on_c, 9, 44, 0
2, 6797, Note_on_c, 9, 38, 0
2, 6803, Note_on_c, 9, 36, 0
2, 6853, Control_c, 9, 16, 0
2, 6853, Note_on_c, 9, 38, 28
2, 6921, Note_on_c, 9, 38, 0
2, 6953, Control_c, 9, 4, 32
2, 6965, Note_on_c, 9, 44, 54
2, 6969, Control_c, 9, 16, 0
2, 6970, Note_on_c, 9, 38, 56
2, 6986, Control_c, 9, 4, 91
2, 7019, Control_c, 9, 4, 98
2, 7033, Note_on_c, 9, 44, 0
2, 7036, Note_on_c, 9, 38, 0
2, 7050, Control_c, 9, 4, 98
2, 7084, Control_c, 9, 4, 87
2, 7087, Control_c, 9, 16, 0
2, 7087, Note_on_c, 9, 38, 29
2, 7119, Control_c, 9, 4, 69
2, 7152, Control_c, 9, 4, 34
2, 7155, Note_on_c, 9, 38, 0
2, 7193, Note_on_c, 9, 44, 28
2, 7199, Control_c, 9, 16, 0
2, 7199, Note_on_c, 9, 38, 40
2, 7201, Control_c, 9, 4, 93
2, 7222, Note_on_c, 9, 36, 56
2, 7235, Control_c, 9, 4, 104
2, 7262, Note_on_c, 9, 44, 0
2, 7267, Note_on_c, 9, 38, 0
2, 7290, Note_on_c, 9, 36, 0
2, 7292, Control_c, 9, 4, 94
2, 7323, Control_c, 9, 16, 21
2, 7323, Note_on_c, 9, 38, 25
2, 7329, Control_c, 9, 4, 81
2, 7329, Note_on_c, 9, 46, 7
2, 7336, Note_on_c, 9, 36, 42
2, 7365, Control_c, 9, 4, 0
2, 7392, Note_on_c, 9, 38, 0
2, 7397, Note_on_c, 9, 46, 0
2, 7405, Note_on_c, 9, 36, 0
2, 7428, Control_c, 9, 4, 32
2, 7437, Note_on_c, 9, 44, 74
2, 7446, Control_c, 9, 16, 0
2, 7446, Note_on_c, 9, 38, 52
2, 7458, Control_c, 9, 4, 68
2, 7493, Control_c, 9, 4, 0
2, 7506, Note_on_c, 9, 44, 0
2, 7515, Note_on_c, 9, 38, 0
2, 7579, Control_c, 9, 16, 0
2, 7579, Note_on_c, 9, 38, 41
2, 7647, Note_on_c, 9, 38, 0
2, 7661, Control_c, 9, 4, 32
2, 7662, End_track
0, 0, End_of_file
