0, 0, Header, 1, 2, 480
1, 0, Start_track
1, 0, Tempo, 599999
1, 0, Time_signature, 4, 2, 24, 8
1, 0, Key_signature, 0, "major"
1, 1, End_track
2, 0, Start_track
2, 0, Title_t, "Midi Drums"
2, 0, Program_c, 9, 0
2, 236, Note_on_c, 9, 45, 53
2, 317, Note_on_c, 9, 45, 0
2, 350, Note_on_c, 9, 45, 59
2, 431, Note_on_c, 9, 45, 0
2, 470, Note_on_c, 9, 45, 126
2, 476, Note_on_c, 9, 38, 127
2, 479, Note_on_c, 9, 36, 127
2, 550, Note_on_c, 9, 45, 0
2, 557, Note_on_c, 9, 38, 0
2, 560, Note_on_c, 9, 36, 0
2, 721, Note_on_c, 9, 45, 70
2, 802, Note_on_c, 9, 45, 0
2, 824, Note_on_c, 9, 45, 62
2, 905, Note_on_c, 9, 45, 0
2, 950, Note_on_c, 9, 45, 77
2, 962, Note_on_c, 9, 36, 127
2, 1031, Note_on_c, 9, 45, 0
2, 1043, Note_on_c, 9, 36, 0
2, 1203, Note_on_c, 9, 45, 54
2, 1285, Note_on_c, 9, 45, 0
2, 1313, Note_on_c, 9, 45, 69
2, 1394, Note_on_c, 9, 45, 0
2, 1443, Note_on_c, 9, 36, 127
2, 1445, Note_on_c, 9, 38, 127
2, 1445, Note_on_c, 9, 45, 108
2, 1524, Note_on_c, 9, 36, 0
2, 1526, Note_on_c, 9, 38, 0
2, 1526, Note_on_c, 9, 45, 0
2, 1705, Note_on_c, 9, 45, 63
2, 1785, Note_on_c, 9, 45, 0
2, 1807, Note_on_c, 9, 45, 65
2, 1888, Note_on_c, 9, 45, 0
2, 1927, Note_on_c, 9, 45, 87
2, 1933, Note_on_c, 9, 36, 127
2, 2008, Note_on_c, 9, 45, 0
2, 2013, Note_on_c, 9, 36, 0
2, 2166, Note_on_c, 9, 45, 54
2, 2247, Note_on_c, 9, 45, 0
2, 2286, Note_on_c, 9, 45, 61
2, 2366, Note_on_c, 9, 45, 0
2, 2401, Note_on_c, 9, 45, 127
2, 2407, Note_on_c, 9, 36, 127
2, 2411, Note_on_c, 9, 38, 127
2, 2481, Note_on_c, 9, 45, 0
2, 2488, Note_on_c, 9, 36, 0
2, 2492, Note_on_c, 9, 38, 0
2, 2659, Note_on_c, 9, 45, 56
2, 2741, Note_on_c, 9, 45, 0
2, 2768, Note_on_c, 9, 45, 54
2, 2848, Note_on_c, 9, 45, 0
2, 2886, Note_on_c, 9, 45, 87
2, 2888, Note_on_c, 9, 36, 127
2, 2966, Note_on_c, 9, 45, 0
2, 2969, Note_on_c, 9, 36, 0
2, 3135, Note_on_c, 9, 45, 55
2, 3216, Note_on_c, 9, 45, 0
2, 3242, Note_on_c, 9, 45, 52
2, 3323, Note_on_c, 9, 45, 0
2, 3366, Note_on_c, 9, 36, 127
2, 3368, Note_on_c, 9, 45, 124
2, 3374, Note_on_c, 9, 38, 127
2, 3446, Note_on_c, 9, 36, 0
2, 3448, Note_on_c, 9, 45, 0
2, 3455, Note_on_c, 9, 38, 0
2, 3615, Note_on_c, 9, 45, 58
2, 3696, Note_on_c, 9, 45, 0
2, 3723, Note_on_c, 9, 45, 56
2, 3804, Note_on_c, 9, 45, 0
2, 3837, Note_on_c, 9, 36, 120
2, 3849, Note_on_c, 9, 45, 67
2, 3917, Note_on_c, 9, 36, 0
2, 3930, Note_on_c, 9, 45, 0
2, 4079, Note_on_c, 9, 45, 48
2, 4160, Note_on_c, 9, 45, 0
2, 4198, Note_on_c, 9, 45, 62
2, 4279, Note_on_c, 9, 45, 0
2, 4318, Note_on_c, 9, 45, 127
2, 4321, Note_on_c, 9, 38, 127
2, 4324, Note_on_c, 9, 36, 127
2, 4399, Note_on_c, 9, 45, 0
2, 4401, Note_on_c, 9, 38, 0
2, 4404, Note_on_c, 9, 36, 0
2, 4569, Note_on_c, 9, 45, 56
2, 4650, Note_on_c, 9, 45, 0
2, 4688, Note_on_c, 9, 45, 47
2, 4768, Note_on_c, 9, 45, 0
2, 4796, Note_on_c, 9, 36, 126
2, 4803, Note_on_c, 9, 45, 58
2, 4877, Note_on_c, 9, 36, 0
2, 4884, Note_on_c, 9, 45, 0
2, 5053, Note_on_c, 9, 45, 52
2, 5133, Note_on_c, 9, 45, 0
2, 5272, Note_on_c, 9, 36, 127
2, 5276, Note_on_c, 9, 45, 127
2, 5284, Note_on_c, 9, 38, 127
2, 5353, Note_on_c, 9, 36, 0
2, 5357, Note_on_c, 9, 45, 0
2, 5364, Note_on_c, 9, 38, 0
2, 5529, Note_on_c, 9, 45, 54
2, 5609, Note_on_c, 9, 45, 0
2, 5636, Note_on_c, 9, 45, 54
2, 5716, Note_on_c, 9, 45, 0
2, 5747, Note_on_c, 9, 36, 127
2, 5756, Note_on_c, 9, 45, 92
2, 5828, Note_on_c, 9, 36, 0
2, 5836, Note_on_c, 9, 45, 0
2, 5985, Note_on_c, 9, 45, 46
2, 6066, Note_on_c, 9, 45, 0
2, 6101, Note_on_c, 9, 45, 59
2, 6182, Note_on_c, 9, 45, 0
2, 6215, Note_on_c, 9, 36, 127
2, 6223, Note_on_c, 9, 45, 107
2, 6228, Note_on_c, 9, 38, 127
2, 6296, Note_on_c, 9, 36, 0
2, 6304, Note_on_c, 9, 45, 0
2, 6308, Note_on_c, 9, 38, 0
2, 6486, Note_on_c, 9, 45, 56
2, 6567, Note_on_c, 9, 45, 0
2, 6588, Note_on_c, 9, 45, 59
2, 6669, Note_on_c, 9, 45, 0
2, 6714, Note_on_c, 9, 45, 84
2, 6717, Note_on_c, 9, 36, 127
2, 6795, Note_on_c, 9, 45, 0
2, 6797, Note_on_c, 9, 36, 0
2, 6953, Note_on_c, 9, 45, 46
2, 7033, Note_on_c, 9, 45, 0
2, 7084, Note_on_c, 9, 45, 68
2, 7164, Note_on_c, 9, 45, 0
2, 7200, Note_on_c, 9, 45, 114
2, 7201, Note_on_c, 9, 38, 127
2, 7203, Note_on_c, 9, 36, 127
2, 7280, Note_on_c, 9, 45, 0
2, 7282, Note_on_c, 9, 38, 0
2, 7284, Note_on_c, 9, 36, 0
2, 7459, Note_on_c, 9, 45, 64
2, 7540, Note_on_c, 9, 45, 0
2, 7562, Note_on_c, 9, 45, 59
2, 7643, Note_on_c, 9, 45, 0
2, 7644, End_track
0, 0, End_of_file
