0, 0, Header, 1, 2, 480
1, 0, Start_track
1, 0, Tempo, 461538
1, 0, Time_signature, 4, 2, 24, 8
1, 0, Key_signature, 0, "major"
1, 1, End_track
2, 0, Start_track
2, 0, Title_t, "SoCal"
2, 0, Program_c, 9, 0
2, 0, Control_c, 9, 17, 77
2, 133, Control_c, 9, 4, 82
2, 133, Note_on_c, 9, 26, 18
2, 194, Control_c, 9, 4, 88
2, 237, Note_on_c, 9, 26, 0
2, 264, Control_c, 9, 4, 92
2, 302, Control_c, 9, 16, 0
2, 303, Note_on_c, 9, 38, 45
2, 305, Control_c, 9, 4, 98
2, 350, Control_c, 9, 4, 110
2, 387, Control_c, 9, 4, 102
2, 407, Note_on_c, 9, 38, 0
2, 432, Control_c, 9, 4, 91
2, 457, Note_on_c, 9, 36, 57
2, 474, Control_c, 9, 4, 84
2, 525, Control_c, 9, 4, 48
2, 561, Control_c, 9, 4, 0
2, 562, Note_on_c, 9, 36, 0
2, 605, Control_c, 9, 4, 32
2, 619, Note_on_c, 9, 44, 74
2, 623, Note_on_c, 9, 46, 62
2, 624, Control_c, 9, 17, 79
2, 625, Note_on_c, 9, 51, 95
2, 638, Control_c, 9, 4, 104
2, 677, Control_c, 9, 4, 96
2, 724, Note_on_c, 9, 44, 0
2, 726, Note_on_c, 9, 46, 0
2, 728, Note_on_c, 9, 51, 0
2, 748, Control_c, 9, 4, 91
2, 787, Control_c, 9, 4, 89
2, 788, Note_on_c, 9, 26, 74
2, 817, Control_c, 9, 4, 83
2, 849, Control_c, 9, 4, 73
2, 883, Control_c, 9, 4, 62
2, 892, Note_on_c, 9, 26, 0
2, 915, Control_c, 9, 4, 47
2, 926, Note_on_c, 9, 36, 47
2, 989, Control_c, 9, 4, 79
2, 990, Note_on_c, 9, 44, 15
2, 1022, Control_c, 9, 4, 89
2, 1030, Note_on_c, 9, 36, 0
2, 1094, Note_on_c, 9, 44, 0
2, 1109, Control_c, 9, 4, 91
2, 1110, Note_on_c, 9, 26, 21
2, 1215, Note_on_c, 9, 26, 0
2, 1262, Control_c, 9, 4, 95
2, 1275, Control_c, 9, 17, 121
2, 1276, Note_on_c, 9, 51, 99
2, 1314, Control_c, 9, 4, 108
2, 1380, Note_on_c, 9, 51, 0
2, 1392, Control_c, 9, 4, 98
2, 1442, Control_c, 9, 4, 93
2, 1448, Note_on_c, 9, 36, 49
2, 1554, Note_on_c, 9, 36, 0
2, 1585, Control_c, 9, 16, 0
2, 1586, Note_on_c, 9, 38, 42
2, 1595, Control_c, 9, 4, 108
2, 1664, Control_c, 9, 4, 98
2, 1690, Note_on_c, 9, 38, 0
2, 1717, Control_c, 9, 4, 92
2, 1750, Control_c, 9, 16, 0
2, 1751, Note_on_c, 9, 38, 37
2, 1788, Control_c, 9, 4, 88
2, 1855, Note_on_c, 9, 38, 0
2, 1873, Control_c, 9, 4, 95
2, 1896, Note_on_c, 9, 26, 55
2, 1906, Control_c, 9, 4, 112
2, 1945, Control_c, 9, 4, 102
2, 2000, Note_on_c, 9, 26, 0
2, 2014, Control_c, 9, 4, 106
2, 2081, Control_c, 9, 4, 98
2, 2174, Control_c, 9, 4, 93
2, 2223, Control_c, 9, 4, 98
2, 2235, Control_c, 9, 17, 90
2, 2236, Note_on_c, 9, 51, 85
2, 2267, Control_c, 9, 4, 110
2, 2313, Control_c, 9, 4, 104
2, 2340, Note_on_c, 9, 51, 0
2, 2347, Control_c, 9, 4, 98
2, 2416, Control_c, 9, 4, 98
2, 2417, Note_on_c, 9, 26, 95
2, 2521, Note_on_c, 9, 26, 0
2, 2550, Control_c, 9, 16, 0
2, 2551, Note_on_c, 9, 38, 35
2, 2655, Note_on_c, 9, 38, 0
2, 2733, Control_c, 9, 16, 0
2, 2734, Note_on_c, 9, 38, 44
2, 2838, Note_on_c, 9, 38, 0
2, 2870, Control_c, 9, 4, 110
2, 2895, Control_c, 9, 17, 0
2, 2896, Note_on_c, 9, 51, 112
2, 2968, Control_c, 9, 4, 102
2, 3000, Note_on_c, 9, 51, 0
2, 3015, Control_c, 9, 4, 92
2, 3066, Control_c, 9, 4, 86
2, 3124, Control_c, 9, 4, 54
2, 3163, Control_c, 9, 4, 17
2, 3203, Note_on_c, 9, 44, 61
2, 3205, Control_c, 9, 4, 80
2, 3206, Note_on_c, 9, 46, 53
2, 3213, Note_on_c, 9, 36, 52
2, 3235, Control_c, 9, 4, 112
2, 3296, Control_c, 9, 4, 97
2, 3307, Note_on_c, 9, 44, 0
2, 3309, Note_on_c, 9, 46, 0
2, 3317, Note_on_c, 9, 36, 0
2, 3347, Control_c, 9, 4, 93
2, 3379, Control_c, 9, 18, 0
2, 3380, Note_on_c, 9, 48, 122
2, 3443, Control_c, 9, 4, 102
2, 3484, Note_on_c, 9, 48, 0
2, 3570, Control_c, 9, 17, 127
2, 3571, Note_on_c, 9, 51, 70
2, 3572, Control_c, 9, 4, 114
2, 3613, Control_c, 9, 4, 106
2, 3656, Control_c, 9, 4, 92
2, 3675, Note_on_c, 9, 51, 0
2, 3692, Note_on_c, 9, 36, 46
2, 3717, Control_c, 9, 4, 73
2, 3731, Control_c, 9, 17, 127
2, 3732, Note_on_c, 9, 51, 5
2, 3759, Control_c, 9, 4, 0
2, 3797, Note_on_c, 9, 36, 0
2, 3824, Control_c, 9, 4, 16
2, 3836, Note_on_c, 9, 51, 0
2, 3838, Note_on_c, 9, 44, 106
2, 3856, Control_c, 9, 4, 116
2, 3870, Control_c, 9, 17, 37
2, 3871, Note_on_c, 9, 51, 76
2, 3901, Control_c, 9, 4, 93
2, 3942, Note_on_c, 9, 44, 0
2, 3974, Note_on_c, 9, 51, 0
2, 4010, Control_c, 9, 16, 0
2, 4011, Note_on_c, 9, 38, 38
2, 4115, Note_on_c, 9, 38, 0
2, 4139, Control_c, 9, 4, 97
2, 4165, Note_on_c, 9, 36, 62
2, 4270, Note_on_c, 9, 36, 0
2, 4321, Control_c, 9, 18, 0
2, 4321, Note_on_c, 9, 48, 64
2, 4424, Control_c, 9, 4, 110
2, 4426, Note_on_c, 9, 48, 0
2, 4497, Control_c, 9, 17, 75
2, 4498, Note_on_c, 9, 51, 85
2, 4504, Control_c, 9, 4, 114
2, 4545, Control_c, 9, 4, 106
2, 4579, Control_c, 9, 4, 93
2, 4601, Note_on_c, 9, 51, 0
2, 4619, Control_c, 9, 4, 87
2, 4626, Note_on_c, 9, 36, 58
2, 4659, Control_c, 9, 4, 69
2, 4696, Control_c, 9, 4, 0
2, 4731, Note_on_c, 9, 36, 0
2, 4762, Control_c, 9, 4, 17
2, 4776, Note_on_c, 9, 44, 100
2, 4794, Control_c, 9, 4, 112
2, 4831, Control_c, 9, 18, 127
2, 4832, Note_on_c, 9, 58, 67
2, 4835, Control_c, 9, 4, 96
2, 4880, Note_on_c, 9, 44, 0
2, 4910, Control_c, 9, 16, 0
2, 4911, Note_on_c, 9, 38, 26
2, 4936, Note_on_c, 9, 58, 0
2, 4976, Control_c, 9, 16, 0
2, 4977, Note_on_c, 9, 38, 0
2, 4978, Note_on_c, 9, 38, 21
2, 5015, Note_on_c, 9, 38, 0
2, 5045, Control_c, 9, 16, 0
2, 5046, Note_on_c, 9, 38, 42
2, 5081, Note_on_c, 9, 38, 0
2, 5099, Control_c, 9, 4, 102
2, 5132, Control_c, 9, 16, 0
2, 5133, Note_on_c, 9, 38, 44
2, 5150, Note_on_c, 9, 38, 0
2, 5176, Control_c, 9, 4, 96
2, 5212, Control_c, 9, 4, 91
2, 5264, Control_c, 9, 4, 86
2, 5288, Control_c, 9, 16, 0
2, 5289, Note_on_c, 9, 38, 51
2, 5329, Control_c, 9, 4, 54
2, 5360, Control_c, 9, 4, 0
2, 5393, Note_on_c, 9, 38, 0
2, 5432, Control_c, 9, 4, 76
2, 5433, Note_on_c, 9, 44, 93
2, 5442, Control_c, 9, 16, 0
2, 5443, Note_on_c, 9, 38, 32
2, 5465, Control_c, 9, 4, 114
2, 5496, Control_c, 9, 4, 100
2, 5538, Note_on_c, 9, 44, 0
2, 5546, Note_on_c, 9, 38, 0
2, 5566, Control_c, 9, 4, 95
2, 5601, Control_c, 9, 18, 0
2, 5602, Note_on_c, 9, 48, 48
2, 5705, Note_on_c, 9, 48, 0
2, 5752, Control_c, 9, 4, 99
2, 5752, Note_on_c, 9, 36, 61
2, 5858, Note_on_c, 9, 36, 0
2, 5917, Control_c, 9, 16, 0
2, 5918, Note_on_c, 9, 38, 16
2, 6021, Note_on_c, 9, 38, 0
2, 6061, Control_c, 9, 17, 90
2, 6062, Note_on_c, 9, 51, 79
2, 6080, Control_c, 9, 4, 114
2, 6159, Control_c, 9, 4, 98
2, 6166, Note_on_c, 9, 51, 0
2, 6237, Note_on_c, 9, 36, 58
2, 6342, Note_on_c, 9, 36, 0
2, 6368, Control_c, 9, 16, 0
2, 6369, Note_on_c, 9, 38, 27
2, 6390, Control_c, 9, 4, 110
2, 6474, Note_on_c, 9, 38, 0
2, 6492, Control_c, 9, 4, 102
2, 6534, Control_c, 9, 4, 92
2, 6555, Note_on_c, 9, 26, 72
2, 6580, Control_c, 9, 4, 85
2, 6655, Control_c, 9, 4, 70
2, 6659, Note_on_c, 9, 26, 0
2, 6699, Note_on_c, 9, 46, 8
2, 6706, Control_c, 9, 4, 80
2, 6707, Note_on_c, 9, 44, 22
2, 6738, Control_c, 9, 4, 114
2, 6769, Control_c, 9, 4, 122
2, 6804, Note_on_c, 9, 46, 0
2, 6809, Note_on_c, 9, 44, 0
2, 6826, Control_c, 9, 4, 104
2, 6863, Control_c, 9, 4, 95
2, 6864, Note_on_c, 9, 26, 13
2, 6943, Control_c, 9, 4, 110
2, 6968, Note_on_c, 9, 26, 0
2, 6973, Control_c, 9, 4, 114
2, 7009, Control_c, 9, 4, 104
2, 7019, Control_c, 9, 16, 0
2, 7020, Note_on_c, 9, 38, 54
2, 7045, Control_c, 9, 4, 91
2, 7093, Control_c, 9, 4, 70
2, 7124, Note_on_c, 9, 38, 0
2, 7132, Control_c, 9, 4, 0
2, 7210, Control_c, 9, 4, 76
2, 7211, Note_on_c, 9, 44, 100
2, 7243, Control_c, 9, 4, 120
2, 7275, Control_c, 9, 4, 108
2, 7315, Note_on_c, 9, 44, 0
2, 7329, Control_c, 9, 4, 95
2, 7332, Control_c, 9, 16, 0
2, 7333, Note_on_c, 9, 38, 8
2, 7437, Note_on_c, 9, 38, 0
2, 7460, Control_c, 9, 4, 108
2, 7494, Note_on_c, 9, 26, 85
2, 7505, Control_c, 9, 4, 100
2, 7552, Control_c, 9, 4, 96
2, 7598, Note_on_c, 9, 26, 0
2, 7649, Control_c, 9, 16, 0
2, 7650, End_track
0, 0, End_of_file
