0, 0, Header, 1, 2, 480
1, 0, Start_track
1, 0, Tempo, 588235
1, 0, Time_signature, 4, 2, 24, 8
1, 0, Key_signature, 0, "major"
1, 1, End_track
2, 0, Start_track
2, 0, Title_t, "Classic Studio Kit"
2, 0, Program_c, 9, 0
2, 0, Control_c, 9, 18, 0
2, 14, Control_c, 9, 4, 97
2, 58, Control_c, 9, 17, 29
2, 58, Note_on_c, 9, 51, 65
2, 62, Note_on_c, 9, 48, 66
2, 140, Note_on_c, 9, 51, 0
2, 144, Note_on_c, 9, 48, 0
2, 164, Control_c, 9, 4, 85
2, 184, Control_c, 9, 17, 41
2, 185, Note_on_c, 9, 51, 72
2, 207, Control_c, 9, 4, 53
2, 238, Control_c, 9, 4, 12
2, 266, Note_on_c, 9, 51, 0
2, 272, Note_on_c, 9, 44, 74
2, 278, Control_c, 9, 4, 110
2, 287, Note_on_c, 9, 36, 49
2, 313, Control_c, 9, 4, 99
2, 353, Note_on_c, 9, 44, 0
2, 358, Control_c, 9, 4, 86
2, 369, Note_on_c, 9, 36, 0
2, 421, Control_c, 9, 17, 0
2, 422, Note_on_c, 9, 51, 97
2, 475, Control_c, 9, 4, 92
2, 503, Note_on_c, 9, 51, 0
2, 532, Note_on_c, 9, 36, 61
2, 535, Control_c, 9, 16, 106
2, 536, Note_on_c, 9, 38, 63
2, 615, Note_on_c, 9, 36, 0
2, 618, Note_on_c, 9, 38, 0
2, 661, Control_c, 9, 4, 78
2, 692, Control_c, 9, 4, 54
2, 722, Control_c, 9, 4, 0
2, 743, Control_c, 9, 17, 30
2, 743, Note_on_c, 9, 51, 77
2, 763, Note_on_c, 9, 44, 87
2, 778, Control_c, 9, 4, 120
2, 811, Control_c, 9, 4, 100
2, 825, Note_on_c, 9, 51, 0
2, 846, Note_on_c, 9, 44, 0
2, 849, Control_c, 9, 4, 87
2, 872, Control_c, 9, 18, 0
2, 872, Note_on_c, 9, 48, 40
2, 898, Note_on_c, 9, 36, 51
2, 954, Note_on_c, 9, 48, 0
2, 967, Control_c, 9, 4, 92
2, 980, Note_on_c, 9, 36, 0
2, 987, Control_c, 9, 17, 41
2, 987, Note_on_c, 9, 51, 70
2, 991, Control_c, 9, 18, 21
2, 992, Note_on_c, 9, 48, 68
2, 1069, Note_on_c, 9, 51, 0
2, 1072, Note_on_c, 9, 48, 0
2, 1113, Control_c, 9, 17, 94
2, 1113, Note_on_c, 9, 51, 69
2, 1116, Control_c, 9, 4, 81
2, 1150, Control_c, 9, 4, 55
2, 1183, Control_c, 9, 4, 0
2, 1196, Note_on_c, 9, 51, 0
2, 1220, Note_on_c, 9, 44, 87
2, 1231, Control_c, 9, 4, 126
2, 1239, Note_on_c, 9, 36, 46
2, 1262, Control_c, 9, 4, 100
2, 1302, Control_c, 9, 4, 88
2, 1302, Note_on_c, 9, 44, 0
2, 1320, Note_on_c, 9, 36, 0
2, 1334, Control_c, 9, 4, 84
2, 1409, Control_c, 9, 4, 88
2, 1440, Control_c, 9, 4, 92
2, 1467, Control_c, 9, 17, 5
2, 1468, Note_on_c, 9, 51, 96
2, 1470, Control_c, 9, 16, 0
2, 1470, Note_on_c, 9, 38, 78
2, 1471, Note_on_c, 9, 36, 55
2, 1550, Note_on_c, 9, 51, 0
2, 1551, Note_on_c, 9, 38, 0
2, 1553, Note_on_c, 9, 36, 0
2, 1568, Control_c, 9, 4, 85
2, 1605, Control_c, 9, 4, 70
2, 1644, Control_c, 9, 4, 0
2, 1697, Control_c, 9, 4, 50
2, 1702, Note_on_c, 9, 44, 106
2, 1719, Control_c, 9, 17, 47
2, 1720, Note_on_c, 9, 51, 81
2, 1727, Control_c, 9, 4, 120
2, 1763, Control_c, 9, 4, 96
2, 1784, Note_on_c, 9, 44, 0
2, 1799, Control_c, 9, 4, 84
2, 1803, Note_on_c, 9, 51, 0
2, 1835, Control_c, 9, 18, 0
2, 1835, Note_on_c, 9, 48, 48
2, 1844, Note_on_c, 9, 36, 54
2, 1908, Control_c, 9, 4, 94
2, 1917, Note_on_c, 9, 48, 0
2, 1925, Note_on_c, 9, 36, 0
2, 1958, Note_on_c, 9, 48, 75
2, 1965, Control_c, 9, 17, 51
2, 1966, Note_on_c, 9, 51, 69
2, 2039, Note_on_c, 9, 48, 0
2, 2048, Note_on_c, 9, 51, 0
2, 2065, Control_c, 9, 4, 83
2, 2087, Control_c, 9, 17, 41
2, 2088, Note_on_c, 9, 51, 76
2, 2097, Control_c, 9, 4, 59
2, 2131, Control_c, 9, 4, 0
2, 2169, Note_on_c, 9, 51, 0
2, 2176, Note_on_c, 9, 44, 87
2, 2181, Note_on_c, 9, 36, 51
2, 2186, Control_c, 9, 4, 126
2, 2217, Control_c, 9, 4, 98
2, 2257, Note_on_c, 9, 44, 0
2, 2261, Note_on_c, 9, 36, 0
2, 2265, Control_c, 9, 4, 86
2, 2330, Control_c, 9, 17, 19
2, 2331, Note_on_c, 9, 51, 83
2, 2374, Control_c, 9, 4, 92
2, 2412, Note_on_c, 9, 51, 0
2, 2416, Note_on_c, 9, 36, 57
2, 2443, Control_c, 9, 16, 127
2, 2444, Note_on_c, 9, 38, 64
2, 2499, Note_on_c, 9, 36, 0
2, 2525, Note_on_c, 9, 38, 0
2, 2533, Control_c, 9, 4, 86
2, 2572, Control_c, 9, 4, 71
2, 2617, Control_c, 9, 4, 0
2, 2660, Control_c, 9, 4, 49
2, 2665, Note_on_c, 9, 44, 93
2, 2666, Control_c, 9, 17, 44
2, 2666, Note_on_c, 9, 51, 91
2, 2690, Control_c, 9, 4, 118
2, 2726, Control_c, 9, 4, 95
2, 2746, Note_on_c, 9, 44, 0
2, 2749, Note_on_c, 9, 51, 0
2, 2771, Control_c, 9, 4, 84
2, 2789, Note_on_c, 9, 36, 46
2, 2793, Control_c, 9, 18, 0
2, 2793, Note_on_c, 9, 48, 46
2, 2871, Note_on_c, 9, 36, 0
2, 2874, Note_on_c, 9, 48, 0
2, 2885, Control_c, 9, 4, 94
2, 2912, Note_on_c, 9, 48, 78
2, 2916, Control_c, 9, 17, 31
2, 2917, Note_on_c, 9, 51, 72
2, 2993, Note_on_c, 9, 48, 0
2, 2997, Note_on_c, 9, 51, 0
2, 3037, Control_c, 9, 17, 85
2, 3037, Note_on_c, 9, 51, 73
2, 3038, Control_c, 9, 4, 82
2, 3069, Control_c, 9, 4, 62
2, 3102, Control_c, 9, 4, 0
2, 3119, Note_on_c, 9, 51, 0
2, 3147, Note_on_c, 9, 36, 47
2, 3153, Note_on_c, 9, 44, 100
2, 3159, Control_c, 9, 4, 112
2, 3195, Control_c, 9, 4, 99
2, 3229, Note_on_c, 9, 36, 0
2, 3236, Note_on_c, 9, 44, 0
2, 3237, Control_c, 9, 4, 86
2, 3359, Control_c, 9, 4, 92
2, 3387, Control_c, 9, 16, 0
2, 3388, Note_on_c, 9, 38, 75
2, 3390, Note_on_c, 9, 36, 62
2, 3391, Control_c, 9, 17, 5
2, 3392, Note_on_c, 9, 51, 91
2, 3470, Note_on_c, 9, 38, 0
2, 3472, Note_on_c, 9, 36, 0
2, 3472, Note_on_c, 9, 51, 0
2, 3485, Control_c, 9, 4, 84
2, 3520, Control_c, 9, 4, 70
2, 3565, Control_c, 9, 4, 0
2, 3620, Control_c, 9, 4, 34
2, 3626, Note_on_c, 9, 44, 113
2, 3638, Control_c, 9, 17, 31
2, 3639, Note_on_c, 9, 51, 77
2, 3652, Control_c, 9, 4, 118
2, 3682, Control_c, 9, 4, 97
2, 3708, Note_on_c, 9, 44, 0
2, 3720, Note_on_c, 9, 51, 0
2, 3724, Control_c, 9, 4, 86
2, 3756, Control_c, 9, 18, 0
2, 3756, Note_on_c, 9, 48, 47
2, 3762, Note_on_c, 9, 36, 48
2, 3828, Control_c, 9, 4, 92
2, 3839, Note_on_c, 9, 48, 0
2, 3844, Note_on_c, 9, 36, 0
2, 3880, Note_on_c, 9, 48, 75
2, 3888, Control_c, 9, 17, 51
2, 3888, Note_on_c, 9, 51, 67
2, 3961, Note_on_c, 9, 48, 0
2, 3970, Note_on_c, 9, 51, 0
2, 3975, Control_c, 9, 4, 85
2, 4003, Control_c, 9, 17, 46
2, 4004, Note_on_c, 9, 51, 76
2, 4029, Control_c, 9, 4, 54
2, 4063, Control_c, 9, 4, 0
2, 4085, Note_on_c, 9, 51, 0
2, 4103, Note_on_c, 9, 44, 87
2, 4110, Note_on_c, 9, 36, 51
2, 4113, Control_c, 9, 4, 124
2, 4119, Control_c, 9, 17, 46
2, 4120, Note_on_c, 9, 51, 6
2, 4145, Control_c, 9, 4, 100
2, 4185, Note_on_c, 9, 44, 0
2, 4187, Control_c, 9, 4, 87
2, 4191, Note_on_c, 9, 36, 0
2, 4202, Note_on_c, 9, 51, 0
2, 4221, Control_c, 9, 4, 83
2, 4243, Control_c, 9, 17, 6
2, 4244, Note_on_c, 9, 51, 85
2, 4293, Control_c, 9, 4, 89
2, 4325, Note_on_c, 9, 51, 0
2, 4347, Note_on_c, 9, 36, 59
2, 4359, Control_c, 9, 16, 0
2, 4359, Note_on_c, 9, 38, 69
2, 4429, Note_on_c, 9, 36, 0
2, 4441, Note_on_c, 9, 38, 0
2, 4462, Control_c, 9, 4, 83
2, 4497, Control_c, 9, 4, 70
2, 4538, Control_c, 9, 4, 0
2, 4585, Control_c, 9, 4, 33
2, 4588, Control_c, 9, 17, 14
2, 4588, Note_on_c, 9, 51, 91
2, 4593, Note_on_c, 9, 44, 106
2, 4618, Control_c, 9, 4, 120
2, 4652, Control_c, 9, 4, 96
2, 4670, Note_on_c, 9, 51, 0
2, 4674, Note_on_c, 9, 44, 0
2, 4684, Control_c, 9, 4, 84
2, 4721, Note_on_c, 9, 36, 54
2, 4723, Control_c, 9, 18, 0
2, 4723, Note_on_c, 9, 48, 46
2, 4790, Control_c, 9, 4, 91
2, 4804, Note_on_c, 9, 36, 0
2, 4806, Note_on_c, 9, 48, 0
2, 4836, Control_c, 9, 4, 92
2, 4838, Note_on_c, 9, 48, 72
2, 4844, Control_c, 9, 17, 39
2, 4845, Note_on_c, 9, 51, 69
2, 4920, Note_on_c, 9, 48, 0
2, 4926, Note_on_c, 9, 51, 0
2, 4948, Control_c, 9, 4, 85
2, 4967, Control_c, 9, 17, 81
2, 4967, Note_on_c, 9, 51, 76
2, 4985, Control_c, 9, 4, 70
2, 5025, Control_c, 9, 4, 0
2, 5050, Note_on_c, 9, 51, 0
2, 5078, Note_on_c, 9, 36, 46
2, 5078, Note_on_c, 9, 44, 100
2, 5087, Control_c, 9, 4, 126
2, 5121, Control_c, 9, 4, 96
2, 5160, Note_on_c, 9, 36, 0
2, 5160, Note_on_c, 9, 44, 0
2, 5165, Control_c, 9, 4, 84
2, 5263, Control_c, 9, 4, 89
2, 5317, Control_c, 9, 16, 21
2, 5317, Note_on_c, 9, 38, 75
2, 5320, Note_on_c, 9, 36, 64
2, 5324, Control_c, 9, 17, 7
2, 5324, Note_on_c, 9, 51, 93
2, 5400, Note_on_c, 9, 38, 0
2, 5403, Note_on_c, 9, 36, 0
2, 5406, Note_on_c, 9, 51, 0
2, 5417, Control_c, 9, 4, 82
2, 5452, Control_c, 9, 4, 69
2, 5488, Control_c, 9, 4, 0
2, 5546, Control_c, 9, 4, 51
2, 5551, Note_on_c, 9, 44, 113
2, 5557, Control_c, 9, 17, 88
2, 5557, Note_on_c, 9, 51, 79
2, 5577, Control_c, 9, 4, 118
2, 5608, Control_c, 9, 4, 97
2, 5633, Note_on_c, 9, 44, 0
2, 5640, Control_c, 9, 4, 84
2, 5640, Note_on_c, 9, 51, 0
2, 5677, Control_c, 9, 18, 0
2, 5677, Note_on_c, 9, 48, 46
2, 5694, Note_on_c, 9, 36, 48
2, 5760, Note_on_c, 9, 48, 0
2, 5764, Control_c, 9, 4, 94
2, 5777, Note_on_c, 9, 36, 0
2, 5799, Note_on_c, 9, 48, 69
2, 5817, Control_c, 9, 17, 71
2, 5818, Note_on_c, 9, 51, 70
2, 5881, Note_on_c, 9, 48, 0
2, 5900, Note_on_c, 9, 51, 0
2, 5913, Control_c, 9, 4, 83
2, 5937, Control_c, 9, 17, 82
2, 5937, Note_on_c, 9, 51, 85
2, 5954, Control_c, 9, 4, 52
2, 5985, Control_c, 9, 4, 0
2, 6018, Note_on_c, 9, 51, 0
2, 6028, Note_on_c, 9, 44, 87
2, 6037, Note_on_c, 9, 36, 45
2, 6038, Control_c, 9, 4, 124
2, 6051, Control_c, 9, 17, 82
2, 6052, Note_on_c, 9, 51, 7
2, 6070, Control_c, 9, 4, 98
2, 6110, Note_on_c, 9, 44, 0
2, 6114, Control_c, 9, 4, 84
2, 6118, Note_on_c, 9, 36, 0
2, 6133, Note_on_c, 9, 51, 0
2, 6163, Control_c, 9, 17, 35
2, 6163, Note_on_c, 9, 51, 84
2, 6213, Control_c, 9, 4, 90
2, 6244, Note_on_c, 9, 51, 0
2, 6270, Note_on_c, 9, 36, 62
2, 6290, Control_c, 9, 16, 0
2, 6291, Note_on_c, 9, 38, 67
2, 6353, Note_on_c, 9, 36, 0
2, 6371, Control_c, 9, 4, 84
2, 6371, Note_on_c, 9, 38, 0
2, 6404, Control_c, 9, 4, 70
2, 6442, Control_c, 9, 4, 0
2, 6501, Control_c, 9, 17, 19
2, 6501, Note_on_c, 9, 51, 82
2, 6508, Note_on_c, 9, 44, 113
2, 6517, Control_c, 9, 4, 127
2, 6558, Control_c, 9, 4, 97
2, 6583, Note_on_c, 9, 51, 0
2, 6590, Note_on_c, 9, 44, 0
2, 6598, Control_c, 9, 4, 84
2, 6629, Control_c, 9, 18, 0
2, 6629, Note_on_c, 9, 48, 46
2, 6643, Note_on_c, 9, 36, 57
2, 6702, Control_c, 9, 4, 90
2, 6710, Note_on_c, 9, 48, 0
2, 6726, Note_on_c, 9, 36, 0
2, 6751, Control_c, 9, 17, 55
2, 6751, Note_on_c, 9, 51, 65
2, 6761, Note_on_c, 9, 48, 69
2, 6834, Note_on_c, 9, 51, 0
2, 6843, Note_on_c, 9, 48, 0
2, 6857, Control_c, 9, 4, 84
2, 6868, Control_c, 9, 17, 86
2, 6869, Note_on_c, 9, 51, 69
2, 6894, Control_c, 9, 4, 70
2, 6932, Control_c, 9, 4, 0
2, 6950, Note_on_c, 9, 51, 0
2, 6982, Control_c, 9, 17, 86
2, 6983, Note_on_c, 9, 51, 5
2, 6986, Note_on_c, 9, 46, 11
2, 6990, Note_on_c, 9, 44, 106
2, 6995, Note_on_c, 9, 36, 46
2, 6998, Control_c, 9, 4, 127
2, 7032, Control_c, 9, 4, 97
2, 7064, Note_on_c, 9, 51, 0
2, 7067, Note_on_c, 9, 46, 0
2, 7071, Note_on_c, 9, 44, 0
2, 7076, Control_c, 9, 4, 83
2, 7076, Note_on_c, 9, 36, 0
2, 7174, Control_c, 9, 4, 90
2, 7227, Note_on_c, 9, 36, 55
2, 7240, Control_c, 9, 17, 66
2, 7241, Note_on_c, 9, 51, 103
2, 7242, Note_on_c, 9, 38, 66
2, 7310, Note_on_c, 9, 36, 0
2, 7321, Note_on_c, 9, 51, 0
2, 7324, Note_on_c, 9, 38, 0
2, 7335, Control_c, 9, 4, 83
2, 7370, Control_c, 9, 4, 69
2, 7405, Control_c, 9, 4, 0
2, 7465, Note_on_c, 9, 44, 106
2, 7473, Control_c, 9, 4, 127
2, 7474, Control_c, 9, 17, 88
2, 7475, Note_on_c, 9, 51, 76
2, 7506, Control_c, 9, 4, 98
2, 7546, Note_on_c, 9, 44, 0
2, 7553, Control_c, 9, 4, 85
2, 7557, Note_on_c, 9, 51, 0
2, 7590, Control_c, 9, 18, 0
2, 7591, Note_on_c, 9, 48, 52
2, 7672, Note_on_c, 9, 48, 0
2, 7676, Control_c, 9, 4, 95
2, 7677, End_track
0, 0, End_of_file
