0, 0, Header, 1, 2, 480
1, 0, Start_track
1, 0, Tempo, 428571
1, 0, Time_signature, 4, 2, 24, 8
1, 0, Key_signature, 0, "major"
1, 1, End_track
2, 0, Start_track
2, 0, Title_t, "Midi Drums"
2, 0, Program_c, 9, 0
2, 0, Note_on_c, 9, 22, 88
2, 0, Note_on_c, 9, 36, 43
2, 55, Note_on_c, 9, 36, 0
2, 55, Note_on_c, 9, 36, 14
2, 99, Note_on_c, 9, 36, 0
2, 99, Note_on_c, 9, 36, 10
2, 104, Note_on_c, 9, 36, 0
2, 107, Note_on_c, 9, 22, 0
2, 171, Control_c, 9, 4, 90
2, 171, Note_on_c, 9, 22, 26
2, 284, Note_on_c, 9, 22, 0
2, 328, Control_c, 9, 4, 90
2, 329, Note_on_c, 9, 22, 58
2, 442, Note_on_c, 9, 22, 0
2, 663, Control_c, 9, 4, 90
2, 664, Note_on_c, 9, 22, 53
2, 777, Note_on_c, 9, 22, 0
2, 812, Control_c, 9, 4, 90
2, 812, Note_on_c, 9, 22, 47
2, 926, Note_on_c, 9, 22, 0
2, 990, Note_on_c, 9, 40, 127
2, 1103, Note_on_c, 9, 40, 0
2, 1155, Control_c, 9, 4, 90
2, 1155, Note_on_c, 9, 22, 44
2, 1269, Note_on_c, 9, 22, 0
2, 1309, Control_c, 9, 4, 90
2, 1309, Note_on_c, 9, 22, 57
2, 1422, Note_on_c, 9, 22, 0
2, 1459, Control_c, 9, 4, 90
2, 1459, Note_on_c, 9, 22, 65
2, 1573, Note_on_c, 9, 22, 0
2, 1615, Control_c, 9, 4, 90
2, 1615, Note_on_c, 9, 22, 69
2, 1728, Note_on_c, 9, 22, 0
2, 1764, Control_c, 9, 4, 90
2, 1764, Note_on_c, 9, 42, 35
2, 1877, Note_on_c, 9, 42, 0
2, 1927, Note_on_c, 9, 36, 25
2, 1928, Control_c, 9, 4, 90
2, 1928, Note_on_c, 9, 22, 70
2, 2039, Note_on_c, 9, 36, 0
2, 2041, Note_on_c, 9, 22, 0
2, 2089, Control_c, 9, 4, 90
2, 2089, Note_on_c, 9, 22, 27
2, 2203, Note_on_c, 9, 22, 0
2, 2237, Control_c, 9, 4, 90
2, 2237, Note_on_c, 9, 22, 72
2, 2239, Note_on_c, 9, 36, 43
2, 2299, Note_on_c, 9, 36, 0
2, 2299, Note_on_c, 9, 36, 13
2, 2351, Note_on_c, 9, 22, 0
2, 2351, Note_on_c, 9, 36, 0
2, 2408, Control_c, 9, 4, 90
2, 2408, Note_on_c, 9, 22, 53
2, 2522, Note_on_c, 9, 22, 0
2, 2551, Control_c, 9, 4, 90
2, 2551, Note_on_c, 9, 22, 56
2, 2665, Note_on_c, 9, 22, 0
2, 2707, Control_c, 9, 4, 90
2, 2707, Note_on_c, 9, 22, 66
2, 2821, Note_on_c, 9, 22, 0
2, 2871, Control_c, 9, 4, 90
2, 2871, Note_on_c, 9, 22, 73
2, 2984, Note_on_c, 9, 22, 0
2, 3207, Note_on_c, 9, 38, 107
2, 3319, Note_on_c, 9, 38, 0
2, 3433, Control_c, 9, 4, 81
2, 3472, Control_c, 9, 4, 63
2, 3517, Control_c, 9, 4, 49
2, 3571, Control_c, 9, 4, 37
2, 3653, Control_c, 9, 4, 38
2, 3653, Note_on_c, 9, 26, 16
2, 3689, Control_c, 9, 4, 42
2, 3740, Control_c, 9, 4, 66
2, 3766, Note_on_c, 9, 26, 0
2, 3778, Control_c, 9, 4, 82
2, 3818, Control_c, 9, 4, 90
2, 3818, Note_on_c, 9, 22, 98
2, 3827, Note_on_c, 9, 36, 33
2, 3885, Note_on_c, 9, 36, 0
2, 3885, Note_on_c, 9, 36, 12
2, 3931, Note_on_c, 9, 22, 0
2, 3940, Note_on_c, 9, 36, 0
2, 3973, Control_c, 9, 4, 90
2, 3973, Note_on_c, 9, 22, 14
2, 4087, Note_on_c, 9, 22, 0
2, 4126, Control_c, 9, 4, 90
2, 4127, Note_on_c, 9, 22, 58
2, 4143, Note_on_c, 9, 36, 35
2, 4240, Note_on_c, 9, 22, 0
2, 4256, Note_on_c, 9, 36, 0
2, 4300, Control_c, 9, 4, 90
2, 4300, Note_on_c, 9, 22, 23
2, 4414, Note_on_c, 9, 22, 0
2, 4453, Control_c, 9, 4, 90
2, 4453, Note_on_c, 9, 22, 36
2, 4567, Note_on_c, 9, 22, 0
2, 4602, Control_c, 9, 4, 90
2, 4602, Note_on_c, 9, 22, 55
2, 4716, Note_on_c, 9, 22, 0
2, 4772, Note_on_c, 9, 40, 110
2, 4885, Note_on_c, 9, 40, 0
2, 4945, Control_c, 9, 4, 90
2, 4945, Note_on_c, 9, 22, 44
2, 5058, Note_on_c, 9, 22, 0
2, 5090, Control_c, 9, 4, 90
2, 5090, Note_on_c, 9, 22, 64
2, 5203, Note_on_c, 9, 22, 0
2, 5250, Control_c, 9, 4, 90
2, 5251, Note_on_c, 9, 22, 76
2, 5364, Note_on_c, 9, 22, 0
2, 5403, Control_c, 9, 4, 90
2, 5403, Note_on_c, 9, 22, 47
2, 5517, Note_on_c, 9, 22, 0
2, 5572, Control_c, 9, 4, 90
2, 5572, Note_on_c, 9, 22, 45
2, 5685, Note_on_c, 9, 22, 0
2, 5733, Note_on_c, 9, 36, 34
2, 5740, Control_c, 9, 4, 90
2, 5740, Note_on_c, 9, 22, 75
2, 5846, Note_on_c, 9, 36, 0
2, 5853, Note_on_c, 9, 22, 0
2, 5903, Control_c, 9, 4, 90
2, 5903, Note_on_c, 9, 22, 24
2, 6017, Note_on_c, 9, 22, 0
2, 6060, Note_on_c, 9, 36, 45
2, 6062, Control_c, 9, 4, 90
2, 6062, Note_on_c, 9, 22, 70
2, 6159, Note_on_c, 9, 36, 0
2, 6159, Note_on_c, 9, 36, 8
2, 6173, Note_on_c, 9, 36, 0
2, 6175, Note_on_c, 9, 22, 0
2, 6237, Control_c, 9, 4, 90
2, 6237, Note_on_c, 9, 22, 53
2, 6350, Note_on_c, 9, 22, 0
2, 6387, Control_c, 9, 4, 90
2, 6387, Note_on_c, 9, 22, 48
2, 6501, Note_on_c, 9, 22, 0
2, 6518, Control_c, 9, 4, 75
2, 6540, Note_on_c, 9, 26, 57
2, 6559, Control_c, 9, 4, 60
2, 6612, Control_c, 9, 4, 66
2, 6654, Note_on_c, 9, 26, 0
2, 6683, Control_c, 9, 4, 77
2, 6694, Note_on_c, 9, 38, 86
2, 6728, Control_c, 9, 4, 90
2, 6807, Note_on_c, 9, 38, 0
2, 6848, Note_on_c, 9, 38, 68
2, 6962, Note_on_c, 9, 38, 0
2, 7005, Note_on_c, 9, 38, 114
2, 7093, Control_c, 9, 4, 45
2, 7118, Note_on_c, 9, 38, 0
2, 7123, Control_c, 9, 4, 17
2, 7167, Control_c, 9, 4, 0
2, 7177, Note_on_c, 9, 40, 127
2, 7263, Control_c, 9, 4, 5
2, 7290, Note_on_c, 9, 40, 0
2, 7313, Control_c, 9, 4, 45
2, 7334, Note_on_c, 9, 40, 126
2, 7355, Control_c, 9, 4, 33
2, 7388, Control_c, 9, 4, 12
2, 7424, Control_c, 9, 4, 0
2, 7447, Note_on_c, 9, 40, 0
2, 7481, Note_on_c, 9, 40, 127
2, 7566, Control_c, 9, 4, 78
2, 7566, Note_on_c, 9, 44, 50
2, 7594, Note_on_c, 9, 40, 0
2, 7602, Control_c, 9, 4, 90
2, 7655, Control_c, 9, 4, 90
2, 7679, Note_on_c, 9, 44, 0
2, 7680, End_track
0, 0, End_of_file
