0, 0, Header, 1, 2, 480
1, 0, Start_track
1, 0, Tempo, 631578
1, 0, Time_signature, 4, 2, 24, 8
1, 0, Key_signature, 0, "major"
1, 1, End_track
2, 0, Start_track
2, 0, Title_t, "Midi Drums"
2, 0, Program_c, 9, 0
2, 8, Note_on_c, 9, 51, 20
2, 84, Note_on_c, 9, 51, 0
2, 214, Note_on_c, 9, 38, 104
2, 217, Note_on_c, 9, 51, 36
2, 290, Note_on_c, 9, 38, 0
2, 293, Note_on_c, 9, 51, 0
2, 375, Note_on_c, 9, 51, 26
2, 449, Note_on_c, 9, 51, 0
2, 449, Note_on_c, 9, 51, 42
2, 452, Note_on_c, 9, 51, 0
2, 691, Note_on_c, 9, 51, 35
2, 701, Note_on_c, 9, 38, 64
2, 768, Note_on_c, 9, 51, 0
2, 778, Note_on_c, 9, 38, 0
2, 861, Note_on_c, 9, 51, 28
2, 938, Note_on_c, 9, 51, 0
2, 940, Note_on_c, 9, 51, 35
2, 1017, Note_on_c, 9, 51, 0
2, 1168, Note_on_c, 9, 51, 39
2, 1185, Note_on_c, 9, 38, 48
2, 1244, Note_on_c, 9, 51, 0
2, 1262, Note_on_c, 9, 38, 0
2, 1333, Note_on_c, 9, 51, 28
2, 1410, Note_on_c, 9, 51, 0
2, 1421, Note_on_c, 9, 51, 43
2, 1497, Note_on_c, 9, 51, 0
2, 1577, Note_on_c, 9, 38, 60
2, 1588, Note_on_c, 9, 36, 61
2, 1654, Note_on_c, 9, 38, 0
2, 1659, Note_on_c, 9, 51, 51
2, 1665, Note_on_c, 9, 36, 0
2, 1736, Note_on_c, 9, 51, 0
2, 1893, Note_on_c, 9, 36, 72
2, 1896, Note_on_c, 9, 51, 54
2, 1931, Control_c, 9, 4, 74
2, 1967, Control_c, 9, 4, 0
2, 1970, Note_on_c, 9, 36, 0
2, 1972, Note_on_c, 9, 51, 0
2, 2125, Note_on_c, 9, 37, 59
2, 2125, Note_on_c, 9, 51, 36
2, 2159, Control_c, 9, 4, 49
2, 2167, Note_on_c, 9, 44, 27
2, 2191, Control_c, 9, 4, 90
2, 2202, Note_on_c, 9, 37, 0
2, 2202, Note_on_c, 9, 51, 0
2, 2244, Note_on_c, 9, 44, 0
2, 2296, Note_on_c, 9, 51, 28
2, 2372, Note_on_c, 9, 51, 0
2, 2378, Note_on_c, 9, 51, 29
2, 2455, Note_on_c, 9, 51, 0
2, 2572, Control_c, 9, 4, 0
2, 2608, Note_on_c, 9, 51, 34
2, 2614, Note_on_c, 9, 38, 53
2, 2634, Control_c, 9, 4, 33
2, 2641, Note_on_c, 9, 44, 52
2, 2665, Control_c, 9, 4, 90
2, 2685, Note_on_c, 9, 51, 0
2, 2690, Note_on_c, 9, 38, 0
2, 2718, Note_on_c, 9, 44, 0
2, 2760, Note_on_c, 9, 51, 24
2, 2836, Note_on_c, 9, 51, 0
2, 2858, Note_on_c, 9, 51, 29
2, 2934, Note_on_c, 9, 51, 0
2, 2973, Control_c, 9, 4, 62
2, 3004, Control_c, 9, 4, 90
2, 3010, Note_on_c, 9, 37, 67
2, 3054, Control_c, 9, 4, 0
2, 3086, Note_on_c, 9, 37, 0
2, 3102, Note_on_c, 9, 51, 40
2, 3179, Note_on_c, 9, 51, 0
2, 3327, Note_on_c, 9, 51, 36
2, 3403, Control_c, 9, 4, 49
2, 3403, Note_on_c, 9, 51, 0
2, 3411, Note_on_c, 9, 44, 25
2, 3435, Control_c, 9, 4, 90
2, 3488, Note_on_c, 9, 44, 0
2, 3493, Note_on_c, 9, 38, 64
2, 3570, Note_on_c, 9, 38, 0
2, 3571, Note_on_c, 9, 51, 49
2, 3647, Note_on_c, 9, 51, 0
2, 3814, Note_on_c, 9, 51, 38
2, 3819, Note_on_c, 9, 36, 69
2, 3890, Note_on_c, 9, 51, 0
2, 3896, Note_on_c, 9, 36, 0
2, 4023, Control_c, 9, 4, 0
2, 4047, Note_on_c, 9, 51, 42
2, 4053, Note_on_c, 9, 38, 65
2, 4075, Control_c, 9, 4, 33
2, 4082, Note_on_c, 9, 44, 47
2, 4106, Control_c, 9, 4, 90
2, 4124, Note_on_c, 9, 51, 0
2, 4130, Note_on_c, 9, 38, 0
2, 4159, Note_on_c, 9, 44, 0
2, 4196, Control_c, 9, 4, 26
2, 4218, Note_on_c, 9, 51, 24
2, 4230, Control_c, 9, 4, 51
2, 4236, Note_on_c, 9, 44, 27
2, 4260, Control_c, 9, 4, 90
2, 4292, Note_on_c, 9, 51, 0
2, 4292, Note_on_c, 9, 51, 32
2, 4295, Note_on_c, 9, 51, 0
2, 4313, Note_on_c, 9, 44, 0
2, 4493, Control_c, 9, 4, 58
2, 4526, Control_c, 9, 4, 42
2, 4532, Note_on_c, 9, 37, 65
2, 4533, Note_on_c, 9, 44, 45
2, 4535, Note_on_c, 9, 51, 38
2, 4556, Control_c, 9, 4, 90
2, 4609, Note_on_c, 9, 37, 0
2, 4609, Note_on_c, 9, 44, 0
2, 4611, Note_on_c, 9, 51, 0
2, 4774, Note_on_c, 9, 51, 30
2, 4851, Note_on_c, 9, 51, 0
2, 4934, Control_c, 9, 4, 0
2, 4985, Control_c, 9, 4, 32
2, 4992, Note_on_c, 9, 44, 55
2, 4999, Note_on_c, 9, 51, 33
2, 5011, Note_on_c, 9, 38, 55
2, 5016, Control_c, 9, 4, 90
2, 5068, Note_on_c, 9, 44, 0
2, 5075, Note_on_c, 9, 51, 0
2, 5087, Note_on_c, 9, 38, 0
2, 5145, Note_on_c, 9, 51, 22
2, 5217, Control_c, 9, 4, 42
2, 5221, Note_on_c, 9, 51, 0
2, 5235, Note_on_c, 9, 51, 28
2, 5237, Note_on_c, 9, 44, 42
2, 5261, Control_c, 9, 4, 90
2, 5312, Note_on_c, 9, 51, 0
2, 5313, Note_on_c, 9, 44, 0
2, 5367, Control_c, 9, 4, 0
2, 5404, Note_on_c, 9, 38, 51
2, 5440, Note_on_c, 9, 38, 0
2, 5440, Note_on_c, 9, 38, 62
2, 5449, Control_c, 9, 4, 77
2, 5449, Note_on_c, 9, 44, 50
2, 5480, Note_on_c, 9, 38, 0
2, 5489, Control_c, 9, 4, 0
2, 5498, Note_on_c, 9, 40, 105
2, 5527, Note_on_c, 9, 44, 0
2, 5575, Note_on_c, 9, 40, 0
2, 5735, Note_on_c, 9, 36, 127
2, 5737, Note_on_c, 9, 55, 35
2, 5813, Note_on_c, 9, 36, 0
2, 5813, Note_on_c, 9, 55, 0
2, 5971, Note_on_c, 9, 51, 53
2, 6006, Control_c, 9, 4, 63
2, 6041, Control_c, 9, 4, 90
2, 6047, Note_on_c, 9, 51, 0
2, 6126, Note_on_c, 9, 51, 15
2, 6202, Note_on_c, 9, 51, 0
2, 6215, Note_on_c, 9, 51, 19
2, 6292, Note_on_c, 9, 51, 0
2, 6364, Note_on_c, 9, 40, 104
2, 6440, Note_on_c, 9, 40, 0
2, 6468, Note_on_c, 9, 51, 40
2, 6545, Note_on_c, 9, 51, 0
2, 6650, Note_on_c, 9, 36, 55
2, 6727, Note_on_c, 9, 36, 0
2, 6728, Note_on_c, 9, 38, 70
2, 6804, Note_on_c, 9, 38, 0
2, 6875, Note_on_c, 9, 51, 36
2, 6952, Note_on_c, 9, 51, 0
2, 6958, Note_on_c, 9, 51, 63
2, 7035, Note_on_c, 9, 51, 0
2, 7092, Control_c, 9, 4, 0
2, 7112, Note_on_c, 9, 38, 87
2, 7160, Control_c, 9, 4, 32
2, 7168, Note_on_c, 9, 44, 47
2, 7189, Note_on_c, 9, 38, 0
2, 7191, Control_c, 9, 4, 90
2, 7201, Note_on_c, 9, 51, 33
2, 7244, Note_on_c, 9, 44, 0
2, 7277, Note_on_c, 9, 51, 0
2, 7338, Note_on_c, 9, 51, 36
2, 7342, Control_c, 9, 4, 71
2, 7387, Control_c, 9, 4, 90
2, 7415, Note_on_c, 9, 51, 0
2, 7420, Note_on_c, 9, 37, 76
2, 7497, Note_on_c, 9, 37, 0
2, 7564, Note_on_c, 9, 51, 53
2, 7640, Note_on_c, 9, 51, 0
2, 7641, End_track
0, 0, End_of_file
