0, 0, Header, 1, 2, 480
1, 0, Start_track
1, 0, Tempo, 588235
1, 0, Time_signature, 4, 2, 24, 8
1, 0, Key_signature, 0, "major"
1, 1, End_track
2, 0, Start_track
2, 0, Title_t, "Classic Studio Kit"
2, 0, Program_c, 9, 0
2, 0, Control_c, 9, 17, 3
2, 13, Control_c, 9, 17, 0
2, 14, Note_on_c, 9, 51, 84
2, 35, Control_c, 9, 4, 108
2, 96, Note_on_c, 9, 51, 0
2, 97, Control_c, 9, 4, 90
2, 125, Control_c, 9, 16, 0
2, 125, Note_on_c, 9, 38, 33
2, 128, Control_c, 9, 4, 72
2, 163, Control_c, 9, 4, 0
2, 208, Note_on_c, 9, 38, 0
2, 239, Control_c, 9, 4, 0
2, 240, Note_on_c, 9, 46, 10
2, 255, Note_on_c, 9, 44, 127
2, 256, Control_c, 9, 17, 31
2, 256, Note_on_c, 9, 51, 108
2, 276, Control_c, 9, 4, 94
2, 308, Control_c, 9, 4, 56
2, 321, Note_on_c, 9, 46, 0
2, 336, Note_on_c, 9, 44, 0
2, 338, Note_on_c, 9, 51, 0
2, 351, Control_c, 9, 4, 72
2, 351, Note_on_c, 9, 46, 6
2, 360, Note_on_c, 9, 38, 7
2, 371, Note_on_c, 9, 36, 45
2, 434, Note_on_c, 9, 46, 0
2, 441, Note_on_c, 9, 38, 0
2, 453, Note_on_c, 9, 36, 0
2, 483, Note_on_c, 9, 36, 74
2, 487, Control_c, 9, 17, 20
2, 487, Note_on_c, 9, 51, 65
2, 489, Control_c, 9, 4, 68
2, 529, Control_c, 9, 4, 52
2, 533, Control_c, 9, 17, 20
2, 533, Note_on_c, 9, 51, 0
2, 535, Note_on_c, 9, 51, 28
2, 565, Note_on_c, 9, 36, 0
2, 566, Control_c, 9, 4, 0
2, 568, Note_on_c, 9, 51, 0
2, 616, Control_c, 9, 16, 0
2, 616, Note_on_c, 9, 38, 34
2, 698, Note_on_c, 9, 38, 0
2, 702, Note_on_c, 9, 44, 87
2, 718, Control_c, 9, 4, 98
2, 728, Note_on_c, 9, 38, 40
2, 753, Control_c, 9, 4, 110
2, 784, Note_on_c, 9, 44, 0
2, 797, Control_c, 9, 4, 98
2, 810, Note_on_c, 9, 38, 0
2, 829, Control_c, 9, 4, 80
2, 852, Note_on_c, 9, 36, 86
2, 868, Control_c, 9, 4, 0
2, 904, Control_c, 9, 4, 0
2, 904, Note_on_c, 9, 46, 26
2, 936, Note_on_c, 9, 36, 0
2, 967, Control_c, 9, 16, 0
2, 968, Note_on_c, 9, 38, 75
2, 970, Note_on_c, 9, 44, 126
2, 972, Control_c, 9, 4, 108
2, 987, Note_on_c, 9, 46, 0
2, 1010, Control_c, 9, 4, 70
2, 1050, Note_on_c, 9, 38, 0
2, 1050, Note_on_c, 9, 44, 0
2, 1085, Control_c, 9, 4, 72
2, 1093, Note_on_c, 9, 48, 61
2, 1175, Note_on_c, 9, 48, 0
2, 1204, Note_on_c, 9, 36, 65
2, 1214, Control_c, 9, 17, 6
2, 1215, Note_on_c, 9, 51, 61
2, 1286, Note_on_c, 9, 36, 0
2, 1295, Note_on_c, 9, 51, 0
2, 1344, Note_on_c, 9, 38, 37
2, 1425, Note_on_c, 9, 38, 0
2, 1453, Note_on_c, 9, 36, 91
2, 1465, Control_c, 9, 17, 0
2, 1465, Note_on_c, 9, 51, 61
2, 1477, Control_c, 9, 4, 79
2, 1512, Control_c, 9, 4, 82
2, 1535, Note_on_c, 9, 36, 0
2, 1547, Note_on_c, 9, 51, 0
2, 1677, Control_c, 9, 4, 87
2, 1690, Control_c, 9, 16, 0
2, 1691, Note_on_c, 9, 38, 71
2, 1693, Note_on_c, 9, 55, 57
2, 1715, Control_c, 9, 4, 104
2, 1773, Note_on_c, 9, 38, 0
2, 1774, Control_c, 9, 4, 90
2, 1775, Note_on_c, 9, 55, 0
2, 1804, Control_c, 9, 4, 70
2, 1836, Control_c, 9, 4, 0
2, 1907, Note_on_c, 9, 46, 8
2, 1923, Note_on_c, 9, 44, 127
2, 1930, Control_c, 9, 4, 127
2, 1938, Control_c, 9, 17, 9
2, 1938, Note_on_c, 9, 51, 69
2, 1965, Control_c, 9, 4, 89
2, 1988, Note_on_c, 9, 46, 0
2, 2004, Note_on_c, 9, 44, 0
2, 2019, Note_on_c, 9, 51, 0
2, 2035, Control_c, 9, 4, 84
2, 2058, Note_on_c, 9, 38, 35
2, 2078, Control_c, 9, 4, 90
2, 2140, Note_on_c, 9, 38, 0
2, 2170, Note_on_c, 9, 36, 79
2, 2185, Control_c, 9, 17, 0
2, 2186, Note_on_c, 9, 51, 79
2, 2212, Control_c, 9, 4, 108
2, 2231, Control_c, 9, 17, 0
2, 2232, Note_on_c, 9, 51, 0
2, 2232, Note_on_c, 9, 51, 33
2, 2252, Note_on_c, 9, 36, 0
2, 2260, Control_c, 9, 4, 98
2, 2267, Note_on_c, 9, 51, 0
2, 2292, Control_c, 9, 4, 82
2, 2312, Control_c, 9, 16, 0
2, 2313, Note_on_c, 9, 38, 31
2, 2333, Control_c, 9, 4, 0
2, 2395, Note_on_c, 9, 38, 0
2, 2408, Note_on_c, 9, 46, 13
2, 2413, Control_c, 9, 16, 127
2, 2413, Note_on_c, 9, 38, 52
2, 2421, Note_on_c, 9, 44, 127
2, 2426, Control_c, 9, 4, 110
2, 2462, Control_c, 9, 4, 59
2, 2489, Note_on_c, 9, 46, 0
2, 2494, Control_c, 9, 4, 0
2, 2494, Note_on_c, 9, 38, 0
2, 2502, Note_on_c, 9, 44, 0
2, 2504, Control_c, 9, 16, 0
2, 2505, Note_on_c, 9, 38, 8
2, 2524, Note_on_c, 9, 36, 47
2, 2586, Note_on_c, 9, 38, 0
2, 2608, Note_on_c, 9, 36, 0
2, 2634, Note_on_c, 9, 36, 64
2, 2652, Control_c, 9, 17, 77
2, 2652, Note_on_c, 9, 51, 88
2, 2716, Note_on_c, 9, 36, 0
2, 2732, Note_on_c, 9, 38, 32
2, 2733, Note_on_c, 9, 51, 0
2, 2788, Control_c, 9, 16, 0
2, 2789, Note_on_c, 9, 38, 0
2, 2789, Note_on_c, 9, 38, 33
2, 2813, Note_on_c, 9, 38, 0
2, 2840, Note_on_c, 9, 38, 53
2, 2869, Note_on_c, 9, 38, 0
2, 2892, Control_c, 9, 16, 0
2, 2892, Note_on_c, 9, 38, 56
2, 2904, Control_c, 9, 4, 61
2, 2916, Note_on_c, 9, 46, 41
2, 2918, Note_on_c, 9, 44, 41
2, 2921, Note_on_c, 9, 38, 0
2, 2941, Control_c, 9, 4, 69
2, 2987, Control_c, 9, 4, 30
2, 2998, Note_on_c, 9, 44, 0
2, 2998, Note_on_c, 9, 46, 0
2, 3000, Control_c, 9, 16, 106
2, 3000, Note_on_c, 9, 38, 54
2, 3022, Control_c, 9, 4, 0
2, 3082, Note_on_c, 9, 38, 0
2, 3110, Control_c, 9, 4, 60
2, 3117, Note_on_c, 9, 44, 54
2, 3127, Control_c, 9, 16, 42
2, 3128, Note_on_c, 9, 38, 59
2, 3142, Control_c, 9, 4, 89
2, 3198, Note_on_c, 9, 44, 0
2, 3210, Note_on_c, 9, 38, 0
2, 3246, Control_c, 9, 16, 0
2, 3246, Note_on_c, 9, 38, 46
2, 3309, Control_c, 9, 4, 85
2, 3327, Note_on_c, 9, 38, 0
2, 3363, Control_c, 9, 17, 33
2, 3363, Note_on_c, 9, 51, 93
2, 3367, Note_on_c, 9, 36, 75
2, 3446, Note_on_c, 9, 51, 0
2, 3449, Note_on_c, 9, 36, 0
2, 3593, Note_on_c, 9, 38, 61
2, 3594, Control_c, 9, 4, 90
2, 3600, Note_on_c, 9, 55, 49
2, 3601, Note_on_c, 9, 36, 86
2, 3643, Control_c, 9, 4, 108
2, 3675, Note_on_c, 9, 38, 0
2, 3682, Note_on_c, 9, 36, 0
2, 3682, Note_on_c, 9, 55, 0
2, 3686, Control_c, 9, 4, 92
2, 3722, Control_c, 9, 4, 75
2, 3760, Control_c, 9, 4, 0
2, 3824, Note_on_c, 9, 46, 17
2, 3834, Control_c, 9, 4, 34
2, 3840, Note_on_c, 9, 44, 127
2, 3845, Control_c, 9, 17, 5
2, 3845, Note_on_c, 9, 51, 70
2, 3865, Control_c, 9, 4, 89
2, 3903, Control_c, 9, 4, 0
2, 3906, Note_on_c, 9, 46, 0
2, 3921, Note_on_c, 9, 44, 0
2, 3926, Note_on_c, 9, 51, 0
2, 3960, Control_c, 9, 16, 0
2, 3961, Note_on_c, 9, 38, 30
2, 4023, Control_c, 9, 4, 21
2, 4043, Note_on_c, 9, 38, 0
2, 4068, Control_c, 9, 4, 11
2, 4085, Control_c, 9, 17, 28
2, 4085, Note_on_c, 9, 51, 127
2, 4118, Note_on_c, 9, 38, 9
2, 4123, Control_c, 9, 4, 23
2, 4165, Control_c, 9, 4, 48
2, 4167, Note_on_c, 9, 51, 0
2, 4197, Control_c, 9, 4, 39
2, 4200, Note_on_c, 9, 38, 0
2, 4204, Note_on_c, 9, 36, 38
2, 4237, Control_c, 9, 4, 0
2, 4287, Note_on_c, 9, 36, 0
2, 4322, Control_c, 9, 4, 64
2, 4327, Note_on_c, 9, 44, 54
2, 4328, Note_on_c, 9, 46, 58
2, 4329, Control_c, 9, 16, 0
2, 4330, Note_on_c, 9, 36, 77
2, 4330, Note_on_c, 9, 40, 48
2, 4352, Control_c, 9, 4, 89
2, 4409, Note_on_c, 9, 44, 0
2, 4410, Note_on_c, 9, 36, 0
2, 4410, Note_on_c, 9, 40, 0
2, 4410, Note_on_c, 9, 46, 0
2, 4448, Control_c, 9, 18, 0
2, 4448, Note_on_c, 9, 48, 46
2, 4530, Note_on_c, 9, 48, 0
2, 4565, Note_on_c, 9, 38, 38
2, 4606, Control_c, 9, 4, 120
2, 4647, Note_on_c, 9, 38, 0
2, 4649, Control_c, 9, 4, 110
2, 4683, Control_c, 9, 4, 77
2, 4711, Note_on_c, 9, 36, 92
2, 4719, Control_c, 9, 4, 0
2, 4791, Note_on_c, 9, 46, 29
2, 4793, Note_on_c, 9, 36, 0
2, 4812, Control_c, 9, 4, 34
2, 4816, Control_c, 9, 16, 0
2, 4816, Note_on_c, 9, 38, 37
2, 4818, Note_on_c, 9, 44, 127
2, 4843, Control_c, 9, 4, 82
2, 4873, Note_on_c, 9, 46, 0
2, 4883, Control_c, 9, 4, 12
2, 4898, Note_on_c, 9, 38, 0
2, 4898, Note_on_c, 9, 44, 0
2, 4925, Control_c, 9, 4, 33
2, 4940, Control_c, 9, 16, 42
2, 4941, Note_on_c, 9, 38, 67
2, 4958, Control_c, 9, 4, 69
2, 4959, Note_on_c, 9, 46, 15
2, 5023, Note_on_c, 9, 38, 0
2, 5024, Control_c, 9, 4, 58
2, 5041, Note_on_c, 9, 46, 0
2, 5050, Note_on_c, 9, 36, 83
2, 5059, Note_on_c, 9, 59, 65
2, 5070, Control_c, 9, 4, 54
2, 5109, Control_c, 9, 4, 39
2, 5132, Note_on_c, 9, 36, 0
2, 5141, Note_on_c, 9, 59, 0
2, 5145, Control_c, 9, 4, 0
2, 5285, Control_c, 9, 16, 127
2, 5285, Note_on_c, 9, 38, 77
2, 5291, Note_on_c, 9, 46, 49
2, 5293, Note_on_c, 9, 44, 67
2, 5298, Control_c, 9, 17, 8
2, 5298, Note_on_c, 9, 51, 78
2, 5301, Control_c, 9, 4, 90
2, 5335, Control_c, 9, 17, 8
2, 5336, Note_on_c, 9, 51, 0
2, 5336, Note_on_c, 9, 51, 41
2, 5341, Control_c, 9, 4, 82
2, 5367, Note_on_c, 9, 38, 0
2, 5373, Note_on_c, 9, 44, 0
2, 5373, Note_on_c, 9, 46, 0
2, 5380, Note_on_c, 9, 51, 0
2, 5533, Note_on_c, 9, 55, 56
2, 5541, Note_on_c, 9, 36, 91
2, 5556, Control_c, 9, 4, 112
2, 5614, Note_on_c, 9, 55, 0
2, 5619, Control_c, 9, 4, 91
2, 5623, Note_on_c, 9, 36, 0
2, 5652, Control_c, 9, 4, 73
2, 5653, Note_on_c, 9, 46, 6
2, 5690, Control_c, 9, 4, 0
2, 5734, Note_on_c, 9, 46, 0
2, 5758, Note_on_c, 9, 46, 17
2, 5768, Note_on_c, 9, 44, 127
2, 5774, Control_c, 9, 17, 0
2, 5775, Note_on_c, 9, 51, 86
2, 5784, Control_c, 9, 4, 92
2, 5818, Control_c, 9, 4, 43
2, 5839, Note_on_c, 9, 46, 0
2, 5849, Control_c, 9, 4, 10
2, 5850, Note_on_c, 9, 44, 0
2, 5857, Note_on_c, 9, 51, 0
2, 5879, Control_c, 9, 4, 29
2, 5890, Control_c, 9, 16, 0
2, 5890, Note_on_c, 9, 38, 33
2, 5916, Control_c, 9, 4, 61
2, 5962, Control_c, 9, 4, 54
2, 5973, Note_on_c, 9, 38, 0
2, 6000, Control_c, 9, 4, 42
2, 6013, Note_on_c, 9, 59, 109
2, 6094, Note_on_c, 9, 59, 0
2, 6129, Note_on_c, 9, 36, 57
2, 6211, Note_on_c, 9, 36, 0
2, 6244, Note_on_c, 9, 36, 69
2, 6246, Control_c, 9, 4, 37
2, 6289, Control_c, 9, 4, 24
2, 6325, Note_on_c, 9, 36, 0
2, 6327, Control_c, 9, 4, 0
2, 6371, Note_on_c, 9, 48, 60
2, 6450, Control_c, 9, 4, 64
2, 6452, Note_on_c, 9, 48, 0
2, 6456, Note_on_c, 9, 44, 74
2, 6481, Control_c, 9, 4, 88
2, 6488, Note_on_c, 9, 38, 41
2, 6538, Note_on_c, 9, 44, 0
2, 6540, Control_c, 9, 4, 114
2, 6571, Note_on_c, 9, 38, 0
2, 6587, Control_c, 9, 4, 94
2, 6617, Control_c, 9, 4, 80
2, 6626, Note_on_c, 9, 36, 83
2, 6658, Control_c, 9, 4, 0
2, 6708, Note_on_c, 9, 36, 0
2, 6732, Note_on_c, 9, 46, 8
2, 6741, Note_on_c, 9, 44, 127
2, 6744, Control_c, 9, 16, 0
2, 6745, Note_on_c, 9, 38, 48
2, 6746, Control_c, 9, 4, 114
2, 6783, Control_c, 9, 4, 57
2, 6812, Note_on_c, 9, 46, 0
2, 6818, Control_c, 9, 4, 5
2, 6824, Note_on_c, 9, 44, 0
2, 6825, Note_on_c, 9, 38, 0
2, 6850, Control_c, 9, 4, 27
2, 6877, Note_on_c, 9, 40, 89
2, 6885, Control_c, 9, 4, 62
2, 6959, Note_on_c, 9, 40, 0
2, 6960, Control_c, 9, 4, 56
2, 6974, Note_on_c, 9, 36, 80
2, 6991, Control_c, 9, 4, 50
2, 7022, Control_c, 9, 4, 32
2, 7056, Note_on_c, 9, 36, 0
2, 7057, Control_c, 9, 4, 0
2, 7105, Control_c, 9, 16, 0
2, 7106, Note_on_c, 9, 38, 33
2, 7189, Note_on_c, 9, 38, 0
2, 7189, Note_on_c, 9, 44, 74
2, 7198, Control_c, 9, 4, 90
2, 7224, Control_c, 9, 18, 0
2, 7224, Note_on_c, 9, 45, 121
2, 7238, Control_c, 9, 4, 84
2, 7270, Note_on_c, 9, 44, 0
2, 7305, Note_on_c, 9, 45, 0
2, 7450, Note_on_c, 9, 38, 64
2, 7455, Note_on_c, 9, 55, 69
2, 7474, Control_c, 9, 4, 97
2, 7513, Control_c, 9, 4, 110
2, 7531, Note_on_c, 9, 38, 0
2, 7536, Note_on_c, 9, 55, 0
2, 7557, Control_c, 9, 4, 91
2, 7591, Control_c, 9, 4, 70
2, 7623, Control_c, 9, 4, 0
2, 7624, End_track
0, 0, End_of_file
