0, 0, Header, 1, 2, 480
1, 0, Start_track
1, 0, Tempo, 588235
1, 0, Time_signature, 4, 2, 24, 8
1, 0, Key_signature, 0, "major"
1, 1, End_track
2, 0, Start_track
2, 0, Title_t, "Classic Studio Kit"
2, 0, Program_c, 9, 0
2, 0, Control_c, 9, 16, 0
2, 4, Control_c, 9, 4, 36
2, 10, Note_on_c, 9, 44, 127
2, 18, Control_c, 9, 17, 46
2, 19, Note_on_c, 9, 51, 56
2, 27, Note_on_c, 9, 48, 77
2, 35, Control_c, 9, 4, 120
2, 66, Control_c, 9, 4, 112
2, 91, Note_on_c, 9, 44, 0
2, 99, Control_c, 9, 4, 92
2, 100, Note_on_c, 9, 51, 0
2, 108, Note_on_c, 9, 48, 0
2, 131, Control_c, 9, 17, 0
2, 131, Note_on_c, 9, 51, 72
2, 213, Note_on_c, 9, 51, 0
2, 232, Control_c, 9, 4, 98
2, 237, Control_c, 9, 16, 64
2, 237, Note_on_c, 9, 38, 81
2, 257, Note_on_c, 9, 36, 60
2, 283, Control_c, 9, 4, 92
2, 319, Note_on_c, 9, 38, 0
2, 340, Note_on_c, 9, 36, 0
2, 458, Control_c, 9, 4, 88
2, 485, Control_c, 9, 16, 0
2, 486, Control_c, 9, 17, 4
2, 486, Note_on_c, 9, 38, 77
2, 486, Note_on_c, 9, 51, 97
2, 493, Note_on_c, 9, 36, 76
2, 494, Control_c, 9, 17, 0
2, 494, Note_on_c, 9, 51, 103
2, 496, Note_on_c, 9, 36, 84
2, 504, Control_c, 9, 16, 0
2, 505, Note_on_c, 9, 38, 74
2, 509, Control_c, 9, 4, 96
2, 520, Control_c, 9, 4, 92
2, 568, Note_on_c, 9, 38, 0
2, 568, Note_on_c, 9, 38, 0
2, 568, Note_on_c, 9, 51, 0
2, 568, Note_on_c, 9, 51, 0
2, 575, Note_on_c, 9, 36, 0
2, 575, Note_on_c, 9, 36, 0
2, 599, Control_c, 9, 4, 83
2, 599, Control_c, 9, 4, 85
2, 632, Control_c, 9, 4, 70
2, 634, Control_c, 9, 4, 70
2, 664, Control_c, 9, 4, 0
2, 671, Control_c, 9, 4, 0
2, 726, Control_c, 9, 4, 35
2, 731, Control_c, 9, 17, 32
2, 732, Note_on_c, 9, 51, 77
2, 733, Note_on_c, 9, 44, 127
2, 738, Control_c, 9, 4, 34
2, 744, Note_on_c, 9, 44, 127
2, 756, Control_c, 9, 4, 127
2, 756, Control_c, 9, 17, 30
2, 756, Note_on_c, 9, 51, 70
2, 769, Control_c, 9, 4, 120
2, 800, Control_c, 9, 4, 112
2, 804, Control_c, 9, 4, 94
2, 812, Note_on_c, 9, 51, 0
2, 812, Note_on_c, 9, 51, 0
2, 813, Note_on_c, 9, 44, 0
2, 813, Note_on_c, 9, 44, 0
2, 830, Control_c, 9, 4, 92
2, 845, Control_c, 9, 4, 83
2, 845, Note_on_c, 9, 48, 51
2, 848, Note_on_c, 9, 36, 68
2, 861, Control_c, 9, 4, 87
2, 863, Control_c, 9, 18, 0
2, 864, Note_on_c, 9, 48, 55
2, 884, Note_on_c, 9, 36, 76
2, 927, Note_on_c, 9, 48, 0
2, 927, Note_on_c, 9, 48, 0
2, 930, Note_on_c, 9, 36, 0
2, 930, Note_on_c, 9, 36, 0
2, 966, Control_c, 9, 17, 52
2, 967, Note_on_c, 9, 51, 56
2, 968, Control_c, 9, 4, 116
2, 977, Note_on_c, 9, 48, 72
2, 985, Control_c, 9, 17, 29
2, 985, Note_on_c, 9, 51, 64
2, 992, Control_c, 9, 4, 114
2, 994, Note_on_c, 9, 48, 77
2, 1023, Control_c, 9, 4, 100
2, 1048, Note_on_c, 9, 51, 0
2, 1048, Note_on_c, 9, 51, 0
2, 1058, Note_on_c, 9, 48, 0
2, 1058, Note_on_c, 9, 48, 0
2, 1061, Control_c, 9, 4, 85
2, 1080, Control_c, 9, 4, 90
2, 1093, Control_c, 9, 4, 70
2, 1101, Control_c, 9, 17, 6
2, 1101, Note_on_c, 9, 51, 78
2, 1109, Control_c, 9, 17, 2
2, 1109, Note_on_c, 9, 51, 79
2, 1110, Control_c, 9, 4, 71
2, 1127, Control_c, 9, 4, 0
2, 1144, Control_c, 9, 4, 0
2, 1182, Note_on_c, 9, 51, 0
2, 1182, Note_on_c, 9, 51, 0
2, 1194, Control_c, 9, 4, 33
2, 1199, Note_on_c, 9, 44, 127
2, 1202, Note_on_c, 9, 36, 51
2, 1214, Note_on_c, 9, 46, 13
2, 1220, Control_c, 9, 4, 33
2, 1225, Control_c, 9, 4, 122
2, 1226, Note_on_c, 9, 46, 0
2, 1226, Note_on_c, 9, 46, 76
2, 1228, Note_on_c, 9, 44, 127
2, 1229, Note_on_c, 9, 36, 67
2, 1242, Note_on_c, 9, 49, 6
2, 1251, Control_c, 9, 4, 122
2, 1261, Control_c, 9, 4, 98
2, 1281, Note_on_c, 9, 44, 0
2, 1281, Note_on_c, 9, 44, 0
2, 1283, Note_on_c, 9, 36, 0
2, 1283, Note_on_c, 9, 36, 0
2, 1290, Control_c, 9, 4, 104
2, 1295, Note_on_c, 9, 46, 0
2, 1300, Control_c, 9, 4, 85
2, 1324, Note_on_c, 9, 49, 0
2, 1327, Control_c, 9, 4, 73
2, 1370, Control_c, 9, 4, 89
2, 1371, Control_c, 9, 4, 0
2, 1441, Note_on_c, 9, 46, 8
2, 1447, Note_on_c, 9, 36, 85
2, 1450, Control_c, 9, 4, 34
2, 1457, Note_on_c, 9, 44, 113
2, 1462, Control_c, 9, 17, 0
2, 1462, Note_on_c, 9, 36, 90
2, 1462, Note_on_c, 9, 51, 112
2, 1464, Control_c, 9, 17, 0
2, 1464, Note_on_c, 9, 51, 103
2, 1465, Control_c, 9, 16, 21
2, 1466, Note_on_c, 9, 38, 72
2, 1476, Control_c, 9, 4, 93
2, 1476, Note_on_c, 9, 38, 77
2, 1482, Control_c, 9, 4, 100
2, 1523, Note_on_c, 9, 46, 0
2, 1529, Note_on_c, 9, 36, 0
2, 1529, Note_on_c, 9, 36, 0
2, 1532, Control_c, 9, 4, 92
2, 1539, Note_on_c, 9, 44, 0
2, 1544, Note_on_c, 9, 51, 0
2, 1544, Note_on_c, 9, 51, 0
2, 1547, Note_on_c, 9, 38, 0
2, 1547, Note_on_c, 9, 38, 0
2, 1565, Control_c, 9, 4, 87
2, 1578, Control_c, 9, 4, 79
2, 1600, Control_c, 9, 4, 73
2, 1645, Control_c, 9, 4, 0
2, 1678, Control_c, 9, 4, 89
2, 1696, Control_c, 9, 4, 32
2, 1702, Note_on_c, 9, 44, 113
2, 1704, Control_c, 9, 17, 2
2, 1705, Note_on_c, 9, 51, 79
2, 1713, Control_c, 9, 17, 16
2, 1714, Note_on_c, 9, 51, 79
2, 1717, Control_c, 9, 4, 110
2, 1727, Control_c, 9, 4, 120
2, 1771, Control_c, 9, 4, 96
2, 1775, Control_c, 9, 4, 91
2, 1784, Note_on_c, 9, 44, 0
2, 1785, Note_on_c, 9, 51, 0
2, 1785, Note_on_c, 9, 51, 0
2, 1810, Control_c, 9, 4, 85
2, 1812, Control_c, 9, 4, 74
2, 1822, Control_c, 9, 18, 0
2, 1822, Note_on_c, 9, 48, 51
2, 1829, Note_on_c, 9, 36, 68
2, 1831, Note_on_c, 9, 48, 57
2, 1833, Note_on_c, 9, 36, 71
2, 1855, Control_c, 9, 4, 0
2, 1905, Note_on_c, 9, 48, 0
2, 1905, Note_on_c, 9, 48, 0
2, 1910, Control_c, 9, 17, 9
2, 1910, Note_on_c, 9, 51, 65
2, 1912, Note_on_c, 9, 36, 0
2, 1912, Note_on_c, 9, 36, 0
2, 1925, Note_on_c, 9, 46, 7
2, 1931, Control_c, 9, 4, 102
2, 1937, Note_on_c, 9, 44, 127
2, 1943, Control_c, 9, 4, 127
2, 1945, Control_c, 9, 18, 0
2, 1946, Note_on_c, 9, 48, 77
2, 1947, Control_c, 9, 17, 52
2, 1948, Note_on_c, 9, 51, 57
2, 1960, Note_on_c, 9, 48, 85
2, 1987, Control_c, 9, 4, 112
2, 1992, Note_on_c, 9, 51, 0
2, 1992, Note_on_c, 9, 51, 0
2, 2005, Note_on_c, 9, 46, 0
2, 2018, Note_on_c, 9, 44, 0
2, 2019, Control_c, 9, 4, 92
2, 2027, Note_on_c, 9, 48, 0
2, 2027, Note_on_c, 9, 48, 0
2, 2045, Control_c, 9, 4, 91
2, 2046, Control_c, 9, 17, 19
2, 2046, Note_on_c, 9, 51, 77
2, 2061, Control_c, 9, 17, 8
2, 2062, Note_on_c, 9, 51, 75
2, 2083, Control_c, 9, 4, 75
2, 2121, Note_on_c, 9, 46, 9
2, 2126, Control_c, 9, 4, 0
2, 2127, Note_on_c, 9, 51, 0
2, 2127, Note_on_c, 9, 51, 0
2, 2167, Control_c, 9, 4, 108
2, 2174, Control_c, 9, 4, 33
2, 2178, Note_on_c, 9, 46, 0
2, 2179, Note_on_c, 9, 46, 13
2, 2180, Note_on_c, 9, 44, 127
2, 2183, Note_on_c, 9, 36, 60
2, 2196, Note_on_c, 9, 36, 68
2, 2203, Note_on_c, 9, 46, 0
2, 2203, Note_on_c, 9, 49, 6
2, 2205, Control_c, 9, 4, 127
2, 2221, Note_on_c, 9, 49, 0
2, 2222, Note_on_c, 9, 49, 6
2, 2243, Control_c, 9, 4, 92
2, 2249, Control_c, 9, 4, 95
2, 2260, Note_on_c, 9, 44, 0
2, 2264, Note_on_c, 9, 36, 0
2, 2264, Note_on_c, 9, 36, 0
2, 2284, Control_c, 9, 4, 85
2, 2284, Note_on_c, 9, 49, 0
2, 2314, Control_c, 9, 4, 88
2, 2356, Control_c, 9, 4, 89
2, 2366, Control_c, 9, 4, 83
2, 2408, Control_c, 9, 4, 92
2, 2409, Control_c, 9, 4, 94
2, 2422, Note_on_c, 9, 36, 73
2, 2427, Control_c, 9, 16, 0
2, 2427, Note_on_c, 9, 38, 81
2, 2428, Control_c, 9, 17, 0
2, 2428, Note_on_c, 9, 51, 105
2, 2434, Note_on_c, 9, 36, 84
2, 2438, Control_c, 9, 4, 97
2, 2439, Control_c, 9, 17, 18
2, 2440, Note_on_c, 9, 51, 93
2, 2448, Control_c, 9, 16, 0
2, 2448, Note_on_c, 9, 38, 78
2, 2504, Note_on_c, 9, 36, 0
2, 2504, Note_on_c, 9, 36, 0
2, 2508, Note_on_c, 9, 38, 0
2, 2508, Note_on_c, 9, 38, 0
2, 2508, Note_on_c, 9, 51, 0
2, 2508, Note_on_c, 9, 51, 0
2, 2510, Control_c, 9, 4, 82
2, 2538, Control_c, 9, 4, 83
2, 2545, Control_c, 9, 4, 70
2, 2573, Control_c, 9, 4, 70
2, 2585, Control_c, 9, 4, 0
2, 2606, Control_c, 9, 4, 0
2, 2655, Control_c, 9, 4, 32
2, 2655, Note_on_c, 9, 46, 10
2, 2662, Control_c, 9, 4, 36
2, 2662, Note_on_c, 9, 44, 113
2, 2667, Control_c, 9, 17, 25
2, 2667, Note_on_c, 9, 44, 127
2, 2668, Note_on_c, 9, 51, 69
2, 2683, Control_c, 9, 17, 58
2, 2684, Note_on_c, 9, 51, 79
2, 2687, Control_c, 9, 4, 120
2, 2692, Control_c, 9, 4, 120
2, 2728, Control_c, 9, 4, 97
2, 2736, Note_on_c, 9, 46, 0
2, 2743, Control_c, 9, 4, 98
2, 2743, Note_on_c, 9, 44, 0
2, 2743, Note_on_c, 9, 44, 0
2, 2749, Note_on_c, 9, 51, 0
2, 2749, Note_on_c, 9, 51, 0
2, 2768, Control_c, 9, 4, 84
2, 2781, Control_c, 9, 4, 84
2, 2785, Note_on_c, 9, 48, 51
2, 2795, Note_on_c, 9, 36, 62
2, 2798, Control_c, 9, 18, 0
2, 2799, Note_on_c, 9, 48, 57
2, 2806, Note_on_c, 9, 36, 80
2, 2842, Control_c, 9, 4, 88
2, 2866, Note_on_c, 9, 48, 0
2, 2866, Note_on_c, 9, 48, 0
2, 2876, Note_on_c, 9, 36, 0
2, 2876, Note_on_c, 9, 36, 0
2, 2896, Control_c, 9, 4, 110
2, 2898, Control_c, 9, 17, 57
2, 2898, Note_on_c, 9, 51, 54
2, 2911, Note_on_c, 9, 48, 72
2, 2917, Control_c, 9, 17, 56
2, 2918, Note_on_c, 9, 51, 58
2, 2920, Control_c, 9, 4, 118
2, 2928, Note_on_c, 9, 48, 76
2, 2972, Control_c, 9, 4, 91
2, 2980, Note_on_c, 9, 51, 0
2, 2980, Note_on_c, 9, 51, 0
2, 2992, Note_on_c, 9, 48, 0
2, 2992, Note_on_c, 9, 48, 0
2, 2995, Control_c, 9, 4, 91
2, 3010, Control_c, 9, 4, 73
2, 3030, Control_c, 9, 4, 72
2, 3031, Control_c, 9, 17, 39
2, 3031, Note_on_c, 9, 51, 69
2, 3042, Control_c, 9, 17, 29
2, 3043, Note_on_c, 9, 51, 67
2, 3052, Control_c, 9, 4, 0
2, 3065, Control_c, 9, 4, 0
2, 3113, Note_on_c, 9, 51, 0
2, 3113, Note_on_c, 9, 51, 0
2, 3123, Note_on_c, 9, 46, 11
2, 3130, Control_c, 9, 4, 32
2, 3136, Note_on_c, 9, 44, 127
2, 3138, Note_on_c, 9, 46, 14
2, 3144, Control_c, 9, 4, 34
2, 3150, Note_on_c, 9, 44, 127
2, 3152, Note_on_c, 9, 36, 62
2, 3159, Note_on_c, 9, 36, 68
2, 3161, Control_c, 9, 4, 120
2, 3175, Control_c, 9, 4, 124
2, 3204, Note_on_c, 9, 46, 0
2, 3204, Note_on_c, 9, 46, 0
2, 3208, Control_c, 9, 4, 94
2, 3216, Note_on_c, 9, 44, 0
2, 3216, Note_on_c, 9, 44, 0
2, 3223, Control_c, 9, 4, 93
2, 3233, Note_on_c, 9, 36, 0
2, 3233, Note_on_c, 9, 36, 0
2, 3250, Control_c, 9, 4, 69
2, 3253, Control_c, 9, 4, 73
2, 3283, Control_c, 9, 4, 0
2, 3300, Control_c, 9, 4, 0
2, 3361, Note_on_c, 9, 46, 11
2, 3371, Control_c, 9, 4, 51
2, 3371, Note_on_c, 9, 46, 7
2, 3376, Note_on_c, 9, 44, 119
2, 3380, Control_c, 9, 4, 33
2, 3386, Control_c, 9, 17, 20
2, 3386, Note_on_c, 9, 44, 119
2, 3388, Note_on_c, 9, 51, 83
2, 3389, Control_c, 9, 16, 21
2, 3389, Note_on_c, 9, 38, 75
2, 3390, Note_on_c, 9, 36, 87
2, 3391, Note_on_c, 9, 36, 87
2, 3393, Control_c, 9, 17, 15
2, 3394, Note_on_c, 9, 51, 103
2, 3397, Control_c, 9, 16, 21
2, 3398, Note_on_c, 9, 38, 63
2, 3402, Control_c, 9, 4, 97
2, 3411, Control_c, 9, 4, 104
2, 3442, Note_on_c, 9, 46, 0
2, 3442, Note_on_c, 9, 46, 0
2, 3455, Control_c, 9, 4, 90
2, 3458, Note_on_c, 9, 44, 0
2, 3458, Note_on_c, 9, 44, 0
2, 3461, Control_c, 9, 4, 91
2, 3469, Note_on_c, 9, 38, 0
2, 3469, Note_on_c, 9, 38, 0
2, 3469, Note_on_c, 9, 51, 0
2, 3469, Note_on_c, 9, 51, 0
2, 3473, Note_on_c, 9, 36, 0
2, 3473, Note_on_c, 9, 36, 0
2, 3498, Control_c, 9, 4, 79
2, 3506, Control_c, 9, 4, 79
2, 3575, Control_c, 9, 4, 81
2, 3605, Control_c, 9, 4, 89
2, 3621, Control_c, 9, 17, 78
2, 3621, Note_on_c, 9, 51, 71
2, 3623, Control_c, 9, 4, 114
2, 3642, Control_c, 9, 4, 114
2, 3644, Control_c, 9, 17, 46
2, 3645, Note_on_c, 9, 51, 75
2, 3682, Control_c, 9, 4, 94
2, 3689, Control_c, 9, 4, 90
2, 3703, Note_on_c, 9, 51, 0
2, 3703, Note_on_c, 9, 51, 0
2, 3730, Control_c, 9, 4, 72
2, 3735, Control_c, 9, 18, 0
2, 3736, Note_on_c, 9, 48, 52
2, 3740, Control_c, 9, 4, 69
2, 3740, Note_on_c, 9, 36, 57
2, 3751, Note_on_c, 9, 36, 74
2, 3761, Note_on_c, 9, 48, 61
2, 3770, Control_c, 9, 4, 0
2, 3770, Control_c, 9, 4, 0
2, 3817, Note_on_c, 9, 48, 0
2, 3817, Note_on_c, 9, 48, 0
2, 3822, Note_on_c, 9, 36, 0
2, 3822, Note_on_c, 9, 36, 0
2, 3836, Note_on_c, 9, 46, 7
2, 3841, Control_c, 9, 17, 121
2, 3841, Note_on_c, 9, 46, 12
2, 3842, Note_on_c, 9, 51, 49
2, 3844, Control_c, 9, 4, 34
2, 3850, Note_on_c, 9, 44, 127
2, 3853, Note_on_c, 9, 44, 127
2, 3858, Control_c, 9, 4, 127
2, 3863, Control_c, 9, 18, 0
2, 3864, Note_on_c, 9, 48, 83
2, 3875, Control_c, 9, 4, 120
2, 3876, Control_c, 9, 17, 63
2, 3876, Note_on_c, 9, 51, 56
2, 3888, Note_on_c, 9, 48, 84
2, 3903, Control_c, 9, 4, 116
2, 3917, Note_on_c, 9, 46, 0
2, 3917, Note_on_c, 9, 46, 0
2, 3922, Note_on_c, 9, 51, 0
2, 3922, Note_on_c, 9, 51, 0
2, 3931, Note_on_c, 9, 44, 0
2, 3931, Note_on_c, 9, 44, 0
2, 3937, Control_c, 9, 4, 92
2, 3944, Control_c, 9, 4, 90
2, 3944, Note_on_c, 9, 48, 0
2, 3944, Note_on_c, 9, 48, 0
2, 3971, Control_c, 9, 17, 43
2, 3971, Note_on_c, 9, 51, 72
2, 4004, Control_c, 9, 17, 26
2, 4005, Note_on_c, 9, 51, 57
2, 4053, Note_on_c, 9, 51, 0
2, 4053, Note_on_c, 9, 51, 0
2, 4071, Control_c, 9, 4, 99
2, 4086, Control_c, 9, 4, 108
2, 4102, Note_on_c, 9, 36, 51
2, 4103, Note_on_c, 9, 36, 74
2, 4130, Control_c, 9, 4, 94
2, 4165, Control_c, 9, 4, 90
2, 4165, Control_c, 9, 4, 91
2, 4184, Note_on_c, 9, 36, 0
2, 4184, Note_on_c, 9, 36, 0
2, 4200, Control_c, 9, 4, 72
2, 4241, Control_c, 9, 4, 0
2, 4313, Note_on_c, 9, 46, 12
2, 4320, Control_c, 9, 4, 34
2, 4325, Note_on_c, 9, 44, 127
2, 4337, Note_on_c, 9, 36, 76
2, 4342, Control_c, 9, 17, 18
2, 4343, Note_on_c, 9, 51, 90
2, 4347, Control_c, 9, 16, 0
2, 4348, Note_on_c, 9, 36, 84
2, 4348, Note_on_c, 9, 38, 75
2, 4350, Note_on_c, 9, 38, 73
2, 4351, Control_c, 9, 4, 104
2, 4356, Control_c, 9, 17, 13
2, 4357, Note_on_c, 9, 51, 81
2, 4368, Control_c, 9, 4, 94
2, 4394, Note_on_c, 9, 46, 0
2, 4408, Note_on_c, 9, 44, 0
2, 4413, Control_c, 9, 4, 90
2, 4419, Note_on_c, 9, 36, 0
2, 4419, Note_on_c, 9, 36, 0
2, 4423, Note_on_c, 9, 51, 0
2, 4423, Note_on_c, 9, 51, 0
2, 4429, Note_on_c, 9, 38, 0
2, 4429, Note_on_c, 9, 38, 0
2, 4442, Control_c, 9, 4, 83
2, 4452, Control_c, 9, 4, 79
2, 4472, Control_c, 9, 4, 70
2, 4509, Control_c, 9, 4, 0
2, 4551, Control_c, 9, 4, 89
2, 4566, Control_c, 9, 4, 34
2, 4573, Note_on_c, 9, 44, 119
2, 4586, Control_c, 9, 4, 110
2, 4588, Control_c, 9, 17, 60
2, 4588, Note_on_c, 9, 51, 74
2, 4591, Control_c, 9, 17, 77
2, 4591, Note_on_c, 9, 51, 71
2, 4598, Control_c, 9, 4, 120
2, 4630, Control_c, 9, 4, 99
2, 4636, Control_c, 9, 4, 98
2, 4654, Note_on_c, 9, 44, 0
2, 4670, Control_c, 9, 4, 84
2, 4671, Note_on_c, 9, 51, 0
2, 4671, Note_on_c, 9, 51, 0
2, 4672, Control_c, 9, 4, 86
2, 4698, Note_on_c, 9, 48, 64
2, 4700, Control_c, 9, 4, 70
2, 4703, Control_c, 9, 18, 0
2, 4704, Note_on_c, 9, 48, 48
2, 4715, Note_on_c, 9, 36, 71
2, 4715, Note_on_c, 9, 36, 72
2, 4734, Control_c, 9, 4, 0
2, 4780, Note_on_c, 9, 48, 0
2, 4780, Note_on_c, 9, 48, 0
2, 4796, Note_on_c, 9, 36, 0
2, 4796, Note_on_c, 9, 36, 0
2, 4805, Control_c, 9, 4, 99
2, 4806, Control_c, 9, 4, 34
2, 4806, Control_c, 9, 17, 66
2, 4806, Note_on_c, 9, 51, 56
2, 4811, Note_on_c, 9, 44, 127
2, 4817, Control_c, 9, 17, 72
2, 4817, Note_on_c, 9, 51, 51
2, 4825, Note_on_c, 9, 48, 73
2, 4831, Control_c, 9, 18, 0
2, 4831, Note_on_c, 9, 48, 72
2, 4837, Control_c, 9, 4, 127
2, 4888, Note_on_c, 9, 51, 0
2, 4888, Note_on_c, 9, 51, 0
2, 4891, Control_c, 9, 4, 93
2, 4892, Note_on_c, 9, 44, 0
2, 4904, Control_c, 9, 4, 93
2, 4906, Note_on_c, 9, 48, 0
2, 4906, Note_on_c, 9, 48, 0
2, 4934, Control_c, 9, 17, 9
2, 4934, Note_on_c, 9, 51, 77
2, 4936, Control_c, 9, 4, 89
2, 4936, Control_c, 9, 17, 83
2, 4937, Note_on_c, 9, 51, 65
2, 4955, Control_c, 9, 4, 70
2, 4985, Control_c, 9, 4, 0
2, 5015, Note_on_c, 9, 51, 0
2, 5015, Note_on_c, 9, 51, 0
2, 5026, Control_c, 9, 4, 116
2, 5051, Control_c, 9, 4, 33
2, 5057, Note_on_c, 9, 36, 61
2, 5057, Note_on_c, 9, 44, 127
2, 5064, Note_on_c, 9, 36, 58
2, 5082, Control_c, 9, 4, 118
2, 5094, Control_c, 9, 4, 98
2, 5099, Note_on_c, 9, 49, 5
2, 5128, Control_c, 9, 4, 96
2, 5131, Control_c, 9, 4, 84
2, 5138, Note_on_c, 9, 36, 0
2, 5138, Note_on_c, 9, 36, 0
2, 5138, Note_on_c, 9, 44, 0
2, 5164, Control_c, 9, 4, 70
2, 5168, Control_c, 9, 4, 70
2, 5181, Note_on_c, 9, 49, 0
2, 5204, Control_c, 9, 4, 0
2, 5208, Control_c, 9, 4, 0
2, 5277, Note_on_c, 9, 44, 119
2, 5286, Control_c, 9, 4, 127
2, 5288, Control_c, 9, 4, 48
2, 5292, Note_on_c, 9, 44, 106
2, 5296, Control_c, 9, 17, 9
2, 5297, Note_on_c, 9, 51, 101
2, 5299, Control_c, 9, 17, 12
2, 5299, Note_on_c, 9, 51, 98
2, 5302, Control_c, 9, 16, 0
2, 5302, Note_on_c, 9, 36, 80
2, 5303, Note_on_c, 9, 38, 90
2, 5304, Note_on_c, 9, 36, 80
2, 5306, Note_on_c, 9, 38, 84
2, 5318, Control_c, 9, 4, 98
2, 5327, Control_c, 9, 4, 102
2, 5358, Note_on_c, 9, 44, 0
2, 5358, Note_on_c, 9, 44, 0
2, 5363, Control_c, 9, 4, 90
2, 5378, Note_on_c, 9, 51, 0
2, 5378, Note_on_c, 9, 51, 0
2, 5381, Note_on_c, 9, 36, 0
2, 5381, Note_on_c, 9, 36, 0
2, 5383, Note_on_c, 9, 38, 0
2, 5383, Note_on_c, 9, 38, 0
2, 5394, Control_c, 9, 4, 84
2, 5406, Control_c, 9, 4, 80
2, 5523, Control_c, 9, 4, 102
2, 5523, Control_c, 9, 4, 106
2, 5543, Control_c, 9, 17, 40
2, 5543, Note_on_c, 9, 51, 75
2, 5551, Control_c, 9, 17, 42
2, 5552, Note_on_c, 9, 51, 74
2, 5555, Control_c, 9, 4, 110
2, 5604, Control_c, 9, 4, 94
2, 5619, Control_c, 9, 4, 90
2, 5625, Note_on_c, 9, 51, 0
2, 5625, Note_on_c, 9, 51, 0
2, 5651, Control_c, 9, 4, 73
2, 5654, Control_c, 9, 4, 73
2, 5665, Control_c, 9, 18, 0
2, 5665, Control_c, 9, 18, 21
2, 5665, Note_on_c, 9, 36, 72
2, 5665, Note_on_c, 9, 48, 50
2, 5665, Note_on_c, 9, 48, 55
2, 5669, Note_on_c, 9, 36, 62
2, 5693, Control_c, 9, 4, 0
2, 5700, Control_c, 9, 4, 0
2, 5746, Note_on_c, 9, 48, 0
2, 5746, Note_on_c, 9, 48, 0
2, 5748, Note_on_c, 9, 36, 0
2, 5748, Note_on_c, 9, 36, 0
2, 5760, Control_c, 9, 17, 58
2, 5760, Note_on_c, 9, 51, 52
2, 5763, Note_on_c, 9, 46, 8
2, 5763, Note_on_c, 9, 46, 10
2, 5770, Control_c, 9, 4, 33
2, 5772, Control_c, 9, 4, 33
2, 5776, Note_on_c, 9, 44, 127
2, 5777, Note_on_c, 9, 44, 127
2, 5785, Control_c, 9, 17, 70
2, 5785, Note_on_c, 9, 51, 54
2, 5787, Control_c, 9, 18, 0
2, 5787, Note_on_c, 9, 48, 75
2, 5792, Note_on_c, 9, 48, 87
2, 5801, Control_c, 9, 4, 120
2, 5803, Control_c, 9, 4, 127
2, 5843, Note_on_c, 9, 51, 0
2, 5843, Note_on_c, 9, 51, 0
2, 5844, Note_on_c, 9, 46, 0
2, 5844, Note_on_c, 9, 46, 0
2, 5846, Control_c, 9, 4, 102
2, 5857, Note_on_c, 9, 44, 0
2, 5857, Note_on_c, 9, 44, 0
2, 5868, Control_c, 9, 4, 91
2, 5868, Note_on_c, 9, 48, 0
2, 5868, Note_on_c, 9, 48, 0
2, 5882, Control_c, 9, 4, 91
2, 5896, Control_c, 9, 17, 11
2, 5897, Note_on_c, 9, 51, 71
2, 5900, Control_c, 9, 4, 87
2, 5912, Control_c, 9, 17, 1
2, 5913, Note_on_c, 9, 51, 80
2, 5978, Note_on_c, 9, 51, 0
2, 5978, Note_on_c, 9, 51, 0
2, 5997, Control_c, 9, 4, 104
2, 6013, Control_c, 9, 4, 110
2, 6018, Note_on_c, 9, 36, 61
2, 6024, Note_on_c, 9, 36, 69
2, 6051, Control_c, 9, 4, 92
2, 6077, Control_c, 9, 4, 104
2, 6100, Note_on_c, 9, 36, 0
2, 6100, Note_on_c, 9, 36, 0
2, 6112, Control_c, 9, 4, 92
2, 6150, Control_c, 9, 4, 74
2, 6191, Control_c, 9, 4, 0
2, 6257, Control_c, 9, 4, 49
2, 6258, Note_on_c, 9, 36, 65
2, 6262, Note_on_c, 9, 44, 126
2, 6264, Control_c, 9, 17, 5
2, 6265, Note_on_c, 9, 51, 96
2, 6270, Note_on_c, 9, 36, 79
2, 6271, Control_c, 9, 16, 0
2, 6271, Note_on_c, 9, 38, 82
2, 6272, Control_c, 9, 17, 36
2, 6272, Note_on_c, 9, 38, 83
2, 6274, Note_on_c, 9, 51, 77
2, 6287, Control_c, 9, 4, 116
2, 6329, Control_c, 9, 4, 96
2, 6339, Note_on_c, 9, 36, 0
2, 6339, Note_on_c, 9, 36, 0
2, 6343, Note_on_c, 9, 44, 0
2, 6346, Note_on_c, 9, 51, 0
2, 6346, Note_on_c, 9, 51, 0
2, 6351, Note_on_c, 9, 38, 0
2, 6351, Note_on_c, 9, 38, 0
2, 6359, Control_c, 9, 4, 84
2, 6363, Control_c, 9, 4, 83
2, 6394, Control_c, 9, 4, 70
2, 6403, Control_c, 9, 4, 79
2, 6428, Control_c, 9, 4, 0
2, 6450, Control_c, 9, 4, 80
2, 6490, Control_c, 9, 4, 34
2, 6492, Control_c, 9, 4, 102
2, 6496, Note_on_c, 9, 44, 126
2, 6512, Control_c, 9, 17, 17
2, 6512, Note_on_c, 9, 51, 72
2, 6519, Control_c, 9, 17, 44
2, 6519, Note_on_c, 9, 51, 75
2, 6521, Control_c, 9, 4, 118
2, 6530, Control_c, 9, 4, 104
2, 6563, Control_c, 9, 4, 98
2, 6575, Control_c, 9, 4, 90
2, 6577, Note_on_c, 9, 44, 0
2, 6593, Note_on_c, 9, 51, 0
2, 6593, Note_on_c, 9, 51, 0
2, 6604, Control_c, 9, 4, 84
2, 6605, Control_c, 9, 4, 85
2, 6624, Control_c, 9, 18, 42
2, 6624, Note_on_c, 9, 48, 50
2, 6635, Control_c, 9, 4, 70
2, 6635, Control_c, 9, 18, 0
2, 6635, Note_on_c, 9, 36, 67
2, 6635, Note_on_c, 9, 48, 56
2, 6639, Note_on_c, 9, 36, 69
2, 6672, Control_c, 9, 4, 0
2, 6707, Note_on_c, 9, 48, 0
2, 6707, Note_on_c, 9, 48, 0
2, 6717, Note_on_c, 9, 36, 0
2, 6717, Note_on_c, 9, 36, 0
2, 6729, Control_c, 9, 17, 21
2, 6729, Note_on_c, 9, 51, 58
2, 6743, Control_c, 9, 4, 104
2, 6743, Note_on_c, 9, 44, 127
2, 6749, Control_c, 9, 4, 127
2, 6755, Note_on_c, 9, 48, 73
2, 6756, Control_c, 9, 17, 116
2, 6756, Note_on_c, 9, 51, 53
2, 6763, Note_on_c, 9, 48, 80
2, 6791, Control_c, 9, 4, 110
2, 6811, Note_on_c, 9, 51, 0
2, 6811, Note_on_c, 9, 51, 0
2, 6825, Note_on_c, 9, 44, 0
2, 6830, Control_c, 9, 4, 91
2, 6830, Control_c, 9, 4, 92
2, 6836, Note_on_c, 9, 48, 0
2, 6836, Note_on_c, 9, 48, 0
2, 6865, Control_c, 9, 17, 3
2, 6866, Note_on_c, 9, 51, 74
2, 6867, Control_c, 9, 4, 73
2, 6875, Control_c, 9, 17, 27
2, 6876, Note_on_c, 9, 51, 70
2, 6900, Control_c, 9, 4, 0
2, 6947, Note_on_c, 9, 51, 0
2, 6947, Note_on_c, 9, 51, 0
2, 6961, Control_c, 9, 4, 102
2, 6969, Note_on_c, 9, 46, 11
2, 6977, Control_c, 9, 4, 33
2, 6982, Note_on_c, 9, 36, 58
2, 6983, Note_on_c, 9, 44, 127
2, 6989, Note_on_c, 9, 36, 67
2, 7008, Control_c, 9, 4, 120
2, 7024, Note_on_c, 9, 49, 6
2, 7050, Control_c, 9, 4, 98
2, 7050, Note_on_c, 9, 46, 0
2, 7061, Control_c, 9, 4, 97
2, 7063, Note_on_c, 9, 36, 0
2, 7063, Note_on_c, 9, 36, 0
2, 7064, Note_on_c, 9, 44, 0
2, 7085, Control_c, 9, 4, 84
2, 7105, Note_on_c, 9, 49, 0
2, 7106, Control_c, 9, 4, 84
2, 7136, Control_c, 9, 4, 70
2, 7168, Control_c, 9, 4, 0
2, 7225, Note_on_c, 9, 36, 86
2, 7228, Control_c, 9, 4, 35
2, 7228, Control_c, 9, 4, 95
2, 7231, Control_c, 9, 17, 0
2, 7231, Note_on_c, 9, 51, 103
2, 7233, Control_c, 9, 16, 21
2, 7234, Note_on_c, 9, 38, 62
2, 7234, Note_on_c, 9, 44, 119
2, 7235, Control_c, 9, 17, 50
2, 7236, Note_on_c, 9, 51, 81
2, 7240, Note_on_c, 9, 36, 78
2, 7246, Note_on_c, 9, 38, 79
2, 7259, Control_c, 9, 4, 116
2, 7300, Control_c, 9, 4, 94
2, 7306, Note_on_c, 9, 36, 0
2, 7306, Note_on_c, 9, 36, 0
2, 7313, Note_on_c, 9, 51, 0
2, 7313, Note_on_c, 9, 51, 0
2, 7314, Note_on_c, 9, 38, 0
2, 7314, Note_on_c, 9, 38, 0
2, 7315, Note_on_c, 9, 44, 0
2, 7338, Control_c, 9, 4, 84
2, 7344, Control_c, 9, 4, 84
2, 7381, Control_c, 9, 4, 70
2, 7424, Control_c, 9, 4, 0
2, 7464, Control_c, 9, 4, 108
2, 7478, Control_c, 9, 4, 32
2, 7483, Control_c, 9, 17, 11
2, 7483, Control_c, 9, 17, 64
2, 7483, Note_on_c, 9, 51, 71
2, 7484, Note_on_c, 9, 51, 71
2, 7487, Note_on_c, 9, 44, 119
2, 7510, Control_c, 9, 4, 116
2, 7525, Control_c, 9, 4, 100
2, 7551, Control_c, 9, 4, 96
2, 7565, Note_on_c, 9, 51, 0
2, 7565, Note_on_c, 9, 51, 0
2, 7567, Control_c, 9, 4, 87
2, 7567, Note_on_c, 9, 44, 0
2, 7589, Control_c, 9, 4, 85
2, 7594, Note_on_c, 9, 36, 74
2, 7597, Control_c, 9, 4, 71
2, 7598, Control_c, 9, 18, 0
2, 7598, Note_on_c, 9, 48, 60
2, 7602, Control_c, 9, 18, 42
2, 7603, Note_on_c, 9, 48, 51
2, 7612, Note_on_c, 9, 36, 59
2, 7634, Control_c, 9, 4, 0
2, 7676, Note_on_c, 9, 36, 0
2, 7676, Note_on_c, 9, 36, 0
2, 7679, Note_on_c, 9, 48, 0
2, 7679, Note_on_c, 9, 48, 0
2, 7680, End_track
0, 0, End_of_file
