0, 0, Header, 1, 2, 480
1, 0, Start_track
1, 0, Tempo, 588235
1, 0, Time_signature, 4, 2, 24, 8
1, 0, Key_signature, 0, "major"
1, 1, End_track
2, 0, Start_track
2, 0, Title_t, "Classic Studio Kit"
2, 0, Program_c, 9, 0
2, 0, Control_c, 9, 18, 0
2, 20, Control_c, 9, 4, 112
2, 23, Control_c, 9, 17, 0
2, 24, Note_on_c, 9, 51, 40
2, 28, Note_on_c, 9, 48, 63
2, 75, Control_c, 9, 4, 100
2, 105, Note_on_c, 9, 51, 0
2, 109, Note_on_c, 9, 48, 0
2, 113, Control_c, 9, 4, 89
2, 145, Control_c, 9, 4, 73
2, 156, Control_c, 9, 17, 123
2, 157, Note_on_c, 9, 51, 70
2, 189, Control_c, 9, 4, 0
2, 238, Note_on_c, 9, 51, 0
2, 253, Control_c, 9, 4, 35
2, 259, Note_on_c, 9, 44, 126
2, 263, Note_on_c, 9, 36, 43
2, 284, Control_c, 9, 4, 116
2, 330, Control_c, 9, 17, 123
2, 331, Note_on_c, 9, 51, 5
2, 340, Note_on_c, 9, 44, 0
2, 344, Control_c, 9, 4, 90
2, 345, Note_on_c, 9, 36, 0
2, 376, Control_c, 9, 4, 85
2, 411, Note_on_c, 9, 51, 0
2, 485, Control_c, 9, 4, 96
2, 504, Note_on_c, 9, 36, 62
2, 511, Control_c, 9, 17, 46
2, 512, Note_on_c, 9, 51, 90
2, 516, Control_c, 9, 16, 0
2, 517, Note_on_c, 9, 38, 62
2, 586, Note_on_c, 9, 36, 0
2, 593, Note_on_c, 9, 51, 0
2, 598, Note_on_c, 9, 38, 0
2, 614, Control_c, 9, 4, 83
2, 646, Control_c, 9, 4, 70
2, 683, Control_c, 9, 4, 0
2, 742, Control_c, 9, 4, 35
2, 748, Note_on_c, 9, 44, 126
2, 764, Control_c, 9, 17, 102
2, 765, Note_on_c, 9, 51, 77
2, 773, Control_c, 9, 4, 120
2, 822, Control_c, 9, 4, 97
2, 830, Note_on_c, 9, 44, 0
2, 848, Note_on_c, 9, 51, 0
2, 864, Control_c, 9, 4, 84
2, 876, Note_on_c, 9, 36, 50
2, 877, Control_c, 9, 18, 0
2, 877, Note_on_c, 9, 48, 47
2, 957, Note_on_c, 9, 36, 0
2, 959, Note_on_c, 9, 48, 0
2, 977, Control_c, 9, 4, 108
2, 995, Control_c, 9, 17, 127
2, 995, Note_on_c, 9, 51, 54
2, 997, Note_on_c, 9, 48, 63
2, 1016, Control_c, 9, 4, 110
2, 1056, Control_c, 9, 4, 97
2, 1077, Note_on_c, 9, 48, 0
2, 1077, Note_on_c, 9, 51, 0
2, 1098, Control_c, 9, 4, 84
2, 1122, Control_c, 9, 17, 127
2, 1123, Note_on_c, 9, 51, 78
2, 1135, Control_c, 9, 4, 70
2, 1176, Control_c, 9, 4, 0
2, 1204, Note_on_c, 9, 51, 0
2, 1225, Control_c, 9, 4, 34
2, 1226, Note_on_c, 9, 36, 43
2, 1233, Note_on_c, 9, 44, 119
2, 1257, Control_c, 9, 4, 118
2, 1300, Control_c, 9, 4, 96
2, 1308, Note_on_c, 9, 36, 0
2, 1314, Note_on_c, 9, 44, 0
2, 1342, Control_c, 9, 4, 85
2, 1381, Control_c, 9, 17, 47
2, 1382, Note_on_c, 9, 51, 89
2, 1455, Control_c, 9, 4, 100
2, 1463, Note_on_c, 9, 51, 0
2, 1467, Note_on_c, 9, 36, 51
2, 1474, Control_c, 9, 16, 21
2, 1475, Note_on_c, 9, 38, 68
2, 1531, Control_c, 9, 4, 94
2, 1549, Note_on_c, 9, 36, 0
2, 1556, Note_on_c, 9, 38, 0
2, 1571, Control_c, 9, 4, 83
2, 1603, Control_c, 9, 4, 70
2, 1648, Control_c, 9, 4, 0
2, 1699, Control_c, 9, 4, 50
2, 1704, Note_on_c, 9, 44, 106
2, 1720, Control_c, 9, 17, 86
2, 1720, Note_on_c, 9, 51, 77
2, 1729, Control_c, 9, 4, 118
2, 1773, Control_c, 9, 4, 98
2, 1785, Note_on_c, 9, 44, 0
2, 1802, Note_on_c, 9, 51, 0
2, 1816, Control_c, 9, 4, 84
2, 1823, Note_on_c, 9, 36, 55
2, 1827, Control_c, 9, 18, 0
2, 1828, Note_on_c, 9, 48, 41
2, 1904, Note_on_c, 9, 36, 0
2, 1909, Note_on_c, 9, 48, 0
2, 1940, Control_c, 9, 4, 110
2, 1953, Note_on_c, 9, 48, 60
2, 1956, Control_c, 9, 17, 61
2, 1957, Note_on_c, 9, 51, 65
2, 1999, Control_c, 9, 4, 98
2, 2034, Note_on_c, 9, 48, 0
2, 2037, Note_on_c, 9, 51, 0
2, 2055, Control_c, 9, 4, 85
2, 2075, Control_c, 9, 17, 64
2, 2076, Note_on_c, 9, 51, 68
2, 2090, Control_c, 9, 4, 70
2, 2138, Control_c, 9, 4, 0
2, 2157, Note_on_c, 9, 51, 0
2, 2181, Control_c, 9, 4, 48
2, 2183, Note_on_c, 9, 36, 52
2, 2186, Note_on_c, 9, 44, 106
2, 2211, Control_c, 9, 4, 118
2, 2264, Note_on_c, 9, 36, 0
2, 2268, Note_on_c, 9, 44, 0
2, 2271, Control_c, 9, 4, 90
2, 2306, Control_c, 9, 4, 85
2, 2416, Control_c, 9, 4, 95
2, 2440, Control_c, 9, 16, 0
2, 2441, Control_c, 9, 17, 39
2, 2441, Note_on_c, 9, 38, 57
2, 2442, Note_on_c, 9, 36, 53
2, 2442, Note_on_c, 9, 51, 88
2, 2520, Control_c, 9, 4, 91
2, 2520, Note_on_c, 9, 38, 0
2, 2521, Note_on_c, 9, 51, 0
2, 2522, Note_on_c, 9, 36, 0
2, 2563, Control_c, 9, 4, 77
2, 2599, Control_c, 9, 4, 54
2, 2630, Control_c, 9, 4, 0
2, 2671, Control_c, 9, 4, 50
2, 2676, Note_on_c, 9, 44, 100
2, 2685, Control_c, 9, 17, 51
2, 2685, Note_on_c, 9, 51, 79
2, 2702, Control_c, 9, 4, 116
2, 2745, Control_c, 9, 4, 95
2, 2757, Note_on_c, 9, 44, 0
2, 2767, Note_on_c, 9, 51, 0
2, 2782, Control_c, 9, 4, 84
2, 2800, Control_c, 9, 18, 0
2, 2800, Note_on_c, 9, 48, 48
2, 2804, Note_on_c, 9, 36, 44
2, 2881, Note_on_c, 9, 48, 0
2, 2886, Note_on_c, 9, 36, 0
2, 2911, Control_c, 9, 4, 102
2, 2924, Control_c, 9, 17, 121
2, 2924, Note_on_c, 9, 51, 57
2, 2931, Note_on_c, 9, 48, 59
2, 2991, Control_c, 9, 4, 91
2, 3005, Note_on_c, 9, 51, 0
2, 3012, Note_on_c, 9, 48, 0
2, 3022, Control_c, 9, 4, 83
2, 3053, Control_c, 9, 17, 102
2, 3054, Note_on_c, 9, 51, 66
2, 3062, Control_c, 9, 4, 69
2, 3104, Control_c, 9, 4, 8
2, 3135, Note_on_c, 9, 51, 0
2, 3140, Control_c, 9, 4, 48
2, 3146, Note_on_c, 9, 36, 40
2, 3146, Note_on_c, 9, 44, 87
2, 3172, Control_c, 9, 4, 114
2, 3206, Control_c, 9, 4, 100
2, 3227, Note_on_c, 9, 44, 0
2, 3229, Note_on_c, 9, 36, 0
2, 3249, Control_c, 9, 4, 87
2, 3279, Control_c, 9, 17, 94
2, 3279, Note_on_c, 9, 51, 79
2, 3361, Note_on_c, 9, 51, 0
2, 3363, Control_c, 9, 4, 92
2, 3400, Note_on_c, 9, 36, 54
2, 3407, Note_on_c, 9, 38, 61
2, 3483, Note_on_c, 9, 36, 0
2, 3488, Note_on_c, 9, 38, 0
2, 3502, Control_c, 9, 4, 86
2, 3538, Control_c, 9, 4, 73
2, 3588, Control_c, 9, 4, 14
2, 3626, Control_c, 9, 4, 53
2, 3629, Control_c, 9, 17, 88
2, 3630, Note_on_c, 9, 51, 78
2, 3632, Note_on_c, 9, 44, 80
2, 3657, Control_c, 9, 4, 116
2, 3701, Control_c, 9, 4, 95
2, 3711, Note_on_c, 9, 51, 0
2, 3713, Note_on_c, 9, 44, 0
2, 3737, Control_c, 9, 4, 85
2, 3750, Control_c, 9, 18, 0
2, 3751, Note_on_c, 9, 48, 44
2, 3757, Note_on_c, 9, 36, 33
2, 3832, Note_on_c, 9, 48, 0
2, 3839, Note_on_c, 9, 36, 0
2, 3856, Control_c, 9, 4, 98
2, 3873, Control_c, 9, 17, 64
2, 3873, Note_on_c, 9, 51, 56
2, 3880, Note_on_c, 9, 48, 60
2, 3954, Note_on_c, 9, 51, 0
2, 3961, Note_on_c, 9, 48, 0
2, 3978, Control_c, 9, 4, 85
2, 4006, Control_c, 9, 17, 127
2, 4007, Note_on_c, 9, 51, 71
2, 4016, Control_c, 9, 4, 70
2, 4059, Control_c, 9, 4, 0
2, 4089, Note_on_c, 9, 51, 0
2, 4102, Note_on_c, 9, 36, 43
2, 4105, Control_c, 9, 4, 48
2, 4109, Note_on_c, 9, 44, 106
2, 4136, Control_c, 9, 4, 116
2, 4179, Control_c, 9, 4, 95
2, 4185, Note_on_c, 9, 36, 0
2, 4192, Note_on_c, 9, 44, 0
2, 4216, Control_c, 9, 4, 85
2, 4336, Control_c, 9, 4, 94
2, 4354, Note_on_c, 9, 36, 51
2, 4355, Control_c, 9, 17, 29
2, 4355, Note_on_c, 9, 51, 83
2, 4360, Control_c, 9, 16, 0
2, 4361, Note_on_c, 9, 38, 59
2, 4436, Note_on_c, 9, 36, 0
2, 4436, Note_on_c, 9, 51, 0
2, 4441, Note_on_c, 9, 38, 0
2, 4477, Control_c, 9, 4, 83
2, 4510, Control_c, 9, 4, 69
2, 4543, Control_c, 9, 4, 0
2, 4592, Control_c, 9, 4, 48
2, 4597, Note_on_c, 9, 44, 106
2, 4605, Control_c, 9, 17, 56
2, 4605, Note_on_c, 9, 51, 72
2, 4623, Control_c, 9, 4, 112
2, 4677, Control_c, 9, 4, 90
2, 4679, Note_on_c, 9, 44, 0
2, 4686, Note_on_c, 9, 51, 0
2, 4712, Control_c, 9, 4, 84
2, 4721, Note_on_c, 9, 36, 38
2, 4723, Control_c, 9, 18, 0
2, 4724, Note_on_c, 9, 48, 45
2, 4803, Control_c, 9, 4, 90
2, 4804, Note_on_c, 9, 36, 0
2, 4804, Note_on_c, 9, 48, 0
2, 4834, Control_c, 9, 4, 108
2, 4838, Control_c, 9, 17, 89
2, 4839, Note_on_c, 9, 51, 56
2, 4842, Note_on_c, 9, 48, 62
2, 4879, Control_c, 9, 4, 98
2, 4912, Control_c, 9, 4, 83
2, 4920, Note_on_c, 9, 51, 0
2, 4923, Note_on_c, 9, 48, 0
2, 4944, Control_c, 9, 4, 70
2, 4967, Control_c, 9, 17, 96
2, 4968, Note_on_c, 9, 51, 69
2, 4982, Control_c, 9, 4, 0
2, 5048, Note_on_c, 9, 51, 0
2, 5053, Note_on_c, 9, 46, 11
2, 5058, Note_on_c, 9, 36, 55
2, 5061, Control_c, 9, 4, 34
2, 5066, Note_on_c, 9, 44, 127
2, 5083, Control_c, 9, 17, 96
2, 5083, Note_on_c, 9, 51, 6
2, 5092, Control_c, 9, 4, 114
2, 5129, Control_c, 9, 4, 99
2, 5133, Note_on_c, 9, 46, 0
2, 5140, Note_on_c, 9, 36, 0
2, 5147, Note_on_c, 9, 44, 0
2, 5164, Note_on_c, 9, 51, 0
2, 5171, Control_c, 9, 4, 72
2, 5215, Control_c, 9, 4, 0
2, 5288, Note_on_c, 9, 46, 7
2, 5297, Control_c, 9, 4, 32
2, 5301, Control_c, 9, 17, 58
2, 5301, Note_on_c, 9, 51, 93
2, 5304, Note_on_c, 9, 44, 126
2, 5309, Note_on_c, 9, 36, 81
2, 5314, Control_c, 9, 16, 0
2, 5314, Note_on_c, 9, 38, 67
2, 5328, Control_c, 9, 4, 108
2, 5368, Note_on_c, 9, 46, 0
2, 5373, Control_c, 9, 4, 89
2, 5384, Note_on_c, 9, 51, 0
2, 5385, Note_on_c, 9, 44, 0
2, 5390, Note_on_c, 9, 36, 0
2, 5395, Note_on_c, 9, 38, 0
2, 5404, Control_c, 9, 4, 73
2, 5532, Control_c, 9, 4, 93
2, 5550, Control_c, 9, 17, 120
2, 5551, Note_on_c, 9, 51, 71
2, 5568, Control_c, 9, 4, 112
2, 5606, Control_c, 9, 4, 92
2, 5632, Note_on_c, 9, 51, 0
2, 5640, Control_c, 9, 4, 73
2, 5661, Note_on_c, 9, 36, 54
2, 5663, Control_c, 9, 18, 0
2, 5664, Note_on_c, 9, 48, 48
2, 5682, Control_c, 9, 4, 0
2, 5744, Note_on_c, 9, 36, 0
2, 5744, Note_on_c, 9, 48, 0
2, 5757, Note_on_c, 9, 46, 12
2, 5767, Control_c, 9, 17, 0
2, 5767, Note_on_c, 9, 51, 42
2, 5771, Note_on_c, 9, 44, 127
2, 5780, Control_c, 9, 4, 127
2, 5782, Note_on_c, 9, 48, 74
2, 5821, Control_c, 9, 4, 120
2, 5838, Note_on_c, 9, 46, 0
2, 5848, Note_on_c, 9, 51, 0
2, 5852, Note_on_c, 9, 44, 0
2, 5863, Note_on_c, 9, 48, 0
2, 5866, Control_c, 9, 4, 91
2, 5896, Control_c, 9, 17, 95
2, 5896, Note_on_c, 9, 51, 72
2, 5977, Note_on_c, 9, 51, 0
2, 5988, Control_c, 9, 4, 98
2, 6011, Note_on_c, 9, 36, 48
2, 6020, Control_c, 9, 4, 102
2, 6064, Control_c, 9, 4, 92
2, 6093, Note_on_c, 9, 36, 0
2, 6253, Note_on_c, 9, 36, 64
2, 6262, Control_c, 9, 17, 43
2, 6263, Note_on_c, 9, 51, 92
2, 6266, Control_c, 9, 16, 21
2, 6267, Note_on_c, 9, 38, 66
2, 6335, Note_on_c, 9, 36, 0
2, 6343, Note_on_c, 9, 51, 0
2, 6348, Control_c, 9, 4, 84
2, 6348, Note_on_c, 9, 38, 0
2, 6381, Control_c, 9, 4, 70
2, 6417, Control_c, 9, 4, 0
2, 6482, Control_c, 9, 4, 34
2, 6488, Note_on_c, 9, 44, 127
2, 6508, Control_c, 9, 17, 92
2, 6508, Note_on_c, 9, 51, 76
2, 6514, Control_c, 9, 4, 114
2, 6569, Note_on_c, 9, 44, 0
2, 6586, Control_c, 9, 4, 90
2, 6590, Note_on_c, 9, 51, 0
2, 6622, Control_c, 9, 18, 0
2, 6623, Note_on_c, 9, 48, 46
2, 6629, Note_on_c, 9, 36, 45
2, 6691, Control_c, 9, 4, 86
2, 6704, Note_on_c, 9, 48, 0
2, 6711, Note_on_c, 9, 36, 0
2, 6739, Control_c, 9, 17, 127
2, 6739, Note_on_c, 9, 51, 49
2, 6741, Control_c, 9, 4, 114
2, 6746, Note_on_c, 9, 48, 63
2, 6794, Control_c, 9, 4, 99
2, 6821, Note_on_c, 9, 51, 0
2, 6828, Note_on_c, 9, 48, 0
2, 6833, Control_c, 9, 4, 85
2, 6865, Control_c, 9, 4, 70
2, 6875, Control_c, 9, 17, 103
2, 6875, Note_on_c, 9, 51, 70
2, 6900, Control_c, 9, 4, 0
2, 6956, Note_on_c, 9, 51, 0
2, 6969, Control_c, 9, 4, 34
2, 6969, Note_on_c, 9, 36, 48
2, 6975, Note_on_c, 9, 44, 127
2, 7000, Control_c, 9, 4, 116
2, 7051, Note_on_c, 9, 36, 0
2, 7056, Control_c, 9, 4, 92
2, 7057, Note_on_c, 9, 44, 0
2, 7095, Control_c, 9, 4, 88
2, 7113, Control_c, 9, 17, 45
2, 7114, Note_on_c, 9, 51, 88
2, 7194, Note_on_c, 9, 51, 0
2, 7221, Control_c, 9, 4, 98
2, 7222, Note_on_c, 9, 36, 76
2, 7235, Control_c, 9, 16, 0
2, 7235, Note_on_c, 9, 38, 70
2, 7304, Note_on_c, 9, 36, 0
2, 7316, Note_on_c, 9, 38, 0
2, 7332, Control_c, 9, 4, 84
2, 7366, Control_c, 9, 4, 69
2, 7399, Control_c, 9, 4, 0
2, 7459, Control_c, 9, 4, 33
2, 7463, Control_c, 9, 17, 58
2, 7464, Note_on_c, 9, 51, 81
2, 7465, Note_on_c, 9, 44, 127
2, 7490, Control_c, 9, 4, 122
2, 7540, Control_c, 9, 4, 95
2, 7544, Note_on_c, 9, 51, 0
2, 7546, Note_on_c, 9, 44, 0
2, 7580, Control_c, 9, 18, 0
2, 7581, Control_c, 9, 4, 84
2, 7581, Note_on_c, 9, 48, 46
2, 7588, Note_on_c, 9, 36, 54
2, 7663, Note_on_c, 9, 48, 0
2, 7669, Note_on_c, 9, 36, 0
2, 7670, End_track
0, 0, End_of_file
