0, 0, Header, 1, 2, 480
1, 0, Start_track
1, 0, Tempo, 588235
1, 0, Time_signature, 4, 2, 24, 8
1, 0, Key_signature, 0, "major"
1, 1, End_track
2, 0, Start_track
2, 0, Title_t, "Classic Studio Kit"
2, 0, Program_c, 9, 0
2, 0, Control_c, 9, 16, 0
2, 10, Control_c, 9, 4, 100
2, 26, Control_c, 9, 16, 21
2, 27, Note_on_c, 9, 38, 59
2, 53, Control_c, 9, 4, 106
2, 104, Control_c, 9, 4, 91
2, 109, Note_on_c, 9, 38, 0
2, 137, Control_c, 9, 4, 71
2, 166, Control_c, 9, 16, 0
2, 166, Note_on_c, 9, 38, 19
2, 173, Control_c, 9, 4, 0
2, 248, Note_on_c, 9, 38, 0
2, 253, Note_on_c, 9, 44, 127
2, 258, Control_c, 9, 4, 127
2, 295, Control_c, 9, 4, 97
2, 328, Control_c, 9, 4, 91
2, 335, Note_on_c, 9, 44, 0
2, 369, Control_c, 9, 4, 86
2, 447, Control_c, 9, 4, 92
2, 504, Note_on_c, 9, 53, 82
2, 509, Note_on_c, 9, 36, 75
2, 509, Note_on_c, 9, 38, 86
2, 523, Control_c, 9, 4, 99
2, 584, Control_c, 9, 4, 92
2, 586, Note_on_c, 9, 53, 0
2, 589, Note_on_c, 9, 38, 0
2, 590, Note_on_c, 9, 36, 0
2, 610, Control_c, 9, 16, 0
2, 611, Note_on_c, 9, 38, 82
2, 620, Control_c, 9, 4, 72
2, 660, Control_c, 9, 4, 0
2, 692, Note_on_c, 9, 38, 0
2, 723, Control_c, 9, 4, 34
2, 729, Note_on_c, 9, 44, 126
2, 739, Control_c, 9, 17, 4
2, 740, Note_on_c, 9, 51, 78
2, 754, Control_c, 9, 4, 127
2, 791, Control_c, 9, 4, 110
2, 811, Note_on_c, 9, 44, 0
2, 821, Note_on_c, 9, 51, 0
2, 823, Control_c, 9, 4, 92
2, 862, Note_on_c, 9, 36, 76
2, 913, Control_c, 9, 4, 88
2, 944, Note_on_c, 9, 36, 0
2, 970, Control_c, 9, 4, 108
2, 973, Note_on_c, 9, 48, 82
2, 976, Control_c, 9, 17, 13
2, 976, Note_on_c, 9, 51, 87
2, 1055, Note_on_c, 9, 48, 0
2, 1058, Note_on_c, 9, 51, 0
2, 1077, Control_c, 9, 4, 81
2, 1113, Control_c, 9, 4, 0
2, 1198, Control_c, 9, 4, 33
2, 1203, Note_on_c, 9, 44, 127
2, 1215, Control_c, 9, 17, 79
2, 1215, Note_on_c, 9, 51, 83
2, 1229, Control_c, 9, 4, 83
2, 1260, Control_c, 9, 4, 30
2, 1285, Note_on_c, 9, 44, 0
2, 1294, Control_c, 9, 4, 29
2, 1297, Note_on_c, 9, 51, 0
2, 1330, Control_c, 9, 4, 69
2, 1331, Note_on_c, 9, 46, 6
2, 1414, Note_on_c, 9, 46, 0
2, 1436, Control_c, 9, 4, 63
2, 1456, Control_c, 9, 17, 5
2, 1457, Note_on_c, 9, 36, 89
2, 1457, Note_on_c, 9, 51, 100
2, 1474, Control_c, 9, 4, 47
2, 1492, Control_c, 9, 17, 5
2, 1493, Note_on_c, 9, 51, 0
2, 1493, Note_on_c, 9, 51, 54
2, 1514, Control_c, 9, 4, 0
2, 1538, Note_on_c, 9, 36, 0
2, 1538, Note_on_c, 9, 51, 0
2, 1572, Note_on_c, 9, 38, 49
2, 1643, Control_c, 9, 4, 64
2, 1648, Note_on_c, 9, 44, 67
2, 1653, Note_on_c, 9, 38, 0
2, 1673, Control_c, 9, 4, 90
2, 1700, Control_c, 9, 16, 0
2, 1701, Note_on_c, 9, 38, 34
2, 1720, Control_c, 9, 4, 110
2, 1729, Note_on_c, 9, 44, 0
2, 1769, Control_c, 9, 4, 98
2, 1782, Note_on_c, 9, 38, 0
2, 1809, Control_c, 9, 4, 70
2, 1826, Note_on_c, 9, 36, 85
2, 1841, Control_c, 9, 4, 0
2, 1909, Note_on_c, 9, 36, 0
2, 1918, Note_on_c, 9, 46, 11
2, 1926, Control_c, 9, 4, 34
2, 1932, Note_on_c, 9, 44, 127
2, 1936, Note_on_c, 9, 38, 30
2, 1957, Control_c, 9, 4, 86
2, 1994, Control_c, 9, 4, 33
2, 1999, Note_on_c, 9, 46, 0
2, 2012, Note_on_c, 9, 44, 0
2, 2017, Note_on_c, 9, 38, 0
2, 2041, Control_c, 9, 4, 70
2, 2056, Control_c, 9, 18, 0
2, 2057, Note_on_c, 9, 48, 79
2, 2138, Note_on_c, 9, 48, 0
2, 2148, Control_c, 9, 4, 62
2, 2178, Note_on_c, 9, 36, 80
2, 2191, Control_c, 9, 4, 33
2, 2233, Control_c, 9, 4, 0
2, 2260, Note_on_c, 9, 36, 0
2, 2305, Note_on_c, 9, 48, 43
2, 2360, Control_c, 9, 4, 62
2, 2369, Note_on_c, 9, 44, 41
2, 2388, Note_on_c, 9, 48, 0
2, 2394, Control_c, 9, 4, 82
2, 2423, Control_c, 9, 16, 0
2, 2424, Note_on_c, 9, 38, 67
2, 2428, Control_c, 9, 4, 89
2, 2451, Note_on_c, 9, 44, 0
2, 2466, Control_c, 9, 4, 102
2, 2505, Note_on_c, 9, 38, 0
2, 2513, Control_c, 9, 4, 95
2, 2544, Note_on_c, 9, 36, 68
2, 2553, Control_c, 9, 4, 70
2, 2587, Control_c, 9, 4, 0
2, 2626, Note_on_c, 9, 36, 0
2, 2651, Note_on_c, 9, 46, 10
2, 2659, Control_c, 9, 4, 33
2, 2664, Note_on_c, 9, 44, 127
2, 2665, Note_on_c, 9, 38, 34
2, 2690, Control_c, 9, 4, 83
2, 2731, Control_c, 9, 4, 42
2, 2732, Note_on_c, 9, 46, 0
2, 2745, Note_on_c, 9, 44, 0
2, 2746, Note_on_c, 9, 38, 0
2, 2773, Control_c, 9, 4, 70
2, 2785, Control_c, 9, 18, 0
2, 2786, Note_on_c, 9, 48, 60
2, 2868, Note_on_c, 9, 48, 0
2, 2898, Note_on_c, 9, 36, 77
2, 2915, Control_c, 9, 4, 66
2, 2951, Control_c, 9, 4, 46
2, 2980, Note_on_c, 9, 36, 0
2, 2983, Control_c, 9, 4, 0
2, 3024, Note_on_c, 9, 48, 39
2, 3086, Control_c, 9, 4, 16
2, 3100, Note_on_c, 9, 44, 74
2, 3106, Note_on_c, 9, 48, 0
2, 3117, Control_c, 9, 4, 102
2, 3121, Control_c, 9, 16, 0
2, 3121, Note_on_c, 9, 38, 69
2, 3150, Control_c, 9, 4, 116
2, 3184, Note_on_c, 9, 44, 0
2, 3202, Control_c, 9, 4, 96
2, 3204, Note_on_c, 9, 38, 0
2, 3244, Control_c, 9, 4, 70
2, 3246, Note_on_c, 9, 36, 68
2, 3278, Control_c, 9, 4, 0
2, 3329, Note_on_c, 9, 36, 0
2, 3355, Control_c, 9, 4, 34
2, 3357, Note_on_c, 9, 46, 15
2, 3360, Note_on_c, 9, 44, 127
2, 3367, Note_on_c, 9, 38, 32
2, 3385, Control_c, 9, 4, 84
2, 3415, Control_c, 9, 4, 24
2, 3437, Note_on_c, 9, 46, 0
2, 3440, Note_on_c, 9, 44, 0
2, 3447, Note_on_c, 9, 38, 0
2, 3452, Control_c, 9, 4, 21
2, 3484, Control_c, 9, 4, 68
2, 3484, Note_on_c, 9, 46, 13
2, 3493, Control_c, 9, 18, 0
2, 3494, Note_on_c, 9, 48, 57
2, 3566, Note_on_c, 9, 46, 0
2, 3575, Note_on_c, 9, 48, 0
2, 3603, Note_on_c, 9, 36, 77
2, 3609, Control_c, 9, 4, 63
2, 3659, Control_c, 9, 4, 48
2, 3685, Note_on_c, 9, 36, 0
2, 3695, Control_c, 9, 4, 0
2, 3736, Note_on_c, 9, 48, 42
2, 3811, Control_c, 9, 4, 48
2, 3817, Note_on_c, 9, 48, 0
2, 3819, Note_on_c, 9, 44, 80
2, 3839, Control_c, 9, 16, 0
2, 3840, Note_on_c, 9, 38, 67
2, 3844, Control_c, 9, 4, 94
2, 3880, Control_c, 9, 4, 114
2, 3900, Note_on_c, 9, 44, 0
2, 3921, Note_on_c, 9, 38, 0
2, 3934, Control_c, 9, 4, 94
2, 3973, Control_c, 9, 4, 69
2, 3976, Note_on_c, 9, 36, 74
2, 4003, Control_c, 9, 4, 0
2, 4058, Note_on_c, 9, 36, 0
2, 4072, Note_on_c, 9, 38, 19
2, 4074, Note_on_c, 9, 46, 9
2, 4079, Control_c, 9, 4, 33
2, 4084, Note_on_c, 9, 44, 127
2, 4110, Control_c, 9, 4, 78
2, 4141, Control_c, 9, 4, 23
2, 4154, Note_on_c, 9, 38, 0
2, 4154, Note_on_c, 9, 46, 0
2, 4165, Note_on_c, 9, 44, 0
2, 4178, Control_c, 9, 4, 20
2, 4209, Control_c, 9, 18, 0
2, 4209, Note_on_c, 9, 48, 65
2, 4216, Control_c, 9, 4, 69
2, 4217, Note_on_c, 9, 46, 9
2, 4263, Control_c, 9, 4, 63
2, 4292, Note_on_c, 9, 48, 0
2, 4297, Note_on_c, 9, 46, 0
2, 4317, Control_c, 9, 4, 59
2, 4332, Note_on_c, 9, 36, 78
2, 4350, Control_c, 9, 4, 44
2, 4387, Control_c, 9, 4, 0
2, 4414, Note_on_c, 9, 36, 0
2, 4457, Control_c, 9, 16, 0
2, 4457, Note_on_c, 9, 38, 22
2, 4523, Control_c, 9, 4, 48
2, 4531, Note_on_c, 9, 44, 67
2, 4539, Note_on_c, 9, 38, 0
2, 4556, Control_c, 9, 4, 90
2, 4569, Note_on_c, 9, 45, 85
2, 4590, Control_c, 9, 4, 97
2, 4613, Note_on_c, 9, 44, 0
2, 4624, Control_c, 9, 4, 106
2, 4651, Note_on_c, 9, 45, 0
2, 4668, Control_c, 9, 4, 91
2, 4700, Note_on_c, 9, 36, 80
2, 4702, Control_c, 9, 4, 70
2, 4735, Control_c, 9, 4, 0
2, 4782, Note_on_c, 9, 36, 0
2, 4801, Note_on_c, 9, 46, 14
2, 4811, Note_on_c, 9, 38, 28
2, 4813, Note_on_c, 9, 44, 127
2, 4827, Control_c, 9, 4, 96
2, 4862, Control_c, 9, 4, 44
2, 4882, Note_on_c, 9, 46, 0
2, 4892, Note_on_c, 9, 38, 0
2, 4892, Note_on_c, 9, 44, 0
2, 4900, Control_c, 9, 4, 32
2, 4933, Control_c, 9, 18, 0
2, 4934, Note_on_c, 9, 48, 69
2, 4935, Control_c, 9, 4, 69
2, 4935, Note_on_c, 9, 46, 8
2, 5015, Note_on_c, 9, 46, 0
2, 5015, Note_on_c, 9, 48, 0
2, 5029, Control_c, 9, 4, 63
2, 5059, Note_on_c, 9, 36, 78
2, 5086, Control_c, 9, 4, 36
2, 5117, Control_c, 9, 4, 0
2, 5141, Note_on_c, 9, 36, 0
2, 5183, Control_c, 9, 16, 0
2, 5184, Note_on_c, 9, 38, 19
2, 5257, Control_c, 9, 4, 65
2, 5262, Note_on_c, 9, 44, 67
2, 5265, Note_on_c, 9, 38, 0
2, 5287, Control_c, 9, 4, 91
2, 5287, Note_on_c, 9, 38, 35
2, 5329, Control_c, 9, 4, 108
2, 5342, Note_on_c, 9, 44, 0
2, 5367, Note_on_c, 9, 38, 0
2, 5386, Control_c, 9, 4, 91
2, 5419, Note_on_c, 9, 36, 76
2, 5422, Control_c, 9, 4, 71
2, 5458, Control_c, 9, 4, 0
2, 5502, Note_on_c, 9, 36, 0
2, 5521, Control_c, 9, 4, 34
2, 5526, Note_on_c, 9, 44, 127
2, 5534, Control_c, 9, 16, 0
2, 5534, Note_on_c, 9, 38, 25
2, 5551, Control_c, 9, 4, 76
2, 5589, Control_c, 9, 4, 30
2, 5609, Note_on_c, 9, 44, 0
2, 5615, Note_on_c, 9, 38, 0
2, 5646, Control_c, 9, 4, 69
2, 5646, Note_on_c, 9, 46, 7
2, 5662, Note_on_c, 9, 48, 43
2, 5725, Control_c, 9, 4, 65
2, 5728, Note_on_c, 9, 46, 0
2, 5742, Note_on_c, 9, 48, 0
2, 5773, Note_on_c, 9, 36, 80
2, 5780, Control_c, 9, 4, 45
2, 5819, Control_c, 9, 4, 0
2, 5855, Note_on_c, 9, 36, 0
2, 5889, Control_c, 9, 18, 0
2, 5889, Note_on_c, 9, 48, 38
2, 5949, Control_c, 9, 4, 64
2, 5954, Note_on_c, 9, 44, 61
2, 5970, Note_on_c, 9, 48, 0
2, 5980, Control_c, 9, 4, 89
2, 5990, Note_on_c, 9, 38, 56
2, 6036, Control_c, 9, 4, 104
2, 6036, Note_on_c, 9, 44, 0
2, 6072, Note_on_c, 9, 38, 0
2, 6095, Control_c, 9, 4, 90
2, 6122, Note_on_c, 9, 36, 74
2, 6125, Control_c, 9, 4, 70
2, 6162, Control_c, 9, 4, 0
2, 6203, Note_on_c, 9, 36, 0
2, 6227, Control_c, 9, 4, 35
2, 6233, Note_on_c, 9, 44, 127
2, 6248, Control_c, 9, 16, 0
2, 6248, Note_on_c, 9, 38, 30
2, 6258, Control_c, 9, 4, 79
2, 6296, Control_c, 9, 4, 33
2, 6315, Note_on_c, 9, 44, 0
2, 6330, Note_on_c, 9, 38, 0
2, 6345, Control_c, 9, 4, 67
2, 6361, Note_on_c, 9, 48, 73
2, 6443, Note_on_c, 9, 48, 0
2, 6457, Control_c, 9, 4, 63
2, 6476, Note_on_c, 9, 36, 76
2, 6487, Control_c, 9, 4, 58
2, 6522, Control_c, 9, 4, 41
2, 6554, Control_c, 9, 4, 0
2, 6558, Note_on_c, 9, 36, 0
2, 6603, Control_c, 9, 18, 0
2, 6604, Note_on_c, 9, 48, 38
2, 6679, Control_c, 9, 4, 50
2, 6686, Note_on_c, 9, 48, 0
2, 6687, Note_on_c, 9, 44, 74
2, 6712, Control_c, 9, 4, 91
2, 6717, Note_on_c, 9, 38, 65
2, 6755, Control_c, 9, 4, 108
2, 6769, Note_on_c, 9, 44, 0
2, 6798, Note_on_c, 9, 38, 0
2, 6812, Control_c, 9, 4, 91
2, 6834, Note_on_c, 9, 36, 68
2, 6847, Control_c, 9, 4, 72
2, 6886, Control_c, 9, 4, 0
2, 6917, Note_on_c, 9, 36, 0
2, 6953, Control_c, 9, 4, 32
2, 6956, Control_c, 9, 16, 0
2, 6957, Note_on_c, 9, 38, 31
2, 6959, Note_on_c, 9, 44, 127
2, 6984, Control_c, 9, 4, 80
2, 7021, Control_c, 9, 4, 31
2, 7038, Note_on_c, 9, 38, 0
2, 7040, Note_on_c, 9, 44, 0
2, 7077, Control_c, 9, 4, 69
2, 7078, Note_on_c, 9, 46, 7
2, 7081, Note_on_c, 9, 48, 51
2, 7161, Note_on_c, 9, 46, 0
2, 7161, Note_on_c, 9, 48, 0
2, 7198, Note_on_c, 9, 36, 77
2, 7201, Control_c, 9, 4, 63
2, 7254, Control_c, 9, 4, 46
2, 7280, Note_on_c, 9, 36, 0
2, 7288, Control_c, 9, 4, 0
2, 7312, Control_c, 9, 18, 0
2, 7313, Note_on_c, 9, 48, 36
2, 7394, Note_on_c, 9, 48, 0
2, 7401, Control_c, 9, 4, 49
2, 7407, Note_on_c, 9, 44, 80
2, 7426, Note_on_c, 9, 38, 60
2, 7433, Control_c, 9, 4, 92
2, 7488, Control_c, 9, 4, 102
2, 7490, Note_on_c, 9, 44, 0
2, 7507, Note_on_c, 9, 38, 0
2, 7543, Control_c, 9, 4, 89
2, 7557, Note_on_c, 9, 36, 73
2, 7575, Control_c, 9, 4, 72
2, 7613, Control_c, 9, 4, 0
2, 7640, Note_on_c, 9, 36, 0
2, 7675, Control_c, 9, 16, 0
2, 7676, End_track
0, 0, End_of_file
