0, 0, Header, 1, 2, 480
1, 0, Start_track
1, 0, Tempo, 588235
1, 0, Time_signature, 4, 2, 24, 8
1, 0, Key_signature, 0, "major"
1, 1, End_track
2, 0, Start_track
2, 0, Title_t, "Classic Studio Kit"
2, 0, Program_c, 9, 0
2, 0, Control_c, 9, 18, 0
2, 1, Control_c, 9, 4, 99
2, 17, Control_c, 9, 17, 83
2, 17, Note_on_c, 9, 51, 52
2, 20, Note_on_c, 9, 48, 60
2, 99, Note_on_c, 9, 51, 0
2, 101, Note_on_c, 9, 48, 0
2, 109, Control_c, 9, 4, 92
2, 150, Control_c, 9, 17, 109
2, 150, Note_on_c, 9, 51, 63
2, 154, Control_c, 9, 4, 78
2, 185, Control_c, 9, 4, 54
2, 216, Control_c, 9, 4, 0
2, 232, Note_on_c, 9, 51, 0
2, 254, Control_c, 9, 4, 49
2, 259, Note_on_c, 9, 44, 100
2, 260, Note_on_c, 9, 36, 46
2, 284, Control_c, 9, 4, 116
2, 324, Control_c, 9, 4, 96
2, 340, Note_on_c, 9, 44, 0
2, 343, Note_on_c, 9, 36, 0
2, 366, Control_c, 9, 4, 87
2, 473, Control_c, 9, 4, 92
2, 504, Control_c, 9, 17, 41
2, 504, Note_on_c, 9, 51, 81
2, 506, Note_on_c, 9, 36, 58
2, 513, Control_c, 9, 16, 0
2, 514, Control_c, 9, 4, 96
2, 514, Note_on_c, 9, 38, 61
2, 586, Note_on_c, 9, 51, 0
2, 588, Note_on_c, 9, 36, 0
2, 595, Note_on_c, 9, 38, 0
2, 607, Control_c, 9, 4, 84
2, 644, Control_c, 9, 4, 71
2, 693, Control_c, 9, 4, 0
2, 735, Control_c, 9, 4, 49
2, 739, Note_on_c, 9, 44, 93
2, 757, Control_c, 9, 17, 105
2, 758, Note_on_c, 9, 51, 62
2, 765, Control_c, 9, 4, 120
2, 808, Control_c, 9, 4, 97
2, 822, Note_on_c, 9, 44, 0
2, 840, Note_on_c, 9, 51, 0
2, 846, Control_c, 9, 4, 85
2, 865, Control_c, 9, 18, 0
2, 865, Note_on_c, 9, 48, 43
2, 878, Note_on_c, 9, 36, 47
2, 947, Note_on_c, 9, 48, 0
2, 961, Note_on_c, 9, 36, 0
2, 967, Control_c, 9, 4, 100
2, 974, Control_c, 9, 17, 67
2, 974, Note_on_c, 9, 51, 52
2, 993, Note_on_c, 9, 48, 59
2, 1056, Control_c, 9, 4, 95
2, 1056, Note_on_c, 9, 51, 0
2, 1074, Note_on_c, 9, 48, 0
2, 1103, Control_c, 9, 4, 83
2, 1114, Control_c, 9, 17, 127
2, 1115, Note_on_c, 9, 51, 63
2, 1152, Control_c, 9, 4, 54
2, 1186, Control_c, 9, 4, 0
2, 1196, Note_on_c, 9, 51, 0
2, 1218, Control_c, 9, 4, 49
2, 1224, Note_on_c, 9, 44, 93
2, 1234, Note_on_c, 9, 36, 42
2, 1249, Control_c, 9, 4, 116
2, 1291, Control_c, 9, 4, 95
2, 1306, Note_on_c, 9, 44, 0
2, 1315, Note_on_c, 9, 36, 0
2, 1328, Control_c, 9, 4, 85
2, 1452, Control_c, 9, 4, 95
2, 1474, Note_on_c, 9, 36, 49
2, 1477, Note_on_c, 9, 38, 73
2, 1478, Control_c, 9, 17, 49
2, 1479, Note_on_c, 9, 51, 84
2, 1556, Note_on_c, 9, 36, 0
2, 1556, Note_on_c, 9, 38, 0
2, 1559, Note_on_c, 9, 51, 0
2, 1576, Control_c, 9, 4, 83
2, 1613, Control_c, 9, 4, 70
2, 1657, Control_c, 9, 4, 0
2, 1702, Control_c, 9, 4, 49
2, 1708, Note_on_c, 9, 44, 100
2, 1719, Control_c, 9, 17, 126
2, 1719, Note_on_c, 9, 51, 63
2, 1733, Control_c, 9, 4, 120
2, 1773, Control_c, 9, 4, 98
2, 1790, Note_on_c, 9, 44, 0
2, 1800, Note_on_c, 9, 51, 0
2, 1813, Control_c, 9, 4, 87
2, 1841, Control_c, 9, 18, 0
2, 1841, Note_on_c, 9, 48, 43
2, 1846, Note_on_c, 9, 36, 43
2, 1923, Note_on_c, 9, 48, 0
2, 1928, Note_on_c, 9, 36, 0
2, 1936, Control_c, 9, 17, 89
2, 1937, Note_on_c, 9, 51, 52
2, 1939, Control_c, 9, 4, 98
2, 1952, Note_on_c, 9, 48, 53
2, 2018, Note_on_c, 9, 51, 0
2, 2034, Control_c, 9, 4, 92
2, 2034, Note_on_c, 9, 48, 0
2, 2070, Control_c, 9, 17, 127
2, 2070, Note_on_c, 9, 51, 70
2, 2086, Control_c, 9, 4, 78
2, 2118, Control_c, 9, 4, 54
2, 2150, Control_c, 9, 4, 0
2, 2152, Note_on_c, 9, 51, 0
2, 2186, Control_c, 9, 4, 49
2, 2191, Note_on_c, 9, 44, 93
2, 2201, Note_on_c, 9, 36, 51
2, 2216, Control_c, 9, 4, 116
2, 2258, Control_c, 9, 4, 95
2, 2272, Note_on_c, 9, 44, 0
2, 2282, Note_on_c, 9, 36, 0
2, 2300, Control_c, 9, 4, 85
2, 2419, Control_c, 9, 4, 95
2, 2420, Control_c, 9, 17, 35
2, 2421, Note_on_c, 9, 51, 82
2, 2428, Control_c, 9, 16, 0
2, 2429, Note_on_c, 9, 38, 90
2, 2443, Note_on_c, 9, 36, 53
2, 2503, Note_on_c, 9, 51, 0
2, 2510, Note_on_c, 9, 38, 0
2, 2525, Note_on_c, 9, 36, 0
2, 2535, Control_c, 9, 4, 84
2, 2571, Control_c, 9, 4, 70
2, 2620, Control_c, 9, 4, 0
2, 2661, Control_c, 9, 4, 49
2, 2666, Note_on_c, 9, 44, 93
2, 2675, Control_c, 9, 17, 71
2, 2676, Note_on_c, 9, 51, 63
2, 2691, Control_c, 9, 4, 118
2, 2748, Note_on_c, 9, 44, 0
2, 2750, Control_c, 9, 4, 90
2, 2757, Note_on_c, 9, 51, 0
2, 2782, Control_c, 9, 18, 0
2, 2782, Note_on_c, 9, 48, 42
2, 2783, Control_c, 9, 4, 85
2, 2802, Note_on_c, 9, 36, 48
2, 2863, Note_on_c, 9, 48, 0
2, 2885, Note_on_c, 9, 36, 0
2, 2898, Control_c, 9, 17, 65
2, 2898, Note_on_c, 9, 51, 53
2, 2899, Control_c, 9, 4, 100
2, 2906, Note_on_c, 9, 48, 59
2, 2980, Note_on_c, 9, 51, 0
2, 2982, Control_c, 9, 4, 95
2, 2987, Note_on_c, 9, 48, 0
2, 3031, Control_c, 9, 4, 83
2, 3038, Control_c, 9, 17, 84
2, 3039, Note_on_c, 9, 51, 68
2, 3080, Control_c, 9, 4, 54
2, 3111, Control_c, 9, 4, 0
2, 3120, Note_on_c, 9, 51, 0
2, 3150, Control_c, 9, 4, 49
2, 3155, Note_on_c, 9, 44, 93
2, 3159, Note_on_c, 9, 36, 53
2, 3181, Control_c, 9, 4, 114
2, 3213, Control_c, 9, 4, 102
2, 3237, Note_on_c, 9, 44, 0
2, 3240, Note_on_c, 9, 36, 0
2, 3248, Control_c, 9, 4, 88
2, 3356, Control_c, 9, 17, 39
2, 3357, Note_on_c, 9, 51, 75
2, 3373, Note_on_c, 9, 38, 64
2, 3376, Control_c, 9, 4, 94
2, 3404, Note_on_c, 9, 36, 61
2, 3439, Note_on_c, 9, 51, 0
2, 3453, Note_on_c, 9, 38, 0
2, 3486, Note_on_c, 9, 36, 0
2, 3497, Control_c, 9, 4, 83
2, 3534, Control_c, 9, 4, 70
2, 3581, Control_c, 9, 4, 0
2, 3618, Control_c, 9, 4, 32
2, 3621, Control_c, 9, 17, 50
2, 3622, Note_on_c, 9, 51, 77
2, 3626, Note_on_c, 9, 44, 87
2, 3652, Control_c, 9, 4, 120
2, 3696, Control_c, 9, 4, 97
2, 3704, Note_on_c, 9, 51, 0
2, 3709, Note_on_c, 9, 44, 0
2, 3732, Control_c, 9, 4, 87
2, 3734, Control_c, 9, 18, 0
2, 3734, Note_on_c, 9, 48, 42
2, 3760, Note_on_c, 9, 36, 45
2, 3816, Note_on_c, 9, 48, 0
2, 3843, Note_on_c, 9, 36, 0
2, 3850, Control_c, 9, 4, 96
2, 3860, Note_on_c, 9, 48, 56
2, 3891, Control_c, 9, 17, 51
2, 3891, Note_on_c, 9, 51, 60
2, 3892, Control_c, 9, 4, 100
2, 3933, Control_c, 9, 4, 95
2, 3942, Note_on_c, 9, 48, 0
2, 3973, Note_on_c, 9, 51, 0
2, 3985, Control_c, 9, 4, 83
2, 4015, Control_c, 9, 4, 70
2, 4031, Control_c, 9, 17, 65
2, 4032, Note_on_c, 9, 51, 47
2, 4056, Control_c, 9, 4, 0
2, 4109, Control_c, 9, 4, 49
2, 4113, Note_on_c, 9, 44, 106
2, 4114, Note_on_c, 9, 51, 0
2, 4115, Note_on_c, 9, 36, 52
2, 4139, Control_c, 9, 4, 116
2, 4177, Control_c, 9, 4, 102
2, 4195, Note_on_c, 9, 44, 0
2, 4197, Note_on_c, 9, 36, 0
2, 4208, Control_c, 9, 4, 88
2, 4331, Control_c, 9, 4, 94
2, 4349, Control_c, 9, 17, 39
2, 4350, Control_c, 9, 16, 0
2, 4350, Note_on_c, 9, 51, 85
2, 4352, Note_on_c, 9, 38, 69
2, 4357, Note_on_c, 9, 36, 58
2, 4431, Note_on_c, 9, 51, 0
2, 4432, Control_c, 9, 4, 89
2, 4432, Note_on_c, 9, 38, 0
2, 4439, Note_on_c, 9, 36, 0
2, 4471, Control_c, 9, 4, 76
2, 4504, Control_c, 9, 4, 54
2, 4535, Control_c, 9, 4, 0
2, 4577, Control_c, 9, 4, 48
2, 4582, Note_on_c, 9, 44, 93
2, 4594, Control_c, 9, 17, 48
2, 4595, Note_on_c, 9, 51, 71
2, 4608, Control_c, 9, 4, 116
2, 4650, Control_c, 9, 4, 96
2, 4664, Note_on_c, 9, 44, 0
2, 4676, Note_on_c, 9, 51, 0
2, 4686, Control_c, 9, 4, 85
2, 4708, Control_c, 9, 18, 0
2, 4708, Note_on_c, 9, 48, 42
2, 4716, Note_on_c, 9, 36, 40
2, 4791, Note_on_c, 9, 48, 0
2, 4799, Note_on_c, 9, 36, 0
2, 4813, Control_c, 9, 4, 99
2, 4831, Control_c, 9, 17, 104
2, 4832, Note_on_c, 9, 51, 58
2, 4835, Note_on_c, 9, 48, 57
2, 4888, Control_c, 9, 4, 94
2, 4914, Note_on_c, 9, 51, 0
2, 4915, Note_on_c, 9, 48, 0
2, 4934, Control_c, 9, 4, 83
2, 4960, Control_c, 9, 17, 80
2, 4961, Note_on_c, 9, 51, 60
2, 4990, Control_c, 9, 4, 54
2, 5023, Control_c, 9, 4, 0
2, 5043, Note_on_c, 9, 51, 0
2, 5061, Control_c, 9, 4, 49
2, 5066, Note_on_c, 9, 44, 93
2, 5068, Note_on_c, 9, 36, 46
2, 5092, Control_c, 9, 4, 114
2, 5125, Control_c, 9, 4, 100
2, 5148, Note_on_c, 9, 44, 0
2, 5150, Note_on_c, 9, 36, 0
2, 5163, Control_c, 9, 4, 86
2, 5194, Control_c, 9, 17, 52
2, 5194, Note_on_c, 9, 51, 77
2, 5276, Note_on_c, 9, 51, 0
2, 5281, Control_c, 9, 4, 92
2, 5311, Note_on_c, 9, 38, 61
2, 5320, Note_on_c, 9, 36, 57
2, 5393, Note_on_c, 9, 38, 0
2, 5403, Note_on_c, 9, 36, 0
2, 5411, Control_c, 9, 4, 85
2, 5451, Control_c, 9, 4, 71
2, 5492, Control_c, 9, 4, 23
2, 5532, Control_c, 9, 4, 46
2, 5540, Control_c, 9, 17, 76
2, 5540, Note_on_c, 9, 51, 78
2, 5542, Note_on_c, 9, 44, 67
2, 5544, Note_on_c, 9, 46, 55
2, 5565, Control_c, 9, 4, 116
2, 5606, Control_c, 9, 4, 95
2, 5621, Note_on_c, 9, 51, 0
2, 5622, Note_on_c, 9, 44, 0
2, 5622, Note_on_c, 9, 46, 0
2, 5638, Control_c, 9, 4, 83
2, 5663, Control_c, 9, 18, 0
2, 5664, Note_on_c, 9, 48, 40
2, 5674, Note_on_c, 9, 36, 46
2, 5746, Note_on_c, 9, 48, 0
2, 5758, Note_on_c, 9, 36, 0
2, 5759, Control_c, 9, 4, 98
2, 5792, Note_on_c, 9, 48, 57
2, 5798, Control_c, 9, 17, 78
2, 5799, Note_on_c, 9, 51, 63
2, 5847, Control_c, 9, 4, 93
2, 5874, Note_on_c, 9, 48, 0
2, 5880, Note_on_c, 9, 51, 0
2, 5896, Control_c, 9, 4, 82
2, 5932, Control_c, 9, 17, 127
2, 5932, Note_on_c, 9, 51, 66
2, 5945, Control_c, 9, 4, 54
2, 5981, Control_c, 9, 4, 0
2, 6011, Control_c, 9, 4, 48
2, 6014, Note_on_c, 9, 51, 0
2, 6017, Note_on_c, 9, 44, 80
2, 6033, Note_on_c, 9, 36, 40
2, 6042, Control_c, 9, 4, 110
2, 6091, Control_c, 9, 4, 91
2, 6099, Note_on_c, 9, 44, 0
2, 6115, Note_on_c, 9, 36, 0
2, 6121, Control_c, 9, 4, 84
2, 6225, Control_c, 9, 4, 90
2, 6275, Control_c, 9, 17, 38
2, 6275, Note_on_c, 9, 51, 86
2, 6280, Note_on_c, 9, 36, 49
2, 6281, Control_c, 9, 16, 0
2, 6282, Note_on_c, 9, 38, 61
2, 6357, Note_on_c, 9, 51, 0
2, 6362, Note_on_c, 9, 36, 0
2, 6362, Note_on_c, 9, 38, 0
2, 6369, Control_c, 9, 4, 83
2, 6405, Control_c, 9, 4, 70
2, 6447, Control_c, 9, 4, 0
2, 6497, Control_c, 9, 4, 49
2, 6502, Note_on_c, 9, 44, 100
2, 6523, Control_c, 9, 17, 87
2, 6523, Note_on_c, 9, 51, 69
2, 6527, Control_c, 9, 4, 110
2, 6562, Control_c, 9, 4, 98
2, 6584, Note_on_c, 9, 44, 0
2, 6600, Control_c, 9, 4, 85
2, 6605, Note_on_c, 9, 51, 0
2, 6643, Note_on_c, 9, 36, 33
2, 6645, Control_c, 9, 18, 0
2, 6645, Note_on_c, 9, 48, 43
2, 6725, Note_on_c, 9, 36, 0
2, 6726, Note_on_c, 9, 48, 0
2, 6734, Control_c, 9, 4, 95
2, 6761, Control_c, 9, 17, 127
2, 6762, Note_on_c, 9, 51, 58
2, 6764, Note_on_c, 9, 48, 56
2, 6821, Control_c, 9, 4, 91
2, 6844, Note_on_c, 9, 51, 0
2, 6845, Note_on_c, 9, 48, 0
2, 6868, Control_c, 9, 4, 79
2, 6890, Control_c, 9, 17, 127
2, 6891, Note_on_c, 9, 51, 68
2, 6909, Control_c, 9, 4, 55
2, 6939, Control_c, 9, 4, 12
2, 6972, Control_c, 9, 4, 44
2, 6973, Note_on_c, 9, 51, 0
2, 6979, Note_on_c, 9, 44, 74
2, 6992, Note_on_c, 9, 36, 40
2, 7005, Control_c, 9, 4, 110
2, 7051, Control_c, 9, 4, 91
2, 7062, Note_on_c, 9, 44, 0
2, 7075, Note_on_c, 9, 36, 0
2, 7082, Control_c, 9, 4, 84
2, 7114, Control_c, 9, 17, 94
2, 7115, Note_on_c, 9, 51, 78
2, 7183, Control_c, 9, 4, 90
2, 7196, Note_on_c, 9, 51, 0
2, 7239, Note_on_c, 9, 38, 63
2, 7246, Note_on_c, 9, 36, 49
2, 7320, Note_on_c, 9, 38, 0
2, 7328, Note_on_c, 9, 36, 0
2, 7357, Control_c, 9, 4, 76
2, 7389, Control_c, 9, 4, 54
2, 7424, Control_c, 9, 4, 0
2, 7455, Control_c, 9, 4, 49
2, 7461, Note_on_c, 9, 44, 80
2, 7468, Control_c, 9, 17, 92
2, 7469, Note_on_c, 9, 51, 76
2, 7486, Control_c, 9, 4, 114
2, 7529, Control_c, 9, 4, 93
2, 7543, Note_on_c, 9, 44, 0
2, 7550, Note_on_c, 9, 51, 0
2, 7568, Control_c, 9, 4, 82
2, 7593, Note_on_c, 9, 36, 33
2, 7594, Control_c, 9, 18, 0
2, 7595, Note_on_c, 9, 48, 41
2, 7674, Note_on_c, 9, 36, 0
2, 7676, Note_on_c, 9, 48, 0
2, 7677, End_track
0, 0, End_of_file
