0, 0, Header, 1, 2, 480
1, 0, Start_track
1, 0, Tempo, 645161
1, 0, Time_signature, 4, 2, 24, 8
1, 0, Key_signature, 0, "major"
1, 1, End_track
2, 0, Start_track
2, 0, Title_t, "Midi Drums"
2, 0, Program_c, 9, 0
2, 929, Note_on_c, 9, 36, 55
2, 950, Control_c, 9, 4, 90
2, 950, Note_on_c, 9, 22, 116
2, 1004, Note_on_c, 9, 36, 0
2, 1025, Note_on_c, 9, 22, 0
2, 1075, Control_c, 9, 4, 90
2, 1075, Note_on_c, 9, 42, 25
2, 1151, Note_on_c, 9, 42, 0
2, 1162, Control_c, 9, 4, 90
2, 1162, Note_on_c, 9, 42, 7
2, 1237, Note_on_c, 9, 42, 0
2, 1299, Note_on_c, 9, 38, 127
2, 1374, Note_on_c, 9, 38, 0
2, 1422, Control_c, 9, 4, 90
2, 1422, Note_on_c, 9, 22, 105
2, 1497, Note_on_c, 9, 22, 0
2, 1538, Control_c, 9, 4, 90
2, 1538, Note_on_c, 9, 42, 28
2, 1614, Note_on_c, 9, 42, 0
2, 1656, Note_on_c, 9, 36, 59
2, 1662, Control_c, 9, 4, 90
2, 1662, Note_on_c, 9, 42, 13
2, 1731, Note_on_c, 9, 36, 0
2, 1738, Note_on_c, 9, 42, 0
2, 1773, Control_c, 9, 4, 90
2, 1773, Note_on_c, 9, 42, 37
2, 1848, Note_on_c, 9, 42, 0
2, 1895, Control_c, 9, 4, 90
2, 1895, Note_on_c, 9, 22, 127
2, 1971, Note_on_c, 9, 22, 0
2, 2006, Control_c, 9, 4, 90
2, 2006, Note_on_c, 9, 42, 33
2, 2082, Note_on_c, 9, 42, 0
2, 2118, Control_c, 9, 4, 90
2, 2118, Note_on_c, 9, 42, 9
2, 2193, Note_on_c, 9, 42, 0
2, 2239, Control_c, 9, 4, 90
2, 2239, Note_on_c, 9, 42, 20
2, 2314, Note_on_c, 9, 42, 0
2, 2359, Control_c, 9, 4, 90
2, 2359, Note_on_c, 9, 22, 127
2, 2435, Note_on_c, 9, 22, 0
2, 2468, Control_c, 9, 4, 90
2, 2468, Note_on_c, 9, 42, 15
2, 2544, Note_on_c, 9, 42, 0
2, 2592, Control_c, 9, 4, 90
2, 2592, Note_on_c, 9, 42, 13
2, 2668, Note_on_c, 9, 42, 0
2, 2712, Control_c, 9, 4, 90
2, 2712, Note_on_c, 9, 42, 7
2, 2788, Note_on_c, 9, 42, 0
2, 2842, Note_on_c, 9, 36, 56
2, 2847, Control_c, 9, 4, 90
2, 2847, Note_on_c, 9, 22, 108
2, 2917, Note_on_c, 9, 36, 0
2, 2923, Note_on_c, 9, 22, 0
2, 2967, Control_c, 9, 4, 90
2, 2967, Note_on_c, 9, 42, 20
2, 3043, Note_on_c, 9, 42, 0
2, 3076, Control_c, 9, 4, 90
2, 3076, Note_on_c, 9, 42, 9
2, 3151, Note_on_c, 9, 42, 0
2, 3221, Note_on_c, 9, 38, 127
2, 3296, Note_on_c, 9, 38, 0
2, 3346, Control_c, 9, 4, 90
2, 3346, Note_on_c, 9, 22, 63
2, 3421, Note_on_c, 9, 22, 0
2, 3464, Control_c, 9, 4, 90
2, 3464, Note_on_c, 9, 22, 39
2, 3539, Note_on_c, 9, 22, 0
2, 3584, Control_c, 9, 4, 90
2, 3584, Note_on_c, 9, 36, 60
2, 3584, Note_on_c, 9, 42, 10
2, 3660, Note_on_c, 9, 36, 0
2, 3660, Note_on_c, 9, 42, 0
2, 3691, Control_c, 9, 4, 90
2, 3691, Note_on_c, 9, 42, 35
2, 3766, Note_on_c, 9, 42, 0
2, 3816, Control_c, 9, 4, 90
2, 3816, Note_on_c, 9, 22, 127
2, 3892, Note_on_c, 9, 22, 0
2, 3938, Control_c, 9, 4, 90
2, 3938, Note_on_c, 9, 22, 45
2, 4014, Note_on_c, 9, 22, 0
2, 4047, Control_c, 9, 4, 90
2, 4047, Note_on_c, 9, 42, 18
2, 4122, Note_on_c, 9, 42, 0
2, 4160, Control_c, 9, 4, 90
2, 4160, Note_on_c, 9, 42, 10
2, 4173, Note_on_c, 9, 36, 43
2, 4235, Note_on_c, 9, 42, 0
2, 4248, Note_on_c, 9, 36, 0
2, 4283, Note_on_c, 9, 36, 64
2, 4294, Control_c, 9, 4, 90
2, 4294, Note_on_c, 9, 22, 123
2, 4358, Note_on_c, 9, 36, 0
2, 4370, Note_on_c, 9, 22, 0
2, 4412, Control_c, 9, 4, 90
2, 4412, Note_on_c, 9, 42, 19
2, 4488, Note_on_c, 9, 42, 0
2, 4529, Control_c, 9, 4, 90
2, 4529, Note_on_c, 9, 42, 14
2, 4604, Note_on_c, 9, 42, 0
2, 4662, Control_c, 9, 4, 90
2, 4662, Note_on_c, 9, 42, 21
2, 4737, Note_on_c, 9, 42, 0
2, 4793, Control_c, 9, 4, 90
2, 4793, Note_on_c, 9, 22, 119
2, 4797, Note_on_c, 9, 36, 59
2, 4869, Note_on_c, 9, 22, 0
2, 4872, Note_on_c, 9, 36, 0
2, 4912, Control_c, 9, 4, 90
2, 4912, Note_on_c, 9, 42, 18
2, 4988, Note_on_c, 9, 42, 0
2, 5045, Control_c, 9, 4, 90
2, 5045, Note_on_c, 9, 42, 6
2, 5120, Note_on_c, 9, 42, 0
2, 5161, Note_on_c, 9, 38, 127
2, 5236, Note_on_c, 9, 38, 0
2, 5275, Control_c, 9, 4, 90
2, 5275, Note_on_c, 9, 22, 66
2, 5350, Note_on_c, 9, 22, 0
2, 5399, Control_c, 9, 4, 90
2, 5399, Note_on_c, 9, 42, 85
2, 5474, Note_on_c, 9, 42, 0
2, 5518, Note_on_c, 9, 40, 127
2, 5593, Note_on_c, 9, 40, 0
2, 5630, Note_on_c, 9, 38, 127
2, 5705, Note_on_c, 9, 38, 0
2, 5747, Control_c, 9, 4, 90
2, 5747, Note_on_c, 9, 22, 54
2, 5822, Note_on_c, 9, 22, 0
2, 5872, Control_c, 9, 4, 90
2, 5872, Note_on_c, 9, 42, 36
2, 5947, Note_on_c, 9, 42, 0
2, 5984, Control_c, 9, 4, 90
2, 5984, Note_on_c, 9, 22, 127
2, 6059, Note_on_c, 9, 22, 0
2, 6094, Control_c, 9, 4, 90
2, 6094, Note_on_c, 9, 42, 40
2, 6170, Note_on_c, 9, 42, 0
2, 6212, Note_on_c, 9, 48, 104
2, 6287, Note_on_c, 9, 48, 0
2, 6319, Note_on_c, 9, 38, 124
2, 6394, Note_on_c, 9, 38, 0
2, 6553, Note_on_c, 9, 38, 127
2, 6557, Control_c, 9, 4, 65
2, 6590, Control_c, 9, 4, 54
2, 6628, Control_c, 9, 4, 66
2, 6628, Note_on_c, 9, 38, 0
2, 6664, Control_c, 9, 4, 90
2, 6669, Note_on_c, 9, 40, 127
2, 6744, Note_on_c, 9, 40, 0
2, 6760, Control_c, 9, 4, 54
2, 6787, Note_on_c, 9, 36, 68
2, 6799, Control_c, 9, 4, 59
2, 6833, Control_c, 9, 4, 90
2, 6862, Note_on_c, 9, 36, 0
2, 6876, Note_on_c, 9, 38, 127
2, 6925, Note_on_c, 9, 48, 127
2, 6935, Control_c, 9, 4, 74
2, 6950, Note_on_c, 9, 38, 0
2, 6967, Control_c, 9, 4, 0
2, 7000, Note_on_c, 9, 48, 0
2, 7033, Note_on_c, 9, 38, 46
2, 7108, Note_on_c, 9, 38, 0
2, 7138, Note_on_c, 9, 44, 97
2, 7161, Control_c, 9, 4, 90
2, 7213, Note_on_c, 9, 44, 0
2, 7288, Note_on_c, 9, 38, 99
2, 7363, Note_on_c, 9, 38, 0
2, 7383, Note_on_c, 9, 38, 59
2, 7458, Note_on_c, 9, 38, 0
2, 7463, Note_on_c, 9, 38, 48
2, 7538, Note_on_c, 9, 38, 0
2, 7538, Note_on_c, 9, 40, 127
2, 7613, Note_on_c, 9, 40, 0
2, 7614, End_track
0, 0, End_of_file
