0, 0, Header, 1, 2, 480
1, 0, Start_track
1, 0, Tempo, 545454
1, 0, Time_signature, 4, 2, 24, 8
1, 0, Key_signature, 0, "major"
1, 1, End_track
2, 0, Start_track
2, 0, Title_t, "TD-30 #9 Djembe"
2, 0, Program_c, 9, 0
2, 0, Control_c, 9, 17, 127
2, 62, Control_c, 9, 18, 0
2, 62, Note_on_c, 9, 48, 54
2, 151, Note_on_c, 9, 48, 0
2, 285, Note_on_c, 9, 48, 66
2, 373, Note_on_c, 9, 48, 0
2, 505, Note_on_c, 9, 36, 92
2, 514, Control_c, 9, 4, 54
2, 520, Control_c, 9, 17, 48
2, 520, Note_on_c, 9, 51, 94
2, 550, Control_c, 9, 4, 38
2, 585, Control_c, 9, 4, 0
2, 593, Note_on_c, 9, 36, 0
2, 608, Note_on_c, 9, 51, 0
2, 707, Note_on_c, 9, 46, 7
2, 729, Control_c, 9, 4, 65
2, 734, Note_on_c, 9, 44, 80
2, 737, Note_on_c, 9, 57, 55
2, 762, Control_c, 9, 4, 72
2, 795, Note_on_c, 9, 46, 0
2, 821, Note_on_c, 9, 44, 0
2, 825, Note_on_c, 9, 57, 0
2, 837, Control_c, 9, 4, 68
2, 875, Control_c, 9, 4, 63
2, 980, Note_on_c, 9, 57, 68
2, 1069, Note_on_c, 9, 57, 0
2, 1212, Note_on_c, 9, 57, 119
2, 1301, Note_on_c, 9, 57, 0
2, 1450, Note_on_c, 9, 57, 124
2, 1539, Note_on_c, 9, 57, 0
2, 1682, Note_on_c, 9, 57, 108
2, 1771, Note_on_c, 9, 57, 0
2, 1922, Note_on_c, 9, 57, 100
2, 2012, Note_on_c, 9, 57, 0
2, 2165, Note_on_c, 9, 57, 87
2, 2254, Note_on_c, 9, 57, 0
2, 2421, Control_c, 9, 4, 48
2, 2427, Control_c, 9, 17, 76
2, 2428, Note_on_c, 9, 36, 92
2, 2428, Note_on_c, 9, 51, 65
2, 2456, Control_c, 9, 4, 0
2, 2483, Control_c, 9, 17, 76
2, 2483, Note_on_c, 9, 51, 0
2, 2485, Note_on_c, 9, 51, 26
2, 2516, Note_on_c, 9, 36, 0
2, 2516, Note_on_c, 9, 51, 0
2, 2639, Control_c, 9, 4, 64
2, 2644, Note_on_c, 9, 44, 80
2, 2671, Control_c, 9, 4, 70
2, 2676, Control_c, 9, 17, 8
2, 2677, Note_on_c, 9, 51, 38
2, 2732, Note_on_c, 9, 44, 0
2, 2746, Control_c, 9, 4, 63
2, 2765, Note_on_c, 9, 51, 0
2, 2968, Control_c, 9, 4, 59
2, 3147, Control_c, 9, 16, 127
2, 3148, Note_on_c, 9, 38, 63
2, 3151, Control_c, 9, 17, 127
2, 3151, Note_on_c, 9, 51, 102
2, 3191, Control_c, 9, 4, 47
2, 3233, Control_c, 9, 4, 0
2, 3236, Note_on_c, 9, 38, 0
2, 3238, Note_on_c, 9, 51, 0
2, 3363, Control_c, 9, 4, 65
2, 3369, Note_on_c, 9, 44, 74
2, 3390, Control_c, 9, 17, 9
2, 3391, Note_on_c, 9, 51, 33
2, 3396, Control_c, 9, 4, 70
2, 3457, Note_on_c, 9, 44, 0
2, 3478, Note_on_c, 9, 51, 0
2, 3484, Control_c, 9, 4, 59
2, 3571, Control_c, 9, 4, 55
2, 3616, Control_c, 9, 17, 0
2, 3617, Note_on_c, 9, 51, 65
2, 3702, Control_c, 9, 4, 42
2, 3705, Note_on_c, 9, 51, 0
2, 3741, Control_c, 9, 4, 28
2, 3742, Control_c, 9, 17, 21
2, 3743, Note_on_c, 9, 51, 55
2, 3792, Control_c, 9, 4, 69
2, 3793, Note_on_c, 9, 46, 11
2, 3831, Note_on_c, 9, 51, 0
2, 3852, Note_on_c, 9, 48, 63
2, 3881, Note_on_c, 9, 46, 0
2, 3885, Control_c, 9, 4, 63
2, 3940, Note_on_c, 9, 48, 0
2, 4064, Note_on_c, 9, 48, 58
2, 4152, Note_on_c, 9, 48, 0
2, 4306, Control_c, 9, 4, 59
2, 4319, Control_c, 9, 17, 127
2, 4319, Note_on_c, 9, 51, 95
2, 4328, Note_on_c, 9, 36, 99
2, 4363, Control_c, 9, 4, 47
2, 4408, Control_c, 9, 4, 0
2, 4408, Note_on_c, 9, 51, 0
2, 4417, Note_on_c, 9, 36, 0
2, 4522, Control_c, 9, 17, 127
2, 4523, Note_on_c, 9, 51, 12
2, 4545, Note_on_c, 9, 46, 7
2, 4568, Control_c, 9, 4, 65
2, 4572, Note_on_c, 9, 44, 87
2, 4599, Control_c, 9, 4, 74
2, 4611, Note_on_c, 9, 51, 0
2, 4632, Note_on_c, 9, 46, 0
2, 4653, Control_c, 9, 4, 70
2, 4660, Note_on_c, 9, 44, 0
2, 5051, Control_c, 9, 16, 0
2, 5052, Note_on_c, 9, 40, 63
2, 5053, Note_on_c, 9, 59, 91
2, 5066, Control_c, 9, 4, 63
2, 5103, Control_c, 9, 4, 48
2, 5138, Control_c, 9, 4, 0
2, 5140, Note_on_c, 9, 40, 0
2, 5141, Note_on_c, 9, 59, 0
2, 5246, Control_c, 9, 17, 55
2, 5247, Note_on_c, 9, 51, 30
2, 5249, Note_on_c, 9, 46, 9
2, 5272, Control_c, 9, 4, 64
2, 5278, Note_on_c, 9, 44, 80
2, 5305, Control_c, 9, 4, 70
2, 5335, Note_on_c, 9, 51, 0
2, 5337, Note_on_c, 9, 46, 0
2, 5338, Control_c, 9, 4, 64
2, 5366, Note_on_c, 9, 44, 0
2, 5399, Control_c, 9, 4, 54
2, 5432, Control_c, 9, 4, 48
2, 5482, Control_c, 9, 4, 22
2, 5512, Control_c, 9, 17, 27
2, 5513, Note_on_c, 9, 51, 50
2, 5520, Control_c, 9, 4, 0
2, 5601, Note_on_c, 9, 51, 0
2, 5639, Control_c, 9, 17, 40
2, 5639, Note_on_c, 9, 51, 52
2, 5716, Control_c, 9, 4, 33
2, 5727, Note_on_c, 9, 44, 87
2, 5727, Note_on_c, 9, 51, 0
2, 5749, Control_c, 9, 4, 69
2, 5749, Control_c, 9, 18, 0
2, 5750, Note_on_c, 9, 48, 60
2, 5780, Control_c, 9, 4, 63
2, 5816, Note_on_c, 9, 44, 0
2, 5830, Control_c, 9, 4, 59
2, 5839, Note_on_c, 9, 48, 0
2, 5967, Note_on_c, 9, 48, 63
2, 6055, Note_on_c, 9, 48, 0
2, 6211, Control_c, 9, 4, 48
2, 6211, Note_on_c, 9, 36, 94
2, 6214, Note_on_c, 9, 59, 102
2, 6242, Control_c, 9, 4, 31
2, 6273, Control_c, 9, 4, 0
2, 6299, Note_on_c, 9, 36, 0
2, 6302, Note_on_c, 9, 59, 0
2, 6414, Control_c, 9, 17, 127
2, 6415, Note_on_c, 9, 51, 21
2, 6422, Note_on_c, 9, 46, 7
2, 6443, Control_c, 9, 4, 64
2, 6448, Note_on_c, 9, 44, 80
2, 6475, Control_c, 9, 4, 70
2, 6502, Note_on_c, 9, 51, 0
2, 6508, Note_on_c, 9, 46, 0
2, 6536, Note_on_c, 9, 44, 0
2, 6541, Control_c, 9, 4, 63
2, 6611, Control_c, 9, 4, 59
2, 6971, Note_on_c, 9, 40, 62
2, 6978, Control_c, 9, 17, 127
2, 6978, Note_on_c, 9, 51, 99
2, 6987, Control_c, 9, 4, 45
2, 7029, Control_c, 9, 4, 0
2, 7058, Note_on_c, 9, 40, 0
2, 7066, Note_on_c, 9, 51, 0
2, 7188, Control_c, 9, 4, 64
2, 7194, Note_on_c, 9, 44, 80
2, 7221, Control_c, 9, 4, 70
2, 7282, Note_on_c, 9, 44, 0
2, 7286, Control_c, 9, 4, 63
2, 7325, Control_c, 9, 4, 59
2, 7400, Control_c, 9, 4, 55
2, 7451, Control_c, 9, 17, 6
2, 7452, Note_on_c, 9, 51, 86
2, 7474, Control_c, 9, 4, 51
2, 7540, Note_on_c, 9, 51, 0
2, 7570, Control_c, 9, 17, 59
2, 7571, Note_on_c, 9, 51, 60
2, 7659, Note_on_c, 9, 51, 0
2, 7660, End_track
0, 0, End_of_file
