0, 0, Header, 1, 2, 480
1, 0, Start_track
1, 0, Tempo, 571428
1, 0, Time_signature, 4, 2, 24, 8
1, 0, Key_signature, 0, "major"
1, 1, End_track
2, 0, Start_track
2, 0, Title_t, "Midi Drums"
2, 0, Program_c, 9, 0
2, 0, Note_on_c, 9, 36, 55
2, 58, Control_c, 9, 4, 80
2, 76, Note_on_c, 9, 36, 0
2, 204, Control_c, 9, 4, 76
2, 230, Note_on_c, 9, 38, 47
2, 315, Note_on_c, 9, 38, 0
2, 345, Note_on_c, 9, 38, 43
2, 429, Note_on_c, 9, 38, 0
2, 449, Control_c, 9, 4, 80
2, 478, Note_on_c, 9, 38, 90
2, 495, Note_on_c, 9, 36, 60
2, 505, Control_c, 9, 4, 73
2, 544, Control_c, 9, 4, 69
2, 563, Note_on_c, 9, 38, 0
2, 580, Note_on_c, 9, 36, 0
2, 628, Control_c, 9, 4, 74
2, 659, Control_c, 9, 4, 78
2, 695, Control_c, 9, 4, 73
2, 733, Note_on_c, 9, 38, 52
2, 817, Note_on_c, 9, 38, 0
2, 845, Note_on_c, 9, 38, 37
2, 869, Control_c, 9, 4, 78
2, 930, Note_on_c, 9, 38, 0
2, 977, Control_c, 9, 4, 82
2, 977, Note_on_c, 9, 36, 57
2, 977, Note_on_c, 9, 38, 98
2, 1027, Control_c, 9, 4, 78
2, 1062, Note_on_c, 9, 36, 0
2, 1062, Note_on_c, 9, 38, 0
2, 1086, Note_on_c, 9, 38, 49
2, 1160, Control_c, 9, 4, 73
2, 1171, Note_on_c, 9, 38, 0
2, 1211, Note_on_c, 9, 38, 42
2, 1296, Note_on_c, 9, 38, 0
2, 1318, Note_on_c, 9, 38, 73
2, 1400, Control_c, 9, 4, 78
2, 1403, Note_on_c, 9, 38, 0
2, 1448, Note_on_c, 9, 36, 62
2, 1476, Control_c, 9, 4, 73
2, 1533, Note_on_c, 9, 36, 0
2, 1569, Note_on_c, 9, 38, 89
2, 1654, Note_on_c, 9, 38, 0
2, 1686, Note_on_c, 9, 38, 70
2, 1772, Note_on_c, 9, 38, 0
2, 1801, Control_c, 9, 4, 78
2, 1814, Note_on_c, 9, 38, 42
2, 1898, Note_on_c, 9, 38, 0
2, 1920, Note_on_c, 9, 38, 80
2, 1927, Note_on_c, 9, 36, 64
2, 1995, Control_c, 9, 4, 73
2, 2004, Note_on_c, 9, 38, 0
2, 2012, Note_on_c, 9, 36, 0
2, 2185, Note_on_c, 9, 38, 46
2, 2240, Control_c, 9, 4, 68
2, 2270, Note_on_c, 9, 38, 0
2, 2291, Note_on_c, 9, 38, 51
2, 2376, Note_on_c, 9, 38, 0
2, 2417, Note_on_c, 9, 38, 114
2, 2421, Control_c, 9, 4, 72
2, 2429, Note_on_c, 9, 36, 64
2, 2473, Control_c, 9, 4, 68
2, 2501, Note_on_c, 9, 38, 0
2, 2514, Note_on_c, 9, 36, 0
2, 2649, Note_on_c, 9, 38, 65
2, 2733, Note_on_c, 9, 38, 0
2, 2771, Note_on_c, 9, 38, 44
2, 2776, Control_c, 9, 4, 72
2, 2855, Note_on_c, 9, 38, 0
2, 2902, Note_on_c, 9, 38, 77
2, 2913, Note_on_c, 9, 36, 59
2, 2987, Note_on_c, 9, 38, 0
2, 2997, Note_on_c, 9, 36, 0
2, 3033, Note_on_c, 9, 38, 46
2, 3118, Note_on_c, 9, 38, 0
2, 3144, Note_on_c, 9, 38, 79
2, 3229, Note_on_c, 9, 38, 0
2, 3233, Control_c, 9, 4, 68
2, 3262, Note_on_c, 9, 38, 83
2, 3347, Note_on_c, 9, 38, 0
2, 3351, Control_c, 9, 4, 64
2, 3382, Control_c, 9, 4, 68
2, 3389, Note_on_c, 9, 36, 67
2, 3472, Control_c, 9, 4, 59
2, 3473, Note_on_c, 9, 36, 0
2, 3513, Note_on_c, 9, 38, 95
2, 3516, Control_c, 9, 4, 65
2, 3598, Note_on_c, 9, 38, 0
2, 3627, Note_on_c, 9, 38, 77
2, 3712, Note_on_c, 9, 38, 0
2, 3745, Note_on_c, 9, 38, 64
2, 3830, Note_on_c, 9, 38, 0
2, 3867, Note_on_c, 9, 38, 82
2, 3868, Control_c, 9, 4, 70
2, 3874, Note_on_c, 9, 36, 64
2, 3939, Control_c, 9, 4, 60
2, 3951, Note_on_c, 9, 38, 0
2, 3959, Note_on_c, 9, 36, 0
2, 4011, Control_c, 9, 4, 70
2, 4056, Control_c, 9, 4, 66
2, 4103, Note_on_c, 9, 38, 64
2, 4140, Control_c, 9, 4, 61
2, 4187, Note_on_c, 9, 38, 0
2, 4229, Note_on_c, 9, 38, 49
2, 4272, Control_c, 9, 4, 65
2, 4313, Note_on_c, 9, 38, 0
2, 4355, Note_on_c, 9, 38, 93
2, 4361, Note_on_c, 9, 36, 63
2, 4440, Note_on_c, 9, 38, 0
2, 4446, Note_on_c, 9, 36, 0
2, 4584, Note_on_c, 9, 38, 51
2, 4669, Note_on_c, 9, 38, 0
2, 4719, Note_on_c, 9, 38, 46
2, 4733, Control_c, 9, 4, 70
2, 4792, Control_c, 9, 4, 66
2, 4804, Note_on_c, 9, 38, 0
2, 4838, Note_on_c, 9, 38, 93
2, 4855, Note_on_c, 9, 36, 57
2, 4874, Control_c, 9, 4, 71
2, 4923, Note_on_c, 9, 38, 0
2, 4927, Control_c, 9, 4, 66
2, 4939, Note_on_c, 9, 36, 0
2, 4964, Note_on_c, 9, 38, 45
2, 5048, Note_on_c, 9, 38, 0
2, 5066, Note_on_c, 9, 38, 52
2, 5150, Note_on_c, 9, 38, 0
2, 5192, Note_on_c, 9, 38, 75
2, 5276, Note_on_c, 9, 38, 0
2, 5326, Note_on_c, 9, 36, 63
2, 5404, Control_c, 9, 4, 61
2, 5410, Note_on_c, 9, 36, 0
2, 5449, Note_on_c, 9, 38, 96
2, 5475, Control_c, 9, 4, 63
2, 5475, Note_on_c, 9, 46, 14
2, 5505, Control_c, 9, 4, 59
2, 5534, Note_on_c, 9, 38, 0
2, 5541, Control_c, 9, 4, 63
2, 5560, Note_on_c, 9, 46, 0
2, 5569, Note_on_c, 9, 38, 69
2, 5654, Note_on_c, 9, 38, 0
2, 5692, Note_on_c, 9, 38, 63
2, 5700, Control_c, 9, 4, 67
2, 5740, Control_c, 9, 4, 63
2, 5777, Note_on_c, 9, 38, 0
2, 5801, Note_on_c, 9, 36, 62
2, 5806, Note_on_c, 9, 38, 70
2, 5866, Control_c, 9, 4, 58
2, 5886, Note_on_c, 9, 36, 0
2, 5891, Note_on_c, 9, 38, 0
2, 6004, Control_c, 9, 4, 63
2, 6038, Note_on_c, 9, 38, 61
2, 6061, Control_c, 9, 4, 53
2, 6106, Control_c, 9, 4, 41
2, 6123, Note_on_c, 9, 38, 0
2, 6146, Control_c, 9, 4, 46
2, 6152, Note_on_c, 9, 38, 36
2, 6189, Control_c, 9, 4, 52
2, 6237, Note_on_c, 9, 38, 0
2, 6275, Note_on_c, 9, 38, 105
2, 6284, Control_c, 9, 4, 48
2, 6285, Note_on_c, 9, 36, 58
2, 6360, Note_on_c, 9, 38, 0
2, 6370, Note_on_c, 9, 36, 0
2, 6499, Note_on_c, 9, 38, 53
2, 6584, Note_on_c, 9, 38, 0
2, 6612, Control_c, 9, 4, 52
2, 6617, Note_on_c, 9, 38, 47
2, 6702, Note_on_c, 9, 38, 0
2, 6742, Note_on_c, 9, 38, 106
2, 6753, Note_on_c, 9, 36, 56
2, 6827, Note_on_c, 9, 38, 0
2, 6838, Note_on_c, 9, 36, 0
2, 6879, Note_on_c, 9, 38, 64
2, 6964, Note_on_c, 9, 38, 0
2, 6980, Note_on_c, 9, 38, 43
2, 7065, Note_on_c, 9, 38, 0
2, 7104, Note_on_c, 9, 38, 88
2, 7159, Control_c, 9, 4, 48
2, 7189, Note_on_c, 9, 38, 0
2, 7221, Note_on_c, 9, 36, 62
2, 7252, Control_c, 9, 4, 52
2, 7305, Note_on_c, 9, 36, 0
2, 7337, Note_on_c, 9, 38, 81
2, 7421, Note_on_c, 9, 38, 0
2, 7441, Note_on_c, 9, 38, 63
2, 7449, Control_c, 9, 4, 56
2, 7524, Control_c, 9, 4, 52
2, 7525, Note_on_c, 9, 38, 0
2, 7564, Note_on_c, 9, 38, 60
2, 7648, Note_on_c, 9, 38, 0
2, 7649, End_track
0, 0, End_of_file
