0, 0, Header, 1, 2, 480
1, 0, Start_track
1, 0, Tempo, 588235
1, 0, Time_signature, 4, 2, 24, 8
1, 0, Key_signature, 0, "major"
1, 1, End_track
2, 0, Start_track
2, 0, Title_t, "Classic Studio Kit"
2, 0, Program_c, 9, 0
2, 0, Control_c, 9, 17, 9
2, 5, Note_on_c, 9, 46, 7
2, 11, Control_c, 9, 4, 102
2, 17, Note_on_c, 9, 44, 127
2, 23, Control_c, 9, 4, 127
2, 25, Control_c, 9, 18, 0
2, 26, Note_on_c, 9, 48, 77
2, 27, Control_c, 9, 17, 52
2, 28, Note_on_c, 9, 51, 57
2, 40, Note_on_c, 9, 48, 85
2, 67, Control_c, 9, 4, 112
2, 72, Note_on_c, 9, 51, 0
2, 85, Note_on_c, 9, 46, 0
2, 98, Note_on_c, 9, 44, 0
2, 99, Control_c, 9, 4, 92
2, 107, Note_on_c, 9, 48, 0
2, 107, Note_on_c, 9, 48, 0
2, 125, Control_c, 9, 4, 91
2, 126, Control_c, 9, 17, 19
2, 126, Note_on_c, 9, 51, 77
2, 141, Control_c, 9, 17, 8
2, 142, Note_on_c, 9, 51, 75
2, 163, Control_c, 9, 4, 75
2, 201, Note_on_c, 9, 46, 9
2, 206, Control_c, 9, 4, 0
2, 207, Note_on_c, 9, 51, 0
2, 207, Note_on_c, 9, 51, 0
2, 247, Control_c, 9, 4, 108
2, 254, Control_c, 9, 4, 33
2, 258, Note_on_c, 9, 46, 0
2, 259, Note_on_c, 9, 46, 13
2, 260, Note_on_c, 9, 44, 127
2, 263, Note_on_c, 9, 36, 60
2, 276, Note_on_c, 9, 36, 68
2, 283, Note_on_c, 9, 46, 0
2, 283, Note_on_c, 9, 49, 6
2, 285, Control_c, 9, 4, 127
2, 301, Note_on_c, 9, 49, 0
2, 302, Note_on_c, 9, 49, 6
2, 323, Control_c, 9, 4, 92
2, 329, Control_c, 9, 4, 95
2, 340, Note_on_c, 9, 44, 0
2, 344, Note_on_c, 9, 36, 0
2, 344, Note_on_c, 9, 36, 0
2, 364, Control_c, 9, 4, 85
2, 364, Note_on_c, 9, 49, 0
2, 394, Control_c, 9, 4, 88
2, 436, Control_c, 9, 4, 89
2, 446, Control_c, 9, 4, 83
2, 488, Control_c, 9, 4, 92
2, 489, Control_c, 9, 4, 94
2, 502, Note_on_c, 9, 36, 73
2, 507, Control_c, 9, 16, 0
2, 507, Note_on_c, 9, 38, 81
2, 508, Control_c, 9, 17, 0
2, 508, Note_on_c, 9, 51, 105
2, 514, Note_on_c, 9, 36, 84
2, 518, Control_c, 9, 4, 97
2, 519, Control_c, 9, 17, 18
2, 520, Note_on_c, 9, 51, 93
2, 528, Control_c, 9, 16, 0
2, 528, Note_on_c, 9, 38, 78
2, 584, Note_on_c, 9, 36, 0
2, 584, Note_on_c, 9, 36, 0
2, 588, Note_on_c, 9, 38, 0
2, 588, Note_on_c, 9, 38, 0
2, 588, Note_on_c, 9, 51, 0
2, 588, Note_on_c, 9, 51, 0
2, 590, Control_c, 9, 4, 82
2, 618, Control_c, 9, 4, 83
2, 625, Control_c, 9, 4, 70
2, 653, Control_c, 9, 4, 70
2, 665, Control_c, 9, 4, 0
2, 686, Control_c, 9, 4, 0
2, 735, Control_c, 9, 4, 32
2, 735, Note_on_c, 9, 46, 10
2, 742, Control_c, 9, 4, 36
2, 742, Note_on_c, 9, 44, 113
2, 747, Control_c, 9, 17, 25
2, 747, Note_on_c, 9, 44, 127
2, 748, Note_on_c, 9, 51, 69
2, 763, Control_c, 9, 17, 58
2, 764, Note_on_c, 9, 51, 79
2, 767, Control_c, 9, 4, 120
2, 772, Control_c, 9, 4, 120
2, 808, Control_c, 9, 4, 97
2, 816, Note_on_c, 9, 46, 0
2, 823, Control_c, 9, 4, 98
2, 823, Note_on_c, 9, 44, 0
2, 823, Note_on_c, 9, 44, 0
2, 829, Note_on_c, 9, 51, 0
2, 829, Note_on_c, 9, 51, 0
2, 848, Control_c, 9, 4, 84
2, 861, Control_c, 9, 4, 84
2, 865, Note_on_c, 9, 48, 51
2, 875, Note_on_c, 9, 36, 62
2, 878, Control_c, 9, 18, 0
2, 879, Note_on_c, 9, 48, 57
2, 886, Note_on_c, 9, 36, 80
2, 922, Control_c, 9, 4, 88
2, 946, Note_on_c, 9, 48, 0
2, 946, Note_on_c, 9, 48, 0
2, 956, Note_on_c, 9, 36, 0
2, 956, Note_on_c, 9, 36, 0
2, 976, Control_c, 9, 4, 110
2, 978, Control_c, 9, 17, 57
2, 978, Note_on_c, 9, 51, 54
2, 991, Note_on_c, 9, 48, 72
2, 997, Control_c, 9, 17, 56
2, 998, Note_on_c, 9, 51, 58
2, 1000, Control_c, 9, 4, 118
2, 1008, Note_on_c, 9, 48, 76
2, 1052, Control_c, 9, 4, 91
2, 1060, Note_on_c, 9, 51, 0
2, 1060, Note_on_c, 9, 51, 0
2, 1072, Note_on_c, 9, 48, 0
2, 1072, Note_on_c, 9, 48, 0
2, 1075, Control_c, 9, 4, 91
2, 1090, Control_c, 9, 4, 73
2, 1110, Control_c, 9, 4, 72
2, 1111, Control_c, 9, 17, 39
2, 1111, Note_on_c, 9, 51, 69
2, 1122, Control_c, 9, 17, 29
2, 1123, Note_on_c, 9, 51, 67
2, 1132, Control_c, 9, 4, 0
2, 1145, Control_c, 9, 4, 0
2, 1193, Note_on_c, 9, 51, 0
2, 1193, Note_on_c, 9, 51, 0
2, 1203, Note_on_c, 9, 46, 11
2, 1210, Control_c, 9, 4, 32
2, 1216, Note_on_c, 9, 44, 127
2, 1218, Note_on_c, 9, 46, 14
2, 1224, Control_c, 9, 4, 34
2, 1230, Note_on_c, 9, 44, 127
2, 1232, Note_on_c, 9, 36, 62
2, 1239, Note_on_c, 9, 36, 68
2, 1241, Control_c, 9, 4, 120
2, 1255, Control_c, 9, 4, 124
2, 1284, Note_on_c, 9, 46, 0
2, 1284, Note_on_c, 9, 46, 0
2, 1288, Control_c, 9, 4, 94
2, 1296, Note_on_c, 9, 44, 0
2, 1296, Note_on_c, 9, 44, 0
2, 1303, Control_c, 9, 4, 93
2, 1313, Note_on_c, 9, 36, 0
2, 1313, Note_on_c, 9, 36, 0
2, 1330, Control_c, 9, 4, 69
2, 1333, Control_c, 9, 4, 73
2, 1363, Control_c, 9, 4, 0
2, 1380, Control_c, 9, 4, 0
2, 1441, Note_on_c, 9, 46, 11
2, 1451, Control_c, 9, 4, 51
2, 1451, Note_on_c, 9, 46, 7
2, 1456, Note_on_c, 9, 44, 119
2, 1460, Control_c, 9, 4, 33
2, 1466, Control_c, 9, 17, 20
2, 1466, Note_on_c, 9, 44, 119
2, 1468, Note_on_c, 9, 51, 83
2, 1469, Control_c, 9, 16, 21
2, 1469, Note_on_c, 9, 38, 75
2, 1470, Note_on_c, 9, 36, 87
2, 1471, Note_on_c, 9, 36, 87
2, 1473, Control_c, 9, 17, 15
2, 1474, Note_on_c, 9, 51, 103
2, 1477, Control_c, 9, 16, 21
2, 1478, Note_on_c, 9, 38, 63
2, 1482, Control_c, 9, 4, 97
2, 1491, Control_c, 9, 4, 104
2, 1522, Note_on_c, 9, 46, 0
2, 1522, Note_on_c, 9, 46, 0
2, 1535, Control_c, 9, 4, 90
2, 1538, Note_on_c, 9, 44, 0
2, 1538, Note_on_c, 9, 44, 0
2, 1541, Control_c, 9, 4, 91
2, 1549, Note_on_c, 9, 38, 0
2, 1549, Note_on_c, 9, 38, 0
2, 1549, Note_on_c, 9, 51, 0
2, 1549, Note_on_c, 9, 51, 0
2, 1553, Note_on_c, 9, 36, 0
2, 1553, Note_on_c, 9, 36, 0
2, 1578, Control_c, 9, 4, 79
2, 1586, Control_c, 9, 4, 79
2, 1655, Control_c, 9, 4, 81
2, 1685, Control_c, 9, 4, 89
2, 1701, Control_c, 9, 17, 78
2, 1701, Note_on_c, 9, 51, 71
2, 1703, Control_c, 9, 4, 114
2, 1722, Control_c, 9, 4, 114
2, 1724, Control_c, 9, 17, 46
2, 1725, Note_on_c, 9, 51, 75
2, 1762, Control_c, 9, 4, 94
2, 1769, Control_c, 9, 4, 90
2, 1783, Note_on_c, 9, 51, 0
2, 1783, Note_on_c, 9, 51, 0
2, 1810, Control_c, 9, 4, 72
2, 1815, Control_c, 9, 18, 0
2, 1816, Note_on_c, 9, 48, 52
2, 1820, Control_c, 9, 4, 69
2, 1820, Note_on_c, 9, 36, 57
2, 1831, Note_on_c, 9, 36, 74
2, 1841, Note_on_c, 9, 48, 61
2, 1850, Control_c, 9, 4, 0
2, 1850, Control_c, 9, 4, 0
2, 1897, Note_on_c, 9, 48, 0
2, 1897, Note_on_c, 9, 48, 0
2, 1902, Note_on_c, 9, 36, 0
2, 1902, Note_on_c, 9, 36, 0
2, 1916, Note_on_c, 9, 46, 7
2, 1921, Control_c, 9, 17, 121
2, 1921, Note_on_c, 9, 46, 12
2, 1922, Note_on_c, 9, 51, 49
2, 1924, Control_c, 9, 4, 34
2, 1930, Note_on_c, 9, 44, 127
2, 1933, Note_on_c, 9, 44, 127
2, 1938, Control_c, 9, 4, 127
2, 1943, Control_c, 9, 18, 0
2, 1944, Note_on_c, 9, 48, 83
2, 1955, Control_c, 9, 4, 120
2, 1956, Control_c, 9, 17, 63
2, 1956, Note_on_c, 9, 51, 56
2, 1968, Note_on_c, 9, 48, 84
2, 1983, Control_c, 9, 4, 116
2, 1997, Note_on_c, 9, 46, 0
2, 1997, Note_on_c, 9, 46, 0
2, 2002, Note_on_c, 9, 51, 0
2, 2002, Note_on_c, 9, 51, 0
2, 2011, Note_on_c, 9, 44, 0
2, 2011, Note_on_c, 9, 44, 0
2, 2017, Control_c, 9, 4, 92
2, 2024, Control_c, 9, 4, 90
2, 2024, Note_on_c, 9, 48, 0
2, 2024, Note_on_c, 9, 48, 0
2, 2051, Control_c, 9, 17, 43
2, 2051, Note_on_c, 9, 51, 72
2, 2084, Control_c, 9, 17, 26
2, 2085, Note_on_c, 9, 51, 57
2, 2133, Note_on_c, 9, 51, 0
2, 2133, Note_on_c, 9, 51, 0
2, 2151, Control_c, 9, 4, 99
2, 2166, Control_c, 9, 4, 108
2, 2182, Note_on_c, 9, 36, 51
2, 2183, Note_on_c, 9, 36, 74
2, 2210, Control_c, 9, 4, 94
2, 2245, Control_c, 9, 4, 90
2, 2245, Control_c, 9, 4, 91
2, 2264, Note_on_c, 9, 36, 0
2, 2264, Note_on_c, 9, 36, 0
2, 2280, Control_c, 9, 4, 72
2, 2321, Control_c, 9, 4, 0
2, 2393, Note_on_c, 9, 46, 12
2, 2400, Control_c, 9, 4, 34
2, 2405, Note_on_c, 9, 44, 127
2, 2417, Note_on_c, 9, 36, 76
2, 2422, Control_c, 9, 17, 18
2, 2423, Note_on_c, 9, 51, 90
2, 2427, Control_c, 9, 16, 0
2, 2428, Note_on_c, 9, 36, 84
2, 2428, Note_on_c, 9, 38, 75
2, 2430, Note_on_c, 9, 38, 73
2, 2431, Control_c, 9, 4, 104
2, 2436, Control_c, 9, 17, 13
2, 2437, Note_on_c, 9, 51, 81
2, 2448, Control_c, 9, 4, 94
2, 2474, Note_on_c, 9, 46, 0
2, 2488, Note_on_c, 9, 44, 0
2, 2493, Control_c, 9, 4, 90
2, 2499, Note_on_c, 9, 36, 0
2, 2499, Note_on_c, 9, 36, 0
2, 2503, Note_on_c, 9, 51, 0
2, 2503, Note_on_c, 9, 51, 0
2, 2509, Note_on_c, 9, 38, 0
2, 2509, Note_on_c, 9, 38, 0
2, 2522, Control_c, 9, 4, 83
2, 2532, Control_c, 9, 4, 79
2, 2552, Control_c, 9, 4, 70
2, 2589, Control_c, 9, 4, 0
2, 2631, Control_c, 9, 4, 89
2, 2646, Control_c, 9, 4, 34
2, 2653, Note_on_c, 9, 44, 119
2, 2666, Control_c, 9, 4, 110
2, 2668, Control_c, 9, 17, 60
2, 2668, Note_on_c, 9, 51, 74
2, 2671, Control_c, 9, 17, 77
2, 2671, Note_on_c, 9, 51, 71
2, 2678, Control_c, 9, 4, 120
2, 2710, Control_c, 9, 4, 99
2, 2716, Control_c, 9, 4, 98
2, 2734, Note_on_c, 9, 44, 0
2, 2750, Control_c, 9, 4, 84
2, 2751, Note_on_c, 9, 51, 0
2, 2751, Note_on_c, 9, 51, 0
2, 2752, Control_c, 9, 4, 86
2, 2778, Note_on_c, 9, 48, 64
2, 2780, Control_c, 9, 4, 70
2, 2783, Control_c, 9, 18, 0
2, 2784, Note_on_c, 9, 48, 48
2, 2795, Note_on_c, 9, 36, 71
2, 2795, Note_on_c, 9, 36, 72
2, 2814, Control_c, 9, 4, 0
2, 2860, Note_on_c, 9, 48, 0
2, 2860, Note_on_c, 9, 48, 0
2, 2876, Note_on_c, 9, 36, 0
2, 2876, Note_on_c, 9, 36, 0
2, 2885, Control_c, 9, 4, 99
2, 2886, Control_c, 9, 4, 34
2, 2886, Control_c, 9, 17, 66
2, 2886, Note_on_c, 9, 51, 56
2, 2891, Note_on_c, 9, 44, 127
2, 2897, Control_c, 9, 17, 72
2, 2897, Note_on_c, 9, 51, 51
2, 2905, Note_on_c, 9, 48, 73
2, 2911, Control_c, 9, 18, 0
2, 2911, Note_on_c, 9, 48, 72
2, 2917, Control_c, 9, 4, 127
2, 2968, Note_on_c, 9, 51, 0
2, 2968, Note_on_c, 9, 51, 0
2, 2971, Control_c, 9, 4, 93
2, 2972, Note_on_c, 9, 44, 0
2, 2984, Control_c, 9, 4, 93
2, 2986, Note_on_c, 9, 48, 0
2, 2986, Note_on_c, 9, 48, 0
2, 3014, Control_c, 9, 17, 9
2, 3014, Note_on_c, 9, 51, 77
2, 3016, Control_c, 9, 4, 89
2, 3016, Control_c, 9, 17, 83
2, 3017, Note_on_c, 9, 51, 65
2, 3035, Control_c, 9, 4, 70
2, 3065, Control_c, 9, 4, 0
2, 3095, Note_on_c, 9, 51, 0
2, 3095, Note_on_c, 9, 51, 0
2, 3106, Control_c, 9, 4, 116
2, 3131, Control_c, 9, 4, 33
2, 3137, Note_on_c, 9, 36, 61
2, 3137, Note_on_c, 9, 44, 127
2, 3144, Note_on_c, 9, 36, 58
2, 3162, Control_c, 9, 4, 118
2, 3174, Control_c, 9, 4, 98
2, 3179, Note_on_c, 9, 49, 5
2, 3208, Control_c, 9, 4, 96
2, 3211, Control_c, 9, 4, 84
2, 3218, Note_on_c, 9, 36, 0
2, 3218, Note_on_c, 9, 36, 0
2, 3218, Note_on_c, 9, 44, 0
2, 3244, Control_c, 9, 4, 70
2, 3248, Control_c, 9, 4, 70
2, 3261, Note_on_c, 9, 49, 0
2, 3284, Control_c, 9, 4, 0
2, 3288, Control_c, 9, 4, 0
2, 3357, Note_on_c, 9, 44, 119
2, 3366, Control_c, 9, 4, 127
2, 3368, Control_c, 9, 4, 48
2, 3372, Note_on_c, 9, 44, 106
2, 3376, Control_c, 9, 17, 9
2, 3377, Note_on_c, 9, 51, 101
2, 3379, Control_c, 9, 17, 12
2, 3379, Note_on_c, 9, 51, 98
2, 3382, Control_c, 9, 16, 0
2, 3382, Note_on_c, 9, 36, 80
2, 3383, Note_on_c, 9, 38, 90
2, 3384, Note_on_c, 9, 36, 80
2, 3386, Note_on_c, 9, 38, 84
2, 3398, Control_c, 9, 4, 98
2, 3407, Control_c, 9, 4, 102
2, 3438, Note_on_c, 9, 44, 0
2, 3438, Note_on_c, 9, 44, 0
2, 3443, Control_c, 9, 4, 90
2, 3458, Note_on_c, 9, 51, 0
2, 3458, Note_on_c, 9, 51, 0
2, 3461, Note_on_c, 9, 36, 0
2, 3461, Note_on_c, 9, 36, 0
2, 3463, Note_on_c, 9, 38, 0
2, 3463, Note_on_c, 9, 38, 0
2, 3474, Control_c, 9, 4, 84
2, 3486, Control_c, 9, 4, 80
2, 3603, Control_c, 9, 4, 102
2, 3603, Control_c, 9, 4, 106
2, 3623, Control_c, 9, 17, 40
2, 3623, Note_on_c, 9, 51, 75
2, 3631, Control_c, 9, 17, 42
2, 3632, Note_on_c, 9, 51, 74
2, 3635, Control_c, 9, 4, 110
2, 3684, Control_c, 9, 4, 94
2, 3699, Control_c, 9, 4, 90
2, 3705, Note_on_c, 9, 51, 0
2, 3705, Note_on_c, 9, 51, 0
2, 3731, Control_c, 9, 4, 73
2, 3734, Control_c, 9, 4, 73
2, 3745, Control_c, 9, 18, 0
2, 3745, Control_c, 9, 18, 21
2, 3745, Note_on_c, 9, 36, 72
2, 3745, Note_on_c, 9, 48, 50
2, 3745, Note_on_c, 9, 48, 55
2, 3749, Note_on_c, 9, 36, 62
2, 3773, Control_c, 9, 4, 0
2, 3780, Control_c, 9, 4, 0
2, 3826, Note_on_c, 9, 48, 0
2, 3826, Note_on_c, 9, 48, 0
2, 3828, Note_on_c, 9, 36, 0
2, 3828, Note_on_c, 9, 36, 0
2, 3840, Control_c, 9, 17, 58
2, 3840, Note_on_c, 9, 51, 52
2, 3843, Note_on_c, 9, 46, 8
2, 3843, Note_on_c, 9, 46, 10
2, 3850, Control_c, 9, 4, 33
2, 3852, Control_c, 9, 4, 33
2, 3856, Note_on_c, 9, 44, 127
2, 3857, Note_on_c, 9, 44, 127
2, 3865, Control_c, 9, 17, 70
2, 3865, Note_on_c, 9, 51, 54
2, 3867, Control_c, 9, 18, 0
2, 3867, Note_on_c, 9, 48, 75
2, 3872, Note_on_c, 9, 48, 87
2, 3881, Control_c, 9, 4, 120
2, 3883, Control_c, 9, 4, 127
2, 3923, Note_on_c, 9, 51, 0
2, 3923, Note_on_c, 9, 51, 0
2, 3924, Note_on_c, 9, 46, 0
2, 3924, Note_on_c, 9, 46, 0
2, 3926, Control_c, 9, 4, 102
2, 3937, Note_on_c, 9, 44, 0
2, 3937, Note_on_c, 9, 44, 0
2, 3948, Control_c, 9, 4, 91
2, 3948, Note_on_c, 9, 48, 0
2, 3948, Note_on_c, 9, 48, 0
2, 3962, Control_c, 9, 4, 91
2, 3976, Control_c, 9, 17, 11
2, 3977, Note_on_c, 9, 51, 71
2, 3980, Control_c, 9, 4, 87
2, 3992, Control_c, 9, 17, 1
2, 3993, Note_on_c, 9, 51, 80
2, 4058, Note_on_c, 9, 51, 0
2, 4058, Note_on_c, 9, 51, 0
2, 4077, Control_c, 9, 4, 104
2, 4093, Control_c, 9, 4, 110
2, 4098, Note_on_c, 9, 36, 61
2, 4104, Note_on_c, 9, 36, 69
2, 4131, Control_c, 9, 4, 92
2, 4157, Control_c, 9, 4, 104
2, 4180, Note_on_c, 9, 36, 0
2, 4180, Note_on_c, 9, 36, 0
2, 4192, Control_c, 9, 4, 92
2, 4230, Control_c, 9, 4, 74
2, 4271, Control_c, 9, 4, 0
2, 4337, Control_c, 9, 4, 49
2, 4338, Note_on_c, 9, 36, 65
2, 4342, Note_on_c, 9, 44, 126
2, 4344, Control_c, 9, 17, 5
2, 4345, Note_on_c, 9, 51, 96
2, 4350, Note_on_c, 9, 36, 79
2, 4351, Control_c, 9, 16, 0
2, 4351, Note_on_c, 9, 38, 82
2, 4352, Control_c, 9, 17, 36
2, 4352, Note_on_c, 9, 38, 83
2, 4354, Note_on_c, 9, 51, 77
2, 4367, Control_c, 9, 4, 116
2, 4409, Control_c, 9, 4, 96
2, 4419, Note_on_c, 9, 36, 0
2, 4419, Note_on_c, 9, 36, 0
2, 4423, Note_on_c, 9, 44, 0
2, 4426, Note_on_c, 9, 51, 0
2, 4426, Note_on_c, 9, 51, 0
2, 4431, Note_on_c, 9, 38, 0
2, 4431, Note_on_c, 9, 38, 0
2, 4439, Control_c, 9, 4, 84
2, 4443, Control_c, 9, 4, 83
2, 4474, Control_c, 9, 4, 70
2, 4483, Control_c, 9, 4, 79
2, 4508, Control_c, 9, 4, 0
2, 4530, Control_c, 9, 4, 80
2, 4570, Control_c, 9, 4, 34
2, 4572, Control_c, 9, 4, 102
2, 4576, Note_on_c, 9, 44, 126
2, 4592, Control_c, 9, 17, 17
2, 4592, Note_on_c, 9, 51, 72
2, 4599, Control_c, 9, 17, 44
2, 4599, Note_on_c, 9, 51, 75
2, 4601, Control_c, 9, 4, 118
2, 4610, Control_c, 9, 4, 104
2, 4643, Control_c, 9, 4, 98
2, 4655, Control_c, 9, 4, 90
2, 4657, Note_on_c, 9, 44, 0
2, 4673, Note_on_c, 9, 51, 0
2, 4673, Note_on_c, 9, 51, 0
2, 4684, Control_c, 9, 4, 84
2, 4685, Control_c, 9, 4, 85
2, 4704, Control_c, 9, 18, 42
2, 4704, Note_on_c, 9, 48, 50
2, 4715, Control_c, 9, 4, 70
2, 4715, Control_c, 9, 18, 0
2, 4715, Note_on_c, 9, 36, 67
2, 4715, Note_on_c, 9, 48, 56
2, 4719, Note_on_c, 9, 36, 69
2, 4752, Control_c, 9, 4, 0
2, 4787, Note_on_c, 9, 48, 0
2, 4787, Note_on_c, 9, 48, 0
2, 4797, Note_on_c, 9, 36, 0
2, 4797, Note_on_c, 9, 36, 0
2, 4809, Control_c, 9, 17, 21
2, 4809, Note_on_c, 9, 51, 58
2, 4823, Control_c, 9, 4, 104
2, 4823, Note_on_c, 9, 44, 127
2, 4829, Control_c, 9, 4, 127
2, 4835, Note_on_c, 9, 48, 73
2, 4836, Control_c, 9, 17, 116
2, 4836, Note_on_c, 9, 51, 53
2, 4843, Note_on_c, 9, 48, 80
2, 4871, Control_c, 9, 4, 110
2, 4891, Note_on_c, 9, 51, 0
2, 4891, Note_on_c, 9, 51, 0
2, 4905, Note_on_c, 9, 44, 0
2, 4910, Control_c, 9, 4, 91
2, 4910, Control_c, 9, 4, 92
2, 4916, Note_on_c, 9, 48, 0
2, 4916, Note_on_c, 9, 48, 0
2, 4945, Control_c, 9, 17, 3
2, 4946, Note_on_c, 9, 51, 74
2, 4947, Control_c, 9, 4, 73
2, 4955, Control_c, 9, 17, 27
2, 4956, Note_on_c, 9, 51, 70
2, 4980, Control_c, 9, 4, 0
2, 5027, Note_on_c, 9, 51, 0
2, 5027, Note_on_c, 9, 51, 0
2, 5041, Control_c, 9, 4, 102
2, 5049, Note_on_c, 9, 46, 11
2, 5057, Control_c, 9, 4, 33
2, 5062, Note_on_c, 9, 36, 58
2, 5063, Note_on_c, 9, 44, 127
2, 5069, Note_on_c, 9, 36, 67
2, 5088, Control_c, 9, 4, 120
2, 5104, Note_on_c, 9, 49, 6
2, 5130, Control_c, 9, 4, 98
2, 5130, Note_on_c, 9, 46, 0
2, 5141, Control_c, 9, 4, 97
2, 5143, Note_on_c, 9, 36, 0
2, 5143, Note_on_c, 9, 36, 0
2, 5144, Note_on_c, 9, 44, 0
2, 5165, Control_c, 9, 4, 84
2, 5185, Note_on_c, 9, 49, 0
2, 5186, Control_c, 9, 4, 84
2, 5216, Control_c, 9, 4, 70
2, 5248, Control_c, 9, 4, 0
2, 5305, Note_on_c, 9, 36, 86
2, 5308, Control_c, 9, 4, 35
2, 5308, Control_c, 9, 4, 95
2, 5311, Control_c, 9, 17, 0
2, 5311, Note_on_c, 9, 51, 103
2, 5313, Control_c, 9, 16, 21
2, 5314, Note_on_c, 9, 38, 62
2, 5314, Note_on_c, 9, 44, 119
2, 5315, Control_c, 9, 17, 50
2, 5316, Note_on_c, 9, 51, 81
2, 5320, Note_on_c, 9, 36, 78
2, 5326, Note_on_c, 9, 38, 79
2, 5339, Control_c, 9, 4, 116
2, 5380, Control_c, 9, 4, 94
2, 5386, Note_on_c, 9, 36, 0
2, 5386, Note_on_c, 9, 36, 0
2, 5393, Note_on_c, 9, 51, 0
2, 5393, Note_on_c, 9, 51, 0
2, 5394, Note_on_c, 9, 38, 0
2, 5394, Note_on_c, 9, 38, 0
2, 5395, Note_on_c, 9, 44, 0
2, 5418, Control_c, 9, 4, 84
2, 5424, Control_c, 9, 4, 84
2, 5461, Control_c, 9, 4, 70
2, 5504, Control_c, 9, 4, 0
2, 5544, Control_c, 9, 4, 108
2, 5558, Control_c, 9, 4, 32
2, 5563, Control_c, 9, 17, 11
2, 5563, Control_c, 9, 17, 64
2, 5563, Note_on_c, 9, 51, 71
2, 5564, Note_on_c, 9, 51, 71
2, 5567, Note_on_c, 9, 44, 119
2, 5590, Control_c, 9, 4, 116
2, 5605, Control_c, 9, 4, 100
2, 5631, Control_c, 9, 4, 96
2, 5645, Note_on_c, 9, 51, 0
2, 5645, Note_on_c, 9, 51, 0
2, 5647, Control_c, 9, 4, 87
2, 5647, Note_on_c, 9, 44, 0
2, 5669, Control_c, 9, 4, 85
2, 5674, Note_on_c, 9, 36, 74
2, 5677, Control_c, 9, 4, 71
2, 5678, Control_c, 9, 18, 0
2, 5678, Note_on_c, 9, 48, 60
2, 5682, Control_c, 9, 18, 42
2, 5683, Note_on_c, 9, 48, 51
2, 5692, Note_on_c, 9, 36, 59
2, 5714, Control_c, 9, 4, 0
2, 5756, Note_on_c, 9, 36, 0
2, 5756, Note_on_c, 9, 36, 0
2, 5759, Note_on_c, 9, 48, 0
2, 5759, Note_on_c, 9, 48, 0
2, 5777, Control_c, 9, 17, 32
2, 5777, Note_on_c, 9, 51, 57
2, 5787, Note_on_c, 9, 44, 127
2, 5792, Control_c, 9, 4, 127
2, 5798, Control_c, 9, 17, 68
2, 5799, Note_on_c, 9, 51, 59
2, 5802, Note_on_c, 9, 48, 74
2, 5807, Control_c, 9, 18, 0
2, 5808, Note_on_c, 9, 48, 73
2, 5810, Control_c, 9, 4, 108
2, 5837, Control_c, 9, 4, 118
2, 5859, Note_on_c, 9, 51, 0
2, 5859, Note_on_c, 9, 51, 0
2, 5864, Control_c, 9, 4, 100
2, 5869, Note_on_c, 9, 44, 0
2, 5874, Control_c, 9, 4, 92
2, 5883, Note_on_c, 9, 48, 0
2, 5883, Note_on_c, 9, 48, 0
2, 5904, Control_c, 9, 4, 85
2, 5913, Control_c, 9, 17, 4
2, 5914, Note_on_c, 9, 51, 69
2, 5920, Control_c, 9, 17, 1
2, 5921, Note_on_c, 9, 51, 79
2, 5937, Control_c, 9, 4, 70
2, 5970, Control_c, 9, 4, 0
2, 5996, Note_on_c, 9, 51, 0
2, 5996, Note_on_c, 9, 51, 0
2, 6024, Control_c, 9, 4, 100
2, 6031, Control_c, 9, 4, 33
2, 6032, Note_on_c, 9, 36, 62
2, 6037, Note_on_c, 9, 36, 55
2, 6037, Note_on_c, 9, 44, 127
2, 6062, Control_c, 9, 4, 118
2, 6078, Note_on_c, 9, 49, 6
2, 6105, Control_c, 9, 4, 95
2, 6113, Note_on_c, 9, 36, 0
2, 6113, Note_on_c, 9, 36, 0
2, 6117, Control_c, 9, 4, 95
2, 6119, Note_on_c, 9, 44, 0
2, 6142, Control_c, 9, 4, 85
2, 6153, Control_c, 9, 4, 83
2, 6161, Note_on_c, 9, 49, 0
2, 6185, Control_c, 9, 4, 69
2, 6217, Control_c, 9, 4, 0
2, 6231, Control_c, 9, 4, 89
2, 6269, Control_c, 9, 4, 35
2, 6276, Note_on_c, 9, 44, 113
2, 6280, Control_c, 9, 4, 93
2, 6281, Note_on_c, 9, 36, 74
2, 6282, Control_c, 9, 17, 0
2, 6282, Note_on_c, 9, 36, 75
2, 6283, Note_on_c, 9, 51, 101
2, 6285, Note_on_c, 9, 51, 104
2, 6289, Control_c, 9, 16, 0
2, 6290, Control_c, 9, 16, 0
2, 6290, Note_on_c, 9, 38, 60
2, 6291, Note_on_c, 9, 38, 68
2, 6301, Control_c, 9, 4, 118
2, 6342, Control_c, 9, 4, 95
2, 6356, Note_on_c, 9, 44, 0
2, 6362, Note_on_c, 9, 36, 0
2, 6362, Note_on_c, 9, 36, 0
2, 6363, Note_on_c, 9, 51, 0
2, 6363, Note_on_c, 9, 51, 0
2, 6369, Note_on_c, 9, 38, 0
2, 6369, Note_on_c, 9, 38, 0
2, 6378, Control_c, 9, 4, 84
2, 6387, Control_c, 9, 4, 87
2, 6423, Control_c, 9, 4, 73
2, 6468, Control_c, 9, 4, 0
2, 6495, Control_c, 9, 4, 92
2, 6519, Control_c, 9, 4, 33
2, 6525, Note_on_c, 9, 44, 119
2, 6528, Control_c, 9, 17, 0
2, 6529, Control_c, 9, 4, 104
2, 6529, Control_c, 9, 17, 18
2, 6529, Note_on_c, 9, 51, 68
2, 6529, Note_on_c, 9, 51, 92
2, 6551, Control_c, 9, 4, 120
2, 6578, Control_c, 9, 4, 98
2, 6596, Control_c, 9, 4, 96
2, 6608, Note_on_c, 9, 44, 0
2, 6611, Note_on_c, 9, 51, 0
2, 6611, Note_on_c, 9, 51, 0
2, 6626, Control_c, 9, 4, 83
2, 6630, Control_c, 9, 4, 84
2, 6643, Control_c, 9, 18, 42
2, 6644, Note_on_c, 9, 48, 46
2, 6646, Control_c, 9, 18, 0
2, 6646, Note_on_c, 9, 48, 57
2, 6649, Note_on_c, 9, 36, 64
2, 6655, Note_on_c, 9, 36, 65
2, 6657, Control_c, 9, 4, 69
2, 6689, Control_c, 9, 4, 0
2, 6725, Note_on_c, 9, 48, 0
2, 6725, Note_on_c, 9, 48, 0
2, 6730, Note_on_c, 9, 36, 0
2, 6730, Note_on_c, 9, 36, 0
2, 6736, Control_c, 9, 17, 20
2, 6737, Note_on_c, 9, 51, 56
2, 6761, Control_c, 9, 4, 110
2, 6763, Note_on_c, 9, 44, 127
2, 6765, Control_c, 9, 17, 20
2, 6766, Note_on_c, 9, 51, 60
2, 6768, Note_on_c, 9, 48, 68
2, 6769, Control_c, 9, 4, 127
2, 6772, Note_on_c, 9, 48, 74
2, 6809, Control_c, 9, 4, 110
2, 6814, Control_c, 9, 4, 102
2, 6818, Note_on_c, 9, 51, 0
2, 6818, Note_on_c, 9, 51, 0
2, 6845, Note_on_c, 9, 44, 0
2, 6848, Control_c, 9, 4, 94
2, 6850, Note_on_c, 9, 48, 0
2, 6850, Note_on_c, 9, 48, 0
2, 6852, Control_c, 9, 4, 90
2, 6874, Control_c, 9, 17, 6
2, 6875, Note_on_c, 9, 51, 70
2, 6889, Control_c, 9, 4, 74
2, 6892, Control_c, 9, 17, 0
2, 6893, Note_on_c, 9, 51, 79
2, 6930, Control_c, 9, 4, 0
2, 6956, Note_on_c, 9, 51, 0
2, 6956, Note_on_c, 9, 51, 0
2, 6991, Control_c, 9, 4, 34
2, 6997, Note_on_c, 9, 44, 127
2, 7000, Control_c, 9, 4, 98
2, 7002, Note_on_c, 9, 36, 60
2, 7004, Note_on_c, 9, 36, 65
2, 7022, Control_c, 9, 4, 122
2, 7039, Note_on_c, 9, 49, 6
2, 7066, Control_c, 9, 4, 96
2, 7079, Note_on_c, 9, 44, 0
2, 7084, Note_on_c, 9, 36, 0
2, 7084, Note_on_c, 9, 36, 0
2, 7103, Control_c, 9, 4, 85
2, 7107, Control_c, 9, 4, 86
2, 7122, Note_on_c, 9, 49, 0
2, 7139, Control_c, 9, 4, 70
2, 7180, Control_c, 9, 4, 0
2, 7227, Control_c, 9, 4, 96
2, 7231, Control_c, 9, 4, 49
2, 7236, Note_on_c, 9, 44, 113
2, 7238, Note_on_c, 9, 36, 78
2, 7239, Note_on_c, 9, 51, 93
2, 7240, Note_on_c, 9, 36, 72
2, 7247, Note_on_c, 9, 38, 57
2, 7247, Note_on_c, 9, 51, 92
2, 7249, Control_c, 9, 16, 21
2, 7249, Note_on_c, 9, 38, 75
2, 7261, Control_c, 9, 4, 120
2, 7300, Control_c, 9, 4, 95
2, 7318, Note_on_c, 9, 44, 0
2, 7320, Note_on_c, 9, 36, 0
2, 7320, Note_on_c, 9, 36, 0
2, 7321, Note_on_c, 9, 51, 0
2, 7321, Note_on_c, 9, 51, 0
2, 7327, Note_on_c, 9, 38, 0
2, 7327, Note_on_c, 9, 38, 0
2, 7333, Control_c, 9, 4, 83
2, 7354, Control_c, 9, 4, 84
2, 7390, Control_c, 9, 4, 70
2, 7433, Control_c, 9, 4, 0
2, 7448, Control_c, 9, 4, 92
2, 7479, Control_c, 9, 4, 49
2, 7482, Control_c, 9, 4, 99
2, 7484, Note_on_c, 9, 44, 106
2, 7487, Control_c, 9, 17, 0
2, 7488, Note_on_c, 9, 51, 90
2, 7490, Control_c, 9, 17, 11
2, 7490, Note_on_c, 9, 51, 77
2, 7509, Control_c, 9, 4, 118
2, 7552, Control_c, 9, 4, 96
2, 7566, Note_on_c, 9, 44, 0
2, 7570, Note_on_c, 9, 51, 0
2, 7570, Note_on_c, 9, 51, 0
2, 7582, Control_c, 9, 4, 84
2, 7593, Control_c, 9, 4, 84
2, 7603, Control_c, 9, 18, 0
2, 7604, Control_c, 9, 18, 42
2, 7612, Control_c, 9, 4, 70
2, 7647, Control_c, 9, 4, 0
2, 7648, End_track
0, 0, End_of_file
