0, 0, Header, 1, 2, 480
1, 0, Start_track
1, 0, Tempo, 588235
1, 0, Time_signature, 4, 2, 24, 8
1, 0, Key_signature, 0, "major"
1, 1, End_track
2, 0, Start_track
2, 0, Title_t, "Classic Studio Kit"
2, 0, Program_c, 9, 0
2, 0, Control_c, 9, 18, 0
2, 12, Control_c, 9, 4, 110
2, 35, Control_c, 9, 17, 91
2, 36, Note_on_c, 9, 51, 69
2, 42, Note_on_c, 9, 48, 77
2, 93, Control_c, 9, 4, 102
2, 117, Note_on_c, 9, 51, 0
2, 123, Note_on_c, 9, 48, 0
2, 127, Control_c, 9, 4, 90
2, 157, Control_c, 9, 17, 42
2, 157, Note_on_c, 9, 51, 74
2, 159, Control_c, 9, 4, 73
2, 197, Control_c, 9, 4, 0
2, 239, Note_on_c, 9, 51, 0
2, 255, Note_on_c, 9, 36, 67
2, 259, Note_on_c, 9, 44, 126
2, 264, Control_c, 9, 4, 127
2, 308, Control_c, 9, 4, 110
2, 337, Note_on_c, 9, 36, 0
2, 339, Control_c, 9, 4, 91
2, 340, Note_on_c, 9, 44, 0
2, 372, Control_c, 9, 4, 86
2, 406, Control_c, 9, 17, 0
2, 407, Note_on_c, 9, 51, 92
2, 489, Note_on_c, 9, 51, 0
2, 492, Control_c, 9, 4, 96
2, 511, Note_on_c, 9, 36, 74
2, 514, Control_c, 9, 16, 64
2, 514, Note_on_c, 9, 38, 72
2, 593, Note_on_c, 9, 36, 0
2, 596, Note_on_c, 9, 38, 0
2, 610, Control_c, 9, 4, 90
2, 647, Control_c, 9, 4, 74
2, 688, Control_c, 9, 4, 0
2, 742, Control_c, 9, 17, 11
2, 743, Note_on_c, 9, 51, 99
2, 744, Control_c, 9, 4, 33
2, 750, Note_on_c, 9, 44, 126
2, 775, Control_c, 9, 4, 127
2, 811, Control_c, 9, 4, 102
2, 824, Note_on_c, 9, 51, 0
2, 831, Note_on_c, 9, 44, 0
2, 845, Control_c, 9, 4, 88
2, 866, Control_c, 9, 18, 0
2, 867, Note_on_c, 9, 48, 49
2, 879, Note_on_c, 9, 36, 73
2, 948, Note_on_c, 9, 48, 0
2, 960, Note_on_c, 9, 36, 0
2, 969, Control_c, 9, 4, 97
2, 992, Note_on_c, 9, 48, 89
2, 1000, Control_c, 9, 17, 42
2, 1000, Note_on_c, 9, 51, 83
2, 1008, Control_c, 9, 4, 104
2, 1074, Note_on_c, 9, 48, 0
2, 1080, Control_c, 9, 4, 91
2, 1082, Note_on_c, 9, 51, 0
2, 1112, Control_c, 9, 17, 86
2, 1112, Note_on_c, 9, 51, 80
2, 1116, Control_c, 9, 4, 74
2, 1155, Control_c, 9, 4, 0
2, 1195, Note_on_c, 9, 51, 0
2, 1220, Note_on_c, 9, 36, 61
2, 1222, Note_on_c, 9, 44, 126
2, 1228, Control_c, 9, 4, 127
2, 1230, Control_c, 9, 17, 86
2, 1230, Note_on_c, 9, 51, 6
2, 1275, Control_c, 9, 4, 100
2, 1302, Note_on_c, 9, 36, 0
2, 1303, Note_on_c, 9, 44, 0
2, 1311, Note_on_c, 9, 51, 0
2, 1317, Control_c, 9, 4, 88
2, 1442, Control_c, 9, 4, 94
2, 1466, Note_on_c, 9, 36, 68
2, 1473, Control_c, 9, 17, 124
2, 1474, Note_on_c, 9, 51, 98
2, 1475, Control_c, 9, 16, 0
2, 1475, Note_on_c, 9, 38, 71
2, 1548, Note_on_c, 9, 36, 0
2, 1553, Note_on_c, 9, 51, 0
2, 1555, Note_on_c, 9, 38, 0
2, 1559, Control_c, 9, 4, 88
2, 1590, Control_c, 9, 4, 72
2, 1635, Control_c, 9, 4, 0
2, 1697, Control_c, 9, 4, 49
2, 1702, Note_on_c, 9, 44, 126
2, 1714, Control_c, 9, 17, 6
2, 1714, Note_on_c, 9, 51, 81
2, 1727, Control_c, 9, 4, 122
2, 1779, Control_c, 9, 4, 91
2, 1784, Note_on_c, 9, 44, 0
2, 1797, Note_on_c, 9, 51, 0
2, 1813, Control_c, 9, 4, 85
2, 1835, Control_c, 9, 18, 0
2, 1835, Note_on_c, 9, 48, 48
2, 1845, Note_on_c, 9, 36, 57
2, 1917, Note_on_c, 9, 48, 0
2, 1923, Control_c, 9, 4, 98
2, 1926, Note_on_c, 9, 36, 0
2, 1957, Control_c, 9, 17, 56
2, 1958, Note_on_c, 9, 51, 69
2, 1959, Note_on_c, 9, 48, 82
2, 2038, Note_on_c, 9, 51, 0
2, 2039, Note_on_c, 9, 48, 0
2, 2058, Control_c, 9, 4, 85
2, 2080, Control_c, 9, 17, 28
2, 2081, Note_on_c, 9, 51, 79
2, 2088, Control_c, 9, 4, 69
2, 2122, Control_c, 9, 4, 0
2, 2162, Note_on_c, 9, 51, 0
2, 2179, Control_c, 9, 4, 34
2, 2182, Note_on_c, 9, 36, 57
2, 2185, Note_on_c, 9, 44, 119
2, 2211, Control_c, 9, 4, 126
2, 2246, Control_c, 9, 4, 98
2, 2264, Note_on_c, 9, 36, 0
2, 2268, Note_on_c, 9, 44, 0
2, 2288, Control_c, 9, 4, 87
2, 2325, Control_c, 9, 17, 5
2, 2326, Note_on_c, 9, 51, 80
2, 2402, Control_c, 9, 4, 93
2, 2406, Note_on_c, 9, 51, 0
2, 2431, Note_on_c, 9, 36, 67
2, 2436, Note_on_c, 9, 38, 59
2, 2515, Note_on_c, 9, 36, 0
2, 2518, Note_on_c, 9, 38, 0
2, 2529, Control_c, 9, 4, 87
2, 2560, Control_c, 9, 4, 73
2, 2612, Control_c, 9, 4, 0
2, 2663, Control_c, 9, 17, 9
2, 2663, Note_on_c, 9, 51, 94
2, 2664, Control_c, 9, 4, 34
2, 2671, Note_on_c, 9, 44, 119
2, 2696, Control_c, 9, 4, 126
2, 2732, Control_c, 9, 4, 99
2, 2745, Note_on_c, 9, 51, 0
2, 2752, Note_on_c, 9, 44, 0
2, 2771, Control_c, 9, 4, 86
2, 2795, Control_c, 9, 18, 0
2, 2796, Note_on_c, 9, 48, 49
2, 2800, Note_on_c, 9, 36, 58
2, 2877, Note_on_c, 9, 48, 0
2, 2881, Note_on_c, 9, 36, 0
2, 2898, Control_c, 9, 4, 102
2, 2917, Control_c, 9, 17, 12
2, 2917, Note_on_c, 9, 51, 89
2, 2923, Note_on_c, 9, 48, 80
2, 2971, Control_c, 9, 4, 98
2, 2999, Note_on_c, 9, 51, 0
2, 3003, Note_on_c, 9, 48, 0
2, 3020, Control_c, 9, 4, 85
2, 3040, Control_c, 9, 17, 87
2, 3040, Note_on_c, 9, 51, 74
2, 3053, Control_c, 9, 4, 70
2, 3088, Control_c, 9, 4, 0
2, 3123, Note_on_c, 9, 51, 0
2, 3138, Control_c, 9, 4, 49
2, 3143, Note_on_c, 9, 44, 113
2, 3151, Note_on_c, 9, 36, 58
2, 3160, Control_c, 9, 17, 87
2, 3160, Note_on_c, 9, 51, 5
2, 3168, Control_c, 9, 4, 126
2, 3203, Control_c, 9, 4, 97
2, 3225, Note_on_c, 9, 44, 0
2, 3234, Note_on_c, 9, 36, 0
2, 3243, Note_on_c, 9, 51, 0
2, 3247, Control_c, 9, 4, 86
2, 3372, Control_c, 9, 4, 97
2, 3400, Note_on_c, 9, 36, 67
2, 3402, Control_c, 9, 17, 0
2, 3403, Note_on_c, 9, 51, 109
2, 3408, Control_c, 9, 16, 0
2, 3409, Note_on_c, 9, 38, 80
2, 3470, Control_c, 9, 4, 91
2, 3482, Note_on_c, 9, 36, 0
2, 3484, Note_on_c, 9, 51, 0
2, 3491, Note_on_c, 9, 38, 0
2, 3522, Control_c, 9, 4, 70
2, 3565, Control_c, 9, 4, 0
2, 3624, Control_c, 9, 4, 50
2, 3628, Note_on_c, 9, 44, 113
2, 3640, Control_c, 9, 17, 4
2, 3641, Note_on_c, 9, 51, 96
2, 3654, Control_c, 9, 4, 120
2, 3706, Control_c, 9, 4, 91
2, 3710, Note_on_c, 9, 44, 0
2, 3722, Note_on_c, 9, 51, 0
2, 3740, Control_c, 9, 4, 85
2, 3762, Control_c, 9, 18, 0
2, 3762, Note_on_c, 9, 48, 52
2, 3766, Note_on_c, 9, 36, 58
2, 3844, Note_on_c, 9, 48, 0
2, 3849, Note_on_c, 9, 36, 0
2, 3855, Control_c, 9, 4, 98
2, 3886, Note_on_c, 9, 48, 84
2, 3888, Control_c, 9, 17, 45
2, 3888, Note_on_c, 9, 51, 74
2, 3968, Note_on_c, 9, 48, 0
2, 3970, Note_on_c, 9, 51, 0
2, 3986, Control_c, 9, 4, 85
2, 4004, Control_c, 9, 17, 21
2, 4005, Note_on_c, 9, 51, 75
2, 4022, Control_c, 9, 4, 70
2, 4063, Control_c, 9, 4, 0
2, 4086, Note_on_c, 9, 51, 0
2, 4107, Control_c, 9, 4, 49
2, 4112, Note_on_c, 9, 44, 106
2, 4117, Note_on_c, 9, 36, 58
2, 4137, Control_c, 9, 4, 120
2, 4169, Control_c, 9, 4, 97
2, 4193, Note_on_c, 9, 44, 0
2, 4199, Note_on_c, 9, 36, 0
2, 4203, Control_c, 9, 4, 85
2, 4240, Control_c, 9, 17, 3
2, 4241, Note_on_c, 9, 51, 91
2, 4322, Note_on_c, 9, 51, 0
2, 4332, Control_c, 9, 4, 96
2, 4358, Note_on_c, 9, 38, 101
2, 4364, Note_on_c, 9, 36, 61
2, 4439, Note_on_c, 9, 38, 0
2, 4446, Note_on_c, 9, 36, 0
2, 4463, Control_c, 9, 4, 83
2, 4494, Control_c, 9, 4, 70
2, 4533, Control_c, 9, 4, 0
2, 4586, Control_c, 9, 4, 48
2, 4586, Control_c, 9, 17, 8
2, 4586, Note_on_c, 9, 51, 86
2, 4591, Note_on_c, 9, 44, 106
2, 4616, Control_c, 9, 4, 122
2, 4653, Control_c, 9, 4, 97
2, 4668, Note_on_c, 9, 51, 0
2, 4672, Note_on_c, 9, 44, 0
2, 4688, Control_c, 9, 4, 84
2, 4706, Control_c, 9, 18, 0
2, 4706, Note_on_c, 9, 48, 54
2, 4720, Note_on_c, 9, 36, 57
2, 4788, Note_on_c, 9, 48, 0
2, 4803, Note_on_c, 9, 36, 0
2, 4809, Control_c, 9, 4, 98
2, 4834, Control_c, 9, 17, 44
2, 4835, Note_on_c, 9, 51, 76
2, 4836, Note_on_c, 9, 48, 79
2, 4915, Note_on_c, 9, 51, 0
2, 4918, Note_on_c, 9, 48, 0
2, 4933, Control_c, 9, 4, 86
2, 4953, Control_c, 9, 17, 40
2, 4954, Note_on_c, 9, 51, 70
2, 4965, Control_c, 9, 4, 70
2, 5009, Control_c, 9, 4, 0
2, 5036, Note_on_c, 9, 51, 0
2, 5053, Control_c, 9, 4, 49
2, 5058, Note_on_c, 9, 44, 100
2, 5062, Note_on_c, 9, 36, 59
2, 5083, Control_c, 9, 4, 120
2, 5133, Control_c, 9, 4, 90
2, 5139, Note_on_c, 9, 44, 0
2, 5144, Note_on_c, 9, 36, 0
2, 5164, Control_c, 9, 4, 85
2, 5264, Control_c, 9, 4, 91
2, 5308, Control_c, 9, 17, 7
2, 5308, Note_on_c, 9, 51, 88
2, 5310, Note_on_c, 9, 36, 59
2, 5312, Control_c, 9, 16, 0
2, 5312, Note_on_c, 9, 38, 77
2, 5390, Note_on_c, 9, 51, 0
2, 5391, Note_on_c, 9, 36, 0
2, 5394, Note_on_c, 9, 38, 0
2, 5408, Control_c, 9, 4, 83
2, 5439, Control_c, 9, 4, 70
2, 5477, Control_c, 9, 4, 0
2, 5541, Control_c, 9, 4, 34
2, 5547, Note_on_c, 9, 44, 127
2, 5557, Control_c, 9, 17, 32
2, 5558, Note_on_c, 9, 51, 83
2, 5572, Control_c, 9, 4, 120
2, 5626, Control_c, 9, 4, 91
2, 5629, Note_on_c, 9, 44, 0
2, 5639, Note_on_c, 9, 51, 0
2, 5665, Control_c, 9, 4, 87
2, 5672, Control_c, 9, 18, 0
2, 5672, Note_on_c, 9, 48, 53
2, 5685, Note_on_c, 9, 36, 62
2, 5754, Note_on_c, 9, 48, 0
2, 5767, Note_on_c, 9, 36, 0
2, 5768, Control_c, 9, 4, 94
2, 5805, Note_on_c, 9, 48, 71
2, 5806, Control_c, 9, 17, 62
2, 5807, Note_on_c, 9, 51, 70
2, 5887, Note_on_c, 9, 48, 0
2, 5887, Note_on_c, 9, 51, 0
2, 5905, Control_c, 9, 4, 87
2, 5921, Control_c, 9, 17, 127
2, 5922, Note_on_c, 9, 51, 70
2, 5940, Control_c, 9, 4, 70
2, 5976, Control_c, 9, 4, 0
2, 6003, Note_on_c, 9, 51, 0
2, 6030, Control_c, 9, 4, 35
2, 6033, Note_on_c, 9, 36, 61
2, 6036, Note_on_c, 9, 44, 126
2, 6061, Control_c, 9, 4, 120
2, 6097, Control_c, 9, 4, 97
2, 6115, Note_on_c, 9, 36, 0
2, 6118, Note_on_c, 9, 44, 0
2, 6135, Control_c, 9, 4, 85
2, 6173, Control_c, 9, 17, 4
2, 6174, Note_on_c, 9, 51, 88
2, 6255, Note_on_c, 9, 51, 0
2, 6257, Control_c, 9, 4, 97
2, 6278, Note_on_c, 9, 36, 65
2, 6286, Note_on_c, 9, 38, 71
2, 6360, Note_on_c, 9, 36, 0
2, 6367, Note_on_c, 9, 38, 0
2, 6382, Control_c, 9, 4, 84
2, 6412, Control_c, 9, 4, 70
2, 6450, Control_c, 9, 4, 0
2, 6511, Control_c, 9, 17, 28
2, 6512, Note_on_c, 9, 51, 80
2, 6513, Note_on_c, 9, 44, 127
2, 6517, Control_c, 9, 4, 127
2, 6555, Control_c, 9, 4, 110
2, 6591, Note_on_c, 9, 51, 0
2, 6592, Note_on_c, 9, 44, 0
2, 6602, Control_c, 9, 4, 85
2, 6635, Control_c, 9, 18, 0
2, 6636, Note_on_c, 9, 48, 48
2, 6639, Note_on_c, 9, 36, 59
2, 6717, Note_on_c, 9, 48, 0
2, 6721, Note_on_c, 9, 36, 0
2, 6729, Control_c, 9, 4, 99
2, 6755, Control_c, 9, 17, 52
2, 6755, Note_on_c, 9, 51, 68
2, 6761, Note_on_c, 9, 48, 72
2, 6836, Note_on_c, 9, 51, 0
2, 6842, Note_on_c, 9, 48, 0
2, 6855, Control_c, 9, 4, 88
2, 6882, Control_c, 9, 17, 39
2, 6883, Note_on_c, 9, 51, 75
2, 6885, Control_c, 9, 4, 70
2, 6920, Control_c, 9, 4, 0
2, 6964, Note_on_c, 9, 51, 0
2, 6980, Control_c, 9, 4, 33
2, 6985, Note_on_c, 9, 36, 59
2, 6987, Note_on_c, 9, 44, 127
2, 7011, Control_c, 9, 4, 122
2, 7045, Control_c, 9, 4, 97
2, 7067, Note_on_c, 9, 36, 0
2, 7067, Note_on_c, 9, 44, 0
2, 7086, Control_c, 9, 4, 85
2, 7214, Control_c, 9, 17, 6
2, 7214, Note_on_c, 9, 51, 90
2, 7216, Control_c, 9, 4, 94
2, 7227, Control_c, 9, 16, 0
2, 7227, Note_on_c, 9, 38, 70
2, 7230, Note_on_c, 9, 36, 65
2, 7296, Note_on_c, 9, 51, 0
2, 7310, Note_on_c, 9, 38, 0
2, 7313, Note_on_c, 9, 36, 0
2, 7354, Control_c, 9, 4, 72
2, 7398, Control_c, 9, 4, 0
2, 7458, Control_c, 9, 4, 32
2, 7464, Note_on_c, 9, 44, 127
2, 7470, Control_c, 9, 17, 36
2, 7471, Note_on_c, 9, 51, 80
2, 7489, Control_c, 9, 4, 122
2, 7526, Control_c, 9, 4, 98
2, 7546, Note_on_c, 9, 44, 0
2, 7552, Note_on_c, 9, 51, 0
2, 7565, Control_c, 9, 4, 85
2, 7576, Control_c, 9, 18, 0
2, 7576, Note_on_c, 9, 48, 48
2, 7585, Note_on_c, 9, 36, 49
2, 7658, Note_on_c, 9, 48, 0
2, 7668, Note_on_c, 9, 36, 0
2, 7669, End_track
0, 0, End_of_file
