0, 0, Header, 1, 2, 480
1, 0, Start_track
1, 0, Tempo, 588235
1, 0, Time_signature, 4, 2, 24, 8
1, 0, Key_signature, 0, "major"
1, 1, End_track
2, 0, Start_track
2, 0, Title_t, "Classic Studio Kit"
2, 0, Program_c, 9, 0
2, 0, Control_c, 9, 16, 0
2, 30, Control_c, 9, 4, 99
2, 99, Note_on_c, 9, 36, 79
2, 104, Control_c, 9, 4, 83
2, 138, Control_c, 9, 4, 60
2, 168, Control_c, 9, 4, 0
2, 180, Note_on_c, 9, 36, 0
2, 224, Note_on_c, 9, 38, 28
2, 230, Note_on_c, 9, 44, 119
2, 236, Control_c, 9, 4, 112
2, 272, Control_c, 9, 4, 77
2, 306, Note_on_c, 9, 38, 0
2, 313, Note_on_c, 9, 44, 0
2, 368, Control_c, 9, 16, 0
2, 368, Note_on_c, 9, 38, 47
2, 370, Control_c, 9, 4, 84
2, 450, Note_on_c, 9, 38, 0
2, 466, Note_on_c, 9, 36, 84
2, 548, Note_on_c, 9, 36, 0
2, 679, Note_on_c, 9, 38, 54
2, 756, Control_c, 9, 4, 89
2, 761, Note_on_c, 9, 38, 0
2, 767, Control_c, 9, 16, 0
2, 767, Note_on_c, 9, 38, 4
2, 849, Note_on_c, 9, 38, 0
2, 919, Control_c, 9, 4, 84
2, 940, Control_c, 9, 16, 21
2, 940, Note_on_c, 9, 38, 69
2, 959, Control_c, 9, 4, 97
2, 1022, Note_on_c, 9, 38, 0
2, 1028, Control_c, 9, 4, 93
2, 1083, Control_c, 9, 16, 0
2, 1084, Note_on_c, 9, 38, 11
2, 1115, Control_c, 9, 4, 89
2, 1164, Note_on_c, 9, 38, 0
2, 1197, Note_on_c, 9, 38, 12
2, 1217, Control_c, 9, 4, 94
2, 1278, Note_on_c, 9, 38, 0
2, 1323, Control_c, 9, 16, 0
2, 1323, Note_on_c, 9, 38, 12
2, 1324, Control_c, 9, 4, 90
2, 1390, Control_c, 9, 16, 0
2, 1390, Note_on_c, 9, 38, 0
2, 1391, Note_on_c, 9, 38, 11
2, 1405, Note_on_c, 9, 38, 0
2, 1440, Note_on_c, 9, 38, 5
2, 1452, Control_c, 9, 16, 21
2, 1453, Note_on_c, 9, 38, 0
2, 1454, Note_on_c, 9, 38, 72
2, 1472, Note_on_c, 9, 38, 0
2, 1576, Control_c, 9, 16, 0
2, 1577, Note_on_c, 9, 38, 17
2, 1632, Control_c, 9, 4, 86
2, 1659, Note_on_c, 9, 38, 0
2, 1703, Note_on_c, 9, 38, 15
2, 1784, Note_on_c, 9, 38, 0
2, 1837, Control_c, 9, 16, 0
2, 1838, Note_on_c, 9, 38, 31
2, 1919, Note_on_c, 9, 38, 0
2, 1959, Control_c, 9, 16, 42
2, 1959, Note_on_c, 9, 38, 66
2, 1985, Control_c, 9, 4, 91
2, 2041, Note_on_c, 9, 38, 0
2, 2126, Control_c, 9, 4, 85
2, 2159, Control_c, 9, 4, 92
2, 2390, Control_c, 9, 4, 88
2, 2442, Control_c, 9, 17, 0
2, 2443, Control_c, 9, 16, 0
2, 2443, Note_on_c, 9, 51, 94
2, 2445, Note_on_c, 9, 38, 74
2, 2459, Note_on_c, 9, 36, 74
2, 2502, Control_c, 9, 4, 98
2, 2524, Note_on_c, 9, 38, 0
2, 2524, Note_on_c, 9, 51, 0
2, 2541, Note_on_c, 9, 36, 0
2, 2559, Control_c, 9, 4, 82
2, 2591, Control_c, 9, 4, 69
2, 2626, Control_c, 9, 4, 0
2, 2678, Control_c, 9, 4, 48
2, 2683, Note_on_c, 9, 44, 113
2, 2689, Control_c, 9, 17, 43
2, 2690, Note_on_c, 9, 51, 79
2, 2708, Control_c, 9, 4, 127
2, 2745, Control_c, 9, 4, 104
2, 2764, Note_on_c, 9, 44, 0
2, 2772, Note_on_c, 9, 51, 0
2, 2777, Control_c, 9, 4, 92
2, 2793, Note_on_c, 9, 36, 74
2, 2819, Control_c, 9, 18, 0
2, 2819, Note_on_c, 9, 48, 60
2, 2875, Note_on_c, 9, 36, 0
2, 2901, Note_on_c, 9, 48, 0
2, 2926, Control_c, 9, 4, 97
2, 2949, Control_c, 9, 17, 0
2, 2950, Note_on_c, 9, 51, 91
2, 2975, Control_c, 9, 4, 104
2, 3028, Control_c, 9, 4, 90
2, 3030, Note_on_c, 9, 51, 0
2, 3061, Control_c, 9, 17, 13
2, 3061, Note_on_c, 9, 51, 69
2, 3062, Control_c, 9, 4, 71
2, 3097, Control_c, 9, 4, 0
2, 3143, Note_on_c, 9, 51, 0
2, 3161, Note_on_c, 9, 44, 127
2, 3167, Control_c, 9, 4, 127
2, 3203, Control_c, 9, 4, 100
2, 3243, Note_on_c, 9, 44, 0
2, 3253, Control_c, 9, 4, 88
2, 3348, Control_c, 9, 4, 94
2, 3397, Note_on_c, 9, 36, 68
2, 3407, Control_c, 9, 17, 1
2, 3407, Note_on_c, 9, 51, 100
2, 3411, Note_on_c, 9, 38, 63
2, 3436, Control_c, 9, 4, 98
2, 3479, Note_on_c, 9, 36, 0
2, 3488, Note_on_c, 9, 51, 0
2, 3491, Note_on_c, 9, 38, 0
2, 3521, Control_c, 9, 4, 84
2, 3554, Control_c, 9, 4, 70
2, 3589, Control_c, 9, 4, 22
2, 3626, Control_c, 9, 4, 42
2, 3633, Note_on_c, 9, 46, 14
2, 3634, Note_on_c, 9, 44, 87
2, 3636, Control_c, 9, 17, 47
2, 3637, Note_on_c, 9, 51, 69
2, 3658, Control_c, 9, 4, 127
2, 3695, Control_c, 9, 4, 100
2, 3714, Note_on_c, 9, 44, 0
2, 3714, Note_on_c, 9, 46, 0
2, 3718, Note_on_c, 9, 51, 0
2, 3735, Control_c, 9, 4, 87
2, 3830, Control_c, 9, 4, 96
2, 3871, Control_c, 9, 4, 92
2, 3898, Control_c, 9, 17, 37
2, 3899, Note_on_c, 9, 51, 94
2, 3926, Control_c, 9, 4, 102
2, 3970, Control_c, 9, 4, 90
2, 3980, Note_on_c, 9, 51, 0
2, 4005, Control_c, 9, 4, 71
2, 4043, Control_c, 9, 4, 0
2, 4106, Note_on_c, 9, 44, 127
2, 4112, Control_c, 9, 17, 28
2, 4112, Note_on_c, 9, 51, 48
2, 4114, Control_c, 9, 4, 127
2, 4158, Control_c, 9, 4, 100
2, 4189, Note_on_c, 9, 44, 0
2, 4195, Note_on_c, 9, 51, 0
2, 4202, Control_c, 9, 4, 87
2, 4293, Control_c, 9, 4, 92
2, 4335, Control_c, 9, 4, 92
2, 4364, Note_on_c, 9, 36, 62
2, 4370, Control_c, 9, 16, 0
2, 4371, Note_on_c, 9, 38, 68
2, 4372, Control_c, 9, 17, 6
2, 4372, Note_on_c, 9, 51, 93
2, 4394, Control_c, 9, 4, 104
2, 4440, Control_c, 9, 4, 90
2, 4446, Note_on_c, 9, 36, 0
2, 4452, Note_on_c, 9, 38, 0
2, 4452, Note_on_c, 9, 51, 0
2, 4474, Control_c, 9, 4, 71
2, 4515, Control_c, 9, 4, 0
2, 4578, Note_on_c, 9, 44, 126
2, 4584, Control_c, 9, 4, 127
2, 4599, Control_c, 9, 17, 0
2, 4599, Note_on_c, 9, 51, 71
2, 4627, Control_c, 9, 4, 112
2, 4659, Control_c, 9, 4, 92
2, 4659, Note_on_c, 9, 44, 0
2, 4680, Note_on_c, 9, 51, 0
2, 4694, Control_c, 9, 4, 88
2, 4717, Note_on_c, 9, 36, 77
2, 4800, Note_on_c, 9, 36, 0
2, 4810, Control_c, 9, 4, 96
2, 4839, Note_on_c, 9, 48, 54
2, 4848, Control_c, 9, 17, 0
2, 4849, Note_on_c, 9, 51, 83
2, 4859, Control_c, 9, 4, 102
2, 4912, Control_c, 9, 4, 90
2, 4920, Note_on_c, 9, 48, 0
2, 4929, Note_on_c, 9, 51, 0
2, 4942, Control_c, 9, 4, 70
2, 4956, Control_c, 9, 18, 0
2, 4956, Note_on_c, 9, 48, 68
2, 4971, Control_c, 9, 17, 1
2, 4971, Note_on_c, 9, 51, 76
2, 4974, Control_c, 9, 4, 0
2, 5038, Note_on_c, 9, 48, 0
2, 5040, Note_on_c, 9, 44, 127
2, 5044, Control_c, 9, 4, 127
2, 5053, Note_on_c, 9, 51, 0
2, 5091, Control_c, 9, 4, 97
2, 5120, Note_on_c, 9, 44, 0
2, 5138, Control_c, 9, 4, 87
2, 5231, Control_c, 9, 4, 93
2, 5292, Control_c, 9, 17, 4
2, 5293, Control_c, 9, 16, 42
2, 5293, Note_on_c, 9, 51, 91
2, 5295, Note_on_c, 9, 38, 77
2, 5337, Control_c, 9, 4, 104
2, 5370, Control_c, 9, 4, 98
2, 5374, Note_on_c, 9, 51, 0
2, 5376, Note_on_c, 9, 38, 0
2, 5410, Control_c, 9, 4, 83
2, 5447, Control_c, 9, 4, 56
2, 5478, Control_c, 9, 4, 0
2, 5517, Note_on_c, 9, 46, 15
2, 5518, Note_on_c, 9, 44, 93
2, 5526, Control_c, 9, 4, 127
2, 5559, Control_c, 9, 4, 104
2, 5592, Control_c, 9, 4, 91
2, 5598, Note_on_c, 9, 46, 0
2, 5599, Note_on_c, 9, 44, 0
2, 5747, Control_c, 9, 4, 92
2, 5808, Control_c, 9, 4, 102
2, 5843, Control_c, 9, 4, 96
2, 5878, Control_c, 9, 4, 83
2, 5925, Control_c, 9, 4, 52
2, 5955, Control_c, 9, 4, 0
2, 5998, Note_on_c, 9, 44, 87
2, 6008, Control_c, 9, 4, 127
2, 6040, Control_c, 9, 4, 99
2, 6081, Note_on_c, 9, 44, 0
2, 6085, Control_c, 9, 4, 89
2, 6200, Control_c, 9, 4, 94
2, 6232, Control_c, 9, 4, 90
2, 6267, Control_c, 9, 17, 0
2, 6267, Note_on_c, 9, 51, 127
2, 6268, Control_c, 9, 16, 0
2, 6269, Note_on_c, 9, 36, 46
2, 6269, Note_on_c, 9, 38, 60
2, 6303, Control_c, 9, 4, 102
2, 6349, Note_on_c, 9, 38, 0
2, 6349, Note_on_c, 9, 51, 0
2, 6351, Note_on_c, 9, 36, 0
2, 6355, Control_c, 9, 4, 90
2, 6369, Note_on_c, 9, 38, 12
2, 6387, Control_c, 9, 4, 71
2, 6429, Control_c, 9, 4, 0
2, 6451, Note_on_c, 9, 38, 0
2, 6486, Note_on_c, 9, 44, 113
2, 6494, Control_c, 9, 4, 127
2, 6501, Control_c, 9, 17, 3
2, 6502, Note_on_c, 9, 51, 77
2, 6538, Control_c, 9, 4, 100
2, 6568, Note_on_c, 9, 44, 0
2, 6577, Control_c, 9, 4, 90
2, 6583, Note_on_c, 9, 51, 0
2, 6629, Note_on_c, 9, 48, 44
2, 6630, Note_on_c, 9, 36, 75
2, 6684, Control_c, 9, 4, 96
2, 6710, Note_on_c, 9, 48, 0
2, 6711, Note_on_c, 9, 36, 0
2, 6715, Control_c, 9, 4, 91
2, 6742, Control_c, 9, 18, 0
2, 6743, Note_on_c, 9, 48, 85
2, 6745, Control_c, 9, 17, 6
2, 6746, Note_on_c, 9, 51, 80
2, 6785, Control_c, 9, 4, 102
2, 6825, Note_on_c, 9, 48, 0
2, 6827, Note_on_c, 9, 51, 0
2, 6841, Control_c, 9, 4, 91
2, 6854, Control_c, 9, 17, 4
2, 6854, Note_on_c, 9, 51, 78
2, 6871, Control_c, 9, 4, 71
2, 6904, Control_c, 9, 4, 0
2, 6937, Note_on_c, 9, 51, 0
2, 6964, Note_on_c, 9, 44, 126
2, 6971, Control_c, 9, 4, 127
2, 7006, Control_c, 9, 4, 102
2, 7045, Note_on_c, 9, 44, 0
2, 7049, Control_c, 9, 4, 89
2, 7153, Control_c, 9, 4, 97
2, 7193, Control_c, 9, 4, 92
2, 7214, Control_c, 9, 16, 0
2, 7215, Control_c, 9, 17, 5
2, 7215, Note_on_c, 9, 38, 77
2, 7216, Note_on_c, 9, 51, 94
2, 7226, Note_on_c, 9, 36, 68
2, 7243, Control_c, 9, 4, 99
2, 7295, Note_on_c, 9, 38, 0
2, 7297, Note_on_c, 9, 51, 0
2, 7309, Note_on_c, 9, 36, 0
2, 7311, Control_c, 9, 4, 91
2, 7347, Control_c, 9, 4, 72
2, 7389, Control_c, 9, 4, 0
2, 7448, Note_on_c, 9, 44, 113
2, 7455, Control_c, 9, 4, 127
2, 7457, Control_c, 9, 17, 17
2, 7458, Note_on_c, 9, 51, 67
2, 7490, Control_c, 9, 4, 110
2, 7529, Control_c, 9, 4, 90
2, 7530, Note_on_c, 9, 44, 0
2, 7539, Note_on_c, 9, 51, 0
2, 7584, Note_on_c, 9, 36, 68
2, 7640, Control_c, 9, 4, 96
2, 7666, Note_on_c, 9, 36, 0
2, 7667, End_track
0, 0, End_of_file
