0, 0, Header, 1, 2, 480
1, 0, Start_track
1, 0, Tempo, 652173
1, 0, Time_signature, 4, 2, 24, 8
1, 0, Key_signature, 0, "major"
1, 1, End_track
2, 0, Start_track
2, 0, Title_t, "Midi Drums"
2, 0, Program_c, 9, 0
2, 24, Note_on_c, 9, 36, 93
2, 36, Control_c, 9, 4, 90
2, 36, Note_on_c, 9, 42, 127
2, 99, Note_on_c, 9, 36, 0
2, 110, Note_on_c, 9, 42, 0
2, 334, Note_on_c, 9, 36, 62
2, 337, Control_c, 9, 4, 90
2, 337, Note_on_c, 9, 42, 105
2, 408, Note_on_c, 9, 36, 0
2, 412, Note_on_c, 9, 42, 0
2, 505, Control_c, 9, 4, 90
2, 505, Note_on_c, 9, 42, 127
2, 509, Note_on_c, 9, 38, 127
2, 579, Note_on_c, 9, 42, 0
2, 583, Note_on_c, 9, 38, 0
2, 667, Control_c, 9, 4, 90
2, 667, Note_on_c, 9, 42, 36
2, 742, Note_on_c, 9, 42, 0
2, 791, Note_on_c, 9, 36, 70
2, 808, Control_c, 9, 4, 90
2, 808, Note_on_c, 9, 42, 126
2, 865, Note_on_c, 9, 36, 0
2, 882, Note_on_c, 9, 42, 0
2, 958, Control_c, 9, 4, 90
2, 958, Note_on_c, 9, 42, 127
2, 969, Note_on_c, 9, 36, 127
2, 1033, Note_on_c, 9, 42, 0
2, 1043, Note_on_c, 9, 36, 0
2, 1129, Control_c, 9, 4, 90
2, 1129, Note_on_c, 9, 42, 57
2, 1204, Note_on_c, 9, 42, 0
2, 1276, Note_on_c, 9, 36, 67
2, 1278, Control_c, 9, 4, 90
2, 1278, Note_on_c, 9, 42, 110
2, 1350, Note_on_c, 9, 36, 0
2, 1353, Note_on_c, 9, 42, 0
2, 1439, Control_c, 9, 4, 90
2, 1439, Note_on_c, 9, 38, 127
2, 1439, Note_on_c, 9, 42, 127
2, 1514, Note_on_c, 9, 38, 0
2, 1514, Note_on_c, 9, 42, 0
2, 1604, Control_c, 9, 4, 90
2, 1604, Note_on_c, 9, 42, 57
2, 1678, Note_on_c, 9, 42, 0
2, 1740, Note_on_c, 9, 36, 67
2, 1751, Control_c, 9, 4, 90
2, 1751, Note_on_c, 9, 42, 127
2, 1814, Note_on_c, 9, 36, 0
2, 1826, Note_on_c, 9, 42, 0
2, 1907, Control_c, 9, 4, 90
2, 1907, Note_on_c, 9, 22, 127
2, 1913, Note_on_c, 9, 36, 127
2, 1982, Note_on_c, 9, 22, 0
2, 1987, Note_on_c, 9, 36, 0
2, 2066, Control_c, 9, 4, 90
2, 2066, Note_on_c, 9, 42, 68
2, 2141, Note_on_c, 9, 42, 0
2, 2216, Note_on_c, 9, 36, 79
2, 2230, Control_c, 9, 4, 90
2, 2230, Note_on_c, 9, 42, 127
2, 2291, Note_on_c, 9, 36, 0
2, 2305, Note_on_c, 9, 42, 0
2, 2390, Control_c, 9, 4, 90
2, 2390, Note_on_c, 9, 42, 127
2, 2393, Note_on_c, 9, 38, 127
2, 2465, Note_on_c, 9, 42, 0
2, 2468, Note_on_c, 9, 38, 0
2, 2547, Control_c, 9, 4, 90
2, 2547, Note_on_c, 9, 42, 82
2, 2622, Note_on_c, 9, 42, 0
2, 2685, Note_on_c, 9, 36, 74
2, 2700, Control_c, 9, 4, 90
2, 2700, Note_on_c, 9, 42, 127
2, 2760, Note_on_c, 9, 36, 0
2, 2775, Note_on_c, 9, 42, 0
2, 2849, Control_c, 9, 4, 90
2, 2849, Note_on_c, 9, 42, 116
2, 2864, Note_on_c, 9, 36, 88
2, 2923, Note_on_c, 9, 42, 0
2, 2939, Note_on_c, 9, 36, 0
2, 3021, Control_c, 9, 4, 90
2, 3021, Note_on_c, 9, 42, 58
2, 3095, Note_on_c, 9, 42, 0
2, 3166, Note_on_c, 9, 36, 95
2, 3175, Control_c, 9, 4, 90
2, 3175, Note_on_c, 9, 42, 127
2, 3240, Note_on_c, 9, 36, 0
2, 3250, Note_on_c, 9, 42, 0
2, 3333, Control_c, 9, 4, 90
2, 3333, Note_on_c, 9, 42, 127
2, 3337, Note_on_c, 9, 38, 127
2, 3408, Note_on_c, 9, 42, 0
2, 3411, Note_on_c, 9, 38, 0
2, 3488, Control_c, 9, 4, 90
2, 3488, Note_on_c, 9, 42, 111
2, 3562, Note_on_c, 9, 42, 0
2, 3652, Note_on_c, 9, 38, 127
2, 3656, Control_c, 9, 4, 90
2, 3656, Note_on_c, 9, 42, 127
2, 3726, Note_on_c, 9, 38, 0
2, 3730, Note_on_c, 9, 42, 0
2, 3820, Control_c, 9, 4, 90
2, 3820, Note_on_c, 9, 42, 127
2, 3834, Note_on_c, 9, 36, 127
2, 3895, Note_on_c, 9, 42, 0
2, 3909, Note_on_c, 9, 36, 0
2, 4000, Control_c, 9, 4, 90
2, 4000, Note_on_c, 9, 42, 80
2, 4074, Note_on_c, 9, 42, 0
2, 4164, Note_on_c, 9, 36, 76
2, 4171, Control_c, 9, 4, 90
2, 4171, Note_on_c, 9, 42, 127
2, 4238, Note_on_c, 9, 36, 0
2, 4246, Note_on_c, 9, 42, 0
2, 4327, Control_c, 9, 4, 90
2, 4327, Note_on_c, 9, 38, 127
2, 4327, Note_on_c, 9, 42, 127
2, 4401, Note_on_c, 9, 38, 0
2, 4401, Note_on_c, 9, 42, 0
2, 4483, Control_c, 9, 4, 90
2, 4483, Note_on_c, 9, 42, 120
2, 4557, Note_on_c, 9, 42, 0
2, 4624, Note_on_c, 9, 36, 74
2, 4640, Control_c, 9, 4, 90
2, 4640, Note_on_c, 9, 42, 127
2, 4698, Note_on_c, 9, 36, 0
2, 4715, Note_on_c, 9, 42, 0
2, 4800, Control_c, 9, 4, 90
2, 4800, Note_on_c, 9, 42, 127
2, 4802, Note_on_c, 9, 36, 124
2, 4874, Note_on_c, 9, 42, 0
2, 4877, Note_on_c, 9, 36, 0
2, 4959, Control_c, 9, 4, 90
2, 4959, Note_on_c, 9, 42, 60
2, 5034, Note_on_c, 9, 42, 0
2, 5109, Note_on_c, 9, 36, 88
2, 5115, Control_c, 9, 4, 90
2, 5115, Note_on_c, 9, 42, 127
2, 5183, Note_on_c, 9, 36, 0
2, 5189, Note_on_c, 9, 42, 0
2, 5269, Note_on_c, 9, 38, 127
2, 5272, Control_c, 9, 4, 90
2, 5272, Note_on_c, 9, 42, 127
2, 5343, Note_on_c, 9, 38, 0
2, 5346, Note_on_c, 9, 42, 0
2, 5450, Control_c, 9, 4, 90
2, 5450, Note_on_c, 9, 42, 59
2, 5525, Note_on_c, 9, 42, 0
2, 5579, Note_on_c, 9, 36, 72
2, 5584, Control_c, 9, 4, 90
2, 5584, Note_on_c, 9, 42, 122
2, 5653, Note_on_c, 9, 36, 0
2, 5659, Note_on_c, 9, 42, 0
2, 5734, Control_c, 9, 4, 90
2, 5734, Note_on_c, 9, 22, 127
2, 5744, Note_on_c, 9, 36, 127
2, 5809, Note_on_c, 9, 22, 0
2, 5818, Note_on_c, 9, 36, 0
2, 5910, Control_c, 9, 4, 90
2, 5910, Note_on_c, 9, 42, 72
2, 5984, Note_on_c, 9, 42, 0
2, 6067, Control_c, 9, 4, 90
2, 6067, Note_on_c, 9, 36, 90
2, 6067, Note_on_c, 9, 42, 125
2, 6141, Note_on_c, 9, 36, 0
2, 6141, Note_on_c, 9, 42, 0
2, 6229, Note_on_c, 9, 38, 119
2, 6232, Control_c, 9, 4, 90
2, 6232, Note_on_c, 9, 42, 127
2, 6304, Note_on_c, 9, 38, 0
2, 6307, Note_on_c, 9, 42, 0
2, 6400, Control_c, 9, 4, 90
2, 6400, Note_on_c, 9, 42, 51
2, 6474, Note_on_c, 9, 42, 0
2, 6527, Note_on_c, 9, 36, 80
2, 6549, Control_c, 9, 4, 90
2, 6549, Note_on_c, 9, 42, 124
2, 6601, Note_on_c, 9, 36, 0
2, 6624, Note_on_c, 9, 42, 0
2, 6706, Control_c, 9, 4, 90
2, 6706, Note_on_c, 9, 42, 127
2, 6710, Note_on_c, 9, 36, 127
2, 6780, Note_on_c, 9, 42, 0
2, 6785, Note_on_c, 9, 36, 0
2, 6871, Control_c, 9, 4, 90
2, 6871, Note_on_c, 9, 42, 49
2, 6946, Note_on_c, 9, 42, 0
2, 7004, Note_on_c, 9, 36, 86
2, 7024, Control_c, 9, 4, 90
2, 7024, Note_on_c, 9, 42, 73
2, 7078, Note_on_c, 9, 36, 0
2, 7099, Note_on_c, 9, 42, 0
2, 7183, Control_c, 9, 4, 90
2, 7183, Note_on_c, 9, 38, 127
2, 7183, Note_on_c, 9, 42, 127
2, 7258, Note_on_c, 9, 38, 0
2, 7258, Note_on_c, 9, 42, 0
2, 7353, Control_c, 9, 4, 90
2, 7353, Note_on_c, 9, 42, 72
2, 7428, Note_on_c, 9, 42, 0
2, 7503, Note_on_c, 9, 38, 127
2, 7512, Control_c, 9, 4, 90
2, 7512, Note_on_c, 9, 42, 127
2, 7578, Note_on_c, 9, 38, 0
2, 7587, Note_on_c, 9, 42, 0
2, 7588, End_track
0, 0, End_of_file
