0, 0, Header, 1, 2, 480
1, 0, Start_track
1, 0, Tempo, 588235
1, 0, Time_signature, 4, 2, 24, 8
1, 0, Key_signature, 0, "major"
1, 1, End_track
2, 0, Start_track
2, 0, Title_t, "Classic Studio Kit"
2, 0, Program_c, 9, 0
2, 0, Control_c, 9, 16, 0
2, 4, Note_on_c, 9, 44, 127
2, 19, Control_c, 9, 4, 94
2, 54, Control_c, 9, 4, 40
2, 84, Note_on_c, 9, 44, 0
2, 90, Control_c, 9, 4, 31
2, 122, Note_on_c, 9, 48, 66
2, 126, Control_c, 9, 4, 69
2, 126, Note_on_c, 9, 46, 7
2, 178, Control_c, 9, 4, 65
2, 205, Note_on_c, 9, 48, 0
2, 208, Note_on_c, 9, 46, 0
2, 247, Note_on_c, 9, 36, 79
2, 289, Control_c, 9, 4, 51
2, 329, Note_on_c, 9, 36, 0
2, 334, Control_c, 9, 4, 0
2, 370, Control_c, 9, 18, 0
2, 371, Note_on_c, 9, 48, 31
2, 451, Control_c, 9, 4, 48
2, 453, Note_on_c, 9, 48, 0
2, 459, Note_on_c, 9, 44, 74
2, 471, Note_on_c, 9, 38, 64
2, 484, Control_c, 9, 4, 91
2, 519, Control_c, 9, 4, 98
2, 541, Note_on_c, 9, 44, 0
2, 549, Control_c, 9, 4, 110
2, 553, Note_on_c, 9, 38, 0
2, 587, Control_c, 9, 4, 91
2, 610, Note_on_c, 9, 36, 71
2, 623, Control_c, 9, 4, 72
2, 662, Control_c, 9, 4, 0
2, 693, Note_on_c, 9, 36, 0
2, 719, Control_c, 9, 16, 0
2, 720, Note_on_c, 9, 38, 29
2, 729, Control_c, 9, 4, 35
2, 734, Note_on_c, 9, 44, 127
2, 759, Control_c, 9, 4, 79
2, 795, Control_c, 9, 4, 24
2, 800, Note_on_c, 9, 38, 0
2, 816, Note_on_c, 9, 44, 0
2, 825, Control_c, 9, 4, 29
2, 854, Control_c, 9, 18, 42
2, 854, Note_on_c, 9, 48, 70
2, 862, Control_c, 9, 4, 69
2, 862, Note_on_c, 9, 46, 9
2, 909, Control_c, 9, 4, 63
2, 936, Note_on_c, 9, 48, 0
2, 944, Note_on_c, 9, 46, 0
2, 967, Control_c, 9, 4, 59
2, 967, Note_on_c, 9, 36, 78
2, 998, Control_c, 9, 4, 47
2, 1040, Control_c, 9, 4, 0
2, 1048, Note_on_c, 9, 36, 0
2, 1096, Control_c, 9, 18, 0
2, 1097, Note_on_c, 9, 48, 28
2, 1161, Control_c, 9, 4, 49
2, 1168, Note_on_c, 9, 44, 74
2, 1178, Note_on_c, 9, 48, 0
2, 1192, Note_on_c, 9, 38, 63
2, 1193, Control_c, 9, 4, 92
2, 1250, Note_on_c, 9, 44, 0
2, 1255, Control_c, 9, 4, 106
2, 1273, Note_on_c, 9, 38, 0
2, 1300, Control_c, 9, 4, 91
2, 1322, Note_on_c, 9, 36, 70
2, 1334, Control_c, 9, 4, 72
2, 1373, Control_c, 9, 4, 0
2, 1404, Note_on_c, 9, 36, 0
2, 1435, Control_c, 9, 16, 0
2, 1436, Note_on_c, 9, 38, 30
2, 1438, Control_c, 9, 4, 35
2, 1443, Note_on_c, 9, 44, 127
2, 1468, Control_c, 9, 4, 77
2, 1502, Control_c, 9, 4, 23
2, 1517, Note_on_c, 9, 38, 0
2, 1524, Note_on_c, 9, 44, 0
2, 1533, Control_c, 9, 4, 28
2, 1570, Control_c, 9, 4, 69
2, 1570, Note_on_c, 9, 46, 11
2, 1571, Control_c, 9, 18, 21
2, 1571, Note_on_c, 9, 48, 78
2, 1615, Control_c, 9, 4, 63
2, 1652, Note_on_c, 9, 46, 0
2, 1654, Note_on_c, 9, 48, 0
2, 1668, Control_c, 9, 4, 58
2, 1686, Note_on_c, 9, 36, 74
2, 1702, Control_c, 9, 4, 41
2, 1738, Control_c, 9, 4, 0
2, 1769, Note_on_c, 9, 36, 0
2, 1806, Control_c, 9, 18, 0
2, 1806, Note_on_c, 9, 48, 34
2, 1867, Control_c, 9, 4, 64
2, 1872, Note_on_c, 9, 44, 67
2, 1889, Note_on_c, 9, 48, 0
2, 1898, Control_c, 9, 4, 89
2, 1901, Note_on_c, 9, 38, 65
2, 1948, Control_c, 9, 4, 108
2, 1954, Note_on_c, 9, 44, 0
2, 1982, Note_on_c, 9, 38, 0
2, 1992, Control_c, 9, 4, 98
2, 2033, Note_on_c, 9, 36, 71
2, 2035, Control_c, 9, 4, 70
2, 2070, Control_c, 9, 4, 0
2, 2116, Note_on_c, 9, 36, 0
2, 2140, Note_on_c, 9, 46, 7
2, 2145, Control_c, 9, 4, 32
2, 2148, Control_c, 9, 16, 0
2, 2148, Note_on_c, 9, 38, 29
2, 2151, Note_on_c, 9, 44, 127
2, 2175, Control_c, 9, 4, 75
2, 2209, Control_c, 9, 4, 24
2, 2222, Note_on_c, 9, 46, 0
2, 2231, Note_on_c, 9, 38, 0
2, 2231, Note_on_c, 9, 44, 0
2, 2241, Control_c, 9, 4, 29
2, 2275, Control_c, 9, 4, 69
2, 2275, Note_on_c, 9, 46, 18
2, 2282, Control_c, 9, 18, 21
2, 2283, Note_on_c, 9, 48, 76
2, 2357, Note_on_c, 9, 46, 0
2, 2364, Note_on_c, 9, 48, 0
2, 2372, Note_on_c, 9, 36, 64
2, 2448, Control_c, 9, 18, 0
2, 2449, Note_on_c, 9, 48, 42
2, 2453, Note_on_c, 9, 36, 0
2, 2506, Note_on_c, 9, 38, 64
2, 2531, Note_on_c, 9, 48, 0
2, 2554, Control_c, 9, 4, 63
2, 2587, Note_on_c, 9, 38, 0
2, 2593, Note_on_c, 9, 36, 64
2, 2674, Note_on_c, 9, 36, 0
2, 2690, Control_c, 9, 16, 0
2, 2691, Note_on_c, 9, 38, 29
2, 2772, Note_on_c, 9, 38, 0
2, 2785, Control_c, 9, 18, 42
2, 2785, Note_on_c, 9, 48, 63
2, 2864, Note_on_c, 9, 36, 69
2, 2866, Note_on_c, 9, 48, 0
2, 2946, Note_on_c, 9, 36, 0
2, 2949, Control_c, 9, 18, 0
2, 2949, Note_on_c, 9, 48, 46
2, 3031, Note_on_c, 9, 48, 0
2, 3038, Note_on_c, 9, 38, 65
2, 3110, Note_on_c, 9, 36, 53
2, 3120, Note_on_c, 9, 38, 0
2, 3193, Note_on_c, 9, 36, 0
2, 3225, Control_c, 9, 16, 0
2, 3226, Note_on_c, 9, 38, 33
2, 3296, Control_c, 9, 18, 42
2, 3297, Note_on_c, 9, 48, 58
2, 3308, Note_on_c, 9, 38, 0
2, 3372, Note_on_c, 9, 36, 69
2, 3379, Note_on_c, 9, 48, 0
2, 3447, Control_c, 9, 18, 0
2, 3447, Note_on_c, 9, 48, 46
2, 3454, Note_on_c, 9, 36, 0
2, 3529, Note_on_c, 9, 48, 0
2, 3533, Note_on_c, 9, 38, 64
2, 3614, Note_on_c, 9, 38, 0
2, 3616, Note_on_c, 9, 36, 62
2, 3698, Note_on_c, 9, 36, 0
2, 3702, Control_c, 9, 16, 0
2, 3703, Note_on_c, 9, 38, 35
2, 3783, Note_on_c, 9, 48, 60
2, 3785, Note_on_c, 9, 38, 0
2, 3862, Note_on_c, 9, 36, 71
2, 3865, Note_on_c, 9, 48, 0
2, 3933, Control_c, 9, 18, 0
2, 3934, Note_on_c, 9, 48, 50
2, 3944, Note_on_c, 9, 36, 0
2, 4010, Note_on_c, 9, 38, 61
2, 4014, Note_on_c, 9, 48, 0
2, 4091, Note_on_c, 9, 38, 0
2, 4099, Note_on_c, 9, 36, 67
2, 4176, Control_c, 9, 16, 0
2, 4176, Note_on_c, 9, 38, 36
2, 4181, Note_on_c, 9, 36, 0
2, 4258, Note_on_c, 9, 38, 0
2, 4270, Note_on_c, 9, 48, 62
2, 4341, Note_on_c, 9, 36, 70
2, 4351, Note_on_c, 9, 48, 0
2, 4422, Control_c, 9, 18, 0
2, 4423, Note_on_c, 9, 36, 0
2, 4423, Note_on_c, 9, 48, 48
2, 4494, Note_on_c, 9, 38, 60
2, 4504, Note_on_c, 9, 48, 0
2, 4571, Note_on_c, 9, 36, 71
2, 4575, Note_on_c, 9, 38, 0
2, 4652, Control_c, 9, 16, 0
2, 4653, Note_on_c, 9, 36, 0
2, 4653, Note_on_c, 9, 38, 31
2, 4734, Note_on_c, 9, 38, 0
2, 4751, Note_on_c, 9, 48, 62
2, 4809, Note_on_c, 9, 36, 61
2, 4832, Note_on_c, 9, 48, 0
2, 4892, Note_on_c, 9, 36, 0
2, 4899, Control_c, 9, 18, 0
2, 4899, Note_on_c, 9, 48, 48
2, 4972, Note_on_c, 9, 38, 63
2, 4973, Control_c, 9, 4, 67
2, 4981, Note_on_c, 9, 48, 0
2, 5045, Note_on_c, 9, 36, 68
2, 5054, Note_on_c, 9, 38, 0
2, 5127, Note_on_c, 9, 36, 0
2, 5137, Control_c, 9, 16, 0
2, 5137, Note_on_c, 9, 38, 32
2, 5218, Note_on_c, 9, 48, 56
2, 5219, Note_on_c, 9, 38, 0
2, 5288, Note_on_c, 9, 36, 64
2, 5300, Note_on_c, 9, 48, 0
2, 5362, Control_c, 9, 18, 0
2, 5362, Note_on_c, 9, 48, 48
2, 5371, Note_on_c, 9, 36, 0
2, 5433, Note_on_c, 9, 38, 62
2, 5443, Note_on_c, 9, 48, 0
2, 5513, Note_on_c, 9, 38, 0
2, 5517, Note_on_c, 9, 36, 65
2, 5599, Control_c, 9, 16, 0
2, 5599, Note_on_c, 9, 38, 33
2, 5601, Note_on_c, 9, 36, 0
2, 5681, Note_on_c, 9, 38, 0
2, 5689, Note_on_c, 9, 48, 60
2, 5756, Note_on_c, 9, 36, 60
2, 5770, Note_on_c, 9, 48, 0
2, 5835, Control_c, 9, 18, 0
2, 5836, Note_on_c, 9, 48, 52
2, 5839, Note_on_c, 9, 36, 0
2, 5902, Note_on_c, 9, 38, 66
2, 5916, Note_on_c, 9, 48, 0
2, 5978, Note_on_c, 9, 36, 57
2, 5982, Note_on_c, 9, 38, 0
2, 6052, Control_c, 9, 16, 0
2, 6053, Note_on_c, 9, 38, 34
2, 6060, Note_on_c, 9, 36, 0
2, 6089, Control_c, 9, 4, 67
2, 6089, Note_on_c, 9, 46, 7
2, 6134, Note_on_c, 9, 38, 0
2, 6147, Control_c, 9, 18, 21
2, 6148, Note_on_c, 9, 48, 46
2, 6170, Note_on_c, 9, 46, 0
2, 6229, Note_on_c, 9, 48, 0
2, 6249, Note_on_c, 9, 36, 88
2, 6330, Note_on_c, 9, 36, 0
2, 6465, Note_on_c, 9, 38, 64
2, 6546, Note_on_c, 9, 38, 0
2, 6555, Control_c, 9, 4, 62
2, 6591, Control_c, 9, 4, 46
2, 6623, Control_c, 9, 4, 0
2, 6692, Control_c, 9, 4, 49
2, 6698, Note_on_c, 9, 44, 93
2, 6721, Control_c, 9, 16, 0
2, 6722, Note_on_c, 9, 38, 42
2, 6723, Control_c, 9, 4, 90
2, 6757, Control_c, 9, 4, 69
2, 6780, Note_on_c, 9, 44, 0
2, 6794, Control_c, 9, 4, 54
2, 6804, Note_on_c, 9, 38, 0
2, 6826, Control_c, 9, 4, 36
2, 6842, Control_c, 9, 18, 0
2, 6843, Note_on_c, 9, 48, 75
2, 6857, Control_c, 9, 4, 0
2, 6924, Note_on_c, 9, 48, 0
2, 6963, Note_on_c, 9, 38, 37
2, 7044, Note_on_c, 9, 38, 0
2, 7075, Control_c, 9, 16, 0
2, 7076, Note_on_c, 9, 38, 40
2, 7157, Note_on_c, 9, 38, 0
2, 7180, Control_c, 9, 4, 9
2, 7199, Control_c, 9, 16, 42
2, 7199, Note_on_c, 9, 38, 53
2, 7210, Control_c, 9, 4, 29
2, 7242, Control_c, 9, 4, 42
2, 7281, Note_on_c, 9, 38, 0
2, 7300, Note_on_c, 9, 36, 48
2, 7382, Note_on_c, 9, 36, 0
2, 7423, Note_on_c, 9, 36, 68
2, 7505, Note_on_c, 9, 36, 0
2, 7554, Note_on_c, 9, 48, 47
2, 7629, Control_c, 9, 4, 70
2, 7635, Note_on_c, 9, 48, 0
2, 7660, Control_c, 9, 4, 76
2, 7674, Control_c, 9, 16, 0
2, 7675, End_track
0, 0, End_of_file
