0, 0, Header, 1, 2, 480
1, 0, Start_track
1, 0, Tempo, 588235
1, 0, Time_signature, 4, 2, 24, 8
1, 0, Key_signature, 0, "major"
1, 1, End_track
2, 0, Start_track
2, 0, Title_t, "Classic Studio Kit"
2, 0, Program_c, 9, 0
2, 0, Control_c, 9, 18, 0
2, 3, Control_c, 9, 4, 96
2, 35, Note_on_c, 9, 48, 61
2, 37, Control_c, 9, 17, 63
2, 38, Note_on_c, 9, 51, 60
2, 95, Control_c, 9, 4, 92
2, 117, Note_on_c, 9, 48, 0
2, 118, Note_on_c, 9, 51, 0
2, 127, Control_c, 9, 4, 86
2, 165, Control_c, 9, 4, 73
2, 167, Control_c, 9, 17, 127
2, 168, Note_on_c, 9, 51, 69
2, 196, Control_c, 9, 4, 46
2, 226, Control_c, 9, 4, 4
2, 250, Note_on_c, 9, 51, 0
2, 262, Note_on_c, 9, 44, 80
2, 273, Note_on_c, 9, 36, 36
2, 278, Control_c, 9, 4, 114
2, 282, Control_c, 9, 17, 127
2, 282, Note_on_c, 9, 51, 7
2, 317, Control_c, 9, 4, 98
2, 344, Note_on_c, 9, 44, 0
2, 354, Note_on_c, 9, 36, 0
2, 357, Control_c, 9, 4, 84
2, 362, Note_on_c, 9, 51, 0
2, 462, Control_c, 9, 4, 90
2, 518, Control_c, 9, 17, 52
2, 518, Note_on_c, 9, 51, 82
2, 520, Note_on_c, 9, 36, 50
2, 521, Control_c, 9, 16, 0
2, 522, Note_on_c, 9, 38, 53
2, 601, Note_on_c, 9, 36, 0
2, 601, Note_on_c, 9, 51, 0
2, 603, Note_on_c, 9, 38, 0
2, 614, Control_c, 9, 4, 83
2, 651, Control_c, 9, 4, 70
2, 692, Control_c, 9, 4, 0
2, 740, Control_c, 9, 4, 48
2, 745, Note_on_c, 9, 44, 113
2, 756, Control_c, 9, 17, 111
2, 756, Note_on_c, 9, 51, 73
2, 770, Control_c, 9, 4, 114
2, 815, Control_c, 9, 4, 93
2, 827, Note_on_c, 9, 44, 0
2, 838, Note_on_c, 9, 51, 0
2, 858, Control_c, 9, 4, 83
2, 867, Control_c, 9, 18, 0
2, 867, Note_on_c, 9, 48, 45
2, 880, Note_on_c, 9, 36, 39
2, 950, Note_on_c, 9, 48, 0
2, 962, Note_on_c, 9, 36, 0
2, 966, Control_c, 9, 4, 98
2, 987, Note_on_c, 9, 48, 58
2, 995, Control_c, 9, 17, 100
2, 995, Note_on_c, 9, 51, 57
2, 1055, Control_c, 9, 4, 93
2, 1069, Note_on_c, 9, 48, 0
2, 1076, Note_on_c, 9, 51, 0
2, 1102, Control_c, 9, 4, 83
2, 1123, Control_c, 9, 17, 96
2, 1124, Note_on_c, 9, 51, 65
2, 1133, Control_c, 9, 4, 70
2, 1175, Control_c, 9, 4, 0
2, 1205, Note_on_c, 9, 51, 0
2, 1222, Control_c, 9, 4, 48
2, 1226, Note_on_c, 9, 44, 106
2, 1233, Note_on_c, 9, 36, 48
2, 1252, Control_c, 9, 4, 110
2, 1299, Control_c, 9, 4, 91
2, 1308, Note_on_c, 9, 44, 0
2, 1315, Note_on_c, 9, 36, 0
2, 1329, Control_c, 9, 4, 85
2, 1355, Control_c, 9, 17, 39
2, 1356, Note_on_c, 9, 51, 77
2, 1429, Control_c, 9, 4, 90
2, 1438, Note_on_c, 9, 51, 0
2, 1476, Note_on_c, 9, 38, 61
2, 1483, Note_on_c, 9, 36, 51
2, 1557, Note_on_c, 9, 38, 0
2, 1565, Note_on_c, 9, 36, 0
2, 1596, Control_c, 9, 4, 76
2, 1628, Control_c, 9, 4, 54
2, 1659, Control_c, 9, 4, 0
2, 1695, Control_c, 9, 4, 48
2, 1700, Note_on_c, 9, 44, 93
2, 1705, Control_c, 9, 17, 84
2, 1705, Note_on_c, 9, 51, 79
2, 1726, Control_c, 9, 4, 118
2, 1764, Control_c, 9, 4, 96
2, 1782, Note_on_c, 9, 44, 0
2, 1787, Note_on_c, 9, 51, 0
2, 1799, Control_c, 9, 4, 83
2, 1828, Control_c, 9, 18, 0
2, 1829, Note_on_c, 9, 48, 42
2, 1836, Note_on_c, 9, 36, 45
2, 1910, Note_on_c, 9, 48, 0
2, 1919, Note_on_c, 9, 36, 0
2, 1923, Control_c, 9, 4, 96
2, 1954, Note_on_c, 9, 48, 62
2, 1960, Control_c, 9, 17, 51
2, 1961, Note_on_c, 9, 51, 59
2, 2024, Control_c, 9, 4, 91
2, 2036, Note_on_c, 9, 48, 0
2, 2042, Note_on_c, 9, 51, 0
2, 2071, Control_c, 9, 4, 80
2, 2083, Control_c, 9, 17, 93
2, 2084, Note_on_c, 9, 51, 64
2, 2109, Control_c, 9, 4, 55
2, 2141, Control_c, 9, 4, 0
2, 2166, Note_on_c, 9, 51, 0
2, 2179, Control_c, 9, 4, 48
2, 2184, Note_on_c, 9, 44, 93
2, 2187, Note_on_c, 9, 36, 49
2, 2198, Control_c, 9, 17, 93
2, 2198, Note_on_c, 9, 51, 5
2, 2210, Control_c, 9, 4, 112
2, 2241, Control_c, 9, 4, 99
2, 2266, Note_on_c, 9, 44, 0
2, 2269, Note_on_c, 9, 36, 0
2, 2280, Control_c, 9, 4, 84
2, 2280, Note_on_c, 9, 51, 0
2, 2402, Control_c, 9, 4, 94
2, 2431, Control_c, 9, 17, 28
2, 2431, Note_on_c, 9, 36, 52
2, 2433, Note_on_c, 9, 51, 83
2, 2436, Control_c, 9, 16, 0
2, 2437, Note_on_c, 9, 38, 54
2, 2513, Note_on_c, 9, 36, 0
2, 2513, Note_on_c, 9, 51, 0
2, 2518, Note_on_c, 9, 38, 0
2, 2527, Control_c, 9, 4, 83
2, 2562, Control_c, 9, 4, 70
2, 2607, Control_c, 9, 4, 0
2, 2656, Control_c, 9, 4, 50
2, 2660, Note_on_c, 9, 44, 106
2, 2675, Control_c, 9, 17, 63
2, 2675, Note_on_c, 9, 51, 70
2, 2686, Control_c, 9, 4, 112
2, 2722, Control_c, 9, 4, 98
2, 2743, Note_on_c, 9, 44, 0
2, 2757, Note_on_c, 9, 51, 0
2, 2760, Control_c, 9, 4, 84
2, 2792, Control_c, 9, 18, 0
2, 2792, Note_on_c, 9, 48, 44
2, 2800, Note_on_c, 9, 36, 45
2, 2874, Note_on_c, 9, 48, 0
2, 2879, Control_c, 9, 4, 97
2, 2882, Note_on_c, 9, 36, 0
2, 2916, Note_on_c, 9, 48, 54
2, 2920, Control_c, 9, 17, 67
2, 2921, Note_on_c, 9, 51, 57
2, 2971, Control_c, 9, 4, 92
2, 2997, Note_on_c, 9, 48, 0
2, 3002, Note_on_c, 9, 51, 0
2, 3022, Control_c, 9, 4, 80
2, 3040, Control_c, 9, 17, 99
2, 3040, Note_on_c, 9, 51, 63
2, 3065, Control_c, 9, 4, 57
2, 3066, Note_on_c, 9, 46, 7
2, 3100, Control_c, 9, 4, 0
2, 3122, Note_on_c, 9, 51, 0
2, 3133, Control_c, 9, 4, 49
2, 3137, Note_on_c, 9, 44, 87
2, 3147, Note_on_c, 9, 46, 0
2, 3149, Note_on_c, 9, 36, 44
2, 3163, Control_c, 9, 4, 112
2, 3196, Control_c, 9, 4, 98
2, 3220, Note_on_c, 9, 44, 0
2, 3232, Note_on_c, 9, 36, 0
2, 3239, Control_c, 9, 4, 85
2, 3272, Control_c, 9, 17, 43
2, 3273, Note_on_c, 9, 51, 80
2, 3346, Control_c, 9, 4, 90
2, 3355, Note_on_c, 9, 51, 0
2, 3392, Control_c, 9, 16, 21
2, 3393, Note_on_c, 9, 38, 59
2, 3400, Note_on_c, 9, 36, 54
2, 3473, Note_on_c, 9, 38, 0
2, 3481, Note_on_c, 9, 36, 0
2, 3491, Control_c, 9, 4, 83
2, 3532, Control_c, 9, 4, 70
2, 3577, Control_c, 9, 4, 0
2, 3613, Control_c, 9, 17, 101
2, 3613, Note_on_c, 9, 51, 71
2, 3618, Control_c, 9, 4, 50
2, 3623, Note_on_c, 9, 44, 93
2, 3648, Control_c, 9, 4, 114
2, 3680, Control_c, 9, 4, 100
2, 3695, Note_on_c, 9, 51, 0
2, 3705, Note_on_c, 9, 44, 0
2, 3711, Control_c, 9, 4, 85
2, 3727, Control_c, 9, 17, 101
2, 3728, Note_on_c, 9, 51, 5
2, 3743, Control_c, 9, 4, 81
2, 3743, Control_c, 9, 18, 0
2, 3743, Note_on_c, 9, 48, 44
2, 3758, Note_on_c, 9, 36, 45
2, 3810, Note_on_c, 9, 51, 0
2, 3825, Note_on_c, 9, 48, 0
2, 3838, Control_c, 9, 4, 96
2, 3840, Note_on_c, 9, 36, 0
2, 3873, Note_on_c, 9, 48, 52
2, 3878, Control_c, 9, 17, 72
2, 3879, Note_on_c, 9, 51, 62
2, 3947, Control_c, 9, 4, 91
2, 3954, Note_on_c, 9, 48, 0
2, 3960, Note_on_c, 9, 51, 0
2, 3991, Control_c, 9, 17, 127
2, 3991, Note_on_c, 9, 51, 67
2, 4001, Control_c, 9, 4, 78
2, 4032, Control_c, 9, 4, 54
2, 4067, Control_c, 9, 4, 0
2, 4073, Note_on_c, 9, 51, 0
2, 4097, Control_c, 9, 4, 49
2, 4103, Note_on_c, 9, 44, 87
2, 4107, Control_c, 9, 17, 127
2, 4108, Note_on_c, 9, 51, 6
2, 4117, Note_on_c, 9, 36, 41
2, 4128, Control_c, 9, 4, 106
2, 4162, Control_c, 9, 4, 97
2, 4184, Note_on_c, 9, 44, 0
2, 4189, Note_on_c, 9, 51, 0
2, 4199, Note_on_c, 9, 36, 0
2, 4202, Control_c, 9, 4, 84
2, 4299, Control_c, 9, 4, 89
2, 4351, Control_c, 9, 17, 44
2, 4352, Note_on_c, 9, 51, 86
2, 4353, Control_c, 9, 16, 0
2, 4353, Note_on_c, 9, 38, 58
2, 4354, Note_on_c, 9, 36, 55
2, 4383, Control_c, 9, 4, 93
2, 4432, Note_on_c, 9, 51, 0
2, 4434, Note_on_c, 9, 38, 0
2, 4437, Note_on_c, 9, 36, 0
2, 4455, Control_c, 9, 4, 82
2, 4494, Control_c, 9, 4, 70
2, 4530, Control_c, 9, 4, 0
2, 4577, Control_c, 9, 4, 33
2, 4584, Note_on_c, 9, 44, 113
2, 4599, Control_c, 9, 17, 93
2, 4600, Note_on_c, 9, 51, 70
2, 4610, Control_c, 9, 4, 112
2, 4643, Control_c, 9, 4, 98
2, 4666, Note_on_c, 9, 44, 0
2, 4681, Note_on_c, 9, 51, 0
2, 4683, Control_c, 9, 4, 85
2, 4709, Control_c, 9, 18, 0
2, 4709, Note_on_c, 9, 48, 43
2, 4714, Note_on_c, 9, 36, 35
2, 4789, Control_c, 9, 4, 91
2, 4791, Note_on_c, 9, 48, 0
2, 4796, Note_on_c, 9, 36, 0
2, 4819, Control_c, 9, 4, 102
2, 4829, Control_c, 9, 17, 93
2, 4829, Note_on_c, 9, 48, 56
2, 4831, Note_on_c, 9, 51, 57
2, 4877, Control_c, 9, 4, 96
2, 4912, Note_on_c, 9, 48, 0
2, 4912, Note_on_c, 9, 51, 0
2, 4915, Control_c, 9, 4, 83
2, 4945, Control_c, 9, 4, 69
2, 4956, Control_c, 9, 17, 101
2, 4957, Note_on_c, 9, 51, 65
2, 4980, Control_c, 9, 4, 0
2, 5038, Note_on_c, 9, 51, 0
2, 5050, Control_c, 9, 4, 33
2, 5054, Note_on_c, 9, 36, 54
2, 5056, Note_on_c, 9, 44, 127
2, 5081, Control_c, 9, 4, 112
2, 5136, Note_on_c, 9, 36, 0
2, 5138, Note_on_c, 9, 44, 0
2, 5140, Control_c, 9, 4, 90
2, 5172, Control_c, 9, 4, 73
2, 5216, Control_c, 9, 4, 0
2, 5287, Control_c, 9, 4, 32
2, 5294, Control_c, 9, 17, 47
2, 5294, Note_on_c, 9, 44, 113
2, 5295, Note_on_c, 9, 51, 86
2, 5301, Note_on_c, 9, 38, 65
2, 5306, Note_on_c, 9, 36, 77
2, 5319, Control_c, 9, 4, 106
2, 5364, Control_c, 9, 4, 90
2, 5375, Note_on_c, 9, 44, 0
2, 5377, Note_on_c, 9, 51, 0
2, 5383, Note_on_c, 9, 38, 0
2, 5388, Note_on_c, 9, 36, 0
2, 5401, Control_c, 9, 4, 76
2, 5541, Control_c, 9, 4, 106
2, 5544, Control_c, 9, 17, 127
2, 5544, Note_on_c, 9, 51, 74
2, 5594, Control_c, 9, 4, 102
2, 5626, Note_on_c, 9, 51, 0
2, 5627, Control_c, 9, 4, 86
2, 5654, Control_c, 9, 18, 0
2, 5655, Note_on_c, 9, 48, 43
2, 5658, Note_on_c, 9, 36, 54
2, 5662, Control_c, 9, 4, 70
2, 5700, Control_c, 9, 4, 0
2, 5737, Note_on_c, 9, 48, 0
2, 5741, Note_on_c, 9, 36, 0
2, 5767, Control_c, 9, 4, 33
2, 5768, Note_on_c, 9, 51, 41
2, 5773, Note_on_c, 9, 44, 127
2, 5778, Control_c, 9, 18, 64
2, 5779, Note_on_c, 9, 48, 61
2, 5798, Control_c, 9, 4, 120
2, 5849, Note_on_c, 9, 51, 0
2, 5854, Note_on_c, 9, 44, 0
2, 5861, Note_on_c, 9, 48, 0
2, 5862, Control_c, 9, 4, 92
2, 5894, Control_c, 9, 17, 127
2, 5894, Note_on_c, 9, 51, 67
2, 5975, Note_on_c, 9, 51, 0
2, 6002, Control_c, 9, 4, 98
2, 6009, Control_c, 9, 17, 127
2, 6009, Note_on_c, 9, 51, 4
2, 6025, Note_on_c, 9, 36, 68
2, 6065, Control_c, 9, 4, 93
2, 6091, Note_on_c, 9, 51, 0
2, 6106, Note_on_c, 9, 36, 0
2, 6247, Control_c, 9, 17, 74
2, 6248, Note_on_c, 9, 51, 84
2, 6255, Control_c, 9, 16, 0
2, 6255, Note_on_c, 9, 38, 67
2, 6259, Note_on_c, 9, 36, 67
2, 6330, Note_on_c, 9, 51, 0
2, 6336, Note_on_c, 9, 38, 0
2, 6340, Control_c, 9, 4, 83
2, 6342, Note_on_c, 9, 36, 0
2, 6372, Control_c, 9, 4, 70
2, 6410, Control_c, 9, 4, 0
2, 6468, Control_c, 9, 4, 34
2, 6474, Note_on_c, 9, 44, 119
2, 6499, Control_c, 9, 4, 120
2, 6502, Control_c, 9, 17, 127
2, 6503, Note_on_c, 9, 51, 69
2, 6543, Control_c, 9, 4, 97
2, 6556, Note_on_c, 9, 44, 0
2, 6582, Control_c, 9, 4, 87
2, 6584, Note_on_c, 9, 51, 0
2, 6608, Control_c, 9, 18, 0
2, 6609, Note_on_c, 9, 48, 43
2, 6622, Note_on_c, 9, 36, 52
2, 6690, Note_on_c, 9, 48, 0
2, 6704, Note_on_c, 9, 36, 0
2, 6718, Note_on_c, 9, 51, 48
2, 6720, Control_c, 9, 4, 110
2, 6727, Note_on_c, 9, 48, 57
2, 6776, Control_c, 9, 4, 99
2, 6800, Note_on_c, 9, 51, 0
2, 6809, Note_on_c, 9, 48, 0
2, 6814, Control_c, 9, 4, 83
2, 6845, Control_c, 9, 4, 70
2, 6852, Control_c, 9, 17, 127
2, 6853, Note_on_c, 9, 51, 69
2, 6882, Control_c, 9, 4, 0
2, 6934, Note_on_c, 9, 51, 0
2, 6955, Note_on_c, 9, 46, 8
2, 6962, Control_c, 9, 4, 35
2, 6965, Note_on_c, 9, 36, 59
2, 6967, Note_on_c, 9, 44, 127
2, 6992, Control_c, 9, 4, 118
2, 7036, Note_on_c, 9, 46, 0
2, 7042, Control_c, 9, 4, 94
2, 7046, Note_on_c, 9, 36, 0
2, 7049, Note_on_c, 9, 44, 0
2, 7083, Control_c, 9, 4, 69
2, 7114, Control_c, 9, 4, 0
2, 7154, Control_c, 9, 4, 0
2, 7155, Note_on_c, 9, 46, 26
2, 7196, Note_on_c, 9, 46, 0
2, 7197, Note_on_c, 9, 46, 16
2, 7205, Control_c, 9, 4, 33
2, 7208, Control_c, 9, 17, 59
2, 7209, Note_on_c, 9, 51, 87
2, 7212, Note_on_c, 9, 44, 119
2, 7217, Note_on_c, 9, 36, 81
2, 7217, Note_on_c, 9, 38, 63
2, 7236, Note_on_c, 9, 46, 0
2, 7237, Control_c, 9, 4, 108
2, 7283, Control_c, 9, 4, 94
2, 7290, Note_on_c, 9, 51, 0
2, 7293, Note_on_c, 9, 44, 0
2, 7297, Note_on_c, 9, 38, 0
2, 7298, Note_on_c, 9, 36, 0
2, 7315, Control_c, 9, 4, 83
2, 7454, Control_c, 9, 4, 118
2, 7458, Control_c, 9, 17, 127
2, 7458, Note_on_c, 9, 51, 69
2, 7501, Control_c, 9, 4, 99
2, 7533, Control_c, 9, 4, 83
2, 7540, Note_on_c, 9, 51, 0
2, 7560, Note_on_c, 9, 36, 61
2, 7564, Control_c, 9, 4, 69
2, 7573, Control_c, 9, 18, 0
2, 7573, Note_on_c, 9, 48, 43
2, 7595, Control_c, 9, 4, 0
2, 7641, Note_on_c, 9, 36, 0
2, 7655, Note_on_c, 9, 48, 0
2, 7671, Control_c, 9, 17, 127
2, 7675, Control_c, 9, 4, 34
2, 7676, End_track
0, 0, End_of_file
