0, 0, Header, 1, 2, 480
1, 0, Start_track
1, 0, Tempo, 666666
1, 0, Time_signature, 4, 2, 24, 8
1, 0, Key_signature, 0, "major"
1, 1, End_track
2, 0, Start_track
2, 0, Title_t, "Blue Ridge"
2, 0, Program_c, 9, 0
2, 0, Note_on_c, 9, 59, 87
2, 5, Note_on_c, 9, 36, 54
2, 35, Control_c, 9, 4, 87
2, 67, Control_c, 9, 4, 90
2, 68, Note_on_c, 9, 59, 0
2, 78, Note_on_c, 9, 36, 0
2, 231, Note_on_c, 9, 36, 66
2, 232, Note_on_c, 9, 51, 79
2, 304, Note_on_c, 9, 36, 0
2, 304, Note_on_c, 9, 51, 0
2, 454, Note_on_c, 9, 51, 104
2, 464, Note_on_c, 9, 38, 127
2, 526, Note_on_c, 9, 51, 0
2, 536, Note_on_c, 9, 38, 0
2, 594, Control_c, 9, 4, 61
2, 632, Control_c, 9, 4, 37
2, 668, Control_c, 9, 4, 50
2, 698, Note_on_c, 9, 51, 52
2, 705, Control_c, 9, 4, 90
2, 770, Note_on_c, 9, 51, 0
2, 867, Note_on_c, 9, 51, 48
2, 930, Note_on_c, 9, 36, 53
2, 940, Note_on_c, 9, 51, 0
2, 951, Note_on_c, 9, 51, 73
2, 1003, Note_on_c, 9, 36, 0
2, 1006, Control_c, 9, 4, 42
2, 1024, Note_on_c, 9, 51, 0
2, 1038, Control_c, 9, 4, 0
2, 1172, Control_c, 9, 4, 16
2, 1180, Note_on_c, 9, 44, 62
2, 1187, Note_on_c, 9, 51, 90
2, 1191, Note_on_c, 9, 38, 118
2, 1203, Control_c, 9, 4, 90
2, 1253, Note_on_c, 9, 44, 0
2, 1259, Note_on_c, 9, 51, 0
2, 1263, Note_on_c, 9, 38, 0
2, 1349, Note_on_c, 9, 51, 45
2, 1421, Note_on_c, 9, 51, 0
2, 1425, Note_on_c, 9, 51, 94
2, 1458, Control_c, 9, 4, 42
2, 1493, Control_c, 9, 4, 0
2, 1498, Note_on_c, 9, 51, 0
2, 1653, Control_c, 9, 4, 16
2, 1654, Note_on_c, 9, 38, 122
2, 1660, Note_on_c, 9, 51, 88
2, 1661, Note_on_c, 9, 44, 67
2, 1684, Control_c, 9, 4, 90
2, 1727, Note_on_c, 9, 38, 0
2, 1733, Note_on_c, 9, 44, 0
2, 1733, Note_on_c, 9, 51, 0
2, 1816, Note_on_c, 9, 51, 57
2, 1889, Note_on_c, 9, 51, 0
2, 1891, Note_on_c, 9, 36, 62
2, 1895, Note_on_c, 9, 51, 92
2, 1962, Control_c, 9, 4, 0
2, 1964, Note_on_c, 9, 36, 0
2, 1968, Note_on_c, 9, 51, 0
2, 2126, Note_on_c, 9, 51, 93
2, 2127, Note_on_c, 9, 38, 120
2, 2129, Control_c, 9, 4, 16
2, 2137, Note_on_c, 9, 44, 67
2, 2159, Control_c, 9, 4, 90
2, 2199, Note_on_c, 9, 51, 0
2, 2200, Note_on_c, 9, 38, 0
2, 2210, Note_on_c, 9, 44, 0
2, 2288, Note_on_c, 9, 51, 50
2, 2361, Note_on_c, 9, 51, 0
2, 2361, Note_on_c, 9, 51, 84
2, 2363, Note_on_c, 9, 36, 51
2, 2434, Note_on_c, 9, 51, 0
2, 2436, Note_on_c, 9, 36, 0
2, 2439, Control_c, 9, 4, 0
2, 2598, Note_on_c, 9, 51, 88
2, 2600, Note_on_c, 9, 38, 117
2, 2602, Control_c, 9, 4, 16
2, 2610, Note_on_c, 9, 44, 67
2, 2632, Control_c, 9, 4, 90
2, 2671, Note_on_c, 9, 38, 0
2, 2671, Note_on_c, 9, 51, 0
2, 2683, Note_on_c, 9, 44, 0
2, 2773, Note_on_c, 9, 51, 49
2, 2844, Note_on_c, 9, 36, 55
2, 2846, Note_on_c, 9, 51, 0
2, 2846, Note_on_c, 9, 51, 78
2, 2906, Control_c, 9, 4, 0
2, 2917, Note_on_c, 9, 36, 0
2, 2920, Note_on_c, 9, 51, 0
2, 3087, Control_c, 9, 4, 16
2, 3087, Note_on_c, 9, 38, 114
2, 3090, Note_on_c, 9, 51, 87
2, 3094, Note_on_c, 9, 44, 72
2, 3117, Control_c, 9, 4, 90
2, 3159, Note_on_c, 9, 38, 0
2, 3163, Note_on_c, 9, 51, 0
2, 3167, Note_on_c, 9, 44, 0
2, 3248, Note_on_c, 9, 51, 56
2, 3321, Note_on_c, 9, 51, 0
2, 3329, Note_on_c, 9, 36, 59
2, 3332, Note_on_c, 9, 51, 94
2, 3381, Control_c, 9, 4, 74
2, 3401, Note_on_c, 9, 36, 0
2, 3404, Note_on_c, 9, 51, 0
2, 3413, Control_c, 9, 4, 0
2, 3565, Note_on_c, 9, 51, 94
2, 3568, Note_on_c, 9, 38, 122
2, 3576, Note_on_c, 9, 44, 80
2, 3598, Control_c, 9, 4, 90
2, 3638, Note_on_c, 9, 51, 0
2, 3641, Note_on_c, 9, 38, 0
2, 3648, Note_on_c, 9, 44, 0
2, 3714, Control_c, 9, 4, 90
2, 3732, Note_on_c, 9, 51, 58
2, 3805, Note_on_c, 9, 51, 0
2, 3813, Note_on_c, 9, 36, 59
2, 3813, Note_on_c, 9, 51, 90
2, 3885, Control_c, 9, 4, 0
2, 3885, Note_on_c, 9, 36, 0
2, 3885, Note_on_c, 9, 51, 0
2, 4053, Note_on_c, 9, 51, 88
2, 4054, Note_on_c, 9, 44, 80
2, 4058, Note_on_c, 9, 38, 127
2, 4077, Control_c, 9, 4, 90
2, 4126, Note_on_c, 9, 51, 0
2, 4127, Note_on_c, 9, 44, 0
2, 4131, Note_on_c, 9, 38, 0
2, 4225, Note_on_c, 9, 51, 54
2, 4295, Note_on_c, 9, 36, 61
2, 4298, Note_on_c, 9, 51, 0
2, 4304, Note_on_c, 9, 51, 89
2, 4367, Note_on_c, 9, 36, 0
2, 4374, Control_c, 9, 4, 57
2, 4377, Note_on_c, 9, 51, 0
2, 4404, Control_c, 9, 4, 0
2, 4540, Control_c, 9, 4, 16
2, 4542, Note_on_c, 9, 51, 88
2, 4543, Note_on_c, 9, 38, 127
2, 4548, Note_on_c, 9, 44, 62
2, 4571, Control_c, 9, 4, 90
2, 4614, Note_on_c, 9, 51, 0
2, 4616, Note_on_c, 9, 38, 0
2, 4621, Note_on_c, 9, 44, 0
2, 4704, Control_c, 9, 4, 83
2, 4705, Note_on_c, 9, 51, 61
2, 4741, Control_c, 9, 4, 50
2, 4770, Note_on_c, 9, 44, 20
2, 4774, Note_on_c, 9, 36, 50
2, 4778, Note_on_c, 9, 51, 0
2, 4778, Note_on_c, 9, 51, 76
2, 4792, Control_c, 9, 4, 90
2, 4842, Note_on_c, 9, 44, 0
2, 4846, Note_on_c, 9, 36, 0
2, 4851, Note_on_c, 9, 51, 0
2, 4877, Control_c, 9, 4, 26
2, 4912, Control_c, 9, 4, 3
2, 4940, Note_on_c, 9, 36, 52
2, 4978, Control_c, 9, 4, 53
2, 5013, Note_on_c, 9, 36, 0
2, 5015, Control_c, 9, 4, 64
2, 5024, Note_on_c, 9, 51, 95
2, 5025, Note_on_c, 9, 40, 120
2, 5074, Control_c, 9, 4, 56
2, 5097, Note_on_c, 9, 40, 0
2, 5097, Note_on_c, 9, 51, 0
2, 5110, Control_c, 9, 4, 47
2, 5148, Control_c, 9, 4, 52
2, 5176, Note_on_c, 9, 51, 59
2, 5206, Control_c, 9, 4, 57
2, 5248, Note_on_c, 9, 51, 0
2, 5258, Note_on_c, 9, 51, 122
2, 5259, Note_on_c, 9, 36, 47
2, 5330, Note_on_c, 9, 51, 0
2, 5331, Note_on_c, 9, 36, 0
2, 5354, Control_c, 9, 4, 47
2, 5402, Control_c, 9, 4, 37
2, 5410, Note_on_c, 9, 36, 50
2, 5453, Control_c, 9, 4, 49
2, 5483, Note_on_c, 9, 36, 0
2, 5502, Note_on_c, 9, 51, 86
2, 5503, Note_on_c, 9, 38, 120
2, 5554, Control_c, 9, 4, 44
2, 5575, Note_on_c, 9, 38, 0
2, 5575, Note_on_c, 9, 51, 0
2, 5587, Control_c, 9, 4, 40
2, 5637, Control_c, 9, 4, 45
2, 5655, Note_on_c, 9, 51, 64
2, 5686, Control_c, 9, 4, 49
2, 5726, Note_on_c, 9, 36, 49
2, 5728, Note_on_c, 9, 51, 0
2, 5734, Note_on_c, 9, 51, 125
2, 5736, Control_c, 9, 4, 61
2, 5767, Control_c, 9, 4, 73
2, 5798, Note_on_c, 9, 36, 0
2, 5807, Note_on_c, 9, 51, 0
2, 5835, Control_c, 9, 4, 63
2, 5897, Note_on_c, 9, 36, 55
2, 5922, Control_c, 9, 4, 68
2, 5970, Note_on_c, 9, 36, 0
2, 5978, Note_on_c, 9, 51, 106
2, 5982, Note_on_c, 9, 38, 112
2, 5997, Control_c, 9, 4, 63
2, 6050, Note_on_c, 9, 51, 0
2, 6054, Note_on_c, 9, 38, 0
2, 6144, Note_on_c, 9, 51, 64
2, 6215, Note_on_c, 9, 36, 47
2, 6216, Note_on_c, 9, 51, 0
2, 6223, Note_on_c, 9, 51, 109
2, 6250, Control_c, 9, 4, 73
2, 6288, Note_on_c, 9, 36, 0
2, 6296, Note_on_c, 9, 51, 0
2, 6316, Control_c, 9, 4, 68
2, 6354, Control_c, 9, 4, 63
2, 6394, Note_on_c, 9, 36, 55
2, 6425, Control_c, 9, 4, 73
2, 6462, Note_on_c, 9, 38, 112
2, 6463, Note_on_c, 9, 51, 96
2, 6466, Note_on_c, 9, 36, 0
2, 6534, Note_on_c, 9, 38, 0
2, 6536, Note_on_c, 9, 51, 0
2, 6544, Control_c, 9, 4, 68
2, 6629, Note_on_c, 9, 51, 62
2, 6680, Control_c, 9, 4, 73
2, 6702, Note_on_c, 9, 36, 47
2, 6702, Note_on_c, 9, 51, 0
2, 6708, Note_on_c, 9, 59, 61
2, 6734, Control_c, 9, 4, 81
2, 6774, Note_on_c, 9, 36, 0
2, 6781, Note_on_c, 9, 59, 0
2, 6877, Note_on_c, 9, 51, 51
2, 6893, Note_on_c, 9, 36, 48
2, 6936, Control_c, 9, 4, 77
2, 6949, Note_on_c, 9, 51, 0
2, 6955, Note_on_c, 9, 40, 115
2, 6960, Note_on_c, 9, 59, 68
2, 6965, Note_on_c, 9, 36, 0
2, 7027, Note_on_c, 9, 40, 0
2, 7033, Note_on_c, 9, 59, 0
2, 7034, Control_c, 9, 4, 74
2, 7117, Note_on_c, 9, 51, 45
2, 7134, Control_c, 9, 4, 69
2, 7190, Note_on_c, 9, 51, 0
2, 7195, Note_on_c, 9, 36, 45
2, 7203, Note_on_c, 9, 51, 75
2, 7223, Control_c, 9, 4, 79
2, 7255, Control_c, 9, 4, 82
2, 7268, Note_on_c, 9, 36, 0
2, 7276, Note_on_c, 9, 51, 0
2, 7321, Control_c, 9, 4, 72
2, 7363, Note_on_c, 9, 51, 42
2, 7397, Note_on_c, 9, 36, 46
2, 7398, Control_c, 9, 4, 77
2, 7435, Note_on_c, 9, 51, 0
2, 7441, Note_on_c, 9, 38, 113
2, 7442, Note_on_c, 9, 59, 64
2, 7470, Note_on_c, 9, 36, 0
2, 7514, Note_on_c, 9, 38, 0
2, 7514, Note_on_c, 9, 59, 0
2, 7524, Control_c, 9, 4, 72
2, 7591, Note_on_c, 9, 51, 48
2, 7663, Control_c, 9, 4, 76
2, 7664, Note_on_c, 9, 51, 0
2, 7665, End_track
0, 0, End_of_file
