0, 0, Header, 1, 2, 480
1, 0, Start_track
1, 0, Tempo, 588235
1, 0, Time_signature, 4, 2, 24, 8
1, 0, Key_signature, 0, "major"
1, 1, End_track
2, 0, Start_track
2, 0, Title_t, "Classic Studio Kit"
2, 0, Program_c, 9, 0
2, 0, Control_c, 9, 17, 56
2, 94, Control_c, 9, 4, 98
2, 119, Control_c, 9, 17, 54
2, 120, Note_on_c, 9, 51, 71
2, 161, Control_c, 9, 4, 92
2, 202, Note_on_c, 9, 51, 0
2, 229, Control_c, 9, 4, 120
2, 231, Note_on_c, 9, 36, 68
2, 309, Control_c, 9, 4, 91
2, 313, Note_on_c, 9, 36, 0
2, 349, Control_c, 9, 4, 73
2, 362, Control_c, 9, 17, 46
2, 362, Note_on_c, 9, 51, 68
2, 384, Control_c, 9, 4, 0
2, 444, Note_on_c, 9, 51, 0
2, 447, Note_on_c, 9, 46, 6
2, 457, Control_c, 9, 4, 33
2, 464, Note_on_c, 9, 44, 127
2, 469, Note_on_c, 9, 36, 78
2, 475, Note_on_c, 9, 38, 71
2, 489, Control_c, 9, 4, 120
2, 529, Note_on_c, 9, 46, 0
2, 530, Control_c, 9, 4, 98
2, 545, Note_on_c, 9, 44, 0
2, 551, Note_on_c, 9, 36, 0
2, 557, Note_on_c, 9, 38, 0
2, 568, Control_c, 9, 4, 83
2, 698, Control_c, 9, 4, 118
2, 700, Control_c, 9, 17, 72
2, 701, Note_on_c, 9, 51, 88
2, 767, Control_c, 9, 4, 97
2, 782, Note_on_c, 9, 51, 0
2, 801, Control_c, 9, 4, 82
2, 817, Control_c, 9, 18, 0
2, 818, Note_on_c, 9, 48, 43
2, 823, Note_on_c, 9, 36, 60
2, 831, Control_c, 9, 4, 68
2, 862, Control_c, 9, 4, 0
2, 899, Note_on_c, 9, 48, 0
2, 905, Note_on_c, 9, 36, 0
2, 933, Note_on_c, 9, 46, 8
2, 939, Control_c, 9, 17, 127
2, 940, Note_on_c, 9, 51, 56
2, 944, Note_on_c, 9, 44, 127
2, 947, Note_on_c, 9, 48, 79
2, 950, Control_c, 9, 4, 127
2, 994, Control_c, 9, 4, 114
2, 1013, Note_on_c, 9, 46, 0
2, 1022, Note_on_c, 9, 51, 0
2, 1027, Note_on_c, 9, 44, 0
2, 1027, Note_on_c, 9, 48, 0
2, 1039, Control_c, 9, 4, 91
2, 1061, Control_c, 9, 17, 49
2, 1062, Note_on_c, 9, 51, 71
2, 1143, Note_on_c, 9, 51, 0
2, 1160, Control_c, 9, 4, 110
2, 1186, Note_on_c, 9, 36, 64
2, 1213, Control_c, 9, 4, 96
2, 1268, Note_on_c, 9, 36, 0
2, 1379, Control_c, 9, 4, 92
2, 1414, Control_c, 9, 17, 40
2, 1415, Note_on_c, 9, 51, 85
2, 1422, Control_c, 9, 16, 0
2, 1423, Note_on_c, 9, 36, 73
2, 1423, Note_on_c, 9, 38, 70
2, 1448, Control_c, 9, 4, 102
2, 1496, Note_on_c, 9, 51, 0
2, 1503, Note_on_c, 9, 38, 0
2, 1505, Note_on_c, 9, 36, 0
2, 1513, Control_c, 9, 4, 89
2, 1543, Control_c, 9, 4, 73
2, 1585, Control_c, 9, 4, 0
2, 1655, Note_on_c, 9, 44, 127
2, 1661, Control_c, 9, 4, 127
2, 1671, Control_c, 9, 17, 53
2, 1671, Note_on_c, 9, 51, 82
2, 1705, Control_c, 9, 4, 118
2, 1737, Note_on_c, 9, 44, 0
2, 1746, Control_c, 9, 4, 90
2, 1753, Note_on_c, 9, 51, 0
2, 1786, Control_c, 9, 18, 0
2, 1787, Note_on_c, 9, 48, 48
2, 1792, Note_on_c, 9, 36, 65
2, 1869, Note_on_c, 9, 48, 0
2, 1875, Note_on_c, 9, 36, 0
2, 1886, Control_c, 9, 4, 112
2, 1899, Control_c, 9, 17, 127
2, 1899, Note_on_c, 9, 51, 56
2, 1903, Note_on_c, 9, 48, 68
2, 1982, Note_on_c, 9, 51, 0
2, 1985, Note_on_c, 9, 48, 0
2, 1998, Control_c, 9, 4, 92
2, 2019, Control_c, 9, 17, 56
2, 2019, Note_on_c, 9, 51, 72
2, 2029, Control_c, 9, 4, 71
2, 2066, Control_c, 9, 4, 0
2, 2102, Note_on_c, 9, 51, 0
2, 2130, Note_on_c, 9, 46, 13
2, 2136, Control_c, 9, 4, 35
2, 2136, Note_on_c, 9, 36, 55
2, 2141, Note_on_c, 9, 44, 127
2, 2168, Control_c, 9, 4, 124
2, 2185, Note_on_c, 9, 49, 5
2, 2198, Control_c, 9, 4, 120
2, 2211, Note_on_c, 9, 46, 0
2, 2217, Note_on_c, 9, 36, 0
2, 2224, Note_on_c, 9, 44, 0
2, 2234, Control_c, 9, 4, 91
2, 2264, Control_c, 9, 4, 86
2, 2266, Note_on_c, 9, 49, 0
2, 2369, Control_c, 9, 4, 110
2, 2369, Control_c, 9, 17, 37
2, 2371, Note_on_c, 9, 51, 83
2, 2375, Note_on_c, 9, 38, 82
2, 2377, Note_on_c, 9, 36, 84
2, 2452, Control_c, 9, 4, 93
2, 2452, Note_on_c, 9, 51, 0
2, 2456, Note_on_c, 9, 38, 0
2, 2460, Note_on_c, 9, 36, 0
2, 2503, Control_c, 9, 4, 70
2, 2537, Control_c, 9, 4, 0
2, 2604, Control_c, 9, 4, 34
2, 2610, Note_on_c, 9, 44, 127
2, 2624, Control_c, 9, 17, 50
2, 2624, Note_on_c, 9, 51, 74
2, 2635, Control_c, 9, 4, 126
2, 2671, Control_c, 9, 4, 102
2, 2691, Note_on_c, 9, 44, 0
2, 2706, Note_on_c, 9, 51, 0
2, 2709, Control_c, 9, 4, 90
2, 2735, Control_c, 9, 18, 0
2, 2736, Note_on_c, 9, 36, 48
2, 2736, Note_on_c, 9, 48, 44
2, 2816, Note_on_c, 9, 48, 0
2, 2818, Note_on_c, 9, 36, 0
2, 2829, Control_c, 9, 4, 97
2, 2862, Note_on_c, 9, 48, 68
2, 2864, Control_c, 9, 17, 123
2, 2864, Note_on_c, 9, 51, 66
2, 2869, Control_c, 9, 4, 99
2, 2922, Control_c, 9, 4, 106
2, 2943, Note_on_c, 9, 48, 0
2, 2945, Note_on_c, 9, 51, 0
2, 2965, Control_c, 9, 4, 92
2, 2990, Control_c, 9, 17, 47
2, 2990, Note_on_c, 9, 51, 68
2, 3002, Control_c, 9, 4, 72
2, 3038, Control_c, 9, 4, 0
2, 3073, Note_on_c, 9, 51, 0
2, 3090, Control_c, 9, 4, 33
2, 3094, Note_on_c, 9, 36, 48
2, 3096, Note_on_c, 9, 44, 126
2, 3122, Control_c, 9, 4, 127
2, 3159, Control_c, 9, 4, 98
2, 3175, Note_on_c, 9, 36, 0
2, 3178, Note_on_c, 9, 44, 0
2, 3198, Control_c, 9, 4, 87
2, 3285, Control_c, 9, 4, 91
2, 3326, Control_c, 9, 4, 95
2, 3352, Control_c, 9, 17, 37
2, 3352, Note_on_c, 9, 51, 87
2, 3353, Control_c, 9, 16, 0
2, 3353, Note_on_c, 9, 38, 76
2, 3362, Note_on_c, 9, 36, 86
2, 3418, Control_c, 9, 4, 100
2, 3434, Note_on_c, 9, 51, 0
2, 3435, Note_on_c, 9, 38, 0
2, 3445, Note_on_c, 9, 36, 0
2, 3472, Control_c, 9, 4, 87
2, 3505, Control_c, 9, 4, 70
2, 3538, Control_c, 9, 4, 0
2, 3591, Control_c, 9, 4, 35
2, 3598, Note_on_c, 9, 44, 126
2, 3604, Control_c, 9, 17, 81
2, 3604, Note_on_c, 9, 51, 75
2, 3623, Control_c, 9, 4, 126
2, 3669, Control_c, 9, 4, 95
2, 3680, Note_on_c, 9, 44, 0
2, 3686, Note_on_c, 9, 51, 0
2, 3709, Control_c, 9, 4, 85
2, 3711, Control_c, 9, 18, 0
2, 3711, Note_on_c, 9, 48, 45
2, 3717, Note_on_c, 9, 36, 55
2, 3773, Control_c, 9, 4, 90
2, 3792, Note_on_c, 9, 48, 0
2, 3800, Note_on_c, 9, 36, 0
2, 3826, Control_c, 9, 4, 104
2, 3832, Control_c, 9, 17, 71
2, 3832, Note_on_c, 9, 48, 69
2, 3834, Note_on_c, 9, 51, 65
2, 3866, Control_c, 9, 4, 98
2, 3904, Control_c, 9, 4, 93
2, 3914, Note_on_c, 9, 48, 0
2, 3915, Note_on_c, 9, 51, 0
2, 3955, Control_c, 9, 17, 58
2, 3956, Note_on_c, 9, 51, 75
2, 4037, Note_on_c, 9, 51, 0
2, 4057, Note_on_c, 9, 36, 64
2, 4140, Note_on_c, 9, 36, 0
2, 4308, Note_on_c, 9, 36, 80
2, 4311, Control_c, 9, 16, 0
2, 4311, Note_on_c, 9, 38, 74
2, 4390, Note_on_c, 9, 36, 0
2, 4394, Note_on_c, 9, 38, 0
2, 4559, Control_c, 9, 17, 55
2, 4559, Note_on_c, 9, 51, 101
2, 4642, Note_on_c, 9, 51, 0
2, 4804, Control_c, 9, 16, 61
2, 4805, Note_on_c, 9, 40, 73
2, 4886, Note_on_c, 9, 40, 0
2, 4997, Control_c, 9, 4, 89
2, 5035, Control_c, 9, 4, 97
2, 5096, Control_c, 9, 4, 92
2, 5292, Control_c, 9, 16, 0
2, 5293, Note_on_c, 9, 38, 91
2, 5297, Control_c, 9, 17, 1
2, 5298, Note_on_c, 9, 51, 104
2, 5299, Note_on_c, 9, 36, 67
2, 5329, Control_c, 9, 4, 108
2, 5373, Note_on_c, 9, 38, 0
2, 5379, Note_on_c, 9, 51, 0
2, 5382, Note_on_c, 9, 36, 0
2, 5389, Control_c, 9, 4, 91
2, 5426, Control_c, 9, 4, 72
2, 5465, Control_c, 9, 4, 0
2, 5524, Control_c, 9, 4, 32
2, 5530, Note_on_c, 9, 44, 126
2, 5550, Control_c, 9, 17, 31
2, 5550, Note_on_c, 9, 51, 70
2, 5555, Control_c, 9, 4, 127
2, 5593, Control_c, 9, 4, 98
2, 5612, Note_on_c, 9, 44, 0
2, 5631, Note_on_c, 9, 51, 0
2, 5632, Control_c, 9, 4, 87
2, 5652, Note_on_c, 9, 36, 62
2, 5663, Control_c, 9, 18, 0
2, 5663, Note_on_c, 9, 48, 51
2, 5734, Note_on_c, 9, 36, 0
2, 5744, Control_c, 9, 4, 94
2, 5745, Note_on_c, 9, 48, 0
2, 5784, Control_c, 9, 4, 98
2, 5787, Note_on_c, 9, 48, 71
2, 5790, Control_c, 9, 17, 51
2, 5791, Note_on_c, 9, 51, 59
2, 5835, Control_c, 9, 4, 102
2, 5869, Note_on_c, 9, 48, 0
2, 5873, Note_on_c, 9, 51, 0
2, 5889, Control_c, 9, 4, 90
2, 5906, Control_c, 9, 17, 76
2, 5907, Note_on_c, 9, 51, 76
2, 5919, Control_c, 9, 4, 70
2, 5955, Control_c, 9, 4, 0
2, 5989, Note_on_c, 9, 51, 0
2, 6011, Note_on_c, 9, 36, 55
2, 6011, Note_on_c, 9, 44, 113
2, 6018, Control_c, 9, 4, 127
2, 6061, Control_c, 9, 4, 116
2, 6092, Note_on_c, 9, 44, 0
2, 6093, Note_on_c, 9, 36, 0
2, 6101, Control_c, 9, 4, 91
2, 6259, Control_c, 9, 17, 32
2, 6259, Note_on_c, 9, 51, 85
2, 6261, Note_on_c, 9, 36, 71
2, 6265, Note_on_c, 9, 38, 70
2, 6289, Control_c, 9, 4, 95
2, 6341, Note_on_c, 9, 51, 0
2, 6342, Note_on_c, 9, 36, 0
2, 6346, Note_on_c, 9, 38, 0
2, 6368, Control_c, 9, 4, 90
2, 6403, Control_c, 9, 4, 73
2, 6447, Control_c, 9, 4, 0
2, 6496, Control_c, 9, 4, 51
2, 6501, Note_on_c, 9, 44, 113
2, 6515, Control_c, 9, 17, 50
2, 6515, Note_on_c, 9, 51, 65
2, 6527, Control_c, 9, 4, 126
2, 6577, Control_c, 9, 4, 92
2, 6583, Note_on_c, 9, 44, 0
2, 6598, Note_on_c, 9, 51, 0
2, 6620, Control_c, 9, 4, 84
2, 6626, Control_c, 9, 18, 0
2, 6626, Note_on_c, 9, 48, 45
2, 6629, Note_on_c, 9, 36, 60
2, 6708, Note_on_c, 9, 48, 0
2, 6711, Note_on_c, 9, 36, 0
2, 6717, Control_c, 9, 4, 99
2, 6746, Note_on_c, 9, 48, 72
2, 6748, Control_c, 9, 17, 63
2, 6749, Note_on_c, 9, 51, 66
2, 6828, Note_on_c, 9, 48, 0
2, 6830, Note_on_c, 9, 51, 0
2, 6850, Control_c, 9, 4, 88
2, 6881, Control_c, 9, 17, 44
2, 6881, Note_on_c, 9, 51, 68
2, 6884, Control_c, 9, 4, 71
2, 6929, Control_c, 9, 4, 0
2, 6963, Note_on_c, 9, 51, 0
2, 6974, Control_c, 9, 4, 48
2, 6976, Note_on_c, 9, 36, 51
2, 6978, Note_on_c, 9, 44, 106
2, 7004, Control_c, 9, 4, 126
2, 7041, Control_c, 9, 4, 100
2, 7059, Note_on_c, 9, 36, 0
2, 7060, Note_on_c, 9, 44, 0
2, 7081, Control_c, 9, 4, 88
2, 7116, Control_c, 9, 17, 33
2, 7117, Note_on_c, 9, 51, 82
2, 7199, Note_on_c, 9, 51, 0
2, 7205, Control_c, 9, 4, 94
2, 7229, Control_c, 9, 16, 0
2, 7229, Note_on_c, 9, 38, 61
2, 7236, Note_on_c, 9, 36, 57
2, 7312, Note_on_c, 9, 38, 0
2, 7318, Note_on_c, 9, 36, 0
2, 7361, Control_c, 9, 4, 83
2, 7395, Control_c, 9, 4, 56
2, 7426, Control_c, 9, 4, 0
2, 7465, Control_c, 9, 4, 49
2, 7467, Control_c, 9, 17, 52
2, 7468, Note_on_c, 9, 51, 83
2, 7471, Note_on_c, 9, 44, 93
2, 7495, Control_c, 9, 4, 126
2, 7542, Control_c, 9, 4, 93
2, 7550, Note_on_c, 9, 51, 0
2, 7551, Note_on_c, 9, 44, 0
2, 7586, Control_c, 9, 18, 0
2, 7587, Note_on_c, 9, 48, 44
2, 7590, Control_c, 9, 4, 84
2, 7597, Note_on_c, 9, 36, 43
2, 7669, Note_on_c, 9, 48, 0
2, 7679, Note_on_c, 9, 36, 0
2, 7680, End_track
0, 0, End_of_file
