0, 0, Header, 1, 2, 480
1, 0, Start_track
1, 0, Tempo, 645161
1, 0, Time_signature, 4, 2, 24, 8
1, 0, Key_signature, 0, "major"
1, 1, End_track
2, 0, Start_track
2, 0, Title_t, "Midi Drums"
2, 0, Program_c, 9, 0
2, 0, Note_on_c, 9, 36, 45
2, 11, Control_c, 9, 4, 90
2, 11, Note_on_c, 9, 22, 51
2, 74, Note_on_c, 9, 36, 0
2, 86, Note_on_c, 9, 22, 0
2, 251, Control_c, 9, 4, 90
2, 251, Note_on_c, 9, 42, 11
2, 326, Note_on_c, 9, 42, 0
2, 371, Control_c, 9, 4, 90
2, 371, Note_on_c, 9, 22, 38
2, 446, Note_on_c, 9, 22, 0
2, 492, Control_c, 9, 4, 90
2, 492, Note_on_c, 9, 22, 64
2, 568, Note_on_c, 9, 22, 0
2, 619, Control_c, 9, 4, 90
2, 619, Note_on_c, 9, 42, 4
2, 695, Note_on_c, 9, 42, 0
2, 723, Control_c, 9, 4, 90
2, 723, Note_on_c, 9, 42, 7
2, 799, Note_on_c, 9, 42, 0
2, 856, Control_c, 9, 4, 90
2, 856, Note_on_c, 9, 42, 15
2, 931, Note_on_c, 9, 42, 0
2, 973, Control_c, 9, 4, 90
2, 973, Note_on_c, 9, 22, 47
2, 1049, Note_on_c, 9, 22, 0
2, 1206, Control_c, 9, 4, 90
2, 1206, Note_on_c, 9, 42, 7
2, 1281, Note_on_c, 9, 42, 0
2, 1333, Control_c, 9, 4, 90
2, 1333, Note_on_c, 9, 22, 15
2, 1408, Note_on_c, 9, 22, 0
2, 1455, Control_c, 9, 4, 90
2, 1455, Note_on_c, 9, 22, 72
2, 1530, Note_on_c, 9, 22, 0
2, 1572, Control_c, 9, 4, 90
2, 1572, Note_on_c, 9, 42, 5
2, 1648, Note_on_c, 9, 42, 0
2, 1692, Control_c, 9, 4, 90
2, 1692, Note_on_c, 9, 42, 7
2, 1768, Note_on_c, 9, 42, 0
2, 1812, Control_c, 9, 4, 90
2, 1812, Note_on_c, 9, 42, 14
2, 1887, Note_on_c, 9, 42, 0
2, 1934, Note_on_c, 9, 36, 41
2, 1943, Control_c, 9, 4, 90
2, 1943, Note_on_c, 9, 22, 59
2, 2009, Note_on_c, 9, 36, 0
2, 2019, Note_on_c, 9, 22, 0
2, 2062, Control_c, 9, 4, 90
2, 2062, Note_on_c, 9, 42, 13
2, 2138, Note_on_c, 9, 42, 0
2, 2292, Control_c, 9, 4, 90
2, 2292, Note_on_c, 9, 42, 6
2, 2367, Note_on_c, 9, 42, 0
2, 2411, Control_c, 9, 4, 90
2, 2411, Note_on_c, 9, 22, 76
2, 2486, Note_on_c, 9, 22, 0
2, 2531, Control_c, 9, 4, 90
2, 2531, Note_on_c, 9, 42, 14
2, 2607, Note_on_c, 9, 42, 0
2, 2644, Control_c, 9, 4, 90
2, 2644, Note_on_c, 9, 42, 5
2, 2720, Note_on_c, 9, 42, 0
2, 2763, Control_c, 9, 4, 90
2, 2763, Note_on_c, 9, 42, 8
2, 2838, Note_on_c, 9, 42, 0
2, 2880, Control_c, 9, 4, 90
2, 2880, Note_on_c, 9, 22, 48
2, 2955, Note_on_c, 9, 22, 0
2, 3004, Control_c, 9, 4, 90
2, 3004, Note_on_c, 9, 42, 11
2, 3079, Note_on_c, 9, 42, 0
2, 3118, Control_c, 9, 4, 90
2, 3118, Note_on_c, 9, 42, 7
2, 3194, Note_on_c, 9, 42, 0
2, 3233, Control_c, 9, 4, 90
2, 3233, Note_on_c, 9, 42, 11
2, 3308, Note_on_c, 9, 42, 0
2, 3367, Control_c, 9, 4, 90
2, 3367, Note_on_c, 9, 22, 68
2, 3370, Note_on_c, 9, 36, 45
2, 3442, Note_on_c, 9, 22, 0
2, 3445, Note_on_c, 9, 36, 0
2, 3487, Control_c, 9, 4, 90
2, 3487, Note_on_c, 9, 42, 12
2, 3563, Note_on_c, 9, 42, 0
2, 3724, Control_c, 9, 4, 90
2, 3724, Note_on_c, 9, 42, 6
2, 3799, Note_on_c, 9, 42, 0
2, 3841, Control_c, 9, 4, 90
2, 3841, Note_on_c, 9, 22, 71
2, 3916, Note_on_c, 9, 22, 0
2, 3959, Control_c, 9, 4, 90
2, 3959, Note_on_c, 9, 42, 11
2, 4034, Note_on_c, 9, 42, 0
2, 4077, Control_c, 9, 4, 90
2, 4077, Note_on_c, 9, 42, 5
2, 4152, Note_on_c, 9, 42, 0
2, 4189, Control_c, 9, 4, 90
2, 4189, Note_on_c, 9, 22, 27
2, 4264, Note_on_c, 9, 22, 0
2, 4324, Control_c, 9, 4, 90
2, 4324, Note_on_c, 9, 22, 72
2, 4329, Note_on_c, 9, 36, 46
2, 4399, Note_on_c, 9, 22, 0
2, 4404, Note_on_c, 9, 36, 0
2, 4451, Control_c, 9, 4, 90
2, 4451, Note_on_c, 9, 42, 9
2, 4527, Note_on_c, 9, 42, 0
2, 4555, Control_c, 9, 4, 90
2, 4555, Note_on_c, 9, 42, 5
2, 4630, Note_on_c, 9, 42, 0
2, 4688, Control_c, 9, 4, 90
2, 4688, Note_on_c, 9, 42, 15
2, 4764, Note_on_c, 9, 42, 0
2, 4805, Control_c, 9, 4, 90
2, 4805, Note_on_c, 9, 22, 62
2, 4880, Note_on_c, 9, 22, 0
2, 4926, Control_c, 9, 4, 90
2, 4926, Note_on_c, 9, 42, 13
2, 5001, Note_on_c, 9, 42, 0
2, 5044, Control_c, 9, 4, 90
2, 5044, Note_on_c, 9, 42, 5
2, 5120, Note_on_c, 9, 42, 0
2, 5158, Control_c, 9, 4, 90
2, 5158, Note_on_c, 9, 42, 16
2, 5233, Note_on_c, 9, 42, 0
2, 5290, Note_on_c, 9, 36, 50
2, 5294, Control_c, 9, 4, 90
2, 5294, Note_on_c, 9, 22, 78
2, 5365, Note_on_c, 9, 36, 0
2, 5369, Note_on_c, 9, 22, 0
2, 5421, Control_c, 9, 4, 90
2, 5421, Note_on_c, 9, 42, 9
2, 5497, Note_on_c, 9, 42, 0
2, 5517, Control_c, 9, 4, 90
2, 5517, Note_on_c, 9, 42, 9
2, 5593, Note_on_c, 9, 42, 0
2, 5641, Control_c, 9, 4, 90
2, 5641, Note_on_c, 9, 42, 14
2, 5717, Note_on_c, 9, 42, 0
2, 5763, Control_c, 9, 4, 90
2, 5763, Note_on_c, 9, 22, 66
2, 5838, Note_on_c, 9, 22, 0
2, 5884, Control_c, 9, 4, 90
2, 5884, Note_on_c, 9, 42, 12
2, 5959, Note_on_c, 9, 42, 0
2, 6006, Control_c, 9, 4, 90
2, 6006, Note_on_c, 9, 42, 6
2, 6082, Note_on_c, 9, 42, 0
2, 6128, Control_c, 9, 4, 90
2, 6128, Note_on_c, 9, 22, 31
2, 6203, Note_on_c, 9, 22, 0
2, 6265, Control_c, 9, 4, 90
2, 6265, Note_on_c, 9, 22, 68
2, 6340, Note_on_c, 9, 22, 0
2, 6492, Control_c, 9, 4, 90
2, 6492, Note_on_c, 9, 42, 22
2, 6567, Note_on_c, 9, 42, 0
2, 6615, Control_c, 9, 4, 90
2, 6615, Note_on_c, 9, 22, 26
2, 6690, Note_on_c, 9, 22, 0
2, 6731, Control_c, 9, 4, 90
2, 6731, Note_on_c, 9, 22, 71
2, 6806, Note_on_c, 9, 22, 0
2, 6831, Note_on_c, 9, 42, 9
2, 6859, Control_c, 9, 4, 85
2, 6906, Note_on_c, 9, 42, 0
2, 6926, Control_c, 9, 4, 59
2, 6959, Control_c, 9, 4, 27
2, 6989, Control_c, 9, 4, 0
2, 7092, Note_on_c, 9, 38, 40
2, 7145, Note_on_c, 9, 38, 0
2, 7145, Note_on_c, 9, 38, 39
2, 7147, Control_c, 9, 4, 32
2, 7156, Note_on_c, 9, 44, 35
2, 7167, Note_on_c, 9, 38, 0
2, 7180, Control_c, 9, 4, 90
2, 7211, Note_on_c, 9, 40, 127
2, 7232, Note_on_c, 9, 44, 0
2, 7287, Note_on_c, 9, 40, 0
2, 7328, Note_on_c, 9, 48, 114
2, 7403, Note_on_c, 9, 48, 0
2, 7448, Note_on_c, 9, 45, 41
2, 7521, Note_on_c, 9, 36, 41
2, 7522, Note_on_c, 9, 45, 0
2, 7546, Control_c, 9, 4, 90
2, 7546, Note_on_c, 9, 42, 41
2, 7596, Note_on_c, 9, 36, 0
2, 7621, Note_on_c, 9, 42, 0
2, 7622, End_track
0, 0, End_of_file
