0, 0, Header, 1, 2, 480
1, 0, Start_track
1, 0, Tempo, 545454
1, 0, Time_signature, 4, 2, 24, 8
1, 0, Key_signature, 0, "major"
1, 1, End_track
2, 0, Start_track
2, 0, Title_t, "TD-30 #9 Djembe"
2, 0, Program_c, 9, 0
2, 0, Control_c, 9, 16, 126
2, 11, Note_on_c, 9, 57, 95
2, 71, Control_c, 9, 4, 76
2, 99, Note_on_c, 9, 57, 0
2, 118, Control_c, 9, 4, 60
2, 157, Control_c, 9, 4, 19
2, 196, Control_c, 9, 4, 61
2, 202, Note_on_c, 9, 44, 61
2, 229, Control_c, 9, 4, 94
2, 290, Note_on_c, 9, 44, 0
2, 306, Control_c, 9, 4, 83
2, 402, Control_c, 9, 4, 88
2, 475, Note_on_c, 9, 36, 49
2, 490, Note_on_c, 9, 57, 98
2, 564, Note_on_c, 9, 36, 0
2, 574, Control_c, 9, 4, 75
2, 578, Note_on_c, 9, 57, 0
2, 614, Control_c, 9, 4, 59
2, 651, Control_c, 9, 4, 17
2, 690, Control_c, 9, 4, 59
2, 696, Note_on_c, 9, 44, 61
2, 698, Note_on_c, 9, 46, 51
2, 705, Note_on_c, 9, 57, 62
2, 723, Control_c, 9, 4, 95
2, 784, Note_on_c, 9, 44, 0
2, 784, Note_on_c, 9, 46, 0
2, 793, Note_on_c, 9, 57, 0
2, 803, Control_c, 9, 4, 84
2, 855, Note_on_c, 9, 57, 64
2, 913, Control_c, 9, 4, 89
2, 943, Note_on_c, 9, 57, 0
2, 1038, Control_c, 9, 4, 83
2, 1083, Note_on_c, 9, 57, 101
2, 1084, Control_c, 9, 4, 70
2, 1140, Control_c, 9, 4, 35
2, 1172, Note_on_c, 9, 57, 0
2, 1179, Control_c, 9, 4, 60
2, 1186, Note_on_c, 9, 46, 37
2, 1188, Note_on_c, 9, 44, 48
2, 1197, Note_on_c, 9, 57, 65
2, 1214, Control_c, 9, 4, 96
2, 1275, Note_on_c, 9, 44, 0
2, 1275, Note_on_c, 9, 46, 0
2, 1285, Note_on_c, 9, 57, 0
2, 1287, Control_c, 9, 4, 85
2, 1326, Control_c, 9, 4, 81
2, 1393, Control_c, 9, 4, 90
2, 1447, Note_on_c, 9, 57, 96
2, 1448, Note_on_c, 9, 36, 47
2, 1509, Control_c, 9, 4, 84
2, 1535, Note_on_c, 9, 57, 0
2, 1536, Note_on_c, 9, 36, 0
2, 1552, Control_c, 9, 4, 71
2, 1582, Control_c, 9, 4, 62
2, 1623, Control_c, 9, 4, 23
2, 1661, Control_c, 9, 4, 71
2, 1664, Note_on_c, 9, 44, 54
2, 1691, Control_c, 9, 4, 97
2, 1704, Note_on_c, 9, 57, 20
2, 1753, Note_on_c, 9, 44, 0
2, 1760, Control_c, 9, 4, 85
2, 1792, Control_c, 9, 4, 81
2, 1792, Note_on_c, 9, 57, 0
2, 1864, Control_c, 9, 4, 89
2, 1939, Note_on_c, 9, 57, 86
2, 2014, Control_c, 9, 4, 78
2, 2028, Note_on_c, 9, 57, 0
2, 2063, Control_c, 9, 4, 61
2, 2102, Control_c, 9, 4, 21
2, 2141, Control_c, 9, 4, 70
2, 2144, Note_on_c, 9, 46, 45
2, 2146, Note_on_c, 9, 44, 54
2, 2172, Control_c, 9, 4, 94
2, 2233, Note_on_c, 9, 44, 0
2, 2233, Note_on_c, 9, 46, 0
2, 2241, Control_c, 9, 4, 85
2, 2398, Note_on_c, 9, 36, 52
2, 2413, Note_on_c, 9, 57, 95
2, 2487, Note_on_c, 9, 36, 0
2, 2502, Note_on_c, 9, 57, 0
2, 2518, Control_c, 9, 4, 71
2, 2550, Control_c, 9, 4, 61
2, 2590, Control_c, 9, 4, 20
2, 2627, Control_c, 9, 4, 64
2, 2631, Note_on_c, 9, 44, 54
2, 2643, Note_on_c, 9, 57, 25
2, 2659, Control_c, 9, 4, 93
2, 2720, Note_on_c, 9, 44, 0
2, 2732, Note_on_c, 9, 57, 0
2, 2748, Control_c, 9, 4, 83
2, 2788, Control_c, 9, 16, 0
2, 2788, Note_on_c, 9, 38, 23
2, 2795, Note_on_c, 9, 57, 84
2, 2839, Control_c, 9, 4, 88
2, 2877, Note_on_c, 9, 38, 0
2, 2884, Note_on_c, 9, 57, 0
2, 2979, Control_c, 9, 4, 83
2, 3018, Control_c, 9, 4, 70
2, 3019, Note_on_c, 9, 57, 86
2, 3076, Control_c, 9, 4, 34
2, 3109, Note_on_c, 9, 57, 0
2, 3115, Control_c, 9, 4, 56
2, 3123, Note_on_c, 9, 46, 43
2, 3125, Note_on_c, 9, 44, 54
2, 3132, Note_on_c, 9, 38, 22
2, 3150, Control_c, 9, 4, 95
2, 3151, Note_on_c, 9, 57, 60
2, 3211, Note_on_c, 9, 44, 0
2, 3211, Note_on_c, 9, 46, 0
2, 3219, Note_on_c, 9, 38, 0
2, 3230, Control_c, 9, 4, 84
2, 3240, Note_on_c, 9, 57, 0
2, 3326, Control_c, 9, 4, 89
2, 3394, Control_c, 9, 16, 0
2, 3394, Note_on_c, 9, 57, 103
2, 3396, Note_on_c, 9, 40, 29
2, 3456, Control_c, 9, 4, 83
2, 3483, Note_on_c, 9, 40, 0
2, 3483, Note_on_c, 9, 57, 0
2, 3498, Control_c, 9, 4, 70
2, 3556, Control_c, 9, 4, 42
2, 3593, Control_c, 9, 4, 68
2, 3599, Note_on_c, 9, 46, 28
2, 3601, Note_on_c, 9, 44, 35
2, 3626, Control_c, 9, 4, 94
2, 3637, Note_on_c, 9, 57, 29
2, 3687, Note_on_c, 9, 44, 0
2, 3687, Note_on_c, 9, 46, 0
2, 3706, Control_c, 9, 4, 83
2, 3726, Note_on_c, 9, 57, 0
2, 3760, Control_c, 9, 16, 126
2, 3761, Note_on_c, 9, 40, 8
2, 3800, Control_c, 9, 4, 89
2, 3849, Note_on_c, 9, 40, 0
2, 3856, Note_on_c, 9, 57, 106
2, 3920, Control_c, 9, 4, 83
2, 3945, Note_on_c, 9, 57, 0
2, 3963, Control_c, 9, 4, 71
2, 3993, Control_c, 9, 4, 61
2, 4009, Note_on_c, 9, 40, 6
2, 4031, Control_c, 9, 4, 24
2, 4073, Control_c, 9, 4, 68
2, 4076, Note_on_c, 9, 46, 37
2, 4077, Note_on_c, 9, 44, 54
2, 4097, Note_on_c, 9, 40, 0
2, 4103, Control_c, 9, 4, 95
2, 4113, Note_on_c, 9, 57, 17
2, 4146, Control_c, 9, 4, 90
2, 4164, Note_on_c, 9, 44, 0
2, 4164, Note_on_c, 9, 46, 0
2, 4176, Control_c, 9, 4, 84
2, 4201, Note_on_c, 9, 57, 0
2, 4278, Control_c, 9, 4, 88
2, 4338, Note_on_c, 9, 57, 97
2, 4341, Note_on_c, 9, 36, 52
2, 4409, Control_c, 9, 4, 82
2, 4427, Note_on_c, 9, 57, 0
2, 4430, Note_on_c, 9, 36, 0
2, 4439, Control_c, 9, 4, 75
2, 4478, Control_c, 9, 4, 59
2, 4517, Control_c, 9, 4, 20
2, 4536, Note_on_c, 9, 57, 48
2, 4556, Control_c, 9, 4, 68
2, 4559, Note_on_c, 9, 44, 54
2, 4587, Control_c, 9, 4, 94
2, 4625, Note_on_c, 9, 57, 0
2, 4647, Note_on_c, 9, 44, 0
2, 4666, Control_c, 9, 4, 84
2, 4686, Note_on_c, 9, 57, 71
2, 4761, Control_c, 9, 4, 89
2, 4775, Note_on_c, 9, 57, 0
2, 4873, Control_c, 9, 4, 83
2, 4918, Control_c, 9, 4, 70
2, 4921, Note_on_c, 9, 57, 78
2, 4973, Control_c, 9, 4, 38
2, 5010, Note_on_c, 9, 57, 0
2, 5013, Control_c, 9, 4, 63
2, 5019, Note_on_c, 9, 46, 35
2, 5020, Note_on_c, 9, 44, 41
2, 5046, Control_c, 9, 4, 94
2, 5049, Note_on_c, 9, 57, 81
2, 5108, Note_on_c, 9, 44, 0
2, 5108, Note_on_c, 9, 46, 0
2, 5130, Control_c, 9, 4, 84
2, 5138, Note_on_c, 9, 57, 0
2, 5232, Control_c, 9, 4, 88
2, 5300, Note_on_c, 9, 57, 103
2, 5369, Control_c, 9, 4, 82
2, 5389, Note_on_c, 9, 57, 0
2, 5411, Control_c, 9, 4, 70
2, 5465, Control_c, 9, 4, 39
2, 5500, Control_c, 9, 4, 65
2, 5507, Note_on_c, 9, 46, 40
2, 5509, Note_on_c, 9, 44, 41
2, 5534, Control_c, 9, 4, 96
2, 5537, Note_on_c, 9, 57, 23
2, 5571, Control_c, 9, 4, 91
2, 5595, Note_on_c, 9, 44, 0
2, 5595, Note_on_c, 9, 46, 0
2, 5606, Control_c, 9, 4, 84
2, 5626, Note_on_c, 9, 57, 0
2, 5650, Control_c, 9, 4, 80
2, 5707, Control_c, 9, 4, 90
2, 5774, Note_on_c, 9, 57, 105
2, 5779, Control_c, 9, 16, 126
2, 5780, Note_on_c, 9, 40, 43
2, 5815, Control_c, 9, 4, 84
2, 5860, Control_c, 9, 4, 71
2, 5862, Note_on_c, 9, 57, 0
2, 5866, Note_on_c, 9, 40, 0
2, 5892, Control_c, 9, 4, 61
2, 5933, Control_c, 9, 4, 22
2, 5970, Control_c, 9, 4, 70
2, 5973, Note_on_c, 9, 44, 54
2, 5975, Note_on_c, 9, 46, 51
2, 6000, Control_c, 9, 4, 94
2, 6048, Control_c, 9, 4, 88
2, 6061, Note_on_c, 9, 44, 0
2, 6061, Note_on_c, 9, 46, 0
2, 6081, Control_c, 9, 4, 83
2, 6171, Control_c, 9, 4, 87
2, 6239, Note_on_c, 9, 36, 44
2, 6253, Note_on_c, 9, 57, 111
2, 6318, Control_c, 9, 4, 81
2, 6328, Note_on_c, 9, 36, 0
2, 6343, Note_on_c, 9, 57, 0
2, 6370, Control_c, 9, 4, 67
2, 6381, Control_c, 9, 16, 0
2, 6382, Note_on_c, 9, 38, 4
2, 6412, Control_c, 9, 4, 33
2, 6449, Control_c, 9, 4, 59
2, 6455, Note_on_c, 9, 46, 40
2, 6456, Note_on_c, 9, 44, 41
2, 6470, Note_on_c, 9, 38, 0
2, 6479, Note_on_c, 9, 57, 83
2, 6482, Control_c, 9, 4, 94
2, 6544, Note_on_c, 9, 44, 0
2, 6544, Note_on_c, 9, 46, 0
2, 6554, Control_c, 9, 4, 84
2, 6568, Note_on_c, 9, 57, 0
2, 6585, Note_on_c, 9, 38, 17
2, 6603, Control_c, 9, 4, 80
2, 6648, Control_c, 9, 4, 87
2, 6672, Note_on_c, 9, 38, 0
2, 6708, Note_on_c, 9, 57, 112
2, 6796, Note_on_c, 9, 57, 0
2, 6798, Control_c, 9, 4, 73
2, 6832, Note_on_c, 9, 57, 86
2, 6845, Control_c, 9, 4, 57
2, 6885, Control_c, 9, 4, 20
2, 6918, Control_c, 9, 4, 70
2, 6920, Note_on_c, 9, 44, 54
2, 6922, Note_on_c, 9, 57, 0
2, 6949, Control_c, 9, 4, 95
2, 6952, Note_on_c, 9, 40, 42
2, 7009, Note_on_c, 9, 44, 0
2, 7025, Control_c, 9, 4, 85
2, 7040, Note_on_c, 9, 40, 0
2, 7093, Note_on_c, 9, 57, 93
2, 7182, Note_on_c, 9, 57, 0
2, 7219, Control_c, 9, 4, 89
2, 7224, Note_on_c, 9, 57, 96
2, 7277, Control_c, 9, 4, 84
2, 7313, Note_on_c, 9, 57, 0
2, 7316, Control_c, 9, 4, 71
2, 7349, Control_c, 9, 4, 61
2, 7352, Note_on_c, 9, 38, 10
2, 7391, Control_c, 9, 4, 25
2, 7423, Control_c, 9, 4, 74
2, 7426, Note_on_c, 9, 46, 41
2, 7427, Note_on_c, 9, 44, 48
2, 7440, Note_on_c, 9, 38, 0
2, 7450, Note_on_c, 9, 57, 110
2, 7453, Control_c, 9, 4, 94
2, 7514, Note_on_c, 9, 44, 0
2, 7514, Note_on_c, 9, 46, 0
2, 7529, Control_c, 9, 4, 84
2, 7539, Note_on_c, 9, 57, 0
2, 7571, Control_c, 9, 16, 0
2, 7572, Note_on_c, 9, 38, 12
2, 7637, Control_c, 9, 4, 88
2, 7659, Note_on_c, 9, 38, 0
2, 7660, End_track
0, 0, End_of_file
