0, 0, Header, 1, 2, 480
1, 0, Start_track
1, 0, Tempo, 588235
1, 0, Time_signature, 4, 2, 24, 8
1, 0, Key_signature, 0, "major"
1, 1, End_track
2, 0, Start_track
2, 0, Title_t, "Classic Studio Kit"
2, 0, Program_c, 9, 0
2, 0, Control_c, 9, 17, 71
2, 19, Note_on_c, 9, 48, 61
2, 88, Control_c, 9, 4, 92
2, 101, Note_on_c, 9, 48, 0
2, 120, Control_c, 9, 4, 86
2, 138, Control_c, 9, 17, 71
2, 139, Note_on_c, 9, 51, 74
2, 153, Control_c, 9, 4, 70
2, 195, Control_c, 9, 4, 0
2, 220, Note_on_c, 9, 51, 0
2, 238, Control_c, 9, 4, 49
2, 243, Note_on_c, 9, 46, 63
2, 245, Note_on_c, 9, 44, 100
2, 254, Note_on_c, 9, 36, 50
2, 268, Control_c, 9, 4, 116
2, 319, Control_c, 9, 4, 91
2, 325, Note_on_c, 9, 44, 0
2, 325, Note_on_c, 9, 46, 0
2, 335, Note_on_c, 9, 36, 0
2, 349, Control_c, 9, 4, 87
2, 467, Control_c, 9, 4, 92
2, 498, Control_c, 9, 17, 4
2, 498, Note_on_c, 9, 51, 98
2, 502, Note_on_c, 9, 36, 74
2, 511, Control_c, 9, 16, 0
2, 511, Note_on_c, 9, 38, 69
2, 580, Note_on_c, 9, 51, 0
2, 584, Note_on_c, 9, 36, 0
2, 592, Note_on_c, 9, 38, 0
2, 603, Control_c, 9, 4, 85
2, 639, Control_c, 9, 4, 70
2, 676, Control_c, 9, 4, 0
2, 729, Control_c, 9, 4, 32
2, 736, Note_on_c, 9, 44, 119
2, 752, Control_c, 9, 17, 94
2, 752, Note_on_c, 9, 51, 71
2, 761, Control_c, 9, 4, 120
2, 800, Control_c, 9, 4, 98
2, 817, Note_on_c, 9, 44, 0
2, 835, Control_c, 9, 4, 85
2, 835, Note_on_c, 9, 51, 0
2, 858, Control_c, 9, 18, 0
2, 859, Note_on_c, 9, 48, 47
2, 867, Note_on_c, 9, 36, 54
2, 941, Note_on_c, 9, 48, 0
2, 950, Control_c, 9, 4, 97
2, 950, Note_on_c, 9, 36, 0
2, 955, Control_c, 9, 17, 69
2, 956, Note_on_c, 9, 51, 53
2, 984, Note_on_c, 9, 48, 63
2, 1013, Control_c, 9, 4, 92
2, 1038, Note_on_c, 9, 51, 0
2, 1065, Note_on_c, 9, 48, 0
2, 1092, Control_c, 9, 17, 56
2, 1092, Note_on_c, 9, 51, 76
2, 1173, Note_on_c, 9, 51, 0
2, 1216, Note_on_c, 9, 36, 49
2, 1298, Note_on_c, 9, 36, 0
2, 1462, Control_c, 9, 17, 46
2, 1462, Note_on_c, 9, 51, 98
2, 1470, Note_on_c, 9, 38, 86
2, 1473, Note_on_c, 9, 36, 80
2, 1492, Control_c, 9, 4, 97
2, 1544, Note_on_c, 9, 51, 0
2, 1552, Control_c, 9, 4, 84
2, 1553, Note_on_c, 9, 38, 0
2, 1555, Note_on_c, 9, 36, 0
2, 1584, Control_c, 9, 4, 70
2, 1623, Control_c, 9, 4, 0
2, 1688, Control_c, 9, 4, 33
2, 1695, Note_on_c, 9, 44, 119
2, 1701, Control_c, 9, 17, 76
2, 1702, Note_on_c, 9, 51, 63
2, 1720, Control_c, 9, 4, 110
2, 1776, Note_on_c, 9, 44, 0
2, 1780, Control_c, 9, 4, 91
2, 1784, Note_on_c, 9, 51, 0
2, 1817, Control_c, 9, 4, 87
2, 1820, Note_on_c, 9, 36, 64
2, 1830, Control_c, 9, 18, 0
2, 1830, Note_on_c, 9, 48, 45
2, 1901, Note_on_c, 9, 36, 0
2, 1903, Control_c, 9, 17, 45
2, 1904, Note_on_c, 9, 51, 51
2, 1913, Note_on_c, 9, 48, 0
2, 1923, Control_c, 9, 4, 97
2, 1947, Note_on_c, 9, 48, 66
2, 1985, Note_on_c, 9, 51, 0
2, 1994, Control_c, 9, 4, 92
2, 2028, Note_on_c, 9, 48, 0
2, 2042, Control_c, 9, 17, 53
2, 2042, Note_on_c, 9, 51, 72
2, 2124, Note_on_c, 9, 51, 0
2, 2175, Note_on_c, 9, 36, 30
2, 2204, Control_c, 9, 4, 96
2, 2255, Note_on_c, 9, 36, 0
2, 2261, Control_c, 9, 4, 90
2, 2299, Control_c, 9, 4, 72
2, 2333, Control_c, 9, 4, 0
2, 2401, Control_c, 9, 4, 49
2, 2406, Note_on_c, 9, 44, 126
2, 2412, Control_c, 9, 17, 20
2, 2413, Note_on_c, 9, 51, 88
2, 2414, Control_c, 9, 16, 0
2, 2414, Note_on_c, 9, 38, 83
2, 2423, Note_on_c, 9, 36, 72
2, 2431, Control_c, 9, 4, 112
2, 2471, Control_c, 9, 4, 95
2, 2488, Note_on_c, 9, 44, 0
2, 2494, Note_on_c, 9, 51, 0
2, 2495, Note_on_c, 9, 38, 0
2, 2505, Note_on_c, 9, 36, 0
2, 2512, Control_c, 9, 4, 84
2, 2636, Control_c, 9, 4, 108
2, 2654, Control_c, 9, 17, 87
2, 2655, Note_on_c, 9, 51, 69
2, 2693, Control_c, 9, 4, 100
2, 2734, Control_c, 9, 4, 89
2, 2736, Note_on_c, 9, 51, 0
2, 2753, Note_on_c, 9, 36, 62
2, 2769, Control_c, 9, 4, 73
2, 2771, Control_c, 9, 18, 0
2, 2771, Note_on_c, 9, 48, 46
2, 2809, Control_c, 9, 4, 0
2, 2835, Note_on_c, 9, 36, 0
2, 2853, Note_on_c, 9, 48, 0
2, 2873, Control_c, 9, 4, 33
2, 2873, Control_c, 9, 17, 111
2, 2874, Note_on_c, 9, 51, 47
2, 2879, Note_on_c, 9, 44, 126
2, 2897, Note_on_c, 9, 48, 68
2, 2904, Control_c, 9, 4, 120
2, 2940, Control_c, 9, 4, 110
2, 2955, Note_on_c, 9, 51, 0
2, 2960, Note_on_c, 9, 44, 0
2, 2970, Control_c, 9, 4, 93
2, 2978, Note_on_c, 9, 48, 0
2, 3021, Control_c, 9, 17, 66
2, 3021, Note_on_c, 9, 51, 77
2, 3098, Control_c, 9, 4, 99
2, 3102, Note_on_c, 9, 51, 0
2, 3118, Note_on_c, 9, 36, 49
2, 3151, Control_c, 9, 4, 94
2, 3200, Note_on_c, 9, 36, 0
2, 3363, Note_on_c, 9, 36, 74
2, 3372, Control_c, 9, 17, 16
2, 3372, Note_on_c, 9, 51, 94
2, 3378, Note_on_c, 9, 38, 83
2, 3444, Note_on_c, 9, 36, 0
2, 3454, Note_on_c, 9, 51, 0
2, 3460, Note_on_c, 9, 38, 0
2, 3480, Control_c, 9, 4, 89
2, 3512, Control_c, 9, 4, 72
2, 3557, Control_c, 9, 4, 0
2, 3602, Control_c, 9, 4, 50
2, 3607, Note_on_c, 9, 44, 100
2, 3620, Control_c, 9, 17, 60
2, 3620, Note_on_c, 9, 51, 68
2, 3633, Control_c, 9, 4, 120
2, 3671, Control_c, 9, 4, 98
2, 3689, Note_on_c, 9, 44, 0
2, 3701, Note_on_c, 9, 51, 0
2, 3708, Control_c, 9, 4, 84
2, 3731, Control_c, 9, 18, 0
2, 3731, Note_on_c, 9, 48, 46
2, 3732, Note_on_c, 9, 36, 64
2, 3784, Control_c, 9, 4, 88
2, 3812, Note_on_c, 9, 48, 0
2, 3815, Note_on_c, 9, 36, 0
2, 3825, Control_c, 9, 17, 81
2, 3826, Note_on_c, 9, 51, 50
2, 3834, Control_c, 9, 4, 104
2, 3853, Note_on_c, 9, 48, 63
2, 3908, Note_on_c, 9, 51, 0
2, 3934, Note_on_c, 9, 48, 0
2, 3936, Control_c, 9, 4, 92
2, 3972, Control_c, 9, 17, 81
2, 3972, Note_on_c, 9, 51, 74
2, 3989, Control_c, 9, 4, 70
2, 4025, Control_c, 9, 4, 0
2, 4055, Note_on_c, 9, 51, 0
2, 4080, Control_c, 9, 4, 49
2, 4085, Note_on_c, 9, 44, 113
2, 4086, Note_on_c, 9, 36, 30
2, 4110, Control_c, 9, 4, 120
2, 4126, Note_on_c, 9, 49, 5
2, 4156, Control_c, 9, 4, 94
2, 4166, Note_on_c, 9, 44, 0
2, 4169, Note_on_c, 9, 36, 0
2, 4194, Control_c, 9, 4, 69
2, 4208, Note_on_c, 9, 49, 0
2, 4227, Control_c, 9, 4, 0
2, 4300, Note_on_c, 9, 46, 8
2, 4313, Control_c, 9, 4, 49
2, 4318, Note_on_c, 9, 44, 113
2, 4330, Control_c, 9, 17, 13
2, 4331, Note_on_c, 9, 51, 96
2, 4334, Control_c, 9, 16, 0
2, 4334, Note_on_c, 9, 38, 67
2, 4336, Note_on_c, 9, 36, 89
2, 4343, Control_c, 9, 4, 102
2, 4382, Note_on_c, 9, 46, 0
2, 4391, Control_c, 9, 4, 94
2, 4400, Note_on_c, 9, 44, 0
2, 4413, Note_on_c, 9, 51, 0
2, 4415, Note_on_c, 9, 38, 0
2, 4418, Note_on_c, 9, 36, 0
2, 4423, Control_c, 9, 4, 84
2, 4547, Control_c, 9, 4, 108
2, 4575, Control_c, 9, 17, 84
2, 4575, Note_on_c, 9, 51, 72
2, 4610, Control_c, 9, 4, 100
2, 4649, Control_c, 9, 4, 89
2, 4658, Note_on_c, 9, 51, 0
2, 4680, Note_on_c, 9, 36, 61
2, 4684, Control_c, 9, 4, 72
2, 4689, Control_c, 9, 18, 0
2, 4690, Note_on_c, 9, 48, 48
2, 4724, Control_c, 9, 4, 0
2, 4763, Note_on_c, 9, 36, 0
2, 4772, Note_on_c, 9, 48, 0
2, 4778, Control_c, 9, 17, 127
2, 4779, Note_on_c, 9, 51, 51
2, 4795, Control_c, 9, 4, 36
2, 4800, Note_on_c, 9, 44, 127
2, 4815, Note_on_c, 9, 48, 67
2, 4826, Control_c, 9, 4, 122
2, 4860, Note_on_c, 9, 51, 0
2, 4880, Control_c, 9, 4, 92
2, 4882, Note_on_c, 9, 44, 0
2, 4897, Note_on_c, 9, 48, 0
2, 4922, Control_c, 9, 17, 67
2, 4923, Note_on_c, 9, 51, 82
2, 5004, Note_on_c, 9, 51, 0
2, 5024, Control_c, 9, 4, 98
2, 5062, Note_on_c, 9, 36, 71
2, 5076, Control_c, 9, 4, 94
2, 5145, Note_on_c, 9, 36, 0
2, 5217, Control_c, 9, 4, 90
2, 5297, Control_c, 9, 17, 26
2, 5298, Note_on_c, 9, 51, 100
2, 5308, Note_on_c, 9, 38, 92
2, 5310, Control_c, 9, 4, 94
2, 5379, Note_on_c, 9, 51, 0
2, 5389, Note_on_c, 9, 38, 0
2, 5396, Control_c, 9, 4, 83
2, 5428, Control_c, 9, 4, 70
2, 5463, Control_c, 9, 4, 0
2, 5519, Control_c, 9, 4, 48
2, 5523, Note_on_c, 9, 44, 113
2, 5536, Note_on_c, 9, 36, 64
2, 5545, Control_c, 9, 17, 65
2, 5546, Note_on_c, 9, 51, 69
2, 5549, Control_c, 9, 4, 118
2, 5605, Note_on_c, 9, 44, 0
2, 5606, Control_c, 9, 4, 92
2, 5618, Note_on_c, 9, 36, 0
2, 5628, Note_on_c, 9, 51, 0
2, 5655, Control_c, 9, 18, 0
2, 5656, Note_on_c, 9, 48, 45
2, 5729, Control_c, 9, 4, 96
2, 5736, Note_on_c, 9, 48, 0
2, 5740, Control_c, 9, 17, 57
2, 5741, Note_on_c, 9, 51, 45
2, 5771, Note_on_c, 9, 48, 66
2, 5820, Control_c, 9, 4, 112
2, 5822, Note_on_c, 9, 51, 0
2, 5852, Note_on_c, 9, 48, 0
2, 5880, Control_c, 9, 17, 44
2, 5881, Note_on_c, 9, 51, 80
2, 5888, Control_c, 9, 4, 92
2, 5938, Control_c, 9, 4, 70
2, 5962, Note_on_c, 9, 51, 0
2, 5970, Control_c, 9, 4, 0
2, 6028, Note_on_c, 9, 44, 127
2, 6035, Control_c, 9, 4, 127
2, 6038, Note_on_c, 9, 36, 71
2, 6078, Control_c, 9, 4, 118
2, 6110, Note_on_c, 9, 44, 0
2, 6114, Control_c, 9, 4, 89
2, 6121, Note_on_c, 9, 36, 0
2, 6153, Control_c, 9, 4, 76
2, 6198, Control_c, 9, 4, 62
2, 6232, Control_c, 9, 4, 70
2, 6232, Note_on_c, 9, 46, 6
2, 6241, Note_on_c, 9, 44, 9
2, 6242, Note_on_c, 9, 46, 0
2, 6242, Note_on_c, 9, 46, 26
2, 6265, Control_c, 9, 4, 99
2, 6273, Control_c, 9, 17, 27
2, 6274, Note_on_c, 9, 36, 85
2, 6274, Note_on_c, 9, 51, 93
2, 6277, Control_c, 9, 16, 0
2, 6278, Note_on_c, 9, 38, 76
2, 6305, Control_c, 9, 4, 92
2, 6314, Note_on_c, 9, 46, 0
2, 6321, Note_on_c, 9, 44, 0
2, 6351, Control_c, 9, 4, 88
2, 6355, Note_on_c, 9, 51, 0
2, 6356, Note_on_c, 9, 36, 0
2, 6359, Note_on_c, 9, 38, 0
2, 6494, Control_c, 9, 4, 110
2, 6512, Control_c, 9, 17, 67
2, 6513, Note_on_c, 9, 51, 70
2, 6545, Control_c, 9, 4, 98
2, 6583, Control_c, 9, 4, 84
2, 6594, Note_on_c, 9, 51, 0
2, 6611, Note_on_c, 9, 36, 46
2, 6617, Control_c, 9, 4, 70
2, 6627, Control_c, 9, 18, 0
2, 6627, Note_on_c, 9, 48, 49
2, 6654, Control_c, 9, 4, 0
2, 6693, Note_on_c, 9, 36, 0
2, 6701, Control_c, 9, 17, 60
2, 6702, Note_on_c, 9, 51, 51
2, 6709, Note_on_c, 9, 48, 0
2, 6723, Control_c, 9, 4, 34
2, 6729, Note_on_c, 9, 44, 127
2, 6749, Note_on_c, 9, 48, 61
2, 6755, Control_c, 9, 4, 120
2, 6782, Note_on_c, 9, 51, 0
2, 6793, Control_c, 9, 4, 102
2, 6811, Note_on_c, 9, 44, 0
2, 6831, Control_c, 9, 4, 89
2, 6831, Note_on_c, 9, 48, 0
2, 6843, Control_c, 9, 17, 80
2, 6844, Note_on_c, 9, 51, 75
2, 6925, Note_on_c, 9, 51, 0
2, 6952, Control_c, 9, 4, 102
2, 6974, Note_on_c, 9, 36, 40
2, 7003, Control_c, 9, 4, 92
2, 7057, Note_on_c, 9, 36, 0
2, 7213, Control_c, 9, 17, 16
2, 7213, Note_on_c, 9, 36, 65
2, 7213, Note_on_c, 9, 51, 92
2, 7222, Note_on_c, 9, 38, 74
2, 7294, Note_on_c, 9, 36, 0
2, 7294, Note_on_c, 9, 51, 0
2, 7302, Note_on_c, 9, 38, 0
2, 7328, Control_c, 9, 4, 85
2, 7359, Control_c, 9, 4, 70
2, 7392, Control_c, 9, 4, 0
2, 7454, Control_c, 9, 4, 49
2, 7458, Note_on_c, 9, 44, 126
2, 7466, Control_c, 9, 17, 55
2, 7467, Note_on_c, 9, 51, 74
2, 7484, Control_c, 9, 4, 122
2, 7540, Note_on_c, 9, 44, 0
2, 7541, Control_c, 9, 4, 91
2, 7549, Note_on_c, 9, 51, 0
2, 7575, Control_c, 9, 4, 87
2, 7581, Control_c, 9, 18, 0
2, 7581, Note_on_c, 9, 48, 42
2, 7589, Note_on_c, 9, 36, 58
2, 7663, Note_on_c, 9, 48, 0
2, 7664, Control_c, 9, 17, 49
2, 7670, Note_on_c, 9, 36, 0
2, 7671, End_track
0, 0, End_of_file
