0, 0, Header, 1, 2, 480
1, 0, Start_track
1, 0, Tempo, 588235
1, 0, Time_signature, 4, 2, 24, 8
1, 0, Key_signature, 0, "major"
1, 1, End_track
2, 0, Start_track
2, 0, Title_t, "Classic Studio Kit"
2, 0, Program_c, 9, 0
2, 0, Control_c, 9, 16, 0
2, 22, Note_on_c, 9, 36, 71
2, 93, Control_c, 9, 18, 0
2, 94, Note_on_c, 9, 48, 50
2, 104, Note_on_c, 9, 36, 0
2, 170, Note_on_c, 9, 38, 61
2, 174, Note_on_c, 9, 48, 0
2, 251, Note_on_c, 9, 38, 0
2, 259, Note_on_c, 9, 36, 67
2, 336, Control_c, 9, 16, 0
2, 336, Note_on_c, 9, 38, 36
2, 341, Note_on_c, 9, 36, 0
2, 418, Note_on_c, 9, 38, 0
2, 430, Note_on_c, 9, 48, 62
2, 501, Note_on_c, 9, 36, 70
2, 511, Note_on_c, 9, 48, 0
2, 582, Control_c, 9, 18, 0
2, 583, Note_on_c, 9, 36, 0
2, 583, Note_on_c, 9, 48, 48
2, 654, Note_on_c, 9, 38, 60
2, 664, Note_on_c, 9, 48, 0
2, 731, Note_on_c, 9, 36, 71
2, 735, Note_on_c, 9, 38, 0
2, 812, Control_c, 9, 16, 0
2, 813, Note_on_c, 9, 36, 0
2, 813, Note_on_c, 9, 38, 31
2, 894, Note_on_c, 9, 38, 0
2, 911, Note_on_c, 9, 48, 62
2, 969, Note_on_c, 9, 36, 61
2, 992, Note_on_c, 9, 48, 0
2, 1052, Note_on_c, 9, 36, 0
2, 1059, Control_c, 9, 18, 0
2, 1059, Note_on_c, 9, 48, 48
2, 1132, Note_on_c, 9, 38, 63
2, 1133, Control_c, 9, 4, 67
2, 1141, Note_on_c, 9, 48, 0
2, 1205, Note_on_c, 9, 36, 68
2, 1214, Note_on_c, 9, 38, 0
2, 1287, Note_on_c, 9, 36, 0
2, 1297, Control_c, 9, 16, 0
2, 1297, Note_on_c, 9, 38, 32
2, 1378, Note_on_c, 9, 48, 56
2, 1379, Note_on_c, 9, 38, 0
2, 1448, Note_on_c, 9, 36, 64
2, 1460, Note_on_c, 9, 48, 0
2, 1522, Control_c, 9, 18, 0
2, 1522, Note_on_c, 9, 48, 48
2, 1531, Note_on_c, 9, 36, 0
2, 1593, Note_on_c, 9, 38, 62
2, 1603, Note_on_c, 9, 48, 0
2, 1673, Note_on_c, 9, 38, 0
2, 1677, Note_on_c, 9, 36, 65
2, 1759, Control_c, 9, 16, 0
2, 1759, Note_on_c, 9, 38, 33
2, 1761, Note_on_c, 9, 36, 0
2, 1841, Note_on_c, 9, 38, 0
2, 1849, Note_on_c, 9, 48, 60
2, 1916, Note_on_c, 9, 36, 60
2, 1930, Note_on_c, 9, 48, 0
2, 1995, Control_c, 9, 18, 0
2, 1996, Note_on_c, 9, 48, 52
2, 1999, Note_on_c, 9, 36, 0
2, 2062, Note_on_c, 9, 38, 66
2, 2076, Note_on_c, 9, 48, 0
2, 2138, Note_on_c, 9, 36, 57
2, 2142, Note_on_c, 9, 38, 0
2, 2212, Control_c, 9, 16, 0
2, 2213, Note_on_c, 9, 38, 34
2, 2220, Note_on_c, 9, 36, 0
2, 2249, Control_c, 9, 4, 67
2, 2249, Note_on_c, 9, 46, 7
2, 2294, Note_on_c, 9, 38, 0
2, 2307, Control_c, 9, 18, 21
2, 2308, Note_on_c, 9, 48, 46
2, 2330, Note_on_c, 9, 46, 0
2, 2389, Note_on_c, 9, 48, 0
2, 2409, Note_on_c, 9, 36, 88
2, 2490, Note_on_c, 9, 36, 0
2, 2625, Note_on_c, 9, 38, 64
2, 2706, Note_on_c, 9, 38, 0
2, 2715, Control_c, 9, 4, 62
2, 2751, Control_c, 9, 4, 46
2, 2783, Control_c, 9, 4, 0
2, 2852, Control_c, 9, 4, 49
2, 2858, Note_on_c, 9, 44, 93
2, 2881, Control_c, 9, 16, 0
2, 2882, Note_on_c, 9, 38, 42
2, 2883, Control_c, 9, 4, 90
2, 2917, Control_c, 9, 4, 69
2, 2940, Note_on_c, 9, 44, 0
2, 2954, Control_c, 9, 4, 54
2, 2964, Note_on_c, 9, 38, 0
2, 2986, Control_c, 9, 4, 36
2, 3002, Control_c, 9, 18, 0
2, 3003, Note_on_c, 9, 48, 75
2, 3017, Control_c, 9, 4, 0
2, 3084, Note_on_c, 9, 48, 0
2, 3123, Note_on_c, 9, 38, 37
2, 3204, Note_on_c, 9, 38, 0
2, 3235, Control_c, 9, 16, 0
2, 3236, Note_on_c, 9, 38, 40
2, 3317, Note_on_c, 9, 38, 0
2, 3340, Control_c, 9, 4, 9
2, 3359, Control_c, 9, 16, 42
2, 3359, Note_on_c, 9, 38, 53
2, 3370, Control_c, 9, 4, 29
2, 3402, Control_c, 9, 4, 42
2, 3441, Note_on_c, 9, 38, 0
2, 3460, Note_on_c, 9, 36, 48
2, 3542, Note_on_c, 9, 36, 0
2, 3583, Note_on_c, 9, 36, 68
2, 3665, Note_on_c, 9, 36, 0
2, 3714, Note_on_c, 9, 48, 47
2, 3789, Control_c, 9, 4, 70
2, 3795, Note_on_c, 9, 48, 0
2, 3820, Control_c, 9, 4, 76
2, 3820, Note_on_c, 9, 44, 15
2, 3834, Control_c, 9, 16, 0
2, 3835, Note_on_c, 9, 38, 56
2, 3870, Control_c, 9, 4, 99
2, 3903, Note_on_c, 9, 44, 0
2, 3916, Note_on_c, 9, 38, 0
2, 3939, Note_on_c, 9, 36, 79
2, 3944, Control_c, 9, 4, 83
2, 3978, Control_c, 9, 4, 60
2, 4008, Control_c, 9, 4, 0
2, 4020, Note_on_c, 9, 36, 0
2, 4064, Note_on_c, 9, 38, 28
2, 4070, Note_on_c, 9, 44, 119
2, 4076, Control_c, 9, 4, 112
2, 4112, Control_c, 9, 4, 77
2, 4146, Note_on_c, 9, 38, 0
2, 4153, Note_on_c, 9, 44, 0
2, 4208, Control_c, 9, 16, 0
2, 4208, Note_on_c, 9, 38, 47
2, 4210, Control_c, 9, 4, 84
2, 4290, Note_on_c, 9, 38, 0
2, 4306, Note_on_c, 9, 36, 84
2, 4388, Note_on_c, 9, 36, 0
2, 4519, Note_on_c, 9, 38, 54
2, 4596, Control_c, 9, 4, 89
2, 4601, Note_on_c, 9, 38, 0
2, 4607, Control_c, 9, 16, 0
2, 4607, Note_on_c, 9, 38, 4
2, 4689, Note_on_c, 9, 38, 0
2, 4759, Control_c, 9, 4, 84
2, 4780, Control_c, 9, 16, 21
2, 4780, Note_on_c, 9, 38, 69
2, 4799, Control_c, 9, 4, 97
2, 4862, Note_on_c, 9, 38, 0
2, 4868, Control_c, 9, 4, 93
2, 4923, Control_c, 9, 16, 0
2, 4924, Note_on_c, 9, 38, 11
2, 4955, Control_c, 9, 4, 89
2, 5004, Note_on_c, 9, 38, 0
2, 5037, Note_on_c, 9, 38, 12
2, 5057, Control_c, 9, 4, 94
2, 5118, Note_on_c, 9, 38, 0
2, 5163, Control_c, 9, 16, 0
2, 5163, Note_on_c, 9, 38, 12
2, 5164, Control_c, 9, 4, 90
2, 5230, Control_c, 9, 16, 0
2, 5230, Note_on_c, 9, 38, 0
2, 5231, Note_on_c, 9, 38, 11
2, 5245, Note_on_c, 9, 38, 0
2, 5280, Note_on_c, 9, 38, 5
2, 5292, Control_c, 9, 16, 21
2, 5293, Note_on_c, 9, 38, 0
2, 5294, Note_on_c, 9, 38, 72
2, 5312, Note_on_c, 9, 38, 0
2, 5416, Control_c, 9, 16, 0
2, 5417, Note_on_c, 9, 38, 17
2, 5472, Control_c, 9, 4, 86
2, 5499, Note_on_c, 9, 38, 0
2, 5543, Note_on_c, 9, 38, 15
2, 5624, Note_on_c, 9, 38, 0
2, 5677, Control_c, 9, 16, 0
2, 5678, Note_on_c, 9, 38, 31
2, 5759, Note_on_c, 9, 38, 0
2, 5799, Control_c, 9, 16, 42
2, 5799, Note_on_c, 9, 38, 66
2, 5825, Control_c, 9, 4, 91
2, 5881, Note_on_c, 9, 38, 0
2, 5966, Control_c, 9, 4, 85
2, 5999, Control_c, 9, 4, 92
2, 6230, Control_c, 9, 4, 88
2, 6282, Control_c, 9, 17, 0
2, 6283, Control_c, 9, 16, 0
2, 6283, Note_on_c, 9, 51, 94
2, 6285, Note_on_c, 9, 38, 74
2, 6299, Note_on_c, 9, 36, 74
2, 6342, Control_c, 9, 4, 98
2, 6364, Note_on_c, 9, 38, 0
2, 6364, Note_on_c, 9, 51, 0
2, 6381, Note_on_c, 9, 36, 0
2, 6399, Control_c, 9, 4, 82
2, 6431, Control_c, 9, 4, 69
2, 6466, Control_c, 9, 4, 0
2, 6518, Control_c, 9, 4, 48
2, 6523, Note_on_c, 9, 44, 113
2, 6529, Control_c, 9, 17, 43
2, 6530, Note_on_c, 9, 51, 79
2, 6548, Control_c, 9, 4, 127
2, 6585, Control_c, 9, 4, 104
2, 6604, Note_on_c, 9, 44, 0
2, 6612, Note_on_c, 9, 51, 0
2, 6617, Control_c, 9, 4, 92
2, 6633, Note_on_c, 9, 36, 74
2, 6659, Control_c, 9, 18, 0
2, 6659, Note_on_c, 9, 48, 60
2, 6715, Note_on_c, 9, 36, 0
2, 6741, Note_on_c, 9, 48, 0
2, 6766, Control_c, 9, 4, 97
2, 6789, Control_c, 9, 17, 0
2, 6790, Note_on_c, 9, 51, 91
2, 6815, Control_c, 9, 4, 104
2, 6868, Control_c, 9, 4, 90
2, 6870, Note_on_c, 9, 51, 0
2, 6901, Control_c, 9, 17, 13
2, 6901, Note_on_c, 9, 51, 69
2, 6902, Control_c, 9, 4, 71
2, 6937, Control_c, 9, 4, 0
2, 6983, Note_on_c, 9, 51, 0
2, 7001, Note_on_c, 9, 44, 127
2, 7007, Control_c, 9, 4, 127
2, 7043, Control_c, 9, 4, 100
2, 7083, Note_on_c, 9, 44, 0
2, 7093, Control_c, 9, 4, 88
2, 7188, Control_c, 9, 4, 94
2, 7237, Note_on_c, 9, 36, 68
2, 7247, Control_c, 9, 17, 1
2, 7247, Note_on_c, 9, 51, 100
2, 7251, Note_on_c, 9, 38, 63
2, 7276, Control_c, 9, 4, 98
2, 7319, Note_on_c, 9, 36, 0
2, 7328, Note_on_c, 9, 51, 0
2, 7331, Note_on_c, 9, 38, 0
2, 7361, Control_c, 9, 4, 84
2, 7394, Control_c, 9, 4, 70
2, 7429, Control_c, 9, 4, 22
2, 7466, Control_c, 9, 4, 42
2, 7473, Note_on_c, 9, 46, 14
2, 7474, Note_on_c, 9, 44, 87
2, 7476, Control_c, 9, 17, 47
2, 7477, Note_on_c, 9, 51, 69
2, 7498, Control_c, 9, 4, 127
2, 7535, Control_c, 9, 4, 100
2, 7554, Note_on_c, 9, 44, 0
2, 7554, Note_on_c, 9, 46, 0
2, 7558, Note_on_c, 9, 51, 0
2, 7575, Control_c, 9, 4, 87
2, 7670, Control_c, 9, 4, 96
2, 7671, End_track
0, 0, End_of_file
