0, 0, Header, 1, 2, 480
1, 0, Start_track
1, 0, Tempo, 545454
1, 0, Time_signature, 4, 2, 24, 8
1, 0, Key_signature, 0, "major"
1, 1, End_track
2, 0, Start_track
2, 0, Title_t, "TD-30 #9 Djembe"
2, 0, Program_c, 9, 0
2, 0, Control_c, 9, 16, 0
2, 18, Control_c, 9, 16, 0
2, 19, Note_on_c, 9, 38, 35
2, 106, Note_on_c, 9, 38, 0
2, 257, Control_c, 9, 16, 0
2, 258, Note_on_c, 9, 38, 18
2, 346, Note_on_c, 9, 38, 0
2, 502, Control_c, 9, 16, 127
2, 503, Note_on_c, 9, 40, 54
2, 590, Note_on_c, 9, 40, 0
2, 759, Control_c, 9, 18, 0
2, 760, Note_on_c, 9, 45, 68
2, 762, Control_c, 9, 4, 88
2, 820, Control_c, 9, 4, 82
2, 848, Note_on_c, 9, 45, 0
2, 861, Control_c, 9, 4, 62
2, 868, Note_on_c, 9, 46, 9
2, 894, Control_c, 9, 4, 0
2, 955, Note_on_c, 9, 46, 0
2, 982, Note_on_c, 9, 44, 106
2, 998, Control_c, 9, 4, 102
2, 1034, Control_c, 9, 4, 86
2, 1070, Control_c, 9, 4, 81
2, 1071, Note_on_c, 9, 44, 0
2, 1129, Control_c, 9, 4, 76
2, 1195, Control_c, 9, 4, 81
2, 1219, Control_c, 9, 16, 0
2, 1219, Note_on_c, 9, 38, 12
2, 1231, Control_c, 9, 4, 77
2, 1307, Note_on_c, 9, 38, 0
2, 1465, Control_c, 9, 16, 127
2, 1466, Note_on_c, 9, 40, 67
2, 1523, Control_c, 9, 4, 73
2, 1554, Note_on_c, 9, 40, 0
2, 1703, Control_c, 9, 16, 0
2, 1704, Note_on_c, 9, 38, 12
2, 1792, Note_on_c, 9, 38, 0
2, 1831, Note_on_c, 9, 38, 16
2, 1919, Note_on_c, 9, 38, 0
2, 1943, Note_on_c, 9, 38, 11
2, 2031, Note_on_c, 9, 38, 0
2, 2060, Note_on_c, 9, 38, 21
2, 2148, Note_on_c, 9, 38, 0
2, 2187, Control_c, 9, 16, 0
2, 2188, Note_on_c, 9, 38, 21
2, 2276, Note_on_c, 9, 38, 0
2, 2300, Control_c, 9, 16, 0
2, 2301, Note_on_c, 9, 38, 17
2, 2389, Note_on_c, 9, 38, 0
2, 2428, Control_c, 9, 16, 126
2, 2429, Note_on_c, 9, 40, 68
2, 2516, Note_on_c, 9, 40, 0
2, 2679, Control_c, 9, 16, 21
2, 2680, Note_on_c, 9, 38, 42
2, 2768, Note_on_c, 9, 38, 0
2, 2916, Control_c, 9, 16, 0
2, 2917, Note_on_c, 9, 38, 23
2, 3005, Note_on_c, 9, 38, 0
2, 3151, Note_on_c, 9, 48, 65
2, 3239, Note_on_c, 9, 48, 0
2, 3340, Control_c, 9, 16, 0
2, 3340, Note_on_c, 9, 38, 14
2, 3411, Control_c, 9, 16, 21
2, 3411, Note_on_c, 9, 38, 0
2, 3412, Note_on_c, 9, 38, 20
2, 3429, Note_on_c, 9, 38, 0
2, 3461, Control_c, 9, 16, 0
2, 3462, Note_on_c, 9, 38, 36
2, 3499, Note_on_c, 9, 38, 0
2, 3532, Note_on_c, 9, 38, 29
2, 3550, Note_on_c, 9, 38, 0
2, 3625, Note_on_c, 9, 38, 17
2, 3676, Note_on_c, 9, 38, 0
2, 3677, Note_on_c, 9, 38, 19
2, 3713, Note_on_c, 9, 38, 0
2, 3749, Control_c, 9, 16, 0
2, 3750, Note_on_c, 9, 38, 27
2, 3764, Note_on_c, 9, 38, 0
2, 3814, Note_on_c, 9, 38, 27
2, 3837, Note_on_c, 9, 38, 0
2, 3872, Note_on_c, 9, 38, 22
2, 3902, Note_on_c, 9, 38, 0
2, 3933, Note_on_c, 9, 38, 31
2, 3960, Note_on_c, 9, 38, 0
2, 3972, Control_c, 9, 16, 0
2, 3972, Note_on_c, 9, 38, 43
2, 4021, Note_on_c, 9, 38, 0
2, 4554, Note_on_c, 9, 36, 92
2, 4602, Control_c, 9, 4, 86
2, 4643, Note_on_c, 9, 36, 0
2, 4657, Control_c, 9, 4, 80
2, 4703, Control_c, 9, 4, 62
2, 4709, Note_on_c, 9, 46, 11
2, 4737, Control_c, 9, 4, 0
2, 4797, Note_on_c, 9, 46, 0
2, 4807, Note_on_c, 9, 46, 9
2, 4817, Control_c, 9, 4, 16
2, 4827, Note_on_c, 9, 44, 100
2, 4847, Control_c, 9, 4, 96
2, 4881, Control_c, 9, 4, 85
2, 4895, Note_on_c, 9, 46, 0
2, 4915, Note_on_c, 9, 44, 0
2, 4922, Control_c, 9, 4, 81
2, 5067, Control_c, 9, 16, 118
2, 5068, Note_on_c, 9, 40, 73
2, 5156, Note_on_c, 9, 40, 0
2, 5268, Control_c, 9, 4, 77
2, 5313, Control_c, 9, 16, 0
2, 5314, Note_on_c, 9, 38, 5
2, 5402, Note_on_c, 9, 38, 0
2, 5407, Control_c, 9, 4, 73
2, 5563, Note_on_c, 9, 38, 8
2, 5650, Note_on_c, 9, 38, 0
2, 5788, Note_on_c, 9, 38, 11
2, 5876, Note_on_c, 9, 38, 0
2, 6039, Control_c, 9, 16, 0
2, 6040, Note_on_c, 9, 38, 12
2, 6128, Note_on_c, 9, 38, 0
2, 6288, Control_c, 9, 16, 127
2, 6288, Note_on_c, 9, 40, 66
2, 6377, Note_on_c, 9, 40, 0
2, 6524, Control_c, 9, 17, 127
2, 6524, Note_on_c, 9, 51, 89
2, 6613, Note_on_c, 9, 51, 0
2, 6635, Control_c, 9, 16, 0
2, 6636, Note_on_c, 9, 38, 22
2, 6724, Note_on_c, 9, 38, 0
2, 6756, Note_on_c, 9, 38, 24
2, 6844, Note_on_c, 9, 38, 0
2, 6879, Control_c, 9, 16, 0
2, 6879, Note_on_c, 9, 38, 18
2, 6968, Note_on_c, 9, 38, 0
2, 6997, Control_c, 9, 16, 127
2, 6997, Note_on_c, 9, 40, 50
2, 7085, Note_on_c, 9, 40, 0
2, 7235, Control_c, 9, 17, 85
2, 7235, Note_on_c, 9, 51, 113
2, 7324, Note_on_c, 9, 51, 0
2, 7482, Control_c, 9, 16, 0
2, 7482, Note_on_c, 9, 38, 18
2, 7570, Note_on_c, 9, 38, 0
2, 7571, End_track
0, 0, End_of_file
