0, 0, Header, 1, 2, 480
1, 0, Start_track
1, 0, Tempo, 461538
1, 0, Time_signature, 4, 2, 24, 8
1, 0, Key_signature, 0, "major"
1, 1, End_track
2, 0, Start_track
2, 0, Title_t, "SoCal"
2, 0, Program_c, 9, 0
2, 0, Control_c, 9, 18, 0
2, 11, Note_on_c, 9, 36, 86
2, 115, Note_on_c, 9, 36, 0
2, 154, Control_c, 9, 16, 0
2, 155, Note_on_c, 9, 38, 21
2, 174, Control_c, 9, 4, 108
2, 258, Note_on_c, 9, 38, 0
2, 266, Control_c, 9, 4, 98
2, 320, Control_c, 9, 17, 89
2, 321, Note_on_c, 9, 51, 107
2, 322, Control_c, 9, 4, 93
2, 402, Control_c, 9, 4, 88
2, 425, Note_on_c, 9, 51, 0
2, 570, Control_c, 9, 4, 92
2, 629, Control_c, 9, 16, 0
2, 630, Note_on_c, 9, 38, 44
2, 735, Note_on_c, 9, 38, 0
2, 781, Control_c, 9, 16, 0
2, 782, Note_on_c, 9, 40, 24
2, 885, Note_on_c, 9, 40, 0
2, 897, Control_c, 9, 4, 96
2, 957, Control_c, 9, 17, 108
2, 958, Note_on_c, 9, 51, 87
2, 1061, Note_on_c, 9, 51, 0
2, 1121, Control_c, 9, 16, 0
2, 1122, Note_on_c, 9, 38, 21
2, 1226, Note_on_c, 9, 38, 0
2, 1292, Control_c, 9, 16, 0
2, 1293, Note_on_c, 9, 38, 25
2, 1396, Note_on_c, 9, 38, 0
2, 1458, Control_c, 9, 16, 40
2, 1459, Note_on_c, 9, 40, 76
2, 1562, Note_on_c, 9, 40, 0
2, 1615, Control_c, 9, 17, 50
2, 1616, Note_on_c, 9, 51, 73
2, 1660, Control_c, 9, 4, 102
2, 1715, Control_c, 9, 4, 98
2, 1719, Note_on_c, 9, 51, 0
2, 1751, Control_c, 9, 4, 93
2, 1774, Control_c, 9, 16, 0
2, 1775, Note_on_c, 9, 38, 17
2, 1819, Control_c, 9, 4, 76
2, 1860, Control_c, 9, 4, 0
2, 1879, Note_on_c, 9, 38, 0
2, 1939, Control_c, 9, 4, 17
2, 1952, Note_on_c, 9, 44, 93
2, 1972, Control_c, 9, 4, 112
2, 2005, Control_c, 9, 4, 127
2, 2054, Control_c, 9, 4, 110
2, 2056, Note_on_c, 9, 44, 0
2, 2090, Control_c, 9, 4, 95
2, 2095, Control_c, 9, 16, 21
2, 2096, Note_on_c, 9, 38, 24
2, 2171, Control_c, 9, 4, 110
2, 2200, Note_on_c, 9, 38, 0
2, 2230, Control_c, 9, 4, 95
2, 2241, Control_c, 9, 17, 102
2, 2243, Note_on_c, 9, 51, 70
2, 2277, Control_c, 9, 4, 80
2, 2319, Control_c, 9, 4, 0
2, 2347, Note_on_c, 9, 51, 0
2, 2418, Control_c, 9, 4, 77
2, 2419, Note_on_c, 9, 44, 106
2, 2452, Control_c, 9, 4, 102
2, 2483, Control_c, 9, 4, 112
2, 2523, Note_on_c, 9, 44, 0
2, 2554, Control_c, 9, 4, 96
2, 2556, Control_c, 9, 16, 0
2, 2557, Note_on_c, 9, 38, 26
2, 2660, Note_on_c, 9, 38, 0
2, 2699, Control_c, 9, 4, 100
2, 2739, Control_c, 9, 4, 102
2, 2740, Note_on_c, 9, 26, 81
2, 2775, Control_c, 9, 4, 98
2, 2844, Note_on_c, 9, 26, 0
2, 2890, Control_c, 9, 17, 99
2, 2890, Note_on_c, 9, 51, 82
2, 2901, Control_c, 9, 4, 102
2, 2968, Control_c, 9, 4, 98
2, 2993, Note_on_c, 9, 51, 0
2, 3037, Note_on_c, 9, 37, 36
2, 3143, Note_on_c, 9, 37, 0
2, 3183, Note_on_c, 9, 36, 51
2, 3287, Note_on_c, 9, 36, 0
2, 3360, Note_on_c, 9, 36, 68
2, 3463, Note_on_c, 9, 36, 0
2, 3496, Control_c, 9, 4, 102
2, 3510, Control_c, 9, 17, 67
2, 3511, Note_on_c, 9, 51, 99
2, 3563, Control_c, 9, 4, 102
2, 3614, Control_c, 9, 4, 91
2, 3615, Note_on_c, 9, 51, 0
2, 3658, Control_c, 9, 16, 0
2, 3659, Note_on_c, 9, 38, 23
2, 3677, Control_c, 9, 4, 74
2, 3717, Control_c, 9, 4, 0
2, 3763, Note_on_c, 9, 38, 0
2, 3814, Note_on_c, 9, 46, 8
2, 3837, Control_c, 9, 4, 77
2, 3838, Note_on_c, 9, 44, 113
2, 3869, Control_c, 9, 4, 112
2, 3900, Control_c, 9, 4, 122
2, 3917, Note_on_c, 9, 46, 0
2, 3942, Note_on_c, 9, 44, 0
2, 3946, Control_c, 9, 4, 114
2, 3980, Control_c, 9, 4, 99
2, 3987, Control_c, 9, 16, 0
2, 3987, Note_on_c, 9, 38, 19
2, 4091, Note_on_c, 9, 38, 0
2, 4118, Control_c, 9, 4, 93
2, 4146, Control_c, 9, 17, 120
2, 4147, Note_on_c, 9, 51, 88
2, 4161, Control_c, 9, 4, 72
2, 4198, Control_c, 9, 4, 0
2, 4250, Note_on_c, 9, 51, 0
2, 4278, Control_c, 9, 4, 0
2, 4279, Note_on_c, 9, 46, 7
2, 4305, Note_on_c, 9, 44, 100
2, 4313, Control_c, 9, 4, 108
2, 4358, Control_c, 9, 4, 114
2, 4382, Note_on_c, 9, 46, 0
2, 4396, Control_c, 9, 4, 108
2, 4408, Note_on_c, 9, 44, 0
2, 4437, Control_c, 9, 4, 96
2, 4444, Control_c, 9, 16, 42
2, 4445, Note_on_c, 9, 38, 25
2, 4548, Note_on_c, 9, 38, 0
2, 4580, Control_c, 9, 4, 100
2, 4616, Control_c, 9, 18, 0
2, 4617, Note_on_c, 9, 48, 67
2, 4720, Note_on_c, 9, 48, 0
2, 4773, Control_c, 9, 17, 102
2, 4774, Note_on_c, 9, 51, 83
2, 4878, Note_on_c, 9, 51, 0
2, 4939, Control_c, 9, 16, 0
2, 4940, Note_on_c, 9, 40, 23
2, 4987, Control_c, 9, 4, 96
2, 5042, Note_on_c, 9, 40, 0
2, 5066, Note_on_c, 9, 36, 64
2, 5171, Note_on_c, 9, 36, 0
2, 5253, Note_on_c, 9, 36, 77
2, 5357, Note_on_c, 9, 36, 0
2, 5396, Control_c, 9, 4, 108
2, 5407, Control_c, 9, 17, 73
2, 5408, Note_on_c, 9, 51, 93
2, 5451, Control_c, 9, 4, 102
2, 5497, Control_c, 9, 4, 91
2, 5511, Note_on_c, 9, 51, 0
2, 5561, Control_c, 9, 4, 73
2, 5563, Control_c, 9, 16, 0
2, 5564, Note_on_c, 9, 38, 22
2, 5602, Control_c, 9, 4, 0
2, 5667, Note_on_c, 9, 38, 0
2, 5696, Note_on_c, 9, 46, 8
2, 5717, Control_c, 9, 4, 76
2, 5718, Note_on_c, 9, 44, 113
2, 5751, Control_c, 9, 4, 112
2, 5782, Control_c, 9, 4, 122
2, 5799, Note_on_c, 9, 46, 0
2, 5813, Control_c, 9, 4, 114
2, 5822, Note_on_c, 9, 44, 0
2, 5852, Control_c, 9, 4, 99
2, 5886, Control_c, 9, 16, 0
2, 5887, Note_on_c, 9, 38, 22
2, 5946, Control_c, 9, 4, 108
2, 5991, Note_on_c, 9, 38, 0
2, 5998, Control_c, 9, 4, 102
2, 6047, Control_c, 9, 17, 94
2, 6048, Note_on_c, 9, 51, 82
2, 6049, Control_c, 9, 4, 91
2, 6098, Control_c, 9, 4, 71
2, 6133, Control_c, 9, 4, 0
2, 6151, Note_on_c, 9, 51, 0
2, 6227, Control_c, 9, 4, 77
2, 6227, Note_on_c, 9, 44, 113
2, 6260, Control_c, 9, 4, 112
2, 6320, Control_c, 9, 4, 112
2, 6332, Note_on_c, 9, 44, 0
2, 6369, Control_c, 9, 16, 42
2, 6370, Note_on_c, 9, 38, 28
2, 6371, Control_c, 9, 4, 97
2, 6473, Note_on_c, 9, 38, 0
2, 6493, Control_c, 9, 4, 102
2, 6533, Control_c, 9, 4, 106
2, 6553, Control_c, 9, 18, 0
2, 6554, Note_on_c, 9, 48, 53
2, 6610, Control_c, 9, 4, 102
2, 6657, Note_on_c, 9, 48, 0
2, 6715, Control_c, 9, 17, 57
2, 6716, Note_on_c, 9, 51, 88
2, 6820, Note_on_c, 9, 51, 0
2, 6880, Control_c, 9, 16, 0
2, 6881, Note_on_c, 9, 40, 22
2, 6944, Control_c, 9, 4, 98
2, 6985, Note_on_c, 9, 40, 0
2, 7023, Note_on_c, 9, 36, 57
2, 7128, Note_on_c, 9, 36, 0
2, 7205, Note_on_c, 9, 36, 81
2, 7311, Note_on_c, 9, 36, 0
2, 7355, Control_c, 9, 17, 72
2, 7356, Note_on_c, 9, 51, 89
2, 7377, Control_c, 9, 4, 110
2, 7460, Note_on_c, 9, 51, 0
2, 7462, Control_c, 9, 4, 95
2, 7492, Control_c, 9, 4, 90
2, 7516, Control_c, 9, 16, 0
2, 7517, Note_on_c, 9, 38, 24
2, 7544, Control_c, 9, 4, 71
2, 7582, Control_c, 9, 4, 0
2, 7621, Note_on_c, 9, 38, 0
2, 7667, Control_c, 9, 4, 17
2, 7668, End_track
0, 0, End_of_file
