0, 0, Header, 1, 2, 480
1, 0, Start_track
1, 0, Tempo, 588235
1, 0, Time_signature, 4, 2, 24, 8
1, 0, Key_signature, 0, "major"
1, 1, End_track
2, 0, Start_track
2, 0, Title_t, "Classic Studio Kit"
2, 0, Program_c, 9, 0
2, 0, Control_c, 9, 18, 0
2, 17, Control_c, 9, 17, 54
2, 18, Note_on_c, 9, 51, 54
2, 22, Control_c, 9, 4, 116
2, 29, Note_on_c, 9, 48, 69
2, 53, Control_c, 9, 4, 112
2, 100, Note_on_c, 9, 51, 0
2, 111, Note_on_c, 9, 48, 0
2, 122, Control_c, 9, 4, 94
2, 145, Control_c, 9, 17, 34
2, 146, Note_on_c, 9, 51, 75
2, 168, Control_c, 9, 4, 70
2, 208, Control_c, 9, 4, 0
2, 227, Note_on_c, 9, 51, 0
2, 265, Note_on_c, 9, 44, 113
2, 268, Note_on_c, 9, 36, 61
2, 273, Control_c, 9, 4, 127
2, 314, Control_c, 9, 4, 118
2, 346, Note_on_c, 9, 44, 0
2, 350, Note_on_c, 9, 36, 0
2, 353, Control_c, 9, 4, 92
2, 503, Control_c, 9, 16, 0
2, 503, Note_on_c, 9, 38, 90
2, 513, Note_on_c, 9, 36, 76
2, 518, Control_c, 9, 4, 102
2, 544, Control_c, 9, 17, 0
2, 545, Note_on_c, 9, 51, 84
2, 585, Note_on_c, 9, 38, 0
2, 595, Note_on_c, 9, 36, 0
2, 603, Control_c, 9, 4, 90
2, 625, Note_on_c, 9, 51, 0
2, 635, Control_c, 9, 4, 72
2, 681, Control_c, 9, 4, 0
2, 741, Control_c, 9, 4, 34
2, 748, Note_on_c, 9, 44, 119
2, 756, Control_c, 9, 17, 47
2, 757, Note_on_c, 9, 51, 76
2, 773, Control_c, 9, 4, 127
2, 808, Control_c, 9, 4, 110
2, 829, Note_on_c, 9, 44, 0
2, 838, Note_on_c, 9, 51, 0
2, 851, Control_c, 9, 4, 91
2, 879, Control_c, 9, 18, 0
2, 879, Note_on_c, 9, 48, 43
2, 881, Note_on_c, 9, 36, 60
2, 882, Control_c, 9, 4, 87
2, 962, Note_on_c, 9, 36, 0
2, 962, Note_on_c, 9, 48, 0
2, 983, Control_c, 9, 4, 116
2, 990, Control_c, 9, 17, 61
2, 990, Note_on_c, 9, 51, 58
2, 999, Note_on_c, 9, 48, 71
2, 1014, Control_c, 9, 4, 114
2, 1072, Note_on_c, 9, 51, 0
2, 1080, Note_on_c, 9, 48, 0
2, 1082, Control_c, 9, 4, 93
2, 1113, Control_c, 9, 17, 35
2, 1114, Note_on_c, 9, 51, 71
2, 1129, Control_c, 9, 4, 70
2, 1168, Control_c, 9, 4, 0
2, 1196, Note_on_c, 9, 51, 0
2, 1218, Control_c, 9, 4, 35
2, 1224, Note_on_c, 9, 36, 68
2, 1224, Note_on_c, 9, 44, 126
2, 1250, Control_c, 9, 4, 127
2, 1268, Note_on_c, 9, 49, 5
2, 1304, Control_c, 9, 4, 91
2, 1306, Note_on_c, 9, 44, 0
2, 1307, Note_on_c, 9, 36, 0
2, 1340, Control_c, 9, 4, 87
2, 1341, Control_c, 9, 17, 43
2, 1341, Note_on_c, 9, 51, 54
2, 1350, Note_on_c, 9, 49, 0
2, 1423, Note_on_c, 9, 51, 0
2, 1446, Control_c, 9, 4, 110
2, 1463, Note_on_c, 9, 36, 76
2, 1467, Note_on_c, 9, 38, 78
2, 1468, Control_c, 9, 17, 12
2, 1469, Note_on_c, 9, 51, 85
2, 1515, Control_c, 9, 4, 98
2, 1544, Note_on_c, 9, 36, 0
2, 1548, Note_on_c, 9, 38, 0
2, 1550, Note_on_c, 9, 51, 0
2, 1562, Control_c, 9, 4, 84
2, 1593, Control_c, 9, 4, 69
2, 1627, Control_c, 9, 4, 0
2, 1691, Control_c, 9, 4, 32
2, 1698, Note_on_c, 9, 44, 126
2, 1709, Control_c, 9, 17, 43
2, 1709, Note_on_c, 9, 51, 77
2, 1723, Control_c, 9, 4, 122
2, 1778, Control_c, 9, 4, 98
2, 1779, Note_on_c, 9, 44, 0
2, 1791, Note_on_c, 9, 51, 0
2, 1830, Control_c, 9, 4, 87
2, 1837, Control_c, 9, 18, 0
2, 1837, Note_on_c, 9, 48, 41
2, 1839, Note_on_c, 9, 36, 67
2, 1919, Note_on_c, 9, 48, 0
2, 1921, Note_on_c, 9, 36, 0
2, 1938, Control_c, 9, 4, 116
2, 1942, Control_c, 9, 17, 57
2, 1943, Note_on_c, 9, 51, 54
2, 1958, Control_c, 9, 18, 0
2, 1959, Note_on_c, 9, 48, 68
2, 1977, Control_c, 9, 4, 116
2, 2024, Note_on_c, 9, 51, 0
2, 2036, Control_c, 9, 4, 93
2, 2039, Note_on_c, 9, 48, 0
2, 2069, Control_c, 9, 17, 44
2, 2070, Note_on_c, 9, 51, 78
2, 2087, Control_c, 9, 4, 70
2, 2127, Control_c, 9, 4, 0
2, 2151, Note_on_c, 9, 51, 0
2, 2175, Control_c, 9, 4, 48
2, 2179, Note_on_c, 9, 44, 106
2, 2190, Note_on_c, 9, 36, 57
2, 2205, Control_c, 9, 4, 127
2, 2258, Control_c, 9, 4, 92
2, 2261, Note_on_c, 9, 44, 0
2, 2272, Note_on_c, 9, 36, 0
2, 2295, Control_c, 9, 4, 88
2, 2404, Control_c, 9, 4, 95
2, 2432, Control_c, 9, 17, 11
2, 2432, Note_on_c, 9, 36, 68
2, 2432, Note_on_c, 9, 51, 96
2, 2434, Control_c, 9, 16, 0
2, 2435, Note_on_c, 9, 38, 87
2, 2514, Note_on_c, 9, 36, 0
2, 2514, Note_on_c, 9, 51, 0
2, 2516, Note_on_c, 9, 38, 0
2, 2530, Control_c, 9, 4, 83
2, 2567, Control_c, 9, 4, 61
2, 2598, Control_c, 9, 4, 0
2, 2657, Note_on_c, 9, 44, 113
2, 2664, Control_c, 9, 4, 127
2, 2673, Control_c, 9, 17, 46
2, 2674, Note_on_c, 9, 51, 71
2, 2707, Control_c, 9, 4, 120
2, 2739, Note_on_c, 9, 44, 0
2, 2745, Control_c, 9, 4, 92
2, 2755, Note_on_c, 9, 51, 0
2, 2775, Control_c, 9, 4, 87
2, 2790, Control_c, 9, 17, 46
2, 2791, Note_on_c, 9, 51, 5
2, 2797, Control_c, 9, 18, 21
2, 2798, Note_on_c, 9, 48, 47
2, 2801, Note_on_c, 9, 36, 55
2, 2873, Note_on_c, 9, 51, 0
2, 2878, Note_on_c, 9, 48, 0
2, 2883, Note_on_c, 9, 36, 0
2, 2899, Control_c, 9, 4, 114
2, 2900, Control_c, 9, 17, 60
2, 2900, Note_on_c, 9, 51, 61
2, 2918, Control_c, 9, 18, 0
2, 2919, Note_on_c, 9, 48, 75
2, 2981, Note_on_c, 9, 51, 0
2, 2984, Control_c, 9, 4, 94
2, 3000, Note_on_c, 9, 48, 0
2, 3015, Control_c, 9, 4, 74
2, 3024, Control_c, 9, 17, 31
2, 3025, Note_on_c, 9, 51, 75
2, 3051, Control_c, 9, 4, 0
2, 3106, Note_on_c, 9, 51, 0
2, 3126, Note_on_c, 9, 46, 13
2, 3133, Control_c, 9, 4, 33
2, 3138, Note_on_c, 9, 44, 127
2, 3143, Note_on_c, 9, 36, 65
2, 3163, Control_c, 9, 4, 127
2, 3201, Control_c, 9, 4, 116
2, 3207, Note_on_c, 9, 46, 0
2, 3219, Note_on_c, 9, 44, 0
2, 3224, Note_on_c, 9, 36, 0
2, 3232, Control_c, 9, 4, 80
2, 3266, Control_c, 9, 17, 104
2, 3267, Note_on_c, 9, 51, 55
2, 3272, Control_c, 9, 4, 0
2, 3348, Note_on_c, 9, 51, 0
2, 3352, Note_on_c, 9, 46, 7
2, 3358, Control_c, 9, 4, 17
2, 3368, Note_on_c, 9, 44, 113
2, 3378, Note_on_c, 9, 36, 80
2, 3385, Control_c, 9, 17, 62
2, 3385, Note_on_c, 9, 38, 79
2, 3387, Note_on_c, 9, 51, 93
2, 3388, Control_c, 9, 4, 94
2, 3420, Control_c, 9, 4, 99
2, 3433, Note_on_c, 9, 46, 0
2, 3450, Note_on_c, 9, 44, 0
2, 3460, Note_on_c, 9, 36, 0
2, 3466, Note_on_c, 9, 38, 0
2, 3467, Note_on_c, 9, 51, 0
2, 3481, Control_c, 9, 4, 84
2, 3613, Control_c, 9, 4, 127
2, 3625, Control_c, 9, 17, 68
2, 3626, Note_on_c, 9, 51, 67
2, 3685, Control_c, 9, 4, 95
2, 3707, Note_on_c, 9, 51, 0
2, 3725, Control_c, 9, 4, 70
2, 3739, Note_on_c, 9, 36, 58
2, 3739, Note_on_c, 9, 48, 48
2, 3762, Control_c, 9, 4, 0
2, 3820, Note_on_c, 9, 36, 0
2, 3820, Note_on_c, 9, 48, 0
2, 3835, Note_on_c, 9, 46, 7
2, 3842, Control_c, 9, 4, 35
2, 3848, Note_on_c, 9, 44, 127
2, 3855, Control_c, 9, 17, 127
2, 3855, Note_on_c, 9, 51, 52
2, 3864, Control_c, 9, 18, 0
2, 3864, Note_on_c, 9, 48, 76
2, 3873, Control_c, 9, 4, 127
2, 3916, Note_on_c, 9, 46, 0
2, 3921, Control_c, 9, 4, 106
2, 3929, Note_on_c, 9, 44, 0
2, 3937, Note_on_c, 9, 51, 0
2, 3946, Note_on_c, 9, 48, 0
2, 3953, Control_c, 9, 4, 92
2, 3980, Control_c, 9, 17, 55
2, 3981, Note_on_c, 9, 51, 80
2, 4063, Note_on_c, 9, 51, 0
2, 4074, Control_c, 9, 4, 108
2, 4094, Note_on_c, 9, 36, 68
2, 4117, Control_c, 9, 4, 102
2, 4154, Control_c, 9, 4, 94
2, 4176, Note_on_c, 9, 36, 0
2, 4220, Control_c, 9, 17, 127
2, 4221, Note_on_c, 9, 51, 46
2, 4301, Note_on_c, 9, 51, 0
2, 4334, Note_on_c, 9, 36, 68
2, 4350, Control_c, 9, 16, 0
2, 4350, Control_c, 9, 17, 44
2, 4350, Note_on_c, 9, 38, 72
2, 4351, Control_c, 9, 4, 100
2, 4351, Note_on_c, 9, 51, 90
2, 4409, Control_c, 9, 4, 93
2, 4416, Note_on_c, 9, 36, 0
2, 4431, Note_on_c, 9, 38, 0
2, 4431, Note_on_c, 9, 51, 0
2, 4455, Control_c, 9, 4, 70
2, 4492, Control_c, 9, 4, 0
2, 4560, Control_c, 9, 4, 32
2, 4566, Note_on_c, 9, 44, 127
2, 4585, Control_c, 9, 17, 55
2, 4586, Note_on_c, 9, 51, 70
2, 4591, Control_c, 9, 4, 127
2, 4638, Control_c, 9, 4, 104
2, 4647, Note_on_c, 9, 44, 0
2, 4667, Control_c, 9, 4, 89
2, 4667, Note_on_c, 9, 51, 0
2, 4705, Note_on_c, 9, 36, 81
2, 4705, Note_on_c, 9, 48, 46
2, 4785, Note_on_c, 9, 48, 0
2, 4788, Note_on_c, 9, 36, 0
2, 4809, Control_c, 9, 4, 118
2, 4816, Control_c, 9, 17, 127
2, 4816, Note_on_c, 9, 51, 52
2, 4828, Control_c, 9, 18, 0
2, 4829, Note_on_c, 9, 48, 71
2, 4884, Control_c, 9, 4, 112
2, 4899, Note_on_c, 9, 51, 0
2, 4909, Note_on_c, 9, 48, 0
2, 4915, Control_c, 9, 4, 91
2, 4944, Control_c, 9, 17, 53
2, 4944, Note_on_c, 9, 51, 76
2, 4946, Control_c, 9, 4, 71
2, 4985, Control_c, 9, 4, 0
2, 5026, Note_on_c, 9, 51, 0
2, 5055, Note_on_c, 9, 46, 12
2, 5062, Control_c, 9, 4, 34
2, 5067, Note_on_c, 9, 44, 127
2, 5068, Note_on_c, 9, 36, 67
2, 5092, Control_c, 9, 4, 120
2, 5136, Note_on_c, 9, 46, 0
2, 5149, Note_on_c, 9, 44, 0
2, 5151, Note_on_c, 9, 36, 0
2, 5153, Control_c, 9, 4, 93
2, 5178, Control_c, 9, 17, 127
2, 5179, Note_on_c, 9, 51, 46
2, 5193, Control_c, 9, 4, 84
2, 5260, Note_on_c, 9, 51, 0
2, 5299, Control_c, 9, 17, 76
2, 5299, Note_on_c, 9, 51, 88
2, 5306, Note_on_c, 9, 36, 86
2, 5306, Note_on_c, 9, 38, 76
2, 5315, Control_c, 9, 4, 110
2, 5370, Control_c, 9, 4, 99
2, 5381, Note_on_c, 9, 51, 0
2, 5387, Note_on_c, 9, 36, 0
2, 5387, Note_on_c, 9, 38, 0
2, 5406, Control_c, 9, 4, 85
2, 5437, Control_c, 9, 4, 70
2, 5478, Control_c, 9, 4, 0
2, 5542, Control_c, 9, 4, 34
2, 5548, Control_c, 9, 17, 80
2, 5548, Note_on_c, 9, 44, 127
2, 5549, Note_on_c, 9, 51, 64
2, 5573, Control_c, 9, 4, 126
2, 5625, Control_c, 9, 4, 97
2, 5629, Note_on_c, 9, 44, 0
2, 5629, Note_on_c, 9, 51, 0
2, 5670, Control_c, 9, 4, 85
2, 5674, Note_on_c, 9, 48, 48
2, 5676, Note_on_c, 9, 36, 67
2, 5756, Note_on_c, 9, 48, 0
2, 5759, Note_on_c, 9, 36, 0
2, 5774, Control_c, 9, 17, 127
2, 5775, Note_on_c, 9, 51, 50
2, 5782, Control_c, 9, 4, 110
2, 5793, Control_c, 9, 18, 0
2, 5793, Note_on_c, 9, 48, 68
2, 5821, Control_c, 9, 4, 112
2, 5857, Note_on_c, 9, 51, 0
2, 5876, Note_on_c, 9, 48, 0
2, 5886, Control_c, 9, 4, 93
2, 5904, Control_c, 9, 17, 68
2, 5904, Note_on_c, 9, 51, 80
2, 5925, Control_c, 9, 4, 74
2, 5966, Control_c, 9, 4, 0
2, 5987, Note_on_c, 9, 51, 0
2, 6037, Note_on_c, 9, 44, 127
2, 6042, Note_on_c, 9, 36, 64
2, 6043, Control_c, 9, 4, 127
2, 6087, Control_c, 9, 4, 120
2, 6118, Note_on_c, 9, 44, 0
2, 6124, Control_c, 9, 4, 91
2, 6124, Note_on_c, 9, 36, 0
2, 6142, Control_c, 9, 17, 127
2, 6142, Note_on_c, 9, 51, 46
2, 6161, Control_c, 9, 4, 87
2, 6224, Note_on_c, 9, 51, 0
2, 6266, Control_c, 9, 16, 0
2, 6266, Note_on_c, 9, 38, 82
2, 6270, Control_c, 9, 17, 50
2, 6271, Note_on_c, 9, 51, 88
2, 6275, Control_c, 9, 4, 104
2, 6281, Note_on_c, 9, 36, 72
2, 6348, Note_on_c, 9, 38, 0
2, 6352, Note_on_c, 9, 51, 0
2, 6363, Control_c, 9, 4, 91
2, 6363, Note_on_c, 9, 36, 0
2, 6408, Control_c, 9, 4, 68
2, 6439, Control_c, 9, 4, 0
2, 6504, Control_c, 9, 4, 18
2, 6505, Control_c, 9, 17, 77
2, 6505, Note_on_c, 9, 51, 66
2, 6510, Note_on_c, 9, 44, 127
2, 6536, Control_c, 9, 4, 126
2, 6572, Control_c, 9, 4, 118
2, 6586, Note_on_c, 9, 51, 0
2, 6592, Note_on_c, 9, 44, 0
2, 6611, Control_c, 9, 4, 91
2, 6620, Note_on_c, 9, 48, 49
2, 6641, Note_on_c, 9, 36, 70
2, 6651, Control_c, 9, 4, 87
2, 6700, Note_on_c, 9, 48, 0
2, 6723, Note_on_c, 9, 36, 0
2, 6732, Control_c, 9, 17, 71
2, 6733, Note_on_c, 9, 51, 55
2, 6749, Control_c, 9, 18, 0
2, 6749, Note_on_c, 9, 48, 75
2, 6752, Control_c, 9, 4, 127
2, 6815, Note_on_c, 9, 51, 0
2, 6825, Control_c, 9, 4, 95
2, 6830, Note_on_c, 9, 48, 0
2, 6862, Control_c, 9, 17, 41
2, 6862, Note_on_c, 9, 51, 69
2, 6864, Control_c, 9, 4, 70
2, 6906, Control_c, 9, 4, 0
2, 6944, Note_on_c, 9, 51, 0
2, 6983, Note_on_c, 9, 46, 11
2, 6989, Control_c, 9, 4, 36
2, 6993, Note_on_c, 9, 36, 71
2, 6995, Note_on_c, 9, 44, 127
2, 7020, Control_c, 9, 4, 127
2, 7064, Note_on_c, 9, 46, 0
2, 7068, Control_c, 9, 4, 98
2, 7075, Note_on_c, 9, 36, 0
2, 7075, Note_on_c, 9, 44, 0
2, 7090, Control_c, 9, 17, 127
2, 7090, Note_on_c, 9, 51, 48
2, 7105, Control_c, 9, 4, 70
2, 7143, Control_c, 9, 4, 0
2, 7171, Note_on_c, 9, 51, 0
2, 7219, Control_c, 9, 4, 52
2, 7224, Note_on_c, 9, 44, 113
2, 7225, Control_c, 9, 17, 80
2, 7225, Note_on_c, 9, 51, 88
2, 7230, Note_on_c, 9, 36, 82
2, 7233, Note_on_c, 9, 38, 65
2, 7250, Control_c, 9, 4, 110
2, 7304, Control_c, 9, 4, 94
2, 7306, Note_on_c, 9, 44, 0
2, 7307, Note_on_c, 9, 51, 0
2, 7312, Note_on_c, 9, 36, 0
2, 7315, Note_on_c, 9, 38, 0
2, 7357, Control_c, 9, 4, 84
2, 7469, Control_c, 9, 4, 127
2, 7473, Control_c, 9, 17, 63
2, 7473, Note_on_c, 9, 51, 67
2, 7514, Control_c, 9, 4, 120
2, 7553, Control_c, 9, 4, 89
2, 7554, Note_on_c, 9, 51, 0
2, 7585, Control_c, 9, 4, 71
2, 7590, Note_on_c, 9, 48, 46
2, 7593, Note_on_c, 9, 36, 64
2, 7627, Control_c, 9, 4, 0
2, 7671, Note_on_c, 9, 48, 0
2, 7674, Note_on_c, 9, 36, 0
2, 7675, End_track
0, 0, End_of_file
