0, 0, Header, 1, 2, 480
1, 0, Start_track
1, 0, Tempo, 545454
1, 0, Time_signature, 4, 2, 24, 8
1, 0, Key_signature, 0, "major"
1, 1, End_track
2, 0, Start_track
2, 0, Title_t, "TD-30 #9 Djembe"
2, 0, Program_c, 9, 0
2, 0, Control_c, 9, 16, 127
2, 68, Control_c, 9, 16, 0
2, 68, Note_on_c, 9, 40, 75
2, 155, Note_on_c, 9, 40, 0
2, 194, Control_c, 9, 16, 91
2, 194, Note_on_c, 9, 40, 41
2, 283, Note_on_c, 9, 40, 0
2, 311, Control_c, 9, 16, 85
2, 312, Note_on_c, 9, 38, 31
2, 399, Note_on_c, 9, 38, 0
2, 411, Control_c, 9, 4, 89
2, 414, Note_on_c, 9, 55, 114
2, 421, Note_on_c, 9, 36, 126
2, 445, Control_c, 9, 4, 95
2, 503, Note_on_c, 9, 55, 0
2, 509, Note_on_c, 9, 36, 0
2, 516, Control_c, 9, 4, 70
2, 565, Control_c, 9, 4, 0
2, 624, Note_on_c, 9, 49, 9
2, 653, Note_on_c, 9, 46, 16
2, 665, Control_c, 9, 17, 85
2, 666, Note_on_c, 9, 51, 89
2, 680, Control_c, 9, 4, 53
2, 683, Note_on_c, 9, 44, 127
2, 711, Control_c, 9, 4, 63
2, 712, Note_on_c, 9, 49, 0
2, 740, Note_on_c, 9, 46, 0
2, 754, Note_on_c, 9, 51, 0
2, 764, Control_c, 9, 4, 28
2, 771, Note_on_c, 9, 44, 0
2, 819, Control_c, 9, 4, 57
2, 849, Control_c, 9, 4, 62
2, 861, Control_c, 9, 17, 41
2, 862, Note_on_c, 9, 51, 31
2, 932, Control_c, 9, 4, 58
2, 950, Note_on_c, 9, 51, 0
2, 1123, Control_c, 9, 16, 0
2, 1124, Note_on_c, 9, 40, 72
2, 1127, Control_c, 9, 17, 30
2, 1128, Note_on_c, 9, 51, 127
2, 1178, Control_c, 9, 16, 85
2, 1179, Note_on_c, 9, 38, 22
2, 1212, Note_on_c, 9, 40, 0
2, 1216, Note_on_c, 9, 51, 0
2, 1218, Control_c, 9, 4, 43
2, 1252, Control_c, 9, 4, 0
2, 1266, Note_on_c, 9, 38, 0
2, 1329, Control_c, 9, 16, 85
2, 1330, Note_on_c, 9, 38, 5
2, 1365, Control_c, 9, 4, 66
2, 1369, Note_on_c, 9, 44, 87
2, 1375, Control_c, 9, 17, 63
2, 1375, Note_on_c, 9, 51, 19
2, 1397, Control_c, 9, 4, 88
2, 1418, Note_on_c, 9, 38, 0
2, 1457, Note_on_c, 9, 44, 0
2, 1462, Note_on_c, 9, 51, 0
2, 1494, Control_c, 9, 4, 84
2, 1595, Control_c, 9, 4, 88
2, 1629, Control_c, 9, 17, 54
2, 1630, Note_on_c, 9, 51, 61
2, 1646, Control_c, 9, 4, 92
2, 1702, Control_c, 9, 4, 84
2, 1718, Note_on_c, 9, 51, 0
2, 1740, Control_c, 9, 4, 70
2, 1789, Control_c, 9, 4, 0
2, 1863, Note_on_c, 9, 46, 11
2, 1872, Control_c, 9, 4, 51
2, 1877, Note_on_c, 9, 44, 127
2, 1894, Control_c, 9, 18, 0
2, 1895, Note_on_c, 9, 48, 90
2, 1904, Control_c, 9, 4, 70
2, 1944, Control_c, 9, 4, 45
2, 1951, Note_on_c, 9, 46, 0
2, 1965, Note_on_c, 9, 44, 0
2, 1983, Note_on_c, 9, 48, 0
2, 1985, Control_c, 9, 4, 45
2, 2015, Control_c, 9, 4, 61
2, 2129, Note_on_c, 9, 48, 51
2, 2216, Note_on_c, 9, 48, 0
2, 2364, Note_on_c, 9, 57, 102
2, 2365, Note_on_c, 9, 36, 109
2, 2439, Control_c, 9, 4, 46
2, 2453, Note_on_c, 9, 36, 0
2, 2453, Note_on_c, 9, 57, 0
2, 2480, Control_c, 9, 4, 0
2, 2557, Note_on_c, 9, 57, 11
2, 2584, Note_on_c, 9, 46, 10
2, 2610, Control_c, 9, 4, 65
2, 2614, Note_on_c, 9, 44, 87
2, 2619, Note_on_c, 9, 57, 0
2, 2619, Note_on_c, 9, 57, 16
2, 2641, Control_c, 9, 4, 83
2, 2646, Note_on_c, 9, 57, 0
2, 2672, Note_on_c, 9, 46, 0
2, 2701, Note_on_c, 9, 44, 0
2, 2889, Note_on_c, 9, 57, 67
2, 2978, Note_on_c, 9, 57, 0
2, 3132, Control_c, 9, 16, 0
2, 3132, Note_on_c, 9, 40, 58
2, 3135, Note_on_c, 9, 57, 109
2, 3147, Control_c, 9, 4, 89
2, 3221, Note_on_c, 9, 40, 0
2, 3223, Note_on_c, 9, 57, 0
2, 3257, Control_c, 9, 4, 71
2, 3298, Control_c, 9, 4, 0
2, 3376, Control_c, 9, 4, 64
2, 3379, Note_on_c, 9, 44, 126
2, 3389, Note_on_c, 9, 57, 32
2, 3406, Control_c, 9, 4, 65
2, 3458, Control_c, 9, 4, 31
2, 3467, Note_on_c, 9, 44, 0
2, 3477, Note_on_c, 9, 57, 0
2, 3527, Control_c, 9, 4, 56
2, 3633, Note_on_c, 9, 57, 98
2, 3683, Control_c, 9, 4, 41
2, 3722, Note_on_c, 9, 57, 0
2, 3726, Control_c, 9, 4, 0
2, 3865, Control_c, 9, 4, 76
2, 3865, Note_on_c, 9, 44, 74
2, 3867, Note_on_c, 9, 48, 82
2, 3877, Note_on_c, 9, 57, 87
2, 3895, Control_c, 9, 4, 83
2, 3955, Note_on_c, 9, 44, 0
2, 3956, Note_on_c, 9, 48, 0
2, 3966, Note_on_c, 9, 57, 0
2, 4319, Control_c, 9, 4, 89
2, 4352, Note_on_c, 9, 36, 97
2, 4356, Note_on_c, 9, 57, 93
2, 4412, Control_c, 9, 4, 82
2, 4440, Note_on_c, 9, 36, 0
2, 4444, Note_on_c, 9, 57, 0
2, 4453, Control_c, 9, 4, 66
2, 4489, Control_c, 9, 4, 0
2, 4547, Note_on_c, 9, 38, 4
2, 4577, Control_c, 9, 4, 0
2, 4578, Note_on_c, 9, 46, 8
2, 4595, Note_on_c, 9, 44, 126
2, 4612, Control_c, 9, 4, 77
2, 4635, Note_on_c, 9, 38, 0
2, 4644, Control_c, 9, 4, 49
2, 4666, Note_on_c, 9, 46, 0
2, 4683, Note_on_c, 9, 44, 0
2, 4687, Control_c, 9, 4, 15
2, 4721, Control_c, 9, 4, 35
2, 4752, Control_c, 9, 4, 62
2, 4752, Note_on_c, 9, 46, 7
2, 4841, Note_on_c, 9, 46, 0
2, 4855, Note_on_c, 9, 57, 74
2, 4944, Note_on_c, 9, 57, 0
2, 5032, Control_c, 9, 4, 58
2, 5093, Note_on_c, 9, 57, 21
2, 5097, Note_on_c, 9, 40, 58
2, 5101, Control_c, 9, 4, 46
2, 5144, Control_c, 9, 4, 0
2, 5181, Note_on_c, 9, 57, 0
2, 5185, Note_on_c, 9, 40, 0
2, 5300, Control_c, 9, 4, 64
2, 5304, Note_on_c, 9, 44, 80
2, 5332, Control_c, 9, 4, 90
2, 5339, Note_on_c, 9, 57, 74
2, 5393, Note_on_c, 9, 44, 0
2, 5428, Note_on_c, 9, 57, 0
2, 5527, Control_c, 9, 4, 86
2, 5578, Note_on_c, 9, 57, 57
2, 5606, Control_c, 9, 4, 96
2, 5660, Control_c, 9, 4, 90
2, 5667, Note_on_c, 9, 57, 0
2, 5698, Control_c, 9, 4, 71
2, 5738, Control_c, 9, 4, 0
2, 5813, Note_on_c, 9, 57, 95
2, 5816, Control_c, 9, 4, 32
2, 5818, Note_on_c, 9, 48, 73
2, 5822, Note_on_c, 9, 44, 127
2, 5849, Control_c, 9, 4, 73
2, 5899, Control_c, 9, 4, 33
2, 5901, Note_on_c, 9, 57, 0
2, 5906, Note_on_c, 9, 48, 0
2, 5909, Note_on_c, 9, 44, 0
2, 5963, Control_c, 9, 4, 63
2, 6044, Note_on_c, 9, 57, 48
2, 6063, Control_c, 9, 18, 0
2, 6064, Note_on_c, 9, 48, 81
2, 6131, Note_on_c, 9, 57, 0
2, 6151, Note_on_c, 9, 48, 0
2, 6299, Note_on_c, 9, 57, 106
2, 6300, Note_on_c, 9, 36, 108
2, 6388, Note_on_c, 9, 57, 0
2, 6389, Control_c, 9, 4, 55
2, 6389, Note_on_c, 9, 36, 0
2, 6433, Control_c, 9, 4, 42
2, 6470, Control_c, 9, 4, 24
2, 6509, Control_c, 9, 4, 12
2, 6519, Note_on_c, 9, 57, 52
2, 6608, Note_on_c, 9, 57, 0
2, 6620, Control_c, 9, 4, 0
2, 6624, Note_on_c, 9, 38, 32
2, 6686, Control_c, 9, 16, 0
2, 6686, Note_on_c, 9, 38, 0
2, 6688, Note_on_c, 9, 38, 44
2, 6712, Note_on_c, 9, 38, 0
2, 6724, Control_c, 9, 4, 65
2, 6734, Note_on_c, 9, 46, 21
2, 6735, Note_on_c, 9, 44, 61
2, 6761, Control_c, 9, 4, 76
2, 6768, Control_c, 9, 16, 127
2, 6769, Note_on_c, 9, 38, 95
2, 6775, Note_on_c, 9, 38, 0
2, 6822, Control_c, 9, 16, 0
2, 6822, Note_on_c, 9, 44, 0
2, 6822, Note_on_c, 9, 46, 0
2, 6823, Note_on_c, 9, 40, 22
2, 6910, Note_on_c, 9, 40, 0
2, 7013, Note_on_c, 9, 36, 82
2, 7015, Control_c, 9, 4, 89
2, 7023, Note_on_c, 9, 57, 127
2, 7077, Control_c, 9, 4, 82
2, 7102, Note_on_c, 9, 36, 0
2, 7112, Note_on_c, 9, 57, 0
2, 7120, Control_c, 9, 4, 60
2, 7150, Control_c, 9, 4, 0
2, 7236, Note_on_c, 9, 46, 7
2, 7247, Control_c, 9, 4, 53
2, 7251, Note_on_c, 9, 44, 127
2, 7270, Note_on_c, 9, 57, 28
2, 7278, Control_c, 9, 4, 69
2, 7322, Control_c, 9, 4, 25
2, 7324, Note_on_c, 9, 46, 0
2, 7340, Note_on_c, 9, 44, 0
2, 7358, Note_on_c, 9, 57, 0
2, 7359, Control_c, 9, 4, 26
2, 7374, Note_on_c, 9, 38, 26
2, 7395, Control_c, 9, 4, 60
2, 7462, Note_on_c, 9, 38, 0
2, 7484, Note_on_c, 9, 57, 92
2, 7559, Control_c, 9, 4, 54
2, 7573, Note_on_c, 9, 57, 0
2, 7587, Control_c, 9, 16, 0
2, 7588, Note_on_c, 9, 38, 43
2, 7615, Control_c, 9, 4, 28
2, 7647, Control_c, 9, 4, 0
2, 7676, Note_on_c, 9, 38, 0
2, 7677, End_track
0, 0, End_of_file
