0, 0, Header, 1, 2, 480
1, 0, Start_track
1, 0, Tempo, 666666
1, 0, Time_signature, 4, 2, 24, 8
1, 0, Key_signature, 0, "major"
1, 1, End_track
2, 0, Start_track
2, 0, Title_t, "Blue Ridge"
2, 0, Program_c, 9, 0
2, 0, Note_on_c, 9, 36, 78
2, 0, Note_on_c, 9, 59, 99
2, 63, Note_on_c, 9, 36, 0
2, 73, Note_on_c, 9, 59, 0
2, 125, Control_c, 9, 4, 61
2, 161, Control_c, 9, 4, 0
2, 221, Control_c, 9, 4, 32
2, 229, Note_on_c, 9, 44, 42
2, 235, Note_on_c, 9, 40, 127
2, 248, Note_on_c, 9, 59, 91
2, 251, Control_c, 9, 4, 90
2, 302, Note_on_c, 9, 44, 0
2, 308, Note_on_c, 9, 40, 0
2, 320, Note_on_c, 9, 59, 0
2, 399, Note_on_c, 9, 51, 64
2, 472, Note_on_c, 9, 51, 0
2, 483, Note_on_c, 9, 59, 79
2, 488, Control_c, 9, 4, 85
2, 490, Note_on_c, 9, 36, 54
2, 535, Control_c, 9, 4, 64
2, 555, Note_on_c, 9, 59, 0
2, 563, Note_on_c, 9, 36, 0
2, 566, Control_c, 9, 4, 30
2, 600, Control_c, 9, 4, 0
2, 702, Control_c, 9, 4, 16
2, 711, Note_on_c, 9, 44, 62
2, 724, Note_on_c, 9, 40, 124
2, 727, Note_on_c, 9, 59, 107
2, 728, Note_on_c, 9, 36, 58
2, 734, Control_c, 9, 4, 90
2, 783, Note_on_c, 9, 44, 0
2, 796, Note_on_c, 9, 40, 0
2, 799, Note_on_c, 9, 59, 0
2, 801, Note_on_c, 9, 36, 0
2, 887, Note_on_c, 9, 51, 58
2, 960, Note_on_c, 9, 51, 0
2, 970, Note_on_c, 9, 59, 78
2, 977, Note_on_c, 9, 36, 55
2, 1043, Note_on_c, 9, 59, 0
2, 1050, Note_on_c, 9, 36, 0
2, 1052, Control_c, 9, 4, 74
2, 1088, Control_c, 9, 4, 0
2, 1184, Control_c, 9, 4, 16
2, 1191, Note_on_c, 9, 44, 75
2, 1198, Note_on_c, 9, 59, 113
2, 1200, Note_on_c, 9, 38, 123
2, 1203, Note_on_c, 9, 36, 56
2, 1214, Control_c, 9, 4, 90
2, 1264, Note_on_c, 9, 44, 0
2, 1270, Note_on_c, 9, 59, 0
2, 1273, Note_on_c, 9, 38, 0
2, 1276, Note_on_c, 9, 36, 0
2, 1355, Note_on_c, 9, 51, 49
2, 1427, Note_on_c, 9, 51, 0
2, 1433, Note_on_c, 9, 36, 63
2, 1433, Note_on_c, 9, 59, 63
2, 1506, Note_on_c, 9, 36, 0
2, 1506, Note_on_c, 9, 59, 0
2, 1523, Control_c, 9, 4, 74
2, 1556, Control_c, 9, 4, 0
2, 1597, Note_on_c, 9, 38, 58
2, 1657, Control_c, 9, 4, 16
2, 1665, Note_on_c, 9, 44, 67
2, 1668, Note_on_c, 9, 38, 0
2, 1668, Note_on_c, 9, 51, 83
2, 1676, Note_on_c, 9, 36, 61
2, 1688, Control_c, 9, 4, 90
2, 1738, Note_on_c, 9, 44, 0
2, 1741, Note_on_c, 9, 51, 0
2, 1749, Note_on_c, 9, 36, 0
2, 1823, Note_on_c, 9, 40, 96
2, 1825, Note_on_c, 9, 51, 94
2, 1895, Note_on_c, 9, 40, 0
2, 1898, Note_on_c, 9, 51, 0
2, 1900, Note_on_c, 9, 36, 57
2, 1905, Note_on_c, 9, 59, 83
2, 1950, Control_c, 9, 4, 0
2, 1973, Note_on_c, 9, 36, 0
2, 1978, Note_on_c, 9, 59, 0
2, 2142, Control_c, 9, 4, 16
2, 2148, Note_on_c, 9, 59, 81
2, 2149, Note_on_c, 9, 44, 65
2, 2153, Note_on_c, 9, 38, 107
2, 2163, Note_on_c, 9, 36, 58
2, 2172, Control_c, 9, 4, 90
2, 2220, Note_on_c, 9, 59, 0
2, 2222, Note_on_c, 9, 44, 0
2, 2225, Note_on_c, 9, 38, 0
2, 2236, Note_on_c, 9, 36, 0
2, 2312, Note_on_c, 9, 51, 48
2, 2385, Note_on_c, 9, 51, 0
2, 2395, Note_on_c, 9, 51, 102
2, 2400, Note_on_c, 9, 36, 59
2, 2467, Note_on_c, 9, 51, 0
2, 2472, Control_c, 9, 4, 42
2, 2472, Note_on_c, 9, 36, 0
2, 2502, Control_c, 9, 4, 0
2, 2548, Note_on_c, 9, 51, 66
2, 2608, Control_c, 9, 4, 16
2, 2617, Note_on_c, 9, 44, 57
2, 2620, Note_on_c, 9, 51, 0
2, 2634, Note_on_c, 9, 36, 55
2, 2634, Note_on_c, 9, 40, 123
2, 2638, Note_on_c, 9, 59, 84
2, 2640, Control_c, 9, 4, 90
2, 2690, Note_on_c, 9, 44, 0
2, 2707, Note_on_c, 9, 36, 0
2, 2707, Note_on_c, 9, 40, 0
2, 2711, Note_on_c, 9, 59, 0
2, 2796, Note_on_c, 9, 51, 45
2, 2868, Note_on_c, 9, 51, 0
2, 2875, Note_on_c, 9, 36, 53
2, 2875, Note_on_c, 9, 59, 84
2, 2913, Control_c, 9, 4, 74
2, 2947, Control_c, 9, 4, 0
2, 2948, Note_on_c, 9, 36, 0
2, 2948, Note_on_c, 9, 59, 0
2, 3043, Note_on_c, 9, 51, 47
2, 3091, Control_c, 9, 4, 33
2, 3099, Note_on_c, 9, 44, 42
2, 3115, Note_on_c, 9, 51, 0
2, 3120, Note_on_c, 9, 40, 100
2, 3121, Control_c, 9, 4, 90
2, 3121, Note_on_c, 9, 36, 53
2, 3121, Note_on_c, 9, 59, 97
2, 3172, Note_on_c, 9, 44, 0
2, 3192, Note_on_c, 9, 40, 0
2, 3192, Note_on_c, 9, 59, 0
2, 3194, Note_on_c, 9, 36, 0
2, 3275, Note_on_c, 9, 51, 59
2, 3348, Note_on_c, 9, 51, 0
2, 3360, Note_on_c, 9, 36, 55
2, 3360, Note_on_c, 9, 59, 92
2, 3432, Note_on_c, 9, 36, 0
2, 3432, Note_on_c, 9, 59, 0
2, 3446, Control_c, 9, 4, 0
2, 3511, Note_on_c, 9, 38, 45
2, 3573, Control_c, 9, 4, 16
2, 3583, Note_on_c, 9, 38, 0
2, 3583, Note_on_c, 9, 44, 55
2, 3589, Note_on_c, 9, 51, 85
2, 3594, Note_on_c, 9, 36, 59
2, 3605, Control_c, 9, 4, 90
2, 3655, Note_on_c, 9, 44, 0
2, 3662, Note_on_c, 9, 51, 0
2, 3666, Note_on_c, 9, 36, 0
2, 3742, Note_on_c, 9, 38, 124
2, 3745, Note_on_c, 9, 51, 109
2, 3815, Note_on_c, 9, 38, 0
2, 3817, Note_on_c, 9, 51, 0
2, 3824, Note_on_c, 9, 36, 56
2, 3834, Note_on_c, 9, 59, 70
2, 3852, Control_c, 9, 4, 60
2, 3884, Control_c, 9, 4, 0
2, 3897, Note_on_c, 9, 36, 0
2, 3907, Note_on_c, 9, 59, 0
2, 4065, Control_c, 9, 4, 16
2, 4073, Note_on_c, 9, 44, 70
2, 4082, Note_on_c, 9, 40, 109
2, 4082, Note_on_c, 9, 59, 106
2, 4086, Note_on_c, 9, 36, 56
2, 4096, Control_c, 9, 4, 90
2, 4146, Note_on_c, 9, 44, 0
2, 4155, Note_on_c, 9, 40, 0
2, 4155, Note_on_c, 9, 59, 0
2, 4159, Note_on_c, 9, 36, 0
2, 4237, Note_on_c, 9, 51, 50
2, 4310, Note_on_c, 9, 51, 0
2, 4322, Note_on_c, 9, 59, 70
2, 4329, Note_on_c, 9, 36, 52
2, 4395, Note_on_c, 9, 59, 0
2, 4402, Note_on_c, 9, 36, 0
2, 4412, Control_c, 9, 4, 74
2, 4443, Control_c, 9, 4, 0
2, 4545, Note_on_c, 9, 44, 75
2, 4563, Note_on_c, 9, 59, 73
2, 4565, Note_on_c, 9, 36, 58
2, 4567, Note_on_c, 9, 38, 98
2, 4568, Control_c, 9, 4, 90
2, 4618, Note_on_c, 9, 44, 0
2, 4635, Note_on_c, 9, 59, 0
2, 4637, Note_on_c, 9, 36, 0
2, 4640, Note_on_c, 9, 38, 0
2, 4654, Control_c, 9, 4, 78
2, 4693, Control_c, 9, 4, 90
2, 4730, Note_on_c, 9, 51, 46
2, 4802, Note_on_c, 9, 51, 0
2, 4806, Note_on_c, 9, 36, 56
2, 4806, Note_on_c, 9, 51, 83
2, 4869, Control_c, 9, 4, 0
2, 4879, Note_on_c, 9, 36, 0
2, 4879, Note_on_c, 9, 51, 0
2, 5029, Note_on_c, 9, 44, 80
2, 5038, Note_on_c, 9, 59, 79
2, 5042, Note_on_c, 9, 38, 92
2, 5050, Note_on_c, 9, 36, 59
2, 5052, Control_c, 9, 4, 90
2, 5102, Note_on_c, 9, 44, 0
2, 5111, Note_on_c, 9, 59, 0
2, 5115, Note_on_c, 9, 38, 0
2, 5123, Note_on_c, 9, 36, 0
2, 5206, Note_on_c, 9, 51, 50
2, 5278, Note_on_c, 9, 51, 0
2, 5284, Note_on_c, 9, 36, 59
2, 5286, Note_on_c, 9, 51, 77
2, 5354, Control_c, 9, 4, 0
2, 5356, Note_on_c, 9, 36, 0
2, 5359, Note_on_c, 9, 51, 0
2, 5507, Note_on_c, 9, 44, 82
2, 5521, Note_on_c, 9, 38, 105
2, 5525, Note_on_c, 9, 59, 79
2, 5530, Control_c, 9, 4, 90
2, 5530, Note_on_c, 9, 36, 55
2, 5580, Note_on_c, 9, 44, 0
2, 5594, Note_on_c, 9, 38, 0
2, 5597, Note_on_c, 9, 59, 0
2, 5604, Note_on_c, 9, 36, 0
2, 5687, Note_on_c, 9, 59, 40
2, 5760, Note_on_c, 9, 59, 0
2, 5762, Note_on_c, 9, 36, 60
2, 5762, Note_on_c, 9, 51, 77
2, 5820, Control_c, 9, 4, 0
2, 5835, Note_on_c, 9, 36, 0
2, 5835, Note_on_c, 9, 51, 0
2, 5983, Control_c, 9, 4, 16
2, 5991, Note_on_c, 9, 59, 121
2, 5992, Note_on_c, 9, 38, 115
2, 5993, Note_on_c, 9, 44, 55
2, 6009, Note_on_c, 9, 36, 51
2, 6015, Control_c, 9, 4, 90
2, 6064, Note_on_c, 9, 38, 0
2, 6064, Note_on_c, 9, 59, 0
2, 6065, Note_on_c, 9, 44, 0
2, 6081, Note_on_c, 9, 36, 0
2, 6154, Note_on_c, 9, 51, 46
2, 6161, Control_c, 9, 4, 80
2, 6195, Control_c, 9, 4, 90
2, 6227, Note_on_c, 9, 51, 0
2, 6231, Note_on_c, 9, 36, 58
2, 6232, Note_on_c, 9, 59, 65
2, 6275, Control_c, 9, 4, 74
2, 6304, Note_on_c, 9, 36, 0
2, 6304, Note_on_c, 9, 59, 0
2, 6308, Control_c, 9, 4, 0
2, 6457, Control_c, 9, 4, 16
2, 6460, Note_on_c, 9, 38, 111
2, 6462, Note_on_c, 9, 59, 92
2, 6465, Note_on_c, 9, 44, 65
2, 6467, Note_on_c, 9, 36, 54
2, 6488, Control_c, 9, 4, 90
2, 6532, Note_on_c, 9, 38, 0
2, 6535, Note_on_c, 9, 59, 0
2, 6538, Note_on_c, 9, 44, 0
2, 6540, Note_on_c, 9, 36, 0
2, 6622, Note_on_c, 9, 51, 57
2, 6687, Note_on_c, 9, 36, 57
2, 6695, Note_on_c, 9, 51, 0
2, 6703, Note_on_c, 9, 51, 90
2, 6760, Note_on_c, 9, 36, 0
2, 6766, Control_c, 9, 4, 0
2, 6775, Note_on_c, 9, 51, 0
2, 6922, Control_c, 9, 4, 16
2, 6928, Note_on_c, 9, 59, 93
2, 6930, Note_on_c, 9, 38, 98
2, 6931, Note_on_c, 9, 44, 60
2, 6934, Note_on_c, 9, 36, 53
2, 6953, Control_c, 9, 4, 90
2, 7001, Note_on_c, 9, 59, 0
2, 7003, Note_on_c, 9, 38, 0
2, 7003, Note_on_c, 9, 44, 0
2, 7006, Note_on_c, 9, 36, 0
2, 7082, Note_on_c, 9, 51, 55
2, 7103, Control_c, 9, 4, 32
2, 7140, Control_c, 9, 4, 30
2, 7148, Note_on_c, 9, 44, 45
2, 7155, Note_on_c, 9, 51, 0
2, 7164, Note_on_c, 9, 36, 59
2, 7171, Control_c, 9, 4, 90
2, 7173, Note_on_c, 9, 59, 68
2, 7221, Note_on_c, 9, 44, 0
2, 7236, Note_on_c, 9, 36, 0
2, 7246, Note_on_c, 9, 59, 0
2, 7261, Control_c, 9, 4, 0
2, 7312, Note_on_c, 9, 38, 57
2, 7384, Control_c, 9, 4, 32
2, 7384, Note_on_c, 9, 38, 0
2, 7391, Note_on_c, 9, 44, 47
2, 7397, Note_on_c, 9, 36, 57
2, 7401, Note_on_c, 9, 51, 70
2, 7414, Control_c, 9, 4, 90
2, 7464, Note_on_c, 9, 44, 0
2, 7470, Note_on_c, 9, 36, 0
2, 7473, Note_on_c, 9, 51, 0
2, 7558, Note_on_c, 9, 38, 92
2, 7563, Note_on_c, 9, 51, 103
2, 7570, Control_c, 9, 4, 90
2, 7631, Note_on_c, 9, 38, 0
2, 7636, Note_on_c, 9, 51, 0
2, 7678, Control_c, 9, 4, 0
2, 7679, End_track
0, 0, End_of_file
