0, 0, Header, 1, 2, 480
1, 0, Start_track
1, 0, Tempo, 545454
1, 0, Time_signature, 4, 2, 24, 8
1, 0, Key_signature, 0, "major"
1, 1, End_track
2, 0, Start_track
2, 0, Title_t, "TD-30 #9 Djembe"
2, 0, Program_c, 9, 0
2, 0, Control_c, 9, 16, 73
2, 19, Control_c, 9, 16, 0
2, 20, Note_on_c, 9, 38, 59
2, 107, Note_on_c, 9, 38, 0
2, 257, Note_on_c, 9, 40, 54
2, 344, Note_on_c, 9, 40, 0
2, 502, Control_c, 9, 4, 88
2, 522, Note_on_c, 9, 36, 102
2, 582, Control_c, 9, 4, 78
2, 610, Note_on_c, 9, 36, 0
2, 631, Control_c, 9, 4, 60
2, 661, Control_c, 9, 4, 0
2, 746, Note_on_c, 9, 44, 106
2, 760, Control_c, 9, 4, 99
2, 800, Control_c, 9, 4, 90
2, 830, Control_c, 9, 4, 83
2, 834, Note_on_c, 9, 44, 0
2, 885, Control_c, 9, 4, 79
2, 959, Control_c, 9, 4, 85
2, 999, Control_c, 9, 4, 81
2, 1219, Control_c, 9, 16, 0
2, 1220, Note_on_c, 9, 40, 73
2, 1240, Control_c, 9, 4, 87
2, 1307, Note_on_c, 9, 40, 0
2, 1317, Control_c, 9, 4, 82
2, 1364, Control_c, 9, 4, 61
2, 1401, Control_c, 9, 4, 0
2, 1459, Note_on_c, 9, 44, 93
2, 1474, Control_c, 9, 4, 97
2, 1504, Note_on_c, 9, 49, 8
2, 1514, Control_c, 9, 4, 97
2, 1547, Note_on_c, 9, 44, 0
2, 1554, Control_c, 9, 4, 84
2, 1592, Note_on_c, 9, 49, 0
2, 1683, Control_c, 9, 4, 88
2, 1818, Control_c, 9, 4, 75
2, 1851, Control_c, 9, 4, 59
2, 1885, Control_c, 9, 4, 0
2, 1935, Note_on_c, 9, 44, 93
2, 1942, Note_on_c, 9, 48, 51
2, 1950, Control_c, 9, 4, 97
2, 1988, Control_c, 9, 4, 94
2, 2023, Note_on_c, 9, 44, 0
2, 2029, Note_on_c, 9, 48, 0
2, 2031, Control_c, 9, 4, 84
2, 2080, Control_c, 9, 4, 79
2, 2143, Control_c, 9, 4, 89
2, 2178, Control_c, 9, 4, 84
2, 2183, Note_on_c, 9, 48, 54
2, 2270, Note_on_c, 9, 48, 0
2, 2426, Note_on_c, 9, 36, 84
2, 2439, Control_c, 9, 4, 89
2, 2514, Note_on_c, 9, 36, 0
2, 2531, Control_c, 9, 4, 76
2, 2570, Control_c, 9, 4, 58
2, 2605, Control_c, 9, 4, 0
2, 2662, Control_c, 9, 4, 66
2, 2665, Note_on_c, 9, 44, 87
2, 2692, Control_c, 9, 4, 98
2, 2748, Control_c, 9, 4, 84
2, 2753, Note_on_c, 9, 44, 0
2, 2779, Control_c, 9, 4, 79
2, 2880, Control_c, 9, 4, 84
2, 2925, Control_c, 9, 4, 80
2, 3119, Control_c, 9, 16, 126
2, 3119, Note_on_c, 9, 40, 59
2, 3144, Control_c, 9, 4, 85
2, 3174, Control_c, 9, 4, 89
2, 3208, Note_on_c, 9, 40, 0
2, 3247, Control_c, 9, 4, 77
2, 3290, Control_c, 9, 4, 60
2, 3327, Control_c, 9, 4, 19
2, 3369, Note_on_c, 9, 44, 67
2, 3375, Control_c, 9, 4, 93
2, 3423, Control_c, 9, 4, 92
2, 3454, Control_c, 9, 4, 85
2, 3457, Note_on_c, 9, 44, 0
2, 3495, Control_c, 9, 4, 81
2, 3573, Control_c, 9, 4, 86
2, 3696, Control_c, 9, 4, 80
2, 3748, Control_c, 9, 4, 61
2, 3784, Control_c, 9, 4, 0
2, 3842, Control_c, 9, 4, 51
2, 3846, Note_on_c, 9, 44, 100
2, 3855, Note_on_c, 9, 48, 53
2, 3873, Control_c, 9, 4, 98
2, 3934, Note_on_c, 9, 44, 0
2, 3941, Control_c, 9, 4, 84
2, 3942, Note_on_c, 9, 48, 0
2, 3979, Control_c, 9, 4, 79
2, 4044, Control_c, 9, 4, 86
2, 4087, Control_c, 9, 4, 83
2, 4091, Control_c, 9, 18, 0
2, 4091, Note_on_c, 9, 48, 60
2, 4180, Note_on_c, 9, 48, 0
2, 4333, Control_c, 9, 4, 88
2, 4341, Note_on_c, 9, 36, 76
2, 4398, Control_c, 9, 4, 83
2, 4429, Note_on_c, 9, 36, 0
2, 4438, Control_c, 9, 4, 71
2, 4471, Control_c, 9, 4, 62
2, 4507, Control_c, 9, 4, 0
2, 4572, Note_on_c, 9, 44, 100
2, 4586, Control_c, 9, 4, 97
2, 4626, Control_c, 9, 4, 91
2, 4657, Control_c, 9, 4, 83
2, 4660, Note_on_c, 9, 44, 0
2, 4706, Control_c, 9, 4, 79
2, 4772, Control_c, 9, 4, 84
2, 5041, Control_c, 9, 16, 0
2, 5042, Note_on_c, 9, 40, 67
2, 5061, Control_c, 9, 4, 89
2, 5130, Note_on_c, 9, 40, 0
2, 5150, Control_c, 9, 4, 77
2, 5184, Control_c, 9, 4, 59
2, 5221, Control_c, 9, 4, 0
2, 5278, Note_on_c, 9, 44, 87
2, 5293, Control_c, 9, 4, 97
2, 5331, Control_c, 9, 4, 91
2, 5362, Control_c, 9, 4, 83
2, 5367, Note_on_c, 9, 44, 0
2, 5411, Control_c, 9, 4, 79
2, 5485, Control_c, 9, 4, 87
2, 5736, Control_c, 9, 4, 82
2, 5772, Note_on_c, 9, 48, 68
2, 5861, Note_on_c, 9, 48, 0
2, 6006, Note_on_c, 9, 48, 65
2, 6094, Note_on_c, 9, 48, 0
2, 6246, Control_c, 9, 4, 88
2, 6271, Note_on_c, 9, 36, 92
2, 6344, Control_c, 9, 4, 74
2, 6360, Note_on_c, 9, 36, 0
2, 6393, Control_c, 9, 4, 60
2, 6428, Control_c, 9, 4, 0
2, 6500, Control_c, 9, 4, 67
2, 6502, Note_on_c, 9, 44, 100
2, 6530, Control_c, 9, 4, 95
2, 6586, Control_c, 9, 4, 83
2, 6591, Note_on_c, 9, 44, 0
2, 6637, Control_c, 9, 4, 79
2, 6708, Control_c, 9, 4, 84
2, 6998, Control_c, 9, 16, 23
2, 6999, Note_on_c, 9, 40, 79
2, 7003, Control_c, 9, 4, 89
2, 7075, Control_c, 9, 4, 82
2, 7087, Note_on_c, 9, 40, 0
2, 7115, Control_c, 9, 4, 70
2, 7165, Control_c, 9, 4, 0
2, 7234, Control_c, 9, 4, 65
2, 7237, Note_on_c, 9, 44, 100
2, 7264, Control_c, 9, 4, 96
2, 7282, Note_on_c, 9, 49, 8
2, 7316, Control_c, 9, 4, 84
2, 7326, Note_on_c, 9, 44, 0
2, 7367, Control_c, 9, 4, 79
2, 7370, Note_on_c, 9, 49, 0
2, 7435, Control_c, 9, 4, 83
2, 7482, Note_on_c, 9, 57, 126
2, 7486, Control_c, 9, 4, 89
2, 7548, Control_c, 9, 4, 82
2, 7571, Note_on_c, 9, 57, 0
2, 7589, Control_c, 9, 4, 70
2, 7620, Control_c, 9, 4, 59
2, 7651, Control_c, 9, 4, 0
2, 7652, End_track
0, 0, End_of_file
