0, 0, Header, 1, 2, 480
1, 0, Start_track
1, 0, Tempo, 666666
1, 0, Time_signature, 4, 2, 24, 8
1, 0, Key_signature, 0, "major"
1, 1, End_track
2, 0, Start_track
2, 0, Title_t, "Blue Ridge"
2, 0, Program_c, 9, 0
2, 0, Note_on_c, 9, 36, 73
2, 0, Note_on_c, 9, 51, 125
2, 71, Note_on_c, 9, 36, 0
2, 71, Note_on_c, 9, 51, 0
2, 196, Control_c, 9, 4, 68
2, 235, Note_on_c, 9, 51, 83
2, 246, Control_c, 9, 4, 90
2, 307, Note_on_c, 9, 51, 0
2, 339, Control_c, 9, 4, 73
2, 373, Control_c, 9, 4, 0
2, 483, Note_on_c, 9, 51, 116
2, 485, Note_on_c, 9, 38, 126
2, 491, Note_on_c, 9, 44, 92
2, 514, Control_c, 9, 4, 90
2, 556, Note_on_c, 9, 51, 0
2, 558, Note_on_c, 9, 38, 0
2, 564, Note_on_c, 9, 44, 0
2, 596, Control_c, 9, 4, 74
2, 630, Control_c, 9, 4, 22
2, 675, Control_c, 9, 4, 13
2, 709, Control_c, 9, 4, 23
2, 721, Note_on_c, 9, 44, 42
2, 723, Note_on_c, 9, 51, 84
2, 744, Control_c, 9, 4, 90
2, 793, Note_on_c, 9, 44, 0
2, 795, Note_on_c, 9, 51, 0
2, 851, Control_c, 9, 4, 63
2, 856, Note_on_c, 9, 38, 103
2, 889, Control_c, 9, 4, 61
2, 929, Note_on_c, 9, 38, 0
2, 957, Note_on_c, 9, 36, 70
2, 958, Control_c, 9, 4, 90
2, 968, Note_on_c, 9, 51, 103
2, 1030, Note_on_c, 9, 36, 0
2, 1040, Note_on_c, 9, 51, 0
2, 1108, Control_c, 9, 4, 61
2, 1113, Note_on_c, 9, 38, 41
2, 1150, Control_c, 9, 4, 37
2, 1186, Note_on_c, 9, 38, 0
2, 1188, Control_c, 9, 4, 45
2, 1196, Note_on_c, 9, 36, 75
2, 1198, Note_on_c, 9, 44, 22
2, 1203, Note_on_c, 9, 51, 100
2, 1221, Control_c, 9, 4, 90
2, 1269, Note_on_c, 9, 36, 0
2, 1271, Note_on_c, 9, 44, 0
2, 1276, Note_on_c, 9, 51, 0
2, 1316, Control_c, 9, 4, 58
2, 1348, Control_c, 9, 4, 23
2, 1408, Control_c, 9, 4, 54
2, 1439, Note_on_c, 9, 40, 127
2, 1441, Note_on_c, 9, 51, 117
2, 1442, Control_c, 9, 4, 90
2, 1512, Note_on_c, 9, 40, 0
2, 1513, Note_on_c, 9, 51, 0
2, 1579, Control_c, 9, 4, 66
2, 1618, Control_c, 9, 4, 60
2, 1670, Control_c, 9, 4, 90
2, 1675, Note_on_c, 9, 36, 67
2, 1675, Note_on_c, 9, 51, 86
2, 1747, Note_on_c, 9, 36, 0
2, 1747, Note_on_c, 9, 51, 0
2, 1795, Control_c, 9, 4, 80
2, 1830, Control_c, 9, 4, 54
2, 1860, Control_c, 9, 4, 40
2, 1896, Control_c, 9, 4, 52
2, 1910, Note_on_c, 9, 36, 77
2, 1923, Note_on_c, 9, 51, 109
2, 1933, Control_c, 9, 4, 90
2, 1984, Note_on_c, 9, 36, 0
2, 1996, Note_on_c, 9, 51, 0
2, 2046, Note_on_c, 9, 38, 46
2, 2056, Control_c, 9, 4, 56
2, 2090, Control_c, 9, 4, 42
2, 2119, Note_on_c, 9, 38, 0
2, 2130, Control_c, 9, 4, 63
2, 2143, Note_on_c, 9, 51, 109
2, 2163, Control_c, 9, 4, 90
2, 2215, Note_on_c, 9, 51, 0
2, 2229, Control_c, 9, 4, 80
2, 2265, Control_c, 9, 4, 56
2, 2273, Note_on_c, 9, 36, 56
2, 2330, Control_c, 9, 4, 68
2, 2346, Note_on_c, 9, 36, 0
2, 2375, Control_c, 9, 4, 90
2, 2382, Note_on_c, 9, 40, 127
2, 2389, Note_on_c, 9, 51, 127
2, 2454, Note_on_c, 9, 40, 0
2, 2462, Note_on_c, 9, 51, 0
2, 2506, Note_on_c, 9, 38, 49
2, 2511, Control_c, 9, 4, 83
2, 2566, Control_c, 9, 4, 72
2, 2578, Note_on_c, 9, 38, 0
2, 2602, Note_on_c, 9, 36, 74
2, 2623, Control_c, 9, 4, 90
2, 2627, Note_on_c, 9, 51, 127
2, 2675, Note_on_c, 9, 36, 0
2, 2699, Note_on_c, 9, 51, 0
2, 2720, Control_c, 9, 4, 0
2, 2731, Note_on_c, 9, 38, 39
2, 2775, Note_on_c, 9, 38, 0
2, 2775, Note_on_c, 9, 38, 33
2, 2804, Note_on_c, 9, 38, 0
2, 2857, Note_on_c, 9, 59, 75
2, 2891, Control_c, 9, 4, 0
2, 2928, Note_on_c, 9, 38, 43
2, 2930, Note_on_c, 9, 59, 0
2, 2967, Note_on_c, 9, 38, 0
2, 2967, Note_on_c, 9, 38, 28
2, 3001, Note_on_c, 9, 38, 0
2, 3020, Note_on_c, 9, 43, 114
2, 3093, Note_on_c, 9, 43, 0
2, 3104, Note_on_c, 9, 38, 127
2, 3176, Note_on_c, 9, 38, 0
2, 3257, Note_on_c, 9, 38, 92
2, 3331, Note_on_c, 9, 38, 0
2, 3347, Note_on_c, 9, 38, 127
2, 3410, Note_on_c, 9, 37, 64
2, 3420, Note_on_c, 9, 38, 0
2, 3483, Note_on_c, 9, 37, 0
2, 3496, Note_on_c, 9, 40, 102
2, 3522, Control_c, 9, 4, 9
2, 3568, Note_on_c, 9, 40, 0
2, 3572, Control_c, 9, 4, 13
2, 3577, Note_on_c, 9, 38, 118
2, 3620, Control_c, 9, 4, 21
2, 3650, Note_on_c, 9, 38, 0
2, 3655, Control_c, 9, 4, 54
2, 3659, Note_on_c, 9, 48, 127
2, 3732, Note_on_c, 9, 48, 0
2, 3734, Control_c, 9, 4, 59
2, 3741, Note_on_c, 9, 48, 93
2, 3814, Control_c, 9, 4, 75
2, 3814, Note_on_c, 9, 48, 0
2, 3820, Note_on_c, 9, 36, 127
2, 3827, Note_on_c, 9, 55, 106
2, 3852, Control_c, 9, 4, 90
2, 3892, Note_on_c, 9, 36, 0
2, 3900, Note_on_c, 9, 55, 0
2, 3957, Control_c, 9, 4, 85
2, 4023, Control_c, 9, 4, 60
2, 4056, Note_on_c, 9, 51, 59
2, 4060, Control_c, 9, 4, 59
2, 4097, Control_c, 9, 4, 90
2, 4128, Note_on_c, 9, 51, 0
2, 4177, Control_c, 9, 4, 81
2, 4211, Control_c, 9, 4, 50
2, 4248, Control_c, 9, 4, 22
2, 4288, Control_c, 9, 4, 47
2, 4306, Note_on_c, 9, 40, 127
2, 4308, Note_on_c, 9, 59, 106
2, 4324, Control_c, 9, 4, 90
2, 4379, Note_on_c, 9, 40, 0
2, 4381, Note_on_c, 9, 59, 0
2, 4390, Control_c, 9, 4, 59
2, 4421, Control_c, 9, 4, 23
2, 4456, Control_c, 9, 4, 12
2, 4522, Control_c, 9, 4, 61
2, 4547, Note_on_c, 9, 51, 111
2, 4554, Control_c, 9, 4, 90
2, 4607, Control_c, 9, 4, 77
2, 4620, Note_on_c, 9, 51, 0
2, 4639, Control_c, 9, 4, 45
2, 4656, Note_on_c, 9, 38, 37
2, 4670, Control_c, 9, 4, 33
2, 4700, Note_on_c, 9, 38, 0
2, 4700, Note_on_c, 9, 38, 36
2, 4729, Note_on_c, 9, 38, 0
2, 4739, Note_on_c, 9, 38, 26
2, 4771, Note_on_c, 9, 36, 91
2, 4772, Note_on_c, 9, 38, 0
2, 4772, Note_on_c, 9, 43, 127
2, 4785, Control_c, 9, 4, 26
2, 4821, Control_c, 9, 4, 14
2, 4844, Note_on_c, 9, 36, 0
2, 4844, Note_on_c, 9, 38, 51
2, 4845, Note_on_c, 9, 43, 0
2, 4899, Control_c, 9, 4, 10
2, 4917, Note_on_c, 9, 38, 0
2, 4933, Note_on_c, 9, 38, 127
2, 4965, Control_c, 9, 4, 33
2, 5000, Control_c, 9, 4, 61
2, 5005, Note_on_c, 9, 38, 0
2, 5008, Note_on_c, 9, 40, 127
2, 5055, Control_c, 9, 4, 49
2, 5080, Note_on_c, 9, 40, 0
2, 5094, Control_c, 9, 4, 42
2, 5098, Note_on_c, 9, 38, 119
2, 5129, Control_c, 9, 4, 38
2, 5163, Note_on_c, 9, 38, 0
2, 5163, Note_on_c, 9, 38, 78
2, 5171, Note_on_c, 9, 38, 0
2, 5177, Control_c, 9, 4, 33
2, 5264, Note_on_c, 9, 40, 127
2, 5271, Control_c, 9, 4, 42
2, 5325, Control_c, 9, 4, 49
2, 5333, Note_on_c, 9, 37, 77
2, 5336, Note_on_c, 9, 40, 0
2, 5365, Control_c, 9, 4, 63
2, 5396, Control_c, 9, 4, 78
2, 5406, Note_on_c, 9, 37, 0
2, 5417, Note_on_c, 9, 50, 80
2, 5431, Control_c, 9, 4, 90
2, 5489, Note_on_c, 9, 50, 0
2, 5501, Note_on_c, 9, 48, 127
2, 5504, Control_c, 9, 4, 83
2, 5573, Note_on_c, 9, 48, 0
2, 5585, Control_c, 9, 4, 90
2, 5587, Note_on_c, 9, 45, 73
2, 5656, Note_on_c, 9, 45, 0
2, 5656, Note_on_c, 9, 45, 66
2, 5660, Note_on_c, 9, 45, 0
2, 5668, Control_c, 9, 4, 85
2, 5729, Note_on_c, 9, 36, 127
2, 5748, Note_on_c, 9, 59, 123
2, 5788, Control_c, 9, 4, 90
2, 5802, Note_on_c, 9, 36, 0
2, 5821, Note_on_c, 9, 59, 0
2, 5866, Control_c, 9, 4, 82
2, 5900, Control_c, 9, 4, 71
2, 5941, Control_c, 9, 4, 57
2, 5962, Note_on_c, 9, 51, 72
2, 5971, Control_c, 9, 4, 67
2, 6006, Control_c, 9, 4, 90
2, 6035, Note_on_c, 9, 51, 0
2, 6077, Control_c, 9, 4, 81
2, 6116, Control_c, 9, 4, 58
2, 6177, Control_c, 9, 4, 65
2, 6221, Control_c, 9, 4, 90
2, 6221, Note_on_c, 9, 59, 95
2, 6223, Note_on_c, 9, 40, 127
2, 6294, Note_on_c, 9, 59, 0
2, 6295, Note_on_c, 9, 40, 0
2, 6317, Control_c, 9, 4, 71
2, 6357, Control_c, 9, 4, 51
2, 6408, Control_c, 9, 4, 56
2, 6448, Control_c, 9, 4, 90
2, 6463, Note_on_c, 9, 51, 111
2, 6499, Control_c, 9, 4, 74
2, 6530, Control_c, 9, 4, 0
2, 6536, Note_on_c, 9, 51, 0
2, 6558, Note_on_c, 9, 38, 41
2, 6606, Note_on_c, 9, 38, 0
2, 6606, Note_on_c, 9, 38, 36
2, 6630, Note_on_c, 9, 38, 0
2, 6694, Note_on_c, 9, 38, 127
2, 6732, Control_c, 9, 4, 0
2, 6766, Note_on_c, 9, 38, 0
2, 6781, Note_on_c, 9, 38, 32
2, 6853, Note_on_c, 9, 38, 0
2, 6855, Note_on_c, 9, 45, 106
2, 6858, Control_c, 9, 4, 0
2, 6928, Note_on_c, 9, 45, 0
2, 6944, Note_on_c, 9, 38, 52
2, 7016, Note_on_c, 9, 38, 0
2, 7022, Note_on_c, 9, 37, 90
2, 7095, Note_on_c, 9, 37, 0
2, 7106, Note_on_c, 9, 40, 127
2, 7179, Note_on_c, 9, 40, 0
2, 7195, Note_on_c, 9, 37, 89
2, 7267, Note_on_c, 9, 37, 0
2, 7274, Note_on_c, 9, 38, 119
2, 7326, Control_c, 9, 4, 9
2, 7346, Note_on_c, 9, 38, 0
2, 7355, Note_on_c, 9, 48, 127
2, 7381, Control_c, 9, 4, 13
2, 7427, Note_on_c, 9, 48, 0
2, 7445, Note_on_c, 9, 48, 127
2, 7472, Control_c, 9, 4, 19
2, 7509, Control_c, 9, 4, 28
2, 7517, Note_on_c, 9, 48, 0
2, 7527, Note_on_c, 9, 50, 56
2, 7597, Note_on_c, 9, 48, 121
2, 7599, Note_on_c, 9, 50, 0
2, 7638, Control_c, 9, 4, 30
2, 7670, Note_on_c, 9, 48, 0
2, 7678, Control_c, 9, 4, 53
2, 7679, End_track
0, 0, End_of_file
