0, 0, Header, 1, 2, 480
1, 0, Start_track
1, 0, Tempo, 545454
1, 0, Time_signature, 4, 2, 24, 8
1, 0, Key_signature, 0, "major"
1, 1, End_track
2, 0, Start_track
2, 0, Title_t, "TD-30 #9 Djembe"
2, 0, Program_c, 9, 0
2, 0, Control_c, 9, 16, 0
2, 13, Note_on_c, 9, 57, 100
2, 31, Control_c, 9, 4, 90
2, 102, Note_on_c, 9, 57, 0
2, 124, Control_c, 9, 4, 76
2, 141, Note_on_c, 9, 57, 83
2, 161, Control_c, 9, 4, 57
2, 197, Control_c, 9, 4, 15
2, 230, Note_on_c, 9, 57, 0
2, 235, Note_on_c, 9, 48, 37
2, 236, Control_c, 9, 4, 58
2, 241, Note_on_c, 9, 44, 67
2, 268, Control_c, 9, 4, 102
2, 319, Control_c, 9, 4, 91
2, 323, Note_on_c, 9, 48, 0
2, 328, Note_on_c, 9, 44, 0
2, 377, Note_on_c, 9, 48, 62
2, 404, Note_on_c, 9, 57, 83
2, 466, Note_on_c, 9, 48, 0
2, 493, Note_on_c, 9, 57, 0
2, 503, Note_on_c, 9, 36, 83
2, 530, Note_on_c, 9, 57, 84
2, 592, Note_on_c, 9, 36, 0
2, 607, Control_c, 9, 4, 77
2, 619, Note_on_c, 9, 57, 0
2, 648, Control_c, 9, 4, 56
2, 683, Control_c, 9, 4, 12
2, 721, Control_c, 9, 4, 54
2, 728, Note_on_c, 9, 44, 67
2, 754, Note_on_c, 9, 57, 81
2, 755, Control_c, 9, 4, 98
2, 797, Control_c, 9, 4, 91
2, 816, Note_on_c, 9, 44, 0
2, 834, Control_c, 9, 4, 85
2, 843, Note_on_c, 9, 57, 0
2, 927, Control_c, 9, 4, 89
2, 984, Note_on_c, 9, 57, 60
2, 989, Control_c, 9, 16, 126
2, 990, Note_on_c, 9, 40, 64
2, 1060, Control_c, 9, 4, 83
2, 1073, Note_on_c, 9, 57, 0
2, 1076, Note_on_c, 9, 40, 0
2, 1101, Control_c, 9, 4, 70
2, 1148, Control_c, 9, 4, 30
2, 1186, Control_c, 9, 4, 34
2, 1199, Note_on_c, 9, 44, 61
2, 1217, Control_c, 9, 4, 97
2, 1237, Note_on_c, 9, 57, 19
2, 1254, Control_c, 9, 4, 93
2, 1288, Note_on_c, 9, 44, 0
2, 1315, Control_c, 9, 4, 83
2, 1326, Note_on_c, 9, 57, 0
2, 1385, Control_c, 9, 4, 89
2, 1475, Note_on_c, 9, 57, 100
2, 1485, Note_on_c, 9, 36, 92
2, 1563, Note_on_c, 9, 57, 0
2, 1565, Control_c, 9, 4, 75
2, 1574, Note_on_c, 9, 36, 0
2, 1599, Control_c, 9, 4, 56
2, 1636, Control_c, 9, 4, 0
2, 1688, Control_c, 9, 4, 65
2, 1692, Note_on_c, 9, 44, 80
2, 1701, Note_on_c, 9, 57, 32
2, 1719, Control_c, 9, 4, 98
2, 1766, Control_c, 9, 4, 91
2, 1779, Note_on_c, 9, 44, 0
2, 1788, Note_on_c, 9, 57, 0
2, 1805, Control_c, 9, 4, 85
2, 1895, Control_c, 9, 4, 90
2, 1949, Note_on_c, 9, 57, 92
2, 1950, Control_c, 9, 16, 126
2, 1950, Note_on_c, 9, 40, 64
2, 2038, Note_on_c, 9, 40, 0
2, 2038, Note_on_c, 9, 57, 0
2, 2057, Control_c, 9, 4, 77
2, 2073, Note_on_c, 9, 57, 61
2, 2096, Control_c, 9, 4, 58
2, 2131, Control_c, 9, 4, 16
2, 2162, Note_on_c, 9, 57, 0
2, 2169, Control_c, 9, 4, 60
2, 2174, Note_on_c, 9, 44, 67
2, 2201, Control_c, 9, 4, 102
2, 2254, Control_c, 9, 4, 90
2, 2262, Note_on_c, 9, 44, 0
2, 2293, Control_c, 9, 4, 85
2, 2321, Note_on_c, 9, 48, 52
2, 2358, Control_c, 9, 4, 90
2, 2409, Note_on_c, 9, 48, 0
2, 2442, Note_on_c, 9, 57, 90
2, 2448, Note_on_c, 9, 36, 62
2, 2515, Control_c, 9, 4, 83
2, 2530, Note_on_c, 9, 57, 0
2, 2537, Note_on_c, 9, 36, 0
2, 2557, Control_c, 9, 4, 70
2, 2589, Control_c, 9, 4, 44
2, 2625, Control_c, 9, 4, 6
2, 2655, Control_c, 9, 4, 70
2, 2658, Note_on_c, 9, 44, 67
2, 2669, Note_on_c, 9, 57, 33
2, 2685, Control_c, 9, 4, 99
2, 2722, Control_c, 9, 4, 93
2, 2746, Note_on_c, 9, 44, 0
2, 2757, Note_on_c, 9, 57, 0
2, 2772, Control_c, 9, 4, 83
2, 2848, Control_c, 9, 4, 90
2, 2920, Control_c, 9, 16, 0
2, 2921, Note_on_c, 9, 40, 65
2, 2921, Note_on_c, 9, 57, 73
2, 2969, Note_on_c, 9, 40, 0
2, 2970, Note_on_c, 9, 40, 21
2, 2991, Control_c, 9, 4, 83
2, 3009, Note_on_c, 9, 40, 0
2, 3011, Note_on_c, 9, 57, 0
2, 3031, Control_c, 9, 4, 70
2, 3080, Control_c, 9, 4, 34
2, 3118, Control_c, 9, 4, 62
2, 3125, Note_on_c, 9, 46, 42
2, 3127, Note_on_c, 9, 44, 41
2, 3153, Control_c, 9, 4, 96
2, 3190, Control_c, 9, 4, 92
2, 3213, Note_on_c, 9, 46, 0
2, 3214, Note_on_c, 9, 44, 0
2, 3248, Control_c, 9, 4, 82
2, 3313, Control_c, 9, 4, 88
2, 3392, Note_on_c, 9, 57, 81
2, 3406, Note_on_c, 9, 36, 92
2, 3433, Note_on_c, 9, 38, 4
2, 3465, Note_on_c, 9, 38, 0
2, 3466, Note_on_c, 9, 38, 4
2, 3481, Note_on_c, 9, 57, 0
2, 3483, Control_c, 9, 4, 75
2, 3495, Note_on_c, 9, 36, 0
2, 3520, Note_on_c, 9, 38, 0
2, 3523, Control_c, 9, 4, 58
2, 3559, Control_c, 9, 4, 17
2, 3603, Control_c, 9, 4, 76
2, 3603, Note_on_c, 9, 46, 43
2, 3606, Note_on_c, 9, 44, 61
2, 3628, Note_on_c, 9, 57, 29
2, 3633, Control_c, 9, 4, 98
2, 3674, Control_c, 9, 4, 91
2, 3693, Note_on_c, 9, 46, 0
2, 3694, Note_on_c, 9, 44, 0
2, 3711, Control_c, 9, 4, 85
2, 3716, Note_on_c, 9, 57, 0
2, 3740, Control_c, 9, 16, 0
2, 3741, Note_on_c, 9, 38, 40
2, 3811, Control_c, 9, 4, 89
2, 3829, Note_on_c, 9, 38, 0
2, 3856, Note_on_c, 9, 57, 88
2, 3943, Control_c, 9, 4, 83
2, 3944, Note_on_c, 9, 57, 0
2, 3981, Note_on_c, 9, 57, 98
2, 3983, Control_c, 9, 4, 70
2, 4030, Control_c, 9, 4, 33
2, 4070, Note_on_c, 9, 57, 0
2, 4072, Control_c, 9, 4, 54
2, 4077, Control_c, 9, 18, 0
2, 4078, Note_on_c, 9, 48, 37
2, 4080, Note_on_c, 9, 44, 54
2, 4106, Control_c, 9, 4, 102
2, 4162, Control_c, 9, 4, 90
2, 4166, Note_on_c, 9, 48, 0
2, 4168, Note_on_c, 9, 44, 0
2, 4200, Control_c, 9, 4, 85
2, 4212, Note_on_c, 9, 48, 61
2, 4242, Note_on_c, 9, 57, 86
2, 4265, Control_c, 9, 4, 90
2, 4300, Note_on_c, 9, 48, 0
2, 4331, Note_on_c, 9, 57, 0
2, 4341, Note_on_c, 9, 36, 81
2, 4362, Note_on_c, 9, 57, 88
2, 4409, Control_c, 9, 4, 83
2, 4429, Note_on_c, 9, 36, 0
2, 4449, Control_c, 9, 4, 70
2, 4450, Note_on_c, 9, 57, 0
2, 4482, Control_c, 9, 4, 43
2, 4512, Control_c, 9, 4, 0
2, 4557, Note_on_c, 9, 44, 80
2, 4572, Control_c, 9, 4, 102
2, 4574, Note_on_c, 9, 57, 58
2, 4612, Control_c, 9, 4, 97
2, 4646, Note_on_c, 9, 44, 0
2, 4659, Control_c, 9, 4, 85
2, 4663, Note_on_c, 9, 57, 0
2, 4755, Control_c, 9, 4, 91
2, 4819, Note_on_c, 9, 40, 69
2, 4825, Note_on_c, 9, 57, 81
2, 4907, Note_on_c, 9, 40, 0
2, 4913, Control_c, 9, 4, 77
2, 4914, Note_on_c, 9, 57, 0
2, 4951, Control_c, 9, 4, 57
2, 4986, Control_c, 9, 4, 16
2, 5024, Control_c, 9, 4, 58
2, 5029, Note_on_c, 9, 44, 67
2, 5057, Control_c, 9, 4, 100
2, 5065, Note_on_c, 9, 57, 27
2, 5104, Control_c, 9, 4, 90
2, 5118, Note_on_c, 9, 44, 0
2, 5134, Control_c, 9, 4, 84
2, 5154, Note_on_c, 9, 57, 0
2, 5205, Note_on_c, 9, 38, 15
2, 5214, Control_c, 9, 4, 89
2, 5293, Note_on_c, 9, 38, 0
2, 5299, Note_on_c, 9, 57, 80
2, 5308, Note_on_c, 9, 36, 82
2, 5382, Control_c, 9, 4, 75
2, 5387, Note_on_c, 9, 57, 0
2, 5397, Note_on_c, 9, 36, 0
2, 5404, Note_on_c, 9, 38, 5
2, 5419, Control_c, 9, 4, 55
2, 5449, Control_c, 9, 4, 0
2, 5491, Note_on_c, 9, 38, 0
2, 5511, Control_c, 9, 4, 64
2, 5514, Note_on_c, 9, 44, 100
2, 5542, Control_c, 9, 4, 100
2, 5548, Note_on_c, 9, 57, 54
2, 5586, Control_c, 9, 4, 93
2, 5602, Note_on_c, 9, 44, 0
2, 5618, Control_c, 9, 4, 88
2, 5637, Note_on_c, 9, 57, 0
2, 5648, Control_c, 9, 4, 84
2, 5670, Control_c, 9, 16, 0
2, 5670, Note_on_c, 9, 38, 43
2, 5718, Control_c, 9, 4, 89
2, 5758, Note_on_c, 9, 38, 0
2, 5787, Note_on_c, 9, 57, 103
2, 5875, Note_on_c, 9, 57, 0
2, 5892, Control_c, 9, 4, 76
2, 5908, Note_on_c, 9, 57, 98
2, 5933, Control_c, 9, 4, 56
2, 5968, Control_c, 9, 4, 13
2, 5996, Note_on_c, 9, 57, 0
2, 6009, Control_c, 9, 4, 54
2, 6013, Note_on_c, 9, 48, 41
2, 6015, Note_on_c, 9, 44, 67
2, 6043, Control_c, 9, 4, 102
2, 6095, Control_c, 9, 4, 90
2, 6101, Note_on_c, 9, 48, 0
2, 6104, Note_on_c, 9, 44, 0
2, 6127, Control_c, 9, 4, 85
2, 6139, Control_c, 9, 18, 0
2, 6139, Note_on_c, 9, 48, 63
2, 6161, Note_on_c, 9, 57, 80
2, 6202, Control_c, 9, 4, 91
2, 6227, Note_on_c, 9, 48, 0
2, 6250, Note_on_c, 9, 57, 0
2, 6274, Note_on_c, 9, 36, 79
2, 6280, Note_on_c, 9, 57, 98
2, 6357, Control_c, 9, 4, 77
2, 6363, Note_on_c, 9, 36, 0
2, 6369, Note_on_c, 9, 57, 0
2, 6397, Control_c, 9, 4, 56
2, 6427, Control_c, 9, 4, 0
2, 6494, Note_on_c, 9, 44, 106
2, 6499, Note_on_c, 9, 57, 58
2, 6503, Control_c, 9, 4, 110
2, 6547, Control_c, 9, 4, 96
2, 6582, Note_on_c, 9, 44, 0
2, 6588, Note_on_c, 9, 57, 0
2, 6597, Control_c, 9, 4, 84
2, 6696, Control_c, 9, 4, 90
2, 6757, Control_c, 9, 16, 126
2, 6758, Note_on_c, 9, 40, 64
2, 6759, Note_on_c, 9, 57, 97
2, 6822, Control_c, 9, 16, 63
2, 6822, Note_on_c, 9, 38, 13
2, 6847, Note_on_c, 9, 40, 0
2, 6849, Note_on_c, 9, 57, 0
2, 6857, Control_c, 9, 4, 76
2, 6889, Control_c, 9, 4, 56
2, 6912, Note_on_c, 9, 38, 0
2, 6926, Control_c, 9, 4, 0
2, 6976, Control_c, 9, 4, 66
2, 6979, Note_on_c, 9, 44, 87
2, 6996, Note_on_c, 9, 57, 50
2, 7006, Control_c, 9, 4, 98
2, 7067, Note_on_c, 9, 44, 0
2, 7077, Control_c, 9, 4, 85
2, 7084, Note_on_c, 9, 57, 0
2, 7126, Control_c, 9, 16, 0
2, 7127, Note_on_c, 9, 38, 15
2, 7178, Control_c, 9, 4, 90
2, 7214, Note_on_c, 9, 38, 0
2, 7231, Note_on_c, 9, 57, 97
2, 7245, Note_on_c, 9, 36, 111
2, 7296, Control_c, 9, 4, 82
2, 7298, Note_on_c, 9, 38, 8
2, 7319, Note_on_c, 9, 57, 0
2, 7333, Note_on_c, 9, 36, 0
2, 7334, Control_c, 9, 4, 70
2, 7352, Note_on_c, 9, 38, 0
2, 7353, Note_on_c, 9, 38, 7
2, 7386, Note_on_c, 9, 38, 0
2, 7388, Control_c, 9, 4, 0
2, 7463, Control_c, 9, 4, 52
2, 7467, Note_on_c, 9, 44, 113
2, 7474, Note_on_c, 9, 57, 88
2, 7494, Control_c, 9, 4, 102
2, 7547, Control_c, 9, 4, 90
2, 7555, Note_on_c, 9, 44, 0
2, 7563, Note_on_c, 9, 57, 0
2, 7582, Control_c, 9, 4, 84
2, 7591, Control_c, 9, 16, 0
2, 7592, Note_on_c, 9, 38, 44
2, 7679, Note_on_c, 9, 38, 0
2, 7680, Control_c, 9, 4, 90
2, 7681, End_track
0, 0, End_of_file
