0, 0, Header, 1, 2, 480
1, 0, Start_track
1, 0, Tempo, 588235
1, 0, Time_signature, 4, 2, 24, 8
1, 0, Key_signature, 0, "major"
1, 1, End_track
2, 0, Start_track
2, 0, Title_t, "Classic Studio Kit"
2, 0, Program_c, 9, 0
2, 0, Control_c, 9, 18, 0
2, 12, Control_c, 9, 4, 96
2, 43, Control_c, 9, 4, 102
2, 48, Control_c, 9, 17, 39
2, 48, Note_on_c, 9, 51, 67
2, 53, Note_on_c, 9, 48, 112
2, 131, Note_on_c, 9, 51, 0
2, 134, Note_on_c, 9, 48, 0
2, 148, Control_c, 9, 4, 90
2, 170, Control_c, 9, 17, 23
2, 171, Note_on_c, 9, 51, 77
2, 181, Control_c, 9, 4, 71
2, 223, Control_c, 9, 4, 0
2, 252, Note_on_c, 9, 51, 0
2, 276, Note_on_c, 9, 36, 65
2, 277, Note_on_c, 9, 44, 119
2, 283, Control_c, 9, 4, 127
2, 317, Control_c, 9, 4, 110
2, 348, Control_c, 9, 4, 92
2, 356, Note_on_c, 9, 36, 0
2, 357, Note_on_c, 9, 44, 0
2, 381, Control_c, 9, 4, 88
2, 414, Control_c, 9, 17, 5
2, 415, Note_on_c, 9, 51, 96
2, 489, Control_c, 9, 4, 95
2, 497, Note_on_c, 9, 51, 0
2, 521, Note_on_c, 9, 36, 74
2, 533, Control_c, 9, 16, 0
2, 534, Note_on_c, 9, 40, 74
2, 603, Note_on_c, 9, 36, 0
2, 614, Note_on_c, 9, 40, 0
2, 647, Control_c, 9, 4, 83
2, 689, Control_c, 9, 4, 52
2, 720, Control_c, 9, 4, 8
2, 755, Note_on_c, 9, 44, 80
2, 759, Control_c, 9, 17, 38
2, 760, Note_on_c, 9, 51, 89
2, 765, Control_c, 9, 4, 127
2, 808, Control_c, 9, 4, 99
2, 838, Note_on_c, 9, 44, 0
2, 840, Note_on_c, 9, 51, 0
2, 853, Control_c, 9, 4, 85
2, 888, Control_c, 9, 18, 0
2, 888, Note_on_c, 9, 48, 46
2, 891, Note_on_c, 9, 36, 65
2, 970, Note_on_c, 9, 48, 0
2, 973, Note_on_c, 9, 36, 0
2, 976, Control_c, 9, 4, 98
2, 1007, Control_c, 9, 17, 48
2, 1008, Note_on_c, 9, 51, 80
2, 1010, Note_on_c, 9, 48, 84
2, 1090, Note_on_c, 9, 51, 0
2, 1092, Note_on_c, 9, 48, 0
2, 1123, Control_c, 9, 4, 84
2, 1127, Control_c, 9, 17, 90
2, 1128, Note_on_c, 9, 51, 71
2, 1168, Control_c, 9, 4, 53
2, 1198, Control_c, 9, 4, 10
2, 1209, Note_on_c, 9, 51, 0
2, 1234, Note_on_c, 9, 44, 80
2, 1245, Control_c, 9, 4, 127
2, 1246, Note_on_c, 9, 36, 45
2, 1287, Control_c, 9, 4, 98
2, 1315, Note_on_c, 9, 44, 0
2, 1328, Note_on_c, 9, 36, 0
2, 1337, Control_c, 9, 4, 88
2, 1449, Control_c, 9, 4, 94
2, 1482, Control_c, 9, 17, 7
2, 1483, Note_on_c, 9, 51, 97
2, 1489, Note_on_c, 9, 36, 76
2, 1489, Note_on_c, 9, 38, 101
2, 1564, Note_on_c, 9, 51, 0
2, 1570, Note_on_c, 9, 38, 0
2, 1571, Note_on_c, 9, 36, 0
2, 1585, Control_c, 9, 4, 88
2, 1618, Control_c, 9, 4, 72
2, 1660, Control_c, 9, 4, 0
2, 1717, Note_on_c, 9, 44, 113
2, 1722, Control_c, 9, 17, 62
2, 1722, Note_on_c, 9, 51, 73
2, 1724, Control_c, 9, 4, 127
2, 1758, Control_c, 9, 4, 110
2, 1791, Control_c, 9, 4, 92
2, 1798, Note_on_c, 9, 44, 0
2, 1803, Note_on_c, 9, 51, 0
2, 1821, Control_c, 9, 4, 87
2, 1844, Control_c, 9, 18, 0
2, 1844, Note_on_c, 9, 48, 51
2, 1855, Note_on_c, 9, 36, 75
2, 1926, Note_on_c, 9, 48, 0
2, 1939, Note_on_c, 9, 36, 0
2, 1943, Control_c, 9, 4, 100
2, 1969, Note_on_c, 9, 48, 84
2, 1972, Control_c, 9, 17, 127
2, 1972, Note_on_c, 9, 51, 64
2, 2051, Note_on_c, 9, 48, 0
2, 2054, Note_on_c, 9, 51, 0
2, 2068, Control_c, 9, 4, 87
2, 2098, Control_c, 9, 17, 51
2, 2099, Note_on_c, 9, 51, 73
2, 2103, Control_c, 9, 4, 70
2, 2147, Control_c, 9, 4, 0
2, 2180, Note_on_c, 9, 51, 0
2, 2197, Note_on_c, 9, 36, 65
2, 2198, Note_on_c, 9, 44, 100
2, 2205, Control_c, 9, 4, 127
2, 2213, Control_c, 9, 17, 51
2, 2214, Note_on_c, 9, 51, 6
2, 2251, Control_c, 9, 4, 97
2, 2279, Note_on_c, 9, 36, 0
2, 2279, Note_on_c, 9, 44, 0
2, 2293, Control_c, 9, 4, 85
2, 2295, Note_on_c, 9, 51, 0
2, 2343, Control_c, 9, 17, 76
2, 2344, Note_on_c, 9, 51, 75
2, 2418, Control_c, 9, 4, 93
2, 2426, Note_on_c, 9, 51, 0
2, 2442, Control_c, 9, 16, 0
2, 2442, Note_on_c, 9, 38, 84
2, 2445, Note_on_c, 9, 36, 77
2, 2516, Control_c, 9, 4, 97
2, 2525, Note_on_c, 9, 38, 0
2, 2527, Note_on_c, 9, 36, 0
2, 2573, Control_c, 9, 4, 85
2, 2605, Control_c, 9, 4, 69
2, 2640, Control_c, 9, 4, 0
2, 2673, Control_c, 9, 17, 44
2, 2674, Note_on_c, 9, 51, 83
2, 2689, Note_on_c, 9, 44, 106
2, 2697, Control_c, 9, 4, 127
2, 2741, Control_c, 9, 4, 98
2, 2756, Note_on_c, 9, 51, 0
2, 2771, Note_on_c, 9, 44, 0
2, 2782, Control_c, 9, 4, 85
2, 2811, Control_c, 9, 18, 0
2, 2811, Note_on_c, 9, 36, 67
2, 2813, Note_on_c, 9, 48, 44
2, 2894, Note_on_c, 9, 36, 0
2, 2894, Note_on_c, 9, 48, 0
2, 2907, Control_c, 9, 4, 98
2, 2935, Control_c, 9, 17, 46
2, 2935, Note_on_c, 9, 51, 83
2, 2940, Note_on_c, 9, 48, 82
2, 3018, Note_on_c, 9, 51, 0
2, 3022, Note_on_c, 9, 48, 0
2, 3037, Control_c, 9, 4, 85
2, 3063, Control_c, 9, 17, 112
2, 3064, Note_on_c, 9, 51, 69
2, 3073, Control_c, 9, 4, 69
2, 3112, Control_c, 9, 4, 0
2, 3146, Control_c, 9, 4, 33
2, 3146, Note_on_c, 9, 51, 0
2, 3154, Note_on_c, 9, 44, 93
2, 3155, Note_on_c, 9, 36, 68
2, 3179, Control_c, 9, 4, 126
2, 3219, Control_c, 9, 4, 93
2, 3235, Note_on_c, 9, 44, 0
2, 3236, Note_on_c, 9, 36, 0
2, 3265, Control_c, 9, 4, 83
2, 3332, Control_c, 9, 4, 87
2, 3363, Control_c, 9, 4, 92
2, 3393, Note_on_c, 9, 36, 70
2, 3399, Note_on_c, 9, 57, 99
2, 3405, Control_c, 9, 16, 106
2, 3406, Note_on_c, 9, 38, 83
2, 3475, Note_on_c, 9, 36, 0
2, 3480, Note_on_c, 9, 57, 0
2, 3486, Note_on_c, 9, 38, 0
2, 3502, Control_c, 9, 4, 85
2, 3536, Control_c, 9, 4, 70
2, 3580, Control_c, 9, 4, 0
2, 3629, Note_on_c, 9, 44, 93
2, 3637, Control_c, 9, 4, 127
2, 3647, Note_on_c, 9, 57, 82
2, 3671, Control_c, 9, 4, 104
2, 3707, Control_c, 9, 4, 91
2, 3711, Note_on_c, 9, 44, 0
2, 3730, Note_on_c, 9, 57, 0
2, 3746, Control_c, 9, 4, 87
2, 3765, Note_on_c, 9, 36, 61
2, 3778, Control_c, 9, 18, 0
2, 3779, Note_on_c, 9, 48, 48
2, 3847, Note_on_c, 9, 36, 0
2, 3853, Control_c, 9, 4, 98
2, 3860, Note_on_c, 9, 48, 0
2, 3894, Note_on_c, 9, 57, 58
2, 3897, Note_on_c, 9, 48, 113
2, 3976, Note_on_c, 9, 57, 0
2, 3977, Note_on_c, 9, 48, 0
2, 3988, Control_c, 9, 4, 86
2, 4018, Note_on_c, 9, 57, 76
2, 4036, Control_c, 9, 4, 54
2, 4066, Control_c, 9, 4, 0
2, 4101, Note_on_c, 9, 57, 0
2, 4107, Note_on_c, 9, 44, 87
2, 4110, Note_on_c, 9, 36, 57
2, 4116, Control_c, 9, 4, 127
2, 4148, Control_c, 9, 4, 97
2, 4189, Note_on_c, 9, 44, 0
2, 4192, Note_on_c, 9, 36, 0
2, 4207, Control_c, 9, 4, 87
2, 4267, Note_on_c, 9, 57, 99
2, 4315, Control_c, 9, 4, 92
2, 4349, Note_on_c, 9, 57, 0
2, 4355, Note_on_c, 9, 36, 67
2, 4378, Control_c, 9, 16, 0
2, 4378, Note_on_c, 9, 40, 67
2, 4438, Note_on_c, 9, 36, 0
2, 4460, Note_on_c, 9, 40, 0
2, 4489, Control_c, 9, 4, 84
2, 4520, Control_c, 9, 4, 70
2, 4559, Control_c, 9, 4, 0
2, 4607, Note_on_c, 9, 44, 93
2, 4616, Control_c, 9, 4, 127
2, 4616, Note_on_c, 9, 57, 50
2, 4649, Control_c, 9, 4, 102
2, 4685, Control_c, 9, 4, 90
2, 4690, Note_on_c, 9, 44, 0
2, 4698, Note_on_c, 9, 57, 0
2, 4725, Control_c, 9, 4, 86
2, 4740, Note_on_c, 9, 36, 62
2, 4746, Control_c, 9, 18, 0
2, 4747, Note_on_c, 9, 48, 45
2, 4823, Note_on_c, 9, 36, 0
2, 4827, Control_c, 9, 4, 96
2, 4828, Note_on_c, 9, 48, 0
2, 4854, Note_on_c, 9, 57, 72
2, 4863, Note_on_c, 9, 48, 72
2, 4936, Note_on_c, 9, 57, 0
2, 4944, Note_on_c, 9, 48, 0
2, 4974, Control_c, 9, 4, 83
2, 4983, Note_on_c, 9, 57, 77
2, 5009, Control_c, 9, 4, 56
2, 5044, Control_c, 9, 4, 0
2, 5067, Note_on_c, 9, 57, 0
2, 5081, Note_on_c, 9, 44, 87
2, 5087, Note_on_c, 9, 36, 61
2, 5092, Control_c, 9, 4, 127
2, 5123, Control_c, 9, 4, 97
2, 5163, Note_on_c, 9, 44, 0
2, 5168, Note_on_c, 9, 36, 0
2, 5177, Control_c, 9, 4, 86
2, 5281, Control_c, 9, 4, 91
2, 5332, Note_on_c, 9, 36, 65
2, 5343, Note_on_c, 9, 40, 65
2, 5345, Note_on_c, 9, 57, 81
2, 5414, Note_on_c, 9, 36, 0
2, 5425, Note_on_c, 9, 40, 0
2, 5427, Note_on_c, 9, 57, 0
2, 5455, Control_c, 9, 4, 84
2, 5485, Control_c, 9, 4, 70
2, 5521, Control_c, 9, 4, 0
2, 5567, Control_c, 9, 4, 48
2, 5572, Note_on_c, 9, 44, 106
2, 5573, Note_on_c, 9, 57, 76
2, 5598, Control_c, 9, 4, 120
2, 5639, Control_c, 9, 4, 93
2, 5655, Note_on_c, 9, 44, 0
2, 5655, Note_on_c, 9, 57, 0
2, 5689, Control_c, 9, 4, 84
2, 5701, Control_c, 9, 18, 0
2, 5701, Note_on_c, 9, 48, 42
2, 5703, Note_on_c, 9, 36, 57
2, 5775, Control_c, 9, 4, 96
2, 5784, Note_on_c, 9, 36, 0
2, 5784, Note_on_c, 9, 48, 0
2, 5810, Control_c, 9, 4, 92
2, 5819, Note_on_c, 9, 48, 68
2, 5820, Note_on_c, 9, 57, 55
2, 5864, Control_c, 9, 4, 96
2, 5901, Note_on_c, 9, 48, 0
2, 5901, Note_on_c, 9, 57, 0
2, 5931, Control_c, 9, 4, 84
2, 5942, Note_on_c, 9, 57, 63
2, 5962, Control_c, 9, 4, 69
2, 6002, Control_c, 9, 4, 0
2, 6024, Note_on_c, 9, 57, 0
2, 6046, Note_on_c, 9, 44, 93
2, 6048, Note_on_c, 9, 36, 57
2, 6057, Control_c, 9, 4, 127
2, 6088, Control_c, 9, 4, 98
2, 6129, Note_on_c, 9, 44, 0
2, 6130, Note_on_c, 9, 36, 0
2, 6142, Control_c, 9, 4, 86
2, 6181, Note_on_c, 9, 57, 77
2, 6250, Control_c, 9, 4, 92
2, 6264, Note_on_c, 9, 57, 0
2, 6289, Note_on_c, 9, 36, 65
2, 6301, Control_c, 9, 16, 0
2, 6302, Note_on_c, 9, 40, 71
2, 6370, Note_on_c, 9, 36, 0
2, 6382, Note_on_c, 9, 40, 0
2, 6439, Control_c, 9, 4, 70
2, 6483, Control_c, 9, 4, 8
2, 6516, Note_on_c, 9, 57, 93
2, 6519, Control_c, 9, 4, 48
2, 6525, Note_on_c, 9, 44, 87
2, 6550, Control_c, 9, 4, 120
2, 6583, Control_c, 9, 4, 97
2, 6599, Note_on_c, 9, 57, 0
2, 6606, Note_on_c, 9, 44, 0
2, 6619, Control_c, 9, 4, 85
2, 6653, Note_on_c, 9, 36, 57
2, 6658, Control_c, 9, 18, 0
2, 6659, Note_on_c, 9, 48, 39
2, 6733, Control_c, 9, 4, 97
2, 6734, Note_on_c, 9, 36, 0
2, 6740, Note_on_c, 9, 48, 0
2, 6761, Note_on_c, 9, 57, 51
2, 6771, Note_on_c, 9, 48, 68
2, 6844, Note_on_c, 9, 57, 0
2, 6852, Note_on_c, 9, 48, 0
2, 6865, Control_c, 9, 4, 84
2, 6886, Note_on_c, 9, 57, 72
2, 6911, Control_c, 9, 4, 54
2, 6942, Control_c, 9, 4, 0
2, 6968, Note_on_c, 9, 57, 0
2, 6985, Note_on_c, 9, 44, 87
2, 6995, Note_on_c, 9, 36, 49
2, 6996, Control_c, 9, 4, 127
2, 7027, Control_c, 9, 4, 97
2, 7067, Note_on_c, 9, 44, 0
2, 7076, Control_c, 9, 4, 85
2, 7078, Note_on_c, 9, 36, 0
2, 7173, Control_c, 9, 4, 90
2, 7239, Note_on_c, 9, 36, 65
2, 7245, Note_on_c, 9, 38, 59
2, 7245, Note_on_c, 9, 57, 79
2, 7321, Note_on_c, 9, 36, 0
2, 7326, Note_on_c, 9, 38, 0
2, 7328, Note_on_c, 9, 57, 0
2, 7341, Control_c, 9, 4, 84
2, 7371, Control_c, 9, 4, 70
2, 7407, Control_c, 9, 4, 0
2, 7464, Control_c, 9, 4, 35
2, 7470, Note_on_c, 9, 44, 113
2, 7488, Note_on_c, 9, 57, 75
2, 7494, Control_c, 9, 4, 120
2, 7525, Control_c, 9, 4, 97
2, 7552, Note_on_c, 9, 44, 0
2, 7565, Control_c, 9, 4, 85
2, 7571, Note_on_c, 9, 57, 0
2, 7607, Control_c, 9, 18, 0
2, 7669, Control_c, 9, 4, 91
2, 7670, End_track
0, 0, End_of_file
