0, 0, Header, 1, 2, 480
1, 0, Start_track
1, 0, Tempo, 512820
1, 0, Time_signature, 4, 2, 24, 8
1, 0, Key_signature, 0, "major"
1, 1, End_track
2, 0, Start_track
2, 0, Title_t, "Midi Drums"
2, 0, Program_c, 9, 0
2, 0, Note_on_c, 9, 36, 69
2, 78, Note_on_c, 9, 36, 0
2, 239, Control_c, 9, 4, 90
2, 239, Note_on_c, 9, 22, 72
2, 334, Note_on_c, 9, 22, 0
2, 357, Control_c, 9, 4, 90
2, 357, Note_on_c, 9, 22, 89
2, 452, Note_on_c, 9, 22, 0
2, 466, Control_c, 9, 4, 90
2, 466, Note_on_c, 9, 22, 110
2, 560, Note_on_c, 9, 22, 0
2, 586, Control_c, 9, 4, 90
2, 586, Note_on_c, 9, 22, 124
2, 681, Note_on_c, 9, 22, 0
2, 716, Note_on_c, 9, 36, 64
2, 810, Note_on_c, 9, 36, 0
2, 969, Note_on_c, 9, 40, 127
2, 1064, Note_on_c, 9, 40, 0
2, 1126, Control_c, 9, 4, 90
2, 1126, Note_on_c, 9, 42, 27
2, 1215, Control_c, 9, 4, 90
2, 1215, Note_on_c, 9, 22, 76
2, 1221, Note_on_c, 9, 42, 0
2, 1310, Note_on_c, 9, 22, 0
2, 1326, Control_c, 9, 4, 90
2, 1326, Note_on_c, 9, 22, 85
2, 1420, Note_on_c, 9, 22, 0
2, 1442, Control_c, 9, 4, 90
2, 1442, Note_on_c, 9, 22, 108
2, 1537, Note_on_c, 9, 22, 0
2, 1562, Control_c, 9, 4, 90
2, 1562, Note_on_c, 9, 22, 27
2, 1651, Note_on_c, 9, 36, 55
2, 1656, Note_on_c, 9, 22, 0
2, 1746, Note_on_c, 9, 36, 0
2, 1770, Note_on_c, 9, 36, 54
2, 1777, Control_c, 9, 4, 90
2, 1777, Note_on_c, 9, 42, 5
2, 1864, Note_on_c, 9, 36, 0
2, 1873, Note_on_c, 9, 42, 0
2, 2000, Control_c, 9, 4, 90
2, 2000, Note_on_c, 9, 42, 6
2, 2095, Note_on_c, 9, 42, 0
2, 2138, Control_c, 9, 4, 90
2, 2138, Note_on_c, 9, 22, 127
2, 2233, Note_on_c, 9, 22, 0
2, 2246, Control_c, 9, 4, 90
2, 2246, Note_on_c, 9, 22, 76
2, 2341, Note_on_c, 9, 22, 0
2, 2362, Control_c, 9, 4, 90
2, 2362, Note_on_c, 9, 22, 80
2, 2457, Note_on_c, 9, 22, 0
2, 2486, Control_c, 9, 4, 90
2, 2486, Note_on_c, 9, 22, 86
2, 2581, Note_on_c, 9, 22, 0
2, 2608, Note_on_c, 9, 36, 68
2, 2703, Note_on_c, 9, 36, 0
2, 2762, Control_c, 9, 4, 90
2, 2762, Note_on_c, 9, 42, 8
2, 2857, Note_on_c, 9, 42, 0
2, 2872, Note_on_c, 9, 40, 127
2, 2967, Note_on_c, 9, 40, 0
2, 3013, Control_c, 9, 4, 90
2, 3013, Note_on_c, 9, 42, 29
2, 3108, Note_on_c, 9, 42, 0
2, 3123, Control_c, 9, 4, 90
2, 3123, Note_on_c, 9, 22, 65
2, 3218, Note_on_c, 9, 22, 0
2, 3234, Control_c, 9, 4, 90
2, 3234, Note_on_c, 9, 22, 110
2, 3329, Note_on_c, 9, 22, 0
2, 3353, Control_c, 9, 4, 90
2, 3353, Note_on_c, 9, 22, 127
2, 3448, Note_on_c, 9, 22, 0
2, 3479, Control_c, 9, 4, 90
2, 3479, Note_on_c, 9, 22, 48
2, 3573, Note_on_c, 9, 22, 0
2, 3601, Note_on_c, 9, 36, 84
2, 3603, Note_on_c, 9, 40, 127
2, 3695, Note_on_c, 9, 36, 0
2, 3698, Note_on_c, 9, 40, 0
2, 3722, Note_on_c, 9, 38, 121
2, 3817, Note_on_c, 9, 38, 0
2, 3837, Control_c, 9, 4, 90
2, 3837, Note_on_c, 9, 22, 68
2, 3932, Note_on_c, 9, 22, 0
2, 3960, Control_c, 9, 4, 90
2, 3960, Note_on_c, 9, 22, 53
2, 4054, Note_on_c, 9, 22, 0
2, 4075, Control_c, 9, 4, 90
2, 4075, Note_on_c, 9, 22, 127
2, 4170, Note_on_c, 9, 22, 0
2, 4195, Control_c, 9, 4, 90
2, 4195, Note_on_c, 9, 22, 88
2, 4289, Note_on_c, 9, 22, 0
2, 4307, Note_on_c, 9, 36, 61
2, 4314, Control_c, 9, 4, 90
2, 4314, Note_on_c, 9, 22, 68
2, 4402, Note_on_c, 9, 36, 0
2, 4408, Note_on_c, 9, 22, 0
2, 4427, Control_c, 9, 4, 90
2, 4427, Note_on_c, 9, 22, 65
2, 4521, Note_on_c, 9, 22, 0
2, 4549, Control_c, 9, 4, 90
2, 4549, Note_on_c, 9, 22, 106
2, 4554, Note_on_c, 9, 36, 53
2, 4643, Note_on_c, 9, 22, 0
2, 4648, Note_on_c, 9, 36, 0
2, 4688, Control_c, 9, 4, 90
2, 4688, Note_on_c, 9, 22, 31
2, 4783, Note_on_c, 9, 22, 0
2, 4803, Note_on_c, 9, 40, 127
2, 4898, Note_on_c, 9, 40, 0
2, 5044, Control_c, 9, 4, 90
2, 5044, Note_on_c, 9, 22, 54
2, 5139, Note_on_c, 9, 22, 0
2, 5150, Control_c, 9, 4, 90
2, 5150, Note_on_c, 9, 22, 107
2, 5245, Note_on_c, 9, 22, 0
2, 5270, Control_c, 9, 4, 90
2, 5270, Note_on_c, 9, 22, 127
2, 5366, Note_on_c, 9, 22, 0
2, 5398, Control_c, 9, 4, 90
2, 5398, Note_on_c, 9, 22, 42
2, 5493, Note_on_c, 9, 22, 0
2, 5514, Note_on_c, 9, 36, 58
2, 5608, Note_on_c, 9, 36, 0
2, 5630, Note_on_c, 9, 36, 57
2, 5724, Note_on_c, 9, 36, 0
2, 5901, Control_c, 9, 4, 73
2, 5931, Control_c, 9, 4, 10
2, 5969, Control_c, 9, 4, 78
2, 5969, Note_on_c, 9, 44, 77
2, 5982, Note_on_c, 9, 40, 127
2, 5999, Control_c, 9, 4, 90
2, 6064, Note_on_c, 9, 44, 0
2, 6076, Note_on_c, 9, 40, 0
2, 6092, Note_on_c, 9, 38, 127
2, 6151, Control_c, 9, 4, 42
2, 6186, Note_on_c, 9, 38, 0
2, 6187, Control_c, 9, 4, 79
2, 6188, Note_on_c, 9, 44, 40
2, 6212, Note_on_c, 9, 40, 127
2, 6217, Control_c, 9, 4, 90
2, 6282, Note_on_c, 9, 44, 0
2, 6306, Note_on_c, 9, 40, 0
2, 6332, Note_on_c, 9, 38, 127
2, 6426, Note_on_c, 9, 38, 0
2, 6460, Note_on_c, 9, 36, 76
2, 6554, Note_on_c, 9, 36, 0
2, 6705, Note_on_c, 9, 36, 94
2, 6800, Note_on_c, 9, 36, 0
2, 7183, Note_on_c, 9, 40, 127
2, 7278, Note_on_c, 9, 40, 0
2, 7305, Note_on_c, 9, 40, 127
2, 7400, Note_on_c, 9, 40, 0
2, 7415, Note_on_c, 9, 40, 127
2, 7509, Note_on_c, 9, 40, 0
2, 7510, End_track
0, 0, End_of_file
