0, 0, Header, 1, 2, 480
1, 0, Start_track
1, 0, Tempo, 588235
1, 0, Time_signature, 4, 2, 24, 8
1, 0, Key_signature, 0, "major"
1, 1, End_track
2, 0, Start_track
2, 0, Title_t, "Classic Studio Kit"
2, 0, Program_c, 9, 0
2, 0, Control_c, 9, 18, 0
2, 8, Control_c, 9, 4, 94
2, 45, Note_on_c, 9, 48, 71
2, 46, Control_c, 9, 17, 62
2, 47, Note_on_c, 9, 51, 70
2, 127, Note_on_c, 9, 48, 0
2, 127, Note_on_c, 9, 51, 0
2, 145, Control_c, 9, 4, 87
2, 161, Control_c, 9, 17, 127
2, 162, Note_on_c, 9, 51, 70
2, 180, Control_c, 9, 4, 70
2, 216, Control_c, 9, 4, 0
2, 243, Note_on_c, 9, 51, 0
2, 270, Control_c, 9, 4, 35
2, 273, Note_on_c, 9, 36, 61
2, 276, Note_on_c, 9, 44, 126
2, 301, Control_c, 9, 4, 120
2, 337, Control_c, 9, 4, 97
2, 355, Note_on_c, 9, 36, 0
2, 358, Note_on_c, 9, 44, 0
2, 375, Control_c, 9, 4, 85
2, 413, Control_c, 9, 17, 4
2, 414, Note_on_c, 9, 51, 88
2, 495, Note_on_c, 9, 51, 0
2, 497, Control_c, 9, 4, 97
2, 518, Note_on_c, 9, 36, 65
2, 526, Note_on_c, 9, 38, 71
2, 600, Note_on_c, 9, 36, 0
2, 607, Note_on_c, 9, 38, 0
2, 622, Control_c, 9, 4, 84
2, 652, Control_c, 9, 4, 70
2, 690, Control_c, 9, 4, 0
2, 751, Control_c, 9, 17, 28
2, 752, Note_on_c, 9, 51, 80
2, 753, Note_on_c, 9, 44, 127
2, 757, Control_c, 9, 4, 127
2, 795, Control_c, 9, 4, 110
2, 831, Note_on_c, 9, 51, 0
2, 832, Note_on_c, 9, 44, 0
2, 842, Control_c, 9, 4, 85
2, 875, Control_c, 9, 18, 0
2, 876, Note_on_c, 9, 48, 48
2, 879, Note_on_c, 9, 36, 59
2, 957, Note_on_c, 9, 48, 0
2, 961, Note_on_c, 9, 36, 0
2, 969, Control_c, 9, 4, 99
2, 995, Control_c, 9, 17, 52
2, 995, Note_on_c, 9, 51, 68
2, 1001, Note_on_c, 9, 48, 72
2, 1076, Note_on_c, 9, 51, 0
2, 1082, Note_on_c, 9, 48, 0
2, 1095, Control_c, 9, 4, 88
2, 1122, Control_c, 9, 17, 39
2, 1123, Note_on_c, 9, 51, 75
2, 1125, Control_c, 9, 4, 70
2, 1160, Control_c, 9, 4, 0
2, 1204, Note_on_c, 9, 51, 0
2, 1220, Control_c, 9, 4, 33
2, 1225, Note_on_c, 9, 36, 59
2, 1227, Note_on_c, 9, 44, 127
2, 1251, Control_c, 9, 4, 122
2, 1285, Control_c, 9, 4, 97
2, 1307, Note_on_c, 9, 36, 0
2, 1307, Note_on_c, 9, 44, 0
2, 1326, Control_c, 9, 4, 85
2, 1454, Control_c, 9, 17, 6
2, 1454, Note_on_c, 9, 51, 90
2, 1456, Control_c, 9, 4, 94
2, 1467, Control_c, 9, 16, 0
2, 1467, Note_on_c, 9, 38, 70
2, 1470, Note_on_c, 9, 36, 65
2, 1536, Note_on_c, 9, 51, 0
2, 1550, Note_on_c, 9, 38, 0
2, 1553, Note_on_c, 9, 36, 0
2, 1594, Control_c, 9, 4, 72
2, 1638, Control_c, 9, 4, 0
2, 1698, Control_c, 9, 4, 32
2, 1704, Note_on_c, 9, 44, 127
2, 1710, Control_c, 9, 17, 36
2, 1711, Note_on_c, 9, 51, 80
2, 1729, Control_c, 9, 4, 122
2, 1766, Control_c, 9, 4, 98
2, 1786, Note_on_c, 9, 44, 0
2, 1792, Note_on_c, 9, 51, 0
2, 1805, Control_c, 9, 4, 85
2, 1816, Control_c, 9, 18, 0
2, 1816, Note_on_c, 9, 48, 48
2, 1825, Note_on_c, 9, 36, 49
2, 1898, Note_on_c, 9, 48, 0
2, 1908, Note_on_c, 9, 36, 0
2, 1931, Control_c, 9, 4, 120
2, 1938, Note_on_c, 9, 48, 73
2, 1942, Control_c, 9, 17, 60
2, 1943, Note_on_c, 9, 51, 65
2, 1996, Control_c, 9, 4, 99
2, 2020, Note_on_c, 9, 48, 0
2, 2024, Note_on_c, 9, 51, 0
2, 2039, Control_c, 9, 4, 72
2, 2067, Control_c, 9, 17, 39
2, 2068, Note_on_c, 9, 51, 76
2, 2086, Control_c, 9, 4, 0
2, 2149, Note_on_c, 9, 51, 0
2, 2170, Control_c, 9, 4, 34
2, 2170, Note_on_c, 9, 36, 65
2, 2175, Note_on_c, 9, 44, 127
2, 2201, Control_c, 9, 4, 120
2, 2252, Note_on_c, 9, 36, 0
2, 2255, Control_c, 9, 4, 95
2, 2258, Note_on_c, 9, 44, 0
2, 2296, Control_c, 9, 4, 70
2, 2310, Control_c, 9, 17, 38
2, 2310, Note_on_c, 9, 51, 71
2, 2330, Control_c, 9, 4, 0
2, 2393, Note_on_c, 9, 51, 0
2, 2400, Note_on_c, 9, 46, 7
2, 2409, Control_c, 9, 4, 32
2, 2415, Note_on_c, 9, 44, 126
2, 2418, Note_on_c, 9, 36, 81
2, 2426, Note_on_c, 9, 38, 71
2, 2440, Control_c, 9, 4, 102
2, 2472, Control_c, 9, 4, 98
2, 2481, Note_on_c, 9, 46, 0
2, 2496, Note_on_c, 9, 44, 0
2, 2501, Note_on_c, 9, 36, 0
2, 2507, Note_on_c, 9, 38, 0
2, 2518, Control_c, 9, 4, 84
2, 2650, Control_c, 9, 17, 41
2, 2651, Note_on_c, 9, 51, 86
2, 2658, Control_c, 9, 4, 120
2, 2716, Control_c, 9, 4, 96
2, 2733, Note_on_c, 9, 51, 0
2, 2759, Control_c, 9, 4, 70
2, 2767, Note_on_c, 9, 36, 54
2, 2768, Control_c, 9, 18, 0
2, 2769, Note_on_c, 9, 48, 50
2, 2793, Control_c, 9, 4, 0
2, 2849, Note_on_c, 9, 36, 0
2, 2849, Note_on_c, 9, 48, 0
2, 2884, Note_on_c, 9, 44, 127
2, 2892, Control_c, 9, 4, 127
2, 2898, Note_on_c, 9, 48, 77
2, 2902, Control_c, 9, 17, 0
2, 2902, Note_on_c, 9, 51, 56
2, 2935, Control_c, 9, 4, 120
2, 2967, Note_on_c, 9, 44, 0
2, 2975, Control_c, 9, 4, 92
2, 2978, Note_on_c, 9, 48, 0
2, 2984, Note_on_c, 9, 51, 0
2, 3023, Control_c, 9, 17, 47
2, 3023, Note_on_c, 9, 51, 69
2, 3105, Note_on_c, 9, 51, 0
2, 3113, Control_c, 9, 4, 110
2, 3117, Note_on_c, 9, 36, 62
2, 3151, Control_c, 9, 4, 102
2, 3184, Control_c, 9, 4, 92
2, 3199, Note_on_c, 9, 36, 0
2, 3320, Control_c, 9, 17, 63
2, 3321, Note_on_c, 9, 51, 62
2, 3351, Note_on_c, 9, 36, 74
2, 3360, Control_c, 9, 16, 0
2, 3361, Note_on_c, 9, 38, 93
2, 3380, Control_c, 9, 4, 96
2, 3402, Note_on_c, 9, 51, 0
2, 3434, Note_on_c, 9, 36, 0
2, 3435, Control_c, 9, 4, 90
2, 3442, Note_on_c, 9, 38, 0
2, 3474, Control_c, 9, 4, 72
2, 3519, Control_c, 9, 4, 0
2, 3592, Note_on_c, 9, 44, 127
2, 3598, Control_c, 9, 17, 43
2, 3599, Note_on_c, 9, 51, 88
2, 3601, Control_c, 9, 4, 127
2, 3642, Control_c, 9, 4, 112
2, 3674, Note_on_c, 9, 44, 0
2, 3678, Control_c, 9, 4, 93
2, 3681, Note_on_c, 9, 51, 0
2, 3711, Control_c, 9, 4, 88
2, 3715, Control_c, 9, 18, 0
2, 3715, Note_on_c, 9, 48, 51
2, 3722, Note_on_c, 9, 36, 53
2, 3798, Note_on_c, 9, 48, 0
2, 3804, Note_on_c, 9, 36, 0
2, 3838, Control_c, 9, 4, 112
2, 3846, Note_on_c, 9, 48, 80
2, 3847, Control_c, 9, 17, 99
2, 3848, Note_on_c, 9, 51, 66
2, 3928, Note_on_c, 9, 48, 0
2, 3930, Note_on_c, 9, 51, 0
2, 3939, Control_c, 9, 4, 92
2, 3971, Control_c, 9, 17, 37
2, 3971, Note_on_c, 9, 51, 69
2, 3972, Control_c, 9, 4, 74
2, 4009, Control_c, 9, 4, 0
2, 4053, Note_on_c, 9, 51, 0
2, 4071, Note_on_c, 9, 36, 62
2, 4076, Note_on_c, 9, 46, 14
2, 4086, Note_on_c, 9, 44, 127
2, 4090, Control_c, 9, 4, 127
2, 4136, Control_c, 9, 4, 120
2, 4153, Note_on_c, 9, 36, 0
2, 4157, Note_on_c, 9, 46, 0
2, 4168, Note_on_c, 9, 44, 0
2, 4174, Control_c, 9, 4, 85
2, 4205, Control_c, 9, 17, 41
2, 4206, Note_on_c, 9, 51, 80
2, 4220, Control_c, 9, 4, 76
2, 4287, Note_on_c, 9, 51, 0
2, 4308, Control_c, 9, 4, 116
2, 4311, Note_on_c, 9, 36, 86
2, 4321, Note_on_c, 9, 38, 75
2, 4339, Control_c, 9, 4, 110
2, 4375, Control_c, 9, 4, 93
2, 4393, Note_on_c, 9, 36, 0
2, 4403, Note_on_c, 9, 38, 0
2, 4421, Control_c, 9, 4, 81
2, 4469, Control_c, 9, 4, 70
2, 4505, Control_c, 9, 4, 50
2, 4542, Control_c, 9, 4, 66
2, 4549, Note_on_c, 9, 44, 28
2, 4560, Control_c, 9, 17, 73
2, 4561, Note_on_c, 9, 51, 96
2, 4574, Control_c, 9, 4, 118
2, 4623, Control_c, 9, 4, 95
2, 4631, Note_on_c, 9, 44, 0
2, 4643, Note_on_c, 9, 51, 0
2, 4654, Control_c, 9, 4, 82
2, 4676, Note_on_c, 9, 36, 59
2, 4679, Control_c, 9, 18, 0
2, 4680, Note_on_c, 9, 48, 46
2, 4687, Control_c, 9, 4, 63
2, 4721, Control_c, 9, 4, 0
2, 4759, Note_on_c, 9, 36, 0
2, 4761, Note_on_c, 9, 48, 0
2, 4784, Control_c, 9, 4, 33
2, 4791, Note_on_c, 9, 44, 113
2, 4800, Control_c, 9, 17, 127
2, 4801, Note_on_c, 9, 51, 63
2, 4803, Note_on_c, 9, 48, 78
2, 4816, Control_c, 9, 4, 120
2, 4854, Control_c, 9, 4, 110
2, 4872, Note_on_c, 9, 44, 0
2, 4883, Note_on_c, 9, 48, 0
2, 4883, Note_on_c, 9, 51, 0
2, 4885, Control_c, 9, 4, 92
2, 4920, Control_c, 9, 17, 56
2, 4920, Note_on_c, 9, 51, 75
2, 4989, Control_c, 9, 4, 88
2, 5002, Note_on_c, 9, 51, 0
2, 5029, Control_c, 9, 4, 112
2, 5039, Note_on_c, 9, 36, 62
2, 5074, Control_c, 9, 4, 94
2, 5107, Control_c, 9, 4, 90
2, 5121, Note_on_c, 9, 36, 0
2, 5274, Control_c, 9, 17, 35
2, 5275, Control_c, 9, 16, 0
2, 5275, Note_on_c, 9, 51, 96
2, 5276, Note_on_c, 9, 38, 77
2, 5281, Note_on_c, 9, 36, 76
2, 5289, Control_c, 9, 4, 95
2, 5320, Control_c, 9, 4, 99
2, 5352, Control_c, 9, 4, 93
2, 5355, Note_on_c, 9, 51, 0
2, 5357, Note_on_c, 9, 38, 0
2, 5364, Note_on_c, 9, 36, 0
2, 5401, Control_c, 9, 4, 70
2, 5439, Control_c, 9, 4, 0
2, 5502, Note_on_c, 9, 46, 11
2, 5510, Control_c, 9, 4, 34
2, 5515, Note_on_c, 9, 44, 127
2, 5525, Control_c, 9, 17, 39
2, 5525, Note_on_c, 9, 51, 78
2, 5541, Control_c, 9, 4, 120
2, 5584, Note_on_c, 9, 46, 0
2, 5597, Note_on_c, 9, 44, 0
2, 5600, Control_c, 9, 4, 92
2, 5607, Note_on_c, 9, 51, 0
2, 5634, Control_c, 9, 18, 0
2, 5635, Note_on_c, 9, 48, 48
2, 5636, Control_c, 9, 4, 87
2, 5646, Note_on_c, 9, 36, 57
2, 5717, Note_on_c, 9, 48, 0
2, 5727, Note_on_c, 9, 36, 0
2, 5753, Control_c, 9, 4, 110
2, 5758, Control_c, 9, 17, 56
2, 5759, Note_on_c, 9, 51, 66
2, 5760, Note_on_c, 9, 48, 69
2, 5840, Note_on_c, 9, 48, 0
2, 5840, Note_on_c, 9, 51, 0
2, 5854, Control_c, 9, 4, 98
2, 5879, Control_c, 9, 17, 54
2, 5880, Note_on_c, 9, 51, 71
2, 5921, Control_c, 9, 4, 92
2, 5962, Note_on_c, 9, 51, 0
2, 5989, Control_c, 9, 4, 120
2, 5991, Note_on_c, 9, 36, 68
2, 6069, Control_c, 9, 4, 91
2, 6073, Note_on_c, 9, 36, 0
2, 6109, Control_c, 9, 4, 73
2, 6122, Control_c, 9, 17, 46
2, 6122, Note_on_c, 9, 51, 68
2, 6144, Control_c, 9, 4, 0
2, 6204, Note_on_c, 9, 51, 0
2, 6207, Note_on_c, 9, 46, 6
2, 6217, Control_c, 9, 4, 33
2, 6224, Note_on_c, 9, 44, 127
2, 6229, Note_on_c, 9, 36, 78
2, 6235, Note_on_c, 9, 38, 71
2, 6249, Control_c, 9, 4, 120
2, 6289, Note_on_c, 9, 46, 0
2, 6290, Control_c, 9, 4, 98
2, 6305, Note_on_c, 9, 44, 0
2, 6311, Note_on_c, 9, 36, 0
2, 6317, Note_on_c, 9, 38, 0
2, 6328, Control_c, 9, 4, 83
2, 6458, Control_c, 9, 4, 118
2, 6460, Control_c, 9, 17, 72
2, 6461, Note_on_c, 9, 51, 88
2, 6527, Control_c, 9, 4, 97
2, 6542, Note_on_c, 9, 51, 0
2, 6561, Control_c, 9, 4, 82
2, 6577, Control_c, 9, 18, 0
2, 6578, Note_on_c, 9, 48, 43
2, 6583, Note_on_c, 9, 36, 60
2, 6591, Control_c, 9, 4, 68
2, 6622, Control_c, 9, 4, 0
2, 6659, Note_on_c, 9, 48, 0
2, 6665, Note_on_c, 9, 36, 0
2, 6693, Note_on_c, 9, 46, 8
2, 6699, Control_c, 9, 17, 127
2, 6700, Note_on_c, 9, 51, 56
2, 6704, Note_on_c, 9, 44, 127
2, 6707, Note_on_c, 9, 48, 79
2, 6710, Control_c, 9, 4, 127
2, 6754, Control_c, 9, 4, 114
2, 6773, Note_on_c, 9, 46, 0
2, 6782, Note_on_c, 9, 51, 0
2, 6787, Note_on_c, 9, 44, 0
2, 6787, Note_on_c, 9, 48, 0
2, 6799, Control_c, 9, 4, 91
2, 6821, Control_c, 9, 17, 49
2, 6822, Note_on_c, 9, 51, 71
2, 6903, Note_on_c, 9, 51, 0
2, 6920, Control_c, 9, 4, 110
2, 6946, Note_on_c, 9, 36, 64
2, 6973, Control_c, 9, 4, 96
2, 7028, Note_on_c, 9, 36, 0
2, 7139, Control_c, 9, 4, 92
2, 7174, Control_c, 9, 17, 40
2, 7175, Note_on_c, 9, 51, 85
2, 7182, Control_c, 9, 16, 0
2, 7183, Note_on_c, 9, 36, 73
2, 7183, Note_on_c, 9, 38, 70
2, 7208, Control_c, 9, 4, 102
2, 7256, Note_on_c, 9, 51, 0
2, 7263, Note_on_c, 9, 38, 0
2, 7265, Note_on_c, 9, 36, 0
2, 7273, Control_c, 9, 4, 89
2, 7303, Control_c, 9, 4, 73
2, 7345, Control_c, 9, 4, 0
2, 7415, Note_on_c, 9, 44, 127
2, 7421, Control_c, 9, 4, 127
2, 7431, Control_c, 9, 17, 53
2, 7431, Note_on_c, 9, 51, 82
2, 7465, Control_c, 9, 4, 118
2, 7497, Note_on_c, 9, 44, 0
2, 7506, Control_c, 9, 4, 90
2, 7513, Note_on_c, 9, 51, 0
2, 7546, Control_c, 9, 18, 0
2, 7547, Note_on_c, 9, 48, 48
2, 7552, Note_on_c, 9, 36, 65
2, 7629, Note_on_c, 9, 48, 0
2, 7635, Note_on_c, 9, 36, 0
2, 7646, Control_c, 9, 4, 112
2, 7659, Control_c, 9, 17, 127
2, 7660, End_track
0, 0, End_of_file
