0, 0, Header, 1, 2, 480
1, 0, Start_track
1, 0, Tempo, 588235
1, 0, Time_signature, 4, 2, 24, 8
1, 0, Key_signature, 0, "major"
1, 1, End_track
2, 0, Start_track
2, 0, Title_t, "Classic Studio Kit"
2, 0, Program_c, 9, 0
2, 0, Control_c, 9, 18, 0
2, 17, Control_c, 9, 4, 102
2, 37, Control_c, 9, 17, 77
2, 38, Note_on_c, 9, 51, 57
2, 49, Note_on_c, 9, 48, 61
2, 120, Note_on_c, 9, 51, 0
2, 130, Note_on_c, 9, 48, 0
2, 132, Control_c, 9, 4, 92
2, 168, Control_c, 9, 4, 77
2, 176, Control_c, 9, 17, 127
2, 177, Note_on_c, 9, 51, 71
2, 210, Control_c, 9, 4, 0
2, 258, Note_on_c, 9, 51, 0
2, 271, Control_c, 9, 4, 33
2, 271, Note_on_c, 9, 36, 40
2, 277, Note_on_c, 9, 44, 126
2, 302, Control_c, 9, 4, 116
2, 343, Control_c, 9, 4, 102
2, 353, Note_on_c, 9, 36, 0
2, 359, Note_on_c, 9, 44, 0
2, 374, Control_c, 9, 4, 89
2, 505, Control_c, 9, 4, 95
2, 527, Note_on_c, 9, 36, 81
2, 528, Control_c, 9, 17, 65
2, 528, Note_on_c, 9, 51, 94
2, 533, Control_c, 9, 16, 0
2, 533, Note_on_c, 9, 38, 70
2, 609, Note_on_c, 9, 36, 0
2, 610, Note_on_c, 9, 51, 0
2, 613, Note_on_c, 9, 38, 0
2, 635, Control_c, 9, 4, 83
2, 667, Control_c, 9, 4, 70
2, 704, Control_c, 9, 4, 0
2, 761, Control_c, 9, 4, 49
2, 765, Note_on_c, 9, 44, 113
2, 772, Control_c, 9, 17, 87
2, 773, Note_on_c, 9, 51, 76
2, 791, Control_c, 9, 4, 120
2, 834, Control_c, 9, 4, 96
2, 848, Note_on_c, 9, 44, 0
2, 855, Note_on_c, 9, 51, 0
2, 874, Control_c, 9, 4, 84
2, 882, Control_c, 9, 18, 0
2, 883, Note_on_c, 9, 48, 46
2, 887, Note_on_c, 9, 36, 39
2, 964, Note_on_c, 9, 48, 0
2, 969, Note_on_c, 9, 36, 0
2, 995, Control_c, 9, 4, 110
2, 1005, Note_on_c, 9, 48, 59
2, 1010, Control_c, 9, 17, 77
2, 1011, Note_on_c, 9, 51, 56
2, 1070, Control_c, 9, 4, 96
2, 1087, Note_on_c, 9, 48, 0
2, 1091, Note_on_c, 9, 51, 0
2, 1110, Control_c, 9, 4, 83
2, 1137, Control_c, 9, 17, 87
2, 1137, Note_on_c, 9, 51, 71
2, 1144, Control_c, 9, 4, 69
2, 1178, Control_c, 9, 4, 0
2, 1219, Note_on_c, 9, 51, 0
2, 1228, Note_on_c, 9, 36, 47
2, 1234, Control_c, 9, 4, 48
2, 1239, Note_on_c, 9, 44, 113
2, 1265, Control_c, 9, 4, 118
2, 1310, Note_on_c, 9, 36, 0
2, 1320, Note_on_c, 9, 44, 0
2, 1322, Control_c, 9, 4, 91
2, 1357, Control_c, 9, 4, 86
2, 1363, Control_c, 9, 17, 40
2, 1363, Note_on_c, 9, 51, 81
2, 1445, Note_on_c, 9, 51, 0
2, 1465, Control_c, 9, 4, 98
2, 1479, Note_on_c, 9, 38, 72
2, 1484, Note_on_c, 9, 36, 60
2, 1560, Note_on_c, 9, 38, 0
2, 1567, Note_on_c, 9, 36, 0
2, 1585, Control_c, 9, 4, 85
2, 1619, Control_c, 9, 4, 70
2, 1662, Control_c, 9, 4, 0
2, 1698, Control_c, 9, 17, 87
2, 1699, Note_on_c, 9, 51, 77
2, 1709, Control_c, 9, 4, 33
2, 1715, Note_on_c, 9, 44, 113
2, 1740, Control_c, 9, 4, 120
2, 1780, Note_on_c, 9, 51, 0
2, 1785, Control_c, 9, 4, 96
2, 1798, Note_on_c, 9, 44, 0
2, 1821, Control_c, 9, 4, 85
2, 1824, Control_c, 9, 18, 0
2, 1824, Note_on_c, 9, 48, 46
2, 1846, Note_on_c, 9, 36, 42
2, 1905, Note_on_c, 9, 48, 0
2, 1928, Note_on_c, 9, 36, 0
2, 1947, Control_c, 9, 4, 108
2, 1950, Note_on_c, 9, 48, 59
2, 1953, Control_c, 9, 17, 85
2, 1954, Note_on_c, 9, 51, 57
2, 2019, Control_c, 9, 4, 97
2, 2032, Note_on_c, 9, 48, 0
2, 2035, Note_on_c, 9, 51, 0
2, 2064, Control_c, 9, 4, 84
2, 2089, Control_c, 9, 17, 127
2, 2089, Note_on_c, 9, 51, 68
2, 2097, Control_c, 9, 4, 70
2, 2138, Control_c, 9, 4, 0
2, 2170, Note_on_c, 9, 51, 0
2, 2182, Control_c, 9, 4, 33
2, 2188, Note_on_c, 9, 36, 52
2, 2190, Note_on_c, 9, 44, 113
2, 2204, Control_c, 9, 17, 127
2, 2205, Note_on_c, 9, 51, 5
2, 2215, Control_c, 9, 4, 116
2, 2270, Note_on_c, 9, 36, 0
2, 2270, Note_on_c, 9, 44, 0
2, 2274, Control_c, 9, 4, 90
2, 2286, Note_on_c, 9, 51, 0
2, 2417, Control_c, 9, 4, 96
2, 2419, Control_c, 9, 17, 11
2, 2420, Note_on_c, 9, 51, 85
2, 2436, Control_c, 9, 16, 0
2, 2437, Note_on_c, 9, 38, 59
2, 2441, Note_on_c, 9, 36, 58
2, 2502, Note_on_c, 9, 51, 0
2, 2520, Note_on_c, 9, 38, 0
2, 2523, Note_on_c, 9, 36, 0
2, 2540, Control_c, 9, 4, 83
2, 2573, Control_c, 9, 4, 70
2, 2609, Control_c, 9, 4, 0
2, 2665, Control_c, 9, 4, 51
2, 2670, Note_on_c, 9, 44, 119
2, 2671, Control_c, 9, 17, 94
2, 2671, Note_on_c, 9, 51, 75
2, 2695, Control_c, 9, 4, 118
2, 2751, Note_on_c, 9, 44, 0
2, 2752, Note_on_c, 9, 51, 0
2, 2755, Control_c, 9, 4, 91
2, 2783, Control_c, 9, 18, 0
2, 2783, Note_on_c, 9, 48, 46
2, 2785, Control_c, 9, 4, 85
2, 2797, Note_on_c, 9, 36, 33
2, 2866, Note_on_c, 9, 48, 0
2, 2879, Note_on_c, 9, 36, 0
2, 2904, Note_on_c, 9, 48, 62
2, 2906, Control_c, 9, 4, 112
2, 2911, Control_c, 9, 17, 108
2, 2911, Note_on_c, 9, 51, 58
2, 2986, Note_on_c, 9, 48, 0
2, 2992, Control_c, 9, 4, 85
2, 2992, Note_on_c, 9, 51, 0
2, 3022, Control_c, 9, 4, 70
2, 3035, Control_c, 9, 17, 99
2, 3036, Note_on_c, 9, 51, 71
2, 3060, Control_c, 9, 4, 0
2, 3117, Note_on_c, 9, 51, 0
2, 3131, Note_on_c, 9, 46, 9
2, 3140, Control_c, 9, 4, 32
2, 3140, Note_on_c, 9, 36, 62
2, 3145, Note_on_c, 9, 44, 127
2, 3149, Control_c, 9, 17, 99
2, 3150, Note_on_c, 9, 51, 6
2, 3171, Control_c, 9, 4, 114
2, 3205, Control_c, 9, 4, 118
2, 3213, Note_on_c, 9, 46, 0
2, 3222, Note_on_c, 9, 36, 0
2, 3227, Note_on_c, 9, 44, 0
2, 3232, Note_on_c, 9, 51, 0
2, 3243, Control_c, 9, 4, 91
2, 3274, Control_c, 9, 17, 42
2, 3275, Note_on_c, 9, 51, 88
2, 3344, Control_c, 9, 4, 87
2, 3357, Note_on_c, 9, 51, 0
2, 3398, Note_on_c, 9, 36, 75
2, 3401, Control_c, 9, 4, 108
2, 3401, Note_on_c, 9, 38, 67
2, 3450, Control_c, 9, 4, 99
2, 3481, Note_on_c, 9, 36, 0
2, 3482, Note_on_c, 9, 38, 0
2, 3493, Control_c, 9, 4, 86
2, 3531, Control_c, 9, 4, 72
2, 3575, Control_c, 9, 4, 0
2, 3624, Control_c, 9, 17, 78
2, 3625, Note_on_c, 9, 51, 79
2, 3632, Control_c, 9, 4, 34
2, 3638, Note_on_c, 9, 44, 119
2, 3664, Control_c, 9, 4, 116
2, 3707, Note_on_c, 9, 51, 0
2, 3712, Control_c, 9, 4, 95
2, 3720, Note_on_c, 9, 44, 0
2, 3739, Control_c, 9, 17, 78
2, 3740, Note_on_c, 9, 51, 6
2, 3744, Control_c, 9, 18, 0
2, 3745, Note_on_c, 9, 48, 45
2, 3754, Control_c, 9, 4, 84
2, 3759, Note_on_c, 9, 36, 42
2, 3822, Note_on_c, 9, 51, 0
2, 3827, Note_on_c, 9, 48, 0
2, 3841, Note_on_c, 9, 36, 0
2, 3872, Note_on_c, 9, 48, 58
2, 3878, Control_c, 9, 4, 114
2, 3887, Control_c, 9, 17, 60
2, 3887, Note_on_c, 9, 51, 68
2, 3928, Control_c, 9, 4, 98
2, 3954, Note_on_c, 9, 48, 0
2, 3970, Note_on_c, 9, 51, 0
2, 3981, Control_c, 9, 4, 84
2, 4013, Control_c, 9, 4, 70
2, 4015, Control_c, 9, 17, 73
2, 4015, Note_on_c, 9, 51, 66
2, 4050, Control_c, 9, 4, 0
2, 4098, Note_on_c, 9, 51, 0
2, 4102, Note_on_c, 9, 36, 44
2, 4110, Control_c, 9, 4, 50
2, 4115, Note_on_c, 9, 44, 119
2, 4140, Control_c, 9, 4, 118
2, 4184, Note_on_c, 9, 36, 0
2, 4196, Note_on_c, 9, 44, 0
2, 4199, Control_c, 9, 4, 90
2, 4237, Control_c, 9, 4, 85
2, 4344, Control_c, 9, 4, 98
2, 4365, Note_on_c, 9, 36, 54
2, 4369, Control_c, 9, 17, 39
2, 4370, Note_on_c, 9, 51, 89
2, 4371, Control_c, 9, 16, 0
2, 4371, Note_on_c, 9, 38, 67
2, 4447, Note_on_c, 9, 36, 0
2, 4452, Note_on_c, 9, 38, 0
2, 4452, Note_on_c, 9, 51, 0
2, 4466, Control_c, 9, 4, 85
2, 4504, Control_c, 9, 4, 71
2, 4549, Control_c, 9, 4, 0
2, 4594, Control_c, 9, 4, 49
2, 4599, Note_on_c, 9, 44, 100
2, 4608, Control_c, 9, 17, 50
2, 4608, Note_on_c, 9, 51, 75
2, 4624, Control_c, 9, 4, 118
2, 4669, Control_c, 9, 4, 96
2, 4680, Note_on_c, 9, 44, 0
2, 4689, Note_on_c, 9, 51, 0
2, 4712, Control_c, 9, 4, 84
2, 4719, Control_c, 9, 18, 0
2, 4719, Note_on_c, 9, 48, 47
2, 4727, Note_on_c, 9, 36, 39
2, 4801, Note_on_c, 9, 48, 0
2, 4809, Note_on_c, 9, 36, 0
2, 4830, Control_c, 9, 4, 118
2, 4840, Control_c, 9, 18, 0
2, 4840, Note_on_c, 9, 48, 66
2, 4851, Control_c, 9, 17, 126
2, 4852, Note_on_c, 9, 51, 57
2, 4892, Control_c, 9, 4, 97
2, 4923, Note_on_c, 9, 48, 0
2, 4927, Control_c, 9, 4, 82
2, 4933, Note_on_c, 9, 51, 0
2, 4957, Control_c, 9, 4, 70
2, 4981, Control_c, 9, 17, 94
2, 4982, Note_on_c, 9, 51, 72
2, 4998, Control_c, 9, 4, 0
2, 5063, Note_on_c, 9, 46, 9
2, 5063, Note_on_c, 9, 51, 0
2, 5071, Control_c, 9, 4, 33
2, 5076, Note_on_c, 9, 44, 127
2, 5079, Note_on_c, 9, 36, 62
2, 5095, Control_c, 9, 17, 94
2, 5096, Note_on_c, 9, 51, 6
2, 5101, Control_c, 9, 4, 126
2, 5144, Note_on_c, 9, 46, 0
2, 5145, Control_c, 9, 4, 112
2, 5158, Note_on_c, 9, 44, 0
2, 5161, Note_on_c, 9, 36, 0
2, 5176, Control_c, 9, 4, 77
2, 5177, Note_on_c, 9, 51, 0
2, 5213, Control_c, 9, 4, 0
2, 5221, Control_c, 9, 17, 35
2, 5221, Note_on_c, 9, 51, 88
2, 5255, Control_c, 9, 4, 0
2, 5256, Note_on_c, 9, 46, 30
2, 5293, Note_on_c, 9, 46, 0
2, 5294, Note_on_c, 9, 46, 11
2, 5302, Note_on_c, 9, 51, 0
2, 5303, Control_c, 9, 4, 33
2, 5309, Note_on_c, 9, 44, 119
2, 5328, Note_on_c, 9, 36, 74
2, 5332, Note_on_c, 9, 38, 60
2, 5334, Control_c, 9, 4, 114
2, 5336, Note_on_c, 9, 46, 0
2, 5389, Note_on_c, 9, 44, 0
2, 5390, Control_c, 9, 4, 91
2, 5409, Note_on_c, 9, 36, 0
2, 5413, Note_on_c, 9, 38, 0
2, 5429, Control_c, 9, 4, 77
2, 5533, Control_c, 9, 4, 104
2, 5550, Control_c, 9, 17, 75
2, 5550, Note_on_c, 9, 51, 79
2, 5565, Control_c, 9, 4, 122
2, 5596, Control_c, 9, 4, 96
2, 5632, Note_on_c, 9, 51, 0
2, 5637, Control_c, 9, 4, 71
2, 5660, Control_c, 9, 18, 21
2, 5661, Note_on_c, 9, 36, 48
2, 5661, Note_on_c, 9, 48, 46
2, 5682, Control_c, 9, 4, 0
2, 5743, Note_on_c, 9, 48, 0
2, 5744, Note_on_c, 9, 36, 0
2, 5750, Note_on_c, 9, 46, 9
2, 5758, Control_c, 9, 4, 36
2, 5764, Note_on_c, 9, 44, 127
2, 5789, Control_c, 9, 4, 120
2, 5791, Control_c, 9, 18, 0
2, 5792, Note_on_c, 9, 48, 66
2, 5802, Control_c, 9, 17, 127
2, 5803, Note_on_c, 9, 51, 45
2, 5831, Note_on_c, 9, 46, 0
2, 5833, Control_c, 9, 4, 106
2, 5845, Note_on_c, 9, 44, 0
2, 5868, Control_c, 9, 4, 91
2, 5872, Note_on_c, 9, 48, 0
2, 5885, Note_on_c, 9, 51, 0
2, 5927, Control_c, 9, 17, 76
2, 5927, Note_on_c, 9, 51, 75
2, 5988, Control_c, 9, 4, 104
2, 5996, Note_on_c, 9, 36, 33
2, 6009, Note_on_c, 9, 51, 0
2, 6053, Control_c, 9, 4, 92
2, 6078, Note_on_c, 9, 36, 0
2, 6258, Note_on_c, 9, 36, 58
2, 6259, Control_c, 9, 17, 47
2, 6260, Note_on_c, 9, 51, 100
2, 6265, Control_c, 9, 16, 0
2, 6266, Note_on_c, 9, 38, 76
2, 6332, Control_c, 9, 4, 84
2, 6340, Note_on_c, 9, 36, 0
2, 6342, Note_on_c, 9, 51, 0
2, 6347, Note_on_c, 9, 38, 0
2, 6366, Control_c, 9, 4, 70
2, 6401, Control_c, 9, 4, 0
2, 6471, Control_c, 9, 4, 34
2, 6476, Note_on_c, 9, 44, 127
2, 6502, Control_c, 9, 4, 120
2, 6507, Control_c, 9, 17, 70
2, 6508, Note_on_c, 9, 51, 77
2, 6559, Note_on_c, 9, 44, 0
2, 6567, Control_c, 9, 4, 91
2, 6590, Note_on_c, 9, 51, 0
2, 6602, Control_c, 9, 4, 86
2, 6619, Note_on_c, 9, 48, 47
2, 6621, Note_on_c, 9, 36, 57
2, 6701, Note_on_c, 9, 48, 0
2, 6703, Note_on_c, 9, 36, 0
2, 6733, Control_c, 9, 4, 114
2, 6744, Control_c, 9, 18, 0
2, 6745, Note_on_c, 9, 48, 63
2, 6746, Control_c, 9, 17, 127
2, 6746, Note_on_c, 9, 51, 52
2, 6817, Control_c, 9, 4, 91
2, 6826, Note_on_c, 9, 48, 0
2, 6827, Note_on_c, 9, 51, 0
2, 6853, Control_c, 9, 4, 74
2, 6877, Control_c, 9, 17, 49
2, 6878, Note_on_c, 9, 51, 72
2, 6893, Control_c, 9, 4, 0
2, 6959, Note_on_c, 9, 51, 0
2, 6962, Note_on_c, 9, 36, 48
2, 6962, Note_on_c, 9, 46, 15
2, 6968, Control_c, 9, 4, 34
2, 6973, Note_on_c, 9, 44, 127
2, 6998, Control_c, 9, 4, 120
2, 7042, Note_on_c, 9, 46, 0
2, 7043, Note_on_c, 9, 36, 0
2, 7054, Note_on_c, 9, 44, 0
2, 7060, Control_c, 9, 4, 91
2, 7091, Control_c, 9, 4, 86
2, 7113, Control_c, 9, 17, 37
2, 7113, Note_on_c, 9, 51, 83
2, 7195, Note_on_c, 9, 51, 0
2, 7205, Control_c, 9, 4, 106
2, 7219, Note_on_c, 9, 36, 75
2, 7229, Note_on_c, 9, 38, 67
2, 7288, Control_c, 9, 4, 94
2, 7302, Note_on_c, 9, 36, 0
2, 7310, Note_on_c, 9, 38, 0
2, 7327, Control_c, 9, 4, 83
2, 7362, Control_c, 9, 4, 70
2, 7400, Control_c, 9, 4, 0
2, 7457, Control_c, 9, 17, 73
2, 7457, Note_on_c, 9, 51, 82
2, 7459, Control_c, 9, 4, 33
2, 7464, Note_on_c, 9, 44, 126
2, 7490, Control_c, 9, 4, 120
2, 7539, Note_on_c, 9, 51, 0
2, 7546, Note_on_c, 9, 44, 0
2, 7550, Control_c, 9, 4, 90
2, 7572, Note_on_c, 9, 48, 48
2, 7580, Control_c, 9, 4, 84
2, 7586, Note_on_c, 9, 36, 40
2, 7654, Note_on_c, 9, 48, 0
2, 7669, Note_on_c, 9, 36, 0
2, 7670, End_track
0, 0, End_of_file
