0, 0, Header, 1, 2, 480
1, 0, Start_track
1, 0, Tempo, 588235
1, 0, Time_signature, 4, 2, 24, 8
1, 0, Key_signature, 0, "major"
1, 1, End_track
2, 0, Start_track
2, 0, Title_t, "Classic Studio Kit"
2, 0, Program_c, 9, 0
2, 0, Control_c, 9, 18, 0
2, 21, Control_c, 9, 4, 104
2, 41, Control_c, 9, 17, 77
2, 41, Note_on_c, 9, 51, 68
2, 44, Note_on_c, 9, 48, 83
2, 52, Control_c, 9, 4, 104
2, 123, Note_on_c, 9, 51, 0
2, 125, Note_on_c, 9, 48, 0
2, 136, Control_c, 9, 4, 90
2, 154, Control_c, 9, 17, 41
2, 155, Note_on_c, 9, 51, 74
2, 173, Control_c, 9, 4, 70
2, 205, Control_c, 9, 4, 0
2, 236, Note_on_c, 9, 51, 0
2, 259, Note_on_c, 9, 36, 61
2, 260, Control_c, 9, 4, 34
2, 266, Note_on_c, 9, 44, 126
2, 291, Control_c, 9, 4, 127
2, 342, Note_on_c, 9, 36, 0
2, 345, Control_c, 9, 4, 92
2, 347, Note_on_c, 9, 44, 0
2, 382, Control_c, 9, 4, 88
2, 395, Control_c, 9, 17, 0
2, 396, Note_on_c, 9, 51, 97
2, 478, Note_on_c, 9, 51, 0
2, 487, Control_c, 9, 4, 94
2, 510, Control_c, 9, 16, 0
2, 510, Note_on_c, 9, 40, 83
2, 518, Note_on_c, 9, 36, 72
2, 572, Control_c, 9, 4, 98
2, 592, Note_on_c, 9, 40, 0
2, 599, Note_on_c, 9, 36, 0
2, 613, Control_c, 9, 4, 91
2, 644, Control_c, 9, 4, 70
2, 684, Control_c, 9, 4, 0
2, 739, Control_c, 9, 4, 32
2, 740, Control_c, 9, 17, 25
2, 741, Note_on_c, 9, 51, 90
2, 746, Note_on_c, 9, 44, 119
2, 770, Control_c, 9, 4, 127
2, 807, Control_c, 9, 4, 102
2, 822, Note_on_c, 9, 51, 0
2, 826, Note_on_c, 9, 44, 0
2, 838, Control_c, 9, 4, 90
2, 856, Note_on_c, 9, 36, 64
2, 874, Control_c, 9, 18, 0
2, 875, Note_on_c, 9, 48, 43
2, 938, Note_on_c, 9, 36, 0
2, 956, Note_on_c, 9, 48, 0
2, 967, Control_c, 9, 4, 102
2, 987, Control_c, 9, 17, 41
2, 987, Note_on_c, 9, 51, 80
2, 991, Note_on_c, 9, 48, 83
2, 1004, Control_c, 9, 4, 106
2, 1070, Note_on_c, 9, 51, 0
2, 1071, Note_on_c, 9, 48, 0
2, 1078, Control_c, 9, 4, 92
2, 1107, Control_c, 9, 17, 77
2, 1107, Note_on_c, 9, 51, 77
2, 1119, Control_c, 9, 4, 72
2, 1156, Control_c, 9, 4, 0
2, 1189, Note_on_c, 9, 51, 0
2, 1216, Note_on_c, 9, 36, 64
2, 1218, Note_on_c, 9, 44, 126
2, 1225, Control_c, 9, 4, 127
2, 1261, Control_c, 9, 4, 110
2, 1296, Control_c, 9, 4, 91
2, 1298, Note_on_c, 9, 36, 0
2, 1298, Note_on_c, 9, 44, 0
2, 1450, Control_c, 9, 4, 97
2, 1468, Control_c, 9, 17, 18
2, 1469, Note_on_c, 9, 36, 76
2, 1469, Note_on_c, 9, 51, 88
2, 1470, Control_c, 9, 16, 64
2, 1471, Note_on_c, 9, 38, 82
2, 1550, Note_on_c, 9, 51, 0
2, 1551, Note_on_c, 9, 36, 0
2, 1551, Note_on_c, 9, 38, 0
2, 1556, Control_c, 9, 4, 90
2, 1600, Control_c, 9, 4, 69
2, 1633, Control_c, 9, 4, 0
2, 1700, Note_on_c, 9, 44, 127
2, 1706, Control_c, 9, 4, 127
2, 1721, Control_c, 9, 17, 56
2, 1722, Note_on_c, 9, 51, 74
2, 1750, Control_c, 9, 4, 116
2, 1782, Note_on_c, 9, 44, 0
2, 1792, Control_c, 9, 4, 91
2, 1801, Note_on_c, 9, 51, 0
2, 1824, Control_c, 9, 4, 87
2, 1837, Note_on_c, 9, 36, 70
2, 1841, Control_c, 9, 18, 0
2, 1841, Note_on_c, 9, 48, 46
2, 1919, Note_on_c, 9, 36, 0
2, 1922, Note_on_c, 9, 48, 0
2, 1932, Control_c, 9, 4, 110
2, 1955, Control_c, 9, 17, 91
2, 1956, Note_on_c, 9, 51, 69
2, 1962, Note_on_c, 9, 48, 77
2, 2013, Control_c, 9, 4, 102
2, 2037, Note_on_c, 9, 51, 0
2, 2043, Note_on_c, 9, 48, 0
2, 2047, Control_c, 9, 4, 90
2, 2077, Control_c, 9, 17, 42
2, 2077, Note_on_c, 9, 51, 74
2, 2079, Control_c, 9, 4, 73
2, 2117, Control_c, 9, 4, 0
2, 2159, Note_on_c, 9, 51, 0
2, 2175, Note_on_c, 9, 36, 67
2, 2179, Note_on_c, 9, 44, 126
2, 2184, Control_c, 9, 4, 127
2, 2228, Control_c, 9, 4, 110
2, 2257, Note_on_c, 9, 36, 0
2, 2259, Control_c, 9, 4, 91
2, 2260, Note_on_c, 9, 44, 0
2, 2292, Control_c, 9, 4, 86
2, 2326, Control_c, 9, 17, 0
2, 2327, Note_on_c, 9, 51, 92
2, 2409, Note_on_c, 9, 51, 0
2, 2412, Control_c, 9, 4, 96
2, 2431, Note_on_c, 9, 36, 74
2, 2434, Control_c, 9, 16, 64
2, 2434, Note_on_c, 9, 38, 72
2, 2513, Note_on_c, 9, 36, 0
2, 2516, Note_on_c, 9, 38, 0
2, 2530, Control_c, 9, 4, 90
2, 2567, Control_c, 9, 4, 74
2, 2608, Control_c, 9, 4, 0
2, 2662, Control_c, 9, 17, 11
2, 2663, Note_on_c, 9, 51, 99
2, 2664, Control_c, 9, 4, 33
2, 2670, Note_on_c, 9, 44, 126
2, 2695, Control_c, 9, 4, 127
2, 2731, Control_c, 9, 4, 102
2, 2744, Note_on_c, 9, 51, 0
2, 2751, Note_on_c, 9, 44, 0
2, 2765, Control_c, 9, 4, 88
2, 2786, Control_c, 9, 18, 0
2, 2787, Note_on_c, 9, 48, 49
2, 2799, Note_on_c, 9, 36, 73
2, 2868, Note_on_c, 9, 48, 0
2, 2880, Note_on_c, 9, 36, 0
2, 2889, Control_c, 9, 4, 97
2, 2912, Note_on_c, 9, 48, 89
2, 2920, Control_c, 9, 17, 42
2, 2920, Note_on_c, 9, 51, 83
2, 2928, Control_c, 9, 4, 104
2, 2994, Note_on_c, 9, 48, 0
2, 3000, Control_c, 9, 4, 91
2, 3002, Note_on_c, 9, 51, 0
2, 3032, Control_c, 9, 17, 86
2, 3032, Note_on_c, 9, 51, 80
2, 3036, Control_c, 9, 4, 74
2, 3075, Control_c, 9, 4, 0
2, 3115, Note_on_c, 9, 51, 0
2, 3140, Note_on_c, 9, 36, 61
2, 3142, Note_on_c, 9, 44, 126
2, 3148, Control_c, 9, 4, 127
2, 3150, Control_c, 9, 17, 86
2, 3150, Note_on_c, 9, 51, 6
2, 3195, Control_c, 9, 4, 100
2, 3222, Note_on_c, 9, 36, 0
2, 3223, Note_on_c, 9, 44, 0
2, 3231, Note_on_c, 9, 51, 0
2, 3237, Control_c, 9, 4, 88
2, 3362, Control_c, 9, 4, 94
2, 3386, Note_on_c, 9, 36, 68
2, 3393, Control_c, 9, 17, 124
2, 3394, Note_on_c, 9, 51, 98
2, 3395, Control_c, 9, 16, 0
2, 3395, Note_on_c, 9, 38, 71
2, 3468, Note_on_c, 9, 36, 0
2, 3473, Note_on_c, 9, 51, 0
2, 3475, Note_on_c, 9, 38, 0
2, 3479, Control_c, 9, 4, 88
2, 3510, Control_c, 9, 4, 72
2, 3555, Control_c, 9, 4, 0
2, 3617, Control_c, 9, 4, 49
2, 3622, Note_on_c, 9, 44, 126
2, 3634, Control_c, 9, 17, 6
2, 3634, Note_on_c, 9, 51, 81
2, 3647, Control_c, 9, 4, 122
2, 3699, Control_c, 9, 4, 91
2, 3704, Note_on_c, 9, 44, 0
2, 3717, Note_on_c, 9, 51, 0
2, 3733, Control_c, 9, 4, 85
2, 3755, Control_c, 9, 18, 0
2, 3755, Note_on_c, 9, 48, 48
2, 3765, Note_on_c, 9, 36, 57
2, 3837, Note_on_c, 9, 48, 0
2, 3843, Control_c, 9, 4, 98
2, 3846, Note_on_c, 9, 36, 0
2, 3877, Control_c, 9, 17, 56
2, 3878, Note_on_c, 9, 51, 69
2, 3879, Note_on_c, 9, 48, 82
2, 3958, Note_on_c, 9, 51, 0
2, 3959, Note_on_c, 9, 48, 0
2, 3978, Control_c, 9, 4, 85
2, 4000, Control_c, 9, 17, 28
2, 4001, Note_on_c, 9, 51, 79
2, 4008, Control_c, 9, 4, 69
2, 4042, Control_c, 9, 4, 0
2, 4082, Note_on_c, 9, 51, 0
2, 4099, Control_c, 9, 4, 34
2, 4102, Note_on_c, 9, 36, 57
2, 4105, Note_on_c, 9, 44, 119
2, 4131, Control_c, 9, 4, 126
2, 4166, Control_c, 9, 4, 98
2, 4184, Note_on_c, 9, 36, 0
2, 4188, Note_on_c, 9, 44, 0
2, 4208, Control_c, 9, 4, 87
2, 4245, Control_c, 9, 17, 5
2, 4246, Note_on_c, 9, 51, 80
2, 4322, Control_c, 9, 4, 93
2, 4326, Note_on_c, 9, 51, 0
2, 4351, Note_on_c, 9, 36, 67
2, 4356, Note_on_c, 9, 38, 59
2, 4435, Note_on_c, 9, 36, 0
2, 4438, Note_on_c, 9, 38, 0
2, 4449, Control_c, 9, 4, 87
2, 4480, Control_c, 9, 4, 73
2, 4532, Control_c, 9, 4, 0
2, 4583, Control_c, 9, 17, 9
2, 4583, Note_on_c, 9, 51, 94
2, 4584, Control_c, 9, 4, 34
2, 4591, Note_on_c, 9, 44, 119
2, 4616, Control_c, 9, 4, 126
2, 4652, Control_c, 9, 4, 99
2, 4665, Note_on_c, 9, 51, 0
2, 4672, Note_on_c, 9, 44, 0
2, 4691, Control_c, 9, 4, 86
2, 4715, Control_c, 9, 18, 0
2, 4716, Note_on_c, 9, 48, 49
2, 4720, Note_on_c, 9, 36, 58
2, 4797, Note_on_c, 9, 48, 0
2, 4801, Note_on_c, 9, 36, 0
2, 4818, Control_c, 9, 4, 102
2, 4837, Control_c, 9, 17, 12
2, 4837, Note_on_c, 9, 51, 89
2, 4843, Note_on_c, 9, 48, 80
2, 4891, Control_c, 9, 4, 98
2, 4919, Note_on_c, 9, 51, 0
2, 4923, Note_on_c, 9, 48, 0
2, 4940, Control_c, 9, 4, 85
2, 4960, Control_c, 9, 17, 87
2, 4960, Note_on_c, 9, 51, 74
2, 4973, Control_c, 9, 4, 70
2, 5008, Control_c, 9, 4, 0
2, 5043, Note_on_c, 9, 51, 0
2, 5058, Control_c, 9, 4, 49
2, 5063, Note_on_c, 9, 44, 113
2, 5071, Note_on_c, 9, 36, 58
2, 5080, Control_c, 9, 17, 87
2, 5080, Note_on_c, 9, 51, 5
2, 5088, Control_c, 9, 4, 126
2, 5123, Control_c, 9, 4, 97
2, 5145, Note_on_c, 9, 44, 0
2, 5154, Note_on_c, 9, 36, 0
2, 5163, Note_on_c, 9, 51, 0
2, 5167, Control_c, 9, 4, 86
2, 5292, Control_c, 9, 4, 97
2, 5320, Note_on_c, 9, 36, 67
2, 5322, Control_c, 9, 17, 0
2, 5323, Note_on_c, 9, 51, 109
2, 5328, Control_c, 9, 16, 0
2, 5329, Note_on_c, 9, 38, 80
2, 5390, Control_c, 9, 4, 91
2, 5402, Note_on_c, 9, 36, 0
2, 5404, Note_on_c, 9, 51, 0
2, 5411, Note_on_c, 9, 38, 0
2, 5442, Control_c, 9, 4, 70
2, 5485, Control_c, 9, 4, 0
2, 5544, Control_c, 9, 4, 50
2, 5548, Note_on_c, 9, 44, 113
2, 5560, Control_c, 9, 17, 4
2, 5561, Note_on_c, 9, 51, 96
2, 5574, Control_c, 9, 4, 120
2, 5626, Control_c, 9, 4, 91
2, 5630, Note_on_c, 9, 44, 0
2, 5642, Note_on_c, 9, 51, 0
2, 5660, Control_c, 9, 4, 85
2, 5682, Control_c, 9, 18, 0
2, 5682, Note_on_c, 9, 48, 52
2, 5686, Note_on_c, 9, 36, 58
2, 5764, Note_on_c, 9, 48, 0
2, 5769, Note_on_c, 9, 36, 0
2, 5775, Control_c, 9, 4, 98
2, 5806, Note_on_c, 9, 48, 84
2, 5808, Control_c, 9, 17, 45
2, 5808, Note_on_c, 9, 51, 74
2, 5888, Note_on_c, 9, 48, 0
2, 5890, Note_on_c, 9, 51, 0
2, 5906, Control_c, 9, 4, 85
2, 5924, Control_c, 9, 17, 21
2, 5925, Note_on_c, 9, 51, 75
2, 5942, Control_c, 9, 4, 70
2, 5983, Control_c, 9, 4, 0
2, 6006, Note_on_c, 9, 51, 0
2, 6027, Control_c, 9, 4, 49
2, 6032, Note_on_c, 9, 44, 106
2, 6037, Note_on_c, 9, 36, 58
2, 6057, Control_c, 9, 4, 120
2, 6089, Control_c, 9, 4, 97
2, 6113, Note_on_c, 9, 44, 0
2, 6119, Note_on_c, 9, 36, 0
2, 6123, Control_c, 9, 4, 85
2, 6160, Control_c, 9, 17, 3
2, 6161, Note_on_c, 9, 51, 91
2, 6242, Note_on_c, 9, 51, 0
2, 6252, Control_c, 9, 4, 96
2, 6278, Note_on_c, 9, 38, 101
2, 6284, Note_on_c, 9, 36, 61
2, 6359, Note_on_c, 9, 38, 0
2, 6366, Note_on_c, 9, 36, 0
2, 6383, Control_c, 9, 4, 83
2, 6414, Control_c, 9, 4, 70
2, 6453, Control_c, 9, 4, 0
2, 6506, Control_c, 9, 4, 48
2, 6506, Control_c, 9, 17, 8
2, 6506, Note_on_c, 9, 51, 86
2, 6511, Note_on_c, 9, 44, 106
2, 6536, Control_c, 9, 4, 122
2, 6573, Control_c, 9, 4, 97
2, 6588, Note_on_c, 9, 51, 0
2, 6592, Note_on_c, 9, 44, 0
2, 6608, Control_c, 9, 4, 84
2, 6626, Control_c, 9, 18, 0
2, 6626, Note_on_c, 9, 48, 54
2, 6640, Note_on_c, 9, 36, 57
2, 6708, Note_on_c, 9, 48, 0
2, 6723, Note_on_c, 9, 36, 0
2, 6729, Control_c, 9, 4, 98
2, 6754, Control_c, 9, 17, 44
2, 6755, Note_on_c, 9, 51, 76
2, 6756, Note_on_c, 9, 48, 79
2, 6835, Note_on_c, 9, 51, 0
2, 6838, Note_on_c, 9, 48, 0
2, 6853, Control_c, 9, 4, 86
2, 6873, Control_c, 9, 17, 40
2, 6874, Note_on_c, 9, 51, 70
2, 6885, Control_c, 9, 4, 70
2, 6929, Control_c, 9, 4, 0
2, 6956, Note_on_c, 9, 51, 0
2, 6973, Control_c, 9, 4, 49
2, 6978, Note_on_c, 9, 44, 100
2, 6982, Note_on_c, 9, 36, 59
2, 7003, Control_c, 9, 4, 120
2, 7053, Control_c, 9, 4, 90
2, 7059, Note_on_c, 9, 44, 0
2, 7064, Note_on_c, 9, 36, 0
2, 7084, Control_c, 9, 4, 85
2, 7184, Control_c, 9, 4, 91
2, 7228, Control_c, 9, 17, 7
2, 7228, Note_on_c, 9, 51, 88
2, 7230, Note_on_c, 9, 36, 59
2, 7232, Control_c, 9, 16, 0
2, 7232, Note_on_c, 9, 38, 77
2, 7310, Note_on_c, 9, 51, 0
2, 7311, Note_on_c, 9, 36, 0
2, 7314, Note_on_c, 9, 38, 0
2, 7328, Control_c, 9, 4, 83
2, 7359, Control_c, 9, 4, 70
2, 7397, Control_c, 9, 4, 0
2, 7461, Control_c, 9, 4, 34
2, 7467, Note_on_c, 9, 44, 127
2, 7477, Control_c, 9, 17, 32
2, 7478, Note_on_c, 9, 51, 83
2, 7492, Control_c, 9, 4, 120
2, 7546, Control_c, 9, 4, 91
2, 7549, Note_on_c, 9, 44, 0
2, 7559, Note_on_c, 9, 51, 0
2, 7585, Control_c, 9, 4, 87
2, 7592, Control_c, 9, 18, 0
2, 7592, Note_on_c, 9, 48, 53
2, 7674, Note_on_c, 9, 48, 0
2, 7675, End_track
0, 0, End_of_file
