0, 0, Header, 1, 2, 480
1, 0, Start_track
1, 0, Tempo, 545454
1, 0, Time_signature, 4, 2, 24, 8
1, 0, Key_signature, 0, "major"
1, 1, End_track
2, 0, Start_track
2, 0, Title_t, "TD-30 #9 Djembe"
2, 0, Program_c, 9, 0
2, 0, Control_c, 9, 16, 126
2, 74, Control_c, 9, 4, 83
2, 118, Control_c, 9, 4, 70
2, 119, Note_on_c, 9, 57, 88
2, 153, Control_c, 9, 4, 41
2, 192, Control_c, 9, 4, 9
2, 208, Note_on_c, 9, 57, 0
2, 220, Note_on_c, 9, 44, 67
2, 228, Note_on_c, 9, 57, 105
2, 234, Control_c, 9, 4, 104
2, 274, Control_c, 9, 4, 95
2, 308, Note_on_c, 9, 44, 0
2, 316, Note_on_c, 9, 57, 0
2, 319, Control_c, 9, 4, 84
2, 341, Note_on_c, 9, 48, 37
2, 406, Control_c, 9, 4, 91
2, 429, Note_on_c, 9, 48, 0
2, 437, Note_on_c, 9, 57, 97
2, 448, Note_on_c, 9, 48, 63
2, 487, Note_on_c, 9, 36, 59
2, 526, Note_on_c, 9, 57, 0
2, 535, Note_on_c, 9, 48, 0
2, 568, Note_on_c, 9, 57, 62
2, 576, Control_c, 9, 4, 78
2, 576, Note_on_c, 9, 36, 0
2, 613, Control_c, 9, 4, 56
2, 648, Control_c, 9, 4, 0
2, 655, Note_on_c, 9, 57, 0
2, 697, Control_c, 9, 4, 64
2, 700, Note_on_c, 9, 44, 93
2, 728, Control_c, 9, 4, 99
2, 774, Control_c, 9, 4, 92
2, 788, Note_on_c, 9, 44, 0
2, 831, Control_c, 9, 4, 83
2, 904, Control_c, 9, 4, 90
2, 967, Control_c, 9, 16, 0
2, 968, Note_on_c, 9, 40, 77
2, 971, Note_on_c, 9, 57, 119
2, 1056, Note_on_c, 9, 40, 0
2, 1057, Control_c, 9, 4, 76
2, 1060, Note_on_c, 9, 57, 0
2, 1097, Control_c, 9, 4, 58
2, 1133, Control_c, 9, 4, 21
2, 1168, Control_c, 9, 4, 70
2, 1172, Note_on_c, 9, 44, 54
2, 1187, Note_on_c, 9, 57, 21
2, 1199, Control_c, 9, 4, 99
2, 1257, Control_c, 9, 4, 89
2, 1260, Note_on_c, 9, 44, 0
2, 1275, Note_on_c, 9, 57, 0
2, 1287, Control_c, 9, 4, 84
2, 1334, Control_c, 9, 16, 21
2, 1335, Note_on_c, 9, 38, 15
2, 1363, Control_c, 9, 4, 89
2, 1423, Note_on_c, 9, 38, 0
2, 1446, Note_on_c, 9, 57, 87
2, 1448, Note_on_c, 9, 36, 82
2, 1531, Control_c, 9, 4, 74
2, 1535, Note_on_c, 9, 57, 0
2, 1537, Note_on_c, 9, 36, 0
2, 1565, Control_c, 9, 4, 55
2, 1578, Control_c, 9, 16, 0
2, 1579, Note_on_c, 9, 38, 5
2, 1599, Control_c, 9, 4, 0
2, 1658, Control_c, 9, 4, 66
2, 1660, Note_on_c, 9, 44, 87
2, 1667, Note_on_c, 9, 38, 0
2, 1677, Note_on_c, 9, 57, 74
2, 1688, Control_c, 9, 4, 98
2, 1740, Control_c, 9, 4, 92
2, 1749, Note_on_c, 9, 44, 0
2, 1765, Note_on_c, 9, 57, 0
2, 1772, Control_c, 9, 4, 87
2, 1877, Control_c, 9, 4, 91
2, 1937, Note_on_c, 9, 40, 65
2, 2021, Control_c, 9, 4, 77
2, 2025, Note_on_c, 9, 40, 0
2, 2047, Note_on_c, 9, 57, 84
2, 2064, Control_c, 9, 4, 56
2, 2103, Control_c, 9, 4, 0
2, 2136, Note_on_c, 9, 57, 0
2, 2144, Control_c, 9, 4, 64
2, 2148, Note_on_c, 9, 44, 80
2, 2168, Note_on_c, 9, 57, 59
2, 2175, Control_c, 9, 4, 104
2, 2226, Control_c, 9, 4, 91
2, 2236, Note_on_c, 9, 44, 0
2, 2256, Note_on_c, 9, 57, 0
2, 2263, Control_c, 9, 4, 86
2, 2312, Note_on_c, 9, 48, 54
2, 2338, Control_c, 9, 4, 91
2, 2401, Note_on_c, 9, 48, 0
2, 2408, Note_on_c, 9, 36, 67
2, 2421, Note_on_c, 9, 57, 93
2, 2496, Note_on_c, 9, 36, 0
2, 2501, Control_c, 9, 4, 78
2, 2511, Note_on_c, 9, 57, 0
2, 2543, Control_c, 9, 4, 56
2, 2579, Control_c, 9, 4, 14
2, 2616, Control_c, 9, 4, 58
2, 2622, Note_on_c, 9, 44, 67
2, 2650, Control_c, 9, 4, 96
2, 2650, Note_on_c, 9, 57, 39
2, 2697, Control_c, 9, 4, 91
2, 2710, Note_on_c, 9, 44, 0
2, 2733, Control_c, 9, 4, 86
2, 2739, Note_on_c, 9, 57, 0
2, 2909, Note_on_c, 9, 40, 68
2, 2914, Note_on_c, 9, 57, 77
2, 2918, Control_c, 9, 4, 90
2, 2981, Control_c, 9, 4, 82
2, 2997, Note_on_c, 9, 40, 0
2, 3002, Note_on_c, 9, 57, 0
2, 3019, Control_c, 9, 4, 70
2, 3070, Control_c, 9, 4, 36
2, 3107, Control_c, 9, 4, 68
2, 3112, Note_on_c, 9, 46, 36
2, 3114, Note_on_c, 9, 44, 35
2, 3140, Control_c, 9, 4, 95
2, 3144, Note_on_c, 9, 57, 34
2, 3185, Control_c, 9, 4, 90
2, 3200, Note_on_c, 9, 44, 0
2, 3200, Note_on_c, 9, 46, 0
2, 3218, Control_c, 9, 4, 85
2, 3233, Note_on_c, 9, 57, 0
2, 3272, Note_on_c, 9, 38, 8
2, 3344, Control_c, 9, 4, 89
2, 3362, Note_on_c, 9, 38, 0
2, 3389, Note_on_c, 9, 36, 92
2, 3389, Note_on_c, 9, 57, 79
2, 3467, Control_c, 9, 4, 76
2, 3478, Note_on_c, 9, 36, 0
2, 3478, Note_on_c, 9, 57, 0
2, 3505, Control_c, 9, 4, 56
2, 3540, Control_c, 9, 4, 0
2, 3598, Control_c, 9, 4, 67
2, 3601, Note_on_c, 9, 44, 87
2, 3628, Note_on_c, 9, 57, 71
2, 3629, Control_c, 9, 4, 96
2, 3676, Control_c, 9, 4, 91
2, 3690, Note_on_c, 9, 44, 0
2, 3714, Control_c, 9, 4, 86
2, 3717, Note_on_c, 9, 57, 0
2, 3746, Control_c, 9, 16, 0
2, 3747, Note_on_c, 9, 40, 54
2, 3835, Note_on_c, 9, 40, 0
2, 3861, Note_on_c, 9, 57, 106
2, 3897, Control_c, 9, 4, 90
2, 3949, Note_on_c, 9, 57, 0
2, 3969, Control_c, 9, 4, 83
2, 3980, Note_on_c, 9, 57, 44
2, 4003, Control_c, 9, 4, 70
2, 4048, Control_c, 9, 4, 29
2, 4069, Note_on_c, 9, 57, 0
2, 4087, Control_c, 9, 4, 67
2, 4091, Note_on_c, 9, 44, 61
2, 4094, Control_c, 9, 18, 0
2, 4095, Note_on_c, 9, 48, 42
2, 4118, Control_c, 9, 4, 104
2, 4171, Control_c, 9, 4, 92
2, 4179, Note_on_c, 9, 44, 0
2, 4181, Note_on_c, 9, 48, 0
2, 4219, Control_c, 9, 4, 87
2, 4220, Note_on_c, 9, 48, 76
2, 4229, Note_on_c, 9, 57, 88
2, 4277, Control_c, 9, 4, 91
2, 4308, Note_on_c, 9, 48, 0
2, 4317, Note_on_c, 9, 57, 0
2, 4333, Note_on_c, 9, 36, 87
2, 4346, Note_on_c, 9, 57, 82
2, 4422, Note_on_c, 9, 36, 0
2, 4434, Note_on_c, 9, 57, 0
2, 4441, Control_c, 9, 4, 77
2, 4481, Control_c, 9, 4, 56
2, 4520, Control_c, 9, 4, 0
2, 4564, Control_c, 9, 4, 66
2, 4566, Note_on_c, 9, 44, 80
2, 4573, Note_on_c, 9, 57, 70
2, 4594, Control_c, 9, 4, 97
2, 4646, Control_c, 9, 4, 91
2, 4654, Note_on_c, 9, 44, 0
2, 4661, Note_on_c, 9, 57, 0
2, 4681, Control_c, 9, 4, 85
2, 4769, Control_c, 9, 4, 90
2, 4821, Note_on_c, 9, 40, 71
2, 4826, Note_on_c, 9, 57, 83
2, 4895, Control_c, 9, 4, 83
2, 4910, Note_on_c, 9, 40, 0
2, 4914, Note_on_c, 9, 57, 0
2, 4933, Control_c, 9, 4, 70
2, 4967, Control_c, 9, 4, 40
2, 5000, Control_c, 9, 4, 0
2, 5035, Control_c, 9, 4, 64
2, 5039, Note_on_c, 9, 44, 74
2, 5066, Control_c, 9, 4, 98
2, 5066, Note_on_c, 9, 57, 51
2, 5128, Note_on_c, 9, 44, 0
2, 5132, Control_c, 9, 4, 85
2, 5155, Note_on_c, 9, 57, 0
2, 5193, Note_on_c, 9, 38, 13
2, 5282, Note_on_c, 9, 38, 0
2, 5284, Control_c, 9, 4, 89
2, 5302, Note_on_c, 9, 57, 92
2, 5306, Note_on_c, 9, 36, 91
2, 5325, Control_c, 9, 16, 0
2, 5326, Note_on_c, 9, 38, 4
2, 5390, Note_on_c, 9, 57, 0
2, 5394, Control_c, 9, 4, 75
2, 5394, Note_on_c, 9, 36, 0
2, 5412, Note_on_c, 9, 38, 0
2, 5428, Control_c, 9, 4, 55
2, 5459, Control_c, 9, 4, 0
2, 5518, Control_c, 9, 4, 50
2, 5524, Note_on_c, 9, 44, 93
2, 5543, Note_on_c, 9, 57, 46
2, 5551, Control_c, 9, 4, 99
2, 5569, Note_on_c, 9, 51, 6
2, 5599, Control_c, 9, 4, 92
2, 5612, Note_on_c, 9, 44, 0
2, 5631, Control_c, 9, 4, 86
2, 5631, Note_on_c, 9, 57, 0
2, 5657, Note_on_c, 9, 51, 0
2, 5664, Control_c, 9, 16, 127
2, 5664, Note_on_c, 9, 38, 62
2, 5665, Control_c, 9, 4, 82
2, 5719, Control_c, 9, 4, 89
2, 5753, Note_on_c, 9, 38, 0
2, 5764, Note_on_c, 9, 57, 102
2, 5854, Note_on_c, 9, 57, 0
2, 5874, Control_c, 9, 4, 76
2, 5901, Note_on_c, 9, 57, 52
2, 5908, Control_c, 9, 4, 56
2, 5941, Control_c, 9, 4, 11
2, 5984, Control_c, 9, 4, 66
2, 5988, Note_on_c, 9, 44, 74
2, 5989, Note_on_c, 9, 57, 0
2, 6015, Control_c, 9, 4, 100
2, 6023, Note_on_c, 9, 48, 53
2, 6076, Control_c, 9, 4, 89
2, 6076, Note_on_c, 9, 44, 0
2, 6110, Control_c, 9, 4, 84
2, 6111, Note_on_c, 9, 48, 0
2, 6139, Note_on_c, 9, 57, 101
2, 6148, Note_on_c, 9, 48, 76
2, 6173, Control_c, 9, 4, 90
2, 6228, Note_on_c, 9, 57, 0
2, 6235, Note_on_c, 9, 48, 0
2, 6262, Note_on_c, 9, 36, 83
2, 6263, Note_on_c, 9, 57, 96
2, 6351, Control_c, 9, 4, 77
2, 6351, Note_on_c, 9, 36, 0
2, 6351, Note_on_c, 9, 57, 0
2, 6389, Control_c, 9, 4, 56
2, 6427, Control_c, 9, 4, 0
2, 6474, Control_c, 9, 4, 67
2, 6477, Note_on_c, 9, 44, 80
2, 6489, Note_on_c, 9, 57, 48
2, 6504, Control_c, 9, 4, 99
2, 6548, Control_c, 9, 4, 92
2, 6566, Note_on_c, 9, 44, 0
2, 6578, Note_on_c, 9, 57, 0
2, 6596, Control_c, 9, 4, 83
2, 6667, Control_c, 9, 4, 89
2, 6738, Control_c, 9, 16, 0
2, 6738, Note_on_c, 9, 40, 70
2, 6743, Note_on_c, 9, 57, 89
2, 6827, Note_on_c, 9, 40, 0
2, 6831, Note_on_c, 9, 57, 0
2, 6839, Control_c, 9, 4, 75
2, 6873, Control_c, 9, 4, 58
2, 6911, Control_c, 9, 4, 22
2, 6942, Control_c, 9, 4, 70
2, 6946, Note_on_c, 9, 46, 34
2, 6947, Note_on_c, 9, 44, 48
2, 6971, Note_on_c, 9, 57, 39
2, 6973, Control_c, 9, 4, 98
2, 7012, Control_c, 9, 4, 92
2, 7035, Note_on_c, 9, 44, 0
2, 7035, Note_on_c, 9, 46, 0
2, 7060, Note_on_c, 9, 57, 0
2, 7074, Control_c, 9, 4, 82
2, 7101, Note_on_c, 9, 38, 25
2, 7130, Control_c, 9, 4, 89
2, 7189, Note_on_c, 9, 38, 0
2, 7216, Note_on_c, 9, 57, 76
2, 7218, Note_on_c, 9, 36, 93
2, 7288, Control_c, 9, 4, 76
2, 7292, Note_on_c, 9, 38, 10
2, 7305, Note_on_c, 9, 57, 0
2, 7306, Note_on_c, 9, 36, 0
2, 7328, Control_c, 9, 4, 56
2, 7336, Note_on_c, 9, 38, 0
2, 7337, Note_on_c, 9, 38, 8
2, 7359, Control_c, 9, 4, 0
2, 7381, Note_on_c, 9, 38, 0
2, 7424, Control_c, 9, 4, 67
2, 7426, Note_on_c, 9, 44, 100
2, 7454, Control_c, 9, 4, 102
2, 7455, Note_on_c, 9, 57, 74
2, 7505, Control_c, 9, 4, 91
2, 7515, Note_on_c, 9, 44, 0
2, 7537, Control_c, 9, 4, 85
2, 7543, Note_on_c, 9, 57, 0
2, 7576, Control_c, 9, 16, 0
2, 7577, Note_on_c, 9, 40, 55
2, 7631, Control_c, 9, 4, 90
2, 7665, Note_on_c, 9, 40, 0
2, 7666, End_track
0, 0, End_of_file
