0, 0, Header, 1, 2, 480
1, 0, Start_track
1, 0, Tempo, 588235
1, 0, Time_signature, 4, 2, 24, 8
1, 0, Key_signature, 0, "major"
1, 1, End_track
2, 0, Start_track
2, 0, Title_t, "Classic Studio Kit"
2, 0, Program_c, 9, 0
2, 0, Control_c, 9, 16, 0
2, 31, Control_c, 9, 16, 0
2, 31, Note_on_c, 9, 38, 58
2, 53, Note_on_c, 9, 38, 0
2, 153, Control_c, 9, 16, 127
2, 153, Note_on_c, 9, 38, 73
2, 227, Control_c, 9, 4, 74
2, 235, Note_on_c, 9, 38, 0
2, 265, Note_on_c, 9, 44, 15
2, 274, Control_c, 9, 16, 106
2, 275, Note_on_c, 9, 38, 62
2, 290, Control_c, 9, 4, 81
2, 346, Note_on_c, 9, 44, 0
2, 355, Note_on_c, 9, 38, 0
2, 508, Control_c, 9, 4, 89
2, 509, Control_c, 9, 16, 0
2, 509, Note_on_c, 9, 38, 87
2, 514, Control_c, 9, 17, 5
2, 515, Note_on_c, 9, 51, 114
2, 524, Note_on_c, 9, 36, 74
2, 544, Control_c, 9, 4, 104
2, 591, Note_on_c, 9, 38, 0
2, 597, Note_on_c, 9, 51, 0
2, 607, Control_c, 9, 4, 90
2, 607, Note_on_c, 9, 36, 0
2, 641, Control_c, 9, 4, 70
2, 676, Control_c, 9, 4, 0
2, 742, Note_on_c, 9, 44, 119
2, 753, Control_c, 9, 4, 127
2, 754, Control_c, 9, 17, 36
2, 755, Note_on_c, 9, 51, 83
2, 792, Control_c, 9, 4, 112
2, 824, Note_on_c, 9, 44, 0
2, 833, Control_c, 9, 4, 91
2, 837, Note_on_c, 9, 51, 0
2, 872, Note_on_c, 9, 48, 44
2, 873, Note_on_c, 9, 36, 61
2, 953, Note_on_c, 9, 48, 0
2, 955, Note_on_c, 9, 36, 0
2, 980, Control_c, 9, 4, 114
2, 988, Control_c, 9, 18, 0
2, 989, Note_on_c, 9, 48, 71
2, 996, Control_c, 9, 17, 0
2, 997, Note_on_c, 9, 51, 63
2, 1070, Note_on_c, 9, 48, 0
2, 1073, Control_c, 9, 4, 91
2, 1078, Note_on_c, 9, 51, 0
2, 1108, Control_c, 9, 4, 70
2, 1113, Control_c, 9, 17, 65
2, 1113, Note_on_c, 9, 51, 82
2, 1139, Control_c, 9, 4, 0
2, 1195, Note_on_c, 9, 51, 0
2, 1212, Note_on_c, 9, 46, 12
2, 1214, Note_on_c, 9, 36, 64
2, 1219, Control_c, 9, 4, 34
2, 1224, Note_on_c, 9, 44, 127
2, 1249, Control_c, 9, 4, 127
2, 1268, Control_c, 9, 17, 65
2, 1268, Note_on_c, 9, 51, 4
2, 1285, Control_c, 9, 4, 102
2, 1294, Note_on_c, 9, 46, 0
2, 1296, Note_on_c, 9, 36, 0
2, 1305, Note_on_c, 9, 44, 0
2, 1317, Control_c, 9, 4, 89
2, 1350, Note_on_c, 9, 51, 0
2, 1355, Control_c, 9, 17, 41
2, 1356, Note_on_c, 9, 51, 80
2, 1436, Note_on_c, 9, 51, 0
2, 1457, Note_on_c, 9, 36, 76
2, 1462, Control_c, 9, 4, 98
2, 1469, Control_c, 9, 17, 41
2, 1470, Note_on_c, 9, 51, 6
2, 1471, Note_on_c, 9, 38, 113
2, 1511, Control_c, 9, 4, 102
2, 1539, Note_on_c, 9, 36, 0
2, 1544, Control_c, 9, 4, 95
2, 1551, Note_on_c, 9, 38, 0
2, 1551, Note_on_c, 9, 51, 0
2, 1591, Control_c, 9, 4, 71
2, 1626, Control_c, 9, 4, 0
2, 1691, Note_on_c, 9, 46, 14
2, 1698, Control_c, 9, 4, 35
2, 1703, Note_on_c, 9, 44, 127
2, 1706, Control_c, 9, 17, 20
2, 1706, Note_on_c, 9, 51, 85
2, 1728, Control_c, 9, 4, 127
2, 1764, Control_c, 9, 4, 118
2, 1773, Note_on_c, 9, 46, 0
2, 1785, Note_on_c, 9, 44, 0
2, 1788, Note_on_c, 9, 51, 0
2, 1804, Control_c, 9, 4, 91
2, 1819, Note_on_c, 9, 48, 42
2, 1839, Note_on_c, 9, 36, 73
2, 1901, Note_on_c, 9, 48, 0
2, 1922, Note_on_c, 9, 36, 0
2, 1944, Control_c, 9, 18, 0
2, 1944, Note_on_c, 9, 48, 67
2, 1953, Control_c, 9, 17, 42
2, 1954, Note_on_c, 9, 51, 75
2, 1959, Control_c, 9, 4, 120
2, 2026, Note_on_c, 9, 48, 0
2, 2034, Note_on_c, 9, 51, 0
2, 2048, Control_c, 9, 4, 92
2, 2067, Control_c, 9, 17, 80
2, 2067, Note_on_c, 9, 51, 78
2, 2084, Control_c, 9, 4, 72
2, 2123, Control_c, 9, 4, 0
2, 2150, Note_on_c, 9, 51, 0
2, 2188, Note_on_c, 9, 36, 67
2, 2197, Note_on_c, 9, 44, 127
2, 2203, Control_c, 9, 4, 127
2, 2247, Control_c, 9, 4, 116
2, 2270, Note_on_c, 9, 36, 0
2, 2278, Note_on_c, 9, 44, 0
2, 2284, Control_c, 9, 4, 91
2, 2433, Control_c, 9, 4, 104
2, 2438, Control_c, 9, 17, 14
2, 2438, Note_on_c, 9, 51, 97
2, 2439, Control_c, 9, 16, 0
2, 2439, Note_on_c, 9, 38, 97
2, 2441, Note_on_c, 9, 36, 75
2, 2520, Note_on_c, 9, 51, 0
2, 2521, Note_on_c, 9, 38, 0
2, 2522, Note_on_c, 9, 36, 0
2, 2533, Control_c, 9, 4, 90
2, 2565, Control_c, 9, 4, 71
2, 2599, Control_c, 9, 4, 0
2, 2664, Note_on_c, 9, 46, 11
2, 2673, Control_c, 9, 4, 34
2, 2674, Control_c, 9, 17, 76
2, 2675, Note_on_c, 9, 51, 78
2, 2677, Note_on_c, 9, 44, 127
2, 2703, Control_c, 9, 4, 126
2, 2738, Control_c, 9, 4, 120
2, 2746, Note_on_c, 9, 46, 0
2, 2757, Note_on_c, 9, 51, 0
2, 2759, Note_on_c, 9, 44, 0
2, 2779, Control_c, 9, 4, 91
2, 2788, Note_on_c, 9, 48, 48
2, 2810, Control_c, 9, 4, 87
2, 2810, Note_on_c, 9, 36, 55
2, 2870, Note_on_c, 9, 48, 0
2, 2891, Note_on_c, 9, 36, 0
2, 2909, Control_c, 9, 17, 0
2, 2909, Note_on_c, 9, 51, 65
2, 2912, Control_c, 9, 18, 0
2, 2912, Note_on_c, 9, 48, 74
2, 2925, Control_c, 9, 4, 127
2, 2991, Note_on_c, 9, 51, 0
2, 2993, Control_c, 9, 4, 99
2, 2994, Note_on_c, 9, 48, 0
2, 3033, Control_c, 9, 4, 70
2, 3037, Control_c, 9, 17, 90
2, 3037, Note_on_c, 9, 51, 68
2, 3066, Control_c, 9, 4, 0
2, 3107, Control_c, 9, 4, 0
2, 3108, Note_on_c, 9, 46, 26
2, 3119, Note_on_c, 9, 51, 0
2, 3144, Note_on_c, 9, 46, 0
2, 3145, Note_on_c, 9, 46, 16
2, 3152, Note_on_c, 9, 36, 70
2, 3153, Control_c, 9, 4, 33
2, 3157, Note_on_c, 9, 44, 127
2, 3183, Control_c, 9, 4, 127
2, 3189, Note_on_c, 9, 46, 0
2, 3220, Control_c, 9, 4, 114
2, 3234, Note_on_c, 9, 36, 0
2, 3239, Note_on_c, 9, 44, 0
2, 3255, Control_c, 9, 4, 78
2, 3266, Control_c, 9, 17, 41
2, 3267, Note_on_c, 9, 51, 77
2, 3289, Control_c, 9, 4, 0
2, 3348, Note_on_c, 9, 51, 0
2, 3370, Note_on_c, 9, 46, 15
2, 3383, Control_c, 9, 4, 51
2, 3387, Note_on_c, 9, 44, 113
2, 3392, Note_on_c, 9, 38, 66
2, 3396, Note_on_c, 9, 36, 78
2, 3413, Control_c, 9, 4, 112
2, 3451, Note_on_c, 9, 46, 0
2, 3462, Control_c, 9, 4, 93
2, 3468, Note_on_c, 9, 44, 0
2, 3473, Note_on_c, 9, 38, 0
2, 3477, Note_on_c, 9, 36, 0
2, 3496, Control_c, 9, 4, 82
2, 3610, Control_c, 9, 17, 76
2, 3611, Note_on_c, 9, 51, 101
2, 3618, Control_c, 9, 4, 127
2, 3693, Note_on_c, 9, 51, 0
2, 3694, Control_c, 9, 4, 92
2, 3724, Control_c, 9, 4, 72
2, 3736, Note_on_c, 9, 36, 57
2, 3738, Note_on_c, 9, 48, 47
2, 3759, Control_c, 9, 4, 0
2, 3799, Control_c, 9, 4, 0
2, 3799, Note_on_c, 9, 46, 27
2, 3817, Note_on_c, 9, 36, 0
2, 3820, Note_on_c, 9, 48, 0
2, 3839, Note_on_c, 9, 46, 0
2, 3839, Note_on_c, 9, 46, 13
2, 3852, Note_on_c, 9, 44, 127
2, 3858, Control_c, 9, 4, 127
2, 3861, Control_c, 9, 18, 0
2, 3861, Note_on_c, 9, 48, 67
2, 3863, Control_c, 9, 17, 127
2, 3863, Note_on_c, 9, 51, 68
2, 3881, Note_on_c, 9, 46, 0
2, 3902, Control_c, 9, 4, 120
2, 3934, Note_on_c, 9, 44, 0
2, 3941, Control_c, 9, 4, 91
2, 3942, Note_on_c, 9, 48, 0
2, 3945, Note_on_c, 9, 51, 0
2, 3986, Control_c, 9, 17, 91
2, 3986, Note_on_c, 9, 51, 64
2, 4067, Note_on_c, 9, 51, 0
2, 4072, Control_c, 9, 4, 116
2, 4079, Note_on_c, 9, 36, 67
2, 4132, Control_c, 9, 4, 94
2, 4162, Note_on_c, 9, 36, 0
2, 4327, Note_on_c, 9, 36, 75
2, 4339, Control_c, 9, 17, 11
2, 4340, Note_on_c, 9, 51, 94
2, 4345, Control_c, 9, 16, 0
2, 4345, Note_on_c, 9, 38, 77
2, 4360, Control_c, 9, 4, 106
2, 4408, Control_c, 9, 4, 91
2, 4408, Note_on_c, 9, 36, 0
2, 4420, Note_on_c, 9, 51, 0
2, 4427, Note_on_c, 9, 38, 0
2, 4443, Control_c, 9, 4, 73
2, 4487, Control_c, 9, 4, 0
2, 4562, Note_on_c, 9, 46, 16
2, 4575, Note_on_c, 9, 44, 127
2, 4580, Control_c, 9, 4, 127
2, 4588, Control_c, 9, 17, 69
2, 4589, Note_on_c, 9, 51, 85
2, 4624, Control_c, 9, 4, 120
2, 4644, Note_on_c, 9, 46, 0
2, 4655, Control_c, 9, 4, 97
2, 4656, Note_on_c, 9, 44, 0
2, 4670, Note_on_c, 9, 51, 0
2, 4695, Note_on_c, 9, 48, 47
2, 4697, Control_c, 9, 4, 87
2, 4721, Note_on_c, 9, 36, 70
2, 4776, Note_on_c, 9, 48, 0
2, 4803, Note_on_c, 9, 36, 0
2, 4808, Control_c, 9, 4, 97
2, 4821, Control_c, 9, 18, 0
2, 4821, Note_on_c, 9, 48, 69
2, 4828, Control_c, 9, 17, 121
2, 4829, Note_on_c, 9, 51, 79
2, 4845, Control_c, 9, 4, 120
2, 4895, Control_c, 9, 4, 112
2, 4904, Note_on_c, 9, 48, 0
2, 4911, Note_on_c, 9, 51, 0
2, 4926, Control_c, 9, 4, 92
2, 4953, Control_c, 9, 17, 83
2, 4954, Note_on_c, 9, 51, 74
2, 4961, Control_c, 9, 4, 74
2, 4999, Control_c, 9, 4, 0
2, 5035, Note_on_c, 9, 51, 0
2, 5063, Note_on_c, 9, 46, 12
2, 5066, Note_on_c, 9, 36, 65
2, 5074, Note_on_c, 9, 44, 127
2, 5081, Control_c, 9, 4, 127
2, 5124, Control_c, 9, 4, 120
2, 5143, Note_on_c, 9, 46, 0
2, 5148, Note_on_c, 9, 36, 0
2, 5156, Note_on_c, 9, 44, 0
2, 5169, Control_c, 9, 4, 91
2, 5192, Control_c, 9, 17, 95
2, 5193, Note_on_c, 9, 51, 82
2, 5274, Note_on_c, 9, 51, 0
2, 5309, Note_on_c, 9, 38, 79
2, 5313, Control_c, 9, 4, 102
2, 5315, Note_on_c, 9, 36, 71
2, 5391, Note_on_c, 9, 38, 0
2, 5396, Note_on_c, 9, 36, 0
2, 5413, Control_c, 9, 4, 90
2, 5447, Control_c, 9, 4, 73
2, 5487, Control_c, 9, 4, 0
2, 5544, Control_c, 9, 17, 104
2, 5544, Note_on_c, 9, 51, 94
2, 5550, Control_c, 9, 4, 34
2, 5555, Note_on_c, 9, 44, 127
2, 5581, Control_c, 9, 4, 120
2, 5627, Note_on_c, 9, 51, 0
2, 5638, Note_on_c, 9, 44, 0
2, 5645, Control_c, 9, 4, 92
2, 5662, Control_c, 9, 17, 104
2, 5663, Note_on_c, 9, 51, 7
2, 5665, Note_on_c, 9, 48, 44
2, 5676, Control_c, 9, 4, 88
2, 5680, Note_on_c, 9, 36, 44
2, 5743, Note_on_c, 9, 51, 0
2, 5746, Note_on_c, 9, 48, 0
2, 5762, Note_on_c, 9, 36, 0
2, 5784, Control_c, 9, 18, 0
2, 5784, Note_on_c, 9, 48, 64
2, 5786, Control_c, 9, 17, 127
2, 5787, Control_c, 9, 4, 122
2, 5787, Note_on_c, 9, 51, 66
2, 5834, Control_c, 9, 4, 116
2, 5866, Note_on_c, 9, 48, 0
2, 5867, Note_on_c, 9, 51, 0
2, 5875, Control_c, 9, 4, 90
2, 5911, Control_c, 9, 4, 72
2, 5912, Control_c, 9, 17, 91
2, 5913, Note_on_c, 9, 51, 68
2, 5949, Control_c, 9, 4, 0
2, 5994, Note_on_c, 9, 51, 0
2, 6017, Control_c, 9, 4, 34
2, 6019, Note_on_c, 9, 36, 71
2, 6023, Note_on_c, 9, 44, 127
2, 6049, Control_c, 9, 4, 127
2, 6101, Note_on_c, 9, 36, 0
2, 6106, Control_c, 9, 4, 92
2, 6106, Note_on_c, 9, 44, 0
2, 6134, Control_c, 9, 17, 53
2, 6134, Note_on_c, 9, 51, 60
2, 6216, Note_on_c, 9, 51, 0
2, 6256, Control_c, 9, 4, 110
2, 6261, Note_on_c, 9, 36, 74
2, 6263, Control_c, 9, 16, 0
2, 6263, Note_on_c, 9, 38, 74
2, 6313, Control_c, 9, 4, 104
2, 6342, Note_on_c, 9, 36, 0
2, 6344, Control_c, 9, 4, 91
2, 6345, Note_on_c, 9, 38, 0
2, 6392, Control_c, 9, 4, 70
2, 6426, Control_c, 9, 4, 0
2, 6492, Control_c, 9, 17, 73
2, 6493, Note_on_c, 9, 51, 92
2, 6497, Note_on_c, 9, 44, 127
2, 6502, Control_c, 9, 4, 127
2, 6546, Control_c, 9, 4, 120
2, 6574, Note_on_c, 9, 51, 0
2, 6578, Note_on_c, 9, 44, 0
2, 6586, Control_c, 9, 4, 91
2, 6606, Note_on_c, 9, 48, 49
2, 6621, Control_c, 9, 4, 87
2, 6634, Note_on_c, 9, 36, 42
2, 6687, Note_on_c, 9, 48, 0
2, 6717, Note_on_c, 9, 36, 0
2, 6733, Control_c, 9, 4, 116
2, 6737, Control_c, 9, 18, 0
2, 6738, Note_on_c, 9, 48, 70
2, 6741, Control_c, 9, 17, 127
2, 6742, Note_on_c, 9, 51, 75
2, 6819, Note_on_c, 9, 48, 0
2, 6822, Note_on_c, 9, 51, 0
2, 6831, Control_c, 9, 4, 90
2, 6863, Control_c, 9, 4, 71
2, 6866, Control_c, 9, 17, 89
2, 6867, Note_on_c, 9, 51, 70
2, 6896, Control_c, 9, 4, 0
2, 6948, Note_on_c, 9, 51, 0
2, 6969, Note_on_c, 9, 46, 20
2, 6974, Control_c, 9, 4, 34
2, 6978, Note_on_c, 9, 36, 68
2, 6979, Note_on_c, 9, 44, 127
2, 7005, Control_c, 9, 4, 127
2, 7042, Control_c, 9, 4, 114
2, 7050, Note_on_c, 9, 46, 0
2, 7059, Note_on_c, 9, 36, 0
2, 7061, Note_on_c, 9, 44, 0
2, 7075, Control_c, 9, 4, 78
2, 7100, Control_c, 9, 17, 89
2, 7100, Note_on_c, 9, 51, 64
2, 7110, Control_c, 9, 4, 0
2, 7183, Note_on_c, 9, 51, 0
2, 7191, Note_on_c, 9, 46, 13
2, 7200, Control_c, 9, 4, 35
2, 7205, Note_on_c, 9, 44, 119
2, 7212, Note_on_c, 9, 38, 74
2, 7219, Note_on_c, 9, 36, 77
2, 7232, Control_c, 9, 4, 108
2, 7272, Note_on_c, 9, 46, 0
2, 7280, Control_c, 9, 4, 98
2, 7288, Note_on_c, 9, 44, 0
2, 7294, Note_on_c, 9, 38, 0
2, 7302, Note_on_c, 9, 36, 0
2, 7317, Control_c, 9, 4, 84
2, 7441, Control_c, 9, 17, 68
2, 7442, Note_on_c, 9, 51, 96
2, 7445, Control_c, 9, 4, 122
2, 7503, Control_c, 9, 4, 112
2, 7523, Note_on_c, 9, 51, 0
2, 7533, Control_c, 9, 4, 91
2, 7561, Note_on_c, 9, 48, 52
2, 7567, Control_c, 9, 4, 70
2, 7574, Note_on_c, 9, 36, 62
2, 7600, Control_c, 9, 4, 0
2, 7643, Note_on_c, 9, 48, 0
2, 7655, Note_on_c, 9, 36, 0
2, 7656, End_track
0, 0, End_of_file
