0, 0, Header, 1, 2, 480
1, 0, Start_track
1, 0, Tempo, 600000
1, 0, Time_signature, 4, 2, 24, 8
1, 0, Key_signature, 0, "major"
1, 1, End_track
2, 0, Start_track
2, 0, Title_t, "Midi Drums"
2, 0, Program_c, 9, 0
2, 242, Note_on_c, 9, 51, 23
2, 323, Note_on_c, 9, 51, 0
2, 483, Note_on_c, 9, 38, 127
2, 483, Note_on_c, 9, 51, 98
2, 564, Note_on_c, 9, 38, 0
2, 564, Note_on_c, 9, 51, 0
2, 734, Note_on_c, 9, 53, 27
2, 815, Note_on_c, 9, 53, 0
2, 861, Note_on_c, 9, 38, 127
2, 942, Note_on_c, 9, 38, 0
2, 1090, Note_on_c, 9, 38, 127
2, 1171, Note_on_c, 9, 38, 0
2, 1200, Note_on_c, 9, 53, 77
2, 1206, Note_on_c, 9, 36, 127
2, 1281, Note_on_c, 9, 53, 0
2, 1287, Note_on_c, 9, 36, 0
2, 1450, Note_on_c, 9, 53, 94
2, 1451, Note_on_c, 9, 38, 127
2, 1531, Note_on_c, 9, 38, 0
2, 1531, Note_on_c, 9, 53, 0
2, 1684, Note_on_c, 9, 51, 37
2, 1765, Note_on_c, 9, 51, 0
2, 1905, Note_on_c, 9, 36, 127
2, 1910, Note_on_c, 9, 51, 93
2, 1986, Note_on_c, 9, 36, 0
2, 1991, Note_on_c, 9, 51, 0
2, 2178, Note_on_c, 9, 51, 30
2, 2259, Note_on_c, 9, 51, 0
2, 2397, Note_on_c, 9, 38, 127
2, 2399, Note_on_c, 9, 51, 109
2, 2477, Note_on_c, 9, 38, 0
2, 2480, Note_on_c, 9, 51, 0
2, 2633, Note_on_c, 9, 51, 40
2, 2713, Note_on_c, 9, 51, 0
2, 2761, Note_on_c, 9, 38, 127
2, 2842, Note_on_c, 9, 38, 0
2, 3000, Note_on_c, 9, 38, 127
2, 3080, Note_on_c, 9, 38, 0
2, 3103, Note_on_c, 9, 36, 127
2, 3110, Note_on_c, 9, 51, 43
2, 3115, Note_on_c, 9, 38, 11
2, 3184, Note_on_c, 9, 36, 0
2, 3191, Note_on_c, 9, 51, 0
2, 3196, Note_on_c, 9, 38, 0
2, 3339, Note_on_c, 9, 51, 127
2, 3349, Note_on_c, 9, 38, 127
2, 3419, Note_on_c, 9, 51, 0
2, 3430, Note_on_c, 9, 38, 0
2, 3590, Note_on_c, 9, 51, 51
2, 3671, Note_on_c, 9, 51, 0
2, 3811, Note_on_c, 9, 36, 127
2, 3826, Note_on_c, 9, 53, 105
2, 3891, Note_on_c, 9, 36, 0
2, 3907, Note_on_c, 9, 53, 0
2, 4068, Note_on_c, 9, 51, 39
2, 4149, Note_on_c, 9, 51, 0
2, 4310, Note_on_c, 9, 38, 127
2, 4312, Note_on_c, 9, 51, 49
2, 4391, Note_on_c, 9, 38, 0
2, 4392, Note_on_c, 9, 51, 0
2, 4539, Note_on_c, 9, 51, 59
2, 4619, Note_on_c, 9, 51, 0
2, 4675, Note_on_c, 9, 38, 127
2, 4755, Note_on_c, 9, 38, 0
2, 4913, Note_on_c, 9, 38, 127
2, 4994, Note_on_c, 9, 38, 0
2, 5025, Note_on_c, 9, 36, 85
2, 5027, Note_on_c, 9, 53, 68
2, 5106, Note_on_c, 9, 36, 0
2, 5107, Note_on_c, 9, 53, 0
2, 5264, Note_on_c, 9, 38, 127
2, 5264, Note_on_c, 9, 51, 113
2, 5344, Note_on_c, 9, 38, 0
2, 5344, Note_on_c, 9, 51, 0
2, 5520, Note_on_c, 9, 51, 41
2, 5601, Note_on_c, 9, 51, 0
2, 5736, Note_on_c, 9, 36, 127
2, 5748, Note_on_c, 9, 53, 92
2, 5817, Note_on_c, 9, 36, 0
2, 5828, Note_on_c, 9, 53, 0
2, 5996, Note_on_c, 9, 51, 51
2, 6077, Note_on_c, 9, 51, 0
2, 6228, Note_on_c, 9, 38, 127
2, 6231, Note_on_c, 9, 53, 94
2, 6308, Note_on_c, 9, 38, 0
2, 6312, Note_on_c, 9, 53, 0
2, 6466, Note_on_c, 9, 53, 43
2, 6547, Note_on_c, 9, 53, 0
2, 6603, Note_on_c, 9, 38, 127
2, 6684, Note_on_c, 9, 38, 0
2, 6833, Note_on_c, 9, 38, 127
2, 6914, Note_on_c, 9, 38, 0
2, 6946, Note_on_c, 9, 36, 127
2, 6953, Note_on_c, 9, 53, 84
2, 7027, Note_on_c, 9, 36, 0
2, 7034, Note_on_c, 9, 53, 0
2, 7192, Note_on_c, 9, 53, 73
2, 7194, Note_on_c, 9, 38, 127
2, 7273, Note_on_c, 9, 53, 0
2, 7275, Note_on_c, 9, 38, 0
2, 7410, Note_on_c, 9, 36, 127
2, 7438, Note_on_c, 9, 53, 54
2, 7491, Note_on_c, 9, 36, 0
2, 7519, Note_on_c, 9, 53, 0
2, 7520, End_track
0, 0, End_of_file
