0, 0, Header, 1, 2, 480
1, 0, Start_track
1, 0, Tempo, 413793
1, 0, Time_signature, 4, 2, 24, 8
1, 0, Key_signature, 0, "major"
1, 1, End_track
2, 0, Start_track
2, 0, Title_t, "Midi Drums"
2, 0, Program_c, 9, 0
2, 921, Note_on_c, 9, 44, 70
2, 927, Control_c, 9, 4, 90
2, 957, Control_c, 9, 4, 90
2, 1037, Note_on_c, 9, 44, 0
2, 1212, Note_on_c, 9, 40, 127
2, 1323, Note_on_c, 9, 38, 127
2, 1328, Note_on_c, 9, 40, 0
2, 1425, Note_on_c, 9, 43, 79
2, 1440, Note_on_c, 9, 38, 0
2, 1542, Note_on_c, 9, 43, 0
2, 1545, Note_on_c, 9, 43, 74
2, 1662, Note_on_c, 9, 43, 0
2, 1674, Note_on_c, 9, 36, 20
2, 1722, Control_c, 9, 4, 65
2, 1771, Control_c, 9, 4, 73
2, 1773, Note_on_c, 9, 36, 0
2, 1773, Note_on_c, 9, 36, 41
2, 1791, Note_on_c, 9, 36, 0
2, 1818, Control_c, 9, 4, 90
2, 1903, Note_on_c, 9, 43, 127
2, 2005, Note_on_c, 9, 38, 127
2, 2020, Note_on_c, 9, 43, 0
2, 2123, Note_on_c, 9, 38, 0
2, 2128, Note_on_c, 9, 38, 57
2, 2241, Note_on_c, 9, 38, 0
2, 2241, Note_on_c, 9, 38, 86
2, 2245, Note_on_c, 9, 38, 0
2, 2382, Note_on_c, 9, 45, 127
2, 2492, Note_on_c, 9, 48, 97
2, 2499, Note_on_c, 9, 45, 0
2, 2609, Note_on_c, 9, 48, 0
2, 2620, Note_on_c, 9, 36, 38
2, 2737, Note_on_c, 9, 36, 0
2, 2742, Note_on_c, 9, 36, 53
2, 2842, Note_on_c, 9, 40, 127
2, 2858, Note_on_c, 9, 36, 0
2, 2953, Note_on_c, 9, 38, 127
2, 2959, Note_on_c, 9, 40, 0
2, 3071, Note_on_c, 9, 38, 0
2, 3087, Note_on_c, 9, 38, 62
2, 3190, Note_on_c, 9, 38, 0
2, 3190, Note_on_c, 9, 38, 66
2, 3204, Note_on_c, 9, 38, 0
2, 3324, Note_on_c, 9, 38, 121
2, 3441, Note_on_c, 9, 38, 0
2, 3551, Note_on_c, 9, 43, 82
2, 3668, Note_on_c, 9, 43, 0
2, 3681, Note_on_c, 9, 38, 98
2, 3798, Note_on_c, 9, 38, 0
2, 3805, Note_on_c, 9, 43, 117
2, 3922, Note_on_c, 9, 43, 0
2, 3923, Note_on_c, 9, 36, 43
2, 3942, Control_c, 9, 4, 25
2, 3977, Control_c, 9, 4, 0
2, 4025, Control_c, 9, 4, 6
2, 4040, Note_on_c, 9, 36, 0
2, 4042, Note_on_c, 9, 36, 127
2, 4075, Control_c, 9, 4, 76
2, 4075, Note_on_c, 9, 44, 30
2, 4112, Control_c, 9, 4, 90
2, 4146, Note_on_c, 9, 43, 127
2, 4160, Note_on_c, 9, 36, 0
2, 4192, Note_on_c, 9, 44, 0
2, 4257, Note_on_c, 9, 38, 127
2, 4263, Note_on_c, 9, 43, 0
2, 4358, Note_on_c, 9, 38, 0
2, 4358, Note_on_c, 9, 38, 61
2, 4373, Note_on_c, 9, 38, 0
2, 4487, Note_on_c, 9, 38, 75
2, 4593, Note_on_c, 9, 38, 0
2, 4593, Note_on_c, 9, 38, 124
2, 4604, Note_on_c, 9, 38, 0
2, 4719, Note_on_c, 9, 38, 115
2, 4836, Note_on_c, 9, 38, 0
2, 4845, Note_on_c, 9, 48, 64
2, 4913, Note_on_c, 9, 48, 0
2, 4913, Note_on_c, 9, 48, 119
2, 4961, Note_on_c, 9, 48, 0
2, 4990, Note_on_c, 9, 50, 127
2, 5089, Note_on_c, 9, 48, 99
2, 5106, Note_on_c, 9, 50, 0
2, 5190, Note_on_c, 9, 37, 32
2, 5206, Note_on_c, 9, 48, 0
2, 5303, Note_on_c, 9, 38, 102
2, 5307, Note_on_c, 9, 37, 0
2, 5406, Note_on_c, 9, 40, 127
2, 5420, Note_on_c, 9, 38, 0
2, 5523, Note_on_c, 9, 40, 0
2, 5524, Note_on_c, 9, 38, 127
2, 5641, Note_on_c, 9, 38, 0
2, 5642, Note_on_c, 9, 45, 89
2, 5745, Note_on_c, 9, 48, 127
2, 5759, Note_on_c, 9, 45, 0
2, 5862, Note_on_c, 9, 48, 0
2, 5879, Note_on_c, 9, 36, 46
2, 5996, Note_on_c, 9, 36, 0
2, 6016, Note_on_c, 9, 36, 64
2, 6122, Note_on_c, 9, 43, 127
2, 6133, Note_on_c, 9, 36, 0
2, 6227, Note_on_c, 9, 38, 127
2, 6239, Note_on_c, 9, 43, 0
2, 6344, Note_on_c, 9, 38, 0
2, 6364, Note_on_c, 9, 38, 67
2, 6481, Note_on_c, 9, 38, 0
2, 6485, Note_on_c, 9, 38, 76
2, 6602, Note_on_c, 9, 38, 0
2, 6606, Note_on_c, 9, 40, 127
2, 6723, Note_on_c, 9, 40, 0
2, 6731, Note_on_c, 9, 38, 69
2, 6835, Note_on_c, 9, 38, 0
2, 6835, Note_on_c, 9, 38, 75
2, 6849, Note_on_c, 9, 38, 0
2, 6963, Note_on_c, 9, 48, 127
2, 7081, Note_on_c, 9, 48, 0
2, 7095, Note_on_c, 9, 45, 114
2, 7210, Note_on_c, 9, 38, 112
2, 7212, Note_on_c, 9, 45, 0
2, 7328, Note_on_c, 9, 38, 0
2, 7336, Note_on_c, 9, 38, 92
2, 7393, Control_c, 9, 4, 78
2, 7423, Control_c, 9, 4, 47
2, 7453, Note_on_c, 9, 38, 0
2, 7465, Control_c, 9, 4, 0
2, 7470, Note_on_c, 9, 55, 71
2, 7487, Note_on_c, 9, 36, 42
2, 7588, Note_on_c, 9, 55, 0
2, 7602, Note_on_c, 9, 36, 0
2, 7602, Note_on_c, 9, 36, 116
2, 7604, Note_on_c, 9, 36, 0
2, 7605, End_track
0, 0, End_of_file
