0, 0, Header, 1, 2, 480
1, 0, Start_track
1, 0, Tempo, 588235
1, 0, Time_signature, 4, 2, 24, 8
1, 0, Key_signature, 0, "major"
1, 1, End_track
2, 0, Start_track
2, 0, Title_t, "Classic Studio Kit"
2, 0, Program_c, 9, 0
2, 0, Control_c, 9, 18, 0
2, 12, Control_c, 9, 4, 118
2, 25, Control_c, 9, 17, 72
2, 25, Note_on_c, 9, 48, 75
2, 26, Note_on_c, 9, 51, 68
2, 67, Control_c, 9, 4, 112
2, 106, Note_on_c, 9, 48, 0
2, 106, Note_on_c, 9, 51, 0
2, 108, Control_c, 9, 4, 92
2, 142, Control_c, 9, 4, 73
2, 148, Control_c, 9, 17, 45
2, 149, Note_on_c, 9, 51, 71
2, 181, Control_c, 9, 4, 0
2, 230, Note_on_c, 9, 51, 0
2, 250, Note_on_c, 9, 44, 127
2, 251, Note_on_c, 9, 36, 59
2, 256, Control_c, 9, 4, 127
2, 300, Control_c, 9, 4, 118
2, 332, Note_on_c, 9, 44, 0
2, 333, Note_on_c, 9, 36, 0
2, 336, Control_c, 9, 4, 91
2, 488, Control_c, 9, 4, 102
2, 495, Control_c, 9, 17, 32
2, 495, Note_on_c, 9, 51, 82
2, 498, Note_on_c, 9, 38, 65
2, 499, Note_on_c, 9, 36, 71
2, 576, Note_on_c, 9, 51, 0
2, 579, Note_on_c, 9, 38, 0
2, 580, Note_on_c, 9, 36, 0
2, 582, Control_c, 9, 4, 90
2, 616, Control_c, 9, 4, 72
2, 656, Control_c, 9, 4, 0
2, 724, Note_on_c, 9, 46, 13
2, 736, Note_on_c, 9, 44, 127
2, 742, Control_c, 9, 4, 127
2, 744, Control_c, 9, 17, 52
2, 745, Note_on_c, 9, 51, 66
2, 786, Control_c, 9, 4, 120
2, 805, Note_on_c, 9, 46, 0
2, 817, Note_on_c, 9, 44, 0
2, 827, Note_on_c, 9, 51, 0
2, 828, Control_c, 9, 4, 91
2, 860, Control_c, 9, 18, 0
2, 861, Note_on_c, 9, 48, 49
2, 865, Note_on_c, 9, 36, 65
2, 943, Note_on_c, 9, 48, 0
2, 947, Note_on_c, 9, 36, 0
2, 974, Control_c, 9, 4, 120
2, 980, Control_c, 9, 17, 127
2, 981, Note_on_c, 9, 51, 56
2, 984, Note_on_c, 9, 48, 72
2, 1051, Control_c, 9, 4, 98
2, 1062, Note_on_c, 9, 51, 0
2, 1066, Note_on_c, 9, 48, 0
2, 1094, Control_c, 9, 4, 71
2, 1107, Control_c, 9, 17, 47
2, 1108, Note_on_c, 9, 51, 71
2, 1132, Control_c, 9, 4, 0
2, 1188, Note_on_c, 9, 51, 0
2, 1204, Note_on_c, 9, 46, 17
2, 1209, Control_c, 9, 4, 33
2, 1211, Note_on_c, 9, 36, 73
2, 1214, Note_on_c, 9, 44, 127
2, 1240, Control_c, 9, 4, 127
2, 1258, Note_on_c, 9, 49, 7
2, 1283, Control_c, 9, 4, 112
2, 1285, Note_on_c, 9, 46, 0
2, 1293, Note_on_c, 9, 36, 0
2, 1296, Note_on_c, 9, 44, 0
2, 1316, Control_c, 9, 4, 78
2, 1339, Control_c, 9, 17, 60
2, 1339, Note_on_c, 9, 51, 62
2, 1341, Note_on_c, 9, 49, 0
2, 1356, Control_c, 9, 4, 0
2, 1421, Note_on_c, 9, 51, 0
2, 1435, Note_on_c, 9, 46, 10
2, 1443, Control_c, 9, 4, 33
2, 1448, Note_on_c, 9, 36, 85
2, 1450, Note_on_c, 9, 44, 126
2, 1464, Control_c, 9, 16, 0
2, 1464, Note_on_c, 9, 38, 63
2, 1475, Control_c, 9, 4, 100
2, 1517, Note_on_c, 9, 46, 0
2, 1530, Note_on_c, 9, 36, 0
2, 1532, Note_on_c, 9, 44, 0
2, 1547, Note_on_c, 9, 38, 0
2, 1550, Control_c, 9, 4, 85
2, 1693, Control_c, 9, 17, 45
2, 1694, Note_on_c, 9, 51, 87
2, 1695, Control_c, 9, 4, 118
2, 1774, Control_c, 9, 4, 90
2, 1775, Note_on_c, 9, 51, 0
2, 1807, Control_c, 9, 4, 71
2, 1814, Note_on_c, 9, 36, 57
2, 1818, Control_c, 9, 18, 0
2, 1818, Note_on_c, 9, 48, 48
2, 1841, Control_c, 9, 4, 0
2, 1896, Note_on_c, 9, 36, 0
2, 1899, Note_on_c, 9, 48, 0
2, 1914, Note_on_c, 9, 46, 8
2, 1921, Control_c, 9, 4, 34
2, 1927, Note_on_c, 9, 44, 127
2, 1939, Control_c, 9, 17, 127
2, 1940, Note_on_c, 9, 51, 50
2, 1946, Note_on_c, 9, 48, 74
2, 1952, Control_c, 9, 4, 127
2, 1995, Note_on_c, 9, 46, 0
2, 1998, Control_c, 9, 4, 108
2, 2009, Note_on_c, 9, 44, 0
2, 2021, Note_on_c, 9, 51, 0
2, 2027, Note_on_c, 9, 48, 0
2, 2030, Control_c, 9, 4, 92
2, 2064, Control_c, 9, 17, 56
2, 2064, Note_on_c, 9, 51, 58
2, 2146, Note_on_c, 9, 51, 0
2, 2156, Control_c, 9, 4, 108
2, 2177, Note_on_c, 9, 36, 61
2, 2218, Control_c, 9, 4, 94
2, 2259, Note_on_c, 9, 36, 0
2, 2411, Note_on_c, 9, 36, 70
2, 2415, Control_c, 9, 17, 35
2, 2416, Note_on_c, 9, 51, 81
2, 2419, Note_on_c, 9, 38, 76
2, 2443, Control_c, 9, 4, 98
2, 2493, Note_on_c, 9, 36, 0
2, 2496, Note_on_c, 9, 51, 0
2, 2499, Control_c, 9, 4, 91
2, 2500, Note_on_c, 9, 38, 0
2, 2545, Control_c, 9, 4, 69
2, 2576, Control_c, 9, 4, 0
2, 2645, Control_c, 9, 4, 35
2, 2650, Note_on_c, 9, 44, 127
2, 2663, Control_c, 9, 17, 68
2, 2664, Note_on_c, 9, 51, 75
2, 2677, Control_c, 9, 4, 126
2, 2708, Control_c, 9, 4, 118
2, 2732, Note_on_c, 9, 44, 0
2, 2745, Control_c, 9, 4, 92
2, 2745, Note_on_c, 9, 51, 0
2, 2777, Control_c, 9, 18, 0
2, 2777, Note_on_c, 9, 48, 48
2, 2789, Note_on_c, 9, 36, 62
2, 2859, Note_on_c, 9, 48, 0
2, 2872, Note_on_c, 9, 36, 0
2, 2895, Control_c, 9, 4, 120
2, 2902, Control_c, 9, 17, 127
2, 2903, Note_on_c, 9, 51, 63
2, 2904, Note_on_c, 9, 48, 70
2, 2985, Note_on_c, 9, 48, 0
2, 2985, Note_on_c, 9, 51, 0
2, 2993, Control_c, 9, 4, 90
2, 3026, Control_c, 9, 4, 72
2, 3032, Control_c, 9, 17, 58
2, 3032, Note_on_c, 9, 51, 65
2, 3064, Control_c, 9, 4, 0
2, 3113, Note_on_c, 9, 51, 0
2, 3132, Note_on_c, 9, 46, 16
2, 3138, Note_on_c, 9, 36, 62
2, 3139, Control_c, 9, 4, 34
2, 3143, Note_on_c, 9, 44, 127
2, 3169, Control_c, 9, 4, 127
2, 3214, Note_on_c, 9, 46, 0
2, 3219, Note_on_c, 9, 36, 0
2, 3220, Control_c, 9, 4, 98
2, 3224, Note_on_c, 9, 44, 0
2, 3258, Control_c, 9, 4, 70
2, 3261, Control_c, 9, 17, 50
2, 3262, Note_on_c, 9, 51, 62
2, 3289, Control_c, 9, 4, 0
2, 3344, Note_on_c, 9, 51, 0
2, 3366, Note_on_c, 9, 46, 10
2, 3374, Control_c, 9, 4, 35
2, 3380, Note_on_c, 9, 36, 85
2, 3380, Note_on_c, 9, 44, 127
2, 3383, Control_c, 9, 16, 0
2, 3384, Note_on_c, 9, 38, 60
2, 3405, Control_c, 9, 4, 112
2, 3447, Control_c, 9, 4, 99
2, 3447, Note_on_c, 9, 46, 0
2, 3461, Note_on_c, 9, 44, 0
2, 3462, Note_on_c, 9, 36, 0
2, 3466, Note_on_c, 9, 38, 0
2, 3480, Control_c, 9, 4, 83
2, 3611, Control_c, 9, 17, 44
2, 3612, Note_on_c, 9, 51, 83
2, 3619, Control_c, 9, 4, 127
2, 3685, Control_c, 9, 4, 95
2, 3693, Note_on_c, 9, 51, 0
2, 3729, Control_c, 9, 4, 71
2, 3740, Note_on_c, 9, 36, 64
2, 3741, Control_c, 9, 18, 0
2, 3741, Note_on_c, 9, 48, 44
2, 3765, Control_c, 9, 4, 0
2, 3823, Note_on_c, 9, 36, 0
2, 3823, Note_on_c, 9, 48, 0
2, 3843, Note_on_c, 9, 46, 10
2, 3854, Control_c, 9, 17, 127
2, 3855, Note_on_c, 9, 51, 63
2, 3857, Note_on_c, 9, 44, 127
2, 3861, Control_c, 9, 4, 127
2, 3863, Note_on_c, 9, 48, 72
2, 3906, Control_c, 9, 4, 120
2, 3924, Note_on_c, 9, 46, 0
2, 3937, Note_on_c, 9, 44, 0
2, 3937, Note_on_c, 9, 51, 0
2, 3945, Note_on_c, 9, 48, 0
2, 3947, Control_c, 9, 4, 92
2, 3976, Control_c, 9, 17, 49
2, 3977, Note_on_c, 9, 51, 69
2, 4057, Note_on_c, 9, 51, 0
2, 4074, Control_c, 9, 4, 110
2, 4089, Note_on_c, 9, 36, 64
2, 4133, Control_c, 9, 4, 94
2, 4171, Note_on_c, 9, 36, 0
2, 4328, Control_c, 9, 17, 52
2, 4328, Note_on_c, 9, 51, 79
2, 4332, Note_on_c, 9, 38, 73
2, 4333, Note_on_c, 9, 36, 75
2, 4354, Control_c, 9, 4, 98
2, 4410, Note_on_c, 9, 51, 0
2, 4412, Note_on_c, 9, 38, 0
2, 4413, Note_on_c, 9, 36, 0
2, 4427, Control_c, 9, 4, 83
2, 4459, Control_c, 9, 4, 69
2, 4491, Control_c, 9, 4, 0
2, 4567, Control_c, 9, 4, 34
2, 4572, Note_on_c, 9, 44, 127
2, 4587, Control_c, 9, 17, 52
2, 4587, Note_on_c, 9, 51, 75
2, 4598, Control_c, 9, 4, 126
2, 4642, Control_c, 9, 4, 112
2, 4653, Note_on_c, 9, 44, 0
2, 4669, Note_on_c, 9, 51, 0
2, 4675, Control_c, 9, 4, 91
2, 4701, Control_c, 9, 18, 0
2, 4701, Note_on_c, 9, 48, 46
2, 4716, Note_on_c, 9, 36, 67
2, 4782, Note_on_c, 9, 48, 0
2, 4792, Control_c, 9, 4, 87
2, 4799, Note_on_c, 9, 36, 0
2, 4827, Note_on_c, 9, 48, 67
2, 4828, Control_c, 9, 17, 0
2, 4829, Note_on_c, 9, 51, 49
2, 4833, Control_c, 9, 4, 127
2, 4885, Control_c, 9, 4, 120
2, 4909, Note_on_c, 9, 48, 0
2, 4909, Note_on_c, 9, 51, 0
2, 4922, Control_c, 9, 4, 90
2, 4950, Control_c, 9, 17, 56
2, 4951, Note_on_c, 9, 51, 65
2, 4953, Control_c, 9, 4, 71
2, 4988, Control_c, 9, 4, 0
2, 5032, Note_on_c, 9, 51, 0
2, 5059, Note_on_c, 9, 46, 14
2, 5060, Note_on_c, 9, 36, 73
2, 5065, Control_c, 9, 4, 36
2, 5070, Note_on_c, 9, 44, 127
2, 5096, Control_c, 9, 4, 127
2, 5140, Note_on_c, 9, 46, 0
2, 5143, Note_on_c, 9, 36, 0
2, 5147, Control_c, 9, 4, 98
2, 5152, Note_on_c, 9, 44, 0
2, 5187, Control_c, 9, 17, 44
2, 5188, Note_on_c, 9, 51, 67
2, 5189, Control_c, 9, 4, 70
2, 5221, Control_c, 9, 4, 0
2, 5269, Note_on_c, 9, 51, 0
2, 5291, Note_on_c, 9, 46, 9
2, 5299, Control_c, 9, 4, 33
2, 5305, Control_c, 9, 16, 0
2, 5305, Note_on_c, 9, 36, 84
2, 5305, Note_on_c, 9, 38, 63
2, 5308, Note_on_c, 9, 44, 126
2, 5331, Control_c, 9, 4, 110
2, 5372, Note_on_c, 9, 46, 0
2, 5382, Control_c, 9, 4, 94
2, 5388, Note_on_c, 9, 36, 0
2, 5388, Note_on_c, 9, 38, 0
2, 5388, Note_on_c, 9, 44, 0
2, 5417, Control_c, 9, 4, 83
2, 5540, Control_c, 9, 17, 36
2, 5540, Note_on_c, 9, 51, 89
2, 5549, Control_c, 9, 4, 120
2, 5622, Note_on_c, 9, 51, 0
2, 5636, Control_c, 9, 4, 91
2, 5665, Note_on_c, 9, 36, 68
2, 5669, Control_c, 9, 4, 72
2, 5669, Control_c, 9, 18, 0
2, 5671, Note_on_c, 9, 48, 44
2, 5706, Control_c, 9, 4, 0
2, 5748, Note_on_c, 9, 36, 0
2, 5752, Note_on_c, 9, 48, 0
2, 5776, Note_on_c, 9, 46, 13
2, 5782, Control_c, 9, 4, 33
2, 5785, Control_c, 9, 17, 127
2, 5786, Note_on_c, 9, 51, 69
2, 5788, Note_on_c, 9, 44, 127
2, 5792, Note_on_c, 9, 48, 76
2, 5813, Control_c, 9, 4, 127
2, 5857, Note_on_c, 9, 46, 0
2, 5858, Control_c, 9, 4, 104
2, 5867, Note_on_c, 9, 51, 0
2, 5869, Note_on_c, 9, 44, 0
2, 5873, Note_on_c, 9, 48, 0
2, 5892, Control_c, 9, 4, 91
2, 5904, Control_c, 9, 17, 63
2, 5904, Note_on_c, 9, 51, 62
2, 5986, Note_on_c, 9, 51, 0
2, 6006, Control_c, 9, 4, 110
2, 6014, Note_on_c, 9, 36, 62
2, 6019, Control_c, 9, 17, 63
2, 6019, Note_on_c, 9, 51, 4
2, 6063, Control_c, 9, 4, 96
2, 6093, Control_c, 9, 4, 92
2, 6096, Note_on_c, 9, 36, 0
2, 6101, Note_on_c, 9, 51, 0
2, 6262, Note_on_c, 9, 36, 74
2, 6262, Note_on_c, 9, 38, 75
2, 6266, Control_c, 9, 17, 41
2, 6267, Note_on_c, 9, 51, 89
2, 6277, Control_c, 9, 4, 98
2, 6344, Note_on_c, 9, 36, 0
2, 6344, Note_on_c, 9, 38, 0
2, 6348, Control_c, 9, 4, 92
2, 6348, Note_on_c, 9, 51, 0
2, 6390, Control_c, 9, 4, 70
2, 6421, Control_c, 9, 4, 0
2, 6498, Note_on_c, 9, 44, 127
2, 6504, Control_c, 9, 4, 127
2, 6513, Control_c, 9, 17, 50
2, 6514, Note_on_c, 9, 51, 78
2, 6551, Control_c, 9, 4, 120
2, 6579, Note_on_c, 9, 44, 0
2, 6587, Control_c, 9, 4, 91
2, 6595, Note_on_c, 9, 51, 0
2, 6622, Control_c, 9, 4, 87
2, 6629, Control_c, 9, 18, 0
2, 6630, Note_on_c, 9, 48, 45
2, 6643, Note_on_c, 9, 36, 68
2, 6710, Note_on_c, 9, 48, 0
2, 6726, Note_on_c, 9, 36, 0
2, 6732, Control_c, 9, 4, 112
2, 6758, Control_c, 9, 17, 0
2, 6758, Note_on_c, 9, 48, 65
2, 6758, Note_on_c, 9, 51, 63
2, 6770, Control_c, 9, 4, 112
2, 6839, Note_on_c, 9, 48, 0
2, 6839, Note_on_c, 9, 51, 0
2, 6847, Control_c, 9, 4, 92
2, 6881, Control_c, 9, 4, 72
2, 6882, Control_c, 9, 17, 48
2, 6883, Note_on_c, 9, 51, 66
2, 6915, Control_c, 9, 4, 0
2, 6965, Note_on_c, 9, 51, 0
2, 6977, Control_c, 9, 4, 33
2, 6980, Note_on_c, 9, 36, 64
2, 6983, Note_on_c, 9, 44, 127
2, 7008, Control_c, 9, 4, 127
2, 7025, Note_on_c, 9, 49, 7
2, 7054, Control_c, 9, 4, 94
2, 7061, Note_on_c, 9, 36, 0
2, 7064, Note_on_c, 9, 44, 0
2, 7099, Control_c, 9, 4, 85
2, 7107, Note_on_c, 9, 49, 0
2, 7196, Control_c, 9, 4, 94
2, 7224, Control_c, 9, 17, 36
2, 7225, Note_on_c, 9, 51, 89
2, 7228, Note_on_c, 9, 36, 78
2, 7230, Control_c, 9, 16, 0
2, 7230, Note_on_c, 9, 38, 63
2, 7306, Note_on_c, 9, 51, 0
2, 7309, Note_on_c, 9, 36, 0
2, 7311, Note_on_c, 9, 38, 0
2, 7327, Control_c, 9, 4, 87
2, 7358, Control_c, 9, 4, 71
2, 7398, Control_c, 9, 4, 0
2, 7461, Control_c, 9, 4, 33
2, 7467, Note_on_c, 9, 44, 127
2, 7478, Control_c, 9, 17, 59
2, 7478, Note_on_c, 9, 51, 71
2, 7493, Control_c, 9, 4, 127
2, 7523, Control_c, 9, 4, 118
2, 7549, Note_on_c, 9, 44, 0
2, 7557, Control_c, 9, 4, 90
2, 7560, Note_on_c, 9, 51, 0
2, 7596, Control_c, 9, 17, 59
2, 7597, Note_on_c, 9, 51, 5
2, 7598, Control_c, 9, 18, 0
2, 7599, Note_on_c, 9, 48, 42
2, 7677, Note_on_c, 9, 51, 0
2, 7680, Note_on_c, 9, 48, 0
2, 7681, End_track
0, 0, End_of_file
