0, 0, Header, 1, 2, 480
1, 0, Start_track
1, 0, Tempo, 299999
1, 0, Time_signature, 4, 2, 24, 8
1, 0, Key_signature, 0, "major"
1, 1, End_track
2, 0, Start_track
2, 0, Title_t, "Midi Drums"
2, 0, Program_c, 9, 0
2, 0, Note_on_c, 9, 36, 80
2, 161, Note_on_c, 9, 36, 0
2, 302, Note_on_c, 9, 38, 33
2, 463, Note_on_c, 9, 38, 0
2, 475, Note_on_c, 9, 38, 124
2, 636, Note_on_c, 9, 38, 0
2, 817, Note_on_c, 9, 38, 16
2, 979, Note_on_c, 9, 38, 0
2, 983, Note_on_c, 9, 36, 72
2, 987, Note_on_c, 9, 38, 38
2, 1145, Note_on_c, 9, 36, 0
2, 1148, Note_on_c, 9, 38, 0
2, 1281, Note_on_c, 9, 38, 31
2, 1442, Note_on_c, 9, 38, 0
2, 1453, Note_on_c, 9, 38, 112
2, 1614, Note_on_c, 9, 38, 0
2, 1761, Note_on_c, 9, 38, 28
2, 1923, Note_on_c, 9, 38, 0
2, 1937, Note_on_c, 9, 36, 67
2, 1943, Note_on_c, 9, 38, 38
2, 2098, Note_on_c, 9, 36, 0
2, 2105, Note_on_c, 9, 38, 0
2, 2211, Note_on_c, 9, 38, 39
2, 2372, Note_on_c, 9, 38, 0
2, 2411, Note_on_c, 9, 38, 109
2, 2572, Note_on_c, 9, 38, 0
2, 2714, Note_on_c, 9, 38, 36
2, 2876, Note_on_c, 9, 36, 67
2, 2876, Note_on_c, 9, 38, 0
2, 2920, Note_on_c, 9, 38, 38
2, 3038, Note_on_c, 9, 36, 0
2, 3081, Note_on_c, 9, 38, 0
2, 3199, Note_on_c, 9, 38, 73
2, 3361, Note_on_c, 9, 38, 0
2, 3385, Note_on_c, 9, 38, 96
2, 3434, Note_on_c, 9, 36, 6
2, 3546, Note_on_c, 9, 38, 0
2, 3596, Note_on_c, 9, 36, 0
2, 3654, Note_on_c, 9, 38, 92
2, 3815, Note_on_c, 9, 38, 0
2, 3826, Note_on_c, 9, 36, 79
2, 3856, Note_on_c, 9, 38, 48
2, 3988, Note_on_c, 9, 36, 0
2, 4017, Note_on_c, 9, 38, 0
2, 4100, Note_on_c, 9, 38, 33
2, 4260, Note_on_c, 9, 38, 0
2, 4289, Note_on_c, 9, 38, 120
2, 4450, Note_on_c, 9, 38, 0
2, 4592, Note_on_c, 9, 38, 24
2, 4753, Note_on_c, 9, 38, 0
2, 4788, Note_on_c, 9, 36, 79
2, 4795, Note_on_c, 9, 38, 45
2, 4950, Note_on_c, 9, 36, 0
2, 4956, Note_on_c, 9, 38, 0
2, 5111, Note_on_c, 9, 38, 37
2, 5271, Note_on_c, 9, 38, 0
2, 5280, Note_on_c, 9, 40, 107
2, 5441, Note_on_c, 9, 40, 0
2, 5566, Note_on_c, 9, 38, 40
2, 5727, Note_on_c, 9, 38, 0
2, 5760, Note_on_c, 9, 36, 80
2, 5774, Note_on_c, 9, 38, 43
2, 5921, Note_on_c, 9, 36, 0
2, 5935, Note_on_c, 9, 38, 0
2, 6049, Note_on_c, 9, 38, 32
2, 6211, Note_on_c, 9, 38, 0
2, 6241, Note_on_c, 9, 40, 105
2, 6403, Note_on_c, 9, 40, 0
2, 6521, Note_on_c, 9, 38, 40
2, 6683, Note_on_c, 9, 38, 0
2, 6732, Note_on_c, 9, 38, 34
2, 6733, Note_on_c, 9, 36, 76
2, 6894, Note_on_c, 9, 36, 0
2, 6894, Note_on_c, 9, 38, 0
2, 6982, Note_on_c, 9, 38, 127
2, 7143, Note_on_c, 9, 38, 0
2, 7187, Note_on_c, 9, 40, 106
2, 7348, Note_on_c, 9, 40, 0
2, 7477, Note_on_c, 9, 38, 40
2, 7639, Note_on_c, 9, 38, 0
2, 7640, End_track
0, 0, End_of_file
