0, 0, Header, 1, 2, 480
1, 0, Start_track
1, 0, Tempo, 588235
1, 0, Time_signature, 4, 2, 24, 8
1, 0, Key_signature, 0, "major"
1, 1, End_track
2, 0, Start_track
2, 0, Title_t, "Classic Studio Kit"
2, 0, Program_c, 9, 0
2, 0, Control_c, 9, 17, 45
2, 3, Control_c, 9, 4, 97
2, 27, Note_on_c, 9, 48, 66
2, 74, Control_c, 9, 4, 92
2, 108, Note_on_c, 9, 48, 0
2, 122, Control_c, 9, 17, 53
2, 122, Note_on_c, 9, 51, 72
2, 204, Note_on_c, 9, 51, 0
2, 255, Note_on_c, 9, 36, 30
2, 284, Control_c, 9, 4, 96
2, 335, Note_on_c, 9, 36, 0
2, 341, Control_c, 9, 4, 90
2, 379, Control_c, 9, 4, 72
2, 413, Control_c, 9, 4, 0
2, 481, Control_c, 9, 4, 49
2, 486, Note_on_c, 9, 44, 126
2, 492, Control_c, 9, 17, 20
2, 493, Note_on_c, 9, 51, 88
2, 494, Control_c, 9, 16, 0
2, 494, Note_on_c, 9, 38, 83
2, 503, Note_on_c, 9, 36, 72
2, 511, Control_c, 9, 4, 112
2, 551, Control_c, 9, 4, 95
2, 568, Note_on_c, 9, 44, 0
2, 574, Note_on_c, 9, 51, 0
2, 575, Note_on_c, 9, 38, 0
2, 585, Note_on_c, 9, 36, 0
2, 592, Control_c, 9, 4, 84
2, 716, Control_c, 9, 4, 108
2, 734, Control_c, 9, 17, 87
2, 735, Note_on_c, 9, 51, 69
2, 773, Control_c, 9, 4, 100
2, 814, Control_c, 9, 4, 89
2, 816, Note_on_c, 9, 51, 0
2, 833, Note_on_c, 9, 36, 62
2, 849, Control_c, 9, 4, 73
2, 851, Control_c, 9, 18, 0
2, 851, Note_on_c, 9, 48, 46
2, 889, Control_c, 9, 4, 0
2, 915, Note_on_c, 9, 36, 0
2, 933, Note_on_c, 9, 48, 0
2, 953, Control_c, 9, 4, 33
2, 953, Control_c, 9, 17, 111
2, 954, Note_on_c, 9, 51, 47
2, 959, Note_on_c, 9, 44, 126
2, 977, Note_on_c, 9, 48, 68
2, 984, Control_c, 9, 4, 120
2, 1020, Control_c, 9, 4, 110
2, 1035, Note_on_c, 9, 51, 0
2, 1040, Note_on_c, 9, 44, 0
2, 1050, Control_c, 9, 4, 93
2, 1058, Note_on_c, 9, 48, 0
2, 1101, Control_c, 9, 17, 66
2, 1101, Note_on_c, 9, 51, 77
2, 1178, Control_c, 9, 4, 99
2, 1182, Note_on_c, 9, 51, 0
2, 1198, Note_on_c, 9, 36, 49
2, 1231, Control_c, 9, 4, 94
2, 1280, Note_on_c, 9, 36, 0
2, 1443, Note_on_c, 9, 36, 74
2, 1452, Control_c, 9, 17, 16
2, 1452, Note_on_c, 9, 51, 94
2, 1458, Note_on_c, 9, 38, 83
2, 1524, Note_on_c, 9, 36, 0
2, 1534, Note_on_c, 9, 51, 0
2, 1540, Note_on_c, 9, 38, 0
2, 1560, Control_c, 9, 4, 89
2, 1592, Control_c, 9, 4, 72
2, 1637, Control_c, 9, 4, 0
2, 1682, Control_c, 9, 4, 50
2, 1687, Note_on_c, 9, 44, 100
2, 1700, Control_c, 9, 17, 60
2, 1700, Note_on_c, 9, 51, 68
2, 1713, Control_c, 9, 4, 120
2, 1751, Control_c, 9, 4, 98
2, 1769, Note_on_c, 9, 44, 0
2, 1781, Note_on_c, 9, 51, 0
2, 1788, Control_c, 9, 4, 84
2, 1811, Control_c, 9, 18, 0
2, 1811, Note_on_c, 9, 48, 46
2, 1812, Note_on_c, 9, 36, 64
2, 1864, Control_c, 9, 4, 88
2, 1892, Note_on_c, 9, 48, 0
2, 1895, Note_on_c, 9, 36, 0
2, 1905, Control_c, 9, 17, 81
2, 1906, Note_on_c, 9, 51, 50
2, 1914, Control_c, 9, 4, 104
2, 1933, Note_on_c, 9, 48, 63
2, 1988, Note_on_c, 9, 51, 0
2, 2014, Note_on_c, 9, 48, 0
2, 2016, Control_c, 9, 4, 92
2, 2052, Control_c, 9, 17, 81
2, 2052, Note_on_c, 9, 51, 74
2, 2069, Control_c, 9, 4, 70
2, 2105, Control_c, 9, 4, 0
2, 2135, Note_on_c, 9, 51, 0
2, 2160, Control_c, 9, 4, 49
2, 2165, Note_on_c, 9, 44, 113
2, 2166, Note_on_c, 9, 36, 30
2, 2190, Control_c, 9, 4, 120
2, 2206, Note_on_c, 9, 49, 5
2, 2236, Control_c, 9, 4, 94
2, 2246, Note_on_c, 9, 44, 0
2, 2249, Note_on_c, 9, 36, 0
2, 2274, Control_c, 9, 4, 69
2, 2288, Note_on_c, 9, 49, 0
2, 2307, Control_c, 9, 4, 0
2, 2380, Note_on_c, 9, 46, 8
2, 2393, Control_c, 9, 4, 49
2, 2398, Note_on_c, 9, 44, 113
2, 2410, Control_c, 9, 17, 13
2, 2411, Note_on_c, 9, 51, 96
2, 2414, Control_c, 9, 16, 0
2, 2414, Note_on_c, 9, 38, 67
2, 2416, Note_on_c, 9, 36, 89
2, 2423, Control_c, 9, 4, 102
2, 2462, Note_on_c, 9, 46, 0
2, 2471, Control_c, 9, 4, 94
2, 2480, Note_on_c, 9, 44, 0
2, 2493, Note_on_c, 9, 51, 0
2, 2495, Note_on_c, 9, 38, 0
2, 2498, Note_on_c, 9, 36, 0
2, 2503, Control_c, 9, 4, 84
2, 2627, Control_c, 9, 4, 108
2, 2655, Control_c, 9, 17, 84
2, 2655, Note_on_c, 9, 51, 72
2, 2690, Control_c, 9, 4, 100
2, 2729, Control_c, 9, 4, 89
2, 2738, Note_on_c, 9, 51, 0
2, 2760, Note_on_c, 9, 36, 61
2, 2764, Control_c, 9, 4, 72
2, 2769, Control_c, 9, 18, 0
2, 2770, Note_on_c, 9, 48, 48
2, 2804, Control_c, 9, 4, 0
2, 2843, Note_on_c, 9, 36, 0
2, 2852, Note_on_c, 9, 48, 0
2, 2858, Control_c, 9, 17, 127
2, 2859, Note_on_c, 9, 51, 51
2, 2875, Control_c, 9, 4, 36
2, 2880, Note_on_c, 9, 44, 127
2, 2895, Note_on_c, 9, 48, 67
2, 2906, Control_c, 9, 4, 122
2, 2940, Note_on_c, 9, 51, 0
2, 2960, Control_c, 9, 4, 92
2, 2962, Note_on_c, 9, 44, 0
2, 2977, Note_on_c, 9, 48, 0
2, 3002, Control_c, 9, 17, 67
2, 3003, Note_on_c, 9, 51, 82
2, 3084, Note_on_c, 9, 51, 0
2, 3104, Control_c, 9, 4, 98
2, 3142, Note_on_c, 9, 36, 71
2, 3156, Control_c, 9, 4, 94
2, 3225, Note_on_c, 9, 36, 0
2, 3297, Control_c, 9, 4, 90
2, 3377, Control_c, 9, 17, 26
2, 3378, Note_on_c, 9, 51, 100
2, 3388, Note_on_c, 9, 38, 92
2, 3390, Control_c, 9, 4, 94
2, 3459, Note_on_c, 9, 51, 0
2, 3469, Note_on_c, 9, 38, 0
2, 3476, Control_c, 9, 4, 83
2, 3508, Control_c, 9, 4, 70
2, 3543, Control_c, 9, 4, 0
2, 3599, Control_c, 9, 4, 48
2, 3603, Note_on_c, 9, 44, 113
2, 3616, Note_on_c, 9, 36, 64
2, 3625, Control_c, 9, 17, 65
2, 3626, Note_on_c, 9, 51, 69
2, 3629, Control_c, 9, 4, 118
2, 3685, Note_on_c, 9, 44, 0
2, 3686, Control_c, 9, 4, 92
2, 3698, Note_on_c, 9, 36, 0
2, 3708, Note_on_c, 9, 51, 0
2, 3735, Control_c, 9, 18, 0
2, 3736, Note_on_c, 9, 48, 45
2, 3809, Control_c, 9, 4, 96
2, 3816, Note_on_c, 9, 48, 0
2, 3820, Control_c, 9, 17, 57
2, 3821, Note_on_c, 9, 51, 45
2, 3851, Note_on_c, 9, 48, 66
2, 3900, Control_c, 9, 4, 112
2, 3902, Note_on_c, 9, 51, 0
2, 3932, Note_on_c, 9, 48, 0
2, 3960, Control_c, 9, 17, 44
2, 3961, Note_on_c, 9, 51, 80
2, 3968, Control_c, 9, 4, 92
2, 4018, Control_c, 9, 4, 70
2, 4042, Note_on_c, 9, 51, 0
2, 4050, Control_c, 9, 4, 0
2, 4108, Note_on_c, 9, 44, 127
2, 4115, Control_c, 9, 4, 127
2, 4118, Note_on_c, 9, 36, 71
2, 4158, Control_c, 9, 4, 118
2, 4190, Note_on_c, 9, 44, 0
2, 4194, Control_c, 9, 4, 89
2, 4201, Note_on_c, 9, 36, 0
2, 4233, Control_c, 9, 4, 76
2, 4278, Control_c, 9, 4, 62
2, 4312, Control_c, 9, 4, 70
2, 4312, Note_on_c, 9, 46, 6
2, 4321, Note_on_c, 9, 44, 9
2, 4322, Note_on_c, 9, 46, 0
2, 4322, Note_on_c, 9, 46, 26
2, 4345, Control_c, 9, 4, 99
2, 4353, Control_c, 9, 17, 27
2, 4354, Note_on_c, 9, 36, 85
2, 4354, Note_on_c, 9, 51, 93
2, 4357, Control_c, 9, 16, 0
2, 4358, Note_on_c, 9, 38, 76
2, 4385, Control_c, 9, 4, 92
2, 4394, Note_on_c, 9, 46, 0
2, 4401, Note_on_c, 9, 44, 0
2, 4431, Control_c, 9, 4, 88
2, 4435, Note_on_c, 9, 51, 0
2, 4436, Note_on_c, 9, 36, 0
2, 4439, Note_on_c, 9, 38, 0
2, 4574, Control_c, 9, 4, 110
2, 4592, Control_c, 9, 17, 67
2, 4593, Note_on_c, 9, 51, 70
2, 4625, Control_c, 9, 4, 98
2, 4663, Control_c, 9, 4, 84
2, 4674, Note_on_c, 9, 51, 0
2, 4691, Note_on_c, 9, 36, 46
2, 4697, Control_c, 9, 4, 70
2, 4707, Control_c, 9, 18, 0
2, 4707, Note_on_c, 9, 48, 49
2, 4734, Control_c, 9, 4, 0
2, 4773, Note_on_c, 9, 36, 0
2, 4781, Control_c, 9, 17, 60
2, 4782, Note_on_c, 9, 51, 51
2, 4789, Note_on_c, 9, 48, 0
2, 4803, Control_c, 9, 4, 34
2, 4809, Note_on_c, 9, 44, 127
2, 4829, Note_on_c, 9, 48, 61
2, 4835, Control_c, 9, 4, 120
2, 4862, Note_on_c, 9, 51, 0
2, 4873, Control_c, 9, 4, 102
2, 4891, Note_on_c, 9, 44, 0
2, 4911, Control_c, 9, 4, 89
2, 4911, Note_on_c, 9, 48, 0
2, 4923, Control_c, 9, 17, 80
2, 4924, Note_on_c, 9, 51, 75
2, 5005, Note_on_c, 9, 51, 0
2, 5032, Control_c, 9, 4, 102
2, 5054, Note_on_c, 9, 36, 40
2, 5083, Control_c, 9, 4, 92
2, 5137, Note_on_c, 9, 36, 0
2, 5293, Control_c, 9, 17, 16
2, 5293, Note_on_c, 9, 36, 65
2, 5293, Note_on_c, 9, 51, 92
2, 5302, Note_on_c, 9, 38, 74
2, 5374, Note_on_c, 9, 36, 0
2, 5374, Note_on_c, 9, 51, 0
2, 5382, Note_on_c, 9, 38, 0
2, 5408, Control_c, 9, 4, 85
2, 5439, Control_c, 9, 4, 70
2, 5472, Control_c, 9, 4, 0
2, 5534, Control_c, 9, 4, 49
2, 5538, Note_on_c, 9, 44, 126
2, 5546, Control_c, 9, 17, 55
2, 5547, Note_on_c, 9, 51, 74
2, 5564, Control_c, 9, 4, 122
2, 5620, Note_on_c, 9, 44, 0
2, 5621, Control_c, 9, 4, 91
2, 5629, Note_on_c, 9, 51, 0
2, 5655, Control_c, 9, 4, 87
2, 5661, Control_c, 9, 18, 0
2, 5661, Note_on_c, 9, 48, 42
2, 5669, Note_on_c, 9, 36, 58
2, 5743, Note_on_c, 9, 48, 0
2, 5744, Control_c, 9, 17, 49
2, 5745, Note_on_c, 9, 51, 49
2, 5750, Note_on_c, 9, 36, 0
2, 5768, Control_c, 9, 4, 110
2, 5785, Note_on_c, 9, 48, 60
2, 5825, Note_on_c, 9, 51, 0
2, 5851, Control_c, 9, 4, 102
2, 5867, Note_on_c, 9, 48, 0
2, 5885, Control_c, 9, 4, 89
2, 5895, Control_c, 9, 17, 58
2, 5896, Note_on_c, 9, 51, 73
2, 5915, Control_c, 9, 4, 70
2, 5945, Control_c, 9, 4, 0
2, 5977, Note_on_c, 9, 51, 0
2, 6007, Control_c, 9, 4, 34
2, 6013, Note_on_c, 9, 44, 127
2, 6017, Note_on_c, 9, 36, 51
2, 6038, Control_c, 9, 4, 124
2, 6055, Note_on_c, 9, 49, 7
2, 6086, Control_c, 9, 4, 95
2, 6095, Note_on_c, 9, 44, 0
2, 6099, Note_on_c, 9, 36, 0
2, 6131, Control_c, 9, 4, 86
2, 6137, Note_on_c, 9, 49, 0
2, 6245, Control_c, 9, 4, 102
2, 6261, Note_on_c, 9, 36, 76
2, 6263, Control_c, 9, 17, 48
2, 6263, Note_on_c, 9, 51, 91
2, 6265, Control_c, 9, 16, 0
2, 6265, Note_on_c, 9, 38, 66
2, 6312, Control_c, 9, 4, 97
2, 6343, Note_on_c, 9, 36, 0
2, 6344, Note_on_c, 9, 51, 0
2, 6348, Note_on_c, 9, 38, 0
2, 6356, Control_c, 9, 4, 83
2, 6388, Control_c, 9, 4, 69
2, 6420, Control_c, 9, 4, 0
2, 6482, Control_c, 9, 4, 32
2, 6490, Note_on_c, 9, 44, 127
2, 6509, Control_c, 9, 17, 95
2, 6509, Note_on_c, 9, 51, 64
2, 6514, Control_c, 9, 4, 120
2, 6556, Control_c, 9, 4, 98
2, 6570, Note_on_c, 9, 44, 0
2, 6592, Control_c, 9, 4, 87
2, 6592, Note_on_c, 9, 51, 0
2, 6620, Control_c, 9, 18, 0
2, 6620, Note_on_c, 9, 36, 61
2, 6622, Note_on_c, 9, 48, 43
2, 6702, Control_c, 9, 17, 61
2, 6702, Note_on_c, 9, 51, 51
2, 6705, Note_on_c, 9, 36, 0
2, 6705, Note_on_c, 9, 48, 0
2, 6716, Control_c, 9, 4, 102
2, 6740, Note_on_c, 9, 48, 63
2, 6784, Note_on_c, 9, 51, 0
2, 6822, Note_on_c, 9, 48, 0
2, 6827, Control_c, 9, 4, 91
2, 6845, Control_c, 9, 17, 49
2, 6846, Note_on_c, 9, 51, 76
2, 6869, Control_c, 9, 4, 73
2, 6910, Control_c, 9, 4, 0
2, 6928, Note_on_c, 9, 51, 0
2, 6960, Control_c, 9, 4, 49
2, 6964, Note_on_c, 9, 44, 113
2, 6971, Note_on_c, 9, 36, 51
2, 6990, Control_c, 9, 4, 120
2, 7006, Note_on_c, 9, 49, 5
2, 7044, Control_c, 9, 4, 91
2, 7046, Note_on_c, 9, 44, 0
2, 7053, Note_on_c, 9, 36, 0
2, 7075, Control_c, 9, 4, 86
2, 7089, Note_on_c, 9, 49, 0
2, 7193, Control_c, 9, 4, 97
2, 7212, Note_on_c, 9, 36, 67
2, 7221, Control_c, 9, 17, 17
2, 7222, Note_on_c, 9, 51, 85
2, 7226, Note_on_c, 9, 38, 60
2, 7294, Note_on_c, 9, 36, 0
2, 7305, Note_on_c, 9, 51, 0
2, 7308, Note_on_c, 9, 38, 0
2, 7322, Control_c, 9, 4, 85
2, 7358, Control_c, 9, 4, 71
2, 7400, Control_c, 9, 4, 0
2, 7448, Control_c, 9, 4, 33
2, 7454, Note_on_c, 9, 44, 113
2, 7468, Control_c, 9, 17, 94
2, 7468, Note_on_c, 9, 51, 73
2, 7480, Control_c, 9, 4, 120
2, 7536, Note_on_c, 9, 44, 0
2, 7537, Control_c, 9, 4, 91
2, 7551, Note_on_c, 9, 51, 0
2, 7567, Control_c, 9, 4, 86
2, 7586, Control_c, 9, 17, 94
2, 7586, Note_on_c, 9, 51, 5
2, 7589, Control_c, 9, 18, 0
2, 7590, Note_on_c, 9, 36, 57
2, 7590, Note_on_c, 9, 48, 46
2, 7643, Control_c, 9, 17, 41
2, 7643, Note_on_c, 9, 51, 0
2, 7644, Note_on_c, 9, 51, 55
2, 7668, Note_on_c, 9, 51, 0
2, 7670, Note_on_c, 9, 48, 0
2, 7671, Note_on_c, 9, 36, 0
2, 7672, End_track
0, 0, End_of_file
