0, 0, Header, 1, 2, 480
1, 0, Start_track
1, 0, Tempo, 638297
1, 0, Time_signature, 4, 2, 24, 8
1, 0, Key_signature, 0, "major"
1, 1, End_track
2, 0, Start_track
2, 0, Title_t, "Midi Drums"
2, 0, Program_c, 9, 0
2, 243, Note_on_c, 9, 36, 127
2, 320, Note_on_c, 9, 36, 0
2, 505, Note_on_c, 9, 40, 127
2, 581, Note_on_c, 9, 40, 0
2, 954, Note_on_c, 9, 36, 127
2, 1030, Note_on_c, 9, 36, 0
2, 1192, Note_on_c, 9, 36, 127
2, 1268, Note_on_c, 9, 36, 0
2, 1452, Note_on_c, 9, 40, 127
2, 1528, Note_on_c, 9, 40, 0
2, 1900, Note_on_c, 9, 36, 127
2, 1975, Note_on_c, 9, 36, 0
2, 2147, Note_on_c, 9, 36, 127
2, 2223, Note_on_c, 9, 36, 0
2, 2392, Note_on_c, 9, 40, 127
2, 2468, Note_on_c, 9, 40, 0
2, 2866, Note_on_c, 9, 36, 127
2, 2941, Note_on_c, 9, 36, 0
2, 3113, Note_on_c, 9, 36, 127
2, 3189, Note_on_c, 9, 36, 0
2, 3359, Note_on_c, 9, 38, 127
2, 3434, Note_on_c, 9, 38, 0
2, 3842, Note_on_c, 9, 36, 127
2, 3918, Note_on_c, 9, 36, 0
2, 4330, Note_on_c, 9, 40, 127
2, 4405, Note_on_c, 9, 40, 0
2, 4802, Note_on_c, 9, 36, 127
2, 4877, Note_on_c, 9, 36, 0
2, 5298, Note_on_c, 9, 40, 127
2, 5374, Note_on_c, 9, 40, 0
2, 5742, Note_on_c, 9, 36, 127
2, 5817, Note_on_c, 9, 36, 0
2, 6228, Note_on_c, 9, 40, 127
2, 6304, Note_on_c, 9, 40, 0
2, 6670, Note_on_c, 9, 36, 127
2, 6746, Note_on_c, 9, 36, 0
2, 7211, Note_on_c, 9, 40, 127
2, 7287, Note_on_c, 9, 40, 0
2, 7288, End_track
0, 0, End_of_file
