0, 0, Header, 1, 2, 480
1, 0, Start_track
1, 0, Tempo, 588235
1, 0, Time_signature, 4, 2, 24, 8
1, 0, Key_signature, 0, "major"
1, 1, End_track
2, 0, Start_track
2, 0, Title_t, "Classic Studio Kit"
2, 0, Program_c, 9, 0
2, 0, Control_c, 9, 18, 0
2, 24, Control_c, 9, 4, 100
2, 34, Control_c, 9, 17, 41
2, 35, Note_on_c, 9, 51, 92
2, 117, Note_on_c, 9, 51, 0
2, 118, Control_c, 9, 4, 93
2, 154, Control_c, 9, 4, 75
2, 156, Note_on_c, 9, 48, 124
2, 190, Control_c, 9, 4, 0
2, 237, Note_on_c, 9, 48, 0
2, 262, Control_c, 9, 4, 32
2, 268, Note_on_c, 9, 44, 127
2, 280, Note_on_c, 9, 38, 38
2, 293, Control_c, 9, 4, 127
2, 325, Control_c, 9, 4, 102
2, 335, Control_c, 9, 16, 0
2, 335, Note_on_c, 9, 38, 0
2, 336, Note_on_c, 9, 38, 40
2, 349, Note_on_c, 9, 44, 0
2, 357, Control_c, 9, 4, 89
2, 362, Note_on_c, 9, 38, 0
2, 395, Note_on_c, 9, 38, 40
2, 416, Note_on_c, 9, 38, 0
2, 439, Control_c, 9, 16, 0
2, 440, Note_on_c, 9, 38, 49
2, 469, Control_c, 9, 4, 95
2, 477, Note_on_c, 9, 38, 0
2, 511, Control_c, 9, 17, 94
2, 511, Note_on_c, 9, 51, 82
2, 518, Note_on_c, 9, 36, 89
2, 593, Note_on_c, 9, 51, 0
2, 600, Note_on_c, 9, 36, 0
2, 614, Control_c, 9, 4, 88
2, 646, Control_c, 9, 4, 71
2, 684, Control_c, 9, 4, 0
2, 742, Note_on_c, 9, 44, 119
2, 749, Note_on_c, 9, 40, 80
2, 750, Control_c, 9, 4, 127
2, 750, Control_c, 9, 17, 63
2, 750, Note_on_c, 9, 51, 83
2, 792, Control_c, 9, 4, 116
2, 823, Note_on_c, 9, 44, 0
2, 830, Control_c, 9, 4, 90
2, 830, Note_on_c, 9, 40, 0
2, 832, Note_on_c, 9, 51, 0
2, 868, Note_on_c, 9, 36, 74
2, 951, Note_on_c, 9, 36, 0
2, 976, Control_c, 9, 4, 98
2, 984, Control_c, 9, 17, 60
2, 985, Note_on_c, 9, 51, 81
2, 1012, Control_c, 9, 4, 102
2, 1067, Note_on_c, 9, 51, 0
2, 1084, Control_c, 9, 4, 89
2, 1088, Control_c, 9, 18, 0
2, 1089, Note_on_c, 9, 48, 59
2, 1115, Control_c, 9, 4, 71
2, 1150, Control_c, 9, 4, 0
2, 1170, Note_on_c, 9, 48, 0
2, 1217, Control_c, 9, 16, 0
2, 1218, Note_on_c, 9, 38, 58
2, 1224, Note_on_c, 9, 44, 127
2, 1229, Control_c, 9, 4, 127
2, 1275, Control_c, 9, 4, 120
2, 1298, Note_on_c, 9, 38, 0
2, 1306, Note_on_c, 9, 44, 0
2, 1315, Control_c, 9, 4, 91
2, 1329, Note_on_c, 9, 36, 65
2, 1411, Note_on_c, 9, 36, 0
2, 1446, Note_on_c, 9, 36, 78
2, 1454, Control_c, 9, 4, 112
2, 1470, Control_c, 9, 17, 127
2, 1471, Note_on_c, 9, 51, 100
2, 1517, Control_c, 9, 4, 102
2, 1529, Note_on_c, 9, 36, 0
2, 1551, Control_c, 9, 4, 90
2, 1552, Note_on_c, 9, 51, 0
2, 1585, Control_c, 9, 4, 72
2, 1621, Control_c, 9, 4, 0
2, 1692, Note_on_c, 9, 44, 127
2, 1697, Control_c, 9, 4, 127
2, 1702, Control_c, 9, 17, 65
2, 1703, Note_on_c, 9, 51, 77
2, 1706, Note_on_c, 9, 40, 79
2, 1739, Control_c, 9, 4, 110
2, 1773, Control_c, 9, 4, 91
2, 1774, Note_on_c, 9, 44, 0
2, 1785, Note_on_c, 9, 51, 0
2, 1787, Note_on_c, 9, 40, 0
2, 1923, Control_c, 9, 4, 98
2, 1941, Control_c, 9, 17, 31
2, 1942, Note_on_c, 9, 51, 80
2, 1948, Note_on_c, 9, 36, 84
2, 1969, Control_c, 9, 4, 104
2, 2017, Control_c, 9, 4, 97
2, 2024, Note_on_c, 9, 51, 0
2, 2031, Note_on_c, 9, 36, 0
2, 2048, Control_c, 9, 4, 82
2, 2091, Control_c, 9, 4, 0
2, 2128, Control_c, 9, 4, 0
2, 2129, Note_on_c, 9, 46, 38
2, 2155, Note_on_c, 9, 49, 3
2, 2175, Note_on_c, 9, 46, 0
2, 2176, Note_on_c, 9, 46, 14
2, 2182, Control_c, 9, 4, 35
2, 2187, Control_c, 9, 17, 0
2, 2187, Note_on_c, 9, 51, 75
2, 2189, Note_on_c, 9, 44, 127
2, 2212, Note_on_c, 9, 46, 0
2, 2213, Control_c, 9, 4, 90
2, 2238, Note_on_c, 9, 49, 0
2, 2256, Control_c, 9, 4, 22
2, 2258, Control_c, 9, 16, 0
2, 2258, Note_on_c, 9, 38, 33
2, 2269, Note_on_c, 9, 44, 0
2, 2269, Note_on_c, 9, 51, 0
2, 2298, Control_c, 9, 4, 46
2, 2309, Note_on_c, 9, 38, 0
2, 2310, Note_on_c, 9, 38, 40
2, 2329, Control_c, 9, 4, 69
2, 2329, Note_on_c, 9, 46, 7
2, 2341, Note_on_c, 9, 38, 0
2, 2360, Control_c, 9, 16, 0
2, 2360, Note_on_c, 9, 40, 66
2, 2402, Control_c, 9, 4, 63
2, 2411, Note_on_c, 9, 46, 0
2, 2417, Note_on_c, 9, 36, 74
2, 2425, Control_c, 9, 17, 44
2, 2425, Note_on_c, 9, 51, 96
2, 2442, Note_on_c, 9, 40, 0
2, 2460, Control_c, 9, 4, 54
2, 2491, Control_c, 9, 4, 38
2, 2500, Note_on_c, 9, 36, 0
2, 2506, Note_on_c, 9, 51, 0
2, 2526, Control_c, 9, 4, 0
2, 2659, Control_c, 9, 4, 64
2, 2664, Note_on_c, 9, 44, 74
2, 2668, Note_on_c, 9, 40, 81
2, 2674, Control_c, 9, 17, 100
2, 2674, Note_on_c, 9, 51, 85
2, 2690, Control_c, 9, 4, 88
2, 2721, Control_c, 9, 4, 84
2, 2745, Note_on_c, 9, 44, 0
2, 2750, Note_on_c, 9, 40, 0
2, 2756, Note_on_c, 9, 51, 0
2, 2902, Control_c, 9, 17, 53
2, 2902, Note_on_c, 9, 51, 76
2, 2905, Note_on_c, 9, 36, 77
2, 2928, Control_c, 9, 4, 110
2, 2977, Control_c, 9, 4, 91
2, 2983, Note_on_c, 9, 51, 0
2, 2988, Note_on_c, 9, 36, 0
2, 3009, Control_c, 9, 4, 71
2, 3015, Note_on_c, 9, 46, 7
2, 3018, Control_c, 9, 16, 0
2, 3018, Note_on_c, 9, 38, 41
2, 3041, Control_c, 9, 4, 0
2, 3098, Note_on_c, 9, 46, 0
2, 3099, Note_on_c, 9, 38, 0
2, 3121, Note_on_c, 9, 46, 11
2, 3130, Control_c, 9, 4, 35
2, 3136, Note_on_c, 9, 44, 127
2, 3143, Control_c, 9, 17, 99
2, 3143, Note_on_c, 9, 51, 87
2, 3161, Control_c, 9, 4, 92
2, 3202, Note_on_c, 9, 46, 0
2, 3206, Control_c, 9, 4, 0
2, 3218, Note_on_c, 9, 44, 0
2, 3225, Note_on_c, 9, 51, 0
2, 3250, Note_on_c, 9, 36, 43
2, 3332, Note_on_c, 9, 36, 0
2, 3360, Note_on_c, 9, 36, 77
2, 3409, Control_c, 9, 17, 127
2, 3409, Note_on_c, 9, 51, 55
2, 3442, Note_on_c, 9, 36, 0
2, 3479, Note_on_c, 9, 38, 33
2, 3490, Note_on_c, 9, 51, 0
2, 3524, Control_c, 9, 16, 0
2, 3524, Note_on_c, 9, 38, 0
2, 3525, Note_on_c, 9, 38, 49
2, 3560, Note_on_c, 9, 38, 0
2, 3593, Note_on_c, 9, 55, 65
2, 3609, Note_on_c, 9, 36, 105
2, 3675, Note_on_c, 9, 55, 0
2, 3691, Note_on_c, 9, 36, 0
2, 3755, Note_on_c, 9, 49, 3
2, 3838, Note_on_c, 9, 49, 0
2, 3841, Control_c, 9, 4, 32
2, 3858, Control_c, 9, 17, 16
2, 3859, Note_on_c, 9, 51, 114
2, 3861, Note_on_c, 9, 46, 56
2, 3862, Note_on_c, 9, 44, 48
2, 3872, Control_c, 9, 4, 80
2, 3909, Control_c, 9, 4, 69
2, 3941, Note_on_c, 9, 44, 0
2, 3941, Note_on_c, 9, 46, 0
2, 3941, Note_on_c, 9, 51, 0
2, 3958, Control_c, 9, 4, 53
2, 3985, Control_c, 9, 16, 0
2, 3986, Note_on_c, 9, 38, 41
2, 3995, Control_c, 9, 4, 0
2, 4067, Note_on_c, 9, 38, 0
2, 4089, Control_c, 9, 4, 65
2, 4095, Note_on_c, 9, 44, 54
2, 4107, Control_c, 9, 17, 91
2, 4107, Note_on_c, 9, 51, 72
2, 4121, Control_c, 9, 4, 84
2, 4177, Note_on_c, 9, 44, 0
2, 4189, Note_on_c, 9, 51, 0
2, 4217, Note_on_c, 9, 36, 43
2, 4300, Note_on_c, 9, 36, 0
2, 4346, Note_on_c, 9, 36, 92
2, 4358, Control_c, 9, 17, 127
2, 4358, Note_on_c, 9, 51, 51
2, 4358, Note_on_c, 9, 53, 117
2, 4375, Control_c, 9, 4, 89
2, 4428, Note_on_c, 9, 36, 0
2, 4439, Note_on_c, 9, 51, 0
2, 4441, Note_on_c, 9, 53, 0
2, 4480, Control_c, 9, 4, 71
2, 4518, Control_c, 9, 4, 0
2, 4589, Control_c, 9, 17, 86
2, 4590, Note_on_c, 9, 51, 77
2, 4592, Note_on_c, 9, 44, 106
2, 4595, Control_c, 9, 4, 92
2, 4598, Control_c, 9, 16, 127
2, 4598, Note_on_c, 9, 38, 70
2, 4646, Control_c, 9, 4, 56
2, 4672, Note_on_c, 9, 51, 0
2, 4673, Note_on_c, 9, 44, 0
2, 4680, Note_on_c, 9, 38, 0
2, 4684, Control_c, 9, 4, 68
2, 4700, Note_on_c, 9, 36, 55
2, 4782, Note_on_c, 9, 36, 0
2, 4833, Note_on_c, 9, 36, 72
2, 4842, Control_c, 9, 17, 11
2, 4843, Note_on_c, 9, 51, 92
2, 4886, Control_c, 9, 4, 49
2, 4915, Note_on_c, 9, 36, 0
2, 4917, Control_c, 9, 4, 0
2, 4924, Note_on_c, 9, 51, 0
2, 4957, Note_on_c, 9, 48, 61
2, 5038, Note_on_c, 9, 48, 0
2, 5050, Control_c, 9, 4, 64
2, 5055, Note_on_c, 9, 44, 67
2, 5080, Control_c, 9, 4, 90
2, 5082, Control_c, 9, 16, 0
2, 5082, Note_on_c, 9, 38, 58
2, 5126, Control_c, 9, 4, 106
2, 5136, Note_on_c, 9, 44, 0
2, 5164, Control_c, 9, 4, 98
2, 5165, Note_on_c, 9, 38, 0
2, 5196, Control_c, 9, 4, 81
2, 5200, Note_on_c, 9, 36, 55
2, 5237, Control_c, 9, 4, 0
2, 5282, Note_on_c, 9, 36, 0
2, 5307, Note_on_c, 9, 46, 15
2, 5320, Note_on_c, 9, 44, 127
2, 5322, Control_c, 9, 17, 11
2, 5322, Note_on_c, 9, 51, 94
2, 5324, Control_c, 9, 4, 93
2, 5328, Note_on_c, 9, 36, 76
2, 5362, Control_c, 9, 4, 63
2, 5388, Note_on_c, 9, 46, 0
2, 5398, Control_c, 9, 4, 28
2, 5402, Note_on_c, 9, 44, 0
2, 5404, Note_on_c, 9, 51, 0
2, 5409, Note_on_c, 9, 36, 0
2, 5430, Control_c, 9, 4, 44
2, 5460, Control_c, 9, 4, 60
2, 5563, Note_on_c, 9, 40, 79
2, 5566, Control_c, 9, 17, 0
2, 5566, Note_on_c, 9, 51, 98
2, 5645, Note_on_c, 9, 40, 0
2, 5649, Note_on_c, 9, 51, 0
2, 5728, Control_c, 9, 4, 67
2, 5809, Note_on_c, 9, 36, 92
2, 5811, Control_c, 9, 17, 4
2, 5811, Note_on_c, 9, 51, 83
2, 5854, Control_c, 9, 4, 63
2, 5892, Note_on_c, 9, 36, 0
2, 5893, Note_on_c, 9, 51, 0
2, 6032, Control_c, 9, 16, 0
2, 6033, Note_on_c, 9, 40, 72
2, 6038, Control_c, 9, 17, 0
2, 6039, Note_on_c, 9, 51, 85
2, 6084, Control_c, 9, 17, 0
2, 6084, Note_on_c, 9, 51, 0
2, 6085, Note_on_c, 9, 51, 43
2, 6090, Control_c, 9, 4, 55
2, 6115, Note_on_c, 9, 40, 0
2, 6120, Note_on_c, 9, 51, 0
2, 6132, Control_c, 9, 4, 0
2, 6244, Control_c, 9, 4, 64
2, 6248, Note_on_c, 9, 44, 67
2, 6264, Control_c, 9, 16, 0
2, 6264, Note_on_c, 9, 40, 71
2, 6272, Control_c, 9, 18, 0
2, 6272, Note_on_c, 9, 48, 86
2, 6275, Control_c, 9, 4, 91
2, 6330, Note_on_c, 9, 44, 0
2, 6346, Note_on_c, 9, 40, 0
2, 6354, Note_on_c, 9, 48, 0
2, 6474, Control_c, 9, 4, 84
2, 6507, Control_c, 9, 17, 11
2, 6507, Note_on_c, 9, 51, 85
2, 6590, Note_on_c, 9, 51, 0
2, 6757, Note_on_c, 9, 36, 98
2, 6759, Control_c, 9, 17, 63
2, 6760, Note_on_c, 9, 51, 65
2, 6837, Note_on_c, 9, 36, 0
2, 6841, Note_on_c, 9, 51, 0
2, 6981, Control_c, 9, 16, 106
2, 6981, Note_on_c, 9, 38, 61
2, 6993, Control_c, 9, 18, 0
2, 6994, Note_on_c, 9, 48, 96
2, 7064, Note_on_c, 9, 38, 0
2, 7076, Note_on_c, 9, 48, 0
2, 7236, Control_c, 9, 17, 19
2, 7236, Note_on_c, 9, 51, 78
2, 7296, Control_c, 9, 16, 0
2, 7296, Note_on_c, 9, 38, 6
2, 7317, Note_on_c, 9, 51, 0
2, 7378, Note_on_c, 9, 38, 0
2, 7471, Control_c, 9, 17, 34
2, 7471, Note_on_c, 9, 36, 86
2, 7472, Note_on_c, 9, 51, 127
2, 7553, Note_on_c, 9, 36, 0
2, 7553, Note_on_c, 9, 51, 0
2, 7554, End_track
0, 0, End_of_file
