0, 0, Header, 1, 2, 480
1, 0, Start_track
1, 0, Tempo, 461538
1, 0, Time_signature, 4, 2, 24, 8
1, 0, Key_signature, 0, "major"
1, 1, End_track
2, 0, Start_track
2, 0, Title_t, "SoCal"
2, 0, Program_c, 9, 0
2, 0, Control_c, 9, 18, 0
2, 1, Note_on_c, 9, 48, 71
2, 3, Control_c, 9, 4, 102
2, 4, Note_on_c, 9, 26, 67
2, 70, Control_c, 9, 4, 108
2, 105, Note_on_c, 9, 48, 0
2, 107, Note_on_c, 9, 26, 0
2, 145, Control_c, 9, 4, 104
2, 206, Control_c, 9, 4, 100
2, 314, Control_c, 9, 4, 97
2, 315, Note_on_c, 9, 26, 42
2, 317, Control_c, 9, 17, 85
2, 318, Note_on_c, 9, 51, 77
2, 358, Control_c, 9, 4, 110
2, 412, Control_c, 9, 4, 97
2, 418, Note_on_c, 9, 26, 0
2, 421, Note_on_c, 9, 51, 0
2, 627, Control_c, 9, 17, 127
2, 627, Note_on_c, 9, 51, 77
2, 634, Note_on_c, 9, 26, 37
2, 651, Control_c, 9, 4, 102
2, 731, Note_on_c, 9, 51, 0
2, 735, Control_c, 9, 4, 98
2, 738, Note_on_c, 9, 26, 0
2, 811, Control_c, 9, 18, 0
2, 812, Note_on_c, 9, 48, 55
2, 813, Control_c, 9, 4, 98
2, 814, Note_on_c, 9, 26, 62
2, 882, Control_c, 9, 4, 102
2, 915, Control_c, 9, 4, 110
2, 916, Note_on_c, 9, 26, 0
2, 916, Note_on_c, 9, 48, 0
2, 965, Control_c, 9, 17, 127
2, 966, Note_on_c, 9, 51, 50
2, 1040, Control_c, 9, 4, 104
2, 1070, Note_on_c, 9, 51, 0
2, 1093, Note_on_c, 9, 36, 42
2, 1133, Control_c, 9, 16, 21
2, 1134, Note_on_c, 9, 38, 51
2, 1180, Control_c, 9, 4, 99
2, 1198, Note_on_c, 9, 36, 0
2, 1237, Note_on_c, 9, 38, 0
2, 1273, Control_c, 9, 4, 114
2, 1283, Control_c, 9, 17, 100
2, 1284, Note_on_c, 9, 51, 79
2, 1343, Control_c, 9, 4, 110
2, 1389, Note_on_c, 9, 51, 0
2, 1407, Note_on_c, 9, 36, 48
2, 1443, Control_c, 9, 4, 110
2, 1444, Note_on_c, 9, 26, 50
2, 1492, Control_c, 9, 4, 96
2, 1512, Note_on_c, 9, 36, 0
2, 1537, Control_c, 9, 4, 91
2, 1548, Note_on_c, 9, 26, 0
2, 1586, Control_c, 9, 4, 86
2, 1594, Control_c, 9, 16, 21
2, 1595, Note_on_c, 9, 38, 57
2, 1623, Control_c, 9, 4, 85
2, 1623, Note_on_c, 9, 46, 6
2, 1680, Control_c, 9, 4, 71
2, 1699, Note_on_c, 9, 38, 0
2, 1723, Control_c, 9, 4, 44
2, 1727, Note_on_c, 9, 46, 0
2, 1730, Note_on_c, 9, 26, 16
2, 1756, Control_c, 9, 4, 20
2, 1790, Control_c, 9, 4, 0
2, 1834, Note_on_c, 9, 26, 0
2, 1912, Note_on_c, 9, 36, 67
2, 1923, Control_c, 9, 17, 89
2, 1924, Note_on_c, 9, 51, 87
2, 1925, Control_c, 9, 16, 21
2, 1926, Note_on_c, 9, 38, 57
2, 1931, Control_c, 9, 4, 76
2, 1932, Note_on_c, 9, 44, 61
2, 1965, Control_c, 9, 4, 95
2, 2017, Note_on_c, 9, 36, 0
2, 2027, Note_on_c, 9, 51, 0
2, 2028, Note_on_c, 9, 38, 0
2, 2036, Note_on_c, 9, 44, 0
2, 2229, Note_on_c, 9, 26, 48
2, 2244, Control_c, 9, 4, 106
2, 2246, Control_c, 9, 17, 127
2, 2247, Note_on_c, 9, 51, 70
2, 2320, Control_c, 9, 4, 104
2, 2333, Note_on_c, 9, 26, 0
2, 2350, Note_on_c, 9, 51, 0
2, 2557, Control_c, 9, 17, 127
2, 2558, Note_on_c, 9, 51, 89
2, 2663, Note_on_c, 9, 51, 0
2, 2693, Control_c, 9, 4, 99
2, 2694, Note_on_c, 9, 26, 62
2, 2737, Control_c, 9, 4, 94
2, 2792, Control_c, 9, 4, 90
2, 2797, Note_on_c, 9, 26, 0
2, 2832, Control_c, 9, 4, 85
2, 2874, Control_c, 9, 17, 127
2, 2875, Note_on_c, 9, 51, 84
2, 2934, Control_c, 9, 4, 81
2, 2979, Note_on_c, 9, 51, 0
2, 2982, Control_c, 9, 4, 70
2, 3007, Control_c, 9, 16, 0
2, 3008, Note_on_c, 9, 38, 30
2, 3031, Control_c, 9, 4, 55
2, 3112, Note_on_c, 9, 38, 0
2, 3181, Control_c, 9, 16, 0
2, 3181, Note_on_c, 9, 38, 46
2, 3286, Note_on_c, 9, 38, 0
2, 3330, Control_c, 9, 4, 59
2, 3351, Note_on_c, 9, 26, 58
2, 3367, Control_c, 9, 4, 70
2, 3455, Note_on_c, 9, 26, 0
2, 3504, Control_c, 9, 17, 76
2, 3505, Note_on_c, 9, 51, 79
2, 3608, Note_on_c, 9, 51, 0
2, 3774, Control_c, 9, 4, 77
2, 3811, Note_on_c, 9, 36, 71
2, 3816, Control_c, 9, 4, 82
2, 3821, Control_c, 9, 17, 77
2, 3822, Note_on_c, 9, 51, 95
2, 3916, Note_on_c, 9, 36, 0
2, 3925, Note_on_c, 9, 51, 0
2, 3973, Control_c, 9, 4, 82
2, 3973, Note_on_c, 9, 26, 18
2, 4034, Control_c, 9, 4, 88
2, 4077, Note_on_c, 9, 26, 0
2, 4104, Control_c, 9, 4, 92
2, 4142, Control_c, 9, 16, 0
2, 4143, Note_on_c, 9, 38, 45
2, 4145, Control_c, 9, 4, 98
2, 4190, Control_c, 9, 4, 110
2, 4227, Control_c, 9, 4, 102
2, 4247, Note_on_c, 9, 38, 0
2, 4272, Control_c, 9, 4, 91
2, 4297, Note_on_c, 9, 36, 57
2, 4314, Control_c, 9, 4, 84
2, 4365, Control_c, 9, 4, 48
2, 4401, Control_c, 9, 4, 0
2, 4402, Note_on_c, 9, 36, 0
2, 4445, Control_c, 9, 4, 32
2, 4459, Note_on_c, 9, 44, 74
2, 4463, Note_on_c, 9, 46, 62
2, 4464, Control_c, 9, 17, 79
2, 4465, Note_on_c, 9, 51, 95
2, 4478, Control_c, 9, 4, 104
2, 4517, Control_c, 9, 4, 96
2, 4564, Note_on_c, 9, 44, 0
2, 4566, Note_on_c, 9, 46, 0
2, 4568, Note_on_c, 9, 51, 0
2, 4588, Control_c, 9, 4, 91
2, 4627, Control_c, 9, 4, 89
2, 4628, Note_on_c, 9, 26, 74
2, 4657, Control_c, 9, 4, 83
2, 4689, Control_c, 9, 4, 73
2, 4723, Control_c, 9, 4, 62
2, 4732, Note_on_c, 9, 26, 0
2, 4755, Control_c, 9, 4, 47
2, 4766, Note_on_c, 9, 36, 47
2, 4829, Control_c, 9, 4, 79
2, 4830, Note_on_c, 9, 44, 15
2, 4862, Control_c, 9, 4, 89
2, 4870, Note_on_c, 9, 36, 0
2, 4934, Note_on_c, 9, 44, 0
2, 4949, Control_c, 9, 4, 91
2, 4950, Note_on_c, 9, 26, 21
2, 5055, Note_on_c, 9, 26, 0
2, 5102, Control_c, 9, 4, 95
2, 5115, Control_c, 9, 17, 121
2, 5116, Note_on_c, 9, 51, 99
2, 5154, Control_c, 9, 4, 108
2, 5220, Note_on_c, 9, 51, 0
2, 5232, Control_c, 9, 4, 98
2, 5282, Control_c, 9, 4, 93
2, 5288, Note_on_c, 9, 36, 49
2, 5394, Note_on_c, 9, 36, 0
2, 5425, Control_c, 9, 16, 0
2, 5426, Note_on_c, 9, 38, 42
2, 5435, Control_c, 9, 4, 108
2, 5504, Control_c, 9, 4, 98
2, 5530, Note_on_c, 9, 38, 0
2, 5557, Control_c, 9, 4, 92
2, 5590, Control_c, 9, 16, 0
2, 5591, Note_on_c, 9, 38, 37
2, 5628, Control_c, 9, 4, 88
2, 5695, Note_on_c, 9, 38, 0
2, 5713, Control_c, 9, 4, 95
2, 5736, Note_on_c, 9, 26, 55
2, 5746, Control_c, 9, 4, 112
2, 5785, Control_c, 9, 4, 102
2, 5840, Note_on_c, 9, 26, 0
2, 5854, Control_c, 9, 4, 106
2, 5921, Control_c, 9, 4, 98
2, 6014, Control_c, 9, 4, 93
2, 6063, Control_c, 9, 4, 98
2, 6075, Control_c, 9, 17, 90
2, 6076, Note_on_c, 9, 51, 85
2, 6107, Control_c, 9, 4, 110
2, 6153, Control_c, 9, 4, 104
2, 6180, Note_on_c, 9, 51, 0
2, 6187, Control_c, 9, 4, 98
2, 6256, Control_c, 9, 4, 98
2, 6257, Note_on_c, 9, 26, 95
2, 6361, Note_on_c, 9, 26, 0
2, 6390, Control_c, 9, 16, 0
2, 6391, Note_on_c, 9, 38, 35
2, 6495, Note_on_c, 9, 38, 0
2, 6573, Control_c, 9, 16, 0
2, 6574, Note_on_c, 9, 38, 44
2, 6678, Note_on_c, 9, 38, 0
2, 6710, Control_c, 9, 4, 110
2, 6735, Control_c, 9, 17, 0
2, 6736, Note_on_c, 9, 51, 112
2, 6808, Control_c, 9, 4, 102
2, 6840, Note_on_c, 9, 51, 0
2, 6855, Control_c, 9, 4, 92
2, 6906, Control_c, 9, 4, 86
2, 6964, Control_c, 9, 4, 54
2, 7003, Control_c, 9, 4, 17
2, 7043, Note_on_c, 9, 44, 61
2, 7045, Control_c, 9, 4, 80
2, 7046, Note_on_c, 9, 46, 53
2, 7053, Note_on_c, 9, 36, 52
2, 7075, Control_c, 9, 4, 112
2, 7136, Control_c, 9, 4, 97
2, 7147, Note_on_c, 9, 44, 0
2, 7149, Note_on_c, 9, 46, 0
2, 7157, Note_on_c, 9, 36, 0
2, 7187, Control_c, 9, 4, 93
2, 7219, Control_c, 9, 18, 0
2, 7220, Note_on_c, 9, 48, 122
2, 7283, Control_c, 9, 4, 102
2, 7324, Note_on_c, 9, 48, 0
2, 7410, Control_c, 9, 17, 127
2, 7411, Note_on_c, 9, 51, 70
2, 7412, Control_c, 9, 4, 114
2, 7453, Control_c, 9, 4, 106
2, 7496, Control_c, 9, 4, 92
2, 7515, Note_on_c, 9, 51, 0
2, 7532, Note_on_c, 9, 36, 46
2, 7557, Control_c, 9, 4, 73
2, 7571, Control_c, 9, 17, 127
2, 7572, Note_on_c, 9, 51, 5
2, 7599, Control_c, 9, 4, 0
2, 7637, Note_on_c, 9, 36, 0
2, 7664, Control_c, 9, 4, 16
2, 7676, Note_on_c, 9, 51, 0
2, 7677, End_track
0, 0, End_of_file
