0, 0, Header, 1, 2, 480
1, 0, Start_track
1, 0, Tempo, 638297
1, 0, Time_signature, 4, 2, 24, 8
1, 0, Key_signature, 0, "major"
1, 1, End_track
2, 0, Start_track
2, 0, Title_t, "Midi Drums"
2, 0, Program_c, 9, 0
2, 214, Note_on_c, 9, 48, 114
2, 217, Note_on_c, 9, 43, 117
2, 289, Note_on_c, 9, 48, 0
2, 292, Note_on_c, 9, 43, 0
2, 461, Note_on_c, 9, 36, 127
2, 471, Note_on_c, 9, 40, 127
2, 537, Note_on_c, 9, 36, 0
2, 546, Note_on_c, 9, 40, 0
2, 941, Note_on_c, 9, 36, 95
2, 1016, Note_on_c, 9, 36, 0
2, 1409, Note_on_c, 9, 40, 127
2, 1485, Note_on_c, 9, 40, 0
2, 1611, Control_c, 9, 4, 79
2, 1646, Control_c, 9, 4, 49
2, 1665, Note_on_c, 9, 36, 127
2, 1678, Note_on_c, 9, 26, 97
2, 1689, Control_c, 9, 4, 14
2, 1721, Control_c, 9, 4, 0
2, 1741, Note_on_c, 9, 36, 0
2, 1753, Note_on_c, 9, 26, 0
2, 1886, Control_c, 9, 4, 33
2, 1896, Note_on_c, 9, 44, 35
2, 1919, Control_c, 9, 4, 90
2, 1971, Note_on_c, 9, 44, 0
2, 2085, Control_c, 9, 4, 45
2, 2115, Control_c, 9, 4, 5
2, 2136, Note_on_c, 9, 36, 127
2, 2145, Control_c, 9, 4, 0
2, 2145, Note_on_c, 9, 26, 127
2, 2211, Note_on_c, 9, 36, 0
2, 2221, Note_on_c, 9, 26, 0
2, 2369, Control_c, 9, 4, 49
2, 2375, Note_on_c, 9, 44, 32
2, 2397, Note_on_c, 9, 40, 127
2, 2399, Control_c, 9, 4, 90
2, 2451, Note_on_c, 9, 44, 0
2, 2472, Note_on_c, 9, 40, 0
2, 2865, Note_on_c, 9, 48, 127
2, 2892, Note_on_c, 9, 48, 0
2, 2892, Note_on_c, 9, 48, 127
2, 2941, Note_on_c, 9, 48, 0
2, 3103, Note_on_c, 9, 36, 110
2, 3179, Note_on_c, 9, 36, 0
2, 3333, Note_on_c, 9, 43, 127
2, 3381, Note_on_c, 9, 43, 0
2, 3381, Note_on_c, 9, 43, 127
2, 3409, Note_on_c, 9, 43, 0
2, 3617, Note_on_c, 9, 36, 24
2, 3693, Note_on_c, 9, 36, 0
2, 3833, Note_on_c, 9, 36, 127
2, 3845, Note_on_c, 9, 55, 84
2, 3848, Note_on_c, 9, 52, 94
2, 3909, Note_on_c, 9, 36, 0
2, 3921, Note_on_c, 9, 55, 0
2, 3924, Note_on_c, 9, 52, 0
2, 4322, Note_on_c, 9, 40, 127
2, 4398, Note_on_c, 9, 40, 0
2, 4766, Note_on_c, 9, 36, 127
2, 4842, Note_on_c, 9, 36, 0
2, 5020, Note_on_c, 9, 36, 127
2, 5096, Note_on_c, 9, 36, 0
2, 5276, Note_on_c, 9, 40, 127
2, 5352, Note_on_c, 9, 40, 0
2, 5749, Note_on_c, 9, 36, 127
2, 5825, Note_on_c, 9, 36, 0
2, 6240, Note_on_c, 9, 40, 123
2, 6316, Note_on_c, 9, 40, 0
2, 6704, Note_on_c, 9, 36, 127
2, 6780, Note_on_c, 9, 36, 0
2, 6949, Note_on_c, 9, 36, 127
2, 7025, Note_on_c, 9, 36, 0
2, 7208, Note_on_c, 9, 38, 125
2, 7283, Note_on_c, 9, 38, 0
2, 7329, Note_on_c, 9, 38, 114
2, 7405, Note_on_c, 9, 38, 0
2, 7439, Note_on_c, 9, 38, 119
2, 7514, Note_on_c, 9, 38, 0
2, 7555, Note_on_c, 9, 38, 111
2, 7631, Note_on_c, 9, 38, 0
2, 7632, End_track
0, 0, End_of_file
