0, 0, Header, 1, 2, 480
1, 0, Start_track
1, 0, Tempo, 461538
1, 0, Time_signature, 4, 2, 24, 8
1, 0, Key_signature, 0, "major"
1, 1, End_track
2, 0, Start_track
2, 0, Title_t, "SoCal"
2, 0, Program_c, 9, 0
2, 0, Control_c, 9, 16, 0
2, 20, Control_c, 9, 16, 0
2, 20, Note_on_c, 9, 38, 28
2, 93, Control_c, 9, 4, 88
2, 124, Note_on_c, 9, 38, 0
2, 125, Control_c, 9, 4, 83
2, 176, Control_c, 9, 4, 70
2, 177, Note_on_c, 9, 26, 73
2, 214, Control_c, 9, 4, 55
2, 260, Control_c, 9, 4, 17
2, 282, Note_on_c, 9, 26, 0
2, 294, Control_c, 9, 4, 2
2, 326, Control_c, 9, 4, 12
2, 357, Note_on_c, 9, 46, 13
2, 361, Control_c, 9, 16, 0
2, 362, Note_on_c, 9, 38, 5
2, 366, Control_c, 9, 4, 77
2, 367, Note_on_c, 9, 44, 48
2, 399, Control_c, 9, 4, 92
2, 461, Note_on_c, 9, 46, 0
2, 466, Note_on_c, 9, 38, 0
2, 471, Note_on_c, 9, 44, 0
2, 524, Note_on_c, 9, 37, 51
2, 628, Note_on_c, 9, 37, 0
2, 686, Control_c, 9, 4, 98
2, 700, Control_c, 9, 16, 0
2, 701, Note_on_c, 9, 38, 13
2, 722, Control_c, 9, 4, 112
2, 804, Note_on_c, 9, 38, 0
2, 820, Control_c, 9, 4, 92
2, 850, Control_c, 9, 4, 85
2, 866, Note_on_c, 9, 36, 57
2, 898, Control_c, 9, 4, 54
2, 932, Control_c, 9, 4, 0
2, 970, Note_on_c, 9, 36, 0
2, 1004, Control_c, 9, 4, 76
2, 1005, Note_on_c, 9, 44, 93
2, 1026, Control_c, 9, 16, 0
2, 1027, Note_on_c, 9, 38, 23
2, 1038, Control_c, 9, 4, 116
2, 1076, Control_c, 9, 4, 94
2, 1109, Note_on_c, 9, 44, 0
2, 1131, Note_on_c, 9, 38, 0
2, 1182, Control_c, 9, 18, 0
2, 1183, Note_on_c, 9, 48, 54
2, 1286, Note_on_c, 9, 48, 0
2, 1343, Control_c, 9, 16, 21
2, 1344, Note_on_c, 9, 38, 29
2, 1447, Note_on_c, 9, 38, 0
2, 1499, Control_c, 9, 16, 64
2, 1500, Note_on_c, 9, 38, 64
2, 1507, Control_c, 9, 4, 90
2, 1568, Control_c, 9, 4, 85
2, 1604, Note_on_c, 9, 38, 0
2, 1618, Control_c, 9, 4, 81
2, 1654, Control_c, 9, 16, 0
2, 1655, Note_on_c, 9, 40, 55
2, 1657, Control_c, 9, 4, 74
2, 1688, Control_c, 9, 4, 70
2, 1719, Control_c, 9, 4, 62
2, 1758, Note_on_c, 9, 40, 0
2, 1761, Control_c, 9, 4, 48
2, 1810, Control_c, 9, 16, 0
2, 1811, Note_on_c, 9, 38, 26
2, 1819, Control_c, 9, 4, 36
2, 1905, Control_c, 9, 4, 44
2, 1914, Note_on_c, 9, 38, 0
2, 1940, Control_c, 9, 4, 79
2, 1941, Note_on_c, 9, 44, 22
2, 1962, Note_on_c, 9, 36, 74
2, 1974, Control_c, 9, 4, 89
2, 2043, Control_c, 9, 16, 0
2, 2044, Note_on_c, 9, 38, 33
2, 2045, Note_on_c, 9, 44, 0
2, 2066, Note_on_c, 9, 36, 0
2, 2147, Control_c, 9, 17, 73
2, 2148, Note_on_c, 9, 51, 86
2, 2149, Note_on_c, 9, 38, 0
2, 2251, Note_on_c, 9, 51, 0
2, 2279, Note_on_c, 9, 36, 76
2, 2373, Control_c, 9, 16, 0
2, 2374, Note_on_c, 9, 38, 30
2, 2384, Note_on_c, 9, 36, 0
2, 2477, Note_on_c, 9, 38, 0
2, 2486, Control_c, 9, 18, 0
2, 2487, Note_on_c, 9, 48, 41
2, 2586, Control_c, 9, 17, 127
2, 2587, Note_on_c, 9, 51, 78
2, 2590, Note_on_c, 9, 48, 0
2, 2690, Note_on_c, 9, 51, 0
2, 2703, Control_c, 9, 16, 42
2, 2704, Note_on_c, 9, 38, 37
2, 2790, Note_on_c, 9, 36, 61
2, 2807, Note_on_c, 9, 38, 0
2, 2895, Note_on_c, 9, 36, 0
2, 2913, Control_c, 9, 16, 0
2, 2914, Note_on_c, 9, 38, 34
2, 2999, Control_c, 9, 17, 89
2, 3000, Note_on_c, 9, 51, 88
2, 3017, Note_on_c, 9, 38, 0
2, 3103, Note_on_c, 9, 51, 0
2, 3112, Note_on_c, 9, 36, 61
2, 3216, Note_on_c, 9, 36, 0
2, 3229, Control_c, 9, 16, 0
2, 3230, Note_on_c, 9, 38, 33
2, 3333, Note_on_c, 9, 38, 0
2, 3348, Control_c, 9, 18, 0
2, 3349, Note_on_c, 9, 48, 41
2, 3453, Note_on_c, 9, 48, 0
2, 3456, Control_c, 9, 17, 122
2, 3457, Note_on_c, 9, 51, 73
2, 3560, Note_on_c, 9, 51, 0
2, 3580, Control_c, 9, 16, 64
2, 3581, Note_on_c, 9, 38, 35
2, 3682, Note_on_c, 9, 36, 66
2, 3684, Note_on_c, 9, 38, 0
2, 3787, Note_on_c, 9, 36, 0
2, 3802, Control_c, 9, 16, 0
2, 3803, Note_on_c, 9, 38, 34
2, 3888, Control_c, 9, 17, 124
2, 3889, Note_on_c, 9, 51, 80
2, 3907, Note_on_c, 9, 38, 0
2, 3992, Note_on_c, 9, 51, 0
2, 4004, Note_on_c, 9, 36, 61
2, 4101, Control_c, 9, 16, 0
2, 4102, Note_on_c, 9, 38, 34
2, 4108, Note_on_c, 9, 36, 0
2, 4205, Note_on_c, 9, 38, 0
2, 4212, Control_c, 9, 18, 0
2, 4213, Note_on_c, 9, 48, 35
2, 4313, Control_c, 9, 17, 127
2, 4314, Note_on_c, 9, 51, 61
2, 4316, Note_on_c, 9, 48, 0
2, 4417, Note_on_c, 9, 51, 0
2, 4424, Control_c, 9, 16, 64
2, 4425, Note_on_c, 9, 38, 38
2, 4523, Note_on_c, 9, 36, 62
2, 4528, Note_on_c, 9, 38, 0
2, 4628, Note_on_c, 9, 36, 0
2, 4643, Control_c, 9, 16, 64
2, 4644, Note_on_c, 9, 38, 31
2, 4731, Control_c, 9, 17, 99
2, 4732, Note_on_c, 9, 51, 73
2, 4747, Note_on_c, 9, 38, 0
2, 4836, Note_on_c, 9, 51, 0
2, 4841, Note_on_c, 9, 36, 67
2, 4925, Control_c, 9, 16, 0
2, 4926, Note_on_c, 9, 38, 32
2, 4945, Note_on_c, 9, 36, 0
2, 5029, Note_on_c, 9, 38, 0
2, 5060, Control_c, 9, 18, 0
2, 5061, Note_on_c, 9, 48, 37
2, 5164, Note_on_c, 9, 48, 0
2, 5175, Control_c, 9, 17, 60
2, 5175, Note_on_c, 9, 51, 67
2, 5272, Control_c, 9, 16, 42
2, 5273, Note_on_c, 9, 38, 28
2, 5279, Note_on_c, 9, 51, 0
2, 5376, Note_on_c, 9, 38, 0
2, 5395, Note_on_c, 9, 36, 64
2, 5498, Control_c, 9, 16, 0
2, 5499, Note_on_c, 9, 38, 30
2, 5500, Note_on_c, 9, 36, 0
2, 5602, Control_c, 9, 17, 81
2, 5603, Note_on_c, 9, 51, 101
2, 5604, Note_on_c, 9, 38, 0
2, 5706, Note_on_c, 9, 51, 0
2, 5722, Control_c, 9, 16, 0
2, 5723, Note_on_c, 9, 40, 68
2, 5826, Note_on_c, 9, 40, 0
2, 6018, Control_c, 9, 16, 0
2, 6019, Note_on_c, 9, 40, 49
2, 6123, Note_on_c, 9, 40, 0
2, 6181, Control_c, 9, 16, 0
2, 6182, Note_on_c, 9, 38, 32
2, 6280, Control_c, 9, 4, 93
2, 6285, Note_on_c, 9, 38, 0
2, 6351, Control_c, 9, 16, 0
2, 6352, Note_on_c, 9, 38, 26
2, 6420, Control_c, 9, 4, 97
2, 6455, Note_on_c, 9, 38, 0
2, 6509, Control_c, 9, 4, 99
2, 6510, Note_on_c, 9, 26, 62
2, 6547, Control_c, 9, 4, 104
2, 6614, Control_c, 9, 4, 99
2, 6615, Note_on_c, 9, 26, 0
2, 6661, Control_c, 9, 17, 37
2, 6662, Note_on_c, 9, 51, 81
2, 6765, Note_on_c, 9, 51, 0
2, 6804, Control_c, 9, 16, 0
2, 6805, Note_on_c, 9, 38, 22
2, 6908, Note_on_c, 9, 38, 0
2, 6983, Control_c, 9, 17, 127
2, 6984, Note_on_c, 9, 51, 57
2, 7015, Control_c, 9, 4, 114
2, 7079, Control_c, 9, 4, 106
2, 7087, Note_on_c, 9, 51, 0
2, 7119, Control_c, 9, 4, 92
2, 7155, Note_on_c, 9, 36, 52
2, 7194, Control_c, 9, 4, 78
2, 7230, Control_c, 9, 4, 38
2, 7259, Note_on_c, 9, 36, 0
2, 7268, Control_c, 9, 4, 0
2, 7320, Control_c, 9, 4, 77
2, 7321, Note_on_c, 9, 44, 74
2, 7340, Control_c, 9, 17, 80
2, 7341, Note_on_c, 9, 51, 53
2, 7353, Control_c, 9, 4, 100
2, 7393, Control_c, 9, 4, 114
2, 7425, Note_on_c, 9, 44, 0
2, 7437, Control_c, 9, 4, 98
2, 7444, Note_on_c, 9, 51, 0
2, 7482, Control_c, 9, 16, 0
2, 7483, Note_on_c, 9, 38, 22
2, 7561, Control_c, 9, 4, 110
2, 7587, Note_on_c, 9, 38, 0
2, 7607, Control_c, 9, 4, 104
2, 7608, End_track
0, 0, End_of_file
