0, 0, Header, 1, 2, 480
1, 0, Start_track
1, 0, Tempo, 588235
1, 0, Time_signature, 4, 2, 24, 8
1, 0, Key_signature, 0, "major"
1, 1, End_track
2, 0, Start_track
2, 0, Title_t, "Classic Studio Kit"
2, 0, Program_c, 9, 0
2, 0, Control_c, 9, 18, 0
2, 23, Control_c, 9, 4, 100
2, 49, Note_on_c, 9, 48, 84
2, 52, Control_c, 9, 17, 127
2, 52, Note_on_c, 9, 51, 64
2, 131, Note_on_c, 9, 48, 0
2, 134, Note_on_c, 9, 51, 0
2, 148, Control_c, 9, 4, 87
2, 178, Control_c, 9, 17, 51
2, 179, Note_on_c, 9, 51, 73
2, 183, Control_c, 9, 4, 70
2, 227, Control_c, 9, 4, 0
2, 260, Note_on_c, 9, 51, 0
2, 277, Note_on_c, 9, 36, 65
2, 278, Note_on_c, 9, 44, 100
2, 285, Control_c, 9, 4, 127
2, 293, Control_c, 9, 17, 51
2, 294, Note_on_c, 9, 51, 6
2, 331, Control_c, 9, 4, 97
2, 359, Note_on_c, 9, 36, 0
2, 359, Note_on_c, 9, 44, 0
2, 373, Control_c, 9, 4, 85
2, 375, Note_on_c, 9, 51, 0
2, 423, Control_c, 9, 17, 76
2, 424, Note_on_c, 9, 51, 75
2, 498, Control_c, 9, 4, 93
2, 506, Note_on_c, 9, 51, 0
2, 522, Control_c, 9, 16, 0
2, 522, Note_on_c, 9, 38, 84
2, 525, Note_on_c, 9, 36, 77
2, 596, Control_c, 9, 4, 97
2, 605, Note_on_c, 9, 38, 0
2, 607, Note_on_c, 9, 36, 0
2, 653, Control_c, 9, 4, 85
2, 685, Control_c, 9, 4, 69
2, 720, Control_c, 9, 4, 0
2, 753, Control_c, 9, 17, 44
2, 754, Note_on_c, 9, 51, 83
2, 769, Note_on_c, 9, 44, 106
2, 777, Control_c, 9, 4, 127
2, 821, Control_c, 9, 4, 98
2, 836, Note_on_c, 9, 51, 0
2, 851, Note_on_c, 9, 44, 0
2, 862, Control_c, 9, 4, 85
2, 891, Control_c, 9, 18, 0
2, 891, Note_on_c, 9, 36, 67
2, 893, Note_on_c, 9, 48, 44
2, 974, Note_on_c, 9, 36, 0
2, 974, Note_on_c, 9, 48, 0
2, 987, Control_c, 9, 4, 98
2, 1015, Control_c, 9, 17, 46
2, 1015, Note_on_c, 9, 51, 83
2, 1020, Note_on_c, 9, 48, 82
2, 1098, Note_on_c, 9, 51, 0
2, 1102, Note_on_c, 9, 48, 0
2, 1117, Control_c, 9, 4, 85
2, 1143, Control_c, 9, 17, 112
2, 1144, Note_on_c, 9, 51, 69
2, 1153, Control_c, 9, 4, 69
2, 1192, Control_c, 9, 4, 0
2, 1226, Control_c, 9, 4, 33
2, 1226, Note_on_c, 9, 51, 0
2, 1234, Note_on_c, 9, 44, 93
2, 1235, Note_on_c, 9, 36, 68
2, 1259, Control_c, 9, 4, 126
2, 1299, Control_c, 9, 4, 93
2, 1315, Note_on_c, 9, 44, 0
2, 1316, Note_on_c, 9, 36, 0
2, 1345, Control_c, 9, 4, 83
2, 1412, Control_c, 9, 4, 87
2, 1443, Control_c, 9, 4, 92
2, 1473, Note_on_c, 9, 36, 70
2, 1479, Note_on_c, 9, 57, 99
2, 1485, Control_c, 9, 16, 106
2, 1486, Note_on_c, 9, 38, 83
2, 1555, Note_on_c, 9, 36, 0
2, 1560, Note_on_c, 9, 57, 0
2, 1566, Note_on_c, 9, 38, 0
2, 1582, Control_c, 9, 4, 85
2, 1616, Control_c, 9, 4, 70
2, 1660, Control_c, 9, 4, 0
2, 1709, Note_on_c, 9, 44, 93
2, 1717, Control_c, 9, 4, 127
2, 1727, Note_on_c, 9, 57, 82
2, 1751, Control_c, 9, 4, 104
2, 1787, Control_c, 9, 4, 91
2, 1791, Note_on_c, 9, 44, 0
2, 1810, Note_on_c, 9, 57, 0
2, 1826, Control_c, 9, 4, 87
2, 1845, Note_on_c, 9, 36, 61
2, 1858, Control_c, 9, 18, 0
2, 1859, Note_on_c, 9, 48, 48
2, 1927, Note_on_c, 9, 36, 0
2, 1933, Control_c, 9, 4, 98
2, 1940, Note_on_c, 9, 48, 0
2, 1974, Note_on_c, 9, 57, 58
2, 1977, Note_on_c, 9, 48, 113
2, 2056, Note_on_c, 9, 57, 0
2, 2057, Note_on_c, 9, 48, 0
2, 2068, Control_c, 9, 4, 86
2, 2098, Note_on_c, 9, 57, 76
2, 2116, Control_c, 9, 4, 54
2, 2146, Control_c, 9, 4, 0
2, 2181, Note_on_c, 9, 57, 0
2, 2187, Note_on_c, 9, 44, 87
2, 2190, Note_on_c, 9, 36, 57
2, 2196, Control_c, 9, 4, 127
2, 2228, Control_c, 9, 4, 97
2, 2269, Note_on_c, 9, 44, 0
2, 2272, Note_on_c, 9, 36, 0
2, 2287, Control_c, 9, 4, 87
2, 2347, Note_on_c, 9, 57, 99
2, 2395, Control_c, 9, 4, 92
2, 2429, Note_on_c, 9, 57, 0
2, 2435, Note_on_c, 9, 36, 67
2, 2458, Control_c, 9, 16, 0
2, 2458, Note_on_c, 9, 40, 67
2, 2518, Note_on_c, 9, 36, 0
2, 2540, Note_on_c, 9, 40, 0
2, 2569, Control_c, 9, 4, 84
2, 2600, Control_c, 9, 4, 70
2, 2639, Control_c, 9, 4, 0
2, 2687, Note_on_c, 9, 44, 93
2, 2696, Control_c, 9, 4, 127
2, 2696, Note_on_c, 9, 57, 50
2, 2729, Control_c, 9, 4, 102
2, 2765, Control_c, 9, 4, 90
2, 2770, Note_on_c, 9, 44, 0
2, 2778, Note_on_c, 9, 57, 0
2, 2805, Control_c, 9, 4, 86
2, 2820, Note_on_c, 9, 36, 62
2, 2826, Control_c, 9, 18, 0
2, 2827, Note_on_c, 9, 48, 45
2, 2903, Note_on_c, 9, 36, 0
2, 2907, Control_c, 9, 4, 96
2, 2908, Note_on_c, 9, 48, 0
2, 2934, Note_on_c, 9, 57, 72
2, 2943, Note_on_c, 9, 48, 72
2, 3016, Note_on_c, 9, 57, 0
2, 3024, Note_on_c, 9, 48, 0
2, 3054, Control_c, 9, 4, 83
2, 3063, Note_on_c, 9, 57, 77
2, 3089, Control_c, 9, 4, 56
2, 3124, Control_c, 9, 4, 0
2, 3147, Note_on_c, 9, 57, 0
2, 3161, Note_on_c, 9, 44, 87
2, 3167, Note_on_c, 9, 36, 61
2, 3172, Control_c, 9, 4, 127
2, 3203, Control_c, 9, 4, 97
2, 3243, Note_on_c, 9, 44, 0
2, 3248, Note_on_c, 9, 36, 0
2, 3257, Control_c, 9, 4, 86
2, 3361, Control_c, 9, 4, 91
2, 3412, Note_on_c, 9, 36, 65
2, 3423, Note_on_c, 9, 40, 65
2, 3425, Note_on_c, 9, 57, 81
2, 3494, Note_on_c, 9, 36, 0
2, 3505, Note_on_c, 9, 40, 0
2, 3507, Note_on_c, 9, 57, 0
2, 3535, Control_c, 9, 4, 84
2, 3565, Control_c, 9, 4, 70
2, 3601, Control_c, 9, 4, 0
2, 3647, Control_c, 9, 4, 48
2, 3652, Note_on_c, 9, 44, 106
2, 3653, Note_on_c, 9, 57, 76
2, 3678, Control_c, 9, 4, 120
2, 3719, Control_c, 9, 4, 93
2, 3735, Note_on_c, 9, 44, 0
2, 3735, Note_on_c, 9, 57, 0
2, 3769, Control_c, 9, 4, 84
2, 3781, Control_c, 9, 18, 0
2, 3781, Note_on_c, 9, 48, 42
2, 3783, Note_on_c, 9, 36, 57
2, 3855, Control_c, 9, 4, 96
2, 3864, Note_on_c, 9, 36, 0
2, 3864, Note_on_c, 9, 48, 0
2, 3890, Control_c, 9, 4, 92
2, 3899, Note_on_c, 9, 48, 68
2, 3900, Note_on_c, 9, 57, 55
2, 3944, Control_c, 9, 4, 96
2, 3981, Note_on_c, 9, 48, 0
2, 3981, Note_on_c, 9, 57, 0
2, 4011, Control_c, 9, 4, 84
2, 4022, Note_on_c, 9, 57, 63
2, 4042, Control_c, 9, 4, 69
2, 4082, Control_c, 9, 4, 0
2, 4104, Note_on_c, 9, 57, 0
2, 4126, Note_on_c, 9, 44, 93
2, 4128, Note_on_c, 9, 36, 57
2, 4137, Control_c, 9, 4, 127
2, 4168, Control_c, 9, 4, 98
2, 4209, Note_on_c, 9, 44, 0
2, 4210, Note_on_c, 9, 36, 0
2, 4222, Control_c, 9, 4, 86
2, 4261, Note_on_c, 9, 57, 77
2, 4330, Control_c, 9, 4, 92
2, 4344, Note_on_c, 9, 57, 0
2, 4369, Note_on_c, 9, 36, 65
2, 4381, Control_c, 9, 16, 0
2, 4382, Note_on_c, 9, 40, 71
2, 4450, Note_on_c, 9, 36, 0
2, 4462, Note_on_c, 9, 40, 0
2, 4519, Control_c, 9, 4, 70
2, 4563, Control_c, 9, 4, 8
2, 4596, Note_on_c, 9, 57, 93
2, 4599, Control_c, 9, 4, 48
2, 4605, Note_on_c, 9, 44, 87
2, 4630, Control_c, 9, 4, 120
2, 4663, Control_c, 9, 4, 97
2, 4679, Note_on_c, 9, 57, 0
2, 4686, Note_on_c, 9, 44, 0
2, 4699, Control_c, 9, 4, 85
2, 4733, Note_on_c, 9, 36, 57
2, 4738, Control_c, 9, 18, 0
2, 4739, Note_on_c, 9, 48, 39
2, 4813, Control_c, 9, 4, 97
2, 4814, Note_on_c, 9, 36, 0
2, 4820, Note_on_c, 9, 48, 0
2, 4841, Note_on_c, 9, 57, 51
2, 4851, Note_on_c, 9, 48, 68
2, 4924, Note_on_c, 9, 57, 0
2, 4932, Note_on_c, 9, 48, 0
2, 4945, Control_c, 9, 4, 84
2, 4966, Note_on_c, 9, 57, 72
2, 4991, Control_c, 9, 4, 54
2, 5022, Control_c, 9, 4, 0
2, 5048, Note_on_c, 9, 57, 0
2, 5065, Note_on_c, 9, 44, 87
2, 5075, Note_on_c, 9, 36, 49
2, 5076, Control_c, 9, 4, 127
2, 5107, Control_c, 9, 4, 97
2, 5147, Note_on_c, 9, 44, 0
2, 5156, Control_c, 9, 4, 85
2, 5158, Note_on_c, 9, 36, 0
2, 5253, Control_c, 9, 4, 90
2, 5319, Note_on_c, 9, 36, 65
2, 5325, Note_on_c, 9, 38, 59
2, 5325, Note_on_c, 9, 57, 79
2, 5401, Note_on_c, 9, 36, 0
2, 5406, Note_on_c, 9, 38, 0
2, 5408, Note_on_c, 9, 57, 0
2, 5421, Control_c, 9, 4, 84
2, 5451, Control_c, 9, 4, 70
2, 5487, Control_c, 9, 4, 0
2, 5544, Control_c, 9, 4, 35
2, 5550, Note_on_c, 9, 44, 113
2, 5568, Note_on_c, 9, 57, 75
2, 5574, Control_c, 9, 4, 120
2, 5605, Control_c, 9, 4, 97
2, 5632, Note_on_c, 9, 44, 0
2, 5645, Control_c, 9, 4, 85
2, 5651, Note_on_c, 9, 57, 0
2, 5687, Control_c, 9, 18, 0
2, 5687, Note_on_c, 9, 48, 42
2, 5688, Note_on_c, 9, 36, 54
2, 5749, Control_c, 9, 4, 91
2, 5769, Note_on_c, 9, 48, 0
2, 5770, Note_on_c, 9, 36, 0
2, 5806, Note_on_c, 9, 48, 68
2, 5849, Control_c, 9, 4, 95
2, 5886, Note_on_c, 9, 48, 0
2, 5919, Control_c, 9, 4, 84
2, 5926, Note_on_c, 9, 57, 78
2, 5962, Control_c, 9, 4, 53
2, 5993, Control_c, 9, 4, 0
2, 6008, Note_on_c, 9, 57, 0
2, 6035, Note_on_c, 9, 44, 87
2, 6040, Note_on_c, 9, 36, 52
2, 6041, Control_c, 9, 4, 108
2, 6077, Control_c, 9, 4, 97
2, 6117, Note_on_c, 9, 44, 0
2, 6122, Note_on_c, 9, 36, 0
2, 6128, Control_c, 9, 4, 86
2, 6169, Note_on_c, 9, 57, 76
2, 6228, Control_c, 9, 4, 92
2, 6251, Note_on_c, 9, 57, 0
2, 6283, Note_on_c, 9, 36, 65
2, 6291, Control_c, 9, 16, 0
2, 6292, Note_on_c, 9, 38, 60
2, 6366, Note_on_c, 9, 36, 0
2, 6373, Note_on_c, 9, 38, 0
2, 6393, Control_c, 9, 4, 85
2, 6428, Control_c, 9, 4, 70
2, 6470, Control_c, 9, 4, 0
2, 6517, Note_on_c, 9, 57, 68
2, 6519, Note_on_c, 9, 44, 93
2, 6527, Control_c, 9, 4, 126
2, 6560, Control_c, 9, 4, 98
2, 6599, Note_on_c, 9, 44, 0
2, 6599, Note_on_c, 9, 57, 0
2, 6613, Control_c, 9, 4, 86
2, 6645, Note_on_c, 9, 36, 54
2, 6653, Control_c, 9, 18, 0
2, 6653, Note_on_c, 9, 48, 40
2, 6704, Control_c, 9, 4, 92
2, 6728, Note_on_c, 9, 36, 0
2, 6734, Note_on_c, 9, 48, 0
2, 6765, Note_on_c, 9, 57, 64
2, 6773, Note_on_c, 9, 48, 71
2, 6847, Note_on_c, 9, 57, 0
2, 6854, Note_on_c, 9, 48, 0
2, 6869, Control_c, 9, 4, 85
2, 6893, Note_on_c, 9, 57, 72
2, 6917, Control_c, 9, 4, 54
2, 6949, Control_c, 9, 4, 0
2, 6976, Note_on_c, 9, 57, 0
2, 6989, Note_on_c, 9, 44, 87
2, 6995, Control_c, 9, 4, 110
2, 6998, Note_on_c, 9, 36, 57
2, 7031, Control_c, 9, 4, 96
2, 7071, Note_on_c, 9, 44, 0
2, 7080, Control_c, 9, 4, 85
2, 7080, Note_on_c, 9, 36, 0
2, 7178, Control_c, 9, 4, 90
2, 7237, Note_on_c, 9, 36, 64
2, 7244, Note_on_c, 9, 38, 60
2, 7248, Note_on_c, 9, 57, 88
2, 7319, Note_on_c, 9, 36, 0
2, 7324, Note_on_c, 9, 38, 0
2, 7330, Note_on_c, 9, 57, 0
2, 7345, Control_c, 9, 4, 83
2, 7379, Control_c, 9, 4, 70
2, 7416, Control_c, 9, 4, 0
2, 7471, Note_on_c, 9, 44, 100
2, 7481, Control_c, 9, 4, 127
2, 7489, Note_on_c, 9, 57, 82
2, 7513, Control_c, 9, 4, 98
2, 7554, Note_on_c, 9, 44, 0
2, 7565, Control_c, 9, 4, 86
2, 7572, Note_on_c, 9, 57, 0
2, 7611, Control_c, 9, 18, 0
2, 7660, Control_c, 9, 4, 91
2, 7661, End_track
0, 0, End_of_file
