0, 0, Header, 1, 2, 480
1, 0, Start_track
1, 0, Tempo, 588235
1, 0, Time_signature, 4, 2, 24, 8
1, 0, Key_signature, 0, "major"
1, 1, End_track
2, 0, Start_track
2, 0, Title_t, "Classic Studio Kit"
2, 0, Program_c, 9, 0
2, 0, Control_c, 9, 17, 52
2, 15, Control_c, 9, 4, 35
2, 17, Note_on_c, 9, 48, 73
2, 21, Note_on_c, 9, 44, 127
2, 46, Control_c, 9, 4, 127
2, 89, Control_c, 9, 4, 108
2, 99, Note_on_c, 9, 48, 0
2, 102, Note_on_c, 9, 44, 0
2, 121, Control_c, 9, 4, 91
2, 124, Control_c, 9, 17, 17
2, 124, Note_on_c, 9, 51, 84
2, 206, Note_on_c, 9, 51, 0
2, 232, Control_c, 9, 4, 112
2, 256, Note_on_c, 9, 36, 60
2, 262, Control_c, 9, 4, 98
2, 297, Control_c, 9, 4, 93
2, 338, Note_on_c, 9, 36, 0
2, 492, Note_on_c, 9, 38, 86
2, 495, Control_c, 9, 17, 2
2, 495, Note_on_c, 9, 51, 122
2, 501, Note_on_c, 9, 36, 81
2, 522, Control_c, 9, 4, 112
2, 573, Note_on_c, 9, 38, 0
2, 576, Note_on_c, 9, 51, 0
2, 582, Note_on_c, 9, 36, 0
2, 584, Control_c, 9, 4, 91
2, 617, Control_c, 9, 4, 74
2, 660, Control_c, 9, 4, 0
2, 723, Control_c, 9, 4, 33
2, 730, Note_on_c, 9, 44, 127
2, 740, Control_c, 9, 17, 53
2, 741, Note_on_c, 9, 51, 79
2, 755, Control_c, 9, 4, 127
2, 800, Control_c, 9, 4, 100
2, 812, Note_on_c, 9, 44, 0
2, 822, Note_on_c, 9, 51, 0
2, 841, Control_c, 9, 4, 88
2, 848, Control_c, 9, 18, 0
2, 849, Note_on_c, 9, 48, 47
2, 853, Note_on_c, 9, 36, 61
2, 931, Note_on_c, 9, 48, 0
2, 936, Note_on_c, 9, 36, 0
2, 953, Control_c, 9, 4, 122
2, 956, Control_c, 9, 17, 51
2, 956, Note_on_c, 9, 51, 62
2, 974, Note_on_c, 9, 48, 72
2, 1027, Control_c, 9, 4, 97
2, 1038, Note_on_c, 9, 51, 0
2, 1055, Note_on_c, 9, 48, 0
2, 1059, Control_c, 9, 4, 82
2, 1079, Control_c, 9, 17, 8
2, 1080, Note_on_c, 9, 51, 82
2, 1109, Control_c, 9, 4, 54
2, 1144, Control_c, 9, 4, 0
2, 1162, Note_on_c, 9, 51, 0
2, 1183, Note_on_c, 9, 36, 74
2, 1185, Note_on_c, 9, 44, 93
2, 1191, Control_c, 9, 4, 127
2, 1233, Control_c, 9, 4, 116
2, 1265, Note_on_c, 9, 36, 0
2, 1265, Note_on_c, 9, 44, 0
2, 1273, Control_c, 9, 4, 90
2, 1318, Control_c, 9, 17, 19
2, 1318, Note_on_c, 9, 51, 58
2, 1389, Control_c, 9, 4, 98
2, 1400, Note_on_c, 9, 51, 0
2, 1414, Note_on_c, 9, 36, 78
2, 1429, Control_c, 9, 4, 104
2, 1431, Control_c, 9, 16, 0
2, 1432, Note_on_c, 9, 38, 106
2, 1442, Control_c, 9, 17, 0
2, 1443, Note_on_c, 9, 51, 101
2, 1471, Control_c, 9, 4, 93
2, 1496, Note_on_c, 9, 36, 0
2, 1513, Note_on_c, 9, 38, 0
2, 1524, Note_on_c, 9, 51, 0
2, 1628, Control_c, 9, 4, 116
2, 1677, Control_c, 9, 17, 23
2, 1677, Note_on_c, 9, 51, 86
2, 1723, Control_c, 9, 4, 91
2, 1759, Note_on_c, 9, 51, 0
2, 1762, Note_on_c, 9, 36, 58
2, 1766, Control_c, 9, 4, 74
2, 1787, Control_c, 9, 18, 0
2, 1787, Note_on_c, 9, 48, 46
2, 1807, Control_c, 9, 4, 0
2, 1845, Note_on_c, 9, 36, 0
2, 1868, Note_on_c, 9, 48, 0
2, 1877, Control_c, 9, 4, 51
2, 1881, Note_on_c, 9, 44, 127
2, 1906, Control_c, 9, 17, 46
2, 1907, Control_c, 9, 4, 127
2, 1907, Note_on_c, 9, 51, 63
2, 1916, Note_on_c, 9, 50, 91
2, 1944, Control_c, 9, 4, 110
2, 1963, Note_on_c, 9, 44, 0
2, 1975, Control_c, 9, 4, 94
2, 1988, Note_on_c, 9, 51, 0
2, 1997, Note_on_c, 9, 50, 0
2, 2028, Control_c, 9, 17, 26
2, 2029, Note_on_c, 9, 51, 75
2, 2111, Note_on_c, 9, 51, 0
2, 2113, Control_c, 9, 4, 112
2, 2134, Note_on_c, 9, 36, 65
2, 2152, Control_c, 9, 4, 98
2, 2217, Note_on_c, 9, 36, 0
2, 2343, Control_c, 9, 4, 94
2, 2383, Note_on_c, 9, 36, 81
2, 2399, Note_on_c, 9, 38, 82
2, 2400, Control_c, 9, 17, 0
2, 2400, Note_on_c, 9, 51, 114
2, 2426, Control_c, 9, 4, 110
2, 2466, Note_on_c, 9, 36, 0
2, 2480, Note_on_c, 9, 38, 0
2, 2481, Note_on_c, 9, 51, 0
2, 2495, Control_c, 9, 4, 92
2, 2532, Control_c, 9, 4, 77
2, 2572, Control_c, 9, 4, 0
2, 2638, Note_on_c, 9, 44, 126
2, 2640, Control_c, 9, 17, 54
2, 2641, Note_on_c, 9, 51, 77
2, 2644, Control_c, 9, 4, 127
2, 2688, Control_c, 9, 4, 116
2, 2720, Note_on_c, 9, 44, 0
2, 2722, Note_on_c, 9, 51, 0
2, 2728, Control_c, 9, 4, 91
2, 2749, Control_c, 9, 18, 0
2, 2750, Note_on_c, 9, 48, 46
2, 2774, Note_on_c, 9, 36, 62
2, 2831, Note_on_c, 9, 48, 0
2, 2854, Control_c, 9, 4, 108
2, 2857, Note_on_c, 9, 36, 0
2, 2862, Control_c, 9, 17, 58
2, 2863, Note_on_c, 9, 51, 62
2, 2874, Note_on_c, 9, 48, 68
2, 2887, Control_c, 9, 4, 114
2, 2945, Note_on_c, 9, 51, 0
2, 2955, Note_on_c, 9, 48, 0
2, 2975, Control_c, 9, 4, 93
2, 2987, Control_c, 9, 17, 14
2, 2987, Note_on_c, 9, 51, 81
2, 3012, Control_c, 9, 4, 71
2, 3042, Control_c, 9, 4, 0
2, 3069, Note_on_c, 9, 51, 0
2, 3109, Note_on_c, 9, 36, 74
2, 3117, Note_on_c, 9, 44, 127
2, 3122, Control_c, 9, 4, 127
2, 3167, Control_c, 9, 4, 114
2, 3192, Note_on_c, 9, 36, 0
2, 3198, Note_on_c, 9, 44, 0
2, 3206, Control_c, 9, 4, 90
2, 3246, Control_c, 9, 17, 12
2, 3247, Note_on_c, 9, 51, 72
2, 3328, Note_on_c, 9, 51, 0
2, 3330, Control_c, 9, 4, 108
2, 3341, Note_on_c, 9, 36, 73
2, 3358, Control_c, 9, 16, 0
2, 3358, Note_on_c, 9, 38, 77
2, 3362, Control_c, 9, 17, 0
2, 3363, Note_on_c, 9, 51, 115
2, 3370, Control_c, 9, 4, 97
2, 3402, Control_c, 9, 4, 92
2, 3424, Note_on_c, 9, 36, 0
2, 3439, Note_on_c, 9, 38, 0
2, 3443, Note_on_c, 9, 51, 0
2, 3544, Control_c, 9, 4, 98
2, 3610, Control_c, 9, 17, 13
2, 3610, Note_on_c, 9, 51, 93
2, 3619, Control_c, 9, 4, 108
2, 3691, Control_c, 9, 4, 90
2, 3692, Note_on_c, 9, 51, 0
2, 3713, Control_c, 9, 18, 0
2, 3713, Note_on_c, 9, 48, 46
2, 3726, Control_c, 9, 4, 75
2, 3764, Control_c, 9, 4, 0
2, 3795, Note_on_c, 9, 48, 0
2, 3827, Note_on_c, 9, 46, 11
2, 3836, Control_c, 9, 4, 32
2, 3841, Control_c, 9, 17, 47
2, 3841, Note_on_c, 9, 51, 71
2, 3843, Note_on_c, 9, 44, 127
2, 3848, Note_on_c, 9, 48, 81
2, 3850, Note_on_c, 9, 36, 77
2, 3867, Control_c, 9, 4, 127
2, 3908, Control_c, 9, 4, 106
2, 3910, Note_on_c, 9, 46, 0
2, 3923, Note_on_c, 9, 44, 0
2, 3923, Note_on_c, 9, 51, 0
2, 3929, Note_on_c, 9, 48, 0
2, 3932, Note_on_c, 9, 36, 0
2, 3943, Control_c, 9, 4, 92
2, 3961, Control_c, 9, 17, 17
2, 3961, Note_on_c, 9, 51, 81
2, 4043, Note_on_c, 9, 51, 0
2, 4067, Control_c, 9, 4, 120
2, 4119, Control_c, 9, 4, 96
2, 4151, Control_c, 9, 4, 92
2, 4333, Note_on_c, 9, 38, 74
2, 4342, Control_c, 9, 17, 6
2, 4343, Note_on_c, 9, 51, 123
2, 4344, Note_on_c, 9, 36, 33
2, 4414, Note_on_c, 9, 38, 0
2, 4425, Note_on_c, 9, 36, 0
2, 4425, Note_on_c, 9, 51, 0
2, 4571, Note_on_c, 9, 36, 57
2, 4583, Control_c, 9, 17, 25
2, 4584, Note_on_c, 9, 51, 86
2, 4604, Control_c, 9, 4, 106
2, 4654, Note_on_c, 9, 36, 0
2, 4666, Note_on_c, 9, 51, 0
2, 4673, Control_c, 9, 4, 91
2, 4690, Control_c, 9, 18, 0
2, 4691, Note_on_c, 9, 48, 45
2, 4711, Control_c, 9, 4, 75
2, 4751, Control_c, 9, 4, 0
2, 4773, Note_on_c, 9, 48, 0
2, 4794, Control_c, 9, 17, 37
2, 4795, Note_on_c, 9, 51, 69
2, 4816, Note_on_c, 9, 48, 70
2, 4825, Note_on_c, 9, 44, 126
2, 4832, Control_c, 9, 4, 127
2, 4876, Control_c, 9, 4, 112
2, 4878, Note_on_c, 9, 51, 0
2, 4898, Note_on_c, 9, 48, 0
2, 4908, Note_on_c, 9, 44, 0
2, 4915, Control_c, 9, 17, 6
2, 4915, Note_on_c, 9, 51, 88
2, 4918, Control_c, 9, 4, 93
2, 4997, Note_on_c, 9, 51, 0
2, 5057, Control_c, 9, 4, 108
2, 5100, Control_c, 9, 4, 97
2, 5274, Control_c, 9, 16, 0
2, 5274, Note_on_c, 9, 38, 84
2, 5277, Control_c, 9, 17, 4
2, 5278, Note_on_c, 9, 51, 119
2, 5350, Control_c, 9, 4, 93
2, 5356, Note_on_c, 9, 38, 0
2, 5359, Note_on_c, 9, 51, 0
2, 5523, Control_c, 9, 17, 9
2, 5524, Note_on_c, 9, 51, 96
2, 5605, Note_on_c, 9, 51, 0
2, 5769, Control_c, 9, 18, 0
2, 5770, Note_on_c, 9, 48, 94
2, 5771, Note_on_c, 9, 40, 63
2, 5851, Note_on_c, 9, 40, 0
2, 5851, Note_on_c, 9, 48, 0
2, 6249, Control_c, 9, 17, 70
2, 6250, Note_on_c, 9, 51, 81
2, 6253, Control_c, 9, 16, 0
2, 6254, Note_on_c, 9, 38, 122
2, 6331, Note_on_c, 9, 51, 0
2, 6334, Note_on_c, 9, 38, 0
2, 6482, Note_on_c, 9, 36, 73
2, 6493, Control_c, 9, 17, 24
2, 6494, Note_on_c, 9, 51, 75
2, 6564, Note_on_c, 9, 36, 0
2, 6575, Note_on_c, 9, 51, 0
2, 6606, Note_on_c, 9, 48, 67
2, 6688, Note_on_c, 9, 48, 0
2, 6727, Note_on_c, 9, 36, 96
2, 6739, Control_c, 9, 17, 17
2, 6739, Note_on_c, 9, 51, 107
2, 6809, Note_on_c, 9, 36, 0
2, 6821, Note_on_c, 9, 51, 0
2, 6852, Note_on_c, 9, 38, 40
2, 6933, Note_on_c, 9, 38, 0
2, 6964, Control_c, 9, 16, 0
2, 6964, Note_on_c, 9, 38, 48
2, 6984, Control_c, 9, 4, 102
2, 7046, Note_on_c, 9, 38, 0
2, 7056, Note_on_c, 9, 36, 71
2, 7067, Control_c, 9, 4, 92
2, 7138, Note_on_c, 9, 36, 0
2, 7208, Control_c, 9, 4, 118
2, 7212, Control_c, 9, 18, 0
2, 7212, Note_on_c, 9, 45, 94
2, 7218, Control_c, 9, 16, 0
2, 7218, Note_on_c, 9, 38, 87
2, 7238, Control_c, 9, 4, 98
2, 7278, Control_c, 9, 4, 94
2, 7294, Note_on_c, 9, 45, 0
2, 7300, Note_on_c, 9, 38, 0
2, 7443, Note_on_c, 9, 36, 86
2, 7446, Note_on_c, 9, 45, 54
2, 7526, Note_on_c, 9, 36, 0
2, 7526, Note_on_c, 9, 45, 0
2, 7527, End_track
0, 0, End_of_file
