0, 0, Header, 1, 2, 480
1, 0, Start_track
1, 0, Tempo, 545454
1, 0, Time_signature, 4, 2, 24, 8
1, 0, Key_signature, 0, "major"
1, 1, End_track
2, 0, Start_track
2, 0, Title_t, "TD-30 #9 Djembe"
2, 0, Program_c, 9, 0
2, 0, Control_c, 9, 17, 34
2, 34, Control_c, 9, 16, 127
2, 35, Note_on_c, 9, 40, 46
2, 36, Control_c, 9, 17, 37
2, 37, Note_on_c, 9, 51, 54
2, 123, Note_on_c, 9, 40, 0
2, 124, Note_on_c, 9, 51, 0
2, 268, Control_c, 9, 17, 41
2, 268, Note_on_c, 9, 51, 16
2, 356, Note_on_c, 9, 51, 0
2, 376, Control_c, 9, 16, 0
2, 377, Note_on_c, 9, 38, 9
2, 465, Note_on_c, 9, 38, 0
2, 508, Note_on_c, 9, 36, 99
2, 516, Control_c, 9, 17, 33
2, 517, Note_on_c, 9, 51, 55
2, 542, Control_c, 9, 4, 84
2, 597, Note_on_c, 9, 36, 0
2, 600, Control_c, 9, 4, 78
2, 605, Note_on_c, 9, 51, 0
2, 638, Control_c, 9, 4, 59
2, 638, Note_on_c, 9, 46, 8
2, 668, Control_c, 9, 4, 0
2, 727, Note_on_c, 9, 46, 0
2, 736, Control_c, 9, 17, 55
2, 737, Control_c, 9, 4, 66
2, 737, Note_on_c, 9, 51, 28
2, 741, Note_on_c, 9, 44, 67
2, 742, Note_on_c, 9, 46, 69
2, 768, Control_c, 9, 4, 95
2, 825, Control_c, 9, 4, 85
2, 825, Note_on_c, 9, 51, 0
2, 829, Note_on_c, 9, 44, 0
2, 829, Note_on_c, 9, 46, 0
2, 858, Control_c, 9, 4, 81
2, 878, Control_c, 9, 17, 64
2, 879, Note_on_c, 9, 51, 35
2, 948, Control_c, 9, 4, 85
2, 967, Note_on_c, 9, 51, 0
2, 1025, Control_c, 9, 17, 82
2, 1026, Note_on_c, 9, 51, 34
2, 1090, Control_c, 9, 4, 71
2, 1113, Note_on_c, 9, 51, 0
2, 1149, Control_c, 9, 4, 57
2, 1191, Control_c, 9, 4, 20
2, 1229, Control_c, 9, 4, 63
2, 1233, Note_on_c, 9, 44, 61
2, 1235, Note_on_c, 9, 46, 65
2, 1252, Control_c, 9, 17, 67
2, 1253, Note_on_c, 9, 51, 22
2, 1261, Control_c, 9, 4, 100
2, 1313, Control_c, 9, 4, 92
2, 1321, Note_on_c, 9, 44, 0
2, 1321, Note_on_c, 9, 46, 0
2, 1341, Note_on_c, 9, 51, 0
2, 1359, Control_c, 9, 4, 80
2, 1462, Control_c, 9, 4, 91
2, 1474, Control_c, 9, 17, 55
2, 1474, Note_on_c, 9, 51, 56
2, 1483, Control_c, 9, 16, 127
2, 1484, Note_on_c, 9, 40, 52
2, 1549, Control_c, 9, 4, 82
2, 1563, Note_on_c, 9, 51, 0
2, 1571, Note_on_c, 9, 40, 0
2, 1590, Control_c, 9, 4, 70
2, 1600, Note_on_c, 9, 46, 7
2, 1625, Control_c, 9, 4, 48
2, 1661, Control_c, 9, 4, 0
2, 1689, Note_on_c, 9, 46, 0
2, 1694, Control_c, 9, 17, 127
2, 1694, Note_on_c, 9, 51, 27
2, 1698, Control_c, 9, 4, 65
2, 1701, Note_on_c, 9, 44, 80
2, 1728, Control_c, 9, 4, 98
2, 1783, Note_on_c, 9, 51, 0
2, 1789, Note_on_c, 9, 44, 0
2, 1791, Control_c, 9, 4, 86
2, 1824, Control_c, 9, 4, 82
2, 1902, Control_c, 9, 4, 88
2, 1957, Control_c, 9, 17, 80
2, 1958, Note_on_c, 9, 51, 33
2, 2005, Control_c, 9, 4, 82
2, 2043, Control_c, 9, 4, 70
2, 2046, Note_on_c, 9, 51, 0
2, 2093, Control_c, 9, 4, 53
2, 2129, Control_c, 9, 4, 18
2, 2167, Control_c, 9, 4, 66
2, 2171, Note_on_c, 9, 44, 48
2, 2173, Note_on_c, 9, 46, 51
2, 2197, Control_c, 9, 17, 127
2, 2197, Note_on_c, 9, 51, 24
2, 2198, Control_c, 9, 4, 92
2, 2256, Control_c, 9, 4, 86
2, 2259, Note_on_c, 9, 44, 0
2, 2259, Note_on_c, 9, 46, 0
2, 2285, Note_on_c, 9, 51, 0
2, 2290, Control_c, 9, 4, 82
2, 2440, Control_c, 9, 17, 62
2, 2441, Note_on_c, 9, 36, 91
2, 2441, Note_on_c, 9, 51, 41
2, 2444, Control_c, 9, 4, 86
2, 2510, Control_c, 9, 4, 72
2, 2529, Note_on_c, 9, 51, 0
2, 2530, Note_on_c, 9, 36, 0
2, 2544, Control_c, 9, 4, 65
2, 2570, Note_on_c, 9, 46, 6
2, 2581, Control_c, 9, 4, 42
2, 2615, Control_c, 9, 4, 0
2, 2654, Note_on_c, 9, 44, 74
2, 2658, Note_on_c, 9, 46, 0
2, 2661, Control_c, 9, 4, 93
2, 2666, Control_c, 9, 17, 127
2, 2667, Note_on_c, 9, 51, 29
2, 2708, Control_c, 9, 4, 92
2, 2740, Control_c, 9, 4, 85
2, 2742, Note_on_c, 9, 44, 0
2, 2755, Note_on_c, 9, 51, 0
2, 2773, Control_c, 9, 4, 81
2, 2806, Control_c, 9, 17, 99
2, 2807, Note_on_c, 9, 51, 33
2, 2868, Control_c, 9, 4, 89
2, 2895, Note_on_c, 9, 51, 0
2, 2906, Control_c, 9, 17, 127
2, 2907, Note_on_c, 9, 51, 33
2, 2962, Control_c, 9, 4, 84
2, 2994, Note_on_c, 9, 51, 0
2, 3010, Control_c, 9, 4, 72
2, 3069, Control_c, 9, 4, 55
2, 3069, Note_on_c, 9, 46, 7
2, 3106, Control_c, 9, 4, 21
2, 3136, Control_c, 9, 4, 69
2, 3139, Note_on_c, 9, 46, 0
2, 3139, Note_on_c, 9, 46, 60
2, 3142, Note_on_c, 9, 44, 48
2, 3144, Control_c, 9, 17, 104
2, 3145, Note_on_c, 9, 51, 34
2, 3158, Note_on_c, 9, 46, 0
2, 3167, Control_c, 9, 4, 96
2, 3228, Note_on_c, 9, 44, 0
2, 3232, Note_on_c, 9, 51, 0
2, 3241, Control_c, 9, 4, 83
2, 3281, Control_c, 9, 4, 79
2, 3312, Control_c, 9, 4, 75
2, 3363, Control_c, 9, 4, 92
2, 3387, Control_c, 9, 17, 57
2, 3388, Note_on_c, 9, 51, 48
2, 3437, Control_c, 9, 4, 85
2, 3474, Control_c, 9, 4, 71
2, 3476, Note_on_c, 9, 51, 0
2, 3520, Control_c, 9, 4, 52
2, 3557, Control_c, 9, 4, 0
2, 3613, Control_c, 9, 4, 66
2, 3616, Control_c, 9, 17, 91
2, 3616, Note_on_c, 9, 44, 80
2, 3618, Note_on_c, 9, 51, 64
2, 3620, Control_c, 9, 16, 126
2, 3620, Note_on_c, 9, 40, 61
2, 3644, Control_c, 9, 4, 96
2, 3704, Note_on_c, 9, 44, 0
2, 3704, Note_on_c, 9, 51, 0
2, 3709, Note_on_c, 9, 40, 0
2, 3716, Control_c, 9, 4, 84
2, 3770, Control_c, 9, 4, 75
2, 3835, Control_c, 9, 4, 91
2, 3877, Control_c, 9, 18, 0
2, 3877, Note_on_c, 9, 48, 69
2, 3923, Control_c, 9, 4, 84
2, 3959, Control_c, 9, 4, 71
2, 3965, Note_on_c, 9, 48, 0
2, 3999, Control_c, 9, 4, 49
2, 4035, Control_c, 9, 4, 0
2, 4068, Control_c, 9, 4, 16
2, 4083, Note_on_c, 9, 44, 74
2, 4085, Note_on_c, 9, 46, 62
2, 4099, Control_c, 9, 4, 94
2, 4119, Note_on_c, 9, 43, 46
2, 4138, Control_c, 9, 4, 90
2, 4169, Control_c, 9, 4, 83
2, 4171, Note_on_c, 9, 44, 0
2, 4173, Note_on_c, 9, 46, 0
2, 4207, Note_on_c, 9, 43, 0
2, 4359, Note_on_c, 9, 36, 89
2, 4371, Control_c, 9, 17, 105
2, 4372, Note_on_c, 9, 51, 63
2, 4443, Control_c, 9, 4, 71
2, 4447, Note_on_c, 9, 36, 0
2, 4460, Note_on_c, 9, 51, 0
2, 4495, Control_c, 9, 4, 43
2, 4530, Control_c, 9, 4, 8
2, 4562, Control_c, 9, 4, 72
2, 4565, Note_on_c, 9, 46, 57
2, 4566, Note_on_c, 9, 44, 61
2, 4589, Control_c, 9, 17, 127
2, 4589, Note_on_c, 9, 51, 42
2, 4592, Control_c, 9, 4, 93
2, 4653, Note_on_c, 9, 46, 0
2, 4654, Note_on_c, 9, 44, 0
2, 4677, Note_on_c, 9, 51, 0
2, 4679, Control_c, 9, 4, 82
2, 4721, Control_c, 9, 17, 96
2, 4721, Note_on_c, 9, 51, 40
2, 4790, Control_c, 9, 4, 88
2, 4803, Control_c, 9, 17, 127
2, 4804, Note_on_c, 9, 51, 0
2, 4804, Note_on_c, 9, 51, 37
2, 4808, Note_on_c, 9, 51, 0
2, 4899, Control_c, 9, 4, 83
2, 4950, Control_c, 9, 4, 71
2, 4980, Control_c, 9, 4, 62
2, 5021, Control_c, 9, 4, 28
2, 5058, Control_c, 9, 4, 76
2, 5060, Note_on_c, 9, 44, 48
2, 5062, Note_on_c, 9, 46, 53
2, 5072, Note_on_c, 9, 51, 35
2, 5088, Control_c, 9, 4, 93
2, 5148, Note_on_c, 9, 44, 0
2, 5149, Note_on_c, 9, 46, 0
2, 5159, Note_on_c, 9, 51, 0
2, 5161, Control_c, 9, 4, 82
2, 5274, Control_c, 9, 4, 86
2, 5321, Control_c, 9, 16, 127
2, 5322, Note_on_c, 9, 40, 54
2, 5329, Note_on_c, 9, 51, 74
2, 5408, Note_on_c, 9, 40, 0
2, 5417, Note_on_c, 9, 51, 0
2, 5424, Control_c, 9, 4, 74
2, 5462, Control_c, 9, 4, 61
2, 5505, Control_c, 9, 4, 28
2, 5542, Control_c, 9, 4, 69
2, 5546, Note_on_c, 9, 46, 38
2, 5548, Note_on_c, 9, 44, 48
2, 5572, Control_c, 9, 17, 127
2, 5573, Control_c, 9, 4, 93
2, 5573, Note_on_c, 9, 51, 50
2, 5634, Note_on_c, 9, 46, 0
2, 5635, Note_on_c, 9, 44, 0
2, 5652, Control_c, 9, 4, 82
2, 5661, Note_on_c, 9, 51, 0
2, 5754, Control_c, 9, 4, 89
2, 5811, Note_on_c, 9, 48, 56
2, 5856, Control_c, 9, 4, 83
2, 5898, Note_on_c, 9, 48, 0
2, 5900, Control_c, 9, 4, 70
2, 5948, Control_c, 9, 4, 51
2, 5988, Control_c, 9, 4, 12
2, 6020, Control_c, 9, 4, 60
2, 6025, Note_on_c, 9, 44, 61
2, 6027, Note_on_c, 9, 46, 60
2, 6053, Control_c, 9, 4, 95
2, 6063, Note_on_c, 9, 48, 57
2, 6114, Note_on_c, 9, 44, 0
2, 6114, Note_on_c, 9, 46, 0
2, 6122, Control_c, 9, 4, 84
2, 6151, Note_on_c, 9, 48, 0
2, 6161, Control_c, 9, 4, 80
2, 6241, Control_c, 9, 4, 88
2, 6312, Control_c, 9, 17, 81
2, 6313, Note_on_c, 9, 51, 106
2, 6343, Control_c, 9, 4, 82
2, 6385, Control_c, 9, 4, 70
2, 6400, Note_on_c, 9, 51, 0
2, 6447, Control_c, 9, 4, 36
2, 6480, Control_c, 9, 4, 0
2, 6514, Control_c, 9, 4, 65
2, 6518, Note_on_c, 9, 46, 56
2, 6520, Note_on_c, 9, 44, 67
2, 6521, Note_on_c, 9, 36, 57
2, 6533, Control_c, 9, 17, 0
2, 6534, Note_on_c, 9, 51, 31
2, 6546, Control_c, 9, 4, 92
2, 6598, Control_c, 9, 4, 85
2, 6606, Note_on_c, 9, 46, 0
2, 6607, Note_on_c, 9, 36, 0
2, 6607, Note_on_c, 9, 44, 0
2, 6622, Note_on_c, 9, 51, 0
2, 6628, Control_c, 9, 4, 81
2, 6732, Control_c, 9, 4, 85
2, 6765, Note_on_c, 9, 40, 46
2, 6772, Control_c, 9, 17, 109
2, 6773, Note_on_c, 9, 51, 67
2, 6850, Control_c, 9, 4, 79
2, 6853, Note_on_c, 9, 40, 0
2, 6861, Note_on_c, 9, 51, 0
2, 6910, Control_c, 9, 4, 63
2, 6951, Control_c, 9, 4, 33
2, 6983, Control_c, 9, 4, 65
2, 6989, Note_on_c, 9, 46, 41
2, 6991, Note_on_c, 9, 44, 41
2, 6992, Control_c, 9, 17, 127
2, 6993, Note_on_c, 9, 51, 38
2, 7016, Control_c, 9, 4, 94
2, 7077, Note_on_c, 9, 44, 0
2, 7077, Note_on_c, 9, 46, 0
2, 7080, Note_on_c, 9, 51, 0
2, 7083, Control_c, 9, 4, 84
2, 7124, Control_c, 9, 4, 79
2, 7208, Control_c, 9, 4, 89
2, 7236, Control_c, 9, 17, 63
2, 7236, Note_on_c, 9, 51, 74
2, 7296, Control_c, 9, 4, 83
2, 7324, Note_on_c, 9, 51, 0
2, 7337, Control_c, 9, 4, 71
2, 7371, Control_c, 9, 4, 63
2, 7401, Control_c, 9, 4, 41
2, 7432, Control_c, 9, 4, 0
2, 7468, Control_c, 9, 4, 64
2, 7471, Note_on_c, 9, 44, 74
2, 7473, Note_on_c, 9, 46, 64
2, 7475, Control_c, 9, 18, 0
2, 7476, Note_on_c, 9, 45, 29
2, 7499, Control_c, 9, 4, 95
2, 7551, Control_c, 9, 4, 90
2, 7559, Note_on_c, 9, 44, 0
2, 7560, Note_on_c, 9, 46, 0
2, 7563, Note_on_c, 9, 45, 0
2, 7601, Control_c, 9, 4, 79
2, 7636, Control_c, 9, 4, 74
2, 7637, End_track
0, 0, End_of_file
