0, 0, Header, 1, 2, 480
1, 0, Start_track
1, 0, Tempo, 500000
1, 0, Time_signature, 4, 2, 24, 8
1, 0, Key_signature, 0, "major"
1, 1, End_track
2, 0, Start_track
2, 0, Title_t, "Blue Ridge"
2, 0, Program_c, 9, 0
2, 448, Note_on_c, 9, 38, 123
2, 451, Control_c, 9, 4, 90
2, 451, Note_on_c, 9, 22, 127
2, 545, Note_on_c, 9, 38, 0
2, 548, Note_on_c, 9, 22, 0
2, 943, Control_c, 9, 4, 90
2, 943, Note_on_c, 9, 22, 119
2, 945, Note_on_c, 9, 36, 75
2, 1037, Note_on_c, 9, 36, 0
2, 1037, Note_on_c, 9, 36, 6
2, 1039, Note_on_c, 9, 22, 0
2, 1042, Note_on_c, 9, 36, 0
2, 1410, Note_on_c, 9, 38, 127
2, 1416, Control_c, 9, 4, 90
2, 1416, Note_on_c, 9, 22, 127
2, 1507, Note_on_c, 9, 38, 0
2, 1514, Note_on_c, 9, 22, 0
2, 1641, Note_on_c, 9, 36, 53
2, 1738, Note_on_c, 9, 36, 0
2, 1879, Control_c, 9, 4, 90
2, 1879, Note_on_c, 9, 22, 110
2, 1888, Note_on_c, 9, 36, 75
2, 1976, Note_on_c, 9, 22, 0
2, 1984, Note_on_c, 9, 36, 0
2, 2128, Control_c, 9, 4, 90
2, 2128, Note_on_c, 9, 42, 72
2, 2225, Note_on_c, 9, 42, 0
2, 2369, Control_c, 9, 4, 90
2, 2369, Note_on_c, 9, 22, 100
2, 2369, Note_on_c, 9, 38, 124
2, 2466, Note_on_c, 9, 22, 0
2, 2466, Note_on_c, 9, 38, 0
2, 2597, Note_on_c, 9, 36, 62
2, 2603, Control_c, 9, 4, 90
2, 2603, Note_on_c, 9, 42, 66
2, 2694, Note_on_c, 9, 36, 0
2, 2700, Note_on_c, 9, 42, 0
2, 2862, Note_on_c, 9, 36, 76
2, 2864, Control_c, 9, 4, 90
2, 2865, Note_on_c, 9, 22, 103
2, 2958, Note_on_c, 9, 36, 0
2, 2961, Note_on_c, 9, 22, 0
2, 3102, Control_c, 9, 4, 90
2, 3102, Note_on_c, 9, 42, 65
2, 3199, Note_on_c, 9, 42, 0
2, 3304, Control_c, 9, 4, 81
2, 3348, Note_on_c, 9, 38, 127
2, 3352, Control_c, 9, 4, 90
2, 3352, Note_on_c, 9, 22, 121
2, 3444, Note_on_c, 9, 38, 0
2, 3450, Note_on_c, 9, 22, 0
2, 3592, Control_c, 9, 4, 90
2, 3592, Note_on_c, 9, 42, 56
2, 3689, Note_on_c, 9, 42, 0
2, 3847, Note_on_c, 9, 36, 67
2, 3849, Control_c, 9, 4, 90
2, 3849, Note_on_c, 9, 22, 105
2, 3944, Note_on_c, 9, 36, 0
2, 3946, Note_on_c, 9, 22, 0
2, 4077, Control_c, 9, 4, 90
2, 4077, Note_on_c, 9, 42, 59
2, 4175, Note_on_c, 9, 42, 0
2, 4318, Note_on_c, 9, 38, 109
2, 4320, Control_c, 9, 4, 90
2, 4320, Note_on_c, 9, 22, 104
2, 4415, Note_on_c, 9, 38, 0
2, 4417, Note_on_c, 9, 22, 0
2, 4550, Note_on_c, 9, 36, 55
2, 4555, Control_c, 9, 4, 90
2, 4556, Note_on_c, 9, 42, 63
2, 4647, Note_on_c, 9, 36, 0
2, 4653, Note_on_c, 9, 42, 0
2, 4792, Control_c, 9, 4, 90
2, 4792, Note_on_c, 9, 42, 89
2, 4809, Note_on_c, 9, 36, 70
2, 4889, Note_on_c, 9, 42, 0
2, 4906, Note_on_c, 9, 36, 0
2, 5032, Control_c, 9, 4, 55
2, 5032, Note_on_c, 9, 26, 115
2, 5063, Control_c, 9, 4, 18
2, 5093, Control_c, 9, 4, 0
2, 5130, Note_on_c, 9, 26, 0
2, 5258, Control_c, 9, 4, 76
2, 5258, Note_on_c, 9, 44, 85
2, 5266, Note_on_c, 9, 38, 122
2, 5277, Note_on_c, 9, 22, 88
2, 5289, Control_c, 9, 4, 90
2, 5356, Note_on_c, 9, 44, 0
2, 5363, Note_on_c, 9, 38, 0
2, 5374, Note_on_c, 9, 22, 0
2, 5501, Control_c, 9, 4, 90
2, 5501, Note_on_c, 9, 42, 63
2, 5514, Note_on_c, 9, 36, 50
2, 5598, Note_on_c, 9, 42, 0
2, 5611, Note_on_c, 9, 36, 0
2, 5754, Control_c, 9, 4, 90
2, 5754, Note_on_c, 9, 22, 109
2, 5754, Note_on_c, 9, 36, 73
2, 5852, Note_on_c, 9, 22, 0
2, 5852, Note_on_c, 9, 36, 0
2, 5947, Control_c, 9, 4, 75
2, 5991, Control_c, 9, 4, 90
2, 5991, Note_on_c, 9, 42, 54
2, 6089, Note_on_c, 9, 42, 0
2, 6131, Control_c, 9, 4, 80
2, 6166, Control_c, 9, 4, 68
2, 6226, Note_on_c, 9, 38, 117
2, 6229, Note_on_c, 9, 22, 127
2, 6234, Control_c, 9, 4, 90
2, 6322, Note_on_c, 9, 38, 0
2, 6326, Note_on_c, 9, 22, 0
2, 6385, Control_c, 9, 4, 81
2, 6418, Control_c, 9, 4, 66
2, 6451, Control_c, 9, 4, 80
2, 6457, Note_on_c, 9, 46, 60
2, 6482, Control_c, 9, 4, 90
2, 6553, Note_on_c, 9, 46, 0
2, 6578, Note_on_c, 9, 38, 82
2, 6633, Control_c, 9, 4, 74
2, 6669, Control_c, 9, 4, 80
2, 6674, Note_on_c, 9, 38, 0
2, 6695, Note_on_c, 9, 36, 55
2, 6703, Control_c, 9, 4, 90
2, 6703, Note_on_c, 9, 22, 94
2, 6792, Note_on_c, 9, 36, 0
2, 6800, Note_on_c, 9, 22, 0
2, 6800, Note_on_c, 9, 37, 25
2, 6865, Control_c, 9, 4, 66
2, 6897, Note_on_c, 9, 37, 0
2, 6909, Control_c, 9, 4, 78
2, 6932, Note_on_c, 9, 36, 66
2, 6933, Note_on_c, 9, 42, 63
2, 6941, Control_c, 9, 4, 90
2, 7029, Note_on_c, 9, 36, 0
2, 7029, Note_on_c, 9, 42, 0
2, 7122, Control_c, 9, 4, 68
2, 7174, Note_on_c, 9, 22, 127
2, 7174, Note_on_c, 9, 40, 127
2, 7178, Control_c, 9, 4, 90
2, 7271, Note_on_c, 9, 22, 0
2, 7271, Note_on_c, 9, 40, 0
2, 7402, Control_c, 9, 4, 90
2, 7402, Note_on_c, 9, 42, 52
2, 7413, Note_on_c, 9, 36, 59
2, 7499, Note_on_c, 9, 42, 0
2, 7510, Note_on_c, 9, 36, 0
2, 7533, Note_on_c, 9, 38, 19
2, 7602, Control_c, 9, 4, 81
2, 7630, Note_on_c, 9, 38, 0
2, 7659, Control_c, 9, 4, 90
2, 7660, End_track
0, 0, End_of_file
