0, 0, Header, 1, 2, 480
1, 0, Start_track
1, 0, Tempo, 588235
1, 0, Time_signature, 4, 2, 24, 8
1, 0, Key_signature, 0, "major"
1, 1, End_track
2, 0, Start_track
2, 0, Title_t, "Classic Studio Kit"
2, 0, Program_c, 9, 0
2, 0, Control_c, 9, 16, 0
2, 16, Control_c, 9, 4, 118
2, 18, Note_on_c, 9, 38, 33
2, 96, Control_c, 9, 4, 91
2, 99, Note_on_c, 9, 38, 0
2, 130, Control_c, 9, 4, 71
2, 142, Control_c, 9, 16, 0
2, 142, Note_on_c, 9, 38, 30
2, 163, Control_c, 9, 4, 0
2, 202, Control_c, 9, 4, 0
2, 202, Note_on_c, 9, 46, 25
2, 225, Note_on_c, 9, 38, 0
2, 243, Note_on_c, 9, 46, 0
2, 244, Note_on_c, 9, 46, 14
2, 248, Note_on_c, 9, 48, 57
2, 251, Control_c, 9, 4, 35
2, 256, Note_on_c, 9, 44, 127
2, 282, Control_c, 9, 4, 96
2, 284, Note_on_c, 9, 46, 0
2, 322, Control_c, 9, 4, 47
2, 330, Note_on_c, 9, 48, 0
2, 338, Note_on_c, 9, 44, 0
2, 369, Control_c, 9, 4, 71
2, 370, Note_on_c, 9, 46, 15
2, 451, Note_on_c, 9, 46, 0
2, 494, Control_c, 9, 17, 2
2, 495, Note_on_c, 9, 51, 105
2, 503, Note_on_c, 9, 36, 77
2, 504, Note_on_c, 9, 38, 40
2, 545, Control_c, 9, 17, 2
2, 546, Note_on_c, 9, 51, 0
2, 546, Note_on_c, 9, 51, 43
2, 576, Note_on_c, 9, 51, 0
2, 580, Control_c, 9, 4, 54
2, 585, Note_on_c, 9, 36, 0
2, 585, Note_on_c, 9, 38, 0
2, 613, Control_c, 9, 4, 0
2, 720, Note_on_c, 9, 44, 87
2, 735, Control_c, 9, 4, 102
2, 739, Control_c, 9, 16, 0
2, 739, Note_on_c, 9, 38, 38
2, 769, Control_c, 9, 4, 110
2, 801, Note_on_c, 9, 44, 0
2, 818, Control_c, 9, 4, 91
2, 821, Note_on_c, 9, 38, 0
2, 842, Note_on_c, 9, 36, 72
2, 853, Control_c, 9, 4, 72
2, 859, Control_c, 9, 18, 0
2, 859, Note_on_c, 9, 48, 50
2, 894, Control_c, 9, 4, 0
2, 924, Note_on_c, 9, 36, 0
2, 940, Note_on_c, 9, 48, 0
2, 967, Note_on_c, 9, 46, 15
2, 974, Control_c, 9, 4, 34
2, 978, Control_c, 9, 17, 4
2, 979, Note_on_c, 9, 51, 87
2, 981, Note_on_c, 9, 44, 127
2, 1004, Control_c, 9, 4, 127
2, 1035, Control_c, 9, 4, 96
2, 1049, Note_on_c, 9, 46, 0
2, 1061, Note_on_c, 9, 51, 0
2, 1062, Note_on_c, 9, 44, 0
2, 1083, Control_c, 9, 4, 84
2, 1099, Note_on_c, 9, 38, 36
2, 1149, Control_c, 9, 4, 89
2, 1181, Note_on_c, 9, 38, 0
2, 1196, Control_c, 9, 16, 0
2, 1197, Note_on_c, 9, 38, 47
2, 1218, Note_on_c, 9, 36, 68
2, 1279, Note_on_c, 9, 38, 0
2, 1299, Note_on_c, 9, 36, 0
2, 1445, Note_on_c, 9, 36, 84
2, 1448, Control_c, 9, 17, 14
2, 1449, Note_on_c, 9, 51, 120
2, 1451, Note_on_c, 9, 38, 45
2, 1526, Note_on_c, 9, 36, 0
2, 1529, Note_on_c, 9, 51, 0
2, 1532, Note_on_c, 9, 38, 0
2, 1688, Control_c, 9, 16, 0
2, 1688, Note_on_c, 9, 38, 60
2, 1690, Note_on_c, 9, 55, 57
2, 1692, Note_on_c, 9, 36, 92
2, 1712, Control_c, 9, 4, 110
2, 1771, Note_on_c, 9, 38, 0
2, 1773, Note_on_c, 9, 55, 0
2, 1774, Note_on_c, 9, 36, 0
2, 1780, Control_c, 9, 4, 90
2, 1813, Control_c, 9, 4, 72
2, 1858, Control_c, 9, 4, 0
2, 1929, Control_c, 9, 4, 48
2, 1934, Note_on_c, 9, 44, 106
2, 1942, Control_c, 9, 17, 4
2, 1942, Note_on_c, 9, 51, 83
2, 1960, Control_c, 9, 4, 114
2, 2010, Control_c, 9, 4, 95
2, 2016, Note_on_c, 9, 44, 0
2, 2024, Note_on_c, 9, 51, 0
2, 2049, Control_c, 9, 4, 85
2, 2066, Control_c, 9, 16, 42
2, 2066, Note_on_c, 9, 38, 35
2, 2148, Note_on_c, 9, 38, 0
2, 2182, Control_c, 9, 4, 120
2, 2186, Note_on_c, 9, 53, 120
2, 2254, Control_c, 9, 4, 98
2, 2267, Note_on_c, 9, 53, 0
2, 2288, Control_c, 9, 4, 81
2, 2300, Note_on_c, 9, 36, 74
2, 2329, Control_c, 9, 4, 0
2, 2381, Note_on_c, 9, 36, 0
2, 2402, Note_on_c, 9, 46, 14
2, 2408, Control_c, 9, 16, 0
2, 2408, Note_on_c, 9, 38, 53
2, 2413, Note_on_c, 9, 44, 127
2, 2418, Control_c, 9, 4, 127
2, 2455, Control_c, 9, 4, 98
2, 2483, Note_on_c, 9, 46, 0
2, 2487, Control_c, 9, 4, 91
2, 2491, Note_on_c, 9, 38, 0
2, 2494, Note_on_c, 9, 44, 0
2, 2536, Note_on_c, 9, 48, 55
2, 2605, Control_c, 9, 4, 97
2, 2618, Note_on_c, 9, 48, 0
2, 2643, Note_on_c, 9, 36, 79
2, 2653, Control_c, 9, 4, 93
2, 2655, Control_c, 9, 17, 42
2, 2656, Note_on_c, 9, 51, 64
2, 2726, Note_on_c, 9, 36, 0
2, 2737, Note_on_c, 9, 51, 0
2, 2893, Note_on_c, 9, 53, 122
2, 2895, Note_on_c, 9, 38, 79
2, 2943, Control_c, 9, 4, 102
2, 2975, Note_on_c, 9, 53, 0
2, 2976, Note_on_c, 9, 38, 0
2, 2991, Control_c, 9, 4, 91
2, 3024, Control_c, 9, 4, 71
2, 3065, Control_c, 9, 4, 0
2, 3113, Note_on_c, 9, 44, 100
2, 3120, Control_c, 9, 4, 127
2, 3125, Control_c, 9, 16, 0
2, 3126, Note_on_c, 9, 40, 59
2, 3131, Control_c, 9, 18, 0
2, 3131, Note_on_c, 9, 45, 74
2, 3155, Control_c, 9, 4, 100
2, 3195, Note_on_c, 9, 44, 0
2, 3207, Note_on_c, 9, 40, 0
2, 3209, Control_c, 9, 4, 89
2, 3214, Note_on_c, 9, 45, 0
2, 3364, Note_on_c, 9, 36, 72
2, 3369, Control_c, 9, 17, 3
2, 3369, Note_on_c, 9, 51, 101
2, 3445, Note_on_c, 9, 36, 0
2, 3449, Note_on_c, 9, 51, 0
2, 3602, Note_on_c, 9, 38, 73
2, 3606, Note_on_c, 9, 36, 78
2, 3612, Note_on_c, 9, 55, 56
2, 3684, Note_on_c, 9, 38, 0
2, 3688, Note_on_c, 9, 36, 0
2, 3693, Note_on_c, 9, 55, 0
2, 3853, Control_c, 9, 17, 0
2, 3854, Note_on_c, 9, 51, 84
2, 3875, Control_c, 9, 4, 108
2, 3936, Note_on_c, 9, 51, 0
2, 3937, Control_c, 9, 4, 90
2, 3965, Control_c, 9, 16, 0
2, 3965, Note_on_c, 9, 38, 33
2, 3968, Control_c, 9, 4, 72
2, 4003, Control_c, 9, 4, 0
2, 4048, Note_on_c, 9, 38, 0
2, 4079, Control_c, 9, 4, 0
2, 4080, Note_on_c, 9, 46, 10
2, 4095, Note_on_c, 9, 44, 127
2, 4096, Control_c, 9, 17, 31
2, 4096, Note_on_c, 9, 51, 108
2, 4116, Control_c, 9, 4, 94
2, 4148, Control_c, 9, 4, 56
2, 4161, Note_on_c, 9, 46, 0
2, 4176, Note_on_c, 9, 44, 0
2, 4178, Note_on_c, 9, 51, 0
2, 4191, Control_c, 9, 4, 72
2, 4191, Note_on_c, 9, 46, 6
2, 4200, Note_on_c, 9, 38, 7
2, 4211, Note_on_c, 9, 36, 45
2, 4274, Note_on_c, 9, 46, 0
2, 4281, Note_on_c, 9, 38, 0
2, 4293, Note_on_c, 9, 36, 0
2, 4323, Note_on_c, 9, 36, 74
2, 4327, Control_c, 9, 17, 20
2, 4327, Note_on_c, 9, 51, 65
2, 4329, Control_c, 9, 4, 68
2, 4369, Control_c, 9, 4, 52
2, 4373, Control_c, 9, 17, 20
2, 4373, Note_on_c, 9, 51, 0
2, 4375, Note_on_c, 9, 51, 28
2, 4405, Note_on_c, 9, 36, 0
2, 4406, Control_c, 9, 4, 0
2, 4408, Note_on_c, 9, 51, 0
2, 4456, Control_c, 9, 16, 0
2, 4456, Note_on_c, 9, 38, 34
2, 4538, Note_on_c, 9, 38, 0
2, 4542, Note_on_c, 9, 44, 87
2, 4558, Control_c, 9, 4, 98
2, 4568, Note_on_c, 9, 38, 40
2, 4593, Control_c, 9, 4, 110
2, 4624, Note_on_c, 9, 44, 0
2, 4637, Control_c, 9, 4, 98
2, 4650, Note_on_c, 9, 38, 0
2, 4669, Control_c, 9, 4, 80
2, 4692, Note_on_c, 9, 36, 86
2, 4708, Control_c, 9, 4, 0
2, 4744, Control_c, 9, 4, 0
2, 4744, Note_on_c, 9, 46, 26
2, 4776, Note_on_c, 9, 36, 0
2, 4807, Control_c, 9, 16, 0
2, 4808, Note_on_c, 9, 38, 75
2, 4810, Note_on_c, 9, 44, 126
2, 4812, Control_c, 9, 4, 108
2, 4827, Note_on_c, 9, 46, 0
2, 4850, Control_c, 9, 4, 70
2, 4890, Note_on_c, 9, 38, 0
2, 4890, Note_on_c, 9, 44, 0
2, 4925, Control_c, 9, 4, 72
2, 4933, Note_on_c, 9, 48, 61
2, 5015, Note_on_c, 9, 48, 0
2, 5044, Note_on_c, 9, 36, 65
2, 5054, Control_c, 9, 17, 6
2, 5055, Note_on_c, 9, 51, 61
2, 5126, Note_on_c, 9, 36, 0
2, 5135, Note_on_c, 9, 51, 0
2, 5184, Note_on_c, 9, 38, 37
2, 5265, Note_on_c, 9, 38, 0
2, 5293, Note_on_c, 9, 36, 91
2, 5305, Control_c, 9, 17, 0
2, 5305, Note_on_c, 9, 51, 61
2, 5317, Control_c, 9, 4, 79
2, 5352, Control_c, 9, 4, 82
2, 5375, Note_on_c, 9, 36, 0
2, 5387, Note_on_c, 9, 51, 0
2, 5517, Control_c, 9, 4, 87
2, 5530, Control_c, 9, 16, 0
2, 5531, Note_on_c, 9, 38, 71
2, 5533, Note_on_c, 9, 55, 57
2, 5555, Control_c, 9, 4, 104
2, 5613, Note_on_c, 9, 38, 0
2, 5614, Control_c, 9, 4, 90
2, 5615, Note_on_c, 9, 55, 0
2, 5644, Control_c, 9, 4, 70
2, 5676, Control_c, 9, 4, 0
2, 5747, Note_on_c, 9, 46, 8
2, 5763, Note_on_c, 9, 44, 127
2, 5770, Control_c, 9, 4, 127
2, 5778, Control_c, 9, 17, 9
2, 5778, Note_on_c, 9, 51, 69
2, 5805, Control_c, 9, 4, 89
2, 5828, Note_on_c, 9, 46, 0
2, 5844, Note_on_c, 9, 44, 0
2, 5859, Note_on_c, 9, 51, 0
2, 5875, Control_c, 9, 4, 84
2, 5898, Note_on_c, 9, 38, 35
2, 5918, Control_c, 9, 4, 90
2, 5980, Note_on_c, 9, 38, 0
2, 6010, Note_on_c, 9, 36, 79
2, 6025, Control_c, 9, 17, 0
2, 6026, Note_on_c, 9, 51, 79
2, 6052, Control_c, 9, 4, 108
2, 6071, Control_c, 9, 17, 0
2, 6072, Note_on_c, 9, 51, 0
2, 6072, Note_on_c, 9, 51, 33
2, 6092, Note_on_c, 9, 36, 0
2, 6100, Control_c, 9, 4, 98
2, 6107, Note_on_c, 9, 51, 0
2, 6132, Control_c, 9, 4, 82
2, 6152, Control_c, 9, 16, 0
2, 6153, Note_on_c, 9, 38, 31
2, 6173, Control_c, 9, 4, 0
2, 6235, Note_on_c, 9, 38, 0
2, 6248, Note_on_c, 9, 46, 13
2, 6253, Control_c, 9, 16, 127
2, 6253, Note_on_c, 9, 38, 52
2, 6261, Note_on_c, 9, 44, 127
2, 6266, Control_c, 9, 4, 110
2, 6302, Control_c, 9, 4, 59
2, 6329, Note_on_c, 9, 46, 0
2, 6334, Control_c, 9, 4, 0
2, 6334, Note_on_c, 9, 38, 0
2, 6342, Note_on_c, 9, 44, 0
2, 6344, Control_c, 9, 16, 0
2, 6345, Note_on_c, 9, 38, 8
2, 6364, Note_on_c, 9, 36, 47
2, 6426, Note_on_c, 9, 38, 0
2, 6448, Note_on_c, 9, 36, 0
2, 6474, Note_on_c, 9, 36, 64
2, 6492, Control_c, 9, 17, 77
2, 6492, Note_on_c, 9, 51, 88
2, 6556, Note_on_c, 9, 36, 0
2, 6572, Note_on_c, 9, 38, 32
2, 6573, Note_on_c, 9, 51, 0
2, 6628, Control_c, 9, 16, 0
2, 6629, Note_on_c, 9, 38, 0
2, 6629, Note_on_c, 9, 38, 33
2, 6653, Note_on_c, 9, 38, 0
2, 6680, Note_on_c, 9, 38, 53
2, 6709, Note_on_c, 9, 38, 0
2, 6732, Control_c, 9, 16, 0
2, 6732, Note_on_c, 9, 38, 56
2, 6744, Control_c, 9, 4, 61
2, 6756, Note_on_c, 9, 46, 41
2, 6758, Note_on_c, 9, 44, 41
2, 6761, Note_on_c, 9, 38, 0
2, 6781, Control_c, 9, 4, 69
2, 6827, Control_c, 9, 4, 30
2, 6838, Note_on_c, 9, 44, 0
2, 6838, Note_on_c, 9, 46, 0
2, 6840, Control_c, 9, 16, 106
2, 6840, Note_on_c, 9, 38, 54
2, 6862, Control_c, 9, 4, 0
2, 6922, Note_on_c, 9, 38, 0
2, 6950, Control_c, 9, 4, 60
2, 6957, Note_on_c, 9, 44, 54
2, 6967, Control_c, 9, 16, 42
2, 6968, Note_on_c, 9, 38, 59
2, 6982, Control_c, 9, 4, 89
2, 7038, Note_on_c, 9, 44, 0
2, 7050, Note_on_c, 9, 38, 0
2, 7086, Control_c, 9, 16, 0
2, 7086, Note_on_c, 9, 38, 46
2, 7149, Control_c, 9, 4, 85
2, 7167, Note_on_c, 9, 38, 0
2, 7203, Control_c, 9, 17, 33
2, 7203, Note_on_c, 9, 51, 93
2, 7207, Note_on_c, 9, 36, 75
2, 7286, Note_on_c, 9, 51, 0
2, 7289, Note_on_c, 9, 36, 0
2, 7433, Note_on_c, 9, 38, 61
2, 7434, Control_c, 9, 4, 90
2, 7440, Note_on_c, 9, 55, 49
2, 7441, Note_on_c, 9, 36, 86
2, 7483, Control_c, 9, 4, 108
2, 7515, Note_on_c, 9, 38, 0
2, 7522, Note_on_c, 9, 36, 0
2, 7522, Note_on_c, 9, 55, 0
2, 7526, Control_c, 9, 4, 92
2, 7562, Control_c, 9, 4, 75
2, 7600, Control_c, 9, 4, 0
2, 7674, Control_c, 9, 4, 34
2, 7675, End_track
0, 0, End_of_file
