0, 0, Header, 1, 2, 480
1, 0, Start_track
1, 0, Tempo, 588235
1, 0, Time_signature, 4, 2, 24, 8
1, 0, Key_signature, 0, "major"
1, 1, End_track
2, 0, Start_track
2, 0, Title_t, "Classic Studio Kit"
2, 0, Program_c, 9, 0
2, 0, Control_c, 9, 18, 0
2, 27, Control_c, 9, 4, 83
2, 99, Control_c, 9, 4, 70
2, 114, Control_c, 9, 18, 127
2, 115, Note_on_c, 9, 47, 72
2, 139, Control_c, 9, 4, 0
2, 196, Note_on_c, 9, 47, 0
2, 208, Control_c, 9, 4, 16
2, 218, Note_on_c, 9, 44, 100
2, 226, Control_c, 9, 18, 0
2, 227, Note_on_c, 9, 45, 91
2, 238, Control_c, 9, 4, 112
2, 269, Control_c, 9, 4, 102
2, 301, Note_on_c, 9, 44, 0
2, 306, Control_c, 9, 4, 91
2, 309, Note_on_c, 9, 45, 0
2, 472, Note_on_c, 9, 38, 74
2, 474, Control_c, 9, 17, 14
2, 474, Note_on_c, 9, 51, 105
2, 482, Note_on_c, 9, 36, 81
2, 492, Control_c, 9, 4, 96
2, 543, Control_c, 9, 4, 95
2, 554, Note_on_c, 9, 38, 0
2, 556, Note_on_c, 9, 51, 0
2, 564, Note_on_c, 9, 36, 0
2, 589, Control_c, 9, 4, 70
2, 620, Control_c, 9, 4, 0
2, 687, Note_on_c, 9, 46, 7
2, 700, Control_c, 9, 4, 35
2, 705, Note_on_c, 9, 44, 127
2, 714, Control_c, 9, 17, 19
2, 714, Note_on_c, 9, 51, 96
2, 731, Control_c, 9, 4, 127
2, 768, Note_on_c, 9, 46, 0
2, 772, Control_c, 9, 4, 112
2, 787, Note_on_c, 9, 44, 0
2, 795, Note_on_c, 9, 51, 0
2, 803, Control_c, 9, 4, 91
2, 827, Note_on_c, 9, 48, 47
2, 835, Note_on_c, 9, 36, 67
2, 841, Control_c, 9, 4, 87
2, 909, Note_on_c, 9, 48, 0
2, 918, Note_on_c, 9, 36, 0
2, 949, Control_c, 9, 17, 50
2, 949, Note_on_c, 9, 51, 71
2, 950, Control_c, 9, 4, 112
2, 963, Control_c, 9, 18, 0
2, 964, Note_on_c, 9, 48, 83
2, 984, Control_c, 9, 4, 124
2, 1031, Control_c, 9, 4, 110
2, 1031, Note_on_c, 9, 51, 0
2, 1046, Note_on_c, 9, 48, 0
2, 1067, Control_c, 9, 4, 80
2, 1077, Control_c, 9, 17, 22
2, 1078, Note_on_c, 9, 51, 74
2, 1105, Control_c, 9, 4, 0
2, 1159, Note_on_c, 9, 51, 0
2, 1173, Note_on_c, 9, 46, 26
2, 1186, Note_on_c, 9, 36, 80
2, 1197, Control_c, 9, 4, 34
2, 1202, Note_on_c, 9, 44, 127
2, 1227, Control_c, 9, 4, 127
2, 1245, Note_on_c, 9, 49, 6
2, 1255, Note_on_c, 9, 46, 0
2, 1268, Note_on_c, 9, 36, 0
2, 1277, Control_c, 9, 4, 82
2, 1284, Note_on_c, 9, 44, 0
2, 1308, Control_c, 9, 17, 7
2, 1309, Note_on_c, 9, 51, 91
2, 1310, Control_c, 9, 4, 0
2, 1327, Note_on_c, 9, 49, 0
2, 1347, Note_on_c, 9, 46, 30
2, 1390, Note_on_c, 9, 51, 0
2, 1397, Control_c, 9, 4, 0
2, 1397, Note_on_c, 9, 46, 0
2, 1398, Note_on_c, 9, 46, 12
2, 1428, Note_on_c, 9, 46, 0
2, 1431, Control_c, 9, 16, 0
2, 1432, Note_on_c, 9, 38, 74
2, 1433, Note_on_c, 9, 36, 89
2, 1435, Note_on_c, 9, 44, 119
2, 1450, Control_c, 9, 4, 114
2, 1485, Control_c, 9, 4, 98
2, 1513, Note_on_c, 9, 38, 0
2, 1515, Note_on_c, 9, 36, 0
2, 1516, Note_on_c, 9, 44, 0
2, 1518, Control_c, 9, 4, 92
2, 1566, Control_c, 9, 4, 81
2, 1665, Control_c, 9, 17, 15
2, 1665, Note_on_c, 9, 51, 101
2, 1670, Control_c, 9, 4, 127
2, 1734, Control_c, 9, 4, 102
2, 1747, Note_on_c, 9, 51, 0
2, 1774, Control_c, 9, 4, 77
2, 1782, Note_on_c, 9, 48, 47
2, 1805, Note_on_c, 9, 36, 76
2, 1814, Control_c, 9, 4, 0
2, 1852, Control_c, 9, 4, 0
2, 1853, Note_on_c, 9, 46, 22
2, 1863, Note_on_c, 9, 48, 0
2, 1887, Note_on_c, 9, 36, 0
2, 1913, Control_c, 9, 18, 0
2, 1913, Note_on_c, 9, 48, 75
2, 1915, Note_on_c, 9, 44, 127
2, 1916, Control_c, 9, 17, 127
2, 1916, Note_on_c, 9, 51, 54
2, 1920, Control_c, 9, 4, 127
2, 1934, Note_on_c, 9, 46, 0
2, 1964, Control_c, 9, 4, 112
2, 1995, Note_on_c, 9, 48, 0
2, 1996, Note_on_c, 9, 44, 0
2, 1996, Note_on_c, 9, 51, 0
2, 2000, Control_c, 9, 4, 91
2, 2043, Control_c, 9, 17, 37
2, 2044, Note_on_c, 9, 51, 69
2, 2124, Note_on_c, 9, 51, 0
2, 2137, Control_c, 9, 4, 110
2, 2168, Note_on_c, 9, 36, 73
2, 2178, Control_c, 9, 4, 95
2, 2249, Note_on_c, 9, 36, 0
2, 2347, Control_c, 9, 4, 91
2, 2400, Control_c, 9, 17, 6
2, 2401, Note_on_c, 9, 51, 98
2, 2411, Note_on_c, 9, 38, 69
2, 2415, Note_on_c, 9, 36, 84
2, 2423, Control_c, 9, 4, 98
2, 2456, Control_c, 9, 4, 110
2, 2483, Note_on_c, 9, 51, 0
2, 2492, Note_on_c, 9, 38, 0
2, 2493, Control_c, 9, 4, 91
2, 2497, Note_on_c, 9, 36, 0
2, 2527, Control_c, 9, 4, 72
2, 2564, Control_c, 9, 4, 0
2, 2634, Note_on_c, 9, 46, 14
2, 2640, Control_c, 9, 4, 34
2, 2646, Note_on_c, 9, 44, 127
2, 2647, Control_c, 9, 17, 37
2, 2648, Note_on_c, 9, 51, 91
2, 2671, Control_c, 9, 4, 127
2, 2708, Control_c, 9, 4, 118
2, 2715, Note_on_c, 9, 46, 0
2, 2728, Note_on_c, 9, 44, 0
2, 2729, Note_on_c, 9, 51, 0
2, 2747, Control_c, 9, 4, 91
2, 2761, Note_on_c, 9, 48, 49
2, 2779, Note_on_c, 9, 36, 74
2, 2782, Control_c, 9, 4, 87
2, 2843, Note_on_c, 9, 48, 0
2, 2861, Note_on_c, 9, 36, 0
2, 2889, Control_c, 9, 17, 61
2, 2889, Note_on_c, 9, 51, 70
2, 2897, Control_c, 9, 18, 0
2, 2898, Note_on_c, 9, 48, 70
2, 2902, Control_c, 9, 4, 127
2, 2971, Note_on_c, 9, 51, 0
2, 2973, Control_c, 9, 4, 97
2, 2980, Note_on_c, 9, 48, 0
2, 3015, Control_c, 9, 4, 71
2, 3029, Control_c, 9, 17, 43
2, 3029, Note_on_c, 9, 51, 65
2, 3047, Control_c, 9, 4, 0
2, 3088, Control_c, 9, 4, 0
2, 3088, Note_on_c, 9, 46, 29
2, 3111, Note_on_c, 9, 51, 0
2, 3126, Note_on_c, 9, 46, 0
2, 3127, Note_on_c, 9, 46, 11
2, 3134, Note_on_c, 9, 36, 81
2, 3135, Control_c, 9, 4, 33
2, 3140, Note_on_c, 9, 44, 127
2, 3165, Control_c, 9, 4, 127
2, 3171, Note_on_c, 9, 46, 0
2, 3198, Control_c, 9, 4, 114
2, 3215, Note_on_c, 9, 36, 0
2, 3221, Note_on_c, 9, 44, 0
2, 3231, Control_c, 9, 4, 78
2, 3242, Control_c, 9, 17, 21
2, 3242, Note_on_c, 9, 51, 77
2, 3267, Control_c, 9, 4, 0
2, 3309, Control_c, 9, 4, 0
2, 3309, Note_on_c, 9, 46, 34
2, 3324, Note_on_c, 9, 51, 0
2, 3352, Note_on_c, 9, 46, 0
2, 3353, Note_on_c, 9, 46, 13
2, 3361, Control_c, 9, 4, 33
2, 3367, Note_on_c, 9, 44, 119
2, 3372, Control_c, 9, 16, 0
2, 3372, Note_on_c, 9, 38, 77
2, 3375, Note_on_c, 9, 36, 85
2, 3391, Note_on_c, 9, 46, 0
2, 3393, Control_c, 9, 4, 118
2, 3446, Control_c, 9, 4, 92
2, 3449, Note_on_c, 9, 44, 0
2, 3454, Note_on_c, 9, 38, 0
2, 3457, Note_on_c, 9, 36, 0
2, 3482, Control_c, 9, 4, 77
2, 3585, Control_c, 9, 4, 88
2, 3607, Control_c, 9, 17, 15
2, 3607, Note_on_c, 9, 51, 87
2, 3619, Control_c, 9, 4, 127
2, 3677, Control_c, 9, 4, 96
2, 3690, Note_on_c, 9, 51, 0
2, 3717, Control_c, 9, 4, 70
2, 3730, Note_on_c, 9, 48, 49
2, 3731, Note_on_c, 9, 36, 73
2, 3753, Control_c, 9, 4, 0
2, 3792, Control_c, 9, 4, 0
2, 3793, Note_on_c, 9, 46, 35
2, 3811, Note_on_c, 9, 48, 0
2, 3814, Note_on_c, 9, 36, 0
2, 3833, Note_on_c, 9, 46, 0
2, 3833, Note_on_c, 9, 46, 13
2, 3847, Control_c, 9, 17, 127
2, 3847, Note_on_c, 9, 44, 127
2, 3849, Note_on_c, 9, 51, 63
2, 3854, Control_c, 9, 4, 127
2, 3863, Control_c, 9, 18, 0
2, 3863, Note_on_c, 9, 48, 75
2, 3875, Note_on_c, 9, 46, 0
2, 3897, Control_c, 9, 4, 118
2, 3929, Note_on_c, 9, 44, 0
2, 3930, Note_on_c, 9, 51, 0
2, 3939, Control_c, 9, 4, 91
2, 3944, Note_on_c, 9, 48, 0
2, 3975, Control_c, 9, 17, 37
2, 3975, Note_on_c, 9, 51, 71
2, 4058, Note_on_c, 9, 51, 0
2, 4076, Control_c, 9, 4, 110
2, 4087, Note_on_c, 9, 36, 78
2, 4135, Control_c, 9, 4, 94
2, 4169, Note_on_c, 9, 36, 0
2, 4333, Note_on_c, 9, 36, 77
2, 4339, Control_c, 9, 17, 8
2, 4339, Note_on_c, 9, 51, 93
2, 4342, Note_on_c, 9, 38, 76
2, 4356, Control_c, 9, 4, 99
2, 4402, Control_c, 9, 4, 92
2, 4415, Note_on_c, 9, 36, 0
2, 4422, Note_on_c, 9, 38, 0
2, 4422, Note_on_c, 9, 51, 0
2, 4441, Control_c, 9, 4, 74
2, 4481, Control_c, 9, 4, 0
2, 4553, Note_on_c, 9, 46, 14
2, 4565, Note_on_c, 9, 44, 127
2, 4572, Control_c, 9, 4, 127
2, 4584, Control_c, 9, 17, 41
2, 4585, Note_on_c, 9, 51, 83
2, 4615, Control_c, 9, 4, 122
2, 4634, Note_on_c, 9, 46, 0
2, 4646, Control_c, 9, 4, 99
2, 4648, Note_on_c, 9, 44, 0
2, 4666, Note_on_c, 9, 51, 0
2, 4687, Control_c, 9, 4, 87
2, 4692, Note_on_c, 9, 48, 50
2, 4701, Note_on_c, 9, 36, 71
2, 4774, Note_on_c, 9, 48, 0
2, 4784, Note_on_c, 9, 36, 0
2, 4816, Control_c, 9, 4, 120
2, 4824, Control_c, 9, 17, 76
2, 4825, Control_c, 9, 18, 0
2, 4825, Note_on_c, 9, 51, 72
2, 4826, Note_on_c, 9, 48, 80
2, 4849, Control_c, 9, 4, 120
2, 4880, Control_c, 9, 4, 112
2, 4906, Note_on_c, 9, 51, 0
2, 4907, Note_on_c, 9, 48, 0
2, 4912, Control_c, 9, 4, 91
2, 4945, Control_c, 9, 17, 43
2, 4946, Note_on_c, 9, 51, 75
2, 4947, Control_c, 9, 4, 72
2, 4985, Control_c, 9, 4, 0
2, 5028, Note_on_c, 9, 51, 0
2, 5054, Note_on_c, 9, 36, 84
2, 5058, Note_on_c, 9, 46, 15
2, 5064, Control_c, 9, 4, 35
2, 5069, Note_on_c, 9, 44, 127
2, 5094, Control_c, 9, 4, 127
2, 5136, Note_on_c, 9, 36, 0
2, 5137, Control_c, 9, 4, 99
2, 5140, Note_on_c, 9, 46, 0
2, 5150, Note_on_c, 9, 44, 0
2, 5174, Control_c, 9, 4, 87
2, 5185, Control_c, 9, 17, 7
2, 5185, Note_on_c, 9, 51, 79
2, 5267, Note_on_c, 9, 51, 0
2, 5294, Control_c, 9, 4, 112
2, 5305, Note_on_c, 9, 36, 93
2, 5312, Control_c, 9, 16, 0
2, 5313, Note_on_c, 9, 38, 69
2, 5371, Control_c, 9, 4, 96
2, 5388, Note_on_c, 9, 36, 0
2, 5393, Note_on_c, 9, 38, 0
2, 5408, Control_c, 9, 4, 83
2, 5439, Control_c, 9, 4, 69
2, 5470, Control_c, 9, 4, 0
2, 5545, Note_on_c, 9, 44, 127
2, 5550, Control_c, 9, 4, 127
2, 5550, Control_c, 9, 17, 39
2, 5552, Note_on_c, 9, 51, 85
2, 5598, Control_c, 9, 4, 120
2, 5627, Note_on_c, 9, 44, 0
2, 5633, Note_on_c, 9, 51, 0
2, 5640, Control_c, 9, 4, 91
2, 5664, Note_on_c, 9, 48, 50
2, 5681, Note_on_c, 9, 36, 65
2, 5744, Note_on_c, 9, 48, 0
2, 5757, Control_c, 9, 4, 87
2, 5763, Note_on_c, 9, 36, 0
2, 5788, Control_c, 9, 4, 116
2, 5792, Control_c, 9, 18, 0
2, 5792, Note_on_c, 9, 48, 70
2, 5793, Control_c, 9, 17, 127
2, 5794, Note_on_c, 9, 51, 58
2, 5821, Control_c, 9, 4, 120
2, 5874, Note_on_c, 9, 48, 0
2, 5874, Note_on_c, 9, 51, 0
2, 5886, Control_c, 9, 4, 91
2, 5913, Control_c, 9, 17, 40
2, 5914, Note_on_c, 9, 51, 69
2, 5919, Control_c, 9, 4, 72
2, 5954, Control_c, 9, 4, 0
2, 5996, Note_on_c, 9, 51, 0
2, 6027, Note_on_c, 9, 46, 13
2, 6036, Note_on_c, 9, 36, 77
2, 6039, Note_on_c, 9, 44, 127
2, 6044, Control_c, 9, 4, 127
2, 6087, Control_c, 9, 4, 112
2, 6107, Note_on_c, 9, 46, 0
2, 6118, Note_on_c, 9, 36, 0
2, 6118, Note_on_c, 9, 44, 0
2, 6120, Control_c, 9, 4, 91
2, 6156, Control_c, 9, 4, 86
2, 6262, Control_c, 9, 4, 110
2, 6271, Control_c, 9, 17, 14
2, 6271, Note_on_c, 9, 51, 93
2, 6277, Note_on_c, 9, 38, 58
2, 6278, Note_on_c, 9, 36, 78
2, 6352, Control_c, 9, 4, 91
2, 6354, Note_on_c, 9, 51, 0
2, 6358, Note_on_c, 9, 38, 0
2, 6359, Note_on_c, 9, 36, 0
2, 6390, Control_c, 9, 4, 72
2, 6426, Control_c, 9, 4, 0
2, 6499, Note_on_c, 9, 46, 17
2, 6505, Control_c, 9, 4, 34
2, 6510, Note_on_c, 9, 44, 127
2, 6514, Control_c, 9, 17, 47
2, 6514, Note_on_c, 9, 51, 78
2, 6536, Control_c, 9, 4, 127
2, 6580, Note_on_c, 9, 46, 0
2, 6589, Control_c, 9, 4, 97
2, 6592, Note_on_c, 9, 44, 0
2, 6596, Note_on_c, 9, 51, 0
2, 6629, Note_on_c, 9, 48, 54
2, 6632, Control_c, 9, 4, 85
2, 6638, Note_on_c, 9, 36, 59
2, 6711, Note_on_c, 9, 48, 0
2, 6719, Note_on_c, 9, 36, 0
2, 6748, Control_c, 9, 4, 127
2, 6754, Control_c, 9, 17, 127
2, 6754, Note_on_c, 9, 51, 67
2, 6763, Control_c, 9, 18, 0
2, 6764, Note_on_c, 9, 48, 69
2, 6824, Control_c, 9, 4, 97
2, 6835, Note_on_c, 9, 51, 0
2, 6845, Note_on_c, 9, 48, 0
2, 6865, Control_c, 9, 4, 70
2, 6881, Control_c, 9, 17, 48
2, 6882, Note_on_c, 9, 51, 68
2, 6900, Control_c, 9, 4, 0
2, 6941, Control_c, 9, 4, 0
2, 6942, Note_on_c, 9, 46, 30
2, 6963, Note_on_c, 9, 51, 0
2, 6981, Note_on_c, 9, 46, 0
2, 6981, Note_on_c, 9, 46, 14
2, 6989, Control_c, 9, 4, 53
2, 6993, Note_on_c, 9, 36, 77
2, 6994, Note_on_c, 9, 44, 127
2, 7019, Control_c, 9, 4, 127
2, 7025, Note_on_c, 9, 46, 0
2, 7066, Control_c, 9, 4, 102
2, 7075, Note_on_c, 9, 36, 0
2, 7076, Note_on_c, 9, 44, 0
2, 7104, Control_c, 9, 4, 70
2, 7110, Control_c, 9, 17, 43
2, 7110, Note_on_c, 9, 51, 79
2, 7137, Control_c, 9, 4, 0
2, 7192, Note_on_c, 9, 51, 0
2, 7221, Note_on_c, 9, 46, 14
2, 7229, Note_on_c, 9, 36, 83
2, 7230, Control_c, 9, 4, 32
2, 7236, Note_on_c, 9, 44, 126
2, 7245, Control_c, 9, 16, 0
2, 7246, Note_on_c, 9, 38, 65
2, 7260, Control_c, 9, 4, 116
2, 7300, Note_on_c, 9, 46, 0
2, 7303, Control_c, 9, 4, 98
2, 7310, Note_on_c, 9, 36, 0
2, 7317, Note_on_c, 9, 44, 0
2, 7327, Note_on_c, 9, 38, 0
2, 7338, Control_c, 9, 4, 83
2, 7371, Control_c, 9, 4, 79
2, 7415, Control_c, 9, 4, 81
2, 7469, Control_c, 9, 4, 127
2, 7470, Control_c, 9, 17, 41
2, 7470, Note_on_c, 9, 51, 97
2, 7512, Control_c, 9, 4, 120
2, 7551, Control_c, 9, 4, 91
2, 7554, Note_on_c, 9, 51, 0
2, 7586, Control_c, 9, 4, 75
2, 7589, Note_on_c, 9, 36, 70
2, 7599, Note_on_c, 9, 48, 51
2, 7629, Control_c, 9, 4, 0
2, 7671, Note_on_c, 9, 36, 0
2, 7680, Note_on_c, 9, 48, 0
2, 7681, End_track
0, 0, End_of_file
