0, 0, Header, 1, 2, 480
1, 0, Start_track
1, 0, Tempo, 588235
1, 0, Time_signature, 4, 2, 24, 8
1, 0, Key_signature, 0, "major"
1, 1, End_track
2, 0, Start_track
2, 0, Title_t, "Classic Studio Kit"
2, 0, Program_c, 9, 0
2, 0, Control_c, 9, 18, 0
2, 3, Control_c, 9, 4, 98
2, 37, Control_c, 9, 17, 56
2, 38, Note_on_c, 9, 51, 69
2, 39, Note_on_c, 9, 48, 82
2, 118, Note_on_c, 9, 51, 0
2, 119, Note_on_c, 9, 48, 0
2, 138, Control_c, 9, 4, 85
2, 160, Control_c, 9, 17, 28
2, 161, Note_on_c, 9, 51, 79
2, 168, Control_c, 9, 4, 69
2, 202, Control_c, 9, 4, 0
2, 242, Note_on_c, 9, 51, 0
2, 259, Control_c, 9, 4, 34
2, 262, Note_on_c, 9, 36, 57
2, 265, Note_on_c, 9, 44, 119
2, 291, Control_c, 9, 4, 126
2, 326, Control_c, 9, 4, 98
2, 344, Note_on_c, 9, 36, 0
2, 348, Note_on_c, 9, 44, 0
2, 368, Control_c, 9, 4, 87
2, 405, Control_c, 9, 17, 5
2, 406, Note_on_c, 9, 51, 80
2, 482, Control_c, 9, 4, 93
2, 486, Note_on_c, 9, 51, 0
2, 511, Note_on_c, 9, 36, 67
2, 516, Note_on_c, 9, 38, 59
2, 595, Note_on_c, 9, 36, 0
2, 598, Note_on_c, 9, 38, 0
2, 609, Control_c, 9, 4, 87
2, 640, Control_c, 9, 4, 73
2, 692, Control_c, 9, 4, 0
2, 743, Control_c, 9, 17, 9
2, 743, Note_on_c, 9, 51, 94
2, 744, Control_c, 9, 4, 34
2, 751, Note_on_c, 9, 44, 119
2, 776, Control_c, 9, 4, 126
2, 812, Control_c, 9, 4, 99
2, 825, Note_on_c, 9, 51, 0
2, 832, Note_on_c, 9, 44, 0
2, 851, Control_c, 9, 4, 86
2, 875, Control_c, 9, 18, 0
2, 876, Note_on_c, 9, 48, 49
2, 880, Note_on_c, 9, 36, 58
2, 957, Note_on_c, 9, 48, 0
2, 961, Note_on_c, 9, 36, 0
2, 978, Control_c, 9, 4, 102
2, 997, Control_c, 9, 17, 12
2, 997, Note_on_c, 9, 51, 89
2, 1003, Note_on_c, 9, 48, 80
2, 1051, Control_c, 9, 4, 98
2, 1079, Note_on_c, 9, 51, 0
2, 1083, Note_on_c, 9, 48, 0
2, 1100, Control_c, 9, 4, 85
2, 1120, Control_c, 9, 17, 87
2, 1120, Note_on_c, 9, 51, 74
2, 1133, Control_c, 9, 4, 70
2, 1168, Control_c, 9, 4, 0
2, 1203, Note_on_c, 9, 51, 0
2, 1218, Control_c, 9, 4, 49
2, 1223, Note_on_c, 9, 44, 113
2, 1231, Note_on_c, 9, 36, 58
2, 1240, Control_c, 9, 17, 87
2, 1240, Note_on_c, 9, 51, 5
2, 1248, Control_c, 9, 4, 126
2, 1283, Control_c, 9, 4, 97
2, 1305, Note_on_c, 9, 44, 0
2, 1314, Note_on_c, 9, 36, 0
2, 1323, Note_on_c, 9, 51, 0
2, 1327, Control_c, 9, 4, 86
2, 1452, Control_c, 9, 4, 97
2, 1480, Note_on_c, 9, 36, 67
2, 1482, Control_c, 9, 17, 0
2, 1483, Note_on_c, 9, 51, 109
2, 1488, Control_c, 9, 16, 0
2, 1489, Note_on_c, 9, 38, 80
2, 1550, Control_c, 9, 4, 91
2, 1562, Note_on_c, 9, 36, 0
2, 1564, Note_on_c, 9, 51, 0
2, 1571, Note_on_c, 9, 38, 0
2, 1602, Control_c, 9, 4, 70
2, 1645, Control_c, 9, 4, 0
2, 1704, Control_c, 9, 4, 50
2, 1708, Note_on_c, 9, 44, 113
2, 1720, Control_c, 9, 17, 4
2, 1721, Note_on_c, 9, 51, 96
2, 1734, Control_c, 9, 4, 120
2, 1786, Control_c, 9, 4, 91
2, 1790, Note_on_c, 9, 44, 0
2, 1802, Note_on_c, 9, 51, 0
2, 1820, Control_c, 9, 4, 85
2, 1842, Control_c, 9, 18, 0
2, 1842, Note_on_c, 9, 48, 52
2, 1846, Note_on_c, 9, 36, 58
2, 1924, Note_on_c, 9, 48, 0
2, 1929, Note_on_c, 9, 36, 0
2, 1935, Control_c, 9, 4, 98
2, 1966, Note_on_c, 9, 48, 84
2, 1968, Control_c, 9, 17, 45
2, 1968, Note_on_c, 9, 51, 74
2, 2048, Note_on_c, 9, 48, 0
2, 2050, Note_on_c, 9, 51, 0
2, 2066, Control_c, 9, 4, 85
2, 2084, Control_c, 9, 17, 21
2, 2085, Note_on_c, 9, 51, 75
2, 2102, Control_c, 9, 4, 70
2, 2143, Control_c, 9, 4, 0
2, 2166, Note_on_c, 9, 51, 0
2, 2187, Control_c, 9, 4, 49
2, 2192, Note_on_c, 9, 44, 106
2, 2197, Note_on_c, 9, 36, 58
2, 2217, Control_c, 9, 4, 120
2, 2249, Control_c, 9, 4, 97
2, 2273, Note_on_c, 9, 44, 0
2, 2279, Note_on_c, 9, 36, 0
2, 2283, Control_c, 9, 4, 85
2, 2320, Control_c, 9, 17, 3
2, 2321, Note_on_c, 9, 51, 91
2, 2402, Note_on_c, 9, 51, 0
2, 2412, Control_c, 9, 4, 96
2, 2438, Note_on_c, 9, 38, 101
2, 2444, Note_on_c, 9, 36, 61
2, 2519, Note_on_c, 9, 38, 0
2, 2526, Note_on_c, 9, 36, 0
2, 2543, Control_c, 9, 4, 83
2, 2574, Control_c, 9, 4, 70
2, 2613, Control_c, 9, 4, 0
2, 2666, Control_c, 9, 4, 48
2, 2666, Control_c, 9, 17, 8
2, 2666, Note_on_c, 9, 51, 86
2, 2671, Note_on_c, 9, 44, 106
2, 2696, Control_c, 9, 4, 122
2, 2733, Control_c, 9, 4, 97
2, 2748, Note_on_c, 9, 51, 0
2, 2752, Note_on_c, 9, 44, 0
2, 2768, Control_c, 9, 4, 84
2, 2786, Control_c, 9, 18, 0
2, 2786, Note_on_c, 9, 48, 54
2, 2800, Note_on_c, 9, 36, 57
2, 2868, Note_on_c, 9, 48, 0
2, 2883, Note_on_c, 9, 36, 0
2, 2889, Control_c, 9, 4, 98
2, 2914, Control_c, 9, 17, 44
2, 2915, Note_on_c, 9, 51, 76
2, 2916, Note_on_c, 9, 48, 79
2, 2995, Note_on_c, 9, 51, 0
2, 2998, Note_on_c, 9, 48, 0
2, 3013, Control_c, 9, 4, 86
2, 3033, Control_c, 9, 17, 40
2, 3034, Note_on_c, 9, 51, 70
2, 3045, Control_c, 9, 4, 70
2, 3089, Control_c, 9, 4, 0
2, 3116, Note_on_c, 9, 51, 0
2, 3133, Control_c, 9, 4, 49
2, 3138, Note_on_c, 9, 44, 100
2, 3142, Note_on_c, 9, 36, 59
2, 3163, Control_c, 9, 4, 120
2, 3213, Control_c, 9, 4, 90
2, 3219, Note_on_c, 9, 44, 0
2, 3224, Note_on_c, 9, 36, 0
2, 3244, Control_c, 9, 4, 85
2, 3344, Control_c, 9, 4, 91
2, 3388, Control_c, 9, 17, 7
2, 3388, Note_on_c, 9, 51, 88
2, 3390, Note_on_c, 9, 36, 59
2, 3392, Control_c, 9, 16, 0
2, 3392, Note_on_c, 9, 38, 77
2, 3470, Note_on_c, 9, 51, 0
2, 3471, Note_on_c, 9, 36, 0
2, 3474, Note_on_c, 9, 38, 0
2, 3488, Control_c, 9, 4, 83
2, 3519, Control_c, 9, 4, 70
2, 3557, Control_c, 9, 4, 0
2, 3621, Control_c, 9, 4, 34
2, 3627, Note_on_c, 9, 44, 127
2, 3637, Control_c, 9, 17, 32
2, 3638, Note_on_c, 9, 51, 83
2, 3652, Control_c, 9, 4, 120
2, 3706, Control_c, 9, 4, 91
2, 3709, Note_on_c, 9, 44, 0
2, 3719, Note_on_c, 9, 51, 0
2, 3745, Control_c, 9, 4, 87
2, 3752, Control_c, 9, 18, 0
2, 3752, Note_on_c, 9, 48, 53
2, 3765, Note_on_c, 9, 36, 62
2, 3834, Note_on_c, 9, 48, 0
2, 3847, Note_on_c, 9, 36, 0
2, 3848, Control_c, 9, 4, 94
2, 3885, Note_on_c, 9, 48, 71
2, 3886, Control_c, 9, 17, 62
2, 3887, Note_on_c, 9, 51, 70
2, 3967, Note_on_c, 9, 48, 0
2, 3967, Note_on_c, 9, 51, 0
2, 3985, Control_c, 9, 4, 87
2, 4001, Control_c, 9, 17, 127
2, 4002, Note_on_c, 9, 51, 70
2, 4020, Control_c, 9, 4, 70
2, 4056, Control_c, 9, 4, 0
2, 4083, Note_on_c, 9, 51, 0
2, 4110, Control_c, 9, 4, 35
2, 4113, Note_on_c, 9, 36, 61
2, 4116, Note_on_c, 9, 44, 126
2, 4141, Control_c, 9, 4, 120
2, 4177, Control_c, 9, 4, 97
2, 4195, Note_on_c, 9, 36, 0
2, 4198, Note_on_c, 9, 44, 0
2, 4215, Control_c, 9, 4, 85
2, 4253, Control_c, 9, 17, 4
2, 4254, Note_on_c, 9, 51, 88
2, 4335, Note_on_c, 9, 51, 0
2, 4337, Control_c, 9, 4, 97
2, 4358, Note_on_c, 9, 36, 65
2, 4366, Note_on_c, 9, 38, 71
2, 4440, Note_on_c, 9, 36, 0
2, 4447, Note_on_c, 9, 38, 0
2, 4462, Control_c, 9, 4, 84
2, 4492, Control_c, 9, 4, 70
2, 4530, Control_c, 9, 4, 0
2, 4591, Control_c, 9, 17, 28
2, 4592, Note_on_c, 9, 51, 80
2, 4593, Note_on_c, 9, 44, 127
2, 4597, Control_c, 9, 4, 127
2, 4635, Control_c, 9, 4, 110
2, 4671, Note_on_c, 9, 51, 0
2, 4672, Note_on_c, 9, 44, 0
2, 4682, Control_c, 9, 4, 85
2, 4715, Control_c, 9, 18, 0
2, 4716, Note_on_c, 9, 48, 48
2, 4719, Note_on_c, 9, 36, 59
2, 4797, Note_on_c, 9, 48, 0
2, 4801, Note_on_c, 9, 36, 0
2, 4809, Control_c, 9, 4, 99
2, 4835, Control_c, 9, 17, 52
2, 4835, Note_on_c, 9, 51, 68
2, 4841, Note_on_c, 9, 48, 72
2, 4916, Note_on_c, 9, 51, 0
2, 4922, Note_on_c, 9, 48, 0
2, 4935, Control_c, 9, 4, 88
2, 4962, Control_c, 9, 17, 39
2, 4963, Note_on_c, 9, 51, 75
2, 4965, Control_c, 9, 4, 70
2, 5000, Control_c, 9, 4, 0
2, 5044, Note_on_c, 9, 51, 0
2, 5060, Control_c, 9, 4, 33
2, 5065, Note_on_c, 9, 36, 59
2, 5067, Note_on_c, 9, 44, 127
2, 5091, Control_c, 9, 4, 122
2, 5125, Control_c, 9, 4, 97
2, 5147, Note_on_c, 9, 36, 0
2, 5147, Note_on_c, 9, 44, 0
2, 5166, Control_c, 9, 4, 85
2, 5294, Control_c, 9, 17, 6
2, 5294, Note_on_c, 9, 51, 90
2, 5296, Control_c, 9, 4, 94
2, 5307, Control_c, 9, 16, 0
2, 5307, Note_on_c, 9, 38, 70
2, 5310, Note_on_c, 9, 36, 65
2, 5376, Note_on_c, 9, 51, 0
2, 5390, Note_on_c, 9, 38, 0
2, 5393, Note_on_c, 9, 36, 0
2, 5434, Control_c, 9, 4, 72
2, 5478, Control_c, 9, 4, 0
2, 5538, Control_c, 9, 4, 32
2, 5544, Note_on_c, 9, 44, 127
2, 5550, Control_c, 9, 17, 36
2, 5551, Note_on_c, 9, 51, 80
2, 5569, Control_c, 9, 4, 122
2, 5606, Control_c, 9, 4, 98
2, 5626, Note_on_c, 9, 44, 0
2, 5632, Note_on_c, 9, 51, 0
2, 5645, Control_c, 9, 4, 85
2, 5656, Control_c, 9, 18, 0
2, 5656, Note_on_c, 9, 48, 48
2, 5665, Note_on_c, 9, 36, 49
2, 5738, Note_on_c, 9, 48, 0
2, 5748, Note_on_c, 9, 36, 0
2, 5771, Control_c, 9, 4, 120
2, 5778, Note_on_c, 9, 48, 73
2, 5782, Control_c, 9, 17, 60
2, 5783, Note_on_c, 9, 51, 65
2, 5836, Control_c, 9, 4, 99
2, 5860, Note_on_c, 9, 48, 0
2, 5864, Note_on_c, 9, 51, 0
2, 5879, Control_c, 9, 4, 72
2, 5907, Control_c, 9, 17, 39
2, 5908, Note_on_c, 9, 51, 76
2, 5926, Control_c, 9, 4, 0
2, 5989, Note_on_c, 9, 51, 0
2, 6010, Control_c, 9, 4, 34
2, 6010, Note_on_c, 9, 36, 65
2, 6015, Note_on_c, 9, 44, 127
2, 6041, Control_c, 9, 4, 120
2, 6092, Note_on_c, 9, 36, 0
2, 6095, Control_c, 9, 4, 95
2, 6098, Note_on_c, 9, 44, 0
2, 6136, Control_c, 9, 4, 70
2, 6150, Control_c, 9, 17, 38
2, 6150, Note_on_c, 9, 51, 71
2, 6170, Control_c, 9, 4, 0
2, 6233, Note_on_c, 9, 51, 0
2, 6240, Note_on_c, 9, 46, 7
2, 6249, Control_c, 9, 4, 32
2, 6255, Note_on_c, 9, 44, 126
2, 6258, Note_on_c, 9, 36, 81
2, 6266, Note_on_c, 9, 38, 71
2, 6280, Control_c, 9, 4, 102
2, 6312, Control_c, 9, 4, 98
2, 6321, Note_on_c, 9, 46, 0
2, 6336, Note_on_c, 9, 44, 0
2, 6341, Note_on_c, 9, 36, 0
2, 6347, Note_on_c, 9, 38, 0
2, 6358, Control_c, 9, 4, 84
2, 6490, Control_c, 9, 17, 41
2, 6491, Note_on_c, 9, 51, 86
2, 6498, Control_c, 9, 4, 120
2, 6556, Control_c, 9, 4, 96
2, 6573, Note_on_c, 9, 51, 0
2, 6599, Control_c, 9, 4, 70
2, 6607, Note_on_c, 9, 36, 54
2, 6608, Control_c, 9, 18, 0
2, 6609, Note_on_c, 9, 48, 50
2, 6633, Control_c, 9, 4, 0
2, 6689, Note_on_c, 9, 36, 0
2, 6689, Note_on_c, 9, 48, 0
2, 6724, Note_on_c, 9, 44, 127
2, 6732, Control_c, 9, 4, 127
2, 6738, Note_on_c, 9, 48, 77
2, 6742, Control_c, 9, 17, 0
2, 6742, Note_on_c, 9, 51, 56
2, 6775, Control_c, 9, 4, 120
2, 6807, Note_on_c, 9, 44, 0
2, 6815, Control_c, 9, 4, 92
2, 6818, Note_on_c, 9, 48, 0
2, 6824, Note_on_c, 9, 51, 0
2, 6863, Control_c, 9, 17, 47
2, 6863, Note_on_c, 9, 51, 69
2, 6945, Note_on_c, 9, 51, 0
2, 6953, Control_c, 9, 4, 110
2, 6957, Note_on_c, 9, 36, 62
2, 6991, Control_c, 9, 4, 102
2, 7024, Control_c, 9, 4, 92
2, 7039, Note_on_c, 9, 36, 0
2, 7160, Control_c, 9, 17, 63
2, 7161, Note_on_c, 9, 51, 62
2, 7191, Note_on_c, 9, 36, 74
2, 7200, Control_c, 9, 16, 0
2, 7201, Note_on_c, 9, 38, 93
2, 7220, Control_c, 9, 4, 96
2, 7242, Note_on_c, 9, 51, 0
2, 7274, Note_on_c, 9, 36, 0
2, 7275, Control_c, 9, 4, 90
2, 7282, Note_on_c, 9, 38, 0
2, 7314, Control_c, 9, 4, 72
2, 7359, Control_c, 9, 4, 0
2, 7432, Note_on_c, 9, 44, 127
2, 7438, Control_c, 9, 17, 43
2, 7439, Note_on_c, 9, 51, 88
2, 7441, Control_c, 9, 4, 127
2, 7482, Control_c, 9, 4, 112
2, 7514, Note_on_c, 9, 44, 0
2, 7518, Control_c, 9, 4, 93
2, 7521, Note_on_c, 9, 51, 0
2, 7551, Control_c, 9, 4, 88
2, 7555, Control_c, 9, 18, 0
2, 7555, Note_on_c, 9, 48, 51
2, 7562, Note_on_c, 9, 36, 53
2, 7638, Note_on_c, 9, 48, 0
2, 7644, Note_on_c, 9, 36, 0
2, 7678, Control_c, 9, 4, 112
2, 7679, End_track
0, 0, End_of_file
