0, 0, Header, 1, 2, 480
1, 0, Start_track
1, 0, Tempo, 588235
1, 0, Time_signature, 4, 2, 24, 8
1, 0, Key_signature, 0, "major"
1, 1, End_track
2, 0, Start_track
2, 0, Title_t, "Classic Studio Kit"
2, 0, Program_c, 9, 0
2, 0, Control_c, 9, 18, 0
2, 10, Control_c, 9, 18, 0
2, 11, Note_on_c, 9, 48, 70
2, 18, Control_c, 9, 4, 98
2, 19, Control_c, 9, 17, 121
2, 20, Note_on_c, 9, 51, 63
2, 92, Note_on_c, 9, 48, 0
2, 102, Note_on_c, 9, 51, 0
2, 135, Control_c, 9, 17, 41
2, 135, Note_on_c, 9, 51, 77
2, 216, Note_on_c, 9, 51, 0
2, 246, Note_on_c, 9, 36, 67
2, 279, Control_c, 9, 4, 94
2, 327, Note_on_c, 9, 36, 0
2, 357, Control_c, 9, 17, 127
2, 357, Note_on_c, 9, 51, 48
2, 438, Note_on_c, 9, 51, 0
2, 480, Note_on_c, 9, 36, 74
2, 485, Control_c, 9, 17, 36
2, 486, Note_on_c, 9, 51, 91
2, 489, Control_c, 9, 16, 0
2, 489, Note_on_c, 9, 38, 85
2, 523, Control_c, 9, 4, 106
2, 563, Note_on_c, 9, 36, 0
2, 568, Note_on_c, 9, 51, 0
2, 571, Note_on_c, 9, 38, 0
2, 583, Control_c, 9, 4, 92
2, 626, Control_c, 9, 4, 70
2, 656, Control_c, 9, 4, 0
2, 721, Note_on_c, 9, 44, 126
2, 727, Control_c, 9, 4, 127
2, 729, Control_c, 9, 17, 65
2, 729, Note_on_c, 9, 51, 75
2, 771, Control_c, 9, 4, 118
2, 804, Note_on_c, 9, 44, 0
2, 810, Control_c, 9, 4, 92
2, 811, Note_on_c, 9, 51, 0
2, 845, Control_c, 9, 18, 42
2, 845, Note_on_c, 9, 48, 45
2, 860, Note_on_c, 9, 36, 76
2, 926, Note_on_c, 9, 48, 0
2, 942, Note_on_c, 9, 36, 0
2, 944, Control_c, 9, 4, 108
2, 973, Control_c, 9, 18, 0
2, 974, Control_c, 9, 17, 0
2, 974, Note_on_c, 9, 48, 65
2, 976, Note_on_c, 9, 51, 46
2, 977, Control_c, 9, 4, 102
2, 1022, Control_c, 9, 4, 110
2, 1056, Note_on_c, 9, 48, 0
2, 1057, Note_on_c, 9, 51, 0
2, 1091, Control_c, 9, 4, 92
2, 1104, Control_c, 9, 17, 83
2, 1104, Note_on_c, 9, 51, 75
2, 1127, Control_c, 9, 4, 74
2, 1163, Control_c, 9, 4, 0
2, 1186, Note_on_c, 9, 51, 0
2, 1215, Control_c, 9, 4, 34
2, 1218, Note_on_c, 9, 36, 67
2, 1221, Note_on_c, 9, 44, 126
2, 1247, Control_c, 9, 4, 127
2, 1263, Note_on_c, 9, 49, 6
2, 1299, Control_c, 9, 4, 92
2, 1301, Note_on_c, 9, 36, 0
2, 1303, Note_on_c, 9, 44, 0
2, 1333, Control_c, 9, 17, 0
2, 1334, Control_c, 9, 4, 88
2, 1334, Note_on_c, 9, 51, 51
2, 1346, Note_on_c, 9, 49, 0
2, 1416, Note_on_c, 9, 51, 0
2, 1438, Control_c, 9, 4, 100
2, 1461, Control_c, 9, 17, 77
2, 1461, Note_on_c, 9, 36, 89
2, 1462, Note_on_c, 9, 51, 94
2, 1464, Note_on_c, 9, 38, 72
2, 1542, Note_on_c, 9, 36, 0
2, 1542, Note_on_c, 9, 51, 0
2, 1544, Note_on_c, 9, 38, 0
2, 1565, Control_c, 9, 4, 85
2, 1597, Control_c, 9, 4, 70
2, 1633, Control_c, 9, 4, 0
2, 1688, Note_on_c, 9, 44, 119
2, 1695, Control_c, 9, 4, 127
2, 1700, Control_c, 9, 17, 96
2, 1700, Note_on_c, 9, 51, 76
2, 1738, Control_c, 9, 4, 116
2, 1771, Note_on_c, 9, 44, 0
2, 1773, Control_c, 9, 4, 91
2, 1782, Note_on_c, 9, 51, 0
2, 1807, Control_c, 9, 4, 87
2, 1808, Note_on_c, 9, 48, 49
2, 1819, Note_on_c, 9, 36, 67
2, 1889, Note_on_c, 9, 48, 0
2, 1890, Control_c, 9, 4, 94
2, 1901, Note_on_c, 9, 36, 0
2, 1924, Control_c, 9, 4, 100
2, 1940, Control_c, 9, 17, 127
2, 1940, Note_on_c, 9, 51, 50
2, 1943, Control_c, 9, 18, 0
2, 1944, Note_on_c, 9, 48, 70
2, 1975, Control_c, 9, 4, 106
2, 2021, Note_on_c, 9, 51, 0
2, 2025, Note_on_c, 9, 48, 0
2, 2045, Control_c, 9, 4, 91
2, 2068, Control_c, 9, 17, 73
2, 2069, Note_on_c, 9, 51, 84
2, 2086, Control_c, 9, 4, 71
2, 2122, Control_c, 9, 4, 0
2, 2151, Note_on_c, 9, 51, 0
2, 2175, Control_c, 9, 4, 33
2, 2181, Note_on_c, 9, 44, 119
2, 2191, Note_on_c, 9, 36, 62
2, 2206, Control_c, 9, 4, 127
2, 2259, Control_c, 9, 4, 92
2, 2263, Note_on_c, 9, 44, 0
2, 2273, Note_on_c, 9, 36, 0
2, 2304, Control_c, 9, 17, 127
2, 2304, Note_on_c, 9, 51, 50
2, 2385, Note_on_c, 9, 51, 0
2, 2396, Control_c, 9, 4, 96
2, 2426, Control_c, 9, 16, 0
2, 2427, Note_on_c, 9, 38, 76
2, 2428, Control_c, 9, 17, 46
2, 2429, Note_on_c, 9, 36, 74
2, 2429, Note_on_c, 9, 51, 88
2, 2469, Control_c, 9, 4, 102
2, 2508, Note_on_c, 9, 38, 0
2, 2510, Note_on_c, 9, 36, 0
2, 2510, Note_on_c, 9, 51, 0
2, 2522, Control_c, 9, 4, 95
2, 2566, Control_c, 9, 4, 71
2, 2602, Control_c, 9, 4, 0
2, 2659, Control_c, 9, 17, 109
2, 2660, Note_on_c, 9, 51, 78
2, 2665, Note_on_c, 9, 44, 119
2, 2671, Control_c, 9, 4, 127
2, 2716, Control_c, 9, 4, 118
2, 2742, Note_on_c, 9, 51, 0
2, 2747, Note_on_c, 9, 44, 0
2, 2754, Control_c, 9, 4, 91
2, 2772, Note_on_c, 9, 48, 47
2, 2787, Note_on_c, 9, 36, 68
2, 2854, Note_on_c, 9, 48, 0
2, 2869, Note_on_c, 9, 36, 0
2, 2880, Control_c, 9, 4, 118
2, 2891, Control_c, 9, 17, 52
2, 2891, Note_on_c, 9, 51, 66
2, 2902, Control_c, 9, 18, 0
2, 2902, Note_on_c, 9, 48, 74
2, 2969, Control_c, 9, 4, 98
2, 2973, Note_on_c, 9, 51, 0
2, 2984, Note_on_c, 9, 48, 0
2, 3000, Control_c, 9, 4, 81
2, 3020, Control_c, 9, 17, 58
2, 3021, Note_on_c, 9, 51, 77
2, 3040, Control_c, 9, 4, 0
2, 3102, Note_on_c, 9, 51, 0
2, 3118, Control_c, 9, 4, 35
2, 3124, Note_on_c, 9, 44, 127
2, 3133, Note_on_c, 9, 36, 64
2, 3149, Control_c, 9, 4, 127
2, 3187, Control_c, 9, 4, 116
2, 3205, Note_on_c, 9, 44, 0
2, 3214, Note_on_c, 9, 36, 0
2, 3222, Control_c, 9, 4, 80
2, 3243, Control_c, 9, 17, 72
2, 3244, Note_on_c, 9, 51, 57
2, 3259, Control_c, 9, 4, 0
2, 3326, Note_on_c, 9, 51, 0
2, 3342, Note_on_c, 9, 46, 8
2, 3354, Control_c, 9, 4, 51
2, 3359, Note_on_c, 9, 44, 119
2, 3370, Note_on_c, 9, 36, 79
2, 3372, Control_c, 9, 17, 73
2, 3372, Note_on_c, 9, 38, 69
2, 3373, Note_on_c, 9, 51, 91
2, 3384, Control_c, 9, 4, 110
2, 3422, Control_c, 9, 4, 100
2, 3423, Note_on_c, 9, 46, 0
2, 3440, Note_on_c, 9, 44, 0
2, 3452, Note_on_c, 9, 36, 0
2, 3453, Note_on_c, 9, 38, 0
2, 3455, Note_on_c, 9, 51, 0
2, 3461, Control_c, 9, 4, 85
2, 3589, Control_c, 9, 4, 120
2, 3609, Control_c, 9, 17, 99
2, 3609, Note_on_c, 9, 51, 78
2, 3656, Control_c, 9, 4, 112
2, 3688, Control_c, 9, 4, 91
2, 3691, Note_on_c, 9, 51, 0
2, 3723, Control_c, 9, 4, 71
2, 3731, Note_on_c, 9, 36, 67
2, 3731, Note_on_c, 9, 48, 48
2, 3758, Control_c, 9, 4, 0
2, 3812, Note_on_c, 9, 48, 0
2, 3813, Note_on_c, 9, 36, 0
2, 3829, Note_on_c, 9, 46, 12
2, 3835, Control_c, 9, 4, 33
2, 3841, Note_on_c, 9, 44, 127
2, 3842, Control_c, 9, 17, 0
2, 3843, Note_on_c, 9, 51, 46
2, 3858, Control_c, 9, 18, 0
2, 3858, Note_on_c, 9, 48, 88
2, 3866, Control_c, 9, 4, 127
2, 3909, Control_c, 9, 4, 102
2, 3909, Note_on_c, 9, 46, 0
2, 3922, Note_on_c, 9, 44, 0
2, 3925, Note_on_c, 9, 51, 0
2, 3940, Note_on_c, 9, 48, 0
2, 3943, Control_c, 9, 4, 92
2, 3969, Control_c, 9, 17, 79
2, 3969, Note_on_c, 9, 51, 82
2, 4037, Control_c, 9, 4, 99
2, 4051, Note_on_c, 9, 51, 0
2, 4077, Control_c, 9, 4, 100
2, 4091, Note_on_c, 9, 36, 59
2, 4122, Control_c, 9, 4, 96
2, 4173, Note_on_c, 9, 36, 0
2, 4202, Control_c, 9, 17, 0
2, 4203, Note_on_c, 9, 51, 44
2, 4263, Control_c, 9, 4, 92
2, 4285, Note_on_c, 9, 51, 0
2, 4324, Note_on_c, 9, 36, 74
2, 4333, Control_c, 9, 16, 0
2, 4334, Note_on_c, 9, 38, 70
2, 4338, Control_c, 9, 17, 104
2, 4339, Note_on_c, 9, 51, 85
2, 4366, Control_c, 9, 4, 108
2, 4406, Note_on_c, 9, 36, 0
2, 4414, Note_on_c, 9, 38, 0
2, 4420, Control_c, 9, 4, 92
2, 4420, Note_on_c, 9, 51, 0
2, 4464, Control_c, 9, 4, 69
2, 4494, Control_c, 9, 4, 0
2, 4569, Note_on_c, 9, 44, 127
2, 4571, Control_c, 9, 17, 109
2, 4571, Note_on_c, 9, 51, 80
2, 4574, Control_c, 9, 4, 127
2, 4621, Control_c, 9, 4, 120
2, 4650, Note_on_c, 9, 44, 0
2, 4653, Note_on_c, 9, 51, 0
2, 4662, Control_c, 9, 4, 92
2, 4687, Note_on_c, 9, 48, 46
2, 4703, Note_on_c, 9, 36, 75
2, 4769, Note_on_c, 9, 48, 0
2, 4785, Note_on_c, 9, 36, 0
2, 4797, Control_c, 9, 4, 108
2, 4820, Control_c, 9, 18, 0
2, 4820, Note_on_c, 9, 48, 74
2, 4831, Control_c, 9, 4, 114
2, 4834, Control_c, 9, 17, 53
2, 4835, Note_on_c, 9, 51, 65
2, 4902, Note_on_c, 9, 48, 0
2, 4911, Control_c, 9, 4, 95
2, 4916, Note_on_c, 9, 51, 0
2, 4944, Control_c, 9, 4, 79
2, 4985, Control_c, 9, 4, 0
2, 5008, Control_c, 9, 17, 127
2, 5009, Note_on_c, 9, 51, 55
2, 5056, Note_on_c, 9, 46, 10
2, 5063, Control_c, 9, 4, 34
2, 5069, Note_on_c, 9, 44, 127
2, 5071, Note_on_c, 9, 36, 64
2, 5090, Note_on_c, 9, 51, 0
2, 5094, Control_c, 9, 4, 120
2, 5132, Control_c, 9, 4, 102
2, 5137, Note_on_c, 9, 46, 0
2, 5151, Note_on_c, 9, 44, 0
2, 5153, Note_on_c, 9, 36, 0
2, 5166, Control_c, 9, 4, 90
2, 5280, Control_c, 9, 4, 97
2, 5313, Note_on_c, 9, 36, 62
2, 5315, Control_c, 9, 17, 39
2, 5315, Note_on_c, 9, 51, 100
2, 5319, Note_on_c, 9, 38, 85
2, 5353, Control_c, 9, 4, 93
2, 5395, Note_on_c, 9, 36, 0
2, 5396, Note_on_c, 9, 51, 0
2, 5400, Note_on_c, 9, 38, 0
2, 5546, Control_c, 9, 17, 6
2, 5547, Note_on_c, 9, 36, 77
2, 5547, Note_on_c, 9, 51, 93
2, 5567, Control_c, 9, 4, 110
2, 5612, Control_c, 9, 4, 100
2, 5628, Note_on_c, 9, 51, 0
2, 5630, Note_on_c, 9, 36, 0
2, 5646, Control_c, 9, 4, 85
2, 5679, Control_c, 9, 4, 70
2, 5684, Note_on_c, 9, 48, 51
2, 5708, Control_c, 9, 17, 10
2, 5708, Note_on_c, 9, 51, 63
2, 5712, Control_c, 9, 4, 0
2, 5765, Note_on_c, 9, 48, 0
2, 5789, Note_on_c, 9, 51, 0
2, 5793, Note_on_c, 9, 44, 119
2, 5800, Control_c, 9, 4, 127
2, 5808, Control_c, 9, 18, 0
2, 5809, Note_on_c, 9, 48, 72
2, 5834, Control_c, 9, 4, 93
2, 5843, Control_c, 9, 17, 5
2, 5843, Note_on_c, 9, 51, 100
2, 5874, Note_on_c, 9, 44, 0
2, 5891, Note_on_c, 9, 48, 0
2, 5924, Note_on_c, 9, 51, 0
2, 5982, Control_c, 9, 4, 70
2, 6024, Control_c, 9, 4, 7
2, 6029, Control_c, 9, 17, 33
2, 6029, Note_on_c, 9, 51, 75
2, 6042, Control_c, 9, 16, 0
2, 6043, Note_on_c, 9, 38, 48
2, 6062, Note_on_c, 9, 44, 74
2, 6076, Control_c, 9, 4, 97
2, 6111, Note_on_c, 9, 51, 0
2, 6114, Control_c, 9, 4, 46
2, 6126, Note_on_c, 9, 38, 0
2, 6144, Note_on_c, 9, 44, 0
2, 6150, Control_c, 9, 4, 10
2, 6214, Note_on_c, 9, 38, 64
2, 6218, Control_c, 9, 17, 0
2, 6219, Note_on_c, 9, 51, 102
2, 6230, Control_c, 9, 4, 18
2, 6262, Control_c, 9, 4, 69
2, 6263, Note_on_c, 9, 46, 15
2, 6294, Note_on_c, 9, 38, 0
2, 6300, Note_on_c, 9, 51, 0
2, 6305, Control_c, 9, 4, 48
2, 6344, Note_on_c, 9, 46, 0
2, 6345, Control_c, 9, 4, 0
2, 6435, Control_c, 9, 17, 8
2, 6436, Note_on_c, 9, 51, 96
2, 6442, Control_c, 9, 16, 0
2, 6443, Note_on_c, 9, 38, 54
2, 6446, Note_on_c, 9, 46, 7
2, 6469, Note_on_c, 9, 44, 93
2, 6473, Control_c, 9, 4, 92
2, 6513, Control_c, 9, 4, 73
2, 6517, Note_on_c, 9, 51, 0
2, 6524, Note_on_c, 9, 38, 0
2, 6527, Note_on_c, 9, 46, 0
2, 6551, Note_on_c, 9, 44, 0
2, 6576, Control_c, 9, 4, 69
2, 6604, Note_on_c, 9, 38, 48
2, 6621, Control_c, 9, 17, 57
2, 6621, Note_on_c, 9, 51, 63
2, 6686, Note_on_c, 9, 38, 0
2, 6703, Note_on_c, 9, 51, 0
2, 6772, Control_c, 9, 16, 0
2, 6773, Note_on_c, 9, 38, 104
2, 6779, Control_c, 9, 17, 10
2, 6780, Note_on_c, 9, 51, 120
2, 6853, Note_on_c, 9, 38, 0
2, 6861, Note_on_c, 9, 51, 0
2, 6944, Note_on_c, 9, 45, 61
2, 6949, Note_on_c, 9, 38, 46
2, 7025, Note_on_c, 9, 45, 0
2, 7030, Note_on_c, 9, 38, 0
2, 7087, Control_c, 9, 18, 0
2, 7088, Note_on_c, 9, 45, 85
2, 7102, Control_c, 9, 16, 0
2, 7102, Note_on_c, 9, 38, 47
2, 7168, Note_on_c, 9, 45, 0
2, 7183, Note_on_c, 9, 38, 0
2, 7241, Note_on_c, 9, 45, 99
2, 7248, Note_on_c, 9, 38, 64
2, 7322, Note_on_c, 9, 45, 0
2, 7329, Note_on_c, 9, 38, 0
2, 7382, Control_c, 9, 4, 65
2, 7410, Control_c, 9, 18, 0
2, 7410, Note_on_c, 9, 45, 48
2, 7417, Control_c, 9, 16, 0
2, 7418, Note_on_c, 9, 38, 35
2, 7492, Note_on_c, 9, 45, 0
2, 7499, Note_on_c, 9, 38, 0
2, 7572, Control_c, 9, 18, 0
2, 7572, Note_on_c, 9, 48, 40
2, 7576, Note_on_c, 9, 38, 41
2, 7653, Note_on_c, 9, 48, 0
2, 7657, Note_on_c, 9, 38, 0
2, 7658, End_track
0, 0, End_of_file
