0, 0, Header, 1, 2, 480
1, 0, Start_track
1, 0, Tempo, 588235
1, 0, Time_signature, 4, 2, 24, 8
1, 0, Key_signature, 0, "major"
1, 1, End_track
2, 0, Start_track
2, 0, Title_t, "Classic Studio Kit"
2, 0, Program_c, 9, 0
2, 0, Control_c, 9, 18, 0
2, 27, Control_c, 9, 4, 108
2, 30, Note_on_c, 9, 48, 59
2, 33, Control_c, 9, 17, 85
2, 34, Note_on_c, 9, 51, 57
2, 99, Control_c, 9, 4, 97
2, 112, Note_on_c, 9, 48, 0
2, 115, Note_on_c, 9, 51, 0
2, 144, Control_c, 9, 4, 84
2, 169, Control_c, 9, 17, 127
2, 169, Note_on_c, 9, 51, 68
2, 177, Control_c, 9, 4, 70
2, 218, Control_c, 9, 4, 0
2, 250, Note_on_c, 9, 51, 0
2, 262, Control_c, 9, 4, 33
2, 268, Note_on_c, 9, 36, 52
2, 270, Note_on_c, 9, 44, 113
2, 284, Control_c, 9, 17, 127
2, 285, Note_on_c, 9, 51, 5
2, 295, Control_c, 9, 4, 116
2, 350, Note_on_c, 9, 36, 0
2, 350, Note_on_c, 9, 44, 0
2, 354, Control_c, 9, 4, 90
2, 366, Note_on_c, 9, 51, 0
2, 497, Control_c, 9, 4, 96
2, 499, Control_c, 9, 17, 11
2, 500, Note_on_c, 9, 51, 85
2, 516, Control_c, 9, 16, 0
2, 517, Note_on_c, 9, 38, 59
2, 521, Note_on_c, 9, 36, 58
2, 582, Note_on_c, 9, 51, 0
2, 600, Note_on_c, 9, 38, 0
2, 603, Note_on_c, 9, 36, 0
2, 620, Control_c, 9, 4, 83
2, 653, Control_c, 9, 4, 70
2, 689, Control_c, 9, 4, 0
2, 745, Control_c, 9, 4, 51
2, 750, Note_on_c, 9, 44, 119
2, 751, Control_c, 9, 17, 94
2, 751, Note_on_c, 9, 51, 75
2, 775, Control_c, 9, 4, 118
2, 831, Note_on_c, 9, 44, 0
2, 832, Note_on_c, 9, 51, 0
2, 835, Control_c, 9, 4, 91
2, 863, Control_c, 9, 18, 0
2, 863, Note_on_c, 9, 48, 46
2, 865, Control_c, 9, 4, 85
2, 877, Note_on_c, 9, 36, 33
2, 946, Note_on_c, 9, 48, 0
2, 959, Note_on_c, 9, 36, 0
2, 984, Note_on_c, 9, 48, 62
2, 986, Control_c, 9, 4, 112
2, 991, Control_c, 9, 17, 108
2, 991, Note_on_c, 9, 51, 58
2, 1066, Note_on_c, 9, 48, 0
2, 1072, Control_c, 9, 4, 85
2, 1072, Note_on_c, 9, 51, 0
2, 1102, Control_c, 9, 4, 70
2, 1115, Control_c, 9, 17, 99
2, 1116, Note_on_c, 9, 51, 71
2, 1140, Control_c, 9, 4, 0
2, 1197, Note_on_c, 9, 51, 0
2, 1211, Note_on_c, 9, 46, 9
2, 1220, Control_c, 9, 4, 32
2, 1220, Note_on_c, 9, 36, 62
2, 1225, Note_on_c, 9, 44, 127
2, 1229, Control_c, 9, 17, 99
2, 1230, Note_on_c, 9, 51, 6
2, 1251, Control_c, 9, 4, 114
2, 1285, Control_c, 9, 4, 118
2, 1293, Note_on_c, 9, 46, 0
2, 1302, Note_on_c, 9, 36, 0
2, 1307, Note_on_c, 9, 44, 0
2, 1312, Note_on_c, 9, 51, 0
2, 1323, Control_c, 9, 4, 91
2, 1354, Control_c, 9, 17, 42
2, 1355, Note_on_c, 9, 51, 88
2, 1424, Control_c, 9, 4, 87
2, 1437, Note_on_c, 9, 51, 0
2, 1478, Note_on_c, 9, 36, 75
2, 1481, Control_c, 9, 4, 108
2, 1481, Note_on_c, 9, 38, 67
2, 1530, Control_c, 9, 4, 99
2, 1561, Note_on_c, 9, 36, 0
2, 1562, Note_on_c, 9, 38, 0
2, 1573, Control_c, 9, 4, 86
2, 1611, Control_c, 9, 4, 72
2, 1655, Control_c, 9, 4, 0
2, 1704, Control_c, 9, 17, 78
2, 1705, Note_on_c, 9, 51, 79
2, 1712, Control_c, 9, 4, 34
2, 1718, Note_on_c, 9, 44, 119
2, 1744, Control_c, 9, 4, 116
2, 1787, Note_on_c, 9, 51, 0
2, 1792, Control_c, 9, 4, 95
2, 1800, Note_on_c, 9, 44, 0
2, 1819, Control_c, 9, 17, 78
2, 1820, Note_on_c, 9, 51, 6
2, 1824, Control_c, 9, 18, 0
2, 1825, Note_on_c, 9, 48, 45
2, 1834, Control_c, 9, 4, 84
2, 1839, Note_on_c, 9, 36, 42
2, 1902, Note_on_c, 9, 51, 0
2, 1907, Note_on_c, 9, 48, 0
2, 1921, Note_on_c, 9, 36, 0
2, 1952, Note_on_c, 9, 48, 58
2, 1958, Control_c, 9, 4, 114
2, 1967, Control_c, 9, 17, 60
2, 1967, Note_on_c, 9, 51, 68
2, 2008, Control_c, 9, 4, 98
2, 2034, Note_on_c, 9, 48, 0
2, 2050, Note_on_c, 9, 51, 0
2, 2061, Control_c, 9, 4, 84
2, 2093, Control_c, 9, 4, 70
2, 2095, Control_c, 9, 17, 73
2, 2095, Note_on_c, 9, 51, 66
2, 2130, Control_c, 9, 4, 0
2, 2178, Note_on_c, 9, 51, 0
2, 2182, Note_on_c, 9, 36, 44
2, 2190, Control_c, 9, 4, 50
2, 2195, Note_on_c, 9, 44, 119
2, 2220, Control_c, 9, 4, 118
2, 2264, Note_on_c, 9, 36, 0
2, 2276, Note_on_c, 9, 44, 0
2, 2279, Control_c, 9, 4, 90
2, 2317, Control_c, 9, 4, 85
2, 2424, Control_c, 9, 4, 98
2, 2445, Note_on_c, 9, 36, 54
2, 2449, Control_c, 9, 17, 39
2, 2450, Note_on_c, 9, 51, 89
2, 2451, Control_c, 9, 16, 0
2, 2451, Note_on_c, 9, 38, 67
2, 2527, Note_on_c, 9, 36, 0
2, 2532, Note_on_c, 9, 38, 0
2, 2532, Note_on_c, 9, 51, 0
2, 2546, Control_c, 9, 4, 85
2, 2584, Control_c, 9, 4, 71
2, 2629, Control_c, 9, 4, 0
2, 2674, Control_c, 9, 4, 49
2, 2679, Note_on_c, 9, 44, 100
2, 2688, Control_c, 9, 17, 50
2, 2688, Note_on_c, 9, 51, 75
2, 2704, Control_c, 9, 4, 118
2, 2749, Control_c, 9, 4, 96
2, 2760, Note_on_c, 9, 44, 0
2, 2769, Note_on_c, 9, 51, 0
2, 2792, Control_c, 9, 4, 84
2, 2799, Control_c, 9, 18, 0
2, 2799, Note_on_c, 9, 48, 47
2, 2807, Note_on_c, 9, 36, 39
2, 2881, Note_on_c, 9, 48, 0
2, 2889, Note_on_c, 9, 36, 0
2, 2910, Control_c, 9, 4, 118
2, 2920, Control_c, 9, 18, 0
2, 2920, Note_on_c, 9, 48, 66
2, 2931, Control_c, 9, 17, 126
2, 2932, Note_on_c, 9, 51, 57
2, 2972, Control_c, 9, 4, 97
2, 3003, Note_on_c, 9, 48, 0
2, 3007, Control_c, 9, 4, 82
2, 3013, Note_on_c, 9, 51, 0
2, 3037, Control_c, 9, 4, 70
2, 3061, Control_c, 9, 17, 94
2, 3062, Note_on_c, 9, 51, 72
2, 3078, Control_c, 9, 4, 0
2, 3143, Note_on_c, 9, 46, 9
2, 3143, Note_on_c, 9, 51, 0
2, 3151, Control_c, 9, 4, 33
2, 3156, Note_on_c, 9, 44, 127
2, 3159, Note_on_c, 9, 36, 62
2, 3175, Control_c, 9, 17, 94
2, 3176, Note_on_c, 9, 51, 6
2, 3181, Control_c, 9, 4, 126
2, 3224, Note_on_c, 9, 46, 0
2, 3225, Control_c, 9, 4, 112
2, 3238, Note_on_c, 9, 44, 0
2, 3241, Note_on_c, 9, 36, 0
2, 3256, Control_c, 9, 4, 77
2, 3257, Note_on_c, 9, 51, 0
2, 3293, Control_c, 9, 4, 0
2, 3301, Control_c, 9, 17, 35
2, 3301, Note_on_c, 9, 51, 88
2, 3335, Control_c, 9, 4, 0
2, 3336, Note_on_c, 9, 46, 30
2, 3373, Note_on_c, 9, 46, 0
2, 3374, Note_on_c, 9, 46, 11
2, 3382, Note_on_c, 9, 51, 0
2, 3383, Control_c, 9, 4, 33
2, 3389, Note_on_c, 9, 44, 119
2, 3408, Note_on_c, 9, 36, 74
2, 3412, Note_on_c, 9, 38, 60
2, 3414, Control_c, 9, 4, 114
2, 3416, Note_on_c, 9, 46, 0
2, 3469, Note_on_c, 9, 44, 0
2, 3470, Control_c, 9, 4, 91
2, 3489, Note_on_c, 9, 36, 0
2, 3493, Note_on_c, 9, 38, 0
2, 3509, Control_c, 9, 4, 77
2, 3613, Control_c, 9, 4, 104
2, 3630, Control_c, 9, 17, 75
2, 3630, Note_on_c, 9, 51, 79
2, 3645, Control_c, 9, 4, 122
2, 3676, Control_c, 9, 4, 96
2, 3712, Note_on_c, 9, 51, 0
2, 3717, Control_c, 9, 4, 71
2, 3740, Control_c, 9, 18, 21
2, 3741, Note_on_c, 9, 36, 48
2, 3741, Note_on_c, 9, 48, 46
2, 3762, Control_c, 9, 4, 0
2, 3823, Note_on_c, 9, 48, 0
2, 3824, Note_on_c, 9, 36, 0
2, 3830, Note_on_c, 9, 46, 9
2, 3838, Control_c, 9, 4, 36
2, 3844, Note_on_c, 9, 44, 127
2, 3869, Control_c, 9, 4, 120
2, 3871, Control_c, 9, 18, 0
2, 3872, Note_on_c, 9, 48, 66
2, 3882, Control_c, 9, 17, 127
2, 3883, Note_on_c, 9, 51, 45
2, 3911, Note_on_c, 9, 46, 0
2, 3913, Control_c, 9, 4, 106
2, 3925, Note_on_c, 9, 44, 0
2, 3948, Control_c, 9, 4, 91
2, 3952, Note_on_c, 9, 48, 0
2, 3965, Note_on_c, 9, 51, 0
2, 4007, Control_c, 9, 17, 76
2, 4007, Note_on_c, 9, 51, 75
2, 4068, Control_c, 9, 4, 104
2, 4076, Note_on_c, 9, 36, 33
2, 4089, Note_on_c, 9, 51, 0
2, 4133, Control_c, 9, 4, 92
2, 4158, Note_on_c, 9, 36, 0
2, 4338, Note_on_c, 9, 36, 58
2, 4339, Control_c, 9, 17, 47
2, 4340, Note_on_c, 9, 51, 100
2, 4345, Control_c, 9, 16, 0
2, 4346, Note_on_c, 9, 38, 76
2, 4412, Control_c, 9, 4, 84
2, 4420, Note_on_c, 9, 36, 0
2, 4422, Note_on_c, 9, 51, 0
2, 4427, Note_on_c, 9, 38, 0
2, 4446, Control_c, 9, 4, 70
2, 4481, Control_c, 9, 4, 0
2, 4551, Control_c, 9, 4, 34
2, 4556, Note_on_c, 9, 44, 127
2, 4582, Control_c, 9, 4, 120
2, 4587, Control_c, 9, 17, 70
2, 4588, Note_on_c, 9, 51, 77
2, 4639, Note_on_c, 9, 44, 0
2, 4647, Control_c, 9, 4, 91
2, 4670, Note_on_c, 9, 51, 0
2, 4682, Control_c, 9, 4, 86
2, 4699, Note_on_c, 9, 48, 47
2, 4701, Note_on_c, 9, 36, 57
2, 4781, Note_on_c, 9, 48, 0
2, 4783, Note_on_c, 9, 36, 0
2, 4813, Control_c, 9, 4, 114
2, 4824, Control_c, 9, 18, 0
2, 4825, Note_on_c, 9, 48, 63
2, 4826, Control_c, 9, 17, 127
2, 4826, Note_on_c, 9, 51, 52
2, 4897, Control_c, 9, 4, 91
2, 4906, Note_on_c, 9, 48, 0
2, 4907, Note_on_c, 9, 51, 0
2, 4933, Control_c, 9, 4, 74
2, 4957, Control_c, 9, 17, 49
2, 4958, Note_on_c, 9, 51, 72
2, 4973, Control_c, 9, 4, 0
2, 5039, Note_on_c, 9, 51, 0
2, 5042, Note_on_c, 9, 36, 48
2, 5042, Note_on_c, 9, 46, 15
2, 5048, Control_c, 9, 4, 34
2, 5053, Note_on_c, 9, 44, 127
2, 5078, Control_c, 9, 4, 120
2, 5122, Note_on_c, 9, 46, 0
2, 5123, Note_on_c, 9, 36, 0
2, 5134, Note_on_c, 9, 44, 0
2, 5140, Control_c, 9, 4, 91
2, 5171, Control_c, 9, 4, 86
2, 5193, Control_c, 9, 17, 37
2, 5193, Note_on_c, 9, 51, 83
2, 5275, Note_on_c, 9, 51, 0
2, 5285, Control_c, 9, 4, 106
2, 5299, Note_on_c, 9, 36, 75
2, 5309, Note_on_c, 9, 38, 67
2, 5368, Control_c, 9, 4, 94
2, 5382, Note_on_c, 9, 36, 0
2, 5390, Note_on_c, 9, 38, 0
2, 5407, Control_c, 9, 4, 83
2, 5442, Control_c, 9, 4, 70
2, 5480, Control_c, 9, 4, 0
2, 5537, Control_c, 9, 17, 73
2, 5537, Note_on_c, 9, 51, 82
2, 5539, Control_c, 9, 4, 33
2, 5544, Note_on_c, 9, 44, 126
2, 5570, Control_c, 9, 4, 120
2, 5619, Note_on_c, 9, 51, 0
2, 5626, Note_on_c, 9, 44, 0
2, 5630, Control_c, 9, 4, 90
2, 5652, Note_on_c, 9, 48, 48
2, 5660, Control_c, 9, 4, 84
2, 5666, Note_on_c, 9, 36, 40
2, 5734, Note_on_c, 9, 48, 0
2, 5749, Note_on_c, 9, 36, 0
2, 5780, Control_c, 9, 4, 110
2, 5784, Control_c, 9, 18, 0
2, 5785, Note_on_c, 9, 48, 65
2, 5787, Control_c, 9, 17, 127
2, 5788, Note_on_c, 9, 51, 57
2, 5852, Control_c, 9, 4, 95
2, 5867, Note_on_c, 9, 48, 0
2, 5869, Note_on_c, 9, 51, 0
2, 5893, Control_c, 9, 4, 84
2, 5921, Note_on_c, 9, 51, 71
2, 5930, Control_c, 9, 4, 70
2, 5975, Control_c, 9, 4, 0
2, 6002, Note_on_c, 9, 51, 0
2, 6010, Note_on_c, 9, 36, 44
2, 6016, Control_c, 9, 4, 49
2, 6021, Note_on_c, 9, 44, 100
2, 6037, Control_c, 9, 17, 127
2, 6037, Note_on_c, 9, 51, 5
2, 6046, Control_c, 9, 4, 120
2, 6093, Note_on_c, 9, 36, 0
2, 6104, Control_c, 9, 4, 91
2, 6104, Note_on_c, 9, 44, 0
2, 6120, Note_on_c, 9, 51, 0
2, 6141, Control_c, 9, 4, 85
2, 6249, Control_c, 9, 4, 97
2, 6263, Control_c, 9, 17, 31
2, 6264, Note_on_c, 9, 51, 85
2, 6268, Note_on_c, 9, 36, 60
2, 6273, Control_c, 9, 16, 0
2, 6273, Note_on_c, 9, 38, 60
2, 6344, Note_on_c, 9, 51, 0
2, 6350, Note_on_c, 9, 36, 0
2, 6354, Note_on_c, 9, 38, 0
2, 6369, Control_c, 9, 4, 85
2, 6403, Control_c, 9, 4, 70
2, 6437, Control_c, 9, 4, 0
2, 6496, Control_c, 9, 4, 32
2, 6503, Note_on_c, 9, 44, 126
2, 6507, Control_c, 9, 17, 64
2, 6508, Note_on_c, 9, 51, 70
2, 6528, Control_c, 9, 4, 116
2, 6576, Control_c, 9, 4, 95
2, 6584, Note_on_c, 9, 44, 0
2, 6590, Note_on_c, 9, 51, 0
2, 6615, Control_c, 9, 4, 84
2, 6617, Note_on_c, 9, 48, 51
2, 6625, Note_on_c, 9, 36, 33
2, 6698, Note_on_c, 9, 48, 0
2, 6707, Note_on_c, 9, 36, 0
2, 6738, Control_c, 9, 4, 116
2, 6745, Control_c, 9, 17, 127
2, 6746, Note_on_c, 9, 51, 54
2, 6747, Control_c, 9, 18, 0
2, 6748, Note_on_c, 9, 48, 65
2, 6795, Control_c, 9, 4, 100
2, 6827, Note_on_c, 9, 51, 0
2, 6830, Note_on_c, 9, 48, 0
2, 6836, Control_c, 9, 4, 83
2, 6866, Control_c, 9, 4, 70
2, 6876, Control_c, 9, 17, 124
2, 6876, Note_on_c, 9, 51, 66
2, 6899, Control_c, 9, 4, 0
2, 6959, Note_on_c, 9, 51, 0
2, 6968, Note_on_c, 9, 46, 8
2, 6976, Control_c, 9, 4, 35
2, 6976, Note_on_c, 9, 36, 54
2, 6981, Note_on_c, 9, 44, 127
2, 7006, Control_c, 9, 4, 120
2, 7049, Note_on_c, 9, 46, 0
2, 7056, Control_c, 9, 4, 96
2, 7058, Note_on_c, 9, 36, 0
2, 7062, Note_on_c, 9, 44, 0
2, 7095, Control_c, 9, 4, 70
2, 7116, Control_c, 9, 17, 46
2, 7117, Note_on_c, 9, 51, 82
2, 7127, Control_c, 9, 4, 0
2, 7199, Control_c, 9, 4, 48
2, 7199, Note_on_c, 9, 51, 0
2, 7204, Note_on_c, 9, 44, 100
2, 7226, Note_on_c, 9, 36, 74
2, 7229, Control_c, 9, 4, 108
2, 7237, Control_c, 9, 16, 21
2, 7238, Note_on_c, 9, 38, 54
2, 7286, Note_on_c, 9, 44, 0
2, 7289, Control_c, 9, 4, 91
2, 7308, Note_on_c, 9, 36, 0
2, 7318, Note_on_c, 9, 38, 0
2, 7319, Control_c, 9, 4, 84
2, 7444, Control_c, 9, 17, 127
2, 7444, Note_on_c, 9, 51, 82
2, 7461, Control_c, 9, 4, 116
2, 7527, Note_on_c, 9, 51, 0
2, 7536, Control_c, 9, 4, 90
2, 7568, Note_on_c, 9, 36, 45
2, 7568, Note_on_c, 9, 48, 47
2, 7570, Control_c, 9, 4, 71
2, 7605, Control_c, 9, 4, 0
2, 7650, Note_on_c, 9, 48, 0
2, 7651, Note_on_c, 9, 36, 0
2, 7677, Control_c, 9, 4, 35
2, 7678, End_track
0, 0, End_of_file
