0, 0, Header, 1, 2, 480
1, 0, Start_track
1, 0, Tempo, 588235
1, 0, Time_signature, 4, 2, 24, 8
1, 0, Key_signature, 0, "major"
1, 1, End_track
2, 0, Start_track
2, 0, Title_t, "Classic Studio Kit"
2, 0, Program_c, 9, 0
2, 0, Control_c, 9, 18, 0
2, 34, Control_c, 9, 4, 108
2, 47, Control_c, 9, 17, 53
2, 48, Note_on_c, 9, 51, 70
2, 54, Note_on_c, 9, 48, 66
2, 110, Control_c, 9, 4, 102
2, 129, Note_on_c, 9, 51, 0
2, 135, Note_on_c, 9, 48, 0
2, 143, Control_c, 9, 4, 90
2, 168, Control_c, 9, 17, 75
2, 168, Note_on_c, 9, 51, 63
2, 180, Control_c, 9, 4, 71
2, 217, Control_c, 9, 4, 0
2, 249, Note_on_c, 9, 51, 0
2, 266, Control_c, 9, 4, 33
2, 273, Note_on_c, 9, 36, 61
2, 274, Note_on_c, 9, 44, 126
2, 281, Control_c, 9, 17, 75
2, 282, Note_on_c, 9, 51, 5
2, 298, Control_c, 9, 4, 122
2, 354, Note_on_c, 9, 36, 0
2, 354, Note_on_c, 9, 44, 0
2, 359, Control_c, 9, 4, 91
2, 363, Note_on_c, 9, 51, 0
2, 393, Control_c, 9, 4, 87
2, 506, Control_c, 9, 4, 97
2, 523, Note_on_c, 9, 36, 70
2, 536, Note_on_c, 9, 38, 61
2, 538, Control_c, 9, 17, 10
2, 539, Note_on_c, 9, 51, 89
2, 605, Note_on_c, 9, 36, 0
2, 612, Control_c, 9, 4, 91
2, 616, Note_on_c, 9, 38, 0
2, 620, Note_on_c, 9, 51, 0
2, 660, Control_c, 9, 4, 69
2, 695, Control_c, 9, 4, 0
2, 751, Control_c, 9, 4, 35
2, 757, Note_on_c, 9, 44, 126
2, 768, Control_c, 9, 17, 41
2, 768, Note_on_c, 9, 51, 79
2, 782, Control_c, 9, 4, 120
2, 838, Note_on_c, 9, 44, 0
2, 843, Control_c, 9, 4, 90
2, 850, Note_on_c, 9, 51, 0
2, 885, Note_on_c, 9, 36, 53
2, 894, Control_c, 9, 18, 0
2, 895, Note_on_c, 9, 48, 49
2, 966, Note_on_c, 9, 36, 0
2, 975, Note_on_c, 9, 48, 0
2, 994, Control_c, 9, 4, 120
2, 1001, Control_c, 9, 17, 90
2, 1002, Note_on_c, 9, 51, 69
2, 1013, Note_on_c, 9, 48, 72
2, 1057, Control_c, 9, 4, 97
2, 1083, Note_on_c, 9, 51, 0
2, 1093, Control_c, 9, 4, 72
2, 1094, Note_on_c, 9, 48, 0
2, 1132, Control_c, 9, 17, 76
2, 1132, Note_on_c, 9, 51, 66
2, 1137, Control_c, 9, 4, 0
2, 1210, Note_on_c, 9, 46, 11
2, 1214, Note_on_c, 9, 51, 0
2, 1216, Control_c, 9, 4, 34
2, 1221, Note_on_c, 9, 36, 74
2, 1223, Note_on_c, 9, 44, 127
2, 1246, Control_c, 9, 4, 127
2, 1290, Control_c, 9, 4, 100
2, 1291, Note_on_c, 9, 46, 0
2, 1303, Note_on_c, 9, 36, 0
2, 1303, Note_on_c, 9, 44, 0
2, 1326, Control_c, 9, 4, 69
2, 1358, Control_c, 9, 4, 0
2, 1378, Control_c, 9, 17, 48
2, 1378, Note_on_c, 9, 51, 73
2, 1441, Note_on_c, 9, 46, 7
2, 1449, Control_c, 9, 4, 32
2, 1456, Note_on_c, 9, 44, 126
2, 1459, Note_on_c, 9, 51, 0
2, 1466, Note_on_c, 9, 36, 84
2, 1481, Control_c, 9, 4, 102
2, 1488, Control_c, 9, 16, 0
2, 1489, Note_on_c, 9, 38, 68
2, 1522, Note_on_c, 9, 46, 0
2, 1535, Control_c, 9, 4, 93
2, 1538, Note_on_c, 9, 44, 0
2, 1547, Note_on_c, 9, 36, 0
2, 1569, Note_on_c, 9, 38, 0
2, 1570, Control_c, 9, 4, 82
2, 1696, Control_c, 9, 4, 118
2, 1702, Control_c, 9, 17, 38
2, 1703, Note_on_c, 9, 51, 83
2, 1776, Control_c, 9, 4, 90
2, 1785, Note_on_c, 9, 51, 0
2, 1807, Control_c, 9, 4, 72
2, 1816, Note_on_c, 9, 36, 55
2, 1826, Control_c, 9, 18, 0
2, 1827, Note_on_c, 9, 48, 48
2, 1844, Control_c, 9, 4, 0
2, 1897, Note_on_c, 9, 36, 0
2, 1908, Note_on_c, 9, 48, 0
2, 1911, Note_on_c, 9, 46, 7
2, 1924, Note_on_c, 9, 44, 127
2, 1932, Control_c, 9, 4, 127
2, 1952, Note_on_c, 9, 48, 74
2, 1955, Control_c, 9, 17, 127
2, 1955, Note_on_c, 9, 51, 61
2, 1967, Control_c, 9, 4, 127
2, 1991, Note_on_c, 9, 46, 0
2, 1997, Control_c, 9, 4, 106
2, 2006, Note_on_c, 9, 44, 0
2, 2030, Control_c, 9, 4, 92
2, 2034, Note_on_c, 9, 48, 0
2, 2036, Note_on_c, 9, 51, 0
2, 2077, Control_c, 9, 17, 67
2, 2078, Note_on_c, 9, 51, 60
2, 2152, Control_c, 9, 4, 110
2, 2159, Note_on_c, 9, 51, 0
2, 2160, Note_on_c, 9, 36, 64
2, 2188, Control_c, 9, 4, 102
2, 2230, Control_c, 9, 4, 92
2, 2241, Note_on_c, 9, 36, 0
2, 2412, Note_on_c, 9, 36, 75
2, 2425, Control_c, 9, 17, 41
2, 2426, Note_on_c, 9, 51, 83
2, 2430, Note_on_c, 9, 38, 67
2, 2447, Control_c, 9, 4, 102
2, 2488, Control_c, 9, 4, 94
2, 2493, Note_on_c, 9, 36, 0
2, 2506, Note_on_c, 9, 51, 0
2, 2512, Note_on_c, 9, 38, 0
2, 2533, Control_c, 9, 4, 70
2, 2565, Control_c, 9, 4, 0
2, 2636, Note_on_c, 9, 46, 12
2, 2648, Note_on_c, 9, 44, 127
2, 2653, Control_c, 9, 4, 127
2, 2672, Control_c, 9, 17, 47
2, 2672, Note_on_c, 9, 51, 72
2, 2698, Control_c, 9, 4, 120
2, 2717, Note_on_c, 9, 46, 0
2, 2730, Note_on_c, 9, 44, 0
2, 2740, Control_c, 9, 4, 90
2, 2754, Note_on_c, 9, 51, 0
2, 2771, Control_c, 9, 4, 85
2, 2781, Control_c, 9, 18, 0
2, 2782, Note_on_c, 9, 48, 49
2, 2789, Note_on_c, 9, 36, 69
2, 2864, Note_on_c, 9, 48, 0
2, 2871, Note_on_c, 9, 36, 0
2, 2896, Control_c, 9, 4, 120
2, 2904, Control_c, 9, 17, 114
2, 2905, Note_on_c, 9, 51, 67
2, 2906, Note_on_c, 9, 48, 78
2, 2985, Note_on_c, 9, 51, 0
2, 2986, Note_on_c, 9, 48, 0
2, 2998, Control_c, 9, 4, 91
2, 3029, Control_c, 9, 4, 73
2, 3032, Control_c, 9, 17, 45
2, 3033, Note_on_c, 9, 51, 69
2, 3067, Control_c, 9, 4, 0
2, 3114, Note_on_c, 9, 51, 0
2, 3131, Note_on_c, 9, 36, 71
2, 3135, Note_on_c, 9, 46, 14
2, 3141, Control_c, 9, 4, 33
2, 3146, Note_on_c, 9, 44, 127
2, 3171, Control_c, 9, 4, 127
2, 3190, Note_on_c, 9, 49, 6
2, 3214, Note_on_c, 9, 36, 0
2, 3216, Note_on_c, 9, 46, 0
2, 3220, Control_c, 9, 4, 97
2, 3228, Note_on_c, 9, 44, 0
2, 3255, Control_c, 9, 4, 87
2, 3269, Control_c, 9, 17, 54
2, 3270, Note_on_c, 9, 51, 73
2, 3272, Note_on_c, 9, 49, 0
2, 3352, Note_on_c, 9, 51, 0
2, 3366, Note_on_c, 9, 36, 87
2, 3379, Control_c, 9, 4, 120
2, 3393, Control_c, 9, 16, 0
2, 3394, Note_on_c, 9, 38, 72
2, 3429, Control_c, 9, 4, 98
2, 3447, Note_on_c, 9, 36, 0
2, 3465, Control_c, 9, 4, 82
2, 3476, Note_on_c, 9, 38, 0
2, 3497, Control_c, 9, 4, 70
2, 3545, Control_c, 9, 4, 0
2, 3610, Control_c, 9, 4, 35
2, 3617, Note_on_c, 9, 44, 126
2, 3625, Control_c, 9, 17, 35
2, 3625, Note_on_c, 9, 51, 96
2, 3642, Control_c, 9, 4, 120
2, 3683, Control_c, 9, 4, 99
2, 3698, Note_on_c, 9, 44, 0
2, 3707, Note_on_c, 9, 51, 0
2, 3717, Control_c, 9, 4, 85
2, 3739, Note_on_c, 9, 36, 51
2, 3746, Control_c, 9, 18, 0
2, 3747, Note_on_c, 9, 48, 44
2, 3820, Note_on_c, 9, 36, 0
2, 3826, Note_on_c, 9, 48, 0
2, 3852, Control_c, 9, 4, 118
2, 3865, Control_c, 9, 17, 72
2, 3865, Note_on_c, 9, 48, 75
2, 3866, Note_on_c, 9, 51, 68
2, 3907, Control_c, 9, 4, 112
2, 3946, Note_on_c, 9, 48, 0
2, 3946, Note_on_c, 9, 51, 0
2, 3948, Control_c, 9, 4, 92
2, 3982, Control_c, 9, 4, 73
2, 3988, Control_c, 9, 17, 45
2, 3989, Note_on_c, 9, 51, 71
2, 4021, Control_c, 9, 4, 0
2, 4070, Note_on_c, 9, 51, 0
2, 4090, Note_on_c, 9, 44, 127
2, 4091, Note_on_c, 9, 36, 59
2, 4096, Control_c, 9, 4, 127
2, 4140, Control_c, 9, 4, 118
2, 4172, Note_on_c, 9, 44, 0
2, 4173, Note_on_c, 9, 36, 0
2, 4176, Control_c, 9, 4, 91
2, 4328, Control_c, 9, 4, 102
2, 4335, Control_c, 9, 17, 32
2, 4335, Note_on_c, 9, 51, 82
2, 4338, Note_on_c, 9, 38, 65
2, 4339, Note_on_c, 9, 36, 71
2, 4416, Note_on_c, 9, 51, 0
2, 4419, Note_on_c, 9, 38, 0
2, 4420, Note_on_c, 9, 36, 0
2, 4422, Control_c, 9, 4, 90
2, 4456, Control_c, 9, 4, 72
2, 4496, Control_c, 9, 4, 0
2, 4564, Note_on_c, 9, 46, 13
2, 4576, Note_on_c, 9, 44, 127
2, 4582, Control_c, 9, 4, 127
2, 4584, Control_c, 9, 17, 52
2, 4585, Note_on_c, 9, 51, 66
2, 4626, Control_c, 9, 4, 120
2, 4645, Note_on_c, 9, 46, 0
2, 4657, Note_on_c, 9, 44, 0
2, 4667, Note_on_c, 9, 51, 0
2, 4668, Control_c, 9, 4, 91
2, 4700, Control_c, 9, 18, 0
2, 4701, Note_on_c, 9, 48, 49
2, 4705, Note_on_c, 9, 36, 65
2, 4783, Note_on_c, 9, 48, 0
2, 4787, Note_on_c, 9, 36, 0
2, 4814, Control_c, 9, 4, 120
2, 4820, Control_c, 9, 17, 127
2, 4821, Note_on_c, 9, 51, 56
2, 4824, Note_on_c, 9, 48, 72
2, 4891, Control_c, 9, 4, 98
2, 4902, Note_on_c, 9, 51, 0
2, 4906, Note_on_c, 9, 48, 0
2, 4934, Control_c, 9, 4, 71
2, 4947, Control_c, 9, 17, 47
2, 4948, Note_on_c, 9, 51, 71
2, 4972, Control_c, 9, 4, 0
2, 5028, Note_on_c, 9, 51, 0
2, 5044, Note_on_c, 9, 46, 17
2, 5049, Control_c, 9, 4, 33
2, 5051, Note_on_c, 9, 36, 73
2, 5054, Note_on_c, 9, 44, 127
2, 5080, Control_c, 9, 4, 127
2, 5098, Note_on_c, 9, 49, 7
2, 5123, Control_c, 9, 4, 112
2, 5125, Note_on_c, 9, 46, 0
2, 5133, Note_on_c, 9, 36, 0
2, 5136, Note_on_c, 9, 44, 0
2, 5156, Control_c, 9, 4, 78
2, 5179, Control_c, 9, 17, 60
2, 5179, Note_on_c, 9, 51, 62
2, 5181, Note_on_c, 9, 49, 0
2, 5196, Control_c, 9, 4, 0
2, 5261, Note_on_c, 9, 51, 0
2, 5275, Note_on_c, 9, 46, 10
2, 5283, Control_c, 9, 4, 33
2, 5288, Note_on_c, 9, 36, 85
2, 5290, Note_on_c, 9, 44, 126
2, 5304, Control_c, 9, 16, 0
2, 5304, Note_on_c, 9, 38, 63
2, 5315, Control_c, 9, 4, 100
2, 5357, Note_on_c, 9, 46, 0
2, 5370, Note_on_c, 9, 36, 0
2, 5372, Note_on_c, 9, 44, 0
2, 5387, Note_on_c, 9, 38, 0
2, 5390, Control_c, 9, 4, 85
2, 5533, Control_c, 9, 17, 45
2, 5534, Note_on_c, 9, 51, 87
2, 5535, Control_c, 9, 4, 118
2, 5614, Control_c, 9, 4, 90
2, 5615, Note_on_c, 9, 51, 0
2, 5647, Control_c, 9, 4, 71
2, 5654, Note_on_c, 9, 36, 57
2, 5658, Control_c, 9, 18, 0
2, 5658, Note_on_c, 9, 48, 48
2, 5681, Control_c, 9, 4, 0
2, 5736, Note_on_c, 9, 36, 0
2, 5739, Note_on_c, 9, 48, 0
2, 5754, Note_on_c, 9, 46, 8
2, 5761, Control_c, 9, 4, 34
2, 5767, Note_on_c, 9, 44, 127
2, 5779, Control_c, 9, 17, 127
2, 5780, Note_on_c, 9, 51, 50
2, 5786, Note_on_c, 9, 48, 74
2, 5792, Control_c, 9, 4, 127
2, 5835, Note_on_c, 9, 46, 0
2, 5838, Control_c, 9, 4, 108
2, 5849, Note_on_c, 9, 44, 0
2, 5861, Note_on_c, 9, 51, 0
2, 5867, Note_on_c, 9, 48, 0
2, 5870, Control_c, 9, 4, 92
2, 5904, Control_c, 9, 17, 56
2, 5904, Note_on_c, 9, 51, 58
2, 5986, Note_on_c, 9, 51, 0
2, 5996, Control_c, 9, 4, 108
2, 6017, Note_on_c, 9, 36, 61
2, 6058, Control_c, 9, 4, 94
2, 6099, Note_on_c, 9, 36, 0
2, 6251, Note_on_c, 9, 36, 70
2, 6255, Control_c, 9, 17, 35
2, 6256, Note_on_c, 9, 51, 81
2, 6259, Note_on_c, 9, 38, 76
2, 6283, Control_c, 9, 4, 98
2, 6333, Note_on_c, 9, 36, 0
2, 6336, Note_on_c, 9, 51, 0
2, 6339, Control_c, 9, 4, 91
2, 6340, Note_on_c, 9, 38, 0
2, 6385, Control_c, 9, 4, 69
2, 6416, Control_c, 9, 4, 0
2, 6485, Control_c, 9, 4, 35
2, 6490, Note_on_c, 9, 44, 127
2, 6503, Control_c, 9, 17, 68
2, 6504, Note_on_c, 9, 51, 75
2, 6517, Control_c, 9, 4, 126
2, 6548, Control_c, 9, 4, 118
2, 6572, Note_on_c, 9, 44, 0
2, 6585, Control_c, 9, 4, 92
2, 6585, Note_on_c, 9, 51, 0
2, 6617, Control_c, 9, 18, 0
2, 6617, Note_on_c, 9, 48, 48
2, 6629, Note_on_c, 9, 36, 62
2, 6699, Note_on_c, 9, 48, 0
2, 6712, Note_on_c, 9, 36, 0
2, 6735, Control_c, 9, 4, 120
2, 6742, Control_c, 9, 17, 127
2, 6743, Note_on_c, 9, 51, 63
2, 6744, Note_on_c, 9, 48, 70
2, 6825, Note_on_c, 9, 48, 0
2, 6825, Note_on_c, 9, 51, 0
2, 6833, Control_c, 9, 4, 90
2, 6866, Control_c, 9, 4, 72
2, 6872, Control_c, 9, 17, 58
2, 6872, Note_on_c, 9, 51, 65
2, 6904, Control_c, 9, 4, 0
2, 6953, Note_on_c, 9, 51, 0
2, 6972, Note_on_c, 9, 46, 16
2, 6978, Note_on_c, 9, 36, 62
2, 6979, Control_c, 9, 4, 34
2, 6983, Note_on_c, 9, 44, 127
2, 7009, Control_c, 9, 4, 127
2, 7054, Note_on_c, 9, 46, 0
2, 7059, Note_on_c, 9, 36, 0
2, 7060, Control_c, 9, 4, 98
2, 7064, Note_on_c, 9, 44, 0
2, 7098, Control_c, 9, 4, 70
2, 7101, Control_c, 9, 17, 50
2, 7102, Note_on_c, 9, 51, 62
2, 7129, Control_c, 9, 4, 0
2, 7184, Note_on_c, 9, 51, 0
2, 7206, Note_on_c, 9, 46, 10
2, 7214, Control_c, 9, 4, 35
2, 7220, Note_on_c, 9, 36, 85
2, 7220, Note_on_c, 9, 44, 127
2, 7223, Control_c, 9, 16, 0
2, 7224, Note_on_c, 9, 38, 60
2, 7245, Control_c, 9, 4, 112
2, 7287, Control_c, 9, 4, 99
2, 7287, Note_on_c, 9, 46, 0
2, 7301, Note_on_c, 9, 44, 0
2, 7302, Note_on_c, 9, 36, 0
2, 7306, Note_on_c, 9, 38, 0
2, 7320, Control_c, 9, 4, 83
2, 7451, Control_c, 9, 17, 44
2, 7452, Note_on_c, 9, 51, 83
2, 7459, Control_c, 9, 4, 127
2, 7525, Control_c, 9, 4, 95
2, 7533, Note_on_c, 9, 51, 0
2, 7569, Control_c, 9, 4, 71
2, 7580, Note_on_c, 9, 36, 64
2, 7581, Control_c, 9, 18, 0
2, 7581, Note_on_c, 9, 48, 44
2, 7605, Control_c, 9, 4, 0
2, 7663, Note_on_c, 9, 36, 0
2, 7663, Note_on_c, 9, 48, 0
2, 7664, End_track
0, 0, End_of_file
