0, 0, Header, 1, 2, 480
1, 0, Start_track
1, 0, Tempo, 588235
1, 0, Time_signature, 4, 2, 24, 8
1, 0, Key_signature, 0, "major"
1, 1, End_track
2, 0, Start_track
2, 0, Title_t, "Classic Studio Kit"
2, 0, Program_c, 9, 0
2, 0, Control_c, 9, 16, 0
2, 15, Control_c, 9, 4, 97
2, 36, Control_c, 9, 17, 7
2, 37, Note_on_c, 9, 51, 68
2, 46, Note_on_c, 9, 36, 71
2, 116, Note_on_c, 9, 51, 0
2, 127, Note_on_c, 9, 36, 0
2, 142, Control_c, 9, 4, 92
2, 166, Control_c, 9, 17, 74
2, 167, Note_on_c, 9, 51, 62
2, 211, Control_c, 9, 4, 85
2, 247, Note_on_c, 9, 51, 0
2, 262, Control_c, 9, 4, 94
2, 282, Note_on_c, 9, 48, 42
2, 293, Control_c, 9, 4, 97
2, 363, Note_on_c, 9, 48, 0
2, 404, Control_c, 9, 18, 0
2, 404, Note_on_c, 9, 48, 93
2, 433, Control_c, 9, 4, 92
2, 468, Control_c, 9, 4, 88
2, 486, Note_on_c, 9, 48, 0
2, 525, Control_c, 9, 17, 99
2, 525, Note_on_c, 9, 51, 85
2, 606, Note_on_c, 9, 51, 0
2, 746, Note_on_c, 9, 40, 101
2, 790, Control_c, 9, 4, 92
2, 828, Note_on_c, 9, 40, 0
2, 978, Control_c, 9, 16, 0
2, 978, Note_on_c, 9, 40, 70
2, 1020, Control_c, 9, 4, 102
2, 1058, Control_c, 9, 4, 98
2, 1059, Note_on_c, 9, 40, 0
2, 1096, Control_c, 9, 4, 83
2, 1128, Control_c, 9, 4, 69
2, 1162, Control_c, 9, 4, 0
2, 1225, Note_on_c, 9, 44, 113
2, 1232, Control_c, 9, 4, 127
2, 1246, Note_on_c, 9, 49, 4
2, 1266, Control_c, 9, 4, 96
2, 1298, Control_c, 9, 4, 91
2, 1305, Note_on_c, 9, 44, 0
2, 1327, Note_on_c, 9, 49, 0
2, 1470, Control_c, 9, 17, 0
2, 1471, Control_c, 9, 16, 127
2, 1471, Note_on_c, 9, 51, 98
2, 1473, Note_on_c, 9, 38, 91
2, 1482, Note_on_c, 9, 36, 67
2, 1525, Control_c, 9, 4, 108
2, 1553, Note_on_c, 9, 38, 0
2, 1553, Note_on_c, 9, 51, 0
2, 1563, Note_on_c, 9, 36, 0
2, 1569, Control_c, 9, 4, 95
2, 1579, Control_c, 9, 16, 0
2, 1580, Note_on_c, 9, 38, 11
2, 1614, Control_c, 9, 4, 72
2, 1659, Control_c, 9, 4, 0
2, 1660, Note_on_c, 9, 38, 0
2, 1706, Control_c, 9, 4, 49
2, 1709, Control_c, 9, 17, 54
2, 1709, Note_on_c, 9, 51, 74
2, 1711, Note_on_c, 9, 44, 106
2, 1736, Control_c, 9, 4, 127
2, 1770, Control_c, 9, 4, 100
2, 1791, Note_on_c, 9, 51, 0
2, 1792, Note_on_c, 9, 44, 0
2, 1813, Control_c, 9, 4, 89
2, 1832, Note_on_c, 9, 36, 65
2, 1832, Note_on_c, 9, 48, 51
2, 1914, Note_on_c, 9, 36, 0
2, 1914, Note_on_c, 9, 48, 0
2, 1939, Control_c, 9, 4, 104
2, 1960, Control_c, 9, 18, 0
2, 1961, Note_on_c, 9, 48, 91
2, 1971, Control_c, 9, 17, 35
2, 1971, Note_on_c, 9, 51, 71
2, 2042, Note_on_c, 9, 48, 0
2, 2053, Control_c, 9, 4, 90
2, 2053, Note_on_c, 9, 51, 0
2, 2085, Control_c, 9, 17, 74
2, 2086, Note_on_c, 9, 51, 78
2, 2088, Control_c, 9, 4, 74
2, 2129, Control_c, 9, 4, 0
2, 2167, Note_on_c, 9, 51, 0
2, 2190, Note_on_c, 9, 44, 126
2, 2191, Note_on_c, 9, 36, 69
2, 2196, Control_c, 9, 4, 127
2, 2232, Control_c, 9, 4, 110
2, 2264, Control_c, 9, 4, 92
2, 2271, Note_on_c, 9, 44, 0
2, 2272, Note_on_c, 9, 36, 0
2, 2295, Control_c, 9, 4, 88
2, 2333, Control_c, 9, 17, 0
2, 2333, Note_on_c, 9, 51, 85
2, 2392, Control_c, 9, 4, 94
2, 2416, Note_on_c, 9, 51, 0
2, 2440, Note_on_c, 9, 36, 79
2, 2441, Control_c, 9, 16, 0
2, 2441, Note_on_c, 9, 40, 85
2, 2502, Control_c, 9, 4, 106
2, 2522, Note_on_c, 9, 36, 0
2, 2522, Note_on_c, 9, 40, 0
2, 2534, Control_c, 9, 4, 98
2, 2561, Control_c, 9, 16, 63
2, 2561, Note_on_c, 9, 38, 5
2, 2570, Control_c, 9, 4, 83
2, 2600, Control_c, 9, 4, 66
2, 2635, Control_c, 9, 4, 0
2, 2644, Note_on_c, 9, 38, 0
2, 2679, Note_on_c, 9, 44, 106
2, 2684, Control_c, 9, 17, 4
2, 2684, Note_on_c, 9, 51, 101
2, 2686, Control_c, 9, 4, 127
2, 2731, Control_c, 9, 4, 99
2, 2761, Note_on_c, 9, 44, 0
2, 2765, Note_on_c, 9, 51, 0
2, 2781, Control_c, 9, 4, 87
2, 2895, Control_c, 9, 4, 102
2, 2913, Note_on_c, 9, 36, 28
2, 2921, Note_on_c, 9, 48, 82
2, 2938, Control_c, 9, 17, 15
2, 2938, Note_on_c, 9, 51, 69
2, 2983, Control_c, 9, 4, 96
2, 2995, Note_on_c, 9, 36, 0
2, 3003, Note_on_c, 9, 48, 0
2, 3016, Control_c, 9, 4, 83
2, 3021, Note_on_c, 9, 51, 0
2, 3051, Control_c, 9, 4, 69
2, 3088, Control_c, 9, 4, 0
2, 3149, Control_c, 9, 17, 37
2, 3149, Note_on_c, 9, 44, 119
2, 3150, Note_on_c, 9, 51, 63
2, 3155, Control_c, 9, 4, 127
2, 3190, Control_c, 9, 4, 104
2, 3225, Control_c, 9, 4, 92
2, 3231, Note_on_c, 9, 44, 0
2, 3231, Note_on_c, 9, 51, 0
2, 3400, Note_on_c, 9, 53, 105
2, 3403, Control_c, 9, 16, 0
2, 3404, Note_on_c, 9, 40, 81
2, 3419, Note_on_c, 9, 36, 75
2, 3464, Control_c, 9, 4, 108
2, 3482, Note_on_c, 9, 53, 0
2, 3485, Note_on_c, 9, 40, 0
2, 3501, Note_on_c, 9, 36, 0
2, 3519, Control_c, 9, 4, 91
2, 3523, Note_on_c, 9, 38, 16
2, 3547, Note_on_c, 9, 38, 0
2, 3548, Note_on_c, 9, 38, 11
2, 3555, Control_c, 9, 4, 72
2, 3598, Control_c, 9, 4, 0
2, 3605, Note_on_c, 9, 38, 0
2, 3643, Control_c, 9, 17, 9
2, 3643, Note_on_c, 9, 51, 83
2, 3645, Control_c, 9, 4, 35
2, 3650, Note_on_c, 9, 44, 113
2, 3675, Control_c, 9, 4, 127
2, 3712, Control_c, 9, 4, 98
2, 3726, Note_on_c, 9, 51, 0
2, 3732, Note_on_c, 9, 44, 0
2, 3757, Control_c, 9, 4, 88
2, 3777, Control_c, 9, 18, 0
2, 3777, Note_on_c, 9, 48, 49
2, 3783, Note_on_c, 9, 36, 70
2, 3859, Control_c, 9, 4, 97
2, 3859, Note_on_c, 9, 48, 0
2, 3866, Note_on_c, 9, 36, 0
2, 3890, Control_c, 9, 4, 102
2, 3894, Control_c, 9, 17, 27
2, 3895, Note_on_c, 9, 51, 66
2, 3897, Note_on_c, 9, 48, 82
2, 3977, Note_on_c, 9, 51, 0
2, 3978, Note_on_c, 9, 48, 0
2, 3994, Control_c, 9, 4, 89
2, 4016, Control_c, 9, 17, 0
2, 4016, Note_on_c, 9, 51, 91
2, 4025, Control_c, 9, 4, 71
2, 4062, Control_c, 9, 4, 0
2, 4099, Note_on_c, 9, 51, 0
2, 4123, Note_on_c, 9, 44, 126
2, 4125, Note_on_c, 9, 36, 61
2, 4129, Control_c, 9, 4, 127
2, 4165, Control_c, 9, 4, 99
2, 4205, Note_on_c, 9, 44, 0
2, 4207, Note_on_c, 9, 36, 0
2, 4211, Control_c, 9, 4, 89
2, 4260, Note_on_c, 9, 53, 62
2, 4334, Control_c, 9, 4, 95
2, 4343, Note_on_c, 9, 53, 0
2, 4368, Note_on_c, 9, 36, 79
2, 4372, Control_c, 9, 16, 0
2, 4372, Note_on_c, 9, 40, 82
2, 4423, Control_c, 9, 4, 99
2, 4450, Note_on_c, 9, 36, 0
2, 4454, Note_on_c, 9, 40, 0
2, 4485, Control_c, 9, 4, 84
2, 4518, Control_c, 9, 4, 69
2, 4551, Control_c, 9, 4, 0
2, 4598, Note_on_c, 9, 51, 112
2, 4609, Note_on_c, 9, 44, 119
2, 4615, Control_c, 9, 4, 127
2, 4650, Control_c, 9, 4, 110
2, 4680, Note_on_c, 9, 51, 0
2, 4685, Control_c, 9, 4, 92
2, 4690, Note_on_c, 9, 44, 0
2, 4720, Control_c, 9, 4, 88
2, 4736, Control_c, 9, 18, 0
2, 4737, Note_on_c, 9, 36, 76
2, 4737, Note_on_c, 9, 48, 44
2, 4818, Note_on_c, 9, 36, 0
2, 4818, Note_on_c, 9, 48, 0
2, 4846, Control_c, 9, 4, 102
2, 4849, Control_c, 9, 17, 0
2, 4849, Note_on_c, 9, 51, 96
2, 4850, Note_on_c, 9, 48, 82
2, 4931, Note_on_c, 9, 48, 0
2, 4931, Note_on_c, 9, 51, 0
2, 4942, Control_c, 9, 4, 90
2, 4975, Control_c, 9, 4, 71
2, 5017, Control_c, 9, 4, 0
2, 5071, Note_on_c, 9, 44, 119
2, 5078, Control_c, 9, 4, 127
2, 5079, Note_on_c, 9, 36, 58
2, 5113, Control_c, 9, 4, 110
2, 5147, Control_c, 9, 4, 92
2, 5153, Note_on_c, 9, 44, 0
2, 5161, Note_on_c, 9, 36, 0
2, 5191, Control_c, 9, 4, 88
2, 5282, Control_c, 9, 4, 93
2, 5325, Note_on_c, 9, 36, 74
2, 5337, Note_on_c, 9, 51, 124
2, 5339, Control_c, 9, 16, 106
2, 5340, Note_on_c, 9, 38, 86
2, 5385, Control_c, 9, 4, 102
2, 5408, Note_on_c, 9, 36, 0
2, 5418, Note_on_c, 9, 51, 0
2, 5420, Note_on_c, 9, 38, 0
2, 5430, Control_c, 9, 4, 90
2, 5462, Control_c, 9, 4, 72
2, 5505, Control_c, 9, 4, 0
2, 5557, Control_c, 9, 4, 50
2, 5561, Note_on_c, 9, 44, 119
2, 5570, Control_c, 9, 17, 0
2, 5571, Note_on_c, 9, 51, 91
2, 5587, Control_c, 9, 4, 127
2, 5621, Control_c, 9, 4, 99
2, 5643, Note_on_c, 9, 44, 0
2, 5652, Note_on_c, 9, 51, 0
2, 5666, Control_c, 9, 4, 88
2, 5684, Control_c, 9, 18, 0
2, 5684, Note_on_c, 9, 48, 56
2, 5694, Note_on_c, 9, 36, 68
2, 5767, Note_on_c, 9, 48, 0
2, 5772, Control_c, 9, 4, 96
2, 5776, Note_on_c, 9, 36, 0
2, 5803, Control_c, 9, 4, 102
2, 5808, Control_c, 9, 17, 39
2, 5808, Note_on_c, 9, 51, 67
2, 5813, Note_on_c, 9, 48, 112
2, 5891, Note_on_c, 9, 51, 0
2, 5894, Note_on_c, 9, 48, 0
2, 5908, Control_c, 9, 4, 90
2, 5930, Control_c, 9, 17, 23
2, 5931, Note_on_c, 9, 51, 77
2, 5941, Control_c, 9, 4, 71
2, 5983, Control_c, 9, 4, 0
2, 6012, Note_on_c, 9, 51, 0
2, 6036, Note_on_c, 9, 36, 65
2, 6037, Note_on_c, 9, 44, 119
2, 6043, Control_c, 9, 4, 127
2, 6077, Control_c, 9, 4, 110
2, 6108, Control_c, 9, 4, 92
2, 6116, Note_on_c, 9, 36, 0
2, 6117, Note_on_c, 9, 44, 0
2, 6141, Control_c, 9, 4, 88
2, 6174, Control_c, 9, 17, 5
2, 6175, Note_on_c, 9, 51, 96
2, 6249, Control_c, 9, 4, 95
2, 6257, Note_on_c, 9, 51, 0
2, 6281, Note_on_c, 9, 36, 74
2, 6293, Control_c, 9, 16, 0
2, 6294, Note_on_c, 9, 40, 74
2, 6363, Note_on_c, 9, 36, 0
2, 6374, Note_on_c, 9, 40, 0
2, 6407, Control_c, 9, 4, 83
2, 6449, Control_c, 9, 4, 52
2, 6480, Control_c, 9, 4, 8
2, 6515, Note_on_c, 9, 44, 80
2, 6519, Control_c, 9, 17, 38
2, 6520, Note_on_c, 9, 51, 89
2, 6525, Control_c, 9, 4, 127
2, 6568, Control_c, 9, 4, 99
2, 6598, Note_on_c, 9, 44, 0
2, 6600, Note_on_c, 9, 51, 0
2, 6613, Control_c, 9, 4, 85
2, 6648, Control_c, 9, 18, 0
2, 6648, Note_on_c, 9, 48, 46
2, 6651, Note_on_c, 9, 36, 65
2, 6730, Note_on_c, 9, 48, 0
2, 6733, Note_on_c, 9, 36, 0
2, 6736, Control_c, 9, 4, 98
2, 6767, Control_c, 9, 17, 48
2, 6768, Note_on_c, 9, 51, 80
2, 6770, Note_on_c, 9, 48, 84
2, 6850, Note_on_c, 9, 51, 0
2, 6852, Note_on_c, 9, 48, 0
2, 6883, Control_c, 9, 4, 84
2, 6887, Control_c, 9, 17, 90
2, 6888, Note_on_c, 9, 51, 71
2, 6928, Control_c, 9, 4, 53
2, 6958, Control_c, 9, 4, 10
2, 6969, Note_on_c, 9, 51, 0
2, 6994, Note_on_c, 9, 44, 80
2, 7005, Control_c, 9, 4, 127
2, 7006, Note_on_c, 9, 36, 45
2, 7047, Control_c, 9, 4, 98
2, 7075, Note_on_c, 9, 44, 0
2, 7088, Note_on_c, 9, 36, 0
2, 7097, Control_c, 9, 4, 88
2, 7209, Control_c, 9, 4, 94
2, 7242, Control_c, 9, 17, 7
2, 7243, Note_on_c, 9, 51, 97
2, 7249, Note_on_c, 9, 36, 76
2, 7249, Note_on_c, 9, 38, 101
2, 7324, Note_on_c, 9, 51, 0
2, 7330, Note_on_c, 9, 38, 0
2, 7331, Note_on_c, 9, 36, 0
2, 7345, Control_c, 9, 4, 88
2, 7378, Control_c, 9, 4, 72
2, 7420, Control_c, 9, 4, 0
2, 7477, Note_on_c, 9, 44, 113
2, 7482, Control_c, 9, 17, 62
2, 7482, Note_on_c, 9, 51, 73
2, 7484, Control_c, 9, 4, 127
2, 7518, Control_c, 9, 4, 110
2, 7551, Control_c, 9, 4, 92
2, 7558, Note_on_c, 9, 44, 0
2, 7563, Note_on_c, 9, 51, 0
2, 7581, Control_c, 9, 4, 87
2, 7604, Control_c, 9, 18, 0
2, 7605, End_track
0, 0, End_of_file
