0, 0, Header, 1, 2, 480
1, 0, Start_track
1, 0, Tempo, 461538
1, 0, Time_signature, 4, 2, 24, 8
1, 0, Key_signature, 0, "major"
1, 1, End_track
2, 0, Start_track
2, 0, Title_t, "SoCal"
2, 0, Program_c, 9, 0
2, 0, Control_c, 9, 17, 78
2, 4, Control_c, 9, 16, 0
2, 4, Note_on_c, 9, 38, 54
2, 6, Note_on_c, 9, 44, 67
2, 8, Control_c, 9, 4, 78
2, 10, Note_on_c, 9, 46, 59
2, 39, Control_c, 9, 4, 96
2, 108, Note_on_c, 9, 38, 0
2, 110, Note_on_c, 9, 44, 0
2, 113, Note_on_c, 9, 46, 0
2, 314, Note_on_c, 9, 26, 46
2, 324, Control_c, 9, 17, 91
2, 325, Note_on_c, 9, 51, 70
2, 332, Control_c, 9, 4, 106
2, 404, Control_c, 9, 4, 102
2, 419, Note_on_c, 9, 26, 0
2, 428, Note_on_c, 9, 51, 0
2, 549, Control_c, 9, 4, 98
2, 624, Control_c, 9, 17, 26
2, 625, Note_on_c, 9, 51, 67
2, 628, Note_on_c, 9, 26, 48
2, 642, Control_c, 9, 4, 110
2, 680, Control_c, 9, 4, 102
2, 714, Control_c, 9, 4, 98
2, 728, Note_on_c, 9, 51, 0
2, 731, Note_on_c, 9, 26, 0
2, 804, Control_c, 9, 4, 102
2, 805, Note_on_c, 9, 26, 66
2, 849, Control_c, 9, 4, 102
2, 901, Control_c, 9, 4, 102
2, 909, Note_on_c, 9, 26, 0
2, 952, Control_c, 9, 4, 108
2, 968, Control_c, 9, 18, 0
2, 970, Note_on_c, 9, 48, 48
2, 1074, Note_on_c, 9, 48, 0
2, 1126, Note_on_c, 9, 26, 52
2, 1146, Control_c, 9, 4, 104
2, 1209, Control_c, 9, 4, 99
2, 1230, Note_on_c, 9, 26, 0
2, 1251, Control_c, 9, 4, 110
2, 1290, Control_c, 9, 17, 104
2, 1291, Note_on_c, 9, 51, 73
2, 1314, Control_c, 9, 4, 104
2, 1394, Note_on_c, 9, 51, 0
2, 1445, Control_c, 9, 4, 104
2, 1446, Note_on_c, 9, 26, 38
2, 1496, Control_c, 9, 4, 99
2, 1550, Note_on_c, 9, 26, 0
2, 1594, Control_c, 9, 17, 58
2, 1594, Note_on_c, 9, 51, 76
2, 1698, Note_on_c, 9, 51, 0
2, 1751, Control_c, 9, 4, 102
2, 1752, Note_on_c, 9, 26, 21
2, 1853, Control_c, 9, 4, 98
2, 1856, Note_on_c, 9, 26, 0
2, 1920, Control_c, 9, 18, 0
2, 1921, Note_on_c, 9, 48, 71
2, 1923, Control_c, 9, 4, 102
2, 1924, Note_on_c, 9, 26, 67
2, 1990, Control_c, 9, 4, 108
2, 2025, Note_on_c, 9, 48, 0
2, 2027, Note_on_c, 9, 26, 0
2, 2065, Control_c, 9, 4, 104
2, 2126, Control_c, 9, 4, 100
2, 2234, Control_c, 9, 4, 97
2, 2235, Note_on_c, 9, 26, 42
2, 2237, Control_c, 9, 17, 85
2, 2238, Note_on_c, 9, 51, 77
2, 2278, Control_c, 9, 4, 110
2, 2332, Control_c, 9, 4, 97
2, 2338, Note_on_c, 9, 26, 0
2, 2341, Note_on_c, 9, 51, 0
2, 2547, Control_c, 9, 17, 127
2, 2547, Note_on_c, 9, 51, 77
2, 2554, Note_on_c, 9, 26, 37
2, 2571, Control_c, 9, 4, 102
2, 2651, Note_on_c, 9, 51, 0
2, 2655, Control_c, 9, 4, 98
2, 2658, Note_on_c, 9, 26, 0
2, 2731, Control_c, 9, 18, 0
2, 2732, Note_on_c, 9, 48, 55
2, 2733, Control_c, 9, 4, 98
2, 2734, Note_on_c, 9, 26, 62
2, 2802, Control_c, 9, 4, 102
2, 2835, Control_c, 9, 4, 110
2, 2836, Note_on_c, 9, 26, 0
2, 2836, Note_on_c, 9, 48, 0
2, 2885, Control_c, 9, 17, 127
2, 2886, Note_on_c, 9, 51, 50
2, 2960, Control_c, 9, 4, 104
2, 2990, Note_on_c, 9, 51, 0
2, 3013, Note_on_c, 9, 36, 42
2, 3053, Control_c, 9, 16, 21
2, 3054, Note_on_c, 9, 38, 51
2, 3100, Control_c, 9, 4, 99
2, 3118, Note_on_c, 9, 36, 0
2, 3157, Note_on_c, 9, 38, 0
2, 3193, Control_c, 9, 4, 114
2, 3203, Control_c, 9, 17, 100
2, 3204, Note_on_c, 9, 51, 79
2, 3263, Control_c, 9, 4, 110
2, 3309, Note_on_c, 9, 51, 0
2, 3327, Note_on_c, 9, 36, 48
2, 3363, Control_c, 9, 4, 110
2, 3364, Note_on_c, 9, 26, 50
2, 3412, Control_c, 9, 4, 96
2, 3432, Note_on_c, 9, 36, 0
2, 3457, Control_c, 9, 4, 91
2, 3468, Note_on_c, 9, 26, 0
2, 3506, Control_c, 9, 4, 86
2, 3514, Control_c, 9, 16, 21
2, 3515, Note_on_c, 9, 38, 57
2, 3543, Control_c, 9, 4, 85
2, 3543, Note_on_c, 9, 46, 6
2, 3600, Control_c, 9, 4, 71
2, 3619, Note_on_c, 9, 38, 0
2, 3643, Control_c, 9, 4, 44
2, 3647, Note_on_c, 9, 46, 0
2, 3650, Note_on_c, 9, 26, 16
2, 3676, Control_c, 9, 4, 20
2, 3710, Control_c, 9, 4, 0
2, 3754, Note_on_c, 9, 26, 0
2, 3832, Note_on_c, 9, 36, 67
2, 3843, Control_c, 9, 17, 89
2, 3844, Note_on_c, 9, 51, 87
2, 3845, Control_c, 9, 16, 21
2, 3846, Note_on_c, 9, 38, 57
2, 3851, Control_c, 9, 4, 76
2, 3852, Note_on_c, 9, 44, 61
2, 3885, Control_c, 9, 4, 95
2, 3937, Note_on_c, 9, 36, 0
2, 3947, Note_on_c, 9, 51, 0
2, 3948, Note_on_c, 9, 38, 0
2, 3956, Note_on_c, 9, 44, 0
2, 4149, Note_on_c, 9, 26, 48
2, 4164, Control_c, 9, 4, 106
2, 4166, Control_c, 9, 17, 127
2, 4167, Note_on_c, 9, 51, 70
2, 4240, Control_c, 9, 4, 104
2, 4253, Note_on_c, 9, 26, 0
2, 4270, Note_on_c, 9, 51, 0
2, 4477, Control_c, 9, 17, 127
2, 4478, Note_on_c, 9, 51, 89
2, 4583, Note_on_c, 9, 51, 0
2, 4613, Control_c, 9, 4, 99
2, 4614, Note_on_c, 9, 26, 62
2, 4657, Control_c, 9, 4, 94
2, 4712, Control_c, 9, 4, 90
2, 4717, Note_on_c, 9, 26, 0
2, 4752, Control_c, 9, 4, 85
2, 4794, Control_c, 9, 17, 127
2, 4795, Note_on_c, 9, 51, 84
2, 4854, Control_c, 9, 4, 81
2, 4899, Note_on_c, 9, 51, 0
2, 4902, Control_c, 9, 4, 70
2, 4927, Control_c, 9, 16, 0
2, 4928, Note_on_c, 9, 38, 30
2, 4951, Control_c, 9, 4, 55
2, 5032, Note_on_c, 9, 38, 0
2, 5101, Control_c, 9, 16, 0
2, 5101, Note_on_c, 9, 38, 46
2, 5206, Note_on_c, 9, 38, 0
2, 5250, Control_c, 9, 4, 59
2, 5271, Note_on_c, 9, 26, 58
2, 5287, Control_c, 9, 4, 70
2, 5375, Note_on_c, 9, 26, 0
2, 5424, Control_c, 9, 17, 76
2, 5425, Note_on_c, 9, 51, 79
2, 5528, Note_on_c, 9, 51, 0
2, 5694, Control_c, 9, 4, 77
2, 5731, Note_on_c, 9, 36, 71
2, 5736, Control_c, 9, 4, 82
2, 5741, Control_c, 9, 17, 77
2, 5742, Note_on_c, 9, 51, 95
2, 5836, Note_on_c, 9, 36, 0
2, 5845, Note_on_c, 9, 51, 0
2, 5893, Control_c, 9, 4, 82
2, 5893, Note_on_c, 9, 26, 18
2, 5954, Control_c, 9, 4, 88
2, 5997, Note_on_c, 9, 26, 0
2, 6024, Control_c, 9, 4, 92
2, 6062, Control_c, 9, 16, 0
2, 6063, Note_on_c, 9, 38, 45
2, 6065, Control_c, 9, 4, 98
2, 6110, Control_c, 9, 4, 110
2, 6147, Control_c, 9, 4, 102
2, 6167, Note_on_c, 9, 38, 0
2, 6192, Control_c, 9, 4, 91
2, 6217, Note_on_c, 9, 36, 57
2, 6234, Control_c, 9, 4, 84
2, 6285, Control_c, 9, 4, 48
2, 6321, Control_c, 9, 4, 0
2, 6322, Note_on_c, 9, 36, 0
2, 6365, Control_c, 9, 4, 32
2, 6379, Note_on_c, 9, 44, 74
2, 6383, Note_on_c, 9, 46, 62
2, 6384, Control_c, 9, 17, 79
2, 6385, Note_on_c, 9, 51, 95
2, 6398, Control_c, 9, 4, 104
2, 6437, Control_c, 9, 4, 96
2, 6484, Note_on_c, 9, 44, 0
2, 6486, Note_on_c, 9, 46, 0
2, 6488, Note_on_c, 9, 51, 0
2, 6508, Control_c, 9, 4, 91
2, 6547, Control_c, 9, 4, 89
2, 6548, Note_on_c, 9, 26, 74
2, 6577, Control_c, 9, 4, 83
2, 6609, Control_c, 9, 4, 73
2, 6643, Control_c, 9, 4, 62
2, 6652, Note_on_c, 9, 26, 0
2, 6675, Control_c, 9, 4, 47
2, 6686, Note_on_c, 9, 36, 47
2, 6749, Control_c, 9, 4, 79
2, 6750, Note_on_c, 9, 44, 15
2, 6782, Control_c, 9, 4, 89
2, 6790, Note_on_c, 9, 36, 0
2, 6854, Note_on_c, 9, 44, 0
2, 6869, Control_c, 9, 4, 91
2, 6870, Note_on_c, 9, 26, 21
2, 6975, Note_on_c, 9, 26, 0
2, 7022, Control_c, 9, 4, 95
2, 7035, Control_c, 9, 17, 121
2, 7036, Note_on_c, 9, 51, 99
2, 7074, Control_c, 9, 4, 108
2, 7140, Note_on_c, 9, 51, 0
2, 7152, Control_c, 9, 4, 98
2, 7202, Control_c, 9, 4, 93
2, 7208, Note_on_c, 9, 36, 49
2, 7314, Note_on_c, 9, 36, 0
2, 7345, Control_c, 9, 16, 0
2, 7346, Note_on_c, 9, 38, 42
2, 7355, Control_c, 9, 4, 108
2, 7424, Control_c, 9, 4, 98
2, 7450, Note_on_c, 9, 38, 0
2, 7477, Control_c, 9, 4, 92
2, 7510, Control_c, 9, 16, 0
2, 7511, Note_on_c, 9, 38, 37
2, 7548, Control_c, 9, 4, 88
2, 7615, Note_on_c, 9, 38, 0
2, 7633, Control_c, 9, 4, 95
2, 7666, Control_c, 9, 4, 112
2, 7667, End_track
0, 0, End_of_file
