0, 0, Header, 1, 2, 480
1, 0, Start_track
1, 0, Tempo, 652173
1, 0, Time_signature, 4, 2, 24, 8
1, 0, Key_signature, 0, "major"
1, 1, End_track
2, 0, Start_track
2, 0, Title_t, "Midi Drums"
2, 0, Program_c, 9, 0
2, 144, Note_on_c, 9, 51, 42
2, 218, Note_on_c, 9, 51, 0
2, 317, Note_on_c, 9, 51, 76
2, 321, Note_on_c, 9, 36, 69
2, 391, Note_on_c, 9, 51, 0
2, 395, Note_on_c, 9, 36, 0
2, 478, Note_on_c, 9, 38, 127
2, 483, Note_on_c, 9, 51, 127
2, 552, Note_on_c, 9, 38, 0
2, 557, Note_on_c, 9, 51, 0
2, 647, Note_on_c, 9, 51, 56
2, 722, Note_on_c, 9, 51, 0
2, 795, Note_on_c, 9, 36, 56
2, 808, Note_on_c, 9, 51, 88
2, 869, Note_on_c, 9, 36, 0
2, 882, Note_on_c, 9, 51, 0
2, 964, Note_on_c, 9, 36, 127
2, 968, Note_on_c, 9, 51, 89
2, 1038, Note_on_c, 9, 36, 0
2, 1043, Note_on_c, 9, 51, 0
2, 1283, Note_on_c, 9, 51, 71
2, 1295, Note_on_c, 9, 36, 76
2, 1357, Note_on_c, 9, 51, 0
2, 1369, Note_on_c, 9, 36, 0
2, 1454, Note_on_c, 9, 38, 127
2, 1457, Note_on_c, 9, 51, 127
2, 1528, Note_on_c, 9, 38, 0
2, 1532, Note_on_c, 9, 51, 0
2, 1629, Note_on_c, 9, 51, 27
2, 1704, Note_on_c, 9, 51, 0
2, 1750, Note_on_c, 9, 36, 75
2, 1757, Note_on_c, 9, 51, 72
2, 1824, Note_on_c, 9, 36, 0
2, 1832, Note_on_c, 9, 51, 0
2, 1924, Note_on_c, 9, 36, 127
2, 1929, Note_on_c, 9, 51, 105
2, 1998, Note_on_c, 9, 36, 0
2, 2003, Note_on_c, 9, 51, 0
2, 2228, Note_on_c, 9, 51, 72
2, 2257, Note_on_c, 9, 36, 88
2, 2303, Note_on_c, 9, 51, 0
2, 2331, Note_on_c, 9, 36, 0
2, 2397, Note_on_c, 9, 51, 127
2, 2399, Note_on_c, 9, 38, 127
2, 2472, Note_on_c, 9, 51, 0
2, 2473, Note_on_c, 9, 38, 0
2, 2572, Note_on_c, 9, 51, 42
2, 2646, Note_on_c, 9, 51, 0
2, 2711, Note_on_c, 9, 36, 76
2, 2722, Note_on_c, 9, 51, 81
2, 2785, Note_on_c, 9, 36, 0
2, 2797, Note_on_c, 9, 51, 0
2, 2878, Note_on_c, 9, 36, 127
2, 2882, Note_on_c, 9, 51, 93
2, 2953, Note_on_c, 9, 36, 0
2, 2956, Note_on_c, 9, 51, 0
2, 3188, Note_on_c, 9, 36, 86
2, 3194, Note_on_c, 9, 51, 77
2, 3262, Note_on_c, 9, 36, 0
2, 3268, Note_on_c, 9, 51, 0
2, 3363, Note_on_c, 9, 51, 127
2, 3364, Note_on_c, 9, 38, 127
2, 3437, Note_on_c, 9, 51, 0
2, 3438, Note_on_c, 9, 38, 0
2, 3520, Note_on_c, 9, 51, 43
2, 3594, Note_on_c, 9, 51, 0
2, 3654, Note_on_c, 9, 36, 96
2, 3668, Note_on_c, 9, 51, 96
2, 3729, Note_on_c, 9, 36, 0
2, 3742, Note_on_c, 9, 51, 0
2, 3829, Note_on_c, 9, 36, 127
2, 3832, Note_on_c, 9, 51, 127
2, 3903, Note_on_c, 9, 36, 0
2, 3906, Note_on_c, 9, 51, 0
2, 4161, Note_on_c, 9, 51, 64
2, 4172, Note_on_c, 9, 36, 98
2, 4235, Note_on_c, 9, 51, 0
2, 4246, Note_on_c, 9, 36, 0
2, 4328, Note_on_c, 9, 38, 127
2, 4328, Note_on_c, 9, 51, 127
2, 4402, Note_on_c, 9, 38, 0
2, 4402, Note_on_c, 9, 51, 0
2, 4504, Note_on_c, 9, 51, 59
2, 4578, Note_on_c, 9, 51, 0
2, 4630, Note_on_c, 9, 36, 92
2, 4643, Note_on_c, 9, 51, 101
2, 4704, Note_on_c, 9, 36, 0
2, 4717, Note_on_c, 9, 51, 0
2, 4796, Note_on_c, 9, 36, 127
2, 4804, Note_on_c, 9, 51, 127
2, 4871, Note_on_c, 9, 36, 0
2, 4879, Note_on_c, 9, 51, 0
2, 4973, Note_on_c, 9, 51, 19
2, 5048, Note_on_c, 9, 51, 0
2, 5112, Note_on_c, 9, 36, 107
2, 5119, Note_on_c, 9, 51, 71
2, 5185, Note_on_c, 9, 36, 0
2, 5193, Note_on_c, 9, 51, 0
2, 5279, Note_on_c, 9, 38, 127
2, 5281, Note_on_c, 9, 51, 127
2, 5353, Note_on_c, 9, 38, 0
2, 5356, Note_on_c, 9, 51, 0
2, 5447, Note_on_c, 9, 51, 58
2, 5521, Note_on_c, 9, 51, 0
2, 5585, Note_on_c, 9, 36, 95
2, 5586, Note_on_c, 9, 51, 96
2, 5659, Note_on_c, 9, 36, 0
2, 5660, Note_on_c, 9, 51, 0
2, 5745, Note_on_c, 9, 36, 127
2, 5746, Note_on_c, 9, 53, 127
2, 5818, Note_on_c, 9, 36, 0
2, 5821, Note_on_c, 9, 53, 0
2, 5911, Note_on_c, 9, 51, 47
2, 5985, Note_on_c, 9, 51, 0
2, 6069, Note_on_c, 9, 51, 54
2, 6079, Note_on_c, 9, 36, 84
2, 6143, Note_on_c, 9, 51, 0
2, 6153, Note_on_c, 9, 36, 0
2, 6245, Note_on_c, 9, 51, 127
2, 6246, Note_on_c, 9, 38, 127
2, 6319, Note_on_c, 9, 51, 0
2, 6320, Note_on_c, 9, 38, 0
2, 6407, Note_on_c, 9, 51, 70
2, 6481, Note_on_c, 9, 51, 0
2, 6553, Note_on_c, 9, 51, 67
2, 6554, Note_on_c, 9, 36, 103
2, 6627, Note_on_c, 9, 36, 0
2, 6627, Note_on_c, 9, 51, 0
2, 6724, Note_on_c, 9, 51, 127
2, 6798, Note_on_c, 9, 51, 0
2, 6879, Note_on_c, 9, 38, 127
2, 6953, Note_on_c, 9, 38, 0
2, 7023, Note_on_c, 9, 38, 127
2, 7097, Note_on_c, 9, 38, 0
2, 7178, Note_on_c, 9, 38, 127
2, 7252, Note_on_c, 9, 38, 0
2, 7329, Note_on_c, 9, 38, 125
2, 7403, Note_on_c, 9, 38, 0
2, 7490, Note_on_c, 9, 38, 118
2, 7564, Note_on_c, 9, 38, 0
2, 7565, End_track
0, 0, End_of_file
