0, 0, Header, 1, 2, 480
1, 0, Start_track
1, 0, Tempo, 588235
1, 0, Time_signature, 4, 2, 24, 8
1, 0, Key_signature, 0, "major"
1, 1, End_track
2, 0, Start_track
2, 0, Title_t, "Classic Studio Kit"
2, 0, Program_c, 9, 0
2, 0, Control_c, 9, 18, 0
2, 13, Control_c, 9, 4, 98
2, 54, Note_on_c, 9, 57, 58
2, 57, Note_on_c, 9, 48, 113
2, 136, Note_on_c, 9, 57, 0
2, 137, Note_on_c, 9, 48, 0
2, 148, Control_c, 9, 4, 86
2, 178, Note_on_c, 9, 57, 76
2, 196, Control_c, 9, 4, 54
2, 226, Control_c, 9, 4, 0
2, 261, Note_on_c, 9, 57, 0
2, 267, Note_on_c, 9, 44, 87
2, 270, Note_on_c, 9, 36, 57
2, 276, Control_c, 9, 4, 127
2, 308, Control_c, 9, 4, 97
2, 349, Note_on_c, 9, 44, 0
2, 352, Note_on_c, 9, 36, 0
2, 367, Control_c, 9, 4, 87
2, 427, Note_on_c, 9, 57, 99
2, 475, Control_c, 9, 4, 92
2, 509, Note_on_c, 9, 57, 0
2, 515, Note_on_c, 9, 36, 67
2, 538, Control_c, 9, 16, 0
2, 538, Note_on_c, 9, 40, 67
2, 598, Note_on_c, 9, 36, 0
2, 620, Note_on_c, 9, 40, 0
2, 649, Control_c, 9, 4, 84
2, 680, Control_c, 9, 4, 70
2, 719, Control_c, 9, 4, 0
2, 767, Note_on_c, 9, 44, 93
2, 776, Control_c, 9, 4, 127
2, 776, Note_on_c, 9, 57, 50
2, 809, Control_c, 9, 4, 102
2, 845, Control_c, 9, 4, 90
2, 850, Note_on_c, 9, 44, 0
2, 858, Note_on_c, 9, 57, 0
2, 885, Control_c, 9, 4, 86
2, 900, Note_on_c, 9, 36, 62
2, 906, Control_c, 9, 18, 0
2, 907, Note_on_c, 9, 48, 45
2, 983, Note_on_c, 9, 36, 0
2, 987, Control_c, 9, 4, 96
2, 988, Note_on_c, 9, 48, 0
2, 1014, Note_on_c, 9, 57, 72
2, 1023, Note_on_c, 9, 48, 72
2, 1096, Note_on_c, 9, 57, 0
2, 1104, Note_on_c, 9, 48, 0
2, 1134, Control_c, 9, 4, 83
2, 1143, Note_on_c, 9, 57, 77
2, 1169, Control_c, 9, 4, 56
2, 1204, Control_c, 9, 4, 0
2, 1227, Note_on_c, 9, 57, 0
2, 1241, Note_on_c, 9, 44, 87
2, 1247, Note_on_c, 9, 36, 61
2, 1252, Control_c, 9, 4, 127
2, 1283, Control_c, 9, 4, 97
2, 1323, Note_on_c, 9, 44, 0
2, 1328, Note_on_c, 9, 36, 0
2, 1337, Control_c, 9, 4, 86
2, 1441, Control_c, 9, 4, 91
2, 1492, Note_on_c, 9, 36, 65
2, 1503, Note_on_c, 9, 40, 65
2, 1505, Note_on_c, 9, 57, 81
2, 1574, Note_on_c, 9, 36, 0
2, 1585, Note_on_c, 9, 40, 0
2, 1587, Note_on_c, 9, 57, 0
2, 1615, Control_c, 9, 4, 84
2, 1645, Control_c, 9, 4, 70
2, 1681, Control_c, 9, 4, 0
2, 1727, Control_c, 9, 4, 48
2, 1732, Note_on_c, 9, 44, 106
2, 1733, Note_on_c, 9, 57, 76
2, 1758, Control_c, 9, 4, 120
2, 1799, Control_c, 9, 4, 93
2, 1815, Note_on_c, 9, 44, 0
2, 1815, Note_on_c, 9, 57, 0
2, 1849, Control_c, 9, 4, 84
2, 1861, Control_c, 9, 18, 0
2, 1861, Note_on_c, 9, 48, 42
2, 1863, Note_on_c, 9, 36, 57
2, 1935, Control_c, 9, 4, 96
2, 1944, Note_on_c, 9, 36, 0
2, 1944, Note_on_c, 9, 48, 0
2, 1970, Control_c, 9, 4, 92
2, 1979, Note_on_c, 9, 48, 68
2, 1980, Note_on_c, 9, 57, 55
2, 2024, Control_c, 9, 4, 96
2, 2061, Note_on_c, 9, 48, 0
2, 2061, Note_on_c, 9, 57, 0
2, 2091, Control_c, 9, 4, 84
2, 2102, Note_on_c, 9, 57, 63
2, 2122, Control_c, 9, 4, 69
2, 2162, Control_c, 9, 4, 0
2, 2184, Note_on_c, 9, 57, 0
2, 2206, Note_on_c, 9, 44, 93
2, 2208, Note_on_c, 9, 36, 57
2, 2217, Control_c, 9, 4, 127
2, 2248, Control_c, 9, 4, 98
2, 2289, Note_on_c, 9, 44, 0
2, 2290, Note_on_c, 9, 36, 0
2, 2302, Control_c, 9, 4, 86
2, 2341, Note_on_c, 9, 57, 77
2, 2410, Control_c, 9, 4, 92
2, 2424, Note_on_c, 9, 57, 0
2, 2449, Note_on_c, 9, 36, 65
2, 2461, Control_c, 9, 16, 0
2, 2462, Note_on_c, 9, 40, 71
2, 2530, Note_on_c, 9, 36, 0
2, 2542, Note_on_c, 9, 40, 0
2, 2599, Control_c, 9, 4, 70
2, 2643, Control_c, 9, 4, 8
2, 2676, Note_on_c, 9, 57, 93
2, 2679, Control_c, 9, 4, 48
2, 2685, Note_on_c, 9, 44, 87
2, 2710, Control_c, 9, 4, 120
2, 2743, Control_c, 9, 4, 97
2, 2759, Note_on_c, 9, 57, 0
2, 2766, Note_on_c, 9, 44, 0
2, 2779, Control_c, 9, 4, 85
2, 2813, Note_on_c, 9, 36, 57
2, 2818, Control_c, 9, 18, 0
2, 2819, Note_on_c, 9, 48, 39
2, 2893, Control_c, 9, 4, 97
2, 2894, Note_on_c, 9, 36, 0
2, 2900, Note_on_c, 9, 48, 0
2, 2921, Note_on_c, 9, 57, 51
2, 2931, Note_on_c, 9, 48, 68
2, 3004, Note_on_c, 9, 57, 0
2, 3012, Note_on_c, 9, 48, 0
2, 3025, Control_c, 9, 4, 84
2, 3046, Note_on_c, 9, 57, 72
2, 3071, Control_c, 9, 4, 54
2, 3102, Control_c, 9, 4, 0
2, 3128, Note_on_c, 9, 57, 0
2, 3145, Note_on_c, 9, 44, 87
2, 3155, Note_on_c, 9, 36, 49
2, 3156, Control_c, 9, 4, 127
2, 3187, Control_c, 9, 4, 97
2, 3227, Note_on_c, 9, 44, 0
2, 3236, Control_c, 9, 4, 85
2, 3238, Note_on_c, 9, 36, 0
2, 3333, Control_c, 9, 4, 90
2, 3399, Note_on_c, 9, 36, 65
2, 3405, Note_on_c, 9, 38, 59
2, 3405, Note_on_c, 9, 57, 79
2, 3481, Note_on_c, 9, 36, 0
2, 3486, Note_on_c, 9, 38, 0
2, 3488, Note_on_c, 9, 57, 0
2, 3501, Control_c, 9, 4, 84
2, 3531, Control_c, 9, 4, 70
2, 3567, Control_c, 9, 4, 0
2, 3624, Control_c, 9, 4, 35
2, 3630, Note_on_c, 9, 44, 113
2, 3648, Note_on_c, 9, 57, 75
2, 3654, Control_c, 9, 4, 120
2, 3685, Control_c, 9, 4, 97
2, 3712, Note_on_c, 9, 44, 0
2, 3725, Control_c, 9, 4, 85
2, 3731, Note_on_c, 9, 57, 0
2, 3767, Control_c, 9, 18, 0
2, 3767, Note_on_c, 9, 48, 42
2, 3768, Note_on_c, 9, 36, 54
2, 3829, Control_c, 9, 4, 91
2, 3849, Note_on_c, 9, 48, 0
2, 3850, Note_on_c, 9, 36, 0
2, 3886, Note_on_c, 9, 48, 68
2, 3929, Control_c, 9, 4, 95
2, 3966, Note_on_c, 9, 48, 0
2, 3999, Control_c, 9, 4, 84
2, 4006, Note_on_c, 9, 57, 78
2, 4042, Control_c, 9, 4, 53
2, 4073, Control_c, 9, 4, 0
2, 4088, Note_on_c, 9, 57, 0
2, 4115, Note_on_c, 9, 44, 87
2, 4120, Note_on_c, 9, 36, 52
2, 4121, Control_c, 9, 4, 108
2, 4157, Control_c, 9, 4, 97
2, 4197, Note_on_c, 9, 44, 0
2, 4202, Note_on_c, 9, 36, 0
2, 4208, Control_c, 9, 4, 86
2, 4249, Note_on_c, 9, 57, 76
2, 4308, Control_c, 9, 4, 92
2, 4331, Note_on_c, 9, 57, 0
2, 4363, Note_on_c, 9, 36, 65
2, 4371, Control_c, 9, 16, 0
2, 4372, Note_on_c, 9, 38, 60
2, 4446, Note_on_c, 9, 36, 0
2, 4453, Note_on_c, 9, 38, 0
2, 4473, Control_c, 9, 4, 85
2, 4508, Control_c, 9, 4, 70
2, 4550, Control_c, 9, 4, 0
2, 4597, Note_on_c, 9, 57, 68
2, 4599, Note_on_c, 9, 44, 93
2, 4607, Control_c, 9, 4, 126
2, 4640, Control_c, 9, 4, 98
2, 4679, Note_on_c, 9, 44, 0
2, 4679, Note_on_c, 9, 57, 0
2, 4693, Control_c, 9, 4, 86
2, 4725, Note_on_c, 9, 36, 54
2, 4733, Control_c, 9, 18, 0
2, 4733, Note_on_c, 9, 48, 40
2, 4784, Control_c, 9, 4, 92
2, 4808, Note_on_c, 9, 36, 0
2, 4814, Note_on_c, 9, 48, 0
2, 4845, Note_on_c, 9, 57, 64
2, 4853, Note_on_c, 9, 48, 71
2, 4927, Note_on_c, 9, 57, 0
2, 4934, Note_on_c, 9, 48, 0
2, 4949, Control_c, 9, 4, 85
2, 4973, Note_on_c, 9, 57, 72
2, 4997, Control_c, 9, 4, 54
2, 5029, Control_c, 9, 4, 0
2, 5056, Note_on_c, 9, 57, 0
2, 5069, Note_on_c, 9, 44, 87
2, 5075, Control_c, 9, 4, 110
2, 5078, Note_on_c, 9, 36, 57
2, 5111, Control_c, 9, 4, 96
2, 5151, Note_on_c, 9, 44, 0
2, 5160, Control_c, 9, 4, 85
2, 5160, Note_on_c, 9, 36, 0
2, 5258, Control_c, 9, 4, 90
2, 5317, Note_on_c, 9, 36, 64
2, 5324, Note_on_c, 9, 38, 60
2, 5328, Note_on_c, 9, 57, 88
2, 5399, Note_on_c, 9, 36, 0
2, 5404, Note_on_c, 9, 38, 0
2, 5410, Note_on_c, 9, 57, 0
2, 5425, Control_c, 9, 4, 83
2, 5459, Control_c, 9, 4, 70
2, 5496, Control_c, 9, 4, 0
2, 5551, Note_on_c, 9, 44, 100
2, 5561, Control_c, 9, 4, 127
2, 5569, Note_on_c, 9, 57, 82
2, 5593, Control_c, 9, 4, 98
2, 5634, Note_on_c, 9, 44, 0
2, 5645, Control_c, 9, 4, 86
2, 5652, Note_on_c, 9, 57, 0
2, 5691, Control_c, 9, 18, 0
2, 5691, Note_on_c, 9, 48, 44
2, 5695, Note_on_c, 9, 36, 57
2, 5740, Control_c, 9, 4, 91
2, 5773, Note_on_c, 9, 48, 0
2, 5776, Note_on_c, 9, 36, 0
2, 5813, Note_on_c, 9, 57, 56
2, 5815, Note_on_c, 9, 48, 68
2, 5896, Note_on_c, 9, 48, 0
2, 5896, Note_on_c, 9, 57, 0
2, 5923, Control_c, 9, 4, 84
2, 5935, Note_on_c, 9, 57, 78
2, 5966, Control_c, 9, 4, 52
2, 6000, Control_c, 9, 4, 0
2, 6017, Note_on_c, 9, 57, 0
2, 6038, Note_on_c, 9, 44, 80
2, 6038, Note_on_c, 9, 46, 49
2, 6042, Note_on_c, 9, 36, 54
2, 6043, Control_c, 9, 4, 110
2, 6079, Control_c, 9, 4, 97
2, 6119, Note_on_c, 9, 44, 0
2, 6119, Note_on_c, 9, 46, 0
2, 6123, Note_on_c, 9, 36, 0
2, 6133, Control_c, 9, 4, 86
2, 6184, Note_on_c, 9, 57, 83
2, 6245, Control_c, 9, 4, 91
2, 6267, Note_on_c, 9, 57, 0
2, 6282, Note_on_c, 9, 36, 58
2, 6299, Control_c, 9, 16, 0
2, 6300, Note_on_c, 9, 38, 55
2, 6364, Note_on_c, 9, 36, 0
2, 6380, Note_on_c, 9, 38, 0
2, 6395, Control_c, 9, 4, 84
2, 6433, Control_c, 9, 4, 70
2, 6474, Control_c, 9, 4, 0
2, 6521, Note_on_c, 9, 57, 71
2, 6523, Control_c, 9, 4, 50
2, 6528, Note_on_c, 9, 44, 106
2, 6553, Control_c, 9, 4, 118
2, 6583, Control_c, 9, 4, 97
2, 6603, Note_on_c, 9, 57, 0
2, 6610, Note_on_c, 9, 44, 0
2, 6625, Control_c, 9, 4, 86
2, 6654, Control_c, 9, 18, 0
2, 6654, Note_on_c, 9, 36, 53
2, 6655, Note_on_c, 9, 48, 38
2, 6720, Control_c, 9, 4, 91
2, 6735, Note_on_c, 9, 36, 0
2, 6736, Note_on_c, 9, 48, 0
2, 6768, Control_c, 9, 18, 21
2, 6769, Note_on_c, 9, 48, 66
2, 6769, Note_on_c, 9, 57, 79
2, 6850, Note_on_c, 9, 48, 0
2, 6851, Note_on_c, 9, 57, 0
2, 6889, Control_c, 9, 4, 84
2, 6897, Note_on_c, 9, 57, 78
2, 6935, Control_c, 9, 4, 54
2, 6969, Control_c, 9, 4, 0
2, 6978, Note_on_c, 9, 57, 0
2, 7001, Note_on_c, 9, 36, 58
2, 7005, Note_on_c, 9, 44, 80
2, 7015, Control_c, 9, 4, 124
2, 7047, Control_c, 9, 4, 98
2, 7083, Note_on_c, 9, 36, 0
2, 7086, Note_on_c, 9, 44, 0
2, 7096, Control_c, 9, 4, 84
2, 7192, Control_c, 9, 4, 89
2, 7245, Note_on_c, 9, 36, 64
2, 7250, Control_c, 9, 17, 0
2, 7250, Note_on_c, 9, 51, 116
2, 7257, Control_c, 9, 16, 127
2, 7258, Note_on_c, 9, 38, 68
2, 7301, Control_c, 9, 4, 94
2, 7328, Note_on_c, 9, 36, 0
2, 7333, Note_on_c, 9, 51, 0
2, 7339, Note_on_c, 9, 38, 0
2, 7375, Control_c, 9, 4, 82
2, 7404, Control_c, 9, 16, 0
2, 7405, Note_on_c, 9, 38, 8
2, 7412, Control_c, 9, 4, 56
2, 7446, Control_c, 9, 4, 0
2, 7479, Control_c, 9, 4, 49
2, 7484, Note_on_c, 9, 44, 87
2, 7487, Note_on_c, 9, 38, 0
2, 7498, Control_c, 9, 17, 0
2, 7498, Note_on_c, 9, 51, 100
2, 7510, Control_c, 9, 4, 120
2, 7541, Control_c, 9, 4, 97
2, 7567, Note_on_c, 9, 44, 0
2, 7577, Control_c, 9, 4, 84
2, 7581, Note_on_c, 9, 51, 0
2, 7627, Control_c, 9, 18, 0
2, 7628, End_track
0, 0, End_of_file
