0, 0, Header, 1, 2, 480
1, 0, Start_track
1, 0, Tempo, 638297
1, 0, Time_signature, 4, 2, 24, 8
1, 0, Key_signature, 0, "major"
1, 1, End_track
2, 0, Start_track
2, 0, Title_t, "Midi Drums"
2, 0, Program_c, 9, 0
2, 474, Note_on_c, 9, 40, 127
2, 550, Note_on_c, 9, 40, 0
2, 929, Note_on_c, 9, 36, 127
2, 1004, Note_on_c, 9, 36, 0
2, 1173, Note_on_c, 9, 48, 105
2, 1180, Note_on_c, 9, 43, 103
2, 1249, Note_on_c, 9, 48, 0
2, 1256, Note_on_c, 9, 43, 0
2, 1421, Note_on_c, 9, 48, 127
2, 1436, Note_on_c, 9, 43, 127
2, 1497, Note_on_c, 9, 48, 0
2, 1512, Note_on_c, 9, 43, 0
2, 1908, Note_on_c, 9, 36, 127
2, 1984, Note_on_c, 9, 36, 0
2, 2403, Note_on_c, 9, 40, 127
2, 2478, Note_on_c, 9, 40, 0
2, 2852, Note_on_c, 9, 36, 127
2, 2927, Note_on_c, 9, 36, 0
2, 3351, Note_on_c, 9, 40, 127
2, 3427, Note_on_c, 9, 40, 0
2, 3822, Note_on_c, 9, 36, 127
2, 3898, Note_on_c, 9, 36, 0
2, 4316, Note_on_c, 9, 40, 127
2, 4392, Note_on_c, 9, 40, 0
2, 4759, Note_on_c, 9, 36, 111
2, 4835, Note_on_c, 9, 36, 0
2, 4951, Note_on_c, 9, 36, 6
2, 5011, Note_on_c, 9, 43, 98
2, 5013, Note_on_c, 9, 48, 73
2, 5027, Note_on_c, 9, 36, 0
2, 5086, Note_on_c, 9, 43, 0
2, 5089, Note_on_c, 9, 48, 0
2, 5239, Note_on_c, 9, 36, 61
2, 5253, Note_on_c, 9, 48, 110
2, 5261, Note_on_c, 9, 43, 108
2, 5315, Note_on_c, 9, 36, 0
2, 5329, Note_on_c, 9, 48, 0
2, 5337, Note_on_c, 9, 43, 0
2, 5493, Note_on_c, 9, 43, 127
2, 5493, Note_on_c, 9, 48, 127
2, 5570, Note_on_c, 9, 43, 0
2, 5570, Note_on_c, 9, 48, 0
2, 5738, Note_on_c, 9, 36, 127
2, 5814, Note_on_c, 9, 36, 0
2, 6227, Note_on_c, 9, 36, 127
2, 6243, Note_on_c, 9, 40, 127
2, 6303, Note_on_c, 9, 36, 0
2, 6319, Note_on_c, 9, 40, 0
2, 6716, Note_on_c, 9, 36, 127
2, 6792, Note_on_c, 9, 36, 0
2, 7179, Note_on_c, 9, 36, 127
2, 7186, Note_on_c, 9, 40, 127
2, 7255, Note_on_c, 9, 36, 0
2, 7262, Note_on_c, 9, 40, 0
2, 7263, End_track
0, 0, End_of_file
