0, 0, Header, 1, 2, 480
1, 0, Start_track
1, 0, Tempo, 588235
1, 0, Time_signature, 4, 2, 24, 8
1, 0, Key_signature, 0, "major"
1, 1, End_track
2, 0, Start_track
2, 0, Title_t, "Classic Studio Kit"
2, 0, Program_c, 9, 0
2, 0, Control_c, 9, 18, 0
2, 22, Control_c, 9, 17, 56
2, 22, Note_on_c, 9, 51, 58
2, 34, Control_c, 9, 4, 118
2, 36, Note_on_c, 9, 48, 69
2, 90, Control_c, 9, 4, 112
2, 105, Note_on_c, 9, 51, 0
2, 117, Note_on_c, 9, 48, 0
2, 123, Control_c, 9, 4, 93
2, 156, Control_c, 9, 17, 58
2, 157, Note_on_c, 9, 51, 69
2, 168, Control_c, 9, 4, 69
2, 199, Control_c, 9, 4, 0
2, 239, Note_on_c, 9, 51, 0
2, 265, Note_on_c, 9, 44, 127
2, 266, Note_on_c, 9, 36, 61
2, 271, Control_c, 9, 4, 127
2, 315, Control_c, 9, 4, 118
2, 346, Note_on_c, 9, 44, 0
2, 348, Note_on_c, 9, 36, 0
2, 350, Control_c, 9, 4, 90
2, 492, Control_c, 9, 4, 95
2, 513, Note_on_c, 9, 36, 72
2, 517, Note_on_c, 9, 38, 84
2, 521, Control_c, 9, 17, 43
2, 521, Note_on_c, 9, 51, 78
2, 595, Note_on_c, 9, 36, 0
2, 598, Note_on_c, 9, 38, 0
2, 603, Control_c, 9, 4, 90
2, 603, Note_on_c, 9, 51, 0
2, 633, Control_c, 9, 4, 73
2, 682, Control_c, 9, 4, 0
2, 749, Note_on_c, 9, 44, 127
2, 756, Control_c, 9, 4, 127
2, 760, Control_c, 9, 17, 62
2, 760, Note_on_c, 9, 51, 69
2, 799, Control_c, 9, 4, 118
2, 831, Note_on_c, 9, 44, 0
2, 834, Control_c, 9, 4, 90
2, 843, Note_on_c, 9, 51, 0
2, 869, Control_c, 9, 4, 86
2, 877, Control_c, 9, 18, 0
2, 878, Note_on_c, 9, 48, 45
2, 882, Note_on_c, 9, 36, 45
2, 959, Note_on_c, 9, 48, 0
2, 963, Note_on_c, 9, 36, 0
2, 977, Control_c, 9, 4, 110
2, 998, Control_c, 9, 17, 127
2, 998, Note_on_c, 9, 51, 58
2, 1001, Note_on_c, 9, 48, 71
2, 1079, Note_on_c, 9, 51, 0
2, 1082, Note_on_c, 9, 48, 0
2, 1097, Control_c, 9, 4, 90
2, 1124, Control_c, 9, 17, 44
2, 1124, Note_on_c, 9, 51, 69
2, 1127, Control_c, 9, 4, 71
2, 1164, Control_c, 9, 4, 0
2, 1206, Note_on_c, 9, 51, 0
2, 1223, Note_on_c, 9, 36, 61
2, 1231, Note_on_c, 9, 44, 127
2, 1238, Control_c, 9, 4, 127
2, 1281, Control_c, 9, 4, 120
2, 1305, Note_on_c, 9, 36, 0
2, 1312, Note_on_c, 9, 44, 0
2, 1318, Control_c, 9, 4, 91
2, 1378, Control_c, 9, 17, 51
2, 1379, Note_on_c, 9, 51, 74
2, 1460, Note_on_c, 9, 51, 0
2, 1465, Control_c, 9, 4, 97
2, 1477, Note_on_c, 9, 36, 71
2, 1494, Control_c, 9, 16, 0
2, 1494, Note_on_c, 9, 38, 65
2, 1560, Note_on_c, 9, 36, 0
2, 1575, Note_on_c, 9, 38, 0
2, 1598, Control_c, 9, 4, 84
2, 1628, Control_c, 9, 4, 70
2, 1664, Control_c, 9, 4, 0
2, 1718, Control_c, 9, 4, 49
2, 1722, Note_on_c, 9, 44, 119
2, 1726, Control_c, 9, 17, 44
2, 1727, Note_on_c, 9, 51, 76
2, 1748, Control_c, 9, 4, 120
2, 1804, Note_on_c, 9, 44, 0
2, 1808, Note_on_c, 9, 51, 0
2, 1809, Control_c, 9, 4, 90
2, 1839, Note_on_c, 9, 36, 57
2, 1844, Control_c, 9, 4, 85
2, 1847, Control_c, 9, 18, 0
2, 1847, Note_on_c, 9, 48, 44
2, 1920, Note_on_c, 9, 36, 0
2, 1929, Note_on_c, 9, 48, 0
2, 1954, Control_c, 9, 4, 108
2, 1967, Control_c, 9, 17, 53
2, 1968, Note_on_c, 9, 51, 70
2, 1974, Note_on_c, 9, 48, 66
2, 2030, Control_c, 9, 4, 102
2, 2049, Note_on_c, 9, 51, 0
2, 2055, Note_on_c, 9, 48, 0
2, 2063, Control_c, 9, 4, 90
2, 2088, Control_c, 9, 17, 75
2, 2088, Note_on_c, 9, 51, 63
2, 2100, Control_c, 9, 4, 71
2, 2137, Control_c, 9, 4, 0
2, 2169, Note_on_c, 9, 51, 0
2, 2186, Control_c, 9, 4, 33
2, 2193, Note_on_c, 9, 36, 61
2, 2194, Note_on_c, 9, 44, 126
2, 2201, Control_c, 9, 17, 75
2, 2202, Note_on_c, 9, 51, 5
2, 2218, Control_c, 9, 4, 122
2, 2274, Note_on_c, 9, 36, 0
2, 2274, Note_on_c, 9, 44, 0
2, 2279, Control_c, 9, 4, 91
2, 2283, Note_on_c, 9, 51, 0
2, 2313, Control_c, 9, 4, 87
2, 2426, Control_c, 9, 4, 97
2, 2443, Note_on_c, 9, 36, 70
2, 2456, Note_on_c, 9, 38, 61
2, 2458, Control_c, 9, 17, 10
2, 2459, Note_on_c, 9, 51, 89
2, 2525, Note_on_c, 9, 36, 0
2, 2532, Control_c, 9, 4, 91
2, 2536, Note_on_c, 9, 38, 0
2, 2540, Note_on_c, 9, 51, 0
2, 2580, Control_c, 9, 4, 69
2, 2615, Control_c, 9, 4, 0
2, 2671, Control_c, 9, 4, 35
2, 2677, Note_on_c, 9, 44, 126
2, 2688, Control_c, 9, 17, 41
2, 2688, Note_on_c, 9, 51, 79
2, 2702, Control_c, 9, 4, 120
2, 2758, Note_on_c, 9, 44, 0
2, 2763, Control_c, 9, 4, 90
2, 2770, Note_on_c, 9, 51, 0
2, 2805, Note_on_c, 9, 36, 53
2, 2814, Control_c, 9, 18, 0
2, 2815, Note_on_c, 9, 48, 49
2, 2886, Note_on_c, 9, 36, 0
2, 2895, Note_on_c, 9, 48, 0
2, 2914, Control_c, 9, 4, 120
2, 2921, Control_c, 9, 17, 90
2, 2922, Note_on_c, 9, 51, 69
2, 2933, Note_on_c, 9, 48, 72
2, 2977, Control_c, 9, 4, 97
2, 3003, Note_on_c, 9, 51, 0
2, 3013, Control_c, 9, 4, 72
2, 3014, Note_on_c, 9, 48, 0
2, 3052, Control_c, 9, 17, 76
2, 3052, Note_on_c, 9, 51, 66
2, 3057, Control_c, 9, 4, 0
2, 3130, Note_on_c, 9, 46, 11
2, 3134, Note_on_c, 9, 51, 0
2, 3136, Control_c, 9, 4, 34
2, 3141, Note_on_c, 9, 36, 74
2, 3143, Note_on_c, 9, 44, 127
2, 3166, Control_c, 9, 4, 127
2, 3210, Control_c, 9, 4, 100
2, 3211, Note_on_c, 9, 46, 0
2, 3223, Note_on_c, 9, 36, 0
2, 3223, Note_on_c, 9, 44, 0
2, 3246, Control_c, 9, 4, 69
2, 3278, Control_c, 9, 4, 0
2, 3298, Control_c, 9, 17, 48
2, 3298, Note_on_c, 9, 51, 73
2, 3361, Note_on_c, 9, 46, 7
2, 3369, Control_c, 9, 4, 32
2, 3376, Note_on_c, 9, 44, 126
2, 3379, Note_on_c, 9, 51, 0
2, 3386, Note_on_c, 9, 36, 84
2, 3401, Control_c, 9, 4, 102
2, 3408, Control_c, 9, 16, 0
2, 3409, Note_on_c, 9, 38, 68
2, 3442, Note_on_c, 9, 46, 0
2, 3455, Control_c, 9, 4, 93
2, 3458, Note_on_c, 9, 44, 0
2, 3467, Note_on_c, 9, 36, 0
2, 3489, Note_on_c, 9, 38, 0
2, 3490, Control_c, 9, 4, 82
2, 3616, Control_c, 9, 4, 118
2, 3622, Control_c, 9, 17, 38
2, 3623, Note_on_c, 9, 51, 83
2, 3696, Control_c, 9, 4, 90
2, 3705, Note_on_c, 9, 51, 0
2, 3727, Control_c, 9, 4, 72
2, 3736, Note_on_c, 9, 36, 55
2, 3746, Control_c, 9, 18, 0
2, 3747, Note_on_c, 9, 48, 48
2, 3764, Control_c, 9, 4, 0
2, 3817, Note_on_c, 9, 36, 0
2, 3828, Note_on_c, 9, 48, 0
2, 3831, Note_on_c, 9, 46, 7
2, 3844, Note_on_c, 9, 44, 127
2, 3852, Control_c, 9, 4, 127
2, 3872, Note_on_c, 9, 48, 74
2, 3875, Control_c, 9, 17, 127
2, 3875, Note_on_c, 9, 51, 61
2, 3887, Control_c, 9, 4, 127
2, 3911, Note_on_c, 9, 46, 0
2, 3917, Control_c, 9, 4, 106
2, 3926, Note_on_c, 9, 44, 0
2, 3950, Control_c, 9, 4, 92
2, 3954, Note_on_c, 9, 48, 0
2, 3956, Note_on_c, 9, 51, 0
2, 3997, Control_c, 9, 17, 67
2, 3998, Note_on_c, 9, 51, 60
2, 4072, Control_c, 9, 4, 110
2, 4079, Note_on_c, 9, 51, 0
2, 4080, Note_on_c, 9, 36, 64
2, 4108, Control_c, 9, 4, 102
2, 4150, Control_c, 9, 4, 92
2, 4161, Note_on_c, 9, 36, 0
2, 4332, Note_on_c, 9, 36, 75
2, 4345, Control_c, 9, 17, 41
2, 4346, Note_on_c, 9, 51, 83
2, 4350, Note_on_c, 9, 38, 67
2, 4367, Control_c, 9, 4, 102
2, 4408, Control_c, 9, 4, 94
2, 4413, Note_on_c, 9, 36, 0
2, 4426, Note_on_c, 9, 51, 0
2, 4432, Note_on_c, 9, 38, 0
2, 4453, Control_c, 9, 4, 70
2, 4485, Control_c, 9, 4, 0
2, 4556, Note_on_c, 9, 46, 12
2, 4568, Note_on_c, 9, 44, 127
2, 4573, Control_c, 9, 4, 127
2, 4592, Control_c, 9, 17, 47
2, 4592, Note_on_c, 9, 51, 72
2, 4618, Control_c, 9, 4, 120
2, 4637, Note_on_c, 9, 46, 0
2, 4650, Note_on_c, 9, 44, 0
2, 4660, Control_c, 9, 4, 90
2, 4674, Note_on_c, 9, 51, 0
2, 4691, Control_c, 9, 4, 85
2, 4701, Control_c, 9, 18, 0
2, 4702, Note_on_c, 9, 48, 49
2, 4709, Note_on_c, 9, 36, 69
2, 4784, Note_on_c, 9, 48, 0
2, 4791, Note_on_c, 9, 36, 0
2, 4816, Control_c, 9, 4, 120
2, 4824, Control_c, 9, 17, 114
2, 4825, Note_on_c, 9, 51, 67
2, 4826, Note_on_c, 9, 48, 78
2, 4905, Note_on_c, 9, 51, 0
2, 4906, Note_on_c, 9, 48, 0
2, 4918, Control_c, 9, 4, 91
2, 4949, Control_c, 9, 4, 73
2, 4952, Control_c, 9, 17, 45
2, 4953, Note_on_c, 9, 51, 69
2, 4987, Control_c, 9, 4, 0
2, 5034, Note_on_c, 9, 51, 0
2, 5051, Note_on_c, 9, 36, 71
2, 5055, Note_on_c, 9, 46, 14
2, 5061, Control_c, 9, 4, 33
2, 5066, Note_on_c, 9, 44, 127
2, 5091, Control_c, 9, 4, 127
2, 5110, Note_on_c, 9, 49, 6
2, 5134, Note_on_c, 9, 36, 0
2, 5136, Note_on_c, 9, 46, 0
2, 5140, Control_c, 9, 4, 97
2, 5148, Note_on_c, 9, 44, 0
2, 5175, Control_c, 9, 4, 87
2, 5189, Control_c, 9, 17, 54
2, 5190, Note_on_c, 9, 51, 73
2, 5192, Note_on_c, 9, 49, 0
2, 5272, Note_on_c, 9, 51, 0
2, 5286, Note_on_c, 9, 36, 87
2, 5299, Control_c, 9, 4, 120
2, 5313, Control_c, 9, 16, 0
2, 5314, Note_on_c, 9, 38, 72
2, 5349, Control_c, 9, 4, 98
2, 5367, Note_on_c, 9, 36, 0
2, 5385, Control_c, 9, 4, 82
2, 5396, Note_on_c, 9, 38, 0
2, 5417, Control_c, 9, 4, 70
2, 5465, Control_c, 9, 4, 0
2, 5530, Control_c, 9, 4, 35
2, 5537, Note_on_c, 9, 44, 126
2, 5545, Control_c, 9, 17, 35
2, 5545, Note_on_c, 9, 51, 96
2, 5562, Control_c, 9, 4, 120
2, 5603, Control_c, 9, 4, 99
2, 5618, Note_on_c, 9, 44, 0
2, 5627, Note_on_c, 9, 51, 0
2, 5637, Control_c, 9, 4, 85
2, 5659, Note_on_c, 9, 36, 51
2, 5666, Control_c, 9, 18, 0
2, 5667, Note_on_c, 9, 48, 44
2, 5740, Note_on_c, 9, 36, 0
2, 5746, Note_on_c, 9, 48, 0
2, 5772, Control_c, 9, 4, 118
2, 5785, Control_c, 9, 17, 72
2, 5785, Note_on_c, 9, 48, 75
2, 5786, Note_on_c, 9, 51, 68
2, 5827, Control_c, 9, 4, 112
2, 5866, Note_on_c, 9, 48, 0
2, 5866, Note_on_c, 9, 51, 0
2, 5868, Control_c, 9, 4, 92
2, 5902, Control_c, 9, 4, 73
2, 5908, Control_c, 9, 17, 45
2, 5909, Note_on_c, 9, 51, 71
2, 5941, Control_c, 9, 4, 0
2, 5990, Note_on_c, 9, 51, 0
2, 6010, Note_on_c, 9, 44, 127
2, 6011, Note_on_c, 9, 36, 59
2, 6016, Control_c, 9, 4, 127
2, 6060, Control_c, 9, 4, 118
2, 6092, Note_on_c, 9, 44, 0
2, 6093, Note_on_c, 9, 36, 0
2, 6096, Control_c, 9, 4, 91
2, 6248, Control_c, 9, 4, 102
2, 6255, Control_c, 9, 17, 32
2, 6255, Note_on_c, 9, 51, 82
2, 6258, Note_on_c, 9, 38, 65
2, 6259, Note_on_c, 9, 36, 71
2, 6336, Note_on_c, 9, 51, 0
2, 6339, Note_on_c, 9, 38, 0
2, 6340, Note_on_c, 9, 36, 0
2, 6342, Control_c, 9, 4, 90
2, 6376, Control_c, 9, 4, 72
2, 6416, Control_c, 9, 4, 0
2, 6484, Note_on_c, 9, 46, 13
2, 6496, Note_on_c, 9, 44, 127
2, 6502, Control_c, 9, 4, 127
2, 6504, Control_c, 9, 17, 52
2, 6505, Note_on_c, 9, 51, 66
2, 6546, Control_c, 9, 4, 120
2, 6565, Note_on_c, 9, 46, 0
2, 6577, Note_on_c, 9, 44, 0
2, 6587, Note_on_c, 9, 51, 0
2, 6588, Control_c, 9, 4, 91
2, 6620, Control_c, 9, 18, 0
2, 6621, Note_on_c, 9, 48, 49
2, 6625, Note_on_c, 9, 36, 65
2, 6703, Note_on_c, 9, 48, 0
2, 6707, Note_on_c, 9, 36, 0
2, 6734, Control_c, 9, 4, 120
2, 6740, Control_c, 9, 17, 127
2, 6741, Note_on_c, 9, 51, 56
2, 6744, Note_on_c, 9, 48, 72
2, 6811, Control_c, 9, 4, 98
2, 6822, Note_on_c, 9, 51, 0
2, 6826, Note_on_c, 9, 48, 0
2, 6854, Control_c, 9, 4, 71
2, 6867, Control_c, 9, 17, 47
2, 6868, Note_on_c, 9, 51, 71
2, 6892, Control_c, 9, 4, 0
2, 6948, Note_on_c, 9, 51, 0
2, 6964, Note_on_c, 9, 46, 17
2, 6969, Control_c, 9, 4, 33
2, 6971, Note_on_c, 9, 36, 73
2, 6974, Note_on_c, 9, 44, 127
2, 7000, Control_c, 9, 4, 127
2, 7018, Note_on_c, 9, 49, 7
2, 7043, Control_c, 9, 4, 112
2, 7045, Note_on_c, 9, 46, 0
2, 7053, Note_on_c, 9, 36, 0
2, 7056, Note_on_c, 9, 44, 0
2, 7076, Control_c, 9, 4, 78
2, 7099, Control_c, 9, 17, 60
2, 7099, Note_on_c, 9, 51, 62
2, 7101, Note_on_c, 9, 49, 0
2, 7116, Control_c, 9, 4, 0
2, 7181, Note_on_c, 9, 51, 0
2, 7195, Note_on_c, 9, 46, 10
2, 7203, Control_c, 9, 4, 33
2, 7208, Note_on_c, 9, 36, 85
2, 7210, Note_on_c, 9, 44, 126
2, 7224, Control_c, 9, 16, 0
2, 7224, Note_on_c, 9, 38, 63
2, 7235, Control_c, 9, 4, 100
2, 7277, Note_on_c, 9, 46, 0
2, 7290, Note_on_c, 9, 36, 0
2, 7292, Note_on_c, 9, 44, 0
2, 7307, Note_on_c, 9, 38, 0
2, 7310, Control_c, 9, 4, 85
2, 7453, Control_c, 9, 17, 45
2, 7454, Note_on_c, 9, 51, 87
2, 7455, Control_c, 9, 4, 118
2, 7534, Control_c, 9, 4, 90
2, 7535, Note_on_c, 9, 51, 0
2, 7567, Control_c, 9, 4, 71
2, 7574, Note_on_c, 9, 36, 57
2, 7578, Control_c, 9, 18, 0
2, 7578, Note_on_c, 9, 48, 48
2, 7601, Control_c, 9, 4, 0
2, 7656, Note_on_c, 9, 36, 0
2, 7659, Note_on_c, 9, 48, 0
2, 7660, End_track
0, 0, End_of_file
