0, 0, Header, 1, 2, 480
1, 0, Start_track
1, 0, Tempo, 535714
1, 0, Time_signature, 4, 2, 24, 8
1, 0, Key_signature, 0, "major"
1, 1, End_track
2, 0, Start_track
2, 0, Title_t, "Midi Drums"
2, 0, Program_c, 9, 0
2, 0, Note_on_c, 9, 36, 53
2, 74, Note_on_c, 9, 36, 0
2, 239, Control_c, 9, 4, 90
2, 239, Note_on_c, 9, 22, 89
2, 329, Note_on_c, 9, 22, 0
2, 368, Control_c, 9, 4, 90
2, 368, Note_on_c, 9, 42, 127
2, 459, Note_on_c, 9, 42, 0
2, 496, Note_on_c, 9, 40, 127
2, 527, Control_c, 9, 4, 90
2, 527, Note_on_c, 9, 42, 31
2, 586, Note_on_c, 9, 40, 0
2, 617, Note_on_c, 9, 42, 0
2, 731, Control_c, 9, 4, 90
2, 731, Note_on_c, 9, 22, 98
2, 822, Note_on_c, 9, 22, 0
2, 822, Note_on_c, 9, 36, 43
2, 865, Control_c, 9, 4, 90
2, 865, Note_on_c, 9, 42, 98
2, 913, Note_on_c, 9, 36, 0
2, 956, Note_on_c, 9, 42, 0
2, 979, Control_c, 9, 4, 90
2, 979, Note_on_c, 9, 42, 25
2, 1069, Note_on_c, 9, 42, 0
2, 1114, Control_c, 9, 4, 90
2, 1114, Note_on_c, 9, 42, 78
2, 1189, Control_c, 9, 4, 90
2, 1204, Note_on_c, 9, 42, 0
2, 1221, Control_c, 9, 4, 90
2, 1221, Note_on_c, 9, 22, 127
2, 1312, Note_on_c, 9, 22, 0
2, 1352, Note_on_c, 9, 36, 44
2, 1442, Note_on_c, 9, 36, 0
2, 1457, Note_on_c, 9, 40, 127
2, 1548, Note_on_c, 9, 40, 0
2, 1622, Control_c, 9, 4, 90
2, 1622, Note_on_c, 9, 42, 25
2, 1698, Control_c, 9, 4, 90
2, 1698, Note_on_c, 9, 22, 114
2, 1712, Note_on_c, 9, 42, 0
2, 1789, Note_on_c, 9, 22, 0
2, 1811, Control_c, 9, 4, 90
2, 1811, Note_on_c, 9, 42, 127
2, 1902, Note_on_c, 9, 42, 0
2, 1939, Note_on_c, 9, 36, 45
2, 2030, Note_on_c, 9, 36, 0
2, 2164, Control_c, 9, 4, 90
2, 2164, Note_on_c, 9, 22, 124
2, 2255, Note_on_c, 9, 22, 0
2, 2288, Control_c, 9, 4, 90
2, 2288, Note_on_c, 9, 42, 127
2, 2289, Note_on_c, 9, 36, 40
2, 2378, Note_on_c, 9, 42, 0
2, 2380, Note_on_c, 9, 36, 0
2, 2410, Note_on_c, 9, 40, 127
2, 2500, Note_on_c, 9, 40, 0
2, 2641, Control_c, 9, 4, 90
2, 2641, Note_on_c, 9, 22, 101
2, 2732, Note_on_c, 9, 22, 0
2, 2765, Control_c, 9, 4, 90
2, 2765, Note_on_c, 9, 42, 127
2, 2768, Note_on_c, 9, 36, 26
2, 2856, Note_on_c, 9, 42, 0
2, 2857, Note_on_c, 9, 36, 0
2, 2874, Note_on_c, 9, 36, 43
2, 2964, Note_on_c, 9, 36, 0
2, 3016, Control_c, 9, 4, 90
2, 3016, Note_on_c, 9, 42, 107
2, 3094, Control_c, 9, 4, 90
2, 3107, Note_on_c, 9, 42, 0
2, 3128, Control_c, 9, 4, 90
2, 3128, Note_on_c, 9, 22, 127
2, 3219, Note_on_c, 9, 22, 0
2, 3250, Note_on_c, 9, 36, 41
2, 3340, Note_on_c, 9, 36, 0
2, 3365, Note_on_c, 9, 40, 127
2, 3455, Note_on_c, 9, 40, 0
2, 3599, Control_c, 9, 4, 90
2, 3599, Note_on_c, 9, 22, 126
2, 3690, Note_on_c, 9, 22, 0
2, 3726, Control_c, 9, 4, 90
2, 3726, Note_on_c, 9, 42, 127
2, 3743, Note_on_c, 9, 36, 19
2, 3817, Note_on_c, 9, 42, 0
2, 3833, Note_on_c, 9, 36, 0
2, 3852, Note_on_c, 9, 36, 44
2, 3943, Note_on_c, 9, 36, 0
2, 4041, Control_c, 9, 4, 24
2, 4076, Control_c, 9, 4, 64
2, 4078, Note_on_c, 9, 44, 65
2, 4081, Note_on_c, 9, 26, 127
2, 4106, Control_c, 9, 4, 90
2, 4168, Note_on_c, 9, 44, 0
2, 4171, Note_on_c, 9, 26, 0
2, 4209, Note_on_c, 9, 36, 43
2, 4216, Control_c, 9, 4, 90
2, 4216, Note_on_c, 9, 42, 98
2, 4299, Note_on_c, 9, 36, 0
2, 4307, Note_on_c, 9, 42, 0
2, 4328, Note_on_c, 9, 40, 127
2, 4418, Note_on_c, 9, 40, 0
2, 4507, Control_c, 9, 4, 74
2, 4557, Control_c, 9, 4, 90
2, 4557, Note_on_c, 9, 22, 117
2, 4648, Note_on_c, 9, 22, 0
2, 4676, Note_on_c, 9, 36, 25
2, 4685, Control_c, 9, 4, 90
2, 4685, Note_on_c, 9, 42, 127
2, 4767, Note_on_c, 9, 36, 0
2, 4776, Note_on_c, 9, 42, 0
2, 4803, Note_on_c, 9, 36, 41
2, 4893, Note_on_c, 9, 36, 0
2, 4924, Control_c, 9, 4, 90
2, 4924, Note_on_c, 9, 42, 98
2, 4977, Control_c, 9, 4, 74
2, 5012, Control_c, 9, 4, 59
2, 5015, Note_on_c, 9, 42, 0
2, 5017, Note_on_c, 9, 44, 32
2, 5028, Note_on_c, 9, 22, 127
2, 5045, Control_c, 9, 4, 90
2, 5107, Note_on_c, 9, 44, 0
2, 5119, Note_on_c, 9, 22, 0
2, 5157, Note_on_c, 9, 36, 41
2, 5189, Control_c, 9, 4, 90
2, 5189, Note_on_c, 9, 42, 53
2, 5248, Note_on_c, 9, 36, 0
2, 5276, Note_on_c, 9, 40, 127
2, 5280, Note_on_c, 9, 42, 0
2, 5367, Note_on_c, 9, 40, 0
2, 5424, Control_c, 9, 4, 90
2, 5424, Note_on_c, 9, 42, 61
2, 5515, Note_on_c, 9, 42, 0
2, 5517, Control_c, 9, 4, 90
2, 5517, Note_on_c, 9, 22, 96
2, 5607, Note_on_c, 9, 22, 0
2, 5641, Note_on_c, 9, 36, 20
2, 5650, Control_c, 9, 4, 90
2, 5650, Note_on_c, 9, 42, 127
2, 5731, Note_on_c, 9, 36, 0
2, 5741, Note_on_c, 9, 42, 0
2, 5759, Note_on_c, 9, 36, 53
2, 5849, Note_on_c, 9, 36, 0
2, 5866, Note_on_c, 9, 38, 124
2, 5884, Control_c, 9, 4, 58
2, 5916, Control_c, 9, 4, 0
2, 5957, Note_on_c, 9, 38, 0
2, 5965, Control_c, 9, 4, 66
2, 5967, Note_on_c, 9, 44, 67
2, 5976, Note_on_c, 9, 40, 127
2, 5995, Control_c, 9, 4, 90
2, 6058, Note_on_c, 9, 44, 0
2, 6067, Note_on_c, 9, 40, 0
2, 6109, Note_on_c, 9, 36, 56
2, 6144, Control_c, 9, 4, 25
2, 6176, Control_c, 9, 4, 0
2, 6200, Note_on_c, 9, 36, 0
2, 6214, Control_c, 9, 4, 49
2, 6218, Note_on_c, 9, 44, 67
2, 6227, Note_on_c, 9, 40, 127
2, 6246, Control_c, 9, 4, 90
2, 6309, Note_on_c, 9, 44, 0
2, 6318, Note_on_c, 9, 40, 0
2, 6355, Note_on_c, 9, 38, 127
2, 6402, Control_c, 9, 4, 26
2, 6435, Control_c, 9, 4, 54
2, 6439, Note_on_c, 9, 44, 50
2, 6445, Note_on_c, 9, 38, 0
2, 6467, Control_c, 9, 4, 90
2, 6530, Note_on_c, 9, 44, 0
2, 6585, Note_on_c, 9, 38, 83
2, 6618, Control_c, 9, 4, 42
2, 6654, Control_c, 9, 4, 0
2, 6676, Note_on_c, 9, 38, 0
2, 6690, Control_c, 9, 4, 49
2, 6694, Note_on_c, 9, 44, 72
2, 6706, Note_on_c, 9, 40, 127
2, 6721, Control_c, 9, 4, 90
2, 6784, Note_on_c, 9, 44, 0
2, 6797, Note_on_c, 9, 40, 0
2, 6841, Note_on_c, 9, 36, 51
2, 6877, Control_c, 9, 4, 58
2, 6908, Control_c, 9, 4, 21
2, 6931, Note_on_c, 9, 36, 0
2, 6941, Control_c, 9, 4, 70
2, 6943, Note_on_c, 9, 44, 35
2, 6971, Control_c, 9, 4, 90
2, 7034, Note_on_c, 9, 44, 0
2, 7091, Note_on_c, 9, 38, 127
2, 7112, Control_c, 9, 4, 74
2, 7143, Control_c, 9, 4, 13
2, 7181, Note_on_c, 9, 38, 0
2, 7182, Control_c, 9, 4, 56
2, 7185, Note_on_c, 9, 44, 65
2, 7207, Note_on_c, 9, 40, 127
2, 7213, Control_c, 9, 4, 90
2, 7276, Note_on_c, 9, 44, 0
2, 7297, Note_on_c, 9, 40, 0
2, 7324, Note_on_c, 9, 36, 57
2, 7376, Control_c, 9, 4, 44
2, 7414, Control_c, 9, 4, 68
2, 7415, Note_on_c, 9, 36, 0
2, 7417, Note_on_c, 9, 44, 27
2, 7446, Control_c, 9, 4, 90
2, 7508, Note_on_c, 9, 44, 0
2, 7509, End_track
0, 0, End_of_file
