0, 0, Header, 1, 2, 480
1, 0, Start_track
1, 0, Tempo, 588235
1, 0, Time_signature, 4, 2, 24, 8
1, 0, Key_signature, 0, "major"
1, 1, End_track
2, 0, Start_track
2, 0, Title_t, "Classic Studio Kit"
2, 0, Program_c, 9, 0
2, 0, Control_c, 9, 17, 71
2, 11, Control_c, 9, 4, 118
2, 32, Control_c, 9, 18, 0
2, 33, Note_on_c, 9, 48, 67
2, 35, Control_c, 9, 17, 127
2, 36, Note_on_c, 9, 51, 68
2, 97, Control_c, 9, 4, 91
2, 114, Note_on_c, 9, 48, 0
2, 117, Note_on_c, 9, 51, 0
2, 133, Control_c, 9, 4, 72
2, 171, Control_c, 9, 17, 76
2, 171, Note_on_c, 9, 51, 67
2, 172, Control_c, 9, 4, 0
2, 240, Note_on_c, 9, 46, 10
2, 245, Control_c, 9, 4, 17
2, 247, Note_on_c, 9, 36, 65
2, 252, Note_on_c, 9, 44, 127
2, 253, Note_on_c, 9, 51, 0
2, 278, Control_c, 9, 4, 127
2, 322, Note_on_c, 9, 46, 0
2, 327, Control_c, 9, 4, 102
2, 329, Note_on_c, 9, 36, 0
2, 334, Note_on_c, 9, 44, 0
2, 358, Control_c, 9, 4, 90
2, 413, Control_c, 9, 17, 31
2, 414, Note_on_c, 9, 51, 78
2, 489, Control_c, 9, 4, 110
2, 496, Note_on_c, 9, 36, 84
2, 496, Note_on_c, 9, 51, 0
2, 515, Control_c, 9, 16, 21
2, 516, Note_on_c, 9, 38, 69
2, 572, Control_c, 9, 4, 98
2, 579, Note_on_c, 9, 36, 0
2, 597, Note_on_c, 9, 38, 0
2, 610, Control_c, 9, 4, 83
2, 642, Control_c, 9, 4, 69
2, 675, Control_c, 9, 4, 0
2, 739, Note_on_c, 9, 44, 126
2, 745, Control_c, 9, 4, 127
2, 748, Control_c, 9, 17, 38
2, 748, Note_on_c, 9, 51, 83
2, 788, Control_c, 9, 4, 120
2, 820, Note_on_c, 9, 44, 0
2, 825, Control_c, 9, 4, 90
2, 830, Note_on_c, 9, 51, 0
2, 859, Note_on_c, 9, 36, 47
2, 862, Control_c, 9, 4, 85
2, 868, Note_on_c, 9, 48, 44
2, 941, Note_on_c, 9, 36, 0
2, 949, Note_on_c, 9, 48, 0
2, 960, Control_c, 9, 4, 108
2, 988, Control_c, 9, 17, 74
2, 988, Note_on_c, 9, 51, 75
2, 992, Control_c, 9, 18, 0
2, 992, Note_on_c, 9, 48, 74
2, 1001, Control_c, 9, 4, 112
2, 1046, Control_c, 9, 4, 102
2, 1070, Note_on_c, 9, 51, 0
2, 1074, Note_on_c, 9, 48, 0
2, 1077, Control_c, 9, 4, 90
2, 1110, Control_c, 9, 4, 73
2, 1117, Control_c, 9, 17, 43
2, 1118, Note_on_c, 9, 51, 69
2, 1151, Control_c, 9, 4, 0
2, 1199, Note_on_c, 9, 51, 0
2, 1209, Control_c, 9, 4, 32
2, 1214, Note_on_c, 9, 36, 54
2, 1215, Note_on_c, 9, 44, 127
2, 1240, Control_c, 9, 4, 124
2, 1282, Control_c, 9, 4, 102
2, 1295, Note_on_c, 9, 36, 0
2, 1297, Note_on_c, 9, 44, 0
2, 1315, Control_c, 9, 4, 89
2, 1453, Control_c, 9, 4, 102
2, 1471, Note_on_c, 9, 36, 58
2, 1476, Control_c, 9, 17, 7
2, 1476, Note_on_c, 9, 51, 94
2, 1480, Control_c, 9, 16, 0
2, 1480, Note_on_c, 9, 38, 70
2, 1553, Note_on_c, 9, 36, 0
2, 1557, Note_on_c, 9, 51, 0
2, 1561, Note_on_c, 9, 38, 0
2, 1563, Control_c, 9, 4, 90
2, 1601, Control_c, 9, 4, 74
2, 1643, Control_c, 9, 4, 0
2, 1702, Control_c, 9, 4, 33
2, 1709, Note_on_c, 9, 44, 127
2, 1715, Control_c, 9, 17, 57
2, 1715, Note_on_c, 9, 51, 82
2, 1734, Control_c, 9, 4, 120
2, 1790, Note_on_c, 9, 44, 0
2, 1797, Note_on_c, 9, 51, 0
2, 1799, Control_c, 9, 4, 91
2, 1830, Control_c, 9, 4, 87
2, 1836, Note_on_c, 9, 48, 49
2, 1843, Note_on_c, 9, 36, 48
2, 1918, Note_on_c, 9, 48, 0
2, 1925, Note_on_c, 9, 36, 0
2, 1947, Control_c, 9, 4, 114
2, 1958, Control_c, 9, 18, 0
2, 1959, Note_on_c, 9, 48, 66
2, 1963, Control_c, 9, 17, 70
2, 1963, Note_on_c, 9, 51, 75
2, 2039, Control_c, 9, 4, 91
2, 2040, Note_on_c, 9, 48, 0
2, 2045, Note_on_c, 9, 51, 0
2, 2088, Control_c, 9, 4, 70
2, 2090, Control_c, 9, 17, 62
2, 2090, Note_on_c, 9, 51, 71
2, 2120, Control_c, 9, 4, 0
2, 2172, Note_on_c, 9, 51, 0
2, 2184, Note_on_c, 9, 36, 64
2, 2185, Control_c, 9, 4, 33
2, 2191, Note_on_c, 9, 44, 127
2, 2216, Control_c, 9, 4, 127
2, 2252, Control_c, 9, 4, 118
2, 2266, Note_on_c, 9, 36, 0
2, 2273, Note_on_c, 9, 44, 0
2, 2290, Control_c, 9, 4, 90
2, 2329, Control_c, 9, 17, 63
2, 2330, Note_on_c, 9, 51, 63
2, 2410, Note_on_c, 9, 51, 0
2, 2419, Control_c, 9, 4, 106
2, 2427, Note_on_c, 9, 36, 80
2, 2428, Control_c, 9, 16, 21
2, 2428, Note_on_c, 9, 38, 74
2, 2490, Control_c, 9, 4, 98
2, 2509, Note_on_c, 9, 36, 0
2, 2509, Note_on_c, 9, 38, 0
2, 2528, Control_c, 9, 4, 84
2, 2560, Control_c, 9, 4, 70
2, 2599, Control_c, 9, 4, 0
2, 2664, Control_c, 9, 4, 35
2, 2670, Note_on_c, 9, 44, 127
2, 2680, Control_c, 9, 17, 71
2, 2681, Note_on_c, 9, 51, 95
2, 2695, Control_c, 9, 4, 120
2, 2752, Note_on_c, 9, 44, 0
2, 2758, Control_c, 9, 4, 91
2, 2762, Note_on_c, 9, 51, 0
2, 2793, Control_c, 9, 4, 87
2, 2801, Note_on_c, 9, 48, 42
2, 2803, Note_on_c, 9, 36, 46
2, 2882, Note_on_c, 9, 48, 0
2, 2886, Note_on_c, 9, 36, 0
2, 2908, Control_c, 9, 4, 112
2, 2926, Control_c, 9, 17, 70
2, 2926, Note_on_c, 9, 51, 77
2, 2927, Control_c, 9, 18, 0
2, 2927, Note_on_c, 9, 48, 69
2, 2994, Control_c, 9, 4, 94
2, 3008, Note_on_c, 9, 48, 0
2, 3008, Note_on_c, 9, 51, 0
2, 3041, Control_c, 9, 4, 71
2, 3049, Control_c, 9, 17, 47
2, 3050, Note_on_c, 9, 51, 68
2, 3079, Control_c, 9, 4, 0
2, 3130, Note_on_c, 9, 51, 0
2, 3135, Control_c, 9, 4, 35
2, 3141, Note_on_c, 9, 44, 126
2, 3146, Note_on_c, 9, 36, 51
2, 3166, Control_c, 9, 4, 127
2, 3200, Control_c, 9, 4, 116
2, 3224, Note_on_c, 9, 44, 0
2, 3229, Note_on_c, 9, 36, 0
2, 3238, Control_c, 9, 4, 91
2, 3383, Control_c, 9, 4, 102
2, 3398, Note_on_c, 9, 36, 58
2, 3401, Control_c, 9, 16, 21
2, 3401, Note_on_c, 9, 38, 68
2, 3402, Control_c, 9, 17, 35
2, 3403, Note_on_c, 9, 51, 86
2, 3464, Control_c, 9, 4, 96
2, 3480, Note_on_c, 9, 36, 0
2, 3482, Note_on_c, 9, 38, 0
2, 3482, Note_on_c, 9, 51, 0
2, 3506, Control_c, 9, 4, 83
2, 3537, Control_c, 9, 4, 69
2, 3570, Control_c, 9, 4, 0
2, 3628, Control_c, 9, 4, 32
2, 3634, Note_on_c, 9, 44, 126
2, 3636, Control_c, 9, 17, 53
2, 3637, Note_on_c, 9, 51, 83
2, 3659, Control_c, 9, 4, 120
2, 3715, Note_on_c, 9, 44, 0
2, 3717, Note_on_c, 9, 51, 0
2, 3731, Control_c, 9, 4, 91
2, 3751, Note_on_c, 9, 48, 49
2, 3764, Note_on_c, 9, 36, 45
2, 3833, Note_on_c, 9, 48, 0
2, 3845, Note_on_c, 9, 36, 0
2, 3870, Control_c, 9, 4, 120
2, 3875, Control_c, 9, 18, 0
2, 3876, Control_c, 9, 17, 71
2, 3876, Note_on_c, 9, 48, 64
2, 3878, Note_on_c, 9, 51, 74
2, 3923, Control_c, 9, 4, 114
2, 3958, Note_on_c, 9, 48, 0
2, 3959, Note_on_c, 9, 51, 0
2, 3970, Control_c, 9, 4, 89
2, 4002, Control_c, 9, 17, 46
2, 4003, Control_c, 9, 4, 72
2, 4003, Note_on_c, 9, 51, 68
2, 4039, Control_c, 9, 4, 0
2, 4083, Note_on_c, 9, 51, 0
2, 4097, Note_on_c, 9, 36, 67
2, 4103, Note_on_c, 9, 46, 8
2, 4110, Control_c, 9, 4, 34
2, 4115, Note_on_c, 9, 44, 127
2, 4141, Control_c, 9, 4, 126
2, 4180, Note_on_c, 9, 36, 0
2, 4185, Note_on_c, 9, 46, 0
2, 4194, Control_c, 9, 4, 97
2, 4197, Note_on_c, 9, 44, 0
2, 4238, Control_c, 9, 4, 85
2, 4250, Control_c, 9, 17, 71
2, 4251, Note_on_c, 9, 51, 76
2, 4332, Note_on_c, 9, 51, 0
2, 4337, Note_on_c, 9, 36, 82
2, 4342, Control_c, 9, 4, 112
2, 4357, Control_c, 9, 16, 0
2, 4358, Note_on_c, 9, 38, 73
2, 4373, Control_c, 9, 4, 112
2, 4418, Control_c, 9, 4, 96
2, 4420, Note_on_c, 9, 36, 0
2, 4439, Note_on_c, 9, 38, 0
2, 4454, Control_c, 9, 4, 83
2, 4487, Control_c, 9, 4, 69
2, 4520, Control_c, 9, 4, 0
2, 4588, Control_c, 9, 4, 35
2, 4593, Note_on_c, 9, 44, 127
2, 4599, Control_c, 9, 17, 50
2, 4599, Note_on_c, 9, 51, 83
2, 4619, Control_c, 9, 4, 122
2, 4667, Control_c, 9, 4, 98
2, 4675, Note_on_c, 9, 44, 0
2, 4681, Note_on_c, 9, 51, 0
2, 4707, Control_c, 9, 4, 85
2, 4717, Note_on_c, 9, 48, 42
2, 4724, Note_on_c, 9, 36, 48
2, 4797, Note_on_c, 9, 48, 0
2, 4806, Note_on_c, 9, 36, 0
2, 4824, Control_c, 9, 4, 114
2, 4839, Control_c, 9, 17, 80
2, 4839, Note_on_c, 9, 51, 73
2, 4841, Control_c, 9, 18, 0
2, 4842, Note_on_c, 9, 48, 70
2, 4899, Control_c, 9, 4, 100
2, 4922, Note_on_c, 9, 48, 0
2, 4922, Note_on_c, 9, 51, 0
2, 4937, Control_c, 9, 4, 86
2, 4968, Control_c, 9, 17, 61
2, 4969, Note_on_c, 9, 51, 69
2, 4970, Control_c, 9, 4, 70
2, 5006, Control_c, 9, 4, 0
2, 5049, Note_on_c, 9, 51, 0
2, 5055, Control_c, 9, 4, 33
2, 5058, Note_on_c, 9, 36, 60
2, 5062, Note_on_c, 9, 44, 119
2, 5088, Control_c, 9, 4, 122
2, 5140, Note_on_c, 9, 36, 0
2, 5144, Note_on_c, 9, 44, 0
2, 5149, Control_c, 9, 4, 91
2, 5283, Control_c, 9, 4, 96
2, 5308, Control_c, 9, 17, 29
2, 5308, Note_on_c, 9, 51, 86
2, 5311, Note_on_c, 9, 36, 55
2, 5316, Control_c, 9, 16, 21
2, 5317, Note_on_c, 9, 38, 66
2, 5390, Note_on_c, 9, 51, 0
2, 5394, Note_on_c, 9, 36, 0
2, 5398, Note_on_c, 9, 38, 0
2, 5407, Control_c, 9, 4, 90
2, 5459, Control_c, 9, 4, 69
2, 5489, Control_c, 9, 4, 0
2, 5541, Control_c, 9, 4, 33
2, 5548, Note_on_c, 9, 44, 119
2, 5559, Control_c, 9, 17, 60
2, 5560, Note_on_c, 9, 51, 75
2, 5573, Control_c, 9, 4, 120
2, 5630, Note_on_c, 9, 44, 0
2, 5636, Control_c, 9, 4, 91
2, 5642, Note_on_c, 9, 51, 0
2, 5670, Note_on_c, 9, 48, 51
2, 5671, Note_on_c, 9, 36, 45
2, 5751, Note_on_c, 9, 48, 0
2, 5754, Note_on_c, 9, 36, 0
2, 5779, Control_c, 9, 4, 114
2, 5795, Control_c, 9, 18, 0
2, 5796, Note_on_c, 9, 48, 65
2, 5803, Control_c, 9, 17, 88
2, 5803, Note_on_c, 9, 51, 70
2, 5816, Control_c, 9, 4, 118
2, 5850, Control_c, 9, 4, 99
2, 5877, Note_on_c, 9, 48, 0
2, 5885, Control_c, 9, 4, 83
2, 5885, Note_on_c, 9, 51, 0
2, 5916, Control_c, 9, 4, 70
2, 5923, Control_c, 9, 17, 53
2, 5924, Note_on_c, 9, 51, 76
2, 5950, Control_c, 9, 4, 0
2, 6006, Note_on_c, 9, 51, 0
2, 6019, Control_c, 9, 4, 18
2, 6021, Note_on_c, 9, 36, 69
2, 6025, Note_on_c, 9, 44, 127
2, 6051, Control_c, 9, 4, 127
2, 6068, Note_on_c, 9, 49, 7
2, 6091, Control_c, 9, 4, 112
2, 6103, Note_on_c, 9, 36, 0
2, 6107, Note_on_c, 9, 44, 0
2, 6122, Control_c, 9, 4, 78
2, 6149, Note_on_c, 9, 49, 0
2, 6162, Control_c, 9, 4, 0
2, 6166, Control_c, 9, 17, 97
2, 6167, Note_on_c, 9, 51, 68
2, 6205, Control_c, 9, 4, 0
2, 6206, Note_on_c, 9, 46, 24
2, 6243, Note_on_c, 9, 46, 0
2, 6243, Note_on_c, 9, 46, 15
2, 6248, Note_on_c, 9, 51, 0
2, 6253, Control_c, 9, 4, 49
2, 6258, Note_on_c, 9, 44, 126
2, 6264, Note_on_c, 9, 36, 78
2, 6272, Control_c, 9, 16, 0
2, 6273, Note_on_c, 9, 38, 67
2, 6284, Control_c, 9, 4, 116
2, 6288, Note_on_c, 9, 46, 0
2, 6335, Control_c, 9, 4, 95
2, 6341, Note_on_c, 9, 44, 0
2, 6348, Note_on_c, 9, 36, 0
2, 6354, Note_on_c, 9, 38, 0
2, 6380, Control_c, 9, 4, 85
2, 6493, Control_c, 9, 4, 120
2, 6512, Control_c, 9, 17, 61
2, 6513, Note_on_c, 9, 51, 83
2, 6574, Control_c, 9, 4, 91
2, 6594, Note_on_c, 9, 51, 0
2, 6607, Control_c, 9, 4, 72
2, 6620, Note_on_c, 9, 36, 45
2, 6628, Note_on_c, 9, 48, 48
2, 6647, Control_c, 9, 4, 0
2, 6702, Note_on_c, 9, 36, 0
2, 6710, Note_on_c, 9, 48, 0
2, 6714, Note_on_c, 9, 46, 9
2, 6722, Control_c, 9, 4, 33
2, 6728, Note_on_c, 9, 44, 127
2, 6747, Control_c, 9, 17, 127
2, 6748, Note_on_c, 9, 51, 57
2, 6749, Control_c, 9, 18, 0
2, 6750, Note_on_c, 9, 48, 68
2, 6753, Control_c, 9, 4, 127
2, 6786, Control_c, 9, 4, 118
2, 6795, Note_on_c, 9, 46, 0
2, 6810, Note_on_c, 9, 44, 0
2, 6826, Control_c, 9, 4, 92
2, 6828, Note_on_c, 9, 51, 0
2, 6831, Note_on_c, 9, 48, 0
2, 6870, Control_c, 9, 17, 46
2, 6870, Note_on_c, 9, 51, 68
2, 6952, Note_on_c, 9, 51, 0
2, 6959, Control_c, 9, 4, 110
2, 6973, Note_on_c, 9, 36, 59
2, 6984, Note_on_c, 9, 51, 5
2, 7019, Control_c, 9, 4, 94
2, 7055, Note_on_c, 9, 36, 0
2, 7066, Note_on_c, 9, 51, 0
2, 7219, Control_c, 9, 17, 46
2, 7219, Note_on_c, 9, 36, 74
2, 7220, Note_on_c, 9, 51, 99
2, 7225, Note_on_c, 9, 38, 76
2, 7245, Control_c, 9, 4, 100
2, 7300, Note_on_c, 9, 36, 0
2, 7300, Note_on_c, 9, 51, 0
2, 7306, Note_on_c, 9, 38, 0
2, 7326, Control_c, 9, 4, 87
2, 7357, Control_c, 9, 4, 71
2, 7394, Control_c, 9, 4, 0
2, 7458, Control_c, 9, 4, 34
2, 7463, Note_on_c, 9, 44, 127
2, 7473, Control_c, 9, 17, 84
2, 7473, Note_on_c, 9, 51, 79
2, 7489, Control_c, 9, 4, 127
2, 7545, Note_on_c, 9, 44, 0
2, 7546, Control_c, 9, 4, 92
2, 7555, Note_on_c, 9, 51, 0
2, 7577, Control_c, 9, 4, 88
2, 7583, Note_on_c, 9, 48, 43
2, 7594, Note_on_c, 9, 36, 52
2, 7664, Note_on_c, 9, 48, 0
2, 7675, Note_on_c, 9, 36, 0
2, 7676, End_track
0, 0, End_of_file
