0, 0, Header, 1, 2, 480
1, 0, Start_track
1, 0, Tempo, 545454
1, 0, Time_signature, 4, 2, 24, 8
1, 0, Key_signature, 0, "major"
1, 1, End_track
2, 0, Start_track
2, 0, Title_t, "TD-30 #9 Djembe"
2, 0, Program_c, 9, 0
2, 0, Control_c, 9, 16, 0
2, 15, Note_on_c, 9, 38, 56
2, 63, Note_on_c, 9, 38, 32
2, 84, Note_on_c, 9, 38, 0
2, 84, Note_on_c, 9, 38, 0
2, 145, Control_c, 9, 16, 0
2, 146, Note_on_c, 9, 38, 36
2, 149, Note_on_c, 9, 38, 0
2, 173, Control_c, 9, 18, 0
2, 174, Note_on_c, 9, 48, 38
2, 256, Note_on_c, 9, 36, 77
2, 262, Note_on_c, 9, 48, 0
2, 345, Note_on_c, 9, 36, 0
2, 483, Note_on_c, 9, 36, 82
2, 491, Note_on_c, 9, 38, 35
2, 572, Note_on_c, 9, 36, 0
2, 578, Note_on_c, 9, 38, 0
2, 712, Note_on_c, 9, 36, 97
2, 801, Note_on_c, 9, 36, 0
2, 819, Control_c, 9, 16, 0
2, 819, Note_on_c, 9, 38, 40
2, 907, Note_on_c, 9, 38, 0
2, 935, Note_on_c, 9, 36, 97
2, 1024, Note_on_c, 9, 36, 0
2, 1044, Control_c, 9, 4, 87
2, 1096, Control_c, 9, 4, 81
2, 1136, Control_c, 9, 4, 60
2, 1175, Control_c, 9, 4, 0
2, 1240, Control_c, 9, 4, 65
2, 1243, Note_on_c, 9, 44, 74
2, 1245, Note_on_c, 9, 46, 59
2, 1270, Control_c, 9, 4, 98
2, 1319, Control_c, 9, 4, 85
2, 1331, Note_on_c, 9, 44, 0
2, 1332, Note_on_c, 9, 46, 0
2, 1379, Control_c, 9, 4, 81
2, 1450, Note_on_c, 9, 48, 48
2, 1538, Note_on_c, 9, 48, 0
2, 1627, Note_on_c, 9, 40, 68
2, 1715, Note_on_c, 9, 40, 0
2, 1865, Control_c, 9, 4, 77
2, 1923, Note_on_c, 9, 36, 94
2, 1970, Control_c, 9, 16, 0
2, 1970, Note_on_c, 9, 38, 50
2, 2012, Note_on_c, 9, 36, 0
2, 2057, Note_on_c, 9, 38, 0
2, 2187, Note_on_c, 9, 36, 82
2, 2275, Note_on_c, 9, 36, 0
2, 2447, Note_on_c, 9, 36, 99
2, 2536, Note_on_c, 9, 36, 0
2, 2737, Control_c, 9, 18, 0
2, 2738, Note_on_c, 9, 48, 45
2, 2781, Control_c, 9, 4, 71
2, 2826, Note_on_c, 9, 48, 0
2, 2847, Control_c, 9, 4, 57
2, 2893, Control_c, 9, 4, 20
2, 2926, Note_on_c, 9, 38, 37
2, 2932, Control_c, 9, 4, 64
2, 2939, Note_on_c, 9, 46, 37
2, 2941, Note_on_c, 9, 44, 41
2, 2966, Control_c, 9, 4, 85
2, 3014, Note_on_c, 9, 38, 0
2, 3027, Note_on_c, 9, 46, 0
2, 3028, Note_on_c, 9, 44, 0
2, 3147, Control_c, 9, 4, 81
2, 3230, Control_c, 9, 16, 0
2, 3231, Note_on_c, 9, 38, 40
2, 3250, Control_c, 9, 16, 127
2, 3251, Note_on_c, 9, 38, 68
2, 3319, Note_on_c, 9, 38, 0
2, 3319, Note_on_c, 9, 38, 0
2, 3324, Control_c, 9, 4, 77
2, 3348, Control_c, 9, 16, 63
2, 3348, Note_on_c, 9, 38, 6
2, 3417, Control_c, 9, 16, 0
2, 3418, Note_on_c, 9, 38, 0
2, 3419, Note_on_c, 9, 38, 7
2, 3437, Note_on_c, 9, 38, 0
2, 3447, Note_on_c, 9, 38, 5
2, 3477, Control_c, 9, 4, 72
2, 3505, Note_on_c, 9, 38, 0
2, 3521, Note_on_c, 9, 38, 29
2, 3536, Note_on_c, 9, 38, 0
2, 3547, Control_c, 9, 4, 66
2, 3581, Control_c, 9, 4, 62
2, 3601, Note_on_c, 9, 38, 30
2, 3609, Note_on_c, 9, 38, 0
2, 3639, Note_on_c, 9, 46, 7
2, 3652, Control_c, 9, 4, 70
2, 3659, Control_c, 9, 16, 0
2, 3660, Note_on_c, 9, 38, 18
2, 3689, Note_on_c, 9, 38, 0
2, 3707, Note_on_c, 9, 38, 30
2, 3724, Note_on_c, 9, 38, 24
2, 3727, Note_on_c, 9, 46, 0
2, 3748, Note_on_c, 9, 38, 0
2, 3748, Note_on_c, 9, 38, 0
2, 3793, Control_c, 9, 16, 0
2, 3794, Note_on_c, 9, 38, 31
2, 3795, Note_on_c, 9, 38, 0
2, 3865, Note_on_c, 9, 38, 32
2, 3878, Note_on_c, 9, 48, 42
2, 3882, Note_on_c, 9, 38, 0
2, 3926, Note_on_c, 9, 38, 28
2, 3952, Note_on_c, 9, 38, 0
2, 3965, Note_on_c, 9, 48, 0
2, 3994, Note_on_c, 9, 38, 32
2, 4012, Note_on_c, 9, 38, 0
2, 4040, Control_c, 9, 16, 0
2, 4041, Note_on_c, 9, 38, 39
2, 4066, Note_on_c, 9, 38, 33
2, 4081, Note_on_c, 9, 38, 0
2, 4081, Note_on_c, 9, 38, 0
2, 4139, Note_on_c, 9, 38, 32
2, 4154, Note_on_c, 9, 38, 0
2, 4173, Control_c, 9, 4, 64
2, 4192, Control_c, 9, 16, 0
2, 4193, Note_on_c, 9, 38, 29
2, 4210, Note_on_c, 9, 38, 24
2, 4214, Control_c, 9, 4, 60
2, 4226, Note_on_c, 9, 38, 0
2, 4226, Note_on_c, 9, 38, 0
2, 4277, Note_on_c, 9, 38, 32
2, 4280, Note_on_c, 9, 38, 0
2, 4309, Note_on_c, 9, 46, 6
2, 4319, Control_c, 9, 4, 70
2, 4335, Control_c, 9, 16, 0
2, 4336, Note_on_c, 9, 38, 33
2, 4340, Control_c, 9, 18, 0
2, 4340, Note_on_c, 9, 45, 40
2, 4364, Note_on_c, 9, 38, 0
2, 4397, Note_on_c, 9, 46, 0
2, 4407, Note_on_c, 9, 38, 31
2, 4424, Note_on_c, 9, 38, 0
2, 4428, Note_on_c, 9, 45, 0
2, 4479, Note_on_c, 9, 38, 22
2, 4495, Note_on_c, 9, 38, 0
2, 4513, Control_c, 9, 16, 0
2, 4513, Note_on_c, 9, 38, 45
2, 4544, Control_c, 9, 16, 42
2, 4545, Note_on_c, 9, 38, 28
2, 4566, Note_on_c, 9, 38, 0
2, 4566, Note_on_c, 9, 38, 0
2, 4603, Control_c, 9, 16, 0
2, 4603, Note_on_c, 9, 38, 29
2, 4633, Note_on_c, 9, 38, 0
2, 4654, Note_on_c, 9, 38, 34
2, 4682, Note_on_c, 9, 38, 29
2, 4692, Note_on_c, 9, 38, 0
2, 4692, Note_on_c, 9, 38, 0
2, 4742, Control_c, 9, 16, 0
2, 4744, Note_on_c, 9, 38, 23
2, 4770, Note_on_c, 9, 38, 0
2, 4814, Control_c, 9, 18, 42
2, 4814, Note_on_c, 9, 38, 30
2, 4814, Note_on_c, 9, 43, 54
2, 4819, Note_on_c, 9, 36, 48
2, 4832, Note_on_c, 9, 38, 0
2, 4902, Note_on_c, 9, 43, 0
2, 4908, Note_on_c, 9, 36, 0
2, 4966, Note_on_c, 9, 38, 29
2, 5053, Note_on_c, 9, 36, 73
2, 5054, Note_on_c, 9, 38, 0
2, 5085, Control_c, 9, 4, 77
2, 5117, Control_c, 9, 16, 0
2, 5118, Note_on_c, 9, 38, 30
2, 5119, Control_c, 9, 4, 84
2, 5141, Note_on_c, 9, 36, 0
2, 5167, Control_c, 9, 4, 78
2, 5198, Control_c, 9, 4, 57
2, 5199, Note_on_c, 9, 46, 8
2, 5206, Note_on_c, 9, 38, 0
2, 5229, Control_c, 9, 4, 0
2, 5254, Control_c, 9, 17, 77
2, 5255, Note_on_c, 9, 51, 85
2, 5287, Note_on_c, 9, 46, 0
2, 5294, Control_c, 9, 4, 65
2, 5299, Note_on_c, 9, 46, 56
2, 5301, Note_on_c, 9, 44, 74
2, 5326, Control_c, 9, 4, 99
2, 5342, Note_on_c, 9, 51, 0
2, 5358, Control_c, 9, 4, 93
2, 5387, Note_on_c, 9, 46, 0
2, 5388, Note_on_c, 9, 44, 0
2, 5397, Control_c, 9, 4, 88
2, 5448, Note_on_c, 9, 38, 29
2, 5456, Control_c, 9, 4, 79
2, 5513, Control_c, 9, 4, 79
2, 5535, Note_on_c, 9, 38, 0
2, 5588, Control_c, 9, 16, 0
2, 5589, Note_on_c, 9, 38, 28
2, 5676, Note_on_c, 9, 38, 0
2, 5709, Control_c, 9, 4, 74
2, 5769, Control_c, 9, 18, 0
2, 5769, Note_on_c, 9, 45, 44
2, 5793, Note_on_c, 9, 40, 64
2, 5857, Note_on_c, 9, 45, 0
2, 5881, Note_on_c, 9, 40, 0
2, 5910, Note_on_c, 9, 38, 12
2, 5999, Note_on_c, 9, 38, 0
2, 6026, Control_c, 9, 16, 0
2, 6027, Note_on_c, 9, 38, 22
2, 6114, Note_on_c, 9, 38, 0
2, 6124, Note_on_c, 9, 38, 28
2, 6212, Note_on_c, 9, 38, 0
2, 6267, Note_on_c, 9, 38, 33
2, 6355, Note_on_c, 9, 38, 0
2, 6497, Control_c, 9, 16, 0
2, 6498, Note_on_c, 9, 40, 38
2, 6586, Note_on_c, 9, 40, 0
2, 6765, Note_on_c, 9, 36, 43
2, 6787, Control_c, 9, 16, 0
2, 6788, Note_on_c, 9, 38, 44
2, 6854, Note_on_c, 9, 36, 0
2, 6875, Note_on_c, 9, 38, 0
2, 6996, Note_on_c, 9, 36, 99
2, 7020, Control_c, 9, 4, 80
2, 7053, Control_c, 9, 4, 84
2, 7085, Note_on_c, 9, 36, 0
2, 7107, Control_c, 9, 4, 78
2, 7144, Control_c, 9, 4, 61
2, 7145, Note_on_c, 9, 46, 7
2, 7177, Control_c, 9, 4, 0
2, 7233, Note_on_c, 9, 46, 0
2, 7245, Control_c, 9, 4, 66
2, 7248, Note_on_c, 9, 46, 59
2, 7250, Note_on_c, 9, 44, 80
2, 7276, Control_c, 9, 4, 102
2, 7327, Control_c, 9, 4, 90
2, 7336, Note_on_c, 9, 46, 0
2, 7337, Note_on_c, 9, 44, 0
2, 7360, Control_c, 9, 4, 84
2, 7407, Control_c, 9, 4, 79
2, 7459, Control_c, 9, 4, 83
2, 7496, Control_c, 9, 4, 79
2, 7503, Control_c, 9, 16, 82
2, 7503, Note_on_c, 9, 40, 76
2, 7591, Note_on_c, 9, 40, 0
2, 7592, End_track
0, 0, End_of_file
