0, 0, Header, 1, 2, 480
1, 0, Start_track
1, 0, Tempo, 588235
1, 0, Time_signature, 4, 2, 24, 8
1, 0, Key_signature, 0, "major"
1, 1, End_track
2, 0, Start_track
2, 0, Title_t, "Classic Studio Kit"
2, 0, Program_c, 9, 0
2, 0, Control_c, 9, 18, 0
2, 20, Control_c, 9, 4, 112
2, 22, Control_c, 9, 17, 127
2, 23, Note_on_c, 9, 51, 54
2, 28, Note_on_c, 9, 48, 70
2, 88, Control_c, 9, 4, 102
2, 105, Note_on_c, 9, 51, 0
2, 109, Note_on_c, 9, 48, 0
2, 119, Control_c, 9, 4, 91
2, 149, Control_c, 9, 17, 112
2, 150, Note_on_c, 9, 51, 75
2, 160, Control_c, 9, 4, 73
2, 195, Control_c, 9, 4, 0
2, 230, Note_on_c, 9, 51, 0
2, 252, Control_c, 9, 4, 34
2, 257, Note_on_c, 9, 44, 127
2, 283, Control_c, 9, 4, 120
2, 340, Note_on_c, 9, 44, 0
2, 354, Control_c, 9, 4, 90
2, 479, Control_c, 9, 4, 97
2, 513, Control_c, 9, 17, 74
2, 514, Note_on_c, 9, 51, 92
2, 515, Control_c, 9, 16, 0
2, 515, Note_on_c, 9, 38, 71
2, 526, Note_on_c, 9, 36, 57
2, 536, Control_c, 9, 4, 102
2, 576, Control_c, 9, 4, 97
2, 595, Note_on_c, 9, 51, 0
2, 597, Note_on_c, 9, 38, 0
2, 608, Note_on_c, 9, 36, 0
2, 622, Control_c, 9, 4, 84
2, 657, Control_c, 9, 4, 70
2, 692, Control_c, 9, 4, 0
2, 747, Control_c, 9, 4, 34
2, 753, Note_on_c, 9, 44, 126
2, 757, Control_c, 9, 17, 127
2, 757, Note_on_c, 9, 51, 81
2, 779, Control_c, 9, 4, 120
2, 824, Control_c, 9, 4, 97
2, 835, Note_on_c, 9, 44, 0
2, 839, Note_on_c, 9, 51, 0
2, 863, Control_c, 9, 4, 85
2, 872, Control_c, 9, 18, 0
2, 873, Note_on_c, 9, 48, 49
2, 877, Note_on_c, 9, 36, 58
2, 954, Note_on_c, 9, 48, 0
2, 958, Note_on_c, 9, 36, 0
2, 988, Control_c, 9, 4, 112
2, 992, Control_c, 9, 17, 127
2, 993, Note_on_c, 9, 51, 50
2, 996, Note_on_c, 9, 48, 63
2, 1054, Control_c, 9, 4, 100
2, 1075, Note_on_c, 9, 51, 0
2, 1077, Note_on_c, 9, 48, 0
2, 1089, Control_c, 9, 4, 84
2, 1108, Control_c, 9, 17, 116
2, 1108, Note_on_c, 9, 51, 73
2, 1121, Control_c, 9, 4, 70
2, 1156, Control_c, 9, 4, 0
2, 1190, Note_on_c, 9, 51, 0
2, 1222, Note_on_c, 9, 36, 60
2, 1223, Note_on_c, 9, 46, 11
2, 1229, Control_c, 9, 4, 33
2, 1235, Note_on_c, 9, 44, 127
2, 1260, Control_c, 9, 4, 120
2, 1277, Note_on_c, 9, 49, 6
2, 1304, Note_on_c, 9, 36, 0
2, 1305, Note_on_c, 9, 46, 0
2, 1317, Note_on_c, 9, 44, 0
2, 1326, Control_c, 9, 4, 91
2, 1328, Control_c, 9, 17, 113
2, 1329, Note_on_c, 9, 51, 80
2, 1357, Control_c, 9, 4, 85
2, 1360, Note_on_c, 9, 49, 0
2, 1410, Note_on_c, 9, 51, 0
2, 1445, Control_c, 9, 17, 113
2, 1446, Note_on_c, 9, 51, 6
2, 1463, Control_c, 9, 16, 21
2, 1464, Note_on_c, 9, 38, 69
2, 1470, Note_on_c, 9, 36, 62
2, 1474, Control_c, 9, 4, 110
2, 1528, Note_on_c, 9, 51, 0
2, 1538, Control_c, 9, 4, 95
2, 1546, Note_on_c, 9, 38, 0
2, 1552, Note_on_c, 9, 36, 0
2, 1574, Control_c, 9, 4, 83
2, 1605, Control_c, 9, 4, 69
2, 1636, Control_c, 9, 4, 0
2, 1698, Control_c, 9, 17, 112
2, 1698, Note_on_c, 9, 51, 86
2, 1702, Control_c, 9, 4, 33
2, 1708, Note_on_c, 9, 44, 127
2, 1733, Control_c, 9, 4, 120
2, 1781, Note_on_c, 9, 51, 0
2, 1782, Control_c, 9, 4, 95
2, 1790, Note_on_c, 9, 44, 0
2, 1813, Control_c, 9, 17, 112
2, 1813, Note_on_c, 9, 51, 7
2, 1814, Control_c, 9, 18, 0
2, 1815, Note_on_c, 9, 48, 47
2, 1824, Control_c, 9, 4, 84
2, 1829, Note_on_c, 9, 36, 62
2, 1895, Note_on_c, 9, 48, 0
2, 1895, Note_on_c, 9, 51, 0
2, 1911, Note_on_c, 9, 36, 0
2, 1941, Control_c, 9, 4, 116
2, 1941, Note_on_c, 9, 48, 62
2, 1946, Control_c, 9, 17, 127
2, 1946, Note_on_c, 9, 51, 59
2, 2000, Control_c, 9, 4, 100
2, 2022, Note_on_c, 9, 48, 0
2, 2027, Note_on_c, 9, 51, 0
2, 2035, Control_c, 9, 4, 85
2, 2069, Control_c, 9, 4, 70
2, 2071, Control_c, 9, 17, 123
2, 2071, Note_on_c, 9, 51, 71
2, 2102, Control_c, 9, 4, 0
2, 2153, Note_on_c, 9, 51, 0
2, 2168, Control_c, 9, 4, 32
2, 2173, Note_on_c, 9, 36, 48
2, 2175, Note_on_c, 9, 44, 126
2, 2200, Control_c, 9, 4, 116
2, 2240, Control_c, 9, 4, 102
2, 2256, Note_on_c, 9, 36, 0
2, 2256, Note_on_c, 9, 44, 0
2, 2273, Control_c, 9, 4, 89
2, 2402, Control_c, 9, 4, 96
2, 2417, Control_c, 9, 17, 72
2, 2417, Note_on_c, 9, 51, 92
2, 2422, Note_on_c, 9, 36, 62
2, 2424, Control_c, 9, 16, 21
2, 2425, Note_on_c, 9, 38, 65
2, 2499, Note_on_c, 9, 51, 0
2, 2504, Note_on_c, 9, 36, 0
2, 2506, Note_on_c, 9, 38, 0
2, 2514, Control_c, 9, 4, 90
2, 2564, Control_c, 9, 4, 69
2, 2597, Control_c, 9, 4, 0
2, 2655, Control_c, 9, 4, 32
2, 2661, Note_on_c, 9, 44, 126
2, 2672, Control_c, 9, 17, 95
2, 2672, Note_on_c, 9, 51, 76
2, 2687, Control_c, 9, 4, 120
2, 2735, Control_c, 9, 4, 95
2, 2742, Note_on_c, 9, 44, 0
2, 2753, Note_on_c, 9, 51, 0
2, 2776, Control_c, 9, 4, 84
2, 2783, Control_c, 9, 18, 0
2, 2784, Note_on_c, 9, 48, 51
2, 2787, Note_on_c, 9, 36, 42
2, 2865, Note_on_c, 9, 48, 0
2, 2870, Note_on_c, 9, 36, 0
2, 2895, Control_c, 9, 17, 127
2, 2896, Note_on_c, 9, 51, 54
2, 2897, Control_c, 9, 4, 116
2, 2903, Note_on_c, 9, 48, 65
2, 2969, Control_c, 9, 4, 91
2, 2978, Note_on_c, 9, 51, 0
2, 2984, Note_on_c, 9, 48, 0
2, 3002, Control_c, 9, 4, 72
2, 3024, Control_c, 9, 17, 104
2, 3024, Note_on_c, 9, 51, 70
2, 3038, Control_c, 9, 4, 0
2, 3106, Note_on_c, 9, 51, 0
2, 3113, Note_on_c, 9, 46, 10
2, 3121, Control_c, 9, 4, 35
2, 3126, Note_on_c, 9, 44, 127
2, 3127, Note_on_c, 9, 36, 59
2, 3152, Control_c, 9, 4, 127
2, 3194, Note_on_c, 9, 46, 0
2, 3197, Control_c, 9, 4, 98
2, 3208, Note_on_c, 9, 36, 0
2, 3208, Note_on_c, 9, 44, 0
2, 3235, Control_c, 9, 4, 70
2, 3272, Control_c, 9, 4, 0
2, 3350, Note_on_c, 9, 46, 16
2, 3358, Control_c, 9, 4, 32
2, 3364, Note_on_c, 9, 44, 127
2, 3365, Control_c, 9, 16, 0
2, 3365, Note_on_c, 9, 38, 67
2, 3368, Control_c, 9, 17, 127
2, 3369, Note_on_c, 9, 51, 72
2, 3375, Note_on_c, 9, 36, 83
2, 3389, Control_c, 9, 4, 114
2, 3432, Note_on_c, 9, 46, 0
2, 3440, Control_c, 9, 4, 91
2, 3445, Note_on_c, 9, 44, 0
2, 3446, Note_on_c, 9, 38, 0
2, 3449, Note_on_c, 9, 51, 0
2, 3457, Note_on_c, 9, 36, 0
2, 3482, Control_c, 9, 4, 78
2, 3546, Control_c, 9, 4, 82
2, 3600, Control_c, 9, 4, 120
2, 3614, Control_c, 9, 17, 91
2, 3614, Note_on_c, 9, 51, 72
2, 3675, Control_c, 9, 4, 90
2, 3696, Note_on_c, 9, 51, 0
2, 3706, Control_c, 9, 4, 74
2, 3731, Control_c, 9, 18, 0
2, 3731, Note_on_c, 9, 48, 46
2, 3736, Note_on_c, 9, 36, 57
2, 3747, Control_c, 9, 4, 0
2, 3813, Note_on_c, 9, 48, 0
2, 3817, Note_on_c, 9, 36, 0
2, 3820, Note_on_c, 9, 46, 7
2, 3828, Control_c, 9, 4, 33
2, 3834, Note_on_c, 9, 44, 127
2, 3853, Note_on_c, 9, 48, 65
2, 3859, Control_c, 9, 4, 122
2, 3884, Control_c, 9, 17, 53
2, 3884, Note_on_c, 9, 51, 65
2, 3891, Control_c, 9, 4, 112
2, 3902, Note_on_c, 9, 46, 0
2, 3915, Note_on_c, 9, 44, 0
2, 3923, Control_c, 9, 4, 92
2, 3935, Note_on_c, 9, 48, 0
2, 3965, Note_on_c, 9, 51, 0
2, 3998, Control_c, 9, 17, 80
2, 3999, Note_on_c, 9, 51, 59
2, 4049, Control_c, 9, 4, 102
2, 4080, Control_c, 9, 4, 102
2, 4080, Note_on_c, 9, 51, 0
2, 4083, Note_on_c, 9, 36, 54
2, 4120, Control_c, 9, 4, 92
2, 4164, Note_on_c, 9, 36, 0
2, 4347, Control_c, 9, 17, 90
2, 4347, Note_on_c, 9, 51, 89
2, 4349, Control_c, 9, 16, 0
2, 4350, Note_on_c, 9, 36, 64
2, 4350, Note_on_c, 9, 38, 75
2, 4370, Control_c, 9, 4, 99
2, 4428, Note_on_c, 9, 51, 0
2, 4429, Note_on_c, 9, 38, 0
2, 4431, Note_on_c, 9, 36, 0
2, 4446, Control_c, 9, 4, 85
2, 4479, Control_c, 9, 4, 70
2, 4512, Control_c, 9, 4, 0
2, 4576, Control_c, 9, 4, 33
2, 4583, Note_on_c, 9, 44, 127
2, 4588, Control_c, 9, 17, 127
2, 4588, Note_on_c, 9, 51, 79
2, 4608, Control_c, 9, 4, 120
2, 4653, Control_c, 9, 4, 96
2, 4664, Note_on_c, 9, 44, 0
2, 4670, Note_on_c, 9, 51, 0
2, 4696, Control_c, 9, 4, 87
2, 4702, Control_c, 9, 18, 0
2, 4702, Note_on_c, 9, 48, 46
2, 4710, Note_on_c, 9, 36, 46
2, 4785, Note_on_c, 9, 48, 0
2, 4793, Note_on_c, 9, 36, 0
2, 4803, Control_c, 9, 4, 108
2, 4814, Control_c, 9, 17, 0
2, 4815, Note_on_c, 9, 51, 51
2, 4832, Note_on_c, 9, 48, 62
2, 4833, Control_c, 9, 4, 112
2, 4872, Control_c, 9, 4, 102
2, 4896, Note_on_c, 9, 51, 0
2, 4908, Control_c, 9, 4, 90
2, 4913, Note_on_c, 9, 48, 0
2, 4948, Control_c, 9, 17, 127
2, 4949, Control_c, 9, 4, 74
2, 4949, Note_on_c, 9, 51, 71
2, 4990, Control_c, 9, 4, 0
2, 5030, Note_on_c, 9, 51, 0
2, 5047, Control_c, 9, 4, 35
2, 5052, Note_on_c, 9, 36, 53
2, 5055, Note_on_c, 9, 44, 126
2, 5079, Control_c, 9, 4, 120
2, 5096, Note_on_c, 9, 49, 5
2, 5135, Note_on_c, 9, 36, 0
2, 5135, Note_on_c, 9, 44, 0
2, 5139, Control_c, 9, 4, 91
2, 5179, Note_on_c, 9, 49, 0
2, 5188, Control_c, 9, 17, 50
2, 5188, Note_on_c, 9, 51, 85
2, 5269, Note_on_c, 9, 51, 0
2, 5279, Control_c, 9, 4, 98
2, 5302, Note_on_c, 9, 36, 64
2, 5312, Control_c, 9, 16, 21
2, 5313, Note_on_c, 9, 38, 67
2, 5385, Note_on_c, 9, 36, 0
2, 5395, Note_on_c, 9, 38, 0
2, 5404, Control_c, 9, 4, 85
2, 5438, Control_c, 9, 4, 70
2, 5481, Control_c, 9, 4, 0
2, 5531, Control_c, 9, 4, 33
2, 5538, Note_on_c, 9, 44, 119
2, 5543, Control_c, 9, 17, 115
2, 5544, Note_on_c, 9, 51, 76
2, 5563, Control_c, 9, 4, 120
2, 5607, Control_c, 9, 4, 96
2, 5620, Note_on_c, 9, 44, 0
2, 5625, Note_on_c, 9, 51, 0
2, 5645, Control_c, 9, 4, 84
2, 5660, Control_c, 9, 18, 0
2, 5661, Note_on_c, 9, 36, 50
2, 5661, Note_on_c, 9, 48, 45
2, 5743, Note_on_c, 9, 36, 0
2, 5743, Note_on_c, 9, 48, 0
2, 5754, Control_c, 9, 4, 95
2, 5782, Control_c, 9, 17, 127
2, 5783, Note_on_c, 9, 51, 58
2, 5787, Note_on_c, 9, 48, 62
2, 5849, Control_c, 9, 4, 90
2, 5865, Note_on_c, 9, 51, 0
2, 5868, Note_on_c, 9, 48, 0
2, 5922, Control_c, 9, 17, 127
2, 5922, Note_on_c, 9, 51, 73
2, 5963, Control_c, 9, 4, 94
2, 6004, Note_on_c, 9, 51, 0
2, 6140, Control_c, 9, 4, 84
2, 6170, Control_c, 9, 4, 68
2, 6200, Control_c, 9, 4, 0
2, 6252, Control_c, 9, 4, 32
2, 6259, Note_on_c, 9, 44, 113
2, 6269, Control_c, 9, 16, 0
2, 6270, Note_on_c, 9, 38, 77
2, 6271, Control_c, 9, 17, 71
2, 6272, Note_on_c, 9, 36, 67
2, 6272, Note_on_c, 9, 51, 93
2, 6284, Control_c, 9, 4, 114
2, 6321, Control_c, 9, 4, 99
2, 6341, Note_on_c, 9, 44, 0
2, 6350, Note_on_c, 9, 38, 0
2, 6353, Note_on_c, 9, 51, 0
2, 6354, Note_on_c, 9, 36, 0
2, 6363, Control_c, 9, 4, 85
2, 6483, Control_c, 9, 4, 108
2, 6504, Control_c, 9, 17, 127
2, 6505, Note_on_c, 9, 51, 82
2, 6583, Control_c, 9, 4, 91
2, 6586, Note_on_c, 9, 51, 0
2, 6616, Note_on_c, 9, 36, 60
2, 6624, Control_c, 9, 18, 0
2, 6625, Control_c, 9, 4, 75
2, 6625, Note_on_c, 9, 48, 47
2, 6666, Control_c, 9, 4, 0
2, 6697, Note_on_c, 9, 36, 0
2, 6705, Note_on_c, 9, 48, 0
2, 6732, Control_c, 9, 4, 35
2, 6737, Note_on_c, 9, 44, 127
2, 6745, Control_c, 9, 17, 0
2, 6746, Note_on_c, 9, 51, 44
2, 6751, Note_on_c, 9, 48, 62
2, 6763, Control_c, 9, 4, 127
2, 6801, Control_c, 9, 4, 104
2, 6820, Note_on_c, 9, 44, 0
2, 6828, Note_on_c, 9, 51, 0
2, 6832, Control_c, 9, 4, 90
2, 6833, Note_on_c, 9, 48, 0
2, 6874, Control_c, 9, 17, 101
2, 6875, Note_on_c, 9, 51, 73
2, 6947, Control_c, 9, 4, 98
2, 6957, Note_on_c, 9, 51, 0
2, 6980, Note_on_c, 9, 36, 55
2, 6985, Control_c, 9, 4, 102
2, 6990, Control_c, 9, 17, 101
2, 6990, Note_on_c, 9, 51, 5
2, 7028, Control_c, 9, 4, 92
2, 7063, Note_on_c, 9, 36, 0
2, 7071, Note_on_c, 9, 51, 0
2, 7130, Control_c, 9, 17, 100
2, 7130, Note_on_c, 9, 51, 79
2, 7212, Note_on_c, 9, 51, 0
2, 7219, Note_on_c, 9, 36, 67
2, 7246, Control_c, 9, 16, 21
2, 7247, Note_on_c, 9, 38, 69
2, 7302, Note_on_c, 9, 36, 0
2, 7328, Note_on_c, 9, 38, 0
2, 7343, Control_c, 9, 4, 85
2, 7373, Control_c, 9, 4, 69
2, 7414, Control_c, 9, 4, 0
2, 7458, Control_c, 9, 4, 51
2, 7463, Note_on_c, 9, 44, 106
2, 7473, Control_c, 9, 17, 127
2, 7473, Note_on_c, 9, 51, 72
2, 7488, Control_c, 9, 4, 120
2, 7533, Control_c, 9, 4, 96
2, 7545, Note_on_c, 9, 44, 0
2, 7555, Note_on_c, 9, 51, 0
2, 7574, Control_c, 9, 4, 84
2, 7588, Control_c, 9, 18, 0
2, 7588, Note_on_c, 9, 48, 41
2, 7597, Note_on_c, 9, 36, 59
2, 7635, Control_c, 9, 4, 88
2, 7670, Note_on_c, 9, 48, 0
2, 7679, Note_on_c, 9, 36, 0
2, 7680, End_track
0, 0, End_of_file
