0, 0, Header, 1, 2, 480
1, 0, Start_track
1, 0, Tempo, 588235
1, 0, Time_signature, 4, 2, 24, 8
1, 0, Key_signature, 0, "major"
1, 1, End_track
2, 0, Start_track
2, 0, Title_t, "Classic Studio Kit"
2, 0, Program_c, 9, 0
2, 0, Control_c, 9, 18, 0
2, 22, Control_c, 9, 4, 69
2, 30, Control_c, 9, 18, 21
2, 30, Note_on_c, 9, 48, 88
2, 43, Control_c, 9, 16, 0
2, 44, Note_on_c, 9, 38, 63
2, 111, Note_on_c, 9, 48, 0
2, 125, Note_on_c, 9, 38, 0
2, 197, Control_c, 9, 18, 0
2, 198, Note_on_c, 9, 48, 44
2, 221, Note_on_c, 9, 38, 27
2, 275, Control_c, 9, 4, 76
2, 279, Note_on_c, 9, 48, 0
2, 301, Note_on_c, 9, 38, 0
2, 368, Note_on_c, 9, 48, 42
2, 383, Control_c, 9, 16, 0
2, 383, Note_on_c, 9, 38, 36
2, 450, Note_on_c, 9, 48, 0
2, 465, Note_on_c, 9, 38, 0
2, 535, Control_c, 9, 17, 36
2, 536, Control_c, 9, 16, 0
2, 536, Note_on_c, 9, 51, 100
2, 537, Note_on_c, 9, 40, 72
2, 540, Note_on_c, 9, 36, 90
2, 574, Control_c, 9, 4, 93
2, 616, Note_on_c, 9, 51, 0
2, 617, Note_on_c, 9, 40, 0
2, 621, Note_on_c, 9, 36, 0
2, 659, Control_c, 9, 4, 77
2, 699, Control_c, 9, 4, 0
2, 750, Control_c, 9, 17, 69
2, 750, Note_on_c, 9, 51, 58
2, 760, Control_c, 9, 4, 33
2, 767, Note_on_c, 9, 44, 119
2, 792, Control_c, 9, 4, 122
2, 832, Note_on_c, 9, 51, 0
2, 849, Note_on_c, 9, 44, 0
2, 853, Control_c, 9, 4, 92
2, 866, Control_c, 9, 18, 0
2, 866, Note_on_c, 9, 48, 51
2, 886, Control_c, 9, 4, 88
2, 889, Note_on_c, 9, 36, 73
2, 948, Note_on_c, 9, 48, 0
2, 971, Note_on_c, 9, 36, 0
2, 978, Control_c, 9, 17, 79
2, 979, Note_on_c, 9, 51, 56
2, 998, Control_c, 9, 4, 116
2, 1059, Note_on_c, 9, 51, 0
2, 1078, Control_c, 9, 4, 99
2, 1111, Control_c, 9, 17, 108
2, 1112, Control_c, 9, 4, 83
2, 1112, Note_on_c, 9, 51, 74
2, 1152, Control_c, 9, 4, 0
2, 1192, Note_on_c, 9, 51, 0
2, 1226, Note_on_c, 9, 36, 83
2, 1226, Note_on_c, 9, 46, 10
2, 1227, Control_c, 9, 17, 108
2, 1227, Note_on_c, 9, 51, 6
2, 1232, Control_c, 9, 4, 33
2, 1237, Note_on_c, 9, 44, 127
2, 1263, Control_c, 9, 4, 97
2, 1294, Control_c, 9, 4, 70
2, 1307, Note_on_c, 9, 36, 0
2, 1307, Note_on_c, 9, 46, 0
2, 1308, Note_on_c, 9, 51, 0
2, 1319, Note_on_c, 9, 44, 0
2, 1359, Control_c, 9, 4, 75
2, 1430, Control_c, 9, 4, 71
2, 1467, Note_on_c, 9, 36, 92
2, 1468, Control_c, 9, 17, 118
2, 1469, Note_on_c, 9, 51, 99
2, 1476, Control_c, 9, 16, 127
2, 1476, Note_on_c, 9, 38, 81
2, 1526, Control_c, 9, 4, 62
2, 1548, Note_on_c, 9, 36, 0
2, 1551, Note_on_c, 9, 51, 0
2, 1558, Note_on_c, 9, 38, 0
2, 1565, Control_c, 9, 4, 0
2, 1616, Control_c, 9, 16, 63
2, 1616, Note_on_c, 9, 38, 4
2, 1677, Note_on_c, 9, 44, 67
2, 1686, Control_c, 9, 4, 91
2, 1698, Note_on_c, 9, 38, 0
2, 1726, Control_c, 9, 16, 85
2, 1726, Note_on_c, 9, 38, 15
2, 1728, Control_c, 9, 4, 100
2, 1758, Note_on_c, 9, 44, 0
2, 1777, Control_c, 9, 4, 94
2, 1808, Note_on_c, 9, 38, 0
2, 1813, Control_c, 9, 4, 90
2, 1826, Control_c, 9, 16, 0
2, 1826, Note_on_c, 9, 36, 78
2, 1827, Note_on_c, 9, 38, 37
2, 1901, Control_c, 9, 4, 84
2, 1907, Note_on_c, 9, 36, 0
2, 1907, Note_on_c, 9, 38, 0
2, 1941, Control_c, 9, 16, 21
2, 1941, Note_on_c, 9, 38, 66
2, 1971, Control_c, 9, 4, 120
2, 2004, Control_c, 9, 4, 112
2, 2022, Note_on_c, 9, 38, 0
2, 2044, Control_c, 9, 4, 81
2, 2086, Control_c, 9, 4, 0
2, 2185, Note_on_c, 9, 44, 127
2, 2190, Note_on_c, 9, 49, 6
2, 2191, Control_c, 9, 4, 127
2, 2239, Control_c, 9, 4, 93
2, 2267, Note_on_c, 9, 44, 0
2, 2272, Control_c, 9, 4, 87
2, 2273, Note_on_c, 9, 49, 0
2, 2368, Control_c, 9, 4, 92
2, 2440, Control_c, 9, 16, 64
2, 2440, Note_on_c, 9, 38, 99
2, 2442, Note_on_c, 9, 36, 82
2, 2445, Control_c, 9, 17, 7
2, 2446, Note_on_c, 9, 51, 90
2, 2450, Control_c, 9, 4, 98
2, 2482, Control_c, 9, 4, 110
2, 2522, Note_on_c, 9, 38, 0
2, 2524, Control_c, 9, 4, 93
2, 2524, Note_on_c, 9, 36, 0
2, 2526, Note_on_c, 9, 51, 0
2, 2556, Control_c, 9, 4, 73
2, 2594, Control_c, 9, 4, 0
2, 2659, Control_c, 9, 4, 35
2, 2664, Note_on_c, 9, 44, 127
2, 2667, Control_c, 9, 17, 71
2, 2668, Note_on_c, 9, 51, 61
2, 2690, Control_c, 9, 4, 127
2, 2739, Control_c, 9, 4, 98
2, 2746, Note_on_c, 9, 44, 0
2, 2748, Note_on_c, 9, 51, 0
2, 2788, Control_c, 9, 4, 89
2, 2789, Note_on_c, 9, 48, 46
2, 2791, Note_on_c, 9, 36, 76
2, 2871, Note_on_c, 9, 48, 0
2, 2872, Note_on_c, 9, 36, 0
2, 2881, Control_c, 9, 17, 60
2, 2882, Note_on_c, 9, 51, 56
2, 2890, Control_c, 9, 4, 120
2, 2906, Control_c, 9, 18, 0
2, 2907, Note_on_c, 9, 48, 81
2, 2959, Control_c, 9, 4, 112
2, 2963, Note_on_c, 9, 51, 0
2, 2988, Note_on_c, 9, 48, 0
2, 2992, Control_c, 9, 4, 91
2, 3006, Control_c, 9, 17, 8
2, 3007, Note_on_c, 9, 51, 76
2, 3024, Control_c, 9, 4, 70
2, 3058, Control_c, 9, 4, 0
2, 3088, Note_on_c, 9, 51, 0
2, 3125, Note_on_c, 9, 36, 76
2, 3126, Control_c, 9, 4, 34
2, 3131, Note_on_c, 9, 44, 127
2, 3156, Control_c, 9, 4, 127
2, 3206, Note_on_c, 9, 36, 0
2, 3209, Control_c, 9, 4, 92
2, 3213, Note_on_c, 9, 44, 0
2, 3244, Control_c, 9, 4, 88
2, 3245, Control_c, 9, 17, 16
2, 3246, Note_on_c, 9, 51, 51
2, 3328, Note_on_c, 9, 51, 0
2, 3361, Control_c, 9, 4, 99
2, 3365, Note_on_c, 9, 36, 92
2, 3373, Control_c, 9, 16, 0
2, 3374, Note_on_c, 9, 38, 68
2, 3375, Control_c, 9, 17, 1
2, 3375, Note_on_c, 9, 51, 98
2, 3447, Note_on_c, 9, 36, 0
2, 3451, Control_c, 9, 4, 93
2, 3455, Note_on_c, 9, 38, 0
2, 3455, Note_on_c, 9, 51, 0
2, 3497, Control_c, 9, 4, 69
2, 3529, Control_c, 9, 4, 0
2, 3598, Control_c, 9, 4, 34
2, 3603, Note_on_c, 9, 44, 127
2, 3604, Control_c, 9, 17, 40
2, 3604, Note_on_c, 9, 51, 76
2, 3628, Control_c, 9, 4, 127
2, 3677, Control_c, 9, 4, 110
2, 3684, Note_on_c, 9, 44, 0
2, 3686, Note_on_c, 9, 51, 0
2, 3710, Control_c, 9, 4, 92
2, 3727, Note_on_c, 9, 48, 64
2, 3746, Note_on_c, 9, 36, 71
2, 3750, Control_c, 9, 4, 88
2, 3808, Note_on_c, 9, 48, 0
2, 3828, Note_on_c, 9, 36, 0
2, 3843, Control_c, 9, 17, 22
2, 3844, Note_on_c, 9, 51, 59
2, 3848, Control_c, 9, 4, 116
2, 3883, Control_c, 9, 4, 114
2, 3926, Note_on_c, 9, 51, 0
2, 3945, Control_c, 9, 4, 98
2, 3971, Control_c, 9, 17, 80
2, 3972, Note_on_c, 9, 51, 78
2, 3977, Control_c, 9, 4, 80
2, 4010, Control_c, 9, 4, 0
2, 4052, Note_on_c, 9, 51, 0
2, 4083, Note_on_c, 9, 36, 85
2, 4089, Control_c, 9, 4, 34
2, 4094, Note_on_c, 9, 44, 127
2, 4119, Control_c, 9, 4, 82
2, 4154, Control_c, 9, 4, 32
2, 4164, Note_on_c, 9, 36, 0
2, 4176, Note_on_c, 9, 44, 0
2, 4185, Control_c, 9, 4, 34
2, 4222, Control_c, 9, 4, 67
2, 4309, Control_c, 9, 4, 58
2, 4331, Note_on_c, 9, 36, 87
2, 4333, Control_c, 9, 17, 0
2, 4333, Note_on_c, 9, 51, 122
2, 4335, Control_c, 9, 16, 106
2, 4336, Note_on_c, 9, 38, 63
2, 4345, Control_c, 9, 4, 47
2, 4379, Control_c, 9, 4, 32
2, 4412, Note_on_c, 9, 36, 0
2, 4414, Control_c, 9, 4, 0
2, 4415, Note_on_c, 9, 51, 0
2, 4417, Note_on_c, 9, 38, 0
2, 4502, Control_c, 9, 16, 53
2, 4503, Note_on_c, 9, 38, 4
2, 4551, Note_on_c, 9, 44, 87
2, 4566, Control_c, 9, 4, 102
2, 4577, Control_c, 9, 17, 70
2, 4578, Note_on_c, 9, 51, 70
2, 4584, Note_on_c, 9, 38, 0
2, 4602, Control_c, 9, 4, 116
2, 4633, Note_on_c, 9, 44, 0
2, 4659, Note_on_c, 9, 51, 0
2, 4665, Control_c, 9, 4, 83
2, 4687, Control_c, 9, 16, 0
2, 4687, Note_on_c, 9, 38, 37
2, 4693, Note_on_c, 9, 36, 84
2, 4703, Control_c, 9, 4, 0
2, 4770, Note_on_c, 9, 38, 0
2, 4775, Note_on_c, 9, 36, 0
2, 4797, Note_on_c, 9, 46, 34
2, 4809, Control_c, 9, 4, 16
2, 4814, Note_on_c, 9, 44, 127
2, 4828, Note_on_c, 9, 38, 46
2, 4840, Control_c, 9, 4, 73
2, 4879, Note_on_c, 9, 46, 0
2, 4886, Control_c, 9, 4, 0
2, 4896, Note_on_c, 9, 44, 0
2, 4908, Note_on_c, 9, 38, 0
2, 4941, Control_c, 9, 4, 17
2, 4951, Control_c, 9, 18, 0
2, 4952, Note_on_c, 9, 48, 62
2, 4981, Control_c, 9, 4, 45
2, 5023, Control_c, 9, 4, 41
2, 5032, Note_on_c, 9, 48, 0
2, 5053, Note_on_c, 9, 36, 91
2, 5064, Control_c, 9, 4, 24
2, 5064, Control_c, 9, 17, 10
2, 5065, Note_on_c, 9, 51, 73
2, 5106, Control_c, 9, 4, 12
2, 5135, Note_on_c, 9, 36, 0
2, 5141, Control_c, 9, 4, 8
2, 5146, Note_on_c, 9, 51, 0
2, 5174, Control_c, 9, 4, 0
2, 5279, Control_c, 9, 4, 14
2, 5306, Control_c, 9, 16, 0
2, 5307, Note_on_c, 9, 40, 77
2, 5310, Control_c, 9, 17, 62
2, 5311, Note_on_c, 9, 51, 127
2, 5314, Control_c, 9, 4, 48
2, 5387, Note_on_c, 9, 40, 0
2, 5391, Note_on_c, 9, 51, 0
2, 5417, Control_c, 9, 4, 37
2, 5449, Control_c, 9, 4, 27
2, 5512, Control_c, 9, 4, 23
2, 5538, Note_on_c, 9, 36, 91
2, 5556, Control_c, 9, 17, 62
2, 5556, Note_on_c, 9, 51, 31
2, 5604, Control_c, 9, 4, 16
2, 5620, Note_on_c, 9, 36, 0
2, 5635, Control_c, 9, 4, 0
2, 5637, Note_on_c, 9, 51, 0
2, 5671, Note_on_c, 9, 48, 55
2, 5751, Note_on_c, 9, 48, 0
2, 5755, Control_c, 9, 4, 64
2, 5760, Note_on_c, 9, 44, 74
2, 5785, Control_c, 9, 4, 90
2, 5790, Control_c, 9, 17, 0
2, 5791, Note_on_c, 9, 51, 127
2, 5820, Control_c, 9, 4, 112
2, 5841, Note_on_c, 9, 44, 0
2, 5872, Note_on_c, 9, 51, 0
2, 5897, Control_c, 9, 4, 78
2, 5907, Note_on_c, 9, 36, 86
2, 5936, Control_c, 9, 4, 0
2, 5990, Note_on_c, 9, 36, 0
2, 6008, Note_on_c, 9, 46, 14
2, 6014, Control_c, 9, 4, 35
2, 6019, Note_on_c, 9, 44, 127
2, 6044, Control_c, 9, 4, 84
2, 6047, Note_on_c, 9, 38, 15
2, 6077, Control_c, 9, 4, 29
2, 6088, Note_on_c, 9, 46, 0
2, 6101, Note_on_c, 9, 44, 0
2, 6110, Control_c, 9, 4, 30
2, 6128, Note_on_c, 9, 38, 0
2, 6147, Control_c, 9, 4, 70
2, 6238, Control_c, 9, 4, 65
2, 6274, Note_on_c, 9, 36, 84
2, 6278, Control_c, 9, 16, 0
2, 6278, Note_on_c, 9, 40, 67
2, 6282, Control_c, 9, 17, 7
2, 6282, Note_on_c, 9, 51, 97
2, 6288, Control_c, 9, 4, 59
2, 6324, Control_c, 9, 4, 45
2, 6355, Control_c, 9, 4, 0
2, 6355, Note_on_c, 9, 36, 0
2, 6359, Note_on_c, 9, 40, 0
2, 6363, Note_on_c, 9, 51, 0
2, 6487, Control_c, 9, 4, 48
2, 6494, Note_on_c, 9, 44, 80
2, 6513, Control_c, 9, 17, 36
2, 6514, Note_on_c, 9, 51, 72
2, 6519, Control_c, 9, 4, 95
2, 6576, Note_on_c, 9, 44, 0
2, 6596, Note_on_c, 9, 51, 0
2, 6629, Control_c, 9, 18, 0
2, 6630, Note_on_c, 9, 48, 44
2, 6636, Note_on_c, 9, 36, 78
2, 6711, Note_on_c, 9, 48, 0
2, 6717, Note_on_c, 9, 36, 0
2, 6731, Control_c, 9, 17, 23
2, 6732, Note_on_c, 9, 51, 65
2, 6745, Control_c, 9, 4, 118
2, 6757, Note_on_c, 9, 48, 81
2, 6813, Note_on_c, 9, 51, 0
2, 6828, Control_c, 9, 4, 90
2, 6838, Note_on_c, 9, 48, 0
2, 6859, Control_c, 9, 4, 70
2, 6863, Control_c, 9, 17, 2
2, 6864, Note_on_c, 9, 51, 79
2, 6894, Control_c, 9, 4, 0
2, 6944, Note_on_c, 9, 51, 0
2, 6957, Note_on_c, 9, 46, 12
2, 6964, Note_on_c, 9, 36, 67
2, 6970, Note_on_c, 9, 44, 127
2, 6977, Control_c, 9, 4, 127
2, 7013, Control_c, 9, 4, 110
2, 7038, Note_on_c, 9, 46, 0
2, 7045, Note_on_c, 9, 36, 0
2, 7047, Control_c, 9, 4, 91
2, 7052, Note_on_c, 9, 44, 0
2, 7087, Control_c, 9, 4, 87
2, 7101, Control_c, 9, 17, 37
2, 7102, Note_on_c, 9, 51, 53
2, 7172, Control_c, 9, 4, 93
2, 7183, Note_on_c, 9, 51, 0
2, 7210, Note_on_c, 9, 36, 71
2, 7223, Note_on_c, 9, 38, 70
2, 7226, Control_c, 9, 17, 0
2, 7226, Note_on_c, 9, 51, 93
2, 7255, Control_c, 9, 4, 97
2, 7292, Note_on_c, 9, 36, 0
2, 7304, Note_on_c, 9, 38, 0
2, 7307, Note_on_c, 9, 51, 0
2, 7315, Control_c, 9, 4, 90
2, 7351, Control_c, 9, 4, 71
2, 7391, Control_c, 9, 4, 0
2, 7453, Control_c, 9, 4, 33
2, 7459, Note_on_c, 9, 44, 127
2, 7464, Control_c, 9, 17, 63
2, 7464, Note_on_c, 9, 51, 77
2, 7484, Control_c, 9, 4, 127
2, 7524, Control_c, 9, 4, 104
2, 7541, Note_on_c, 9, 44, 0
2, 7546, Note_on_c, 9, 51, 0
2, 7559, Control_c, 9, 4, 91
2, 7585, Control_c, 9, 18, 0
2, 7586, Note_on_c, 9, 48, 40
2, 7666, Note_on_c, 9, 48, 0
2, 7667, End_track
0, 0, End_of_file
