0, 0, Header, 1, 2, 480
1, 0, Start_track
1, 0, Tempo, 461538
1, 0, Time_signature, 4, 2, 24, 8
1, 0, Key_signature, 0, "major"
1, 1, End_track
2, 0, Start_track
2, 0, Title_t, "SoCal"
2, 0, Program_c, 9, 0
2, 0, Control_c, 9, 16, 0
2, 40, Control_c, 9, 16, 21
2, 41, Note_on_c, 9, 38, 51
2, 144, Note_on_c, 9, 38, 0
2, 157, Note_on_c, 9, 36, 81
2, 251, Control_c, 9, 16, 0
2, 252, Note_on_c, 9, 38, 28
2, 262, Note_on_c, 9, 36, 0
2, 341, Control_c, 9, 4, 102
2, 356, Note_on_c, 9, 38, 0
2, 377, Control_c, 9, 4, 102
2, 378, Note_on_c, 9, 26, 12
2, 470, Control_c, 9, 17, 33
2, 471, Note_on_c, 9, 51, 60
2, 482, Note_on_c, 9, 26, 0
2, 574, Control_c, 9, 4, 104
2, 575, Note_on_c, 9, 26, 38
2, 575, Note_on_c, 9, 51, 0
2, 643, Control_c, 9, 4, 108
2, 678, Note_on_c, 9, 26, 0
2, 691, Note_on_c, 9, 36, 73
2, 773, Control_c, 9, 4, 108
2, 774, Note_on_c, 9, 26, 43
2, 796, Note_on_c, 9, 36, 0
2, 877, Note_on_c, 9, 26, 0
2, 893, Control_c, 9, 16, 0
2, 894, Note_on_c, 9, 38, 60
2, 998, Note_on_c, 9, 38, 0
2, 1009, Note_on_c, 9, 36, 94
2, 1113, Control_c, 9, 16, 0
2, 1113, Note_on_c, 9, 36, 0
2, 1113, Note_on_c, 9, 38, 24
2, 1216, Note_on_c, 9, 38, 0
2, 1232, Note_on_c, 9, 26, 39
2, 1252, Control_c, 9, 4, 104
2, 1336, Note_on_c, 9, 26, 0
2, 1337, Control_c, 9, 17, 127
2, 1338, Note_on_c, 9, 51, 64
2, 1441, Note_on_c, 9, 51, 0
2, 1462, Control_c, 9, 16, 21
2, 1463, Note_on_c, 9, 38, 33
2, 1566, Note_on_c, 9, 38, 0
2, 1568, Control_c, 9, 16, 0
2, 1569, Note_on_c, 9, 38, 11
2, 1670, Control_c, 9, 16, 0
2, 1671, Note_on_c, 9, 38, 0
2, 1768, Control_c, 9, 16, 0
2, 1769, Note_on_c, 9, 38, 26
2, 1775, Note_on_c, 9, 38, 0
2, 1881, Control_c, 9, 16, 0
2, 1882, Note_on_c, 9, 38, 16
2, 1986, Note_on_c, 9, 38, 0
2, 2044, Control_c, 9, 16, 0
2, 2045, Note_on_c, 9, 38, 48
2, 2149, Note_on_c, 9, 38, 0
2, 2334, Control_c, 9, 17, 12
2, 2336, Note_on_c, 9, 51, 50
2, 2440, Note_on_c, 9, 51, 0
2, 2495, Control_c, 9, 16, 0
2, 2496, Note_on_c, 9, 38, 16
2, 2600, Note_on_c, 9, 38, 0
2, 2629, Control_c, 9, 16, 0
2, 2630, Note_on_c, 9, 38, 32
2, 2734, Note_on_c, 9, 38, 0
2, 2790, Control_c, 9, 4, 104
2, 2790, Note_on_c, 9, 26, 54
2, 2858, Control_c, 9, 4, 108
2, 2893, Control_c, 9, 4, 104
2, 2895, Note_on_c, 9, 26, 0
2, 2917, Control_c, 9, 17, 0
2, 2918, Note_on_c, 9, 51, 71
2, 2939, Control_c, 9, 4, 116
2, 3000, Control_c, 9, 4, 110
2, 3022, Note_on_c, 9, 51, 0
2, 3034, Control_c, 9, 4, 92
2, 3074, Control_c, 9, 4, 86
2, 3080, Note_on_c, 9, 36, 48
2, 3121, Control_c, 9, 4, 70
2, 3153, Control_c, 9, 4, 40
2, 3185, Note_on_c, 9, 36, 0
2, 3194, Control_c, 9, 4, 48
2, 3207, Note_on_c, 9, 44, 41
2, 3210, Control_c, 9, 16, 0
2, 3211, Note_on_c, 9, 38, 29
2, 3226, Control_c, 9, 4, 104
2, 3260, Control_c, 9, 4, 118
2, 3303, Control_c, 9, 4, 102
2, 3311, Note_on_c, 9, 44, 0
2, 3314, Note_on_c, 9, 38, 0
2, 3343, Control_c, 9, 4, 98
2, 3391, Control_c, 9, 4, 97
2, 3392, Note_on_c, 9, 26, 54
2, 3496, Note_on_c, 9, 26, 0
2, 3537, Control_c, 9, 16, 0
2, 3538, Note_on_c, 9, 38, 23
2, 3642, Note_on_c, 9, 38, 0
2, 3695, Control_c, 9, 16, 0
2, 3696, Note_on_c, 9, 40, 44
2, 3799, Note_on_c, 9, 40, 0
2, 3855, Control_c, 9, 17, 97
2, 3855, Note_on_c, 9, 51, 80
2, 3924, Control_c, 9, 17, 97
2, 3925, Note_on_c, 9, 51, 0
2, 3926, Note_on_c, 9, 51, 33
2, 3959, Note_on_c, 9, 51, 0
2, 4006, Note_on_c, 9, 36, 39
2, 4111, Note_on_c, 9, 36, 0
2, 4171, Note_on_c, 9, 36, 81
2, 4276, Note_on_c, 9, 36, 0
2, 4346, Control_c, 9, 16, 0
2, 4347, Note_on_c, 9, 38, 24
2, 4450, Note_on_c, 9, 38, 0
2, 4451, Control_c, 9, 4, 102
2, 4506, Control_c, 9, 16, 0
2, 4507, Note_on_c, 9, 38, 16
2, 4512, Control_c, 9, 4, 116
2, 4586, Control_c, 9, 4, 110
2, 4611, Note_on_c, 9, 38, 0
2, 4622, Control_c, 9, 4, 93
2, 4645, Note_on_c, 9, 36, 61
2, 4664, Control_c, 9, 4, 89
2, 4723, Control_c, 9, 4, 76
2, 4750, Note_on_c, 9, 36, 0
2, 4763, Control_c, 9, 4, 61
2, 4793, Control_c, 9, 4, 80
2, 4794, Note_on_c, 9, 44, 22
2, 4803, Control_c, 9, 16, 21
2, 4804, Note_on_c, 9, 38, 11
2, 4826, Control_c, 9, 4, 102
2, 4857, Control_c, 9, 4, 114
2, 4898, Note_on_c, 9, 44, 0
2, 4907, Control_c, 9, 4, 98
2, 4908, Note_on_c, 9, 38, 0
2, 4981, Control_c, 9, 4, 95
2, 4982, Note_on_c, 9, 26, 85
2, 5086, Note_on_c, 9, 26, 0
2, 5138, Control_c, 9, 16, 21
2, 5139, Note_on_c, 9, 38, 16
2, 5243, Note_on_c, 9, 38, 0
2, 5288, Control_c, 9, 16, 0
2, 5289, Note_on_c, 9, 40, 30
2, 5393, Note_on_c, 9, 40, 0
2, 5448, Control_c, 9, 17, 6
2, 5449, Note_on_c, 9, 51, 73
2, 5553, Note_on_c, 9, 51, 0
2, 5614, Control_c, 9, 16, 0
2, 5615, Note_on_c, 9, 38, 23
2, 5719, Note_on_c, 9, 38, 0
2, 5759, Note_on_c, 9, 36, 73
2, 5843, Control_c, 9, 16, 0
2, 5844, Note_on_c, 9, 38, 29
2, 5864, Note_on_c, 9, 36, 0
2, 5916, Control_c, 9, 17, 90
2, 5917, Note_on_c, 9, 51, 84
2, 5948, Note_on_c, 9, 38, 0
2, 6020, Note_on_c, 9, 51, 0
2, 6035, Note_on_c, 9, 36, 56
2, 6140, Note_on_c, 9, 36, 0
2, 6146, Control_c, 9, 16, 0
2, 6147, Note_on_c, 9, 38, 25
2, 6251, Note_on_c, 9, 38, 0
2, 6260, Control_c, 9, 4, 97
2, 6260, Note_on_c, 9, 26, 42
2, 6365, Note_on_c, 9, 26, 0
2, 6366, Control_c, 9, 17, 95
2, 6368, Note_on_c, 9, 51, 73
2, 6472, Note_on_c, 9, 51, 0
2, 6476, Control_c, 9, 16, 0
2, 6477, Note_on_c, 9, 38, 31
2, 6575, Note_on_c, 9, 36, 56
2, 6581, Note_on_c, 9, 38, 0
2, 6680, Note_on_c, 9, 36, 0
2, 6695, Control_c, 9, 16, 0
2, 6696, Note_on_c, 9, 38, 37
2, 6796, Control_c, 9, 17, 93
2, 6797, Note_on_c, 9, 51, 75
2, 6800, Note_on_c, 9, 38, 0
2, 6885, Note_on_c, 9, 36, 59
2, 6901, Note_on_c, 9, 51, 0
2, 6991, Note_on_c, 9, 36, 0
2, 7023, Control_c, 9, 16, 0
2, 7024, Note_on_c, 9, 38, 32
2, 7127, Control_c, 9, 4, 98
2, 7128, Note_on_c, 9, 26, 44
2, 7129, Note_on_c, 9, 38, 0
2, 7229, Control_c, 9, 16, 0
2, 7230, Note_on_c, 9, 38, 32
2, 7232, Note_on_c, 9, 26, 0
2, 7332, Note_on_c, 9, 38, 0
2, 7357, Control_c, 9, 16, 0
2, 7358, Note_on_c, 9, 38, 40
2, 7461, Note_on_c, 9, 38, 0
2, 7490, Note_on_c, 9, 36, 62
2, 7565, Control_c, 9, 16, 0
2, 7566, Note_on_c, 9, 38, 33
2, 7594, Note_on_c, 9, 36, 0
2, 7670, Control_c, 9, 18, 0
2, 7672, Note_on_c, 9, 38, 0
2, 7673, End_track
0, 0, End_of_file
