0, 0, Header, 1, 2, 480
1, 0, Start_track
1, 0, Tempo, 681818
1, 0, Time_signature, 4, 2, 24, 8
1, 0, Key_signature, 0, "major"
1, 1, End_track
2, 0, Start_track
2, 0, Title_t, "Midi Drums"
2, 0, Program_c, 9, 0
2, 15, Note_on_c, 9, 43, 54
2, 86, Note_on_c, 9, 43, 0
2, 124, Note_on_c, 9, 48, 127
2, 194, Note_on_c, 9, 48, 0
2, 237, Note_on_c, 9, 43, 75
2, 308, Note_on_c, 9, 43, 0
2, 359, Note_on_c, 9, 36, 79
2, 430, Note_on_c, 9, 36, 0
2, 479, Note_on_c, 9, 38, 125
2, 497, Note_on_c, 9, 40, 127
2, 550, Note_on_c, 9, 38, 0
2, 568, Note_on_c, 9, 40, 0
2, 717, Note_on_c, 9, 43, 70
2, 788, Note_on_c, 9, 43, 0
2, 839, Note_on_c, 9, 47, 75
2, 910, Note_on_c, 9, 47, 0
2, 925, Note_on_c, 9, 36, 71
2, 996, Note_on_c, 9, 36, 0
2, 1064, Note_on_c, 9, 47, 77
2, 1135, Note_on_c, 9, 47, 0
2, 1178, Note_on_c, 9, 43, 99
2, 1250, Note_on_c, 9, 43, 0
2, 1296, Note_on_c, 9, 36, 74
2, 1367, Note_on_c, 9, 36, 0
2, 1417, Note_on_c, 9, 38, 105
2, 1432, Note_on_c, 9, 40, 127
2, 1488, Note_on_c, 9, 38, 0
2, 1503, Note_on_c, 9, 40, 0
2, 1672, Note_on_c, 9, 43, 86
2, 1743, Note_on_c, 9, 43, 0
2, 1799, Note_on_c, 9, 48, 73
2, 1870, Note_on_c, 9, 48, 0
2, 1900, Note_on_c, 9, 36, 78
2, 1929, Note_on_c, 9, 43, 57
2, 1971, Note_on_c, 9, 36, 0
2, 1999, Note_on_c, 9, 43, 0
2, 2036, Note_on_c, 9, 48, 105
2, 2106, Note_on_c, 9, 48, 0
2, 2149, Note_on_c, 9, 43, 97
2, 2220, Note_on_c, 9, 43, 0
2, 2273, Note_on_c, 9, 36, 76
2, 2344, Note_on_c, 9, 36, 0
2, 2390, Note_on_c, 9, 38, 116
2, 2410, Note_on_c, 9, 40, 127
2, 2461, Note_on_c, 9, 38, 0
2, 2481, Note_on_c, 9, 40, 0
2, 2631, Note_on_c, 9, 43, 87
2, 2702, Note_on_c, 9, 43, 0
2, 2758, Note_on_c, 9, 47, 82
2, 2829, Note_on_c, 9, 47, 0
2, 2860, Note_on_c, 9, 36, 66
2, 2931, Note_on_c, 9, 36, 0
2, 2982, Note_on_c, 9, 47, 84
2, 3053, Note_on_c, 9, 47, 0
2, 3103, Note_on_c, 9, 43, 96
2, 3174, Note_on_c, 9, 43, 0
2, 3221, Note_on_c, 9, 36, 77
2, 3292, Note_on_c, 9, 36, 0
2, 3330, Note_on_c, 9, 38, 127
2, 3347, Note_on_c, 9, 40, 127
2, 3400, Note_on_c, 9, 38, 0
2, 3419, Note_on_c, 9, 40, 0
2, 3579, Note_on_c, 9, 43, 93
2, 3650, Note_on_c, 9, 43, 0
2, 3703, Note_on_c, 9, 48, 71
2, 3774, Note_on_c, 9, 48, 0
2, 3813, Note_on_c, 9, 36, 104
2, 3835, Note_on_c, 9, 43, 54
2, 3884, Note_on_c, 9, 36, 0
2, 3906, Note_on_c, 9, 43, 0
2, 3936, Note_on_c, 9, 48, 104
2, 4007, Note_on_c, 9, 48, 0
2, 4062, Note_on_c, 9, 43, 88
2, 4133, Note_on_c, 9, 43, 0
2, 4184, Note_on_c, 9, 36, 94
2, 4255, Note_on_c, 9, 36, 0
2, 4299, Note_on_c, 9, 38, 101
2, 4315, Note_on_c, 9, 40, 127
2, 4370, Note_on_c, 9, 38, 0
2, 4386, Note_on_c, 9, 40, 0
2, 4538, Note_on_c, 9, 43, 66
2, 4609, Note_on_c, 9, 43, 0
2, 4660, Note_on_c, 9, 47, 81
2, 4731, Note_on_c, 9, 47, 0
2, 4758, Note_on_c, 9, 36, 72
2, 4829, Note_on_c, 9, 36, 0
2, 4840, Note_on_c, 9, 36, 7
2, 4881, Note_on_c, 9, 47, 80
2, 4911, Note_on_c, 9, 36, 0
2, 4951, Note_on_c, 9, 47, 0
2, 4990, Note_on_c, 9, 43, 93
2, 5061, Note_on_c, 9, 43, 0
2, 5114, Note_on_c, 9, 36, 77
2, 5184, Note_on_c, 9, 36, 0
2, 5223, Note_on_c, 9, 38, 127
2, 5243, Note_on_c, 9, 40, 127
2, 5294, Note_on_c, 9, 38, 0
2, 5314, Note_on_c, 9, 40, 0
2, 5489, Note_on_c, 9, 43, 89
2, 5560, Note_on_c, 9, 43, 0
2, 5605, Note_on_c, 9, 48, 73
2, 5676, Note_on_c, 9, 48, 0
2, 5709, Note_on_c, 9, 36, 80
2, 5745, Note_on_c, 9, 43, 65
2, 5780, Note_on_c, 9, 36, 0
2, 5816, Note_on_c, 9, 43, 0
2, 5855, Note_on_c, 9, 50, 117
2, 5926, Note_on_c, 9, 50, 0
2, 5970, Note_on_c, 9, 43, 92
2, 6041, Note_on_c, 9, 43, 0
2, 6094, Note_on_c, 9, 36, 83
2, 6165, Note_on_c, 9, 36, 0
2, 6210, Note_on_c, 9, 38, 103
2, 6229, Note_on_c, 9, 40, 127
2, 6281, Note_on_c, 9, 38, 0
2, 6300, Note_on_c, 9, 40, 0
2, 6449, Note_on_c, 9, 43, 93
2, 6520, Note_on_c, 9, 43, 0
2, 6565, Note_on_c, 9, 47, 93
2, 6636, Note_on_c, 9, 47, 0
2, 6666, Note_on_c, 9, 36, 73
2, 6737, Note_on_c, 9, 36, 0
2, 6793, Note_on_c, 9, 47, 93
2, 6864, Note_on_c, 9, 47, 0
2, 6905, Note_on_c, 9, 43, 127
2, 6976, Note_on_c, 9, 43, 0
2, 7046, Note_on_c, 9, 36, 64
2, 7048, Note_on_c, 9, 38, 107
2, 7118, Note_on_c, 9, 36, 0
2, 7119, Note_on_c, 9, 38, 0
2, 7153, Note_on_c, 9, 36, 10
2, 7164, Note_on_c, 9, 38, 127
2, 7224, Note_on_c, 9, 36, 0
2, 7236, Note_on_c, 9, 38, 0
2, 7287, Note_on_c, 9, 38, 127
2, 7358, Note_on_c, 9, 38, 0
2, 7402, Note_on_c, 9, 38, 127
2, 7474, Note_on_c, 9, 38, 0
2, 7513, Note_on_c, 9, 40, 100
2, 7584, Note_on_c, 9, 40, 0
2, 7585, End_track
0, 0, End_of_file
