0, 0, Header, 1, 2, 480
1, 0, Start_track
1, 0, Tempo, 588235
1, 0, Time_signature, 4, 2, 24, 8
1, 0, Key_signature, 0, "major"
1, 1, End_track
2, 0, Start_track
2, 0, Title_t, "Classic Studio Kit"
2, 0, Program_c, 9, 0
2, 0, Control_c, 9, 17, 58
2, 3, Control_c, 9, 18, 0
2, 4, Note_on_c, 9, 48, 72
2, 40, Control_c, 9, 4, 114
2, 82, Control_c, 9, 4, 91
2, 86, Note_on_c, 9, 48, 0
2, 115, Control_c, 9, 4, 71
2, 122, Control_c, 9, 17, 43
2, 122, Note_on_c, 9, 51, 74
2, 155, Control_c, 9, 4, 0
2, 203, Note_on_c, 9, 51, 0
2, 222, Note_on_c, 9, 46, 12
2, 233, Note_on_c, 9, 44, 127
2, 239, Control_c, 9, 4, 127
2, 239, Note_on_c, 9, 36, 74
2, 284, Control_c, 9, 4, 118
2, 304, Note_on_c, 9, 46, 0
2, 315, Note_on_c, 9, 44, 0
2, 322, Control_c, 9, 4, 90
2, 322, Note_on_c, 9, 36, 0
2, 356, Control_c, 9, 4, 85
2, 394, Control_c, 9, 17, 81
2, 394, Note_on_c, 9, 51, 64
2, 451, Control_c, 9, 4, 99
2, 475, Note_on_c, 9, 51, 0
2, 477, Control_c, 9, 16, 0
2, 478, Note_on_c, 9, 38, 73
2, 482, Note_on_c, 9, 36, 82
2, 500, Control_c, 9, 17, 39
2, 500, Note_on_c, 9, 51, 89
2, 559, Note_on_c, 9, 38, 0
2, 564, Note_on_c, 9, 36, 0
2, 576, Control_c, 9, 4, 92
2, 582, Note_on_c, 9, 51, 0
2, 620, Control_c, 9, 4, 72
2, 659, Control_c, 9, 4, 0
2, 717, Control_c, 9, 4, 49
2, 718, Control_c, 9, 17, 40
2, 719, Note_on_c, 9, 51, 76
2, 721, Note_on_c, 9, 44, 127
2, 747, Control_c, 9, 4, 127
2, 791, Control_c, 9, 4, 102
2, 800, Note_on_c, 9, 51, 0
2, 803, Note_on_c, 9, 44, 0
2, 825, Control_c, 9, 4, 89
2, 843, Note_on_c, 9, 48, 48
2, 849, Note_on_c, 9, 36, 69
2, 924, Note_on_c, 9, 48, 0
2, 931, Note_on_c, 9, 36, 0
2, 963, Control_c, 9, 4, 120
2, 973, Control_c, 9, 18, 0
2, 973, Note_on_c, 9, 48, 65
2, 974, Control_c, 9, 17, 53
2, 975, Note_on_c, 9, 51, 68
2, 1011, Control_c, 9, 4, 114
2, 1056, Control_c, 9, 4, 91
2, 1056, Note_on_c, 9, 48, 0
2, 1056, Note_on_c, 9, 51, 0
2, 1089, Control_c, 9, 4, 71
2, 1091, Control_c, 9, 17, 45
2, 1092, Note_on_c, 9, 51, 68
2, 1125, Control_c, 9, 4, 0
2, 1173, Note_on_c, 9, 51, 0
2, 1195, Note_on_c, 9, 46, 11
2, 1198, Note_on_c, 9, 36, 74
2, 1201, Control_c, 9, 4, 36
2, 1206, Note_on_c, 9, 44, 127
2, 1231, Control_c, 9, 4, 127
2, 1275, Note_on_c, 9, 46, 0
2, 1278, Control_c, 9, 4, 97
2, 1279, Note_on_c, 9, 36, 0
2, 1287, Note_on_c, 9, 44, 0
2, 1322, Control_c, 9, 4, 84
2, 1422, Control_c, 9, 4, 100
2, 1445, Note_on_c, 9, 36, 85
2, 1451, Control_c, 9, 17, 61
2, 1452, Note_on_c, 9, 51, 93
2, 1453, Note_on_c, 9, 38, 73
2, 1461, Control_c, 9, 4, 106
2, 1527, Note_on_c, 9, 36, 0
2, 1532, Note_on_c, 9, 51, 0
2, 1535, Note_on_c, 9, 38, 0
2, 1537, Control_c, 9, 4, 90
2, 1571, Control_c, 9, 4, 71
2, 1614, Control_c, 9, 4, 0
2, 1681, Control_c, 9, 4, 34
2, 1686, Note_on_c, 9, 44, 127
2, 1690, Control_c, 9, 17, 87
2, 1690, Note_on_c, 9, 51, 71
2, 1712, Control_c, 9, 4, 127
2, 1759, Control_c, 9, 4, 96
2, 1768, Note_on_c, 9, 44, 0
2, 1772, Note_on_c, 9, 51, 0
2, 1801, Control_c, 9, 4, 86
2, 1810, Note_on_c, 9, 48, 45
2, 1816, Note_on_c, 9, 36, 64
2, 1891, Note_on_c, 9, 48, 0
2, 1898, Note_on_c, 9, 36, 0
2, 1905, Control_c, 9, 17, 53
2, 1906, Note_on_c, 9, 51, 52
2, 1914, Control_c, 9, 4, 122
2, 1932, Control_c, 9, 18, 0
2, 1932, Note_on_c, 9, 48, 72
2, 1987, Control_c, 9, 4, 92
2, 1987, Note_on_c, 9, 51, 0
2, 2013, Note_on_c, 9, 48, 0
2, 2021, Control_c, 9, 4, 72
2, 2048, Control_c, 9, 17, 100
2, 2048, Note_on_c, 9, 51, 68
2, 2068, Control_c, 9, 4, 0
2, 2130, Note_on_c, 9, 51, 0
2, 2140, Note_on_c, 9, 44, 127
2, 2145, Control_c, 9, 4, 127
2, 2147, Note_on_c, 9, 36, 74
2, 2183, Control_c, 9, 17, 100
2, 2184, Note_on_c, 9, 51, 6
2, 2190, Control_c, 9, 4, 120
2, 2221, Note_on_c, 9, 44, 0
2, 2228, Control_c, 9, 4, 90
2, 2228, Note_on_c, 9, 36, 0
2, 2265, Note_on_c, 9, 51, 0
2, 2276, Control_c, 9, 17, 127
2, 2277, Note_on_c, 9, 51, 43
2, 2357, Note_on_c, 9, 51, 0
2, 2380, Control_c, 9, 4, 96
2, 2399, Note_on_c, 9, 36, 74
2, 2403, Control_c, 9, 17, 98
2, 2403, Note_on_c, 9, 51, 85
2, 2406, Control_c, 9, 16, 0
2, 2406, Note_on_c, 9, 38, 102
2, 2481, Note_on_c, 9, 36, 0
2, 2485, Note_on_c, 9, 51, 0
2, 2487, Note_on_c, 9, 38, 0
2, 2490, Control_c, 9, 4, 90
2, 2535, Control_c, 9, 4, 68
2, 2566, Control_c, 9, 4, 0
2, 2635, Note_on_c, 9, 44, 127
2, 2641, Control_c, 9, 4, 127
2, 2645, Control_c, 9, 17, 87
2, 2645, Note_on_c, 9, 51, 71
2, 2685, Control_c, 9, 4, 120
2, 2717, Note_on_c, 9, 44, 0
2, 2725, Control_c, 9, 4, 91
2, 2727, Note_on_c, 9, 51, 0
2, 2761, Note_on_c, 9, 48, 44
2, 2762, Control_c, 9, 4, 87
2, 2774, Note_on_c, 9, 36, 68
2, 2842, Note_on_c, 9, 48, 0
2, 2855, Note_on_c, 9, 36, 0
2, 2864, Control_c, 9, 4, 112
2, 2881, Control_c, 9, 17, 83
2, 2882, Note_on_c, 9, 51, 63
2, 2895, Control_c, 9, 18, 0
2, 2896, Note_on_c, 9, 48, 67
2, 2963, Note_on_c, 9, 51, 0
2, 2977, Note_on_c, 9, 48, 0
2, 2978, Control_c, 9, 4, 91
2, 3013, Control_c, 9, 4, 72
2, 3014, Control_c, 9, 17, 63
2, 3015, Note_on_c, 9, 51, 69
2, 3053, Control_c, 9, 4, 0
2, 3096, Note_on_c, 9, 51, 0
2, 3121, Note_on_c, 9, 44, 127
2, 3127, Note_on_c, 9, 36, 69
2, 3128, Control_c, 9, 4, 127
2, 3171, Control_c, 9, 4, 120
2, 3204, Note_on_c, 9, 44, 0
2, 3209, Control_c, 9, 4, 91
2, 3209, Note_on_c, 9, 36, 0
2, 3248, Control_c, 9, 17, 44
2, 3248, Note_on_c, 9, 51, 65
2, 3331, Note_on_c, 9, 51, 0
2, 3339, Control_c, 9, 4, 100
2, 3372, Note_on_c, 9, 36, 71
2, 3373, Control_c, 9, 4, 100
2, 3373, Control_c, 9, 17, 59
2, 3374, Note_on_c, 9, 51, 87
2, 3377, Note_on_c, 9, 38, 87
2, 3453, Note_on_c, 9, 36, 0
2, 3456, Note_on_c, 9, 51, 0
2, 3458, Note_on_c, 9, 38, 0
2, 3471, Control_c, 9, 4, 88
2, 3501, Control_c, 9, 4, 70
2, 3541, Control_c, 9, 4, 0
2, 3600, Control_c, 9, 4, 33
2, 3607, Note_on_c, 9, 44, 126
2, 3613, Control_c, 9, 17, 63
2, 3614, Note_on_c, 9, 51, 77
2, 3632, Control_c, 9, 4, 127
2, 3678, Control_c, 9, 4, 96
2, 3688, Note_on_c, 9, 44, 0
2, 3696, Note_on_c, 9, 51, 0
2, 3718, Control_c, 9, 4, 84
2, 3729, Note_on_c, 9, 48, 43
2, 3740, Note_on_c, 9, 36, 65
2, 3811, Note_on_c, 9, 48, 0
2, 3821, Note_on_c, 9, 36, 0
2, 3827, Control_c, 9, 4, 108
2, 3856, Control_c, 9, 17, 87
2, 3856, Note_on_c, 9, 51, 63
2, 3859, Control_c, 9, 4, 102
2, 3861, Control_c, 9, 18, 0
2, 3862, Note_on_c, 9, 48, 63
2, 3938, Note_on_c, 9, 51, 0
2, 3943, Note_on_c, 9, 48, 0
2, 3950, Control_c, 9, 4, 90
2, 3980, Control_c, 9, 17, 76
2, 3980, Note_on_c, 9, 51, 72
2, 3987, Control_c, 9, 4, 73
2, 4030, Control_c, 9, 4, 0
2, 4062, Note_on_c, 9, 51, 0
2, 4088, Control_c, 9, 4, 51
2, 4092, Note_on_c, 9, 44, 126
2, 4103, Note_on_c, 9, 36, 67
2, 4118, Control_c, 9, 4, 122
2, 4175, Note_on_c, 9, 44, 0
2, 4178, Control_c, 9, 4, 91
2, 4185, Note_on_c, 9, 36, 0
2, 4210, Control_c, 9, 4, 87
2, 4212, Control_c, 9, 17, 110
2, 4213, Note_on_c, 9, 51, 56
2, 4295, Note_on_c, 9, 51, 0
2, 4316, Control_c, 9, 4, 98
2, 4340, Control_c, 9, 17, 87
2, 4340, Note_on_c, 9, 51, 75
2, 4345, Note_on_c, 9, 36, 70
2, 4349, Control_c, 9, 16, 0
2, 4350, Note_on_c, 9, 38, 102
2, 4422, Note_on_c, 9, 51, 0
2, 4426, Note_on_c, 9, 36, 0
2, 4431, Note_on_c, 9, 38, 0
2, 4448, Control_c, 9, 4, 84
2, 4478, Control_c, 9, 4, 68
2, 4508, Control_c, 9, 4, 0
2, 4569, Control_c, 9, 4, 33
2, 4575, Note_on_c, 9, 44, 126
2, 4579, Control_c, 9, 17, 95
2, 4580, Note_on_c, 9, 51, 78
2, 4600, Control_c, 9, 4, 127
2, 4645, Control_c, 9, 4, 96
2, 4657, Note_on_c, 9, 44, 0
2, 4661, Note_on_c, 9, 51, 0
2, 4685, Control_c, 9, 4, 84
2, 4692, Note_on_c, 9, 48, 43
2, 4707, Note_on_c, 9, 36, 62
2, 4773, Note_on_c, 9, 48, 0
2, 4789, Note_on_c, 9, 36, 0
2, 4802, Control_c, 9, 4, 112
2, 4820, Control_c, 9, 18, 0
2, 4821, Note_on_c, 9, 48, 63
2, 4823, Control_c, 9, 17, 127
2, 4824, Note_on_c, 9, 51, 62
2, 4861, Control_c, 9, 4, 102
2, 4894, Control_c, 9, 4, 91
2, 4903, Note_on_c, 9, 48, 0
2, 4905, Note_on_c, 9, 51, 0
2, 4937, Control_c, 9, 4, 73
2, 4948, Note_on_c, 9, 51, 76
2, 4978, Control_c, 9, 4, 0
2, 5030, Note_on_c, 9, 51, 0
2, 5048, Note_on_c, 9, 44, 127
2, 5053, Note_on_c, 9, 36, 68
2, 5055, Control_c, 9, 4, 127
2, 5063, Control_c, 9, 17, 127
2, 5063, Note_on_c, 9, 51, 6
2, 5097, Control_c, 9, 4, 120
2, 5130, Note_on_c, 9, 44, 0
2, 5135, Control_c, 9, 4, 90
2, 5135, Note_on_c, 9, 36, 0
2, 5146, Note_on_c, 9, 51, 0
2, 5183, Control_c, 9, 17, 127
2, 5183, Note_on_c, 9, 51, 45
2, 5265, Note_on_c, 9, 51, 0
2, 5273, Control_c, 9, 4, 96
2, 5301, Note_on_c, 9, 51, 4
2, 5302, Note_on_c, 9, 36, 75
2, 5309, Note_on_c, 9, 38, 103
2, 5310, Control_c, 9, 17, 86
2, 5310, Note_on_c, 9, 51, 0
2, 5311, Note_on_c, 9, 51, 80
2, 5383, Note_on_c, 9, 36, 0
2, 5383, Note_on_c, 9, 51, 0
2, 5390, Note_on_c, 9, 38, 0
2, 5400, Control_c, 9, 4, 90
2, 5438, Control_c, 9, 4, 71
2, 5481, Control_c, 9, 4, 0
2, 5536, Control_c, 9, 4, 49
2, 5540, Note_on_c, 9, 44, 126
2, 5549, Control_c, 9, 17, 121
2, 5549, Note_on_c, 9, 51, 72
2, 5567, Control_c, 9, 4, 127
2, 5612, Control_c, 9, 4, 96
2, 5623, Note_on_c, 9, 44, 0
2, 5631, Note_on_c, 9, 51, 0
2, 5653, Control_c, 9, 4, 85
2, 5669, Note_on_c, 9, 36, 71
2, 5673, Note_on_c, 9, 48, 42
2, 5752, Note_on_c, 9, 36, 0
2, 5754, Note_on_c, 9, 48, 0
2, 5760, Control_c, 9, 4, 108
2, 5790, Control_c, 9, 17, 127
2, 5790, Note_on_c, 9, 51, 61
2, 5798, Control_c, 9, 4, 106
2, 5803, Control_c, 9, 18, 0
2, 5804, Note_on_c, 9, 48, 63
2, 5873, Note_on_c, 9, 51, 0
2, 5885, Note_on_c, 9, 48, 0
2, 5886, Control_c, 9, 4, 91
2, 5918, Note_on_c, 9, 51, 75
2, 5924, Control_c, 9, 4, 71
2, 5966, Control_c, 9, 4, 0
2, 6001, Note_on_c, 9, 51, 0
2, 6024, Note_on_c, 9, 44, 119
2, 6029, Control_c, 9, 4, 127
2, 6035, Note_on_c, 9, 36, 65
2, 6073, Control_c, 9, 4, 120
2, 6105, Note_on_c, 9, 44, 0
2, 6110, Control_c, 9, 4, 91
2, 6117, Note_on_c, 9, 36, 0
2, 6141, Control_c, 9, 4, 86
2, 6149, Control_c, 9, 17, 127
2, 6150, Note_on_c, 9, 51, 43
2, 6232, Note_on_c, 9, 51, 0
2, 6245, Control_c, 9, 4, 98
2, 6281, Control_c, 9, 17, 108
2, 6281, Note_on_c, 9, 36, 70
2, 6281, Note_on_c, 9, 51, 80
2, 6287, Control_c, 9, 16, 0
2, 6287, Note_on_c, 9, 38, 108
2, 6362, Control_c, 9, 4, 92
2, 6362, Note_on_c, 9, 36, 0
2, 6362, Note_on_c, 9, 51, 0
2, 6370, Note_on_c, 9, 38, 0
2, 6403, Control_c, 9, 4, 73
2, 6448, Control_c, 9, 4, 0
2, 6506, Control_c, 9, 4, 51
2, 6510, Note_on_c, 9, 44, 119
2, 6517, Control_c, 9, 17, 97
2, 6518, Note_on_c, 9, 51, 75
2, 6536, Control_c, 9, 4, 127
2, 6583, Control_c, 9, 4, 96
2, 6592, Note_on_c, 9, 44, 0
2, 6600, Note_on_c, 9, 51, 0
2, 6621, Control_c, 9, 4, 84
2, 6639, Note_on_c, 9, 48, 44
2, 6641, Note_on_c, 9, 36, 65
2, 6721, Note_on_c, 9, 48, 0
2, 6723, Note_on_c, 9, 36, 0
2, 6734, Control_c, 9, 4, 110
2, 6758, Control_c, 9, 17, 127
2, 6758, Note_on_c, 9, 51, 64
2, 6769, Control_c, 9, 18, 0
2, 6769, Note_on_c, 9, 48, 68
2, 6798, Control_c, 9, 4, 106
2, 6840, Control_c, 9, 4, 92
2, 6840, Note_on_c, 9, 51, 0
2, 6849, Note_on_c, 9, 48, 0
2, 6882, Control_c, 9, 4, 73
2, 6885, Control_c, 9, 17, 81
2, 6886, Note_on_c, 9, 51, 72
2, 6925, Control_c, 9, 4, 0
2, 6969, Note_on_c, 9, 51, 0
2, 6977, Control_c, 9, 4, 50
2, 6982, Note_on_c, 9, 44, 119
2, 6994, Note_on_c, 9, 36, 68
2, 7008, Control_c, 9, 4, 126
2, 7054, Control_c, 9, 4, 94
2, 7064, Note_on_c, 9, 44, 0
2, 7075, Note_on_c, 9, 36, 0
2, 7106, Control_c, 9, 4, 86
2, 7124, Control_c, 9, 17, 127
2, 7125, Note_on_c, 9, 51, 50
2, 7199, Control_c, 9, 4, 100
2, 7207, Note_on_c, 9, 51, 0
2, 7233, Note_on_c, 9, 36, 70
2, 7240, Note_on_c, 9, 38, 80
2, 7244, Control_c, 9, 17, 92
2, 7245, Note_on_c, 9, 51, 74
2, 7309, Control_c, 9, 4, 93
2, 7315, Note_on_c, 9, 36, 0
2, 7321, Note_on_c, 9, 38, 0
2, 7327, Note_on_c, 9, 51, 0
2, 7364, Control_c, 9, 4, 70
2, 7404, Control_c, 9, 4, 0
2, 7458, Control_c, 9, 4, 33
2, 7465, Note_on_c, 9, 44, 126
2, 7478, Control_c, 9, 17, 82
2, 7478, Note_on_c, 9, 51, 71
2, 7490, Control_c, 9, 4, 127
2, 7532, Control_c, 9, 4, 99
2, 7547, Note_on_c, 9, 44, 0
2, 7559, Note_on_c, 9, 51, 0
2, 7570, Control_c, 9, 4, 83
2, 7589, Control_c, 9, 18, 21
2, 7590, Note_on_c, 9, 48, 41
2, 7597, Note_on_c, 9, 36, 62
2, 7671, Note_on_c, 9, 48, 0
2, 7679, Note_on_c, 9, 36, 0
2, 7680, End_track
0, 0, End_of_file
