0, 0, Header, 1, 2, 480
1, 0, Start_track
1, 0, Tempo, 652173
1, 0, Time_signature, 4, 2, 24, 8
1, 0, Key_signature, 0, "major"
1, 1, End_track
2, 0, Start_track
2, 0, Title_t, "Midi Drums"
2, 0, Program_c, 9, 0
2, 0, Note_on_c, 9, 36, 127
2, 5, Note_on_c, 9, 57, 127
2, 6, Note_on_c, 9, 51, 83
2, 73, Note_on_c, 9, 36, 0
2, 79, Note_on_c, 9, 57, 0
2, 80, Note_on_c, 9, 51, 0
2, 245, Note_on_c, 9, 59, 50
2, 258, Note_on_c, 9, 38, 127
2, 319, Note_on_c, 9, 59, 0
2, 332, Note_on_c, 9, 38, 0
2, 380, Note_on_c, 9, 38, 110
2, 454, Note_on_c, 9, 38, 0
2, 493, Note_on_c, 9, 51, 59
2, 567, Note_on_c, 9, 51, 0
2, 728, Note_on_c, 9, 59, 82
2, 732, Note_on_c, 9, 38, 127
2, 802, Note_on_c, 9, 59, 0
2, 806, Note_on_c, 9, 38, 0
2, 962, Note_on_c, 9, 36, 127
2, 973, Note_on_c, 9, 59, 48
2, 1036, Note_on_c, 9, 36, 0
2, 1047, Note_on_c, 9, 59, 0
2, 1201, Note_on_c, 9, 38, 127
2, 1202, Note_on_c, 9, 59, 66
2, 1275, Note_on_c, 9, 38, 0
2, 1276, Note_on_c, 9, 59, 0
2, 1314, Note_on_c, 9, 38, 93
2, 1388, Note_on_c, 9, 38, 0
2, 1422, Note_on_c, 9, 36, 121
2, 1440, Note_on_c, 9, 59, 55
2, 1496, Note_on_c, 9, 36, 0
2, 1514, Note_on_c, 9, 59, 0
2, 1901, Note_on_c, 9, 36, 127
2, 1904, Note_on_c, 9, 51, 127
2, 1975, Note_on_c, 9, 36, 0
2, 1978, Note_on_c, 9, 51, 0
2, 2143, Note_on_c, 9, 38, 90
2, 2170, Note_on_c, 9, 38, 0
2, 2170, Note_on_c, 9, 38, 126
2, 2217, Note_on_c, 9, 38, 0
2, 2287, Note_on_c, 9, 38, 114
2, 2361, Note_on_c, 9, 38, 0
2, 2399, Note_on_c, 9, 38, 110
2, 2473, Note_on_c, 9, 38, 0
2, 2514, Note_on_c, 9, 36, 89
2, 2588, Note_on_c, 9, 36, 0
2, 2646, Note_on_c, 9, 38, 110
2, 2720, Note_on_c, 9, 38, 0
2, 2872, Note_on_c, 9, 36, 127
2, 2946, Note_on_c, 9, 36, 0
2, 3004, Note_on_c, 9, 38, 127
2, 3079, Note_on_c, 9, 38, 0
2, 3102, Note_on_c, 9, 38, 123
2, 3176, Note_on_c, 9, 38, 0
2, 3236, Note_on_c, 9, 48, 127
2, 3311, Note_on_c, 9, 48, 0
2, 3363, Note_on_c, 9, 45, 127
2, 3438, Note_on_c, 9, 45, 0
2, 3481, Note_on_c, 9, 43, 100
2, 3556, Note_on_c, 9, 43, 0
2, 3601, Note_on_c, 9, 43, 125
2, 3675, Note_on_c, 9, 43, 0
2, 3825, Note_on_c, 9, 51, 127
2, 3825, Note_on_c, 9, 52, 117
2, 3829, Note_on_c, 9, 36, 127
2, 3899, Note_on_c, 9, 51, 0
2, 3899, Note_on_c, 9, 52, 0
2, 3903, Note_on_c, 9, 36, 0
2, 4077, Note_on_c, 9, 38, 127
2, 4151, Note_on_c, 9, 38, 0
2, 4199, Note_on_c, 9, 38, 84
2, 4273, Note_on_c, 9, 38, 0
2, 4313, Note_on_c, 9, 51, 92
2, 4387, Note_on_c, 9, 51, 0
2, 4431, Note_on_c, 9, 36, 98
2, 4505, Note_on_c, 9, 36, 0
2, 4549, Note_on_c, 9, 51, 127
2, 4550, Note_on_c, 9, 38, 127
2, 4623, Note_on_c, 9, 51, 0
2, 4624, Note_on_c, 9, 38, 0
2, 4789, Note_on_c, 9, 36, 127
2, 4794, Note_on_c, 9, 51, 99
2, 4863, Note_on_c, 9, 36, 0
2, 4869, Note_on_c, 9, 51, 0
2, 5030, Note_on_c, 9, 51, 91
2, 5104, Note_on_c, 9, 51, 0
2, 5157, Note_on_c, 9, 51, 89
2, 5231, Note_on_c, 9, 51, 0
2, 5275, Note_on_c, 9, 38, 127
2, 5279, Note_on_c, 9, 51, 110
2, 5349, Note_on_c, 9, 38, 0
2, 5354, Note_on_c, 9, 51, 0
2, 5508, Note_on_c, 9, 51, 59
2, 5582, Note_on_c, 9, 51, 0
2, 5744, Note_on_c, 9, 36, 126
2, 5751, Note_on_c, 9, 51, 127
2, 5818, Note_on_c, 9, 36, 0
2, 5825, Note_on_c, 9, 51, 0
2, 5990, Note_on_c, 9, 51, 89
2, 5998, Note_on_c, 9, 38, 127
2, 6065, Note_on_c, 9, 51, 0
2, 6073, Note_on_c, 9, 38, 0
2, 6118, Note_on_c, 9, 38, 88
2, 6192, Note_on_c, 9, 38, 0
2, 6244, Note_on_c, 9, 51, 79
2, 6318, Note_on_c, 9, 51, 0
2, 6359, Note_on_c, 9, 36, 81
2, 6433, Note_on_c, 9, 36, 0
2, 6477, Note_on_c, 9, 51, 127
2, 6478, Note_on_c, 9, 38, 127
2, 6552, Note_on_c, 9, 38, 0
2, 6552, Note_on_c, 9, 51, 0
2, 6699, Note_on_c, 9, 36, 127
2, 6718, Note_on_c, 9, 51, 85
2, 6773, Note_on_c, 9, 36, 0
2, 6792, Note_on_c, 9, 51, 0
2, 6940, Note_on_c, 9, 51, 61
2, 7014, Note_on_c, 9, 51, 0
2, 7074, Note_on_c, 9, 36, 73
2, 7148, Note_on_c, 9, 36, 0
2, 7183, Note_on_c, 9, 38, 127
2, 7183, Note_on_c, 9, 51, 127
2, 7258, Note_on_c, 9, 38, 0
2, 7258, Note_on_c, 9, 51, 0
2, 7426, Note_on_c, 9, 51, 27
2, 7501, Note_on_c, 9, 51, 0
2, 7502, End_track
0, 0, End_of_file
