0, 0, Header, 1, 2, 480
1, 0, Start_track
1, 0, Tempo, 652173
1, 0, Time_signature, 4, 2, 24, 8
1, 0, Key_signature, 0, "major"
1, 1, End_track
2, 0, Start_track
2, 0, Title_t, "Midi Drums"
2, 0, Program_c, 9, 0
2, 235, Note_on_c, 9, 51, 108
2, 239, Note_on_c, 9, 38, 127
2, 310, Note_on_c, 9, 51, 0
2, 313, Note_on_c, 9, 38, 0
2, 367, Note_on_c, 9, 38, 100
2, 441, Note_on_c, 9, 38, 0
2, 475, Note_on_c, 9, 51, 80
2, 549, Note_on_c, 9, 51, 0
2, 592, Note_on_c, 9, 36, 65
2, 667, Note_on_c, 9, 36, 0
2, 730, Note_on_c, 9, 51, 114
2, 732, Note_on_c, 9, 38, 127
2, 804, Note_on_c, 9, 51, 0
2, 806, Note_on_c, 9, 38, 0
2, 963, Note_on_c, 9, 36, 104
2, 970, Note_on_c, 9, 51, 109
2, 1038, Note_on_c, 9, 36, 0
2, 1043, Note_on_c, 9, 51, 0
2, 1206, Note_on_c, 9, 51, 54
2, 1280, Note_on_c, 9, 51, 0
2, 1316, Note_on_c, 9, 36, 49
2, 1390, Note_on_c, 9, 36, 0
2, 1432, Note_on_c, 9, 38, 127
2, 1432, Note_on_c, 9, 51, 127
2, 1506, Note_on_c, 9, 38, 0
2, 1506, Note_on_c, 9, 51, 0
2, 1674, Note_on_c, 9, 59, 27
2, 1748, Note_on_c, 9, 59, 0
2, 1906, Note_on_c, 9, 36, 95
2, 1914, Note_on_c, 9, 51, 127
2, 1980, Note_on_c, 9, 36, 0
2, 1988, Note_on_c, 9, 51, 0
2, 2148, Note_on_c, 9, 38, 127
2, 2151, Note_on_c, 9, 51, 103
2, 2222, Note_on_c, 9, 38, 0
2, 2225, Note_on_c, 9, 51, 0
2, 2282, Note_on_c, 9, 38, 107
2, 2356, Note_on_c, 9, 38, 0
2, 2389, Note_on_c, 9, 51, 57
2, 2464, Note_on_c, 9, 51, 0
2, 2515, Note_on_c, 9, 36, 117
2, 2589, Note_on_c, 9, 36, 0
2, 2623, Note_on_c, 9, 38, 127
2, 2624, Note_on_c, 9, 51, 127
2, 2698, Note_on_c, 9, 38, 0
2, 2698, Note_on_c, 9, 51, 0
2, 2864, Note_on_c, 9, 36, 127
2, 2870, Note_on_c, 9, 51, 79
2, 2939, Note_on_c, 9, 36, 0
2, 2944, Note_on_c, 9, 51, 0
2, 3003, Note_on_c, 9, 36, 70
2, 3078, Note_on_c, 9, 36, 0
2, 3092, Note_on_c, 9, 51, 106
2, 3166, Note_on_c, 9, 51, 0
2, 3230, Note_on_c, 9, 36, 113
2, 3304, Note_on_c, 9, 36, 0
2, 3339, Note_on_c, 9, 51, 127
2, 3343, Note_on_c, 9, 38, 127
2, 3413, Note_on_c, 9, 51, 0
2, 3417, Note_on_c, 9, 38, 0
2, 3594, Note_on_c, 9, 51, 35
2, 3669, Note_on_c, 9, 51, 0
2, 3819, Note_on_c, 9, 36, 127
2, 3830, Note_on_c, 9, 51, 127
2, 3894, Note_on_c, 9, 36, 0
2, 3904, Note_on_c, 9, 51, 0
2, 4074, Note_on_c, 9, 38, 127
2, 4076, Note_on_c, 9, 51, 102
2, 4149, Note_on_c, 9, 38, 0
2, 4151, Note_on_c, 9, 51, 0
2, 4210, Note_on_c, 9, 38, 104
2, 4284, Note_on_c, 9, 38, 0
2, 4328, Note_on_c, 9, 51, 63
2, 4402, Note_on_c, 9, 51, 0
2, 4440, Note_on_c, 9, 36, 113
2, 4514, Note_on_c, 9, 36, 0
2, 4559, Note_on_c, 9, 51, 127
2, 4566, Note_on_c, 9, 38, 127
2, 4634, Note_on_c, 9, 51, 0
2, 4640, Note_on_c, 9, 38, 0
2, 4798, Note_on_c, 9, 36, 127
2, 4805, Note_on_c, 9, 51, 94
2, 4872, Note_on_c, 9, 36, 0
2, 4879, Note_on_c, 9, 51, 0
2, 5037, Note_on_c, 9, 51, 54
2, 5111, Note_on_c, 9, 51, 0
2, 5178, Note_on_c, 9, 36, 70
2, 5252, Note_on_c, 9, 36, 0
2, 5287, Note_on_c, 9, 38, 127
2, 5289, Note_on_c, 9, 51, 127
2, 5361, Note_on_c, 9, 38, 0
2, 5363, Note_on_c, 9, 51, 0
2, 5761, Note_on_c, 9, 36, 119
2, 5763, Note_on_c, 9, 51, 121
2, 5835, Note_on_c, 9, 36, 0
2, 5837, Note_on_c, 9, 51, 0
2, 6009, Note_on_c, 9, 51, 122
2, 6016, Note_on_c, 9, 38, 127
2, 6084, Note_on_c, 9, 51, 0
2, 6090, Note_on_c, 9, 38, 0
2, 6144, Note_on_c, 9, 38, 127
2, 6217, Note_on_c, 9, 38, 0
2, 6266, Note_on_c, 9, 51, 63
2, 6340, Note_on_c, 9, 51, 0
2, 6360, Note_on_c, 9, 36, 73
2, 6435, Note_on_c, 9, 36, 0
2, 6488, Note_on_c, 9, 38, 127
2, 6488, Note_on_c, 9, 51, 127
2, 6563, Note_on_c, 9, 38, 0
2, 6563, Note_on_c, 9, 51, 0
2, 6727, Note_on_c, 9, 36, 127
2, 6740, Note_on_c, 9, 51, 127
2, 6743, Note_on_c, 9, 38, 127
2, 6802, Note_on_c, 9, 36, 0
2, 6814, Note_on_c, 9, 51, 0
2, 6817, Note_on_c, 9, 38, 0
2, 6863, Note_on_c, 9, 38, 127
2, 6937, Note_on_c, 9, 38, 0
2, 7097, Note_on_c, 9, 38, 127
2, 7171, Note_on_c, 9, 38, 0
2, 7236, Note_on_c, 9, 38, 127
2, 7310, Note_on_c, 9, 38, 0
2, 7452, Note_on_c, 9, 38, 127
2, 7527, Note_on_c, 9, 38, 0
2, 7578, Note_on_c, 9, 38, 127
2, 7653, Note_on_c, 9, 38, 0
2, 7654, End_track
0, 0, End_of_file
