0, 0, Header, 1, 2, 480
1, 0, Start_track
1, 0, Tempo, 588235
1, 0, Time_signature, 4, 2, 24, 8
1, 0, Key_signature, 0, "major"
1, 1, End_track
2, 0, Start_track
2, 0, Title_t, "Classic Studio Kit"
2, 0, Program_c, 9, 0
2, 0, Control_c, 9, 18, 0
2, 10, Control_c, 9, 4, 96
2, 20, Note_on_c, 9, 48, 56
2, 51, Control_c, 9, 17, 51
2, 51, Note_on_c, 9, 51, 60
2, 52, Control_c, 9, 4, 100
2, 93, Control_c, 9, 4, 95
2, 102, Note_on_c, 9, 48, 0
2, 133, Note_on_c, 9, 51, 0
2, 145, Control_c, 9, 4, 83
2, 175, Control_c, 9, 4, 70
2, 191, Control_c, 9, 17, 65
2, 192, Note_on_c, 9, 51, 47
2, 216, Control_c, 9, 4, 0
2, 269, Control_c, 9, 4, 49
2, 273, Note_on_c, 9, 44, 106
2, 274, Note_on_c, 9, 51, 0
2, 275, Note_on_c, 9, 36, 52
2, 299, Control_c, 9, 4, 116
2, 337, Control_c, 9, 4, 102
2, 355, Note_on_c, 9, 44, 0
2, 357, Note_on_c, 9, 36, 0
2, 368, Control_c, 9, 4, 88
2, 491, Control_c, 9, 4, 94
2, 509, Control_c, 9, 17, 39
2, 510, Control_c, 9, 16, 0
2, 510, Note_on_c, 9, 51, 85
2, 512, Note_on_c, 9, 38, 69
2, 517, Note_on_c, 9, 36, 58
2, 591, Note_on_c, 9, 51, 0
2, 592, Control_c, 9, 4, 89
2, 592, Note_on_c, 9, 38, 0
2, 599, Note_on_c, 9, 36, 0
2, 631, Control_c, 9, 4, 76
2, 664, Control_c, 9, 4, 54
2, 695, Control_c, 9, 4, 0
2, 737, Control_c, 9, 4, 48
2, 742, Note_on_c, 9, 44, 93
2, 754, Control_c, 9, 17, 48
2, 755, Note_on_c, 9, 51, 71
2, 768, Control_c, 9, 4, 116
2, 810, Control_c, 9, 4, 96
2, 824, Note_on_c, 9, 44, 0
2, 836, Note_on_c, 9, 51, 0
2, 846, Control_c, 9, 4, 85
2, 868, Control_c, 9, 18, 0
2, 868, Note_on_c, 9, 48, 42
2, 876, Note_on_c, 9, 36, 40
2, 951, Note_on_c, 9, 48, 0
2, 959, Note_on_c, 9, 36, 0
2, 973, Control_c, 9, 4, 99
2, 991, Control_c, 9, 17, 104
2, 992, Note_on_c, 9, 51, 58
2, 995, Note_on_c, 9, 48, 57
2, 1048, Control_c, 9, 4, 94
2, 1074, Note_on_c, 9, 51, 0
2, 1075, Note_on_c, 9, 48, 0
2, 1094, Control_c, 9, 4, 83
2, 1120, Control_c, 9, 17, 80
2, 1121, Note_on_c, 9, 51, 60
2, 1150, Control_c, 9, 4, 54
2, 1183, Control_c, 9, 4, 0
2, 1203, Note_on_c, 9, 51, 0
2, 1221, Control_c, 9, 4, 49
2, 1226, Note_on_c, 9, 44, 93
2, 1228, Note_on_c, 9, 36, 46
2, 1252, Control_c, 9, 4, 114
2, 1285, Control_c, 9, 4, 100
2, 1308, Note_on_c, 9, 44, 0
2, 1310, Note_on_c, 9, 36, 0
2, 1323, Control_c, 9, 4, 86
2, 1354, Control_c, 9, 17, 52
2, 1354, Note_on_c, 9, 51, 77
2, 1436, Note_on_c, 9, 51, 0
2, 1441, Control_c, 9, 4, 92
2, 1471, Note_on_c, 9, 38, 61
2, 1480, Note_on_c, 9, 36, 57
2, 1553, Note_on_c, 9, 38, 0
2, 1563, Note_on_c, 9, 36, 0
2, 1571, Control_c, 9, 4, 85
2, 1611, Control_c, 9, 4, 71
2, 1652, Control_c, 9, 4, 23
2, 1692, Control_c, 9, 4, 46
2, 1700, Control_c, 9, 17, 76
2, 1700, Note_on_c, 9, 51, 78
2, 1702, Note_on_c, 9, 44, 67
2, 1704, Note_on_c, 9, 46, 55
2, 1725, Control_c, 9, 4, 116
2, 1766, Control_c, 9, 4, 95
2, 1781, Note_on_c, 9, 51, 0
2, 1782, Note_on_c, 9, 44, 0
2, 1782, Note_on_c, 9, 46, 0
2, 1798, Control_c, 9, 4, 83
2, 1823, Control_c, 9, 18, 0
2, 1824, Note_on_c, 9, 48, 40
2, 1834, Note_on_c, 9, 36, 46
2, 1906, Note_on_c, 9, 48, 0
2, 1918, Note_on_c, 9, 36, 0
2, 1919, Control_c, 9, 4, 98
2, 1952, Note_on_c, 9, 48, 57
2, 1958, Control_c, 9, 17, 78
2, 1959, Note_on_c, 9, 51, 63
2, 2007, Control_c, 9, 4, 93
2, 2034, Note_on_c, 9, 48, 0
2, 2040, Note_on_c, 9, 51, 0
2, 2056, Control_c, 9, 4, 82
2, 2092, Control_c, 9, 17, 127
2, 2092, Note_on_c, 9, 51, 66
2, 2105, Control_c, 9, 4, 54
2, 2141, Control_c, 9, 4, 0
2, 2171, Control_c, 9, 4, 48
2, 2174, Note_on_c, 9, 51, 0
2, 2177, Note_on_c, 9, 44, 80
2, 2193, Note_on_c, 9, 36, 40
2, 2202, Control_c, 9, 4, 110
2, 2251, Control_c, 9, 4, 91
2, 2259, Note_on_c, 9, 44, 0
2, 2275, Note_on_c, 9, 36, 0
2, 2281, Control_c, 9, 4, 84
2, 2385, Control_c, 9, 4, 90
2, 2435, Control_c, 9, 17, 38
2, 2435, Note_on_c, 9, 51, 86
2, 2440, Note_on_c, 9, 36, 49
2, 2441, Control_c, 9, 16, 0
2, 2442, Note_on_c, 9, 38, 61
2, 2517, Note_on_c, 9, 51, 0
2, 2522, Note_on_c, 9, 36, 0
2, 2522, Note_on_c, 9, 38, 0
2, 2529, Control_c, 9, 4, 83
2, 2565, Control_c, 9, 4, 70
2, 2607, Control_c, 9, 4, 0
2, 2657, Control_c, 9, 4, 49
2, 2662, Note_on_c, 9, 44, 100
2, 2683, Control_c, 9, 17, 87
2, 2683, Note_on_c, 9, 51, 69
2, 2687, Control_c, 9, 4, 110
2, 2722, Control_c, 9, 4, 98
2, 2744, Note_on_c, 9, 44, 0
2, 2760, Control_c, 9, 4, 85
2, 2765, Note_on_c, 9, 51, 0
2, 2803, Note_on_c, 9, 36, 33
2, 2805, Control_c, 9, 18, 0
2, 2805, Note_on_c, 9, 48, 43
2, 2885, Note_on_c, 9, 36, 0
2, 2886, Note_on_c, 9, 48, 0
2, 2894, Control_c, 9, 4, 95
2, 2921, Control_c, 9, 17, 127
2, 2922, Note_on_c, 9, 51, 58
2, 2924, Note_on_c, 9, 48, 56
2, 2981, Control_c, 9, 4, 91
2, 3004, Note_on_c, 9, 51, 0
2, 3005, Note_on_c, 9, 48, 0
2, 3028, Control_c, 9, 4, 79
2, 3050, Control_c, 9, 17, 127
2, 3051, Note_on_c, 9, 51, 68
2, 3069, Control_c, 9, 4, 55
2, 3099, Control_c, 9, 4, 12
2, 3132, Control_c, 9, 4, 44
2, 3133, Note_on_c, 9, 51, 0
2, 3139, Note_on_c, 9, 44, 74
2, 3152, Note_on_c, 9, 36, 40
2, 3165, Control_c, 9, 4, 110
2, 3211, Control_c, 9, 4, 91
2, 3222, Note_on_c, 9, 44, 0
2, 3235, Note_on_c, 9, 36, 0
2, 3242, Control_c, 9, 4, 84
2, 3274, Control_c, 9, 17, 94
2, 3275, Note_on_c, 9, 51, 78
2, 3343, Control_c, 9, 4, 90
2, 3356, Note_on_c, 9, 51, 0
2, 3399, Note_on_c, 9, 38, 63
2, 3406, Note_on_c, 9, 36, 49
2, 3480, Note_on_c, 9, 38, 0
2, 3488, Note_on_c, 9, 36, 0
2, 3517, Control_c, 9, 4, 76
2, 3549, Control_c, 9, 4, 54
2, 3584, Control_c, 9, 4, 0
2, 3615, Control_c, 9, 4, 49
2, 3621, Note_on_c, 9, 44, 80
2, 3628, Control_c, 9, 17, 92
2, 3629, Note_on_c, 9, 51, 76
2, 3646, Control_c, 9, 4, 114
2, 3689, Control_c, 9, 4, 93
2, 3703, Note_on_c, 9, 44, 0
2, 3710, Note_on_c, 9, 51, 0
2, 3728, Control_c, 9, 4, 82
2, 3753, Note_on_c, 9, 36, 33
2, 3754, Control_c, 9, 18, 0
2, 3755, Note_on_c, 9, 48, 41
2, 3834, Note_on_c, 9, 36, 0
2, 3836, Note_on_c, 9, 48, 0
2, 3843, Control_c, 9, 4, 96
2, 3875, Note_on_c, 9, 48, 61
2, 3877, Control_c, 9, 17, 63
2, 3878, Note_on_c, 9, 51, 60
2, 3935, Control_c, 9, 4, 92
2, 3957, Note_on_c, 9, 48, 0
2, 3958, Note_on_c, 9, 51, 0
2, 3967, Control_c, 9, 4, 86
2, 4005, Control_c, 9, 4, 73
2, 4007, Control_c, 9, 17, 127
2, 4008, Note_on_c, 9, 51, 69
2, 4036, Control_c, 9, 4, 46
2, 4066, Control_c, 9, 4, 4
2, 4090, Note_on_c, 9, 51, 0
2, 4102, Note_on_c, 9, 44, 80
2, 4113, Note_on_c, 9, 36, 36
2, 4118, Control_c, 9, 4, 114
2, 4122, Control_c, 9, 17, 127
2, 4122, Note_on_c, 9, 51, 7
2, 4157, Control_c, 9, 4, 98
2, 4184, Note_on_c, 9, 44, 0
2, 4194, Note_on_c, 9, 36, 0
2, 4197, Control_c, 9, 4, 84
2, 4202, Note_on_c, 9, 51, 0
2, 4302, Control_c, 9, 4, 90
2, 4358, Control_c, 9, 17, 52
2, 4358, Note_on_c, 9, 51, 82
2, 4360, Note_on_c, 9, 36, 50
2, 4361, Control_c, 9, 16, 0
2, 4362, Note_on_c, 9, 38, 53
2, 4441, Note_on_c, 9, 36, 0
2, 4441, Note_on_c, 9, 51, 0
2, 4443, Note_on_c, 9, 38, 0
2, 4454, Control_c, 9, 4, 83
2, 4491, Control_c, 9, 4, 70
2, 4532, Control_c, 9, 4, 0
2, 4580, Control_c, 9, 4, 48
2, 4585, Note_on_c, 9, 44, 113
2, 4596, Control_c, 9, 17, 111
2, 4596, Note_on_c, 9, 51, 73
2, 4610, Control_c, 9, 4, 114
2, 4655, Control_c, 9, 4, 93
2, 4667, Note_on_c, 9, 44, 0
2, 4678, Note_on_c, 9, 51, 0
2, 4698, Control_c, 9, 4, 83
2, 4707, Control_c, 9, 18, 0
2, 4707, Note_on_c, 9, 48, 45
2, 4720, Note_on_c, 9, 36, 39
2, 4790, Note_on_c, 9, 48, 0
2, 4802, Note_on_c, 9, 36, 0
2, 4806, Control_c, 9, 4, 98
2, 4827, Note_on_c, 9, 48, 58
2, 4835, Control_c, 9, 17, 100
2, 4835, Note_on_c, 9, 51, 57
2, 4895, Control_c, 9, 4, 93
2, 4909, Note_on_c, 9, 48, 0
2, 4916, Note_on_c, 9, 51, 0
2, 4942, Control_c, 9, 4, 83
2, 4963, Control_c, 9, 17, 96
2, 4964, Note_on_c, 9, 51, 65
2, 4973, Control_c, 9, 4, 70
2, 5015, Control_c, 9, 4, 0
2, 5045, Note_on_c, 9, 51, 0
2, 5062, Control_c, 9, 4, 48
2, 5066, Note_on_c, 9, 44, 106
2, 5073, Note_on_c, 9, 36, 48
2, 5092, Control_c, 9, 4, 110
2, 5139, Control_c, 9, 4, 91
2, 5148, Note_on_c, 9, 44, 0
2, 5155, Note_on_c, 9, 36, 0
2, 5169, Control_c, 9, 4, 85
2, 5195, Control_c, 9, 17, 39
2, 5196, Note_on_c, 9, 51, 77
2, 5269, Control_c, 9, 4, 90
2, 5278, Note_on_c, 9, 51, 0
2, 5316, Note_on_c, 9, 38, 61
2, 5323, Note_on_c, 9, 36, 51
2, 5397, Note_on_c, 9, 38, 0
2, 5405, Note_on_c, 9, 36, 0
2, 5436, Control_c, 9, 4, 76
2, 5468, Control_c, 9, 4, 54
2, 5499, Control_c, 9, 4, 0
2, 5535, Control_c, 9, 4, 48
2, 5540, Note_on_c, 9, 44, 93
2, 5545, Control_c, 9, 17, 84
2, 5545, Note_on_c, 9, 51, 79
2, 5566, Control_c, 9, 4, 118
2, 5604, Control_c, 9, 4, 96
2, 5622, Note_on_c, 9, 44, 0
2, 5627, Note_on_c, 9, 51, 0
2, 5639, Control_c, 9, 4, 83
2, 5668, Control_c, 9, 18, 0
2, 5669, Note_on_c, 9, 48, 42
2, 5676, Note_on_c, 9, 36, 45
2, 5750, Note_on_c, 9, 48, 0
2, 5759, Note_on_c, 9, 36, 0
2, 5763, Control_c, 9, 4, 96
2, 5794, Note_on_c, 9, 48, 62
2, 5800, Control_c, 9, 17, 51
2, 5801, Note_on_c, 9, 51, 59
2, 5864, Control_c, 9, 4, 91
2, 5876, Note_on_c, 9, 48, 0
2, 5882, Note_on_c, 9, 51, 0
2, 5911, Control_c, 9, 4, 80
2, 5923, Control_c, 9, 17, 93
2, 5924, Note_on_c, 9, 51, 64
2, 5949, Control_c, 9, 4, 55
2, 5981, Control_c, 9, 4, 0
2, 6006, Note_on_c, 9, 51, 0
2, 6019, Control_c, 9, 4, 48
2, 6024, Note_on_c, 9, 44, 93
2, 6027, Note_on_c, 9, 36, 49
2, 6038, Control_c, 9, 17, 93
2, 6038, Note_on_c, 9, 51, 5
2, 6050, Control_c, 9, 4, 112
2, 6081, Control_c, 9, 4, 99
2, 6106, Note_on_c, 9, 44, 0
2, 6109, Note_on_c, 9, 36, 0
2, 6120, Control_c, 9, 4, 84
2, 6120, Note_on_c, 9, 51, 0
2, 6242, Control_c, 9, 4, 94
2, 6271, Control_c, 9, 17, 28
2, 6271, Note_on_c, 9, 36, 52
2, 6273, Note_on_c, 9, 51, 83
2, 6276, Control_c, 9, 16, 0
2, 6277, Note_on_c, 9, 38, 54
2, 6353, Note_on_c, 9, 36, 0
2, 6353, Note_on_c, 9, 51, 0
2, 6358, Note_on_c, 9, 38, 0
2, 6367, Control_c, 9, 4, 83
2, 6402, Control_c, 9, 4, 70
2, 6447, Control_c, 9, 4, 0
2, 6496, Control_c, 9, 4, 50
2, 6500, Note_on_c, 9, 44, 106
2, 6515, Control_c, 9, 17, 63
2, 6515, Note_on_c, 9, 51, 70
2, 6526, Control_c, 9, 4, 112
2, 6562, Control_c, 9, 4, 98
2, 6583, Note_on_c, 9, 44, 0
2, 6597, Note_on_c, 9, 51, 0
2, 6600, Control_c, 9, 4, 84
2, 6632, Control_c, 9, 18, 0
2, 6632, Note_on_c, 9, 48, 44
2, 6640, Note_on_c, 9, 36, 45
2, 6714, Note_on_c, 9, 48, 0
2, 6719, Control_c, 9, 4, 97
2, 6722, Note_on_c, 9, 36, 0
2, 6756, Note_on_c, 9, 48, 54
2, 6760, Control_c, 9, 17, 67
2, 6761, Note_on_c, 9, 51, 57
2, 6811, Control_c, 9, 4, 92
2, 6837, Note_on_c, 9, 48, 0
2, 6842, Note_on_c, 9, 51, 0
2, 6862, Control_c, 9, 4, 80
2, 6880, Control_c, 9, 17, 99
2, 6880, Note_on_c, 9, 51, 63
2, 6905, Control_c, 9, 4, 57
2, 6906, Note_on_c, 9, 46, 7
2, 6940, Control_c, 9, 4, 0
2, 6962, Note_on_c, 9, 51, 0
2, 6973, Control_c, 9, 4, 49
2, 6977, Note_on_c, 9, 44, 87
2, 6987, Note_on_c, 9, 46, 0
2, 6989, Note_on_c, 9, 36, 44
2, 7003, Control_c, 9, 4, 112
2, 7036, Control_c, 9, 4, 98
2, 7060, Note_on_c, 9, 44, 0
2, 7072, Note_on_c, 9, 36, 0
2, 7079, Control_c, 9, 4, 85
2, 7112, Control_c, 9, 17, 43
2, 7113, Note_on_c, 9, 51, 80
2, 7186, Control_c, 9, 4, 90
2, 7195, Note_on_c, 9, 51, 0
2, 7232, Control_c, 9, 16, 21
2, 7233, Note_on_c, 9, 38, 59
2, 7240, Note_on_c, 9, 36, 54
2, 7313, Note_on_c, 9, 38, 0
2, 7321, Note_on_c, 9, 36, 0
2, 7331, Control_c, 9, 4, 83
2, 7372, Control_c, 9, 4, 70
2, 7417, Control_c, 9, 4, 0
2, 7453, Control_c, 9, 17, 101
2, 7453, Note_on_c, 9, 51, 71
2, 7458, Control_c, 9, 4, 50
2, 7463, Note_on_c, 9, 44, 93
2, 7488, Control_c, 9, 4, 114
2, 7520, Control_c, 9, 4, 100
2, 7535, Note_on_c, 9, 51, 0
2, 7545, Note_on_c, 9, 44, 0
2, 7551, Control_c, 9, 4, 85
2, 7567, Control_c, 9, 17, 101
2, 7568, Note_on_c, 9, 51, 5
2, 7583, Control_c, 9, 4, 81
2, 7583, Control_c, 9, 18, 0
2, 7583, Note_on_c, 9, 48, 44
2, 7598, Note_on_c, 9, 36, 45
2, 7650, Note_on_c, 9, 51, 0
2, 7665, Note_on_c, 9, 48, 0
2, 7678, Control_c, 9, 4, 96
2, 7680, Note_on_c, 9, 36, 0
2, 7681, End_track
0, 0, End_of_file
