0, 0, Header, 1, 2, 480
1, 0, Start_track
1, 0, Tempo, 461538
1, 0, Time_signature, 4, 2, 24, 8
1, 0, Key_signature, 0, "major"
1, 1, End_track
2, 0, Start_track
2, 0, Title_t, "SoCal"
2, 0, Program_c, 9, 0
2, 0, Control_c, 9, 16, 21
2, 6, Control_c, 9, 17, 80
2, 7, Note_on_c, 9, 51, 102
2, 110, Note_on_c, 9, 51, 0
2, 152, Note_on_c, 9, 36, 64
2, 164, Control_c, 9, 4, 29
2, 201, Control_c, 9, 4, 23
2, 248, Control_c, 9, 4, 18
2, 256, Note_on_c, 9, 36, 0
2, 361, Control_c, 9, 17, 0
2, 362, Note_on_c, 9, 51, 43
2, 364, Control_c, 9, 4, 32
2, 404, Control_c, 9, 4, 78
2, 405, Note_on_c, 9, 44, 28
2, 438, Control_c, 9, 4, 72
2, 465, Note_on_c, 9, 51, 0
2, 480, Control_c, 9, 4, 65
2, 509, Note_on_c, 9, 44, 0
2, 537, Control_c, 9, 16, 31
2, 538, Note_on_c, 9, 40, 65
2, 592, Control_c, 9, 4, 70
2, 641, Note_on_c, 9, 40, 0
2, 693, Control_c, 9, 17, 0
2, 694, Note_on_c, 9, 51, 54
2, 798, Note_on_c, 9, 51, 0
2, 807, Control_c, 9, 4, 66
2, 840, Control_c, 9, 16, 42
2, 841, Note_on_c, 9, 38, 19
2, 946, Note_on_c, 9, 38, 0
2, 1005, Note_on_c, 9, 59, 53
2, 1010, Control_c, 9, 4, 79
2, 1044, Control_c, 9, 4, 80
2, 1065, Control_c, 9, 17, 0
2, 1066, Note_on_c, 9, 51, 29
2, 1109, Note_on_c, 9, 59, 0
2, 1165, Control_c, 9, 16, 0
2, 1166, Note_on_c, 9, 38, 17
2, 1170, Note_on_c, 9, 51, 0
2, 1269, Note_on_c, 9, 38, 0
2, 1302, Control_c, 9, 16, 0
2, 1303, Note_on_c, 9, 38, 31
2, 1406, Note_on_c, 9, 38, 0
2, 1461, Control_c, 9, 16, 56
2, 1462, Note_on_c, 9, 40, 74
2, 1518, Control_c, 9, 16, 0
2, 1518, Note_on_c, 9, 40, 0
2, 1519, Note_on_c, 9, 40, 25
2, 1566, Note_on_c, 9, 40, 0
2, 1626, Control_c, 9, 17, 4
2, 1627, Note_on_c, 9, 51, 85
2, 1676, Control_c, 9, 4, 84
2, 1730, Note_on_c, 9, 51, 0
2, 1790, Control_c, 9, 16, 0
2, 1791, Note_on_c, 9, 38, 16
2, 1895, Note_on_c, 9, 38, 0
2, 1949, Note_on_c, 9, 36, 78
2, 2053, Note_on_c, 9, 36, 0
2, 2055, Control_c, 9, 4, 88
2, 2115, Control_c, 9, 16, 0
2, 2117, Note_on_c, 9, 38, 23
2, 2221, Note_on_c, 9, 38, 0
2, 2256, Control_c, 9, 17, 5
2, 2257, Note_on_c, 9, 51, 86
2, 2361, Note_on_c, 9, 51, 0
2, 2408, Note_on_c, 9, 36, 54
2, 2512, Note_on_c, 9, 36, 0
2, 2587, Control_c, 9, 17, 60
2, 2588, Note_on_c, 9, 51, 51
2, 2691, Note_on_c, 9, 51, 0
2, 2735, Note_on_c, 9, 37, 70
2, 2839, Note_on_c, 9, 37, 0
2, 2884, Control_c, 9, 17, 85
2, 2885, Note_on_c, 9, 51, 81
2, 2988, Note_on_c, 9, 51, 0
2, 3040, Control_c, 9, 16, 0
2, 3041, Note_on_c, 9, 38, 12
2, 3144, Note_on_c, 9, 38, 0
2, 3207, Note_on_c, 9, 37, 22
2, 3311, Note_on_c, 9, 37, 0
2, 3367, Note_on_c, 9, 37, 62
2, 3471, Note_on_c, 9, 37, 0
2, 3517, Control_c, 9, 16, 0
2, 3518, Note_on_c, 9, 40, 36
2, 3592, Control_c, 9, 4, 98
2, 3622, Note_on_c, 9, 40, 0
2, 3690, Control_c, 9, 16, 97
2, 3691, Note_on_c, 9, 40, 41
2, 3692, Control_c, 9, 4, 92
2, 3794, Note_on_c, 9, 40, 0
2, 3845, Note_on_c, 9, 26, 74
2, 3872, Control_c, 9, 4, 81
2, 3923, Control_c, 9, 4, 75
2, 3948, Note_on_c, 9, 26, 0
2, 3959, Control_c, 9, 4, 70
2, 4020, Control_c, 9, 4, 32
2, 4050, Control_c, 9, 4, 0
2, 4159, Control_c, 9, 4, 32
2, 4172, Note_on_c, 9, 44, 87
2, 4177, Control_c, 9, 17, 79
2, 4178, Note_on_c, 9, 51, 112
2, 4189, Control_c, 9, 4, 98
2, 4229, Control_c, 9, 4, 94
2, 4275, Note_on_c, 9, 44, 0
2, 4281, Note_on_c, 9, 51, 0
2, 4357, Control_c, 9, 16, 0
2, 4358, Note_on_c, 9, 38, 33
2, 4461, Note_on_c, 9, 38, 0
2, 4517, Control_c, 9, 17, 127
2, 4518, Note_on_c, 9, 51, 58
2, 4621, Note_on_c, 9, 51, 0
2, 4647, Note_on_c, 9, 36, 48
2, 4657, Control_c, 9, 4, 90
2, 4752, Note_on_c, 9, 36, 0
2, 4820, Note_on_c, 9, 36, 99
2, 4911, Control_c, 9, 16, 64
2, 4912, Note_on_c, 9, 38, 20
2, 4924, Note_on_c, 9, 36, 0
2, 4970, Control_c, 9, 16, 0
2, 4971, Note_on_c, 9, 38, 0
2, 4972, Note_on_c, 9, 38, 25
2, 5015, Note_on_c, 9, 38, 0
2, 5043, Control_c, 9, 16, 0
2, 5044, Note_on_c, 9, 38, 32
2, 5075, Note_on_c, 9, 38, 0
2, 5117, Note_on_c, 9, 37, 59
2, 5221, Note_on_c, 9, 37, 0
2, 5265, Note_on_c, 9, 36, 66
2, 5369, Note_on_c, 9, 36, 0
2, 5436, Control_c, 9, 17, 82
2, 5437, Note_on_c, 9, 51, 88
2, 5456, Control_c, 9, 4, 99
2, 5510, Control_c, 9, 4, 93
2, 5541, Note_on_c, 9, 51, 0
2, 5543, Control_c, 9, 4, 87
2, 5588, Control_c, 9, 4, 71
2, 5608, Control_c, 9, 16, 0
2, 5609, Note_on_c, 9, 38, 18
2, 5631, Control_c, 9, 4, 0
2, 5713, Note_on_c, 9, 38, 0
2, 5717, Note_on_c, 9, 46, 7
2, 5737, Note_on_c, 9, 44, 113
2, 5744, Control_c, 9, 4, 108
2, 5790, Control_c, 9, 4, 127
2, 5820, Note_on_c, 9, 46, 0
2, 5841, Note_on_c, 9, 44, 0
2, 5848, Control_c, 9, 4, 110
2, 5890, Control_c, 9, 4, 95
2, 5905, Control_c, 9, 16, 0
2, 5905, Note_on_c, 9, 38, 30
2, 5943, Control_c, 9, 4, 104
2, 5980, Control_c, 9, 4, 116
2, 6009, Note_on_c, 9, 38, 0
2, 6029, Control_c, 9, 4, 110
2, 6064, Control_c, 9, 17, 9
2, 6066, Note_on_c, 9, 51, 85
2, 6070, Control_c, 9, 4, 93
2, 6112, Control_c, 9, 4, 71
2, 6150, Control_c, 9, 4, 0
2, 6169, Note_on_c, 9, 51, 0
2, 6230, Control_c, 9, 4, 33
2, 6240, Note_on_c, 9, 44, 100
2, 6260, Control_c, 9, 4, 112
2, 6293, Control_c, 9, 4, 127
2, 6334, Control_c, 9, 4, 120
2, 6344, Note_on_c, 9, 44, 0
2, 6373, Control_c, 9, 4, 100
2, 6396, Control_c, 9, 16, 71
2, 6397, Note_on_c, 9, 40, 34
2, 6501, Note_on_c, 9, 40, 0
2, 6520, Control_c, 9, 4, 110
2, 6561, Control_c, 9, 4, 110
2, 6561, Note_on_c, 9, 26, 94
2, 6636, Control_c, 9, 4, 104
2, 6664, Note_on_c, 9, 26, 0
2, 6679, Control_c, 9, 4, 100
2, 6715, Control_c, 9, 16, 0
2, 6716, Note_on_c, 9, 38, 29
2, 6738, Control_c, 9, 4, 106
2, 6799, Control_c, 9, 4, 102
2, 6819, Note_on_c, 9, 38, 0
2, 6880, Control_c, 9, 16, 0
2, 6881, Note_on_c, 9, 38, 34
2, 6976, Control_c, 9, 4, 98
2, 6984, Note_on_c, 9, 38, 0
2, 7046, Control_c, 9, 16, 0
2, 7047, Note_on_c, 9, 38, 31
2, 7150, Note_on_c, 9, 38, 0
2, 7208, Control_c, 9, 16, 127
2, 7209, Note_on_c, 9, 38, 91
2, 7312, Note_on_c, 9, 38, 0
2, 7374, Control_c, 9, 18, 0
2, 7375, Note_on_c, 9, 48, 37
2, 7479, Note_on_c, 9, 48, 0
2, 7517, Control_c, 9, 18, 0
2, 7518, Note_on_c, 9, 48, 41
2, 7621, Note_on_c, 9, 48, 0
2, 7675, Control_c, 9, 4, 106
2, 7676, End_track
0, 0, End_of_file
