0, 0, Header, 1, 2, 480
1, 0, Start_track
1, 0, Tempo, 588235
1, 0, Time_signature, 4, 2, 24, 8
1, 0, Key_signature, 0, "major"
1, 1, End_track
2, 0, Start_track
2, 0, Title_t, "Classic Studio Kit"
2, 0, Program_c, 9, 0
2, 0, Control_c, 9, 18, 0
2, 19, Control_c, 9, 4, 97
2, 50, Control_c, 9, 4, 102
2, 54, Control_c, 9, 17, 27
2, 55, Note_on_c, 9, 51, 66
2, 57, Note_on_c, 9, 48, 82
2, 137, Note_on_c, 9, 51, 0
2, 138, Note_on_c, 9, 48, 0
2, 154, Control_c, 9, 4, 89
2, 176, Control_c, 9, 17, 0
2, 176, Note_on_c, 9, 51, 91
2, 185, Control_c, 9, 4, 71
2, 222, Control_c, 9, 4, 0
2, 259, Note_on_c, 9, 51, 0
2, 283, Note_on_c, 9, 44, 126
2, 285, Note_on_c, 9, 36, 61
2, 289, Control_c, 9, 4, 127
2, 325, Control_c, 9, 4, 99
2, 365, Note_on_c, 9, 44, 0
2, 367, Note_on_c, 9, 36, 0
2, 371, Control_c, 9, 4, 89
2, 420, Note_on_c, 9, 53, 62
2, 494, Control_c, 9, 4, 95
2, 503, Note_on_c, 9, 53, 0
2, 528, Note_on_c, 9, 36, 79
2, 532, Control_c, 9, 16, 0
2, 532, Note_on_c, 9, 40, 82
2, 583, Control_c, 9, 4, 99
2, 610, Note_on_c, 9, 36, 0
2, 614, Note_on_c, 9, 40, 0
2, 645, Control_c, 9, 4, 84
2, 678, Control_c, 9, 4, 69
2, 711, Control_c, 9, 4, 0
2, 758, Note_on_c, 9, 51, 112
2, 769, Note_on_c, 9, 44, 119
2, 775, Control_c, 9, 4, 127
2, 810, Control_c, 9, 4, 110
2, 840, Note_on_c, 9, 51, 0
2, 845, Control_c, 9, 4, 92
2, 850, Note_on_c, 9, 44, 0
2, 880, Control_c, 9, 4, 88
2, 896, Control_c, 9, 18, 0
2, 897, Note_on_c, 9, 36, 76
2, 897, Note_on_c, 9, 48, 44
2, 978, Note_on_c, 9, 36, 0
2, 978, Note_on_c, 9, 48, 0
2, 1006, Control_c, 9, 4, 102
2, 1009, Control_c, 9, 17, 0
2, 1009, Note_on_c, 9, 51, 96
2, 1010, Note_on_c, 9, 48, 82
2, 1091, Note_on_c, 9, 48, 0
2, 1091, Note_on_c, 9, 51, 0
2, 1102, Control_c, 9, 4, 90
2, 1135, Control_c, 9, 4, 71
2, 1177, Control_c, 9, 4, 0
2, 1231, Note_on_c, 9, 44, 119
2, 1238, Control_c, 9, 4, 127
2, 1239, Note_on_c, 9, 36, 58
2, 1273, Control_c, 9, 4, 110
2, 1307, Control_c, 9, 4, 92
2, 1313, Note_on_c, 9, 44, 0
2, 1321, Note_on_c, 9, 36, 0
2, 1351, Control_c, 9, 4, 88
2, 1442, Control_c, 9, 4, 93
2, 1485, Note_on_c, 9, 36, 74
2, 1497, Note_on_c, 9, 51, 124
2, 1499, Control_c, 9, 16, 106
2, 1500, Note_on_c, 9, 38, 86
2, 1545, Control_c, 9, 4, 102
2, 1568, Note_on_c, 9, 36, 0
2, 1578, Note_on_c, 9, 51, 0
2, 1580, Note_on_c, 9, 38, 0
2, 1590, Control_c, 9, 4, 90
2, 1622, Control_c, 9, 4, 72
2, 1665, Control_c, 9, 4, 0
2, 1717, Control_c, 9, 4, 50
2, 1721, Note_on_c, 9, 44, 119
2, 1730, Control_c, 9, 17, 0
2, 1731, Note_on_c, 9, 51, 91
2, 1747, Control_c, 9, 4, 127
2, 1781, Control_c, 9, 4, 99
2, 1803, Note_on_c, 9, 44, 0
2, 1812, Note_on_c, 9, 51, 0
2, 1826, Control_c, 9, 4, 88
2, 1844, Control_c, 9, 18, 0
2, 1844, Note_on_c, 9, 48, 56
2, 1854, Note_on_c, 9, 36, 68
2, 1927, Note_on_c, 9, 48, 0
2, 1932, Control_c, 9, 4, 96
2, 1936, Note_on_c, 9, 36, 0
2, 1963, Control_c, 9, 4, 102
2, 1968, Control_c, 9, 17, 39
2, 1968, Note_on_c, 9, 51, 67
2, 1973, Note_on_c, 9, 48, 112
2, 2051, Note_on_c, 9, 51, 0
2, 2054, Note_on_c, 9, 48, 0
2, 2068, Control_c, 9, 4, 90
2, 2090, Control_c, 9, 17, 23
2, 2091, Note_on_c, 9, 51, 77
2, 2101, Control_c, 9, 4, 71
2, 2143, Control_c, 9, 4, 0
2, 2172, Note_on_c, 9, 51, 0
2, 2196, Note_on_c, 9, 36, 65
2, 2197, Note_on_c, 9, 44, 119
2, 2203, Control_c, 9, 4, 127
2, 2237, Control_c, 9, 4, 110
2, 2268, Control_c, 9, 4, 92
2, 2276, Note_on_c, 9, 36, 0
2, 2277, Note_on_c, 9, 44, 0
2, 2301, Control_c, 9, 4, 88
2, 2334, Control_c, 9, 17, 5
2, 2335, Note_on_c, 9, 51, 96
2, 2409, Control_c, 9, 4, 95
2, 2417, Note_on_c, 9, 51, 0
2, 2441, Note_on_c, 9, 36, 74
2, 2453, Control_c, 9, 16, 0
2, 2454, Note_on_c, 9, 40, 74
2, 2523, Note_on_c, 9, 36, 0
2, 2534, Note_on_c, 9, 40, 0
2, 2567, Control_c, 9, 4, 83
2, 2609, Control_c, 9, 4, 52
2, 2640, Control_c, 9, 4, 8
2, 2675, Note_on_c, 9, 44, 80
2, 2679, Control_c, 9, 17, 38
2, 2680, Note_on_c, 9, 51, 89
2, 2685, Control_c, 9, 4, 127
2, 2728, Control_c, 9, 4, 99
2, 2758, Note_on_c, 9, 44, 0
2, 2760, Note_on_c, 9, 51, 0
2, 2773, Control_c, 9, 4, 85
2, 2808, Control_c, 9, 18, 0
2, 2808, Note_on_c, 9, 48, 46
2, 2811, Note_on_c, 9, 36, 65
2, 2890, Note_on_c, 9, 48, 0
2, 2893, Note_on_c, 9, 36, 0
2, 2896, Control_c, 9, 4, 98
2, 2927, Control_c, 9, 17, 48
2, 2928, Note_on_c, 9, 51, 80
2, 2930, Note_on_c, 9, 48, 84
2, 3010, Note_on_c, 9, 51, 0
2, 3012, Note_on_c, 9, 48, 0
2, 3043, Control_c, 9, 4, 84
2, 3047, Control_c, 9, 17, 90
2, 3048, Note_on_c, 9, 51, 71
2, 3088, Control_c, 9, 4, 53
2, 3118, Control_c, 9, 4, 10
2, 3129, Note_on_c, 9, 51, 0
2, 3154, Note_on_c, 9, 44, 80
2, 3165, Control_c, 9, 4, 127
2, 3166, Note_on_c, 9, 36, 45
2, 3207, Control_c, 9, 4, 98
2, 3235, Note_on_c, 9, 44, 0
2, 3248, Note_on_c, 9, 36, 0
2, 3257, Control_c, 9, 4, 88
2, 3369, Control_c, 9, 4, 94
2, 3402, Control_c, 9, 17, 7
2, 3403, Note_on_c, 9, 51, 97
2, 3409, Note_on_c, 9, 36, 76
2, 3409, Note_on_c, 9, 38, 101
2, 3484, Note_on_c, 9, 51, 0
2, 3490, Note_on_c, 9, 38, 0
2, 3491, Note_on_c, 9, 36, 0
2, 3505, Control_c, 9, 4, 88
2, 3538, Control_c, 9, 4, 72
2, 3580, Control_c, 9, 4, 0
2, 3637, Note_on_c, 9, 44, 113
2, 3642, Control_c, 9, 17, 62
2, 3642, Note_on_c, 9, 51, 73
2, 3644, Control_c, 9, 4, 127
2, 3678, Control_c, 9, 4, 110
2, 3711, Control_c, 9, 4, 92
2, 3718, Note_on_c, 9, 44, 0
2, 3723, Note_on_c, 9, 51, 0
2, 3741, Control_c, 9, 4, 87
2, 3764, Control_c, 9, 18, 0
2, 3764, Note_on_c, 9, 48, 51
2, 3775, Note_on_c, 9, 36, 75
2, 3846, Note_on_c, 9, 48, 0
2, 3859, Note_on_c, 9, 36, 0
2, 3863, Control_c, 9, 4, 100
2, 3889, Note_on_c, 9, 48, 84
2, 3892, Control_c, 9, 17, 127
2, 3892, Note_on_c, 9, 51, 64
2, 3971, Note_on_c, 9, 48, 0
2, 3974, Note_on_c, 9, 51, 0
2, 3988, Control_c, 9, 4, 87
2, 4018, Control_c, 9, 17, 51
2, 4019, Note_on_c, 9, 51, 73
2, 4023, Control_c, 9, 4, 70
2, 4067, Control_c, 9, 4, 0
2, 4100, Note_on_c, 9, 51, 0
2, 4117, Note_on_c, 9, 36, 65
2, 4118, Note_on_c, 9, 44, 100
2, 4125, Control_c, 9, 4, 127
2, 4133, Control_c, 9, 17, 51
2, 4134, Note_on_c, 9, 51, 6
2, 4171, Control_c, 9, 4, 97
2, 4199, Note_on_c, 9, 36, 0
2, 4199, Note_on_c, 9, 44, 0
2, 4213, Control_c, 9, 4, 85
2, 4215, Note_on_c, 9, 51, 0
2, 4263, Control_c, 9, 17, 76
2, 4264, Note_on_c, 9, 51, 75
2, 4338, Control_c, 9, 4, 93
2, 4346, Note_on_c, 9, 51, 0
2, 4362, Control_c, 9, 16, 0
2, 4362, Note_on_c, 9, 38, 84
2, 4365, Note_on_c, 9, 36, 77
2, 4436, Control_c, 9, 4, 97
2, 4445, Note_on_c, 9, 38, 0
2, 4447, Note_on_c, 9, 36, 0
2, 4493, Control_c, 9, 4, 85
2, 4525, Control_c, 9, 4, 69
2, 4560, Control_c, 9, 4, 0
2, 4593, Control_c, 9, 17, 44
2, 4594, Note_on_c, 9, 51, 83
2, 4609, Note_on_c, 9, 44, 106
2, 4617, Control_c, 9, 4, 127
2, 4661, Control_c, 9, 4, 98
2, 4676, Note_on_c, 9, 51, 0
2, 4691, Note_on_c, 9, 44, 0
2, 4702, Control_c, 9, 4, 85
2, 4731, Control_c, 9, 18, 0
2, 4731, Note_on_c, 9, 36, 67
2, 4733, Note_on_c, 9, 48, 44
2, 4814, Note_on_c, 9, 36, 0
2, 4814, Note_on_c, 9, 48, 0
2, 4827, Control_c, 9, 4, 98
2, 4855, Control_c, 9, 17, 46
2, 4855, Note_on_c, 9, 51, 83
2, 4860, Note_on_c, 9, 48, 82
2, 4938, Note_on_c, 9, 51, 0
2, 4942, Note_on_c, 9, 48, 0
2, 4957, Control_c, 9, 4, 85
2, 4983, Control_c, 9, 17, 112
2, 4984, Note_on_c, 9, 51, 69
2, 4993, Control_c, 9, 4, 69
2, 5032, Control_c, 9, 4, 0
2, 5066, Control_c, 9, 4, 33
2, 5066, Note_on_c, 9, 51, 0
2, 5074, Note_on_c, 9, 44, 93
2, 5075, Note_on_c, 9, 36, 68
2, 5099, Control_c, 9, 4, 126
2, 5139, Control_c, 9, 4, 93
2, 5155, Note_on_c, 9, 44, 0
2, 5156, Note_on_c, 9, 36, 0
2, 5185, Control_c, 9, 4, 83
2, 5252, Control_c, 9, 4, 87
2, 5283, Control_c, 9, 4, 92
2, 5313, Note_on_c, 9, 36, 70
2, 5319, Note_on_c, 9, 57, 99
2, 5325, Control_c, 9, 16, 106
2, 5326, Note_on_c, 9, 38, 83
2, 5395, Note_on_c, 9, 36, 0
2, 5400, Note_on_c, 9, 57, 0
2, 5406, Note_on_c, 9, 38, 0
2, 5422, Control_c, 9, 4, 85
2, 5456, Control_c, 9, 4, 70
2, 5500, Control_c, 9, 4, 0
2, 5549, Note_on_c, 9, 44, 93
2, 5557, Control_c, 9, 4, 127
2, 5567, Note_on_c, 9, 57, 82
2, 5591, Control_c, 9, 4, 104
2, 5627, Control_c, 9, 4, 91
2, 5631, Note_on_c, 9, 44, 0
2, 5650, Note_on_c, 9, 57, 0
2, 5666, Control_c, 9, 4, 87
2, 5685, Note_on_c, 9, 36, 61
2, 5698, Control_c, 9, 18, 0
2, 5699, Note_on_c, 9, 48, 48
2, 5767, Note_on_c, 9, 36, 0
2, 5773, Control_c, 9, 4, 98
2, 5780, Note_on_c, 9, 48, 0
2, 5814, Note_on_c, 9, 57, 58
2, 5817, Note_on_c, 9, 48, 113
2, 5896, Note_on_c, 9, 57, 0
2, 5897, Note_on_c, 9, 48, 0
2, 5908, Control_c, 9, 4, 86
2, 5938, Note_on_c, 9, 57, 76
2, 5956, Control_c, 9, 4, 54
2, 5986, Control_c, 9, 4, 0
2, 6021, Note_on_c, 9, 57, 0
2, 6027, Note_on_c, 9, 44, 87
2, 6030, Note_on_c, 9, 36, 57
2, 6036, Control_c, 9, 4, 127
2, 6068, Control_c, 9, 4, 97
2, 6109, Note_on_c, 9, 44, 0
2, 6112, Note_on_c, 9, 36, 0
2, 6127, Control_c, 9, 4, 87
2, 6187, Note_on_c, 9, 57, 99
2, 6235, Control_c, 9, 4, 92
2, 6269, Note_on_c, 9, 57, 0
2, 6275, Note_on_c, 9, 36, 67
2, 6298, Control_c, 9, 16, 0
2, 6298, Note_on_c, 9, 40, 67
2, 6358, Note_on_c, 9, 36, 0
2, 6380, Note_on_c, 9, 40, 0
2, 6409, Control_c, 9, 4, 84
2, 6440, Control_c, 9, 4, 70
2, 6479, Control_c, 9, 4, 0
2, 6527, Note_on_c, 9, 44, 93
2, 6536, Control_c, 9, 4, 127
2, 6536, Note_on_c, 9, 57, 50
2, 6569, Control_c, 9, 4, 102
2, 6605, Control_c, 9, 4, 90
2, 6610, Note_on_c, 9, 44, 0
2, 6618, Note_on_c, 9, 57, 0
2, 6645, Control_c, 9, 4, 86
2, 6660, Note_on_c, 9, 36, 62
2, 6666, Control_c, 9, 18, 0
2, 6667, Note_on_c, 9, 48, 45
2, 6743, Note_on_c, 9, 36, 0
2, 6747, Control_c, 9, 4, 96
2, 6748, Note_on_c, 9, 48, 0
2, 6774, Note_on_c, 9, 57, 72
2, 6783, Note_on_c, 9, 48, 72
2, 6856, Note_on_c, 9, 57, 0
2, 6864, Note_on_c, 9, 48, 0
2, 6894, Control_c, 9, 4, 83
2, 6903, Note_on_c, 9, 57, 77
2, 6929, Control_c, 9, 4, 56
2, 6964, Control_c, 9, 4, 0
2, 6987, Note_on_c, 9, 57, 0
2, 7001, Note_on_c, 9, 44, 87
2, 7007, Note_on_c, 9, 36, 61
2, 7012, Control_c, 9, 4, 127
2, 7043, Control_c, 9, 4, 97
2, 7083, Note_on_c, 9, 44, 0
2, 7088, Note_on_c, 9, 36, 0
2, 7097, Control_c, 9, 4, 86
2, 7201, Control_c, 9, 4, 91
2, 7252, Note_on_c, 9, 36, 65
2, 7263, Note_on_c, 9, 40, 65
2, 7265, Note_on_c, 9, 57, 81
2, 7334, Note_on_c, 9, 36, 0
2, 7345, Note_on_c, 9, 40, 0
2, 7347, Note_on_c, 9, 57, 0
2, 7375, Control_c, 9, 4, 84
2, 7405, Control_c, 9, 4, 70
2, 7441, Control_c, 9, 4, 0
2, 7487, Control_c, 9, 4, 48
2, 7492, Note_on_c, 9, 44, 106
2, 7493, Note_on_c, 9, 57, 76
2, 7518, Control_c, 9, 4, 120
2, 7559, Control_c, 9, 4, 93
2, 7575, Note_on_c, 9, 44, 0
2, 7575, Note_on_c, 9, 57, 0
2, 7609, Control_c, 9, 4, 84
2, 7621, Control_c, 9, 18, 0
2, 7622, End_track
0, 0, End_of_file
