0, 0, Header, 1, 2, 480
1, 0, Start_track
1, 0, Tempo, 588235
1, 0, Time_signature, 4, 2, 24, 8
1, 0, Key_signature, 0, "major"
1, 1, End_track
2, 0, Start_track
2, 0, Title_t, "Classic Studio Kit"
2, 0, Program_c, 9, 0
2, 0, Control_c, 9, 18, 0
2, 27, Control_c, 9, 17, 20
2, 28, Note_on_c, 9, 51, 61
2, 39, Control_c, 9, 4, 106
2, 109, Note_on_c, 9, 51, 0
2, 133, Control_c, 9, 4, 91
2, 166, Control_c, 9, 4, 71
2, 199, Control_c, 9, 4, 0
2, 261, Note_on_c, 9, 44, 126
2, 265, Note_on_c, 9, 36, 79
2, 267, Control_c, 9, 4, 127
2, 271, Note_on_c, 9, 38, 72
2, 273, Control_c, 9, 17, 0
2, 273, Note_on_c, 9, 51, 125
2, 304, Control_c, 9, 4, 108
2, 339, Control_c, 9, 4, 91
2, 345, Note_on_c, 9, 44, 0
2, 348, Note_on_c, 9, 36, 0
2, 353, Note_on_c, 9, 38, 0
2, 356, Note_on_c, 9, 51, 0
2, 379, Control_c, 9, 4, 87
2, 478, Control_c, 9, 4, 106
2, 510, Note_on_c, 9, 36, 99
2, 517, Note_on_c, 9, 48, 77
2, 518, Note_on_c, 9, 53, 127
2, 536, Control_c, 9, 4, 106
2, 590, Control_c, 9, 4, 92
2, 590, Note_on_c, 9, 36, 0
2, 597, Note_on_c, 9, 48, 0
2, 597, Note_on_c, 9, 53, 0
2, 630, Control_c, 9, 4, 74
2, 672, Control_c, 9, 4, 0
2, 739, Control_c, 9, 4, 33
2, 745, Note_on_c, 9, 44, 127
2, 761, Control_c, 9, 17, 19
2, 761, Note_on_c, 9, 51, 76
2, 771, Control_c, 9, 4, 127
2, 823, Control_c, 9, 4, 99
2, 827, Note_on_c, 9, 44, 0
2, 843, Note_on_c, 9, 51, 0
2, 863, Control_c, 9, 4, 90
2, 872, Control_c, 9, 16, 0
2, 872, Note_on_c, 9, 38, 43
2, 889, Note_on_c, 9, 36, 93
2, 954, Note_on_c, 9, 38, 0
2, 971, Note_on_c, 9, 36, 0
2, 983, Control_c, 9, 4, 118
2, 1000, Control_c, 9, 17, 16
2, 1000, Note_on_c, 9, 51, 117
2, 1058, Control_c, 9, 4, 112
2, 1064, Control_c, 9, 17, 16
2, 1064, Note_on_c, 9, 51, 0
2, 1064, Note_on_c, 9, 51, 32
2, 1082, Note_on_c, 9, 51, 0
2, 1100, Control_c, 9, 4, 88
2, 1114, Control_c, 9, 16, 21
2, 1115, Note_on_c, 9, 38, 35
2, 1133, Control_c, 9, 4, 71
2, 1164, Control_c, 9, 4, 0
2, 1196, Note_on_c, 9, 38, 0
2, 1213, Note_on_c, 9, 36, 84
2, 1229, Note_on_c, 9, 44, 127
2, 1233, Control_c, 9, 4, 127
2, 1241, Control_c, 9, 16, 0
2, 1241, Note_on_c, 9, 38, 38
2, 1281, Control_c, 9, 4, 100
2, 1296, Note_on_c, 9, 36, 0
2, 1311, Note_on_c, 9, 44, 0
2, 1321, Control_c, 9, 4, 86
2, 1324, Note_on_c, 9, 38, 0
2, 1363, Control_c, 9, 16, 0
2, 1364, Note_on_c, 9, 38, 23
2, 1418, Control_c, 9, 4, 92
2, 1444, Note_on_c, 9, 38, 0
2, 1459, Control_c, 9, 4, 100
2, 1463, Control_c, 9, 18, 0
2, 1463, Note_on_c, 9, 50, 124
2, 1470, Note_on_c, 9, 36, 96
2, 1478, Control_c, 9, 16, 127
2, 1479, Note_on_c, 9, 40, 30
2, 1546, Note_on_c, 9, 50, 0
2, 1550, Control_c, 9, 4, 93
2, 1553, Note_on_c, 9, 36, 0
2, 1560, Note_on_c, 9, 40, 0
2, 1600, Control_c, 9, 4, 69
2, 1631, Control_c, 9, 4, 0
2, 1694, Note_on_c, 9, 44, 127
2, 1700, Control_c, 9, 4, 127
2, 1706, Control_c, 9, 16, 126
2, 1707, Note_on_c, 9, 40, 67
2, 1744, Control_c, 9, 4, 120
2, 1776, Note_on_c, 9, 44, 0
2, 1784, Control_c, 9, 4, 91
2, 1789, Note_on_c, 9, 40, 0
2, 1828, Control_c, 9, 16, 0
2, 1829, Note_on_c, 9, 38, 35
2, 1832, Note_on_c, 9, 36, 73
2, 1910, Note_on_c, 9, 38, 0
2, 1914, Note_on_c, 9, 36, 0
2, 1936, Control_c, 9, 16, 127
2, 1936, Note_on_c, 9, 40, 39
2, 1950, Control_c, 9, 4, 100
2, 1985, Control_c, 9, 4, 104
2, 2018, Note_on_c, 9, 40, 0
2, 2038, Control_c, 9, 4, 90
2, 2065, Note_on_c, 9, 48, 93
2, 2069, Control_c, 9, 4, 71
2, 2106, Control_c, 9, 4, 0
2, 2146, Note_on_c, 9, 48, 0
2, 2163, Control_c, 9, 4, 35
2, 2169, Note_on_c, 9, 44, 127
2, 2177, Control_c, 9, 16, 0
2, 2177, Note_on_c, 9, 38, 31
2, 2184, Note_on_c, 9, 36, 84
2, 2194, Control_c, 9, 4, 127
2, 2227, Control_c, 9, 4, 102
2, 2251, Note_on_c, 9, 44, 0
2, 2259, Control_c, 9, 4, 89
2, 2259, Note_on_c, 9, 38, 0
2, 2267, Note_on_c, 9, 36, 0
2, 2304, Control_c, 9, 16, 126
2, 2305, Note_on_c, 9, 40, 14
2, 2386, Note_on_c, 9, 40, 0
2, 2425, Control_c, 9, 16, 64
2, 2425, Note_on_c, 9, 38, 86
2, 2433, Note_on_c, 9, 36, 87
2, 2465, Control_c, 9, 17, 3
2, 2465, Note_on_c, 9, 51, 110
2, 2473, Control_c, 9, 4, 102
2, 2508, Note_on_c, 9, 38, 0
2, 2516, Note_on_c, 9, 36, 0
2, 2526, Control_c, 9, 4, 95
2, 2548, Note_on_c, 9, 51, 0
2, 2559, Control_c, 9, 16, 0
2, 2560, Note_on_c, 9, 38, 16
2, 2570, Control_c, 9, 4, 71
2, 2602, Control_c, 9, 4, 0
2, 2641, Note_on_c, 9, 38, 0
2, 2658, Control_c, 9, 4, 33
2, 2663, Note_on_c, 9, 44, 126
2, 2673, Control_c, 9, 17, 74
2, 2674, Note_on_c, 9, 51, 66
2, 2689, Control_c, 9, 4, 127
2, 2719, Control_c, 9, 4, 118
2, 2745, Note_on_c, 9, 44, 0
2, 2756, Note_on_c, 9, 51, 0
2, 2758, Control_c, 9, 4, 90
2, 2788, Control_c, 9, 18, 0
2, 2789, Note_on_c, 9, 36, 74
2, 2789, Note_on_c, 9, 48, 65
2, 2871, Note_on_c, 9, 36, 0
2, 2871, Note_on_c, 9, 48, 0
2, 2891, Control_c, 9, 4, 112
2, 2903, Control_c, 9, 17, 0
2, 2904, Note_on_c, 9, 51, 68
2, 2986, Note_on_c, 9, 51, 0
2, 2999, Control_c, 9, 4, 95
2, 3032, Control_c, 9, 17, 1
2, 3033, Note_on_c, 9, 51, 88
2, 3041, Control_c, 9, 4, 70
2, 3073, Control_c, 9, 4, 0
2, 3115, Note_on_c, 9, 51, 0
2, 3124, Control_c, 9, 4, 33
2, 3130, Note_on_c, 9, 44, 119
2, 3136, Note_on_c, 9, 36, 76
2, 3151, Control_c, 9, 16, 0
2, 3152, Note_on_c, 9, 38, 49
2, 3155, Control_c, 9, 4, 127
2, 3209, Control_c, 9, 4, 92
2, 3212, Note_on_c, 9, 44, 0
2, 3218, Note_on_c, 9, 36, 0
2, 3234, Note_on_c, 9, 38, 0
2, 3244, Control_c, 9, 4, 88
2, 3346, Control_c, 9, 4, 98
2, 3387, Note_on_c, 9, 36, 80
2, 3397, Control_c, 9, 17, 0
2, 3397, Note_on_c, 9, 51, 126
2, 3399, Control_c, 9, 16, 127
2, 3399, Note_on_c, 9, 38, 100
2, 3440, Control_c, 9, 4, 104
2, 3469, Note_on_c, 9, 36, 0
2, 3479, Note_on_c, 9, 51, 0
2, 3480, Note_on_c, 9, 38, 0
2, 3500, Control_c, 9, 4, 92
2, 3534, Control_c, 9, 4, 73
2, 3577, Control_c, 9, 4, 12
2, 3609, Control_c, 9, 4, 56
2, 3614, Note_on_c, 9, 44, 87
2, 3627, Control_c, 9, 17, 44
2, 3627, Note_on_c, 9, 51, 68
2, 3639, Control_c, 9, 4, 127
2, 3693, Control_c, 9, 4, 91
2, 3696, Note_on_c, 9, 44, 0
2, 3710, Note_on_c, 9, 51, 0
2, 3756, Note_on_c, 9, 36, 74
2, 3766, Control_c, 9, 17, 44
2, 3767, Note_on_c, 9, 51, 4
2, 3826, Control_c, 9, 4, 98
2, 3839, Note_on_c, 9, 36, 0
2, 3849, Note_on_c, 9, 51, 0
2, 3878, Note_on_c, 9, 48, 85
2, 3884, Control_c, 9, 17, 0
2, 3884, Note_on_c, 9, 51, 117
2, 3906, Control_c, 9, 4, 104
2, 3959, Note_on_c, 9, 48, 0
2, 3966, Note_on_c, 9, 51, 0
2, 3971, Control_c, 9, 4, 90
2, 4002, Control_c, 9, 4, 71
2, 4034, Control_c, 9, 4, 0
2, 4105, Note_on_c, 9, 44, 127
2, 4110, Control_c, 9, 4, 127
2, 4120, Control_c, 9, 17, 41
2, 4120, Note_on_c, 9, 51, 55
2, 4150, Control_c, 9, 4, 110
2, 4184, Control_c, 9, 4, 90
2, 4186, Note_on_c, 9, 44, 0
2, 4203, Note_on_c, 9, 51, 0
2, 4225, Control_c, 9, 4, 86
2, 4278, Control_c, 9, 4, 90
2, 4309, Control_c, 9, 4, 97
2, 4349, Control_c, 9, 16, 64
2, 4350, Note_on_c, 9, 38, 69
2, 4354, Note_on_c, 9, 53, 127
2, 4361, Note_on_c, 9, 36, 78
2, 4410, Control_c, 9, 4, 108
2, 4431, Note_on_c, 9, 38, 0
2, 4437, Note_on_c, 9, 53, 0
2, 4443, Note_on_c, 9, 36, 0
2, 4451, Control_c, 9, 4, 91
2, 4484, Control_c, 9, 4, 72
2, 4520, Control_c, 9, 4, 0
2, 4576, Control_c, 9, 4, 32
2, 4583, Note_on_c, 9, 44, 126
2, 4596, Control_c, 9, 17, 13
2, 4597, Note_on_c, 9, 51, 86
2, 4608, Control_c, 9, 4, 127
2, 4661, Control_c, 9, 4, 93
2, 4665, Note_on_c, 9, 44, 0
2, 4679, Note_on_c, 9, 51, 0
2, 4694, Control_c, 9, 4, 89
2, 4712, Control_c, 9, 18, 0
2, 4713, Note_on_c, 9, 48, 48
2, 4714, Note_on_c, 9, 36, 70
2, 4794, Note_on_c, 9, 48, 0
2, 4797, Note_on_c, 9, 36, 0
2, 4803, Control_c, 9, 4, 110
2, 4814, Control_c, 9, 17, 12
2, 4815, Note_on_c, 9, 51, 67
2, 4842, Note_on_c, 9, 48, 79
2, 4896, Note_on_c, 9, 51, 0
2, 4912, Control_c, 9, 4, 95
2, 4924, Note_on_c, 9, 48, 0
2, 4939, Control_c, 9, 17, 0
2, 4939, Note_on_c, 9, 51, 96
2, 4958, Control_c, 9, 4, 72
2, 4994, Control_c, 9, 4, 0
2, 5021, Note_on_c, 9, 51, 0
2, 5055, Note_on_c, 9, 44, 126
2, 5056, Note_on_c, 9, 36, 62
2, 5062, Control_c, 9, 4, 127
2, 5104, Control_c, 9, 4, 110
2, 5134, Control_c, 9, 4, 91
2, 5137, Note_on_c, 9, 44, 0
2, 5139, Note_on_c, 9, 36, 0
2, 5148, Control_c, 9, 17, 56
2, 5149, Note_on_c, 9, 51, 54
2, 5231, Note_on_c, 9, 51, 0
2, 5260, Control_c, 9, 4, 99
2, 5299, Control_c, 9, 4, 95
2, 5300, Note_on_c, 9, 36, 83
2, 5306, Control_c, 9, 17, 0
2, 5307, Control_c, 9, 16, 0
2, 5307, Note_on_c, 9, 38, 68
2, 5307, Note_on_c, 9, 51, 94
2, 5347, Control_c, 9, 4, 99
2, 5383, Note_on_c, 9, 36, 0
2, 5387, Note_on_c, 9, 38, 0
2, 5387, Note_on_c, 9, 51, 0
2, 5396, Control_c, 9, 4, 92
2, 5431, Control_c, 9, 4, 73
2, 5471, Control_c, 9, 4, 0
2, 5536, Note_on_c, 9, 44, 126
2, 5542, Control_c, 9, 4, 127
2, 5551, Control_c, 9, 17, 44
2, 5551, Note_on_c, 9, 51, 76
2, 5586, Control_c, 9, 4, 120
2, 5618, Note_on_c, 9, 44, 0
2, 5629, Control_c, 9, 4, 92
2, 5633, Note_on_c, 9, 51, 0
2, 5667, Control_c, 9, 18, 0
2, 5667, Note_on_c, 9, 48, 51
2, 5671, Note_on_c, 9, 36, 81
2, 5748, Note_on_c, 9, 48, 0
2, 5754, Note_on_c, 9, 36, 0
2, 5784, Control_c, 9, 4, 100
2, 5794, Control_c, 9, 17, 41
2, 5795, Note_on_c, 9, 51, 92
2, 5877, Note_on_c, 9, 51, 0
2, 5878, Control_c, 9, 4, 93
2, 5914, Control_c, 9, 4, 75
2, 5916, Note_on_c, 9, 48, 124
2, 5950, Control_c, 9, 4, 0
2, 5997, Note_on_c, 9, 48, 0
2, 6022, Control_c, 9, 4, 32
2, 6028, Note_on_c, 9, 44, 127
2, 6040, Note_on_c, 9, 38, 38
2, 6053, Control_c, 9, 4, 127
2, 6085, Control_c, 9, 4, 102
2, 6095, Control_c, 9, 16, 0
2, 6095, Note_on_c, 9, 38, 0
2, 6096, Note_on_c, 9, 38, 40
2, 6109, Note_on_c, 9, 44, 0
2, 6117, Control_c, 9, 4, 89
2, 6122, Note_on_c, 9, 38, 0
2, 6155, Note_on_c, 9, 38, 40
2, 6176, Note_on_c, 9, 38, 0
2, 6199, Control_c, 9, 16, 0
2, 6200, Note_on_c, 9, 38, 49
2, 6229, Control_c, 9, 4, 95
2, 6237, Note_on_c, 9, 38, 0
2, 6271, Control_c, 9, 17, 94
2, 6271, Note_on_c, 9, 51, 82
2, 6278, Note_on_c, 9, 36, 89
2, 6353, Note_on_c, 9, 51, 0
2, 6360, Note_on_c, 9, 36, 0
2, 6374, Control_c, 9, 4, 88
2, 6406, Control_c, 9, 4, 71
2, 6444, Control_c, 9, 4, 0
2, 6502, Note_on_c, 9, 44, 119
2, 6509, Note_on_c, 9, 40, 80
2, 6510, Control_c, 9, 4, 127
2, 6510, Control_c, 9, 17, 63
2, 6510, Note_on_c, 9, 51, 83
2, 6552, Control_c, 9, 4, 116
2, 6583, Note_on_c, 9, 44, 0
2, 6590, Control_c, 9, 4, 90
2, 6590, Note_on_c, 9, 40, 0
2, 6592, Note_on_c, 9, 51, 0
2, 6628, Note_on_c, 9, 36, 74
2, 6711, Note_on_c, 9, 36, 0
2, 6736, Control_c, 9, 4, 98
2, 6744, Control_c, 9, 17, 60
2, 6745, Note_on_c, 9, 51, 81
2, 6772, Control_c, 9, 4, 102
2, 6827, Note_on_c, 9, 51, 0
2, 6844, Control_c, 9, 4, 89
2, 6848, Control_c, 9, 18, 0
2, 6849, Note_on_c, 9, 48, 59
2, 6875, Control_c, 9, 4, 71
2, 6910, Control_c, 9, 4, 0
2, 6930, Note_on_c, 9, 48, 0
2, 6977, Control_c, 9, 16, 0
2, 6978, Note_on_c, 9, 38, 58
2, 6984, Note_on_c, 9, 44, 127
2, 6989, Control_c, 9, 4, 127
2, 7035, Control_c, 9, 4, 120
2, 7058, Note_on_c, 9, 38, 0
2, 7066, Note_on_c, 9, 44, 0
2, 7075, Control_c, 9, 4, 91
2, 7089, Note_on_c, 9, 36, 65
2, 7171, Note_on_c, 9, 36, 0
2, 7206, Note_on_c, 9, 36, 78
2, 7214, Control_c, 9, 4, 112
2, 7230, Control_c, 9, 17, 127
2, 7231, Note_on_c, 9, 51, 100
2, 7277, Control_c, 9, 4, 102
2, 7289, Note_on_c, 9, 36, 0
2, 7311, Control_c, 9, 4, 90
2, 7312, Note_on_c, 9, 51, 0
2, 7345, Control_c, 9, 4, 72
2, 7381, Control_c, 9, 4, 0
2, 7452, Note_on_c, 9, 44, 127
2, 7457, Control_c, 9, 4, 127
2, 7462, Control_c, 9, 17, 65
2, 7463, Note_on_c, 9, 51, 77
2, 7466, Note_on_c, 9, 40, 79
2, 7499, Control_c, 9, 4, 110
2, 7533, Control_c, 9, 4, 91
2, 7534, Note_on_c, 9, 44, 0
2, 7545, Note_on_c, 9, 51, 0
2, 7547, Note_on_c, 9, 40, 0
2, 7548, End_track
0, 0, End_of_file
