0, 0, Header, 1, 2, 480
1, 0, Start_track
1, 0, Tempo, 588235
1, 0, Time_signature, 4, 2, 24, 8
1, 0, Key_signature, 0, "major"
1, 1, End_track
2, 0, Start_track
2, 0, Title_t, "Classic Studio Kit"
2, 0, Program_c, 9, 0
2, 0, Control_c, 9, 18, 0
2, 15, Control_c, 9, 4, 96
2, 50, Control_c, 9, 4, 92
2, 59, Note_on_c, 9, 48, 68
2, 60, Note_on_c, 9, 57, 55
2, 104, Control_c, 9, 4, 96
2, 141, Note_on_c, 9, 48, 0
2, 141, Note_on_c, 9, 57, 0
2, 171, Control_c, 9, 4, 84
2, 182, Note_on_c, 9, 57, 63
2, 202, Control_c, 9, 4, 69
2, 242, Control_c, 9, 4, 0
2, 264, Note_on_c, 9, 57, 0
2, 286, Note_on_c, 9, 44, 93
2, 288, Note_on_c, 9, 36, 57
2, 297, Control_c, 9, 4, 127
2, 328, Control_c, 9, 4, 98
2, 369, Note_on_c, 9, 44, 0
2, 370, Note_on_c, 9, 36, 0
2, 382, Control_c, 9, 4, 86
2, 421, Note_on_c, 9, 57, 77
2, 490, Control_c, 9, 4, 92
2, 504, Note_on_c, 9, 57, 0
2, 529, Note_on_c, 9, 36, 65
2, 541, Control_c, 9, 16, 0
2, 542, Note_on_c, 9, 40, 71
2, 610, Note_on_c, 9, 36, 0
2, 622, Note_on_c, 9, 40, 0
2, 679, Control_c, 9, 4, 70
2, 723, Control_c, 9, 4, 8
2, 756, Note_on_c, 9, 57, 93
2, 759, Control_c, 9, 4, 48
2, 765, Note_on_c, 9, 44, 87
2, 790, Control_c, 9, 4, 120
2, 823, Control_c, 9, 4, 97
2, 839, Note_on_c, 9, 57, 0
2, 846, Note_on_c, 9, 44, 0
2, 859, Control_c, 9, 4, 85
2, 893, Note_on_c, 9, 36, 57
2, 898, Control_c, 9, 18, 0
2, 899, Note_on_c, 9, 48, 39
2, 973, Control_c, 9, 4, 97
2, 974, Note_on_c, 9, 36, 0
2, 980, Note_on_c, 9, 48, 0
2, 1001, Note_on_c, 9, 57, 51
2, 1011, Note_on_c, 9, 48, 68
2, 1084, Note_on_c, 9, 57, 0
2, 1092, Note_on_c, 9, 48, 0
2, 1105, Control_c, 9, 4, 84
2, 1126, Note_on_c, 9, 57, 72
2, 1151, Control_c, 9, 4, 54
2, 1182, Control_c, 9, 4, 0
2, 1208, Note_on_c, 9, 57, 0
2, 1225, Note_on_c, 9, 44, 87
2, 1235, Note_on_c, 9, 36, 49
2, 1236, Control_c, 9, 4, 127
2, 1267, Control_c, 9, 4, 97
2, 1307, Note_on_c, 9, 44, 0
2, 1316, Control_c, 9, 4, 85
2, 1318, Note_on_c, 9, 36, 0
2, 1413, Control_c, 9, 4, 90
2, 1479, Note_on_c, 9, 36, 65
2, 1485, Note_on_c, 9, 38, 59
2, 1485, Note_on_c, 9, 57, 79
2, 1561, Note_on_c, 9, 36, 0
2, 1566, Note_on_c, 9, 38, 0
2, 1568, Note_on_c, 9, 57, 0
2, 1581, Control_c, 9, 4, 84
2, 1611, Control_c, 9, 4, 70
2, 1647, Control_c, 9, 4, 0
2, 1704, Control_c, 9, 4, 35
2, 1710, Note_on_c, 9, 44, 113
2, 1728, Note_on_c, 9, 57, 75
2, 1734, Control_c, 9, 4, 120
2, 1765, Control_c, 9, 4, 97
2, 1792, Note_on_c, 9, 44, 0
2, 1805, Control_c, 9, 4, 85
2, 1811, Note_on_c, 9, 57, 0
2, 1847, Control_c, 9, 18, 0
2, 1847, Note_on_c, 9, 48, 42
2, 1848, Note_on_c, 9, 36, 54
2, 1909, Control_c, 9, 4, 91
2, 1929, Note_on_c, 9, 48, 0
2, 1930, Note_on_c, 9, 36, 0
2, 1966, Note_on_c, 9, 48, 68
2, 2009, Control_c, 9, 4, 95
2, 2046, Note_on_c, 9, 48, 0
2, 2079, Control_c, 9, 4, 84
2, 2086, Note_on_c, 9, 57, 78
2, 2122, Control_c, 9, 4, 53
2, 2153, Control_c, 9, 4, 0
2, 2168, Note_on_c, 9, 57, 0
2, 2195, Note_on_c, 9, 44, 87
2, 2200, Note_on_c, 9, 36, 52
2, 2201, Control_c, 9, 4, 108
2, 2237, Control_c, 9, 4, 97
2, 2277, Note_on_c, 9, 44, 0
2, 2282, Note_on_c, 9, 36, 0
2, 2288, Control_c, 9, 4, 86
2, 2329, Note_on_c, 9, 57, 76
2, 2388, Control_c, 9, 4, 92
2, 2411, Note_on_c, 9, 57, 0
2, 2443, Note_on_c, 9, 36, 65
2, 2451, Control_c, 9, 16, 0
2, 2452, Note_on_c, 9, 38, 60
2, 2526, Note_on_c, 9, 36, 0
2, 2533, Note_on_c, 9, 38, 0
2, 2553, Control_c, 9, 4, 85
2, 2588, Control_c, 9, 4, 70
2, 2630, Control_c, 9, 4, 0
2, 2677, Note_on_c, 9, 57, 68
2, 2679, Note_on_c, 9, 44, 93
2, 2687, Control_c, 9, 4, 126
2, 2720, Control_c, 9, 4, 98
2, 2759, Note_on_c, 9, 44, 0
2, 2759, Note_on_c, 9, 57, 0
2, 2773, Control_c, 9, 4, 86
2, 2805, Note_on_c, 9, 36, 54
2, 2813, Control_c, 9, 18, 0
2, 2813, Note_on_c, 9, 48, 40
2, 2864, Control_c, 9, 4, 92
2, 2888, Note_on_c, 9, 36, 0
2, 2894, Note_on_c, 9, 48, 0
2, 2925, Note_on_c, 9, 57, 64
2, 2933, Note_on_c, 9, 48, 71
2, 3007, Note_on_c, 9, 57, 0
2, 3014, Note_on_c, 9, 48, 0
2, 3029, Control_c, 9, 4, 85
2, 3053, Note_on_c, 9, 57, 72
2, 3077, Control_c, 9, 4, 54
2, 3109, Control_c, 9, 4, 0
2, 3136, Note_on_c, 9, 57, 0
2, 3149, Note_on_c, 9, 44, 87
2, 3155, Control_c, 9, 4, 110
2, 3158, Note_on_c, 9, 36, 57
2, 3191, Control_c, 9, 4, 96
2, 3231, Note_on_c, 9, 44, 0
2, 3240, Control_c, 9, 4, 85
2, 3240, Note_on_c, 9, 36, 0
2, 3338, Control_c, 9, 4, 90
2, 3397, Note_on_c, 9, 36, 64
2, 3404, Note_on_c, 9, 38, 60
2, 3408, Note_on_c, 9, 57, 88
2, 3479, Note_on_c, 9, 36, 0
2, 3484, Note_on_c, 9, 38, 0
2, 3490, Note_on_c, 9, 57, 0
2, 3505, Control_c, 9, 4, 83
2, 3539, Control_c, 9, 4, 70
2, 3576, Control_c, 9, 4, 0
2, 3631, Note_on_c, 9, 44, 100
2, 3641, Control_c, 9, 4, 127
2, 3649, Note_on_c, 9, 57, 82
2, 3673, Control_c, 9, 4, 98
2, 3714, Note_on_c, 9, 44, 0
2, 3725, Control_c, 9, 4, 86
2, 3732, Note_on_c, 9, 57, 0
2, 3771, Control_c, 9, 18, 0
2, 3771, Note_on_c, 9, 48, 44
2, 3775, Note_on_c, 9, 36, 57
2, 3820, Control_c, 9, 4, 91
2, 3853, Note_on_c, 9, 48, 0
2, 3856, Note_on_c, 9, 36, 0
2, 3893, Note_on_c, 9, 57, 56
2, 3895, Note_on_c, 9, 48, 68
2, 3976, Note_on_c, 9, 48, 0
2, 3976, Note_on_c, 9, 57, 0
2, 4003, Control_c, 9, 4, 84
2, 4015, Note_on_c, 9, 57, 78
2, 4046, Control_c, 9, 4, 52
2, 4080, Control_c, 9, 4, 0
2, 4097, Note_on_c, 9, 57, 0
2, 4118, Note_on_c, 9, 44, 80
2, 4118, Note_on_c, 9, 46, 49
2, 4122, Note_on_c, 9, 36, 54
2, 4123, Control_c, 9, 4, 110
2, 4159, Control_c, 9, 4, 97
2, 4199, Note_on_c, 9, 44, 0
2, 4199, Note_on_c, 9, 46, 0
2, 4203, Note_on_c, 9, 36, 0
2, 4213, Control_c, 9, 4, 86
2, 4264, Note_on_c, 9, 57, 83
2, 4325, Control_c, 9, 4, 91
2, 4347, Note_on_c, 9, 57, 0
2, 4362, Note_on_c, 9, 36, 58
2, 4379, Control_c, 9, 16, 0
2, 4380, Note_on_c, 9, 38, 55
2, 4444, Note_on_c, 9, 36, 0
2, 4460, Note_on_c, 9, 38, 0
2, 4475, Control_c, 9, 4, 84
2, 4513, Control_c, 9, 4, 70
2, 4554, Control_c, 9, 4, 0
2, 4601, Note_on_c, 9, 57, 71
2, 4603, Control_c, 9, 4, 50
2, 4608, Note_on_c, 9, 44, 106
2, 4633, Control_c, 9, 4, 118
2, 4663, Control_c, 9, 4, 97
2, 4683, Note_on_c, 9, 57, 0
2, 4690, Note_on_c, 9, 44, 0
2, 4705, Control_c, 9, 4, 86
2, 4734, Control_c, 9, 18, 0
2, 4734, Note_on_c, 9, 36, 53
2, 4735, Note_on_c, 9, 48, 38
2, 4800, Control_c, 9, 4, 91
2, 4815, Note_on_c, 9, 36, 0
2, 4816, Note_on_c, 9, 48, 0
2, 4848, Control_c, 9, 18, 21
2, 4849, Note_on_c, 9, 48, 66
2, 4849, Note_on_c, 9, 57, 79
2, 4930, Note_on_c, 9, 48, 0
2, 4931, Note_on_c, 9, 57, 0
2, 4969, Control_c, 9, 4, 84
2, 4977, Note_on_c, 9, 57, 78
2, 5015, Control_c, 9, 4, 54
2, 5049, Control_c, 9, 4, 0
2, 5058, Note_on_c, 9, 57, 0
2, 5081, Note_on_c, 9, 36, 58
2, 5085, Note_on_c, 9, 44, 80
2, 5095, Control_c, 9, 4, 124
2, 5127, Control_c, 9, 4, 98
2, 5163, Note_on_c, 9, 36, 0
2, 5166, Note_on_c, 9, 44, 0
2, 5176, Control_c, 9, 4, 84
2, 5272, Control_c, 9, 4, 89
2, 5325, Note_on_c, 9, 36, 64
2, 5330, Control_c, 9, 17, 0
2, 5330, Note_on_c, 9, 51, 116
2, 5337, Control_c, 9, 16, 127
2, 5338, Note_on_c, 9, 38, 68
2, 5381, Control_c, 9, 4, 94
2, 5408, Note_on_c, 9, 36, 0
2, 5413, Note_on_c, 9, 51, 0
2, 5419, Note_on_c, 9, 38, 0
2, 5455, Control_c, 9, 4, 82
2, 5484, Control_c, 9, 16, 0
2, 5485, Note_on_c, 9, 38, 8
2, 5492, Control_c, 9, 4, 56
2, 5526, Control_c, 9, 4, 0
2, 5559, Control_c, 9, 4, 49
2, 5564, Note_on_c, 9, 44, 87
2, 5567, Note_on_c, 9, 38, 0
2, 5578, Control_c, 9, 17, 0
2, 5578, Note_on_c, 9, 51, 100
2, 5590, Control_c, 9, 4, 120
2, 5621, Control_c, 9, 4, 97
2, 5647, Note_on_c, 9, 44, 0
2, 5657, Control_c, 9, 4, 84
2, 5661, Note_on_c, 9, 51, 0
2, 5696, Note_on_c, 9, 36, 58
2, 5707, Control_c, 9, 18, 0
2, 5707, Note_on_c, 9, 48, 41
2, 5774, Control_c, 9, 4, 97
2, 5778, Note_on_c, 9, 36, 0
2, 5788, Note_on_c, 9, 48, 0
2, 5818, Control_c, 9, 17, 29
2, 5818, Note_on_c, 9, 51, 65
2, 5822, Note_on_c, 9, 48, 66
2, 5900, Note_on_c, 9, 51, 0
2, 5904, Note_on_c, 9, 48, 0
2, 5924, Control_c, 9, 4, 85
2, 5944, Control_c, 9, 17, 41
2, 5945, Note_on_c, 9, 51, 72
2, 5967, Control_c, 9, 4, 53
2, 5998, Control_c, 9, 4, 12
2, 6026, Note_on_c, 9, 51, 0
2, 6032, Note_on_c, 9, 44, 74
2, 6038, Control_c, 9, 4, 110
2, 6047, Note_on_c, 9, 36, 49
2, 6073, Control_c, 9, 4, 99
2, 6113, Note_on_c, 9, 44, 0
2, 6118, Control_c, 9, 4, 86
2, 6129, Note_on_c, 9, 36, 0
2, 6181, Control_c, 9, 17, 0
2, 6182, Note_on_c, 9, 51, 97
2, 6235, Control_c, 9, 4, 92
2, 6263, Note_on_c, 9, 51, 0
2, 6292, Note_on_c, 9, 36, 61
2, 6295, Control_c, 9, 16, 106
2, 6296, Note_on_c, 9, 38, 63
2, 6375, Note_on_c, 9, 36, 0
2, 6378, Note_on_c, 9, 38, 0
2, 6421, Control_c, 9, 4, 78
2, 6452, Control_c, 9, 4, 54
2, 6482, Control_c, 9, 4, 0
2, 6503, Control_c, 9, 17, 30
2, 6503, Note_on_c, 9, 51, 77
2, 6523, Note_on_c, 9, 44, 87
2, 6538, Control_c, 9, 4, 120
2, 6571, Control_c, 9, 4, 100
2, 6585, Note_on_c, 9, 51, 0
2, 6606, Note_on_c, 9, 44, 0
2, 6609, Control_c, 9, 4, 87
2, 6632, Control_c, 9, 18, 0
2, 6632, Note_on_c, 9, 48, 40
2, 6658, Note_on_c, 9, 36, 51
2, 6714, Note_on_c, 9, 48, 0
2, 6727, Control_c, 9, 4, 92
2, 6740, Note_on_c, 9, 36, 0
2, 6747, Control_c, 9, 17, 41
2, 6747, Note_on_c, 9, 51, 70
2, 6751, Control_c, 9, 18, 21
2, 6752, Note_on_c, 9, 48, 68
2, 6829, Note_on_c, 9, 51, 0
2, 6832, Note_on_c, 9, 48, 0
2, 6873, Control_c, 9, 17, 94
2, 6873, Note_on_c, 9, 51, 69
2, 6876, Control_c, 9, 4, 81
2, 6910, Control_c, 9, 4, 55
2, 6943, Control_c, 9, 4, 0
2, 6956, Note_on_c, 9, 51, 0
2, 6980, Note_on_c, 9, 44, 87
2, 6991, Control_c, 9, 4, 126
2, 6999, Note_on_c, 9, 36, 46
2, 7022, Control_c, 9, 4, 100
2, 7062, Control_c, 9, 4, 88
2, 7062, Note_on_c, 9, 44, 0
2, 7080, Note_on_c, 9, 36, 0
2, 7094, Control_c, 9, 4, 84
2, 7169, Control_c, 9, 4, 88
2, 7200, Control_c, 9, 4, 92
2, 7227, Control_c, 9, 17, 5
2, 7228, Note_on_c, 9, 51, 96
2, 7230, Control_c, 9, 16, 0
2, 7230, Note_on_c, 9, 38, 78
2, 7231, Note_on_c, 9, 36, 55
2, 7310, Note_on_c, 9, 51, 0
2, 7311, Note_on_c, 9, 38, 0
2, 7313, Note_on_c, 9, 36, 0
2, 7328, Control_c, 9, 4, 85
2, 7365, Control_c, 9, 4, 70
2, 7404, Control_c, 9, 4, 0
2, 7457, Control_c, 9, 4, 50
2, 7462, Note_on_c, 9, 44, 106
2, 7479, Control_c, 9, 17, 47
2, 7480, Note_on_c, 9, 51, 81
2, 7487, Control_c, 9, 4, 120
2, 7523, Control_c, 9, 4, 96
2, 7544, Note_on_c, 9, 44, 0
2, 7559, Control_c, 9, 4, 84
2, 7563, Note_on_c, 9, 51, 0
2, 7595, Control_c, 9, 18, 0
2, 7595, Note_on_c, 9, 48, 48
2, 7668, Control_c, 9, 4, 94
2, 7677, Note_on_c, 9, 48, 0
2, 7678, End_track
0, 0, End_of_file
