0, 0, Header, 1, 2, 480
1, 0, Start_track
1, 0, Tempo, 588235
1, 0, Time_signature, 4, 2, 24, 8
1, 0, Key_signature, 0, "major"
1, 1, End_track
2, 0, Start_track
2, 0, Title_t, "Classic Studio Kit"
2, 0, Program_c, 9, 0
2, 0, Control_c, 9, 17, 127
2, 17, Control_c, 9, 4, 116
2, 56, Control_c, 9, 4, 110
2, 87, Control_c, 9, 4, 93
2, 105, Control_c, 9, 17, 86
2, 105, Note_on_c, 9, 51, 67
2, 132, Control_c, 9, 4, 70
2, 164, Control_c, 9, 4, 0
2, 187, Note_on_c, 9, 51, 0
2, 231, Note_on_c, 9, 36, 71
2, 235, Control_c, 9, 4, 34
2, 239, Note_on_c, 9, 44, 127
2, 265, Control_c, 9, 4, 127
2, 281, Note_on_c, 9, 49, 5
2, 314, Note_on_c, 9, 36, 0
2, 315, Control_c, 9, 4, 98
2, 321, Note_on_c, 9, 44, 0
2, 327, Control_c, 9, 17, 42
2, 327, Note_on_c, 9, 51, 59
2, 352, Control_c, 9, 4, 69
2, 364, Note_on_c, 9, 49, 0
2, 384, Control_c, 9, 4, 0
2, 409, Note_on_c, 9, 51, 0
2, 459, Note_on_c, 9, 46, 9
2, 463, Control_c, 9, 16, 0
2, 464, Note_on_c, 9, 38, 77
2, 466, Control_c, 9, 4, 33
2, 471, Note_on_c, 9, 44, 127
2, 476, Note_on_c, 9, 36, 82
2, 497, Control_c, 9, 4, 116
2, 535, Control_c, 9, 4, 100
2, 540, Note_on_c, 9, 46, 0
2, 545, Note_on_c, 9, 38, 0
2, 554, Note_on_c, 9, 44, 0
2, 558, Note_on_c, 9, 36, 0
2, 574, Control_c, 9, 4, 83
2, 696, Control_c, 9, 17, 112
2, 697, Note_on_c, 9, 51, 90
2, 702, Control_c, 9, 4, 120
2, 775, Control_c, 9, 4, 90
2, 779, Note_on_c, 9, 51, 0
2, 807, Control_c, 9, 4, 73
2, 813, Control_c, 9, 17, 112
2, 813, Note_on_c, 9, 51, 6
2, 821, Control_c, 9, 18, 0
2, 821, Note_on_c, 9, 48, 48
2, 828, Note_on_c, 9, 36, 53
2, 849, Control_c, 9, 4, 0
2, 895, Note_on_c, 9, 51, 0
2, 903, Note_on_c, 9, 48, 0
2, 910, Note_on_c, 9, 36, 0
2, 920, Note_on_c, 9, 46, 11
2, 931, Note_on_c, 9, 44, 127
2, 937, Control_c, 9, 4, 127
2, 944, Note_on_c, 9, 48, 86
2, 944, Note_on_c, 9, 59, 41
2, 982, Control_c, 9, 4, 120
2, 1002, Note_on_c, 9, 46, 0
2, 1013, Note_on_c, 9, 44, 0
2, 1023, Control_c, 9, 4, 92
2, 1025, Note_on_c, 9, 48, 0
2, 1025, Note_on_c, 9, 59, 0
2, 1059, Control_c, 9, 17, 127
2, 1060, Note_on_c, 9, 51, 65
2, 1141, Note_on_c, 9, 51, 0
2, 1146, Control_c, 9, 4, 110
2, 1165, Note_on_c, 9, 36, 64
2, 1174, Control_c, 9, 17, 127
2, 1174, Note_on_c, 9, 51, 6
2, 1197, Control_c, 9, 4, 95
2, 1246, Note_on_c, 9, 36, 0
2, 1256, Note_on_c, 9, 51, 0
2, 1362, Control_c, 9, 4, 91
2, 1414, Note_on_c, 9, 36, 74
2, 1417, Note_on_c, 9, 38, 121
2, 1418, Control_c, 9, 17, 81
2, 1418, Note_on_c, 9, 51, 76
2, 1445, Control_c, 9, 4, 102
2, 1495, Note_on_c, 9, 36, 0
2, 1498, Note_on_c, 9, 38, 0
2, 1498, Note_on_c, 9, 51, 0
2, 1512, Control_c, 9, 4, 91
2, 1555, Control_c, 9, 4, 69
2, 1587, Control_c, 9, 4, 0
2, 1660, Note_on_c, 9, 44, 127
2, 1666, Control_c, 9, 4, 127
2, 1671, Control_c, 9, 17, 91
2, 1671, Note_on_c, 9, 51, 83
2, 1710, Control_c, 9, 4, 114
2, 1742, Note_on_c, 9, 44, 0
2, 1752, Control_c, 9, 4, 91
2, 1753, Note_on_c, 9, 51, 0
2, 1782, Control_c, 9, 18, 0
2, 1782, Note_on_c, 9, 48, 47
2, 1798, Note_on_c, 9, 36, 59
2, 1864, Note_on_c, 9, 48, 0
2, 1881, Note_on_c, 9, 36, 0
2, 1899, Control_c, 9, 4, 120
2, 1902, Note_on_c, 9, 48, 73
2, 1903, Control_c, 9, 17, 0
2, 1904, Note_on_c, 9, 51, 53
2, 1959, Control_c, 9, 4, 112
2, 1984, Note_on_c, 9, 48, 0
2, 1984, Note_on_c, 9, 51, 0
2, 1991, Control_c, 9, 4, 91
2, 2023, Control_c, 9, 4, 73
2, 2025, Control_c, 9, 17, 82
2, 2026, Note_on_c, 9, 51, 72
2, 2065, Control_c, 9, 4, 0
2, 2107, Note_on_c, 9, 51, 0
2, 2131, Note_on_c, 9, 46, 13
2, 2138, Control_c, 9, 4, 35
2, 2141, Note_on_c, 9, 36, 74
2, 2142, Note_on_c, 9, 44, 127
2, 2168, Control_c, 9, 4, 127
2, 2212, Note_on_c, 9, 46, 0
2, 2219, Control_c, 9, 4, 102
2, 2222, Note_on_c, 9, 36, 0
2, 2224, Note_on_c, 9, 44, 0
2, 2258, Control_c, 9, 4, 71
2, 2264, Control_c, 9, 17, 44
2, 2264, Note_on_c, 9, 51, 80
2, 2294, Control_c, 9, 4, 0
2, 2347, Note_on_c, 9, 51, 0
2, 2382, Note_on_c, 9, 36, 86
2, 2387, Note_on_c, 9, 44, 126
2, 2396, Control_c, 9, 16, 0
2, 2396, Note_on_c, 9, 38, 79
2, 2398, Control_c, 9, 4, 127
2, 2436, Control_c, 9, 4, 104
2, 2464, Note_on_c, 9, 36, 0
2, 2469, Control_c, 9, 4, 91
2, 2469, Note_on_c, 9, 44, 0
2, 2477, Note_on_c, 9, 38, 0
2, 2508, Control_c, 9, 4, 78
2, 2598, Control_c, 9, 4, 99
2, 2627, Control_c, 9, 17, 85
2, 2628, Note_on_c, 9, 51, 85
2, 2640, Control_c, 9, 4, 120
2, 2690, Control_c, 9, 4, 90
2, 2709, Note_on_c, 9, 51, 0
2, 2720, Control_c, 9, 4, 71
2, 2743, Note_on_c, 9, 36, 68
2, 2752, Control_c, 9, 18, 0
2, 2752, Note_on_c, 9, 48, 46
2, 2758, Control_c, 9, 4, 0
2, 2825, Note_on_c, 9, 36, 0
2, 2834, Note_on_c, 9, 46, 13
2, 2835, Note_on_c, 9, 48, 0
2, 2840, Control_c, 9, 4, 35
2, 2845, Note_on_c, 9, 44, 127
2, 2870, Control_c, 9, 4, 127
2, 2874, Note_on_c, 9, 48, 82
2, 2876, Note_on_c, 9, 59, 35
2, 2910, Control_c, 9, 4, 108
2, 2915, Note_on_c, 9, 46, 0
2, 2927, Note_on_c, 9, 44, 0
2, 2946, Control_c, 9, 4, 92
2, 2955, Note_on_c, 9, 48, 0
2, 2959, Note_on_c, 9, 59, 0
2, 2998, Control_c, 9, 17, 59
2, 2998, Note_on_c, 9, 51, 65
2, 3067, Control_c, 9, 4, 104
2, 3079, Note_on_c, 9, 51, 0
2, 3096, Note_on_c, 9, 36, 64
2, 3100, Control_c, 9, 4, 98
2, 3149, Control_c, 9, 4, 94
2, 3179, Note_on_c, 9, 36, 0
2, 3346, Control_c, 9, 17, 44
2, 3346, Note_on_c, 9, 51, 81
2, 3350, Note_on_c, 9, 36, 76
2, 3353, Note_on_c, 9, 38, 83
2, 3374, Control_c, 9, 4, 100
2, 3428, Note_on_c, 9, 51, 0
2, 3432, Note_on_c, 9, 36, 0
2, 3433, Note_on_c, 9, 38, 0
2, 3446, Control_c, 9, 4, 86
2, 3477, Control_c, 9, 4, 70
2, 3512, Control_c, 9, 4, 0
2, 3579, Note_on_c, 9, 46, 12
2, 3592, Note_on_c, 9, 44, 127
2, 3598, Control_c, 9, 4, 127
2, 3602, Control_c, 9, 17, 104
2, 3603, Note_on_c, 9, 51, 81
2, 3641, Control_c, 9, 4, 112
2, 3661, Note_on_c, 9, 46, 0
2, 3673, Note_on_c, 9, 44, 0
2, 3680, Control_c, 9, 4, 93
2, 3684, Note_on_c, 9, 51, 0
2, 3716, Control_c, 9, 18, 0
2, 3716, Note_on_c, 9, 48, 50
2, 3726, Note_on_c, 9, 36, 67
2, 3787, Control_c, 9, 4, 89
2, 3797, Note_on_c, 9, 48, 0
2, 3808, Note_on_c, 9, 36, 0
2, 3837, Note_on_c, 9, 48, 71
2, 3841, Control_c, 9, 17, 0
2, 3842, Note_on_c, 9, 51, 64
2, 3845, Control_c, 9, 4, 118
2, 3916, Control_c, 9, 4, 112
2, 3919, Note_on_c, 9, 48, 0
2, 3923, Note_on_c, 9, 51, 0
2, 3948, Control_c, 9, 4, 91
2, 3963, Control_c, 9, 17, 115
2, 3964, Note_on_c, 9, 51, 68
2, 3983, Control_c, 9, 4, 71
2, 4019, Control_c, 9, 4, 0
2, 4045, Note_on_c, 9, 51, 0
2, 4074, Note_on_c, 9, 36, 68
2, 4078, Control_c, 9, 17, 115
2, 4078, Note_on_c, 9, 51, 5
2, 4085, Note_on_c, 9, 46, 13
2, 4089, Control_c, 9, 4, 17
2, 4094, Note_on_c, 9, 44, 127
2, 4120, Control_c, 9, 4, 127
2, 4136, Note_on_c, 9, 49, 7
2, 4156, Note_on_c, 9, 36, 0
2, 4159, Control_c, 9, 4, 112
2, 4160, Note_on_c, 9, 51, 0
2, 4165, Note_on_c, 9, 46, 0
2, 4176, Note_on_c, 9, 44, 0
2, 4190, Control_c, 9, 4, 72
2, 4192, Control_c, 9, 17, 31
2, 4193, Note_on_c, 9, 51, 62
2, 4218, Note_on_c, 9, 49, 0
2, 4226, Control_c, 9, 4, 0
2, 4274, Note_on_c, 9, 51, 0
2, 4312, Control_c, 9, 4, 34
2, 4319, Note_on_c, 9, 44, 126
2, 4320, Note_on_c, 9, 36, 84
2, 4322, Control_c, 9, 16, 0
2, 4323, Note_on_c, 9, 38, 76
2, 4344, Control_c, 9, 4, 120
2, 4384, Control_c, 9, 4, 99
2, 4400, Note_on_c, 9, 44, 0
2, 4401, Note_on_c, 9, 36, 0
2, 4404, Note_on_c, 9, 38, 0
2, 4422, Control_c, 9, 4, 83
2, 4550, Control_c, 9, 4, 120
2, 4560, Control_c, 9, 17, 83
2, 4561, Note_on_c, 9, 51, 88
2, 4629, Control_c, 9, 4, 92
2, 4642, Note_on_c, 9, 51, 0
2, 4662, Control_c, 9, 4, 70
2, 4677, Control_c, 9, 18, 0
2, 4678, Note_on_c, 9, 48, 45
2, 4681, Note_on_c, 9, 36, 59
2, 4698, Control_c, 9, 4, 0
2, 4759, Note_on_c, 9, 48, 0
2, 4763, Note_on_c, 9, 36, 0
2, 4773, Note_on_c, 9, 46, 11
2, 4779, Control_c, 9, 4, 36
2, 4784, Note_on_c, 9, 44, 127
2, 4798, Control_c, 9, 17, 0
2, 4798, Note_on_c, 9, 51, 55
2, 4803, Note_on_c, 9, 48, 81
2, 4810, Control_c, 9, 4, 127
2, 4848, Control_c, 9, 4, 110
2, 4854, Note_on_c, 9, 46, 0
2, 4865, Note_on_c, 9, 44, 0
2, 4880, Control_c, 9, 4, 92
2, 4880, Note_on_c, 9, 51, 0
2, 4884, Note_on_c, 9, 48, 0
2, 4924, Control_c, 9, 17, 62
2, 4925, Note_on_c, 9, 51, 73
2, 4999, Control_c, 9, 4, 108
2, 5006, Note_on_c, 9, 51, 0
2, 5029, Note_on_c, 9, 36, 64
2, 5039, Control_c, 9, 17, 62
2, 5040, Note_on_c, 9, 51, 6
2, 5043, Control_c, 9, 4, 98
2, 5078, Control_c, 9, 4, 94
2, 5110, Note_on_c, 9, 36, 0
2, 5121, Note_on_c, 9, 51, 0
2, 5276, Note_on_c, 9, 38, 105
2, 5277, Control_c, 9, 17, 47
2, 5278, Note_on_c, 9, 36, 76
2, 5278, Note_on_c, 9, 51, 82
2, 5293, Control_c, 9, 4, 102
2, 5348, Control_c, 9, 4, 96
2, 5357, Note_on_c, 9, 38, 0
2, 5358, Note_on_c, 9, 36, 0
2, 5358, Note_on_c, 9, 51, 0
2, 5393, Control_c, 9, 4, 73
2, 5436, Control_c, 9, 4, 0
2, 5501, Note_on_c, 9, 46, 11
2, 5508, Control_c, 9, 4, 34
2, 5514, Note_on_c, 9, 44, 127
2, 5523, Control_c, 9, 17, 85
2, 5523, Note_on_c, 9, 51, 79
2, 5540, Control_c, 9, 4, 127
2, 5584, Control_c, 9, 4, 102
2, 5584, Note_on_c, 9, 46, 0
2, 5596, Note_on_c, 9, 44, 0
2, 5606, Note_on_c, 9, 51, 0
2, 5619, Control_c, 9, 4, 89
2, 5637, Control_c, 9, 18, 0
2, 5638, Note_on_c, 9, 48, 49
2, 5644, Note_on_c, 9, 36, 58
2, 5720, Note_on_c, 9, 48, 0
2, 5727, Note_on_c, 9, 36, 0
2, 5753, Control_c, 9, 4, 106
2, 5757, Note_on_c, 9, 48, 79
2, 5765, Control_c, 9, 17, 0
2, 5766, Note_on_c, 9, 51, 66
2, 5785, Control_c, 9, 4, 114
2, 5838, Note_on_c, 9, 48, 0
2, 5847, Note_on_c, 9, 51, 0
2, 5860, Control_c, 9, 4, 97
2, 5880, Control_c, 9, 17, 81
2, 5881, Note_on_c, 9, 51, 67
2, 5903, Control_c, 9, 4, 70
2, 5935, Control_c, 9, 4, 0
2, 5962, Note_on_c, 9, 51, 0
2, 5993, Note_on_c, 9, 36, 65
2, 6003, Note_on_c, 9, 46, 17
2, 6009, Control_c, 9, 4, 34
2, 6014, Note_on_c, 9, 44, 127
2, 6039, Control_c, 9, 4, 127
2, 6075, Note_on_c, 9, 36, 0
2, 6079, Control_c, 9, 4, 112
2, 6084, Note_on_c, 9, 46, 0
2, 6095, Note_on_c, 9, 44, 0
2, 6111, Control_c, 9, 4, 76
2, 6128, Control_c, 9, 17, 35
2, 6128, Note_on_c, 9, 51, 77
2, 6147, Control_c, 9, 4, 0
2, 6209, Note_on_c, 9, 51, 0
2, 6223, Note_on_c, 9, 46, 7
2, 6233, Control_c, 9, 4, 50
2, 6238, Note_on_c, 9, 36, 80
2, 6238, Note_on_c, 9, 44, 127
2, 6248, Control_c, 9, 16, 0
2, 6249, Note_on_c, 9, 38, 81
2, 6263, Control_c, 9, 4, 114
2, 6305, Note_on_c, 9, 46, 0
2, 6307, Control_c, 9, 4, 96
2, 6319, Note_on_c, 9, 44, 0
2, 6320, Note_on_c, 9, 36, 0
2, 6330, Note_on_c, 9, 38, 0
2, 6345, Control_c, 9, 4, 83
2, 6472, Control_c, 9, 4, 118
2, 6480, Control_c, 9, 17, 72
2, 6481, Note_on_c, 9, 51, 84
2, 6550, Control_c, 9, 4, 90
2, 6562, Note_on_c, 9, 51, 0
2, 6581, Control_c, 9, 4, 71
2, 6595, Note_on_c, 9, 36, 65
2, 6603, Control_c, 9, 18, 0
2, 6603, Note_on_c, 9, 48, 44
2, 6619, Control_c, 9, 4, 0
2, 6679, Note_on_c, 9, 36, 0
2, 6685, Note_on_c, 9, 48, 0
2, 6693, Note_on_c, 9, 46, 17
2, 6700, Control_c, 9, 4, 36
2, 6704, Note_on_c, 9, 44, 127
2, 6724, Note_on_c, 9, 59, 40
2, 6727, Note_on_c, 9, 48, 86
2, 6730, Control_c, 9, 4, 127
2, 6768, Control_c, 9, 4, 110
2, 6774, Note_on_c, 9, 46, 0
2, 6785, Note_on_c, 9, 44, 0
2, 6803, Control_c, 9, 4, 92
2, 6806, Note_on_c, 9, 59, 0
2, 6808, Note_on_c, 9, 48, 0
2, 6846, Control_c, 9, 17, 52
2, 6847, Note_on_c, 9, 51, 70
2, 6924, Control_c, 9, 4, 110
2, 6927, Note_on_c, 9, 51, 0
2, 6946, Note_on_c, 9, 36, 68
2, 6972, Control_c, 9, 4, 96
2, 7003, Control_c, 9, 4, 92
2, 7029, Note_on_c, 9, 36, 0
2, 7186, Control_c, 9, 17, 56
2, 7186, Note_on_c, 9, 51, 78
2, 7189, Note_on_c, 9, 38, 101
2, 7190, Note_on_c, 9, 36, 76
2, 7211, Control_c, 9, 4, 98
2, 7268, Note_on_c, 9, 51, 0
2, 7269, Note_on_c, 9, 38, 0
2, 7273, Note_on_c, 9, 36, 0
2, 7279, Control_c, 9, 4, 91
2, 7314, Control_c, 9, 4, 73
2, 7357, Control_c, 9, 4, 0
2, 7430, Note_on_c, 9, 44, 127
2, 7435, Control_c, 9, 17, 108
2, 7435, Note_on_c, 9, 51, 85
2, 7437, Control_c, 9, 4, 127
2, 7480, Control_c, 9, 4, 116
2, 7512, Note_on_c, 9, 44, 0
2, 7517, Note_on_c, 9, 51, 0
2, 7518, Control_c, 9, 4, 90
2, 7548, Control_c, 9, 18, 0
2, 7549, Note_on_c, 9, 48, 46
2, 7566, Note_on_c, 9, 36, 62
2, 7630, Note_on_c, 9, 48, 0
2, 7647, Note_on_c, 9, 36, 0
2, 7669, Control_c, 9, 4, 114
2, 7670, End_track
0, 0, End_of_file
