0, 0, Header, 1, 2, 480
1, 0, Start_track
1, 0, Tempo, 652173
1, 0, Time_signature, 4, 2, 24, 8
1, 0, Key_signature, 0, "major"
1, 1, End_track
2, 0, Start_track
2, 0, Title_t, "Midi Drums"
2, 0, Program_c, 9, 0
2, 217, Note_on_c, 9, 38, 127
2, 219, Note_on_c, 9, 51, 112
2, 292, Note_on_c, 9, 38, 0
2, 293, Note_on_c, 9, 51, 0
2, 358, Note_on_c, 9, 38, 96
2, 432, Note_on_c, 9, 38, 0
2, 480, Note_on_c, 9, 51, 67
2, 554, Note_on_c, 9, 51, 0
2, 582, Note_on_c, 9, 36, 67
2, 657, Note_on_c, 9, 36, 0
2, 699, Note_on_c, 9, 38, 127
2, 700, Note_on_c, 9, 51, 127
2, 774, Note_on_c, 9, 38, 0
2, 774, Note_on_c, 9, 51, 0
2, 933, Note_on_c, 9, 59, 43
2, 1007, Note_on_c, 9, 59, 0
2, 1045, Note_on_c, 9, 36, 64
2, 1120, Note_on_c, 9, 36, 0
2, 1173, Note_on_c, 9, 51, 83
2, 1248, Note_on_c, 9, 51, 0
2, 1283, Note_on_c, 9, 36, 90
2, 1357, Note_on_c, 9, 36, 0
2, 1401, Note_on_c, 9, 51, 127
2, 1405, Note_on_c, 9, 38, 127
2, 1475, Note_on_c, 9, 51, 0
2, 1479, Note_on_c, 9, 38, 0
2, 1893, Note_on_c, 9, 36, 127
2, 1899, Note_on_c, 9, 51, 125
2, 1967, Note_on_c, 9, 36, 0
2, 1973, Note_on_c, 9, 51, 0
2, 2152, Note_on_c, 9, 51, 103
2, 2159, Note_on_c, 9, 38, 127
2, 2227, Note_on_c, 9, 51, 0
2, 2233, Note_on_c, 9, 38, 0
2, 2279, Note_on_c, 9, 38, 100
2, 2354, Note_on_c, 9, 38, 0
2, 2403, Note_on_c, 9, 51, 80
2, 2478, Note_on_c, 9, 51, 0
2, 2525, Note_on_c, 9, 36, 71
2, 2600, Note_on_c, 9, 36, 0
2, 2628, Note_on_c, 9, 38, 127
2, 2630, Note_on_c, 9, 51, 120
2, 2702, Note_on_c, 9, 38, 0
2, 2704, Note_on_c, 9, 51, 0
2, 2872, Note_on_c, 9, 59, 47
2, 2879, Note_on_c, 9, 36, 98
2, 2946, Note_on_c, 9, 59, 0
2, 2953, Note_on_c, 9, 36, 0
2, 2997, Note_on_c, 9, 38, 127
2, 3003, Note_on_c, 9, 59, 127
2, 3071, Note_on_c, 9, 38, 0
2, 3077, Note_on_c, 9, 59, 0
2, 3243, Note_on_c, 9, 36, 106
2, 3317, Note_on_c, 9, 36, 0
2, 3328, Note_on_c, 9, 38, 127
2, 3343, Note_on_c, 9, 51, 127
2, 3403, Note_on_c, 9, 38, 0
2, 3417, Note_on_c, 9, 51, 0
2, 3585, Note_on_c, 9, 52, 127
2, 3587, Note_on_c, 9, 55, 111
2, 3660, Note_on_c, 9, 52, 0
2, 3661, Note_on_c, 9, 55, 0
2, 3818, Note_on_c, 9, 36, 127
2, 3822, Note_on_c, 9, 51, 126
2, 3892, Note_on_c, 9, 36, 0
2, 3896, Note_on_c, 9, 51, 0
2, 4075, Note_on_c, 9, 51, 108
2, 4079, Note_on_c, 9, 38, 127
2, 4150, Note_on_c, 9, 51, 0
2, 4153, Note_on_c, 9, 38, 0
2, 4207, Note_on_c, 9, 38, 100
2, 4281, Note_on_c, 9, 38, 0
2, 4315, Note_on_c, 9, 51, 80
2, 4389, Note_on_c, 9, 51, 0
2, 4432, Note_on_c, 9, 36, 65
2, 4507, Note_on_c, 9, 36, 0
2, 4570, Note_on_c, 9, 51, 114
2, 4572, Note_on_c, 9, 38, 127
2, 4644, Note_on_c, 9, 51, 0
2, 4646, Note_on_c, 9, 38, 0
2, 4803, Note_on_c, 9, 36, 104
2, 4810, Note_on_c, 9, 51, 109
2, 4878, Note_on_c, 9, 36, 0
2, 4883, Note_on_c, 9, 51, 0
2, 5046, Note_on_c, 9, 51, 54
2, 5120, Note_on_c, 9, 51, 0
2, 5156, Note_on_c, 9, 36, 49
2, 5230, Note_on_c, 9, 36, 0
2, 5272, Note_on_c, 9, 38, 127
2, 5272, Note_on_c, 9, 51, 127
2, 5346, Note_on_c, 9, 38, 0
2, 5346, Note_on_c, 9, 51, 0
2, 5514, Note_on_c, 9, 59, 27
2, 5588, Note_on_c, 9, 59, 0
2, 5746, Note_on_c, 9, 36, 95
2, 5754, Note_on_c, 9, 51, 127
2, 5820, Note_on_c, 9, 36, 0
2, 5828, Note_on_c, 9, 51, 0
2, 5988, Note_on_c, 9, 38, 127
2, 5991, Note_on_c, 9, 51, 103
2, 6062, Note_on_c, 9, 38, 0
2, 6065, Note_on_c, 9, 51, 0
2, 6122, Note_on_c, 9, 38, 107
2, 6196, Note_on_c, 9, 38, 0
2, 6229, Note_on_c, 9, 51, 57
2, 6304, Note_on_c, 9, 51, 0
2, 6355, Note_on_c, 9, 36, 117
2, 6429, Note_on_c, 9, 36, 0
2, 6463, Note_on_c, 9, 38, 127
2, 6464, Note_on_c, 9, 51, 127
2, 6538, Note_on_c, 9, 38, 0
2, 6538, Note_on_c, 9, 51, 0
2, 6704, Note_on_c, 9, 36, 127
2, 6710, Note_on_c, 9, 51, 79
2, 6779, Note_on_c, 9, 36, 0
2, 6784, Note_on_c, 9, 51, 0
2, 6843, Note_on_c, 9, 36, 70
2, 6918, Note_on_c, 9, 36, 0
2, 6932, Note_on_c, 9, 51, 106
2, 7006, Note_on_c, 9, 51, 0
2, 7070, Note_on_c, 9, 36, 113
2, 7144, Note_on_c, 9, 36, 0
2, 7179, Note_on_c, 9, 51, 127
2, 7183, Note_on_c, 9, 38, 127
2, 7253, Note_on_c, 9, 51, 0
2, 7257, Note_on_c, 9, 38, 0
2, 7434, Note_on_c, 9, 51, 35
2, 7509, Note_on_c, 9, 51, 0
2, 7510, End_track
0, 0, End_of_file
