0, 0, Header, 1, 2, 480
1, 0, Start_track
1, 0, Tempo, 571428
1, 0, Time_signature, 4, 2, 24, 8
1, 0, Key_signature, 0, "major"
1, 1, End_track
2, 0, Start_track
2, 0, Title_t, "Midi Drums"
2, 0, Program_c, 9, 0
2, 0, Note_on_c, 9, 22, 86
2, 0, Note_on_c, 9, 36, 52
2, 47, Note_on_c, 9, 36, 0
2, 47, Note_on_c, 9, 36, 16
2, 76, Note_on_c, 9, 22, 0
2, 77, Note_on_c, 9, 36, 0
2, 81, Note_on_c, 9, 36, 11
2, 132, Note_on_c, 9, 36, 0
2, 164, Note_on_c, 9, 38, 14
2, 207, Note_on_c, 9, 38, 0
2, 207, Note_on_c, 9, 38, 13
2, 249, Note_on_c, 9, 38, 0
2, 485, Control_c, 9, 4, 90
2, 485, Note_on_c, 9, 22, 85
2, 494, Note_on_c, 9, 40, 94
2, 570, Note_on_c, 9, 22, 0
2, 579, Note_on_c, 9, 40, 0
2, 736, Control_c, 9, 4, 90
2, 736, Note_on_c, 9, 22, 48
2, 821, Note_on_c, 9, 22, 0
2, 888, Control_c, 9, 4, 79
2, 892, Note_on_c, 9, 38, 7
2, 926, Control_c, 9, 4, 44
2, 961, Control_c, 9, 4, 46
2, 967, Note_on_c, 9, 44, 42
2, 977, Note_on_c, 9, 38, 0
2, 981, Note_on_c, 9, 22, 45
2, 993, Control_c, 9, 4, 90
2, 1052, Note_on_c, 9, 44, 0
2, 1066, Note_on_c, 9, 22, 0
2, 1215, Control_c, 9, 4, 90
2, 1215, Note_on_c, 9, 42, 31
2, 1219, Note_on_c, 9, 36, 42
2, 1265, Note_on_c, 9, 36, 0
2, 1265, Note_on_c, 9, 36, 12
2, 1300, Note_on_c, 9, 42, 0
2, 1304, Note_on_c, 9, 36, 0
2, 1360, Control_c, 9, 4, 80
2, 1397, Control_c, 9, 4, 40
2, 1431, Note_on_c, 9, 44, 42
2, 1436, Control_c, 9, 4, 90
2, 1467, Control_c, 9, 4, 90
2, 1467, Note_on_c, 9, 22, 91
2, 1467, Note_on_c, 9, 40, 111
2, 1515, Note_on_c, 9, 44, 0
2, 1552, Note_on_c, 9, 22, 0
2, 1552, Note_on_c, 9, 40, 0
2, 1696, Control_c, 9, 4, 90
2, 1696, Note_on_c, 9, 42, 33
2, 1781, Note_on_c, 9, 42, 0
2, 1817, Note_on_c, 9, 36, 16
2, 1876, Control_c, 9, 4, 82
2, 1902, Note_on_c, 9, 36, 0
2, 1908, Note_on_c, 9, 38, 14
2, 1929, Control_c, 9, 4, 90
2, 1929, Note_on_c, 9, 22, 73
2, 1943, Note_on_c, 9, 36, 40
2, 1993, Note_on_c, 9, 38, 0
2, 2014, Note_on_c, 9, 22, 0
2, 2028, Note_on_c, 9, 36, 0
2, 2055, Note_on_c, 9, 38, 8
2, 2140, Note_on_c, 9, 38, 0
2, 2170, Control_c, 9, 4, 90
2, 2170, Note_on_c, 9, 42, 34
2, 2255, Note_on_c, 9, 42, 0
2, 2411, Control_c, 9, 4, 90
2, 2411, Note_on_c, 9, 22, 70
2, 2420, Note_on_c, 9, 38, 100
2, 2496, Note_on_c, 9, 22, 0
2, 2505, Note_on_c, 9, 38, 0
2, 2641, Note_on_c, 9, 36, 34
2, 2643, Control_c, 9, 4, 77
2, 2643, Note_on_c, 9, 26, 83
2, 2700, Control_c, 9, 4, 66
2, 2725, Note_on_c, 9, 36, 0
2, 2728, Note_on_c, 9, 26, 0
2, 2736, Control_c, 9, 4, 54
2, 2772, Control_c, 9, 4, 49
2, 2789, Note_on_c, 9, 38, 18
2, 2858, Control_c, 9, 4, 78
2, 2874, Note_on_c, 9, 38, 0
2, 2896, Control_c, 9, 4, 90
2, 2896, Note_on_c, 9, 22, 24
2, 2981, Note_on_c, 9, 22, 0
2, 3012, Note_on_c, 9, 38, 24
2, 3067, Note_on_c, 9, 38, 0
2, 3067, Note_on_c, 9, 38, 13
2, 3097, Note_on_c, 9, 38, 0
2, 3120, Control_c, 9, 4, 90
2, 3120, Note_on_c, 9, 22, 55
2, 3123, Note_on_c, 9, 36, 40
2, 3206, Note_on_c, 9, 22, 0
2, 3208, Note_on_c, 9, 36, 0
2, 3334, Control_c, 9, 4, 63
2, 3350, Note_on_c, 9, 44, 17
2, 3359, Note_on_c, 9, 22, 68
2, 3361, Note_on_c, 9, 40, 105
2, 3376, Control_c, 9, 4, 90
2, 3435, Note_on_c, 9, 44, 0
2, 3444, Note_on_c, 9, 22, 0
2, 3446, Note_on_c, 9, 40, 0
2, 3494, Note_on_c, 9, 38, 13
2, 3579, Note_on_c, 9, 38, 0
2, 3600, Control_c, 9, 4, 90
2, 3600, Note_on_c, 9, 22, 31
2, 3686, Note_on_c, 9, 22, 0
2, 3720, Note_on_c, 9, 38, 48
2, 3804, Note_on_c, 9, 38, 0
2, 3824, Note_on_c, 9, 36, 39
2, 3836, Control_c, 9, 4, 90
2, 3836, Note_on_c, 9, 22, 73
2, 3908, Note_on_c, 9, 36, 0
2, 3921, Note_on_c, 9, 22, 0
2, 3964, Note_on_c, 9, 38, 22
2, 4028, Note_on_c, 9, 38, 0
2, 4028, Note_on_c, 9, 38, 6
2, 4049, Note_on_c, 9, 38, 0
2, 4058, Control_c, 9, 4, 90
2, 4058, Note_on_c, 9, 42, 13
2, 4144, Note_on_c, 9, 42, 0
2, 4201, Note_on_c, 9, 36, 24
2, 4285, Note_on_c, 9, 36, 0
2, 4318, Control_c, 9, 4, 90
2, 4318, Note_on_c, 9, 22, 85
2, 4322, Note_on_c, 9, 37, 80
2, 4403, Note_on_c, 9, 22, 0
2, 4406, Note_on_c, 9, 37, 0
2, 4552, Control_c, 9, 4, 90
2, 4552, Note_on_c, 9, 22, 74
2, 4556, Note_on_c, 9, 36, 29
2, 4633, Control_c, 9, 4, 83
2, 4638, Note_on_c, 9, 22, 0
2, 4640, Note_on_c, 9, 36, 0
2, 4665, Control_c, 9, 4, 68
2, 4703, Control_c, 9, 4, 56
2, 4755, Control_c, 9, 4, 63
2, 4797, Control_c, 9, 4, 90
2, 4797, Note_on_c, 9, 22, 45
2, 4883, Note_on_c, 9, 22, 0
2, 4916, Note_on_c, 9, 38, 15
2, 5000, Note_on_c, 9, 38, 0
2, 5024, Note_on_c, 9, 36, 38
2, 5032, Control_c, 9, 4, 90
2, 5032, Note_on_c, 9, 22, 56
2, 5109, Note_on_c, 9, 36, 0
2, 5117, Note_on_c, 9, 22, 0
2, 5276, Control_c, 9, 4, 90
2, 5276, Note_on_c, 9, 22, 89
2, 5279, Note_on_c, 9, 40, 93
2, 5362, Note_on_c, 9, 22, 0
2, 5363, Note_on_c, 9, 40, 0
2, 5444, Control_c, 9, 4, 83
2, 5474, Control_c, 9, 4, 90
2, 5515, Control_c, 9, 4, 90
2, 5515, Note_on_c, 9, 22, 45
2, 5600, Note_on_c, 9, 22, 0
2, 5636, Note_on_c, 9, 38, 40
2, 5721, Note_on_c, 9, 38, 0
2, 5748, Note_on_c, 9, 36, 40
2, 5754, Control_c, 9, 4, 90
2, 5754, Note_on_c, 9, 22, 70
2, 5833, Note_on_c, 9, 36, 0
2, 5840, Note_on_c, 9, 22, 0
2, 5873, Note_on_c, 9, 38, 18
2, 5932, Note_on_c, 9, 38, 0
2, 5932, Note_on_c, 9, 38, 8
2, 5958, Note_on_c, 9, 38, 0
2, 5988, Control_c, 9, 4, 90
2, 5988, Note_on_c, 9, 42, 30
2, 6073, Note_on_c, 9, 42, 0
2, 6244, Control_c, 9, 4, 90
2, 6244, Note_on_c, 9, 22, 95
2, 6250, Note_on_c, 9, 38, 98
2, 6328, Note_on_c, 9, 22, 0
2, 6335, Note_on_c, 9, 38, 0
2, 6364, Note_on_c, 9, 38, 18
2, 6434, Control_c, 9, 4, 90
2, 6449, Note_on_c, 9, 38, 0
2, 6482, Control_c, 9, 4, 90
2, 6482, Note_on_c, 9, 22, 40
2, 6567, Note_on_c, 9, 22, 0
2, 6599, Note_on_c, 9, 38, 34
2, 6632, Control_c, 9, 4, 59
2, 6666, Control_c, 9, 4, 40
2, 6683, Note_on_c, 9, 38, 0
2, 6705, Control_c, 9, 4, 45
2, 6711, Note_on_c, 9, 44, 45
2, 6719, Note_on_c, 9, 22, 42
2, 6738, Control_c, 9, 4, 90
2, 6796, Note_on_c, 9, 44, 0
2, 6804, Note_on_c, 9, 22, 0
2, 6826, Note_on_c, 9, 38, 92
2, 6851, Control_c, 9, 4, 90
2, 6911, Note_on_c, 9, 38, 0
2, 6951, Control_c, 9, 4, 90
2, 6951, Note_on_c, 9, 42, 43
2, 7037, Note_on_c, 9, 42, 0
2, 7077, Note_on_c, 9, 36, 34
2, 7099, Control_c, 9, 4, 66
2, 7136, Control_c, 9, 4, 28
2, 7162, Note_on_c, 9, 36, 0
2, 7176, Control_c, 9, 4, 45
2, 7180, Note_on_c, 9, 44, 72
2, 7194, Note_on_c, 9, 22, 89
2, 7198, Note_on_c, 9, 40, 94
2, 7206, Control_c, 9, 4, 90
2, 7264, Note_on_c, 9, 44, 0
2, 7279, Note_on_c, 9, 22, 0
2, 7283, Note_on_c, 9, 40, 0
2, 7308, Note_on_c, 9, 38, 15
2, 7393, Note_on_c, 9, 38, 0
2, 7421, Note_on_c, 9, 36, 27
2, 7423, Control_c, 9, 4, 90
2, 7423, Note_on_c, 9, 42, 45
2, 7505, Note_on_c, 9, 36, 0
2, 7508, Note_on_c, 9, 42, 0
2, 7550, Note_on_c, 9, 38, 84
2, 7634, Note_on_c, 9, 38, 0
2, 7635, End_track
0, 0, End_of_file
