0, 0, Header, 1, 2, 480
1, 0, Start_track
1, 0, Tempo, 545454
1, 0, Time_signature, 4, 2, 24, 8
1, 0, Key_signature, 0, "major"
1, 1, End_track
2, 0, Start_track
2, 0, Title_t, "TD-30 #9 Djembe"
2, 0, Program_c, 9, 0
2, 0, Control_c, 9, 16, 0
2, 15, Note_on_c, 9, 57, 82
2, 104, Note_on_c, 9, 57, 0
2, 133, Note_on_c, 9, 57, 112
2, 147, Control_c, 9, 4, 73
2, 181, Control_c, 9, 4, 55
2, 217, Control_c, 9, 4, 20
2, 222, Note_on_c, 9, 57, 0
2, 247, Control_c, 9, 4, 68
2, 252, Note_on_c, 9, 46, 33
2, 253, Note_on_c, 9, 44, 54
2, 257, Note_on_c, 9, 48, 39
2, 278, Control_c, 9, 4, 102
2, 332, Control_c, 9, 4, 90
2, 340, Note_on_c, 9, 44, 0
2, 340, Note_on_c, 9, 46, 0
2, 344, Note_on_c, 9, 48, 0
2, 369, Control_c, 9, 4, 85
2, 383, Note_on_c, 9, 57, 76
2, 386, Note_on_c, 9, 48, 62
2, 437, Control_c, 9, 4, 90
2, 472, Note_on_c, 9, 57, 0
2, 473, Note_on_c, 9, 48, 0
2, 506, Note_on_c, 9, 36, 72
2, 509, Note_on_c, 9, 57, 95
2, 595, Note_on_c, 9, 36, 0
2, 597, Note_on_c, 9, 57, 0
2, 604, Control_c, 9, 4, 76
2, 640, Control_c, 9, 4, 56
2, 676, Control_c, 9, 4, 0
2, 724, Control_c, 9, 4, 64
2, 727, Note_on_c, 9, 44, 87
2, 741, Note_on_c, 9, 57, 72
2, 754, Control_c, 9, 4, 104
2, 801, Control_c, 9, 4, 91
2, 816, Note_on_c, 9, 44, 0
2, 830, Note_on_c, 9, 57, 0
2, 833, Control_c, 9, 4, 85
2, 924, Control_c, 9, 4, 90
2, 975, Note_on_c, 9, 40, 64
2, 983, Note_on_c, 9, 57, 99
2, 1054, Control_c, 9, 4, 81
2, 1055, Note_on_c, 9, 46, 6
2, 1063, Note_on_c, 9, 40, 0
2, 1072, Note_on_c, 9, 57, 0
2, 1086, Control_c, 9, 4, 70
2, 1113, Note_on_c, 9, 38, 5
2, 1133, Control_c, 9, 4, 0
2, 1143, Note_on_c, 9, 46, 0
2, 1195, Note_on_c, 9, 44, 100
2, 1201, Note_on_c, 9, 38, 0
2, 1203, Note_on_c, 9, 57, 89
2, 1204, Control_c, 9, 4, 110
2, 1249, Control_c, 9, 4, 97
2, 1284, Note_on_c, 9, 44, 0
2, 1291, Note_on_c, 9, 57, 0
2, 1293, Control_c, 9, 4, 86
2, 1320, Control_c, 9, 18, 0
2, 1320, Note_on_c, 9, 48, 44
2, 1377, Control_c, 9, 4, 91
2, 1408, Note_on_c, 9, 48, 0
2, 1441, Note_on_c, 9, 48, 60
2, 1450, Note_on_c, 9, 36, 92
2, 1463, Note_on_c, 9, 57, 76
2, 1529, Note_on_c, 9, 48, 0
2, 1539, Control_c, 9, 4, 77
2, 1539, Note_on_c, 9, 36, 0
2, 1552, Note_on_c, 9, 57, 0
2, 1578, Control_c, 9, 4, 56
2, 1611, Control_c, 9, 4, 0
2, 1668, Control_c, 9, 4, 66
2, 1671, Note_on_c, 9, 44, 106
2, 1679, Note_on_c, 9, 57, 96
2, 1699, Control_c, 9, 4, 110
2, 1748, Control_c, 9, 4, 92
2, 1760, Note_on_c, 9, 44, 0
2, 1767, Note_on_c, 9, 57, 0
2, 1781, Control_c, 9, 4, 86
2, 1870, Control_c, 9, 4, 92
2, 1918, Note_on_c, 9, 57, 95
2, 1937, Note_on_c, 9, 40, 71
2, 2007, Note_on_c, 9, 57, 0
2, 2024, Note_on_c, 9, 40, 0
2, 2034, Control_c, 9, 4, 78
2, 2049, Note_on_c, 9, 57, 62
2, 2070, Control_c, 9, 4, 55
2, 2104, Control_c, 9, 4, 0
2, 2138, Note_on_c, 9, 57, 0
2, 2153, Control_c, 9, 4, 67
2, 2156, Note_on_c, 9, 44, 93
2, 2183, Control_c, 9, 4, 106
2, 2204, Note_on_c, 9, 49, 7
2, 2231, Control_c, 9, 4, 91
2, 2245, Note_on_c, 9, 44, 0
2, 2284, Note_on_c, 9, 48, 60
2, 2289, Control_c, 9, 4, 87
2, 2292, Note_on_c, 9, 49, 0
2, 2340, Control_c, 9, 4, 92
2, 2372, Note_on_c, 9, 48, 0
2, 2401, Note_on_c, 9, 36, 92
2, 2408, Note_on_c, 9, 57, 127
2, 2489, Note_on_c, 9, 36, 0
2, 2495, Note_on_c, 9, 57, 0
2, 2496, Control_c, 9, 4, 77
2, 2538, Control_c, 9, 4, 56
2, 2578, Control_c, 9, 4, 0
2, 2610, Control_c, 9, 4, 33
2, 2620, Note_on_c, 9, 44, 80
2, 2642, Control_c, 9, 4, 99
2, 2648, Note_on_c, 9, 57, 70
2, 2673, Control_c, 9, 4, 98
2, 2709, Note_on_c, 9, 44, 0
2, 2721, Control_c, 9, 4, 86
2, 2736, Note_on_c, 9, 57, 0
2, 2767, Control_c, 9, 4, 82
2, 2808, Control_c, 9, 4, 89
2, 2882, Note_on_c, 9, 57, 84
2, 2888, Control_c, 9, 16, 0
2, 2888, Note_on_c, 9, 40, 74
2, 2972, Note_on_c, 9, 57, 0
2, 2975, Control_c, 9, 4, 75
2, 2978, Note_on_c, 9, 40, 0
2, 3011, Control_c, 9, 4, 56
2, 3049, Control_c, 9, 4, 0
2, 3090, Control_c, 9, 4, 64
2, 3093, Note_on_c, 9, 44, 80
2, 3107, Note_on_c, 9, 57, 93
2, 3121, Control_c, 9, 4, 110
2, 3171, Control_c, 9, 4, 92
2, 3182, Note_on_c, 9, 44, 0
2, 3195, Note_on_c, 9, 57, 0
2, 3211, Control_c, 9, 4, 88
2, 3238, Note_on_c, 9, 48, 38
2, 3258, Note_on_c, 9, 57, 73
2, 3270, Control_c, 9, 4, 90
2, 3326, Note_on_c, 9, 48, 0
2, 3340, Control_c, 9, 18, 0
2, 3340, Note_on_c, 9, 48, 58
2, 3347, Note_on_c, 9, 57, 0
2, 3353, Note_on_c, 9, 36, 84
2, 3428, Note_on_c, 9, 48, 0
2, 3442, Note_on_c, 9, 36, 0
2, 3446, Control_c, 9, 4, 76
2, 3486, Control_c, 9, 4, 56
2, 3521, Control_c, 9, 4, 0
2, 3573, Control_c, 9, 4, 65
2, 3576, Note_on_c, 9, 44, 93
2, 3599, Note_on_c, 9, 57, 112
2, 3604, Control_c, 9, 4, 110
2, 3654, Control_c, 9, 4, 92
2, 3664, Note_on_c, 9, 44, 0
2, 3684, Control_c, 9, 4, 86
2, 3688, Note_on_c, 9, 57, 0
2, 3730, Control_c, 9, 4, 82
2, 3766, Control_c, 9, 4, 89
2, 3828, Note_on_c, 9, 57, 93
2, 3836, Control_c, 9, 16, 126
2, 3836, Note_on_c, 9, 40, 64
2, 3917, Note_on_c, 9, 57, 0
2, 3923, Note_on_c, 9, 40, 0
2, 3931, Control_c, 9, 4, 77
2, 3959, Note_on_c, 9, 57, 70
2, 3967, Control_c, 9, 4, 55
2, 4000, Control_c, 9, 4, 0
2, 4048, Note_on_c, 9, 57, 0
2, 4052, Control_c, 9, 4, 49
2, 4058, Note_on_c, 9, 44, 93
2, 4082, Control_c, 9, 4, 100
2, 4105, Note_on_c, 9, 49, 9
2, 4112, Control_c, 9, 4, 100
2, 4147, Note_on_c, 9, 44, 0
2, 4158, Control_c, 9, 4, 89
2, 4194, Note_on_c, 9, 49, 0
2, 4211, Note_on_c, 9, 48, 51
2, 4298, Note_on_c, 9, 48, 0
2, 4321, Note_on_c, 9, 36, 89
2, 4338, Control_c, 9, 4, 94
2, 4345, Note_on_c, 9, 57, 101
2, 4385, Control_c, 9, 4, 89
2, 4410, Note_on_c, 9, 36, 0
2, 4423, Control_c, 9, 4, 76
2, 4433, Note_on_c, 9, 57, 0
2, 4460, Control_c, 9, 4, 56
2, 4501, Control_c, 9, 4, 0
2, 4539, Control_c, 9, 4, 64
2, 4543, Note_on_c, 9, 44, 80
2, 4562, Note_on_c, 9, 57, 95
2, 4570, Control_c, 9, 4, 106
2, 4617, Control_c, 9, 4, 92
2, 4631, Note_on_c, 9, 44, 0
2, 4649, Control_c, 9, 4, 86
2, 4651, Note_on_c, 9, 57, 0
2, 4746, Control_c, 9, 4, 90
2, 4790, Note_on_c, 9, 57, 91
2, 4802, Control_c, 9, 16, 0
2, 4802, Note_on_c, 9, 40, 73
2, 4879, Note_on_c, 9, 57, 0
2, 4890, Note_on_c, 9, 40, 0
2, 4894, Control_c, 9, 4, 76
2, 4929, Control_c, 9, 4, 55
2, 4964, Control_c, 9, 4, 0
2, 5009, Control_c, 9, 4, 50
2, 5014, Note_on_c, 9, 44, 87
2, 5020, Note_on_c, 9, 57, 100
2, 5041, Control_c, 9, 4, 110
2, 5089, Control_c, 9, 4, 91
2, 5103, Note_on_c, 9, 44, 0
2, 5108, Note_on_c, 9, 57, 0
2, 5133, Control_c, 9, 4, 87
2, 5150, Note_on_c, 9, 48, 40
2, 5171, Note_on_c, 9, 57, 96
2, 5202, Control_c, 9, 4, 91
2, 5238, Note_on_c, 9, 48, 0
2, 5259, Note_on_c, 9, 57, 0
2, 5263, Control_c, 9, 18, 0
2, 5264, Note_on_c, 9, 48, 59
2, 5281, Note_on_c, 9, 36, 77
2, 5352, Note_on_c, 9, 48, 0
2, 5362, Control_c, 9, 4, 78
2, 5370, Note_on_c, 9, 36, 0
2, 5402, Control_c, 9, 4, 56
2, 5436, Control_c, 9, 4, 0
2, 5493, Note_on_c, 9, 44, 100
2, 5501, Note_on_c, 9, 57, 122
2, 5502, Control_c, 9, 4, 108
2, 5546, Control_c, 9, 4, 102
2, 5578, Control_c, 9, 4, 90
2, 5581, Note_on_c, 9, 44, 0
2, 5589, Note_on_c, 9, 57, 0
2, 5611, Control_c, 9, 4, 84
2, 5684, Control_c, 9, 4, 90
2, 5731, Note_on_c, 9, 57, 93
2, 5743, Control_c, 9, 16, 126
2, 5744, Note_on_c, 9, 40, 62
2, 5820, Note_on_c, 9, 57, 0
2, 5823, Control_c, 9, 4, 76
2, 5832, Note_on_c, 9, 40, 0
2, 5855, Note_on_c, 9, 57, 105
2, 5863, Control_c, 9, 4, 56
2, 5902, Control_c, 9, 4, 0
2, 5941, Control_c, 9, 4, 49
2, 5944, Note_on_c, 9, 57, 0
2, 5947, Note_on_c, 9, 44, 87
2, 5974, Control_c, 9, 4, 110
2, 6008, Note_on_c, 9, 57, 99
2, 6028, Control_c, 9, 4, 92
2, 6035, Note_on_c, 9, 44, 0
2, 6069, Control_c, 9, 4, 88
2, 6094, Control_c, 9, 18, 21
2, 6095, Note_on_c, 9, 48, 40
2, 6096, Note_on_c, 9, 57, 0
2, 6134, Control_c, 9, 4, 93
2, 6183, Note_on_c, 9, 48, 0
2, 6184, Control_c, 9, 18, 0
2, 6184, Note_on_c, 9, 48, 45
2, 6232, Note_on_c, 9, 36, 88
2, 6273, Note_on_c, 9, 48, 0
2, 6304, Control_c, 9, 4, 79
2, 6321, Note_on_c, 9, 36, 0
2, 6346, Control_c, 9, 4, 55
2, 6384, Control_c, 9, 4, 0
2, 6423, Note_on_c, 9, 57, 106
2, 6424, Control_c, 9, 4, 64
2, 6426, Note_on_c, 9, 44, 80
2, 6454, Control_c, 9, 4, 108
2, 6500, Control_c, 9, 4, 91
2, 6512, Note_on_c, 9, 57, 0
2, 6514, Note_on_c, 9, 44, 0
2, 6540, Control_c, 9, 4, 85
2, 6617, Control_c, 9, 4, 91
2, 6687, Note_on_c, 9, 57, 97
2, 6690, Control_c, 9, 16, 0
2, 6691, Note_on_c, 9, 40, 63
2, 6771, Control_c, 9, 4, 77
2, 6777, Note_on_c, 9, 57, 0
2, 6779, Note_on_c, 9, 40, 0
2, 6810, Control_c, 9, 4, 55
2, 6842, Control_c, 9, 4, 0
2, 6891, Control_c, 9, 4, 66
2, 6895, Note_on_c, 9, 44, 87
2, 6922, Control_c, 9, 4, 110
2, 6932, Note_on_c, 9, 57, 110
2, 6971, Control_c, 9, 4, 91
2, 6983, Note_on_c, 9, 44, 0
2, 7021, Note_on_c, 9, 57, 0
2, 7039, Note_on_c, 9, 50, 50
2, 7126, Note_on_c, 9, 50, 0
2, 7158, Note_on_c, 9, 48, 57
2, 7166, Note_on_c, 9, 36, 74
2, 7245, Note_on_c, 9, 48, 0
2, 7255, Note_on_c, 9, 36, 0
2, 7265, Control_c, 9, 4, 77
2, 7304, Control_c, 9, 4, 56
2, 7339, Control_c, 9, 4, 12
2, 7377, Control_c, 9, 4, 55
2, 7383, Note_on_c, 9, 44, 67
2, 7411, Control_c, 9, 4, 108
2, 7428, Note_on_c, 9, 57, 60
2, 7457, Control_c, 9, 4, 92
2, 7471, Note_on_c, 9, 44, 0
2, 7517, Note_on_c, 9, 57, 0
2, 7524, Control_c, 9, 4, 83
2, 7576, Control_c, 9, 4, 89
2, 7577, End_track
0, 0, End_of_file
