0, 0, Header, 1, 2, 480
1, 0, Start_track
1, 0, Tempo, 588235
1, 0, Time_signature, 4, 2, 24, 8
1, 0, Key_signature, 0, "major"
1, 1, End_track
2, 0, Start_track
2, 0, Title_t, "Classic Studio Kit"
2, 0, Program_c, 9, 0
2, 0, Control_c, 9, 18, 0
2, 18, Control_c, 9, 4, 116
2, 22, Control_c, 9, 17, 57
2, 23, Note_on_c, 9, 51, 54
2, 38, Control_c, 9, 18, 0
2, 39, Note_on_c, 9, 48, 68
2, 57, Control_c, 9, 4, 116
2, 104, Note_on_c, 9, 51, 0
2, 116, Control_c, 9, 4, 93
2, 119, Note_on_c, 9, 48, 0
2, 149, Control_c, 9, 17, 44
2, 150, Note_on_c, 9, 51, 78
2, 167, Control_c, 9, 4, 70
2, 207, Control_c, 9, 4, 0
2, 231, Note_on_c, 9, 51, 0
2, 255, Control_c, 9, 4, 48
2, 259, Note_on_c, 9, 44, 106
2, 270, Note_on_c, 9, 36, 57
2, 285, Control_c, 9, 4, 127
2, 338, Control_c, 9, 4, 92
2, 341, Note_on_c, 9, 44, 0
2, 352, Note_on_c, 9, 36, 0
2, 375, Control_c, 9, 4, 88
2, 484, Control_c, 9, 4, 95
2, 512, Control_c, 9, 17, 11
2, 512, Note_on_c, 9, 36, 68
2, 512, Note_on_c, 9, 51, 96
2, 514, Control_c, 9, 16, 0
2, 515, Note_on_c, 9, 38, 87
2, 594, Note_on_c, 9, 36, 0
2, 594, Note_on_c, 9, 51, 0
2, 596, Note_on_c, 9, 38, 0
2, 610, Control_c, 9, 4, 83
2, 647, Control_c, 9, 4, 61
2, 678, Control_c, 9, 4, 0
2, 737, Note_on_c, 9, 44, 113
2, 744, Control_c, 9, 4, 127
2, 753, Control_c, 9, 17, 46
2, 754, Note_on_c, 9, 51, 71
2, 787, Control_c, 9, 4, 120
2, 819, Note_on_c, 9, 44, 0
2, 825, Control_c, 9, 4, 92
2, 835, Note_on_c, 9, 51, 0
2, 855, Control_c, 9, 4, 87
2, 870, Control_c, 9, 17, 46
2, 871, Note_on_c, 9, 51, 5
2, 877, Control_c, 9, 18, 21
2, 878, Note_on_c, 9, 48, 47
2, 881, Note_on_c, 9, 36, 55
2, 953, Note_on_c, 9, 51, 0
2, 958, Note_on_c, 9, 48, 0
2, 963, Note_on_c, 9, 36, 0
2, 979, Control_c, 9, 4, 114
2, 980, Control_c, 9, 17, 60
2, 980, Note_on_c, 9, 51, 61
2, 998, Control_c, 9, 18, 0
2, 999, Note_on_c, 9, 48, 75
2, 1061, Note_on_c, 9, 51, 0
2, 1064, Control_c, 9, 4, 94
2, 1080, Note_on_c, 9, 48, 0
2, 1095, Control_c, 9, 4, 74
2, 1104, Control_c, 9, 17, 31
2, 1105, Note_on_c, 9, 51, 75
2, 1131, Control_c, 9, 4, 0
2, 1186, Note_on_c, 9, 51, 0
2, 1206, Note_on_c, 9, 46, 13
2, 1213, Control_c, 9, 4, 33
2, 1218, Note_on_c, 9, 44, 127
2, 1223, Note_on_c, 9, 36, 65
2, 1243, Control_c, 9, 4, 127
2, 1281, Control_c, 9, 4, 116
2, 1287, Note_on_c, 9, 46, 0
2, 1299, Note_on_c, 9, 44, 0
2, 1304, Note_on_c, 9, 36, 0
2, 1312, Control_c, 9, 4, 80
2, 1346, Control_c, 9, 17, 104
2, 1347, Note_on_c, 9, 51, 55
2, 1352, Control_c, 9, 4, 0
2, 1428, Note_on_c, 9, 51, 0
2, 1432, Note_on_c, 9, 46, 7
2, 1438, Control_c, 9, 4, 17
2, 1448, Note_on_c, 9, 44, 113
2, 1458, Note_on_c, 9, 36, 80
2, 1465, Control_c, 9, 17, 62
2, 1465, Note_on_c, 9, 38, 79
2, 1467, Note_on_c, 9, 51, 93
2, 1468, Control_c, 9, 4, 94
2, 1500, Control_c, 9, 4, 99
2, 1513, Note_on_c, 9, 46, 0
2, 1530, Note_on_c, 9, 44, 0
2, 1540, Note_on_c, 9, 36, 0
2, 1546, Note_on_c, 9, 38, 0
2, 1547, Note_on_c, 9, 51, 0
2, 1561, Control_c, 9, 4, 84
2, 1693, Control_c, 9, 4, 127
2, 1705, Control_c, 9, 17, 68
2, 1706, Note_on_c, 9, 51, 67
2, 1765, Control_c, 9, 4, 95
2, 1787, Note_on_c, 9, 51, 0
2, 1805, Control_c, 9, 4, 70
2, 1819, Note_on_c, 9, 36, 58
2, 1819, Note_on_c, 9, 48, 48
2, 1842, Control_c, 9, 4, 0
2, 1900, Note_on_c, 9, 36, 0
2, 1900, Note_on_c, 9, 48, 0
2, 1915, Note_on_c, 9, 46, 7
2, 1922, Control_c, 9, 4, 35
2, 1928, Note_on_c, 9, 44, 127
2, 1935, Control_c, 9, 17, 127
2, 1935, Note_on_c, 9, 51, 52
2, 1944, Control_c, 9, 18, 0
2, 1944, Note_on_c, 9, 48, 76
2, 1953, Control_c, 9, 4, 127
2, 1996, Note_on_c, 9, 46, 0
2, 2001, Control_c, 9, 4, 106
2, 2009, Note_on_c, 9, 44, 0
2, 2017, Note_on_c, 9, 51, 0
2, 2026, Note_on_c, 9, 48, 0
2, 2033, Control_c, 9, 4, 92
2, 2060, Control_c, 9, 17, 55
2, 2061, Note_on_c, 9, 51, 80
2, 2143, Note_on_c, 9, 51, 0
2, 2154, Control_c, 9, 4, 108
2, 2174, Note_on_c, 9, 36, 68
2, 2197, Control_c, 9, 4, 102
2, 2234, Control_c, 9, 4, 94
2, 2256, Note_on_c, 9, 36, 0
2, 2300, Control_c, 9, 17, 127
2, 2301, Note_on_c, 9, 51, 46
2, 2381, Note_on_c, 9, 51, 0
2, 2414, Note_on_c, 9, 36, 68
2, 2430, Control_c, 9, 16, 0
2, 2430, Control_c, 9, 17, 44
2, 2430, Note_on_c, 9, 38, 72
2, 2431, Control_c, 9, 4, 100
2, 2431, Note_on_c, 9, 51, 90
2, 2489, Control_c, 9, 4, 93
2, 2496, Note_on_c, 9, 36, 0
2, 2511, Note_on_c, 9, 38, 0
2, 2511, Note_on_c, 9, 51, 0
2, 2535, Control_c, 9, 4, 70
2, 2572, Control_c, 9, 4, 0
2, 2640, Control_c, 9, 4, 32
2, 2646, Note_on_c, 9, 44, 127
2, 2665, Control_c, 9, 17, 55
2, 2666, Note_on_c, 9, 51, 70
2, 2671, Control_c, 9, 4, 127
2, 2718, Control_c, 9, 4, 104
2, 2727, Note_on_c, 9, 44, 0
2, 2747, Control_c, 9, 4, 89
2, 2747, Note_on_c, 9, 51, 0
2, 2785, Note_on_c, 9, 36, 81
2, 2785, Note_on_c, 9, 48, 46
2, 2865, Note_on_c, 9, 48, 0
2, 2868, Note_on_c, 9, 36, 0
2, 2889, Control_c, 9, 4, 118
2, 2896, Control_c, 9, 17, 127
2, 2896, Note_on_c, 9, 51, 52
2, 2908, Control_c, 9, 18, 0
2, 2909, Note_on_c, 9, 48, 71
2, 2964, Control_c, 9, 4, 112
2, 2979, Note_on_c, 9, 51, 0
2, 2989, Note_on_c, 9, 48, 0
2, 2995, Control_c, 9, 4, 91
2, 3024, Control_c, 9, 17, 53
2, 3024, Note_on_c, 9, 51, 76
2, 3026, Control_c, 9, 4, 71
2, 3065, Control_c, 9, 4, 0
2, 3106, Note_on_c, 9, 51, 0
2, 3135, Note_on_c, 9, 46, 12
2, 3142, Control_c, 9, 4, 34
2, 3147, Note_on_c, 9, 44, 127
2, 3148, Note_on_c, 9, 36, 67
2, 3172, Control_c, 9, 4, 120
2, 3216, Note_on_c, 9, 46, 0
2, 3229, Note_on_c, 9, 44, 0
2, 3231, Note_on_c, 9, 36, 0
2, 3233, Control_c, 9, 4, 93
2, 3258, Control_c, 9, 17, 127
2, 3259, Note_on_c, 9, 51, 46
2, 3273, Control_c, 9, 4, 84
2, 3340, Note_on_c, 9, 51, 0
2, 3379, Control_c, 9, 17, 76
2, 3379, Note_on_c, 9, 51, 88
2, 3386, Note_on_c, 9, 36, 86
2, 3386, Note_on_c, 9, 38, 76
2, 3395, Control_c, 9, 4, 110
2, 3450, Control_c, 9, 4, 99
2, 3461, Note_on_c, 9, 51, 0
2, 3467, Note_on_c, 9, 36, 0
2, 3467, Note_on_c, 9, 38, 0
2, 3486, Control_c, 9, 4, 85
2, 3517, Control_c, 9, 4, 70
2, 3558, Control_c, 9, 4, 0
2, 3622, Control_c, 9, 4, 34
2, 3628, Control_c, 9, 17, 80
2, 3628, Note_on_c, 9, 44, 127
2, 3629, Note_on_c, 9, 51, 64
2, 3653, Control_c, 9, 4, 126
2, 3705, Control_c, 9, 4, 97
2, 3709, Note_on_c, 9, 44, 0
2, 3709, Note_on_c, 9, 51, 0
2, 3750, Control_c, 9, 4, 85
2, 3754, Note_on_c, 9, 48, 48
2, 3756, Note_on_c, 9, 36, 67
2, 3836, Note_on_c, 9, 48, 0
2, 3839, Note_on_c, 9, 36, 0
2, 3854, Control_c, 9, 17, 127
2, 3855, Note_on_c, 9, 51, 50
2, 3862, Control_c, 9, 4, 110
2, 3873, Control_c, 9, 18, 0
2, 3873, Note_on_c, 9, 48, 68
2, 3901, Control_c, 9, 4, 112
2, 3937, Note_on_c, 9, 51, 0
2, 3956, Note_on_c, 9, 48, 0
2, 3966, Control_c, 9, 4, 93
2, 3984, Control_c, 9, 17, 68
2, 3984, Note_on_c, 9, 51, 80
2, 4005, Control_c, 9, 4, 74
2, 4046, Control_c, 9, 4, 0
2, 4067, Note_on_c, 9, 51, 0
2, 4117, Note_on_c, 9, 44, 127
2, 4122, Note_on_c, 9, 36, 64
2, 4123, Control_c, 9, 4, 127
2, 4167, Control_c, 9, 4, 120
2, 4198, Note_on_c, 9, 44, 0
2, 4204, Control_c, 9, 4, 91
2, 4204, Note_on_c, 9, 36, 0
2, 4222, Control_c, 9, 17, 127
2, 4222, Note_on_c, 9, 51, 46
2, 4241, Control_c, 9, 4, 87
2, 4304, Note_on_c, 9, 51, 0
2, 4346, Control_c, 9, 16, 0
2, 4346, Note_on_c, 9, 38, 82
2, 4350, Control_c, 9, 17, 50
2, 4351, Note_on_c, 9, 51, 88
2, 4355, Control_c, 9, 4, 104
2, 4361, Note_on_c, 9, 36, 72
2, 4428, Note_on_c, 9, 38, 0
2, 4432, Note_on_c, 9, 51, 0
2, 4443, Control_c, 9, 4, 91
2, 4443, Note_on_c, 9, 36, 0
2, 4488, Control_c, 9, 4, 68
2, 4519, Control_c, 9, 4, 0
2, 4584, Control_c, 9, 4, 18
2, 4585, Control_c, 9, 17, 77
2, 4585, Note_on_c, 9, 51, 66
2, 4590, Note_on_c, 9, 44, 127
2, 4616, Control_c, 9, 4, 126
2, 4652, Control_c, 9, 4, 118
2, 4666, Note_on_c, 9, 51, 0
2, 4672, Note_on_c, 9, 44, 0
2, 4691, Control_c, 9, 4, 91
2, 4700, Note_on_c, 9, 48, 49
2, 4721, Note_on_c, 9, 36, 70
2, 4731, Control_c, 9, 4, 87
2, 4780, Note_on_c, 9, 48, 0
2, 4803, Note_on_c, 9, 36, 0
2, 4812, Control_c, 9, 17, 71
2, 4813, Note_on_c, 9, 51, 55
2, 4829, Control_c, 9, 18, 0
2, 4829, Note_on_c, 9, 48, 75
2, 4832, Control_c, 9, 4, 127
2, 4895, Note_on_c, 9, 51, 0
2, 4905, Control_c, 9, 4, 95
2, 4910, Note_on_c, 9, 48, 0
2, 4942, Control_c, 9, 17, 41
2, 4942, Note_on_c, 9, 51, 69
2, 4944, Control_c, 9, 4, 70
2, 4986, Control_c, 9, 4, 0
2, 5024, Note_on_c, 9, 51, 0
2, 5063, Note_on_c, 9, 46, 11
2, 5069, Control_c, 9, 4, 36
2, 5073, Note_on_c, 9, 36, 71
2, 5075, Note_on_c, 9, 44, 127
2, 5100, Control_c, 9, 4, 127
2, 5144, Note_on_c, 9, 46, 0
2, 5148, Control_c, 9, 4, 98
2, 5155, Note_on_c, 9, 36, 0
2, 5155, Note_on_c, 9, 44, 0
2, 5170, Control_c, 9, 17, 127
2, 5170, Note_on_c, 9, 51, 48
2, 5185, Control_c, 9, 4, 70
2, 5223, Control_c, 9, 4, 0
2, 5251, Note_on_c, 9, 51, 0
2, 5299, Control_c, 9, 4, 52
2, 5304, Note_on_c, 9, 44, 113
2, 5305, Control_c, 9, 17, 80
2, 5305, Note_on_c, 9, 51, 88
2, 5310, Note_on_c, 9, 36, 82
2, 5313, Note_on_c, 9, 38, 65
2, 5330, Control_c, 9, 4, 110
2, 5384, Control_c, 9, 4, 94
2, 5386, Note_on_c, 9, 44, 0
2, 5387, Note_on_c, 9, 51, 0
2, 5392, Note_on_c, 9, 36, 0
2, 5395, Note_on_c, 9, 38, 0
2, 5437, Control_c, 9, 4, 84
2, 5549, Control_c, 9, 4, 127
2, 5553, Control_c, 9, 17, 63
2, 5553, Note_on_c, 9, 51, 67
2, 5594, Control_c, 9, 4, 120
2, 5633, Control_c, 9, 4, 89
2, 5634, Note_on_c, 9, 51, 0
2, 5665, Control_c, 9, 4, 71
2, 5670, Note_on_c, 9, 48, 46
2, 5673, Note_on_c, 9, 36, 64
2, 5707, Control_c, 9, 4, 0
2, 5751, Note_on_c, 9, 48, 0
2, 5754, Note_on_c, 9, 36, 0
2, 5775, Note_on_c, 9, 46, 9
2, 5778, Control_c, 9, 17, 127
2, 5779, Note_on_c, 9, 51, 51
2, 5781, Control_c, 9, 4, 34
2, 5787, Note_on_c, 9, 44, 127
2, 5794, Control_c, 9, 18, 0
2, 5794, Note_on_c, 9, 48, 74
2, 5812, Control_c, 9, 4, 127
2, 5844, Control_c, 9, 4, 118
2, 5855, Note_on_c, 9, 46, 0
2, 5859, Note_on_c, 9, 51, 0
2, 5868, Note_on_c, 9, 44, 0
2, 5876, Note_on_c, 9, 48, 0
2, 5882, Control_c, 9, 4, 91
2, 5915, Control_c, 9, 17, 60
2, 5916, Note_on_c, 9, 51, 72
2, 5997, Note_on_c, 9, 51, 0
2, 6000, Control_c, 9, 4, 110
2, 6026, Note_on_c, 9, 36, 62
2, 6042, Control_c, 9, 4, 102
2, 6090, Control_c, 9, 4, 92
2, 6107, Note_on_c, 9, 36, 0
2, 6156, Control_c, 9, 17, 127
2, 6157, Note_on_c, 9, 51, 41
2, 6237, Note_on_c, 9, 51, 0
2, 6263, Note_on_c, 9, 36, 76
2, 6273, Note_on_c, 9, 51, 5
2, 6279, Control_c, 9, 17, 113
2, 6279, Note_on_c, 9, 51, 0
2, 6280, Control_c, 9, 16, 0
2, 6280, Note_on_c, 9, 51, 84
2, 6281, Note_on_c, 9, 38, 65
2, 6291, Control_c, 9, 4, 102
2, 6345, Note_on_c, 9, 36, 0
2, 6355, Note_on_c, 9, 51, 0
2, 6360, Control_c, 9, 4, 88
2, 6361, Note_on_c, 9, 38, 0
2, 6390, Control_c, 9, 4, 70
2, 6427, Control_c, 9, 4, 0
2, 6495, Control_c, 9, 4, 32
2, 6501, Note_on_c, 9, 44, 127
2, 6510, Control_c, 9, 17, 101
2, 6511, Note_on_c, 9, 51, 70
2, 6527, Control_c, 9, 4, 127
2, 6561, Control_c, 9, 4, 118
2, 6582, Note_on_c, 9, 44, 0
2, 6593, Note_on_c, 9, 51, 0
2, 6603, Control_c, 9, 4, 91
2, 6625, Note_on_c, 9, 48, 47
2, 6647, Note_on_c, 9, 36, 69
2, 6703, Control_c, 9, 4, 87
2, 6706, Note_on_c, 9, 48, 0
2, 6730, Note_on_c, 9, 36, 0
2, 6735, Control_c, 9, 17, 127
2, 6736, Note_on_c, 9, 51, 42
2, 6742, Control_c, 9, 4, 116
2, 6749, Control_c, 9, 18, 0
2, 6749, Note_on_c, 9, 48, 69
2, 6780, Control_c, 9, 4, 120
2, 6817, Note_on_c, 9, 51, 0
2, 6831, Note_on_c, 9, 48, 0
2, 6843, Control_c, 9, 4, 90
2, 6866, Control_c, 9, 17, 108
2, 6867, Note_on_c, 9, 51, 68
2, 6873, Control_c, 9, 4, 70
2, 6912, Control_c, 9, 4, 0
2, 6949, Note_on_c, 9, 51, 0
2, 6980, Note_on_c, 9, 46, 9
2, 6986, Control_c, 9, 4, 34
2, 6991, Note_on_c, 9, 36, 69
2, 6991, Note_on_c, 9, 44, 127
2, 7017, Control_c, 9, 4, 127
2, 7060, Note_on_c, 9, 46, 0
2, 7064, Control_c, 9, 4, 100
2, 7073, Note_on_c, 9, 44, 0
2, 7074, Note_on_c, 9, 36, 0
2, 7086, Control_c, 9, 17, 127
2, 7087, Note_on_c, 9, 51, 42
2, 7102, Control_c, 9, 4, 69
2, 7139, Control_c, 9, 4, 0
2, 7168, Note_on_c, 9, 51, 0
2, 7215, Control_c, 9, 4, 49
2, 7221, Note_on_c, 9, 44, 106
2, 7228, Note_on_c, 9, 36, 82
2, 7229, Control_c, 9, 17, 41
2, 7229, Note_on_c, 9, 51, 82
2, 7231, Note_on_c, 9, 38, 63
2, 7247, Control_c, 9, 4, 102
2, 7298, Control_c, 9, 4, 95
2, 7302, Note_on_c, 9, 44, 0
2, 7309, Note_on_c, 9, 36, 0
2, 7310, Note_on_c, 9, 51, 0
2, 7312, Note_on_c, 9, 38, 0
2, 7335, Control_c, 9, 4, 84
2, 7454, Control_c, 9, 4, 122
2, 7464, Control_c, 9, 17, 127
2, 7464, Note_on_c, 9, 51, 64
2, 7489, Control_c, 9, 4, 122
2, 7540, Control_c, 9, 4, 92
2, 7546, Note_on_c, 9, 51, 0
2, 7576, Control_c, 9, 4, 71
2, 7578, Note_on_c, 9, 36, 79
2, 7592, Note_on_c, 9, 48, 50
2, 7613, Control_c, 9, 4, 0
2, 7660, Note_on_c, 9, 36, 0
2, 7673, Note_on_c, 9, 48, 0
2, 7674, End_track
0, 0, End_of_file
