0, 0, Header, 1, 2, 480
1, 0, Start_track
1, 0, Tempo, 681818
1, 0, Time_signature, 4, 2, 24, 8
1, 0, Key_signature, 0, "major"
1, 1, End_track
2, 0, Start_track
2, 0, Title_t, "Midi Drums"
2, 0, Program_c, 9, 0
2, 95, Note_on_c, 9, 50, 117
2, 166, Note_on_c, 9, 50, 0
2, 210, Note_on_c, 9, 43, 92
2, 281, Note_on_c, 9, 43, 0
2, 334, Note_on_c, 9, 36, 83
2, 405, Note_on_c, 9, 36, 0
2, 450, Note_on_c, 9, 38, 103
2, 469, Note_on_c, 9, 40, 127
2, 521, Note_on_c, 9, 38, 0
2, 540, Note_on_c, 9, 40, 0
2, 689, Note_on_c, 9, 43, 93
2, 760, Note_on_c, 9, 43, 0
2, 805, Note_on_c, 9, 47, 93
2, 876, Note_on_c, 9, 47, 0
2, 906, Note_on_c, 9, 36, 73
2, 977, Note_on_c, 9, 36, 0
2, 1033, Note_on_c, 9, 47, 93
2, 1104, Note_on_c, 9, 47, 0
2, 1145, Note_on_c, 9, 43, 127
2, 1216, Note_on_c, 9, 43, 0
2, 1286, Note_on_c, 9, 36, 64
2, 1288, Note_on_c, 9, 38, 107
2, 1358, Note_on_c, 9, 36, 0
2, 1359, Note_on_c, 9, 38, 0
2, 1393, Note_on_c, 9, 36, 10
2, 1404, Note_on_c, 9, 38, 127
2, 1464, Note_on_c, 9, 36, 0
2, 1476, Note_on_c, 9, 38, 0
2, 1527, Note_on_c, 9, 38, 127
2, 1598, Note_on_c, 9, 38, 0
2, 1642, Note_on_c, 9, 38, 127
2, 1714, Note_on_c, 9, 38, 0
2, 1753, Note_on_c, 9, 40, 100
2, 1824, Note_on_c, 9, 40, 0
2, 1869, Note_on_c, 9, 36, 127
2, 1869, Note_on_c, 9, 55, 124
2, 1940, Note_on_c, 9, 36, 0
2, 1940, Note_on_c, 9, 55, 0
2, 1990, Note_on_c, 9, 38, 38
2, 2028, Note_on_c, 9, 38, 0
2, 2028, Note_on_c, 9, 38, 29
2, 2061, Note_on_c, 9, 38, 0
2, 2108, Control_c, 9, 4, 90
2, 2108, Note_on_c, 9, 22, 60
2, 2180, Note_on_c, 9, 22, 0
2, 2235, Note_on_c, 9, 36, 78
2, 2252, Note_on_c, 9, 38, 5
2, 2307, Note_on_c, 9, 36, 0
2, 2323, Note_on_c, 9, 38, 0
2, 2347, Note_on_c, 9, 40, 127
2, 2353, Control_c, 9, 4, 90
2, 2353, Note_on_c, 9, 22, 87
2, 2418, Note_on_c, 9, 40, 0
2, 2424, Note_on_c, 9, 22, 0
2, 2431, Control_c, 9, 4, 79
2, 2465, Control_c, 9, 4, 90
2, 2579, Control_c, 9, 4, 90
2, 2579, Note_on_c, 9, 22, 61
2, 2635, Control_c, 9, 4, 90
2, 2635, Note_on_c, 9, 22, 0
2, 2635, Note_on_c, 9, 22, 43
2, 2651, Note_on_c, 9, 22, 0
2, 2677, Note_on_c, 9, 38, 44
2, 2726, Note_on_c, 9, 38, 0
2, 2726, Note_on_c, 9, 38, 41
2, 2748, Note_on_c, 9, 38, 0
2, 2768, Note_on_c, 9, 38, 29
2, 2792, Note_on_c, 9, 36, 127
2, 2797, Note_on_c, 9, 38, 0
2, 2828, Control_c, 9, 4, 90
2, 2828, Note_on_c, 9, 42, 57
2, 2863, Note_on_c, 9, 36, 0
2, 2900, Note_on_c, 9, 42, 0
2, 2950, Note_on_c, 9, 38, 40
2, 3020, Note_on_c, 9, 38, 0
2, 3044, Control_c, 9, 4, 90
2, 3044, Note_on_c, 9, 42, 88
2, 3115, Note_on_c, 9, 42, 0
2, 3165, Note_on_c, 9, 36, 89
2, 3237, Note_on_c, 9, 36, 0
2, 3280, Note_on_c, 9, 40, 127
2, 3283, Control_c, 9, 4, 90
2, 3283, Note_on_c, 9, 22, 110
2, 3324, Control_c, 9, 4, 74
2, 3351, Note_on_c, 9, 40, 0
2, 3355, Note_on_c, 9, 22, 0
2, 3357, Control_c, 9, 4, 44
2, 3400, Control_c, 9, 4, 90
2, 3521, Control_c, 9, 4, 90
2, 3521, Note_on_c, 9, 42, 38
2, 3569, Control_c, 9, 4, 90
2, 3569, Note_on_c, 9, 22, 30
2, 3592, Note_on_c, 9, 42, 0
2, 3622, Note_on_c, 9, 38, 40
2, 3641, Note_on_c, 9, 22, 0
2, 3670, Note_on_c, 9, 38, 0
2, 3670, Note_on_c, 9, 38, 36
2, 3693, Note_on_c, 9, 38, 0
2, 3710, Note_on_c, 9, 38, 29
2, 3741, Note_on_c, 9, 38, 0
2, 3767, Note_on_c, 9, 36, 127
2, 3780, Control_c, 9, 4, 90
2, 3780, Note_on_c, 9, 22, 63
2, 3838, Note_on_c, 9, 36, 0
2, 3851, Note_on_c, 9, 22, 0
2, 3895, Note_on_c, 9, 38, 33
2, 3966, Note_on_c, 9, 38, 0
2, 4027, Control_c, 9, 4, 90
2, 4027, Note_on_c, 9, 22, 59
2, 4099, Note_on_c, 9, 22, 0
2, 4154, Note_on_c, 9, 36, 89
2, 4225, Note_on_c, 9, 36, 0
2, 4279, Control_c, 9, 4, 90
2, 4279, Note_on_c, 9, 22, 114
2, 4279, Note_on_c, 9, 40, 127
2, 4326, Control_c, 9, 4, 86
2, 4350, Note_on_c, 9, 22, 0
2, 4350, Note_on_c, 9, 40, 0
2, 4370, Control_c, 9, 4, 90
2, 4522, Note_on_c, 9, 22, 74
2, 4540, Control_c, 9, 4, 85
2, 4575, Control_c, 9, 4, 56
2, 4575, Note_on_c, 9, 26, 45
2, 4593, Note_on_c, 9, 22, 0
2, 4605, Control_c, 9, 4, 21
2, 4620, Note_on_c, 9, 38, 39
2, 4644, Control_c, 9, 4, 0
2, 4646, Note_on_c, 9, 26, 0
2, 4681, Note_on_c, 9, 38, 0
2, 4681, Note_on_c, 9, 38, 32
2, 4691, Note_on_c, 9, 38, 0
2, 4752, Note_on_c, 9, 36, 127
2, 4766, Control_c, 9, 4, 0
2, 4766, Note_on_c, 9, 26, 75
2, 4813, Control_c, 9, 4, 32
2, 4823, Note_on_c, 9, 36, 0
2, 4824, Note_on_c, 9, 44, 27
2, 4837, Note_on_c, 9, 26, 0
2, 4846, Control_c, 9, 4, 90
2, 4894, Note_on_c, 9, 44, 0
2, 4905, Note_on_c, 9, 38, 35
2, 4976, Note_on_c, 9, 38, 0
2, 5001, Control_c, 9, 4, 90
2, 5001, Note_on_c, 9, 42, 41
2, 5073, Note_on_c, 9, 42, 0
2, 5125, Note_on_c, 9, 36, 114
2, 5196, Note_on_c, 9, 36, 0
2, 5241, Control_c, 9, 4, 90
2, 5241, Note_on_c, 9, 22, 127
2, 5245, Note_on_c, 9, 40, 127
2, 5313, Note_on_c, 9, 22, 0
2, 5315, Note_on_c, 9, 40, 0
2, 5474, Control_c, 9, 4, 90
2, 5474, Note_on_c, 9, 42, 51
2, 5522, Control_c, 9, 4, 90
2, 5522, Note_on_c, 9, 22, 48
2, 5545, Note_on_c, 9, 42, 0
2, 5560, Note_on_c, 9, 38, 51
2, 5593, Note_on_c, 9, 22, 0
2, 5605, Note_on_c, 9, 38, 0
2, 5605, Note_on_c, 9, 38, 43
2, 5631, Note_on_c, 9, 38, 0
2, 5657, Note_on_c, 9, 38, 26
2, 5676, Note_on_c, 9, 38, 0
2, 5703, Note_on_c, 9, 36, 127
2, 5711, Control_c, 9, 4, 90
2, 5711, Note_on_c, 9, 22, 108
2, 5774, Note_on_c, 9, 36, 0
2, 5783, Note_on_c, 9, 22, 0
2, 5852, Note_on_c, 9, 38, 27
2, 5922, Note_on_c, 9, 38, 0
2, 5957, Control_c, 9, 4, 90
2, 5957, Note_on_c, 9, 42, 59
2, 6028, Note_on_c, 9, 42, 0
2, 6089, Note_on_c, 9, 36, 127
2, 6160, Note_on_c, 9, 36, 0
2, 6205, Control_c, 9, 4, 90
2, 6205, Note_on_c, 9, 22, 106
2, 6212, Note_on_c, 9, 40, 127
2, 6276, Note_on_c, 9, 22, 0
2, 6283, Note_on_c, 9, 40, 0
2, 6444, Control_c, 9, 4, 90
2, 6444, Note_on_c, 9, 42, 47
2, 6495, Control_c, 9, 4, 90
2, 6495, Note_on_c, 9, 22, 39
2, 6516, Note_on_c, 9, 42, 0
2, 6542, Note_on_c, 9, 38, 44
2, 6566, Note_on_c, 9, 22, 0
2, 6586, Note_on_c, 9, 38, 0
2, 6586, Note_on_c, 9, 38, 40
2, 6614, Note_on_c, 9, 38, 0
2, 6634, Note_on_c, 9, 38, 30
2, 6657, Note_on_c, 9, 38, 0
2, 6686, Control_c, 9, 4, 90
2, 6686, Note_on_c, 9, 22, 104
2, 6686, Note_on_c, 9, 36, 127
2, 6758, Note_on_c, 9, 22, 0
2, 6758, Note_on_c, 9, 36, 0
2, 6829, Note_on_c, 9, 38, 47
2, 6900, Note_on_c, 9, 38, 0
2, 6931, Control_c, 9, 4, 90
2, 6931, Note_on_c, 9, 42, 68
2, 7002, Note_on_c, 9, 42, 0
2, 7055, Note_on_c, 9, 36, 127
2, 7072, Note_on_c, 9, 38, 7
2, 7127, Note_on_c, 9, 36, 0
2, 7143, Note_on_c, 9, 38, 0
2, 7180, Control_c, 9, 4, 90
2, 7180, Note_on_c, 9, 22, 82
2, 7183, Note_on_c, 9, 40, 127
2, 7251, Note_on_c, 9, 22, 0
2, 7254, Note_on_c, 9, 40, 0
2, 7413, Control_c, 9, 4, 90
2, 7413, Note_on_c, 9, 42, 57
2, 7461, Control_c, 9, 4, 90
2, 7461, Note_on_c, 9, 22, 56
2, 7484, Note_on_c, 9, 42, 0
2, 7517, Note_on_c, 9, 38, 50
2, 7532, Note_on_c, 9, 22, 0
2, 7568, Note_on_c, 9, 38, 0
2, 7568, Note_on_c, 9, 38, 45
2, 7589, Note_on_c, 9, 38, 0
2, 7631, Note_on_c, 9, 38, 26
2, 7639, Note_on_c, 9, 38, 0
2, 7650, Control_c, 9, 4, 90
2, 7651, End_track
0, 0, End_of_file
