0, 0, Header, 1, 2, 480
1, 0, Start_track
1, 0, Tempo, 545454
1, 0, Time_signature, 4, 2, 24, 8
1, 0, Key_signature, 0, "major"
1, 1, End_track
2, 0, Start_track
2, 0, Title_t, "TD-30 #9 Djembe"
2, 0, Program_c, 9, 0
2, 0, Control_c, 9, 17, 68
2, 40, Control_c, 9, 4, 97
2, 82, Control_c, 9, 4, 84
2, 114, Control_c, 9, 17, 38
2, 114, Note_on_c, 9, 51, 64
2, 177, Control_c, 9, 4, 90
2, 203, Note_on_c, 9, 51, 0
2, 229, Control_c, 9, 17, 68
2, 229, Note_on_c, 9, 51, 72
2, 280, Control_c, 9, 4, 86
2, 318, Note_on_c, 9, 51, 0
2, 359, Note_on_c, 9, 36, 39
2, 448, Note_on_c, 9, 36, 0
2, 464, Note_on_c, 9, 36, 73
2, 483, Control_c, 9, 4, 91
2, 486, Control_c, 9, 17, 127
2, 486, Note_on_c, 9, 51, 100
2, 552, Note_on_c, 9, 36, 0
2, 556, Control_c, 9, 4, 83
2, 575, Note_on_c, 9, 51, 0
2, 591, Control_c, 9, 4, 70
2, 639, Control_c, 9, 4, 0
2, 688, Control_c, 9, 4, 33
2, 697, Note_on_c, 9, 44, 100
2, 702, Control_c, 9, 17, 127
2, 702, Note_on_c, 9, 51, 74
2, 718, Control_c, 9, 4, 100
2, 751, Control_c, 9, 4, 94
2, 785, Note_on_c, 9, 44, 0
2, 790, Note_on_c, 9, 51, 0
2, 793, Control_c, 9, 4, 83
2, 839, Control_c, 9, 17, 97
2, 839, Note_on_c, 9, 51, 59
2, 896, Control_c, 9, 4, 89
2, 928, Note_on_c, 9, 51, 0
2, 944, Control_c, 9, 17, 99
2, 944, Note_on_c, 9, 51, 68
2, 955, Control_c, 9, 4, 85
2, 1033, Note_on_c, 9, 51, 0
2, 1196, Control_c, 9, 17, 127
2, 1197, Note_on_c, 9, 51, 81
2, 1207, Control_c, 9, 16, 0
2, 1208, Note_on_c, 9, 40, 54
2, 1217, Control_c, 9, 4, 90
2, 1284, Note_on_c, 9, 51, 0
2, 1294, Note_on_c, 9, 40, 0
2, 1331, Control_c, 9, 4, 75
2, 1363, Control_c, 9, 4, 54
2, 1396, Control_c, 9, 4, 0
2, 1440, Control_c, 9, 4, 66
2, 1443, Note_on_c, 9, 44, 87
2, 1445, Control_c, 9, 17, 0
2, 1446, Note_on_c, 9, 51, 64
2, 1470, Control_c, 9, 4, 112
2, 1514, Control_c, 9, 4, 91
2, 1532, Note_on_c, 9, 44, 0
2, 1532, Note_on_c, 9, 51, 0
2, 1565, Control_c, 9, 4, 81
2, 1638, Control_c, 9, 4, 90
2, 1684, Control_c, 9, 17, 127
2, 1685, Note_on_c, 9, 51, 80
2, 1773, Note_on_c, 9, 51, 0
2, 1784, Control_c, 9, 4, 83
2, 1814, Control_c, 9, 4, 70
2, 1855, Control_c, 9, 4, 0
2, 1916, Control_c, 9, 17, 127
2, 1916, Note_on_c, 9, 44, 106
2, 1916, Note_on_c, 9, 51, 84
2, 1922, Control_c, 9, 4, 108
2, 1938, Note_on_c, 9, 48, 38
2, 1968, Control_c, 9, 4, 97
2, 2004, Note_on_c, 9, 44, 0
2, 2004, Note_on_c, 9, 51, 0
2, 2016, Control_c, 9, 4, 84
2, 2027, Note_on_c, 9, 48, 0
2, 2034, Note_on_c, 9, 48, 50
2, 2059, Control_c, 9, 17, 30
2, 2059, Note_on_c, 9, 51, 55
2, 2100, Control_c, 9, 4, 89
2, 2122, Note_on_c, 9, 48, 0
2, 2147, Note_on_c, 9, 51, 0
2, 2161, Control_c, 9, 17, 37
2, 2161, Note_on_c, 9, 51, 76
2, 2249, Note_on_c, 9, 51, 0
2, 2272, Note_on_c, 9, 36, 47
2, 2361, Note_on_c, 9, 36, 0
2, 2383, Note_on_c, 9, 36, 77
2, 2411, Control_c, 9, 17, 127
2, 2411, Note_on_c, 9, 51, 97
2, 2472, Note_on_c, 9, 36, 0
2, 2499, Note_on_c, 9, 51, 0
2, 2508, Control_c, 9, 4, 72
2, 2559, Control_c, 9, 4, 0
2, 2624, Note_on_c, 9, 44, 106
2, 2631, Control_c, 9, 4, 110
2, 2635, Control_c, 9, 17, 127
2, 2635, Note_on_c, 9, 51, 76
2, 2678, Control_c, 9, 4, 96
2, 2713, Note_on_c, 9, 44, 0
2, 2720, Control_c, 9, 4, 84
2, 2724, Note_on_c, 9, 51, 0
2, 2767, Control_c, 9, 17, 45
2, 2768, Note_on_c, 9, 51, 63
2, 2818, Control_c, 9, 4, 90
2, 2856, Note_on_c, 9, 51, 0
2, 2870, Control_c, 9, 17, 34
2, 2870, Note_on_c, 9, 51, 88
2, 2958, Note_on_c, 9, 51, 0
2, 3131, Control_c, 9, 17, 127
2, 3132, Note_on_c, 9, 51, 111
2, 3135, Control_c, 9, 16, 85
2, 3135, Note_on_c, 9, 38, 56
2, 3139, Control_c, 9, 4, 94
2, 3209, Control_c, 9, 4, 82
2, 3220, Note_on_c, 9, 51, 0
2, 3222, Note_on_c, 9, 38, 0
2, 3251, Control_c, 9, 4, 61
2, 3282, Control_c, 9, 4, 0
2, 3343, Note_on_c, 9, 44, 100
2, 3351, Control_c, 9, 4, 108
2, 3369, Control_c, 9, 17, 107
2, 3370, Note_on_c, 9, 51, 92
2, 3397, Control_c, 9, 4, 94
2, 3432, Note_on_c, 9, 44, 0
2, 3444, Control_c, 9, 4, 84
2, 3458, Note_on_c, 9, 51, 0
2, 3532, Control_c, 9, 4, 90
2, 3598, Note_on_c, 9, 48, 49
2, 3607, Note_on_c, 9, 43, 56
2, 3686, Note_on_c, 9, 48, 0
2, 3694, Note_on_c, 9, 43, 0
2, 3848, Note_on_c, 9, 43, 73
2, 3851, Control_c, 9, 18, 0
2, 3851, Note_on_c, 9, 48, 68
2, 3936, Note_on_c, 9, 43, 0
2, 3939, Note_on_c, 9, 48, 0
2, 4092, Note_on_c, 9, 43, 74
2, 4093, Note_on_c, 9, 48, 73
2, 4180, Note_on_c, 9, 43, 0
2, 4180, Note_on_c, 9, 48, 0
2, 4325, Control_c, 9, 4, 95
2, 4344, Control_c, 9, 17, 83
2, 4344, Note_on_c, 9, 51, 106
2, 4348, Note_on_c, 9, 36, 102
2, 4415, Control_c, 9, 4, 83
2, 4433, Note_on_c, 9, 51, 0
2, 4437, Note_on_c, 9, 36, 0
2, 4459, Control_c, 9, 4, 54
2, 4493, Control_c, 9, 4, 9
2, 4525, Control_c, 9, 4, 16
2, 4541, Note_on_c, 9, 44, 74
2, 4555, Control_c, 9, 4, 102
2, 4564, Control_c, 9, 17, 127
2, 4564, Note_on_c, 9, 51, 73
2, 4596, Control_c, 9, 4, 96
2, 4630, Note_on_c, 9, 44, 0
2, 4638, Control_c, 9, 4, 84
2, 4653, Note_on_c, 9, 51, 0
2, 4670, Control_c, 9, 4, 80
2, 4701, Control_c, 9, 17, 21
2, 4702, Note_on_c, 9, 51, 58
2, 4740, Control_c, 9, 4, 87
2, 4790, Note_on_c, 9, 51, 0
2, 4812, Control_c, 9, 4, 83
2, 4814, Control_c, 9, 17, 41
2, 4814, Note_on_c, 9, 51, 73
2, 4903, Note_on_c, 9, 51, 0
2, 5042, Control_c, 9, 4, 92
2, 5062, Control_c, 9, 16, 127
2, 5063, Control_c, 9, 17, 104
2, 5063, Note_on_c, 9, 38, 70
2, 5065, Note_on_c, 9, 51, 106
2, 5142, Control_c, 9, 4, 79
2, 5151, Note_on_c, 9, 38, 0
2, 5151, Note_on_c, 9, 51, 0
2, 5190, Control_c, 9, 4, 57
2, 5224, Control_c, 9, 4, 0
2, 5269, Control_c, 9, 4, 34
2, 5278, Note_on_c, 9, 44, 93
2, 5300, Control_c, 9, 4, 102
2, 5306, Control_c, 9, 17, 0
2, 5307, Note_on_c, 9, 51, 66
2, 5332, Control_c, 9, 4, 97
2, 5367, Note_on_c, 9, 44, 0
2, 5379, Control_c, 9, 4, 84
2, 5395, Note_on_c, 9, 51, 0
2, 5481, Control_c, 9, 4, 90
2, 5535, Control_c, 9, 17, 52
2, 5536, Note_on_c, 9, 51, 87
2, 5624, Note_on_c, 9, 51, 0
2, 5654, Control_c, 9, 4, 77
2, 5689, Control_c, 9, 4, 55
2, 5720, Control_c, 9, 4, 0
2, 5766, Control_c, 9, 4, 67
2, 5768, Note_on_c, 9, 44, 93
2, 5788, Control_c, 9, 17, 102
2, 5788, Note_on_c, 9, 51, 88
2, 5791, Note_on_c, 9, 48, 60
2, 5796, Control_c, 9, 4, 110
2, 5838, Control_c, 9, 4, 92
2, 5857, Note_on_c, 9, 44, 0
2, 5871, Control_c, 9, 4, 85
2, 5876, Note_on_c, 9, 51, 0
2, 5878, Note_on_c, 9, 48, 0
2, 5904, Control_c, 9, 4, 81
2, 5958, Control_c, 9, 4, 89
2, 6021, Control_c, 9, 17, 127
2, 6021, Note_on_c, 9, 51, 59
2, 6045, Control_c, 9, 4, 85
2, 6110, Note_on_c, 9, 51, 0
2, 6243, Control_c, 9, 4, 90
2, 6261, Note_on_c, 9, 36, 62
2, 6268, Control_c, 9, 17, 71
2, 6269, Note_on_c, 9, 51, 102
2, 6277, Control_c, 9, 4, 94
2, 6333, Control_c, 9, 4, 88
2, 6350, Note_on_c, 9, 36, 0
2, 6357, Note_on_c, 9, 51, 0
2, 6367, Control_c, 9, 4, 72
2, 6411, Control_c, 9, 4, 0
2, 6490, Control_c, 9, 17, 127
2, 6491, Note_on_c, 9, 51, 63
2, 6492, Control_c, 9, 4, 66
2, 6495, Note_on_c, 9, 44, 93
2, 6522, Control_c, 9, 4, 79
2, 6565, Control_c, 9, 4, 58
2, 6579, Note_on_c, 9, 51, 0
2, 6582, Note_on_c, 9, 44, 0
2, 6597, Control_c, 9, 4, 66
2, 6628, Control_c, 9, 17, 44
2, 6629, Note_on_c, 9, 51, 60
2, 6717, Note_on_c, 9, 51, 0
2, 6732, Control_c, 9, 17, 40
2, 6733, Note_on_c, 9, 51, 78
2, 6820, Note_on_c, 9, 51, 0
2, 6979, Control_c, 9, 17, 127
2, 6980, Note_on_c, 9, 51, 104
2, 6981, Control_c, 9, 16, 127
2, 6982, Note_on_c, 9, 38, 70
2, 7068, Note_on_c, 9, 38, 0
2, 7068, Note_on_c, 9, 51, 0
2, 7071, Control_c, 9, 4, 60
2, 7118, Control_c, 9, 4, 48
2, 7223, Control_c, 9, 17, 127
2, 7224, Note_on_c, 9, 51, 74
2, 7226, Control_c, 9, 4, 61
2, 7312, Note_on_c, 9, 51, 0
2, 7337, Note_on_c, 9, 48, 33
2, 7401, Control_c, 9, 4, 65
2, 7422, Control_c, 9, 17, 69
2, 7422, Note_on_c, 9, 51, 56
2, 7425, Note_on_c, 9, 48, 0
2, 7439, Control_c, 9, 18, 0
2, 7440, Note_on_c, 9, 48, 58
2, 7486, Control_c, 9, 4, 69
2, 7511, Note_on_c, 9, 51, 0
2, 7527, Note_on_c, 9, 48, 0
2, 7528, End_track
0, 0, End_of_file
