0, 0, Header, 1, 2, 480
1, 0, Start_track
1, 0, Tempo, 588235
1, 0, Time_signature, 4, 2, 24, 8
1, 0, Key_signature, 0, "major"
1, 1, End_track
2, 0, Start_track
2, 0, Title_t, "Classic Studio Kit"
2, 0, Program_c, 9, 0
2, 0, Control_c, 9, 17, 127
2, 26, Control_c, 9, 4, 97
2, 108, Control_c, 9, 17, 69
2, 109, Note_on_c, 9, 51, 99
2, 178, Control_c, 9, 4, 104
2, 191, Note_on_c, 9, 51, 0
2, 201, Note_on_c, 9, 36, 58
2, 220, Control_c, 9, 4, 108
2, 264, Control_c, 9, 4, 100
2, 282, Note_on_c, 9, 36, 0
2, 301, Control_c, 9, 4, 88
2, 332, Control_c, 9, 4, 70
2, 353, Control_c, 9, 17, 127
2, 353, Note_on_c, 9, 51, 55
2, 366, Control_c, 9, 4, 0
2, 434, Note_on_c, 9, 44, 119
2, 436, Note_on_c, 9, 51, 0
2, 441, Control_c, 9, 4, 127
2, 448, Note_on_c, 9, 36, 81
2, 460, Control_c, 9, 16, 0
2, 460, Note_on_c, 9, 38, 127
2, 470, Control_c, 9, 17, 78
2, 471, Note_on_c, 9, 51, 99
2, 476, Control_c, 9, 4, 97
2, 516, Note_on_c, 9, 44, 0
2, 529, Note_on_c, 9, 36, 0
2, 538, Control_c, 9, 4, 85
2, 542, Note_on_c, 9, 38, 0
2, 552, Note_on_c, 9, 51, 0
2, 609, Control_c, 9, 4, 89
2, 654, Control_c, 9, 4, 112
2, 694, Control_c, 9, 17, 63
2, 694, Note_on_c, 9, 51, 85
2, 764, Control_c, 9, 4, 106
2, 775, Note_on_c, 9, 51, 0
2, 795, Control_c, 9, 4, 94
2, 807, Control_c, 9, 18, 0
2, 808, Note_on_c, 9, 48, 53
2, 812, Note_on_c, 9, 36, 70
2, 861, Control_c, 9, 4, 83
2, 889, Note_on_c, 9, 48, 0
2, 894, Note_on_c, 9, 36, 0
2, 925, Control_c, 9, 4, 127
2, 929, Control_c, 9, 17, 0
2, 930, Note_on_c, 9, 51, 47
2, 935, Note_on_c, 9, 48, 78
2, 972, Control_c, 9, 4, 98
2, 1012, Note_on_c, 9, 51, 0
2, 1016, Note_on_c, 9, 48, 0
2, 1046, Control_c, 9, 17, 99
2, 1047, Note_on_c, 9, 51, 86
2, 1128, Note_on_c, 9, 51, 0
2, 1149, Control_c, 9, 4, 108
2, 1155, Note_on_c, 9, 36, 68
2, 1164, Control_c, 9, 17, 99
2, 1165, Note_on_c, 9, 51, 7
2, 1225, Control_c, 9, 4, 99
2, 1237, Note_on_c, 9, 36, 0
2, 1247, Note_on_c, 9, 51, 0
2, 1264, Control_c, 9, 4, 87
2, 1282, Control_c, 9, 17, 127
2, 1283, Note_on_c, 9, 51, 49
2, 1296, Control_c, 9, 4, 71
2, 1336, Control_c, 9, 4, 0
2, 1364, Note_on_c, 9, 51, 0
2, 1394, Note_on_c, 9, 44, 119
2, 1400, Control_c, 9, 4, 127
2, 1402, Note_on_c, 9, 36, 82
2, 1404, Control_c, 9, 17, 46
2, 1405, Note_on_c, 9, 51, 91
2, 1407, Note_on_c, 9, 38, 78
2, 1436, Control_c, 9, 4, 104
2, 1473, Control_c, 9, 4, 91
2, 1476, Note_on_c, 9, 44, 0
2, 1485, Note_on_c, 9, 36, 0
2, 1487, Note_on_c, 9, 38, 0
2, 1487, Note_on_c, 9, 51, 0
2, 1503, Control_c, 9, 4, 85
2, 1562, Control_c, 9, 4, 89
2, 1613, Control_c, 9, 4, 114
2, 1651, Control_c, 9, 17, 70
2, 1652, Note_on_c, 9, 51, 71
2, 1734, Note_on_c, 9, 51, 0
2, 1739, Control_c, 9, 4, 102
2, 1766, Note_on_c, 9, 36, 67
2, 1771, Control_c, 9, 4, 92
2, 1772, Control_c, 9, 18, 0
2, 1772, Note_on_c, 9, 48, 48
2, 1838, Control_c, 9, 4, 80
2, 1849, Note_on_c, 9, 36, 0
2, 1855, Note_on_c, 9, 48, 0
2, 1886, Control_c, 9, 17, 127
2, 1887, Note_on_c, 9, 51, 49
2, 1895, Control_c, 9, 4, 127
2, 1899, Note_on_c, 9, 48, 70
2, 1953, Control_c, 9, 4, 96
2, 1969, Note_on_c, 9, 51, 0
2, 1980, Note_on_c, 9, 48, 0
2, 2014, Control_c, 9, 17, 49
2, 2015, Note_on_c, 9, 51, 89
2, 2032, Control_c, 9, 4, 97
2, 2086, Control_c, 9, 4, 110
2, 2096, Note_on_c, 9, 51, 0
2, 2132, Note_on_c, 9, 36, 58
2, 2214, Note_on_c, 9, 36, 0
2, 2219, Control_c, 9, 4, 100
2, 2256, Control_c, 9, 4, 84
2, 2262, Control_c, 9, 17, 127
2, 2263, Note_on_c, 9, 51, 55
2, 2290, Control_c, 9, 4, 70
2, 2327, Control_c, 9, 4, 0
2, 2345, Note_on_c, 9, 51, 0
2, 2378, Control_c, 9, 4, 34
2, 2384, Note_on_c, 9, 44, 113
2, 2387, Note_on_c, 9, 36, 78
2, 2390, Control_c, 9, 16, 0
2, 2390, Note_on_c, 9, 38, 105
2, 2393, Control_c, 9, 17, 60
2, 2393, Note_on_c, 9, 51, 86
2, 2410, Control_c, 9, 4, 127
2, 2446, Control_c, 9, 4, 102
2, 2466, Note_on_c, 9, 44, 0
2, 2468, Note_on_c, 9, 36, 0
2, 2472, Note_on_c, 9, 38, 0
2, 2472, Note_on_c, 9, 51, 0
2, 2481, Control_c, 9, 4, 90
2, 2606, Control_c, 9, 4, 120
2, 2627, Control_c, 9, 17, 82
2, 2628, Note_on_c, 9, 51, 77
2, 2676, Control_c, 9, 4, 114
2, 2710, Note_on_c, 9, 51, 0
2, 2723, Control_c, 9, 4, 92
2, 2751, Note_on_c, 9, 36, 68
2, 2752, Control_c, 9, 18, 0
2, 2753, Note_on_c, 9, 48, 48
2, 2755, Control_c, 9, 4, 87
2, 2809, Control_c, 9, 4, 76
2, 2833, Note_on_c, 9, 36, 0
2, 2834, Note_on_c, 9, 48, 0
2, 2867, Control_c, 9, 17, 127
2, 2868, Note_on_c, 9, 51, 54
2, 2870, Control_c, 9, 4, 127
2, 2875, Note_on_c, 9, 48, 76
2, 2928, Control_c, 9, 4, 97
2, 2950, Note_on_c, 9, 51, 0
2, 2957, Note_on_c, 9, 48, 0
2, 2997, Control_c, 9, 17, 47
2, 2997, Note_on_c, 9, 51, 85
2, 3057, Control_c, 9, 4, 102
2, 3079, Note_on_c, 9, 51, 0
2, 3101, Control_c, 9, 4, 98
2, 3110, Note_on_c, 9, 36, 55
2, 3192, Note_on_c, 9, 36, 0
2, 3230, Control_c, 9, 17, 54
2, 3230, Note_on_c, 9, 51, 60
2, 3238, Control_c, 9, 4, 94
2, 3311, Note_on_c, 9, 51, 0
2, 3342, Note_on_c, 9, 36, 86
2, 3353, Control_c, 9, 17, 9
2, 3354, Note_on_c, 9, 51, 93
2, 3362, Note_on_c, 9, 38, 88
2, 3411, Control_c, 9, 4, 104
2, 3425, Note_on_c, 9, 36, 0
2, 3434, Note_on_c, 9, 51, 0
2, 3443, Note_on_c, 9, 38, 0
2, 3465, Control_c, 9, 4, 91
2, 3502, Control_c, 9, 4, 72
2, 3540, Control_c, 9, 4, 0
2, 3596, Control_c, 9, 17, 65
2, 3597, Note_on_c, 9, 51, 81
2, 3602, Note_on_c, 9, 46, 13
2, 3603, Note_on_c, 9, 44, 119
2, 3608, Control_c, 9, 4, 127
2, 3651, Control_c, 9, 4, 114
2, 3678, Note_on_c, 9, 51, 0
2, 3683, Note_on_c, 9, 46, 0
2, 3684, Note_on_c, 9, 44, 0
2, 3694, Control_c, 9, 4, 92
2, 3714, Control_c, 9, 18, 0
2, 3715, Note_on_c, 9, 48, 49
2, 3736, Note_on_c, 9, 36, 76
2, 3797, Note_on_c, 9, 48, 0
2, 3819, Note_on_c, 9, 36, 0
2, 3850, Control_c, 9, 18, 0
2, 3851, Note_on_c, 9, 48, 70
2, 3858, Control_c, 9, 4, 98
2, 3859, Control_c, 9, 17, 121
2, 3860, Note_on_c, 9, 51, 63
2, 3932, Note_on_c, 9, 48, 0
2, 3942, Note_on_c, 9, 51, 0
2, 3975, Control_c, 9, 17, 41
2, 3975, Note_on_c, 9, 51, 77
2, 4056, Note_on_c, 9, 51, 0
2, 4086, Note_on_c, 9, 36, 67
2, 4119, Control_c, 9, 4, 94
2, 4167, Note_on_c, 9, 36, 0
2, 4197, Control_c, 9, 17, 127
2, 4197, Note_on_c, 9, 51, 48
2, 4278, Note_on_c, 9, 51, 0
2, 4320, Note_on_c, 9, 36, 74
2, 4325, Control_c, 9, 17, 36
2, 4326, Note_on_c, 9, 51, 91
2, 4329, Control_c, 9, 16, 0
2, 4329, Note_on_c, 9, 38, 85
2, 4363, Control_c, 9, 4, 106
2, 4403, Note_on_c, 9, 36, 0
2, 4408, Note_on_c, 9, 51, 0
2, 4411, Note_on_c, 9, 38, 0
2, 4423, Control_c, 9, 4, 92
2, 4466, Control_c, 9, 4, 70
2, 4496, Control_c, 9, 4, 0
2, 4561, Note_on_c, 9, 44, 126
2, 4567, Control_c, 9, 4, 127
2, 4569, Control_c, 9, 17, 65
2, 4569, Note_on_c, 9, 51, 75
2, 4611, Control_c, 9, 4, 118
2, 4644, Note_on_c, 9, 44, 0
2, 4650, Control_c, 9, 4, 92
2, 4651, Note_on_c, 9, 51, 0
2, 4685, Control_c, 9, 18, 42
2, 4685, Note_on_c, 9, 48, 45
2, 4700, Note_on_c, 9, 36, 76
2, 4766, Note_on_c, 9, 48, 0
2, 4782, Note_on_c, 9, 36, 0
2, 4784, Control_c, 9, 4, 108
2, 4813, Control_c, 9, 18, 0
2, 4814, Control_c, 9, 17, 0
2, 4814, Note_on_c, 9, 48, 65
2, 4816, Note_on_c, 9, 51, 46
2, 4817, Control_c, 9, 4, 102
2, 4862, Control_c, 9, 4, 110
2, 4896, Note_on_c, 9, 48, 0
2, 4897, Note_on_c, 9, 51, 0
2, 4931, Control_c, 9, 4, 92
2, 4944, Control_c, 9, 17, 83
2, 4944, Note_on_c, 9, 51, 75
2, 4967, Control_c, 9, 4, 74
2, 5003, Control_c, 9, 4, 0
2, 5026, Note_on_c, 9, 51, 0
2, 5055, Control_c, 9, 4, 34
2, 5058, Note_on_c, 9, 36, 67
2, 5061, Note_on_c, 9, 44, 126
2, 5087, Control_c, 9, 4, 127
2, 5103, Note_on_c, 9, 49, 6
2, 5139, Control_c, 9, 4, 92
2, 5141, Note_on_c, 9, 36, 0
2, 5143, Note_on_c, 9, 44, 0
2, 5173, Control_c, 9, 17, 0
2, 5174, Control_c, 9, 4, 88
2, 5174, Note_on_c, 9, 51, 51
2, 5186, Note_on_c, 9, 49, 0
2, 5256, Note_on_c, 9, 51, 0
2, 5278, Control_c, 9, 4, 100
2, 5301, Control_c, 9, 17, 77
2, 5301, Note_on_c, 9, 36, 89
2, 5302, Note_on_c, 9, 51, 94
2, 5304, Note_on_c, 9, 38, 72
2, 5382, Note_on_c, 9, 36, 0
2, 5382, Note_on_c, 9, 51, 0
2, 5384, Note_on_c, 9, 38, 0
2, 5405, Control_c, 9, 4, 85
2, 5437, Control_c, 9, 4, 70
2, 5473, Control_c, 9, 4, 0
2, 5528, Note_on_c, 9, 44, 119
2, 5535, Control_c, 9, 4, 127
2, 5540, Control_c, 9, 17, 96
2, 5540, Note_on_c, 9, 51, 76
2, 5578, Control_c, 9, 4, 116
2, 5611, Note_on_c, 9, 44, 0
2, 5613, Control_c, 9, 4, 91
2, 5622, Note_on_c, 9, 51, 0
2, 5647, Control_c, 9, 4, 87
2, 5648, Note_on_c, 9, 48, 49
2, 5659, Note_on_c, 9, 36, 67
2, 5729, Note_on_c, 9, 48, 0
2, 5730, Control_c, 9, 4, 94
2, 5741, Note_on_c, 9, 36, 0
2, 5764, Control_c, 9, 4, 100
2, 5780, Control_c, 9, 17, 127
2, 5780, Note_on_c, 9, 51, 50
2, 5783, Control_c, 9, 18, 0
2, 5784, Note_on_c, 9, 48, 70
2, 5815, Control_c, 9, 4, 106
2, 5861, Note_on_c, 9, 51, 0
2, 5865, Note_on_c, 9, 48, 0
2, 5885, Control_c, 9, 4, 91
2, 5908, Control_c, 9, 17, 73
2, 5909, Note_on_c, 9, 51, 84
2, 5926, Control_c, 9, 4, 71
2, 5962, Control_c, 9, 4, 0
2, 5991, Note_on_c, 9, 51, 0
2, 6015, Control_c, 9, 4, 33
2, 6021, Note_on_c, 9, 44, 119
2, 6031, Note_on_c, 9, 36, 62
2, 6046, Control_c, 9, 4, 127
2, 6099, Control_c, 9, 4, 92
2, 6103, Note_on_c, 9, 44, 0
2, 6113, Note_on_c, 9, 36, 0
2, 6144, Control_c, 9, 17, 127
2, 6144, Note_on_c, 9, 51, 50
2, 6225, Note_on_c, 9, 51, 0
2, 6236, Control_c, 9, 4, 96
2, 6266, Control_c, 9, 16, 0
2, 6267, Note_on_c, 9, 38, 76
2, 6268, Control_c, 9, 17, 46
2, 6269, Note_on_c, 9, 36, 74
2, 6269, Note_on_c, 9, 51, 88
2, 6309, Control_c, 9, 4, 102
2, 6348, Note_on_c, 9, 38, 0
2, 6350, Note_on_c, 9, 36, 0
2, 6350, Note_on_c, 9, 51, 0
2, 6362, Control_c, 9, 4, 95
2, 6406, Control_c, 9, 4, 71
2, 6442, Control_c, 9, 4, 0
2, 6499, Control_c, 9, 17, 109
2, 6500, Note_on_c, 9, 51, 78
2, 6505, Note_on_c, 9, 44, 119
2, 6511, Control_c, 9, 4, 127
2, 6556, Control_c, 9, 4, 118
2, 6582, Note_on_c, 9, 51, 0
2, 6587, Note_on_c, 9, 44, 0
2, 6594, Control_c, 9, 4, 91
2, 6612, Note_on_c, 9, 48, 47
2, 6627, Note_on_c, 9, 36, 68
2, 6694, Note_on_c, 9, 48, 0
2, 6709, Note_on_c, 9, 36, 0
2, 6720, Control_c, 9, 4, 118
2, 6731, Control_c, 9, 17, 52
2, 6731, Note_on_c, 9, 51, 66
2, 6742, Control_c, 9, 18, 0
2, 6742, Note_on_c, 9, 48, 74
2, 6809, Control_c, 9, 4, 98
2, 6813, Note_on_c, 9, 51, 0
2, 6824, Note_on_c, 9, 48, 0
2, 6840, Control_c, 9, 4, 81
2, 6860, Control_c, 9, 17, 58
2, 6861, Note_on_c, 9, 51, 77
2, 6880, Control_c, 9, 4, 0
2, 6942, Note_on_c, 9, 51, 0
2, 6958, Control_c, 9, 4, 35
2, 6964, Note_on_c, 9, 44, 127
2, 6973, Note_on_c, 9, 36, 64
2, 6989, Control_c, 9, 4, 127
2, 7027, Control_c, 9, 4, 116
2, 7045, Note_on_c, 9, 44, 0
2, 7054, Note_on_c, 9, 36, 0
2, 7062, Control_c, 9, 4, 80
2, 7083, Control_c, 9, 17, 72
2, 7084, Note_on_c, 9, 51, 57
2, 7099, Control_c, 9, 4, 0
2, 7166, Note_on_c, 9, 51, 0
2, 7182, Note_on_c, 9, 46, 8
2, 7194, Control_c, 9, 4, 51
2, 7199, Note_on_c, 9, 44, 119
2, 7210, Note_on_c, 9, 36, 79
2, 7212, Control_c, 9, 17, 73
2, 7212, Note_on_c, 9, 38, 69
2, 7213, Note_on_c, 9, 51, 91
2, 7224, Control_c, 9, 4, 110
2, 7262, Control_c, 9, 4, 100
2, 7263, Note_on_c, 9, 46, 0
2, 7280, Note_on_c, 9, 44, 0
2, 7292, Note_on_c, 9, 36, 0
2, 7293, Note_on_c, 9, 38, 0
2, 7295, Note_on_c, 9, 51, 0
2, 7301, Control_c, 9, 4, 85
2, 7429, Control_c, 9, 4, 120
2, 7449, Control_c, 9, 17, 99
2, 7449, Note_on_c, 9, 51, 78
2, 7496, Control_c, 9, 4, 112
2, 7528, Control_c, 9, 4, 91
2, 7531, Note_on_c, 9, 51, 0
2, 7563, Control_c, 9, 4, 71
2, 7571, Note_on_c, 9, 36, 67
2, 7571, Note_on_c, 9, 48, 48
2, 7598, Control_c, 9, 4, 0
2, 7652, Note_on_c, 9, 48, 0
2, 7653, Note_on_c, 9, 36, 0
2, 7675, Control_c, 9, 4, 33
2, 7676, End_track
0, 0, End_of_file
