0, 0, Header, 1, 2, 480
1, 0, Start_track
1, 0, Tempo, 705882
1, 0, Time_signature, 4, 2, 24, 8
1, 0, Time_signature, 4, 2, 24, 8
1, 0, Key_signature, 0, "major"
1, 1, End_track
2, 0, Start_track
2, 0, Title_t, "SoCal"
2, 0, Program_c, 9, 0
2, 0, Control_c, 9, 17, 0
2, 80, Control_c, 9, 4, 89
2, 119, Control_c, 9, 16, 21
2, 119, Note_on_c, 9, 38, 24
2, 134, Control_c, 9, 4, 77
2, 174, Control_c, 9, 4, 46
2, 187, Note_on_c, 9, 38, 0
2, 217, Note_on_c, 9, 44, 28
2, 235, Control_c, 9, 16, 42
2, 235, Note_on_c, 9, 38, 52
2, 238, Control_c, 9, 4, 95
2, 285, Note_on_c, 9, 44, 0
2, 303, Note_on_c, 9, 38, 0
2, 332, Control_c, 9, 4, 89
2, 355, Control_c, 9, 16, 0
2, 356, Note_on_c, 9, 40, 17
2, 384, Control_c, 9, 4, 77
2, 423, Control_c, 9, 4, 52
2, 424, Note_on_c, 9, 40, 0
2, 457, Note_on_c, 9, 44, 22
2, 475, Control_c, 9, 16, 0
2, 475, Note_on_c, 9, 38, 35
2, 478, Control_c, 9, 4, 98
2, 483, Note_on_c, 9, 36, 51
2, 525, Note_on_c, 9, 44, 0
2, 543, Note_on_c, 9, 38, 0
2, 551, Control_c, 9, 4, 92
2, 551, Note_on_c, 9, 36, 0
2, 583, Control_c, 9, 4, 87
2, 591, Note_on_c, 9, 36, 42
2, 596, Control_c, 9, 16, 0
2, 596, Note_on_c, 9, 38, 16
2, 621, Control_c, 9, 4, 69
2, 652, Control_c, 9, 4, 27
2, 660, Note_on_c, 9, 36, 0
2, 665, Note_on_c, 9, 38, 0
2, 691, Control_c, 9, 4, 46
2, 701, Note_on_c, 9, 44, 48
2, 710, Control_c, 9, 16, 0
2, 710, Note_on_c, 9, 38, 48
2, 722, Control_c, 9, 4, 95
2, 770, Note_on_c, 9, 44, 0
2, 778, Note_on_c, 9, 38, 0
2, 804, Control_c, 9, 4, 89
2, 836, Control_c, 9, 4, 82
2, 845, Control_c, 9, 16, 0
2, 845, Note_on_c, 9, 38, 45
2, 882, Control_c, 9, 4, 57
2, 913, Note_on_c, 9, 38, 0
2, 922, Control_c, 9, 4, 65
2, 932, Note_on_c, 9, 44, 22
2, 952, Control_c, 9, 4, 94
2, 954, Note_on_c, 9, 36, 56
2, 959, Control_c, 9, 16, 0
2, 960, Note_on_c, 9, 38, 38
2, 1000, Note_on_c, 9, 44, 0
2, 1022, Note_on_c, 9, 36, 0
2, 1027, Note_on_c, 9, 38, 0
2, 1047, Control_c, 9, 4, 89
2, 1078, Control_c, 9, 16, 0
2, 1079, Note_on_c, 9, 38, 24
2, 1109, Control_c, 9, 4, 67
2, 1140, Control_c, 9, 4, 33
2, 1147, Note_on_c, 9, 38, 0
2, 1170, Control_c, 9, 4, 45
2, 1183, Note_on_c, 9, 44, 35
2, 1197, Control_c, 9, 16, 21
2, 1198, Note_on_c, 9, 38, 54
2, 1204, Control_c, 9, 4, 95
2, 1251, Note_on_c, 9, 44, 0
2, 1265, Note_on_c, 9, 38, 0
2, 1306, Control_c, 9, 4, 89
2, 1321, Control_c, 9, 16, 0
2, 1322, Note_on_c, 9, 40, 18
2, 1358, Control_c, 9, 4, 67
2, 1389, Control_c, 9, 4, 30
2, 1390, Note_on_c, 9, 40, 0
2, 1419, Control_c, 9, 4, 36
2, 1434, Note_on_c, 9, 44, 35
2, 1437, Control_c, 9, 16, 0
2, 1438, Note_on_c, 9, 38, 36
2, 1441, Note_on_c, 9, 36, 51
2, 1456, Control_c, 9, 4, 95
2, 1503, Note_on_c, 9, 44, 0
2, 1505, Note_on_c, 9, 38, 0
2, 1509, Note_on_c, 9, 36, 0
2, 1530, Control_c, 9, 4, 89
2, 1551, Note_on_c, 9, 36, 41
2, 1555, Control_c, 9, 16, 0
2, 1555, Note_on_c, 9, 38, 26
2, 1561, Control_c, 9, 4, 82
2, 1602, Control_c, 9, 4, 0
2, 1619, Note_on_c, 9, 36, 0
2, 1623, Note_on_c, 9, 38, 0
2, 1668, Note_on_c, 9, 44, 74
2, 1675, Control_c, 9, 4, 89
2, 1675, Control_c, 9, 16, 21
2, 1675, Note_on_c, 9, 38, 49
2, 1714, Control_c, 9, 4, 46
2, 1736, Note_on_c, 9, 44, 0
2, 1744, Note_on_c, 9, 38, 0
2, 1748, Control_c, 9, 4, 18
2, 1786, Control_c, 9, 4, 0
2, 1802, Control_c, 9, 16, 0
2, 1802, Note_on_c, 9, 38, 40
2, 1871, Note_on_c, 9, 38, 0
2, 1893, Control_c, 9, 4, 48
2, 1902, Note_on_c, 9, 44, 41
2, 1924, Note_on_c, 9, 36, 58
2, 1925, Control_c, 9, 4, 89
2, 1928, Control_c, 9, 17, 46
2, 1929, Note_on_c, 9, 51, 98
2, 1965, Control_c, 9, 4, 95
2, 1971, Note_on_c, 9, 44, 0
2, 1992, Note_on_c, 9, 36, 0
2, 1997, Note_on_c, 9, 51, 0
2, 2012, Control_c, 9, 4, 89
2, 2044, Control_c, 9, 16, 21
2, 2044, Note_on_c, 9, 38, 23
2, 2059, Control_c, 9, 4, 74
2, 2089, Control_c, 9, 4, 40
2, 2113, Note_on_c, 9, 38, 0
2, 2124, Control_c, 9, 4, 41
2, 2143, Note_on_c, 9, 44, 28
2, 2164, Control_c, 9, 4, 95
2, 2166, Control_c, 9, 16, 21
2, 2167, Note_on_c, 9, 38, 54
2, 2212, Note_on_c, 9, 44, 0
2, 2234, Note_on_c, 9, 38, 0
2, 2263, Control_c, 9, 4, 89
2, 2288, Control_c, 9, 16, 0
2, 2288, Note_on_c, 9, 40, 19
2, 2310, Control_c, 9, 4, 67
2, 2344, Control_c, 9, 4, 37
2, 2358, Note_on_c, 9, 40, 0
2, 2379, Control_c, 9, 4, 61
2, 2387, Note_on_c, 9, 44, 28
2, 2406, Control_c, 9, 16, 0
2, 2406, Note_on_c, 9, 38, 38
2, 2409, Control_c, 9, 4, 95
2, 2415, Note_on_c, 9, 36, 48
2, 2456, Note_on_c, 9, 44, 0
2, 2474, Note_on_c, 9, 38, 0
2, 2482, Note_on_c, 9, 36, 0
2, 2521, Control_c, 9, 16, 0
2, 2521, Note_on_c, 9, 38, 25
2, 2523, Control_c, 9, 4, 80
2, 2523, Note_on_c, 9, 36, 42
2, 2523, Note_on_c, 9, 46, 6
2, 2558, Control_c, 9, 4, 0
2, 2580, Note_on_c, 9, 46, 0
2, 2581, Note_on_c, 9, 46, 30
2, 2589, Note_on_c, 9, 38, 0
2, 2589, Note_on_c, 9, 46, 0
2, 2591, Note_on_c, 9, 36, 0
2, 2597, Control_c, 9, 4, 0
2, 2598, Note_on_c, 9, 46, 24
2, 2626, Note_on_c, 9, 44, 87
2, 2636, Control_c, 9, 16, 0
2, 2636, Note_on_c, 9, 38, 49
2, 2643, Control_c, 9, 4, 77
2, 2649, Note_on_c, 9, 46, 0
2, 2675, Control_c, 9, 4, 0
2, 2694, Note_on_c, 9, 44, 0
2, 2704, Note_on_c, 9, 38, 0
2, 2766, Control_c, 9, 16, 0
2, 2766, Note_on_c, 9, 38, 39
2, 2835, Note_on_c, 9, 38, 0
2, 2862, Control_c, 9, 4, 32
2, 2875, Note_on_c, 9, 44, 54
2, 2882, Control_c, 9, 16, 42
2, 2883, Note_on_c, 9, 38, 40
2, 2886, Note_on_c, 9, 36, 57
2, 2896, Control_c, 9, 4, 91
2, 2934, Control_c, 9, 4, 95
2, 2943, Note_on_c, 9, 44, 0
2, 2950, Note_on_c, 9, 38, 0
2, 2954, Note_on_c, 9, 36, 0
2, 2997, Control_c, 9, 16, 0
2, 2997, Note_on_c, 9, 38, 26
2, 3005, Control_c, 9, 4, 83
2, 3036, Control_c, 9, 4, 67
2, 3064, Note_on_c, 9, 38, 0
2, 3066, Control_c, 9, 4, 30
2, 3101, Control_c, 9, 4, 45
2, 3115, Note_on_c, 9, 44, 35
2, 3120, Control_c, 9, 16, 0
2, 3121, Note_on_c, 9, 38, 57
2, 3136, Control_c, 9, 4, 95
2, 3183, Note_on_c, 9, 44, 0
2, 3185, Control_c, 9, 4, 99
2, 3189, Note_on_c, 9, 38, 0
2, 3226, Control_c, 9, 4, 88
2, 3238, Control_c, 9, 16, 0
2, 3238, Note_on_c, 9, 40, 16
2, 3261, Control_c, 9, 4, 72
2, 3296, Control_c, 9, 4, 48
2, 3306, Note_on_c, 9, 40, 0
2, 3327, Control_c, 9, 4, 58
2, 3339, Note_on_c, 9, 44, 22
2, 3343, Note_on_c, 9, 46, 38
2, 3354, Control_c, 9, 16, 0
2, 3354, Note_on_c, 9, 38, 39
2, 3360, Control_c, 9, 4, 98
2, 3362, Note_on_c, 9, 36, 46
2, 3408, Note_on_c, 9, 44, 0
2, 3411, Note_on_c, 9, 46, 0
2, 3422, Note_on_c, 9, 38, 0
2, 3431, Note_on_c, 9, 36, 0
2, 3458, Control_c, 9, 4, 87
2, 3471, Control_c, 9, 16, 0
2, 3471, Note_on_c, 9, 38, 25
2, 3475, Note_on_c, 9, 36, 38
2, 3505, Control_c, 9, 4, 60
2, 3535, Control_c, 9, 4, 28
2, 3540, Note_on_c, 9, 38, 0
2, 3543, Note_on_c, 9, 36, 0
2, 3577, Note_on_c, 9, 44, 35
2, 3583, Control_c, 9, 4, 94
2, 3589, Control_c, 9, 16, 0
2, 3589, Note_on_c, 9, 38, 48
2, 3622, Control_c, 9, 4, 94
2, 3645, Note_on_c, 9, 44, 0
2, 3657, Note_on_c, 9, 38, 0
2, 3714, Control_c, 9, 16, 0
2, 3715, Note_on_c, 9, 38, 41
2, 3729, Control_c, 9, 4, 81
2, 3764, Control_c, 9, 4, 52
2, 3783, Note_on_c, 9, 38, 0
2, 3802, Control_c, 9, 4, 58
2, 3811, Note_on_c, 9, 44, 28
2, 3832, Control_c, 9, 17, 7
2, 3832, Note_on_c, 9, 51, 77
2, 3834, Control_c, 9, 4, 99
2, 3839, Note_on_c, 9, 36, 66
2, 3879, Note_on_c, 9, 44, 0
2, 3901, Note_on_c, 9, 51, 0
2, 3907, Note_on_c, 9, 36, 0
2, 3920, Control_c, 9, 4, 89
2, 3947, Control_c, 9, 16, 0
2, 3947, Note_on_c, 9, 38, 24
2, 3970, Control_c, 9, 4, 76
2, 4005, Control_c, 9, 4, 46
2, 4015, Note_on_c, 9, 38, 0
2, 4040, Control_c, 9, 4, 59
2, 4051, Note_on_c, 9, 44, 28
2, 4072, Control_c, 9, 4, 95
2, 4076, Control_c, 9, 16, 21
2, 4077, Note_on_c, 9, 38, 54
2, 4119, Note_on_c, 9, 44, 0
2, 4144, Note_on_c, 9, 38, 0
2, 4186, Control_c, 9, 4, 89
2, 4199, Control_c, 9, 16, 0
2, 4199, Note_on_c, 9, 38, 26
2, 4227, Control_c, 9, 4, 72
2, 4264, Control_c, 9, 4, 27
2, 4267, Note_on_c, 9, 38, 0
2, 4304, Control_c, 9, 4, 45
2, 4314, Note_on_c, 9, 44, 35
2, 4319, Control_c, 9, 16, 0
2, 4319, Note_on_c, 9, 38, 38
2, 4327, Note_on_c, 9, 36, 52
2, 4335, Control_c, 9, 4, 95
2, 4382, Note_on_c, 9, 44, 0
2, 4387, Note_on_c, 9, 38, 0
2, 4395, Note_on_c, 9, 36, 0
2, 4431, Control_c, 9, 16, 0
2, 4432, Note_on_c, 9, 38, 26
2, 4435, Note_on_c, 9, 36, 41
2, 4450, Control_c, 9, 4, 82
2, 4486, Control_c, 9, 4, 0
2, 4500, Note_on_c, 9, 38, 0
2, 4503, Note_on_c, 9, 36, 0
2, 4550, Note_on_c, 9, 44, 80
2, 4555, Control_c, 9, 16, 0
2, 4555, Note_on_c, 9, 38, 51
2, 4567, Control_c, 9, 4, 75
2, 4601, Control_c, 9, 4, 0
2, 4618, Note_on_c, 9, 44, 0
2, 4623, Note_on_c, 9, 38, 0
2, 4673, Control_c, 9, 16, 0
2, 4674, Note_on_c, 9, 38, 29
2, 4741, Note_on_c, 9, 38, 0
2, 4779, Control_c, 9, 4, 32
2, 4791, Note_on_c, 9, 44, 54
2, 4800, Note_on_c, 9, 36, 57
2, 4801, Control_c, 9, 16, 0
2, 4801, Note_on_c, 9, 38, 38
2, 4812, Control_c, 9, 4, 89
2, 4850, Control_c, 9, 4, 95
2, 4859, Note_on_c, 9, 44, 0
2, 4868, Note_on_c, 9, 36, 0
2, 4868, Note_on_c, 9, 38, 0
2, 4901, Control_c, 9, 4, 89
2, 4918, Control_c, 9, 16, 0
2, 4918, Note_on_c, 9, 38, 25
2, 4950, Control_c, 9, 4, 67
2, 4986, Control_c, 9, 4, 15
2, 4986, Note_on_c, 9, 38, 0
2, 5020, Control_c, 9, 4, 44
2, 5031, Note_on_c, 9, 44, 41
2, 5046, Control_c, 9, 16, 0
2, 5046, Note_on_c, 9, 38, 54
2, 5052, Control_c, 9, 4, 98
2, 5099, Note_on_c, 9, 44, 0
2, 5114, Note_on_c, 9, 38, 0
2, 5139, Control_c, 9, 4, 92
2, 5162, Control_c, 9, 16, 0
2, 5162, Note_on_c, 9, 38, 34
2, 5177, Control_c, 9, 4, 80
2, 5220, Control_c, 9, 4, 46
2, 5230, Note_on_c, 9, 38, 0
2, 5256, Control_c, 9, 4, 49
2, 5270, Note_on_c, 9, 44, 28
2, 5283, Control_c, 9, 16, 0
2, 5283, Note_on_c, 9, 38, 38
2, 5291, Control_c, 9, 4, 98
2, 5294, Note_on_c, 9, 36, 47
2, 5338, Note_on_c, 9, 44, 0
2, 5351, Note_on_c, 9, 38, 0
2, 5362, Note_on_c, 9, 36, 0
2, 5392, Control_c, 9, 4, 87
2, 5402, Note_on_c, 9, 36, 42
2, 5409, Control_c, 9, 16, 0
2, 5409, Note_on_c, 9, 38, 29
2, 5425, Control_c, 9, 4, 68
2, 5466, Control_c, 9, 4, 17
2, 5471, Note_on_c, 9, 36, 0
2, 5477, Note_on_c, 9, 38, 0
2, 5500, Control_c, 9, 4, 46
2, 5510, Note_on_c, 9, 44, 41
2, 5531, Control_c, 9, 16, 0
2, 5532, Control_c, 9, 4, 98
2, 5532, Note_on_c, 9, 38, 54
2, 5578, Note_on_c, 9, 44, 0
2, 5600, Note_on_c, 9, 38, 0
2, 5627, Control_c, 9, 4, 92
2, 5652, Control_c, 9, 16, 0
2, 5652, Note_on_c, 9, 38, 40
2, 5667, Control_c, 9, 4, 80
2, 5707, Control_c, 9, 4, 49
2, 5720, Note_on_c, 9, 38, 0
2, 5747, Control_c, 9, 4, 55
2, 5758, Note_on_c, 9, 44, 28
2, 5768, Control_c, 9, 16, 0
2, 5768, Note_on_c, 9, 38, 40
2, 5770, Note_on_c, 9, 36, 57
2, 5779, Control_c, 9, 4, 97
2, 5826, Note_on_c, 9, 44, 0
2, 5836, Note_on_c, 9, 38, 0
2, 5838, Note_on_c, 9, 36, 0
2, 5883, Control_c, 9, 4, 88
2, 5885, Control_c, 9, 16, 0
2, 5885, Note_on_c, 9, 38, 28
2, 5927, Control_c, 9, 4, 53
2, 5954, Note_on_c, 9, 38, 0
2, 5957, Control_c, 9, 4, 18
2, 5988, Control_c, 9, 4, 45
2, 5997, Note_on_c, 9, 44, 41
2, 6010, Control_c, 9, 16, 0
2, 6010, Note_on_c, 9, 38, 56
2, 6019, Control_c, 9, 4, 96
2, 6066, Note_on_c, 9, 44, 0
2, 6078, Note_on_c, 9, 38, 0
2, 6114, Control_c, 9, 4, 90
2, 6140, Control_c, 9, 16, 0
2, 6140, Note_on_c, 9, 40, 18
2, 6153, Control_c, 9, 4, 78
2, 6187, Control_c, 9, 4, 41
2, 6208, Note_on_c, 9, 40, 0
2, 6220, Control_c, 9, 4, 44
2, 6235, Note_on_c, 9, 44, 35
2, 6252, Control_c, 9, 16, 0
2, 6252, Note_on_c, 9, 38, 40
2, 6256, Control_c, 9, 4, 96
2, 6263, Note_on_c, 9, 36, 43
2, 6303, Note_on_c, 9, 44, 0
2, 6320, Note_on_c, 9, 38, 0
2, 6331, Note_on_c, 9, 36, 0
2, 6361, Control_c, 9, 4, 87
2, 6370, Control_c, 9, 16, 0
2, 6370, Note_on_c, 9, 38, 26
2, 6375, Note_on_c, 9, 36, 42
2, 6401, Control_c, 9, 4, 72
2, 6433, Control_c, 9, 4, 45
2, 6439, Note_on_c, 9, 38, 0
2, 6444, Note_on_c, 9, 36, 0
2, 6469, Control_c, 9, 4, 59
2, 6479, Note_on_c, 9, 44, 28
2, 6497, Control_c, 9, 16, 21
2, 6497, Note_on_c, 9, 38, 53
2, 6501, Control_c, 9, 4, 95
2, 6548, Note_on_c, 9, 44, 0
2, 6565, Note_on_c, 9, 38, 0
2, 6604, Control_c, 9, 4, 89
2, 6622, Control_c, 9, 16, 0
2, 6622, Note_on_c, 9, 38, 40
2, 6634, Control_c, 9, 4, 82
2, 6674, Control_c, 9, 4, 54
2, 6690, Note_on_c, 9, 38, 0
2, 6716, Control_c, 9, 4, 59
2, 6726, Note_on_c, 9, 44, 22
2, 6743, Control_c, 9, 16, 0
2, 6743, Note_on_c, 9, 36, 64
2, 6743, Note_on_c, 9, 38, 41
2, 6747, Control_c, 9, 4, 95
2, 6794, Note_on_c, 9, 44, 0
2, 6811, Note_on_c, 9, 36, 0
2, 6811, Note_on_c, 9, 38, 0
2, 6841, Control_c, 9, 4, 89
2, 6862, Control_c, 9, 16, 0
2, 6862, Note_on_c, 9, 38, 27
2, 6886, Control_c, 9, 4, 75
2, 6923, Control_c, 9, 4, 29
2, 6930, Note_on_c, 9, 38, 0
2, 6959, Control_c, 9, 4, 45
2, 6970, Note_on_c, 9, 44, 41
2, 6977, Control_c, 9, 16, 0
2, 6977, Note_on_c, 9, 38, 59
2, 6991, Control_c, 9, 4, 95
2, 7038, Note_on_c, 9, 44, 0
2, 7045, Note_on_c, 9, 38, 0
2, 7079, Control_c, 9, 4, 89
2, 7104, Control_c, 9, 16, 0
2, 7105, Note_on_c, 9, 38, 28
2, 7117, Control_c, 9, 4, 74
2, 7149, Control_c, 9, 4, 42
2, 7173, Note_on_c, 9, 38, 0
2, 7186, Control_c, 9, 4, 43
2, 7202, Note_on_c, 9, 44, 35
2, 7217, Note_on_c, 9, 36, 52
2, 7218, Control_c, 9, 16, 85
2, 7218, Note_on_c, 9, 38, 41
2, 7223, Control_c, 9, 4, 95
2, 7270, Note_on_c, 9, 44, 0
2, 7285, Note_on_c, 9, 36, 0
2, 7285, Note_on_c, 9, 38, 0
2, 7309, Control_c, 9, 4, 89
2, 7328, Note_on_c, 9, 36, 48
2, 7333, Control_c, 9, 16, 0
2, 7334, Note_on_c, 9, 38, 27
2, 7359, Control_c, 9, 4, 77
2, 7397, Note_on_c, 9, 36, 0
2, 7400, Control_c, 9, 4, 46
2, 7402, Note_on_c, 9, 38, 0
2, 7435, Control_c, 9, 4, 59
2, 7444, Note_on_c, 9, 44, 28
2, 7457, Control_c, 9, 16, 21
2, 7457, Note_on_c, 9, 38, 51
2, 7466, Control_c, 9, 4, 95
2, 7512, Note_on_c, 9, 44, 0
2, 7525, Note_on_c, 9, 38, 0
2, 7560, Control_c, 9, 4, 89
2, 7588, Control_c, 9, 16, 0
2, 7589, Note_on_c, 9, 38, 37
2, 7610, Control_c, 9, 4, 75
2, 7642, Control_c, 9, 4, 45
2, 7657, Note_on_c, 9, 38, 0
2, 7675, Control_c, 9, 4, 47
2, 7676, End_track
0, 0, End_of_file
