0, 0, Header, 1, 2, 480
1, 0, Start_track
1, 0, Tempo, 500000
1, 0, Time_signature, 4, 2, 24, 8
1, 0, Key_signature, 0, "major"
1, 1, End_track
2, 0, Start_track
2, 0, Title_t, "Blue Ridge"
2, 0, Program_c, 9, 0
2, 447, Note_on_c, 9, 51, 127
2, 453, Note_on_c, 9, 38, 127
2, 544, Note_on_c, 9, 51, 0
2, 550, Note_on_c, 9, 38, 0
2, 756, Note_on_c, 9, 51, 60
2, 853, Note_on_c, 9, 51, 0
2, 916, Note_on_c, 9, 51, 92
2, 1013, Note_on_c, 9, 51, 0
2, 1245, Note_on_c, 9, 51, 47
2, 1341, Note_on_c, 9, 51, 0
2, 1388, Note_on_c, 9, 38, 92
2, 1397, Note_on_c, 9, 51, 92
2, 1485, Note_on_c, 9, 38, 0
2, 1495, Note_on_c, 9, 51, 0
2, 1723, Note_on_c, 9, 51, 51
2, 1819, Note_on_c, 9, 51, 0
2, 1867, Note_on_c, 9, 36, 52
2, 1882, Note_on_c, 9, 51, 83
2, 1964, Note_on_c, 9, 36, 0
2, 1979, Note_on_c, 9, 51, 0
2, 2204, Note_on_c, 9, 51, 43
2, 2300, Note_on_c, 9, 51, 0
2, 2344, Note_on_c, 9, 38, 93
2, 2347, Note_on_c, 9, 51, 96
2, 2441, Note_on_c, 9, 38, 0
2, 2444, Note_on_c, 9, 51, 0
2, 2668, Note_on_c, 9, 51, 48
2, 2765, Note_on_c, 9, 51, 0
2, 2814, Note_on_c, 9, 36, 55
2, 2836, Note_on_c, 9, 51, 100
2, 2911, Note_on_c, 9, 36, 0
2, 2933, Note_on_c, 9, 51, 0
2, 3160, Note_on_c, 9, 36, 61
2, 3256, Note_on_c, 9, 36, 0
2, 3306, Note_on_c, 9, 51, 105
2, 3310, Note_on_c, 9, 38, 99
2, 3402, Note_on_c, 9, 51, 0
2, 3406, Note_on_c, 9, 38, 0
2, 3642, Note_on_c, 9, 51, 51
2, 3738, Note_on_c, 9, 51, 0
2, 3805, Note_on_c, 9, 36, 55
2, 3812, Note_on_c, 9, 51, 92
2, 3902, Note_on_c, 9, 36, 0
2, 3909, Note_on_c, 9, 51, 0
2, 4148, Note_on_c, 9, 36, 75
2, 4245, Note_on_c, 9, 36, 0
2, 4294, Note_on_c, 9, 38, 100
2, 4294, Note_on_c, 9, 51, 109
2, 4390, Note_on_c, 9, 38, 0
2, 4390, Note_on_c, 9, 51, 0
2, 4623, Note_on_c, 9, 51, 63
2, 4720, Note_on_c, 9, 51, 0
2, 4770, Note_on_c, 9, 36, 61
2, 4785, Note_on_c, 9, 51, 114
2, 4867, Note_on_c, 9, 36, 0
2, 4883, Note_on_c, 9, 51, 0
2, 5101, Note_on_c, 9, 36, 57
2, 5198, Note_on_c, 9, 36, 0
2, 5261, Note_on_c, 9, 59, 89
2, 5274, Note_on_c, 9, 37, 88
2, 5358, Note_on_c, 9, 59, 0
2, 5370, Note_on_c, 9, 37, 0
2, 5430, Note_on_c, 9, 36, 67
2, 5527, Note_on_c, 9, 36, 0
2, 5601, Note_on_c, 9, 51, 84
2, 5698, Note_on_c, 9, 51, 0
2, 5751, Note_on_c, 9, 36, 75
2, 5770, Note_on_c, 9, 51, 106
2, 5847, Note_on_c, 9, 36, 0
2, 5867, Note_on_c, 9, 51, 0
2, 6094, Note_on_c, 9, 36, 66
2, 6191, Note_on_c, 9, 36, 0
2, 6233, Note_on_c, 9, 51, 105
2, 6235, Note_on_c, 9, 40, 120
2, 6329, Note_on_c, 9, 51, 0
2, 6332, Note_on_c, 9, 40, 0
2, 6559, Note_on_c, 9, 51, 61
2, 6656, Note_on_c, 9, 51, 0
2, 6700, Note_on_c, 9, 36, 58
2, 6726, Note_on_c, 9, 51, 111
2, 6797, Note_on_c, 9, 36, 0
2, 6823, Note_on_c, 9, 51, 0
2, 7045, Note_on_c, 9, 36, 61
2, 7142, Note_on_c, 9, 36, 0
2, 7198, Note_on_c, 9, 51, 114
2, 7204, Note_on_c, 9, 40, 108
2, 7295, Note_on_c, 9, 51, 0
2, 7301, Note_on_c, 9, 40, 0
2, 7371, Note_on_c, 9, 36, 66
2, 7468, Note_on_c, 9, 36, 0
2, 7541, Note_on_c, 9, 51, 65
2, 7638, Note_on_c, 9, 51, 0
2, 7639, End_track
0, 0, End_of_file
