0, 0, Header, 1, 2, 480
1, 0, Start_track
1, 0, Tempo, 599999
1, 0, Time_signature, 4, 2, 24, 8
1, 0, Key_signature, 0, "major"
1, 1, End_track
2, 0, Start_track
2, 0, Title_t, "Midi Drums"
2, 0, Program_c, 9, 0
2, 186, Note_on_c, 9, 51, 31
2, 266, Note_on_c, 9, 51, 0
2, 457, Note_on_c, 9, 53, 86
2, 464, Note_on_c, 9, 38, 127
2, 538, Note_on_c, 9, 53, 0
2, 544, Note_on_c, 9, 38, 0
2, 692, Note_on_c, 9, 51, 35
2, 772, Note_on_c, 9, 51, 0
2, 835, Note_on_c, 9, 38, 127
2, 916, Note_on_c, 9, 38, 0
2, 1079, Note_on_c, 9, 38, 127
2, 1159, Note_on_c, 9, 38, 0
2, 1176, Note_on_c, 9, 51, 88
2, 1257, Note_on_c, 9, 51, 0
2, 1305, Note_on_c, 9, 36, 127
2, 1386, Note_on_c, 9, 36, 0
2, 1419, Note_on_c, 9, 51, 95
2, 1426, Note_on_c, 9, 38, 127
2, 1500, Note_on_c, 9, 51, 0
2, 1507, Note_on_c, 9, 38, 0
2, 1656, Note_on_c, 9, 53, 39
2, 1737, Note_on_c, 9, 53, 0
2, 1882, Note_on_c, 9, 36, 127
2, 1889, Note_on_c, 9, 51, 116
2, 1963, Note_on_c, 9, 36, 0
2, 1970, Note_on_c, 9, 51, 0
2, 2163, Note_on_c, 9, 51, 37
2, 2243, Note_on_c, 9, 51, 0
2, 2387, Note_on_c, 9, 38, 127
2, 2387, Note_on_c, 9, 53, 109
2, 2468, Note_on_c, 9, 38, 0
2, 2468, Note_on_c, 9, 53, 0
2, 2630, Note_on_c, 9, 51, 62
2, 2711, Note_on_c, 9, 51, 0
2, 2768, Note_on_c, 9, 38, 127
2, 2849, Note_on_c, 9, 38, 0
2, 3004, Note_on_c, 9, 38, 127
2, 3085, Note_on_c, 9, 38, 0
2, 3106, Note_on_c, 9, 53, 76
2, 3187, Note_on_c, 9, 53, 0
2, 3241, Note_on_c, 9, 36, 127
2, 3321, Note_on_c, 9, 36, 0
2, 3354, Note_on_c, 9, 38, 127
2, 3354, Note_on_c, 9, 51, 127
2, 3435, Note_on_c, 9, 38, 0
2, 3435, Note_on_c, 9, 51, 0
2, 3588, Note_on_c, 9, 51, 77
2, 3669, Note_on_c, 9, 51, 0
2, 3807, Note_on_c, 9, 36, 120
2, 3834, Note_on_c, 9, 51, 82
2, 3888, Note_on_c, 9, 36, 0
2, 3914, Note_on_c, 9, 51, 0
2, 4078, Note_on_c, 9, 51, 36
2, 4158, Note_on_c, 9, 51, 0
2, 4313, Note_on_c, 9, 38, 127
2, 4314, Note_on_c, 9, 53, 121
2, 4394, Note_on_c, 9, 38, 0
2, 4395, Note_on_c, 9, 53, 0
2, 4547, Note_on_c, 9, 53, 54
2, 4627, Note_on_c, 9, 53, 0
2, 4689, Note_on_c, 9, 38, 127
2, 4770, Note_on_c, 9, 38, 0
2, 4916, Note_on_c, 9, 38, 127
2, 4997, Note_on_c, 9, 38, 0
2, 5021, Note_on_c, 9, 53, 98
2, 5102, Note_on_c, 9, 53, 0
2, 5152, Note_on_c, 9, 36, 124
2, 5233, Note_on_c, 9, 36, 0
2, 5274, Note_on_c, 9, 40, 127
2, 5278, Note_on_c, 9, 53, 107
2, 5354, Note_on_c, 9, 40, 0
2, 5359, Note_on_c, 9, 53, 0
2, 5511, Note_on_c, 9, 51, 74
2, 5591, Note_on_c, 9, 51, 0
2, 5743, Note_on_c, 9, 36, 127
2, 5757, Note_on_c, 9, 53, 102
2, 5824, Note_on_c, 9, 36, 0
2, 5838, Note_on_c, 9, 53, 0
2, 6009, Note_on_c, 9, 53, 33
2, 6090, Note_on_c, 9, 53, 0
2, 6248, Note_on_c, 9, 38, 127
2, 6249, Note_on_c, 9, 53, 123
2, 6329, Note_on_c, 9, 38, 0
2, 6329, Note_on_c, 9, 53, 0
2, 6478, Note_on_c, 9, 51, 67
2, 6558, Note_on_c, 9, 51, 0
2, 6608, Note_on_c, 9, 38, 127
2, 6689, Note_on_c, 9, 38, 0
2, 6840, Note_on_c, 9, 40, 127
2, 6920, Note_on_c, 9, 40, 0
2, 6948, Note_on_c, 9, 51, 127
2, 7029, Note_on_c, 9, 51, 0
2, 7181, Note_on_c, 9, 36, 127
2, 7191, Note_on_c, 9, 55, 93
2, 7262, Note_on_c, 9, 36, 0
2, 7272, Note_on_c, 9, 55, 0
2, 7328, Note_on_c, 9, 49, 14
2, 7409, Note_on_c, 9, 49, 0
2, 7410, End_track
0, 0, End_of_file
