0, 0, Header, 1, 2, 480
1, 0, Start_track
1, 0, Tempo, 545454
1, 0, Time_signature, 4, 2, 24, 8
1, 0, Key_signature, 0, "major"
1, 1, End_track
2, 0, Start_track
2, 0, Title_t, "TD-30 #9 Djembe"
2, 0, Program_c, 9, 0
2, 0, Control_c, 9, 17, 56
2, 31, Note_on_c, 9, 48, 39
2, 41, Control_c, 9, 4, 92
2, 76, Control_c, 9, 4, 86
2, 119, Note_on_c, 9, 48, 0
2, 120, Control_c, 9, 17, 24
2, 121, Note_on_c, 9, 51, 60
2, 128, Control_c, 9, 18, 0
2, 128, Note_on_c, 9, 48, 50
2, 191, Control_c, 9, 4, 92
2, 209, Note_on_c, 9, 51, 0
2, 216, Note_on_c, 9, 48, 0
2, 227, Control_c, 9, 17, 36
2, 227, Note_on_c, 9, 51, 78
2, 233, Control_c, 9, 4, 88
2, 315, Note_on_c, 9, 51, 0
2, 488, Note_on_c, 9, 36, 81
2, 495, Control_c, 9, 17, 100
2, 496, Note_on_c, 9, 51, 104
2, 499, Control_c, 9, 4, 92
2, 577, Note_on_c, 9, 36, 0
2, 584, Note_on_c, 9, 51, 0
2, 600, Control_c, 9, 4, 77
2, 634, Control_c, 9, 4, 55
2, 670, Control_c, 9, 4, 0
2, 717, Note_on_c, 9, 44, 80
2, 721, Control_c, 9, 17, 127
2, 721, Note_on_c, 9, 51, 67
2, 731, Control_c, 9, 4, 98
2, 771, Control_c, 9, 4, 96
2, 805, Note_on_c, 9, 44, 0
2, 810, Control_c, 9, 4, 84
2, 810, Note_on_c, 9, 51, 0
2, 843, Control_c, 9, 17, 105
2, 843, Note_on_c, 9, 51, 60
2, 845, Control_c, 9, 4, 80
2, 925, Control_c, 9, 4, 87
2, 931, Note_on_c, 9, 51, 0
2, 951, Control_c, 9, 17, 127
2, 952, Note_on_c, 9, 51, 62
2, 1039, Note_on_c, 9, 51, 0
2, 1220, Note_on_c, 9, 51, 106
2, 1222, Note_on_c, 9, 40, 64
2, 1235, Control_c, 9, 4, 92
2, 1309, Note_on_c, 9, 40, 0
2, 1309, Note_on_c, 9, 51, 0
2, 1338, Control_c, 9, 4, 79
2, 1376, Control_c, 9, 4, 56
2, 1416, Control_c, 9, 4, 0
2, 1456, Control_c, 9, 4, 66
2, 1458, Note_on_c, 9, 44, 80
2, 1464, Note_on_c, 9, 51, 57
2, 1486, Control_c, 9, 4, 108
2, 1533, Control_c, 9, 4, 91
2, 1546, Note_on_c, 9, 44, 0
2, 1551, Note_on_c, 9, 51, 0
2, 1567, Control_c, 9, 4, 84
2, 1610, Control_c, 9, 4, 80
2, 1672, Control_c, 9, 4, 94
2, 1699, Note_on_c, 9, 51, 75
2, 1787, Note_on_c, 9, 51, 0
2, 1806, Control_c, 9, 4, 82
2, 1845, Control_c, 9, 4, 62
2, 1876, Control_c, 9, 4, 0
2, 1929, Control_c, 9, 4, 32
2, 1937, Note_on_c, 9, 44, 100
2, 1948, Control_c, 9, 17, 127
2, 1948, Note_on_c, 9, 51, 88
2, 1961, Control_c, 9, 4, 99
2, 1971, Control_c, 9, 18, 21
2, 1972, Note_on_c, 9, 48, 37
2, 1992, Control_c, 9, 4, 92
2, 2023, Control_c, 9, 4, 85
2, 2025, Note_on_c, 9, 44, 0
2, 2035, Note_on_c, 9, 51, 0
2, 2059, Note_on_c, 9, 48, 0
2, 2066, Note_on_c, 9, 48, 52
2, 2096, Control_c, 9, 17, 45
2, 2096, Note_on_c, 9, 51, 57
2, 2134, Control_c, 9, 4, 90
2, 2153, Note_on_c, 9, 48, 0
2, 2184, Note_on_c, 9, 51, 0
2, 2195, Control_c, 9, 17, 61
2, 2196, Note_on_c, 9, 51, 77
2, 2283, Note_on_c, 9, 51, 0
2, 2304, Note_on_c, 9, 36, 46
2, 2392, Note_on_c, 9, 36, 0
2, 2417, Note_on_c, 9, 36, 78
2, 2442, Control_c, 9, 17, 127
2, 2442, Note_on_c, 9, 51, 96
2, 2505, Note_on_c, 9, 36, 0
2, 2523, Control_c, 9, 4, 83
2, 2530, Note_on_c, 9, 51, 0
2, 2563, Control_c, 9, 4, 64
2, 2567, Note_on_c, 9, 51, 7
2, 2604, Control_c, 9, 4, 0
2, 2650, Note_on_c, 9, 44, 80
2, 2655, Note_on_c, 9, 51, 0
2, 2663, Control_c, 9, 17, 127
2, 2664, Note_on_c, 9, 51, 58
2, 2665, Control_c, 9, 4, 102
2, 2703, Control_c, 9, 4, 96
2, 2738, Note_on_c, 9, 44, 0
2, 2746, Control_c, 9, 4, 84
2, 2752, Note_on_c, 9, 51, 0
2, 2776, Control_c, 9, 4, 79
2, 2796, Control_c, 9, 17, 69
2, 2797, Note_on_c, 9, 51, 56
2, 2854, Control_c, 9, 4, 88
2, 2884, Note_on_c, 9, 51, 0
2, 2895, Control_c, 9, 17, 64
2, 2896, Note_on_c, 9, 51, 63
2, 2915, Control_c, 9, 4, 84
2, 2983, Note_on_c, 9, 51, 0
2, 3152, Control_c, 9, 16, 0
2, 3152, Note_on_c, 9, 40, 58
2, 3153, Control_c, 9, 17, 127
2, 3153, Note_on_c, 9, 51, 104
2, 3159, Control_c, 9, 4, 90
2, 3240, Note_on_c, 9, 40, 0
2, 3241, Note_on_c, 9, 51, 0
2, 3278, Control_c, 9, 4, 75
2, 3310, Control_c, 9, 4, 55
2, 3349, Control_c, 9, 4, 0
2, 3381, Control_c, 9, 4, 64
2, 3383, Control_c, 9, 17, 0
2, 3383, Note_on_c, 9, 51, 56
2, 3385, Note_on_c, 9, 44, 80
2, 3412, Control_c, 9, 4, 110
2, 3445, Control_c, 9, 4, 99
2, 3471, Note_on_c, 9, 51, 0
2, 3472, Note_on_c, 9, 44, 0
2, 3491, Control_c, 9, 4, 85
2, 3521, Control_c, 9, 4, 81
2, 3582, Control_c, 9, 4, 89
2, 3613, Control_c, 9, 4, 95
2, 3627, Control_c, 9, 17, 127
2, 3628, Note_on_c, 9, 51, 90
2, 3705, Control_c, 9, 4, 90
2, 3716, Note_on_c, 9, 51, 0
2, 3759, Control_c, 9, 4, 69
2, 3795, Control_c, 9, 4, 0
2, 3854, Control_c, 9, 4, 32
2, 3859, Control_c, 9, 17, 100
2, 3860, Note_on_c, 9, 51, 84
2, 3862, Note_on_c, 9, 44, 106
2, 3885, Control_c, 9, 4, 102
2, 3893, Control_c, 9, 18, 21
2, 3893, Note_on_c, 9, 48, 40
2, 3916, Control_c, 9, 4, 96
2, 3947, Note_on_c, 9, 51, 0
2, 3950, Note_on_c, 9, 44, 0
2, 3959, Control_c, 9, 4, 84
2, 3975, Control_c, 9, 17, 32
2, 3976, Note_on_c, 9, 51, 60
2, 3981, Note_on_c, 9, 48, 0
2, 3983, Control_c, 9, 18, 0
2, 3984, Note_on_c, 9, 48, 50
2, 4058, Control_c, 9, 4, 89
2, 4064, Note_on_c, 9, 51, 0
2, 4071, Note_on_c, 9, 48, 0
2, 4080, Control_c, 9, 17, 39
2, 4081, Note_on_c, 9, 51, 81
2, 4169, Note_on_c, 9, 51, 0
2, 4222, Note_on_c, 9, 36, 39
2, 4310, Note_on_c, 9, 36, 0
2, 4328, Note_on_c, 9, 36, 77
2, 4337, Control_c, 9, 17, 95
2, 4338, Note_on_c, 9, 51, 97
2, 4416, Note_on_c, 9, 36, 0
2, 4425, Control_c, 9, 4, 83
2, 4425, Note_on_c, 9, 51, 0
2, 4468, Control_c, 9, 4, 60
2, 4507, Control_c, 9, 4, 0
2, 4539, Control_c, 9, 4, 16
2, 4554, Note_on_c, 9, 44, 80
2, 4555, Control_c, 9, 17, 127
2, 4556, Note_on_c, 9, 51, 59
2, 4569, Control_c, 9, 4, 98
2, 4608, Control_c, 9, 4, 96
2, 4643, Note_on_c, 9, 44, 0
2, 4644, Note_on_c, 9, 51, 0
2, 4653, Control_c, 9, 4, 84
2, 4684, Control_c, 9, 17, 90
2, 4684, Note_on_c, 9, 51, 58
2, 4695, Control_c, 9, 4, 80
2, 4755, Control_c, 9, 4, 85
2, 4772, Note_on_c, 9, 51, 0
2, 4792, Control_c, 9, 17, 96
2, 4793, Note_on_c, 9, 51, 69
2, 4880, Note_on_c, 9, 51, 0
2, 5074, Control_c, 9, 17, 127
2, 5074, Note_on_c, 9, 51, 98
2, 5076, Control_c, 9, 16, 127
2, 5077, Note_on_c, 9, 38, 59
2, 5081, Control_c, 9, 4, 90
2, 5162, Note_on_c, 9, 38, 0
2, 5162, Note_on_c, 9, 51, 0
2, 5196, Control_c, 9, 4, 74
2, 5226, Control_c, 9, 4, 55
2, 5258, Control_c, 9, 4, 10
2, 5299, Control_c, 9, 4, 66
2, 5302, Note_on_c, 9, 44, 74
2, 5308, Note_on_c, 9, 51, 65
2, 5329, Control_c, 9, 4, 108
2, 5376, Control_c, 9, 4, 91
2, 5389, Note_on_c, 9, 44, 0
2, 5395, Note_on_c, 9, 51, 0
2, 5408, Control_c, 9, 4, 85
2, 5440, Control_c, 9, 4, 81
2, 5502, Control_c, 9, 4, 90
2, 5549, Control_c, 9, 17, 127
2, 5550, Note_on_c, 9, 51, 89
2, 5637, Note_on_c, 9, 51, 0
2, 5656, Control_c, 9, 4, 83
2, 5702, Control_c, 9, 4, 55
2, 5732, Control_c, 9, 4, 0
2, 5788, Note_on_c, 9, 44, 93
2, 5793, Control_c, 9, 17, 120
2, 5793, Note_on_c, 9, 51, 91
2, 5801, Control_c, 9, 4, 102
2, 5818, Note_on_c, 9, 48, 40
2, 5841, Control_c, 9, 4, 91
2, 5873, Control_c, 9, 4, 83
2, 5876, Note_on_c, 9, 44, 0
2, 5881, Note_on_c, 9, 51, 0
2, 5905, Note_on_c, 9, 48, 0
2, 5912, Note_on_c, 9, 48, 54
2, 5922, Control_c, 9, 17, 55
2, 5923, Note_on_c, 9, 51, 54
2, 5981, Control_c, 9, 4, 88
2, 5999, Note_on_c, 9, 48, 0
2, 6010, Note_on_c, 9, 51, 0
2, 6025, Control_c, 9, 17, 96
2, 6025, Note_on_c, 9, 51, 74
2, 6113, Note_on_c, 9, 51, 0
2, 6171, Note_on_c, 9, 36, 47
2, 6259, Note_on_c, 9, 36, 0
2, 6272, Note_on_c, 9, 36, 78
2, 6289, Control_c, 9, 17, 97
2, 6289, Note_on_c, 9, 51, 108
2, 6360, Note_on_c, 9, 36, 0
2, 6377, Note_on_c, 9, 51, 0
2, 6388, Control_c, 9, 4, 74
2, 6421, Control_c, 9, 4, 55
2, 6451, Control_c, 9, 4, 0
2, 6505, Control_c, 9, 4, 67
2, 6508, Note_on_c, 9, 44, 93
2, 6517, Control_c, 9, 17, 0
2, 6517, Note_on_c, 9, 51, 71
2, 6535, Control_c, 9, 4, 100
2, 6591, Control_c, 9, 4, 85
2, 6596, Note_on_c, 9, 44, 0
2, 6605, Note_on_c, 9, 51, 0
2, 6627, Control_c, 9, 4, 80
2, 6631, Control_c, 9, 17, 54
2, 6631, Note_on_c, 9, 51, 65
2, 6703, Control_c, 9, 4, 85
2, 6719, Note_on_c, 9, 51, 0
2, 6747, Control_c, 9, 17, 127
2, 6747, Note_on_c, 9, 51, 78
2, 6836, Note_on_c, 9, 51, 0
2, 7001, Control_c, 9, 16, 0
2, 7002, Note_on_c, 9, 40, 57
2, 7004, Note_on_c, 9, 51, 98
2, 7006, Control_c, 9, 4, 90
2, 7090, Note_on_c, 9, 40, 0
2, 7093, Note_on_c, 9, 51, 0
2, 7114, Control_c, 9, 4, 77
2, 7148, Control_c, 9, 4, 55
2, 7178, Control_c, 9, 4, 0
2, 7230, Control_c, 9, 4, 65
2, 7233, Note_on_c, 9, 44, 93
2, 7242, Note_on_c, 9, 51, 65
2, 7260, Control_c, 9, 4, 102
2, 7306, Control_c, 9, 4, 91
2, 7321, Note_on_c, 9, 44, 0
2, 7329, Note_on_c, 9, 51, 0
2, 7336, Control_c, 9, 4, 85
2, 7367, Control_c, 9, 4, 80
2, 7368, Note_on_c, 9, 51, 6
2, 7435, Control_c, 9, 4, 90
2, 7456, Note_on_c, 9, 51, 0
2, 7481, Control_c, 9, 17, 127
2, 7481, Note_on_c, 9, 51, 92
2, 7568, Note_on_c, 9, 51, 0
2, 7578, Control_c, 9, 4, 83
2, 7611, Control_c, 9, 4, 69
2, 7654, Control_c, 9, 4, 0
2, 7655, End_track
0, 0, End_of_file
