0, 0, Header, 1, 2, 480
1, 0, Start_track
1, 0, Tempo, 638297
1, 0, Time_signature, 4, 2, 24, 8
1, 0, Key_signature, 0, "major"
1, 1, End_track
2, 0, Start_track
2, 0, Title_t, "Midi Drums"
2, 0, Program_c, 9, 0
2, 209, Note_on_c, 9, 36, 127
2, 285, Note_on_c, 9, 36, 0
2, 457, Note_on_c, 9, 40, 127
2, 473, Note_on_c, 9, 40, 0
2, 473, Note_on_c, 9, 40, 127
2, 533, Note_on_c, 9, 40, 0
2, 945, Note_on_c, 9, 36, 127
2, 1021, Note_on_c, 9, 36, 0
2, 1175, Note_on_c, 9, 36, 126
2, 1251, Note_on_c, 9, 36, 0
2, 1431, Note_on_c, 9, 40, 127
2, 1446, Note_on_c, 9, 40, 0
2, 1446, Note_on_c, 9, 40, 127
2, 1507, Note_on_c, 9, 40, 0
2, 1913, Note_on_c, 9, 36, 127
2, 1989, Note_on_c, 9, 36, 0
2, 2144, Note_on_c, 9, 36, 127
2, 2220, Note_on_c, 9, 36, 0
2, 2403, Note_on_c, 9, 40, 127
2, 2418, Note_on_c, 9, 40, 0
2, 2418, Note_on_c, 9, 40, 127
2, 2478, Note_on_c, 9, 40, 0
2, 2870, Note_on_c, 9, 36, 127
2, 2946, Note_on_c, 9, 36, 0
2, 3111, Note_on_c, 9, 36, 127
2, 3187, Note_on_c, 9, 36, 0
2, 3351, Note_on_c, 9, 40, 127
2, 3368, Note_on_c, 9, 40, 0
2, 3368, Note_on_c, 9, 40, 127
2, 3426, Note_on_c, 9, 40, 0
2, 3605, Note_on_c, 9, 40, 127
2, 3681, Note_on_c, 9, 40, 0
2, 3731, Note_on_c, 9, 40, 127
2, 3807, Note_on_c, 9, 40, 0
2, 3819, Note_on_c, 9, 36, 127
2, 3895, Note_on_c, 9, 36, 0
2, 4055, Note_on_c, 9, 36, 127
2, 4131, Note_on_c, 9, 36, 0
2, 4298, Note_on_c, 9, 40, 127
2, 4325, Note_on_c, 9, 40, 0
2, 4325, Note_on_c, 9, 40, 127
2, 4375, Note_on_c, 9, 40, 0
2, 4784, Note_on_c, 9, 36, 127
2, 4860, Note_on_c, 9, 36, 0
2, 5027, Note_on_c, 9, 36, 115
2, 5103, Note_on_c, 9, 36, 0
2, 5275, Note_on_c, 9, 40, 127
2, 5295, Note_on_c, 9, 40, 0
2, 5295, Note_on_c, 9, 40, 127
2, 5351, Note_on_c, 9, 40, 0
2, 5755, Note_on_c, 9, 36, 127
2, 5830, Note_on_c, 9, 36, 0
2, 5993, Note_on_c, 9, 36, 127
2, 6069, Note_on_c, 9, 36, 0
2, 6241, Note_on_c, 9, 40, 127
2, 6257, Note_on_c, 9, 40, 0
2, 6257, Note_on_c, 9, 40, 127
2, 6317, Note_on_c, 9, 40, 0
2, 6710, Note_on_c, 9, 36, 125
2, 6785, Note_on_c, 9, 36, 0
2, 6844, Note_on_c, 9, 40, 127
2, 6920, Note_on_c, 9, 40, 0
2, 6960, Note_on_c, 9, 40, 127
2, 7035, Note_on_c, 9, 40, 0
2, 7195, Note_on_c, 9, 40, 127
2, 7271, Note_on_c, 9, 40, 0
2, 7441, Note_on_c, 9, 40, 127
2, 7516, Note_on_c, 9, 40, 0
2, 7561, Note_on_c, 9, 38, 108
2, 7637, Note_on_c, 9, 38, 0
2, 7638, End_track
0, 0, End_of_file
