0, 0, Header, 1, 2, 480
1, 0, Start_track
1, 0, Tempo, 600000
1, 0, Time_signature, 4, 2, 24, 8
1, 0, Key_signature, 0, "major"
1, 1, End_track
2, 0, Start_track
2, 0, Title_t, "Blue Ridge"
2, 0, Program_c, 9, 0
2, 7, Note_on_c, 9, 36, 50
2, 20, Note_on_c, 9, 51, 62
2, 22, Note_on_c, 9, 51, 0
2, 87, Note_on_c, 9, 36, 0
2, 239, Note_on_c, 9, 51, 55
2, 251, Note_on_c, 9, 36, 50
2, 320, Note_on_c, 9, 51, 0
2, 331, Note_on_c, 9, 36, 0
2, 408, Control_c, 9, 4, 48
2, 448, Control_c, 9, 4, 23
2, 484, Note_on_c, 9, 38, 100
2, 488, Control_c, 9, 4, 51
2, 488, Note_on_c, 9, 51, 86
2, 495, Note_on_c, 9, 44, 30
2, 520, Control_c, 9, 4, 90
2, 565, Note_on_c, 9, 38, 0
2, 569, Note_on_c, 9, 51, 0
2, 575, Note_on_c, 9, 44, 0
2, 637, Control_c, 9, 4, 45
2, 676, Control_c, 9, 4, 19
2, 719, Control_c, 9, 4, 46
2, 728, Note_on_c, 9, 44, 30
2, 743, Note_on_c, 9, 51, 62
2, 753, Control_c, 9, 4, 90
2, 808, Note_on_c, 9, 44, 0
2, 824, Note_on_c, 9, 51, 0
2, 868, Note_on_c, 9, 38, 31
2, 921, Note_on_c, 9, 38, 0
2, 921, Note_on_c, 9, 38, 35
2, 949, Note_on_c, 9, 38, 0
2, 973, Note_on_c, 9, 36, 55
2, 977, Note_on_c, 9, 38, 21
2, 987, Note_on_c, 9, 51, 77
2, 1002, Note_on_c, 9, 38, 0
2, 1054, Note_on_c, 9, 36, 0
2, 1068, Note_on_c, 9, 51, 0
2, 1145, Control_c, 9, 4, 80
2, 1190, Control_c, 9, 4, 59
2, 1206, Note_on_c, 9, 51, 62
2, 1221, Note_on_c, 9, 36, 56
2, 1240, Control_c, 9, 4, 90
2, 1286, Note_on_c, 9, 51, 0
2, 1302, Note_on_c, 9, 36, 0
2, 1362, Control_c, 9, 4, 78
2, 1403, Control_c, 9, 4, 55
2, 1445, Note_on_c, 9, 51, 77
2, 1446, Note_on_c, 9, 38, 93
2, 1468, Control_c, 9, 4, 90
2, 1526, Note_on_c, 9, 38, 0
2, 1526, Note_on_c, 9, 51, 0
2, 1681, Note_on_c, 9, 36, 55
2, 1684, Note_on_c, 9, 51, 59
2, 1762, Note_on_c, 9, 36, 0
2, 1764, Note_on_c, 9, 51, 0
2, 1849, Control_c, 9, 4, 55
2, 1881, Control_c, 9, 4, 12
2, 1921, Control_c, 9, 4, 37
2, 1926, Note_on_c, 9, 44, 67
2, 1927, Note_on_c, 9, 51, 64
2, 1951, Control_c, 9, 4, 90
2, 2006, Note_on_c, 9, 44, 0
2, 2006, Note_on_c, 9, 51, 0
2, 2158, Note_on_c, 9, 36, 57
2, 2162, Note_on_c, 9, 51, 65
2, 2238, Note_on_c, 9, 36, 0
2, 2242, Note_on_c, 9, 51, 0
2, 2322, Control_c, 9, 4, 31
2, 2361, Control_c, 9, 4, 0
2, 2392, Note_on_c, 9, 38, 99
2, 2401, Control_c, 9, 4, 31
2, 2402, Note_on_c, 9, 51, 77
2, 2407, Note_on_c, 9, 44, 67
2, 2432, Control_c, 9, 4, 90
2, 2473, Note_on_c, 9, 38, 0
2, 2482, Note_on_c, 9, 51, 0
2, 2488, Note_on_c, 9, 44, 0
2, 2559, Control_c, 9, 4, 72
2, 2620, Control_c, 9, 4, 90
2, 2623, Note_on_c, 9, 51, 62
2, 2626, Note_on_c, 9, 36, 54
2, 2704, Note_on_c, 9, 51, 0
2, 2707, Note_on_c, 9, 36, 0
2, 2848, Control_c, 9, 4, 56
2, 2876, Note_on_c, 9, 51, 79
2, 2880, Note_on_c, 9, 36, 63
2, 2900, Control_c, 9, 4, 90
2, 2956, Note_on_c, 9, 51, 0
2, 2961, Note_on_c, 9, 36, 0
2, 3022, Control_c, 9, 4, 82
2, 3081, Control_c, 9, 4, 90
2, 3113, Note_on_c, 9, 51, 61
2, 3194, Note_on_c, 9, 51, 0
2, 3348, Note_on_c, 9, 38, 101
2, 3352, Note_on_c, 9, 51, 79
2, 3428, Note_on_c, 9, 38, 0
2, 3434, Note_on_c, 9, 51, 0
2, 3588, Note_on_c, 9, 36, 57
2, 3598, Note_on_c, 9, 51, 67
2, 3668, Note_on_c, 9, 36, 0
2, 3679, Note_on_c, 9, 51, 0
2, 3835, Note_on_c, 9, 36, 60
2, 3841, Note_on_c, 9, 51, 74
2, 3916, Note_on_c, 9, 36, 0
2, 3922, Note_on_c, 9, 51, 0
2, 4073, Note_on_c, 9, 51, 65
2, 4154, Note_on_c, 9, 51, 0
2, 4160, Note_on_c, 9, 36, 46
2, 4205, Control_c, 9, 4, 82
2, 4241, Note_on_c, 9, 36, 0
2, 4245, Control_c, 9, 4, 90
2, 4300, Note_on_c, 9, 38, 110
2, 4307, Note_on_c, 9, 51, 84
2, 4381, Note_on_c, 9, 38, 0
2, 4387, Note_on_c, 9, 51, 0
2, 4533, Note_on_c, 9, 36, 55
2, 4543, Note_on_c, 9, 51, 65
2, 4614, Note_on_c, 9, 36, 0
2, 4623, Note_on_c, 9, 51, 0
2, 4778, Note_on_c, 9, 36, 66
2, 4794, Note_on_c, 9, 51, 83
2, 4858, Note_on_c, 9, 36, 0
2, 4874, Note_on_c, 9, 51, 0
2, 5021, Note_on_c, 9, 51, 76
2, 5045, Control_c, 9, 4, 58
2, 5076, Control_c, 9, 4, 0
2, 5102, Note_on_c, 9, 51, 0
2, 5240, Control_c, 9, 4, 16
2, 5247, Note_on_c, 9, 44, 90
2, 5267, Note_on_c, 9, 51, 93
2, 5271, Note_on_c, 9, 38, 97
2, 5272, Control_c, 9, 4, 90
2, 5327, Note_on_c, 9, 44, 0
2, 5347, Note_on_c, 9, 51, 0
2, 5351, Note_on_c, 9, 38, 0
2, 5499, Note_on_c, 9, 36, 58
2, 5506, Note_on_c, 9, 51, 72
2, 5580, Note_on_c, 9, 36, 0
2, 5587, Note_on_c, 9, 51, 0
2, 5746, Note_on_c, 9, 36, 67
2, 5753, Note_on_c, 9, 51, 84
2, 5827, Note_on_c, 9, 36, 0
2, 5834, Note_on_c, 9, 51, 0
2, 5985, Note_on_c, 9, 51, 67
2, 6066, Note_on_c, 9, 51, 0
2, 6113, Note_on_c, 9, 36, 55
2, 6194, Note_on_c, 9, 36, 0
2, 6220, Note_on_c, 9, 38, 101
2, 6225, Note_on_c, 9, 51, 85
2, 6301, Note_on_c, 9, 38, 0
2, 6306, Note_on_c, 9, 51, 0
2, 6463, Note_on_c, 9, 36, 52
2, 6469, Note_on_c, 9, 51, 67
2, 6544, Note_on_c, 9, 36, 0
2, 6550, Note_on_c, 9, 51, 0
2, 6707, Note_on_c, 9, 36, 62
2, 6722, Note_on_c, 9, 51, 82
2, 6788, Note_on_c, 9, 36, 0
2, 6802, Note_on_c, 9, 51, 0
2, 6953, Note_on_c, 9, 36, 64
2, 6961, Note_on_c, 9, 51, 74
2, 7034, Note_on_c, 9, 36, 0
2, 7042, Note_on_c, 9, 51, 0
2, 7186, Note_on_c, 9, 38, 103
2, 7195, Note_on_c, 9, 51, 91
2, 7266, Note_on_c, 9, 38, 0
2, 7276, Note_on_c, 9, 51, 0
2, 7417, Note_on_c, 9, 36, 57
2, 7430, Note_on_c, 9, 51, 68
2, 7498, Note_on_c, 9, 36, 0
2, 7510, Note_on_c, 9, 51, 0
2, 7511, End_track
0, 0, End_of_file
