0, 0, Header, 1, 2, 480
1, 0, Start_track
1, 0, Tempo, 588235
1, 0, Time_signature, 4, 2, 24, 8
1, 0, Key_signature, 0, "major"
1, 1, End_track
2, 0, Start_track
2, 0, Title_t, "Classic Studio Kit"
2, 0, Program_c, 9, 0
2, 0, Control_c, 9, 18, 0
2, 3, Control_c, 9, 4, 96
2, 30, Note_on_c, 9, 51, 65
2, 35, Note_on_c, 9, 48, 67
2, 112, Note_on_c, 9, 51, 0
2, 115, Note_on_c, 9, 48, 0
2, 149, Control_c, 9, 4, 84
2, 151, Control_c, 9, 17, 127
2, 151, Note_on_c, 9, 51, 65
2, 185, Control_c, 9, 4, 70
2, 220, Control_c, 9, 4, 22
2, 233, Note_on_c, 9, 51, 0
2, 255, Control_c, 9, 4, 49
2, 263, Note_on_c, 9, 44, 67
2, 264, Note_on_c, 9, 46, 56
2, 267, Note_on_c, 9, 36, 39
2, 288, Control_c, 9, 4, 112
2, 322, Control_c, 9, 4, 98
2, 344, Note_on_c, 9, 44, 0
2, 345, Note_on_c, 9, 46, 0
2, 348, Note_on_c, 9, 36, 0
2, 362, Control_c, 9, 4, 84
2, 463, Control_c, 9, 4, 89
2, 493, Control_c, 9, 4, 94
2, 495, Control_c, 9, 17, 43
2, 495, Note_on_c, 9, 51, 91
2, 508, Note_on_c, 9, 38, 54
2, 510, Note_on_c, 9, 36, 46
2, 577, Note_on_c, 9, 51, 0
2, 589, Note_on_c, 9, 38, 0
2, 592, Note_on_c, 9, 36, 0
2, 619, Control_c, 9, 4, 83
2, 657, Control_c, 9, 4, 70
2, 703, Control_c, 9, 4, 0
2, 740, Control_c, 9, 4, 50
2, 746, Note_on_c, 9, 44, 87
2, 753, Control_c, 9, 17, 127
2, 754, Note_on_c, 9, 51, 68
2, 771, Control_c, 9, 4, 114
2, 815, Control_c, 9, 4, 93
2, 828, Note_on_c, 9, 44, 0
2, 836, Note_on_c, 9, 51, 0
2, 856, Control_c, 9, 4, 84
2, 881, Control_c, 9, 18, 0
2, 881, Note_on_c, 9, 48, 46
2, 882, Note_on_c, 9, 36, 34
2, 963, Note_on_c, 9, 48, 0
2, 964, Note_on_c, 9, 36, 0
2, 972, Control_c, 9, 4, 96
2, 996, Note_on_c, 9, 51, 55
2, 1009, Note_on_c, 9, 48, 63
2, 1078, Note_on_c, 9, 51, 0
2, 1091, Note_on_c, 9, 48, 0
2, 1116, Control_c, 9, 4, 84
2, 1119, Control_c, 9, 17, 127
2, 1120, Note_on_c, 9, 51, 70
2, 1151, Control_c, 9, 4, 70
2, 1191, Control_c, 9, 4, 8
2, 1201, Note_on_c, 9, 51, 0
2, 1228, Control_c, 9, 4, 49
2, 1233, Note_on_c, 9, 44, 87
2, 1235, Note_on_c, 9, 36, 39
2, 1258, Control_c, 9, 4, 114
2, 1293, Control_c, 9, 4, 100
2, 1316, Note_on_c, 9, 36, 0
2, 1316, Note_on_c, 9, 44, 0
2, 1330, Control_c, 9, 4, 86
2, 1355, Control_c, 9, 17, 44
2, 1355, Note_on_c, 9, 51, 86
2, 1437, Note_on_c, 9, 51, 0
2, 1445, Control_c, 9, 4, 91
2, 1479, Control_c, 9, 16, 0
2, 1479, Note_on_c, 9, 38, 63
2, 1485, Note_on_c, 9, 36, 54
2, 1561, Note_on_c, 9, 38, 0
2, 1567, Note_on_c, 9, 36, 0
2, 1589, Control_c, 9, 4, 84
2, 1626, Control_c, 9, 4, 70
2, 1666, Control_c, 9, 4, 22
2, 1701, Control_c, 9, 4, 48
2, 1704, Control_c, 9, 17, 127
2, 1705, Note_on_c, 9, 51, 77
2, 1708, Note_on_c, 9, 44, 67
2, 1733, Control_c, 9, 4, 116
2, 1775, Control_c, 9, 4, 95
2, 1786, Note_on_c, 9, 51, 0
2, 1789, Note_on_c, 9, 44, 0
2, 1808, Control_c, 9, 4, 84
2, 1826, Control_c, 9, 18, 0
2, 1826, Note_on_c, 9, 48, 48
2, 1830, Note_on_c, 9, 36, 38
2, 1908, Note_on_c, 9, 48, 0
2, 1912, Note_on_c, 9, 36, 0
2, 1932, Control_c, 9, 4, 98
2, 1950, Control_c, 9, 17, 100
2, 1951, Note_on_c, 9, 51, 73
2, 1954, Note_on_c, 9, 48, 63
2, 2023, Control_c, 9, 4, 92
2, 2033, Note_on_c, 9, 51, 0
2, 2035, Note_on_c, 9, 48, 0
2, 2078, Control_c, 9, 4, 82
2, 2082, Control_c, 9, 17, 127
2, 2083, Note_on_c, 9, 51, 54
2, 2109, Control_c, 9, 4, 69
2, 2140, Control_c, 9, 4, 25
2, 2164, Note_on_c, 9, 51, 0
2, 2176, Control_c, 9, 4, 48
2, 2184, Note_on_c, 9, 44, 67
2, 2185, Note_on_c, 9, 46, 54
2, 2194, Note_on_c, 9, 36, 44
2, 2209, Control_c, 9, 4, 112
2, 2242, Control_c, 9, 4, 98
2, 2265, Note_on_c, 9, 44, 0
2, 2266, Note_on_c, 9, 46, 0
2, 2276, Note_on_c, 9, 36, 0
2, 2283, Control_c, 9, 4, 84
2, 2384, Control_c, 9, 4, 89
2, 2445, Control_c, 9, 17, 80
2, 2446, Note_on_c, 9, 38, 61
2, 2446, Note_on_c, 9, 51, 88
2, 2453, Note_on_c, 9, 36, 54
2, 2526, Note_on_c, 9, 51, 0
2, 2527, Note_on_c, 9, 38, 0
2, 2535, Note_on_c, 9, 36, 0
2, 2545, Control_c, 9, 4, 83
2, 2578, Control_c, 9, 4, 70
2, 2620, Control_c, 9, 4, 0
2, 2661, Control_c, 9, 4, 49
2, 2667, Note_on_c, 9, 44, 93
2, 2677, Control_c, 9, 17, 127
2, 2678, Note_on_c, 9, 51, 64
2, 2692, Control_c, 9, 4, 114
2, 2727, Control_c, 9, 4, 100
2, 2748, Note_on_c, 9, 44, 0
2, 2759, Note_on_c, 9, 51, 0
2, 2762, Control_c, 9, 4, 87
2, 2795, Control_c, 9, 18, 0
2, 2796, Note_on_c, 9, 48, 48
2, 2809, Note_on_c, 9, 36, 35
2, 2877, Note_on_c, 9, 48, 0
2, 2884, Control_c, 9, 4, 93
2, 2891, Note_on_c, 9, 36, 0
2, 2921, Control_c, 9, 4, 97
2, 2929, Control_c, 9, 17, 0
2, 2929, Note_on_c, 9, 51, 50
2, 2931, Note_on_c, 9, 48, 63
2, 2991, Control_c, 9, 4, 92
2, 3011, Note_on_c, 9, 48, 0
2, 3011, Note_on_c, 9, 51, 0
2, 3023, Control_c, 9, 4, 85
2, 3052, Control_c, 9, 17, 127
2, 3053, Note_on_c, 9, 51, 68
2, 3063, Control_c, 9, 4, 70
2, 3111, Control_c, 9, 4, 10
2, 3134, Note_on_c, 9, 51, 0
2, 3144, Control_c, 9, 4, 55
2, 3149, Note_on_c, 9, 44, 80
2, 3154, Note_on_c, 9, 36, 43
2, 3165, Control_c, 9, 17, 127
2, 3166, Note_on_c, 9, 51, 6
2, 3175, Control_c, 9, 4, 110
2, 3211, Control_c, 9, 4, 98
2, 3231, Note_on_c, 9, 44, 0
2, 3236, Note_on_c, 9, 36, 0
2, 3248, Note_on_c, 9, 51, 0
2, 3252, Control_c, 9, 4, 86
2, 3288, Control_c, 9, 17, 88
2, 3289, Note_on_c, 9, 51, 80
2, 3360, Control_c, 9, 4, 91
2, 3370, Note_on_c, 9, 51, 0
2, 3407, Note_on_c, 9, 36, 48
2, 3409, Control_c, 9, 16, 0
2, 3410, Note_on_c, 9, 38, 59
2, 3489, Note_on_c, 9, 36, 0
2, 3490, Note_on_c, 9, 38, 0
2, 3520, Control_c, 9, 4, 78
2, 3555, Control_c, 9, 4, 54
2, 3588, Control_c, 9, 4, 0
2, 3621, Control_c, 9, 4, 49
2, 3626, Note_on_c, 9, 44, 87
2, 3639, Control_c, 9, 17, 127
2, 3640, Note_on_c, 9, 51, 79
2, 3652, Control_c, 9, 4, 112
2, 3688, Control_c, 9, 4, 98
2, 3709, Note_on_c, 9, 44, 0
2, 3722, Note_on_c, 9, 51, 0
2, 3726, Control_c, 9, 4, 84
2, 3760, Control_c, 9, 18, 0
2, 3760, Note_on_c, 9, 48, 49
2, 3765, Note_on_c, 9, 36, 34
2, 3843, Note_on_c, 9, 48, 0
2, 3847, Note_on_c, 9, 36, 0
2, 3857, Control_c, 9, 4, 95
2, 3891, Note_on_c, 9, 48, 62
2, 3897, Note_on_c, 9, 51, 77
2, 3972, Note_on_c, 9, 48, 0
2, 3977, Note_on_c, 9, 51, 0
2, 3990, Control_c, 9, 4, 83
2, 4016, Control_c, 9, 17, 127
2, 4017, Note_on_c, 9, 51, 54
2, 4024, Control_c, 9, 4, 70
2, 4060, Control_c, 9, 4, 22
2, 4098, Control_c, 9, 4, 44
2, 4098, Note_on_c, 9, 51, 0
2, 4107, Note_on_c, 9, 44, 67
2, 4118, Note_on_c, 9, 36, 34
2, 4130, Control_c, 9, 17, 127
2, 4131, Control_c, 9, 4, 110
2, 4131, Note_on_c, 9, 51, 5
2, 4167, Control_c, 9, 4, 98
2, 4189, Note_on_c, 9, 44, 0
2, 4199, Note_on_c, 9, 36, 0
2, 4211, Control_c, 9, 4, 86
2, 4212, Note_on_c, 9, 51, 0
2, 4321, Control_c, 9, 4, 91
2, 4352, Control_c, 9, 17, 83
2, 4353, Note_on_c, 9, 51, 84
2, 4361, Note_on_c, 9, 38, 69
2, 4368, Note_on_c, 9, 36, 51
2, 4434, Note_on_c, 9, 51, 0
2, 4442, Note_on_c, 9, 38, 0
2, 4450, Note_on_c, 9, 36, 0
2, 4455, Control_c, 9, 4, 83
2, 4495, Control_c, 9, 4, 70
2, 4538, Control_c, 9, 4, 0
2, 4580, Control_c, 9, 4, 49
2, 4585, Note_on_c, 9, 44, 93
2, 4603, Control_c, 9, 17, 127
2, 4603, Note_on_c, 9, 51, 74
2, 4610, Control_c, 9, 4, 112
2, 4646, Control_c, 9, 4, 98
2, 4667, Note_on_c, 9, 44, 0
2, 4683, Control_c, 9, 4, 85
2, 4685, Note_on_c, 9, 51, 0
2, 4717, Control_c, 9, 17, 127
2, 4718, Note_on_c, 9, 51, 6
2, 4720, Control_c, 9, 18, 0
2, 4721, Note_on_c, 9, 48, 48
2, 4724, Note_on_c, 9, 36, 37
2, 4800, Note_on_c, 9, 51, 0
2, 4801, Note_on_c, 9, 48, 0
2, 4806, Note_on_c, 9, 36, 0
2, 4809, Control_c, 9, 4, 96
2, 4849, Note_on_c, 9, 48, 65
2, 4850, Control_c, 9, 17, 0
2, 4850, Note_on_c, 9, 51, 53
2, 4907, Control_c, 9, 4, 91
2, 4930, Note_on_c, 9, 48, 0
2, 4931, Note_on_c, 9, 51, 0
2, 4939, Control_c, 9, 4, 84
2, 4965, Control_c, 9, 17, 0
2, 4965, Note_on_c, 9, 51, 33
2, 4975, Control_c, 9, 4, 70
2, 5020, Control_c, 9, 4, 9
2, 5048, Note_on_c, 9, 51, 0
2, 5055, Control_c, 9, 4, 49
2, 5062, Note_on_c, 9, 44, 80
2, 5067, Note_on_c, 9, 36, 40
2, 5087, Control_c, 9, 4, 110
2, 5134, Control_c, 9, 4, 92
2, 5143, Note_on_c, 9, 44, 0
2, 5149, Note_on_c, 9, 36, 0
2, 5166, Control_c, 9, 4, 86
2, 5195, Control_c, 9, 17, 101
2, 5195, Note_on_c, 9, 51, 83
2, 5276, Control_c, 9, 4, 92
2, 5277, Note_on_c, 9, 51, 0
2, 5319, Control_c, 9, 16, 0
2, 5320, Note_on_c, 9, 36, 50
2, 5320, Note_on_c, 9, 38, 58
2, 5401, Note_on_c, 9, 38, 0
2, 5402, Note_on_c, 9, 36, 0
2, 5433, Control_c, 9, 4, 79
2, 5469, Control_c, 9, 4, 55
2, 5503, Control_c, 9, 4, 0
2, 5538, Control_c, 9, 4, 50
2, 5543, Note_on_c, 9, 44, 87
2, 5546, Control_c, 9, 17, 127
2, 5547, Note_on_c, 9, 51, 83
2, 5568, Control_c, 9, 4, 114
2, 5602, Control_c, 9, 4, 100
2, 5625, Note_on_c, 9, 44, 0
2, 5627, Note_on_c, 9, 51, 0
2, 5640, Control_c, 9, 4, 85
2, 5671, Control_c, 9, 18, 0
2, 5672, Note_on_c, 9, 48, 48
2, 5676, Note_on_c, 9, 36, 43
2, 5754, Note_on_c, 9, 48, 0
2, 5757, Note_on_c, 9, 36, 0
2, 5769, Control_c, 9, 4, 97
2, 5798, Note_on_c, 9, 51, 63
2, 5805, Note_on_c, 9, 48, 61
2, 5864, Control_c, 9, 4, 92
2, 5879, Note_on_c, 9, 51, 0
2, 5886, Note_on_c, 9, 48, 0
2, 5920, Control_c, 9, 4, 78
2, 5925, Control_c, 9, 17, 127
2, 5926, Note_on_c, 9, 51, 59
2, 5951, Control_c, 9, 4, 54
2, 5982, Control_c, 9, 4, 0
2, 6008, Note_on_c, 9, 51, 0
2, 6018, Control_c, 9, 4, 50
2, 6023, Note_on_c, 9, 44, 87
2, 6027, Note_on_c, 9, 36, 39
2, 6039, Control_c, 9, 17, 127
2, 6039, Note_on_c, 9, 51, 6
2, 6048, Control_c, 9, 4, 112
2, 6084, Control_c, 9, 4, 98
2, 6105, Note_on_c, 9, 44, 0
2, 6108, Note_on_c, 9, 36, 0
2, 6120, Note_on_c, 9, 51, 0
2, 6125, Control_c, 9, 4, 86
2, 6239, Control_c, 9, 4, 92
2, 6270, Note_on_c, 9, 36, 46
2, 6277, Control_c, 9, 17, 47
2, 6278, Note_on_c, 9, 51, 83
2, 6281, Control_c, 9, 16, 21
2, 6282, Note_on_c, 9, 38, 65
2, 6352, Note_on_c, 9, 36, 0
2, 6359, Note_on_c, 9, 51, 0
2, 6360, Control_c, 9, 4, 86
2, 6363, Note_on_c, 9, 38, 0
2, 6400, Control_c, 9, 4, 72
2, 6452, Control_c, 9, 4, 0
2, 6497, Control_c, 9, 4, 49
2, 6502, Note_on_c, 9, 44, 93
2, 6514, Control_c, 9, 17, 87
2, 6515, Note_on_c, 9, 51, 80
2, 6527, Control_c, 9, 4, 114
2, 6573, Control_c, 9, 4, 94
2, 6584, Note_on_c, 9, 44, 0
2, 6597, Note_on_c, 9, 51, 0
2, 6615, Control_c, 9, 4, 84
2, 6633, Note_on_c, 9, 36, 42
2, 6641, Control_c, 9, 18, 0
2, 6642, Note_on_c, 9, 48, 55
2, 6715, Note_on_c, 9, 36, 0
2, 6723, Note_on_c, 9, 48, 0
2, 6731, Control_c, 9, 4, 97
2, 6770, Control_c, 9, 17, 111
2, 6770, Note_on_c, 9, 51, 67
2, 6773, Note_on_c, 9, 48, 65
2, 6833, Control_c, 9, 4, 92
2, 6851, Note_on_c, 9, 51, 0
2, 6854, Note_on_c, 9, 48, 0
2, 6880, Control_c, 9, 4, 79
2, 6894, Control_c, 9, 17, 115
2, 6895, Note_on_c, 9, 51, 66
2, 6914, Control_c, 9, 4, 54
2, 6946, Control_c, 9, 4, 0
2, 6976, Note_on_c, 9, 51, 0
2, 6983, Control_c, 9, 4, 50
2, 6988, Note_on_c, 9, 44, 87
2, 6993, Note_on_c, 9, 36, 45
2, 7008, Control_c, 9, 17, 115
2, 7008, Note_on_c, 9, 51, 6
2, 7014, Control_c, 9, 4, 114
2, 7045, Control_c, 9, 4, 99
2, 7069, Note_on_c, 9, 44, 0
2, 7073, Note_on_c, 9, 36, 0
2, 7081, Control_c, 9, 4, 85
2, 7090, Note_on_c, 9, 51, 0
2, 7126, Control_c, 9, 17, 52
2, 7126, Note_on_c, 9, 51, 78
2, 7209, Note_on_c, 9, 51, 0
2, 7210, Control_c, 9, 4, 94
2, 7238, Note_on_c, 9, 36, 54
2, 7244, Control_c, 9, 16, 0
2, 7245, Note_on_c, 9, 38, 63
2, 7317, Control_c, 9, 4, 90
2, 7320, Note_on_c, 9, 36, 0
2, 7327, Note_on_c, 9, 38, 0
2, 7360, Control_c, 9, 4, 78
2, 7396, Control_c, 9, 4, 54
2, 7427, Control_c, 9, 4, 11
2, 7457, Control_c, 9, 4, 43
2, 7464, Note_on_c, 9, 44, 80
2, 7470, Control_c, 9, 17, 103
2, 7470, Note_on_c, 9, 51, 82
2, 7489, Control_c, 9, 4, 114
2, 7531, Control_c, 9, 4, 93
2, 7546, Note_on_c, 9, 44, 0
2, 7551, Note_on_c, 9, 51, 0
2, 7568, Control_c, 9, 4, 82
2, 7595, Note_on_c, 9, 36, 39
2, 7598, Control_c, 9, 18, 0
2, 7599, Note_on_c, 9, 48, 49
2, 7677, Note_on_c, 9, 36, 0
2, 7680, Note_on_c, 9, 48, 0
2, 7681, End_track
0, 0, End_of_file
