0, 0, Header, 1, 2, 480
1, 0, Start_track
1, 0, Tempo, 588235
1, 0, Time_signature, 4, 2, 24, 8
1, 0, Key_signature, 0, "major"
1, 1, End_track
2, 0, Start_track
2, 0, Title_t, "Classic Studio Kit"
2, 0, Program_c, 9, 0
2, 0, Control_c, 9, 16, 0
2, 502, Control_c, 9, 16, 0
2, 502, Note_on_c, 9, 40, 109
2, 506, Control_c, 9, 17, 0
2, 506, Note_on_c, 9, 51, 123
2, 528, Note_on_c, 9, 36, 72
2, 576, Control_c, 9, 4, 102
2, 584, Note_on_c, 9, 40, 0
2, 586, Note_on_c, 9, 51, 0
2, 608, Control_c, 9, 4, 90
2, 611, Note_on_c, 9, 36, 0
2, 638, Control_c, 9, 4, 71
2, 676, Control_c, 9, 4, 0
2, 749, Note_on_c, 9, 44, 119
2, 755, Control_c, 9, 17, 38
2, 755, Note_on_c, 9, 51, 73
2, 757, Control_c, 9, 4, 127
2, 795, Control_c, 9, 4, 110
2, 829, Control_c, 9, 4, 92
2, 831, Note_on_c, 9, 44, 0
2, 837, Note_on_c, 9, 51, 0
2, 852, Note_on_c, 9, 36, 74
2, 870, Control_c, 9, 18, 0
2, 870, Note_on_c, 9, 48, 53
2, 935, Note_on_c, 9, 36, 0
2, 952, Note_on_c, 9, 48, 0
2, 985, Control_c, 9, 4, 112
2, 1005, Control_c, 9, 17, 5
2, 1006, Note_on_c, 9, 51, 70
2, 1077, Control_c, 9, 4, 95
2, 1087, Note_on_c, 9, 51, 0
2, 1122, Control_c, 9, 4, 70
2, 1123, Control_c, 9, 17, 22
2, 1123, Note_on_c, 9, 51, 68
2, 1157, Control_c, 9, 4, 0
2, 1206, Note_on_c, 9, 51, 0
2, 1211, Note_on_c, 9, 36, 65
2, 1219, Note_on_c, 9, 44, 127
2, 1226, Control_c, 9, 4, 127
2, 1275, Control_c, 9, 4, 100
2, 1294, Note_on_c, 9, 36, 0
2, 1301, Note_on_c, 9, 44, 0
2, 1317, Control_c, 9, 4, 87
2, 1422, Control_c, 9, 4, 93
2, 1456, Control_c, 9, 4, 97
2, 1458, Note_on_c, 9, 36, 84
2, 1472, Control_c, 9, 17, 0
2, 1472, Note_on_c, 9, 51, 115
2, 1481, Note_on_c, 9, 38, 87
2, 1512, Control_c, 9, 4, 102
2, 1539, Note_on_c, 9, 36, 0
2, 1554, Note_on_c, 9, 51, 0
2, 1561, Note_on_c, 9, 38, 0
2, 1568, Control_c, 9, 4, 90
2, 1598, Control_c, 9, 4, 70
2, 1608, Control_c, 9, 16, 0
2, 1609, Note_on_c, 9, 38, 9
2, 1629, Control_c, 9, 4, 0
2, 1690, Note_on_c, 9, 38, 0
2, 1703, Note_on_c, 9, 44, 127
2, 1707, Control_c, 9, 4, 127
2, 1713, Control_c, 9, 17, 80
2, 1713, Note_on_c, 9, 51, 82
2, 1743, Control_c, 9, 4, 98
2, 1782, Control_c, 9, 4, 91
2, 1784, Note_on_c, 9, 44, 0
2, 1795, Note_on_c, 9, 51, 0
2, 1818, Control_c, 9, 4, 87
2, 1824, Control_c, 9, 16, 0
2, 1824, Note_on_c, 9, 38, 19
2, 1907, Note_on_c, 9, 38, 0
2, 1930, Control_c, 9, 4, 100
2, 1946, Control_c, 9, 16, 21
2, 1947, Note_on_c, 9, 38, 59
2, 1973, Control_c, 9, 4, 106
2, 2024, Control_c, 9, 4, 91
2, 2029, Note_on_c, 9, 38, 0
2, 2057, Control_c, 9, 4, 71
2, 2086, Control_c, 9, 16, 0
2, 2086, Note_on_c, 9, 38, 19
2, 2093, Control_c, 9, 4, 0
2, 2168, Note_on_c, 9, 38, 0
2, 2173, Note_on_c, 9, 44, 127
2, 2178, Control_c, 9, 4, 127
2, 2215, Control_c, 9, 4, 97
2, 2248, Control_c, 9, 4, 91
2, 2255, Note_on_c, 9, 44, 0
2, 2289, Control_c, 9, 4, 86
2, 2367, Control_c, 9, 4, 92
2, 2424, Note_on_c, 9, 53, 82
2, 2429, Note_on_c, 9, 36, 75
2, 2429, Note_on_c, 9, 38, 86
2, 2443, Control_c, 9, 4, 99
2, 2504, Control_c, 9, 4, 92
2, 2506, Note_on_c, 9, 53, 0
2, 2509, Note_on_c, 9, 38, 0
2, 2510, Note_on_c, 9, 36, 0
2, 2530, Control_c, 9, 16, 0
2, 2531, Note_on_c, 9, 38, 82
2, 2540, Control_c, 9, 4, 72
2, 2580, Control_c, 9, 4, 0
2, 2612, Note_on_c, 9, 38, 0
2, 2643, Control_c, 9, 4, 34
2, 2649, Note_on_c, 9, 44, 126
2, 2659, Control_c, 9, 17, 4
2, 2660, Note_on_c, 9, 51, 78
2, 2674, Control_c, 9, 4, 127
2, 2711, Control_c, 9, 4, 110
2, 2731, Note_on_c, 9, 44, 0
2, 2741, Note_on_c, 9, 51, 0
2, 2743, Control_c, 9, 4, 92
2, 2782, Note_on_c, 9, 36, 76
2, 2833, Control_c, 9, 4, 88
2, 2864, Note_on_c, 9, 36, 0
2, 2890, Control_c, 9, 4, 108
2, 2893, Note_on_c, 9, 48, 82
2, 2896, Control_c, 9, 17, 13
2, 2896, Note_on_c, 9, 51, 87
2, 2975, Note_on_c, 9, 48, 0
2, 2978, Note_on_c, 9, 51, 0
2, 2997, Control_c, 9, 4, 81
2, 3033, Control_c, 9, 4, 0
2, 3118, Control_c, 9, 4, 33
2, 3123, Note_on_c, 9, 44, 127
2, 3135, Control_c, 9, 17, 79
2, 3135, Note_on_c, 9, 51, 83
2, 3149, Control_c, 9, 4, 83
2, 3180, Control_c, 9, 4, 30
2, 3205, Note_on_c, 9, 44, 0
2, 3214, Control_c, 9, 4, 29
2, 3217, Note_on_c, 9, 51, 0
2, 3250, Control_c, 9, 4, 69
2, 3251, Note_on_c, 9, 46, 6
2, 3334, Note_on_c, 9, 46, 0
2, 3356, Control_c, 9, 4, 63
2, 3376, Control_c, 9, 17, 5
2, 3377, Note_on_c, 9, 36, 89
2, 3377, Note_on_c, 9, 51, 100
2, 3394, Control_c, 9, 4, 47
2, 3412, Control_c, 9, 17, 5
2, 3413, Note_on_c, 9, 51, 0
2, 3413, Note_on_c, 9, 51, 54
2, 3434, Control_c, 9, 4, 0
2, 3458, Note_on_c, 9, 36, 0
2, 3458, Note_on_c, 9, 51, 0
2, 3492, Note_on_c, 9, 38, 49
2, 3563, Control_c, 9, 4, 64
2, 3568, Note_on_c, 9, 44, 67
2, 3573, Note_on_c, 9, 38, 0
2, 3593, Control_c, 9, 4, 90
2, 3620, Control_c, 9, 16, 0
2, 3621, Note_on_c, 9, 38, 34
2, 3640, Control_c, 9, 4, 110
2, 3649, Note_on_c, 9, 44, 0
2, 3689, Control_c, 9, 4, 98
2, 3702, Note_on_c, 9, 38, 0
2, 3729, Control_c, 9, 4, 70
2, 3746, Note_on_c, 9, 36, 85
2, 3761, Control_c, 9, 4, 0
2, 3829, Note_on_c, 9, 36, 0
2, 3838, Note_on_c, 9, 46, 11
2, 3846, Control_c, 9, 4, 34
2, 3852, Note_on_c, 9, 44, 127
2, 3856, Note_on_c, 9, 38, 30
2, 3877, Control_c, 9, 4, 86
2, 3914, Control_c, 9, 4, 33
2, 3919, Note_on_c, 9, 46, 0
2, 3932, Note_on_c, 9, 44, 0
2, 3937, Note_on_c, 9, 38, 0
2, 3961, Control_c, 9, 4, 70
2, 3976, Control_c, 9, 18, 0
2, 3977, Note_on_c, 9, 48, 79
2, 4058, Note_on_c, 9, 48, 0
2, 4068, Control_c, 9, 4, 62
2, 4098, Note_on_c, 9, 36, 80
2, 4111, Control_c, 9, 4, 33
2, 4153, Control_c, 9, 4, 0
2, 4180, Note_on_c, 9, 36, 0
2, 4225, Note_on_c, 9, 48, 43
2, 4280, Control_c, 9, 4, 62
2, 4289, Note_on_c, 9, 44, 41
2, 4308, Note_on_c, 9, 48, 0
2, 4314, Control_c, 9, 4, 82
2, 4343, Control_c, 9, 16, 0
2, 4344, Note_on_c, 9, 38, 67
2, 4348, Control_c, 9, 4, 89
2, 4371, Note_on_c, 9, 44, 0
2, 4386, Control_c, 9, 4, 102
2, 4425, Note_on_c, 9, 38, 0
2, 4433, Control_c, 9, 4, 95
2, 4464, Note_on_c, 9, 36, 68
2, 4473, Control_c, 9, 4, 70
2, 4507, Control_c, 9, 4, 0
2, 4546, Note_on_c, 9, 36, 0
2, 4571, Note_on_c, 9, 46, 10
2, 4579, Control_c, 9, 4, 33
2, 4584, Note_on_c, 9, 44, 127
2, 4585, Note_on_c, 9, 38, 34
2, 4610, Control_c, 9, 4, 83
2, 4651, Control_c, 9, 4, 42
2, 4652, Note_on_c, 9, 46, 0
2, 4665, Note_on_c, 9, 44, 0
2, 4666, Note_on_c, 9, 38, 0
2, 4693, Control_c, 9, 4, 70
2, 4705, Control_c, 9, 18, 0
2, 4706, Note_on_c, 9, 48, 60
2, 4788, Note_on_c, 9, 48, 0
2, 4818, Note_on_c, 9, 36, 77
2, 4835, Control_c, 9, 4, 66
2, 4871, Control_c, 9, 4, 46
2, 4900, Note_on_c, 9, 36, 0
2, 4903, Control_c, 9, 4, 0
2, 4944, Note_on_c, 9, 48, 39
2, 5006, Control_c, 9, 4, 16
2, 5020, Note_on_c, 9, 44, 74
2, 5026, Note_on_c, 9, 48, 0
2, 5037, Control_c, 9, 4, 102
2, 5041, Control_c, 9, 16, 0
2, 5041, Note_on_c, 9, 38, 69
2, 5070, Control_c, 9, 4, 116
2, 5104, Note_on_c, 9, 44, 0
2, 5122, Control_c, 9, 4, 96
2, 5124, Note_on_c, 9, 38, 0
2, 5164, Control_c, 9, 4, 70
2, 5166, Note_on_c, 9, 36, 68
2, 5198, Control_c, 9, 4, 0
2, 5249, Note_on_c, 9, 36, 0
2, 5275, Control_c, 9, 4, 34
2, 5277, Note_on_c, 9, 46, 15
2, 5280, Note_on_c, 9, 44, 127
2, 5287, Note_on_c, 9, 38, 32
2, 5305, Control_c, 9, 4, 84
2, 5335, Control_c, 9, 4, 24
2, 5357, Note_on_c, 9, 46, 0
2, 5360, Note_on_c, 9, 44, 0
2, 5367, Note_on_c, 9, 38, 0
2, 5372, Control_c, 9, 4, 21
2, 5404, Control_c, 9, 4, 68
2, 5404, Note_on_c, 9, 46, 13
2, 5413, Control_c, 9, 18, 0
2, 5414, Note_on_c, 9, 48, 57
2, 5486, Note_on_c, 9, 46, 0
2, 5495, Note_on_c, 9, 48, 0
2, 5523, Note_on_c, 9, 36, 77
2, 5529, Control_c, 9, 4, 63
2, 5579, Control_c, 9, 4, 48
2, 5605, Note_on_c, 9, 36, 0
2, 5615, Control_c, 9, 4, 0
2, 5656, Note_on_c, 9, 48, 42
2, 5731, Control_c, 9, 4, 48
2, 5737, Note_on_c, 9, 48, 0
2, 5739, Note_on_c, 9, 44, 80
2, 5759, Control_c, 9, 16, 0
2, 5760, Note_on_c, 9, 38, 67
2, 5764, Control_c, 9, 4, 94
2, 5800, Control_c, 9, 4, 114
2, 5820, Note_on_c, 9, 44, 0
2, 5841, Note_on_c, 9, 38, 0
2, 5854, Control_c, 9, 4, 94
2, 5893, Control_c, 9, 4, 69
2, 5896, Note_on_c, 9, 36, 74
2, 5923, Control_c, 9, 4, 0
2, 5978, Note_on_c, 9, 36, 0
2, 5992, Note_on_c, 9, 38, 19
2, 5994, Note_on_c, 9, 46, 9
2, 5999, Control_c, 9, 4, 33
2, 6004, Note_on_c, 9, 44, 127
2, 6030, Control_c, 9, 4, 78
2, 6061, Control_c, 9, 4, 23
2, 6074, Note_on_c, 9, 38, 0
2, 6074, Note_on_c, 9, 46, 0
2, 6085, Note_on_c, 9, 44, 0
2, 6098, Control_c, 9, 4, 20
2, 6129, Control_c, 9, 18, 0
2, 6129, Note_on_c, 9, 48, 65
2, 6136, Control_c, 9, 4, 69
2, 6137, Note_on_c, 9, 46, 9
2, 6183, Control_c, 9, 4, 63
2, 6212, Note_on_c, 9, 48, 0
2, 6217, Note_on_c, 9, 46, 0
2, 6237, Control_c, 9, 4, 59
2, 6252, Note_on_c, 9, 36, 78
2, 6270, Control_c, 9, 4, 44
2, 6307, Control_c, 9, 4, 0
2, 6334, Note_on_c, 9, 36, 0
2, 6377, Control_c, 9, 16, 0
2, 6377, Note_on_c, 9, 38, 22
2, 6443, Control_c, 9, 4, 48
2, 6451, Note_on_c, 9, 44, 67
2, 6459, Note_on_c, 9, 38, 0
2, 6476, Control_c, 9, 4, 90
2, 6489, Note_on_c, 9, 45, 85
2, 6510, Control_c, 9, 4, 97
2, 6533, Note_on_c, 9, 44, 0
2, 6544, Control_c, 9, 4, 106
2, 6571, Note_on_c, 9, 45, 0
2, 6588, Control_c, 9, 4, 91
2, 6620, Note_on_c, 9, 36, 80
2, 6622, Control_c, 9, 4, 70
2, 6655, Control_c, 9, 4, 0
2, 6702, Note_on_c, 9, 36, 0
2, 6721, Note_on_c, 9, 46, 14
2, 6731, Note_on_c, 9, 38, 28
2, 6733, Note_on_c, 9, 44, 127
2, 6747, Control_c, 9, 4, 96
2, 6782, Control_c, 9, 4, 44
2, 6802, Note_on_c, 9, 46, 0
2, 6812, Note_on_c, 9, 38, 0
2, 6812, Note_on_c, 9, 44, 0
2, 6820, Control_c, 9, 4, 32
2, 6853, Control_c, 9, 18, 0
2, 6854, Note_on_c, 9, 48, 69
2, 6855, Control_c, 9, 4, 69
2, 6855, Note_on_c, 9, 46, 8
2, 6935, Note_on_c, 9, 46, 0
2, 6935, Note_on_c, 9, 48, 0
2, 6949, Control_c, 9, 4, 63
2, 6979, Note_on_c, 9, 36, 78
2, 7006, Control_c, 9, 4, 36
2, 7037, Control_c, 9, 4, 0
2, 7061, Note_on_c, 9, 36, 0
2, 7103, Control_c, 9, 16, 0
2, 7104, Note_on_c, 9, 38, 19
2, 7177, Control_c, 9, 4, 65
2, 7182, Note_on_c, 9, 44, 67
2, 7185, Note_on_c, 9, 38, 0
2, 7207, Control_c, 9, 4, 91
2, 7207, Note_on_c, 9, 38, 35
2, 7249, Control_c, 9, 4, 108
2, 7262, Note_on_c, 9, 44, 0
2, 7287, Note_on_c, 9, 38, 0
2, 7306, Control_c, 9, 4, 91
2, 7339, Note_on_c, 9, 36, 76
2, 7342, Control_c, 9, 4, 71
2, 7378, Control_c, 9, 4, 0
2, 7422, Note_on_c, 9, 36, 0
2, 7441, Control_c, 9, 4, 34
2, 7446, Note_on_c, 9, 44, 127
2, 7454, Control_c, 9, 16, 0
2, 7454, Note_on_c, 9, 38, 25
2, 7471, Control_c, 9, 4, 76
2, 7509, Control_c, 9, 4, 30
2, 7529, Note_on_c, 9, 44, 0
2, 7535, Note_on_c, 9, 38, 0
2, 7566, Control_c, 9, 4, 69
2, 7566, Note_on_c, 9, 46, 7
2, 7582, Note_on_c, 9, 48, 43
2, 7645, Control_c, 9, 4, 65
2, 7648, Note_on_c, 9, 46, 0
2, 7662, Note_on_c, 9, 48, 0
2, 7663, End_track
0, 0, End_of_file
