0, 0, Header, 1, 2, 480
1, 0, Start_track
1, 0, Tempo, 588235
1, 0, Time_signature, 4, 2, 24, 8
1, 0, Key_signature, 0, "major"
1, 1, End_track
2, 0, Start_track
2, 0, Title_t, "Classic Studio Kit"
2, 0, Program_c, 9, 0
2, 0, Control_c, 9, 17, 46
2, 7, Control_c, 9, 17, 7
2, 8, Note_on_c, 9, 51, 53
2, 11, Control_c, 9, 4, 108
2, 22, Control_c, 9, 18, 0
2, 22, Note_on_c, 9, 48, 71
2, 35, Note_on_c, 9, 48, 70
2, 70, Control_c, 9, 4, 100
2, 82, Note_on_c, 9, 51, 0
2, 105, Note_on_c, 9, 48, 0
2, 105, Note_on_c, 9, 48, 0
2, 111, Control_c, 9, 4, 89
2, 133, Control_c, 9, 17, 44
2, 134, Note_on_c, 9, 51, 50
2, 143, Control_c, 9, 4, 72
2, 152, Control_c, 9, 17, 10
2, 153, Note_on_c, 9, 51, 73
2, 181, Control_c, 9, 4, 0
2, 216, Note_on_c, 9, 51, 0
2, 216, Note_on_c, 9, 51, 0
2, 245, Control_c, 9, 4, 34
2, 250, Note_on_c, 9, 44, 127
2, 261, Note_on_c, 9, 36, 57
2, 276, Control_c, 9, 4, 120
2, 318, Control_c, 9, 4, 96
2, 334, Note_on_c, 9, 44, 0
2, 342, Note_on_c, 9, 36, 0
2, 360, Control_c, 9, 4, 85
2, 438, Control_c, 9, 4, 89
2, 492, Control_c, 9, 4, 94
2, 500, Control_c, 9, 17, 0
2, 501, Control_c, 9, 16, 0
2, 501, Note_on_c, 9, 38, 62
2, 501, Note_on_c, 9, 51, 91
2, 503, Control_c, 9, 17, 0
2, 504, Note_on_c, 9, 36, 72
2, 504, Note_on_c, 9, 51, 90
2, 507, Note_on_c, 9, 38, 66
2, 515, Note_on_c, 9, 36, 69
2, 542, Control_c, 9, 4, 99
2, 583, Note_on_c, 9, 51, 0
2, 583, Note_on_c, 9, 51, 0
2, 584, Note_on_c, 9, 38, 0
2, 584, Note_on_c, 9, 38, 0
2, 586, Note_on_c, 9, 36, 0
2, 586, Note_on_c, 9, 36, 0
2, 595, Control_c, 9, 4, 86
2, 613, Control_c, 9, 4, 83
2, 625, Control_c, 9, 4, 70
2, 643, Control_c, 9, 4, 70
2, 661, Control_c, 9, 4, 0
2, 675, Control_c, 9, 4, 0
2, 730, Control_c, 9, 4, 36
2, 734, Control_c, 9, 4, 34
2, 736, Note_on_c, 9, 44, 127
2, 739, Note_on_c, 9, 44, 126
2, 744, Control_c, 9, 17, 23
2, 745, Note_on_c, 9, 51, 67
2, 753, Control_c, 9, 17, 39
2, 753, Note_on_c, 9, 51, 68
2, 761, Control_c, 9, 4, 122
2, 765, Control_c, 9, 4, 120
2, 803, Control_c, 9, 4, 99
2, 809, Control_c, 9, 4, 97
2, 818, Note_on_c, 9, 44, 0
2, 818, Note_on_c, 9, 44, 0
2, 826, Note_on_c, 9, 51, 0
2, 826, Note_on_c, 9, 51, 0
2, 846, Control_c, 9, 4, 87
2, 849, Control_c, 9, 4, 85
2, 854, Note_on_c, 9, 48, 50
2, 861, Control_c, 9, 18, 0
2, 861, Note_on_c, 9, 48, 48
2, 868, Note_on_c, 9, 36, 64
2, 868, Note_on_c, 9, 36, 72
2, 936, Note_on_c, 9, 48, 0
2, 936, Note_on_c, 9, 48, 0
2, 950, Note_on_c, 9, 36, 0
2, 950, Note_on_c, 9, 36, 0
2, 961, Control_c, 9, 4, 96
2, 969, Control_c, 9, 17, 55
2, 970, Note_on_c, 9, 51, 48
2, 971, Control_c, 9, 4, 110
2, 981, Control_c, 9, 17, 57
2, 981, Note_on_c, 9, 48, 72
2, 981, Note_on_c, 9, 51, 53
2, 983, Control_c, 9, 18, 0
2, 983, Note_on_c, 9, 48, 69
2, 1001, Control_c, 9, 4, 114
2, 1050, Control_c, 9, 4, 92
2, 1051, Note_on_c, 9, 51, 0
2, 1051, Note_on_c, 9, 51, 0
2, 1062, Note_on_c, 9, 48, 0
2, 1062, Note_on_c, 9, 48, 0
2, 1068, Control_c, 9, 4, 91
2, 1084, Control_c, 9, 4, 73
2, 1102, Control_c, 9, 4, 72
2, 1115, Control_c, 9, 17, 40
2, 1116, Control_c, 9, 17, 18
2, 1116, Note_on_c, 9, 51, 59
2, 1116, Note_on_c, 9, 51, 71
2, 1122, Control_c, 9, 4, 0
2, 1141, Control_c, 9, 4, 0
2, 1197, Note_on_c, 9, 51, 0
2, 1197, Note_on_c, 9, 51, 0
2, 1198, Note_on_c, 9, 46, 9
2, 1205, Control_c, 9, 4, 34
2, 1208, Control_c, 9, 4, 33
2, 1211, Note_on_c, 9, 36, 64
2, 1211, Note_on_c, 9, 44, 127
2, 1213, Note_on_c, 9, 44, 127
2, 1223, Note_on_c, 9, 36, 57
2, 1236, Control_c, 9, 4, 122
2, 1239, Control_c, 9, 4, 127
2, 1254, Note_on_c, 9, 49, 7
2, 1281, Note_on_c, 9, 46, 0
2, 1284, Control_c, 9, 4, 96
2, 1284, Control_c, 9, 4, 96
2, 1293, Note_on_c, 9, 36, 0
2, 1293, Note_on_c, 9, 36, 0
2, 1293, Note_on_c, 9, 44, 0
2, 1293, Note_on_c, 9, 44, 0
2, 1320, Control_c, 9, 4, 69
2, 1329, Control_c, 9, 4, 85
2, 1337, Note_on_c, 9, 49, 0
2, 1352, Control_c, 9, 4, 0
2, 1387, Control_c, 9, 4, 89
2, 1434, Note_on_c, 9, 46, 14
2, 1444, Control_c, 9, 4, 95
2, 1445, Control_c, 9, 4, 51
2, 1450, Note_on_c, 9, 44, 119
2, 1457, Note_on_c, 9, 36, 86
2, 1458, Control_c, 9, 17, 5
2, 1459, Note_on_c, 9, 51, 98
2, 1462, Note_on_c, 9, 36, 88
2, 1464, Note_on_c, 9, 38, 64
2, 1465, Control_c, 9, 16, 0
2, 1466, Note_on_c, 9, 38, 68
2, 1467, Control_c, 9, 17, 7
2, 1467, Note_on_c, 9, 51, 96
2, 1476, Control_c, 9, 4, 95
2, 1516, Note_on_c, 9, 46, 0
2, 1532, Note_on_c, 9, 44, 0
2, 1540, Note_on_c, 9, 36, 0
2, 1540, Note_on_c, 9, 36, 0
2, 1540, Note_on_c, 9, 51, 0
2, 1540, Note_on_c, 9, 51, 0
2, 1544, Note_on_c, 9, 38, 0
2, 1544, Note_on_c, 9, 38, 0
2, 1550, Control_c, 9, 4, 84
2, 1570, Control_c, 9, 4, 83
2, 1580, Control_c, 9, 4, 80
2, 1603, Control_c, 9, 4, 70
2, 1640, Control_c, 9, 4, 0
2, 1687, Control_c, 9, 4, 110
2, 1696, Control_c, 9, 4, 32
2, 1702, Note_on_c, 9, 44, 119
2, 1706, Control_c, 9, 17, 44
2, 1706, Note_on_c, 9, 51, 67
2, 1708, Control_c, 9, 17, 54
2, 1709, Note_on_c, 9, 51, 69
2, 1728, Control_c, 9, 4, 118
2, 1759, Control_c, 9, 4, 92
2, 1770, Control_c, 9, 4, 96
2, 1785, Note_on_c, 9, 44, 0
2, 1787, Note_on_c, 9, 51, 0
2, 1787, Note_on_c, 9, 51, 0
2, 1807, Control_c, 9, 4, 69
2, 1811, Note_on_c, 9, 36, 37
2, 1812, Control_c, 9, 4, 85
2, 1818, Note_on_c, 9, 48, 49
2, 1828, Note_on_c, 9, 48, 45
2, 1835, Note_on_c, 9, 36, 62
2, 1839, Control_c, 9, 4, 0
2, 1894, Note_on_c, 9, 36, 0
2, 1894, Note_on_c, 9, 36, 0
2, 1901, Note_on_c, 9, 48, 0
2, 1901, Note_on_c, 9, 48, 0
2, 1907, Control_c, 9, 17, 74
2, 1907, Note_on_c, 9, 51, 46
2, 1911, Note_on_c, 9, 46, 8
2, 1919, Control_c, 9, 4, 36
2, 1924, Control_c, 9, 17, 59
2, 1924, Note_on_c, 9, 51, 52
2, 1925, Control_c, 9, 4, 97
2, 1925, Note_on_c, 9, 44, 127
2, 1944, Control_c, 9, 18, 0
2, 1944, Note_on_c, 9, 48, 75
2, 1949, Note_on_c, 9, 48, 67
2, 1950, Control_c, 9, 4, 114
2, 1990, Note_on_c, 9, 51, 0
2, 1990, Note_on_c, 9, 51, 0
2, 1992, Note_on_c, 9, 46, 0
2, 2005, Control_c, 9, 4, 92
2, 2007, Note_on_c, 9, 44, 0
2, 2026, Note_on_c, 9, 48, 0
2, 2026, Note_on_c, 9, 48, 0
2, 2032, Control_c, 9, 4, 91
2, 2050, Control_c, 9, 17, 47
2, 2050, Note_on_c, 9, 51, 70
2, 2058, Control_c, 9, 17, 9
2, 2059, Note_on_c, 9, 51, 68
2, 2079, Control_c, 9, 4, 69
2, 2110, Control_c, 9, 4, 0
2, 2132, Note_on_c, 9, 51, 0
2, 2132, Note_on_c, 9, 51, 0
2, 2149, Control_c, 9, 4, 99
2, 2167, Control_c, 9, 4, 35
2, 2167, Note_on_c, 9, 36, 61
2, 2174, Note_on_c, 9, 44, 119
2, 2185, Note_on_c, 9, 36, 57
2, 2198, Control_c, 9, 4, 94
2, 2199, Control_c, 9, 4, 120
2, 2232, Control_c, 9, 4, 90
2, 2250, Note_on_c, 9, 36, 0
2, 2250, Note_on_c, 9, 36, 0
2, 2257, Control_c, 9, 4, 90
2, 2257, Note_on_c, 9, 44, 0
2, 2409, Note_on_c, 9, 36, 74
2, 2418, Control_c, 9, 17, 4
2, 2419, Note_on_c, 9, 51, 95
2, 2431, Control_c, 9, 17, 7
2, 2431, Note_on_c, 9, 38, 67
2, 2431, Note_on_c, 9, 51, 98
2, 2433, Note_on_c, 9, 36, 73
2, 2434, Control_c, 9, 4, 94
2, 2434, Control_c, 9, 16, 0
2, 2435, Note_on_c, 9, 38, 74
2, 2450, Control_c, 9, 4, 94
2, 2491, Note_on_c, 9, 36, 0
2, 2491, Note_on_c, 9, 36, 0
2, 2499, Note_on_c, 9, 51, 0
2, 2499, Note_on_c, 9, 51, 0
2, 2512, Note_on_c, 9, 38, 0
2, 2512, Note_on_c, 9, 38, 0
2, 2524, Control_c, 9, 4, 83
2, 2540, Control_c, 9, 4, 82
2, 2556, Control_c, 9, 4, 70
2, 2575, Control_c, 9, 4, 69
2, 2590, Control_c, 9, 4, 0
2, 2607, Control_c, 9, 4, 0
2, 2658, Note_on_c, 9, 44, 127
2, 2662, Control_c, 9, 4, 34
2, 2665, Control_c, 9, 4, 127
2, 2669, Note_on_c, 9, 44, 119
2, 2672, Control_c, 9, 17, 50
2, 2673, Control_c, 9, 17, 49
2, 2673, Note_on_c, 9, 51, 68
2, 2674, Note_on_c, 9, 51, 65
2, 2694, Control_c, 9, 4, 120
2, 2708, Control_c, 9, 4, 112
2, 2738, Control_c, 9, 4, 92
2, 2739, Note_on_c, 9, 44, 0
2, 2739, Note_on_c, 9, 44, 0
2, 2751, Control_c, 9, 4, 90
2, 2755, Note_on_c, 9, 51, 0
2, 2755, Note_on_c, 9, 51, 0
2, 2768, Control_c, 9, 4, 87
2, 2782, Note_on_c, 9, 48, 49
2, 2787, Control_c, 9, 4, 85
2, 2787, Control_c, 9, 18, 0
2, 2787, Note_on_c, 9, 48, 46
2, 2793, Note_on_c, 9, 36, 62
2, 2802, Note_on_c, 9, 36, 61
2, 2863, Note_on_c, 9, 48, 0
2, 2863, Note_on_c, 9, 48, 0
2, 2875, Note_on_c, 9, 36, 0
2, 2875, Note_on_c, 9, 36, 0
2, 2885, Control_c, 9, 17, 55
2, 2886, Note_on_c, 9, 51, 47
2, 2899, Control_c, 9, 17, 56
2, 2900, Note_on_c, 9, 51, 52
2, 2903, Control_c, 9, 4, 110
2, 2907, Control_c, 9, 4, 112
2, 2908, Note_on_c, 9, 48, 65
2, 2909, Control_c, 9, 18, 0
2, 2910, Note_on_c, 9, 48, 70
2, 2967, Note_on_c, 9, 51, 0
2, 2967, Note_on_c, 9, 51, 0
2, 2989, Control_c, 9, 4, 91
2, 2989, Note_on_c, 9, 48, 0
2, 2989, Note_on_c, 9, 48, 0
2, 2991, Control_c, 9, 4, 91
2, 3021, Control_c, 9, 4, 72
2, 3021, Control_c, 9, 17, 36
2, 3021, Note_on_c, 9, 51, 63
2, 3025, Control_c, 9, 4, 71
2, 3029, Control_c, 9, 17, 19
2, 3030, Note_on_c, 9, 51, 72
2, 3059, Control_c, 9, 4, 0
2, 3059, Control_c, 9, 4, 0
2, 3103, Note_on_c, 9, 51, 0
2, 3103, Note_on_c, 9, 51, 0
2, 3134, Note_on_c, 9, 46, 13
2, 3137, Note_on_c, 9, 46, 15
2, 3141, Control_c, 9, 4, 35
2, 3144, Control_c, 9, 4, 33
2, 3146, Note_on_c, 9, 44, 127
2, 3148, Note_on_c, 9, 36, 55
2, 3150, Note_on_c, 9, 44, 127
2, 3154, Note_on_c, 9, 36, 62
2, 3171, Control_c, 9, 4, 126
2, 3175, Control_c, 9, 4, 122
2, 3187, Note_on_c, 9, 49, 7
2, 3215, Note_on_c, 9, 46, 0
2, 3215, Note_on_c, 9, 46, 0
2, 3217, Control_c, 9, 4, 93
2, 3227, Control_c, 9, 4, 96
2, 3227, Note_on_c, 9, 44, 0
2, 3227, Note_on_c, 9, 44, 0
2, 3229, Note_on_c, 9, 36, 0
2, 3229, Note_on_c, 9, 36, 0
2, 3248, Control_c, 9, 4, 71
2, 3266, Control_c, 9, 4, 71
2, 3271, Note_on_c, 9, 49, 0
2, 3288, Control_c, 9, 4, 0
2, 3308, Control_c, 9, 4, 0
2, 3365, Note_on_c, 9, 46, 11
2, 3374, Control_c, 9, 4, 34
2, 3378, Note_on_c, 9, 46, 13
2, 3380, Note_on_c, 9, 44, 126
2, 3387, Control_c, 9, 4, 35
2, 3387, Control_c, 9, 16, 21
2, 3387, Note_on_c, 9, 38, 75
2, 3390, Note_on_c, 9, 36, 86
2, 3391, Control_c, 9, 17, 7
2, 3392, Note_on_c, 9, 51, 94
2, 3393, Note_on_c, 9, 44, 126
2, 3396, Note_on_c, 9, 36, 89
2, 3397, Control_c, 9, 17, 34
2, 3398, Note_on_c, 9, 51, 79
2, 3400, Note_on_c, 9, 38, 99
2, 3405, Control_c, 9, 4, 100
2, 3419, Control_c, 9, 4, 108
2, 3447, Note_on_c, 9, 46, 0
2, 3447, Note_on_c, 9, 46, 0
2, 3450, Control_c, 9, 4, 93
2, 3459, Control_c, 9, 4, 96
2, 3462, Note_on_c, 9, 44, 0
2, 3462, Note_on_c, 9, 44, 0
2, 3469, Note_on_c, 9, 38, 0
2, 3469, Note_on_c, 9, 38, 0
2, 3472, Note_on_c, 9, 36, 0
2, 3472, Note_on_c, 9, 36, 0
2, 3473, Note_on_c, 9, 51, 0
2, 3473, Note_on_c, 9, 51, 0
2, 3488, Control_c, 9, 4, 81
2, 3490, Control_c, 9, 4, 82
2, 3607, Control_c, 9, 4, 92
2, 3614, Control_c, 9, 4, 112
2, 3632, Control_c, 9, 17, 41
2, 3632, Control_c, 9, 17, 77
2, 3632, Note_on_c, 9, 51, 66
2, 3632, Note_on_c, 9, 51, 71
2, 3642, Control_c, 9, 4, 120
2, 3689, Control_c, 9, 4, 93
2, 3693, Control_c, 9, 4, 90
2, 3713, Note_on_c, 9, 51, 0
2, 3713, Note_on_c, 9, 51, 0
2, 3723, Control_c, 9, 4, 73
2, 3737, Control_c, 9, 4, 70
2, 3745, Note_on_c, 9, 36, 68
2, 3753, Note_on_c, 9, 48, 52
2, 3754, Note_on_c, 9, 36, 67
2, 3757, Note_on_c, 9, 48, 47
2, 3766, Control_c, 9, 4, 0
2, 3773, Control_c, 9, 4, 0
2, 3827, Note_on_c, 9, 36, 0
2, 3827, Note_on_c, 9, 36, 0
2, 3832, Control_c, 9, 17, 76
2, 3832, Note_on_c, 9, 51, 47
2, 3835, Note_on_c, 9, 48, 0
2, 3835, Note_on_c, 9, 48, 0
2, 3837, Note_on_c, 9, 46, 7
2, 3849, Note_on_c, 9, 44, 127
2, 3851, Control_c, 9, 4, 33
2, 3852, Control_c, 9, 17, 80
2, 3853, Note_on_c, 9, 51, 49
2, 3854, Control_c, 9, 4, 127
2, 3856, Note_on_c, 9, 44, 127
2, 3874, Control_c, 9, 18, 0
2, 3875, Note_on_c, 9, 48, 73
2, 3875, Note_on_c, 9, 48, 79
2, 3882, Control_c, 9, 4, 126
2, 3898, Control_c, 9, 4, 118
2, 3915, Note_on_c, 9, 51, 0
2, 3915, Note_on_c, 9, 51, 0
2, 3918, Note_on_c, 9, 46, 0
2, 3920, Control_c, 9, 4, 102
2, 3931, Note_on_c, 9, 44, 0
2, 3931, Note_on_c, 9, 44, 0
2, 3939, Control_c, 9, 4, 92
2, 3955, Control_c, 9, 4, 88
2, 3956, Note_on_c, 9, 48, 0
2, 3956, Note_on_c, 9, 48, 0
2, 3980, Control_c, 9, 17, 24
2, 3981, Control_c, 9, 17, 13
2, 3981, Note_on_c, 9, 51, 57
2, 3981, Note_on_c, 9, 51, 71
2, 4062, Note_on_c, 9, 51, 0
2, 4062, Note_on_c, 9, 51, 0
2, 4075, Control_c, 9, 4, 108
2, 4083, Control_c, 9, 4, 108
2, 4097, Note_on_c, 9, 36, 61
2, 4110, Note_on_c, 9, 36, 54
2, 4126, Control_c, 9, 4, 94
2, 4128, Control_c, 9, 4, 94
2, 4159, Control_c, 9, 4, 90
2, 4178, Note_on_c, 9, 36, 0
2, 4178, Note_on_c, 9, 36, 0
2, 4326, Note_on_c, 9, 36, 62
2, 4341, Control_c, 9, 17, 43
2, 4341, Note_on_c, 9, 51, 74
2, 4342, Note_on_c, 9, 36, 68
2, 4345, Control_c, 9, 16, 0
2, 4346, Note_on_c, 9, 38, 94
2, 4351, Control_c, 9, 17, 3
2, 4351, Note_on_c, 9, 51, 103
2, 4353, Control_c, 9, 16, 21
2, 4354, Note_on_c, 9, 38, 75
2, 4363, Control_c, 9, 4, 94
2, 4408, Note_on_c, 9, 36, 0
2, 4408, Note_on_c, 9, 36, 0
2, 4415, Control_c, 9, 4, 89
2, 4423, Note_on_c, 9, 51, 0
2, 4423, Note_on_c, 9, 51, 0
2, 4426, Note_on_c, 9, 38, 0
2, 4426, Note_on_c, 9, 38, 0
2, 4427, Control_c, 9, 4, 89
2, 4445, Control_c, 9, 4, 73
2, 4461, Control_c, 9, 4, 74
2, 4491, Control_c, 9, 4, 0
2, 4504, Control_c, 9, 4, 0
2, 4562, Control_c, 9, 4, 34
2, 4568, Note_on_c, 9, 44, 126
2, 4575, Control_c, 9, 4, 34
2, 4580, Note_on_c, 9, 44, 127
2, 4589, Control_c, 9, 17, 47
2, 4590, Note_on_c, 9, 51, 66
2, 4594, Control_c, 9, 4, 120
2, 4594, Control_c, 9, 17, 38
2, 4595, Note_on_c, 9, 51, 75
2, 4605, Control_c, 9, 4, 120
2, 4650, Note_on_c, 9, 44, 0
2, 4650, Note_on_c, 9, 44, 0
2, 4651, Control_c, 9, 4, 91
2, 4665, Control_c, 9, 4, 90
2, 4672, Note_on_c, 9, 51, 0
2, 4672, Note_on_c, 9, 51, 0
2, 4689, Control_c, 9, 4, 86
2, 4700, Control_c, 9, 4, 85
2, 4707, Note_on_c, 9, 48, 47
2, 4715, Control_c, 9, 18, 0
2, 4715, Note_on_c, 9, 48, 46
2, 4717, Note_on_c, 9, 36, 74
2, 4724, Note_on_c, 9, 36, 67
2, 4789, Note_on_c, 9, 48, 0
2, 4789, Note_on_c, 9, 48, 0
2, 4794, Control_c, 9, 17, 54
2, 4795, Note_on_c, 9, 51, 51
2, 4799, Note_on_c, 9, 36, 0
2, 4799, Note_on_c, 9, 36, 0
2, 4815, Control_c, 9, 17, 59
2, 4815, Note_on_c, 9, 51, 51
2, 4819, Control_c, 9, 4, 110
2, 4829, Note_on_c, 9, 48, 72
2, 4830, Control_c, 9, 4, 114
2, 4832, Control_c, 9, 18, 0
2, 4833, Note_on_c, 9, 48, 65
2, 4877, Note_on_c, 9, 51, 0
2, 4877, Note_on_c, 9, 51, 0
2, 4903, Control_c, 9, 4, 93
2, 4908, Control_c, 9, 4, 91
2, 4910, Note_on_c, 9, 48, 0
2, 4910, Note_on_c, 9, 48, 0
2, 4934, Control_c, 9, 4, 76
2, 4939, Control_c, 9, 17, 10
2, 4940, Note_on_c, 9, 51, 71
2, 4945, Control_c, 9, 4, 74
2, 4945, Control_c, 9, 17, 36
2, 4945, Note_on_c, 9, 51, 65
2, 4973, Control_c, 9, 4, 0
2, 4985, Control_c, 9, 4, 0
2, 5022, Note_on_c, 9, 51, 0
2, 5022, Note_on_c, 9, 51, 0
2, 5048, Note_on_c, 9, 46, 14
2, 5054, Control_c, 9, 4, 35
2, 5054, Note_on_c, 9, 36, 68
2, 5054, Note_on_c, 9, 46, 14
2, 5059, Note_on_c, 9, 44, 127
2, 5060, Control_c, 9, 4, 34
2, 5060, Note_on_c, 9, 36, 62
2, 5065, Note_on_c, 9, 44, 127
2, 5085, Control_c, 9, 4, 127
2, 5090, Control_c, 9, 4, 127
2, 5100, Note_on_c, 9, 49, 6
2, 5116, Control_c, 9, 4, 116
2, 5130, Note_on_c, 9, 46, 0
2, 5130, Note_on_c, 9, 46, 0
2, 5136, Note_on_c, 9, 36, 0
2, 5136, Note_on_c, 9, 36, 0
2, 5139, Control_c, 9, 4, 93
2, 5142, Note_on_c, 9, 44, 0
2, 5142, Note_on_c, 9, 44, 0
2, 5147, Control_c, 9, 4, 80
2, 5183, Note_on_c, 9, 49, 0
2, 5185, Control_c, 9, 4, 81
2, 5189, Control_c, 9, 4, 0
2, 5229, Control_c, 9, 4, 0
2, 5229, Note_on_c, 9, 46, 23
2, 5269, Note_on_c, 9, 46, 0
2, 5269, Note_on_c, 9, 46, 10
2, 5271, Control_c, 9, 4, 89
2, 5278, Control_c, 9, 4, 33
2, 5284, Note_on_c, 9, 44, 119
2, 5291, Note_on_c, 9, 36, 82
2, 5296, Note_on_c, 9, 36, 83
2, 5299, Note_on_c, 9, 38, 75
2, 5301, Control_c, 9, 17, 3
2, 5302, Note_on_c, 9, 51, 96
2, 5305, Control_c, 9, 17, 7
2, 5305, Note_on_c, 9, 51, 94
2, 5309, Control_c, 9, 4, 102
2, 5309, Control_c, 9, 4, 110
2, 5311, Note_on_c, 9, 46, 0
2, 5312, Control_c, 9, 16, 21
2, 5313, Note_on_c, 9, 38, 74
2, 5353, Control_c, 9, 4, 98
2, 5366, Note_on_c, 9, 44, 0
2, 5373, Note_on_c, 9, 36, 0
2, 5373, Note_on_c, 9, 36, 0
2, 5380, Note_on_c, 9, 38, 0
2, 5380, Note_on_c, 9, 38, 0
2, 5382, Note_on_c, 9, 51, 0
2, 5382, Note_on_c, 9, 51, 0
2, 5383, Control_c, 9, 4, 91
2, 5390, Control_c, 9, 4, 83
2, 5424, Control_c, 9, 4, 73
2, 5462, Control_c, 9, 4, 0
2, 5525, Control_c, 9, 4, 116
2, 5530, Note_on_c, 9, 46, 10
2, 5538, Control_c, 9, 4, 32
2, 5543, Control_c, 9, 17, 34
2, 5543, Control_c, 9, 17, 43
2, 5543, Note_on_c, 9, 51, 70
2, 5545, Note_on_c, 9, 51, 72
2, 5546, Note_on_c, 9, 44, 127
2, 5569, Control_c, 9, 4, 118
2, 5583, Control_c, 9, 4, 99
2, 5612, Control_c, 9, 4, 96
2, 5612, Note_on_c, 9, 46, 0
2, 5624, Control_c, 9, 4, 84
2, 5626, Note_on_c, 9, 44, 0
2, 5626, Note_on_c, 9, 51, 0
2, 5626, Note_on_c, 9, 51, 0
2, 5651, Control_c, 9, 4, 85
2, 5653, Note_on_c, 9, 36, 67
2, 5654, Control_c, 9, 4, 70
2, 5660, Note_on_c, 9, 48, 45
2, 5665, Note_on_c, 9, 48, 51
2, 5677, Note_on_c, 9, 36, 65
2, 5688, Control_c, 9, 4, 0
2, 5735, Note_on_c, 9, 36, 0
2, 5735, Note_on_c, 9, 36, 0
2, 5741, Note_on_c, 9, 48, 0
2, 5741, Note_on_c, 9, 48, 0
2, 5743, Control_c, 9, 17, 50
2, 5743, Note_on_c, 9, 51, 50
2, 5757, Note_on_c, 9, 46, 9
2, 5763, Control_c, 9, 17, 63
2, 5763, Note_on_c, 9, 51, 48
2, 5768, Note_on_c, 9, 44, 127
2, 5773, Control_c, 9, 4, 127
2, 5781, Control_c, 9, 18, 0
2, 5782, Note_on_c, 9, 48, 67
2, 5785, Control_c, 9, 4, 110
2, 5790, Note_on_c, 9, 48, 71
2, 5818, Control_c, 9, 4, 118
2, 5825, Note_on_c, 9, 51, 0
2, 5825, Note_on_c, 9, 51, 0
2, 5838, Note_on_c, 9, 46, 0
2, 5849, Note_on_c, 9, 44, 0
2, 5857, Control_c, 9, 4, 91
2, 5864, Note_on_c, 9, 48, 0
2, 5864, Note_on_c, 9, 48, 0
2, 5870, Control_c, 9, 4, 90
2, 5892, Control_c, 9, 17, 3
2, 5892, Control_c, 9, 17, 22
2, 5892, Note_on_c, 9, 51, 72
2, 5892, Note_on_c, 9, 51, 77
2, 5905, Control_c, 9, 4, 73
2, 5942, Control_c, 9, 4, 0
2, 5973, Note_on_c, 9, 51, 0
2, 5973, Note_on_c, 9, 51, 0
2, 5977, Control_c, 9, 4, 102
2, 6008, Control_c, 9, 4, 35
2, 6009, Note_on_c, 9, 36, 52
2, 6009, Note_on_c, 9, 36, 65
2, 6012, Control_c, 9, 4, 100
2, 6014, Note_on_c, 9, 44, 127
2, 6039, Control_c, 9, 4, 124
2, 6055, Note_on_c, 9, 49, 6
2, 6061, Control_c, 9, 4, 90
2, 6083, Control_c, 9, 4, 96
2, 6091, Note_on_c, 9, 36, 0
2, 6091, Note_on_c, 9, 36, 0
2, 6095, Note_on_c, 9, 44, 0
2, 6121, Control_c, 9, 4, 85
2, 6137, Note_on_c, 9, 49, 0
2, 6238, Control_c, 9, 4, 97
2, 6246, Control_c, 9, 17, 7
2, 6247, Note_on_c, 9, 51, 87
2, 6250, Note_on_c, 9, 36, 70
2, 6251, Control_c, 9, 17, 8
2, 6251, Note_on_c, 9, 51, 83
2, 6252, Control_c, 9, 16, 0
2, 6252, Note_on_c, 9, 38, 66
2, 6254, Note_on_c, 9, 36, 73
2, 6260, Note_on_c, 9, 38, 62
2, 6261, Control_c, 9, 4, 95
2, 6328, Note_on_c, 9, 51, 0
2, 6328, Note_on_c, 9, 51, 0
2, 6331, Note_on_c, 9, 36, 0
2, 6331, Note_on_c, 9, 36, 0
2, 6334, Note_on_c, 9, 38, 0
2, 6334, Note_on_c, 9, 38, 0
2, 6344, Control_c, 9, 4, 82
2, 6354, Control_c, 9, 4, 85
2, 6378, Control_c, 9, 4, 69
2, 6385, Control_c, 9, 4, 70
2, 6410, Control_c, 9, 4, 0
2, 6420, Control_c, 9, 4, 0
2, 6478, Control_c, 9, 4, 34
2, 6483, Note_on_c, 9, 44, 127
2, 6486, Control_c, 9, 4, 34
2, 6487, Control_c, 9, 17, 39
2, 6488, Note_on_c, 9, 51, 69
2, 6492, Note_on_c, 9, 44, 127
2, 6504, Control_c, 9, 17, 32
2, 6504, Note_on_c, 9, 51, 64
2, 6509, Control_c, 9, 4, 120
2, 6517, Control_c, 9, 4, 120
2, 6560, Control_c, 9, 4, 98
2, 6561, Control_c, 9, 4, 96
2, 6566, Note_on_c, 9, 44, 0
2, 6566, Note_on_c, 9, 44, 0
2, 6570, Note_on_c, 9, 51, 0
2, 6570, Note_on_c, 9, 51, 0
2, 6596, Control_c, 9, 4, 84
2, 6605, Control_c, 9, 4, 88
2, 6610, Control_c, 9, 18, 0
2, 6611, Note_on_c, 9, 48, 51
2, 6618, Control_c, 9, 18, 21
2, 6619, Note_on_c, 9, 48, 48
2, 6621, Note_on_c, 9, 36, 65
2, 6633, Note_on_c, 9, 36, 72
2, 6693, Note_on_c, 9, 48, 0
2, 6693, Note_on_c, 9, 48, 0
2, 6704, Control_c, 9, 17, 59
2, 6704, Note_on_c, 9, 36, 0
2, 6704, Note_on_c, 9, 36, 0
2, 6704, Note_on_c, 9, 51, 49
2, 6720, Control_c, 9, 4, 116
2, 6723, Control_c, 9, 17, 50
2, 6723, Note_on_c, 9, 51, 53
2, 6726, Control_c, 9, 4, 114
2, 6730, Control_c, 9, 18, 0
2, 6730, Note_on_c, 9, 48, 70
2, 6746, Note_on_c, 9, 48, 67
2, 6785, Note_on_c, 9, 51, 0
2, 6785, Note_on_c, 9, 51, 0
2, 6792, Control_c, 9, 4, 106
2, 6801, Control_c, 9, 4, 90
2, 6812, Note_on_c, 9, 48, 0
2, 6812, Note_on_c, 9, 48, 0
2, 6826, Control_c, 9, 4, 91
2, 6832, Control_c, 9, 4, 71
2, 6846, Note_on_c, 9, 46, 7
2, 6851, Control_c, 9, 17, 34
2, 6852, Note_on_c, 9, 51, 75
2, 6854, Control_c, 9, 17, 33
2, 6855, Note_on_c, 9, 51, 62
2, 6866, Control_c, 9, 4, 0
2, 6866, Control_c, 9, 4, 73
2, 6905, Control_c, 9, 4, 0
2, 6905, Note_on_c, 9, 46, 0
2, 6907, Note_on_c, 9, 46, 28
2, 6928, Note_on_c, 9, 46, 0
2, 6934, Note_on_c, 9, 51, 0
2, 6934, Note_on_c, 9, 51, 0
2, 6940, Note_on_c, 9, 46, 16
2, 6948, Control_c, 9, 4, 33
2, 6950, Note_on_c, 9, 36, 62
2, 6952, Note_on_c, 9, 44, 127
2, 6972, Note_on_c, 9, 44, 127
2, 6973, Note_on_c, 9, 36, 68
2, 6978, Control_c, 9, 4, 124
2, 6978, Control_c, 9, 4, 127
2, 6988, Note_on_c, 9, 46, 0
2, 6996, Note_on_c, 9, 49, 5
2, 7013, Control_c, 9, 4, 102
2, 7023, Control_c, 9, 4, 120
2, 7033, Note_on_c, 9, 36, 0
2, 7033, Note_on_c, 9, 36, 0
2, 7034, Note_on_c, 9, 44, 0
2, 7034, Note_on_c, 9, 44, 0
2, 7049, Control_c, 9, 4, 70
2, 7058, Control_c, 9, 4, 90
2, 7078, Note_on_c, 9, 49, 0
2, 7081, Control_c, 9, 4, 0
2, 7090, Control_c, 9, 4, 85
2, 7164, Note_on_c, 9, 46, 16
2, 7176, Control_c, 9, 4, 51
2, 7181, Note_on_c, 9, 44, 113
2, 7190, Note_on_c, 9, 36, 86
2, 7196, Control_c, 9, 17, 30
2, 7197, Note_on_c, 9, 51, 86
2, 7201, Control_c, 9, 16, 0
2, 7202, Note_on_c, 9, 38, 61
2, 7206, Control_c, 9, 4, 97
2, 7209, Control_c, 9, 4, 110
2, 7210, Control_c, 9, 17, 12
2, 7210, Note_on_c, 9, 51, 82
2, 7215, Note_on_c, 9, 36, 84
2, 7217, Note_on_c, 9, 38, 59
2, 7244, Control_c, 9, 4, 92
2, 7245, Note_on_c, 9, 46, 0
2, 7263, Note_on_c, 9, 44, 0
2, 7272, Note_on_c, 9, 36, 0
2, 7272, Note_on_c, 9, 36, 0
2, 7278, Note_on_c, 9, 51, 0
2, 7278, Note_on_c, 9, 51, 0
2, 7283, Control_c, 9, 4, 83
2, 7283, Control_c, 9, 4, 87
2, 7283, Note_on_c, 9, 38, 0
2, 7283, Note_on_c, 9, 38, 0
2, 7384, Control_c, 9, 4, 91
2, 7435, Control_c, 9, 4, 114
2, 7447, Control_c, 9, 17, 54
2, 7447, Note_on_c, 9, 51, 62
2, 7507, Control_c, 9, 4, 90
2, 7529, Note_on_c, 9, 51, 0
2, 7542, Control_c, 9, 4, 72
2, 7561, Note_on_c, 9, 36, 67
2, 7564, Control_c, 9, 18, 0
2, 7564, Note_on_c, 9, 48, 47
2, 7579, Control_c, 9, 4, 0
2, 7637, Control_c, 9, 17, 83
2, 7643, Note_on_c, 9, 36, 0
2, 7646, Note_on_c, 9, 48, 0
2, 7664, Control_c, 9, 4, 34
2, 7665, End_track
0, 0, End_of_file
