0, 0, Header, 1, 2, 480
1, 0, Start_track
1, 0, Tempo, 588235
1, 0, Time_signature, 4, 2, 24, 8
1, 0, Key_signature, 0, "major"
1, 1, End_track
2, 0, Start_track
2, 0, Title_t, "Classic Studio Kit"
2, 0, Program_c, 9, 0
2, 0, Control_c, 9, 18, 0
2, 16, Control_c, 9, 4, 98
2, 33, Control_c, 9, 17, 64
2, 33, Note_on_c, 9, 51, 56
2, 40, Note_on_c, 9, 48, 60
2, 114, Note_on_c, 9, 51, 0
2, 121, Note_on_c, 9, 48, 0
2, 138, Control_c, 9, 4, 85
2, 166, Control_c, 9, 17, 127
2, 167, Note_on_c, 9, 51, 71
2, 176, Control_c, 9, 4, 70
2, 219, Control_c, 9, 4, 0
2, 249, Note_on_c, 9, 51, 0
2, 262, Note_on_c, 9, 36, 43
2, 265, Control_c, 9, 4, 48
2, 269, Note_on_c, 9, 44, 106
2, 296, Control_c, 9, 4, 116
2, 339, Control_c, 9, 4, 95
2, 345, Note_on_c, 9, 36, 0
2, 352, Note_on_c, 9, 44, 0
2, 376, Control_c, 9, 4, 85
2, 496, Control_c, 9, 4, 94
2, 514, Note_on_c, 9, 36, 51
2, 515, Control_c, 9, 17, 29
2, 515, Note_on_c, 9, 51, 83
2, 520, Control_c, 9, 16, 0
2, 521, Note_on_c, 9, 38, 59
2, 596, Note_on_c, 9, 36, 0
2, 596, Note_on_c, 9, 51, 0
2, 601, Note_on_c, 9, 38, 0
2, 637, Control_c, 9, 4, 83
2, 670, Control_c, 9, 4, 69
2, 703, Control_c, 9, 4, 0
2, 752, Control_c, 9, 4, 48
2, 757, Note_on_c, 9, 44, 106
2, 765, Control_c, 9, 17, 56
2, 765, Note_on_c, 9, 51, 72
2, 783, Control_c, 9, 4, 112
2, 837, Control_c, 9, 4, 90
2, 839, Note_on_c, 9, 44, 0
2, 846, Note_on_c, 9, 51, 0
2, 872, Control_c, 9, 4, 84
2, 881, Note_on_c, 9, 36, 38
2, 883, Control_c, 9, 18, 0
2, 884, Note_on_c, 9, 48, 45
2, 963, Control_c, 9, 4, 90
2, 964, Note_on_c, 9, 36, 0
2, 964, Note_on_c, 9, 48, 0
2, 994, Control_c, 9, 4, 108
2, 998, Control_c, 9, 17, 89
2, 999, Note_on_c, 9, 51, 56
2, 1002, Note_on_c, 9, 48, 62
2, 1039, Control_c, 9, 4, 98
2, 1072, Control_c, 9, 4, 83
2, 1080, Note_on_c, 9, 51, 0
2, 1083, Note_on_c, 9, 48, 0
2, 1104, Control_c, 9, 4, 70
2, 1127, Control_c, 9, 17, 96
2, 1128, Note_on_c, 9, 51, 69
2, 1142, Control_c, 9, 4, 0
2, 1208, Note_on_c, 9, 51, 0
2, 1213, Note_on_c, 9, 46, 11
2, 1218, Note_on_c, 9, 36, 55
2, 1221, Control_c, 9, 4, 34
2, 1226, Note_on_c, 9, 44, 127
2, 1243, Control_c, 9, 17, 96
2, 1243, Note_on_c, 9, 51, 6
2, 1252, Control_c, 9, 4, 114
2, 1289, Control_c, 9, 4, 99
2, 1293, Note_on_c, 9, 46, 0
2, 1300, Note_on_c, 9, 36, 0
2, 1307, Note_on_c, 9, 44, 0
2, 1324, Note_on_c, 9, 51, 0
2, 1331, Control_c, 9, 4, 72
2, 1375, Control_c, 9, 4, 0
2, 1448, Note_on_c, 9, 46, 7
2, 1457, Control_c, 9, 4, 32
2, 1461, Control_c, 9, 17, 58
2, 1461, Note_on_c, 9, 51, 93
2, 1464, Note_on_c, 9, 44, 126
2, 1469, Note_on_c, 9, 36, 81
2, 1474, Control_c, 9, 16, 0
2, 1474, Note_on_c, 9, 38, 67
2, 1488, Control_c, 9, 4, 108
2, 1528, Note_on_c, 9, 46, 0
2, 1533, Control_c, 9, 4, 89
2, 1544, Note_on_c, 9, 51, 0
2, 1545, Note_on_c, 9, 44, 0
2, 1550, Note_on_c, 9, 36, 0
2, 1555, Note_on_c, 9, 38, 0
2, 1564, Control_c, 9, 4, 73
2, 1692, Control_c, 9, 4, 93
2, 1710, Control_c, 9, 17, 120
2, 1711, Note_on_c, 9, 51, 71
2, 1728, Control_c, 9, 4, 112
2, 1766, Control_c, 9, 4, 92
2, 1792, Note_on_c, 9, 51, 0
2, 1800, Control_c, 9, 4, 73
2, 1821, Note_on_c, 9, 36, 54
2, 1823, Control_c, 9, 18, 0
2, 1824, Note_on_c, 9, 48, 48
2, 1842, Control_c, 9, 4, 0
2, 1904, Note_on_c, 9, 36, 0
2, 1904, Note_on_c, 9, 48, 0
2, 1917, Note_on_c, 9, 46, 12
2, 1927, Control_c, 9, 17, 0
2, 1927, Note_on_c, 9, 51, 42
2, 1931, Note_on_c, 9, 44, 127
2, 1940, Control_c, 9, 4, 127
2, 1942, Note_on_c, 9, 48, 74
2, 1981, Control_c, 9, 4, 120
2, 1998, Note_on_c, 9, 46, 0
2, 2008, Note_on_c, 9, 51, 0
2, 2012, Note_on_c, 9, 44, 0
2, 2023, Note_on_c, 9, 48, 0
2, 2026, Control_c, 9, 4, 91
2, 2056, Control_c, 9, 17, 95
2, 2056, Note_on_c, 9, 51, 72
2, 2137, Note_on_c, 9, 51, 0
2, 2148, Control_c, 9, 4, 98
2, 2171, Note_on_c, 9, 36, 48
2, 2180, Control_c, 9, 4, 102
2, 2224, Control_c, 9, 4, 92
2, 2253, Note_on_c, 9, 36, 0
2, 2413, Note_on_c, 9, 36, 64
2, 2422, Control_c, 9, 17, 43
2, 2423, Note_on_c, 9, 51, 92
2, 2426, Control_c, 9, 16, 21
2, 2427, Note_on_c, 9, 38, 66
2, 2495, Note_on_c, 9, 36, 0
2, 2503, Note_on_c, 9, 51, 0
2, 2508, Control_c, 9, 4, 84
2, 2508, Note_on_c, 9, 38, 0
2, 2541, Control_c, 9, 4, 70
2, 2577, Control_c, 9, 4, 0
2, 2642, Control_c, 9, 4, 34
2, 2648, Note_on_c, 9, 44, 127
2, 2668, Control_c, 9, 17, 92
2, 2668, Note_on_c, 9, 51, 76
2, 2674, Control_c, 9, 4, 114
2, 2729, Note_on_c, 9, 44, 0
2, 2746, Control_c, 9, 4, 90
2, 2750, Note_on_c, 9, 51, 0
2, 2782, Control_c, 9, 18, 0
2, 2783, Note_on_c, 9, 48, 46
2, 2789, Note_on_c, 9, 36, 45
2, 2851, Control_c, 9, 4, 86
2, 2864, Note_on_c, 9, 48, 0
2, 2871, Note_on_c, 9, 36, 0
2, 2899, Control_c, 9, 17, 127
2, 2899, Note_on_c, 9, 51, 49
2, 2901, Control_c, 9, 4, 114
2, 2906, Note_on_c, 9, 48, 63
2, 2954, Control_c, 9, 4, 99
2, 2981, Note_on_c, 9, 51, 0
2, 2988, Note_on_c, 9, 48, 0
2, 2993, Control_c, 9, 4, 85
2, 3025, Control_c, 9, 4, 70
2, 3035, Control_c, 9, 17, 103
2, 3035, Note_on_c, 9, 51, 70
2, 3060, Control_c, 9, 4, 0
2, 3116, Note_on_c, 9, 51, 0
2, 3129, Control_c, 9, 4, 34
2, 3129, Note_on_c, 9, 36, 48
2, 3135, Note_on_c, 9, 44, 127
2, 3160, Control_c, 9, 4, 116
2, 3211, Note_on_c, 9, 36, 0
2, 3216, Control_c, 9, 4, 92
2, 3217, Note_on_c, 9, 44, 0
2, 3255, Control_c, 9, 4, 88
2, 3273, Control_c, 9, 17, 45
2, 3274, Note_on_c, 9, 51, 88
2, 3354, Note_on_c, 9, 51, 0
2, 3381, Control_c, 9, 4, 98
2, 3382, Note_on_c, 9, 36, 76
2, 3395, Control_c, 9, 16, 0
2, 3395, Note_on_c, 9, 38, 70
2, 3464, Note_on_c, 9, 36, 0
2, 3476, Note_on_c, 9, 38, 0
2, 3492, Control_c, 9, 4, 84
2, 3526, Control_c, 9, 4, 69
2, 3559, Control_c, 9, 4, 0
2, 3619, Control_c, 9, 4, 33
2, 3623, Control_c, 9, 17, 58
2, 3624, Note_on_c, 9, 51, 81
2, 3625, Note_on_c, 9, 44, 127
2, 3650, Control_c, 9, 4, 122
2, 3700, Control_c, 9, 4, 95
2, 3704, Note_on_c, 9, 51, 0
2, 3706, Note_on_c, 9, 44, 0
2, 3740, Control_c, 9, 18, 0
2, 3741, Control_c, 9, 4, 84
2, 3741, Note_on_c, 9, 48, 46
2, 3748, Note_on_c, 9, 36, 54
2, 3823, Note_on_c, 9, 48, 0
2, 3829, Note_on_c, 9, 36, 0
2, 3864, Control_c, 9, 17, 127
2, 3865, Control_c, 9, 4, 116
2, 3865, Note_on_c, 9, 51, 54
2, 3872, Note_on_c, 9, 48, 62
2, 3927, Control_c, 9, 4, 99
2, 3947, Note_on_c, 9, 51, 0
2, 3954, Note_on_c, 9, 48, 0
2, 3968, Control_c, 9, 4, 84
2, 4001, Control_c, 9, 4, 70
2, 4002, Control_c, 9, 17, 109
2, 4003, Note_on_c, 9, 51, 72
2, 4035, Control_c, 9, 4, 0
2, 4084, Note_on_c, 9, 51, 0
2, 4090, Note_on_c, 9, 36, 43
2, 4099, Control_c, 9, 4, 50
2, 4104, Note_on_c, 9, 44, 126
2, 4129, Control_c, 9, 4, 118
2, 4171, Note_on_c, 9, 36, 0
2, 4184, Note_on_c, 9, 44, 0
2, 4194, Control_c, 9, 4, 90
2, 4336, Control_c, 9, 4, 95
2, 4353, Control_c, 9, 17, 49
2, 4353, Note_on_c, 9, 51, 87
2, 4356, Note_on_c, 9, 36, 68
2, 4360, Note_on_c, 9, 38, 59
2, 4434, Note_on_c, 9, 51, 0
2, 4437, Note_on_c, 9, 36, 0
2, 4441, Note_on_c, 9, 38, 0
2, 4461, Control_c, 9, 4, 83
2, 4494, Control_c, 9, 4, 68
2, 4524, Control_c, 9, 4, 0
2, 4583, Control_c, 9, 4, 33
2, 4589, Note_on_c, 9, 44, 127
2, 4596, Control_c, 9, 17, 108
2, 4597, Note_on_c, 9, 51, 76
2, 4614, Control_c, 9, 4, 118
2, 4663, Control_c, 9, 4, 95
2, 4670, Note_on_c, 9, 44, 0
2, 4678, Note_on_c, 9, 51, 0
2, 4700, Control_c, 9, 4, 84
2, 4711, Note_on_c, 9, 36, 44
2, 4712, Control_c, 9, 18, 0
2, 4712, Note_on_c, 9, 48, 46
2, 4793, Note_on_c, 9, 36, 0
2, 4793, Note_on_c, 9, 48, 0
2, 4822, Control_c, 9, 4, 112
2, 4831, Control_c, 9, 17, 0
2, 4831, Note_on_c, 9, 51, 45
2, 4838, Note_on_c, 9, 48, 59
2, 4904, Control_c, 9, 4, 91
2, 4913, Note_on_c, 9, 51, 0
2, 4919, Note_on_c, 9, 48, 0
2, 4955, Control_c, 9, 4, 69
2, 4960, Control_c, 9, 17, 127
2, 4960, Note_on_c, 9, 51, 67
2, 4989, Control_c, 9, 4, 0
2, 5041, Note_on_c, 9, 51, 0
2, 5054, Note_on_c, 9, 36, 58
2, 5056, Note_on_c, 9, 46, 9
2, 5062, Control_c, 9, 4, 35
2, 5067, Note_on_c, 9, 44, 127
2, 5092, Control_c, 9, 4, 120
2, 5125, Control_c, 9, 4, 108
2, 5137, Note_on_c, 9, 36, 0
2, 5137, Note_on_c, 9, 46, 0
2, 5149, Note_on_c, 9, 44, 0
2, 5160, Control_c, 9, 4, 70
2, 5193, Control_c, 9, 4, 0
2, 5206, Control_c, 9, 17, 80
2, 5206, Note_on_c, 9, 51, 81
2, 5266, Note_on_c, 9, 46, 11
2, 5276, Control_c, 9, 4, 33
2, 5283, Note_on_c, 9, 44, 113
2, 5288, Note_on_c, 9, 51, 0
2, 5298, Note_on_c, 9, 36, 82
2, 5308, Control_c, 9, 4, 97
2, 5320, Control_c, 9, 16, 0
2, 5321, Note_on_c, 9, 38, 62
2, 5347, Note_on_c, 9, 46, 0
2, 5364, Note_on_c, 9, 44, 0
2, 5380, Note_on_c, 9, 36, 0
2, 5392, Control_c, 9, 4, 84
2, 5403, Note_on_c, 9, 38, 0
2, 5533, Control_c, 9, 4, 116
2, 5541, Control_c, 9, 17, 98
2, 5541, Note_on_c, 9, 51, 83
2, 5582, Control_c, 9, 4, 97
2, 5617, Control_c, 9, 4, 83
2, 5622, Note_on_c, 9, 51, 0
2, 5641, Note_on_c, 9, 36, 43
2, 5648, Control_c, 9, 4, 69
2, 5656, Control_c, 9, 18, 0
2, 5656, Note_on_c, 9, 48, 49
2, 5679, Control_c, 9, 4, 0
2, 5723, Note_on_c, 9, 36, 0
2, 5737, Note_on_c, 9, 48, 0
2, 5745, Control_c, 9, 4, 33
2, 5752, Note_on_c, 9, 44, 126
2, 5777, Control_c, 9, 4, 120
2, 5786, Note_on_c, 9, 48, 66
2, 5789, Control_c, 9, 17, 0
2, 5790, Note_on_c, 9, 51, 46
2, 5834, Note_on_c, 9, 44, 0
2, 5849, Control_c, 9, 4, 92
2, 5869, Note_on_c, 9, 48, 0
2, 5871, Note_on_c, 9, 51, 0
2, 5913, Control_c, 9, 17, 90
2, 5914, Note_on_c, 9, 51, 71
2, 5984, Note_on_c, 9, 36, 43
2, 5991, Control_c, 9, 4, 102
2, 5994, Note_on_c, 9, 51, 0
2, 6044, Control_c, 9, 4, 93
2, 6065, Note_on_c, 9, 36, 0
2, 6245, Control_c, 9, 17, 80
2, 6246, Note_on_c, 9, 36, 59
2, 6246, Note_on_c, 9, 51, 87
2, 6253, Control_c, 9, 16, 0
2, 6254, Note_on_c, 9, 38, 70
2, 6327, Note_on_c, 9, 51, 0
2, 6328, Note_on_c, 9, 36, 0
2, 6335, Note_on_c, 9, 38, 0
2, 6357, Control_c, 9, 4, 86
2, 6393, Control_c, 9, 4, 70
2, 6431, Control_c, 9, 4, 0
2, 6486, Control_c, 9, 4, 50
2, 6491, Note_on_c, 9, 44, 113
2, 6509, Control_c, 9, 17, 89
2, 6510, Note_on_c, 9, 51, 75
2, 6516, Control_c, 9, 4, 120
2, 6571, Note_on_c, 9, 44, 0
2, 6576, Control_c, 9, 4, 91
2, 6592, Note_on_c, 9, 51, 0
2, 6607, Control_c, 9, 4, 85
2, 6616, Control_c, 9, 18, 0
2, 6617, Note_on_c, 9, 36, 53
2, 6617, Note_on_c, 9, 48, 47
2, 6699, Note_on_c, 9, 48, 0
2, 6700, Note_on_c, 9, 36, 0
2, 6726, Control_c, 9, 4, 116
2, 6735, Control_c, 9, 17, 0
2, 6735, Note_on_c, 9, 51, 48
2, 6740, Note_on_c, 9, 48, 59
2, 6796, Control_c, 9, 4, 98
2, 6817, Note_on_c, 9, 51, 0
2, 6821, Note_on_c, 9, 48, 0
2, 6833, Control_c, 9, 4, 83
2, 6863, Control_c, 9, 4, 70
2, 6864, Control_c, 9, 17, 70
2, 6864, Note_on_c, 9, 51, 65
2, 6900, Control_c, 9, 4, 0
2, 6946, Note_on_c, 9, 51, 0
2, 6961, Note_on_c, 9, 36, 64
2, 6968, Control_c, 9, 4, 34
2, 6973, Note_on_c, 9, 44, 127
2, 6998, Control_c, 9, 4, 120
2, 7043, Note_on_c, 9, 36, 0
2, 7054, Note_on_c, 9, 44, 0
2, 7070, Control_c, 9, 4, 90
2, 7094, Control_c, 9, 17, 40
2, 7094, Note_on_c, 9, 51, 87
2, 7104, Control_c, 9, 4, 86
2, 7176, Note_on_c, 9, 51, 0
2, 7213, Control_c, 9, 4, 108
2, 7214, Control_c, 9, 16, 21
2, 7215, Note_on_c, 9, 38, 69
2, 7219, Note_on_c, 9, 36, 71
2, 7269, Control_c, 9, 4, 99
2, 7297, Note_on_c, 9, 38, 0
2, 7302, Note_on_c, 9, 36, 0
2, 7310, Control_c, 9, 4, 85
2, 7343, Control_c, 9, 4, 70
2, 7383, Control_c, 9, 4, 0
2, 7452, Control_c, 9, 17, 79
2, 7453, Note_on_c, 9, 51, 75
2, 7454, Control_c, 9, 4, 34
2, 7459, Note_on_c, 9, 44, 127
2, 7484, Control_c, 9, 4, 118
2, 7533, Control_c, 9, 4, 95
2, 7535, Note_on_c, 9, 51, 0
2, 7540, Note_on_c, 9, 44, 0
2, 7566, Control_c, 9, 4, 84
2, 7569, Control_c, 9, 18, 0
2, 7569, Note_on_c, 9, 36, 44
2, 7571, Note_on_c, 9, 48, 46
2, 7652, Note_on_c, 9, 36, 0
2, 7652, Note_on_c, 9, 48, 0
2, 7653, End_track
0, 0, End_of_file
