0, 0, Header, 1, 2, 480
1, 0, Start_track
1, 0, Tempo, 588235
1, 0, Time_signature, 4, 2, 24, 8
1, 0, Key_signature, 0, "major"
1, 1, End_track
2, 0, Start_track
2, 0, Title_t, "Classic Studio Kit"
2, 0, Program_c, 9, 0
2, 0, Control_c, 9, 17, 70
2, 2, Control_c, 9, 4, 110
2, 2, Note_on_c, 9, 48, 70
2, 82, Note_on_c, 9, 48, 0
2, 91, Control_c, 9, 4, 92
2, 120, Control_c, 9, 17, 46
2, 121, Note_on_c, 9, 51, 72
2, 130, Control_c, 9, 4, 73
2, 168, Control_c, 9, 4, 0
2, 202, Note_on_c, 9, 51, 0
2, 231, Note_on_c, 9, 44, 119
2, 239, Control_c, 9, 4, 127
2, 240, Note_on_c, 9, 36, 58
2, 276, Control_c, 9, 4, 110
2, 308, Control_c, 9, 4, 92
2, 313, Note_on_c, 9, 44, 0
2, 323, Note_on_c, 9, 36, 0
2, 341, Control_c, 9, 4, 88
2, 453, Control_c, 9, 4, 97
2, 485, Note_on_c, 9, 38, 87
2, 490, Note_on_c, 9, 36, 76
2, 493, Control_c, 9, 17, 0
2, 493, Note_on_c, 9, 51, 104
2, 567, Note_on_c, 9, 38, 0
2, 572, Note_on_c, 9, 36, 0
2, 574, Note_on_c, 9, 51, 0
2, 577, Control_c, 9, 4, 91
2, 610, Control_c, 9, 4, 73
2, 647, Control_c, 9, 4, 0
2, 721, Note_on_c, 9, 44, 127
2, 727, Control_c, 9, 4, 127
2, 740, Control_c, 9, 17, 63
2, 740, Note_on_c, 9, 51, 70
2, 770, Control_c, 9, 4, 120
2, 802, Note_on_c, 9, 44, 0
2, 809, Control_c, 9, 4, 91
2, 821, Note_on_c, 9, 51, 0
2, 858, Control_c, 9, 18, 0
2, 858, Note_on_c, 9, 48, 48
2, 863, Note_on_c, 9, 36, 69
2, 940, Note_on_c, 9, 48, 0
2, 946, Control_c, 9, 4, 112
2, 946, Note_on_c, 9, 36, 0
2, 973, Control_c, 9, 17, 55
2, 973, Note_on_c, 9, 51, 63
2, 983, Note_on_c, 9, 48, 73
2, 1054, Note_on_c, 9, 51, 0
2, 1064, Note_on_c, 9, 48, 0
2, 1067, Control_c, 9, 4, 94
2, 1092, Control_c, 9, 17, 11
2, 1093, Note_on_c, 9, 51, 81
2, 1105, Control_c, 9, 4, 83
2, 1158, Control_c, 9, 4, 71
2, 1175, Note_on_c, 9, 51, 0
2, 1207, Note_on_c, 9, 36, 74
2, 1222, Control_c, 9, 4, 110
2, 1265, Control_c, 9, 4, 112
2, 1289, Note_on_c, 9, 36, 0
2, 1299, Control_c, 9, 4, 92
2, 1335, Control_c, 9, 17, 8
2, 1336, Note_on_c, 9, 51, 91
2, 1416, Note_on_c, 9, 51, 0
2, 1447, Note_on_c, 9, 36, 84
2, 1458, Control_c, 9, 16, 0
2, 1458, Note_on_c, 9, 38, 84
2, 1502, Control_c, 9, 4, 97
2, 1529, Note_on_c, 9, 36, 0
2, 1541, Note_on_c, 9, 38, 0
2, 1575, Control_c, 9, 4, 83
2, 1605, Control_c, 9, 4, 69
2, 1638, Control_c, 9, 4, 0
2, 1697, Note_on_c, 9, 44, 113
2, 1698, Control_c, 9, 17, 8
2, 1698, Note_on_c, 9, 51, 105
2, 1705, Control_c, 9, 4, 127
2, 1746, Control_c, 9, 4, 120
2, 1778, Note_on_c, 9, 44, 0
2, 1779, Note_on_c, 9, 51, 0
2, 1785, Control_c, 9, 4, 92
2, 1811, Control_c, 9, 18, 0
2, 1812, Note_on_c, 9, 48, 47
2, 1815, Note_on_c, 9, 36, 60
2, 1819, Control_c, 9, 4, 88
2, 1894, Note_on_c, 9, 48, 0
2, 1898, Note_on_c, 9, 36, 0
2, 1923, Control_c, 9, 4, 114
2, 1925, Control_c, 9, 17, 69
2, 1926, Note_on_c, 9, 51, 69
2, 1935, Control_c, 9, 18, 0
2, 1935, Note_on_c, 9, 48, 69
2, 1959, Control_c, 9, 4, 112
2, 2007, Note_on_c, 9, 51, 0
2, 2016, Note_on_c, 9, 48, 0
2, 2032, Control_c, 9, 4, 92
2, 2046, Control_c, 9, 17, 69
2, 2046, Note_on_c, 9, 51, 71
2, 2071, Control_c, 9, 4, 72
2, 2106, Control_c, 9, 4, 0
2, 2128, Note_on_c, 9, 51, 0
2, 2165, Control_c, 9, 4, 51
2, 2169, Note_on_c, 9, 44, 119
2, 2172, Note_on_c, 9, 36, 71
2, 2195, Control_c, 9, 4, 120
2, 2213, Note_on_c, 9, 49, 5
2, 2245, Control_c, 9, 4, 98
2, 2250, Note_on_c, 9, 44, 0
2, 2254, Note_on_c, 9, 36, 0
2, 2287, Control_c, 9, 4, 90
2, 2294, Note_on_c, 9, 49, 0
2, 2400, Control_c, 9, 4, 106
2, 2412, Note_on_c, 9, 38, 97
2, 2416, Control_c, 9, 17, 0
2, 2417, Note_on_c, 9, 51, 116
2, 2423, Note_on_c, 9, 36, 86
2, 2493, Note_on_c, 9, 38, 0
2, 2494, Control_c, 9, 4, 92
2, 2498, Note_on_c, 9, 51, 0
2, 2506, Note_on_c, 9, 36, 0
2, 2533, Control_c, 9, 4, 75
2, 2574, Control_c, 9, 4, 0
2, 2647, Note_on_c, 9, 44, 127
2, 2653, Control_c, 9, 4, 127
2, 2659, Control_c, 9, 17, 66
2, 2659, Note_on_c, 9, 51, 74
2, 2696, Control_c, 9, 4, 120
2, 2729, Note_on_c, 9, 44, 0
2, 2736, Control_c, 9, 4, 91
2, 2741, Note_on_c, 9, 51, 0
2, 2767, Control_c, 9, 18, 21
2, 2768, Note_on_c, 9, 48, 45
2, 2777, Note_on_c, 9, 36, 73
2, 2849, Note_on_c, 9, 48, 0
2, 2860, Note_on_c, 9, 36, 0
2, 2866, Control_c, 9, 4, 112
2, 2886, Control_c, 9, 17, 77
2, 2886, Note_on_c, 9, 51, 72
2, 2893, Control_c, 9, 18, 0
2, 2894, Note_on_c, 9, 48, 74
2, 2968, Note_on_c, 9, 51, 0
2, 2976, Note_on_c, 9, 48, 0
2, 2979, Control_c, 9, 4, 93
2, 3008, Control_c, 9, 17, 45
2, 3008, Note_on_c, 9, 51, 73
2, 3012, Control_c, 9, 4, 77
2, 3052, Control_c, 9, 4, 0
2, 3090, Note_on_c, 9, 51, 0
2, 3121, Note_on_c, 9, 36, 74
2, 3122, Control_c, 9, 4, 34
2, 3127, Note_on_c, 9, 44, 127
2, 3153, Control_c, 9, 4, 120
2, 3171, Note_on_c, 9, 49, 4
2, 3202, Note_on_c, 9, 36, 0
2, 3209, Note_on_c, 9, 44, 0
2, 3225, Control_c, 9, 4, 91
2, 3239, Control_c, 9, 17, 58
2, 3240, Note_on_c, 9, 51, 55
2, 3253, Note_on_c, 9, 49, 0
2, 3321, Note_on_c, 9, 51, 0
2, 3341, Control_c, 9, 4, 100
2, 3360, Note_on_c, 9, 36, 91
2, 3369, Control_c, 9, 17, 0
2, 3369, Note_on_c, 9, 51, 102
2, 3373, Control_c, 9, 4, 102
2, 3380, Control_c, 9, 16, 0
2, 3380, Note_on_c, 9, 38, 90
2, 3442, Control_c, 9, 4, 96
2, 3442, Note_on_c, 9, 36, 0
2, 3451, Note_on_c, 9, 51, 0
2, 3461, Note_on_c, 9, 38, 0
2, 3480, Control_c, 9, 4, 83
2, 3530, Control_c, 9, 4, 54
2, 3566, Control_c, 9, 4, 0
2, 3597, Control_c, 9, 4, 49
2, 3602, Note_on_c, 9, 44, 87
2, 3619, Control_c, 9, 17, 34
2, 3619, Note_on_c, 9, 51, 76
2, 3628, Control_c, 9, 4, 127
2, 3660, Control_c, 9, 4, 120
2, 3684, Note_on_c, 9, 44, 0
2, 3700, Control_c, 9, 4, 89
2, 3701, Note_on_c, 9, 51, 0
2, 3739, Note_on_c, 9, 36, 68
2, 3741, Note_on_c, 9, 48, 46
2, 3743, Control_c, 9, 4, 71
2, 3792, Control_c, 9, 4, 0
2, 3822, Note_on_c, 9, 36, 0
2, 3822, Note_on_c, 9, 48, 0
2, 3844, Control_c, 9, 4, 49
2, 3849, Note_on_c, 9, 44, 106
2, 3862, Control_c, 9, 18, 0
2, 3863, Note_on_c, 9, 48, 70
2, 3864, Control_c, 9, 17, 58
2, 3864, Note_on_c, 9, 51, 65
2, 3874, Control_c, 9, 4, 127
2, 3916, Control_c, 9, 4, 104
2, 3931, Note_on_c, 9, 44, 0
2, 3944, Note_on_c, 9, 48, 0
2, 3945, Note_on_c, 9, 51, 0
2, 3947, Control_c, 9, 4, 91
2, 3986, Control_c, 9, 17, 42
2, 3987, Note_on_c, 9, 51, 70
2, 4068, Control_c, 9, 4, 110
2, 4068, Note_on_c, 9, 51, 0
2, 4087, Note_on_c, 9, 36, 72
2, 4115, Control_c, 9, 4, 96
2, 4146, Control_c, 9, 4, 92
2, 4170, Note_on_c, 9, 36, 0
2, 4324, Control_c, 9, 17, 2
2, 4325, Note_on_c, 9, 51, 105
2, 4329, Note_on_c, 9, 38, 88
2, 4336, Note_on_c, 9, 36, 74
2, 4343, Control_c, 9, 4, 98
2, 4375, Control_c, 9, 4, 110
2, 4405, Note_on_c, 9, 51, 0
2, 4410, Note_on_c, 9, 38, 0
2, 4418, Control_c, 9, 4, 92
2, 4418, Note_on_c, 9, 36, 0
2, 4449, Control_c, 9, 4, 74
2, 4486, Control_c, 9, 4, 0
2, 4551, Note_on_c, 9, 46, 13
2, 4560, Control_c, 9, 4, 32
2, 4565, Note_on_c, 9, 44, 127
2, 4571, Control_c, 9, 17, 55
2, 4571, Note_on_c, 9, 51, 73
2, 4591, Control_c, 9, 4, 127
2, 4633, Note_on_c, 9, 46, 0
2, 4638, Control_c, 9, 4, 102
2, 4647, Note_on_c, 9, 44, 0
2, 4653, Note_on_c, 9, 51, 0
2, 4672, Control_c, 9, 4, 90
2, 4682, Note_on_c, 9, 48, 47
2, 4697, Note_on_c, 9, 36, 57
2, 4764, Note_on_c, 9, 48, 0
2, 4779, Note_on_c, 9, 36, 0
2, 4804, Control_c, 9, 17, 52
2, 4805, Note_on_c, 9, 51, 64
2, 4807, Control_c, 9, 18, 0
2, 4808, Note_on_c, 9, 48, 69
2, 4813, Control_c, 9, 4, 122
2, 4875, Control_c, 9, 4, 97
2, 4886, Note_on_c, 9, 51, 0
2, 4889, Note_on_c, 9, 48, 0
2, 4916, Control_c, 9, 4, 71
2, 4928, Control_c, 9, 17, 8
2, 4929, Note_on_c, 9, 51, 69
2, 4955, Control_c, 9, 4, 0
2, 5010, Note_on_c, 9, 51, 0
2, 5036, Note_on_c, 9, 46, 12
2, 5043, Control_c, 9, 4, 34
2, 5049, Note_on_c, 9, 44, 127
2, 5055, Note_on_c, 9, 36, 71
2, 5074, Control_c, 9, 4, 127
2, 5093, Note_on_c, 9, 49, 5
2, 5119, Note_on_c, 9, 46, 0
2, 5131, Note_on_c, 9, 44, 0
2, 5137, Note_on_c, 9, 36, 0
2, 5141, Control_c, 9, 4, 91
2, 5143, Control_c, 9, 17, 60
2, 5143, Note_on_c, 9, 51, 51
2, 5173, Control_c, 9, 4, 72
2, 5176, Note_on_c, 9, 49, 0
2, 5221, Control_c, 9, 4, 0
2, 5225, Note_on_c, 9, 51, 0
2, 5295, Note_on_c, 9, 36, 83
2, 5297, Note_on_c, 9, 44, 113
2, 5306, Control_c, 9, 16, 0
2, 5306, Note_on_c, 9, 38, 107
2, 5308, Control_c, 9, 4, 127
2, 5310, Control_c, 9, 17, 21
2, 5311, Note_on_c, 9, 51, 88
2, 5347, Control_c, 9, 4, 98
2, 5376, Note_on_c, 9, 36, 0
2, 5379, Note_on_c, 9, 44, 0
2, 5388, Note_on_c, 9, 38, 0
2, 5392, Note_on_c, 9, 51, 0
2, 5403, Control_c, 9, 4, 86
2, 5536, Control_c, 9, 17, 62
2, 5536, Note_on_c, 9, 51, 73
2, 5540, Control_c, 9, 4, 127
2, 5581, Control_c, 9, 4, 120
2, 5619, Note_on_c, 9, 51, 0
2, 5625, Control_c, 9, 4, 90
2, 5659, Control_c, 9, 4, 71
2, 5663, Note_on_c, 9, 48, 42
2, 5668, Note_on_c, 9, 36, 64
2, 5693, Control_c, 9, 4, 0
2, 5743, Note_on_c, 9, 48, 0
2, 5749, Note_on_c, 9, 36, 0
2, 5769, Note_on_c, 9, 46, 14
2, 5774, Control_c, 9, 4, 35
2, 5776, Control_c, 9, 17, 127
2, 5776, Note_on_c, 9, 51, 74
2, 5780, Note_on_c, 9, 44, 127
2, 5785, Control_c, 9, 18, 0
2, 5785, Note_on_c, 9, 48, 78
2, 5805, Control_c, 9, 4, 127
2, 5840, Control_c, 9, 4, 114
2, 5849, Note_on_c, 9, 46, 0
2, 5858, Note_on_c, 9, 51, 0
2, 5862, Note_on_c, 9, 44, 0
2, 5868, Note_on_c, 9, 48, 0
2, 5872, Control_c, 9, 4, 93
2, 5899, Control_c, 9, 17, 39
2, 5900, Note_on_c, 9, 51, 74
2, 5983, Note_on_c, 9, 51, 0
2, 5991, Control_c, 9, 4, 106
2, 6021, Note_on_c, 9, 36, 55
2, 6027, Control_c, 9, 4, 110
2, 6064, Control_c, 9, 4, 95
2, 6103, Note_on_c, 9, 36, 0
2, 6260, Note_on_c, 9, 38, 70
2, 6265, Control_c, 9, 17, 9
2, 6265, Note_on_c, 9, 51, 121
2, 6269, Note_on_c, 9, 36, 71
2, 6288, Control_c, 9, 4, 112
2, 6333, Control_c, 9, 4, 91
2, 6341, Note_on_c, 9, 38, 0
2, 6347, Note_on_c, 9, 51, 0
2, 6351, Note_on_c, 9, 36, 0
2, 6369, Control_c, 9, 4, 74
2, 6411, Control_c, 9, 4, 0
2, 6475, Note_on_c, 9, 46, 9
2, 6488, Note_on_c, 9, 44, 127
2, 6493, Control_c, 9, 4, 127
2, 6503, Control_c, 9, 17, 63
2, 6504, Note_on_c, 9, 51, 76
2, 6538, Control_c, 9, 4, 120
2, 6556, Note_on_c, 9, 46, 0
2, 6570, Note_on_c, 9, 44, 0
2, 6577, Control_c, 9, 4, 91
2, 6587, Note_on_c, 9, 51, 0
2, 6610, Note_on_c, 9, 48, 47
2, 6630, Note_on_c, 9, 36, 61
2, 6692, Note_on_c, 9, 48, 0
2, 6712, Note_on_c, 9, 36, 0
2, 6719, Control_c, 9, 4, 112
2, 6728, Control_c, 9, 17, 57
2, 6729, Note_on_c, 9, 51, 66
2, 6741, Control_c, 9, 18, 0
2, 6742, Note_on_c, 9, 48, 73
2, 6808, Note_on_c, 9, 51, 0
2, 6822, Note_on_c, 9, 48, 0
2, 6829, Control_c, 9, 4, 91
2, 6850, Control_c, 9, 17, 17
2, 6850, Note_on_c, 9, 51, 80
2, 6866, Control_c, 9, 4, 71
2, 6896, Control_c, 9, 4, 0
2, 6933, Note_on_c, 9, 51, 0
2, 6970, Note_on_c, 9, 36, 75
2, 6972, Note_on_c, 9, 44, 127
2, 6977, Control_c, 9, 4, 127
2, 7016, Note_on_c, 9, 49, 6
2, 7024, Control_c, 9, 4, 120
2, 7052, Note_on_c, 9, 36, 0
2, 7053, Note_on_c, 9, 44, 0
2, 7059, Control_c, 9, 4, 91
2, 7089, Control_c, 9, 17, 45
2, 7090, Note_on_c, 9, 51, 57
2, 7097, Note_on_c, 9, 49, 0
2, 7171, Note_on_c, 9, 51, 0
2, 7196, Control_c, 9, 4, 97
2, 7201, Note_on_c, 9, 36, 81
2, 7212, Control_c, 9, 16, 0
2, 7212, Note_on_c, 9, 38, 100
2, 7213, Control_c, 9, 17, 0
2, 7214, Note_on_c, 9, 51, 103
2, 7261, Control_c, 9, 4, 92
2, 7283, Note_on_c, 9, 36, 0
2, 7293, Note_on_c, 9, 38, 0
2, 7295, Note_on_c, 9, 51, 0
2, 7430, Control_c, 9, 4, 116
2, 7449, Control_c, 9, 17, 32
2, 7449, Note_on_c, 9, 51, 83
2, 7509, Control_c, 9, 4, 89
2, 7531, Note_on_c, 9, 51, 0
2, 7542, Control_c, 9, 4, 71
2, 7581, Control_c, 9, 4, 0
2, 7673, Control_c, 9, 4, 127
2, 7674, End_track
0, 0, End_of_file
