0, 0, Header, 1, 2, 480
1, 0, Start_track
1, 0, Tempo, 545454
1, 0, Time_signature, 4, 2, 24, 8
1, 0, Key_signature, 0, "major"
1, 1, End_track
2, 0, Start_track
2, 0, Title_t, "TD-30 #9 Djembe"
2, 0, Program_c, 9, 0
2, 0, Control_c, 9, 17, 80
2, 21, Control_c, 9, 4, 110
2, 68, Control_c, 9, 4, 93
2, 110, Control_c, 9, 4, 83
2, 196, Control_c, 9, 4, 90
2, 231, Control_c, 9, 17, 127
2, 232, Note_on_c, 9, 51, 49
2, 270, Control_c, 9, 4, 85
2, 320, Note_on_c, 9, 51, 0
2, 480, Note_on_c, 9, 36, 69
2, 486, Control_c, 9, 4, 89
2, 486, Control_c, 9, 17, 100
2, 487, Note_on_c, 9, 51, 77
2, 569, Note_on_c, 9, 36, 0
2, 575, Note_on_c, 9, 51, 0
2, 592, Control_c, 9, 4, 83
2, 644, Control_c, 9, 4, 54
2, 674, Control_c, 9, 4, 0
2, 728, Control_c, 9, 4, 64
2, 730, Note_on_c, 9, 44, 100
2, 732, Control_c, 9, 17, 127
2, 732, Note_on_c, 9, 51, 49
2, 758, Control_c, 9, 4, 112
2, 793, Control_c, 9, 4, 99
2, 818, Note_on_c, 9, 44, 0
2, 820, Note_on_c, 9, 51, 0
2, 837, Control_c, 9, 4, 84
2, 883, Control_c, 9, 4, 80
2, 934, Control_c, 9, 4, 86
2, 959, Control_c, 9, 17, 127
2, 959, Note_on_c, 9, 51, 52
2, 1049, Note_on_c, 9, 51, 0
2, 1102, Control_c, 9, 17, 75
2, 1102, Note_on_c, 9, 51, 62
2, 1106, Control_c, 9, 16, 126
2, 1106, Note_on_c, 9, 40, 46
2, 1190, Note_on_c, 9, 51, 0
2, 1194, Note_on_c, 9, 40, 0
2, 1198, Control_c, 9, 4, 90
2, 1205, Control_c, 9, 17, 71
2, 1206, Note_on_c, 9, 51, 78
2, 1283, Control_c, 9, 4, 83
2, 1294, Note_on_c, 9, 51, 0
2, 1321, Control_c, 9, 4, 70
2, 1355, Control_c, 9, 16, 0
2, 1355, Note_on_c, 9, 38, 5
2, 1366, Control_c, 9, 4, 0
2, 1430, Control_c, 9, 4, 67
2, 1432, Note_on_c, 9, 44, 93
2, 1443, Control_c, 9, 17, 127
2, 1444, Note_on_c, 9, 51, 64
2, 1445, Note_on_c, 9, 38, 0
2, 1460, Control_c, 9, 4, 95
2, 1517, Control_c, 9, 4, 90
2, 1521, Note_on_c, 9, 44, 0
2, 1531, Note_on_c, 9, 51, 0
2, 1547, Control_c, 9, 4, 85
2, 1570, Control_c, 9, 17, 127
2, 1571, Note_on_c, 9, 51, 6
2, 1651, Control_c, 9, 4, 90
2, 1658, Note_on_c, 9, 51, 0
2, 1672, Control_c, 9, 18, 0
2, 1673, Note_on_c, 9, 48, 47
2, 1677, Control_c, 9, 17, 101
2, 1677, Note_on_c, 9, 51, 73
2, 1760, Note_on_c, 9, 48, 0
2, 1765, Note_on_c, 9, 51, 0
2, 1780, Control_c, 9, 4, 83
2, 1817, Control_c, 9, 4, 70
2, 1870, Control_c, 9, 4, 0
2, 1910, Control_c, 9, 17, 117
2, 1911, Note_on_c, 9, 51, 75
2, 1913, Note_on_c, 9, 48, 75
2, 1924, Control_c, 9, 4, 53
2, 1929, Note_on_c, 9, 44, 106
2, 1956, Control_c, 9, 4, 108
2, 1990, Control_c, 9, 4, 98
2, 1999, Note_on_c, 9, 51, 0
2, 2000, Note_on_c, 9, 48, 0
2, 2017, Note_on_c, 9, 44, 0
2, 2034, Control_c, 9, 4, 84
2, 2069, Control_c, 9, 4, 79
2, 2134, Control_c, 9, 4, 91
2, 2143, Control_c, 9, 17, 46
2, 2143, Note_on_c, 9, 43, 77
2, 2144, Note_on_c, 9, 51, 66
2, 2213, Control_c, 9, 4, 86
2, 2230, Note_on_c, 9, 43, 0
2, 2231, Note_on_c, 9, 51, 0
2, 2382, Control_c, 9, 4, 90
2, 2395, Note_on_c, 9, 36, 83
2, 2397, Control_c, 9, 17, 78
2, 2398, Note_on_c, 9, 51, 75
2, 2473, Control_c, 9, 4, 83
2, 2483, Note_on_c, 9, 36, 0
2, 2485, Note_on_c, 9, 51, 0
2, 2511, Control_c, 9, 4, 70
2, 2562, Control_c, 9, 4, 0
2, 2626, Note_on_c, 9, 44, 100
2, 2633, Control_c, 9, 17, 127
2, 2633, Note_on_c, 9, 51, 50
2, 2640, Control_c, 9, 4, 104
2, 2679, Control_c, 9, 4, 96
2, 2714, Note_on_c, 9, 44, 0
2, 2718, Control_c, 9, 4, 84
2, 2721, Note_on_c, 9, 51, 0
2, 2836, Control_c, 9, 4, 88
2, 2865, Control_c, 9, 17, 0
2, 2865, Note_on_c, 9, 51, 50
2, 2900, Control_c, 9, 4, 84
2, 2953, Note_on_c, 9, 51, 0
2, 3016, Control_c, 9, 17, 53
2, 3016, Note_on_c, 9, 51, 62
2, 3019, Control_c, 9, 16, 126
2, 3020, Note_on_c, 9, 40, 50
2, 3087, Control_c, 9, 4, 88
2, 3104, Note_on_c, 9, 51, 0
2, 3108, Note_on_c, 9, 40, 0
2, 3132, Control_c, 9, 17, 77
2, 3132, Note_on_c, 9, 51, 61
2, 3195, Control_c, 9, 4, 82
2, 3220, Note_on_c, 9, 51, 0
2, 3225, Control_c, 9, 4, 75
2, 3258, Control_c, 9, 4, 57
2, 3292, Control_c, 9, 4, 0
2, 3340, Control_c, 9, 4, 65
2, 3343, Note_on_c, 9, 44, 93
2, 3362, Control_c, 9, 17, 127
2, 3363, Note_on_c, 9, 51, 64
2, 3371, Control_c, 9, 4, 104
2, 3414, Control_c, 9, 4, 96
2, 3431, Note_on_c, 9, 44, 0
2, 3451, Note_on_c, 9, 51, 0
2, 3455, Control_c, 9, 4, 84
2, 3560, Control_c, 9, 4, 90
2, 3601, Control_c, 9, 17, 93
2, 3601, Note_on_c, 9, 51, 63
2, 3603, Note_on_c, 9, 48, 44
2, 3689, Note_on_c, 9, 51, 0
2, 3691, Note_on_c, 9, 48, 0
2, 3741, Control_c, 9, 4, 75
2, 3771, Control_c, 9, 4, 56
2, 3805, Control_c, 9, 4, 0
2, 3838, Control_c, 9, 17, 127
2, 3839, Note_on_c, 9, 51, 74
2, 3844, Control_c, 9, 4, 50
2, 3847, Control_c, 9, 18, 0
2, 3847, Note_on_c, 9, 48, 64
2, 3851, Note_on_c, 9, 44, 87
2, 3878, Control_c, 9, 4, 106
2, 3910, Control_c, 9, 4, 98
2, 3926, Note_on_c, 9, 51, 0
2, 3935, Note_on_c, 9, 48, 0
2, 3939, Note_on_c, 9, 44, 0
2, 3956, Control_c, 9, 4, 84
2, 3998, Control_c, 9, 4, 80
2, 4069, Control_c, 9, 4, 91
2, 4079, Control_c, 9, 17, 127
2, 4080, Note_on_c, 9, 51, 44
2, 4123, Control_c, 9, 4, 86
2, 4168, Note_on_c, 9, 51, 0
2, 4330, Note_on_c, 9, 36, 79
2, 4333, Control_c, 9, 4, 90
2, 4335, Control_c, 9, 17, 109
2, 4335, Note_on_c, 9, 51, 74
2, 4419, Note_on_c, 9, 36, 0
2, 4423, Note_on_c, 9, 51, 0
2, 4430, Control_c, 9, 4, 77
2, 4474, Control_c, 9, 4, 58
2, 4510, Control_c, 9, 4, 0
2, 4560, Control_c, 9, 4, 66
2, 4562, Control_c, 9, 17, 0
2, 4562, Note_on_c, 9, 51, 43
2, 4564, Note_on_c, 9, 44, 87
2, 4590, Control_c, 9, 4, 100
2, 4651, Note_on_c, 9, 44, 0
2, 4651, Note_on_c, 9, 51, 0
2, 4666, Control_c, 9, 4, 85
2, 4698, Control_c, 9, 17, 90
2, 4698, Note_on_c, 9, 51, 57
2, 4786, Note_on_c, 9, 51, 0
2, 4810, Control_c, 9, 17, 99
2, 4811, Note_on_c, 9, 51, 57
2, 4899, Note_on_c, 9, 51, 0
2, 5043, Control_c, 9, 17, 127
2, 5043, Note_on_c, 9, 51, 92
2, 5045, Control_c, 9, 4, 90
2, 5048, Control_c, 9, 16, 36
2, 5049, Note_on_c, 9, 40, 61
2, 5113, Control_c, 9, 16, 0
2, 5114, Note_on_c, 9, 38, 19
2, 5131, Note_on_c, 9, 51, 0
2, 5137, Note_on_c, 9, 40, 0
2, 5164, Control_c, 9, 4, 77
2, 5197, Control_c, 9, 4, 56
2, 5202, Note_on_c, 9, 38, 0
2, 5230, Control_c, 9, 4, 0
2, 5281, Control_c, 9, 4, 50
2, 5284, Note_on_c, 9, 59, 35
2, 5288, Note_on_c, 9, 44, 93
2, 5315, Control_c, 9, 4, 102
2, 5362, Control_c, 9, 4, 91
2, 5372, Note_on_c, 9, 59, 0
2, 5376, Note_on_c, 9, 44, 0
2, 5393, Control_c, 9, 4, 84
2, 5494, Control_c, 9, 4, 90
2, 5526, Control_c, 9, 17, 34
2, 5526, Note_on_c, 9, 51, 68
2, 5553, Control_c, 9, 4, 94
2, 5615, Note_on_c, 9, 51, 0
2, 5617, Control_c, 9, 4, 82
2, 5649, Control_c, 9, 4, 70
2, 5692, Control_c, 9, 4, 0
2, 5755, Control_c, 9, 4, 64
2, 5758, Note_on_c, 9, 44, 106
2, 5772, Control_c, 9, 17, 115
2, 5773, Note_on_c, 9, 51, 90
2, 5780, Note_on_c, 9, 48, 62
2, 5786, Control_c, 9, 4, 100
2, 5821, Control_c, 9, 4, 95
2, 5847, Note_on_c, 9, 44, 0
2, 5861, Control_c, 9, 4, 84
2, 5861, Note_on_c, 9, 51, 0
2, 5867, Note_on_c, 9, 48, 0
2, 5965, Control_c, 9, 4, 89
2, 6009, Control_c, 9, 17, 127
2, 6009, Note_on_c, 9, 51, 41
2, 6021, Control_c, 9, 4, 85
2, 6097, Note_on_c, 9, 51, 0
2, 6230, Control_c, 9, 4, 90
2, 6248, Note_on_c, 9, 36, 78
2, 6261, Control_c, 9, 17, 99
2, 6261, Note_on_c, 9, 51, 92
2, 6321, Control_c, 9, 4, 84
2, 6336, Note_on_c, 9, 36, 0
2, 6350, Note_on_c, 9, 51, 0
2, 6361, Control_c, 9, 4, 71
2, 6404, Control_c, 9, 4, 47
2, 6435, Control_c, 9, 4, 0
2, 6478, Control_c, 9, 4, 65
2, 6481, Control_c, 9, 17, 127
2, 6481, Note_on_c, 9, 44, 80
2, 6483, Note_on_c, 9, 51, 61
2, 6508, Control_c, 9, 4, 102
2, 6556, Control_c, 9, 4, 94
2, 6569, Note_on_c, 9, 44, 0
2, 6569, Note_on_c, 9, 51, 0
2, 6595, Control_c, 9, 4, 84
2, 6618, Control_c, 9, 17, 43
2, 6619, Note_on_c, 9, 51, 61
2, 6706, Note_on_c, 9, 51, 0
2, 6712, Control_c, 9, 4, 89
2, 6744, Control_c, 9, 17, 64
2, 6745, Note_on_c, 9, 51, 58
2, 6763, Control_c, 9, 4, 85
2, 6833, Note_on_c, 9, 51, 0
2, 6939, Control_c, 9, 4, 90
2, 6964, Note_on_c, 9, 40, 63
2, 6966, Control_c, 9, 17, 127
2, 6967, Note_on_c, 9, 51, 86
2, 7037, Control_c, 9, 4, 83
2, 7043, Control_c, 9, 16, 0
2, 7043, Note_on_c, 9, 38, 6
2, 7051, Note_on_c, 9, 40, 0
2, 7054, Note_on_c, 9, 51, 0
2, 7079, Control_c, 9, 4, 71
2, 7131, Note_on_c, 9, 38, 0
2, 7142, Control_c, 9, 4, 35
2, 7175, Control_c, 9, 4, 0
2, 7209, Control_c, 9, 4, 64
2, 7212, Control_c, 9, 17, 0
2, 7213, Note_on_c, 9, 51, 46
2, 7215, Note_on_c, 9, 44, 74
2, 7240, Control_c, 9, 4, 110
2, 7283, Control_c, 9, 4, 97
2, 7301, Note_on_c, 9, 44, 0
2, 7301, Note_on_c, 9, 51, 0
2, 7321, Control_c, 9, 4, 83
2, 7353, Control_c, 9, 4, 79
2, 7435, Control_c, 9, 4, 94
2, 7451, Control_c, 9, 17, 51
2, 7452, Note_on_c, 9, 51, 74
2, 7533, Control_c, 9, 4, 90
2, 7540, Note_on_c, 9, 51, 0
2, 7571, Control_c, 9, 4, 77
2, 7610, Control_c, 9, 4, 57
2, 7644, Control_c, 9, 4, 0
2, 7645, End_track
0, 0, End_of_file
