0, 0, Header, 1, 2, 480
1, 0, Start_track
1, 0, Tempo, 588235
1, 0, Time_signature, 4, 2, 24, 8
1, 0, Key_signature, 0, "major"
1, 1, End_track
2, 0, Start_track
2, 0, Title_t, "Classic Studio Kit"
2, 0, Program_c, 9, 0
2, 0, Control_c, 9, 17, 57
2, 11, Note_on_c, 9, 48, 66
2, 60, Control_c, 9, 4, 112
2, 92, Note_on_c, 9, 48, 0
2, 120, Control_c, 9, 17, 44
2, 121, Note_on_c, 9, 51, 80
2, 128, Control_c, 9, 4, 92
2, 178, Control_c, 9, 4, 70
2, 202, Note_on_c, 9, 51, 0
2, 210, Control_c, 9, 4, 0
2, 268, Note_on_c, 9, 44, 127
2, 275, Control_c, 9, 4, 127
2, 278, Note_on_c, 9, 36, 71
2, 318, Control_c, 9, 4, 118
2, 350, Note_on_c, 9, 44, 0
2, 354, Control_c, 9, 4, 89
2, 361, Note_on_c, 9, 36, 0
2, 393, Control_c, 9, 4, 76
2, 438, Control_c, 9, 4, 62
2, 472, Control_c, 9, 4, 70
2, 472, Note_on_c, 9, 46, 6
2, 481, Note_on_c, 9, 44, 9
2, 482, Note_on_c, 9, 46, 0
2, 482, Note_on_c, 9, 46, 26
2, 505, Control_c, 9, 4, 99
2, 513, Control_c, 9, 17, 27
2, 514, Note_on_c, 9, 36, 85
2, 514, Note_on_c, 9, 51, 93
2, 517, Control_c, 9, 16, 0
2, 518, Note_on_c, 9, 38, 76
2, 545, Control_c, 9, 4, 92
2, 554, Note_on_c, 9, 46, 0
2, 561, Note_on_c, 9, 44, 0
2, 591, Control_c, 9, 4, 88
2, 595, Note_on_c, 9, 51, 0
2, 596, Note_on_c, 9, 36, 0
2, 599, Note_on_c, 9, 38, 0
2, 734, Control_c, 9, 4, 110
2, 752, Control_c, 9, 17, 67
2, 753, Note_on_c, 9, 51, 70
2, 785, Control_c, 9, 4, 98
2, 823, Control_c, 9, 4, 84
2, 834, Note_on_c, 9, 51, 0
2, 851, Note_on_c, 9, 36, 46
2, 857, Control_c, 9, 4, 70
2, 867, Control_c, 9, 18, 0
2, 867, Note_on_c, 9, 48, 49
2, 894, Control_c, 9, 4, 0
2, 933, Note_on_c, 9, 36, 0
2, 941, Control_c, 9, 17, 60
2, 942, Note_on_c, 9, 51, 51
2, 949, Note_on_c, 9, 48, 0
2, 963, Control_c, 9, 4, 34
2, 969, Note_on_c, 9, 44, 127
2, 989, Note_on_c, 9, 48, 61
2, 995, Control_c, 9, 4, 120
2, 1022, Note_on_c, 9, 51, 0
2, 1033, Control_c, 9, 4, 102
2, 1051, Note_on_c, 9, 44, 0
2, 1071, Control_c, 9, 4, 89
2, 1071, Note_on_c, 9, 48, 0
2, 1083, Control_c, 9, 17, 80
2, 1084, Note_on_c, 9, 51, 75
2, 1165, Note_on_c, 9, 51, 0
2, 1192, Control_c, 9, 4, 102
2, 1214, Note_on_c, 9, 36, 40
2, 1243, Control_c, 9, 4, 92
2, 1297, Note_on_c, 9, 36, 0
2, 1453, Control_c, 9, 17, 16
2, 1453, Note_on_c, 9, 36, 65
2, 1453, Note_on_c, 9, 51, 92
2, 1462, Note_on_c, 9, 38, 74
2, 1534, Note_on_c, 9, 36, 0
2, 1534, Note_on_c, 9, 51, 0
2, 1542, Note_on_c, 9, 38, 0
2, 1568, Control_c, 9, 4, 85
2, 1599, Control_c, 9, 4, 70
2, 1632, Control_c, 9, 4, 0
2, 1694, Control_c, 9, 4, 49
2, 1698, Note_on_c, 9, 44, 126
2, 1706, Control_c, 9, 17, 55
2, 1707, Note_on_c, 9, 51, 74
2, 1724, Control_c, 9, 4, 122
2, 1780, Note_on_c, 9, 44, 0
2, 1781, Control_c, 9, 4, 91
2, 1789, Note_on_c, 9, 51, 0
2, 1815, Control_c, 9, 4, 87
2, 1821, Control_c, 9, 18, 0
2, 1821, Note_on_c, 9, 48, 42
2, 1829, Note_on_c, 9, 36, 58
2, 1903, Note_on_c, 9, 48, 0
2, 1904, Control_c, 9, 17, 49
2, 1905, Note_on_c, 9, 51, 49
2, 1910, Note_on_c, 9, 36, 0
2, 1928, Control_c, 9, 4, 110
2, 1945, Note_on_c, 9, 48, 60
2, 1985, Note_on_c, 9, 51, 0
2, 2011, Control_c, 9, 4, 102
2, 2027, Note_on_c, 9, 48, 0
2, 2045, Control_c, 9, 4, 89
2, 2055, Control_c, 9, 17, 58
2, 2056, Note_on_c, 9, 51, 73
2, 2075, Control_c, 9, 4, 70
2, 2105, Control_c, 9, 4, 0
2, 2137, Note_on_c, 9, 51, 0
2, 2167, Control_c, 9, 4, 34
2, 2173, Note_on_c, 9, 44, 127
2, 2177, Note_on_c, 9, 36, 51
2, 2198, Control_c, 9, 4, 124
2, 2215, Note_on_c, 9, 49, 7
2, 2246, Control_c, 9, 4, 95
2, 2255, Note_on_c, 9, 44, 0
2, 2259, Note_on_c, 9, 36, 0
2, 2291, Control_c, 9, 4, 86
2, 2297, Note_on_c, 9, 49, 0
2, 2405, Control_c, 9, 4, 102
2, 2421, Note_on_c, 9, 36, 76
2, 2423, Control_c, 9, 17, 48
2, 2423, Note_on_c, 9, 51, 91
2, 2425, Control_c, 9, 16, 0
2, 2425, Note_on_c, 9, 38, 66
2, 2472, Control_c, 9, 4, 97
2, 2503, Note_on_c, 9, 36, 0
2, 2504, Note_on_c, 9, 51, 0
2, 2508, Note_on_c, 9, 38, 0
2, 2516, Control_c, 9, 4, 83
2, 2548, Control_c, 9, 4, 69
2, 2580, Control_c, 9, 4, 0
2, 2642, Control_c, 9, 4, 32
2, 2650, Note_on_c, 9, 44, 127
2, 2669, Control_c, 9, 17, 95
2, 2669, Note_on_c, 9, 51, 64
2, 2674, Control_c, 9, 4, 120
2, 2716, Control_c, 9, 4, 98
2, 2730, Note_on_c, 9, 44, 0
2, 2752, Control_c, 9, 4, 87
2, 2752, Note_on_c, 9, 51, 0
2, 2780, Control_c, 9, 18, 0
2, 2780, Note_on_c, 9, 36, 61
2, 2782, Note_on_c, 9, 48, 43
2, 2862, Control_c, 9, 17, 61
2, 2862, Note_on_c, 9, 51, 51
2, 2865, Note_on_c, 9, 36, 0
2, 2865, Note_on_c, 9, 48, 0
2, 2876, Control_c, 9, 4, 102
2, 2900, Note_on_c, 9, 48, 63
2, 2944, Note_on_c, 9, 51, 0
2, 2982, Note_on_c, 9, 48, 0
2, 2987, Control_c, 9, 4, 91
2, 3005, Control_c, 9, 17, 49
2, 3006, Note_on_c, 9, 51, 76
2, 3029, Control_c, 9, 4, 73
2, 3070, Control_c, 9, 4, 0
2, 3088, Note_on_c, 9, 51, 0
2, 3120, Control_c, 9, 4, 49
2, 3124, Note_on_c, 9, 44, 113
2, 3131, Note_on_c, 9, 36, 51
2, 3150, Control_c, 9, 4, 120
2, 3166, Note_on_c, 9, 49, 5
2, 3204, Control_c, 9, 4, 91
2, 3206, Note_on_c, 9, 44, 0
2, 3213, Note_on_c, 9, 36, 0
2, 3235, Control_c, 9, 4, 86
2, 3249, Note_on_c, 9, 49, 0
2, 3353, Control_c, 9, 4, 97
2, 3372, Note_on_c, 9, 36, 67
2, 3381, Control_c, 9, 17, 17
2, 3382, Note_on_c, 9, 51, 85
2, 3386, Note_on_c, 9, 38, 60
2, 3454, Note_on_c, 9, 36, 0
2, 3465, Note_on_c, 9, 51, 0
2, 3468, Note_on_c, 9, 38, 0
2, 3482, Control_c, 9, 4, 85
2, 3518, Control_c, 9, 4, 71
2, 3560, Control_c, 9, 4, 0
2, 3608, Control_c, 9, 4, 33
2, 3614, Note_on_c, 9, 44, 113
2, 3628, Control_c, 9, 17, 94
2, 3628, Note_on_c, 9, 51, 73
2, 3640, Control_c, 9, 4, 120
2, 3696, Note_on_c, 9, 44, 0
2, 3697, Control_c, 9, 4, 91
2, 3711, Note_on_c, 9, 51, 0
2, 3727, Control_c, 9, 4, 86
2, 3746, Control_c, 9, 17, 94
2, 3746, Note_on_c, 9, 51, 5
2, 3749, Control_c, 9, 18, 0
2, 3750, Note_on_c, 9, 36, 57
2, 3750, Note_on_c, 9, 48, 46
2, 3803, Control_c, 9, 17, 41
2, 3803, Note_on_c, 9, 51, 0
2, 3804, Note_on_c, 9, 51, 55
2, 3828, Note_on_c, 9, 51, 0
2, 3830, Note_on_c, 9, 48, 0
2, 3831, Note_on_c, 9, 36, 0
2, 3845, Control_c, 9, 4, 99
2, 3862, Note_on_c, 9, 48, 68
2, 3944, Note_on_c, 9, 48, 0
2, 3948, Control_c, 9, 17, 20
2, 3949, Note_on_c, 9, 51, 78
2, 3971, Control_c, 9, 4, 86
2, 4004, Control_c, 9, 4, 70
2, 4031, Note_on_c, 9, 51, 0
2, 4042, Control_c, 9, 4, 0
2, 4086, Control_c, 9, 4, 48
2, 4091, Note_on_c, 9, 44, 113
2, 4094, Note_on_c, 9, 36, 49
2, 4117, Control_c, 9, 4, 126
2, 4134, Note_on_c, 9, 49, 6
2, 4163, Control_c, 9, 4, 94
2, 4173, Note_on_c, 9, 44, 0
2, 4175, Note_on_c, 9, 36, 0
2, 4198, Control_c, 9, 4, 84
2, 4215, Note_on_c, 9, 49, 0
2, 4313, Control_c, 9, 4, 97
2, 4330, Note_on_c, 9, 36, 65
2, 4334, Control_c, 9, 17, 5
2, 4335, Note_on_c, 9, 51, 94
2, 4339, Control_c, 9, 16, 0
2, 4340, Note_on_c, 9, 38, 71
2, 4413, Note_on_c, 9, 36, 0
2, 4415, Note_on_c, 9, 51, 0
2, 4421, Note_on_c, 9, 38, 0
2, 4436, Control_c, 9, 4, 85
2, 4472, Control_c, 9, 4, 71
2, 4517, Control_c, 9, 4, 0
2, 4565, Control_c, 9, 4, 49
2, 4570, Note_on_c, 9, 44, 113
2, 4577, Control_c, 9, 17, 37
2, 4578, Note_on_c, 9, 51, 80
2, 4595, Control_c, 9, 4, 120
2, 4637, Control_c, 9, 4, 97
2, 4651, Note_on_c, 9, 44, 0
2, 4658, Note_on_c, 9, 51, 0
2, 4677, Control_c, 9, 4, 85
2, 4693, Control_c, 9, 18, 0
2, 4694, Note_on_c, 9, 48, 49
2, 4699, Note_on_c, 9, 36, 61
2, 4775, Note_on_c, 9, 48, 0
2, 4781, Note_on_c, 9, 36, 0
2, 4806, Control_c, 9, 4, 108
2, 4812, Control_c, 9, 18, 0
2, 4813, Note_on_c, 9, 48, 72
2, 4824, Control_c, 9, 17, 72
2, 4824, Note_on_c, 9, 51, 51
2, 4860, Control_c, 9, 4, 102
2, 4894, Note_on_c, 9, 48, 0
2, 4901, Control_c, 9, 4, 90
2, 4906, Note_on_c, 9, 51, 0
2, 4943, Control_c, 9, 4, 72
2, 4951, Control_c, 9, 17, 38
2, 4951, Note_on_c, 9, 51, 82
2, 4985, Control_c, 9, 4, 0
2, 5033, Note_on_c, 9, 51, 0
2, 5038, Control_c, 9, 4, 32
2, 5045, Note_on_c, 9, 44, 119
2, 5049, Note_on_c, 9, 36, 50
2, 5071, Control_c, 9, 4, 118
2, 5121, Control_c, 9, 4, 91
2, 5128, Note_on_c, 9, 44, 0
2, 5131, Note_on_c, 9, 36, 0
2, 5161, Control_c, 9, 4, 87
2, 5271, Control_c, 9, 4, 92
2, 5299, Control_c, 9, 17, 6
2, 5299, Note_on_c, 9, 36, 64
2, 5299, Note_on_c, 9, 51, 88
2, 5307, Note_on_c, 9, 38, 65
2, 5382, Note_on_c, 9, 36, 0
2, 5382, Note_on_c, 9, 51, 0
2, 5388, Note_on_c, 9, 38, 0
2, 5408, Control_c, 9, 4, 85
2, 5445, Control_c, 9, 4, 71
2, 5485, Control_c, 9, 4, 0
2, 5539, Control_c, 9, 4, 48
2, 5541, Control_c, 9, 17, 72
2, 5542, Note_on_c, 9, 51, 81
2, 5544, Note_on_c, 9, 44, 113
2, 5569, Control_c, 9, 4, 120
2, 5610, Control_c, 9, 4, 96
2, 5624, Note_on_c, 9, 51, 0
2, 5625, Note_on_c, 9, 44, 0
2, 5648, Control_c, 9, 4, 84
2, 5656, Control_c, 9, 18, 21
2, 5656, Note_on_c, 9, 48, 45
2, 5679, Note_on_c, 9, 36, 46
2, 5738, Note_on_c, 9, 48, 0
2, 5761, Note_on_c, 9, 36, 0
2, 5762, Control_c, 9, 4, 99
2, 5784, Control_c, 9, 18, 0
2, 5784, Note_on_c, 9, 48, 63
2, 5792, Control_c, 9, 17, 75
2, 5793, Note_on_c, 9, 51, 54
2, 5858, Control_c, 9, 4, 94
2, 5865, Note_on_c, 9, 48, 0
2, 5874, Note_on_c, 9, 51, 0
2, 5905, Control_c, 9, 4, 83
2, 5918, Control_c, 9, 17, 92
2, 5918, Note_on_c, 9, 51, 69
2, 5951, Control_c, 9, 4, 54
2, 5986, Control_c, 9, 4, 0
2, 6000, Note_on_c, 9, 51, 0
2, 6021, Control_c, 9, 4, 49
2, 6026, Note_on_c, 9, 44, 93
2, 6034, Note_on_c, 9, 36, 54
2, 6051, Control_c, 9, 4, 120
2, 6088, Control_c, 9, 4, 97
2, 6108, Note_on_c, 9, 44, 0
2, 6116, Note_on_c, 9, 36, 0
2, 6125, Control_c, 9, 4, 84
2, 6250, Control_c, 9, 4, 95
2, 6268, Control_c, 9, 17, 27
2, 6269, Note_on_c, 9, 51, 87
2, 6278, Note_on_c, 9, 36, 58
2, 6284, Control_c, 9, 16, 0
2, 6284, Note_on_c, 9, 38, 69
2, 6350, Note_on_c, 9, 51, 0
2, 6361, Note_on_c, 9, 36, 0
2, 6366, Note_on_c, 9, 38, 0
2, 6389, Control_c, 9, 4, 83
2, 6425, Control_c, 9, 4, 70
2, 6469, Control_c, 9, 4, 0
2, 6512, Control_c, 9, 4, 48
2, 6517, Note_on_c, 9, 44, 93
2, 6522, Control_c, 9, 17, 65
2, 6522, Note_on_c, 9, 51, 75
2, 6542, Control_c, 9, 4, 120
2, 6579, Control_c, 9, 4, 100
2, 6598, Note_on_c, 9, 44, 0
2, 6603, Note_on_c, 9, 51, 0
2, 6618, Control_c, 9, 4, 85
2, 6639, Note_on_c, 9, 48, 46
2, 6649, Note_on_c, 9, 36, 51
2, 6721, Note_on_c, 9, 48, 0
2, 6731, Note_on_c, 9, 36, 0
2, 6738, Control_c, 9, 4, 97
2, 6765, Control_c, 9, 18, 0
2, 6766, Note_on_c, 9, 48, 67
2, 6769, Control_c, 9, 17, 65
2, 6770, Note_on_c, 9, 51, 53
2, 6847, Note_on_c, 9, 48, 0
2, 6851, Note_on_c, 9, 51, 0
2, 6867, Control_c, 9, 4, 84
2, 6895, Control_c, 9, 17, 77
2, 6895, Note_on_c, 9, 51, 77
2, 6900, Control_c, 9, 4, 70
2, 6945, Control_c, 9, 4, 0
2, 6977, Note_on_c, 9, 51, 0
2, 6990, Control_c, 9, 4, 33
2, 6996, Note_on_c, 9, 44, 106
2, 6998, Note_on_c, 9, 36, 51
2, 7022, Control_c, 9, 4, 120
2, 7059, Control_c, 9, 4, 97
2, 7079, Note_on_c, 9, 44, 0
2, 7080, Note_on_c, 9, 36, 0
2, 7097, Control_c, 9, 4, 84
2, 7140, Control_c, 9, 17, 31
2, 7141, Note_on_c, 9, 51, 90
2, 7222, Note_on_c, 9, 51, 0
2, 7223, Control_c, 9, 4, 94
2, 7245, Note_on_c, 9, 36, 60
2, 7262, Note_on_c, 9, 38, 62
2, 7328, Note_on_c, 9, 36, 0
2, 7343, Note_on_c, 9, 38, 0
2, 7348, Control_c, 9, 4, 83
2, 7386, Control_c, 9, 4, 70
2, 7430, Control_c, 9, 4, 0
2, 7475, Control_c, 9, 4, 48
2, 7479, Note_on_c, 9, 44, 106
2, 7481, Control_c, 9, 17, 49
2, 7481, Note_on_c, 9, 51, 85
2, 7505, Control_c, 9, 4, 120
2, 7546, Control_c, 9, 4, 95
2, 7561, Note_on_c, 9, 44, 0
2, 7563, Note_on_c, 9, 51, 0
2, 7580, Control_c, 9, 4, 83
2, 7581, End_track
0, 0, End_of_file
