0, 0, Header, 1, 2, 480
1, 0, Start_track
1, 0, Tempo, 588235
1, 0, Time_signature, 4, 2, 24, 8
1, 0, Key_signature, 0, "major"
1, 1, End_track
2, 0, Start_track
2, 0, Title_t, "Classic Studio Kit"
2, 0, Program_c, 9, 0
2, 0, Control_c, 9, 17, 43
2, 9, Note_on_c, 9, 48, 93
2, 22, Control_c, 9, 4, 127
2, 62, Control_c, 9, 4, 110
2, 90, Note_on_c, 9, 48, 0
2, 95, Control_c, 9, 4, 92
2, 109, Control_c, 9, 17, 2
2, 109, Note_on_c, 9, 51, 81
2, 190, Note_on_c, 9, 51, 0
2, 222, Control_c, 9, 4, 110
2, 282, Control_c, 9, 4, 97
2, 481, Control_c, 9, 16, 0
2, 481, Note_on_c, 9, 38, 104
2, 486, Control_c, 9, 17, 0
2, 486, Note_on_c, 9, 51, 127
2, 490, Note_on_c, 9, 36, 72
2, 532, Control_c, 9, 4, 110
2, 562, Note_on_c, 9, 38, 0
2, 567, Note_on_c, 9, 51, 0
2, 571, Note_on_c, 9, 36, 0
2, 579, Control_c, 9, 4, 91
2, 614, Control_c, 9, 4, 72
2, 650, Control_c, 9, 4, 0
2, 722, Note_on_c, 9, 44, 127
2, 729, Control_c, 9, 4, 127
2, 731, Control_c, 9, 17, 35
2, 731, Note_on_c, 9, 51, 76
2, 774, Control_c, 9, 4, 118
2, 804, Note_on_c, 9, 44, 0
2, 812, Control_c, 9, 4, 91
2, 813, Note_on_c, 9, 51, 0
2, 843, Control_c, 9, 18, 0
2, 843, Note_on_c, 9, 48, 50
2, 850, Note_on_c, 9, 36, 68
2, 925, Note_on_c, 9, 48, 0
2, 933, Note_on_c, 9, 36, 0
2, 948, Control_c, 9, 4, 120
2, 961, Control_c, 9, 17, 56
2, 962, Note_on_c, 9, 51, 64
2, 973, Note_on_c, 9, 48, 73
2, 1036, Control_c, 9, 4, 102
2, 1044, Note_on_c, 9, 51, 0
2, 1053, Note_on_c, 9, 48, 0
2, 1078, Control_c, 9, 4, 82
2, 1089, Control_c, 9, 17, 17
2, 1089, Note_on_c, 9, 51, 74
2, 1123, Control_c, 9, 4, 0
2, 1170, Note_on_c, 9, 51, 0
2, 1191, Note_on_c, 9, 46, 16
2, 1195, Note_on_c, 9, 36, 78
2, 1196, Control_c, 9, 4, 17
2, 1202, Note_on_c, 9, 44, 127
2, 1227, Control_c, 9, 4, 127
2, 1271, Control_c, 9, 4, 98
2, 1272, Note_on_c, 9, 46, 0
2, 1278, Note_on_c, 9, 36, 0
2, 1284, Note_on_c, 9, 44, 0
2, 1310, Control_c, 9, 4, 88
2, 1341, Control_c, 9, 17, 0
2, 1341, Note_on_c, 9, 51, 96
2, 1422, Note_on_c, 9, 51, 0
2, 1430, Control_c, 9, 4, 118
2, 1434, Note_on_c, 9, 36, 78
2, 1454, Control_c, 9, 16, 21
2, 1454, Note_on_c, 9, 38, 100
2, 1484, Control_c, 9, 4, 96
2, 1515, Note_on_c, 9, 36, 0
2, 1526, Control_c, 9, 4, 70
2, 1536, Note_on_c, 9, 38, 0
2, 1565, Control_c, 9, 4, 0
2, 1647, Note_on_c, 9, 46, 14
2, 1655, Control_c, 9, 4, 35
2, 1661, Note_on_c, 9, 44, 127
2, 1683, Control_c, 9, 17, 10
2, 1684, Note_on_c, 9, 51, 105
2, 1686, Control_c, 9, 4, 127
2, 1727, Note_on_c, 9, 46, 0
2, 1741, Control_c, 9, 4, 98
2, 1742, Note_on_c, 9, 44, 0
2, 1766, Note_on_c, 9, 51, 0
2, 1779, Control_c, 9, 4, 71
2, 1798, Control_c, 9, 18, 0
2, 1798, Note_on_c, 9, 48, 47
2, 1800, Note_on_c, 9, 36, 58
2, 1816, Control_c, 9, 4, 48
2, 1851, Control_c, 9, 4, 10
2, 1879, Note_on_c, 9, 48, 0
2, 1883, Control_c, 9, 4, 20
2, 1883, Note_on_c, 9, 36, 0
2, 1903, Control_c, 9, 17, 57
2, 1904, Note_on_c, 9, 51, 64
2, 1905, Note_on_c, 9, 44, 61
2, 1918, Control_c, 9, 4, 127
2, 1923, Note_on_c, 9, 48, 85
2, 1955, Control_c, 9, 4, 114
2, 1985, Note_on_c, 9, 51, 0
2, 1987, Note_on_c, 9, 44, 0
2, 2002, Control_c, 9, 4, 102
2, 2005, Note_on_c, 9, 48, 0
2, 2020, Control_c, 9, 17, 5
2, 2021, Note_on_c, 9, 51, 85
2, 2033, Control_c, 9, 4, 91
2, 2103, Note_on_c, 9, 51, 0
2, 2159, Note_on_c, 9, 36, 68
2, 2164, Control_c, 9, 4, 120
2, 2202, Control_c, 9, 4, 112
2, 2235, Control_c, 9, 4, 94
2, 2241, Note_on_c, 9, 36, 0
2, 2401, Control_c, 9, 16, 0
2, 2401, Note_on_c, 9, 38, 83
2, 2404, Note_on_c, 9, 36, 78
2, 2407, Control_c, 9, 17, 0
2, 2408, Note_on_c, 9, 51, 119
2, 2421, Control_c, 9, 4, 102
2, 2482, Note_on_c, 9, 38, 0
2, 2485, Note_on_c, 9, 36, 0
2, 2488, Note_on_c, 9, 51, 0
2, 2492, Control_c, 9, 4, 90
2, 2527, Control_c, 9, 4, 73
2, 2566, Control_c, 9, 4, 0
2, 2633, Control_c, 9, 4, 35
2, 2639, Note_on_c, 9, 44, 127
2, 2649, Control_c, 9, 17, 33
2, 2650, Note_on_c, 9, 51, 77
2, 2664, Control_c, 9, 4, 127
2, 2695, Control_c, 9, 4, 120
2, 2720, Note_on_c, 9, 44, 0
2, 2731, Note_on_c, 9, 51, 0
2, 2737, Control_c, 9, 4, 92
2, 2761, Control_c, 9, 18, 0
2, 2761, Note_on_c, 9, 48, 51
2, 2772, Note_on_c, 9, 36, 65
2, 2844, Note_on_c, 9, 48, 0
2, 2853, Note_on_c, 9, 36, 0
2, 2880, Control_c, 9, 4, 120
2, 2886, Control_c, 9, 17, 62
2, 2886, Note_on_c, 9, 51, 63
2, 2891, Note_on_c, 9, 48, 77
2, 2958, Control_c, 9, 4, 112
2, 2968, Note_on_c, 9, 51, 0
2, 2972, Note_on_c, 9, 48, 0
2, 2988, Control_c, 9, 4, 91
2, 3006, Control_c, 9, 17, 33
2, 3006, Note_on_c, 9, 51, 76
2, 3023, Control_c, 9, 4, 71
2, 3057, Control_c, 9, 4, 0
2, 3088, Note_on_c, 9, 51, 0
2, 3123, Note_on_c, 9, 36, 78
2, 3128, Note_on_c, 9, 44, 127
2, 3132, Control_c, 9, 4, 127
2, 3182, Control_c, 9, 4, 116
2, 3205, Note_on_c, 9, 36, 0
2, 3210, Note_on_c, 9, 44, 0
2, 3222, Control_c, 9, 4, 90
2, 3253, Control_c, 9, 17, 48
2, 3253, Note_on_c, 9, 51, 59
2, 3335, Note_on_c, 9, 51, 0
2, 3345, Control_c, 9, 4, 97
2, 3357, Note_on_c, 9, 36, 76
2, 3374, Control_c, 9, 17, 0
2, 3374, Note_on_c, 9, 38, 106
2, 3376, Note_on_c, 9, 51, 99
2, 3383, Control_c, 9, 4, 96
2, 3414, Control_c, 9, 4, 91
2, 3440, Note_on_c, 9, 36, 0
2, 3456, Note_on_c, 9, 38, 0
2, 3456, Note_on_c, 9, 51, 0
2, 3607, Control_c, 9, 4, 97
2, 3620, Control_c, 9, 17, 26
2, 3620, Note_on_c, 9, 51, 86
2, 3645, Control_c, 9, 4, 110
2, 3701, Control_c, 9, 4, 92
2, 3702, Note_on_c, 9, 51, 0
2, 3718, Control_c, 9, 18, 0
2, 3719, Note_on_c, 9, 48, 41
2, 3738, Control_c, 9, 4, 71
2, 3769, Control_c, 9, 4, 0
2, 3799, Note_on_c, 9, 48, 0
2, 3836, Note_on_c, 9, 46, 12
2, 3844, Control_c, 9, 4, 34
2, 3850, Note_on_c, 9, 44, 127
2, 3853, Note_on_c, 9, 48, 88
2, 3854, Control_c, 9, 17, 47
2, 3855, Note_on_c, 9, 51, 74
2, 3857, Note_on_c, 9, 36, 77
2, 3875, Control_c, 9, 4, 126
2, 3917, Note_on_c, 9, 46, 0
2, 3922, Control_c, 9, 4, 99
2, 3930, Note_on_c, 9, 44, 0
2, 3933, Note_on_c, 9, 48, 0
2, 3935, Note_on_c, 9, 51, 0
2, 3936, Note_on_c, 9, 36, 0
2, 3956, Control_c, 9, 4, 89
2, 3981, Control_c, 9, 17, 43
2, 3981, Note_on_c, 9, 51, 71
2, 4061, Control_c, 9, 4, 108
2, 4063, Note_on_c, 9, 51, 0
2, 4121, Control_c, 9, 4, 97
2, 4342, Control_c, 9, 16, 0
2, 4343, Note_on_c, 9, 38, 77
2, 4348, Control_c, 9, 17, 4
2, 4348, Note_on_c, 9, 51, 121
2, 4351, Note_on_c, 9, 36, 65
2, 4377, Control_c, 9, 4, 108
2, 4424, Note_on_c, 9, 38, 0
2, 4430, Note_on_c, 9, 51, 0
2, 4433, Note_on_c, 9, 36, 0
2, 4443, Control_c, 9, 4, 91
2, 4482, Control_c, 9, 4, 72
2, 4517, Control_c, 9, 4, 0
2, 4589, Note_on_c, 9, 44, 127
2, 4590, Control_c, 9, 17, 54
2, 4590, Note_on_c, 9, 51, 81
2, 4595, Control_c, 9, 4, 127
2, 4642, Control_c, 9, 4, 120
2, 4671, Note_on_c, 9, 44, 0
2, 4672, Note_on_c, 9, 51, 0
2, 4683, Control_c, 9, 4, 91
2, 4699, Control_c, 9, 18, 0
2, 4700, Note_on_c, 9, 48, 47
2, 4725, Note_on_c, 9, 36, 76
2, 4782, Note_on_c, 9, 48, 0
2, 4807, Note_on_c, 9, 36, 0
2, 4823, Control_c, 9, 17, 85
2, 4824, Note_on_c, 9, 51, 68
2, 4831, Note_on_c, 9, 48, 72
2, 4836, Control_c, 9, 4, 110
2, 4905, Note_on_c, 9, 51, 0
2, 4911, Note_on_c, 9, 48, 0
2, 4935, Control_c, 9, 4, 92
2, 4948, Control_c, 9, 17, 41
2, 4948, Note_on_c, 9, 51, 75
2, 4968, Control_c, 9, 4, 71
2, 5000, Control_c, 9, 4, 0
2, 5030, Note_on_c, 9, 51, 0
2, 5071, Note_on_c, 9, 44, 127
2, 5075, Note_on_c, 9, 36, 71
2, 5077, Control_c, 9, 4, 127
2, 5124, Control_c, 9, 4, 118
2, 5153, Note_on_c, 9, 44, 0
2, 5157, Note_on_c, 9, 36, 0
2, 5160, Control_c, 9, 4, 90
2, 5190, Control_c, 9, 17, 13
2, 5191, Note_on_c, 9, 51, 67
2, 5194, Control_c, 9, 4, 86
2, 5252, Control_c, 9, 4, 90
2, 5271, Note_on_c, 9, 51, 0
2, 5288, Control_c, 9, 4, 96
2, 5297, Note_on_c, 9, 36, 73
2, 5307, Note_on_c, 9, 38, 79
2, 5312, Control_c, 9, 17, 0
2, 5312, Note_on_c, 9, 51, 99
2, 5351, Control_c, 9, 4, 92
2, 5378, Note_on_c, 9, 36, 0
2, 5388, Note_on_c, 9, 38, 0
2, 5394, Note_on_c, 9, 51, 0
2, 5527, Control_c, 9, 4, 102
2, 5552, Control_c, 9, 17, 4
2, 5553, Note_on_c, 9, 51, 100
2, 5616, Control_c, 9, 4, 91
2, 5634, Note_on_c, 9, 51, 0
2, 5647, Control_c, 9, 18, 0
2, 5648, Note_on_c, 9, 48, 48
2, 5656, Control_c, 9, 4, 76
2, 5697, Control_c, 9, 4, 0
2, 5730, Note_on_c, 9, 48, 0
2, 5765, Control_c, 9, 4, 49
2, 5769, Note_on_c, 9, 44, 127
2, 5785, Note_on_c, 9, 36, 65
2, 5788, Note_on_c, 9, 48, 76
2, 5789, Control_c, 9, 17, 60
2, 5790, Note_on_c, 9, 51, 70
2, 5795, Control_c, 9, 4, 127
2, 5830, Control_c, 9, 4, 112
2, 5851, Note_on_c, 9, 44, 0
2, 5861, Control_c, 9, 4, 92
2, 5867, Note_on_c, 9, 36, 0
2, 5869, Note_on_c, 9, 48, 0
2, 5870, Note_on_c, 9, 51, 0
2, 5907, Control_c, 9, 17, 11
2, 5908, Note_on_c, 9, 51, 76
2, 5975, Control_c, 9, 4, 98
2, 5989, Note_on_c, 9, 51, 0
2, 6015, Control_c, 9, 4, 98
2, 6032, Note_on_c, 9, 36, 87
2, 6069, Control_c, 9, 4, 94
2, 6113, Note_on_c, 9, 36, 0
2, 6277, Control_c, 9, 16, 0
2, 6278, Note_on_c, 9, 36, 83
2, 6278, Note_on_c, 9, 38, 77
2, 6281, Control_c, 9, 17, 2
2, 6282, Note_on_c, 9, 51, 125
2, 6327, Control_c, 9, 4, 108
2, 6359, Note_on_c, 9, 36, 0
2, 6359, Note_on_c, 9, 38, 0
2, 6362, Note_on_c, 9, 51, 0
2, 6382, Control_c, 9, 4, 91
2, 6417, Control_c, 9, 4, 71
2, 6450, Control_c, 9, 4, 0
2, 6510, Control_c, 9, 4, 34
2, 6512, Control_c, 9, 17, 27
2, 6513, Note_on_c, 9, 51, 79
2, 6516, Note_on_c, 9, 44, 127
2, 6541, Control_c, 9, 4, 127
2, 6571, Control_c, 9, 4, 116
2, 6594, Note_on_c, 9, 51, 0
2, 6597, Note_on_c, 9, 44, 0
2, 6611, Control_c, 9, 4, 91
2, 6619, Control_c, 9, 18, 0
2, 6619, Note_on_c, 9, 48, 49
2, 6641, Note_on_c, 9, 36, 64
2, 6700, Note_on_c, 9, 48, 0
2, 6723, Note_on_c, 9, 36, 0
2, 6738, Control_c, 9, 17, 67
2, 6738, Note_on_c, 9, 51, 62
2, 6747, Control_c, 9, 4, 120
2, 6750, Note_on_c, 9, 48, 72
2, 6820, Note_on_c, 9, 51, 0
2, 6831, Note_on_c, 9, 48, 0
2, 6838, Control_c, 9, 4, 97
2, 6860, Control_c, 9, 17, 33
2, 6860, Note_on_c, 9, 51, 77
2, 6872, Control_c, 9, 4, 81
2, 6910, Control_c, 9, 4, 0
2, 6943, Note_on_c, 9, 51, 0
2, 6982, Note_on_c, 9, 46, 15
2, 6987, Note_on_c, 9, 36, 74
2, 6988, Control_c, 9, 4, 35
2, 6992, Note_on_c, 9, 44, 127
2, 7018, Control_c, 9, 4, 127
2, 7058, Control_c, 9, 4, 99
2, 7062, Note_on_c, 9, 46, 0
2, 7069, Note_on_c, 9, 36, 0
2, 7075, Note_on_c, 9, 44, 0
2, 7098, Control_c, 9, 17, 57
2, 7098, Note_on_c, 9, 51, 54
2, 7102, Control_c, 9, 4, 88
2, 7179, Note_on_c, 9, 51, 0
2, 7204, Control_c, 9, 4, 112
2, 7216, Note_on_c, 9, 36, 83
2, 7222, Control_c, 9, 16, 0
2, 7223, Note_on_c, 9, 38, 90
2, 7225, Control_c, 9, 17, 2
2, 7226, Note_on_c, 9, 51, 89
2, 7236, Control_c, 9, 4, 102
2, 7290, Control_c, 9, 4, 91
2, 7297, Note_on_c, 9, 36, 0
2, 7304, Note_on_c, 9, 38, 0
2, 7306, Note_on_c, 9, 51, 0
2, 7424, Control_c, 9, 4, 106
2, 7462, Control_c, 9, 4, 104
2, 7466, Control_c, 9, 17, 24
2, 7467, Note_on_c, 9, 51, 82
2, 7501, Control_c, 9, 4, 98
2, 7548, Note_on_c, 9, 51, 0
2, 7572, Control_c, 9, 18, 0
2, 7573, Note_on_c, 9, 48, 45
2, 7653, Note_on_c, 9, 48, 0
2, 7662, Control_c, 9, 4, 108
2, 7663, End_track
0, 0, End_of_file
