0, 0, Header, 1, 2, 480
1, 0, Start_track
1, 0, Tempo, 705882
1, 0, Time_signature, 4, 2, 24, 8
1, 0, Time_signature, 4, 2, 24, 8
1, 0, Key_signature, 0, "major"
1, 1, End_track
2, 0, Start_track
2, 0, Title_t, "SoCal"
2, 0, Program_c, 9, 0
2, 0, Control_c, 9, 16, 0
2, 12, Control_c, 9, 4, 32
2, 24, Note_on_c, 9, 44, 54
2, 39, Note_on_c, 9, 36, 57
2, 42, Control_c, 9, 16, 0
2, 42, Note_on_c, 9, 38, 37
2, 45, Control_c, 9, 4, 92
2, 92, Note_on_c, 9, 44, 0
2, 93, Control_c, 9, 4, 98
2, 107, Note_on_c, 9, 36, 0
2, 110, Note_on_c, 9, 38, 0
2, 147, Control_c, 9, 4, 87
2, 154, Control_c, 9, 16, 0
2, 154, Note_on_c, 9, 38, 28
2, 166, Note_on_c, 9, 46, 7
2, 192, Control_c, 9, 4, 67
2, 222, Control_c, 9, 4, 30
2, 222, Note_on_c, 9, 38, 0
2, 233, Note_on_c, 9, 46, 0
2, 256, Control_c, 9, 4, 45
2, 268, Note_on_c, 9, 44, 41
2, 278, Control_c, 9, 16, 0
2, 278, Note_on_c, 9, 38, 57
2, 290, Control_c, 9, 4, 98
2, 336, Note_on_c, 9, 44, 0
2, 347, Note_on_c, 9, 38, 0
2, 357, Control_c, 9, 4, 92
2, 396, Control_c, 9, 4, 80
2, 403, Control_c, 9, 16, 0
2, 403, Note_on_c, 9, 40, 16
2, 435, Control_c, 9, 4, 0
2, 472, Note_on_c, 9, 40, 0
2, 492, Control_c, 9, 4, 32
2, 502, Note_on_c, 9, 44, 74
2, 509, Control_c, 9, 16, 0
2, 509, Note_on_c, 9, 38, 37
2, 522, Control_c, 9, 4, 68
2, 522, Note_on_c, 9, 36, 43
2, 553, Control_c, 9, 4, 0
2, 570, Note_on_c, 9, 44, 0
2, 577, Note_on_c, 9, 38, 0
2, 591, Note_on_c, 9, 36, 0
2, 632, Control_c, 9, 16, 0
2, 632, Note_on_c, 9, 38, 25
2, 639, Note_on_c, 9, 36, 37
2, 701, Note_on_c, 9, 38, 0
2, 708, Note_on_c, 9, 36, 0
2, 738, Control_c, 9, 4, 32
2, 750, Note_on_c, 9, 44, 54
2, 757, Control_c, 9, 16, 0
2, 758, Note_on_c, 9, 38, 50
2, 771, Control_c, 9, 4, 92
2, 812, Control_c, 9, 4, 98
2, 818, Note_on_c, 9, 44, 0
2, 825, Note_on_c, 9, 38, 0
2, 874, Control_c, 9, 4, 87
2, 876, Control_c, 9, 16, 0
2, 877, Note_on_c, 9, 38, 44
2, 913, Control_c, 9, 4, 69
2, 945, Control_c, 9, 4, 30
2, 945, Note_on_c, 9, 38, 0
2, 977, Control_c, 9, 4, 44
2, 992, Note_on_c, 9, 44, 35
2, 995, Control_c, 9, 16, 0
2, 995, Note_on_c, 9, 38, 36
2, 1003, Note_on_c, 9, 36, 52
2, 1013, Control_c, 9, 4, 98
2, 1060, Note_on_c, 9, 44, 0
2, 1063, Note_on_c, 9, 38, 0
2, 1071, Note_on_c, 9, 36, 0
2, 1081, Control_c, 9, 4, 92
2, 1112, Control_c, 9, 16, 0
2, 1112, Note_on_c, 9, 38, 29
2, 1129, Control_c, 9, 4, 80
2, 1143, Note_on_c, 9, 46, 8
2, 1167, Control_c, 9, 4, 0
2, 1180, Note_on_c, 9, 38, 0
2, 1212, Note_on_c, 9, 46, 0
2, 1216, Control_c, 9, 4, 17
2, 1228, Note_on_c, 9, 44, 74
2, 1232, Control_c, 9, 16, 0
2, 1232, Note_on_c, 9, 38, 57
2, 1249, Control_c, 9, 4, 69
2, 1292, Control_c, 9, 4, 0
2, 1297, Note_on_c, 9, 44, 0
2, 1301, Note_on_c, 9, 38, 0
2, 1352, Control_c, 9, 16, 0
2, 1353, Note_on_c, 9, 38, 25
2, 1421, Note_on_c, 9, 38, 0
2, 1452, Control_c, 9, 4, 32
2, 1465, Note_on_c, 9, 44, 48
2, 1467, Control_c, 9, 16, 0
2, 1468, Note_on_c, 9, 38, 36
2, 1471, Note_on_c, 9, 36, 47
2, 1486, Control_c, 9, 4, 92
2, 1526, Control_c, 9, 4, 98
2, 1533, Note_on_c, 9, 44, 0
2, 1535, Note_on_c, 9, 38, 0
2, 1539, Note_on_c, 9, 36, 0
2, 1574, Control_c, 9, 4, 91
2, 1584, Note_on_c, 9, 36, 37
2, 1591, Control_c, 9, 16, 0
2, 1591, Note_on_c, 9, 38, 26
2, 1615, Control_c, 9, 4, 78
2, 1616, Note_on_c, 9, 46, 8
2, 1648, Control_c, 9, 4, 36
2, 1652, Note_on_c, 9, 36, 0
2, 1660, Note_on_c, 9, 38, 0
2, 1678, Control_c, 9, 4, 3
2, 1684, Note_on_c, 9, 46, 0
2, 1707, Note_on_c, 9, 44, 67
2, 1711, Control_c, 9, 4, 94
2, 1711, Control_c, 9, 16, 0
2, 1712, Note_on_c, 9, 38, 51
2, 1749, Control_c, 9, 4, 95
2, 1775, Note_on_c, 9, 44, 0
2, 1780, Note_on_c, 9, 38, 0
2, 1815, Control_c, 9, 4, 88
2, 1835, Control_c, 9, 16, 0
2, 1835, Note_on_c, 9, 38, 44
2, 1851, Control_c, 9, 4, 69
2, 1881, Control_c, 9, 4, 0
2, 1904, Note_on_c, 9, 38, 0
2, 1941, Note_on_c, 9, 44, 67
2, 1947, Control_c, 9, 4, 88
2, 1951, Control_c, 9, 16, 0
2, 1952, Note_on_c, 9, 38, 37
2, 1954, Note_on_c, 9, 36, 53
2, 1988, Control_c, 9, 4, 0
2, 2009, Note_on_c, 9, 44, 0
2, 2020, Note_on_c, 9, 38, 0
2, 2022, Note_on_c, 9, 36, 0
2, 2070, Control_c, 9, 16, 0
2, 2071, Note_on_c, 9, 38, 26
2, 2138, Note_on_c, 9, 38, 0
2, 2172, Control_c, 9, 4, 33
2, 2183, Note_on_c, 9, 44, 54
2, 2190, Control_c, 9, 16, 0
2, 2190, Note_on_c, 9, 38, 56
2, 2204, Control_c, 9, 4, 93
2, 2245, Control_c, 9, 4, 98
2, 2251, Note_on_c, 9, 44, 0
2, 2258, Note_on_c, 9, 38, 0
2, 2305, Control_c, 9, 4, 87
2, 2309, Control_c, 9, 16, 0
2, 2309, Note_on_c, 9, 40, 20
2, 2338, Control_c, 9, 4, 69
2, 2371, Control_c, 9, 4, 30
2, 2377, Note_on_c, 9, 40, 0
2, 2404, Control_c, 9, 4, 44
2, 2418, Note_on_c, 9, 44, 35
2, 2421, Control_c, 9, 16, 0
2, 2421, Note_on_c, 9, 38, 38
2, 2439, Control_c, 9, 4, 96
2, 2439, Note_on_c, 9, 36, 44
2, 2487, Note_on_c, 9, 44, 0
2, 2490, Note_on_c, 9, 38, 0
2, 2509, Note_on_c, 9, 36, 0
2, 2541, Control_c, 9, 16, 21
2, 2542, Note_on_c, 9, 38, 22
2, 2551, Note_on_c, 9, 36, 42
2, 2552, Control_c, 9, 4, 80
2, 2552, Note_on_c, 9, 46, 6
2, 2589, Control_c, 9, 4, 0
2, 2610, Note_on_c, 9, 38, 0
2, 2619, Note_on_c, 9, 36, 0
2, 2620, Note_on_c, 9, 46, 0
2, 2652, Control_c, 9, 4, 33
2, 2662, Note_on_c, 9, 44, 67
2, 2677, Control_c, 9, 16, 0
2, 2677, Note_on_c, 9, 38, 51
2, 2683, Control_c, 9, 4, 68
2, 2721, Control_c, 9, 4, 0
2, 2730, Note_on_c, 9, 44, 0
2, 2745, Note_on_c, 9, 38, 0
2, 2803, Control_c, 9, 16, 0
2, 2803, Note_on_c, 9, 38, 44
2, 2871, Note_on_c, 9, 38, 0
2, 2892, Control_c, 9, 4, 32
2, 2903, Note_on_c, 9, 44, 54
2, 2913, Control_c, 9, 16, 0
2, 2914, Note_on_c, 9, 38, 39
2, 2920, Note_on_c, 9, 36, 52
2, 2924, Control_c, 9, 4, 92
2, 2968, Control_c, 9, 4, 98
2, 2971, Note_on_c, 9, 44, 0
2, 2982, Note_on_c, 9, 38, 0
2, 2988, Note_on_c, 9, 36, 0
2, 3004, Control_c, 9, 4, 92
2, 3032, Control_c, 9, 16, 0
2, 3033, Note_on_c, 9, 38, 27
2, 3052, Control_c, 9, 4, 81
2, 3097, Control_c, 9, 4, 57
2, 3100, Note_on_c, 9, 38, 0
2, 3130, Control_c, 9, 4, 62
2, 3146, Note_on_c, 9, 44, 15
2, 3151, Control_c, 9, 16, 0
2, 3152, Note_on_c, 9, 38, 60
2, 3167, Control_c, 9, 4, 89
2, 3213, Control_c, 9, 4, 81
2, 3214, Note_on_c, 9, 44, 0
2, 3219, Note_on_c, 9, 38, 0
2, 3252, Control_c, 9, 4, 0
2, 3275, Control_c, 9, 16, 106
2, 3275, Note_on_c, 9, 38, 26
2, 3328, Control_c, 9, 4, 11
2, 3337, Note_on_c, 9, 46, 6
2, 3344, Note_on_c, 9, 38, 0
2, 3358, Control_c, 9, 4, 0
2, 3377, Control_c, 9, 16, 0
2, 3377, Note_on_c, 9, 38, 39
2, 3396, Note_on_c, 9, 36, 42
2, 3405, Note_on_c, 9, 46, 0
2, 3445, Note_on_c, 9, 38, 0
2, 3446, Control_c, 9, 4, 16
2, 3464, Note_on_c, 9, 36, 0
2, 3469, Note_on_c, 9, 44, 35
2, 3478, Control_c, 9, 4, 82
2, 3513, Control_c, 9, 4, 38
2, 3532, Control_c, 9, 16, 0
2, 3533, Note_on_c, 9, 38, 18
2, 3537, Note_on_c, 9, 44, 0
2, 3544, Control_c, 9, 4, 9
2, 3601, Note_on_c, 9, 38, 0
2, 3631, Control_c, 9, 16, 21
2, 3631, Note_on_c, 9, 38, 56
2, 3699, Note_on_c, 9, 38, 0
2, 3756, Control_c, 9, 16, 0
2, 3756, Note_on_c, 9, 38, 45
2, 3809, Control_c, 9, 4, 0
2, 3824, Note_on_c, 9, 38, 0
2, 3862, Control_c, 9, 4, 28
2, 3870, Control_c, 9, 16, 0
2, 3870, Note_on_c, 9, 38, 45
2, 3872, Note_on_c, 9, 44, 61
2, 3883, Note_on_c, 9, 36, 47
2, 3894, Control_c, 9, 4, 97
2, 3938, Note_on_c, 9, 38, 0
2, 3940, Note_on_c, 9, 44, 0
2, 3951, Note_on_c, 9, 36, 0
2, 3981, Control_c, 9, 4, 86
2, 3992, Control_c, 9, 16, 0
2, 3992, Note_on_c, 9, 38, 22
2, 4014, Control_c, 9, 4, 74
2, 4046, Control_c, 9, 4, 37
2, 4061, Note_on_c, 9, 38, 0
2, 4079, Control_c, 9, 4, 9
2, 4106, Note_on_c, 9, 44, 54
2, 4110, Control_c, 9, 4, 93
2, 4115, Control_c, 9, 16, 21
2, 4115, Note_on_c, 9, 38, 58
2, 4149, Control_c, 9, 4, 95
2, 4175, Note_on_c, 9, 44, 0
2, 4184, Note_on_c, 9, 38, 0
2, 4196, Control_c, 9, 4, 89
2, 4239, Control_c, 9, 16, 0
2, 4239, Note_on_c, 9, 38, 29
2, 4247, Control_c, 9, 4, 79
2, 4280, Control_c, 9, 4, 67
2, 4307, Note_on_c, 9, 38, 0
2, 4333, Note_on_c, 9, 44, 9
2, 4347, Control_c, 9, 16, 0
2, 4348, Note_on_c, 9, 38, 40
2, 4354, Control_c, 9, 4, 92
2, 4357, Note_on_c, 9, 36, 43
2, 4400, Note_on_c, 9, 44, 0
2, 4416, Note_on_c, 9, 38, 0
2, 4425, Note_on_c, 9, 36, 0
2, 4447, Control_c, 9, 4, 87
2, 4482, Control_c, 9, 4, 69
2, 4482, Control_c, 9, 16, 21
2, 4482, Note_on_c, 9, 38, 28
2, 4526, Control_c, 9, 4, 18
2, 4551, Note_on_c, 9, 38, 0
2, 4570, Control_c, 9, 4, 45
2, 4582, Note_on_c, 9, 44, 35
2, 4603, Control_c, 9, 4, 96
2, 4603, Control_c, 9, 16, 0
2, 4603, Note_on_c, 9, 38, 54
2, 4650, Note_on_c, 9, 44, 0
2, 4673, Note_on_c, 9, 38, 0
2, 4709, Control_c, 9, 4, 87
2, 4723, Control_c, 9, 16, 0
2, 4723, Note_on_c, 9, 38, 45
2, 4752, Control_c, 9, 4, 73
2, 4787, Control_c, 9, 4, 45
2, 4791, Note_on_c, 9, 38, 0
2, 4822, Control_c, 9, 4, 58
2, 4831, Note_on_c, 9, 44, 28
2, 4836, Control_c, 9, 16, 0
2, 4837, Note_on_c, 9, 38, 39
2, 4842, Note_on_c, 9, 36, 46
2, 4852, Control_c, 9, 4, 98
2, 4899, Note_on_c, 9, 44, 0
2, 4905, Note_on_c, 9, 38, 0
2, 4911, Note_on_c, 9, 36, 0
2, 4934, Control_c, 9, 4, 87
2, 4955, Control_c, 9, 16, 0
2, 4956, Note_on_c, 9, 38, 29
2, 4976, Control_c, 9, 4, 71
2, 5010, Control_c, 9, 4, 42
2, 5024, Note_on_c, 9, 38, 0
2, 5046, Control_c, 9, 4, 46
2, 5062, Note_on_c, 9, 44, 35
2, 5076, Control_c, 9, 16, 21
2, 5076, Note_on_c, 9, 38, 54
2, 5083, Control_c, 9, 4, 98
2, 5129, Note_on_c, 9, 44, 0
2, 5143, Note_on_c, 9, 38, 0
2, 5168, Control_c, 9, 4, 89
2, 5193, Control_c, 9, 16, 0
2, 5193, Note_on_c, 9, 38, 29
2, 5222, Control_c, 9, 4, 68
2, 5258, Control_c, 9, 4, 33
2, 5261, Note_on_c, 9, 38, 0
2, 5303, Note_on_c, 9, 44, 35
2, 5305, Control_c, 9, 16, 21
2, 5305, Note_on_c, 9, 38, 38
2, 5319, Control_c, 9, 4, 98
2, 5322, Note_on_c, 9, 36, 42
2, 5351, Control_c, 9, 4, 94
2, 5371, Note_on_c, 9, 44, 0
2, 5373, Note_on_c, 9, 38, 0
2, 5390, Note_on_c, 9, 36, 0
2, 5426, Control_c, 9, 16, 0
2, 5426, Note_on_c, 9, 38, 28
2, 5434, Control_c, 9, 4, 83
2, 5437, Note_on_c, 9, 36, 37
2, 5465, Control_c, 9, 4, 68
2, 5465, Note_on_c, 9, 46, 7
2, 5494, Note_on_c, 9, 38, 0
2, 5498, Control_c, 9, 4, 31
2, 5505, Note_on_c, 9, 36, 0
2, 5533, Control_c, 9, 4, 44
2, 5533, Note_on_c, 9, 46, 0
2, 5547, Note_on_c, 9, 44, 35
2, 5549, Control_c, 9, 16, 0
2, 5549, Note_on_c, 9, 38, 49
2, 5568, Control_c, 9, 4, 96
2, 5615, Note_on_c, 9, 44, 0
2, 5618, Note_on_c, 9, 38, 0
2, 5636, Control_c, 9, 4, 92
2, 5667, Control_c, 9, 4, 88
2, 5670, Control_c, 9, 16, 0
2, 5670, Note_on_c, 9, 38, 48
2, 5711, Control_c, 9, 4, 75
2, 5738, Note_on_c, 9, 38, 0
2, 5746, Control_c, 9, 4, 45
2, 5787, Note_on_c, 9, 44, 28
2, 5788, Control_c, 9, 16, 0
2, 5788, Note_on_c, 9, 38, 38
2, 5795, Control_c, 9, 4, 94
2, 5802, Note_on_c, 9, 36, 52
2, 5834, Control_c, 9, 4, 93
2, 5855, Note_on_c, 9, 44, 0
2, 5856, Note_on_c, 9, 38, 0
2, 5871, Note_on_c, 9, 36, 0
2, 5891, Control_c, 9, 4, 89
2, 5906, Control_c, 9, 16, 0
2, 5907, Note_on_c, 9, 38, 28
2, 5946, Control_c, 9, 4, 68
2, 5975, Note_on_c, 9, 38, 0
2, 5982, Control_c, 9, 4, 39
2, 6020, Note_on_c, 9, 44, 28
2, 6027, Control_c, 9, 16, 42
2, 6027, Note_on_c, 9, 38, 54
2, 6028, Control_c, 9, 4, 94
2, 6066, Control_c, 9, 4, 94
2, 6088, Note_on_c, 9, 44, 0
2, 6095, Note_on_c, 9, 38, 0
2, 6153, Control_c, 9, 16, 0
2, 6153, Note_on_c, 9, 38, 26
2, 6155, Control_c, 9, 4, 83
2, 6185, Control_c, 9, 4, 67
2, 6221, Note_on_c, 9, 38, 0
2, 6223, Control_c, 9, 4, 39
2, 6257, Note_on_c, 9, 44, 35
2, 6263, Control_c, 9, 4, 94
2, 6267, Control_c, 9, 16, 21
2, 6267, Note_on_c, 9, 38, 35
2, 6281, Note_on_c, 9, 36, 44
2, 6299, Control_c, 9, 4, 92
2, 6325, Note_on_c, 9, 44, 0
2, 6335, Note_on_c, 9, 38, 0
2, 6350, Note_on_c, 9, 36, 0
2, 6361, Control_c, 9, 4, 88
2, 6386, Control_c, 9, 16, 0
2, 6386, Note_on_c, 9, 38, 28
2, 6392, Note_on_c, 9, 36, 39
2, 6408, Control_c, 9, 4, 76
2, 6446, Control_c, 9, 4, 45
2, 6454, Note_on_c, 9, 38, 0
2, 6461, Note_on_c, 9, 36, 0
2, 6484, Control_c, 9, 4, 50
2, 6497, Note_on_c, 9, 44, 35
2, 6505, Control_c, 9, 16, 0
2, 6505, Note_on_c, 9, 38, 51
2, 6518, Control_c, 9, 4, 95
2, 6565, Note_on_c, 9, 44, 0
2, 6573, Note_on_c, 9, 38, 0
2, 6605, Control_c, 9, 4, 89
2, 6623, Control_c, 9, 16, 0
2, 6623, Note_on_c, 9, 38, 48
2, 6653, Control_c, 9, 4, 76
2, 6688, Control_c, 9, 4, 49
2, 6692, Note_on_c, 9, 38, 0
2, 6731, Note_on_c, 9, 44, 22
2, 6747, Control_c, 9, 16, 0
2, 6748, Note_on_c, 9, 38, 33
2, 6751, Note_on_c, 9, 36, 57
2, 6753, Control_c, 9, 4, 95
2, 6800, Note_on_c, 9, 44, 0
2, 6816, Note_on_c, 9, 38, 0
2, 6819, Note_on_c, 9, 36, 0
2, 6837, Control_c, 9, 4, 90
2, 6866, Control_c, 9, 16, 0
2, 6867, Note_on_c, 9, 38, 30
2, 6896, Control_c, 9, 4, 68
2, 6933, Control_c, 9, 4, 14
2, 6935, Note_on_c, 9, 38, 0
2, 6967, Control_c, 9, 4, 42
2, 6977, Note_on_c, 9, 44, 54
2, 6985, Control_c, 9, 16, 64
2, 6985, Note_on_c, 9, 38, 56
2, 6998, Control_c, 9, 4, 95
2, 7045, Note_on_c, 9, 44, 0
2, 7054, Note_on_c, 9, 38, 0
2, 7098, Control_c, 9, 4, 89
2, 7109, Control_c, 9, 16, 0
2, 7109, Note_on_c, 9, 38, 29
2, 7137, Note_on_c, 9, 46, 7
2, 7147, Control_c, 9, 4, 67
2, 7177, Note_on_c, 9, 38, 0
2, 7181, Control_c, 9, 4, 30
2, 7205, Note_on_c, 9, 46, 0
2, 7221, Note_on_c, 9, 44, 41
2, 7228, Control_c, 9, 16, 0
2, 7228, Note_on_c, 9, 38, 32
2, 7236, Control_c, 9, 4, 102
2, 7238, Note_on_c, 9, 36, 43
2, 7267, Control_c, 9, 4, 95
2, 7290, Note_on_c, 9, 44, 0
2, 7297, Note_on_c, 9, 38, 0
2, 7307, Note_on_c, 9, 36, 0
2, 7337, Control_c, 9, 4, 89
2, 7347, Note_on_c, 9, 36, 39
2, 7349, Control_c, 9, 16, 0
2, 7349, Note_on_c, 9, 38, 27
2, 7382, Control_c, 9, 4, 73
2, 7388, Note_on_c, 9, 46, 7
2, 7416, Control_c, 9, 4, 27
2, 7416, Note_on_c, 9, 36, 0
2, 7418, Note_on_c, 9, 38, 0
2, 7450, Control_c, 9, 4, 43
2, 7456, Note_on_c, 9, 46, 0
2, 7462, Note_on_c, 9, 44, 41
2, 7469, Control_c, 9, 16, 0
2, 7469, Note_on_c, 9, 38, 54
2, 7483, Control_c, 9, 4, 98
2, 7530, Note_on_c, 9, 44, 0
2, 7538, Note_on_c, 9, 38, 0
2, 7554, Control_c, 9, 4, 92
2, 7587, Control_c, 9, 16, 0
2, 7588, Note_on_c, 9, 38, 44
2, 7595, Control_c, 9, 4, 78
2, 7627, Control_c, 9, 4, 0
2, 7656, Note_on_c, 9, 38, 0
2, 7657, End_track
0, 0, End_of_file
