0, 0, Header, 1, 2, 480
1, 0, Start_track
1, 0, Tempo, 645161
1, 0, Time_signature, 4, 2, 24, 8
1, 0, Key_signature, 0, "major"
1, 1, End_track
2, 0, Start_track
2, 0, Title_t, "Midi Drums"
2, 0, Program_c, 9, 0
2, 10, Note_on_c, 9, 36, 58
2, 29, Control_c, 9, 4, 90
2, 29, Note_on_c, 9, 22, 79
2, 85, Note_on_c, 9, 36, 0
2, 104, Note_on_c, 9, 22, 0
2, 141, Control_c, 9, 4, 90
2, 141, Note_on_c, 9, 42, 10
2, 216, Note_on_c, 9, 42, 0
2, 254, Control_c, 9, 4, 90
2, 254, Note_on_c, 9, 42, 5
2, 329, Note_on_c, 9, 42, 0
2, 372, Control_c, 9, 4, 90
2, 372, Note_on_c, 9, 22, 79
2, 447, Note_on_c, 9, 22, 0
2, 498, Control_c, 9, 4, 90
2, 498, Note_on_c, 9, 22, 63
2, 574, Note_on_c, 9, 22, 0
2, 625, Control_c, 9, 4, 90
2, 625, Note_on_c, 9, 42, 12
2, 701, Note_on_c, 9, 42, 0
2, 745, Control_c, 9, 4, 90
2, 745, Note_on_c, 9, 42, 6
2, 820, Note_on_c, 9, 42, 0
2, 859, Control_c, 9, 4, 90
2, 859, Note_on_c, 9, 22, 47
2, 935, Note_on_c, 9, 22, 0
2, 974, Note_on_c, 9, 36, 47
2, 990, Control_c, 9, 4, 90
2, 990, Note_on_c, 9, 22, 71
2, 1049, Note_on_c, 9, 36, 0
2, 1065, Note_on_c, 9, 22, 0
2, 1108, Control_c, 9, 4, 90
2, 1108, Note_on_c, 9, 42, 9
2, 1183, Note_on_c, 9, 42, 0
2, 1212, Control_c, 9, 4, 90
2, 1212, Note_on_c, 9, 42, 9
2, 1288, Note_on_c, 9, 42, 0
2, 1330, Control_c, 9, 4, 90
2, 1330, Note_on_c, 9, 42, 13
2, 1405, Note_on_c, 9, 42, 0
2, 1471, Control_c, 9, 4, 90
2, 1471, Note_on_c, 9, 22, 78
2, 1489, Note_on_c, 9, 36, 45
2, 1546, Note_on_c, 9, 22, 0
2, 1564, Note_on_c, 9, 36, 0
2, 1595, Control_c, 9, 4, 90
2, 1595, Note_on_c, 9, 42, 6
2, 1671, Note_on_c, 9, 42, 0
2, 1707, Control_c, 9, 4, 90
2, 1707, Note_on_c, 9, 42, 11
2, 1783, Note_on_c, 9, 42, 0
2, 1818, Control_c, 9, 4, 90
2, 1818, Note_on_c, 9, 42, 39
2, 1894, Note_on_c, 9, 42, 0
2, 1944, Control_c, 9, 4, 90
2, 1944, Note_on_c, 9, 22, 85
2, 1947, Note_on_c, 9, 36, 49
2, 2019, Note_on_c, 9, 22, 0
2, 2022, Note_on_c, 9, 36, 0
2, 2066, Control_c, 9, 4, 90
2, 2066, Note_on_c, 9, 42, 16
2, 2142, Note_on_c, 9, 42, 0
2, 2171, Control_c, 9, 4, 90
2, 2171, Note_on_c, 9, 42, 7
2, 2247, Note_on_c, 9, 42, 0
2, 2293, Control_c, 9, 4, 90
2, 2293, Note_on_c, 9, 42, 16
2, 2368, Note_on_c, 9, 42, 0
2, 2426, Control_c, 9, 4, 90
2, 2426, Note_on_c, 9, 22, 85
2, 2502, Note_on_c, 9, 22, 0
2, 2540, Control_c, 9, 4, 90
2, 2540, Note_on_c, 9, 42, 40
2, 2616, Note_on_c, 9, 42, 0
2, 2648, Control_c, 9, 4, 90
2, 2648, Note_on_c, 9, 42, 11
2, 2723, Note_on_c, 9, 42, 0
2, 2764, Control_c, 9, 4, 90
2, 2764, Note_on_c, 9, 22, 102
2, 2839, Note_on_c, 9, 22, 0
2, 2886, Control_c, 9, 4, 90
2, 2886, Note_on_c, 9, 22, 84
2, 2961, Note_on_c, 9, 22, 0
2, 3011, Control_c, 9, 4, 90
2, 3011, Note_on_c, 9, 42, 16
2, 3086, Note_on_c, 9, 42, 0
2, 3104, Control_c, 9, 4, 90
2, 3104, Note_on_c, 9, 22, 30
2, 3179, Note_on_c, 9, 22, 0
2, 3228, Control_c, 9, 4, 90
2, 3228, Note_on_c, 9, 22, 71
2, 3304, Note_on_c, 9, 22, 0
2, 3348, Note_on_c, 9, 38, 89
2, 3423, Note_on_c, 9, 38, 0
2, 3467, Note_on_c, 9, 48, 127
2, 3542, Note_on_c, 9, 48, 0
2, 3576, Note_on_c, 9, 43, 67
2, 3650, Note_on_c, 9, 43, 0
2, 3695, Control_c, 9, 4, 90
2, 3695, Note_on_c, 9, 22, 50
2, 3770, Note_on_c, 9, 22, 0
2, 3822, Note_on_c, 9, 52, 64
2, 3828, Note_on_c, 9, 36, 69
2, 3897, Note_on_c, 9, 52, 0
2, 3903, Note_on_c, 9, 36, 0
2, 4057, Control_c, 9, 4, 90
2, 4057, Note_on_c, 9, 42, 5
2, 4133, Note_on_c, 9, 42, 0
2, 4171, Control_c, 9, 4, 90
2, 4171, Note_on_c, 9, 22, 80
2, 4246, Note_on_c, 9, 22, 0
2, 4299, Note_on_c, 9, 36, 46
2, 4302, Control_c, 9, 4, 90
2, 4302, Note_on_c, 9, 22, 103
2, 4374, Note_on_c, 9, 36, 0
2, 4377, Note_on_c, 9, 22, 0
2, 4439, Control_c, 9, 4, 90
2, 4439, Note_on_c, 9, 42, 25
2, 4515, Note_on_c, 9, 42, 0
2, 4548, Control_c, 9, 4, 90
2, 4548, Note_on_c, 9, 42, 6
2, 4624, Note_on_c, 9, 42, 0
2, 4650, Control_c, 9, 4, 90
2, 4650, Note_on_c, 9, 22, 82
2, 4671, Note_on_c, 9, 36, 39
2, 4726, Note_on_c, 9, 22, 0
2, 4746, Note_on_c, 9, 36, 0
2, 4778, Control_c, 9, 4, 90
2, 4778, Note_on_c, 9, 22, 105
2, 4792, Note_on_c, 9, 36, 58
2, 4853, Note_on_c, 9, 22, 0
2, 4868, Note_on_c, 9, 36, 0
2, 4896, Control_c, 9, 4, 90
2, 4896, Note_on_c, 9, 42, 29
2, 4971, Note_on_c, 9, 42, 0
2, 5015, Control_c, 9, 4, 90
2, 5015, Note_on_c, 9, 42, 9
2, 5091, Note_on_c, 9, 42, 0
2, 5131, Control_c, 9, 4, 90
2, 5131, Note_on_c, 9, 42, 20
2, 5206, Note_on_c, 9, 42, 0
2, 5249, Note_on_c, 9, 36, 50
2, 5258, Control_c, 9, 4, 90
2, 5258, Note_on_c, 9, 22, 127
2, 5324, Note_on_c, 9, 36, 0
2, 5333, Note_on_c, 9, 22, 0
2, 5387, Control_c, 9, 4, 90
2, 5387, Note_on_c, 9, 42, 22
2, 5462, Note_on_c, 9, 42, 0
2, 5502, Control_c, 9, 4, 90
2, 5502, Note_on_c, 9, 42, 6
2, 5577, Note_on_c, 9, 42, 0
2, 5627, Control_c, 9, 4, 90
2, 5627, Note_on_c, 9, 42, 31
2, 5702, Note_on_c, 9, 42, 0
2, 5749, Control_c, 9, 4, 90
2, 5749, Note_on_c, 9, 22, 104
2, 5751, Note_on_c, 9, 36, 46
2, 5824, Note_on_c, 9, 22, 0
2, 5826, Note_on_c, 9, 36, 0
2, 5871, Control_c, 9, 4, 90
2, 5871, Note_on_c, 9, 42, 36
2, 5946, Note_on_c, 9, 42, 0
2, 6107, Control_c, 9, 4, 90
2, 6107, Note_on_c, 9, 22, 72
2, 6182, Note_on_c, 9, 22, 0
2, 6236, Note_on_c, 9, 36, 46
2, 6240, Control_c, 9, 4, 90
2, 6240, Note_on_c, 9, 22, 111
2, 6311, Note_on_c, 9, 36, 0
2, 6315, Note_on_c, 9, 22, 0
2, 6364, Control_c, 9, 4, 90
2, 6364, Note_on_c, 9, 22, 37
2, 6440, Note_on_c, 9, 22, 0
2, 6483, Control_c, 9, 4, 90
2, 6483, Note_on_c, 9, 42, 16
2, 6558, Note_on_c, 9, 42, 0
2, 6599, Control_c, 9, 4, 90
2, 6599, Note_on_c, 9, 36, 28
2, 6599, Note_on_c, 9, 42, 36
2, 6673, Note_on_c, 9, 36, 0
2, 6675, Note_on_c, 9, 42, 0
2, 6714, Control_c, 9, 4, 90
2, 6714, Note_on_c, 9, 22, 93
2, 6718, Note_on_c, 9, 36, 58
2, 6789, Note_on_c, 9, 22, 0
2, 6793, Note_on_c, 9, 36, 0
2, 6839, Control_c, 9, 4, 90
2, 6839, Note_on_c, 9, 22, 33
2, 6914, Note_on_c, 9, 22, 0
2, 6959, Control_c, 9, 4, 90
2, 6959, Note_on_c, 9, 42, 16
2, 7035, Note_on_c, 9, 42, 0
2, 7074, Control_c, 9, 4, 90
2, 7074, Note_on_c, 9, 22, 43
2, 7149, Note_on_c, 9, 22, 0
2, 7186, Note_on_c, 9, 36, 58
2, 7192, Control_c, 9, 4, 90
2, 7192, Note_on_c, 9, 22, 74
2, 7260, Note_on_c, 9, 36, 0
2, 7268, Note_on_c, 9, 22, 0
2, 7312, Control_c, 9, 4, 90
2, 7312, Note_on_c, 9, 22, 28
2, 7388, Note_on_c, 9, 22, 0
2, 7424, Control_c, 9, 4, 90
2, 7424, Note_on_c, 9, 42, 18
2, 7499, Note_on_c, 9, 42, 0
2, 7541, Control_c, 9, 4, 90
2, 7541, Note_on_c, 9, 42, 10
2, 7616, Note_on_c, 9, 42, 0
2, 7665, Control_c, 9, 4, 90
2, 7666, End_track
0, 0, End_of_file
