0, 0, Header, 1, 2, 480
1, 0, Start_track
1, 0, Tempo, 588235
1, 0, Time_signature, 4, 2, 24, 8
1, 0, Key_signature, 0, "major"
1, 1, End_track
2, 0, Start_track
2, 0, Title_t, "Classic Studio Kit"
2, 0, Program_c, 9, 0
2, 0, Control_c, 9, 17, 0
2, 11, Note_on_c, 9, 48, 66
2, 18, Control_c, 9, 4, 120
2, 88, Control_c, 9, 4, 91
2, 92, Note_on_c, 9, 48, 0
2, 124, Control_c, 9, 17, 89
2, 124, Note_on_c, 9, 51, 63
2, 206, Note_on_c, 9, 51, 0
2, 212, Control_c, 9, 4, 100
2, 240, Control_c, 9, 17, 89
2, 240, Note_on_c, 9, 51, 4
2, 244, Note_on_c, 9, 36, 57
2, 252, Control_c, 9, 4, 102
2, 291, Control_c, 9, 4, 91
2, 321, Note_on_c, 9, 51, 0
2, 325, Note_on_c, 9, 36, 0
2, 472, Note_on_c, 9, 36, 53
2, 476, Control_c, 9, 17, 41
2, 477, Note_on_c, 9, 51, 85
2, 479, Control_c, 9, 16, 0
2, 480, Note_on_c, 9, 38, 75
2, 555, Note_on_c, 9, 36, 0
2, 559, Note_on_c, 9, 51, 0
2, 560, Note_on_c, 9, 38, 0
2, 565, Control_c, 9, 4, 84
2, 595, Control_c, 9, 4, 70
2, 631, Control_c, 9, 4, 0
2, 701, Control_c, 9, 4, 33
2, 707, Note_on_c, 9, 44, 127
2, 724, Control_c, 9, 17, 99
2, 725, Note_on_c, 9, 51, 74
2, 733, Control_c, 9, 4, 118
2, 789, Note_on_c, 9, 44, 0
2, 795, Control_c, 9, 4, 91
2, 805, Note_on_c, 9, 51, 0
2, 834, Control_c, 9, 18, 0
2, 835, Note_on_c, 9, 48, 46
2, 838, Note_on_c, 9, 36, 57
2, 917, Note_on_c, 9, 48, 0
2, 920, Note_on_c, 9, 36, 0
2, 953, Control_c, 9, 17, 0
2, 954, Note_on_c, 9, 51, 44
2, 958, Control_c, 9, 4, 116
2, 958, Note_on_c, 9, 48, 66
2, 1026, Control_c, 9, 4, 99
2, 1034, Note_on_c, 9, 51, 0
2, 1038, Note_on_c, 9, 48, 0
2, 1060, Control_c, 9, 4, 84
2, 1082, Control_c, 9, 17, 101
2, 1083, Note_on_c, 9, 51, 71
2, 1091, Control_c, 9, 4, 70
2, 1124, Control_c, 9, 4, 0
2, 1164, Note_on_c, 9, 51, 0
2, 1186, Note_on_c, 9, 36, 59
2, 1195, Note_on_c, 9, 46, 10
2, 1198, Control_c, 9, 17, 101
2, 1198, Note_on_c, 9, 51, 5
2, 1202, Control_c, 9, 4, 36
2, 1206, Note_on_c, 9, 44, 127
2, 1232, Control_c, 9, 4, 120
2, 1268, Note_on_c, 9, 36, 0
2, 1277, Note_on_c, 9, 46, 0
2, 1279, Note_on_c, 9, 51, 0
2, 1281, Control_c, 9, 4, 97
2, 1288, Note_on_c, 9, 44, 0
2, 1324, Control_c, 9, 4, 85
2, 1342, Control_c, 9, 17, 42
2, 1343, Note_on_c, 9, 51, 90
2, 1424, Note_on_c, 9, 51, 0
2, 1434, Control_c, 9, 4, 99
2, 1441, Note_on_c, 9, 36, 71
2, 1463, Note_on_c, 9, 38, 63
2, 1522, Note_on_c, 9, 36, 0
2, 1545, Note_on_c, 9, 38, 0
2, 1549, Control_c, 9, 4, 85
2, 1583, Control_c, 9, 4, 70
2, 1623, Control_c, 9, 4, 0
2, 1686, Control_c, 9, 4, 32
2, 1687, Control_c, 9, 17, 70
2, 1687, Note_on_c, 9, 51, 73
2, 1692, Note_on_c, 9, 44, 127
2, 1717, Control_c, 9, 4, 120
2, 1768, Control_c, 9, 4, 95
2, 1769, Note_on_c, 9, 51, 0
2, 1774, Note_on_c, 9, 44, 0
2, 1805, Control_c, 9, 18, 0
2, 1805, Note_on_c, 9, 48, 44
2, 1812, Control_c, 9, 4, 84
2, 1814, Note_on_c, 9, 36, 40
2, 1887, Note_on_c, 9, 48, 0
2, 1897, Note_on_c, 9, 36, 0
2, 1920, Control_c, 9, 17, 127
2, 1921, Note_on_c, 9, 51, 58
2, 1928, Note_on_c, 9, 48, 66
2, 1929, Control_c, 9, 4, 112
2, 1987, Control_c, 9, 4, 102
2, 2003, Note_on_c, 9, 51, 0
2, 2009, Note_on_c, 9, 48, 0
2, 2020, Control_c, 9, 4, 91
2, 2045, Control_c, 9, 17, 127
2, 2046, Note_on_c, 9, 51, 66
2, 2061, Control_c, 9, 4, 73
2, 2101, Control_c, 9, 4, 0
2, 2127, Note_on_c, 9, 51, 0
2, 2152, Control_c, 9, 4, 35
2, 2158, Note_on_c, 9, 44, 126
2, 2184, Control_c, 9, 4, 122
2, 2200, Note_on_c, 9, 49, 5
2, 2240, Note_on_c, 9, 44, 0
2, 2245, Control_c, 9, 4, 90
2, 2283, Note_on_c, 9, 49, 0
2, 2399, Control_c, 9, 4, 102
2, 2424, Control_c, 9, 17, 88
2, 2425, Control_c, 9, 16, 0
2, 2425, Note_on_c, 9, 51, 83
2, 2426, Note_on_c, 9, 38, 60
2, 2434, Note_on_c, 9, 36, 60
2, 2491, Control_c, 9, 4, 92
2, 2507, Note_on_c, 9, 51, 0
2, 2508, Note_on_c, 9, 38, 0
2, 2517, Note_on_c, 9, 36, 0
2, 2521, Control_c, 9, 4, 85
2, 2553, Control_c, 9, 4, 70
2, 2593, Control_c, 9, 4, 0
2, 2646, Control_c, 9, 4, 33
2, 2653, Note_on_c, 9, 44, 119
2, 2665, Control_c, 9, 17, 114
2, 2666, Note_on_c, 9, 51, 77
2, 2678, Control_c, 9, 4, 118
2, 2734, Note_on_c, 9, 44, 0
2, 2736, Control_c, 9, 4, 90
2, 2746, Note_on_c, 9, 51, 0
2, 2770, Control_c, 9, 4, 84
2, 2777, Note_on_c, 9, 36, 46
2, 2781, Control_c, 9, 18, 0
2, 2782, Note_on_c, 9, 48, 47
2, 2859, Note_on_c, 9, 36, 0
2, 2864, Note_on_c, 9, 48, 0
2, 2887, Control_c, 9, 4, 112
2, 2899, Control_c, 9, 17, 127
2, 2899, Note_on_c, 9, 48, 63
2, 2901, Note_on_c, 9, 51, 44
2, 2964, Control_c, 9, 4, 95
2, 2980, Note_on_c, 9, 48, 0
2, 2981, Note_on_c, 9, 51, 0
2, 2999, Control_c, 9, 4, 83
2, 3030, Control_c, 9, 17, 115
2, 3031, Note_on_c, 9, 51, 67
2, 3033, Control_c, 9, 4, 70
2, 3071, Control_c, 9, 4, 0
2, 3113, Note_on_c, 9, 51, 0
2, 3120, Note_on_c, 9, 36, 57
2, 3129, Control_c, 9, 4, 33
2, 3135, Note_on_c, 9, 44, 127
2, 3160, Control_c, 9, 4, 120
2, 3203, Note_on_c, 9, 36, 0
2, 3217, Note_on_c, 9, 44, 0
2, 3228, Control_c, 9, 4, 90
2, 3267, Control_c, 9, 17, 87
2, 3267, Note_on_c, 9, 51, 82
2, 3349, Note_on_c, 9, 51, 0
2, 3381, Control_c, 9, 4, 102
2, 3383, Note_on_c, 9, 36, 77
2, 3384, Note_on_c, 9, 38, 69
2, 3460, Control_c, 9, 4, 88
2, 3464, Note_on_c, 9, 36, 0
2, 3464, Note_on_c, 9, 38, 0
2, 3490, Control_c, 9, 4, 72
2, 3537, Control_c, 9, 4, 0
2, 3606, Control_c, 9, 4, 34
2, 3613, Note_on_c, 9, 44, 126
2, 3615, Control_c, 9, 17, 124
2, 3616, Note_on_c, 9, 51, 86
2, 3638, Control_c, 9, 4, 116
2, 3694, Control_c, 9, 4, 95
2, 3695, Note_on_c, 9, 44, 0
2, 3698, Note_on_c, 9, 51, 0
2, 3738, Control_c, 9, 18, 0
2, 3739, Note_on_c, 9, 48, 44
2, 3740, Control_c, 9, 4, 85
2, 3740, Note_on_c, 9, 36, 39
2, 3820, Note_on_c, 9, 48, 0
2, 3823, Note_on_c, 9, 36, 0
2, 3855, Control_c, 9, 17, 127
2, 3856, Note_on_c, 9, 51, 53
2, 3861, Note_on_c, 9, 48, 64
2, 3863, Control_c, 9, 4, 110
2, 3919, Control_c, 9, 4, 99
2, 3938, Note_on_c, 9, 51, 0
2, 3942, Note_on_c, 9, 48, 0
2, 3957, Control_c, 9, 4, 84
2, 3985, Control_c, 9, 17, 127
2, 3985, Note_on_c, 9, 51, 71
2, 3991, Control_c, 9, 4, 70
2, 4031, Control_c, 9, 4, 0
2, 4067, Note_on_c, 9, 51, 0
2, 4082, Control_c, 9, 4, 32
2, 4084, Note_on_c, 9, 36, 40
2, 4090, Note_on_c, 9, 44, 119
2, 4115, Control_c, 9, 4, 118
2, 4165, Note_on_c, 9, 36, 0
2, 4171, Note_on_c, 9, 44, 0
2, 4183, Control_c, 9, 4, 90
2, 4320, Control_c, 9, 4, 96
2, 4339, Control_c, 9, 17, 89
2, 4340, Note_on_c, 9, 51, 85
2, 4343, Control_c, 9, 16, 0
2, 4344, Note_on_c, 9, 38, 62
2, 4357, Note_on_c, 9, 36, 60
2, 4422, Note_on_c, 9, 51, 0
2, 4425, Note_on_c, 9, 38, 0
2, 4440, Note_on_c, 9, 36, 0
2, 4455, Control_c, 9, 4, 84
2, 4489, Control_c, 9, 4, 70
2, 4534, Control_c, 9, 4, 0
2, 4574, Control_c, 9, 4, 49
2, 4579, Note_on_c, 9, 44, 93
2, 4584, Control_c, 9, 17, 111
2, 4584, Note_on_c, 9, 51, 75
2, 4605, Control_c, 9, 4, 120
2, 4661, Note_on_c, 9, 44, 0
2, 4663, Control_c, 9, 4, 90
2, 4666, Note_on_c, 9, 51, 0
2, 4693, Control_c, 9, 18, 0
2, 4693, Note_on_c, 9, 48, 47
2, 4698, Control_c, 9, 4, 85
2, 4705, Note_on_c, 9, 36, 41
2, 4775, Note_on_c, 9, 48, 0
2, 4786, Note_on_c, 9, 36, 0
2, 4809, Control_c, 9, 17, 127
2, 4810, Note_on_c, 9, 51, 54
2, 4817, Control_c, 9, 4, 120
2, 4817, Note_on_c, 9, 48, 59
2, 4881, Control_c, 9, 4, 96
2, 4892, Note_on_c, 9, 51, 0
2, 4897, Note_on_c, 9, 48, 0
2, 4924, Control_c, 9, 4, 73
2, 4937, Control_c, 9, 17, 110
2, 4937, Note_on_c, 9, 51, 66
2, 4972, Control_c, 9, 4, 0
2, 5019, Note_on_c, 9, 51, 0
2, 5043, Note_on_c, 9, 46, 8
2, 5051, Control_c, 9, 4, 34
2, 5056, Note_on_c, 9, 36, 67
2, 5056, Note_on_c, 9, 44, 127
2, 5081, Control_c, 9, 4, 127
2, 5124, Control_c, 9, 4, 102
2, 5125, Note_on_c, 9, 46, 0
2, 5137, Note_on_c, 9, 44, 0
2, 5138, Note_on_c, 9, 36, 0
2, 5164, Control_c, 9, 4, 72
2, 5174, Control_c, 9, 17, 127
2, 5174, Note_on_c, 9, 51, 54
2, 5211, Control_c, 9, 4, 0
2, 5256, Note_on_c, 9, 51, 0
2, 5275, Note_on_c, 9, 46, 7
2, 5286, Control_c, 9, 4, 33
2, 5291, Note_on_c, 9, 44, 119
2, 5295, Note_on_c, 9, 38, 67
2, 5296, Control_c, 9, 17, 106
2, 5296, Note_on_c, 9, 51, 74
2, 5297, Note_on_c, 9, 36, 75
2, 5317, Control_c, 9, 4, 102
2, 5356, Note_on_c, 9, 46, 0
2, 5369, Control_c, 9, 4, 94
2, 5374, Note_on_c, 9, 44, 0
2, 5376, Note_on_c, 9, 38, 0
2, 5376, Note_on_c, 9, 51, 0
2, 5378, Note_on_c, 9, 36, 0
2, 5405, Control_c, 9, 4, 82
2, 5536, Control_c, 9, 4, 118
2, 5537, Control_c, 9, 17, 123
2, 5537, Note_on_c, 9, 51, 79
2, 5606, Control_c, 9, 4, 90
2, 5619, Note_on_c, 9, 51, 0
2, 5638, Control_c, 9, 4, 72
2, 5653, Control_c, 9, 18, 0
2, 5653, Note_on_c, 9, 36, 51
2, 5655, Note_on_c, 9, 48, 46
2, 5679, Control_c, 9, 4, 0
2, 5735, Note_on_c, 9, 36, 0
2, 5735, Note_on_c, 9, 48, 0
2, 5743, Note_on_c, 9, 46, 10
2, 5751, Control_c, 9, 4, 34
2, 5757, Note_on_c, 9, 44, 127
2, 5779, Note_on_c, 9, 48, 58
2, 5783, Control_c, 9, 4, 127
2, 5785, Control_c, 9, 17, 127
2, 5786, Note_on_c, 9, 51, 45
2, 5817, Control_c, 9, 4, 118
2, 5824, Note_on_c, 9, 46, 0
2, 5839, Note_on_c, 9, 44, 0
2, 5856, Control_c, 9, 4, 90
2, 5859, Note_on_c, 9, 48, 0
2, 5867, Note_on_c, 9, 51, 0
2, 5912, Control_c, 9, 17, 105
2, 5912, Note_on_c, 9, 51, 76
2, 5977, Control_c, 9, 4, 108
2, 5982, Note_on_c, 9, 36, 51
2, 5993, Note_on_c, 9, 51, 0
2, 6014, Control_c, 9, 4, 102
2, 6052, Control_c, 9, 4, 92
2, 6063, Note_on_c, 9, 36, 0
2, 6244, Note_on_c, 9, 36, 70
2, 6248, Control_c, 9, 17, 117
2, 6248, Note_on_c, 9, 51, 85
2, 6250, Control_c, 9, 16, 0
2, 6250, Note_on_c, 9, 38, 71
2, 6266, Control_c, 9, 4, 96
2, 6319, Control_c, 9, 4, 91
2, 6326, Note_on_c, 9, 36, 0
2, 6329, Note_on_c, 9, 51, 0
2, 6332, Note_on_c, 9, 38, 0
2, 6370, Control_c, 9, 4, 69
2, 6401, Control_c, 9, 4, 0
2, 6472, Control_c, 9, 4, 34
2, 6479, Note_on_c, 9, 44, 126
2, 6497, Control_c, 9, 17, 127
2, 6498, Note_on_c, 9, 51, 80
2, 6504, Control_c, 9, 4, 116
2, 6559, Note_on_c, 9, 44, 0
2, 6570, Control_c, 9, 4, 91
2, 6580, Note_on_c, 9, 51, 0
2, 6604, Control_c, 9, 18, 0
2, 6604, Note_on_c, 9, 48, 47
2, 6625, Note_on_c, 9, 36, 62
2, 6685, Note_on_c, 9, 48, 0
2, 6706, Note_on_c, 9, 36, 0
2, 6723, Control_c, 9, 4, 110
2, 6736, Control_c, 9, 17, 0
2, 6736, Note_on_c, 9, 48, 60
2, 6737, Note_on_c, 9, 51, 48
2, 6807, Control_c, 9, 4, 96
2, 6817, Note_on_c, 9, 48, 0
2, 6818, Note_on_c, 9, 51, 0
2, 6846, Control_c, 9, 4, 84
2, 6864, Control_c, 9, 17, 127
2, 6865, Note_on_c, 9, 51, 59
2, 6878, Control_c, 9, 4, 70
2, 6913, Control_c, 9, 4, 0
2, 6945, Note_on_c, 9, 51, 0
2, 6962, Control_c, 9, 4, 49
2, 6967, Note_on_c, 9, 44, 113
2, 6969, Note_on_c, 9, 36, 53
2, 6993, Control_c, 9, 4, 120
2, 7009, Note_on_c, 9, 49, 5
2, 7049, Note_on_c, 9, 44, 0
2, 7051, Note_on_c, 9, 36, 0
2, 7053, Control_c, 9, 4, 91
2, 7091, Note_on_c, 9, 49, 0
2, 7114, Control_c, 9, 17, 45
2, 7114, Note_on_c, 9, 51, 86
2, 7196, Note_on_c, 9, 51, 0
2, 7199, Control_c, 9, 4, 97
2, 7224, Note_on_c, 9, 36, 68
2, 7230, Control_c, 9, 16, 21
2, 7230, Note_on_c, 9, 38, 59
2, 7305, Note_on_c, 9, 36, 0
2, 7308, Control_c, 9, 4, 92
2, 7312, Note_on_c, 9, 38, 0
2, 7353, Control_c, 9, 4, 78
2, 7384, Control_c, 9, 4, 54
2, 7414, Control_c, 9, 4, 0
2, 7456, Control_c, 9, 4, 50
2, 7460, Control_c, 9, 17, 109
2, 7460, Note_on_c, 9, 51, 77
2, 7462, Note_on_c, 9, 44, 93
2, 7486, Control_c, 9, 4, 120
2, 7530, Control_c, 9, 4, 97
2, 7543, Note_on_c, 9, 51, 0
2, 7544, Note_on_c, 9, 44, 0
2, 7569, Control_c, 9, 4, 85
2, 7575, Control_c, 9, 18, 0
2, 7576, Note_on_c, 9, 48, 46
2, 7588, Note_on_c, 9, 36, 48
2, 7656, Note_on_c, 9, 48, 0
2, 7669, Note_on_c, 9, 36, 0
2, 7670, End_track
0, 0, End_of_file
