0, 0, Header, 1, 2, 480
1, 0, Start_track
1, 0, Tempo, 588235
1, 0, Time_signature, 4, 2, 24, 8
1, 0, Key_signature, 0, "major"
1, 1, End_track
2, 0, Start_track
2, 0, Title_t, "Classic Studio Kit"
2, 0, Program_c, 9, 0
2, 0, Control_c, 9, 18, 0
2, 7, Control_c, 9, 4, 116
2, 21, Control_c, 9, 17, 83
2, 21, Note_on_c, 9, 51, 70
2, 24, Note_on_c, 9, 48, 69
2, 37, Control_c, 9, 4, 112
2, 93, Control_c, 9, 4, 102
2, 105, Note_on_c, 9, 48, 0
2, 105, Note_on_c, 9, 51, 0
2, 126, Control_c, 9, 4, 89
2, 140, Control_c, 9, 17, 79
2, 141, Note_on_c, 9, 51, 65
2, 157, Control_c, 9, 4, 70
2, 193, Control_c, 9, 4, 0
2, 223, Note_on_c, 9, 51, 0
2, 245, Note_on_c, 9, 36, 67
2, 246, Control_c, 9, 4, 33
2, 251, Note_on_c, 9, 44, 127
2, 277, Control_c, 9, 4, 127
2, 318, Control_c, 9, 4, 100
2, 327, Note_on_c, 9, 36, 0
2, 334, Note_on_c, 9, 44, 0
2, 355, Control_c, 9, 4, 87
2, 375, Control_c, 9, 17, 64
2, 375, Note_on_c, 9, 51, 74
2, 457, Note_on_c, 9, 51, 0
2, 465, Control_c, 9, 4, 94
2, 495, Note_on_c, 9, 36, 77
2, 495, Note_on_c, 9, 38, 69
2, 508, Control_c, 9, 4, 100
2, 575, Note_on_c, 9, 36, 0
2, 575, Note_on_c, 9, 38, 0
2, 583, Control_c, 9, 4, 89
2, 620, Control_c, 9, 4, 72
2, 663, Control_c, 9, 4, 0
2, 720, Control_c, 9, 4, 34
2, 726, Note_on_c, 9, 44, 119
2, 729, Control_c, 9, 17, 44
2, 730, Note_on_c, 9, 51, 77
2, 751, Control_c, 9, 4, 126
2, 798, Control_c, 9, 4, 97
2, 809, Note_on_c, 9, 44, 0
2, 811, Note_on_c, 9, 51, 0
2, 844, Control_c, 9, 4, 87
2, 854, Control_c, 9, 18, 0
2, 855, Note_on_c, 9, 48, 45
2, 860, Note_on_c, 9, 36, 65
2, 937, Note_on_c, 9, 48, 0
2, 942, Note_on_c, 9, 36, 0
2, 959, Control_c, 9, 4, 110
2, 985, Note_on_c, 9, 48, 75
2, 986, Control_c, 9, 17, 127
2, 987, Note_on_c, 9, 51, 68
2, 1066, Note_on_c, 9, 48, 0
2, 1068, Note_on_c, 9, 51, 0
2, 1075, Control_c, 9, 4, 91
2, 1103, Control_c, 9, 17, 127
2, 1103, Note_on_c, 9, 51, 37
2, 1109, Control_c, 9, 4, 73
2, 1145, Control_c, 9, 4, 0
2, 1186, Note_on_c, 9, 51, 0
2, 1212, Note_on_c, 9, 46, 14
2, 1218, Control_c, 9, 4, 34
2, 1220, Note_on_c, 9, 36, 62
2, 1224, Note_on_c, 9, 44, 127
2, 1249, Control_c, 9, 4, 127
2, 1287, Control_c, 9, 4, 114
2, 1294, Note_on_c, 9, 46, 0
2, 1302, Note_on_c, 9, 36, 0
2, 1305, Note_on_c, 9, 44, 0
2, 1321, Control_c, 9, 4, 79
2, 1343, Control_c, 9, 17, 29
2, 1344, Note_on_c, 9, 51, 63
2, 1361, Control_c, 9, 4, 0
2, 1425, Note_on_c, 9, 51, 0
2, 1438, Note_on_c, 9, 46, 12
2, 1452, Note_on_c, 9, 44, 127
2, 1454, Note_on_c, 9, 36, 91
2, 1457, Control_c, 9, 16, 0
2, 1458, Note_on_c, 9, 38, 68
2, 1461, Control_c, 9, 4, 127
2, 1502, Control_c, 9, 4, 112
2, 1520, Note_on_c, 9, 46, 0
2, 1534, Control_c, 9, 4, 90
2, 1534, Note_on_c, 9, 44, 0
2, 1536, Note_on_c, 9, 36, 0
2, 1539, Note_on_c, 9, 38, 0
2, 1580, Control_c, 9, 4, 79
2, 1682, Control_c, 9, 4, 110
2, 1696, Control_c, 9, 17, 72
2, 1696, Note_on_c, 9, 51, 85
2, 1729, Control_c, 9, 4, 120
2, 1773, Control_c, 9, 4, 91
2, 1778, Note_on_c, 9, 51, 0
2, 1807, Control_c, 9, 4, 72
2, 1816, Note_on_c, 9, 36, 68
2, 1817, Control_c, 9, 18, 0
2, 1817, Note_on_c, 9, 48, 44
2, 1843, Control_c, 9, 4, 0
2, 1899, Note_on_c, 9, 36, 0
2, 1899, Note_on_c, 9, 48, 0
2, 1916, Note_on_c, 9, 46, 13
2, 1923, Control_c, 9, 4, 36
2, 1928, Note_on_c, 9, 44, 127
2, 1939, Control_c, 9, 17, 127
2, 1939, Note_on_c, 9, 48, 72
2, 1940, Note_on_c, 9, 51, 61
2, 1954, Control_c, 9, 4, 127
2, 1996, Control_c, 9, 4, 110
2, 1998, Note_on_c, 9, 46, 0
2, 2010, Note_on_c, 9, 44, 0
2, 2020, Note_on_c, 9, 48, 0
2, 2020, Note_on_c, 9, 51, 0
2, 2026, Control_c, 9, 4, 93
2, 2055, Control_c, 9, 17, 0
2, 2056, Note_on_c, 9, 51, 58
2, 2138, Note_on_c, 9, 51, 0
2, 2146, Control_c, 9, 4, 112
2, 2159, Note_on_c, 9, 36, 71
2, 2170, Control_c, 9, 17, 0
2, 2171, Note_on_c, 9, 51, 5
2, 2204, Control_c, 9, 4, 95
2, 2241, Note_on_c, 9, 36, 0
2, 2251, Note_on_c, 9, 51, 0
2, 2398, Note_on_c, 9, 36, 79
2, 2409, Control_c, 9, 17, 44
2, 2409, Note_on_c, 9, 51, 80
2, 2417, Note_on_c, 9, 38, 73
2, 2420, Control_c, 9, 4, 100
2, 2474, Control_c, 9, 4, 92
2, 2480, Note_on_c, 9, 36, 0
2, 2491, Note_on_c, 9, 51, 0
2, 2499, Note_on_c, 9, 38, 0
2, 2511, Control_c, 9, 4, 75
2, 2551, Control_c, 9, 4, 0
2, 2621, Note_on_c, 9, 46, 13
2, 2629, Control_c, 9, 4, 34
2, 2635, Note_on_c, 9, 44, 127
2, 2655, Control_c, 9, 17, 54
2, 2656, Note_on_c, 9, 51, 79
2, 2660, Control_c, 9, 4, 120
2, 2703, Note_on_c, 9, 46, 0
2, 2704, Control_c, 9, 4, 112
2, 2717, Note_on_c, 9, 44, 0
2, 2735, Control_c, 9, 4, 92
2, 2738, Note_on_c, 9, 51, 0
2, 2774, Control_c, 9, 18, 0
2, 2775, Note_on_c, 9, 48, 46
2, 2783, Note_on_c, 9, 36, 68
2, 2857, Note_on_c, 9, 48, 0
2, 2864, Note_on_c, 9, 36, 0
2, 2890, Control_c, 9, 4, 120
2, 2897, Note_on_c, 9, 48, 69
2, 2906, Control_c, 9, 17, 127
2, 2907, Note_on_c, 9, 51, 53
2, 2959, Control_c, 9, 4, 114
2, 2979, Note_on_c, 9, 48, 0
2, 2988, Note_on_c, 9, 51, 0
2, 3000, Control_c, 9, 4, 91
2, 3024, Control_c, 9, 17, 82
2, 3024, Note_on_c, 9, 51, 69
2, 3032, Control_c, 9, 4, 71
2, 3063, Control_c, 9, 4, 0
2, 3107, Note_on_c, 9, 51, 0
2, 3129, Note_on_c, 9, 36, 68
2, 3129, Note_on_c, 9, 46, 8
2, 3139, Control_c, 9, 17, 82
2, 3140, Note_on_c, 9, 51, 6
2, 3142, Note_on_c, 9, 44, 127
2, 3145, Control_c, 9, 4, 127
2, 3190, Control_c, 9, 4, 116
2, 3210, Note_on_c, 9, 36, 0
2, 3210, Note_on_c, 9, 46, 0
2, 3222, Note_on_c, 9, 44, 0
2, 3222, Note_on_c, 9, 51, 0
2, 3230, Control_c, 9, 4, 89
2, 3250, Control_c, 9, 17, 56
2, 3250, Note_on_c, 9, 51, 69
2, 3333, Note_on_c, 9, 51, 0
2, 3378, Control_c, 9, 4, 100
2, 3379, Note_on_c, 9, 36, 79
2, 3381, Control_c, 9, 16, 0
2, 3382, Note_on_c, 9, 38, 62
2, 3462, Note_on_c, 9, 36, 0
2, 3462, Note_on_c, 9, 38, 0
2, 3476, Control_c, 9, 4, 88
2, 3506, Control_c, 9, 4, 71
2, 3546, Control_c, 9, 4, 0
2, 3609, Control_c, 9, 4, 33
2, 3611, Control_c, 9, 17, 43
2, 3612, Note_on_c, 9, 51, 76
2, 3615, Note_on_c, 9, 44, 127
2, 3640, Control_c, 9, 4, 127
2, 3686, Control_c, 9, 4, 98
2, 3693, Note_on_c, 9, 51, 0
2, 3696, Note_on_c, 9, 44, 0
2, 3723, Control_c, 9, 4, 88
2, 3726, Control_c, 9, 18, 0
2, 3727, Note_on_c, 9, 48, 46
2, 3742, Note_on_c, 9, 36, 64
2, 3808, Note_on_c, 9, 48, 0
2, 3824, Note_on_c, 9, 36, 0
2, 3847, Control_c, 9, 4, 116
2, 3854, Note_on_c, 9, 48, 65
2, 3859, Control_c, 9, 17, 127
2, 3860, Note_on_c, 9, 51, 66
2, 3936, Note_on_c, 9, 48, 0
2, 3941, Note_on_c, 9, 51, 0
2, 3947, Control_c, 9, 4, 91
2, 3978, Control_c, 9, 17, 49
2, 3978, Note_on_c, 9, 51, 68
2, 3985, Control_c, 9, 4, 72
2, 4022, Control_c, 9, 4, 0
2, 4060, Note_on_c, 9, 51, 0
2, 4085, Note_on_c, 9, 36, 71
2, 4093, Note_on_c, 9, 44, 127
2, 4099, Control_c, 9, 4, 127
2, 4143, Control_c, 9, 4, 120
2, 4167, Note_on_c, 9, 36, 0
2, 4175, Note_on_c, 9, 44, 0
2, 4180, Control_c, 9, 4, 90
2, 4208, Control_c, 9, 17, 16
2, 4208, Note_on_c, 9, 51, 73
2, 4215, Control_c, 9, 4, 85
2, 4291, Note_on_c, 9, 51, 0
2, 4308, Control_c, 9, 4, 102
2, 4325, Note_on_c, 9, 36, 81
2, 4327, Note_on_c, 9, 38, 65
2, 4340, Control_c, 9, 4, 104
2, 4407, Note_on_c, 9, 36, 0
2, 4407, Note_on_c, 9, 38, 0
2, 4408, Control_c, 9, 4, 92
2, 4456, Control_c, 9, 4, 70
2, 4489, Control_c, 9, 4, 0
2, 4552, Control_c, 9, 17, 47
2, 4552, Note_on_c, 9, 51, 78
2, 4559, Note_on_c, 9, 44, 127
2, 4565, Control_c, 9, 4, 127
2, 4609, Control_c, 9, 4, 120
2, 4634, Note_on_c, 9, 51, 0
2, 4640, Note_on_c, 9, 44, 0
2, 4644, Control_c, 9, 4, 91
2, 4672, Control_c, 9, 18, 0
2, 4672, Note_on_c, 9, 48, 44
2, 4677, Note_on_c, 9, 36, 59
2, 4754, Note_on_c, 9, 48, 0
2, 4759, Note_on_c, 9, 36, 0
2, 4784, Control_c, 9, 4, 120
2, 4802, Control_c, 9, 17, 0
2, 4802, Note_on_c, 9, 48, 66
2, 4804, Note_on_c, 9, 51, 61
2, 4862, Control_c, 9, 4, 97
2, 4884, Note_on_c, 9, 48, 0
2, 4884, Note_on_c, 9, 51, 0
2, 4903, Control_c, 9, 4, 71
2, 4930, Control_c, 9, 17, 109
2, 4930, Note_on_c, 9, 51, 60
2, 4939, Control_c, 9, 4, 0
2, 5012, Note_on_c, 9, 51, 0
2, 5015, Note_on_c, 9, 46, 8
2, 5022, Control_c, 9, 4, 35
2, 5026, Note_on_c, 9, 36, 76
2, 5028, Note_on_c, 9, 44, 127
2, 5053, Control_c, 9, 4, 127
2, 5070, Note_on_c, 9, 49, 6
2, 5097, Note_on_c, 9, 46, 0
2, 5108, Note_on_c, 9, 36, 0
2, 5108, Note_on_c, 9, 44, 0
2, 5111, Control_c, 9, 4, 94
2, 5152, Control_c, 9, 4, 70
2, 5152, Note_on_c, 9, 49, 0
2, 5162, Control_c, 9, 17, 48
2, 5163, Note_on_c, 9, 51, 55
2, 5184, Control_c, 9, 4, 0
2, 5244, Note_on_c, 9, 51, 0
2, 5261, Note_on_c, 9, 46, 11
2, 5268, Control_c, 9, 4, 32
2, 5274, Note_on_c, 9, 44, 127
2, 5281, Control_c, 9, 16, 0
2, 5281, Note_on_c, 9, 36, 84
2, 5281, Note_on_c, 9, 38, 67
2, 5300, Control_c, 9, 4, 112
2, 5342, Note_on_c, 9, 46, 0
2, 5347, Control_c, 9, 4, 96
2, 5356, Note_on_c, 9, 44, 0
2, 5363, Note_on_c, 9, 38, 0
2, 5364, Note_on_c, 9, 36, 0
2, 5384, Control_c, 9, 4, 84
2, 5495, Control_c, 9, 4, 93
2, 5523, Control_c, 9, 17, 54
2, 5524, Control_c, 9, 4, 124
2, 5524, Note_on_c, 9, 51, 73
2, 5558, Control_c, 9, 4, 120
2, 5598, Control_c, 9, 4, 91
2, 5606, Note_on_c, 9, 51, 0
2, 5629, Note_on_c, 9, 36, 67
2, 5630, Control_c, 9, 4, 71
2, 5638, Control_c, 9, 17, 54
2, 5639, Note_on_c, 9, 51, 6
2, 5643, Control_c, 9, 18, 0
2, 5643, Note_on_c, 9, 48, 43
2, 5665, Control_c, 9, 4, 0
2, 5711, Note_on_c, 9, 36, 0
2, 5720, Note_on_c, 9, 51, 0
2, 5723, Note_on_c, 9, 48, 0
2, 5742, Note_on_c, 9, 46, 7
2, 5749, Control_c, 9, 4, 33
2, 5753, Note_on_c, 9, 44, 127
2, 5766, Note_on_c, 9, 48, 69
2, 5767, Control_c, 9, 17, 127
2, 5768, Note_on_c, 9, 51, 67
2, 5780, Control_c, 9, 4, 127
2, 5811, Control_c, 9, 4, 118
2, 5824, Note_on_c, 9, 46, 0
2, 5836, Note_on_c, 9, 44, 0
2, 5847, Note_on_c, 9, 48, 0
2, 5848, Control_c, 9, 4, 92
2, 5848, Note_on_c, 9, 51, 0
2, 5883, Control_c, 9, 17, 127
2, 5883, Note_on_c, 9, 51, 14
2, 5885, Note_on_c, 9, 51, 0
2, 5886, Note_on_c, 9, 51, 57
2, 5965, Note_on_c, 9, 51, 0
2, 5973, Control_c, 9, 4, 116
2, 5978, Note_on_c, 9, 36, 67
2, 6039, Control_c, 9, 4, 94
2, 6060, Note_on_c, 9, 36, 0
2, 6231, Note_on_c, 9, 36, 78
2, 6250, Control_c, 9, 17, 44
2, 6251, Control_c, 9, 16, 0
2, 6251, Note_on_c, 9, 51, 89
2, 6253, Control_c, 9, 4, 100
2, 6253, Note_on_c, 9, 38, 99
2, 6314, Note_on_c, 9, 36, 0
2, 6320, Control_c, 9, 4, 92
2, 6332, Note_on_c, 9, 51, 0
2, 6333, Note_on_c, 9, 38, 0
2, 6367, Control_c, 9, 4, 70
2, 6399, Control_c, 9, 4, 0
2, 6463, Note_on_c, 9, 46, 9
2, 6476, Note_on_c, 9, 44, 127
2, 6482, Control_c, 9, 4, 127
2, 6490, Control_c, 9, 17, 59
2, 6490, Note_on_c, 9, 51, 72
2, 6526, Control_c, 9, 4, 120
2, 6544, Note_on_c, 9, 46, 0
2, 6558, Note_on_c, 9, 44, 0
2, 6563, Control_c, 9, 4, 92
2, 6573, Note_on_c, 9, 51, 0
2, 6611, Control_c, 9, 18, 0
2, 6612, Note_on_c, 9, 48, 46
2, 6617, Note_on_c, 9, 36, 70
2, 6693, Note_on_c, 9, 48, 0
2, 6698, Note_on_c, 9, 36, 0
2, 6728, Control_c, 9, 4, 118
2, 6733, Note_on_c, 9, 48, 72
2, 6739, Control_c, 9, 17, 127
2, 6739, Note_on_c, 9, 51, 54
2, 6815, Note_on_c, 9, 48, 0
2, 6821, Note_on_c, 9, 51, 0
2, 6827, Control_c, 9, 4, 98
2, 6858, Control_c, 9, 4, 81
2, 6861, Control_c, 9, 17, 76
2, 6861, Note_on_c, 9, 51, 64
2, 6899, Control_c, 9, 4, 0
2, 6943, Note_on_c, 9, 51, 0
2, 6971, Note_on_c, 9, 46, 16
2, 6972, Note_on_c, 9, 36, 61
2, 6977, Control_c, 9, 4, 33
2, 6982, Note_on_c, 9, 44, 127
2, 7008, Control_c, 9, 4, 127
2, 7052, Note_on_c, 9, 46, 0
2, 7055, Note_on_c, 9, 36, 0
2, 7056, Control_c, 9, 4, 102
2, 7065, Note_on_c, 9, 44, 0
2, 7094, Control_c, 9, 4, 70
2, 7106, Control_c, 9, 17, 49
2, 7107, Note_on_c, 9, 51, 65
2, 7127, Control_c, 9, 4, 0
2, 7189, Note_on_c, 9, 51, 0
2, 7204, Note_on_c, 9, 46, 8
2, 7212, Control_c, 9, 4, 34
2, 7219, Note_on_c, 9, 36, 87
2, 7219, Note_on_c, 9, 44, 127
2, 7226, Control_c, 9, 16, 21
2, 7226, Note_on_c, 9, 38, 62
2, 7244, Control_c, 9, 4, 110
2, 7286, Note_on_c, 9, 46, 0
2, 7300, Note_on_c, 9, 36, 0
2, 7300, Note_on_c, 9, 44, 0
2, 7303, Control_c, 9, 4, 91
2, 7309, Note_on_c, 9, 38, 0
2, 7351, Control_c, 9, 4, 81
2, 7457, Control_c, 9, 17, 73
2, 7457, Note_on_c, 9, 51, 79
2, 7459, Control_c, 9, 4, 120
2, 7532, Control_c, 9, 4, 97
2, 7541, Note_on_c, 9, 51, 0
2, 7576, Control_c, 9, 4, 70
2, 7580, Note_on_c, 9, 36, 62
2, 7582, Control_c, 9, 18, 0
2, 7582, Note_on_c, 9, 48, 43
2, 7607, Control_c, 9, 4, 0
2, 7661, Note_on_c, 9, 36, 0
2, 7664, Note_on_c, 9, 48, 0
2, 7665, End_track
0, 0, End_of_file
