0, 0, Header, 1, 2, 480
1, 0, Start_track
1, 0, Tempo, 588235
1, 0, Time_signature, 4, 2, 24, 8
1, 0, Key_signature, 0, "major"
1, 1, End_track
2, 0, Start_track
2, 0, Title_t, "Classic Studio Kit"
2, 0, Program_c, 9, 0
2, 0, Control_c, 9, 17, 127
2, 16, Note_on_c, 9, 48, 74
2, 19, Note_on_c, 9, 36, 84
2, 26, Control_c, 9, 17, 73
2, 27, Note_on_c, 9, 51, 84
2, 97, Note_on_c, 9, 48, 0
2, 101, Note_on_c, 9, 36, 0
2, 107, Note_on_c, 9, 51, 0
2, 186, Control_c, 9, 4, 91
2, 248, Control_c, 9, 4, 102
2, 259, Control_c, 9, 17, 53
2, 260, Note_on_c, 9, 51, 78
2, 308, Control_c, 9, 4, 93
2, 341, Note_on_c, 9, 51, 0
2, 462, Control_c, 9, 4, 97
2, 505, Control_c, 9, 16, 0
2, 506, Control_c, 9, 17, 97
2, 506, Note_on_c, 9, 38, 85
2, 507, Note_on_c, 9, 51, 84
2, 586, Note_on_c, 9, 38, 0
2, 587, Note_on_c, 9, 51, 0
2, 729, Note_on_c, 9, 36, 57
2, 740, Control_c, 9, 17, 93
2, 741, Note_on_c, 9, 51, 70
2, 812, Note_on_c, 9, 36, 0
2, 822, Note_on_c, 9, 51, 0
2, 856, Control_c, 9, 17, 93
2, 857, Note_on_c, 9, 51, 5
2, 937, Note_on_c, 9, 51, 0
2, 982, Note_on_c, 9, 36, 76
2, 994, Control_c, 9, 17, 61
2, 994, Note_on_c, 9, 51, 77
2, 998, Control_c, 9, 18, 0
2, 999, Note_on_c, 9, 48, 68
2, 1064, Note_on_c, 9, 36, 0
2, 1075, Note_on_c, 9, 51, 0
2, 1079, Note_on_c, 9, 48, 0
2, 1225, Control_c, 9, 17, 83
2, 1226, Note_on_c, 9, 51, 64
2, 1308, Note_on_c, 9, 51, 0
2, 1468, Control_c, 9, 17, 74
2, 1469, Note_on_c, 9, 51, 77
2, 1474, Note_on_c, 9, 38, 64
2, 1550, Note_on_c, 9, 51, 0
2, 1555, Note_on_c, 9, 38, 0
2, 1704, Note_on_c, 9, 36, 70
2, 1707, Control_c, 9, 17, 50
2, 1708, Note_on_c, 9, 51, 83
2, 1786, Note_on_c, 9, 36, 0
2, 1788, Note_on_c, 9, 51, 0
2, 1955, Note_on_c, 9, 36, 86
2, 1964, Control_c, 9, 17, 20
2, 1964, Note_on_c, 9, 51, 80
2, 1970, Note_on_c, 9, 48, 71
2, 2037, Note_on_c, 9, 36, 0
2, 2046, Note_on_c, 9, 51, 0
2, 2050, Note_on_c, 9, 48, 0
2, 2200, Control_c, 9, 17, 41
2, 2201, Note_on_c, 9, 51, 70
2, 2281, Note_on_c, 9, 51, 0
2, 2440, Control_c, 9, 17, 49
2, 2441, Note_on_c, 9, 51, 83
2, 2443, Control_c, 9, 16, 0
2, 2443, Note_on_c, 9, 38, 78
2, 2522, Note_on_c, 9, 51, 0
2, 2524, Note_on_c, 9, 38, 0
2, 2673, Control_c, 9, 17, 37
2, 2674, Note_on_c, 9, 51, 74
2, 2679, Note_on_c, 9, 36, 57
2, 2754, Note_on_c, 9, 51, 0
2, 2760, Note_on_c, 9, 36, 0
2, 2904, Note_on_c, 9, 36, 69
2, 2922, Control_c, 9, 17, 42
2, 2922, Note_on_c, 9, 51, 76
2, 2927, Control_c, 9, 18, 0
2, 2928, Note_on_c, 9, 48, 65
2, 2985, Note_on_c, 9, 36, 0
2, 3003, Note_on_c, 9, 51, 0
2, 3009, Note_on_c, 9, 48, 0
2, 3063, Control_c, 9, 4, 92
2, 3115, Control_c, 9, 4, 110
2, 3166, Control_c, 9, 4, 96
2, 3387, Note_on_c, 9, 38, 70
2, 3388, Control_c, 9, 17, 23
2, 3388, Note_on_c, 9, 51, 91
2, 3398, Note_on_c, 9, 36, 78
2, 3436, Control_c, 9, 4, 112
2, 3468, Note_on_c, 9, 38, 0
2, 3469, Note_on_c, 9, 51, 0
2, 3481, Note_on_c, 9, 36, 0
2, 3483, Control_c, 9, 4, 99
2, 3513, Control_c, 9, 4, 83
2, 3548, Control_c, 9, 4, 70
2, 3583, Control_c, 9, 4, 0
2, 3637, Control_c, 9, 17, 39
2, 3638, Note_on_c, 9, 51, 64
2, 3642, Note_on_c, 9, 44, 126
2, 3646, Control_c, 9, 4, 127
2, 3691, Control_c, 9, 4, 120
2, 3720, Note_on_c, 9, 51, 0
2, 3722, Note_on_c, 9, 44, 0
2, 3729, Control_c, 9, 4, 89
2, 3757, Note_on_c, 9, 36, 41
2, 3763, Note_on_c, 9, 48, 40
2, 3838, Note_on_c, 9, 36, 0
2, 3844, Note_on_c, 9, 48, 0
2, 3880, Control_c, 9, 17, 61
2, 3881, Note_on_c, 9, 51, 63
2, 3890, Control_c, 9, 18, 0
2, 3890, Note_on_c, 9, 48, 73
2, 3893, Control_c, 9, 4, 120
2, 3947, Control_c, 9, 4, 112
2, 3961, Note_on_c, 9, 51, 0
2, 3971, Note_on_c, 9, 48, 0
2, 3980, Control_c, 9, 4, 92
2, 4016, Control_c, 9, 4, 73
2, 4020, Control_c, 9, 17, 80
2, 4021, Note_on_c, 9, 51, 69
2, 4050, Control_c, 9, 4, 0
2, 4102, Note_on_c, 9, 36, 71
2, 4104, Note_on_c, 9, 51, 0
2, 4112, Control_c, 9, 4, 34
2, 4117, Note_on_c, 9, 44, 127
2, 4135, Control_c, 9, 17, 80
2, 4135, Note_on_c, 9, 51, 7
2, 4143, Control_c, 9, 4, 127
2, 4159, Note_on_c, 9, 49, 6
2, 4184, Note_on_c, 9, 36, 0
2, 4194, Control_c, 9, 4, 102
2, 4198, Note_on_c, 9, 44, 0
2, 4216, Note_on_c, 9, 51, 0
2, 4225, Control_c, 9, 4, 90
2, 4241, Note_on_c, 9, 49, 0
2, 4244, Control_c, 9, 17, 42
2, 4245, Note_on_c, 9, 51, 69
2, 4287, Control_c, 9, 4, 85
2, 4326, Note_on_c, 9, 51, 0
2, 4334, Note_on_c, 9, 36, 85
2, 4347, Control_c, 9, 4, 118
2, 4359, Control_c, 9, 16, 0
2, 4359, Note_on_c, 9, 38, 78
2, 4378, Control_c, 9, 4, 112
2, 4415, Note_on_c, 9, 36, 0
2, 4422, Control_c, 9, 4, 100
2, 4441, Note_on_c, 9, 38, 0
2, 4461, Control_c, 9, 4, 89
2, 4499, Control_c, 9, 4, 72
2, 4540, Control_c, 9, 4, 34
2, 4574, Control_c, 9, 4, 66
2, 4578, Note_on_c, 9, 44, 48
2, 4591, Control_c, 9, 17, 50
2, 4591, Note_on_c, 9, 51, 85
2, 4596, Note_on_c, 9, 36, 79
2, 4604, Control_c, 9, 4, 122
2, 4657, Control_c, 9, 4, 90
2, 4659, Note_on_c, 9, 44, 0
2, 4672, Note_on_c, 9, 51, 0
2, 4677, Note_on_c, 9, 36, 0
2, 4692, Control_c, 9, 4, 83
2, 4716, Note_on_c, 9, 48, 42
2, 4752, Control_c, 9, 4, 88
2, 4797, Note_on_c, 9, 48, 0
2, 4810, Control_c, 9, 4, 102
2, 4821, Control_c, 9, 17, 47
2, 4822, Note_on_c, 9, 51, 66
2, 4832, Control_c, 9, 18, 0
2, 4833, Note_on_c, 9, 48, 84
2, 4903, Note_on_c, 9, 51, 0
2, 4914, Note_on_c, 9, 48, 0
2, 4917, Control_c, 9, 4, 93
2, 4943, Control_c, 9, 17, 77
2, 4943, Note_on_c, 9, 51, 68
2, 5009, Control_c, 9, 4, 88
2, 5024, Note_on_c, 9, 51, 0
2, 5057, Control_c, 9, 4, 110
2, 5092, Control_c, 9, 4, 102
2, 5129, Control_c, 9, 4, 92
2, 5309, Note_on_c, 9, 36, 60
2, 5311, Note_on_c, 9, 38, 78
2, 5317, Control_c, 9, 17, 35
2, 5317, Note_on_c, 9, 51, 79
2, 5345, Control_c, 9, 4, 104
2, 5379, Control_c, 9, 4, 98
2, 5391, Note_on_c, 9, 36, 0
2, 5391, Note_on_c, 9, 38, 0
2, 5399, Note_on_c, 9, 51, 0
2, 5414, Control_c, 9, 4, 84
2, 5444, Control_c, 9, 4, 69
2, 5475, Control_c, 9, 4, 0
2, 5532, Control_c, 9, 4, 34
2, 5538, Note_on_c, 9, 44, 127
2, 5552, Control_c, 9, 17, 60
2, 5552, Note_on_c, 9, 51, 73
2, 5563, Control_c, 9, 4, 127
2, 5595, Control_c, 9, 4, 118
2, 5621, Note_on_c, 9, 44, 0
2, 5634, Note_on_c, 9, 51, 0
2, 5637, Control_c, 9, 4, 91
2, 5669, Note_on_c, 9, 48, 47
2, 5678, Note_on_c, 9, 36, 46
2, 5749, Note_on_c, 9, 48, 0
2, 5759, Note_on_c, 9, 36, 0
2, 5784, Control_c, 9, 18, 0
2, 5784, Note_on_c, 9, 48, 71
2, 5792, Control_c, 9, 17, 104
2, 5793, Note_on_c, 9, 51, 64
2, 5794, Control_c, 9, 4, 126
2, 5859, Control_c, 9, 4, 96
2, 5865, Note_on_c, 9, 48, 0
2, 5873, Note_on_c, 9, 51, 0
2, 5903, Control_c, 9, 4, 72
2, 5922, Control_c, 9, 17, 67
2, 5923, Note_on_c, 9, 51, 60
2, 5941, Control_c, 9, 4, 0
2, 6004, Note_on_c, 9, 51, 0
2, 6008, Note_on_c, 9, 46, 15
2, 6015, Control_c, 9, 4, 36
2, 6019, Note_on_c, 9, 44, 127
2, 6032, Note_on_c, 9, 36, 64
2, 6046, Control_c, 9, 4, 127
2, 6090, Note_on_c, 9, 46, 0
2, 6094, Control_c, 9, 4, 96
2, 6101, Note_on_c, 9, 44, 0
2, 6113, Note_on_c, 9, 36, 0
2, 6130, Control_c, 9, 4, 70
2, 6158, Control_c, 9, 17, 127
2, 6158, Note_on_c, 9, 51, 48
2, 6165, Control_c, 9, 4, 0
2, 6241, Note_on_c, 9, 51, 0
2, 6245, Control_c, 9, 4, 50
2, 6250, Note_on_c, 9, 44, 119
2, 6268, Note_on_c, 9, 36, 83
2, 6271, Control_c, 9, 17, 127
2, 6272, Note_on_c, 9, 51, 82
2, 6275, Control_c, 9, 16, 0
2, 6276, Control_c, 9, 4, 102
2, 6276, Note_on_c, 9, 38, 98
2, 6325, Control_c, 9, 4, 98
2, 6331, Note_on_c, 9, 44, 0
2, 6349, Note_on_c, 9, 36, 0
2, 6352, Note_on_c, 9, 51, 0
2, 6356, Note_on_c, 9, 38, 0
2, 6369, Control_c, 9, 4, 85
2, 6502, Control_c, 9, 4, 127
2, 6503, Control_c, 9, 17, 100
2, 6504, Note_on_c, 9, 51, 74
2, 6573, Control_c, 9, 4, 94
2, 6585, Note_on_c, 9, 51, 0
2, 6614, Note_on_c, 9, 48, 43
2, 6618, Control_c, 9, 4, 70
2, 6628, Note_on_c, 9, 36, 61
2, 6655, Control_c, 9, 4, 0
2, 6696, Note_on_c, 9, 48, 0
2, 6711, Note_on_c, 9, 36, 0
2, 6719, Note_on_c, 9, 46, 12
2, 6726, Control_c, 9, 4, 34
2, 6731, Note_on_c, 9, 44, 127
2, 6742, Control_c, 9, 18, 0
2, 6743, Note_on_c, 9, 48, 77
2, 6744, Control_c, 9, 17, 0
2, 6744, Note_on_c, 9, 51, 52
2, 6757, Control_c, 9, 4, 127
2, 6799, Note_on_c, 9, 46, 0
2, 6808, Control_c, 9, 4, 106
2, 6813, Note_on_c, 9, 44, 0
2, 6824, Note_on_c, 9, 48, 0
2, 6826, Note_on_c, 9, 51, 0
2, 6840, Control_c, 9, 4, 92
2, 6874, Control_c, 9, 17, 45
2, 6875, Note_on_c, 9, 51, 71
2, 6953, Control_c, 9, 4, 110
2, 6956, Note_on_c, 9, 51, 0
2, 6976, Note_on_c, 9, 36, 53
2, 7027, Control_c, 9, 4, 94
2, 7057, Note_on_c, 9, 36, 0
2, 7217, Control_c, 9, 17, 53
2, 7217, Note_on_c, 9, 51, 71
2, 7218, Note_on_c, 9, 36, 76
2, 7221, Control_c, 9, 16, 0
2, 7222, Note_on_c, 9, 38, 88
2, 7239, Control_c, 9, 4, 100
2, 7298, Note_on_c, 9, 51, 0
2, 7301, Note_on_c, 9, 36, 0
2, 7303, Note_on_c, 9, 38, 0
2, 7323, Control_c, 9, 4, 86
2, 7355, Control_c, 9, 4, 70
2, 7391, Control_c, 9, 4, 0
2, 7451, Control_c, 9, 4, 48
2, 7455, Note_on_c, 9, 44, 127
2, 7464, Control_c, 9, 17, 58
2, 7465, Note_on_c, 9, 51, 71
2, 7481, Control_c, 9, 4, 127
2, 7527, Control_c, 9, 4, 104
2, 7537, Note_on_c, 9, 44, 0
2, 7546, Note_on_c, 9, 51, 0
2, 7560, Control_c, 9, 4, 89
2, 7569, Note_on_c, 9, 48, 46
2, 7594, Note_on_c, 9, 36, 62
2, 7651, Note_on_c, 9, 48, 0
2, 7676, Note_on_c, 9, 36, 0
2, 7677, End_track
0, 0, End_of_file
