0, 0, Header, 1, 2, 480
1, 0, Start_track
1, 0, Tempo, 599999
1, 0, Time_signature, 4, 2, 24, 8
1, 0, Key_signature, 0, "major"
1, 1, End_track
2, 0, Start_track
2, 0, Title_t, "Midi Drums"
2, 0, Program_c, 9, 0
2, 240, Note_on_c, 9, 45, 63
2, 320, Note_on_c, 9, 45, 0
2, 352, Note_on_c, 9, 45, 40
2, 433, Note_on_c, 9, 45, 0
2, 471, Note_on_c, 9, 36, 127
2, 471, Note_on_c, 9, 45, 124
2, 474, Note_on_c, 9, 38, 127
2, 552, Note_on_c, 9, 36, 0
2, 552, Note_on_c, 9, 45, 0
2, 555, Note_on_c, 9, 38, 0
2, 734, Note_on_c, 9, 45, 61
2, 816, Note_on_c, 9, 45, 0
2, 845, Note_on_c, 9, 45, 55
2, 926, Note_on_c, 9, 45, 0
2, 962, Note_on_c, 9, 36, 127
2, 973, Note_on_c, 9, 45, 66
2, 1043, Note_on_c, 9, 36, 0
2, 1054, Note_on_c, 9, 45, 0
2, 1211, Note_on_c, 9, 45, 61
2, 1292, Note_on_c, 9, 45, 0
2, 1330, Note_on_c, 9, 45, 56
2, 1411, Note_on_c, 9, 45, 0
2, 1455, Note_on_c, 9, 36, 127
2, 1456, Note_on_c, 9, 38, 127
2, 1458, Note_on_c, 9, 45, 127
2, 1536, Note_on_c, 9, 36, 0
2, 1537, Note_on_c, 9, 38, 0
2, 1539, Note_on_c, 9, 45, 0
2, 1699, Note_on_c, 9, 45, 54
2, 1780, Note_on_c, 9, 45, 0
2, 1809, Note_on_c, 9, 45, 50
2, 1890, Note_on_c, 9, 45, 0
2, 1926, Note_on_c, 9, 45, 87
2, 1928, Note_on_c, 9, 36, 127
2, 2007, Note_on_c, 9, 45, 0
2, 2008, Note_on_c, 9, 36, 0
2, 2175, Note_on_c, 9, 45, 52
2, 2256, Note_on_c, 9, 45, 0
2, 2296, Note_on_c, 9, 45, 61
2, 2376, Note_on_c, 9, 45, 0
2, 2407, Note_on_c, 9, 45, 127
2, 2414, Note_on_c, 9, 36, 127
2, 2414, Note_on_c, 9, 38, 127
2, 2488, Note_on_c, 9, 45, 0
2, 2495, Note_on_c, 9, 36, 0
2, 2495, Note_on_c, 9, 38, 0
2, 2662, Note_on_c, 9, 45, 65
2, 2743, Note_on_c, 9, 45, 0
2, 2766, Note_on_c, 9, 45, 63
2, 2847, Note_on_c, 9, 45, 0
2, 2886, Note_on_c, 9, 45, 72
2, 2893, Note_on_c, 9, 36, 127
2, 2968, Note_on_c, 9, 45, 0
2, 2973, Note_on_c, 9, 36, 0
2, 3134, Note_on_c, 9, 45, 50
2, 3215, Note_on_c, 9, 45, 0
2, 3241, Note_on_c, 9, 45, 53
2, 3322, Note_on_c, 9, 45, 0
2, 3352, Note_on_c, 9, 38, 127
2, 3357, Note_on_c, 9, 45, 111
2, 3366, Note_on_c, 9, 36, 127
2, 3433, Note_on_c, 9, 38, 0
2, 3437, Note_on_c, 9, 45, 0
2, 3447, Note_on_c, 9, 36, 0
2, 3606, Note_on_c, 9, 45, 64
2, 3686, Note_on_c, 9, 45, 0
2, 3704, Note_on_c, 9, 45, 61
2, 3785, Note_on_c, 9, 45, 0
2, 3836, Note_on_c, 9, 36, 127
2, 3839, Note_on_c, 9, 45, 68
2, 3917, Note_on_c, 9, 36, 0
2, 3919, Note_on_c, 9, 45, 0
2, 4082, Note_on_c, 9, 45, 51
2, 4163, Note_on_c, 9, 45, 0
2, 4200, Note_on_c, 9, 45, 75
2, 4281, Note_on_c, 9, 45, 0
2, 4304, Note_on_c, 9, 38, 127
2, 4309, Note_on_c, 9, 36, 127
2, 4318, Note_on_c, 9, 45, 113
2, 4385, Note_on_c, 9, 38, 0
2, 4390, Note_on_c, 9, 36, 0
2, 4399, Note_on_c, 9, 45, 0
2, 4573, Note_on_c, 9, 45, 65
2, 4654, Note_on_c, 9, 45, 0
2, 4679, Note_on_c, 9, 45, 55
2, 4759, Note_on_c, 9, 45, 0
2, 4793, Note_on_c, 9, 36, 127
2, 4800, Note_on_c, 9, 45, 70
2, 4873, Note_on_c, 9, 36, 0
2, 4880, Note_on_c, 9, 45, 0
2, 5045, Note_on_c, 9, 45, 51
2, 5125, Note_on_c, 9, 45, 0
2, 5147, Note_on_c, 9, 45, 69
2, 5227, Note_on_c, 9, 45, 0
2, 5266, Note_on_c, 9, 36, 127
2, 5271, Note_on_c, 9, 38, 127
2, 5271, Note_on_c, 9, 45, 125
2, 5347, Note_on_c, 9, 36, 0
2, 5352, Note_on_c, 9, 38, 0
2, 5352, Note_on_c, 9, 45, 0
2, 5517, Note_on_c, 9, 45, 67
2, 5598, Note_on_c, 9, 45, 0
2, 5617, Note_on_c, 9, 45, 58
2, 5698, Note_on_c, 9, 45, 0
2, 5734, Note_on_c, 9, 45, 81
2, 5746, Note_on_c, 9, 36, 127
2, 5815, Note_on_c, 9, 45, 0
2, 5827, Note_on_c, 9, 36, 0
2, 5975, Note_on_c, 9, 45, 59
2, 6055, Note_on_c, 9, 45, 0
2, 6084, Note_on_c, 9, 45, 55
2, 6164, Note_on_c, 9, 45, 0
2, 6212, Note_on_c, 9, 38, 127
2, 6214, Note_on_c, 9, 45, 102
2, 6230, Note_on_c, 9, 36, 127
2, 6293, Note_on_c, 9, 38, 0
2, 6295, Note_on_c, 9, 45, 0
2, 6310, Note_on_c, 9, 36, 0
2, 6463, Note_on_c, 9, 45, 53
2, 6543, Note_on_c, 9, 45, 0
2, 6584, Note_on_c, 9, 45, 54
2, 6664, Note_on_c, 9, 45, 0
2, 6707, Note_on_c, 9, 45, 67
2, 6714, Note_on_c, 9, 36, 127
2, 6788, Note_on_c, 9, 45, 0
2, 6795, Note_on_c, 9, 36, 0
2, 6815, Note_on_c, 9, 45, 86
2, 6896, Note_on_c, 9, 45, 0
2, 6945, Note_on_c, 9, 38, 127
2, 6947, Note_on_c, 9, 45, 127
2, 7026, Note_on_c, 9, 38, 0
2, 7027, Note_on_c, 9, 45, 0
2, 7196, Note_on_c, 9, 38, 127
2, 7196, Note_on_c, 9, 45, 127
2, 7277, Note_on_c, 9, 38, 0
2, 7277, Note_on_c, 9, 45, 0
2, 7437, Note_on_c, 9, 45, 121
2, 7465, Note_on_c, 9, 36, 127
2, 7517, Note_on_c, 9, 45, 0
2, 7545, Note_on_c, 9, 36, 0
2, 7559, Note_on_c, 9, 45, 90
2, 7639, Note_on_c, 9, 45, 0
2, 7640, End_track
0, 0, End_of_file
