0, 0, Header, 1, 2, 480
1, 0, Start_track
1, 0, Tempo, 588235
1, 0, Time_signature, 4, 2, 24, 8
1, 0, Key_signature, 0, "major"
1, 1, End_track
2, 0, Start_track
2, 0, Title_t, "Classic Studio Kit"
2, 0, Program_c, 9, 0
2, 0, Control_c, 9, 17, 50
2, 35, Note_on_c, 9, 36, 86
2, 44, Control_c, 9, 17, 20
2, 44, Note_on_c, 9, 51, 80
2, 50, Note_on_c, 9, 48, 71
2, 117, Note_on_c, 9, 36, 0
2, 126, Note_on_c, 9, 51, 0
2, 130, Note_on_c, 9, 48, 0
2, 280, Control_c, 9, 17, 41
2, 281, Note_on_c, 9, 51, 70
2, 361, Note_on_c, 9, 51, 0
2, 520, Control_c, 9, 17, 49
2, 521, Note_on_c, 9, 51, 83
2, 523, Control_c, 9, 16, 0
2, 523, Note_on_c, 9, 38, 78
2, 602, Note_on_c, 9, 51, 0
2, 604, Note_on_c, 9, 38, 0
2, 753, Control_c, 9, 17, 37
2, 754, Note_on_c, 9, 51, 74
2, 759, Note_on_c, 9, 36, 57
2, 834, Note_on_c, 9, 51, 0
2, 840, Note_on_c, 9, 36, 0
2, 984, Note_on_c, 9, 36, 69
2, 1002, Control_c, 9, 17, 42
2, 1002, Note_on_c, 9, 51, 76
2, 1007, Control_c, 9, 18, 0
2, 1008, Note_on_c, 9, 48, 65
2, 1065, Note_on_c, 9, 36, 0
2, 1083, Note_on_c, 9, 51, 0
2, 1089, Note_on_c, 9, 48, 0
2, 1143, Control_c, 9, 4, 92
2, 1195, Control_c, 9, 4, 110
2, 1246, Control_c, 9, 4, 96
2, 1467, Note_on_c, 9, 38, 70
2, 1468, Control_c, 9, 17, 23
2, 1468, Note_on_c, 9, 51, 91
2, 1478, Note_on_c, 9, 36, 78
2, 1516, Control_c, 9, 4, 112
2, 1548, Note_on_c, 9, 38, 0
2, 1549, Note_on_c, 9, 51, 0
2, 1561, Note_on_c, 9, 36, 0
2, 1563, Control_c, 9, 4, 99
2, 1593, Control_c, 9, 4, 83
2, 1628, Control_c, 9, 4, 70
2, 1663, Control_c, 9, 4, 0
2, 1717, Control_c, 9, 17, 39
2, 1718, Note_on_c, 9, 51, 64
2, 1722, Note_on_c, 9, 44, 126
2, 1726, Control_c, 9, 4, 127
2, 1771, Control_c, 9, 4, 120
2, 1800, Note_on_c, 9, 51, 0
2, 1802, Note_on_c, 9, 44, 0
2, 1809, Control_c, 9, 4, 89
2, 1837, Note_on_c, 9, 36, 41
2, 1843, Note_on_c, 9, 48, 40
2, 1918, Note_on_c, 9, 36, 0
2, 1924, Note_on_c, 9, 48, 0
2, 1960, Control_c, 9, 17, 61
2, 1961, Note_on_c, 9, 51, 63
2, 1970, Control_c, 9, 18, 0
2, 1970, Note_on_c, 9, 48, 73
2, 1973, Control_c, 9, 4, 120
2, 2027, Control_c, 9, 4, 112
2, 2041, Note_on_c, 9, 51, 0
2, 2051, Note_on_c, 9, 48, 0
2, 2060, Control_c, 9, 4, 92
2, 2096, Control_c, 9, 4, 73
2, 2100, Control_c, 9, 17, 80
2, 2101, Note_on_c, 9, 51, 69
2, 2130, Control_c, 9, 4, 0
2, 2182, Note_on_c, 9, 36, 71
2, 2184, Note_on_c, 9, 51, 0
2, 2192, Control_c, 9, 4, 34
2, 2197, Note_on_c, 9, 44, 127
2, 2215, Control_c, 9, 17, 80
2, 2215, Note_on_c, 9, 51, 7
2, 2223, Control_c, 9, 4, 127
2, 2239, Note_on_c, 9, 49, 6
2, 2264, Note_on_c, 9, 36, 0
2, 2274, Control_c, 9, 4, 102
2, 2278, Note_on_c, 9, 44, 0
2, 2296, Note_on_c, 9, 51, 0
2, 2305, Control_c, 9, 4, 90
2, 2321, Note_on_c, 9, 49, 0
2, 2324, Control_c, 9, 17, 42
2, 2325, Note_on_c, 9, 51, 69
2, 2367, Control_c, 9, 4, 85
2, 2406, Note_on_c, 9, 51, 0
2, 2414, Note_on_c, 9, 36, 85
2, 2427, Control_c, 9, 4, 118
2, 2439, Control_c, 9, 16, 0
2, 2439, Note_on_c, 9, 38, 78
2, 2458, Control_c, 9, 4, 112
2, 2495, Note_on_c, 9, 36, 0
2, 2502, Control_c, 9, 4, 100
2, 2521, Note_on_c, 9, 38, 0
2, 2541, Control_c, 9, 4, 89
2, 2579, Control_c, 9, 4, 72
2, 2620, Control_c, 9, 4, 34
2, 2654, Control_c, 9, 4, 66
2, 2658, Note_on_c, 9, 44, 48
2, 2671, Control_c, 9, 17, 50
2, 2671, Note_on_c, 9, 51, 85
2, 2676, Note_on_c, 9, 36, 79
2, 2684, Control_c, 9, 4, 122
2, 2737, Control_c, 9, 4, 90
2, 2739, Note_on_c, 9, 44, 0
2, 2752, Note_on_c, 9, 51, 0
2, 2757, Note_on_c, 9, 36, 0
2, 2772, Control_c, 9, 4, 83
2, 2796, Note_on_c, 9, 48, 42
2, 2832, Control_c, 9, 4, 88
2, 2877, Note_on_c, 9, 48, 0
2, 2890, Control_c, 9, 4, 102
2, 2901, Control_c, 9, 17, 47
2, 2902, Note_on_c, 9, 51, 66
2, 2912, Control_c, 9, 18, 0
2, 2913, Note_on_c, 9, 48, 84
2, 2983, Note_on_c, 9, 51, 0
2, 2994, Note_on_c, 9, 48, 0
2, 2997, Control_c, 9, 4, 93
2, 3023, Control_c, 9, 17, 77
2, 3023, Note_on_c, 9, 51, 68
2, 3089, Control_c, 9, 4, 88
2, 3104, Note_on_c, 9, 51, 0
2, 3137, Control_c, 9, 4, 110
2, 3172, Control_c, 9, 4, 102
2, 3209, Control_c, 9, 4, 92
2, 3389, Note_on_c, 9, 36, 60
2, 3391, Note_on_c, 9, 38, 78
2, 3397, Control_c, 9, 17, 35
2, 3397, Note_on_c, 9, 51, 79
2, 3425, Control_c, 9, 4, 104
2, 3459, Control_c, 9, 4, 98
2, 3471, Note_on_c, 9, 36, 0
2, 3471, Note_on_c, 9, 38, 0
2, 3479, Note_on_c, 9, 51, 0
2, 3494, Control_c, 9, 4, 84
2, 3524, Control_c, 9, 4, 69
2, 3555, Control_c, 9, 4, 0
2, 3612, Control_c, 9, 4, 34
2, 3618, Note_on_c, 9, 44, 127
2, 3632, Control_c, 9, 17, 60
2, 3632, Note_on_c, 9, 51, 73
2, 3643, Control_c, 9, 4, 127
2, 3675, Control_c, 9, 4, 118
2, 3701, Note_on_c, 9, 44, 0
2, 3714, Note_on_c, 9, 51, 0
2, 3717, Control_c, 9, 4, 91
2, 3749, Note_on_c, 9, 48, 47
2, 3758, Note_on_c, 9, 36, 46
2, 3829, Note_on_c, 9, 48, 0
2, 3839, Note_on_c, 9, 36, 0
2, 3864, Control_c, 9, 18, 0
2, 3864, Note_on_c, 9, 48, 71
2, 3872, Control_c, 9, 17, 104
2, 3873, Note_on_c, 9, 51, 64
2, 3874, Control_c, 9, 4, 126
2, 3939, Control_c, 9, 4, 96
2, 3945, Note_on_c, 9, 48, 0
2, 3953, Note_on_c, 9, 51, 0
2, 3983, Control_c, 9, 4, 72
2, 4002, Control_c, 9, 17, 67
2, 4003, Note_on_c, 9, 51, 60
2, 4021, Control_c, 9, 4, 0
2, 4084, Note_on_c, 9, 51, 0
2, 4088, Note_on_c, 9, 46, 15
2, 4095, Control_c, 9, 4, 36
2, 4099, Note_on_c, 9, 44, 127
2, 4112, Note_on_c, 9, 36, 64
2, 4126, Control_c, 9, 4, 127
2, 4170, Note_on_c, 9, 46, 0
2, 4174, Control_c, 9, 4, 96
2, 4181, Note_on_c, 9, 44, 0
2, 4193, Note_on_c, 9, 36, 0
2, 4210, Control_c, 9, 4, 70
2, 4238, Control_c, 9, 17, 127
2, 4238, Note_on_c, 9, 51, 48
2, 4245, Control_c, 9, 4, 0
2, 4321, Note_on_c, 9, 51, 0
2, 4325, Control_c, 9, 4, 50
2, 4330, Note_on_c, 9, 44, 119
2, 4348, Note_on_c, 9, 36, 83
2, 4351, Control_c, 9, 17, 127
2, 4352, Note_on_c, 9, 51, 82
2, 4355, Control_c, 9, 16, 0
2, 4356, Control_c, 9, 4, 102
2, 4356, Note_on_c, 9, 38, 98
2, 4405, Control_c, 9, 4, 98
2, 4411, Note_on_c, 9, 44, 0
2, 4429, Note_on_c, 9, 36, 0
2, 4432, Note_on_c, 9, 51, 0
2, 4436, Note_on_c, 9, 38, 0
2, 4449, Control_c, 9, 4, 85
2, 4582, Control_c, 9, 4, 127
2, 4583, Control_c, 9, 17, 100
2, 4584, Note_on_c, 9, 51, 74
2, 4653, Control_c, 9, 4, 94
2, 4665, Note_on_c, 9, 51, 0
2, 4694, Note_on_c, 9, 48, 43
2, 4698, Control_c, 9, 4, 70
2, 4708, Note_on_c, 9, 36, 61
2, 4735, Control_c, 9, 4, 0
2, 4776, Note_on_c, 9, 48, 0
2, 4791, Note_on_c, 9, 36, 0
2, 4799, Note_on_c, 9, 46, 12
2, 4806, Control_c, 9, 4, 34
2, 4811, Note_on_c, 9, 44, 127
2, 4822, Control_c, 9, 18, 0
2, 4823, Note_on_c, 9, 48, 77
2, 4824, Control_c, 9, 17, 0
2, 4824, Note_on_c, 9, 51, 52
2, 4837, Control_c, 9, 4, 127
2, 4879, Note_on_c, 9, 46, 0
2, 4888, Control_c, 9, 4, 106
2, 4893, Note_on_c, 9, 44, 0
2, 4904, Note_on_c, 9, 48, 0
2, 4906, Note_on_c, 9, 51, 0
2, 4920, Control_c, 9, 4, 92
2, 4954, Control_c, 9, 17, 45
2, 4955, Note_on_c, 9, 51, 71
2, 5033, Control_c, 9, 4, 110
2, 5036, Note_on_c, 9, 51, 0
2, 5056, Note_on_c, 9, 36, 53
2, 5107, Control_c, 9, 4, 94
2, 5137, Note_on_c, 9, 36, 0
2, 5297, Control_c, 9, 17, 53
2, 5297, Note_on_c, 9, 51, 71
2, 5298, Note_on_c, 9, 36, 76
2, 5301, Control_c, 9, 16, 0
2, 5302, Note_on_c, 9, 38, 88
2, 5319, Control_c, 9, 4, 100
2, 5378, Note_on_c, 9, 51, 0
2, 5381, Note_on_c, 9, 36, 0
2, 5383, Note_on_c, 9, 38, 0
2, 5403, Control_c, 9, 4, 86
2, 5435, Control_c, 9, 4, 70
2, 5471, Control_c, 9, 4, 0
2, 5531, Control_c, 9, 4, 48
2, 5535, Note_on_c, 9, 44, 127
2, 5544, Control_c, 9, 17, 58
2, 5545, Note_on_c, 9, 51, 71
2, 5561, Control_c, 9, 4, 127
2, 5607, Control_c, 9, 4, 104
2, 5617, Note_on_c, 9, 44, 0
2, 5626, Note_on_c, 9, 51, 0
2, 5640, Control_c, 9, 4, 89
2, 5649, Note_on_c, 9, 48, 46
2, 5674, Note_on_c, 9, 36, 62
2, 5731, Note_on_c, 9, 48, 0
2, 5756, Note_on_c, 9, 36, 0
2, 5778, Control_c, 9, 17, 0
2, 5779, Note_on_c, 9, 51, 58
2, 5780, Control_c, 9, 18, 0
2, 5780, Note_on_c, 9, 48, 72
2, 5794, Control_c, 9, 4, 122
2, 5860, Note_on_c, 9, 48, 0
2, 5860, Note_on_c, 9, 51, 0
2, 5877, Control_c, 9, 4, 91
2, 5912, Control_c, 9, 4, 71
2, 5920, Control_c, 9, 17, 102
2, 5921, Note_on_c, 9, 51, 60
2, 5949, Control_c, 9, 4, 0
2, 6002, Note_on_c, 9, 51, 0
2, 6015, Control_c, 9, 4, 16
2, 6018, Note_on_c, 9, 36, 68
2, 6024, Note_on_c, 9, 44, 127
2, 6048, Control_c, 9, 4, 127
2, 6099, Note_on_c, 9, 36, 0
2, 6104, Note_on_c, 9, 44, 0
2, 6108, Control_c, 9, 4, 97
2, 6129, Control_c, 9, 17, 52
2, 6130, Note_on_c, 9, 51, 53
2, 6146, Control_c, 9, 4, 83
2, 6211, Note_on_c, 9, 51, 0
2, 6251, Control_c, 9, 16, 21
2, 6251, Note_on_c, 9, 38, 76
2, 6257, Note_on_c, 9, 36, 86
2, 6273, Control_c, 9, 4, 116
2, 6326, Control_c, 9, 4, 98
2, 6333, Note_on_c, 9, 38, 0
2, 6340, Note_on_c, 9, 36, 0
2, 6358, Control_c, 9, 4, 84
2, 6392, Control_c, 9, 4, 70
2, 6429, Control_c, 9, 4, 0
2, 6489, Control_c, 9, 4, 33
2, 6495, Note_on_c, 9, 44, 127
2, 6497, Control_c, 9, 17, 113
2, 6497, Note_on_c, 9, 51, 77
2, 6521, Control_c, 9, 4, 126
2, 6554, Control_c, 9, 4, 120
2, 6577, Note_on_c, 9, 44, 0
2, 6579, Note_on_c, 9, 51, 0
2, 6592, Control_c, 9, 4, 91
2, 6621, Note_on_c, 9, 48, 43
2, 6630, Note_on_c, 9, 36, 67
2, 6702, Note_on_c, 9, 48, 0
2, 6712, Note_on_c, 9, 36, 0
2, 6737, Control_c, 9, 17, 127
2, 6738, Note_on_c, 9, 51, 54
2, 6745, Control_c, 9, 18, 0
2, 6745, Note_on_c, 9, 48, 77
2, 6747, Control_c, 9, 4, 116
2, 6818, Note_on_c, 9, 51, 0
2, 6827, Note_on_c, 9, 48, 0
2, 6841, Control_c, 9, 4, 91
2, 6869, Control_c, 9, 17, 125
2, 6869, Note_on_c, 9, 51, 66
2, 6880, Control_c, 9, 4, 74
2, 6921, Control_c, 9, 4, 0
2, 6952, Note_on_c, 9, 51, 0
2, 6974, Note_on_c, 9, 36, 52
2, 6976, Control_c, 9, 4, 34
2, 6983, Note_on_c, 9, 44, 126
2, 6984, Control_c, 9, 17, 125
2, 6984, Note_on_c, 9, 51, 5
2, 7008, Control_c, 9, 4, 120
2, 7055, Note_on_c, 9, 36, 0
2, 7058, Control_c, 9, 4, 97
2, 7063, Note_on_c, 9, 44, 0
2, 7066, Note_on_c, 9, 51, 0
2, 7102, Control_c, 9, 4, 86
2, 7209, Control_c, 9, 4, 99
2, 7226, Control_c, 9, 17, 127
2, 7227, Note_on_c, 9, 51, 83
2, 7228, Control_c, 9, 16, 0
2, 7228, Note_on_c, 9, 38, 87
2, 7278, Control_c, 9, 4, 94
2, 7308, Note_on_c, 9, 51, 0
2, 7310, Note_on_c, 9, 38, 0
2, 7457, Note_on_c, 9, 36, 69
2, 7473, Control_c, 9, 17, 75
2, 7474, Note_on_c, 9, 51, 74
2, 7539, Note_on_c, 9, 36, 0
2, 7554, Control_c, 9, 4, 88
2, 7555, Note_on_c, 9, 51, 0
2, 7590, Control_c, 9, 4, 71
2, 7625, Control_c, 9, 4, 0
2, 7626, End_track
0, 0, End_of_file
