0, 0, Header, 1, 2, 480
1, 0, Start_track
1, 0, Tempo, 638297
1, 0, Time_signature, 4, 2, 24, 8
1, 0, Key_signature, 0, "major"
1, 1, End_track
2, 0, Start_track
2, 0, Title_t, "Midi Drums"
2, 0, Program_c, 9, 0
2, 486, Note_on_c, 9, 36, 127
2, 493, Note_on_c, 9, 40, 127
2, 562, Note_on_c, 9, 36, 0
2, 569, Note_on_c, 9, 40, 0
2, 974, Note_on_c, 9, 36, 127
2, 1050, Note_on_c, 9, 36, 0
2, 1456, Note_on_c, 9, 36, 127
2, 1458, Note_on_c, 9, 40, 127
2, 1532, Note_on_c, 9, 36, 0
2, 1534, Note_on_c, 9, 40, 0
2, 1942, Note_on_c, 9, 36, 108
2, 2018, Note_on_c, 9, 36, 0
2, 2403, Note_on_c, 9, 36, 122
2, 2418, Note_on_c, 9, 40, 127
2, 2479, Note_on_c, 9, 36, 0
2, 2494, Note_on_c, 9, 40, 0
2, 2899, Note_on_c, 9, 36, 120
2, 2975, Note_on_c, 9, 36, 0
2, 3372, Note_on_c, 9, 36, 127
2, 3385, Note_on_c, 9, 40, 127
2, 3448, Note_on_c, 9, 36, 0
2, 3461, Note_on_c, 9, 40, 0
2, 3861, Note_on_c, 9, 36, 127
2, 3937, Note_on_c, 9, 36, 0
2, 4322, Note_on_c, 9, 36, 121
2, 4343, Note_on_c, 9, 40, 124
2, 4398, Note_on_c, 9, 36, 0
2, 4419, Note_on_c, 9, 40, 0
2, 4788, Note_on_c, 9, 36, 127
2, 4864, Note_on_c, 9, 36, 0
2, 4999, Note_on_c, 9, 40, 127
2, 5075, Note_on_c, 9, 40, 0
2, 5250, Note_on_c, 9, 36, 117
2, 5259, Note_on_c, 9, 40, 127
2, 5326, Note_on_c, 9, 36, 0
2, 5334, Note_on_c, 9, 40, 0
2, 5490, Note_on_c, 9, 40, 127
2, 5566, Note_on_c, 9, 40, 0
2, 5736, Note_on_c, 9, 36, 127
2, 5811, Note_on_c, 9, 36, 0
2, 6216, Note_on_c, 9, 40, 127
2, 6223, Note_on_c, 9, 36, 115
2, 6292, Note_on_c, 9, 40, 0
2, 6298, Note_on_c, 9, 36, 0
2, 6696, Note_on_c, 9, 36, 115
2, 6772, Note_on_c, 9, 36, 0
2, 7189, Note_on_c, 9, 36, 121
2, 7195, Note_on_c, 9, 40, 125
2, 7218, Note_on_c, 9, 40, 0
2, 7218, Note_on_c, 9, 40, 127
2, 7265, Note_on_c, 9, 36, 0
2, 7271, Note_on_c, 9, 40, 0
2, 7430, Note_on_c, 9, 40, 127
2, 7506, Note_on_c, 9, 40, 0
2, 7545, Note_on_c, 9, 40, 127
2, 7620, Note_on_c, 9, 40, 0
2, 7621, End_track
0, 0, End_of_file
