0, 0, Header, 1, 2, 480
1, 0, Start_track
1, 0, Tempo, 521739
1, 0, Time_signature, 4, 2, 24, 8
1, 0, Key_signature, 0, "major"
1, 1, End_track
2, 0, Start_track
2, 0, Title_t, "Midi Drums"
2, 0, Program_c, 9, 0
2, 932, Note_on_c, 9, 38, 113
2, 1024, Note_on_c, 9, 38, 0
2, 1090, Note_on_c, 9, 40, 121
2, 1183, Note_on_c, 9, 40, 0
2, 1273, Note_on_c, 9, 36, 36
2, 1366, Note_on_c, 9, 36, 0
2, 1422, Note_on_c, 9, 38, 127
2, 1514, Note_on_c, 9, 38, 0
2, 1562, Note_on_c, 9, 40, 123
2, 1655, Note_on_c, 9, 40, 0
2, 1729, Control_c, 9, 4, 82
2, 1752, Note_on_c, 9, 26, 82
2, 1769, Control_c, 9, 4, 64
2, 1801, Control_c, 9, 4, 40
2, 1837, Control_c, 9, 4, 0
2, 1845, Note_on_c, 9, 26, 0
2, 1908, Control_c, 9, 4, 66
2, 1912, Note_on_c, 9, 44, 37
2, 1925, Note_on_c, 9, 36, 62
2, 1941, Control_c, 9, 4, 90
2, 2005, Note_on_c, 9, 44, 0
2, 2018, Note_on_c, 9, 36, 0
2, 2077, Control_c, 9, 4, 90
2, 2077, Note_on_c, 9, 22, 60
2, 2169, Note_on_c, 9, 22, 0
2, 2237, Note_on_c, 9, 36, 39
2, 2330, Note_on_c, 9, 36, 0
2, 2375, Note_on_c, 9, 36, 59
2, 2400, Note_on_c, 9, 40, 114
2, 2408, Control_c, 9, 4, 90
2, 2408, Note_on_c, 9, 42, 68
2, 2468, Note_on_c, 9, 36, 0
2, 2492, Note_on_c, 9, 40, 0
2, 2502, Note_on_c, 9, 42, 0
2, 2703, Control_c, 9, 4, 90
2, 2703, Note_on_c, 9, 36, 36
2, 2703, Note_on_c, 9, 42, 67
2, 2796, Note_on_c, 9, 36, 0
2, 2796, Note_on_c, 9, 42, 0
2, 2876, Note_on_c, 9, 36, 59
2, 2969, Note_on_c, 9, 36, 0
2, 3043, Control_c, 9, 4, 90
2, 3043, Note_on_c, 9, 22, 79
2, 3135, Note_on_c, 9, 22, 0
2, 3179, Note_on_c, 9, 36, 40
2, 3272, Note_on_c, 9, 36, 0
2, 3327, Note_on_c, 9, 36, 55
2, 3353, Note_on_c, 9, 40, 120
2, 3360, Control_c, 9, 4, 90
2, 3360, Note_on_c, 9, 22, 63
2, 3420, Note_on_c, 9, 36, 0
2, 3446, Note_on_c, 9, 40, 0
2, 3454, Note_on_c, 9, 22, 0
2, 3658, Note_on_c, 9, 36, 40
2, 3661, Control_c, 9, 4, 90
2, 3661, Note_on_c, 9, 42, 62
2, 3750, Note_on_c, 9, 36, 0
2, 3755, Note_on_c, 9, 42, 0
2, 3817, Note_on_c, 9, 36, 54
2, 3910, Note_on_c, 9, 36, 0
2, 3987, Control_c, 9, 4, 90
2, 3987, Note_on_c, 9, 42, 55
2, 4080, Note_on_c, 9, 42, 0
2, 4134, Note_on_c, 9, 36, 42
2, 4227, Note_on_c, 9, 36, 0
2, 4282, Note_on_c, 9, 36, 51
2, 4300, Note_on_c, 9, 40, 121
2, 4313, Control_c, 9, 4, 90
2, 4313, Note_on_c, 9, 22, 76
2, 4375, Note_on_c, 9, 36, 0
2, 4393, Note_on_c, 9, 40, 0
2, 4406, Note_on_c, 9, 22, 0
2, 4617, Note_on_c, 9, 36, 36
2, 4624, Control_c, 9, 4, 90
2, 4624, Note_on_c, 9, 22, 73
2, 4710, Note_on_c, 9, 36, 0
2, 4717, Note_on_c, 9, 22, 0
2, 4786, Note_on_c, 9, 36, 56
2, 4879, Note_on_c, 9, 36, 0
2, 4950, Control_c, 9, 4, 90
2, 4950, Note_on_c, 9, 42, 70
2, 5043, Note_on_c, 9, 42, 0
2, 5107, Note_on_c, 9, 36, 36
2, 5200, Note_on_c, 9, 36, 0
2, 5260, Note_on_c, 9, 36, 48
2, 5260, Note_on_c, 9, 40, 118
2, 5270, Control_c, 9, 4, 90
2, 5270, Note_on_c, 9, 42, 69
2, 5353, Note_on_c, 9, 36, 0
2, 5353, Note_on_c, 9, 40, 0
2, 5363, Note_on_c, 9, 42, 0
2, 5592, Note_on_c, 9, 36, 37
2, 5595, Control_c, 9, 4, 90
2, 5595, Note_on_c, 9, 42, 86
2, 5685, Note_on_c, 9, 36, 0
2, 5687, Note_on_c, 9, 42, 0
2, 5750, Note_on_c, 9, 36, 54
2, 5843, Note_on_c, 9, 36, 0
2, 5926, Control_c, 9, 4, 90
2, 5926, Note_on_c, 9, 42, 84
2, 6020, Note_on_c, 9, 42, 0
2, 6074, Note_on_c, 9, 36, 41
2, 6167, Note_on_c, 9, 36, 0
2, 6221, Note_on_c, 9, 36, 49
2, 6245, Note_on_c, 9, 40, 114
2, 6248, Control_c, 9, 4, 90
2, 6248, Note_on_c, 9, 42, 73
2, 6314, Note_on_c, 9, 36, 0
2, 6338, Note_on_c, 9, 40, 0
2, 6342, Note_on_c, 9, 42, 0
2, 6553, Control_c, 9, 4, 90
2, 6553, Note_on_c, 9, 42, 77
2, 6559, Note_on_c, 9, 36, 40
2, 6646, Note_on_c, 9, 42, 0
2, 6652, Note_on_c, 9, 36, 0
2, 6717, Note_on_c, 9, 36, 55
2, 6810, Note_on_c, 9, 36, 0
2, 6875, Control_c, 9, 4, 90
2, 6875, Note_on_c, 9, 22, 79
2, 6968, Note_on_c, 9, 22, 0
2, 7029, Note_on_c, 9, 36, 45
2, 7122, Note_on_c, 9, 36, 0
2, 7188, Note_on_c, 9, 40, 104
2, 7193, Note_on_c, 9, 36, 55
2, 7205, Control_c, 9, 4, 90
2, 7205, Note_on_c, 9, 22, 72
2, 7281, Note_on_c, 9, 40, 0
2, 7286, Note_on_c, 9, 36, 0
2, 7298, Note_on_c, 9, 22, 0
2, 7503, Control_c, 9, 4, 90
2, 7503, Note_on_c, 9, 22, 76
2, 7532, Note_on_c, 9, 36, 44
2, 7596, Note_on_c, 9, 22, 0
2, 7625, Note_on_c, 9, 36, 0
2, 7626, End_track
0, 0, End_of_file
