0, 0, Header, 1, 2, 480
1, 0, Start_track
1, 0, Tempo, 588235
1, 0, Time_signature, 4, 2, 24, 8
1, 0, Key_signature, 0, "major"
1, 1, End_track
2, 0, Start_track
2, 0, Title_t, "Classic Studio Kit"
2, 0, Program_c, 9, 0
2, 0, Control_c, 9, 16, 0
2, 16, Control_c, 9, 16, 127
2, 16, Note_on_c, 9, 40, 39
2, 30, Control_c, 9, 4, 100
2, 65, Control_c, 9, 4, 104
2, 98, Note_on_c, 9, 40, 0
2, 118, Control_c, 9, 4, 90
2, 145, Note_on_c, 9, 48, 93
2, 149, Control_c, 9, 4, 71
2, 186, Control_c, 9, 4, 0
2, 226, Note_on_c, 9, 48, 0
2, 243, Control_c, 9, 4, 35
2, 249, Note_on_c, 9, 44, 127
2, 257, Control_c, 9, 16, 0
2, 257, Note_on_c, 9, 38, 31
2, 264, Note_on_c, 9, 36, 84
2, 274, Control_c, 9, 4, 127
2, 307, Control_c, 9, 4, 102
2, 331, Note_on_c, 9, 44, 0
2, 339, Control_c, 9, 4, 89
2, 339, Note_on_c, 9, 38, 0
2, 347, Note_on_c, 9, 36, 0
2, 384, Control_c, 9, 16, 126
2, 385, Note_on_c, 9, 40, 14
2, 466, Note_on_c, 9, 40, 0
2, 505, Control_c, 9, 16, 64
2, 505, Note_on_c, 9, 38, 86
2, 513, Note_on_c, 9, 36, 87
2, 545, Control_c, 9, 17, 3
2, 545, Note_on_c, 9, 51, 110
2, 553, Control_c, 9, 4, 102
2, 588, Note_on_c, 9, 38, 0
2, 596, Note_on_c, 9, 36, 0
2, 606, Control_c, 9, 4, 95
2, 628, Note_on_c, 9, 51, 0
2, 639, Control_c, 9, 16, 0
2, 640, Note_on_c, 9, 38, 16
2, 650, Control_c, 9, 4, 71
2, 682, Control_c, 9, 4, 0
2, 721, Note_on_c, 9, 38, 0
2, 738, Control_c, 9, 4, 33
2, 743, Note_on_c, 9, 44, 126
2, 753, Control_c, 9, 17, 74
2, 754, Note_on_c, 9, 51, 66
2, 769, Control_c, 9, 4, 127
2, 799, Control_c, 9, 4, 118
2, 825, Note_on_c, 9, 44, 0
2, 836, Note_on_c, 9, 51, 0
2, 838, Control_c, 9, 4, 90
2, 868, Control_c, 9, 18, 0
2, 869, Note_on_c, 9, 36, 74
2, 869, Note_on_c, 9, 48, 65
2, 951, Note_on_c, 9, 36, 0
2, 951, Note_on_c, 9, 48, 0
2, 971, Control_c, 9, 4, 112
2, 983, Control_c, 9, 17, 0
2, 984, Note_on_c, 9, 51, 68
2, 1066, Note_on_c, 9, 51, 0
2, 1079, Control_c, 9, 4, 95
2, 1112, Control_c, 9, 17, 1
2, 1113, Note_on_c, 9, 51, 88
2, 1121, Control_c, 9, 4, 70
2, 1153, Control_c, 9, 4, 0
2, 1195, Note_on_c, 9, 51, 0
2, 1204, Control_c, 9, 4, 33
2, 1210, Note_on_c, 9, 44, 119
2, 1216, Note_on_c, 9, 36, 76
2, 1231, Control_c, 9, 16, 0
2, 1232, Note_on_c, 9, 38, 49
2, 1235, Control_c, 9, 4, 127
2, 1289, Control_c, 9, 4, 92
2, 1292, Note_on_c, 9, 44, 0
2, 1298, Note_on_c, 9, 36, 0
2, 1314, Note_on_c, 9, 38, 0
2, 1324, Control_c, 9, 4, 88
2, 1426, Control_c, 9, 4, 98
2, 1467, Note_on_c, 9, 36, 80
2, 1477, Control_c, 9, 17, 0
2, 1477, Note_on_c, 9, 51, 126
2, 1479, Control_c, 9, 16, 127
2, 1479, Note_on_c, 9, 38, 100
2, 1520, Control_c, 9, 4, 104
2, 1549, Note_on_c, 9, 36, 0
2, 1559, Note_on_c, 9, 51, 0
2, 1560, Note_on_c, 9, 38, 0
2, 1580, Control_c, 9, 4, 92
2, 1614, Control_c, 9, 4, 73
2, 1657, Control_c, 9, 4, 12
2, 1689, Control_c, 9, 4, 56
2, 1694, Note_on_c, 9, 44, 87
2, 1707, Control_c, 9, 17, 44
2, 1707, Note_on_c, 9, 51, 68
2, 1719, Control_c, 9, 4, 127
2, 1773, Control_c, 9, 4, 91
2, 1776, Note_on_c, 9, 44, 0
2, 1790, Note_on_c, 9, 51, 0
2, 1836, Note_on_c, 9, 36, 74
2, 1846, Control_c, 9, 17, 44
2, 1847, Note_on_c, 9, 51, 4
2, 1906, Control_c, 9, 4, 98
2, 1919, Note_on_c, 9, 36, 0
2, 1929, Note_on_c, 9, 51, 0
2, 1958, Note_on_c, 9, 48, 85
2, 1964, Control_c, 9, 17, 0
2, 1964, Note_on_c, 9, 51, 117
2, 1986, Control_c, 9, 4, 104
2, 2039, Note_on_c, 9, 48, 0
2, 2046, Note_on_c, 9, 51, 0
2, 2051, Control_c, 9, 4, 90
2, 2082, Control_c, 9, 4, 71
2, 2114, Control_c, 9, 4, 0
2, 2185, Note_on_c, 9, 44, 127
2, 2190, Control_c, 9, 4, 127
2, 2200, Control_c, 9, 17, 41
2, 2200, Note_on_c, 9, 51, 55
2, 2230, Control_c, 9, 4, 110
2, 2264, Control_c, 9, 4, 90
2, 2266, Note_on_c, 9, 44, 0
2, 2283, Note_on_c, 9, 51, 0
2, 2305, Control_c, 9, 4, 86
2, 2358, Control_c, 9, 4, 90
2, 2389, Control_c, 9, 4, 97
2, 2429, Control_c, 9, 16, 64
2, 2430, Note_on_c, 9, 38, 69
2, 2434, Note_on_c, 9, 53, 127
2, 2441, Note_on_c, 9, 36, 78
2, 2490, Control_c, 9, 4, 108
2, 2511, Note_on_c, 9, 38, 0
2, 2517, Note_on_c, 9, 53, 0
2, 2523, Note_on_c, 9, 36, 0
2, 2531, Control_c, 9, 4, 91
2, 2564, Control_c, 9, 4, 72
2, 2600, Control_c, 9, 4, 0
2, 2656, Control_c, 9, 4, 32
2, 2663, Note_on_c, 9, 44, 126
2, 2676, Control_c, 9, 17, 13
2, 2677, Note_on_c, 9, 51, 86
2, 2688, Control_c, 9, 4, 127
2, 2741, Control_c, 9, 4, 93
2, 2745, Note_on_c, 9, 44, 0
2, 2759, Note_on_c, 9, 51, 0
2, 2774, Control_c, 9, 4, 89
2, 2792, Control_c, 9, 18, 0
2, 2793, Note_on_c, 9, 48, 48
2, 2794, Note_on_c, 9, 36, 70
2, 2874, Note_on_c, 9, 48, 0
2, 2877, Note_on_c, 9, 36, 0
2, 2883, Control_c, 9, 4, 110
2, 2894, Control_c, 9, 17, 12
2, 2895, Note_on_c, 9, 51, 67
2, 2922, Note_on_c, 9, 48, 79
2, 2976, Note_on_c, 9, 51, 0
2, 2992, Control_c, 9, 4, 95
2, 3004, Note_on_c, 9, 48, 0
2, 3019, Control_c, 9, 17, 0
2, 3019, Note_on_c, 9, 51, 96
2, 3038, Control_c, 9, 4, 72
2, 3074, Control_c, 9, 4, 0
2, 3101, Note_on_c, 9, 51, 0
2, 3135, Note_on_c, 9, 44, 126
2, 3136, Note_on_c, 9, 36, 62
2, 3142, Control_c, 9, 4, 127
2, 3184, Control_c, 9, 4, 110
2, 3214, Control_c, 9, 4, 91
2, 3217, Note_on_c, 9, 44, 0
2, 3219, Note_on_c, 9, 36, 0
2, 3228, Control_c, 9, 17, 56
2, 3229, Note_on_c, 9, 51, 54
2, 3311, Note_on_c, 9, 51, 0
2, 3340, Control_c, 9, 4, 99
2, 3379, Control_c, 9, 4, 95
2, 3380, Note_on_c, 9, 36, 83
2, 3386, Control_c, 9, 17, 0
2, 3387, Control_c, 9, 16, 0
2, 3387, Note_on_c, 9, 38, 68
2, 3387, Note_on_c, 9, 51, 94
2, 3427, Control_c, 9, 4, 99
2, 3463, Note_on_c, 9, 36, 0
2, 3467, Note_on_c, 9, 38, 0
2, 3467, Note_on_c, 9, 51, 0
2, 3476, Control_c, 9, 4, 92
2, 3511, Control_c, 9, 4, 73
2, 3551, Control_c, 9, 4, 0
2, 3616, Note_on_c, 9, 44, 126
2, 3622, Control_c, 9, 4, 127
2, 3631, Control_c, 9, 17, 44
2, 3631, Note_on_c, 9, 51, 76
2, 3666, Control_c, 9, 4, 120
2, 3698, Note_on_c, 9, 44, 0
2, 3709, Control_c, 9, 4, 92
2, 3713, Note_on_c, 9, 51, 0
2, 3747, Control_c, 9, 18, 0
2, 3747, Note_on_c, 9, 48, 51
2, 3751, Note_on_c, 9, 36, 81
2, 3828, Note_on_c, 9, 48, 0
2, 3834, Note_on_c, 9, 36, 0
2, 3864, Control_c, 9, 4, 100
2, 3874, Control_c, 9, 17, 41
2, 3875, Note_on_c, 9, 51, 92
2, 3957, Note_on_c, 9, 51, 0
2, 3958, Control_c, 9, 4, 93
2, 3994, Control_c, 9, 4, 75
2, 3996, Note_on_c, 9, 48, 124
2, 4030, Control_c, 9, 4, 0
2, 4077, Note_on_c, 9, 48, 0
2, 4102, Control_c, 9, 4, 32
2, 4108, Note_on_c, 9, 44, 127
2, 4120, Note_on_c, 9, 38, 38
2, 4133, Control_c, 9, 4, 127
2, 4165, Control_c, 9, 4, 102
2, 4175, Control_c, 9, 16, 0
2, 4175, Note_on_c, 9, 38, 0
2, 4176, Note_on_c, 9, 38, 40
2, 4189, Note_on_c, 9, 44, 0
2, 4197, Control_c, 9, 4, 89
2, 4202, Note_on_c, 9, 38, 0
2, 4235, Note_on_c, 9, 38, 40
2, 4256, Note_on_c, 9, 38, 0
2, 4279, Control_c, 9, 16, 0
2, 4280, Note_on_c, 9, 38, 49
2, 4309, Control_c, 9, 4, 95
2, 4317, Note_on_c, 9, 38, 0
2, 4351, Control_c, 9, 17, 94
2, 4351, Note_on_c, 9, 51, 82
2, 4358, Note_on_c, 9, 36, 89
2, 4433, Note_on_c, 9, 51, 0
2, 4440, Note_on_c, 9, 36, 0
2, 4454, Control_c, 9, 4, 88
2, 4486, Control_c, 9, 4, 71
2, 4524, Control_c, 9, 4, 0
2, 4582, Note_on_c, 9, 44, 119
2, 4589, Note_on_c, 9, 40, 80
2, 4590, Control_c, 9, 4, 127
2, 4590, Control_c, 9, 17, 63
2, 4590, Note_on_c, 9, 51, 83
2, 4632, Control_c, 9, 4, 116
2, 4663, Note_on_c, 9, 44, 0
2, 4670, Control_c, 9, 4, 90
2, 4670, Note_on_c, 9, 40, 0
2, 4672, Note_on_c, 9, 51, 0
2, 4708, Note_on_c, 9, 36, 74
2, 4791, Note_on_c, 9, 36, 0
2, 4816, Control_c, 9, 4, 98
2, 4824, Control_c, 9, 17, 60
2, 4825, Note_on_c, 9, 51, 81
2, 4852, Control_c, 9, 4, 102
2, 4907, Note_on_c, 9, 51, 0
2, 4924, Control_c, 9, 4, 89
2, 4928, Control_c, 9, 18, 0
2, 4929, Note_on_c, 9, 48, 59
2, 4955, Control_c, 9, 4, 71
2, 4990, Control_c, 9, 4, 0
2, 5010, Note_on_c, 9, 48, 0
2, 5057, Control_c, 9, 16, 0
2, 5058, Note_on_c, 9, 38, 58
2, 5064, Note_on_c, 9, 44, 127
2, 5069, Control_c, 9, 4, 127
2, 5115, Control_c, 9, 4, 120
2, 5138, Note_on_c, 9, 38, 0
2, 5146, Note_on_c, 9, 44, 0
2, 5155, Control_c, 9, 4, 91
2, 5169, Note_on_c, 9, 36, 65
2, 5251, Note_on_c, 9, 36, 0
2, 5286, Note_on_c, 9, 36, 78
2, 5294, Control_c, 9, 4, 112
2, 5310, Control_c, 9, 17, 127
2, 5311, Note_on_c, 9, 51, 100
2, 5357, Control_c, 9, 4, 102
2, 5369, Note_on_c, 9, 36, 0
2, 5391, Control_c, 9, 4, 90
2, 5392, Note_on_c, 9, 51, 0
2, 5425, Control_c, 9, 4, 72
2, 5461, Control_c, 9, 4, 0
2, 5532, Note_on_c, 9, 44, 127
2, 5537, Control_c, 9, 4, 127
2, 5542, Control_c, 9, 17, 65
2, 5543, Note_on_c, 9, 51, 77
2, 5546, Note_on_c, 9, 40, 79
2, 5579, Control_c, 9, 4, 110
2, 5613, Control_c, 9, 4, 91
2, 5614, Note_on_c, 9, 44, 0
2, 5625, Note_on_c, 9, 51, 0
2, 5627, Note_on_c, 9, 40, 0
2, 5763, Control_c, 9, 4, 98
2, 5781, Control_c, 9, 17, 31
2, 5782, Note_on_c, 9, 51, 80
2, 5788, Note_on_c, 9, 36, 84
2, 5809, Control_c, 9, 4, 104
2, 5857, Control_c, 9, 4, 97
2, 5864, Note_on_c, 9, 51, 0
2, 5871, Note_on_c, 9, 36, 0
2, 5888, Control_c, 9, 4, 82
2, 5931, Control_c, 9, 4, 0
2, 5968, Control_c, 9, 4, 0
2, 5969, Note_on_c, 9, 46, 38
2, 5995, Note_on_c, 9, 49, 3
2, 6015, Note_on_c, 9, 46, 0
2, 6016, Note_on_c, 9, 46, 14
2, 6022, Control_c, 9, 4, 35
2, 6027, Control_c, 9, 17, 0
2, 6027, Note_on_c, 9, 51, 75
2, 6029, Note_on_c, 9, 44, 127
2, 6052, Note_on_c, 9, 46, 0
2, 6053, Control_c, 9, 4, 90
2, 6078, Note_on_c, 9, 49, 0
2, 6096, Control_c, 9, 4, 22
2, 6098, Control_c, 9, 16, 0
2, 6098, Note_on_c, 9, 38, 33
2, 6109, Note_on_c, 9, 44, 0
2, 6109, Note_on_c, 9, 51, 0
2, 6138, Control_c, 9, 4, 46
2, 6149, Note_on_c, 9, 38, 0
2, 6150, Note_on_c, 9, 38, 40
2, 6169, Control_c, 9, 4, 69
2, 6169, Note_on_c, 9, 46, 7
2, 6181, Note_on_c, 9, 38, 0
2, 6200, Control_c, 9, 16, 0
2, 6200, Note_on_c, 9, 40, 66
2, 6242, Control_c, 9, 4, 63
2, 6251, Note_on_c, 9, 46, 0
2, 6257, Note_on_c, 9, 36, 74
2, 6265, Control_c, 9, 17, 44
2, 6265, Note_on_c, 9, 51, 96
2, 6282, Note_on_c, 9, 40, 0
2, 6300, Control_c, 9, 4, 54
2, 6331, Control_c, 9, 4, 38
2, 6340, Note_on_c, 9, 36, 0
2, 6346, Note_on_c, 9, 51, 0
2, 6366, Control_c, 9, 4, 0
2, 6499, Control_c, 9, 4, 64
2, 6504, Note_on_c, 9, 44, 74
2, 6508, Note_on_c, 9, 40, 81
2, 6514, Control_c, 9, 17, 100
2, 6514, Note_on_c, 9, 51, 85
2, 6530, Control_c, 9, 4, 88
2, 6561, Control_c, 9, 4, 84
2, 6585, Note_on_c, 9, 44, 0
2, 6590, Note_on_c, 9, 40, 0
2, 6596, Note_on_c, 9, 51, 0
2, 6742, Control_c, 9, 17, 53
2, 6742, Note_on_c, 9, 51, 76
2, 6745, Note_on_c, 9, 36, 77
2, 6768, Control_c, 9, 4, 110
2, 6817, Control_c, 9, 4, 91
2, 6823, Note_on_c, 9, 51, 0
2, 6828, Note_on_c, 9, 36, 0
2, 6849, Control_c, 9, 4, 71
2, 6855, Note_on_c, 9, 46, 7
2, 6858, Control_c, 9, 16, 0
2, 6858, Note_on_c, 9, 38, 41
2, 6881, Control_c, 9, 4, 0
2, 6938, Note_on_c, 9, 46, 0
2, 6939, Note_on_c, 9, 38, 0
2, 6961, Note_on_c, 9, 46, 11
2, 6970, Control_c, 9, 4, 35
2, 6976, Note_on_c, 9, 44, 127
2, 6983, Control_c, 9, 17, 99
2, 6983, Note_on_c, 9, 51, 87
2, 7001, Control_c, 9, 4, 92
2, 7042, Note_on_c, 9, 46, 0
2, 7046, Control_c, 9, 4, 0
2, 7058, Note_on_c, 9, 44, 0
2, 7065, Note_on_c, 9, 51, 0
2, 7090, Note_on_c, 9, 36, 43
2, 7172, Note_on_c, 9, 36, 0
2, 7200, Note_on_c, 9, 36, 77
2, 7249, Control_c, 9, 17, 127
2, 7249, Note_on_c, 9, 51, 55
2, 7282, Note_on_c, 9, 36, 0
2, 7319, Note_on_c, 9, 38, 33
2, 7330, Note_on_c, 9, 51, 0
2, 7364, Control_c, 9, 16, 0
2, 7364, Note_on_c, 9, 38, 0
2, 7365, Note_on_c, 9, 38, 49
2, 7400, Note_on_c, 9, 38, 0
2, 7433, Note_on_c, 9, 55, 65
2, 7449, Note_on_c, 9, 36, 105
2, 7515, Note_on_c, 9, 55, 0
2, 7531, Note_on_c, 9, 36, 0
2, 7595, Note_on_c, 9, 49, 3
2, 7678, Note_on_c, 9, 49, 0
2, 7679, End_track
0, 0, End_of_file
