0, 0, Header, 1, 2, 480
1, 0, Start_track
1, 0, Tempo, 588235
1, 0, Time_signature, 4, 2, 24, 8
1, 0, Key_signature, 0, "major"
1, 1, End_track
2, 0, Start_track
2, 0, Title_t, "Classic Studio Kit"
2, 0, Program_c, 9, 0
2, 0, Control_c, 9, 16, 0
2, 27, Control_c, 9, 4, 95
2, 78, Control_c, 9, 4, 89
2, 111, Control_c, 9, 4, 72
2, 116, Note_on_c, 9, 48, 51
2, 156, Control_c, 9, 4, 0
2, 198, Note_on_c, 9, 48, 0
2, 239, Note_on_c, 9, 44, 126
2, 244, Control_c, 9, 4, 108
2, 245, Control_c, 9, 17, 8
2, 245, Note_on_c, 9, 51, 102
2, 280, Control_c, 9, 4, 60
2, 315, Control_c, 9, 4, 28
2, 320, Note_on_c, 9, 44, 0
2, 328, Note_on_c, 9, 51, 0
2, 362, Note_on_c, 9, 36, 27
2, 368, Control_c, 9, 4, 20
2, 404, Control_c, 9, 4, 0
2, 444, Note_on_c, 9, 36, 0
2, 452, Control_c, 9, 4, 11
2, 480, Note_on_c, 9, 36, 68
2, 488, Control_c, 9, 4, 43
2, 563, Note_on_c, 9, 36, 0
2, 697, Control_c, 9, 4, 47
2, 727, Note_on_c, 9, 55, 54
2, 740, Note_on_c, 9, 36, 88
2, 802, Control_c, 9, 4, 38
2, 810, Note_on_c, 9, 55, 0
2, 823, Note_on_c, 9, 36, 0
2, 833, Control_c, 9, 4, 0
2, 945, Control_c, 9, 4, 50
2, 952, Note_on_c, 9, 44, 80
2, 976, Control_c, 9, 17, 4
2, 977, Control_c, 9, 4, 92
2, 977, Note_on_c, 9, 51, 101
2, 1033, Note_on_c, 9, 44, 0
2, 1060, Note_on_c, 9, 51, 0
2, 1088, Note_on_c, 9, 38, 35
2, 1170, Note_on_c, 9, 38, 0
2, 1208, Control_c, 9, 16, 0
2, 1208, Note_on_c, 9, 38, 52
2, 1241, Control_c, 9, 4, 96
2, 1290, Note_on_c, 9, 38, 0
2, 1296, Control_c, 9, 4, 90
2, 1327, Control_c, 9, 4, 70
2, 1332, Control_c, 9, 16, 0
2, 1333, Note_on_c, 9, 38, 36
2, 1364, Control_c, 9, 4, 0
2, 1415, Note_on_c, 9, 38, 0
2, 1435, Note_on_c, 9, 46, 16
2, 1453, Control_c, 9, 17, 56
2, 1454, Note_on_c, 9, 51, 88
2, 1455, Control_c, 9, 4, 33
2, 1461, Note_on_c, 9, 44, 127
2, 1486, Control_c, 9, 4, 80
2, 1516, Note_on_c, 9, 46, 0
2, 1522, Control_c, 9, 4, 29
2, 1535, Note_on_c, 9, 51, 0
2, 1543, Note_on_c, 9, 44, 0
2, 1576, Control_c, 9, 4, 66
2, 1689, Control_c, 9, 16, 127
2, 1690, Note_on_c, 9, 38, 69
2, 1699, Control_c, 9, 17, 55
2, 1699, Note_on_c, 9, 51, 127
2, 1713, Control_c, 9, 4, 62
2, 1761, Control_c, 9, 4, 46
2, 1771, Note_on_c, 9, 38, 0
2, 1780, Note_on_c, 9, 51, 0
2, 1794, Control_c, 9, 4, 0
2, 1890, Control_c, 9, 4, 48
2, 1898, Note_on_c, 9, 44, 74
2, 1902, Control_c, 9, 17, 127
2, 1903, Note_on_c, 9, 51, 36
2, 1923, Control_c, 9, 4, 91
2, 1961, Control_c, 9, 4, 95
2, 1979, Note_on_c, 9, 44, 0
2, 1984, Note_on_c, 9, 51, 0
2, 2015, Control_c, 9, 4, 91
2, 2035, Control_c, 9, 18, 0
2, 2036, Note_on_c, 9, 48, 46
2, 2116, Note_on_c, 9, 48, 0
2, 2159, Control_c, 9, 16, 0
2, 2160, Note_on_c, 9, 38, 62
2, 2173, Control_c, 9, 4, 116
2, 2241, Note_on_c, 9, 38, 0
2, 2244, Control_c, 9, 4, 102
2, 2283, Control_c, 9, 4, 77
2, 2293, Note_on_c, 9, 36, 69
2, 2323, Control_c, 9, 4, 0
2, 2376, Note_on_c, 9, 36, 0
2, 2403, Control_c, 9, 4, 35
2, 2408, Note_on_c, 9, 44, 127
2, 2409, Note_on_c, 9, 38, 33
2, 2433, Control_c, 9, 4, 94
2, 2471, Control_c, 9, 4, 45
2, 2489, Note_on_c, 9, 44, 0
2, 2490, Note_on_c, 9, 38, 0
2, 2512, Control_c, 9, 4, 69
2, 2543, Control_c, 9, 16, 0
2, 2543, Note_on_c, 9, 38, 62
2, 2627, Note_on_c, 9, 38, 0
2, 2644, Note_on_c, 9, 36, 83
2, 2645, Note_on_c, 9, 59, 79
2, 2727, Note_on_c, 9, 36, 0
2, 2728, Note_on_c, 9, 59, 0
2, 2892, Control_c, 9, 16, 85
2, 2892, Note_on_c, 9, 38, 68
2, 2898, Control_c, 9, 17, 65
2, 2898, Note_on_c, 9, 51, 120
2, 2974, Note_on_c, 9, 38, 0
2, 2981, Note_on_c, 9, 51, 0
2, 3138, Note_on_c, 9, 53, 127
2, 3220, Note_on_c, 9, 53, 0
2, 3266, Control_c, 9, 16, 0
2, 3266, Note_on_c, 9, 38, 23
2, 3348, Note_on_c, 9, 38, 0
2, 3387, Control_c, 9, 17, 11
2, 3387, Note_on_c, 9, 51, 54
2, 3394, Control_c, 9, 4, 76
2, 3394, Note_on_c, 9, 36, 81
2, 3425, Control_c, 9, 4, 90
2, 3469, Note_on_c, 9, 51, 0
2, 3477, Note_on_c, 9, 36, 0
2, 3509, Note_on_c, 9, 38, 22
2, 3543, Control_c, 9, 4, 85
2, 3589, Control_c, 9, 4, 81
2, 3590, Note_on_c, 9, 38, 0
2, 3629, Control_c, 9, 4, 93
2, 3643, Control_c, 9, 17, 127
2, 3644, Note_on_c, 9, 51, 29
2, 3664, Control_c, 9, 4, 92
2, 3725, Note_on_c, 9, 51, 0
2, 3752, Note_on_c, 9, 51, 57
2, 3768, Control_c, 9, 17, 100
2, 3769, Note_on_c, 9, 51, 0
2, 3770, Note_on_c, 9, 51, 64
2, 3826, Control_c, 9, 4, 85
2, 3834, Note_on_c, 9, 51, 0
2, 3890, Control_c, 9, 16, 0
2, 3891, Note_on_c, 9, 40, 66
2, 3972, Note_on_c, 9, 40, 0
2, 4117, Control_c, 9, 17, 7
2, 4118, Note_on_c, 9, 51, 127
2, 4200, Note_on_c, 9, 51, 0
2, 4252, Control_c, 9, 16, 0
2, 4253, Note_on_c, 9, 38, 23
2, 4333, Note_on_c, 9, 38, 0
2, 4382, Control_c, 9, 17, 127
2, 4382, Note_on_c, 9, 51, 40
2, 4463, Note_on_c, 9, 51, 0
2, 4599, Control_c, 9, 16, 126
2, 4599, Note_on_c, 9, 40, 62
2, 4609, Control_c, 9, 17, 60
2, 4610, Note_on_c, 9, 51, 124
2, 4680, Note_on_c, 9, 40, 0
2, 4683, Control_c, 9, 4, 81
2, 4692, Note_on_c, 9, 51, 0
2, 4843, Control_c, 9, 17, 82
2, 4843, Note_on_c, 9, 51, 82
2, 4871, Control_c, 9, 4, 93
2, 4924, Note_on_c, 9, 51, 0
2, 4955, Control_c, 9, 4, 81
2, 4964, Note_on_c, 9, 48, 52
2, 4990, Control_c, 9, 4, 70
2, 5038, Control_c, 9, 4, 38
2, 5046, Note_on_c, 9, 48, 0
2, 5070, Note_on_c, 9, 44, 35
2, 5085, Control_c, 9, 16, 0
2, 5086, Note_on_c, 9, 38, 41
2, 5087, Control_c, 9, 4, 106
2, 5120, Control_c, 9, 4, 86
2, 5152, Note_on_c, 9, 44, 0
2, 5167, Note_on_c, 9, 38, 0
2, 5203, Note_on_c, 9, 38, 31
2, 5284, Note_on_c, 9, 38, 0
2, 5302, Note_on_c, 9, 36, 84
2, 5318, Note_on_c, 9, 55, 50
2, 5384, Note_on_c, 9, 36, 0
2, 5400, Note_on_c, 9, 55, 0
2, 5541, Note_on_c, 9, 36, 91
2, 5561, Control_c, 9, 4, 100
2, 5562, Control_c, 9, 17, 75
2, 5562, Note_on_c, 9, 51, 104
2, 5591, Control_c, 9, 4, 110
2, 5625, Note_on_c, 9, 36, 0
2, 5633, Control_c, 9, 4, 92
2, 5645, Note_on_c, 9, 51, 0
2, 5665, Control_c, 9, 4, 73
2, 5686, Control_c, 9, 16, 0
2, 5687, Note_on_c, 9, 38, 5
2, 5705, Control_c, 9, 4, 0
2, 5768, Note_on_c, 9, 38, 0
2, 5771, Note_on_c, 9, 46, 12
2, 5777, Control_c, 9, 4, 35
2, 5782, Note_on_c, 9, 44, 127
2, 5799, Control_c, 9, 17, 71
2, 5799, Note_on_c, 9, 51, 42
2, 5807, Control_c, 9, 4, 77
2, 5848, Control_c, 9, 4, 10
2, 5853, Note_on_c, 9, 46, 0
2, 5864, Note_on_c, 9, 44, 0
2, 5880, Control_c, 9, 4, 9
2, 5882, Note_on_c, 9, 51, 0
2, 5922, Note_on_c, 9, 38, 34
2, 5923, Control_c, 9, 4, 33
2, 5991, Control_c, 9, 4, 22
2, 6003, Note_on_c, 9, 38, 0
2, 6042, Control_c, 9, 17, 29
2, 6042, Note_on_c, 9, 51, 90
2, 6124, Note_on_c, 9, 51, 0
2, 6133, Note_on_c, 9, 36, 54
2, 6156, Control_c, 9, 4, 18
2, 6166, Control_c, 9, 16, 0
2, 6166, Note_on_c, 9, 38, 11
2, 6215, Note_on_c, 9, 36, 0
2, 6248, Note_on_c, 9, 38, 0
2, 6250, Note_on_c, 9, 36, 76
2, 6259, Control_c, 9, 17, 29
2, 6260, Note_on_c, 9, 51, 4
2, 6317, Control_c, 9, 4, 13
2, 6331, Note_on_c, 9, 36, 0
2, 6341, Note_on_c, 9, 51, 0
2, 6353, Control_c, 9, 4, 0
2, 6378, Control_c, 9, 18, 0
2, 6379, Note_on_c, 9, 48, 62
2, 6460, Note_on_c, 9, 48, 0
2, 6488, Control_c, 9, 4, 64
2, 6494, Note_on_c, 9, 44, 61
2, 6496, Note_on_c, 9, 38, 50
2, 6519, Control_c, 9, 4, 90
2, 6553, Control_c, 9, 4, 112
2, 6575, Note_on_c, 9, 44, 0
2, 6578, Note_on_c, 9, 38, 0
2, 6606, Control_c, 9, 4, 97
2, 6637, Control_c, 9, 4, 78
2, 6648, Note_on_c, 9, 36, 89
2, 6675, Control_c, 9, 4, 0
2, 6730, Note_on_c, 9, 36, 0
2, 6748, Control_c, 9, 16, 0
2, 6748, Note_on_c, 9, 38, 36
2, 6750, Control_c, 9, 4, 16
2, 6751, Note_on_c, 9, 46, 15
2, 6754, Note_on_c, 9, 44, 127
2, 6780, Control_c, 9, 4, 72
2, 6821, Control_c, 9, 4, 4
2, 6830, Note_on_c, 9, 38, 0
2, 6833, Note_on_c, 9, 46, 0
2, 6836, Note_on_c, 9, 44, 0
2, 6861, Control_c, 9, 4, 25
2, 6897, Control_c, 9, 4, 58
2, 6942, Control_c, 9, 4, 46
2, 6975, Control_c, 9, 4, 33
2, 6985, Control_c, 9, 16, 6
2, 6985, Note_on_c, 9, 40, 61
2, 6986, Note_on_c, 9, 36, 92
2, 6989, Note_on_c, 9, 59, 99
2, 7012, Control_c, 9, 4, 23
2, 7068, Note_on_c, 9, 36, 0
2, 7068, Note_on_c, 9, 40, 0
2, 7072, Note_on_c, 9, 59, 0
2, 7075, Control_c, 9, 4, 16
2, 7107, Control_c, 9, 4, 0
2, 7195, Note_on_c, 9, 46, 7
2, 7208, Control_c, 9, 4, 52
2, 7214, Note_on_c, 9, 44, 93
2, 7239, Control_c, 9, 4, 94
2, 7275, Control_c, 9, 4, 70
2, 7277, Note_on_c, 9, 46, 0
2, 7297, Note_on_c, 9, 44, 0
2, 7337, Control_c, 9, 4, 38
2, 7368, Control_c, 9, 4, 0
2, 7455, Control_c, 9, 4, 16
2, 7474, Note_on_c, 9, 59, 109
2, 7480, Control_c, 9, 16, 0
2, 7480, Note_on_c, 9, 38, 54
2, 7509, Control_c, 9, 4, 10
2, 7555, Note_on_c, 9, 59, 0
2, 7559, Control_c, 9, 4, 0
2, 7562, Note_on_c, 9, 38, 0
2, 7563, End_track
0, 0, End_of_file
