0, 0, Header, 1, 2, 480
1, 0, Start_track
1, 0, Tempo, 545454
1, 0, Time_signature, 4, 2, 24, 8
1, 0, Key_signature, 0, "major"
1, 1, End_track
2, 0, Start_track
2, 0, Title_t, "Midi Drums"
2, 0, Program_c, 9, 0
2, 101, Note_on_c, 9, 38, 42
2, 189, Note_on_c, 9, 38, 0
2, 208, Note_on_c, 9, 38, 23
2, 298, Note_on_c, 9, 38, 0
2, 316, Note_on_c, 9, 38, 40
2, 405, Note_on_c, 9, 38, 0
2, 435, Note_on_c, 9, 36, 85
2, 443, Note_on_c, 9, 38, 127
2, 525, Note_on_c, 9, 36, 0
2, 532, Note_on_c, 9, 38, 0
2, 580, Note_on_c, 9, 38, 38
2, 669, Note_on_c, 9, 38, 0
2, 694, Note_on_c, 9, 38, 54
2, 782, Note_on_c, 9, 38, 0
2, 807, Note_on_c, 9, 38, 40
2, 896, Note_on_c, 9, 38, 0
2, 918, Note_on_c, 9, 36, 87
2, 922, Note_on_c, 9, 38, 127
2, 1007, Note_on_c, 9, 36, 0
2, 1011, Note_on_c, 9, 38, 0
2, 1064, Note_on_c, 9, 38, 31
2, 1153, Note_on_c, 9, 38, 0
2, 1166, Note_on_c, 9, 38, 55
2, 1255, Note_on_c, 9, 38, 0
2, 1285, Note_on_c, 9, 38, 42
2, 1373, Note_on_c, 9, 38, 0
2, 1379, Note_on_c, 9, 36, 91
2, 1387, Note_on_c, 9, 38, 127
2, 1468, Note_on_c, 9, 36, 0
2, 1475, Note_on_c, 9, 38, 0
2, 1522, Note_on_c, 9, 38, 39
2, 1611, Note_on_c, 9, 38, 0
2, 1630, Note_on_c, 9, 38, 42
2, 1718, Note_on_c, 9, 38, 0
2, 1744, Note_on_c, 9, 38, 46
2, 1833, Note_on_c, 9, 38, 0
2, 1850, Note_on_c, 9, 36, 110
2, 1859, Note_on_c, 9, 38, 127
2, 1939, Note_on_c, 9, 36, 0
2, 1948, Note_on_c, 9, 38, 0
2, 2027, Note_on_c, 9, 38, 38
2, 2116, Note_on_c, 9, 38, 0
2, 2138, Note_on_c, 9, 38, 48
2, 2227, Note_on_c, 9, 38, 0
2, 2274, Note_on_c, 9, 38, 40
2, 2360, Note_on_c, 9, 36, 99
2, 2362, Note_on_c, 9, 38, 0
2, 2376, Note_on_c, 9, 38, 127
2, 2448, Note_on_c, 9, 36, 0
2, 2464, Note_on_c, 9, 38, 0
2, 2532, Note_on_c, 9, 38, 39
2, 2621, Note_on_c, 9, 38, 0
2, 2638, Note_on_c, 9, 38, 61
2, 2726, Note_on_c, 9, 38, 0
2, 2768, Note_on_c, 9, 38, 40
2, 2857, Note_on_c, 9, 36, 94
2, 2857, Note_on_c, 9, 38, 0
2, 2869, Note_on_c, 9, 38, 127
2, 2946, Note_on_c, 9, 36, 0
2, 2958, Note_on_c, 9, 38, 0
2, 3034, Note_on_c, 9, 38, 36
2, 3115, Note_on_c, 9, 38, 0
2, 3115, Note_on_c, 9, 38, 58
2, 3123, Note_on_c, 9, 38, 0
2, 3252, Note_on_c, 9, 38, 43
2, 3335, Note_on_c, 9, 36, 99
2, 3341, Note_on_c, 9, 38, 0
2, 3345, Note_on_c, 9, 38, 127
2, 3423, Note_on_c, 9, 36, 0
2, 3434, Note_on_c, 9, 38, 0
2, 3507, Note_on_c, 9, 38, 34
2, 3593, Note_on_c, 9, 38, 0
2, 3593, Note_on_c, 9, 38, 61
2, 3596, Note_on_c, 9, 38, 0
2, 3728, Note_on_c, 9, 38, 44
2, 3812, Note_on_c, 9, 36, 99
2, 3817, Note_on_c, 9, 38, 0
2, 3821, Note_on_c, 9, 38, 127
2, 3901, Note_on_c, 9, 36, 0
2, 3910, Note_on_c, 9, 38, 0
2, 3992, Note_on_c, 9, 38, 38
2, 4066, Note_on_c, 9, 38, 0
2, 4066, Note_on_c, 9, 38, 56
2, 4082, Note_on_c, 9, 38, 0
2, 4207, Note_on_c, 9, 38, 46
2, 4296, Note_on_c, 9, 36, 108
2, 4296, Note_on_c, 9, 38, 0
2, 4307, Note_on_c, 9, 38, 127
2, 4384, Note_on_c, 9, 36, 0
2, 4396, Note_on_c, 9, 38, 0
2, 4462, Note_on_c, 9, 38, 38
2, 4551, Note_on_c, 9, 38, 0
2, 4566, Note_on_c, 9, 38, 86
2, 4655, Note_on_c, 9, 38, 0
2, 4693, Note_on_c, 9, 38, 52
2, 4782, Note_on_c, 9, 38, 0
2, 4787, Note_on_c, 9, 36, 98
2, 4796, Note_on_c, 9, 38, 127
2, 4876, Note_on_c, 9, 36, 0
2, 4885, Note_on_c, 9, 38, 0
2, 4933, Note_on_c, 9, 38, 42
2, 5022, Note_on_c, 9, 38, 0
2, 5046, Note_on_c, 9, 38, 78
2, 5135, Note_on_c, 9, 38, 0
2, 5171, Note_on_c, 9, 38, 57
2, 5260, Note_on_c, 9, 38, 0
2, 5272, Note_on_c, 9, 36, 103
2, 5277, Note_on_c, 9, 38, 127
2, 5361, Note_on_c, 9, 36, 0
2, 5366, Note_on_c, 9, 38, 0
2, 5412, Note_on_c, 9, 38, 45
2, 5501, Note_on_c, 9, 38, 0
2, 5526, Note_on_c, 9, 38, 88
2, 5615, Note_on_c, 9, 38, 0
2, 5652, Note_on_c, 9, 38, 59
2, 5741, Note_on_c, 9, 38, 0
2, 5764, Note_on_c, 9, 36, 116
2, 5770, Note_on_c, 9, 38, 127
2, 5853, Note_on_c, 9, 36, 0
2, 5859, Note_on_c, 9, 38, 0
2, 5875, Note_on_c, 9, 38, 53
2, 5964, Note_on_c, 9, 38, 0
2, 6002, Note_on_c, 9, 38, 106
2, 6091, Note_on_c, 9, 38, 0
2, 6106, Note_on_c, 9, 38, 92
2, 6194, Note_on_c, 9, 38, 0
2, 6229, Note_on_c, 9, 38, 127
2, 6318, Note_on_c, 9, 38, 0
2, 6330, Note_on_c, 9, 38, 102
2, 6419, Note_on_c, 9, 38, 0
2, 6463, Note_on_c, 9, 38, 127
2, 6552, Note_on_c, 9, 38, 0
2, 6569, Note_on_c, 9, 38, 118
2, 6657, Note_on_c, 9, 38, 0
2, 6689, Note_on_c, 9, 40, 126
2, 6778, Note_on_c, 9, 40, 0
2, 6793, Note_on_c, 9, 38, 127
2, 6882, Note_on_c, 9, 38, 0
2, 6923, Note_on_c, 9, 48, 127
2, 7012, Note_on_c, 9, 48, 0
2, 7042, Note_on_c, 9, 48, 97
2, 7132, Note_on_c, 9, 48, 0
2, 7156, Note_on_c, 9, 45, 127
2, 7245, Note_on_c, 9, 45, 0
2, 7434, Note_on_c, 9, 45, 92
2, 7522, Note_on_c, 9, 45, 0
2, 7523, End_track
0, 0, End_of_file
