0, 0, Header, 1, 2, 480
1, 0, Start_track
1, 0, Tempo, 588235
1, 0, Time_signature, 4, 2, 24, 8
1, 0, Key_signature, 0, "major"
1, 1, End_track
2, 0, Start_track
2, 0, Title_t, "Classic Studio Kit"
2, 0, Program_c, 9, 0
2, 0, Control_c, 9, 18, 21
2, 7, Control_c, 9, 4, 110
2, 34, Control_c, 9, 17, 0
2, 34, Note_on_c, 9, 51, 57
2, 39, Control_c, 9, 18, 0
2, 40, Note_on_c, 9, 48, 57
2, 71, Control_c, 9, 4, 102
2, 114, Control_c, 9, 4, 91
2, 117, Note_on_c, 9, 51, 0
2, 121, Note_on_c, 9, 48, 0
2, 155, Control_c, 9, 17, 76
2, 155, Note_on_c, 9, 51, 73
2, 157, Control_c, 9, 4, 71
2, 201, Control_c, 9, 4, 0
2, 238, Note_on_c, 9, 51, 0
2, 251, Control_c, 9, 4, 50
2, 255, Note_on_c, 9, 44, 113
2, 261, Note_on_c, 9, 36, 61
2, 270, Control_c, 9, 17, 76
2, 271, Note_on_c, 9, 51, 7
2, 281, Control_c, 9, 4, 120
2, 298, Note_on_c, 9, 49, 6
2, 337, Note_on_c, 9, 44, 0
2, 343, Control_c, 9, 4, 92
2, 344, Note_on_c, 9, 36, 0
2, 352, Note_on_c, 9, 51, 0
2, 375, Control_c, 9, 4, 87
2, 380, Note_on_c, 9, 49, 0
2, 393, Control_c, 9, 17, 127
2, 393, Note_on_c, 9, 51, 40
2, 468, Control_c, 9, 4, 94
2, 475, Note_on_c, 9, 51, 0
2, 501, Note_on_c, 9, 36, 64
2, 510, Control_c, 9, 16, 0
2, 510, Note_on_c, 9, 38, 85
2, 514, Control_c, 9, 17, 105
2, 514, Note_on_c, 9, 51, 77
2, 584, Note_on_c, 9, 36, 0
2, 592, Note_on_c, 9, 38, 0
2, 596, Note_on_c, 9, 51, 0
2, 602, Control_c, 9, 4, 88
2, 636, Control_c, 9, 4, 71
2, 678, Control_c, 9, 4, 0
2, 732, Control_c, 9, 4, 33
2, 739, Note_on_c, 9, 44, 119
2, 742, Control_c, 9, 17, 106
2, 743, Note_on_c, 9, 51, 76
2, 764, Control_c, 9, 4, 122
2, 809, Control_c, 9, 4, 97
2, 821, Note_on_c, 9, 44, 0
2, 824, Note_on_c, 9, 51, 0
2, 850, Control_c, 9, 4, 87
2, 857, Note_on_c, 9, 48, 43
2, 871, Note_on_c, 9, 36, 59
2, 938, Note_on_c, 9, 48, 0
2, 953, Note_on_c, 9, 36, 0
2, 970, Control_c, 9, 4, 120
2, 982, Note_on_c, 9, 59, 42
2, 984, Control_c, 9, 18, 0
2, 984, Note_on_c, 9, 48, 58
2, 1055, Control_c, 9, 4, 91
2, 1064, Note_on_c, 9, 48, 0
2, 1064, Note_on_c, 9, 59, 0
2, 1085, Control_c, 9, 4, 72
2, 1108, Control_c, 9, 17, 127
2, 1108, Note_on_c, 9, 51, 70
2, 1126, Control_c, 9, 4, 0
2, 1191, Note_on_c, 9, 51, 0
2, 1201, Note_on_c, 9, 46, 12
2, 1205, Note_on_c, 9, 36, 75
2, 1209, Control_c, 9, 4, 35
2, 1214, Note_on_c, 9, 44, 127
2, 1240, Control_c, 9, 4, 126
2, 1277, Control_c, 9, 4, 114
2, 1283, Note_on_c, 9, 46, 0
2, 1288, Note_on_c, 9, 36, 0
2, 1295, Note_on_c, 9, 44, 0
2, 1310, Control_c, 9, 4, 79
2, 1343, Note_on_c, 9, 51, 35
2, 1349, Control_c, 9, 4, 0
2, 1391, Control_c, 9, 17, 127
2, 1391, Note_on_c, 9, 51, 0
2, 1392, Note_on_c, 9, 51, 19
2, 1425, Note_on_c, 9, 51, 0
2, 1431, Note_on_c, 9, 46, 8
2, 1441, Control_c, 9, 17, 127
2, 1441, Note_on_c, 9, 51, 19
2, 1444, Control_c, 9, 4, 49
2, 1449, Note_on_c, 9, 44, 106
2, 1457, Note_on_c, 9, 36, 84
2, 1461, Note_on_c, 9, 38, 66
2, 1473, Note_on_c, 9, 51, 0
2, 1475, Control_c, 9, 4, 97
2, 1511, Control_c, 9, 17, 3
2, 1511, Note_on_c, 9, 51, 28
2, 1512, Note_on_c, 9, 46, 0
2, 1523, Note_on_c, 9, 51, 0
2, 1530, Note_on_c, 9, 44, 0
2, 1539, Note_on_c, 9, 36, 0
2, 1541, Note_on_c, 9, 38, 0
2, 1562, Control_c, 9, 4, 84
2, 1697, Control_c, 9, 4, 94
2, 1772, Control_c, 9, 4, 90
2, 2417, Control_c, 9, 17, 1
2, 2418, Note_on_c, 9, 51, 98
2, 2421, Control_c, 9, 16, 0
2, 2422, Note_on_c, 9, 38, 86
2, 2444, Note_on_c, 9, 36, 78
2, 2449, Control_c, 9, 4, 102
2, 2490, Control_c, 9, 4, 95
2, 2500, Note_on_c, 9, 51, 0
2, 2503, Note_on_c, 9, 38, 0
2, 2527, Note_on_c, 9, 36, 0
2, 2543, Control_c, 9, 4, 71
2, 2579, Control_c, 9, 4, 0
2, 2654, Control_c, 9, 4, 34
2, 2660, Control_c, 9, 17, 49
2, 2660, Note_on_c, 9, 44, 127
2, 2661, Note_on_c, 9, 51, 73
2, 2685, Control_c, 9, 4, 120
2, 2734, Control_c, 9, 4, 98
2, 2741, Note_on_c, 9, 44, 0
2, 2742, Note_on_c, 9, 51, 0
2, 2770, Control_c, 9, 4, 88
2, 2778, Note_on_c, 9, 48, 46
2, 2782, Note_on_c, 9, 36, 78
2, 2860, Note_on_c, 9, 48, 0
2, 2864, Note_on_c, 9, 36, 0
2, 2891, Control_c, 9, 17, 111
2, 2892, Note_on_c, 9, 51, 64
2, 2903, Control_c, 9, 18, 0
2, 2904, Note_on_c, 9, 48, 71
2, 2907, Control_c, 9, 4, 126
2, 2974, Note_on_c, 9, 51, 0
2, 2975, Control_c, 9, 4, 97
2, 2985, Note_on_c, 9, 48, 0
2, 3013, Control_c, 9, 4, 70
2, 3022, Control_c, 9, 17, 25
2, 3023, Note_on_c, 9, 51, 65
2, 3045, Control_c, 9, 4, 0
2, 3104, Note_on_c, 9, 51, 0
2, 3125, Note_on_c, 9, 46, 11
2, 3132, Control_c, 9, 4, 34
2, 3134, Note_on_c, 9, 36, 73
2, 3138, Note_on_c, 9, 44, 127
2, 3163, Control_c, 9, 4, 127
2, 3197, Control_c, 9, 4, 116
2, 3206, Note_on_c, 9, 46, 0
2, 3216, Note_on_c, 9, 36, 0
2, 3219, Note_on_c, 9, 44, 0
2, 3230, Control_c, 9, 4, 78
2, 3253, Control_c, 9, 17, 127
2, 3253, Note_on_c, 9, 51, 51
2, 3266, Control_c, 9, 4, 0
2, 3329, Note_on_c, 9, 46, 7
2, 3335, Note_on_c, 9, 51, 0
2, 3346, Control_c, 9, 4, 67
2, 3349, Note_on_c, 9, 44, 106
2, 3368, Note_on_c, 9, 51, 5
2, 3369, Note_on_c, 9, 36, 85
2, 3375, Control_c, 9, 17, 90
2, 3375, Note_on_c, 9, 38, 62
2, 3375, Note_on_c, 9, 51, 0
2, 3377, Control_c, 9, 4, 97
2, 3377, Note_on_c, 9, 51, 86
2, 3411, Note_on_c, 9, 46, 0
2, 3430, Note_on_c, 9, 44, 0
2, 3439, Control_c, 9, 4, 91
2, 3449, Note_on_c, 9, 51, 0
2, 3450, Note_on_c, 9, 36, 0
2, 3456, Note_on_c, 9, 38, 0
2, 4313, Control_c, 9, 16, 0
2, 4313, Note_on_c, 9, 38, 68
2, 4314, Control_c, 9, 17, 12
2, 4315, Note_on_c, 9, 51, 79
2, 4328, Note_on_c, 9, 36, 78
2, 4347, Control_c, 9, 4, 102
2, 4395, Note_on_c, 9, 38, 0
2, 4395, Note_on_c, 9, 51, 0
2, 4399, Control_c, 9, 4, 90
2, 4411, Note_on_c, 9, 36, 0
2, 4442, Control_c, 9, 4, 70
2, 4475, Control_c, 9, 4, 0
2, 4548, Control_c, 9, 4, 51
2, 4552, Note_on_c, 9, 44, 126
2, 4564, Control_c, 9, 17, 65
2, 4565, Note_on_c, 9, 51, 63
2, 4578, Control_c, 9, 4, 120
2, 4634, Note_on_c, 9, 44, 0
2, 4646, Note_on_c, 9, 51, 0
2, 4647, Control_c, 9, 4, 92
2, 4681, Note_on_c, 9, 36, 77
2, 4681, Note_on_c, 9, 48, 46
2, 4752, Control_c, 9, 4, 88
2, 4762, Note_on_c, 9, 36, 0
2, 4762, Note_on_c, 9, 48, 0
2, 4792, Control_c, 9, 17, 62
2, 4792, Note_on_c, 9, 51, 57
2, 4804, Control_c, 9, 18, 0
2, 4805, Note_on_c, 9, 48, 70
2, 4814, Control_c, 9, 4, 120
2, 4874, Note_on_c, 9, 51, 0
2, 4882, Control_c, 9, 4, 97
2, 4886, Note_on_c, 9, 48, 0
2, 4921, Control_c, 9, 4, 70
2, 4925, Control_c, 9, 17, 9
2, 4926, Note_on_c, 9, 51, 60
2, 4955, Control_c, 9, 4, 0
2, 5008, Note_on_c, 9, 51, 0
2, 5032, Note_on_c, 9, 46, 7
2, 5039, Control_c, 9, 4, 33
2, 5045, Note_on_c, 9, 44, 127
2, 5048, Note_on_c, 9, 36, 72
2, 5070, Control_c, 9, 4, 127
2, 5088, Note_on_c, 9, 49, 6
2, 5114, Note_on_c, 9, 46, 0
2, 5121, Control_c, 9, 4, 98
2, 5127, Note_on_c, 9, 44, 0
2, 5129, Note_on_c, 9, 36, 0
2, 5161, Control_c, 9, 4, 70
2, 5163, Control_c, 9, 17, 72
2, 5164, Note_on_c, 9, 51, 49
2, 5170, Note_on_c, 9, 49, 0
2, 5194, Control_c, 9, 4, 0
2, 5245, Note_on_c, 9, 51, 0
2, 5279, Control_c, 9, 17, 2
2, 5280, Control_c, 9, 4, 33
2, 5280, Note_on_c, 9, 51, 91
2, 5284, Note_on_c, 9, 38, 61
2, 5287, Note_on_c, 9, 44, 126
2, 5288, Note_on_c, 9, 36, 81
2, 5312, Control_c, 9, 4, 102
2, 5345, Control_c, 9, 4, 108
2, 5361, Note_on_c, 9, 51, 0
2, 5366, Note_on_c, 9, 38, 0
2, 5368, Note_on_c, 9, 44, 0
2, 5369, Note_on_c, 9, 36, 0
2, 5375, Control_c, 9, 4, 90
2, 5413, Control_c, 9, 4, 79
2, 5499, Control_c, 9, 4, 92
2, 5525, Control_c, 9, 17, 50
2, 5525, Note_on_c, 9, 51, 62
2, 5529, Control_c, 9, 4, 127
2, 5581, Control_c, 9, 4, 100
2, 5608, Note_on_c, 9, 51, 0
2, 5622, Control_c, 9, 4, 70
2, 5632, Note_on_c, 9, 36, 69
2, 5642, Note_on_c, 9, 48, 47
2, 5657, Control_c, 9, 4, 0
2, 5715, Note_on_c, 9, 36, 0
2, 5723, Note_on_c, 9, 48, 0
2, 5745, Control_c, 9, 4, 34
2, 5750, Control_c, 9, 17, 98
2, 5750, Note_on_c, 9, 51, 51
2, 5752, Note_on_c, 9, 44, 126
2, 5763, Control_c, 9, 18, 0
2, 5763, Note_on_c, 9, 48, 75
2, 5777, Control_c, 9, 4, 127
2, 5818, Control_c, 9, 4, 118
2, 5832, Note_on_c, 9, 44, 0
2, 5832, Note_on_c, 9, 51, 0
2, 5845, Note_on_c, 9, 48, 0
2, 5856, Control_c, 9, 4, 92
2, 5878, Control_c, 9, 17, 7
2, 5878, Note_on_c, 9, 51, 78
2, 5961, Note_on_c, 9, 51, 0
2, 5986, Note_on_c, 9, 36, 55
2, 5997, Control_c, 9, 4, 120
2, 6032, Control_c, 9, 4, 120
2, 6068, Note_on_c, 9, 36, 0
2, 6087, Control_c, 9, 4, 94
2, 6127, Control_c, 9, 17, 127
2, 6128, Note_on_c, 9, 51, 49
2, 6133, Control_c, 9, 4, 70
2, 6165, Control_c, 9, 4, 0
2, 6209, Note_on_c, 9, 51, 0
2, 6233, Control_c, 9, 4, 35
2, 6238, Control_c, 9, 16, 0
2, 6239, Note_on_c, 9, 38, 65
2, 6241, Note_on_c, 9, 36, 71
2, 6241, Note_on_c, 9, 44, 119
2, 6249, Control_c, 9, 17, 18
2, 6250, Note_on_c, 9, 51, 88
2, 6265, Control_c, 9, 4, 112
2, 6310, Control_c, 9, 4, 97
2, 6320, Note_on_c, 9, 38, 0
2, 6320, Note_on_c, 9, 44, 0
2, 6322, Note_on_c, 9, 36, 0
2, 6332, Note_on_c, 9, 51, 0
2, 6345, Control_c, 9, 4, 83
2, 6467, Control_c, 9, 4, 127
2, 6484, Control_c, 9, 17, 46
2, 6484, Note_on_c, 9, 51, 72
2, 6531, Control_c, 9, 4, 98
2, 6567, Note_on_c, 9, 51, 0
2, 6576, Control_c, 9, 4, 71
2, 6589, Note_on_c, 9, 36, 52
2, 6600, Note_on_c, 9, 48, 53
2, 6612, Control_c, 9, 4, 0
2, 6672, Note_on_c, 9, 36, 0
2, 6681, Note_on_c, 9, 48, 0
2, 6694, Note_on_c, 9, 46, 8
2, 6701, Control_c, 9, 4, 35
2, 6705, Control_c, 9, 17, 79
2, 6705, Note_on_c, 9, 51, 53
2, 6708, Note_on_c, 9, 44, 127
2, 6715, Control_c, 9, 18, 0
2, 6715, Note_on_c, 9, 48, 75
2, 6731, Control_c, 9, 4, 127
2, 6775, Note_on_c, 9, 46, 0
2, 6780, Control_c, 9, 4, 104
2, 6787, Note_on_c, 9, 51, 0
2, 6788, Note_on_c, 9, 44, 0
2, 6798, Note_on_c, 9, 48, 0
2, 6810, Control_c, 9, 4, 90
2, 6839, Control_c, 9, 17, 6
2, 6839, Note_on_c, 9, 51, 77
2, 6922, Note_on_c, 9, 51, 0
2, 6934, Control_c, 9, 4, 116
2, 6969, Note_on_c, 9, 36, 76
2, 7034, Control_c, 9, 4, 92
2, 7051, Note_on_c, 9, 36, 0
2, 7080, Control_c, 9, 4, 70
2, 7081, Control_c, 9, 17, 67
2, 7081, Note_on_c, 9, 51, 50
2, 7121, Control_c, 9, 4, 0
2, 7163, Note_on_c, 9, 51, 0
2, 7191, Note_on_c, 9, 46, 8
2, 7199, Control_c, 9, 4, 35
2, 7205, Note_on_c, 9, 44, 127
2, 7206, Control_c, 9, 17, 48
2, 7206, Note_on_c, 9, 51, 96
2, 7215, Note_on_c, 9, 38, 69
2, 7230, Control_c, 9, 4, 114
2, 7272, Note_on_c, 9, 46, 0
2, 7286, Control_c, 9, 4, 102
2, 7286, Note_on_c, 9, 44, 0
2, 7287, Note_on_c, 9, 51, 0
2, 7296, Note_on_c, 9, 38, 0
2, 7316, Control_c, 9, 4, 92
2, 7451, Control_c, 9, 4, 118
2, 7451, Note_on_c, 9, 36, 55
2, 7458, Control_c, 9, 17, 37
2, 7458, Note_on_c, 9, 51, 78
2, 7503, Control_c, 9, 4, 112
2, 7534, Note_on_c, 9, 36, 0
2, 7535, Control_c, 9, 4, 93
2, 7540, Note_on_c, 9, 51, 0
2, 7574, Note_on_c, 9, 48, 50
2, 7587, Control_c, 9, 4, 69
2, 7618, Control_c, 9, 4, 0
2, 7655, Note_on_c, 9, 48, 0
2, 7656, End_track
0, 0, End_of_file
