0, 0, Header, 1, 2, 480
1, 0, Start_track
1, 0, Tempo, 588235
1, 0, Time_signature, 4, 2, 24, 8
1, 0, Key_signature, 0, "major"
1, 1, End_track
2, 0, Start_track
2, 0, Title_t, "Classic Studio Kit"
2, 0, Program_c, 9, 0
2, 0, Control_c, 9, 18, 0
2, 9, Control_c, 9, 4, 97
2, 38, Note_on_c, 9, 51, 63
2, 45, Note_on_c, 9, 48, 61
2, 104, Control_c, 9, 4, 92
2, 119, Note_on_c, 9, 51, 0
2, 126, Note_on_c, 9, 48, 0
2, 160, Control_c, 9, 4, 78
2, 165, Control_c, 9, 17, 127
2, 166, Note_on_c, 9, 51, 59
2, 191, Control_c, 9, 4, 54
2, 222, Control_c, 9, 4, 0
2, 248, Note_on_c, 9, 51, 0
2, 258, Control_c, 9, 4, 50
2, 263, Note_on_c, 9, 44, 87
2, 267, Note_on_c, 9, 36, 39
2, 279, Control_c, 9, 17, 127
2, 279, Note_on_c, 9, 51, 6
2, 288, Control_c, 9, 4, 112
2, 324, Control_c, 9, 4, 98
2, 345, Note_on_c, 9, 44, 0
2, 348, Note_on_c, 9, 36, 0
2, 360, Note_on_c, 9, 51, 0
2, 365, Control_c, 9, 4, 86
2, 479, Control_c, 9, 4, 92
2, 510, Note_on_c, 9, 36, 46
2, 517, Control_c, 9, 17, 47
2, 518, Note_on_c, 9, 51, 83
2, 521, Control_c, 9, 16, 21
2, 522, Note_on_c, 9, 38, 65
2, 592, Note_on_c, 9, 36, 0
2, 599, Note_on_c, 9, 51, 0
2, 600, Control_c, 9, 4, 86
2, 603, Note_on_c, 9, 38, 0
2, 640, Control_c, 9, 4, 72
2, 692, Control_c, 9, 4, 0
2, 737, Control_c, 9, 4, 49
2, 742, Note_on_c, 9, 44, 93
2, 754, Control_c, 9, 17, 87
2, 755, Note_on_c, 9, 51, 80
2, 767, Control_c, 9, 4, 114
2, 813, Control_c, 9, 4, 94
2, 824, Note_on_c, 9, 44, 0
2, 837, Note_on_c, 9, 51, 0
2, 855, Control_c, 9, 4, 84
2, 873, Note_on_c, 9, 36, 42
2, 881, Control_c, 9, 18, 0
2, 882, Note_on_c, 9, 48, 55
2, 955, Note_on_c, 9, 36, 0
2, 963, Note_on_c, 9, 48, 0
2, 971, Control_c, 9, 4, 97
2, 1010, Control_c, 9, 17, 111
2, 1010, Note_on_c, 9, 51, 67
2, 1013, Note_on_c, 9, 48, 65
2, 1073, Control_c, 9, 4, 92
2, 1091, Note_on_c, 9, 51, 0
2, 1094, Note_on_c, 9, 48, 0
2, 1120, Control_c, 9, 4, 79
2, 1134, Control_c, 9, 17, 115
2, 1135, Note_on_c, 9, 51, 66
2, 1154, Control_c, 9, 4, 54
2, 1186, Control_c, 9, 4, 0
2, 1216, Note_on_c, 9, 51, 0
2, 1223, Control_c, 9, 4, 50
2, 1228, Note_on_c, 9, 44, 87
2, 1233, Note_on_c, 9, 36, 45
2, 1248, Control_c, 9, 17, 115
2, 1248, Note_on_c, 9, 51, 6
2, 1254, Control_c, 9, 4, 114
2, 1285, Control_c, 9, 4, 99
2, 1309, Note_on_c, 9, 44, 0
2, 1313, Note_on_c, 9, 36, 0
2, 1321, Control_c, 9, 4, 85
2, 1330, Note_on_c, 9, 51, 0
2, 1366, Control_c, 9, 17, 52
2, 1366, Note_on_c, 9, 51, 78
2, 1449, Note_on_c, 9, 51, 0
2, 1450, Control_c, 9, 4, 94
2, 1478, Note_on_c, 9, 36, 54
2, 1484, Control_c, 9, 16, 0
2, 1485, Note_on_c, 9, 38, 63
2, 1557, Control_c, 9, 4, 90
2, 1560, Note_on_c, 9, 36, 0
2, 1567, Note_on_c, 9, 38, 0
2, 1600, Control_c, 9, 4, 78
2, 1636, Control_c, 9, 4, 54
2, 1667, Control_c, 9, 4, 11
2, 1697, Control_c, 9, 4, 43
2, 1704, Note_on_c, 9, 44, 80
2, 1710, Control_c, 9, 17, 103
2, 1710, Note_on_c, 9, 51, 82
2, 1729, Control_c, 9, 4, 114
2, 1771, Control_c, 9, 4, 93
2, 1786, Note_on_c, 9, 44, 0
2, 1791, Note_on_c, 9, 51, 0
2, 1808, Control_c, 9, 4, 82
2, 1835, Note_on_c, 9, 36, 39
2, 1838, Control_c, 9, 18, 0
2, 1839, Note_on_c, 9, 48, 49
2, 1917, Note_on_c, 9, 36, 0
2, 1920, Note_on_c, 9, 48, 0
2, 1923, Control_c, 9, 4, 96
2, 1963, Control_c, 9, 17, 127
2, 1963, Note_on_c, 9, 51, 69
2, 1968, Note_on_c, 9, 48, 60
2, 2026, Control_c, 9, 4, 91
2, 2044, Note_on_c, 9, 51, 0
2, 2048, Note_on_c, 9, 48, 0
2, 2061, Control_c, 9, 4, 83
2, 2086, Control_c, 9, 17, 0
2, 2087, Note_on_c, 9, 51, 52
2, 2098, Control_c, 9, 4, 70
2, 2141, Control_c, 9, 4, 10
2, 2168, Note_on_c, 9, 51, 0
2, 2174, Control_c, 9, 4, 51
2, 2179, Note_on_c, 9, 44, 80
2, 2186, Note_on_c, 9, 36, 43
2, 2198, Control_c, 9, 17, 0
2, 2199, Note_on_c, 9, 51, 6
2, 2205, Control_c, 9, 4, 114
2, 2236, Control_c, 9, 4, 99
2, 2261, Note_on_c, 9, 44, 0
2, 2269, Note_on_c, 9, 36, 0
2, 2278, Control_c, 9, 4, 85
2, 2280, Note_on_c, 9, 51, 0
2, 2412, Control_c, 9, 4, 94
2, 2430, Control_c, 9, 17, 64
2, 2431, Note_on_c, 9, 51, 87
2, 2438, Note_on_c, 9, 36, 55
2, 2440, Note_on_c, 9, 38, 74
2, 2513, Note_on_c, 9, 51, 0
2, 2520, Note_on_c, 9, 36, 0
2, 2522, Note_on_c, 9, 38, 0
2, 2529, Control_c, 9, 4, 83
2, 2566, Control_c, 9, 4, 70
2, 2611, Control_c, 9, 4, 0
2, 2655, Control_c, 9, 4, 49
2, 2660, Note_on_c, 9, 44, 100
2, 2673, Control_c, 9, 17, 127
2, 2673, Note_on_c, 9, 51, 62
2, 2685, Control_c, 9, 4, 116
2, 2726, Control_c, 9, 4, 95
2, 2741, Note_on_c, 9, 44, 0
2, 2755, Note_on_c, 9, 51, 0
2, 2758, Control_c, 9, 4, 83
2, 2784, Control_c, 9, 18, 0
2, 2785, Note_on_c, 9, 48, 51
2, 2793, Note_on_c, 9, 36, 45
2, 2867, Note_on_c, 9, 48, 0
2, 2875, Note_on_c, 9, 36, 0
2, 2882, Control_c, 9, 4, 98
2, 2911, Note_on_c, 9, 48, 70
2, 2920, Note_on_c, 9, 51, 64
2, 2970, Control_c, 9, 4, 94
2, 2993, Note_on_c, 9, 48, 0
2, 3002, Note_on_c, 9, 51, 0
2, 3015, Control_c, 9, 4, 83
2, 3044, Control_c, 9, 17, 127
2, 3045, Note_on_c, 9, 51, 60
2, 3068, Control_c, 9, 4, 54
2, 3099, Control_c, 9, 4, 0
2, 3126, Note_on_c, 9, 51, 0
2, 3134, Control_c, 9, 4, 50
2, 3138, Note_on_c, 9, 36, 51
2, 3139, Note_on_c, 9, 44, 93
2, 3164, Control_c, 9, 4, 112
2, 3199, Control_c, 9, 4, 98
2, 3220, Note_on_c, 9, 36, 0
2, 3220, Note_on_c, 9, 44, 0
2, 3236, Control_c, 9, 4, 85
2, 3280, Control_c, 9, 17, 66
2, 3281, Note_on_c, 9, 51, 83
2, 3359, Control_c, 9, 4, 96
2, 3362, Note_on_c, 9, 51, 0
2, 3383, Note_on_c, 9, 36, 61
2, 3403, Control_c, 9, 16, 0
2, 3404, Note_on_c, 9, 38, 65
2, 3465, Note_on_c, 9, 36, 0
2, 3480, Control_c, 9, 4, 84
2, 3485, Note_on_c, 9, 38, 0
2, 3520, Control_c, 9, 4, 70
2, 3564, Control_c, 9, 4, 0
2, 3613, Control_c, 9, 4, 50
2, 3614, Control_c, 9, 17, 79
2, 3615, Note_on_c, 9, 51, 77
2, 3618, Note_on_c, 9, 44, 106
2, 3643, Control_c, 9, 4, 114
2, 3676, Control_c, 9, 4, 100
2, 3697, Note_on_c, 9, 51, 0
2, 3699, Note_on_c, 9, 44, 0
2, 3711, Control_c, 9, 4, 85
2, 3745, Note_on_c, 9, 36, 46
2, 3746, Control_c, 9, 18, 0
2, 3747, Note_on_c, 9, 48, 50
2, 3827, Note_on_c, 9, 36, 0
2, 3829, Note_on_c, 9, 48, 0
2, 3840, Control_c, 9, 4, 97
2, 3870, Control_c, 9, 17, 120
2, 3870, Note_on_c, 9, 51, 64
2, 3875, Note_on_c, 9, 48, 66
2, 3952, Note_on_c, 9, 51, 0
2, 3957, Note_on_c, 9, 48, 0
2, 3974, Control_c, 9, 4, 85
2, 3996, Control_c, 9, 17, 127
2, 3996, Note_on_c, 9, 51, 67
2, 4010, Control_c, 9, 4, 70
2, 4048, Control_c, 9, 4, 0
2, 4079, Note_on_c, 9, 51, 0
2, 4097, Control_c, 9, 4, 34
2, 4098, Note_on_c, 9, 36, 49
2, 4104, Note_on_c, 9, 44, 119
2, 4129, Control_c, 9, 4, 114
2, 4163, Control_c, 9, 4, 100
2, 4181, Note_on_c, 9, 36, 0
2, 4185, Note_on_c, 9, 44, 0
2, 4199, Control_c, 9, 4, 87
2, 4335, Control_c, 9, 4, 96
2, 4340, Control_c, 9, 17, 38
2, 4340, Note_on_c, 9, 51, 90
2, 4344, Note_on_c, 9, 36, 67
2, 4347, Note_on_c, 9, 38, 69
2, 4421, Note_on_c, 9, 51, 0
2, 4427, Note_on_c, 9, 36, 0
2, 4429, Note_on_c, 9, 38, 0
2, 4447, Control_c, 9, 4, 84
2, 4482, Control_c, 9, 4, 70
2, 4525, Control_c, 9, 4, 0
2, 4575, Control_c, 9, 4, 49
2, 4580, Note_on_c, 9, 44, 119
2, 4586, Control_c, 9, 17, 127
2, 4586, Note_on_c, 9, 51, 79
2, 4606, Control_c, 9, 4, 116
2, 4651, Control_c, 9, 4, 94
2, 4662, Note_on_c, 9, 44, 0
2, 4669, Note_on_c, 9, 51, 0
2, 4692, Control_c, 9, 4, 84
2, 4696, Note_on_c, 9, 36, 53
2, 4702, Control_c, 9, 18, 0
2, 4703, Note_on_c, 9, 48, 49
2, 4779, Note_on_c, 9, 36, 0
2, 4784, Note_on_c, 9, 48, 0
2, 4817, Control_c, 9, 4, 112
2, 4826, Note_on_c, 9, 48, 65
2, 4828, Control_c, 9, 17, 127
2, 4828, Note_on_c, 9, 51, 65
2, 4890, Control_c, 9, 4, 92
2, 4908, Note_on_c, 9, 48, 0
2, 4909, Note_on_c, 9, 51, 0
2, 4935, Control_c, 9, 4, 69
2, 4948, Control_c, 9, 17, 109
2, 4949, Note_on_c, 9, 51, 64
2, 4966, Control_c, 9, 4, 0
2, 5032, Note_on_c, 9, 51, 0
2, 5038, Note_on_c, 9, 36, 58
2, 5038, Note_on_c, 9, 46, 11
2, 5047, Control_c, 9, 4, 35
2, 5051, Note_on_c, 9, 44, 127
2, 5077, Control_c, 9, 4, 116
2, 5119, Note_on_c, 9, 46, 0
2, 5120, Note_on_c, 9, 36, 0
2, 5129, Control_c, 9, 4, 94
2, 5133, Note_on_c, 9, 44, 0
2, 5172, Control_c, 9, 4, 69
2, 5205, Control_c, 9, 4, 0
2, 5273, Note_on_c, 9, 46, 11
2, 5282, Control_c, 9, 4, 34
2, 5283, Control_c, 9, 17, 102
2, 5283, Note_on_c, 9, 51, 82
2, 5285, Control_c, 9, 16, 0
2, 5286, Note_on_c, 9, 38, 82
2, 5288, Note_on_c, 9, 44, 126
2, 5292, Note_on_c, 9, 36, 81
2, 5314, Control_c, 9, 4, 102
2, 5355, Note_on_c, 9, 46, 0
2, 5358, Control_c, 9, 4, 95
2, 5366, Note_on_c, 9, 38, 0
2, 5366, Note_on_c, 9, 51, 0
2, 5370, Note_on_c, 9, 44, 0
2, 5375, Note_on_c, 9, 36, 0
2, 5388, Control_c, 9, 4, 83
2, 5437, Control_c, 9, 4, 79
2, 5477, Control_c, 9, 4, 81
2, 5529, Control_c, 9, 4, 120
2, 5533, Control_c, 9, 17, 127
2, 5534, Note_on_c, 9, 51, 70
2, 5595, Control_c, 9, 4, 90
2, 5615, Note_on_c, 9, 51, 0
2, 5625, Control_c, 9, 4, 73
2, 5631, Note_on_c, 9, 36, 48
2, 5639, Control_c, 9, 18, 0
2, 5640, Note_on_c, 9, 48, 49
2, 5672, Control_c, 9, 4, 0
2, 5713, Note_on_c, 9, 36, 0
2, 5721, Note_on_c, 9, 48, 0
2, 5743, Note_on_c, 9, 46, 7
2, 5750, Control_c, 9, 4, 33
2, 5755, Note_on_c, 9, 44, 127
2, 5771, Control_c, 9, 17, 127
2, 5771, Note_on_c, 9, 51, 53
2, 5774, Note_on_c, 9, 48, 70
2, 5780, Control_c, 9, 4, 120
2, 5824, Note_on_c, 9, 46, 0
2, 5835, Note_on_c, 9, 44, 0
2, 5853, Note_on_c, 9, 48, 0
2, 5853, Note_on_c, 9, 51, 0
2, 5855, Control_c, 9, 4, 92
2, 5885, Control_c, 9, 17, 0
2, 5885, Note_on_c, 9, 51, 62
2, 5968, Note_on_c, 9, 51, 0
2, 5971, Control_c, 9, 4, 100
2, 5987, Note_on_c, 9, 36, 54
2, 6035, Control_c, 9, 4, 94
2, 6070, Note_on_c, 9, 36, 0
2, 6224, Note_on_c, 9, 36, 70
2, 6225, Control_c, 9, 17, 49
2, 6225, Note_on_c, 9, 51, 92
2, 6239, Control_c, 9, 16, 21
2, 6239, Note_on_c, 9, 38, 75
2, 6306, Note_on_c, 9, 36, 0
2, 6306, Note_on_c, 9, 51, 0
2, 6312, Control_c, 9, 4, 87
2, 6321, Note_on_c, 9, 38, 0
2, 6345, Control_c, 9, 4, 72
2, 6390, Control_c, 9, 4, 0
2, 6452, Control_c, 9, 4, 33
2, 6458, Note_on_c, 9, 44, 127
2, 6478, Control_c, 9, 17, 127
2, 6479, Note_on_c, 9, 51, 79
2, 6483, Control_c, 9, 4, 120
2, 6540, Note_on_c, 9, 44, 0
2, 6546, Control_c, 9, 4, 90
2, 6560, Note_on_c, 9, 51, 0
2, 6584, Control_c, 9, 18, 0
2, 6584, Note_on_c, 9, 48, 49
2, 6598, Note_on_c, 9, 36, 57
2, 6665, Note_on_c, 9, 48, 0
2, 6680, Note_on_c, 9, 36, 0
2, 6705, Control_c, 9, 4, 116
2, 6717, Note_on_c, 9, 48, 69
2, 6724, Control_c, 9, 17, 0
2, 6724, Note_on_c, 9, 51, 54
2, 6775, Control_c, 9, 4, 98
2, 6799, Note_on_c, 9, 48, 0
2, 6806, Note_on_c, 9, 51, 0
2, 6819, Control_c, 9, 4, 73
2, 6850, Control_c, 9, 17, 124
2, 6850, Note_on_c, 9, 51, 67
2, 6866, Control_c, 9, 4, 0
2, 6930, Note_on_c, 9, 36, 61
2, 6932, Note_on_c, 9, 51, 0
2, 6935, Note_on_c, 9, 46, 11
2, 6943, Control_c, 9, 4, 34
2, 6948, Note_on_c, 9, 44, 127
2, 6974, Control_c, 9, 4, 120
2, 6989, Note_on_c, 9, 49, 6
2, 7013, Note_on_c, 9, 36, 0
2, 7017, Note_on_c, 9, 46, 0
2, 7028, Control_c, 9, 4, 94
2, 7030, Note_on_c, 9, 44, 0
2, 7061, Control_c, 9, 4, 81
2, 7072, Note_on_c, 9, 49, 0
2, 7095, Control_c, 9, 4, 69
2, 7117, Control_c, 9, 17, 100
2, 7118, Note_on_c, 9, 51, 87
2, 7133, Control_c, 9, 4, 0
2, 7176, Note_on_c, 9, 36, 81
2, 7183, Note_on_c, 9, 44, 87
2, 7190, Control_c, 9, 4, 110
2, 7200, Note_on_c, 9, 51, 0
2, 7216, Control_c, 9, 16, 0
2, 7216, Note_on_c, 9, 38, 68
2, 7233, Control_c, 9, 4, 102
2, 7258, Note_on_c, 9, 36, 0
2, 7265, Note_on_c, 9, 44, 0
2, 7271, Control_c, 9, 4, 89
2, 7299, Note_on_c, 9, 38, 0
2, 7314, Control_c, 9, 4, 79
2, 7425, Control_c, 9, 4, 90
2, 7443, Control_c, 9, 17, 127
2, 7444, Note_on_c, 9, 51, 80
2, 7464, Control_c, 9, 4, 116
2, 7498, Control_c, 9, 4, 98
2, 7526, Note_on_c, 9, 51, 0
2, 7529, Control_c, 9, 4, 83
2, 7539, Note_on_c, 9, 36, 55
2, 7560, Control_c, 9, 4, 70
2, 7564, Control_c, 9, 18, 0
2, 7565, Note_on_c, 9, 48, 47
2, 7597, Control_c, 9, 4, 0
2, 7621, Note_on_c, 9, 36, 0
2, 7646, Note_on_c, 9, 48, 0
2, 7666, Control_c, 9, 4, 34
2, 7667, End_track
0, 0, End_of_file
