0, 0, Header, 1, 2, 480
1, 0, Start_track
1, 0, Tempo, 588235
1, 0, Time_signature, 4, 2, 24, 8
1, 0, Key_signature, 0, "major"
1, 1, End_track
2, 0, Start_track
2, 0, Title_t, "Classic Studio Kit"
2, 0, Program_c, 9, 0
2, 0, Control_c, 9, 18, 0
2, 11, Control_c, 9, 4, 120
2, 18, Note_on_c, 9, 48, 73
2, 22, Control_c, 9, 17, 60
2, 23, Note_on_c, 9, 51, 65
2, 76, Control_c, 9, 4, 99
2, 100, Note_on_c, 9, 48, 0
2, 104, Note_on_c, 9, 51, 0
2, 119, Control_c, 9, 4, 72
2, 147, Control_c, 9, 17, 39
2, 148, Note_on_c, 9, 51, 76
2, 166, Control_c, 9, 4, 0
2, 229, Note_on_c, 9, 51, 0
2, 250, Control_c, 9, 4, 34
2, 250, Note_on_c, 9, 36, 65
2, 255, Note_on_c, 9, 44, 127
2, 281, Control_c, 9, 4, 120
2, 332, Note_on_c, 9, 36, 0
2, 335, Control_c, 9, 4, 95
2, 338, Note_on_c, 9, 44, 0
2, 376, Control_c, 9, 4, 70
2, 390, Control_c, 9, 17, 38
2, 390, Note_on_c, 9, 51, 71
2, 410, Control_c, 9, 4, 0
2, 473, Note_on_c, 9, 51, 0
2, 480, Note_on_c, 9, 46, 7
2, 489, Control_c, 9, 4, 32
2, 495, Note_on_c, 9, 44, 126
2, 498, Note_on_c, 9, 36, 81
2, 506, Note_on_c, 9, 38, 71
2, 520, Control_c, 9, 4, 102
2, 552, Control_c, 9, 4, 98
2, 561, Note_on_c, 9, 46, 0
2, 576, Note_on_c, 9, 44, 0
2, 581, Note_on_c, 9, 36, 0
2, 587, Note_on_c, 9, 38, 0
2, 598, Control_c, 9, 4, 84
2, 730, Control_c, 9, 17, 41
2, 731, Note_on_c, 9, 51, 86
2, 738, Control_c, 9, 4, 120
2, 796, Control_c, 9, 4, 96
2, 813, Note_on_c, 9, 51, 0
2, 839, Control_c, 9, 4, 70
2, 847, Note_on_c, 9, 36, 54
2, 848, Control_c, 9, 18, 0
2, 849, Note_on_c, 9, 48, 50
2, 873, Control_c, 9, 4, 0
2, 929, Note_on_c, 9, 36, 0
2, 929, Note_on_c, 9, 48, 0
2, 964, Note_on_c, 9, 44, 127
2, 972, Control_c, 9, 4, 127
2, 978, Note_on_c, 9, 48, 77
2, 982, Control_c, 9, 17, 0
2, 982, Note_on_c, 9, 51, 56
2, 1015, Control_c, 9, 4, 120
2, 1047, Note_on_c, 9, 44, 0
2, 1055, Control_c, 9, 4, 92
2, 1058, Note_on_c, 9, 48, 0
2, 1064, Note_on_c, 9, 51, 0
2, 1103, Control_c, 9, 17, 47
2, 1103, Note_on_c, 9, 51, 69
2, 1185, Note_on_c, 9, 51, 0
2, 1193, Control_c, 9, 4, 110
2, 1197, Note_on_c, 9, 36, 62
2, 1231, Control_c, 9, 4, 102
2, 1264, Control_c, 9, 4, 92
2, 1279, Note_on_c, 9, 36, 0
2, 1400, Control_c, 9, 17, 63
2, 1401, Note_on_c, 9, 51, 62
2, 1431, Note_on_c, 9, 36, 74
2, 1440, Control_c, 9, 16, 0
2, 1441, Note_on_c, 9, 38, 93
2, 1460, Control_c, 9, 4, 96
2, 1482, Note_on_c, 9, 51, 0
2, 1514, Note_on_c, 9, 36, 0
2, 1515, Control_c, 9, 4, 90
2, 1522, Note_on_c, 9, 38, 0
2, 1554, Control_c, 9, 4, 72
2, 1599, Control_c, 9, 4, 0
2, 1672, Note_on_c, 9, 44, 127
2, 1678, Control_c, 9, 17, 43
2, 1679, Note_on_c, 9, 51, 88
2, 1681, Control_c, 9, 4, 127
2, 1722, Control_c, 9, 4, 112
2, 1754, Note_on_c, 9, 44, 0
2, 1758, Control_c, 9, 4, 93
2, 1761, Note_on_c, 9, 51, 0
2, 1791, Control_c, 9, 4, 88
2, 1795, Control_c, 9, 18, 0
2, 1795, Note_on_c, 9, 48, 51
2, 1802, Note_on_c, 9, 36, 53
2, 1878, Note_on_c, 9, 48, 0
2, 1884, Note_on_c, 9, 36, 0
2, 1918, Control_c, 9, 4, 112
2, 1926, Note_on_c, 9, 48, 80
2, 1927, Control_c, 9, 17, 99
2, 1928, Note_on_c, 9, 51, 66
2, 2008, Note_on_c, 9, 48, 0
2, 2010, Note_on_c, 9, 51, 0
2, 2019, Control_c, 9, 4, 92
2, 2051, Control_c, 9, 17, 37
2, 2051, Note_on_c, 9, 51, 69
2, 2052, Control_c, 9, 4, 74
2, 2089, Control_c, 9, 4, 0
2, 2133, Note_on_c, 9, 51, 0
2, 2151, Note_on_c, 9, 36, 62
2, 2156, Note_on_c, 9, 46, 14
2, 2166, Note_on_c, 9, 44, 127
2, 2170, Control_c, 9, 4, 127
2, 2216, Control_c, 9, 4, 120
2, 2233, Note_on_c, 9, 36, 0
2, 2237, Note_on_c, 9, 46, 0
2, 2248, Note_on_c, 9, 44, 0
2, 2254, Control_c, 9, 4, 85
2, 2285, Control_c, 9, 17, 41
2, 2286, Note_on_c, 9, 51, 80
2, 2300, Control_c, 9, 4, 76
2, 2367, Note_on_c, 9, 51, 0
2, 2388, Control_c, 9, 4, 116
2, 2391, Note_on_c, 9, 36, 86
2, 2401, Note_on_c, 9, 38, 75
2, 2419, Control_c, 9, 4, 110
2, 2455, Control_c, 9, 4, 93
2, 2473, Note_on_c, 9, 36, 0
2, 2483, Note_on_c, 9, 38, 0
2, 2501, Control_c, 9, 4, 81
2, 2549, Control_c, 9, 4, 70
2, 2585, Control_c, 9, 4, 50
2, 2622, Control_c, 9, 4, 66
2, 2629, Note_on_c, 9, 44, 28
2, 2640, Control_c, 9, 17, 73
2, 2641, Note_on_c, 9, 51, 96
2, 2654, Control_c, 9, 4, 118
2, 2703, Control_c, 9, 4, 95
2, 2711, Note_on_c, 9, 44, 0
2, 2723, Note_on_c, 9, 51, 0
2, 2734, Control_c, 9, 4, 82
2, 2756, Note_on_c, 9, 36, 59
2, 2759, Control_c, 9, 18, 0
2, 2760, Note_on_c, 9, 48, 46
2, 2767, Control_c, 9, 4, 63
2, 2801, Control_c, 9, 4, 0
2, 2839, Note_on_c, 9, 36, 0
2, 2841, Note_on_c, 9, 48, 0
2, 2864, Control_c, 9, 4, 33
2, 2871, Note_on_c, 9, 44, 113
2, 2880, Control_c, 9, 17, 127
2, 2881, Note_on_c, 9, 51, 63
2, 2883, Note_on_c, 9, 48, 78
2, 2896, Control_c, 9, 4, 120
2, 2934, Control_c, 9, 4, 110
2, 2952, Note_on_c, 9, 44, 0
2, 2963, Note_on_c, 9, 48, 0
2, 2963, Note_on_c, 9, 51, 0
2, 2965, Control_c, 9, 4, 92
2, 3000, Control_c, 9, 17, 56
2, 3000, Note_on_c, 9, 51, 75
2, 3069, Control_c, 9, 4, 88
2, 3082, Note_on_c, 9, 51, 0
2, 3109, Control_c, 9, 4, 112
2, 3119, Note_on_c, 9, 36, 62
2, 3154, Control_c, 9, 4, 94
2, 3187, Control_c, 9, 4, 90
2, 3201, Note_on_c, 9, 36, 0
2, 3354, Control_c, 9, 17, 35
2, 3355, Control_c, 9, 16, 0
2, 3355, Note_on_c, 9, 51, 96
2, 3356, Note_on_c, 9, 38, 77
2, 3361, Note_on_c, 9, 36, 76
2, 3369, Control_c, 9, 4, 95
2, 3400, Control_c, 9, 4, 99
2, 3432, Control_c, 9, 4, 93
2, 3435, Note_on_c, 9, 51, 0
2, 3437, Note_on_c, 9, 38, 0
2, 3444, Note_on_c, 9, 36, 0
2, 3481, Control_c, 9, 4, 70
2, 3519, Control_c, 9, 4, 0
2, 3582, Note_on_c, 9, 46, 11
2, 3590, Control_c, 9, 4, 34
2, 3595, Note_on_c, 9, 44, 127
2, 3605, Control_c, 9, 17, 39
2, 3605, Note_on_c, 9, 51, 78
2, 3621, Control_c, 9, 4, 120
2, 3664, Note_on_c, 9, 46, 0
2, 3677, Note_on_c, 9, 44, 0
2, 3680, Control_c, 9, 4, 92
2, 3687, Note_on_c, 9, 51, 0
2, 3714, Control_c, 9, 18, 0
2, 3715, Note_on_c, 9, 48, 48
2, 3716, Control_c, 9, 4, 87
2, 3726, Note_on_c, 9, 36, 57
2, 3797, Note_on_c, 9, 48, 0
2, 3807, Note_on_c, 9, 36, 0
2, 3833, Control_c, 9, 4, 110
2, 3838, Control_c, 9, 17, 56
2, 3839, Note_on_c, 9, 51, 66
2, 3840, Note_on_c, 9, 48, 69
2, 3920, Note_on_c, 9, 48, 0
2, 3920, Note_on_c, 9, 51, 0
2, 3934, Control_c, 9, 4, 98
2, 3959, Control_c, 9, 17, 54
2, 3960, Note_on_c, 9, 51, 71
2, 4001, Control_c, 9, 4, 92
2, 4042, Note_on_c, 9, 51, 0
2, 4069, Control_c, 9, 4, 120
2, 4071, Note_on_c, 9, 36, 68
2, 4149, Control_c, 9, 4, 91
2, 4153, Note_on_c, 9, 36, 0
2, 4189, Control_c, 9, 4, 73
2, 4202, Control_c, 9, 17, 46
2, 4202, Note_on_c, 9, 51, 68
2, 4224, Control_c, 9, 4, 0
2, 4284, Note_on_c, 9, 51, 0
2, 4287, Note_on_c, 9, 46, 6
2, 4297, Control_c, 9, 4, 33
2, 4304, Note_on_c, 9, 44, 127
2, 4309, Note_on_c, 9, 36, 78
2, 4315, Note_on_c, 9, 38, 71
2, 4329, Control_c, 9, 4, 120
2, 4369, Note_on_c, 9, 46, 0
2, 4370, Control_c, 9, 4, 98
2, 4385, Note_on_c, 9, 44, 0
2, 4391, Note_on_c, 9, 36, 0
2, 4397, Note_on_c, 9, 38, 0
2, 4408, Control_c, 9, 4, 83
2, 4538, Control_c, 9, 4, 118
2, 4540, Control_c, 9, 17, 72
2, 4541, Note_on_c, 9, 51, 88
2, 4607, Control_c, 9, 4, 97
2, 4622, Note_on_c, 9, 51, 0
2, 4641, Control_c, 9, 4, 82
2, 4657, Control_c, 9, 18, 0
2, 4658, Note_on_c, 9, 48, 43
2, 4663, Note_on_c, 9, 36, 60
2, 4671, Control_c, 9, 4, 68
2, 4702, Control_c, 9, 4, 0
2, 4739, Note_on_c, 9, 48, 0
2, 4745, Note_on_c, 9, 36, 0
2, 4773, Note_on_c, 9, 46, 8
2, 4779, Control_c, 9, 17, 127
2, 4780, Note_on_c, 9, 51, 56
2, 4784, Note_on_c, 9, 44, 127
2, 4787, Note_on_c, 9, 48, 79
2, 4790, Control_c, 9, 4, 127
2, 4834, Control_c, 9, 4, 114
2, 4853, Note_on_c, 9, 46, 0
2, 4862, Note_on_c, 9, 51, 0
2, 4867, Note_on_c, 9, 44, 0
2, 4867, Note_on_c, 9, 48, 0
2, 4879, Control_c, 9, 4, 91
2, 4901, Control_c, 9, 17, 49
2, 4902, Note_on_c, 9, 51, 71
2, 4983, Note_on_c, 9, 51, 0
2, 5000, Control_c, 9, 4, 110
2, 5026, Note_on_c, 9, 36, 64
2, 5053, Control_c, 9, 4, 96
2, 5108, Note_on_c, 9, 36, 0
2, 5219, Control_c, 9, 4, 92
2, 5254, Control_c, 9, 17, 40
2, 5255, Note_on_c, 9, 51, 85
2, 5262, Control_c, 9, 16, 0
2, 5263, Note_on_c, 9, 36, 73
2, 5263, Note_on_c, 9, 38, 70
2, 5288, Control_c, 9, 4, 102
2, 5336, Note_on_c, 9, 51, 0
2, 5343, Note_on_c, 9, 38, 0
2, 5345, Note_on_c, 9, 36, 0
2, 5353, Control_c, 9, 4, 89
2, 5383, Control_c, 9, 4, 73
2, 5425, Control_c, 9, 4, 0
2, 5495, Note_on_c, 9, 44, 127
2, 5501, Control_c, 9, 4, 127
2, 5511, Control_c, 9, 17, 53
2, 5511, Note_on_c, 9, 51, 82
2, 5545, Control_c, 9, 4, 118
2, 5577, Note_on_c, 9, 44, 0
2, 5586, Control_c, 9, 4, 90
2, 5593, Note_on_c, 9, 51, 0
2, 5626, Control_c, 9, 18, 0
2, 5627, Note_on_c, 9, 48, 48
2, 5632, Note_on_c, 9, 36, 65
2, 5709, Note_on_c, 9, 48, 0
2, 5715, Note_on_c, 9, 36, 0
2, 5726, Control_c, 9, 4, 112
2, 5739, Control_c, 9, 17, 127
2, 5739, Note_on_c, 9, 51, 56
2, 5743, Note_on_c, 9, 48, 68
2, 5822, Note_on_c, 9, 51, 0
2, 5825, Note_on_c, 9, 48, 0
2, 5838, Control_c, 9, 4, 92
2, 5859, Control_c, 9, 17, 56
2, 5859, Note_on_c, 9, 51, 72
2, 5869, Control_c, 9, 4, 71
2, 5906, Control_c, 9, 4, 0
2, 5942, Note_on_c, 9, 51, 0
2, 5970, Note_on_c, 9, 46, 13
2, 5976, Control_c, 9, 4, 35
2, 5976, Note_on_c, 9, 36, 55
2, 5981, Note_on_c, 9, 44, 127
2, 6008, Control_c, 9, 4, 124
2, 6025, Note_on_c, 9, 49, 5
2, 6038, Control_c, 9, 4, 120
2, 6051, Note_on_c, 9, 46, 0
2, 6057, Note_on_c, 9, 36, 0
2, 6064, Note_on_c, 9, 44, 0
2, 6074, Control_c, 9, 4, 91
2, 6104, Control_c, 9, 4, 86
2, 6106, Note_on_c, 9, 49, 0
2, 6209, Control_c, 9, 4, 110
2, 6209, Control_c, 9, 17, 37
2, 6211, Note_on_c, 9, 51, 83
2, 6215, Note_on_c, 9, 38, 82
2, 6217, Note_on_c, 9, 36, 84
2, 6292, Control_c, 9, 4, 93
2, 6292, Note_on_c, 9, 51, 0
2, 6296, Note_on_c, 9, 38, 0
2, 6300, Note_on_c, 9, 36, 0
2, 6343, Control_c, 9, 4, 70
2, 6377, Control_c, 9, 4, 0
2, 6444, Control_c, 9, 4, 34
2, 6450, Note_on_c, 9, 44, 127
2, 6464, Control_c, 9, 17, 50
2, 6464, Note_on_c, 9, 51, 74
2, 6475, Control_c, 9, 4, 126
2, 6511, Control_c, 9, 4, 102
2, 6531, Note_on_c, 9, 44, 0
2, 6546, Note_on_c, 9, 51, 0
2, 6549, Control_c, 9, 4, 90
2, 6575, Control_c, 9, 18, 0
2, 6576, Note_on_c, 9, 36, 48
2, 6576, Note_on_c, 9, 48, 44
2, 6656, Note_on_c, 9, 48, 0
2, 6658, Note_on_c, 9, 36, 0
2, 6669, Control_c, 9, 4, 97
2, 6702, Note_on_c, 9, 48, 68
2, 6704, Control_c, 9, 17, 123
2, 6704, Note_on_c, 9, 51, 66
2, 6709, Control_c, 9, 4, 99
2, 6762, Control_c, 9, 4, 106
2, 6783, Note_on_c, 9, 48, 0
2, 6785, Note_on_c, 9, 51, 0
2, 6805, Control_c, 9, 4, 92
2, 6830, Control_c, 9, 17, 47
2, 6830, Note_on_c, 9, 51, 68
2, 6842, Control_c, 9, 4, 72
2, 6878, Control_c, 9, 4, 0
2, 6913, Note_on_c, 9, 51, 0
2, 6930, Control_c, 9, 4, 33
2, 6934, Note_on_c, 9, 36, 48
2, 6936, Note_on_c, 9, 44, 126
2, 6962, Control_c, 9, 4, 127
2, 6999, Control_c, 9, 4, 98
2, 7015, Note_on_c, 9, 36, 0
2, 7018, Note_on_c, 9, 44, 0
2, 7038, Control_c, 9, 4, 87
2, 7125, Control_c, 9, 4, 91
2, 7166, Control_c, 9, 4, 95
2, 7192, Control_c, 9, 17, 37
2, 7192, Note_on_c, 9, 51, 87
2, 7193, Control_c, 9, 16, 0
2, 7193, Note_on_c, 9, 38, 76
2, 7202, Note_on_c, 9, 36, 86
2, 7258, Control_c, 9, 4, 100
2, 7274, Note_on_c, 9, 51, 0
2, 7275, Note_on_c, 9, 38, 0
2, 7285, Note_on_c, 9, 36, 0
2, 7312, Control_c, 9, 4, 87
2, 7345, Control_c, 9, 4, 70
2, 7378, Control_c, 9, 4, 0
2, 7431, Control_c, 9, 4, 35
2, 7438, Note_on_c, 9, 44, 126
2, 7444, Control_c, 9, 17, 81
2, 7444, Note_on_c, 9, 51, 75
2, 7463, Control_c, 9, 4, 126
2, 7509, Control_c, 9, 4, 95
2, 7520, Note_on_c, 9, 44, 0
2, 7526, Note_on_c, 9, 51, 0
2, 7549, Control_c, 9, 4, 85
2, 7551, Control_c, 9, 18, 0
2, 7551, Note_on_c, 9, 48, 45
2, 7557, Note_on_c, 9, 36, 55
2, 7613, Control_c, 9, 4, 90
2, 7632, Note_on_c, 9, 48, 0
2, 7640, Note_on_c, 9, 36, 0
2, 7666, Control_c, 9, 4, 104
2, 7672, Control_c, 9, 17, 71
2, 7673, End_track
0, 0, End_of_file
