0, 0, Header, 1, 2, 480
1, 0, Start_track
1, 0, Tempo, 545454
1, 0, Time_signature, 4, 2, 24, 8
1, 0, Key_signature, 0, "major"
1, 1, End_track
2, 0, Start_track
2, 0, Title_t, "TD-30 #9 Djembe"
2, 0, Program_c, 9, 0
2, 0, Control_c, 9, 16, 0
2, 6, Note_on_c, 9, 57, 102
2, 94, Note_on_c, 9, 57, 0
2, 106, Control_c, 9, 4, 81
2, 122, Note_on_c, 9, 57, 108
2, 148, Control_c, 9, 4, 62
2, 184, Control_c, 9, 4, 20
2, 211, Note_on_c, 9, 57, 0
2, 224, Control_c, 9, 4, 65
2, 228, Note_on_c, 9, 44, 61
2, 236, Note_on_c, 9, 48, 38
2, 255, Control_c, 9, 4, 102
2, 308, Control_c, 9, 4, 90
2, 316, Note_on_c, 9, 44, 0
2, 324, Note_on_c, 9, 48, 0
2, 350, Control_c, 9, 4, 85
2, 355, Note_on_c, 9, 48, 61
2, 366, Note_on_c, 9, 57, 93
2, 411, Control_c, 9, 4, 90
2, 443, Note_on_c, 9, 48, 0
2, 455, Note_on_c, 9, 57, 0
2, 485, Note_on_c, 9, 36, 86
2, 485, Note_on_c, 9, 57, 108
2, 560, Control_c, 9, 4, 83
2, 573, Note_on_c, 9, 36, 0
2, 573, Note_on_c, 9, 57, 0
2, 599, Control_c, 9, 4, 70
2, 634, Control_c, 9, 4, 43
2, 668, Control_c, 9, 4, 5
2, 700, Control_c, 9, 4, 70
2, 702, Note_on_c, 9, 44, 74
2, 711, Note_on_c, 9, 57, 74
2, 730, Control_c, 9, 4, 98
2, 763, Control_c, 9, 4, 93
2, 791, Note_on_c, 9, 44, 0
2, 798, Note_on_c, 9, 57, 0
2, 821, Control_c, 9, 4, 83
2, 894, Control_c, 9, 4, 89
2, 958, Control_c, 9, 16, 85
2, 958, Note_on_c, 9, 38, 63
2, 1048, Note_on_c, 9, 38, 0
2, 1062, Control_c, 9, 4, 77
2, 1099, Control_c, 9, 4, 58
2, 1106, Control_c, 9, 16, 42
2, 1106, Note_on_c, 9, 38, 4
2, 1135, Control_c, 9, 4, 17
2, 1173, Control_c, 9, 4, 65
2, 1178, Note_on_c, 9, 46, 33
2, 1179, Note_on_c, 9, 44, 54
2, 1194, Note_on_c, 9, 38, 0
2, 1197, Note_on_c, 9, 57, 20
2, 1205, Control_c, 9, 4, 96
2, 1266, Note_on_c, 9, 46, 0
2, 1267, Note_on_c, 9, 44, 0
2, 1269, Control_c, 9, 4, 85
2, 1285, Note_on_c, 9, 57, 0
2, 1332, Control_c, 9, 16, 0
2, 1332, Note_on_c, 9, 38, 6
2, 1420, Note_on_c, 9, 38, 0
2, 1422, Control_c, 9, 4, 89
2, 1443, Note_on_c, 9, 36, 83
2, 1447, Note_on_c, 9, 57, 76
2, 1511, Control_c, 9, 4, 83
2, 1531, Note_on_c, 9, 36, 0
2, 1536, Note_on_c, 9, 57, 0
2, 1546, Control_c, 9, 4, 70
2, 1583, Control_c, 9, 4, 43
2, 1619, Control_c, 9, 4, 4
2, 1650, Control_c, 9, 4, 68
2, 1654, Note_on_c, 9, 44, 67
2, 1681, Control_c, 9, 4, 97
2, 1691, Note_on_c, 9, 57, 62
2, 1733, Control_c, 9, 4, 91
2, 1742, Note_on_c, 9, 44, 0
2, 1771, Control_c, 9, 4, 86
2, 1780, Note_on_c, 9, 57, 0
2, 1828, Note_on_c, 9, 40, 61
2, 1873, Control_c, 9, 4, 90
2, 1915, Note_on_c, 9, 40, 0
2, 1931, Note_on_c, 9, 57, 108
2, 2020, Note_on_c, 9, 57, 0
2, 2035, Control_c, 9, 4, 77
2, 2052, Note_on_c, 9, 57, 105
2, 2074, Control_c, 9, 4, 57
2, 2111, Control_c, 9, 4, 18
2, 2140, Note_on_c, 9, 57, 0
2, 2146, Control_c, 9, 4, 66
2, 2150, Note_on_c, 9, 44, 61
2, 2160, Note_on_c, 9, 48, 40
2, 2178, Control_c, 9, 4, 98
2, 2219, Control_c, 9, 4, 92
2, 2238, Note_on_c, 9, 44, 0
2, 2248, Note_on_c, 9, 48, 0
2, 2255, Control_c, 9, 4, 87
2, 2285, Control_c, 9, 18, 0
2, 2286, Note_on_c, 9, 48, 60
2, 2292, Note_on_c, 9, 57, 81
2, 2302, Control_c, 9, 4, 83
2, 2335, Control_c, 9, 4, 90
2, 2374, Note_on_c, 9, 48, 0
2, 2381, Note_on_c, 9, 57, 0
2, 2406, Note_on_c, 9, 36, 81
2, 2417, Note_on_c, 9, 57, 96
2, 2495, Control_c, 9, 4, 76
2, 2496, Note_on_c, 9, 36, 0
2, 2505, Note_on_c, 9, 57, 0
2, 2533, Control_c, 9, 4, 56
2, 2567, Control_c, 9, 4, 0
2, 2624, Control_c, 9, 4, 66
2, 2626, Note_on_c, 9, 44, 87
2, 2638, Note_on_c, 9, 57, 71
2, 2654, Control_c, 9, 4, 106
2, 2700, Control_c, 9, 4, 92
2, 2714, Note_on_c, 9, 44, 0
2, 2726, Note_on_c, 9, 57, 0
2, 2745, Control_c, 9, 4, 82
2, 2823, Control_c, 9, 4, 90
2, 2867, Note_on_c, 9, 40, 76
2, 2874, Note_on_c, 9, 57, 122
2, 2948, Control_c, 9, 4, 83
2, 2955, Note_on_c, 9, 40, 0
2, 2962, Note_on_c, 9, 57, 0
2, 2978, Control_c, 9, 4, 76
2, 3012, Control_c, 9, 4, 56
2, 3043, Control_c, 9, 4, 0
2, 3101, Control_c, 9, 4, 67
2, 3103, Note_on_c, 9, 44, 87
2, 3110, Note_on_c, 9, 45, 69
2, 3131, Control_c, 9, 4, 102
2, 3181, Control_c, 9, 4, 91
2, 3191, Note_on_c, 9, 44, 0
2, 3198, Note_on_c, 9, 45, 0
2, 3233, Note_on_c, 9, 43, 44
2, 3320, Note_on_c, 9, 43, 0
2, 3354, Note_on_c, 9, 36, 92
2, 3442, Control_c, 9, 4, 85
2, 3442, Note_on_c, 9, 36, 0
2, 3475, Control_c, 9, 4, 70
2, 3514, Control_c, 9, 4, 43
2, 3549, Control_c, 9, 4, 5
2, 3580, Control_c, 9, 4, 69
2, 3583, Note_on_c, 9, 44, 67
2, 3585, Note_on_c, 9, 57, 127
2, 3610, Control_c, 9, 4, 98
2, 3661, Control_c, 9, 4, 91
2, 3671, Note_on_c, 9, 44, 0
2, 3673, Note_on_c, 9, 57, 0
2, 3701, Control_c, 9, 4, 85
2, 3799, Control_c, 9, 4, 89
2, 3821, Note_on_c, 9, 57, 78
2, 3830, Note_on_c, 9, 38, 68
2, 3909, Note_on_c, 9, 57, 0
2, 3917, Note_on_c, 9, 38, 0
2, 3943, Control_c, 9, 4, 77
2, 3983, Control_c, 9, 4, 56
2, 4019, Control_c, 9, 4, 14
2, 4055, Control_c, 9, 4, 62
2, 4061, Note_on_c, 9, 44, 67
2, 4064, Note_on_c, 9, 57, 48
2, 4088, Control_c, 9, 4, 99
2, 4149, Note_on_c, 9, 44, 0
2, 4151, Control_c, 9, 4, 89
2, 4153, Note_on_c, 9, 57, 0
2, 4181, Control_c, 9, 4, 85
2, 4190, Note_on_c, 9, 48, 49
2, 4251, Control_c, 9, 4, 90
2, 4278, Note_on_c, 9, 48, 0
2, 4325, Note_on_c, 9, 36, 62
2, 4327, Note_on_c, 9, 57, 61
2, 4413, Note_on_c, 9, 36, 0
2, 4416, Note_on_c, 9, 57, 0
2, 4427, Control_c, 9, 4, 77
2, 4470, Control_c, 9, 4, 58
2, 4506, Control_c, 9, 4, 18
2, 4541, Control_c, 9, 4, 66
2, 4545, Note_on_c, 9, 44, 61
2, 4572, Control_c, 9, 4, 100
2, 4587, Note_on_c, 9, 57, 39
2, 4603, Control_c, 9, 4, 95
2, 4633, Note_on_c, 9, 44, 0
2, 4651, Control_c, 9, 4, 84
2, 4675, Note_on_c, 9, 57, 0
2, 4737, Control_c, 9, 4, 89
2, 4822, Control_c, 9, 16, 0
2, 4823, Note_on_c, 9, 40, 68
2, 4901, Control_c, 9, 4, 83
2, 4911, Note_on_c, 9, 40, 0
2, 4945, Control_c, 9, 4, 70
2, 4980, Control_c, 9, 4, 53
2, 5015, Control_c, 9, 4, 64
2, 5026, Note_on_c, 9, 46, 22
2, 5028, Note_on_c, 9, 44, 22
2, 5047, Note_on_c, 9, 57, 16
2, 5053, Control_c, 9, 4, 93
2, 5113, Note_on_c, 9, 44, 0
2, 5113, Note_on_c, 9, 46, 0
2, 5135, Note_on_c, 9, 57, 0
2, 5141, Control_c, 9, 4, 84
2, 5192, Note_on_c, 9, 38, 9
2, 5219, Control_c, 9, 4, 88
2, 5279, Note_on_c, 9, 38, 0
2, 5295, Note_on_c, 9, 36, 77
2, 5296, Note_on_c, 9, 57, 108
2, 5379, Note_on_c, 9, 38, 8
2, 5383, Note_on_c, 9, 36, 0
2, 5384, Note_on_c, 9, 57, 0
2, 5392, Control_c, 9, 4, 73
2, 5417, Note_on_c, 9, 38, 0
2, 5417, Note_on_c, 9, 38, 7
2, 5429, Control_c, 9, 4, 53
2, 5446, Note_on_c, 9, 38, 0
2, 5446, Note_on_c, 9, 38, 6
2, 5463, Control_c, 9, 4, 10
2, 5467, Note_on_c, 9, 38, 0
2, 5506, Control_c, 9, 4, 69
2, 5509, Note_on_c, 9, 44, 67
2, 5527, Note_on_c, 9, 57, 71
2, 5536, Control_c, 9, 4, 98
2, 5577, Control_c, 9, 4, 92
2, 5597, Note_on_c, 9, 44, 0
2, 5615, Note_on_c, 9, 57, 0
2, 5633, Control_c, 9, 4, 83
2, 5658, Control_c, 9, 16, 0
2, 5659, Note_on_c, 9, 40, 51
2, 5710, Control_c, 9, 4, 88
2, 5746, Note_on_c, 9, 40, 0
2, 5776, Note_on_c, 9, 57, 119
2, 5865, Note_on_c, 9, 57, 0
2, 5892, Control_c, 9, 4, 75
2, 5895, Note_on_c, 9, 57, 81
2, 5928, Control_c, 9, 4, 58
2, 5966, Control_c, 9, 4, 21
2, 5984, Note_on_c, 9, 57, 0
2, 5998, Control_c, 9, 4, 69
2, 6001, Note_on_c, 9, 46, 38
2, 6003, Note_on_c, 9, 44, 54
2, 6011, Control_c, 9, 18, 0
2, 6012, Note_on_c, 9, 48, 38
2, 6028, Control_c, 9, 4, 98
2, 6072, Control_c, 9, 4, 92
2, 6089, Note_on_c, 9, 44, 0
2, 6089, Note_on_c, 9, 46, 0
2, 6100, Note_on_c, 9, 48, 0
2, 6109, Control_c, 9, 4, 87
2, 6131, Note_on_c, 9, 57, 90
2, 6138, Note_on_c, 9, 48, 58
2, 6143, Control_c, 9, 4, 83
2, 6188, Control_c, 9, 4, 90
2, 6219, Note_on_c, 9, 57, 0
2, 6226, Note_on_c, 9, 48, 0
2, 6256, Note_on_c, 9, 57, 99
2, 6259, Note_on_c, 9, 36, 77
2, 6344, Note_on_c, 9, 57, 0
2, 6348, Note_on_c, 9, 36, 0
2, 6361, Control_c, 9, 4, 77
2, 6397, Control_c, 9, 4, 56
2, 6434, Control_c, 9, 4, 0
2, 6482, Control_c, 9, 4, 66
2, 6485, Note_on_c, 9, 44, 87
2, 6491, Note_on_c, 9, 57, 61
2, 6512, Control_c, 9, 4, 100
2, 6555, Control_c, 9, 4, 93
2, 6573, Note_on_c, 9, 44, 0
2, 6579, Note_on_c, 9, 57, 0
2, 6602, Control_c, 9, 4, 84
2, 6686, Control_c, 9, 4, 90
2, 6717, Control_c, 9, 16, 106
2, 6717, Note_on_c, 9, 38, 77
2, 6744, Note_on_c, 9, 57, 119
2, 6805, Note_on_c, 9, 38, 0
2, 6817, Control_c, 9, 4, 84
2, 6833, Note_on_c, 9, 57, 0
2, 6853, Control_c, 9, 4, 70
2, 6890, Control_c, 9, 4, 40
2, 6926, Control_c, 9, 4, 4
2, 6956, Control_c, 9, 4, 70
2, 6958, Note_on_c, 9, 44, 74
2, 6973, Note_on_c, 9, 43, 51
2, 6986, Control_c, 9, 4, 100
2, 7043, Control_c, 9, 4, 90
2, 7046, Note_on_c, 9, 44, 0
2, 7061, Note_on_c, 9, 43, 0
2, 7074, Control_c, 9, 4, 85
2, 7091, Note_on_c, 9, 43, 63
2, 7146, Control_c, 9, 4, 90
2, 7179, Note_on_c, 9, 43, 0
2, 7207, Note_on_c, 9, 57, 98
2, 7210, Note_on_c, 9, 36, 84
2, 7295, Note_on_c, 9, 57, 0
2, 7298, Note_on_c, 9, 36, 0
2, 7313, Control_c, 9, 4, 77
2, 7353, Control_c, 9, 4, 57
2, 7387, Control_c, 9, 4, 0
2, 7439, Control_c, 9, 4, 64
2, 7442, Note_on_c, 9, 44, 87
2, 7458, Note_on_c, 9, 57, 79
2, 7470, Control_c, 9, 4, 100
2, 7512, Control_c, 9, 4, 92
2, 7530, Note_on_c, 9, 44, 0
2, 7547, Note_on_c, 9, 57, 0
2, 7564, Control_c, 9, 4, 84
2, 7580, Control_c, 9, 16, 0
2, 7581, Note_on_c, 9, 40, 63
2, 7642, Control_c, 9, 4, 88
2, 7669, Note_on_c, 9, 40, 0
2, 7670, End_track
0, 0, End_of_file
