0, 0, Header, 1, 2, 480
1, 0, Start_track
1, 0, Tempo, 588235
1, 0, Time_signature, 4, 2, 24, 8
1, 0, Key_signature, 0, "major"
1, 1, End_track
2, 0, Start_track
2, 0, Title_t, "Classic Studio Kit"
2, 0, Program_c, 9, 0
2, 0, Control_c, 9, 17, 72
2, 1, Control_c, 9, 4, 127
2, 1, Note_on_c, 9, 51, 62
2, 5, Note_on_c, 9, 48, 76
2, 46, Control_c, 9, 4, 120
2, 82, Note_on_c, 9, 51, 0
2, 86, Note_on_c, 9, 48, 0
2, 87, Control_c, 9, 4, 92
2, 123, Control_c, 9, 17, 17
2, 123, Note_on_c, 9, 51, 68
2, 205, Note_on_c, 9, 51, 0
2, 217, Control_c, 9, 4, 110
2, 237, Note_on_c, 9, 36, 68
2, 247, Control_c, 9, 4, 102
2, 293, Control_c, 9, 4, 92
2, 318, Note_on_c, 9, 36, 0
2, 482, Note_on_c, 9, 36, 75
2, 485, Control_c, 9, 17, 0
2, 486, Note_on_c, 9, 51, 104
2, 490, Control_c, 9, 16, 0
2, 491, Note_on_c, 9, 38, 75
2, 517, Control_c, 9, 4, 102
2, 562, Control_c, 9, 4, 96
2, 564, Note_on_c, 9, 36, 0
2, 567, Note_on_c, 9, 51, 0
2, 571, Note_on_c, 9, 38, 0
2, 607, Control_c, 9, 4, 72
2, 646, Control_c, 9, 4, 0
2, 710, Note_on_c, 9, 46, 11
2, 723, Note_on_c, 9, 44, 127
2, 728, Control_c, 9, 4, 127
2, 737, Control_c, 9, 17, 51
2, 737, Note_on_c, 9, 51, 84
2, 773, Control_c, 9, 4, 116
2, 792, Note_on_c, 9, 46, 0
2, 803, Control_c, 9, 4, 97
2, 805, Note_on_c, 9, 44, 0
2, 819, Note_on_c, 9, 51, 0
2, 848, Control_c, 9, 4, 88
2, 858, Control_c, 9, 18, 0
2, 859, Note_on_c, 9, 48, 45
2, 870, Note_on_c, 9, 36, 74
2, 940, Note_on_c, 9, 48, 0
2, 952, Note_on_c, 9, 36, 0
2, 961, Control_c, 9, 4, 118
2, 966, Control_c, 9, 17, 54
2, 967, Note_on_c, 9, 51, 66
2, 983, Note_on_c, 9, 48, 68
2, 1048, Note_on_c, 9, 51, 0
2, 1061, Control_c, 9, 4, 91
2, 1064, Note_on_c, 9, 48, 0
2, 1090, Control_c, 9, 17, 33
2, 1092, Note_on_c, 9, 51, 68
2, 1094, Control_c, 9, 4, 70
2, 1131, Control_c, 9, 4, 0
2, 1174, Note_on_c, 9, 51, 0
2, 1201, Note_on_c, 9, 46, 11
2, 1207, Control_c, 9, 4, 32
2, 1212, Note_on_c, 9, 44, 127
2, 1214, Note_on_c, 9, 36, 69
2, 1237, Control_c, 9, 4, 127
2, 1283, Note_on_c, 9, 46, 0
2, 1284, Control_c, 9, 4, 98
2, 1294, Note_on_c, 9, 44, 0
2, 1297, Note_on_c, 9, 36, 0
2, 1319, Control_c, 9, 4, 69
2, 1342, Control_c, 9, 17, 1
2, 1343, Note_on_c, 9, 51, 80
2, 1349, Control_c, 9, 4, 0
2, 1425, Note_on_c, 9, 51, 0
2, 1442, Control_c, 9, 4, 49
2, 1446, Note_on_c, 9, 44, 119
2, 1453, Note_on_c, 9, 36, 78
2, 1459, Note_on_c, 9, 38, 66
2, 1472, Control_c, 9, 4, 112
2, 1507, Control_c, 9, 4, 98
2, 1529, Note_on_c, 9, 44, 0
2, 1534, Note_on_c, 9, 36, 0
2, 1541, Note_on_c, 9, 38, 0
2, 1551, Control_c, 9, 4, 83
2, 1639, Control_c, 9, 4, 87
2, 1689, Control_c, 9, 4, 120
2, 1699, Control_c, 9, 17, 6
2, 1699, Note_on_c, 9, 51, 98
2, 1777, Control_c, 9, 4, 90
2, 1782, Note_on_c, 9, 51, 0
2, 1807, Control_c, 9, 4, 70
2, 1821, Control_c, 9, 18, 0
2, 1822, Note_on_c, 9, 48, 45
2, 1846, Control_c, 9, 4, 0
2, 1905, Note_on_c, 9, 48, 0
2, 1921, Note_on_c, 9, 46, 15
2, 1928, Control_c, 9, 4, 35
2, 1932, Note_on_c, 9, 44, 127
2, 1933, Control_c, 9, 17, 62
2, 1934, Note_on_c, 9, 51, 70
2, 1943, Note_on_c, 9, 36, 81
2, 1943, Note_on_c, 9, 48, 85
2, 1958, Control_c, 9, 4, 127
2, 2003, Note_on_c, 9, 46, 0
2, 2008, Control_c, 9, 4, 100
2, 2014, Note_on_c, 9, 44, 0
2, 2014, Note_on_c, 9, 51, 0
2, 2026, Note_on_c, 9, 36, 0
2, 2026, Note_on_c, 9, 48, 0
2, 2048, Control_c, 9, 4, 87
2, 2053, Control_c, 9, 17, 17
2, 2053, Note_on_c, 9, 51, 75
2, 2136, Note_on_c, 9, 51, 0
2, 2160, Control_c, 9, 4, 118
2, 2210, Control_c, 9, 4, 92
2, 2420, Control_c, 9, 16, 0
2, 2421, Note_on_c, 9, 38, 91
2, 2422, Control_c, 9, 17, 0
2, 2422, Note_on_c, 9, 51, 112
2, 2424, Note_on_c, 9, 36, 78
2, 2447, Control_c, 9, 4, 106
2, 2503, Note_on_c, 9, 38, 0
2, 2504, Note_on_c, 9, 36, 0
2, 2504, Note_on_c, 9, 51, 0
2, 2507, Control_c, 9, 4, 91
2, 2539, Control_c, 9, 4, 71
2, 2573, Control_c, 9, 4, 0
2, 2642, Note_on_c, 9, 46, 11
2, 2650, Control_c, 9, 4, 33
2, 2655, Note_on_c, 9, 44, 127
2, 2662, Control_c, 9, 17, 42
2, 2662, Note_on_c, 9, 51, 77
2, 2681, Control_c, 9, 4, 127
2, 2711, Control_c, 9, 4, 118
2, 2724, Note_on_c, 9, 46, 0
2, 2737, Note_on_c, 9, 44, 0
2, 2744, Note_on_c, 9, 51, 0
2, 2748, Control_c, 9, 4, 92
2, 2775, Control_c, 9, 18, 0
2, 2775, Note_on_c, 9, 48, 50
2, 2779, Control_c, 9, 4, 88
2, 2786, Note_on_c, 9, 36, 73
2, 2858, Note_on_c, 9, 48, 0
2, 2868, Note_on_c, 9, 36, 0
2, 2884, Control_c, 9, 4, 112
2, 2903, Note_on_c, 9, 48, 74
2, 2904, Control_c, 9, 17, 58
2, 2904, Note_on_c, 9, 51, 68
2, 2984, Note_on_c, 9, 48, 0
2, 2984, Note_on_c, 9, 51, 0
2, 2994, Control_c, 9, 4, 94
2, 3021, Control_c, 9, 17, 30
2, 3021, Note_on_c, 9, 51, 72
2, 3025, Control_c, 9, 4, 77
2, 3063, Control_c, 9, 4, 0
2, 3104, Note_on_c, 9, 51, 0
2, 3134, Note_on_c, 9, 46, 14
2, 3140, Control_c, 9, 4, 35
2, 3144, Note_on_c, 9, 44, 127
2, 3150, Note_on_c, 9, 36, 73
2, 3170, Control_c, 9, 4, 127
2, 3214, Control_c, 9, 4, 98
2, 3215, Note_on_c, 9, 46, 0
2, 3227, Note_on_c, 9, 44, 0
2, 3232, Note_on_c, 9, 36, 0
2, 3250, Control_c, 9, 4, 70
2, 3264, Control_c, 9, 17, 77
2, 3264, Note_on_c, 9, 51, 54
2, 3282, Control_c, 9, 4, 0
2, 3347, Note_on_c, 9, 51, 0
2, 3371, Control_c, 9, 4, 49
2, 3376, Note_on_c, 9, 44, 106
2, 3380, Note_on_c, 9, 36, 86
2, 3384, Control_c, 9, 17, 9
2, 3384, Note_on_c, 9, 51, 85
2, 3390, Note_on_c, 9, 38, 72
2, 3401, Control_c, 9, 4, 97
2, 3457, Control_c, 9, 4, 90
2, 3458, Note_on_c, 9, 44, 0
2, 3462, Note_on_c, 9, 36, 0
2, 3466, Note_on_c, 9, 51, 0
2, 3471, Note_on_c, 9, 38, 0
2, 3489, Control_c, 9, 4, 84
2, 3611, Control_c, 9, 4, 118
2, 3631, Control_c, 9, 17, 67
2, 3632, Note_on_c, 9, 51, 76
2, 3702, Control_c, 9, 4, 90
2, 3714, Note_on_c, 9, 51, 0
2, 3734, Control_c, 9, 4, 72
2, 3753, Control_c, 9, 18, 0
2, 3754, Note_on_c, 9, 48, 50
2, 3776, Control_c, 9, 4, 0
2, 3835, Note_on_c, 9, 48, 0
2, 3850, Note_on_c, 9, 44, 127
2, 3855, Control_c, 9, 4, 127
2, 3866, Note_on_c, 9, 36, 81
2, 3874, Control_c, 9, 17, 127
2, 3875, Note_on_c, 9, 51, 61
2, 3879, Note_on_c, 9, 48, 74
2, 3901, Control_c, 9, 4, 120
2, 3933, Note_on_c, 9, 44, 0
2, 3939, Control_c, 9, 4, 91
2, 3948, Note_on_c, 9, 36, 0
2, 3955, Note_on_c, 9, 51, 0
2, 3960, Note_on_c, 9, 48, 0
2, 3995, Control_c, 9, 17, 35
2, 3996, Note_on_c, 9, 51, 77
2, 4060, Control_c, 9, 4, 98
2, 4078, Note_on_c, 9, 51, 0
2, 4095, Control_c, 9, 4, 98
2, 4123, Note_on_c, 9, 36, 76
2, 4128, Control_c, 9, 4, 94
2, 4206, Note_on_c, 9, 36, 0
2, 4366, Control_c, 9, 17, 20
2, 4367, Note_on_c, 9, 51, 100
2, 4368, Control_c, 9, 16, 0
2, 4368, Note_on_c, 9, 38, 76
2, 4371, Note_on_c, 9, 36, 88
2, 4396, Control_c, 9, 4, 102
2, 4448, Note_on_c, 9, 38, 0
2, 4448, Note_on_c, 9, 51, 0
2, 4453, Note_on_c, 9, 36, 0
2, 4460, Control_c, 9, 4, 89
2, 4490, Control_c, 9, 4, 71
2, 4527, Control_c, 9, 4, 0
2, 4594, Control_c, 9, 4, 33
2, 4599, Note_on_c, 9, 44, 127
2, 4606, Control_c, 9, 17, 57
2, 4607, Note_on_c, 9, 51, 77
2, 4625, Control_c, 9, 4, 127
2, 4674, Control_c, 9, 4, 96
2, 4681, Note_on_c, 9, 44, 0
2, 4688, Note_on_c, 9, 51, 0
2, 4711, Control_c, 9, 4, 85
2, 4715, Control_c, 9, 18, 0
2, 4716, Note_on_c, 9, 48, 50
2, 4722, Note_on_c, 9, 36, 77
2, 4798, Note_on_c, 9, 48, 0
2, 4804, Note_on_c, 9, 36, 0
2, 4816, Control_c, 9, 4, 108
2, 4829, Control_c, 9, 17, 127
2, 4829, Note_on_c, 9, 51, 56
2, 4842, Control_c, 9, 18, 0
2, 4842, Note_on_c, 9, 48, 72
2, 4857, Control_c, 9, 4, 114
2, 4911, Note_on_c, 9, 51, 0
2, 4924, Control_c, 9, 4, 97
2, 4924, Note_on_c, 9, 48, 0
2, 4955, Control_c, 9, 17, 42
2, 4955, Note_on_c, 9, 51, 83
2, 4969, Control_c, 9, 4, 70
2, 5001, Control_c, 9, 4, 0
2, 5038, Note_on_c, 9, 51, 0
2, 5065, Control_c, 9, 4, 35
2, 5066, Note_on_c, 9, 36, 75
2, 5070, Note_on_c, 9, 44, 127
2, 5095, Control_c, 9, 4, 127
2, 5113, Note_on_c, 9, 49, 7
2, 5136, Control_c, 9, 4, 100
2, 5149, Note_on_c, 9, 36, 0
2, 5151, Note_on_c, 9, 44, 0
2, 5171, Control_c, 9, 4, 84
2, 5195, Note_on_c, 9, 49, 0
2, 5203, Control_c, 9, 17, 85
2, 5204, Note_on_c, 9, 51, 63
2, 5243, Control_c, 9, 4, 89
2, 5285, Note_on_c, 9, 51, 0
2, 5294, Control_c, 9, 4, 102
2, 5306, Note_on_c, 9, 36, 79
2, 5317, Note_on_c, 9, 51, 6
2, 5326, Note_on_c, 9, 38, 79
2, 5330, Control_c, 9, 17, 13
2, 5330, Note_on_c, 9, 51, 0
2, 5331, Note_on_c, 9, 51, 85
2, 5339, Control_c, 9, 4, 98
2, 5388, Note_on_c, 9, 36, 0
2, 5398, Note_on_c, 9, 51, 0
2, 5407, Note_on_c, 9, 38, 0
2, 5438, Control_c, 9, 4, 94
2, 5487, Control_c, 9, 4, 90
2, 5533, Control_c, 9, 4, 112
2, 5561, Control_c, 9, 17, 68
2, 5561, Note_on_c, 9, 51, 94
2, 5586, Control_c, 9, 4, 118
2, 5643, Note_on_c, 9, 51, 0
2, 5648, Control_c, 9, 4, 90
2, 5672, Control_c, 9, 18, 21
2, 5673, Note_on_c, 9, 48, 48
2, 5680, Control_c, 9, 4, 71
2, 5717, Control_c, 9, 4, 0
2, 5755, Note_on_c, 9, 48, 0
2, 5787, Control_c, 9, 4, 35
2, 5791, Note_on_c, 9, 44, 127
2, 5796, Control_c, 9, 17, 127
2, 5797, Note_on_c, 9, 51, 60
2, 5801, Control_c, 9, 18, 0
2, 5802, Note_on_c, 9, 36, 79
2, 5802, Note_on_c, 9, 48, 78
2, 5818, Control_c, 9, 4, 127
2, 5853, Control_c, 9, 4, 116
2, 5873, Note_on_c, 9, 44, 0
2, 5878, Note_on_c, 9, 51, 0
2, 5882, Note_on_c, 9, 48, 0
2, 5884, Note_on_c, 9, 36, 0
2, 5893, Control_c, 9, 4, 90
2, 5918, Control_c, 9, 17, 58
2, 5919, Note_on_c, 9, 51, 74
2, 6000, Note_on_c, 9, 51, 0
2, 6012, Control_c, 9, 4, 116
2, 6032, Note_on_c, 9, 36, 68
2, 6043, Control_c, 9, 4, 106
2, 6075, Control_c, 9, 4, 93
2, 6114, Note_on_c, 9, 36, 0
2, 6275, Control_c, 9, 16, 0
2, 6275, Note_on_c, 9, 38, 103
2, 6279, Note_on_c, 9, 36, 54
2, 6282, Control_c, 9, 17, 68
2, 6283, Note_on_c, 9, 51, 105
2, 6312, Control_c, 9, 4, 100
2, 6357, Note_on_c, 9, 38, 0
2, 6360, Note_on_c, 9, 36, 0
2, 6363, Note_on_c, 9, 51, 0
2, 6371, Control_c, 9, 4, 92
2, 6406, Control_c, 9, 4, 74
2, 6444, Control_c, 9, 4, 0
2, 6511, Control_c, 9, 4, 36
2, 6517, Note_on_c, 9, 44, 127
2, 6518, Control_c, 9, 17, 99
2, 6518, Note_on_c, 9, 51, 83
2, 6542, Control_c, 9, 4, 127
2, 6572, Control_c, 9, 4, 116
2, 6598, Note_on_c, 9, 44, 0
2, 6598, Note_on_c, 9, 51, 0
2, 6612, Control_c, 9, 4, 90
2, 6638, Note_on_c, 9, 48, 47
2, 6652, Note_on_c, 9, 36, 84
2, 6719, Note_on_c, 9, 48, 0
2, 6734, Note_on_c, 9, 36, 0
2, 6737, Control_c, 9, 4, 112
2, 6739, Control_c, 9, 17, 127
2, 6739, Note_on_c, 9, 51, 55
2, 6760, Control_c, 9, 18, 0
2, 6761, Note_on_c, 9, 48, 72
2, 6822, Note_on_c, 9, 51, 0
2, 6843, Note_on_c, 9, 48, 0
2, 6844, Control_c, 9, 4, 92
2, 6867, Control_c, 9, 17, 55
2, 6867, Note_on_c, 9, 51, 83
2, 6892, Control_c, 9, 4, 70
2, 6925, Control_c, 9, 4, 0
2, 6950, Note_on_c, 9, 51, 0
2, 6989, Note_on_c, 9, 44, 127
2, 6994, Note_on_c, 9, 36, 68
2, 6995, Control_c, 9, 4, 127
2, 7032, Note_on_c, 9, 49, 6
2, 7043, Control_c, 9, 4, 116
2, 7070, Note_on_c, 9, 44, 0
2, 7075, Note_on_c, 9, 36, 0
2, 7080, Control_c, 9, 4, 89
2, 7114, Note_on_c, 9, 49, 0
2, 7122, Control_c, 9, 17, 127
2, 7122, Note_on_c, 9, 51, 46
2, 7190, Control_c, 9, 4, 97
2, 7203, Note_on_c, 9, 51, 0
2, 7223, Note_on_c, 9, 36, 87
2, 7230, Control_c, 9, 4, 102
2, 7238, Note_on_c, 9, 38, 98
2, 7244, Control_c, 9, 17, 73
2, 7244, Note_on_c, 9, 51, 91
2, 7277, Control_c, 9, 4, 91
2, 7305, Note_on_c, 9, 36, 0
2, 7319, Note_on_c, 9, 38, 0
2, 7326, Note_on_c, 9, 51, 0
2, 7430, Control_c, 9, 4, 102
2, 7470, Control_c, 9, 17, 72
2, 7471, Note_on_c, 9, 51, 78
2, 7546, Control_c, 9, 4, 91
2, 7552, Note_on_c, 9, 51, 0
2, 7580, Note_on_c, 9, 48, 47
2, 7589, Control_c, 9, 4, 75
2, 7630, Control_c, 9, 4, 0
2, 7662, Note_on_c, 9, 48, 0
2, 7663, End_track
0, 0, End_of_file
