0, 0, Header, 1, 2, 480
1, 0, Start_track
1, 0, Tempo, 588235
1, 0, Time_signature, 4, 2, 24, 8
1, 0, Key_signature, 0, "major"
1, 1, End_track
2, 0, Start_track
2, 0, Title_t, "Classic Studio Kit"
2, 0, Program_c, 9, 0
2, 0, Control_c, 9, 16, 0
2, 9, Control_c, 9, 4, 97
2, 56, Control_c, 9, 4, 92
2, 96, Control_c, 9, 4, 75
2, 135, Control_c, 9, 4, 0
2, 200, Note_on_c, 9, 46, 7
2, 217, Note_on_c, 9, 44, 126
2, 225, Control_c, 9, 4, 127
2, 261, Control_c, 9, 4, 104
2, 282, Note_on_c, 9, 46, 0
2, 297, Control_c, 9, 4, 91
2, 299, Note_on_c, 9, 44, 0
2, 468, Note_on_c, 9, 38, 112
2, 471, Control_c, 9, 17, 10
2, 472, Note_on_c, 9, 51, 97
2, 484, Note_on_c, 9, 36, 70
2, 507, Control_c, 9, 4, 102
2, 550, Note_on_c, 9, 38, 0
2, 553, Note_on_c, 9, 51, 0
2, 566, Note_on_c, 9, 36, 0
2, 568, Control_c, 9, 4, 90
2, 602, Control_c, 9, 4, 72
2, 641, Control_c, 9, 4, 0
2, 710, Control_c, 9, 4, 34
2, 716, Control_c, 9, 17, 66
2, 716, Note_on_c, 9, 44, 127
2, 718, Note_on_c, 9, 51, 69
2, 741, Control_c, 9, 4, 127
2, 795, Control_c, 9, 4, 93
2, 798, Note_on_c, 9, 44, 0
2, 798, Note_on_c, 9, 51, 0
2, 825, Control_c, 9, 4, 89
2, 836, Note_on_c, 9, 36, 76
2, 840, Control_c, 9, 18, 0
2, 840, Note_on_c, 9, 48, 44
2, 918, Note_on_c, 9, 36, 0
2, 923, Note_on_c, 9, 48, 0
2, 940, Control_c, 9, 4, 112
2, 955, Control_c, 9, 17, 67
2, 955, Note_on_c, 9, 51, 64
2, 972, Note_on_c, 9, 48, 67
2, 1038, Note_on_c, 9, 51, 0
2, 1054, Note_on_c, 9, 48, 0
2, 1055, Control_c, 9, 4, 92
2, 1082, Control_c, 9, 17, 44
2, 1082, Note_on_c, 9, 51, 68
2, 1086, Control_c, 9, 4, 71
2, 1117, Control_c, 9, 4, 0
2, 1164, Note_on_c, 9, 51, 0
2, 1190, Note_on_c, 9, 46, 13
2, 1197, Control_c, 9, 4, 35
2, 1197, Note_on_c, 9, 36, 83
2, 1201, Note_on_c, 9, 44, 127
2, 1227, Control_c, 9, 4, 127
2, 1261, Control_c, 9, 4, 102
2, 1271, Note_on_c, 9, 46, 0
2, 1280, Note_on_c, 9, 36, 0
2, 1283, Note_on_c, 9, 44, 0
2, 1299, Control_c, 9, 4, 89
2, 1344, Control_c, 9, 17, 0
2, 1344, Note_on_c, 9, 51, 91
2, 1404, Control_c, 9, 4, 97
2, 1426, Note_on_c, 9, 51, 0
2, 1432, Note_on_c, 9, 36, 86
2, 1437, Control_c, 9, 4, 97
2, 1459, Control_c, 9, 16, 0
2, 1460, Note_on_c, 9, 38, 109
2, 1477, Control_c, 9, 4, 102
2, 1513, Note_on_c, 9, 36, 0
2, 1539, Control_c, 9, 4, 90
2, 1541, Note_on_c, 9, 38, 0
2, 1573, Control_c, 9, 4, 71
2, 1606, Control_c, 9, 4, 0
2, 1677, Control_c, 9, 17, 29
2, 1678, Note_on_c, 9, 51, 91
2, 1681, Note_on_c, 9, 44, 127
2, 1685, Control_c, 9, 4, 127
2, 1728, Control_c, 9, 4, 116
2, 1760, Note_on_c, 9, 44, 0
2, 1760, Note_on_c, 9, 51, 0
2, 1770, Control_c, 9, 4, 90
2, 1788, Control_c, 9, 18, 0
2, 1789, Note_on_c, 9, 48, 46
2, 1804, Note_on_c, 9, 36, 65
2, 1871, Note_on_c, 9, 48, 0
2, 1886, Note_on_c, 9, 36, 0
2, 1920, Control_c, 9, 17, 70
2, 1920, Note_on_c, 9, 51, 67
2, 1922, Control_c, 9, 4, 110
2, 1922, Note_on_c, 9, 48, 70
2, 2002, Note_on_c, 9, 48, 0
2, 2002, Note_on_c, 9, 51, 0
2, 2011, Control_c, 9, 4, 92
2, 2040, Control_c, 9, 17, 46
2, 2041, Note_on_c, 9, 51, 72
2, 2050, Control_c, 9, 4, 73
2, 2088, Control_c, 9, 4, 0
2, 2122, Note_on_c, 9, 51, 0
2, 2151, Note_on_c, 9, 44, 119
2, 2159, Control_c, 9, 4, 127
2, 2160, Note_on_c, 9, 36, 58
2, 2196, Control_c, 9, 4, 110
2, 2228, Control_c, 9, 4, 92
2, 2233, Note_on_c, 9, 44, 0
2, 2243, Note_on_c, 9, 36, 0
2, 2261, Control_c, 9, 4, 88
2, 2373, Control_c, 9, 4, 97
2, 2405, Note_on_c, 9, 38, 87
2, 2410, Note_on_c, 9, 36, 76
2, 2413, Control_c, 9, 17, 0
2, 2413, Note_on_c, 9, 51, 104
2, 2487, Note_on_c, 9, 38, 0
2, 2492, Note_on_c, 9, 36, 0
2, 2494, Note_on_c, 9, 51, 0
2, 2497, Control_c, 9, 4, 91
2, 2530, Control_c, 9, 4, 73
2, 2567, Control_c, 9, 4, 0
2, 2641, Note_on_c, 9, 44, 127
2, 2647, Control_c, 9, 4, 127
2, 2660, Control_c, 9, 17, 63
2, 2660, Note_on_c, 9, 51, 70
2, 2690, Control_c, 9, 4, 120
2, 2722, Note_on_c, 9, 44, 0
2, 2729, Control_c, 9, 4, 91
2, 2741, Note_on_c, 9, 51, 0
2, 2778, Control_c, 9, 18, 0
2, 2778, Note_on_c, 9, 48, 48
2, 2783, Note_on_c, 9, 36, 69
2, 2860, Note_on_c, 9, 48, 0
2, 2866, Control_c, 9, 4, 112
2, 2866, Note_on_c, 9, 36, 0
2, 2893, Control_c, 9, 17, 55
2, 2893, Note_on_c, 9, 51, 63
2, 2903, Note_on_c, 9, 48, 73
2, 2974, Note_on_c, 9, 51, 0
2, 2984, Note_on_c, 9, 48, 0
2, 2987, Control_c, 9, 4, 94
2, 3012, Control_c, 9, 17, 11
2, 3013, Note_on_c, 9, 51, 81
2, 3025, Control_c, 9, 4, 83
2, 3078, Control_c, 9, 4, 71
2, 3095, Note_on_c, 9, 51, 0
2, 3127, Note_on_c, 9, 36, 74
2, 3142, Control_c, 9, 4, 110
2, 3185, Control_c, 9, 4, 112
2, 3209, Note_on_c, 9, 36, 0
2, 3219, Control_c, 9, 4, 92
2, 3255, Control_c, 9, 17, 8
2, 3256, Note_on_c, 9, 51, 91
2, 3336, Note_on_c, 9, 51, 0
2, 3367, Note_on_c, 9, 36, 84
2, 3378, Control_c, 9, 16, 0
2, 3378, Note_on_c, 9, 38, 84
2, 3422, Control_c, 9, 4, 97
2, 3449, Note_on_c, 9, 36, 0
2, 3461, Note_on_c, 9, 38, 0
2, 3495, Control_c, 9, 4, 83
2, 3525, Control_c, 9, 4, 69
2, 3558, Control_c, 9, 4, 0
2, 3617, Note_on_c, 9, 44, 113
2, 3618, Control_c, 9, 17, 8
2, 3618, Note_on_c, 9, 51, 105
2, 3625, Control_c, 9, 4, 127
2, 3666, Control_c, 9, 4, 120
2, 3698, Note_on_c, 9, 44, 0
2, 3699, Note_on_c, 9, 51, 0
2, 3705, Control_c, 9, 4, 92
2, 3731, Control_c, 9, 18, 0
2, 3732, Note_on_c, 9, 48, 47
2, 3735, Note_on_c, 9, 36, 60
2, 3739, Control_c, 9, 4, 88
2, 3814, Note_on_c, 9, 48, 0
2, 3818, Note_on_c, 9, 36, 0
2, 3843, Control_c, 9, 4, 114
2, 3845, Control_c, 9, 17, 69
2, 3846, Note_on_c, 9, 51, 69
2, 3855, Control_c, 9, 18, 0
2, 3855, Note_on_c, 9, 48, 69
2, 3879, Control_c, 9, 4, 112
2, 3927, Note_on_c, 9, 51, 0
2, 3936, Note_on_c, 9, 48, 0
2, 3952, Control_c, 9, 4, 92
2, 3966, Control_c, 9, 17, 69
2, 3966, Note_on_c, 9, 51, 71
2, 3991, Control_c, 9, 4, 72
2, 4026, Control_c, 9, 4, 0
2, 4048, Note_on_c, 9, 51, 0
2, 4085, Control_c, 9, 4, 51
2, 4089, Note_on_c, 9, 44, 119
2, 4092, Note_on_c, 9, 36, 71
2, 4115, Control_c, 9, 4, 120
2, 4133, Note_on_c, 9, 49, 5
2, 4165, Control_c, 9, 4, 98
2, 4170, Note_on_c, 9, 44, 0
2, 4174, Note_on_c, 9, 36, 0
2, 4207, Control_c, 9, 4, 90
2, 4214, Note_on_c, 9, 49, 0
2, 4320, Control_c, 9, 4, 106
2, 4332, Note_on_c, 9, 38, 97
2, 4336, Control_c, 9, 17, 0
2, 4337, Note_on_c, 9, 51, 116
2, 4343, Note_on_c, 9, 36, 86
2, 4413, Note_on_c, 9, 38, 0
2, 4414, Control_c, 9, 4, 92
2, 4418, Note_on_c, 9, 51, 0
2, 4426, Note_on_c, 9, 36, 0
2, 4453, Control_c, 9, 4, 75
2, 4494, Control_c, 9, 4, 0
2, 4567, Note_on_c, 9, 44, 127
2, 4573, Control_c, 9, 4, 127
2, 4579, Control_c, 9, 17, 66
2, 4579, Note_on_c, 9, 51, 74
2, 4616, Control_c, 9, 4, 120
2, 4649, Note_on_c, 9, 44, 0
2, 4656, Control_c, 9, 4, 91
2, 4661, Note_on_c, 9, 51, 0
2, 4687, Control_c, 9, 18, 21
2, 4688, Note_on_c, 9, 48, 45
2, 4697, Note_on_c, 9, 36, 73
2, 4769, Note_on_c, 9, 48, 0
2, 4780, Note_on_c, 9, 36, 0
2, 4786, Control_c, 9, 4, 112
2, 4806, Control_c, 9, 17, 77
2, 4806, Note_on_c, 9, 51, 72
2, 4813, Control_c, 9, 18, 0
2, 4814, Note_on_c, 9, 48, 74
2, 4888, Note_on_c, 9, 51, 0
2, 4896, Note_on_c, 9, 48, 0
2, 4899, Control_c, 9, 4, 93
2, 4928, Control_c, 9, 17, 45
2, 4928, Note_on_c, 9, 51, 73
2, 4932, Control_c, 9, 4, 77
2, 4972, Control_c, 9, 4, 0
2, 5010, Note_on_c, 9, 51, 0
2, 5041, Note_on_c, 9, 36, 74
2, 5042, Control_c, 9, 4, 34
2, 5047, Note_on_c, 9, 44, 127
2, 5073, Control_c, 9, 4, 120
2, 5091, Note_on_c, 9, 49, 4
2, 5122, Note_on_c, 9, 36, 0
2, 5129, Note_on_c, 9, 44, 0
2, 5145, Control_c, 9, 4, 91
2, 5159, Control_c, 9, 17, 58
2, 5160, Note_on_c, 9, 51, 55
2, 5173, Note_on_c, 9, 49, 0
2, 5241, Note_on_c, 9, 51, 0
2, 5261, Control_c, 9, 4, 100
2, 5280, Note_on_c, 9, 36, 91
2, 5289, Control_c, 9, 17, 0
2, 5289, Note_on_c, 9, 51, 102
2, 5293, Control_c, 9, 4, 102
2, 5300, Control_c, 9, 16, 0
2, 5300, Note_on_c, 9, 38, 90
2, 5362, Control_c, 9, 4, 96
2, 5362, Note_on_c, 9, 36, 0
2, 5371, Note_on_c, 9, 51, 0
2, 5381, Note_on_c, 9, 38, 0
2, 5400, Control_c, 9, 4, 83
2, 5450, Control_c, 9, 4, 54
2, 5486, Control_c, 9, 4, 0
2, 5517, Control_c, 9, 4, 49
2, 5522, Note_on_c, 9, 44, 87
2, 5539, Control_c, 9, 17, 34
2, 5539, Note_on_c, 9, 51, 76
2, 5548, Control_c, 9, 4, 127
2, 5580, Control_c, 9, 4, 120
2, 5604, Note_on_c, 9, 44, 0
2, 5620, Control_c, 9, 4, 89
2, 5621, Note_on_c, 9, 51, 0
2, 5659, Note_on_c, 9, 36, 68
2, 5661, Note_on_c, 9, 48, 46
2, 5663, Control_c, 9, 4, 71
2, 5712, Control_c, 9, 4, 0
2, 5742, Note_on_c, 9, 36, 0
2, 5742, Note_on_c, 9, 48, 0
2, 5764, Control_c, 9, 4, 49
2, 5769, Note_on_c, 9, 44, 106
2, 5782, Control_c, 9, 18, 0
2, 5783, Note_on_c, 9, 48, 70
2, 5784, Control_c, 9, 17, 58
2, 5784, Note_on_c, 9, 51, 65
2, 5794, Control_c, 9, 4, 127
2, 5836, Control_c, 9, 4, 104
2, 5851, Note_on_c, 9, 44, 0
2, 5864, Note_on_c, 9, 48, 0
2, 5865, Note_on_c, 9, 51, 0
2, 5867, Control_c, 9, 4, 91
2, 5906, Control_c, 9, 17, 42
2, 5907, Note_on_c, 9, 51, 70
2, 5988, Control_c, 9, 4, 110
2, 5988, Note_on_c, 9, 51, 0
2, 6007, Note_on_c, 9, 36, 72
2, 6035, Control_c, 9, 4, 96
2, 6066, Control_c, 9, 4, 92
2, 6090, Note_on_c, 9, 36, 0
2, 6244, Control_c, 9, 17, 2
2, 6245, Note_on_c, 9, 51, 105
2, 6249, Note_on_c, 9, 38, 88
2, 6256, Note_on_c, 9, 36, 74
2, 6263, Control_c, 9, 4, 98
2, 6295, Control_c, 9, 4, 110
2, 6325, Note_on_c, 9, 51, 0
2, 6330, Note_on_c, 9, 38, 0
2, 6338, Control_c, 9, 4, 92
2, 6338, Note_on_c, 9, 36, 0
2, 6369, Control_c, 9, 4, 74
2, 6406, Control_c, 9, 4, 0
2, 6471, Note_on_c, 9, 46, 13
2, 6480, Control_c, 9, 4, 32
2, 6485, Note_on_c, 9, 44, 127
2, 6491, Control_c, 9, 17, 55
2, 6491, Note_on_c, 9, 51, 73
2, 6511, Control_c, 9, 4, 127
2, 6553, Note_on_c, 9, 46, 0
2, 6558, Control_c, 9, 4, 102
2, 6567, Note_on_c, 9, 44, 0
2, 6573, Note_on_c, 9, 51, 0
2, 6592, Control_c, 9, 4, 90
2, 6602, Note_on_c, 9, 48, 47
2, 6617, Note_on_c, 9, 36, 57
2, 6684, Note_on_c, 9, 48, 0
2, 6699, Note_on_c, 9, 36, 0
2, 6724, Control_c, 9, 17, 52
2, 6725, Note_on_c, 9, 51, 64
2, 6727, Control_c, 9, 18, 0
2, 6728, Note_on_c, 9, 48, 69
2, 6733, Control_c, 9, 4, 122
2, 6795, Control_c, 9, 4, 97
2, 6806, Note_on_c, 9, 51, 0
2, 6809, Note_on_c, 9, 48, 0
2, 6836, Control_c, 9, 4, 71
2, 6848, Control_c, 9, 17, 8
2, 6849, Note_on_c, 9, 51, 69
2, 6875, Control_c, 9, 4, 0
2, 6930, Note_on_c, 9, 51, 0
2, 6956, Note_on_c, 9, 46, 12
2, 6963, Control_c, 9, 4, 34
2, 6969, Note_on_c, 9, 44, 127
2, 6975, Note_on_c, 9, 36, 71
2, 6994, Control_c, 9, 4, 127
2, 7013, Note_on_c, 9, 49, 5
2, 7039, Note_on_c, 9, 46, 0
2, 7051, Note_on_c, 9, 44, 0
2, 7057, Note_on_c, 9, 36, 0
2, 7061, Control_c, 9, 4, 91
2, 7063, Control_c, 9, 17, 60
2, 7063, Note_on_c, 9, 51, 51
2, 7093, Control_c, 9, 4, 72
2, 7096, Note_on_c, 9, 49, 0
2, 7141, Control_c, 9, 4, 0
2, 7145, Note_on_c, 9, 51, 0
2, 7215, Note_on_c, 9, 36, 83
2, 7217, Note_on_c, 9, 44, 113
2, 7226, Control_c, 9, 16, 0
2, 7226, Note_on_c, 9, 38, 107
2, 7228, Control_c, 9, 4, 127
2, 7230, Control_c, 9, 17, 21
2, 7231, Note_on_c, 9, 51, 88
2, 7267, Control_c, 9, 4, 98
2, 7296, Note_on_c, 9, 36, 0
2, 7299, Note_on_c, 9, 44, 0
2, 7308, Note_on_c, 9, 38, 0
2, 7312, Note_on_c, 9, 51, 0
2, 7323, Control_c, 9, 4, 86
2, 7456, Control_c, 9, 17, 62
2, 7456, Note_on_c, 9, 51, 73
2, 7460, Control_c, 9, 4, 127
2, 7501, Control_c, 9, 4, 120
2, 7539, Note_on_c, 9, 51, 0
2, 7545, Control_c, 9, 4, 90
2, 7579, Control_c, 9, 4, 71
2, 7583, Note_on_c, 9, 48, 42
2, 7588, Note_on_c, 9, 36, 64
2, 7613, Control_c, 9, 4, 0
2, 7663, Note_on_c, 9, 48, 0
2, 7669, Note_on_c, 9, 36, 0
2, 7670, End_track
0, 0, End_of_file
