0, 0, Header, 1, 2, 480
1, 0, Start_track
1, 0, Tempo, 588235
1, 0, Time_signature, 4, 2, 24, 8
1, 0, Key_signature, 0, "major"
1, 1, End_track
2, 0, Start_track
2, 0, Title_t, "Classic Studio Kit"
2, 0, Program_c, 9, 0
2, 0, Control_c, 9, 18, 0
2, 16, Control_c, 9, 4, 116
2, 28, Control_c, 9, 17, 102
2, 29, Note_on_c, 9, 51, 69
2, 31, Note_on_c, 9, 48, 68
2, 110, Note_on_c, 9, 51, 0
2, 112, Note_on_c, 9, 48, 0
2, 116, Control_c, 9, 4, 92
2, 150, Control_c, 9, 4, 72
2, 155, Control_c, 9, 17, 54
2, 156, Note_on_c, 9, 51, 75
2, 186, Control_c, 9, 4, 0
2, 238, Note_on_c, 9, 51, 0
2, 253, Note_on_c, 9, 44, 127
2, 256, Note_on_c, 9, 36, 62
2, 261, Control_c, 9, 4, 127
2, 307, Control_c, 9, 4, 118
2, 336, Note_on_c, 9, 44, 0
2, 338, Note_on_c, 9, 36, 0
2, 344, Control_c, 9, 4, 92
2, 403, Control_c, 9, 17, 11
2, 403, Note_on_c, 9, 51, 79
2, 485, Note_on_c, 9, 51, 0
2, 487, Control_c, 9, 4, 100
2, 490, Note_on_c, 9, 36, 77
2, 509, Control_c, 9, 16, 0
2, 510, Note_on_c, 9, 38, 80
2, 518, Control_c, 9, 4, 104
2, 572, Note_on_c, 9, 36, 0
2, 592, Note_on_c, 9, 38, 0
2, 601, Control_c, 9, 4, 91
2, 634, Control_c, 9, 4, 71
2, 670, Control_c, 9, 4, 0
2, 732, Control_c, 9, 4, 34
2, 735, Control_c, 9, 17, 13
2, 735, Note_on_c, 9, 51, 82
2, 738, Note_on_c, 9, 44, 127
2, 763, Control_c, 9, 4, 126
2, 801, Control_c, 9, 4, 118
2, 816, Note_on_c, 9, 51, 0
2, 818, Note_on_c, 9, 44, 0
2, 835, Control_c, 9, 4, 92
2, 862, Control_c, 9, 18, 0
2, 863, Note_on_c, 9, 48, 60
2, 866, Note_on_c, 9, 36, 57
2, 929, Control_c, 9, 4, 88
2, 944, Note_on_c, 9, 48, 0
2, 947, Note_on_c, 9, 36, 0
2, 971, Control_c, 9, 17, 60
2, 971, Note_on_c, 9, 51, 59
2, 976, Control_c, 9, 4, 116
2, 1013, Control_c, 9, 4, 116
2, 1054, Note_on_c, 9, 51, 0
2, 1070, Control_c, 9, 4, 92
2, 1122, Control_c, 9, 4, 70
2, 1160, Control_c, 9, 4, 0
2, 1209, Note_on_c, 9, 36, 69
2, 1212, Control_c, 9, 4, 32
2, 1217, Note_on_c, 9, 44, 127
2, 1219, Control_c, 9, 17, 0
2, 1219, Note_on_c, 9, 38, 76
2, 1221, Note_on_c, 9, 51, 96
2, 1243, Control_c, 9, 4, 127
2, 1289, Control_c, 9, 4, 98
2, 1292, Note_on_c, 9, 36, 0
2, 1299, Note_on_c, 9, 38, 0
2, 1299, Note_on_c, 9, 44, 0
2, 1301, Note_on_c, 9, 51, 0
2, 1330, Control_c, 9, 4, 88
2, 1452, Control_c, 9, 4, 110
2, 1457, Note_on_c, 9, 36, 85
2, 1470, Control_c, 9, 17, 1
2, 1470, Note_on_c, 9, 51, 85
2, 1525, Control_c, 9, 4, 100
2, 1540, Note_on_c, 9, 36, 0
2, 1552, Note_on_c, 9, 51, 0
2, 1559, Control_c, 9, 4, 88
2, 1590, Control_c, 9, 4, 71
2, 1626, Control_c, 9, 4, 0
2, 1701, Note_on_c, 9, 44, 127
2, 1703, Control_c, 9, 17, 7
2, 1703, Note_on_c, 9, 51, 94
2, 1707, Control_c, 9, 4, 127
2, 1712, Control_c, 9, 16, 0
2, 1712, Note_on_c, 9, 38, 65
2, 1744, Control_c, 9, 4, 110
2, 1776, Control_c, 9, 4, 90
2, 1783, Note_on_c, 9, 44, 0
2, 1785, Note_on_c, 9, 51, 0
2, 1794, Note_on_c, 9, 38, 0
2, 1821, Control_c, 9, 4, 86
2, 1877, Control_c, 9, 4, 90
2, 1921, Control_c, 9, 4, 97
2, 1946, Note_on_c, 9, 36, 81
2, 1949, Control_c, 9, 17, 17
2, 1950, Note_on_c, 9, 51, 94
2, 1966, Control_c, 9, 4, 104
2, 2014, Control_c, 9, 4, 91
2, 2029, Note_on_c, 9, 36, 0
2, 2032, Note_on_c, 9, 51, 0
2, 2046, Control_c, 9, 4, 72
2, 2067, Note_on_c, 9, 38, 40
2, 2076, Control_c, 9, 4, 0
2, 2148, Note_on_c, 9, 46, 8
2, 2149, Note_on_c, 9, 38, 0
2, 2155, Control_c, 9, 4, 35
2, 2161, Note_on_c, 9, 44, 127
2, 2180, Control_c, 9, 16, 0
2, 2181, Note_on_c, 9, 38, 39
2, 2186, Control_c, 9, 4, 91
2, 2228, Control_c, 9, 4, 20
2, 2229, Note_on_c, 9, 46, 0
2, 2242, Note_on_c, 9, 44, 0
2, 2262, Control_c, 9, 4, 25
2, 2262, Note_on_c, 9, 38, 0
2, 2299, Control_c, 9, 4, 71
2, 2299, Note_on_c, 9, 46, 24
2, 2311, Note_on_c, 9, 38, 34
2, 2381, Note_on_c, 9, 46, 0
2, 2392, Note_on_c, 9, 38, 0
2, 2415, Control_c, 9, 16, 0
2, 2415, Note_on_c, 9, 38, 84
2, 2453, Control_c, 9, 4, 56
2, 2485, Control_c, 9, 4, 36
2, 2498, Note_on_c, 9, 38, 0
2, 2520, Control_c, 9, 4, 0
2, 2633, Control_c, 9, 4, 15
2, 2654, Control_c, 9, 16, 21
2, 2655, Note_on_c, 9, 38, 62
2, 2731, Control_c, 9, 4, 10
2, 2736, Note_on_c, 9, 38, 0
2, 2833, Control_c, 9, 4, 16
2, 2871, Control_c, 9, 4, 28
2, 2904, Control_c, 9, 4, 37
2, 2908, Control_c, 9, 16, 0
2, 2909, Note_on_c, 9, 40, 74
2, 2970, Control_c, 9, 4, 31
2, 2990, Note_on_c, 9, 40, 0
2, 3006, Control_c, 9, 4, 0
2, 3022, Note_on_c, 9, 38, 45
2, 3083, Control_c, 9, 4, 65
2, 3088, Note_on_c, 9, 44, 61
2, 3103, Note_on_c, 9, 38, 0
2, 3113, Control_c, 9, 4, 89
2, 3137, Control_c, 9, 16, 0
2, 3138, Note_on_c, 9, 38, 33
2, 3170, Note_on_c, 9, 44, 0
2, 3220, Note_on_c, 9, 38, 0
2, 3268, Note_on_c, 9, 38, 33
2, 3349, Note_on_c, 9, 38, 0
2, 3370, Note_on_c, 9, 36, 76
2, 3376, Note_on_c, 9, 55, 46
2, 3392, Control_c, 9, 4, 96
2, 3451, Note_on_c, 9, 36, 0
2, 3458, Note_on_c, 9, 55, 0
2, 3490, Control_c, 9, 4, 83
2, 3521, Control_c, 9, 4, 68
2, 3554, Control_c, 9, 4, 0
2, 3605, Control_c, 9, 4, 51
2, 3610, Note_on_c, 9, 44, 106
2, 3613, Control_c, 9, 17, 8
2, 3614, Note_on_c, 9, 51, 98
2, 3636, Control_c, 9, 4, 116
2, 3681, Control_c, 9, 4, 99
2, 3692, Note_on_c, 9, 44, 0
2, 3695, Note_on_c, 9, 51, 0
2, 3722, Control_c, 9, 4, 89
2, 3731, Control_c, 9, 16, 0
2, 3731, Note_on_c, 9, 38, 41
2, 3736, Note_on_c, 9, 36, 49
2, 3813, Note_on_c, 9, 38, 0
2, 3817, Note_on_c, 9, 36, 0
2, 3856, Control_c, 9, 4, 118
2, 3858, Note_on_c, 9, 38, 33
2, 3936, Control_c, 9, 4, 91
2, 3939, Note_on_c, 9, 38, 0
2, 3970, Control_c, 9, 4, 71
2, 3982, Control_c, 9, 16, 0
2, 3982, Note_on_c, 9, 38, 30
2, 4003, Control_c, 9, 4, 0
2, 4042, Control_c, 9, 4, 0
2, 4042, Note_on_c, 9, 46, 25
2, 4065, Note_on_c, 9, 38, 0
2, 4083, Note_on_c, 9, 46, 0
2, 4084, Note_on_c, 9, 46, 14
2, 4088, Note_on_c, 9, 48, 57
2, 4091, Control_c, 9, 4, 35
2, 4096, Note_on_c, 9, 44, 127
2, 4122, Control_c, 9, 4, 96
2, 4124, Note_on_c, 9, 46, 0
2, 4162, Control_c, 9, 4, 47
2, 4170, Note_on_c, 9, 48, 0
2, 4178, Note_on_c, 9, 44, 0
2, 4209, Control_c, 9, 4, 71
2, 4210, Note_on_c, 9, 46, 15
2, 4291, Note_on_c, 9, 46, 0
2, 4334, Control_c, 9, 17, 2
2, 4335, Note_on_c, 9, 51, 105
2, 4343, Note_on_c, 9, 36, 77
2, 4344, Note_on_c, 9, 38, 40
2, 4385, Control_c, 9, 17, 2
2, 4386, Note_on_c, 9, 51, 0
2, 4386, Note_on_c, 9, 51, 43
2, 4416, Note_on_c, 9, 51, 0
2, 4420, Control_c, 9, 4, 54
2, 4425, Note_on_c, 9, 36, 0
2, 4425, Note_on_c, 9, 38, 0
2, 4453, Control_c, 9, 4, 0
2, 4560, Note_on_c, 9, 44, 87
2, 4575, Control_c, 9, 4, 102
2, 4579, Control_c, 9, 16, 0
2, 4579, Note_on_c, 9, 38, 38
2, 4609, Control_c, 9, 4, 110
2, 4641, Note_on_c, 9, 44, 0
2, 4658, Control_c, 9, 4, 91
2, 4661, Note_on_c, 9, 38, 0
2, 4682, Note_on_c, 9, 36, 72
2, 4693, Control_c, 9, 4, 72
2, 4699, Control_c, 9, 18, 0
2, 4699, Note_on_c, 9, 48, 50
2, 4734, Control_c, 9, 4, 0
2, 4764, Note_on_c, 9, 36, 0
2, 4780, Note_on_c, 9, 48, 0
2, 4807, Note_on_c, 9, 46, 15
2, 4814, Control_c, 9, 4, 34
2, 4818, Control_c, 9, 17, 4
2, 4819, Note_on_c, 9, 51, 87
2, 4821, Note_on_c, 9, 44, 127
2, 4844, Control_c, 9, 4, 127
2, 4875, Control_c, 9, 4, 96
2, 4889, Note_on_c, 9, 46, 0
2, 4901, Note_on_c, 9, 51, 0
2, 4902, Note_on_c, 9, 44, 0
2, 4923, Control_c, 9, 4, 84
2, 4939, Note_on_c, 9, 38, 36
2, 4989, Control_c, 9, 4, 89
2, 5021, Note_on_c, 9, 38, 0
2, 5036, Control_c, 9, 16, 0
2, 5037, Note_on_c, 9, 38, 47
2, 5058, Note_on_c, 9, 36, 68
2, 5119, Note_on_c, 9, 38, 0
2, 5139, Note_on_c, 9, 36, 0
2, 5285, Note_on_c, 9, 36, 84
2, 5288, Control_c, 9, 17, 14
2, 5289, Note_on_c, 9, 51, 120
2, 5291, Note_on_c, 9, 38, 45
2, 5366, Note_on_c, 9, 36, 0
2, 5369, Note_on_c, 9, 51, 0
2, 5372, Note_on_c, 9, 38, 0
2, 5528, Control_c, 9, 16, 0
2, 5528, Note_on_c, 9, 38, 60
2, 5530, Note_on_c, 9, 55, 57
2, 5532, Note_on_c, 9, 36, 92
2, 5552, Control_c, 9, 4, 110
2, 5611, Note_on_c, 9, 38, 0
2, 5613, Note_on_c, 9, 55, 0
2, 5614, Note_on_c, 9, 36, 0
2, 5620, Control_c, 9, 4, 90
2, 5653, Control_c, 9, 4, 72
2, 5698, Control_c, 9, 4, 0
2, 5769, Control_c, 9, 4, 48
2, 5774, Note_on_c, 9, 44, 106
2, 5782, Control_c, 9, 17, 4
2, 5782, Note_on_c, 9, 51, 83
2, 5800, Control_c, 9, 4, 114
2, 5850, Control_c, 9, 4, 95
2, 5856, Note_on_c, 9, 44, 0
2, 5864, Note_on_c, 9, 51, 0
2, 5889, Control_c, 9, 4, 85
2, 5906, Control_c, 9, 16, 42
2, 5906, Note_on_c, 9, 38, 35
2, 5988, Note_on_c, 9, 38, 0
2, 6022, Control_c, 9, 4, 120
2, 6026, Note_on_c, 9, 53, 120
2, 6094, Control_c, 9, 4, 98
2, 6107, Note_on_c, 9, 53, 0
2, 6128, Control_c, 9, 4, 81
2, 6140, Note_on_c, 9, 36, 74
2, 6169, Control_c, 9, 4, 0
2, 6221, Note_on_c, 9, 36, 0
2, 6242, Note_on_c, 9, 46, 14
2, 6248, Control_c, 9, 16, 0
2, 6248, Note_on_c, 9, 38, 53
2, 6253, Note_on_c, 9, 44, 127
2, 6258, Control_c, 9, 4, 127
2, 6295, Control_c, 9, 4, 98
2, 6323, Note_on_c, 9, 46, 0
2, 6327, Control_c, 9, 4, 91
2, 6331, Note_on_c, 9, 38, 0
2, 6334, Note_on_c, 9, 44, 0
2, 6376, Note_on_c, 9, 48, 55
2, 6445, Control_c, 9, 4, 97
2, 6458, Note_on_c, 9, 48, 0
2, 6483, Note_on_c, 9, 36, 79
2, 6493, Control_c, 9, 4, 93
2, 6495, Control_c, 9, 17, 42
2, 6496, Note_on_c, 9, 51, 64
2, 6566, Note_on_c, 9, 36, 0
2, 6577, Note_on_c, 9, 51, 0
2, 6733, Note_on_c, 9, 53, 122
2, 6735, Note_on_c, 9, 38, 79
2, 6783, Control_c, 9, 4, 102
2, 6815, Note_on_c, 9, 53, 0
2, 6816, Note_on_c, 9, 38, 0
2, 6831, Control_c, 9, 4, 91
2, 6864, Control_c, 9, 4, 71
2, 6905, Control_c, 9, 4, 0
2, 6953, Note_on_c, 9, 44, 100
2, 6960, Control_c, 9, 4, 127
2, 6965, Control_c, 9, 16, 0
2, 6966, Note_on_c, 9, 40, 59
2, 6971, Control_c, 9, 18, 0
2, 6971, Note_on_c, 9, 45, 74
2, 6995, Control_c, 9, 4, 100
2, 7035, Note_on_c, 9, 44, 0
2, 7047, Note_on_c, 9, 40, 0
2, 7049, Control_c, 9, 4, 89
2, 7054, Note_on_c, 9, 45, 0
2, 7204, Note_on_c, 9, 36, 72
2, 7209, Control_c, 9, 17, 3
2, 7209, Note_on_c, 9, 51, 101
2, 7285, Note_on_c, 9, 36, 0
2, 7289, Note_on_c, 9, 51, 0
2, 7442, Note_on_c, 9, 38, 73
2, 7446, Note_on_c, 9, 36, 78
2, 7452, Note_on_c, 9, 55, 56
2, 7524, Note_on_c, 9, 38, 0
2, 7528, Note_on_c, 9, 36, 0
2, 7533, Note_on_c, 9, 55, 0
2, 7534, End_track
0, 0, End_of_file
