0, 0, Header, 1, 2, 480
1, 0, Start_track
1, 0, Tempo, 588235
1, 0, Time_signature, 4, 2, 24, 8
1, 0, Key_signature, 0, "major"
1, 1, End_track
2, 0, Start_track
2, 0, Title_t, "Classic Studio Kit"
2, 0, Program_c, 9, 0
2, 0, Control_c, 9, 18, 0
2, 11, Control_c, 9, 17, 127
2, 11, Note_on_c, 9, 51, 54
2, 13, Control_c, 9, 4, 108
2, 25, Note_on_c, 9, 48, 61
2, 73, Control_c, 9, 4, 97
2, 94, Note_on_c, 9, 51, 0
2, 107, Note_on_c, 9, 48, 0
2, 117, Control_c, 9, 4, 84
2, 142, Control_c, 9, 17, 127
2, 142, Note_on_c, 9, 51, 66
2, 153, Control_c, 9, 4, 70
2, 192, Control_c, 9, 4, 0
2, 223, Note_on_c, 9, 51, 0
2, 241, Control_c, 9, 4, 49
2, 244, Note_on_c, 9, 36, 45
2, 245, Note_on_c, 9, 44, 106
2, 271, Control_c, 9, 4, 116
2, 317, Control_c, 9, 4, 95
2, 325, Note_on_c, 9, 36, 0
2, 328, Note_on_c, 9, 44, 0
2, 361, Control_c, 9, 4, 84
2, 473, Control_c, 9, 4, 96
2, 484, Control_c, 9, 17, 41
2, 484, Note_on_c, 9, 51, 82
2, 486, Note_on_c, 9, 36, 60
2, 495, Control_c, 9, 16, 0
2, 496, Note_on_c, 9, 38, 56
2, 565, Note_on_c, 9, 51, 0
2, 568, Note_on_c, 9, 36, 0
2, 577, Note_on_c, 9, 38, 0
2, 595, Control_c, 9, 4, 84
2, 631, Control_c, 9, 4, 70
2, 673, Control_c, 9, 4, 0
2, 724, Control_c, 9, 4, 33
2, 731, Note_on_c, 9, 44, 119
2, 736, Control_c, 9, 17, 127
2, 736, Note_on_c, 9, 51, 73
2, 756, Control_c, 9, 4, 118
2, 812, Note_on_c, 9, 44, 0
2, 813, Control_c, 9, 4, 90
2, 818, Note_on_c, 9, 51, 0
2, 848, Control_c, 9, 4, 85
2, 852, Note_on_c, 9, 36, 46
2, 857, Control_c, 9, 18, 0
2, 857, Note_on_c, 9, 48, 47
2, 934, Note_on_c, 9, 36, 0
2, 938, Note_on_c, 9, 48, 0
2, 976, Control_c, 9, 4, 110
2, 987, Note_on_c, 9, 48, 61
2, 987, Note_on_c, 9, 51, 47
2, 1061, Control_c, 9, 4, 89
2, 1068, Note_on_c, 9, 48, 0
2, 1069, Note_on_c, 9, 51, 0
2, 1095, Control_c, 9, 4, 73
2, 1108, Control_c, 9, 17, 127
2, 1109, Note_on_c, 9, 51, 71
2, 1146, Control_c, 9, 4, 0
2, 1189, Note_on_c, 9, 51, 0
2, 1207, Note_on_c, 9, 36, 59
2, 1213, Control_c, 9, 4, 32
2, 1218, Note_on_c, 9, 44, 127
2, 1244, Control_c, 9, 4, 120
2, 1290, Note_on_c, 9, 36, 0
2, 1295, Control_c, 9, 4, 94
2, 1300, Note_on_c, 9, 44, 0
2, 1330, Control_c, 9, 4, 83
2, 1342, Control_c, 9, 17, 114
2, 1342, Note_on_c, 9, 51, 63
2, 1379, Control_c, 9, 4, 72
2, 1424, Note_on_c, 9, 51, 0
2, 1453, Note_on_c, 9, 36, 83
2, 1460, Control_c, 9, 4, 106
2, 1464, Control_c, 9, 16, 42
2, 1464, Note_on_c, 9, 38, 67
2, 1499, Control_c, 9, 4, 98
2, 1535, Note_on_c, 9, 36, 0
2, 1546, Note_on_c, 9, 38, 0
2, 1551, Control_c, 9, 4, 83
2, 1588, Control_c, 9, 4, 70
2, 1641, Control_c, 9, 4, 0
2, 1694, Control_c, 9, 4, 33
2, 1699, Note_on_c, 9, 44, 119
2, 1709, Control_c, 9, 17, 127
2, 1710, Note_on_c, 9, 51, 77
2, 1725, Control_c, 9, 4, 118
2, 1782, Note_on_c, 9, 44, 0
2, 1785, Control_c, 9, 4, 90
2, 1792, Note_on_c, 9, 51, 0
2, 1819, Control_c, 9, 4, 84
2, 1823, Note_on_c, 9, 36, 54
2, 1824, Control_c, 9, 18, 0
2, 1825, Note_on_c, 9, 48, 44
2, 1906, Note_on_c, 9, 36, 0
2, 1907, Note_on_c, 9, 48, 0
2, 1945, Control_c, 9, 4, 114
2, 1956, Note_on_c, 9, 48, 63
2, 1957, Note_on_c, 9, 51, 61
2, 2007, Control_c, 9, 4, 99
2, 2037, Note_on_c, 9, 48, 0
2, 2039, Note_on_c, 9, 51, 0
2, 2050, Control_c, 9, 4, 84
2, 2074, Control_c, 9, 17, 127
2, 2075, Note_on_c, 9, 51, 68
2, 2084, Control_c, 9, 4, 70
2, 2125, Control_c, 9, 4, 0
2, 2156, Note_on_c, 9, 51, 0
2, 2177, Control_c, 9, 4, 49
2, 2178, Note_on_c, 9, 36, 54
2, 2181, Note_on_c, 9, 44, 119
2, 2207, Control_c, 9, 4, 120
2, 2260, Note_on_c, 9, 36, 0
2, 2262, Note_on_c, 9, 44, 0
2, 2266, Control_c, 9, 4, 90
2, 2304, Control_c, 9, 4, 86
2, 2419, Control_c, 9, 4, 99
2, 2422, Note_on_c, 9, 36, 55
2, 2427, Control_c, 9, 17, 79
2, 2427, Note_on_c, 9, 51, 82
2, 2435, Control_c, 9, 16, 21
2, 2436, Note_on_c, 9, 38, 62
2, 2503, Note_on_c, 9, 36, 0
2, 2508, Note_on_c, 9, 51, 0
2, 2516, Note_on_c, 9, 38, 0
2, 2523, Control_c, 9, 4, 87
2, 2557, Control_c, 9, 4, 73
2, 2607, Control_c, 9, 4, 0
2, 2663, Control_c, 9, 4, 49
2, 2668, Note_on_c, 9, 44, 119
2, 2673, Control_c, 9, 17, 127
2, 2674, Note_on_c, 9, 51, 76
2, 2693, Control_c, 9, 4, 120
2, 2737, Control_c, 9, 4, 96
2, 2750, Note_on_c, 9, 44, 0
2, 2754, Note_on_c, 9, 51, 0
2, 2776, Control_c, 9, 4, 84
2, 2788, Note_on_c, 9, 36, 32
2, 2794, Control_c, 9, 18, 0
2, 2794, Note_on_c, 9, 48, 48
2, 2870, Note_on_c, 9, 36, 0
2, 2876, Note_on_c, 9, 48, 0
2, 2906, Control_c, 9, 4, 112
2, 2908, Note_on_c, 9, 51, 56
2, 2922, Note_on_c, 9, 48, 62
2, 2974, Control_c, 9, 4, 97
2, 2990, Note_on_c, 9, 51, 0
2, 3003, Note_on_c, 9, 48, 0
2, 3020, Control_c, 9, 4, 83
2, 3034, Control_c, 9, 17, 127
2, 3036, Note_on_c, 9, 51, 70
2, 3054, Control_c, 9, 4, 69
2, 3085, Control_c, 9, 4, 0
2, 3118, Note_on_c, 9, 51, 0
2, 3146, Note_on_c, 9, 36, 54
2, 3147, Control_c, 9, 4, 33
2, 3153, Note_on_c, 9, 44, 127
2, 3178, Control_c, 9, 4, 120
2, 3228, Note_on_c, 9, 36, 0
2, 3234, Note_on_c, 9, 44, 0
2, 3248, Control_c, 9, 4, 89
2, 3262, Control_c, 9, 17, 74
2, 3263, Note_on_c, 9, 51, 50
2, 3278, Control_c, 9, 4, 85
2, 3345, Note_on_c, 9, 51, 0
2, 3380, Control_c, 9, 4, 98
2, 3385, Note_on_c, 9, 36, 71
2, 3399, Control_c, 9, 16, 0
2, 3400, Note_on_c, 9, 38, 70
2, 3466, Note_on_c, 9, 36, 0
2, 3481, Note_on_c, 9, 38, 0
2, 3500, Control_c, 9, 4, 84
2, 3534, Control_c, 9, 4, 70
2, 3580, Control_c, 9, 4, 0
2, 3623, Control_c, 9, 4, 32
2, 3624, Control_c, 9, 17, 96
2, 3624, Note_on_c, 9, 51, 75
2, 3630, Note_on_c, 9, 44, 106
2, 3655, Control_c, 9, 4, 120
2, 3705, Note_on_c, 9, 51, 0
2, 3712, Note_on_c, 9, 44, 0
2, 3720, Control_c, 9, 4, 90
2, 3747, Control_c, 9, 18, 0
2, 3748, Note_on_c, 9, 48, 47
2, 3749, Note_on_c, 9, 36, 48
2, 3751, Control_c, 9, 4, 84
2, 3829, Note_on_c, 9, 48, 0
2, 3832, Note_on_c, 9, 36, 0
2, 3872, Control_c, 9, 4, 112
2, 3879, Note_on_c, 9, 48, 65
2, 3880, Control_c, 9, 17, 127
2, 3881, Note_on_c, 9, 51, 52
2, 3940, Control_c, 9, 4, 96
2, 3961, Note_on_c, 9, 48, 0
2, 3961, Note_on_c, 9, 51, 0
2, 3983, Control_c, 9, 4, 84
2, 4000, Control_c, 9, 17, 127
2, 4001, Note_on_c, 9, 51, 60
2, 4016, Control_c, 9, 4, 70
2, 4056, Control_c, 9, 4, 0
2, 4081, Note_on_c, 9, 51, 0
2, 4103, Control_c, 9, 4, 32
2, 4104, Note_on_c, 9, 36, 57
2, 4110, Note_on_c, 9, 44, 113
2, 4135, Control_c, 9, 4, 120
2, 4187, Note_on_c, 9, 36, 0
2, 4191, Note_on_c, 9, 44, 0
2, 4196, Control_c, 9, 4, 90
2, 4231, Control_c, 9, 4, 85
2, 4335, Control_c, 9, 4, 97
2, 4337, Note_on_c, 9, 36, 58
2, 4342, Control_c, 9, 16, 0
2, 4343, Note_on_c, 9, 38, 74
2, 4344, Control_c, 9, 17, 44
2, 4344, Note_on_c, 9, 51, 82
2, 4419, Note_on_c, 9, 36, 0
2, 4424, Note_on_c, 9, 38, 0
2, 4426, Note_on_c, 9, 51, 0
2, 4445, Control_c, 9, 4, 83
2, 4481, Control_c, 9, 4, 70
2, 4524, Control_c, 9, 4, 0
2, 4575, Control_c, 9, 4, 34
2, 4582, Note_on_c, 9, 44, 113
2, 4595, Control_c, 9, 17, 87
2, 4595, Note_on_c, 9, 51, 71
2, 4608, Control_c, 9, 4, 120
2, 4663, Note_on_c, 9, 44, 0
2, 4665, Control_c, 9, 4, 90
2, 4676, Note_on_c, 9, 51, 0
2, 4696, Control_c, 9, 4, 84
2, 4707, Note_on_c, 9, 36, 44
2, 4710, Control_c, 9, 18, 0
2, 4711, Note_on_c, 9, 48, 48
2, 4789, Note_on_c, 9, 36, 0
2, 4793, Note_on_c, 9, 48, 0
2, 4819, Control_c, 9, 4, 108
2, 4840, Note_on_c, 9, 48, 64
2, 4844, Control_c, 9, 17, 0
2, 4844, Note_on_c, 9, 51, 62
2, 4896, Control_c, 9, 4, 94
2, 4922, Note_on_c, 9, 48, 0
2, 4926, Note_on_c, 9, 51, 0
2, 4933, Control_c, 9, 4, 82
2, 4966, Control_c, 9, 4, 69
2, 4972, Control_c, 9, 17, 127
2, 4973, Note_on_c, 9, 51, 66
2, 5000, Control_c, 9, 4, 0
2, 5055, Note_on_c, 9, 51, 0
2, 5058, Note_on_c, 9, 36, 50
2, 5060, Control_c, 9, 4, 35
2, 5066, Note_on_c, 9, 44, 127
2, 5086, Control_c, 9, 17, 127
2, 5086, Note_on_c, 9, 51, 6
2, 5091, Control_c, 9, 4, 120
2, 5135, Control_c, 9, 4, 96
2, 5140, Note_on_c, 9, 36, 0
2, 5148, Note_on_c, 9, 44, 0
2, 5168, Note_on_c, 9, 51, 0
2, 5176, Control_c, 9, 4, 85
2, 5206, Control_c, 9, 17, 84
2, 5206, Note_on_c, 9, 51, 72
2, 5285, Control_c, 9, 4, 99
2, 5288, Note_on_c, 9, 51, 0
2, 5296, Note_on_c, 9, 36, 67
2, 5323, Control_c, 9, 16, 21
2, 5323, Note_on_c, 9, 38, 62
2, 5368, Control_c, 9, 4, 94
2, 5379, Note_on_c, 9, 36, 0
2, 5405, Note_on_c, 9, 38, 0
2, 5411, Control_c, 9, 4, 83
2, 5445, Control_c, 9, 4, 70
2, 5486, Control_c, 9, 4, 0
2, 5539, Control_c, 9, 4, 48
2, 5544, Note_on_c, 9, 44, 113
2, 5556, Control_c, 9, 17, 127
2, 5557, Note_on_c, 9, 51, 70
2, 5570, Control_c, 9, 4, 118
2, 5613, Control_c, 9, 4, 96
2, 5627, Note_on_c, 9, 44, 0
2, 5639, Note_on_c, 9, 51, 0
2, 5649, Control_c, 9, 4, 84
2, 5664, Note_on_c, 9, 36, 47
2, 5674, Note_on_c, 9, 51, 6
2, 5676, Control_c, 9, 18, 0
2, 5676, Note_on_c, 9, 48, 46
2, 5748, Note_on_c, 9, 36, 0
2, 5757, Note_on_c, 9, 51, 0
2, 5758, Note_on_c, 9, 48, 0
2, 5769, Control_c, 9, 4, 100
2, 5804, Note_on_c, 9, 48, 67
2, 5805, Control_c, 9, 17, 127
2, 5805, Note_on_c, 9, 51, 63
2, 5864, Control_c, 9, 4, 95
2, 5886, Note_on_c, 9, 48, 0
2, 5886, Note_on_c, 9, 51, 0
2, 5904, Control_c, 9, 4, 83
2, 5927, Control_c, 9, 17, 127
2, 5927, Note_on_c, 9, 51, 55
2, 5937, Control_c, 9, 4, 70
2, 5974, Control_c, 9, 4, 0
2, 6010, Note_on_c, 9, 51, 0
2, 6021, Control_c, 9, 4, 33
2, 6025, Note_on_c, 9, 36, 50
2, 6027, Note_on_c, 9, 44, 113
2, 6053, Control_c, 9, 4, 116
2, 6107, Note_on_c, 9, 36, 0
2, 6109, Note_on_c, 9, 44, 0
2, 6114, Control_c, 9, 4, 90
2, 6149, Control_c, 9, 4, 86
2, 6261, Control_c, 9, 4, 95
2, 6273, Control_c, 9, 17, 75
2, 6273, Note_on_c, 9, 36, 67
2, 6273, Note_on_c, 9, 51, 81
2, 6279, Control_c, 9, 16, 0
2, 6280, Note_on_c, 9, 38, 69
2, 6355, Note_on_c, 9, 36, 0
2, 6355, Note_on_c, 9, 51, 0
2, 6360, Note_on_c, 9, 38, 0
2, 6378, Control_c, 9, 4, 83
2, 6415, Control_c, 9, 4, 70
2, 6452, Control_c, 9, 4, 0
2, 6511, Control_c, 9, 4, 33
2, 6516, Note_on_c, 9, 44, 126
2, 6519, Control_c, 9, 17, 120
2, 6519, Note_on_c, 9, 51, 76
2, 6542, Control_c, 9, 4, 114
2, 6586, Control_c, 9, 4, 99
2, 6598, Note_on_c, 9, 44, 0
2, 6601, Note_on_c, 9, 51, 0
2, 6630, Control_c, 9, 4, 87
2, 6637, Control_c, 9, 18, 0
2, 6637, Note_on_c, 9, 48, 46
2, 6640, Note_on_c, 9, 36, 45
2, 6719, Note_on_c, 9, 48, 0
2, 6722, Note_on_c, 9, 36, 0
2, 6760, Control_c, 9, 17, 0
2, 6761, Control_c, 9, 4, 116
2, 6761, Note_on_c, 9, 51, 57
2, 6763, Note_on_c, 9, 48, 63
2, 6828, Control_c, 9, 4, 90
2, 6842, Note_on_c, 9, 51, 0
2, 6846, Note_on_c, 9, 48, 0
2, 6861, Control_c, 9, 4, 73
2, 6880, Control_c, 9, 17, 127
2, 6881, Note_on_c, 9, 51, 59
2, 6910, Control_c, 9, 4, 0
2, 6961, Note_on_c, 9, 51, 0
2, 6979, Note_on_c, 9, 46, 8
2, 6982, Note_on_c, 9, 36, 68
2, 6986, Control_c, 9, 4, 33
2, 6992, Note_on_c, 9, 44, 127
2, 7017, Control_c, 9, 4, 122
2, 7054, Control_c, 9, 4, 108
2, 7060, Note_on_c, 9, 46, 0
2, 7064, Note_on_c, 9, 36, 0
2, 7073, Note_on_c, 9, 44, 0
2, 7092, Control_c, 9, 4, 71
2, 7107, Control_c, 9, 17, 127
2, 7108, Note_on_c, 9, 51, 43
2, 7130, Control_c, 9, 4, 0
2, 7189, Note_on_c, 9, 51, 0
2, 7212, Control_c, 9, 4, 33
2, 7219, Note_on_c, 9, 44, 119
2, 7224, Note_on_c, 9, 36, 82
2, 7231, Control_c, 9, 17, 108
2, 7232, Note_on_c, 9, 51, 77
2, 7233, Note_on_c, 9, 38, 82
2, 7244, Control_c, 9, 4, 108
2, 7286, Control_c, 9, 4, 98
2, 7300, Note_on_c, 9, 44, 0
2, 7307, Note_on_c, 9, 36, 0
2, 7313, Note_on_c, 9, 51, 0
2, 7314, Note_on_c, 9, 38, 0
2, 7321, Control_c, 9, 4, 83
2, 7366, Control_c, 9, 4, 79
2, 7422, Control_c, 9, 4, 80
2, 7467, Control_c, 9, 4, 120
2, 7476, Control_c, 9, 17, 0
2, 7476, Note_on_c, 9, 51, 70
2, 7521, Control_c, 9, 4, 98
2, 7552, Control_c, 9, 4, 83
2, 7557, Note_on_c, 9, 51, 0
2, 7583, Control_c, 9, 4, 69
2, 7587, Note_on_c, 9, 36, 55
2, 7589, Control_c, 9, 18, 0
2, 7589, Note_on_c, 9, 48, 49
2, 7617, Control_c, 9, 4, 0
2, 7668, Note_on_c, 9, 36, 0
2, 7671, Note_on_c, 9, 48, 0
2, 7672, End_track
0, 0, End_of_file
