0, 0, Header, 1, 2, 480
1, 0, Start_track
1, 0, Tempo, 545454
1, 0, Time_signature, 4, 2, 24, 8
1, 0, Key_signature, 0, "major"
1, 1, End_track
2, 0, Start_track
2, 0, Title_t, "TD-30 #9 Djembe"
2, 0, Program_c, 9, 0
2, 0, Control_c, 9, 16, 0
2, 1, Control_c, 9, 4, 92
2, 70, Control_c, 9, 4, 86
2, 100, Control_c, 9, 4, 70
2, 140, Control_c, 9, 4, 0
2, 212, Note_on_c, 9, 44, 106
2, 214, Control_c, 9, 16, 126
2, 215, Note_on_c, 9, 40, 49
2, 230, Control_c, 9, 4, 75
2, 268, Control_c, 9, 4, 59
2, 299, Control_c, 9, 4, 45
2, 300, Note_on_c, 9, 44, 0
2, 302, Note_on_c, 9, 40, 0
2, 346, Control_c, 9, 4, 58
2, 472, Note_on_c, 9, 36, 88
2, 475, Note_on_c, 9, 55, 83
2, 522, Control_c, 9, 4, 54
2, 559, Control_c, 9, 4, 38
2, 560, Note_on_c, 9, 36, 0
2, 564, Note_on_c, 9, 55, 0
2, 592, Control_c, 9, 4, 0
2, 686, Control_c, 9, 4, 64
2, 692, Note_on_c, 9, 44, 74
2, 719, Control_c, 9, 4, 87
2, 723, Control_c, 9, 17, 60
2, 723, Note_on_c, 9, 51, 57
2, 779, Note_on_c, 9, 44, 0
2, 811, Note_on_c, 9, 51, 0
2, 952, Control_c, 9, 17, 52
2, 953, Note_on_c, 9, 51, 58
2, 973, Control_c, 9, 4, 92
2, 1040, Note_on_c, 9, 51, 0
2, 1045, Control_c, 9, 4, 84
2, 1077, Control_c, 9, 4, 70
2, 1126, Control_c, 9, 4, 0
2, 1203, Control_c, 9, 4, 51
2, 1207, Note_on_c, 9, 44, 100
2, 1216, Control_c, 9, 17, 51
2, 1217, Control_c, 9, 16, 0
2, 1217, Note_on_c, 9, 51, 72
2, 1219, Note_on_c, 9, 40, 65
2, 1235, Control_c, 9, 4, 71
2, 1277, Control_c, 9, 4, 50
2, 1295, Note_on_c, 9, 44, 0
2, 1304, Note_on_c, 9, 51, 0
2, 1306, Note_on_c, 9, 40, 0
2, 1332, Control_c, 9, 4, 62
2, 1450, Control_c, 9, 17, 51
2, 1451, Note_on_c, 9, 51, 41
2, 1523, Control_c, 9, 4, 47
2, 1539, Note_on_c, 9, 51, 0
2, 1562, Control_c, 9, 4, 0
2, 1673, Control_c, 9, 4, 66
2, 1678, Note_on_c, 9, 44, 74
2, 1689, Control_c, 9, 17, 53
2, 1690, Note_on_c, 9, 51, 62
2, 1695, Control_c, 9, 18, 0
2, 1696, Note_on_c, 9, 48, 48
2, 1706, Control_c, 9, 4, 87
2, 1765, Note_on_c, 9, 44, 0
2, 1776, Note_on_c, 9, 51, 0
2, 1783, Note_on_c, 9, 48, 0
2, 1943, Control_c, 9, 17, 31
2, 1943, Note_on_c, 9, 51, 79
2, 1947, Note_on_c, 9, 48, 65
2, 1952, Control_c, 9, 4, 92
2, 2032, Note_on_c, 9, 51, 0
2, 2035, Note_on_c, 9, 48, 0
2, 2050, Control_c, 9, 4, 69
2, 2086, Control_c, 9, 4, 0
2, 2155, Note_on_c, 9, 46, 7
2, 2169, Control_c, 9, 4, 65
2, 2172, Note_on_c, 9, 44, 126
2, 2184, Control_c, 9, 17, 43
2, 2184, Note_on_c, 9, 51, 65
2, 2199, Control_c, 9, 4, 70
2, 2243, Note_on_c, 9, 46, 0
2, 2252, Control_c, 9, 4, 34
2, 2260, Note_on_c, 9, 44, 0
2, 2272, Note_on_c, 9, 51, 0
2, 2313, Control_c, 9, 4, 58
2, 2414, Control_c, 9, 17, 47
2, 2414, Note_on_c, 9, 51, 93
2, 2422, Note_on_c, 9, 36, 104
2, 2448, Control_c, 9, 4, 54
2, 2485, Control_c, 9, 4, 38
2, 2502, Note_on_c, 9, 51, 0
2, 2511, Note_on_c, 9, 36, 0
2, 2521, Control_c, 9, 4, 0
2, 2639, Control_c, 9, 4, 65
2, 2645, Note_on_c, 9, 44, 74
2, 2666, Note_on_c, 9, 40, 20
2, 2672, Control_c, 9, 4, 85
2, 2732, Note_on_c, 9, 38, 30
2, 2732, Note_on_c, 9, 44, 0
2, 2753, Note_on_c, 9, 40, 0
2, 2812, Note_on_c, 9, 38, 0
2, 2813, Note_on_c, 9, 38, 14
2, 2819, Note_on_c, 9, 38, 0
2, 2897, Control_c, 9, 16, 0
2, 2898, Note_on_c, 9, 40, 84
2, 2947, Control_c, 9, 4, 94
2, 2986, Note_on_c, 9, 40, 0
2, 2993, Control_c, 9, 4, 90
2, 3026, Control_c, 9, 4, 73
2, 3030, Note_on_c, 9, 38, 17
2, 3076, Control_c, 9, 4, 0
2, 3118, Note_on_c, 9, 38, 0
2, 3152, Note_on_c, 9, 38, 17
2, 3154, Note_on_c, 9, 44, 106
2, 3158, Control_c, 9, 4, 92
2, 3204, Control_c, 9, 4, 60
2, 3234, Control_c, 9, 4, 48
2, 3240, Note_on_c, 9, 38, 0
2, 3240, Note_on_c, 9, 44, 0
2, 3274, Control_c, 9, 4, 59
2, 3280, Note_on_c, 9, 38, 29
2, 3342, Control_c, 9, 4, 63
2, 3367, Note_on_c, 9, 38, 0
2, 3387, Control_c, 9, 4, 59
2, 3401, Control_c, 9, 16, 0
2, 3402, Note_on_c, 9, 38, 34
2, 3424, Control_c, 9, 4, 54
2, 3458, Control_c, 9, 4, 39
2, 3489, Note_on_c, 9, 38, 0
2, 3497, Control_c, 9, 4, 0
2, 3610, Control_c, 9, 4, 66
2, 3610, Note_on_c, 9, 38, 14
2, 3614, Note_on_c, 9, 44, 80
2, 3641, Control_c, 9, 4, 90
2, 3698, Note_on_c, 9, 38, 0
2, 3702, Note_on_c, 9, 44, 0
2, 3739, Control_c, 9, 4, 85
2, 3842, Control_c, 9, 4, 90
2, 3878, Note_on_c, 9, 40, 75
2, 3879, Control_c, 9, 4, 94
2, 3930, Control_c, 9, 4, 89
2, 3964, Control_c, 9, 4, 72
2, 3965, Note_on_c, 9, 40, 0
2, 4011, Control_c, 9, 4, 0
2, 4089, Control_c, 9, 4, 51
2, 4094, Note_on_c, 9, 44, 119
2, 4111, Control_c, 9, 16, 0
2, 4112, Note_on_c, 9, 38, 29
2, 4121, Control_c, 9, 4, 71
2, 4174, Control_c, 9, 4, 39
2, 4181, Note_on_c, 9, 44, 0
2, 4199, Note_on_c, 9, 38, 0
2, 4222, Control_c, 9, 4, 54
2, 4252, Control_c, 9, 4, 60
2, 4353, Note_on_c, 9, 55, 78
2, 4362, Note_on_c, 9, 36, 97
2, 4392, Control_c, 9, 4, 54
2, 4432, Control_c, 9, 4, 38
2, 4441, Note_on_c, 9, 55, 0
2, 4451, Note_on_c, 9, 36, 0
2, 4465, Control_c, 9, 4, 0
2, 4584, Control_c, 9, 4, 64
2, 4590, Note_on_c, 9, 44, 74
2, 4609, Control_c, 9, 17, 37
2, 4609, Note_on_c, 9, 51, 57
2, 4618, Control_c, 9, 4, 86
2, 4678, Note_on_c, 9, 44, 0
2, 4697, Note_on_c, 9, 51, 0
2, 4847, Control_c, 9, 4, 91
2, 4854, Control_c, 9, 17, 28
2, 4854, Note_on_c, 9, 51, 40
2, 4914, Control_c, 9, 4, 83
2, 4943, Note_on_c, 9, 51, 0
2, 4950, Control_c, 9, 4, 70
2, 5002, Control_c, 9, 4, 0
2, 5081, Control_c, 9, 4, 67
2, 5084, Note_on_c, 9, 44, 106
2, 5095, Control_c, 9, 16, 126
2, 5096, Control_c, 9, 17, 24
2, 5096, Note_on_c, 9, 40, 55
2, 5097, Note_on_c, 9, 51, 65
2, 5111, Control_c, 9, 4, 75
2, 5151, Control_c, 9, 4, 51
2, 5173, Note_on_c, 9, 44, 0
2, 5180, Control_c, 9, 16, 0
2, 5181, Note_on_c, 9, 38, 4
2, 5184, Note_on_c, 9, 40, 0
2, 5185, Note_on_c, 9, 51, 0
2, 5225, Control_c, 9, 4, 63
2, 5269, Note_on_c, 9, 38, 0
2, 5310, Control_c, 9, 17, 59
2, 5311, Note_on_c, 9, 51, 37
2, 5336, Control_c, 9, 4, 59
2, 5388, Control_c, 9, 4, 34
2, 5398, Note_on_c, 9, 51, 0
2, 5421, Control_c, 9, 4, 0
2, 5531, Control_c, 9, 4, 66
2, 5535, Note_on_c, 9, 44, 74
2, 5544, Control_c, 9, 17, 29
2, 5545, Note_on_c, 9, 51, 61
2, 5551, Control_c, 9, 18, 0
2, 5552, Note_on_c, 9, 48, 44
2, 5563, Control_c, 9, 4, 88
2, 5624, Note_on_c, 9, 44, 0
2, 5632, Note_on_c, 9, 51, 0
2, 5639, Note_on_c, 9, 48, 0
2, 5664, Control_c, 9, 4, 84
2, 5758, Control_c, 9, 4, 89
2, 5794, Control_c, 9, 18, 21
2, 5795, Control_c, 9, 4, 95
2, 5795, Note_on_c, 9, 48, 65
2, 5806, Control_c, 9, 17, 16
2, 5807, Note_on_c, 9, 51, 77
2, 5844, Control_c, 9, 4, 90
2, 5880, Control_c, 9, 4, 73
2, 5882, Note_on_c, 9, 48, 0
2, 5894, Note_on_c, 9, 51, 0
2, 5905, Note_on_c, 9, 46, 7
2, 5929, Control_c, 9, 4, 0
2, 5992, Note_on_c, 9, 46, 0
2, 6013, Control_c, 9, 4, 68
2, 6016, Note_on_c, 9, 44, 113
2, 6023, Control_c, 9, 17, 2
2, 6024, Note_on_c, 9, 51, 55
2, 6043, Control_c, 9, 4, 70
2, 6098, Control_c, 9, 4, 38
2, 6104, Note_on_c, 9, 44, 0
2, 6111, Note_on_c, 9, 51, 0
2, 6155, Control_c, 9, 4, 59
2, 6180, Note_on_c, 9, 38, 5
2, 6250, Control_c, 9, 17, 46
2, 6250, Note_on_c, 9, 51, 92
2, 6263, Control_c, 9, 4, 54
2, 6268, Note_on_c, 9, 38, 0
2, 6273, Note_on_c, 9, 36, 97
2, 6310, Control_c, 9, 4, 39
2, 6338, Note_on_c, 9, 51, 0
2, 6350, Control_c, 9, 4, 0
2, 6361, Note_on_c, 9, 36, 0
2, 6464, Control_c, 9, 4, 66
2, 6468, Note_on_c, 9, 44, 74
2, 6481, Note_on_c, 9, 38, 23
2, 6496, Control_c, 9, 4, 84
2, 6557, Note_on_c, 9, 44, 0
2, 6568, Note_on_c, 9, 38, 0
2, 6575, Note_on_c, 9, 38, 29
2, 6646, Control_c, 9, 16, 0
2, 6646, Note_on_c, 9, 38, 0
2, 6648, Note_on_c, 9, 38, 23
2, 6663, Note_on_c, 9, 38, 0
2, 6742, Note_on_c, 9, 40, 79
2, 6759, Control_c, 9, 4, 89
2, 6828, Note_on_c, 9, 40, 0
2, 6866, Control_c, 9, 4, 71
2, 6871, Note_on_c, 9, 38, 16
2, 6912, Control_c, 9, 4, 0
2, 6959, Note_on_c, 9, 38, 0
2, 6974, Control_c, 9, 4, 66
2, 6977, Note_on_c, 9, 44, 100
2, 6992, Note_on_c, 9, 38, 19
2, 7004, Control_c, 9, 4, 74
2, 7045, Control_c, 9, 4, 51
2, 7066, Note_on_c, 9, 44, 0
2, 7079, Note_on_c, 9, 38, 0
2, 7096, Control_c, 9, 4, 58
2, 7124, Control_c, 9, 16, 0
2, 7125, Note_on_c, 9, 38, 36
2, 7131, Control_c, 9, 4, 62
2, 7213, Note_on_c, 9, 38, 0
2, 7228, Note_on_c, 9, 38, 44
2, 7244, Control_c, 9, 4, 57
2, 7294, Control_c, 9, 4, 37
2, 7316, Note_on_c, 9, 38, 0
2, 7329, Control_c, 9, 4, 0
2, 7441, Control_c, 9, 4, 64
2, 7447, Note_on_c, 9, 44, 80
2, 7462, Control_c, 9, 16, 0
2, 7463, Note_on_c, 9, 40, 48
2, 7475, Control_c, 9, 4, 88
2, 7535, Note_on_c, 9, 44, 0
2, 7550, Note_on_c, 9, 40, 0
2, 7575, Control_c, 9, 4, 84
2, 7656, Control_c, 9, 4, 89
2, 7657, End_track
0, 0, End_of_file
