0, 0, Header, 1, 2, 480
1, 0, Start_track
1, 0, Tempo, 588235
1, 0, Time_signature, 4, 2, 24, 8
1, 0, Key_signature, 0, "major"
1, 1, End_track
2, 0, Start_track
2, 0, Title_t, "Classic Studio Kit"
2, 0, Program_c, 9, 0
2, 0, Control_c, 9, 18, 0
2, 16, Control_c, 9, 17, 89
2, 17, Note_on_c, 9, 51, 52
2, 19, Control_c, 9, 4, 98
2, 32, Note_on_c, 9, 48, 53
2, 98, Note_on_c, 9, 51, 0
2, 114, Control_c, 9, 4, 92
2, 114, Note_on_c, 9, 48, 0
2, 150, Control_c, 9, 17, 127
2, 150, Note_on_c, 9, 51, 70
2, 166, Control_c, 9, 4, 78
2, 198, Control_c, 9, 4, 54
2, 230, Control_c, 9, 4, 0
2, 232, Note_on_c, 9, 51, 0
2, 266, Control_c, 9, 4, 49
2, 271, Note_on_c, 9, 44, 93
2, 281, Note_on_c, 9, 36, 51
2, 296, Control_c, 9, 4, 116
2, 338, Control_c, 9, 4, 95
2, 352, Note_on_c, 9, 44, 0
2, 362, Note_on_c, 9, 36, 0
2, 380, Control_c, 9, 4, 85
2, 499, Control_c, 9, 4, 95
2, 500, Control_c, 9, 17, 35
2, 501, Note_on_c, 9, 51, 82
2, 508, Control_c, 9, 16, 0
2, 509, Note_on_c, 9, 38, 90
2, 523, Note_on_c, 9, 36, 53
2, 583, Note_on_c, 9, 51, 0
2, 590, Note_on_c, 9, 38, 0
2, 605, Note_on_c, 9, 36, 0
2, 615, Control_c, 9, 4, 84
2, 651, Control_c, 9, 4, 70
2, 700, Control_c, 9, 4, 0
2, 741, Control_c, 9, 4, 49
2, 746, Note_on_c, 9, 44, 93
2, 755, Control_c, 9, 17, 71
2, 756, Note_on_c, 9, 51, 63
2, 771, Control_c, 9, 4, 118
2, 828, Note_on_c, 9, 44, 0
2, 830, Control_c, 9, 4, 90
2, 837, Note_on_c, 9, 51, 0
2, 862, Control_c, 9, 18, 0
2, 862, Note_on_c, 9, 48, 42
2, 863, Control_c, 9, 4, 85
2, 882, Note_on_c, 9, 36, 48
2, 943, Note_on_c, 9, 48, 0
2, 965, Note_on_c, 9, 36, 0
2, 978, Control_c, 9, 17, 65
2, 978, Note_on_c, 9, 51, 53
2, 979, Control_c, 9, 4, 100
2, 986, Note_on_c, 9, 48, 59
2, 1060, Note_on_c, 9, 51, 0
2, 1062, Control_c, 9, 4, 95
2, 1067, Note_on_c, 9, 48, 0
2, 1111, Control_c, 9, 4, 83
2, 1118, Control_c, 9, 17, 84
2, 1119, Note_on_c, 9, 51, 68
2, 1160, Control_c, 9, 4, 54
2, 1191, Control_c, 9, 4, 0
2, 1200, Note_on_c, 9, 51, 0
2, 1230, Control_c, 9, 4, 49
2, 1235, Note_on_c, 9, 44, 93
2, 1239, Note_on_c, 9, 36, 53
2, 1261, Control_c, 9, 4, 114
2, 1293, Control_c, 9, 4, 102
2, 1317, Note_on_c, 9, 44, 0
2, 1320, Note_on_c, 9, 36, 0
2, 1328, Control_c, 9, 4, 88
2, 1436, Control_c, 9, 17, 39
2, 1437, Note_on_c, 9, 51, 75
2, 1453, Note_on_c, 9, 38, 64
2, 1456, Control_c, 9, 4, 94
2, 1484, Note_on_c, 9, 36, 61
2, 1519, Note_on_c, 9, 51, 0
2, 1533, Note_on_c, 9, 38, 0
2, 1566, Note_on_c, 9, 36, 0
2, 1577, Control_c, 9, 4, 83
2, 1614, Control_c, 9, 4, 70
2, 1661, Control_c, 9, 4, 0
2, 1698, Control_c, 9, 4, 32
2, 1701, Control_c, 9, 17, 50
2, 1702, Note_on_c, 9, 51, 77
2, 1706, Note_on_c, 9, 44, 87
2, 1732, Control_c, 9, 4, 120
2, 1776, Control_c, 9, 4, 97
2, 1784, Note_on_c, 9, 51, 0
2, 1789, Note_on_c, 9, 44, 0
2, 1812, Control_c, 9, 4, 87
2, 1814, Control_c, 9, 18, 0
2, 1814, Note_on_c, 9, 48, 42
2, 1840, Note_on_c, 9, 36, 45
2, 1896, Note_on_c, 9, 48, 0
2, 1923, Note_on_c, 9, 36, 0
2, 1930, Control_c, 9, 4, 96
2, 1940, Note_on_c, 9, 48, 56
2, 1971, Control_c, 9, 17, 51
2, 1971, Note_on_c, 9, 51, 60
2, 1972, Control_c, 9, 4, 100
2, 2013, Control_c, 9, 4, 95
2, 2022, Note_on_c, 9, 48, 0
2, 2053, Note_on_c, 9, 51, 0
2, 2065, Control_c, 9, 4, 83
2, 2095, Control_c, 9, 4, 70
2, 2111, Control_c, 9, 17, 65
2, 2112, Note_on_c, 9, 51, 47
2, 2136, Control_c, 9, 4, 0
2, 2189, Control_c, 9, 4, 49
2, 2193, Note_on_c, 9, 44, 106
2, 2194, Note_on_c, 9, 51, 0
2, 2195, Note_on_c, 9, 36, 52
2, 2219, Control_c, 9, 4, 116
2, 2257, Control_c, 9, 4, 102
2, 2275, Note_on_c, 9, 44, 0
2, 2277, Note_on_c, 9, 36, 0
2, 2288, Control_c, 9, 4, 88
2, 2411, Control_c, 9, 4, 94
2, 2429, Control_c, 9, 17, 39
2, 2430, Control_c, 9, 16, 0
2, 2430, Note_on_c, 9, 51, 85
2, 2432, Note_on_c, 9, 38, 69
2, 2437, Note_on_c, 9, 36, 58
2, 2511, Note_on_c, 9, 51, 0
2, 2512, Control_c, 9, 4, 89
2, 2512, Note_on_c, 9, 38, 0
2, 2519, Note_on_c, 9, 36, 0
2, 2551, Control_c, 9, 4, 76
2, 2584, Control_c, 9, 4, 54
2, 2615, Control_c, 9, 4, 0
2, 2657, Control_c, 9, 4, 48
2, 2662, Note_on_c, 9, 44, 93
2, 2674, Control_c, 9, 17, 48
2, 2675, Note_on_c, 9, 51, 71
2, 2688, Control_c, 9, 4, 116
2, 2730, Control_c, 9, 4, 96
2, 2744, Note_on_c, 9, 44, 0
2, 2756, Note_on_c, 9, 51, 0
2, 2766, Control_c, 9, 4, 85
2, 2788, Control_c, 9, 18, 0
2, 2788, Note_on_c, 9, 48, 42
2, 2796, Note_on_c, 9, 36, 40
2, 2871, Note_on_c, 9, 48, 0
2, 2879, Note_on_c, 9, 36, 0
2, 2893, Control_c, 9, 4, 99
2, 2911, Control_c, 9, 17, 104
2, 2912, Note_on_c, 9, 51, 58
2, 2915, Note_on_c, 9, 48, 57
2, 2968, Control_c, 9, 4, 94
2, 2994, Note_on_c, 9, 51, 0
2, 2995, Note_on_c, 9, 48, 0
2, 3014, Control_c, 9, 4, 83
2, 3040, Control_c, 9, 17, 80
2, 3041, Note_on_c, 9, 51, 60
2, 3070, Control_c, 9, 4, 54
2, 3103, Control_c, 9, 4, 0
2, 3123, Note_on_c, 9, 51, 0
2, 3141, Control_c, 9, 4, 49
2, 3146, Note_on_c, 9, 44, 93
2, 3148, Note_on_c, 9, 36, 46
2, 3172, Control_c, 9, 4, 114
2, 3205, Control_c, 9, 4, 100
2, 3228, Note_on_c, 9, 44, 0
2, 3230, Note_on_c, 9, 36, 0
2, 3243, Control_c, 9, 4, 86
2, 3274, Control_c, 9, 17, 52
2, 3274, Note_on_c, 9, 51, 77
2, 3356, Note_on_c, 9, 51, 0
2, 3361, Control_c, 9, 4, 92
2, 3391, Note_on_c, 9, 38, 61
2, 3400, Note_on_c, 9, 36, 57
2, 3473, Note_on_c, 9, 38, 0
2, 3483, Note_on_c, 9, 36, 0
2, 3491, Control_c, 9, 4, 85
2, 3531, Control_c, 9, 4, 71
2, 3572, Control_c, 9, 4, 23
2, 3612, Control_c, 9, 4, 46
2, 3620, Control_c, 9, 17, 76
2, 3620, Note_on_c, 9, 51, 78
2, 3622, Note_on_c, 9, 44, 67
2, 3624, Note_on_c, 9, 46, 55
2, 3645, Control_c, 9, 4, 116
2, 3686, Control_c, 9, 4, 95
2, 3701, Note_on_c, 9, 51, 0
2, 3702, Note_on_c, 9, 44, 0
2, 3702, Note_on_c, 9, 46, 0
2, 3718, Control_c, 9, 4, 83
2, 3743, Control_c, 9, 18, 0
2, 3744, Note_on_c, 9, 48, 40
2, 3754, Note_on_c, 9, 36, 46
2, 3826, Note_on_c, 9, 48, 0
2, 3838, Note_on_c, 9, 36, 0
2, 3839, Control_c, 9, 4, 98
2, 3872, Note_on_c, 9, 48, 57
2, 3878, Control_c, 9, 17, 78
2, 3879, Note_on_c, 9, 51, 63
2, 3927, Control_c, 9, 4, 93
2, 3954, Note_on_c, 9, 48, 0
2, 3960, Note_on_c, 9, 51, 0
2, 3976, Control_c, 9, 4, 82
2, 4012, Control_c, 9, 17, 127
2, 4012, Note_on_c, 9, 51, 66
2, 4025, Control_c, 9, 4, 54
2, 4061, Control_c, 9, 4, 0
2, 4091, Control_c, 9, 4, 48
2, 4094, Note_on_c, 9, 51, 0
2, 4097, Note_on_c, 9, 44, 80
2, 4113, Note_on_c, 9, 36, 40
2, 4122, Control_c, 9, 4, 110
2, 4171, Control_c, 9, 4, 91
2, 4179, Note_on_c, 9, 44, 0
2, 4195, Note_on_c, 9, 36, 0
2, 4201, Control_c, 9, 4, 84
2, 4305, Control_c, 9, 4, 90
2, 4355, Control_c, 9, 17, 38
2, 4355, Note_on_c, 9, 51, 86
2, 4360, Note_on_c, 9, 36, 49
2, 4361, Control_c, 9, 16, 0
2, 4362, Note_on_c, 9, 38, 61
2, 4437, Note_on_c, 9, 51, 0
2, 4442, Note_on_c, 9, 36, 0
2, 4442, Note_on_c, 9, 38, 0
2, 4449, Control_c, 9, 4, 83
2, 4485, Control_c, 9, 4, 70
2, 4527, Control_c, 9, 4, 0
2, 4577, Control_c, 9, 4, 49
2, 4582, Note_on_c, 9, 44, 100
2, 4603, Control_c, 9, 17, 87
2, 4603, Note_on_c, 9, 51, 69
2, 4607, Control_c, 9, 4, 110
2, 4642, Control_c, 9, 4, 98
2, 4664, Note_on_c, 9, 44, 0
2, 4680, Control_c, 9, 4, 85
2, 4685, Note_on_c, 9, 51, 0
2, 4723, Note_on_c, 9, 36, 33
2, 4725, Control_c, 9, 18, 0
2, 4725, Note_on_c, 9, 48, 43
2, 4805, Note_on_c, 9, 36, 0
2, 4806, Note_on_c, 9, 48, 0
2, 4814, Control_c, 9, 4, 95
2, 4841, Control_c, 9, 17, 127
2, 4842, Note_on_c, 9, 51, 58
2, 4844, Note_on_c, 9, 48, 56
2, 4901, Control_c, 9, 4, 91
2, 4924, Note_on_c, 9, 51, 0
2, 4925, Note_on_c, 9, 48, 0
2, 4948, Control_c, 9, 4, 79
2, 4970, Control_c, 9, 17, 127
2, 4971, Note_on_c, 9, 51, 68
2, 4989, Control_c, 9, 4, 55
2, 5019, Control_c, 9, 4, 12
2, 5052, Control_c, 9, 4, 44
2, 5053, Note_on_c, 9, 51, 0
2, 5059, Note_on_c, 9, 44, 74
2, 5072, Note_on_c, 9, 36, 40
2, 5085, Control_c, 9, 4, 110
2, 5131, Control_c, 9, 4, 91
2, 5142, Note_on_c, 9, 44, 0
2, 5155, Note_on_c, 9, 36, 0
2, 5162, Control_c, 9, 4, 84
2, 5194, Control_c, 9, 17, 94
2, 5195, Note_on_c, 9, 51, 78
2, 5263, Control_c, 9, 4, 90
2, 5276, Note_on_c, 9, 51, 0
2, 5319, Note_on_c, 9, 38, 63
2, 5326, Note_on_c, 9, 36, 49
2, 5400, Note_on_c, 9, 38, 0
2, 5408, Note_on_c, 9, 36, 0
2, 5437, Control_c, 9, 4, 76
2, 5469, Control_c, 9, 4, 54
2, 5504, Control_c, 9, 4, 0
2, 5535, Control_c, 9, 4, 49
2, 5541, Note_on_c, 9, 44, 80
2, 5548, Control_c, 9, 17, 92
2, 5549, Note_on_c, 9, 51, 76
2, 5566, Control_c, 9, 4, 114
2, 5609, Control_c, 9, 4, 93
2, 5623, Note_on_c, 9, 44, 0
2, 5630, Note_on_c, 9, 51, 0
2, 5648, Control_c, 9, 4, 82
2, 5673, Note_on_c, 9, 36, 33
2, 5674, Control_c, 9, 18, 0
2, 5675, Note_on_c, 9, 48, 41
2, 5754, Note_on_c, 9, 36, 0
2, 5756, Note_on_c, 9, 48, 0
2, 5763, Control_c, 9, 4, 96
2, 5795, Note_on_c, 9, 48, 61
2, 5797, Control_c, 9, 17, 63
2, 5798, Note_on_c, 9, 51, 60
2, 5855, Control_c, 9, 4, 92
2, 5877, Note_on_c, 9, 48, 0
2, 5878, Note_on_c, 9, 51, 0
2, 5887, Control_c, 9, 4, 86
2, 5925, Control_c, 9, 4, 73
2, 5927, Control_c, 9, 17, 127
2, 5928, Note_on_c, 9, 51, 69
2, 5956, Control_c, 9, 4, 46
2, 5986, Control_c, 9, 4, 4
2, 6010, Note_on_c, 9, 51, 0
2, 6022, Note_on_c, 9, 44, 80
2, 6033, Note_on_c, 9, 36, 36
2, 6038, Control_c, 9, 4, 114
2, 6042, Control_c, 9, 17, 127
2, 6042, Note_on_c, 9, 51, 7
2, 6077, Control_c, 9, 4, 98
2, 6104, Note_on_c, 9, 44, 0
2, 6114, Note_on_c, 9, 36, 0
2, 6117, Control_c, 9, 4, 84
2, 6122, Note_on_c, 9, 51, 0
2, 6222, Control_c, 9, 4, 90
2, 6278, Control_c, 9, 17, 52
2, 6278, Note_on_c, 9, 51, 82
2, 6280, Note_on_c, 9, 36, 50
2, 6281, Control_c, 9, 16, 0
2, 6282, Note_on_c, 9, 38, 53
2, 6361, Note_on_c, 9, 36, 0
2, 6361, Note_on_c, 9, 51, 0
2, 6363, Note_on_c, 9, 38, 0
2, 6374, Control_c, 9, 4, 83
2, 6411, Control_c, 9, 4, 70
2, 6452, Control_c, 9, 4, 0
2, 6500, Control_c, 9, 4, 48
2, 6505, Note_on_c, 9, 44, 113
2, 6516, Control_c, 9, 17, 111
2, 6516, Note_on_c, 9, 51, 73
2, 6530, Control_c, 9, 4, 114
2, 6575, Control_c, 9, 4, 93
2, 6587, Note_on_c, 9, 44, 0
2, 6598, Note_on_c, 9, 51, 0
2, 6618, Control_c, 9, 4, 83
2, 6627, Control_c, 9, 18, 0
2, 6627, Note_on_c, 9, 48, 45
2, 6640, Note_on_c, 9, 36, 39
2, 6710, Note_on_c, 9, 48, 0
2, 6722, Note_on_c, 9, 36, 0
2, 6726, Control_c, 9, 4, 98
2, 6747, Note_on_c, 9, 48, 58
2, 6755, Control_c, 9, 17, 100
2, 6755, Note_on_c, 9, 51, 57
2, 6815, Control_c, 9, 4, 93
2, 6829, Note_on_c, 9, 48, 0
2, 6836, Note_on_c, 9, 51, 0
2, 6862, Control_c, 9, 4, 83
2, 6883, Control_c, 9, 17, 96
2, 6884, Note_on_c, 9, 51, 65
2, 6893, Control_c, 9, 4, 70
2, 6935, Control_c, 9, 4, 0
2, 6965, Note_on_c, 9, 51, 0
2, 6982, Control_c, 9, 4, 48
2, 6986, Note_on_c, 9, 44, 106
2, 6993, Note_on_c, 9, 36, 48
2, 7012, Control_c, 9, 4, 110
2, 7059, Control_c, 9, 4, 91
2, 7068, Note_on_c, 9, 44, 0
2, 7075, Note_on_c, 9, 36, 0
2, 7089, Control_c, 9, 4, 85
2, 7115, Control_c, 9, 17, 39
2, 7116, Note_on_c, 9, 51, 77
2, 7189, Control_c, 9, 4, 90
2, 7198, Note_on_c, 9, 51, 0
2, 7236, Note_on_c, 9, 38, 61
2, 7243, Note_on_c, 9, 36, 51
2, 7317, Note_on_c, 9, 38, 0
2, 7325, Note_on_c, 9, 36, 0
2, 7356, Control_c, 9, 4, 76
2, 7388, Control_c, 9, 4, 54
2, 7419, Control_c, 9, 4, 0
2, 7455, Control_c, 9, 4, 48
2, 7460, Note_on_c, 9, 44, 93
2, 7465, Control_c, 9, 17, 84
2, 7465, Note_on_c, 9, 51, 79
2, 7486, Control_c, 9, 4, 118
2, 7524, Control_c, 9, 4, 96
2, 7542, Note_on_c, 9, 44, 0
2, 7547, Note_on_c, 9, 51, 0
2, 7559, Control_c, 9, 4, 83
2, 7588, Control_c, 9, 18, 0
2, 7589, Note_on_c, 9, 48, 42
2, 7596, Note_on_c, 9, 36, 45
2, 7670, Note_on_c, 9, 48, 0
2, 7679, Note_on_c, 9, 36, 0
2, 7680, End_track
0, 0, End_of_file
