0, 0, Header, 1, 2, 480
1, 0, Start_track
1, 0, Tempo, 300000
1, 0, Time_signature, 4, 2, 24, 8
1, 0, Key_signature, 0, "major"
1, 1, End_track
2, 0, Start_track
2, 0, Title_t, "Midi Drums"
2, 0, Program_c, 9, 0
2, 14, Note_on_c, 9, 38, 44
2, 25, Note_on_c, 9, 36, 76
2, 175, Note_on_c, 9, 38, 0
2, 187, Note_on_c, 9, 36, 0
2, 296, Note_on_c, 9, 38, 16
2, 457, Note_on_c, 9, 38, 0
2, 480, Note_on_c, 9, 38, 127
2, 641, Note_on_c, 9, 38, 0
2, 763, Note_on_c, 9, 38, 39
2, 924, Note_on_c, 9, 38, 0
2, 983, Note_on_c, 9, 36, 69
2, 989, Note_on_c, 9, 38, 36
2, 1143, Note_on_c, 9, 36, 0
2, 1150, Note_on_c, 9, 38, 0
2, 1260, Note_on_c, 9, 40, 127
2, 1422, Note_on_c, 9, 40, 0
2, 1459, Note_on_c, 9, 38, 117
2, 1620, Note_on_c, 9, 38, 0
2, 1717, Note_on_c, 9, 40, 95
2, 1878, Note_on_c, 9, 40, 0
2, 1910, Note_on_c, 9, 36, 70
2, 1932, Note_on_c, 9, 38, 39
2, 2071, Note_on_c, 9, 36, 0
2, 2094, Note_on_c, 9, 38, 0
2, 2167, Note_on_c, 9, 38, 34
2, 2327, Note_on_c, 9, 38, 0
2, 2378, Note_on_c, 9, 38, 127
2, 2540, Note_on_c, 9, 38, 0
2, 2665, Note_on_c, 9, 38, 32
2, 2827, Note_on_c, 9, 38, 0
2, 2861, Note_on_c, 9, 36, 66
2, 2866, Note_on_c, 9, 38, 32
2, 3022, Note_on_c, 9, 36, 0
2, 3028, Note_on_c, 9, 38, 0
2, 3173, Note_on_c, 9, 38, 38
2, 3335, Note_on_c, 9, 38, 0
2, 3349, Note_on_c, 9, 38, 114
2, 3510, Note_on_c, 9, 38, 0
2, 3626, Note_on_c, 9, 38, 36
2, 3787, Note_on_c, 9, 38, 0
2, 3808, Note_on_c, 9, 38, 48
2, 3817, Note_on_c, 9, 36, 66
2, 3969, Note_on_c, 9, 38, 0
2, 3979, Note_on_c, 9, 36, 0
2, 4111, Note_on_c, 9, 38, 30
2, 4273, Note_on_c, 9, 38, 0
2, 4287, Note_on_c, 9, 38, 120
2, 4449, Note_on_c, 9, 38, 0
2, 4620, Note_on_c, 9, 38, 29
2, 4775, Note_on_c, 9, 36, 67
2, 4782, Note_on_c, 9, 38, 0
2, 4788, Note_on_c, 9, 38, 37
2, 4937, Note_on_c, 9, 36, 0
2, 4950, Note_on_c, 9, 38, 0
2, 5060, Note_on_c, 9, 40, 99
2, 5222, Note_on_c, 9, 40, 0
2, 5249, Note_on_c, 9, 38, 120
2, 5411, Note_on_c, 9, 38, 0
2, 5550, Note_on_c, 9, 38, 40
2, 5712, Note_on_c, 9, 38, 0
2, 5739, Note_on_c, 9, 38, 37
2, 5760, Note_on_c, 9, 36, 80
2, 5900, Note_on_c, 9, 38, 0
2, 5921, Note_on_c, 9, 36, 0
2, 6062, Note_on_c, 9, 38, 33
2, 6223, Note_on_c, 9, 38, 0
2, 6235, Note_on_c, 9, 38, 124
2, 6396, Note_on_c, 9, 38, 0
2, 6577, Note_on_c, 9, 38, 16
2, 6739, Note_on_c, 9, 38, 0
2, 6743, Note_on_c, 9, 36, 72
2, 6747, Note_on_c, 9, 38, 38
2, 6905, Note_on_c, 9, 36, 0
2, 6908, Note_on_c, 9, 38, 0
2, 7041, Note_on_c, 9, 38, 31
2, 7202, Note_on_c, 9, 38, 0
2, 7213, Note_on_c, 9, 38, 112
2, 7374, Note_on_c, 9, 38, 0
2, 7375, End_track
0, 0, End_of_file
