0, 0, Header, 1, 2, 480
1, 0, Start_track
1, 0, Tempo, 705882
1, 0, Time_signature, 4, 2, 24, 8
1, 0, Time_signature, 4, 2, 24, 8
1, 0, Key_signature, 0, "major"
1, 1, End_track
2, 0, Start_track
2, 0, Title_t, "SoCal"
2, 0, Program_c, 9, 0
2, 0, Control_c, 9, 16, 0
2, 3, Note_on_c, 9, 44, 48
2, 17, Note_on_c, 9, 36, 44
2, 24, Control_c, 9, 4, 93
2, 71, Note_on_c, 9, 44, 0
2, 85, Note_on_c, 9, 36, 0
2, 118, Control_c, 9, 4, 83
2, 122, Control_c, 9, 16, 0
2, 122, Note_on_c, 9, 38, 34
2, 132, Note_on_c, 9, 36, 39
2, 140, Note_on_c, 9, 46, 10
2, 149, Control_c, 9, 4, 68
2, 188, Control_c, 9, 4, 0
2, 190, Note_on_c, 9, 38, 0
2, 200, Note_on_c, 9, 36, 0
2, 208, Note_on_c, 9, 46, 0
2, 231, Control_c, 9, 4, 29
2, 239, Control_c, 9, 16, 42
2, 239, Note_on_c, 9, 38, 50
2, 243, Note_on_c, 9, 44, 61
2, 264, Control_c, 9, 4, 93
2, 307, Note_on_c, 9, 38, 0
2, 311, Note_on_c, 9, 44, 0
2, 347, Control_c, 9, 4, 89
2, 366, Control_c, 9, 16, 0
2, 366, Note_on_c, 9, 38, 47
2, 401, Control_c, 9, 4, 78
2, 434, Note_on_c, 9, 38, 0
2, 440, Control_c, 9, 4, 49
2, 480, Note_on_c, 9, 44, 28
2, 483, Control_c, 9, 16, 21
2, 484, Note_on_c, 9, 38, 37
2, 490, Note_on_c, 9, 36, 49
2, 501, Control_c, 9, 4, 95
2, 548, Note_on_c, 9, 44, 0
2, 551, Note_on_c, 9, 38, 0
2, 558, Note_on_c, 9, 36, 0
2, 592, Control_c, 9, 4, 85
2, 598, Note_on_c, 9, 36, 37
2, 601, Control_c, 9, 16, 0
2, 601, Note_on_c, 9, 38, 31
2, 611, Note_on_c, 9, 46, 8
2, 624, Control_c, 9, 4, 68
2, 665, Control_c, 9, 4, 0
2, 667, Note_on_c, 9, 36, 0
2, 669, Note_on_c, 9, 38, 0
2, 680, Note_on_c, 9, 46, 0
2, 703, Control_c, 9, 4, 27
2, 716, Note_on_c, 9, 44, 54
2, 721, Control_c, 9, 16, 0
2, 721, Note_on_c, 9, 38, 49
2, 737, Control_c, 9, 4, 92
2, 784, Note_on_c, 9, 44, 0
2, 789, Note_on_c, 9, 38, 0
2, 828, Control_c, 9, 4, 87
2, 845, Control_c, 9, 16, 0
2, 846, Note_on_c, 9, 38, 46
2, 868, Control_c, 9, 4, 71
2, 909, Control_c, 9, 4, 19
2, 914, Note_on_c, 9, 38, 0
2, 947, Control_c, 9, 4, 45
2, 955, Control_c, 9, 16, 0
2, 956, Note_on_c, 9, 38, 31
2, 957, Note_on_c, 9, 44, 54
2, 963, Note_on_c, 9, 36, 42
2, 977, Control_c, 9, 4, 95
2, 1024, Note_on_c, 9, 38, 0
2, 1024, Note_on_c, 9, 44, 0
2, 1031, Note_on_c, 9, 36, 0
2, 1073, Note_on_c, 9, 36, 38
2, 1075, Control_c, 9, 4, 85
2, 1080, Control_c, 9, 16, 0
2, 1080, Note_on_c, 9, 38, 31
2, 1104, Note_on_c, 9, 46, 10
2, 1111, Control_c, 9, 4, 67
2, 1141, Note_on_c, 9, 36, 0
2, 1146, Control_c, 9, 4, 13
2, 1148, Note_on_c, 9, 38, 0
2, 1172, Note_on_c, 9, 46, 0
2, 1183, Control_c, 9, 4, 40
2, 1194, Control_c, 9, 16, 0
2, 1194, Note_on_c, 9, 44, 48
2, 1196, Note_on_c, 9, 38, 34
2, 1215, Control_c, 9, 4, 94
2, 1262, Note_on_c, 9, 38, 0
2, 1262, Note_on_c, 9, 44, 0
2, 1287, Control_c, 9, 4, 89
2, 1312, Control_c, 9, 16, 0
2, 1313, Note_on_c, 9, 38, 39
2, 1348, Control_c, 9, 4, 68
2, 1380, Note_on_c, 9, 38, 0
2, 1381, Control_c, 9, 4, 27
2, 1421, Control_c, 9, 4, 44
2, 1429, Control_c, 9, 16, 21
2, 1430, Note_on_c, 9, 38, 49
2, 1433, Note_on_c, 9, 44, 41
2, 1441, Note_on_c, 9, 36, 53
2, 1454, Control_c, 9, 4, 94
2, 1498, Note_on_c, 9, 38, 0
2, 1500, Note_on_c, 9, 44, 0
2, 1510, Note_on_c, 9, 36, 0
2, 1523, Control_c, 9, 4, 89
2, 1553, Control_c, 9, 16, 0
2, 1553, Note_on_c, 9, 38, 51
2, 1577, Note_on_c, 9, 46, 9
2, 1587, Control_c, 9, 4, 67
2, 1622, Note_on_c, 9, 38, 0
2, 1625, Control_c, 9, 4, 13
2, 1644, Note_on_c, 9, 46, 0
2, 1658, Control_c, 9, 4, 41
2, 1667, Note_on_c, 9, 44, 54
2, 1668, Control_c, 9, 16, 21
2, 1668, Note_on_c, 9, 38, 52
2, 1689, Control_c, 9, 4, 94
2, 1736, Note_on_c, 9, 38, 0
2, 1736, Note_on_c, 9, 44, 0
2, 1762, Control_c, 9, 4, 89
2, 1798, Control_c, 9, 16, 0
2, 1798, Note_on_c, 9, 38, 48
2, 1804, Control_c, 9, 4, 81
2, 1804, Note_on_c, 9, 46, 7
2, 1850, Control_c, 9, 4, 43
2, 1866, Note_on_c, 9, 38, 0
2, 1872, Note_on_c, 9, 46, 0
2, 1884, Control_c, 9, 4, 47
2, 1899, Note_on_c, 9, 44, 28
2, 1910, Control_c, 9, 16, 0
2, 1910, Note_on_c, 9, 38, 37
2, 1914, Note_on_c, 9, 36, 66
2, 1920, Control_c, 9, 4, 93
2, 1967, Note_on_c, 9, 44, 0
2, 1978, Note_on_c, 9, 38, 0
2, 1982, Note_on_c, 9, 36, 0
2, 2009, Control_c, 9, 4, 89
2, 2034, Control_c, 9, 16, 0
2, 2034, Note_on_c, 9, 38, 24
2, 2056, Control_c, 9, 4, 72
2, 2056, Note_on_c, 9, 46, 9
2, 2088, Control_c, 9, 4, 16
2, 2102, Note_on_c, 9, 38, 0
2, 2124, Note_on_c, 9, 46, 0
2, 2129, Control_c, 9, 4, 37
2, 2141, Note_on_c, 9, 44, 48
2, 2151, Control_c, 9, 16, 21
2, 2151, Note_on_c, 9, 38, 62
2, 2162, Control_c, 9, 4, 93
2, 2209, Note_on_c, 9, 44, 0
2, 2219, Note_on_c, 9, 38, 0
2, 2247, Control_c, 9, 4, 88
2, 2282, Control_c, 9, 16, 0
2, 2283, Note_on_c, 9, 38, 28
2, 2292, Note_on_c, 9, 46, 10
2, 2302, Control_c, 9, 4, 68
2, 2340, Control_c, 9, 4, 16
2, 2350, Note_on_c, 9, 38, 0
2, 2359, Note_on_c, 9, 46, 0
2, 2370, Control_c, 9, 4, 30
2, 2385, Note_on_c, 9, 44, 48
2, 2389, Control_c, 9, 16, 0
2, 2389, Note_on_c, 9, 38, 33
2, 2397, Note_on_c, 9, 36, 48
2, 2406, Control_c, 9, 4, 94
2, 2453, Note_on_c, 9, 44, 0
2, 2457, Note_on_c, 9, 38, 0
2, 2466, Note_on_c, 9, 36, 0
2, 2476, Control_c, 9, 4, 89
2, 2508, Control_c, 9, 4, 84
2, 2509, Control_c, 9, 16, 0
2, 2509, Note_on_c, 9, 36, 41
2, 2509, Note_on_c, 9, 38, 29
2, 2543, Control_c, 9, 4, 68
2, 2559, Note_on_c, 9, 46, 7
2, 2578, Note_on_c, 9, 36, 0
2, 2578, Note_on_c, 9, 38, 0
2, 2584, Control_c, 9, 4, 15
2, 2621, Control_c, 9, 4, 45
2, 2627, Note_on_c, 9, 46, 0
2, 2630, Note_on_c, 9, 44, 41
2, 2634, Control_c, 9, 16, 0
2, 2634, Note_on_c, 9, 38, 49
2, 2651, Control_c, 9, 4, 92
2, 2698, Note_on_c, 9, 44, 0
2, 2702, Note_on_c, 9, 38, 0
2, 2743, Control_c, 9, 4, 88
2, 2756, Control_c, 9, 16, 0
2, 2757, Note_on_c, 9, 38, 50
2, 2789, Control_c, 9, 4, 74
2, 2820, Control_c, 9, 4, 41
2, 2825, Note_on_c, 9, 38, 0
2, 2857, Control_c, 9, 4, 44
2, 2871, Note_on_c, 9, 44, 35
2, 2873, Control_c, 9, 16, 0
2, 2874, Note_on_c, 9, 38, 33
2, 2880, Note_on_c, 9, 36, 52
2, 2893, Control_c, 9, 4, 94
2, 2939, Note_on_c, 9, 44, 0
2, 2942, Note_on_c, 9, 38, 0
2, 2948, Note_on_c, 9, 36, 0
2, 2962, Control_c, 9, 4, 89
2, 2993, Control_c, 9, 16, 21
2, 2993, Note_on_c, 9, 38, 29
2, 3016, Control_c, 9, 4, 79
2, 3056, Control_c, 9, 4, 43
2, 3062, Note_on_c, 9, 38, 0
2, 3088, Control_c, 9, 4, 46
2, 3103, Note_on_c, 9, 44, 35
2, 3119, Control_c, 9, 16, 0
2, 3120, Note_on_c, 9, 38, 49
2, 3124, Control_c, 9, 4, 93
2, 3171, Note_on_c, 9, 44, 0
2, 3187, Note_on_c, 9, 38, 0
2, 3233, Control_c, 9, 4, 84
2, 3235, Control_c, 9, 16, 0
2, 3235, Note_on_c, 9, 38, 27
2, 3267, Control_c, 9, 4, 68
2, 3274, Note_on_c, 9, 46, 9
2, 3299, Control_c, 9, 4, 26
2, 3303, Note_on_c, 9, 38, 0
2, 3337, Control_c, 9, 4, 32
2, 3342, Note_on_c, 9, 46, 0
2, 3351, Note_on_c, 9, 44, 48
2, 3354, Control_c, 9, 16, 0
2, 3354, Note_on_c, 9, 38, 32
2, 3365, Note_on_c, 9, 36, 42
2, 3372, Control_c, 9, 4, 91
2, 3419, Note_on_c, 9, 44, 0
2, 3422, Note_on_c, 9, 38, 0
2, 3434, Note_on_c, 9, 36, 0
2, 3458, Control_c, 9, 4, 86
2, 3474, Note_on_c, 9, 36, 38
2, 3476, Control_c, 9, 16, 0
2, 3476, Note_on_c, 9, 38, 28
2, 3494, Control_c, 9, 4, 70
2, 3529, Control_c, 9, 4, 0
2, 3542, Note_on_c, 9, 36, 0
2, 3544, Note_on_c, 9, 38, 0
2, 3576, Control_c, 9, 4, 30
2, 3589, Note_on_c, 9, 44, 54
2, 3592, Control_c, 9, 16, 0
2, 3593, Note_on_c, 9, 38, 46
2, 3610, Control_c, 9, 4, 92
2, 3657, Note_on_c, 9, 44, 0
2, 3660, Note_on_c, 9, 38, 0
2, 3705, Control_c, 9, 4, 87
2, 3718, Control_c, 9, 16, 0
2, 3719, Note_on_c, 9, 38, 45
2, 3753, Control_c, 9, 4, 75
2, 3785, Control_c, 9, 4, 41
2, 3786, Note_on_c, 9, 38, 0
2, 3822, Control_c, 9, 4, 43
2, 3835, Control_c, 9, 16, 0
2, 3835, Note_on_c, 9, 38, 34
2, 3837, Note_on_c, 9, 44, 35
2, 3849, Note_on_c, 9, 36, 52
2, 3858, Control_c, 9, 4, 94
2, 3904, Note_on_c, 9, 38, 0
2, 3904, Note_on_c, 9, 44, 0
2, 3917, Note_on_c, 9, 36, 0
2, 3949, Control_c, 9, 4, 83
2, 3956, Control_c, 9, 16, 0
2, 3956, Note_on_c, 9, 38, 31
2, 3999, Control_c, 9, 4, 52
2, 4024, Note_on_c, 9, 38, 0
2, 4030, Control_c, 9, 4, 22
2, 4061, Control_c, 9, 4, 50
2, 4070, Note_on_c, 9, 44, 41
2, 4079, Control_c, 9, 16, 0
2, 4080, Note_on_c, 9, 38, 48
2, 4091, Control_c, 9, 4, 92
2, 4138, Note_on_c, 9, 44, 0
2, 4147, Note_on_c, 9, 38, 0
2, 4193, Control_c, 9, 16, 0
2, 4194, Note_on_c, 9, 38, 28
2, 4198, Control_c, 9, 4, 83
2, 4215, Note_on_c, 9, 46, 10
2, 4228, Control_c, 9, 4, 68
2, 4262, Control_c, 9, 4, 30
2, 4262, Note_on_c, 9, 38, 0
2, 4283, Note_on_c, 9, 46, 0
2, 4296, Control_c, 9, 4, 45
2, 4308, Note_on_c, 9, 44, 41
2, 4314, Control_c, 9, 16, 0
2, 4314, Note_on_c, 9, 38, 37
2, 4319, Note_on_c, 9, 36, 43
2, 4329, Control_c, 9, 4, 94
2, 4376, Note_on_c, 9, 44, 0
2, 4382, Note_on_c, 9, 38, 0
2, 4387, Note_on_c, 9, 36, 0
2, 4398, Control_c, 9, 4, 89
2, 4430, Control_c, 9, 4, 84
2, 4430, Note_on_c, 9, 36, 37
2, 4435, Control_c, 9, 16, 0
2, 4435, Note_on_c, 9, 38, 22
2, 4457, Note_on_c, 9, 46, 8
2, 4465, Control_c, 9, 4, 67
2, 4498, Control_c, 9, 4, 9
2, 4498, Note_on_c, 9, 36, 0
2, 4503, Note_on_c, 9, 38, 0
2, 4525, Note_on_c, 9, 46, 0
2, 4539, Control_c, 9, 4, 35
2, 4550, Note_on_c, 9, 44, 48
2, 4558, Control_c, 9, 16, 106
2, 4559, Note_on_c, 9, 38, 47
2, 4572, Control_c, 9, 4, 92
2, 4618, Note_on_c, 9, 44, 0
2, 4626, Note_on_c, 9, 38, 0
2, 4659, Control_c, 9, 4, 87
2, 4678, Control_c, 9, 16, 0
2, 4678, Note_on_c, 9, 38, 47
2, 4710, Control_c, 9, 4, 67
2, 4745, Control_c, 9, 4, 32
2, 4746, Note_on_c, 9, 38, 0
2, 4778, Control_c, 9, 4, 46
2, 4790, Note_on_c, 9, 44, 35
2, 4797, Control_c, 9, 16, 21
2, 4797, Note_on_c, 9, 38, 33
2, 4806, Note_on_c, 9, 36, 49
2, 4811, Control_c, 9, 4, 95
2, 4858, Note_on_c, 9, 44, 0
2, 4866, Note_on_c, 9, 38, 0
2, 4874, Note_on_c, 9, 36, 0
2, 4878, Control_c, 9, 4, 90
2, 4916, Control_c, 9, 4, 85
2, 4920, Control_c, 9, 16, 0
2, 4920, Note_on_c, 9, 38, 28
2, 4950, Control_c, 9, 4, 68
2, 4971, Note_on_c, 9, 46, 9
2, 4988, Control_c, 9, 4, 21
2, 4988, Note_on_c, 9, 38, 0
2, 5023, Control_c, 9, 4, 46
2, 5033, Note_on_c, 9, 44, 41
2, 5038, Note_on_c, 9, 46, 0
2, 5049, Control_c, 9, 16, 42
2, 5049, Note_on_c, 9, 38, 55
2, 5055, Control_c, 9, 4, 95
2, 5101, Note_on_c, 9, 44, 0
2, 5117, Note_on_c, 9, 38, 0
2, 5159, Control_c, 9, 4, 86
2, 5159, Control_c, 9, 16, 0
2, 5159, Note_on_c, 9, 38, 26
2, 5194, Control_c, 9, 4, 69
2, 5228, Note_on_c, 9, 38, 0
2, 5231, Control_c, 9, 4, 35
2, 5262, Control_c, 9, 4, 46
2, 5273, Control_c, 9, 16, 0
2, 5273, Note_on_c, 9, 38, 25
2, 5276, Note_on_c, 9, 44, 35
2, 5285, Note_on_c, 9, 36, 46
2, 5297, Control_c, 9, 4, 93
2, 5326, Control_c, 9, 16, 0
2, 5326, Note_on_c, 9, 38, 0
2, 5328, Note_on_c, 9, 38, 22
2, 5341, Note_on_c, 9, 38, 0
2, 5343, Note_on_c, 9, 44, 0
2, 5354, Note_on_c, 9, 36, 0
2, 5391, Control_c, 9, 16, 0
2, 5392, Note_on_c, 9, 38, 30
2, 5394, Note_on_c, 9, 36, 37
2, 5396, Note_on_c, 9, 38, 0
2, 5405, Control_c, 9, 4, 83
2, 5435, Control_c, 9, 4, 67
2, 5443, Control_c, 9, 16, 0
2, 5444, Note_on_c, 9, 38, 33
2, 5449, Note_on_c, 9, 46, 8
2, 5459, Note_on_c, 9, 38, 0
2, 5462, Note_on_c, 9, 36, 0
2, 5475, Control_c, 9, 4, 13
2, 5509, Control_c, 9, 4, 39
2, 5515, Control_c, 9, 16, 21
2, 5516, Note_on_c, 9, 38, 30
2, 5516, Note_on_c, 9, 46, 0
2, 5520, Note_on_c, 9, 44, 48
2, 5541, Control_c, 9, 4, 95
2, 5584, Control_c, 9, 16, 0
2, 5585, Note_on_c, 9, 38, 0
2, 5589, Note_on_c, 9, 44, 0
2, 5621, Control_c, 9, 4, 90
2, 5646, Control_c, 9, 16, 0
2, 5646, Note_on_c, 9, 38, 26
2, 5652, Note_on_c, 9, 38, 0
2, 5664, Note_on_c, 9, 46, 9
2, 5675, Control_c, 9, 4, 69
2, 5703, Control_c, 9, 16, 0
2, 5704, Note_on_c, 9, 38, 35
2, 5714, Control_c, 9, 4, 14
2, 5714, Note_on_c, 9, 38, 0
2, 5731, Note_on_c, 9, 46, 0
2, 5748, Control_c, 9, 4, 30
2, 5760, Note_on_c, 9, 44, 48
2, 5764, Control_c, 9, 16, 0
2, 5764, Note_on_c, 9, 38, 44
2, 5772, Note_on_c, 9, 38, 0
2, 5780, Note_on_c, 9, 36, 68
2, 5782, Control_c, 9, 4, 95
2, 5828, Note_on_c, 9, 44, 0
2, 5848, Note_on_c, 9, 36, 0
2, 5877, Control_c, 9, 4, 85
2, 5880, Control_c, 9, 16, 0
2, 5880, Note_on_c, 9, 38, 23
2, 5901, Note_on_c, 9, 46, 9
2, 5913, Control_c, 9, 4, 69
2, 5949, Note_on_c, 9, 38, 0
2, 5951, Control_c, 9, 4, 11
2, 5969, Note_on_c, 9, 46, 0
2, 5990, Control_c, 9, 4, 41
2, 6000, Note_on_c, 9, 44, 54
2, 6013, Control_c, 9, 16, 42
2, 6014, Note_on_c, 9, 38, 54
2, 6021, Control_c, 9, 4, 95
2, 6068, Note_on_c, 9, 44, 0
2, 6081, Note_on_c, 9, 38, 0
2, 6103, Control_c, 9, 4, 89
2, 6149, Note_on_c, 9, 46, 6
2, 6150, Control_c, 9, 16, 0
2, 6150, Note_on_c, 9, 38, 38
2, 6158, Control_c, 9, 4, 68
2, 6199, Control_c, 9, 4, 18
2, 6217, Note_on_c, 9, 46, 0
2, 6218, Note_on_c, 9, 38, 0
2, 6230, Control_c, 9, 4, 45
2, 6240, Note_on_c, 9, 44, 41
2, 6255, Note_on_c, 9, 36, 52
2, 6260, Control_c, 9, 16, 0
2, 6260, Note_on_c, 9, 38, 32
2, 6262, Control_c, 9, 4, 95
2, 6308, Note_on_c, 9, 44, 0
2, 6322, Note_on_c, 9, 36, 0
2, 6328, Note_on_c, 9, 38, 0
2, 6337, Control_c, 9, 4, 90
2, 6366, Note_on_c, 9, 36, 37
2, 6371, Control_c, 9, 16, 0
2, 6371, Note_on_c, 9, 38, 25
2, 6378, Note_on_c, 9, 46, 7
2, 6393, Control_c, 9, 4, 69
2, 6429, Control_c, 9, 4, 0
2, 6435, Note_on_c, 9, 36, 0
2, 6439, Note_on_c, 9, 38, 0
2, 6446, Note_on_c, 9, 46, 0
2, 6478, Control_c, 9, 4, 31
2, 6488, Note_on_c, 9, 44, 61
2, 6489, Control_c, 9, 16, 0
2, 6489, Note_on_c, 9, 38, 51
2, 6509, Control_c, 9, 4, 94
2, 6556, Note_on_c, 9, 44, 0
2, 6557, Note_on_c, 9, 38, 0
2, 6595, Control_c, 9, 4, 89
2, 6612, Control_c, 9, 16, 0
2, 6612, Note_on_c, 9, 38, 41
2, 6641, Note_on_c, 9, 46, 6
2, 6654, Control_c, 9, 4, 68
2, 6680, Note_on_c, 9, 38, 0
2, 6687, Control_c, 9, 4, 30
2, 6709, Note_on_c, 9, 46, 0
2, 6721, Control_c, 9, 4, 45
2, 6732, Control_c, 9, 16, 0
2, 6733, Note_on_c, 9, 38, 33
2, 6735, Note_on_c, 9, 44, 35
2, 6738, Note_on_c, 9, 36, 57
2, 6754, Control_c, 9, 4, 95
2, 6801, Note_on_c, 9, 38, 0
2, 6801, Note_on_c, 9, 44, 0
2, 6807, Note_on_c, 9, 36, 0
2, 6816, Control_c, 9, 4, 90
2, 6853, Control_c, 9, 4, 86
2, 6858, Control_c, 9, 16, 0
2, 6858, Note_on_c, 9, 38, 27
2, 6888, Control_c, 9, 4, 69
2, 6926, Note_on_c, 9, 38, 0
2, 6928, Control_c, 9, 4, 15
2, 6962, Control_c, 9, 4, 30
2, 6976, Note_on_c, 9, 44, 48
2, 6979, Control_c, 9, 16, 0
2, 6980, Note_on_c, 9, 38, 54
2, 6997, Control_c, 9, 4, 94
2, 7044, Note_on_c, 9, 44, 0
2, 7047, Note_on_c, 9, 38, 0
2, 7075, Control_c, 9, 4, 89
2, 7101, Control_c, 9, 16, 0
2, 7101, Note_on_c, 9, 38, 26
2, 7135, Control_c, 9, 4, 67
2, 7169, Note_on_c, 9, 38, 0
2, 7173, Control_c, 9, 4, 11
2, 7204, Control_c, 9, 4, 26
2, 7211, Control_c, 9, 16, 0
2, 7211, Note_on_c, 9, 38, 33
2, 7219, Note_on_c, 9, 44, 54
2, 7222, Note_on_c, 9, 36, 44
2, 7241, Control_c, 9, 4, 94
2, 7279, Note_on_c, 9, 38, 0
2, 7287, Note_on_c, 9, 44, 0
2, 7290, Note_on_c, 9, 36, 0
2, 7334, Control_c, 9, 16, 0
2, 7334, Note_on_c, 9, 38, 23
2, 7336, Note_on_c, 9, 36, 37
2, 7338, Control_c, 9, 4, 83
2, 7369, Control_c, 9, 4, 68
2, 7402, Note_on_c, 9, 38, 0
2, 7404, Note_on_c, 9, 36, 0
2, 7411, Control_c, 9, 4, 15
2, 7453, Control_c, 9, 4, 45
2, 7457, Control_c, 9, 16, 42
2, 7457, Note_on_c, 9, 38, 45
2, 7463, Note_on_c, 9, 44, 41
2, 7484, Control_c, 9, 4, 94
2, 7526, Note_on_c, 9, 38, 0
2, 7532, Note_on_c, 9, 44, 0
2, 7554, Control_c, 9, 4, 89
2, 7579, Control_c, 9, 16, 0
2, 7580, Note_on_c, 9, 38, 46
2, 7593, Control_c, 9, 4, 84
2, 7624, Control_c, 9, 4, 68
2, 7648, Note_on_c, 9, 38, 0
2, 7658, Control_c, 9, 4, 30
2, 7659, End_track
0, 0, End_of_file
