0, 0, Header, 1, 2, 480
1, 0, Start_track
1, 0, Tempo, 588235
1, 0, Time_signature, 4, 2, 24, 8
1, 0, Key_signature, 0, "major"
1, 1, End_track
2, 0, Start_track
2, 0, Title_t, "Classic Studio Kit"
2, 0, Program_c, 9, 0
2, 0, Control_c, 9, 18, 0
2, 3, Control_c, 9, 4, 96
2, 34, Note_on_c, 9, 48, 62
2, 40, Control_c, 9, 17, 51
2, 41, Note_on_c, 9, 51, 59
2, 104, Control_c, 9, 4, 91
2, 116, Note_on_c, 9, 48, 0
2, 122, Note_on_c, 9, 51, 0
2, 151, Control_c, 9, 4, 80
2, 163, Control_c, 9, 17, 93
2, 164, Note_on_c, 9, 51, 64
2, 189, Control_c, 9, 4, 55
2, 221, Control_c, 9, 4, 0
2, 246, Note_on_c, 9, 51, 0
2, 259, Control_c, 9, 4, 48
2, 264, Note_on_c, 9, 44, 93
2, 267, Note_on_c, 9, 36, 49
2, 278, Control_c, 9, 17, 93
2, 278, Note_on_c, 9, 51, 5
2, 290, Control_c, 9, 4, 112
2, 321, Control_c, 9, 4, 99
2, 346, Note_on_c, 9, 44, 0
2, 349, Note_on_c, 9, 36, 0
2, 360, Control_c, 9, 4, 84
2, 360, Note_on_c, 9, 51, 0
2, 482, Control_c, 9, 4, 94
2, 511, Control_c, 9, 17, 28
2, 511, Note_on_c, 9, 36, 52
2, 513, Note_on_c, 9, 51, 83
2, 516, Control_c, 9, 16, 0
2, 517, Note_on_c, 9, 38, 54
2, 593, Note_on_c, 9, 36, 0
2, 593, Note_on_c, 9, 51, 0
2, 598, Note_on_c, 9, 38, 0
2, 607, Control_c, 9, 4, 83
2, 642, Control_c, 9, 4, 70
2, 687, Control_c, 9, 4, 0
2, 736, Control_c, 9, 4, 50
2, 740, Note_on_c, 9, 44, 106
2, 755, Control_c, 9, 17, 63
2, 755, Note_on_c, 9, 51, 70
2, 766, Control_c, 9, 4, 112
2, 802, Control_c, 9, 4, 98
2, 823, Note_on_c, 9, 44, 0
2, 837, Note_on_c, 9, 51, 0
2, 840, Control_c, 9, 4, 84
2, 872, Control_c, 9, 18, 0
2, 872, Note_on_c, 9, 48, 44
2, 880, Note_on_c, 9, 36, 45
2, 954, Note_on_c, 9, 48, 0
2, 959, Control_c, 9, 4, 97
2, 962, Note_on_c, 9, 36, 0
2, 996, Note_on_c, 9, 48, 54
2, 1000, Control_c, 9, 17, 67
2, 1001, Note_on_c, 9, 51, 57
2, 1051, Control_c, 9, 4, 92
2, 1077, Note_on_c, 9, 48, 0
2, 1082, Note_on_c, 9, 51, 0
2, 1102, Control_c, 9, 4, 80
2, 1120, Control_c, 9, 17, 99
2, 1120, Note_on_c, 9, 51, 63
2, 1145, Control_c, 9, 4, 57
2, 1146, Note_on_c, 9, 46, 7
2, 1180, Control_c, 9, 4, 0
2, 1202, Note_on_c, 9, 51, 0
2, 1213, Control_c, 9, 4, 49
2, 1217, Note_on_c, 9, 44, 87
2, 1227, Note_on_c, 9, 46, 0
2, 1229, Note_on_c, 9, 36, 44
2, 1243, Control_c, 9, 4, 112
2, 1276, Control_c, 9, 4, 98
2, 1300, Note_on_c, 9, 44, 0
2, 1312, Note_on_c, 9, 36, 0
2, 1319, Control_c, 9, 4, 85
2, 1352, Control_c, 9, 17, 43
2, 1353, Note_on_c, 9, 51, 80
2, 1426, Control_c, 9, 4, 90
2, 1435, Note_on_c, 9, 51, 0
2, 1472, Control_c, 9, 16, 21
2, 1473, Note_on_c, 9, 38, 59
2, 1480, Note_on_c, 9, 36, 54
2, 1553, Note_on_c, 9, 38, 0
2, 1561, Note_on_c, 9, 36, 0
2, 1571, Control_c, 9, 4, 83
2, 1612, Control_c, 9, 4, 70
2, 1657, Control_c, 9, 4, 0
2, 1693, Control_c, 9, 17, 101
2, 1693, Note_on_c, 9, 51, 71
2, 1698, Control_c, 9, 4, 50
2, 1703, Note_on_c, 9, 44, 93
2, 1728, Control_c, 9, 4, 114
2, 1760, Control_c, 9, 4, 100
2, 1775, Note_on_c, 9, 51, 0
2, 1785, Note_on_c, 9, 44, 0
2, 1791, Control_c, 9, 4, 85
2, 1807, Control_c, 9, 17, 101
2, 1808, Note_on_c, 9, 51, 5
2, 1823, Control_c, 9, 4, 81
2, 1823, Control_c, 9, 18, 0
2, 1823, Note_on_c, 9, 48, 44
2, 1838, Note_on_c, 9, 36, 45
2, 1890, Note_on_c, 9, 51, 0
2, 1905, Note_on_c, 9, 48, 0
2, 1918, Control_c, 9, 4, 96
2, 1920, Note_on_c, 9, 36, 0
2, 1953, Note_on_c, 9, 48, 52
2, 1958, Control_c, 9, 17, 72
2, 1959, Note_on_c, 9, 51, 62
2, 2027, Control_c, 9, 4, 91
2, 2034, Note_on_c, 9, 48, 0
2, 2040, Note_on_c, 9, 51, 0
2, 2071, Control_c, 9, 17, 127
2, 2071, Note_on_c, 9, 51, 67
2, 2081, Control_c, 9, 4, 78
2, 2112, Control_c, 9, 4, 54
2, 2147, Control_c, 9, 4, 0
2, 2153, Note_on_c, 9, 51, 0
2, 2177, Control_c, 9, 4, 49
2, 2183, Note_on_c, 9, 44, 87
2, 2187, Control_c, 9, 17, 127
2, 2188, Note_on_c, 9, 51, 6
2, 2197, Note_on_c, 9, 36, 41
2, 2208, Control_c, 9, 4, 106
2, 2242, Control_c, 9, 4, 97
2, 2264, Note_on_c, 9, 44, 0
2, 2269, Note_on_c, 9, 51, 0
2, 2279, Note_on_c, 9, 36, 0
2, 2282, Control_c, 9, 4, 84
2, 2379, Control_c, 9, 4, 89
2, 2431, Control_c, 9, 17, 44
2, 2432, Note_on_c, 9, 51, 86
2, 2433, Control_c, 9, 16, 0
2, 2433, Note_on_c, 9, 38, 58
2, 2434, Note_on_c, 9, 36, 55
2, 2463, Control_c, 9, 4, 93
2, 2512, Note_on_c, 9, 51, 0
2, 2514, Note_on_c, 9, 38, 0
2, 2517, Note_on_c, 9, 36, 0
2, 2535, Control_c, 9, 4, 82
2, 2574, Control_c, 9, 4, 70
2, 2610, Control_c, 9, 4, 0
2, 2657, Control_c, 9, 4, 33
2, 2664, Note_on_c, 9, 44, 113
2, 2679, Control_c, 9, 17, 93
2, 2680, Note_on_c, 9, 51, 70
2, 2690, Control_c, 9, 4, 112
2, 2723, Control_c, 9, 4, 98
2, 2746, Note_on_c, 9, 44, 0
2, 2761, Note_on_c, 9, 51, 0
2, 2763, Control_c, 9, 4, 85
2, 2789, Control_c, 9, 18, 0
2, 2789, Note_on_c, 9, 48, 43
2, 2794, Note_on_c, 9, 36, 35
2, 2869, Control_c, 9, 4, 91
2, 2871, Note_on_c, 9, 48, 0
2, 2876, Note_on_c, 9, 36, 0
2, 2899, Control_c, 9, 4, 102
2, 2909, Control_c, 9, 17, 93
2, 2909, Note_on_c, 9, 48, 56
2, 2911, Note_on_c, 9, 51, 57
2, 2957, Control_c, 9, 4, 96
2, 2992, Note_on_c, 9, 48, 0
2, 2992, Note_on_c, 9, 51, 0
2, 2995, Control_c, 9, 4, 83
2, 3025, Control_c, 9, 4, 69
2, 3036, Control_c, 9, 17, 101
2, 3037, Note_on_c, 9, 51, 65
2, 3060, Control_c, 9, 4, 0
2, 3118, Note_on_c, 9, 51, 0
2, 3130, Control_c, 9, 4, 33
2, 3134, Note_on_c, 9, 36, 54
2, 3136, Note_on_c, 9, 44, 127
2, 3161, Control_c, 9, 4, 112
2, 3216, Note_on_c, 9, 36, 0
2, 3218, Note_on_c, 9, 44, 0
2, 3220, Control_c, 9, 4, 90
2, 3252, Control_c, 9, 4, 73
2, 3296, Control_c, 9, 4, 0
2, 3367, Control_c, 9, 4, 32
2, 3374, Control_c, 9, 17, 47
2, 3374, Note_on_c, 9, 44, 113
2, 3375, Note_on_c, 9, 51, 86
2, 3381, Note_on_c, 9, 38, 65
2, 3386, Note_on_c, 9, 36, 77
2, 3399, Control_c, 9, 4, 106
2, 3444, Control_c, 9, 4, 90
2, 3455, Note_on_c, 9, 44, 0
2, 3457, Note_on_c, 9, 51, 0
2, 3463, Note_on_c, 9, 38, 0
2, 3468, Note_on_c, 9, 36, 0
2, 3481, Control_c, 9, 4, 76
2, 3621, Control_c, 9, 4, 106
2, 3624, Control_c, 9, 17, 127
2, 3624, Note_on_c, 9, 51, 74
2, 3674, Control_c, 9, 4, 102
2, 3706, Note_on_c, 9, 51, 0
2, 3707, Control_c, 9, 4, 86
2, 3734, Control_c, 9, 18, 0
2, 3735, Note_on_c, 9, 48, 43
2, 3738, Note_on_c, 9, 36, 54
2, 3742, Control_c, 9, 4, 70
2, 3780, Control_c, 9, 4, 0
2, 3817, Note_on_c, 9, 48, 0
2, 3821, Note_on_c, 9, 36, 0
2, 3847, Control_c, 9, 4, 33
2, 3848, Note_on_c, 9, 51, 41
2, 3853, Note_on_c, 9, 44, 127
2, 3858, Control_c, 9, 18, 64
2, 3859, Note_on_c, 9, 48, 61
2, 3878, Control_c, 9, 4, 120
2, 3929, Note_on_c, 9, 51, 0
2, 3934, Note_on_c, 9, 44, 0
2, 3941, Note_on_c, 9, 48, 0
2, 3942, Control_c, 9, 4, 92
2, 3974, Control_c, 9, 17, 127
2, 3974, Note_on_c, 9, 51, 67
2, 4055, Note_on_c, 9, 51, 0
2, 4082, Control_c, 9, 4, 98
2, 4089, Control_c, 9, 17, 127
2, 4089, Note_on_c, 9, 51, 4
2, 4105, Note_on_c, 9, 36, 68
2, 4145, Control_c, 9, 4, 93
2, 4171, Note_on_c, 9, 51, 0
2, 4186, Note_on_c, 9, 36, 0
2, 4327, Control_c, 9, 17, 74
2, 4328, Note_on_c, 9, 51, 84
2, 4335, Control_c, 9, 16, 0
2, 4335, Note_on_c, 9, 38, 67
2, 4339, Note_on_c, 9, 36, 67
2, 4410, Note_on_c, 9, 51, 0
2, 4416, Note_on_c, 9, 38, 0
2, 4420, Control_c, 9, 4, 83
2, 4422, Note_on_c, 9, 36, 0
2, 4452, Control_c, 9, 4, 70
2, 4490, Control_c, 9, 4, 0
2, 4548, Control_c, 9, 4, 34
2, 4554, Note_on_c, 9, 44, 119
2, 4579, Control_c, 9, 4, 120
2, 4582, Control_c, 9, 17, 127
2, 4583, Note_on_c, 9, 51, 69
2, 4623, Control_c, 9, 4, 97
2, 4636, Note_on_c, 9, 44, 0
2, 4662, Control_c, 9, 4, 87
2, 4664, Note_on_c, 9, 51, 0
2, 4688, Control_c, 9, 18, 0
2, 4689, Note_on_c, 9, 48, 43
2, 4702, Note_on_c, 9, 36, 52
2, 4770, Note_on_c, 9, 48, 0
2, 4784, Note_on_c, 9, 36, 0
2, 4798, Note_on_c, 9, 51, 48
2, 4800, Control_c, 9, 4, 110
2, 4807, Note_on_c, 9, 48, 57
2, 4856, Control_c, 9, 4, 99
2, 4880, Note_on_c, 9, 51, 0
2, 4889, Note_on_c, 9, 48, 0
2, 4894, Control_c, 9, 4, 83
2, 4925, Control_c, 9, 4, 70
2, 4932, Control_c, 9, 17, 127
2, 4933, Note_on_c, 9, 51, 69
2, 4962, Control_c, 9, 4, 0
2, 5014, Note_on_c, 9, 51, 0
2, 5035, Note_on_c, 9, 46, 8
2, 5042, Control_c, 9, 4, 35
2, 5045, Note_on_c, 9, 36, 59
2, 5047, Note_on_c, 9, 44, 127
2, 5072, Control_c, 9, 4, 118
2, 5116, Note_on_c, 9, 46, 0
2, 5122, Control_c, 9, 4, 94
2, 5126, Note_on_c, 9, 36, 0
2, 5129, Note_on_c, 9, 44, 0
2, 5163, Control_c, 9, 4, 69
2, 5194, Control_c, 9, 4, 0
2, 5234, Control_c, 9, 4, 0
2, 5235, Note_on_c, 9, 46, 26
2, 5276, Note_on_c, 9, 46, 0
2, 5277, Note_on_c, 9, 46, 16
2, 5285, Control_c, 9, 4, 33
2, 5288, Control_c, 9, 17, 59
2, 5289, Note_on_c, 9, 51, 87
2, 5292, Note_on_c, 9, 44, 119
2, 5297, Note_on_c, 9, 36, 81
2, 5297, Note_on_c, 9, 38, 63
2, 5316, Note_on_c, 9, 46, 0
2, 5317, Control_c, 9, 4, 108
2, 5363, Control_c, 9, 4, 94
2, 5370, Note_on_c, 9, 51, 0
2, 5373, Note_on_c, 9, 44, 0
2, 5377, Note_on_c, 9, 38, 0
2, 5378, Note_on_c, 9, 36, 0
2, 5395, Control_c, 9, 4, 83
2, 5534, Control_c, 9, 4, 118
2, 5538, Control_c, 9, 17, 127
2, 5538, Note_on_c, 9, 51, 69
2, 5581, Control_c, 9, 4, 99
2, 5613, Control_c, 9, 4, 83
2, 5620, Note_on_c, 9, 51, 0
2, 5640, Note_on_c, 9, 36, 61
2, 5644, Control_c, 9, 4, 69
2, 5653, Control_c, 9, 18, 0
2, 5653, Note_on_c, 9, 48, 43
2, 5675, Control_c, 9, 4, 0
2, 5721, Note_on_c, 9, 36, 0
2, 5735, Note_on_c, 9, 48, 0
2, 5748, Note_on_c, 9, 46, 9
2, 5751, Control_c, 9, 17, 127
2, 5752, Note_on_c, 9, 51, 42
2, 5755, Control_c, 9, 4, 34
2, 5760, Note_on_c, 9, 44, 127
2, 5773, Note_on_c, 9, 48, 63
2, 5786, Control_c, 9, 4, 120
2, 5829, Note_on_c, 9, 46, 0
2, 5834, Note_on_c, 9, 51, 0
2, 5842, Note_on_c, 9, 44, 0
2, 5852, Control_c, 9, 4, 91
2, 5854, Note_on_c, 9, 48, 0
2, 5888, Control_c, 9, 17, 93
2, 5888, Note_on_c, 9, 51, 68
2, 5969, Note_on_c, 9, 51, 0
2, 5990, Control_c, 9, 4, 104
2, 5994, Note_on_c, 9, 36, 57
2, 6003, Control_c, 9, 17, 93
2, 6004, Note_on_c, 9, 51, 5
2, 6044, Control_c, 9, 4, 92
2, 6075, Note_on_c, 9, 36, 0
2, 6084, Note_on_c, 9, 51, 0
2, 6230, Note_on_c, 9, 36, 54
2, 6235, Control_c, 9, 17, 43
2, 6236, Note_on_c, 9, 51, 83
2, 6241, Control_c, 9, 16, 0
2, 6241, Note_on_c, 9, 38, 68
2, 6313, Note_on_c, 9, 36, 0
2, 6317, Note_on_c, 9, 51, 0
2, 6323, Note_on_c, 9, 38, 0
2, 6357, Control_c, 9, 4, 70
2, 6393, Control_c, 9, 4, 0
2, 6457, Note_on_c, 9, 46, 8
2, 6465, Control_c, 9, 4, 35
2, 6471, Note_on_c, 9, 44, 127
2, 6495, Control_c, 9, 17, 127
2, 6495, Note_on_c, 9, 51, 70
2, 6497, Control_c, 9, 4, 118
2, 6538, Note_on_c, 9, 46, 0
2, 6541, Control_c, 9, 4, 98
2, 6553, Note_on_c, 9, 44, 0
2, 6576, Note_on_c, 9, 51, 0
2, 6583, Control_c, 9, 4, 87
2, 6601, Control_c, 9, 18, 0
2, 6602, Note_on_c, 9, 48, 43
2, 6615, Note_on_c, 9, 36, 44
2, 6683, Note_on_c, 9, 48, 0
2, 6697, Note_on_c, 9, 36, 0
2, 6719, Note_on_c, 9, 51, 45
2, 6722, Control_c, 9, 4, 110
2, 6726, Note_on_c, 9, 48, 57
2, 6801, Note_on_c, 9, 51, 0
2, 6808, Note_on_c, 9, 48, 0
2, 6815, Control_c, 9, 4, 90
2, 6849, Control_c, 9, 4, 73
2, 6855, Control_c, 9, 17, 127
2, 6855, Note_on_c, 9, 51, 67
2, 6891, Control_c, 9, 4, 0
2, 6937, Note_on_c, 9, 51, 0
2, 6962, Note_on_c, 9, 46, 11
2, 6965, Note_on_c, 9, 36, 55
2, 6968, Control_c, 9, 4, 35
2, 6974, Note_on_c, 9, 44, 127
2, 6999, Control_c, 9, 4, 124
2, 7039, Control_c, 9, 4, 102
2, 7043, Note_on_c, 9, 46, 0
2, 7047, Note_on_c, 9, 36, 0
2, 7055, Note_on_c, 9, 44, 0
2, 7079, Control_c, 9, 4, 70
2, 7117, Control_c, 9, 4, 0
2, 7189, Note_on_c, 9, 46, 10
2, 7202, Control_c, 9, 4, 48
2, 7207, Control_c, 9, 17, 52
2, 7207, Note_on_c, 9, 44, 113
2, 7209, Note_on_c, 9, 51, 86
2, 7213, Note_on_c, 9, 36, 78
2, 7216, Note_on_c, 9, 38, 62
2, 7232, Control_c, 9, 4, 98
2, 7272, Note_on_c, 9, 46, 0
2, 7289, Note_on_c, 9, 44, 0
2, 7290, Note_on_c, 9, 51, 0
2, 7294, Note_on_c, 9, 36, 0
2, 7298, Note_on_c, 9, 38, 0
2, 7308, Control_c, 9, 4, 83
2, 7342, Control_c, 9, 4, 79
2, 7422, Control_c, 9, 4, 90
2, 7458, Control_c, 9, 17, 127
2, 7459, Note_on_c, 9, 51, 64
2, 7460, Control_c, 9, 4, 118
2, 7512, Control_c, 9, 4, 90
2, 7540, Note_on_c, 9, 51, 0
2, 7546, Control_c, 9, 4, 73
2, 7560, Note_on_c, 9, 36, 52
2, 7566, Control_c, 9, 18, 0
2, 7566, Note_on_c, 9, 48, 44
2, 7587, Control_c, 9, 4, 0
2, 7642, Note_on_c, 9, 36, 0
2, 7649, Note_on_c, 9, 48, 0
2, 7665, Control_c, 9, 4, 16
2, 7666, Control_c, 9, 17, 0
2, 7667, End_track
0, 0, End_of_file
