0, 0, Header, 1, 2, 480
1, 0, Start_track
1, 0, Tempo, 500000
1, 0, Time_signature, 4, 2, 24, 8
1, 0, Key_signature, 0, "major"
1, 1, End_track
2, 0, Start_track
2, 0, Title_t, "Blue Ridge"
2, 0, Program_c, 9, 0
2, 23, Note_on_c, 9, 59, 58
2, 29, Note_on_c, 9, 36, 72
2, 120, Note_on_c, 9, 59, 0
2, 126, Note_on_c, 9, 36, 0
2, 354, Note_on_c, 9, 36, 66
2, 451, Note_on_c, 9, 36, 0
2, 487, Note_on_c, 9, 51, 102
2, 496, Note_on_c, 9, 40, 91
2, 585, Note_on_c, 9, 51, 0
2, 592, Note_on_c, 9, 40, 0
2, 681, Note_on_c, 9, 51, 61
2, 779, Note_on_c, 9, 51, 0
2, 831, Note_on_c, 9, 59, 81
2, 928, Note_on_c, 9, 59, 0
2, 974, Note_on_c, 9, 36, 65
2, 1070, Note_on_c, 9, 36, 0
2, 1134, Note_on_c, 9, 51, 79
2, 1231, Note_on_c, 9, 51, 0
2, 1283, Note_on_c, 9, 36, 62
2, 1380, Note_on_c, 9, 36, 0
2, 1442, Note_on_c, 9, 51, 105
2, 1452, Note_on_c, 9, 37, 87
2, 1539, Note_on_c, 9, 51, 0
2, 1549, Note_on_c, 9, 37, 0
2, 1603, Note_on_c, 9, 36, 57
2, 1699, Note_on_c, 9, 36, 0
2, 1744, Note_on_c, 9, 51, 79
2, 1841, Note_on_c, 9, 51, 0
2, 1907, Note_on_c, 9, 36, 71
2, 2003, Note_on_c, 9, 36, 0
2, 2046, Note_on_c, 9, 51, 86
2, 2143, Note_on_c, 9, 51, 0
2, 2214, Note_on_c, 9, 40, 100
2, 2311, Note_on_c, 9, 40, 0
2, 2400, Note_on_c, 9, 59, 72
2, 2496, Note_on_c, 9, 59, 0
2, 2548, Note_on_c, 9, 36, 76
2, 2645, Note_on_c, 9, 36, 0
2, 2711, Note_on_c, 9, 38, 80
2, 2808, Note_on_c, 9, 38, 0
2, 2890, Note_on_c, 9, 40, 127
2, 2987, Note_on_c, 9, 40, 0
2, 3046, Note_on_c, 9, 38, 127
2, 3142, Note_on_c, 9, 38, 0
2, 3196, Note_on_c, 9, 38, 127
2, 3293, Note_on_c, 9, 38, 0
2, 3356, Note_on_c, 9, 48, 127
2, 3453, Note_on_c, 9, 48, 0
2, 3506, Note_on_c, 9, 48, 100
2, 3603, Note_on_c, 9, 48, 0
2, 3660, Note_on_c, 9, 48, 127
2, 3756, Note_on_c, 9, 48, 0
2, 3817, Note_on_c, 9, 36, 75
2, 3824, Note_on_c, 9, 55, 92
2, 3914, Note_on_c, 9, 36, 0
2, 3921, Note_on_c, 9, 55, 0
2, 4136, Note_on_c, 9, 36, 49
2, 4233, Note_on_c, 9, 36, 0
2, 4298, Note_on_c, 9, 51, 71
2, 4300, Note_on_c, 9, 38, 127
2, 4394, Note_on_c, 9, 51, 0
2, 4397, Note_on_c, 9, 38, 0
2, 4605, Note_on_c, 9, 51, 59
2, 4701, Note_on_c, 9, 51, 0
2, 4771, Note_on_c, 9, 51, 115
2, 4775, Note_on_c, 9, 36, 55
2, 4868, Note_on_c, 9, 51, 0
2, 4872, Note_on_c, 9, 36, 0
2, 5082, Note_on_c, 9, 51, 53
2, 5179, Note_on_c, 9, 51, 0
2, 5234, Note_on_c, 9, 36, 58
2, 5244, Note_on_c, 9, 38, 89
2, 5244, Note_on_c, 9, 51, 117
2, 5331, Note_on_c, 9, 36, 0
2, 5340, Note_on_c, 9, 38, 0
2, 5340, Note_on_c, 9, 51, 0
2, 5575, Note_on_c, 9, 51, 55
2, 5672, Note_on_c, 9, 51, 0
2, 5740, Note_on_c, 9, 36, 55
2, 5747, Note_on_c, 9, 51, 102
2, 5837, Note_on_c, 9, 36, 0
2, 5843, Note_on_c, 9, 51, 0
2, 6051, Note_on_c, 9, 51, 45
2, 6148, Note_on_c, 9, 51, 0
2, 6209, Note_on_c, 9, 38, 85
2, 6209, Note_on_c, 9, 51, 98
2, 6215, Note_on_c, 9, 36, 56
2, 6305, Note_on_c, 9, 38, 0
2, 6305, Note_on_c, 9, 51, 0
2, 6312, Note_on_c, 9, 36, 0
2, 6552, Note_on_c, 9, 51, 44
2, 6649, Note_on_c, 9, 51, 0
2, 6694, Note_on_c, 9, 36, 55
2, 6706, Note_on_c, 9, 51, 96
2, 6791, Note_on_c, 9, 36, 0
2, 6802, Note_on_c, 9, 51, 0
2, 7011, Note_on_c, 9, 51, 55
2, 7108, Note_on_c, 9, 51, 0
2, 7164, Note_on_c, 9, 38, 93
2, 7167, Note_on_c, 9, 36, 55
2, 7169, Note_on_c, 9, 51, 121
2, 7260, Note_on_c, 9, 38, 0
2, 7264, Note_on_c, 9, 36, 0
2, 7264, Note_on_c, 9, 51, 0
2, 7499, Note_on_c, 9, 51, 51
2, 7595, Note_on_c, 9, 51, 0
2, 7596, End_track
0, 0, End_of_file
