0, 0, Header, 1, 2, 480
1, 0, Start_track
1, 0, Tempo, 588235
1, 0, Time_signature, 4, 2, 24, 8
1, 0, Key_signature, 0, "major"
1, 1, End_track
2, 0, Start_track
2, 0, Title_t, "Classic Studio Kit"
2, 0, Program_c, 9, 0
2, 0, Control_c, 9, 18, 0
2, 11, Control_c, 9, 4, 110
2, 14, Control_c, 9, 17, 67
2, 15, Note_on_c, 9, 51, 60
2, 95, Note_on_c, 9, 51, 0
2, 101, Control_c, 9, 4, 102
2, 134, Control_c, 9, 4, 90
2, 141, Control_c, 9, 17, 127
2, 141, Note_on_c, 9, 51, 72
2, 167, Control_c, 9, 4, 73
2, 209, Control_c, 9, 4, 0
2, 223, Note_on_c, 9, 51, 0
2, 247, Note_on_c, 9, 36, 52
2, 252, Note_on_c, 9, 46, 62
2, 254, Note_on_c, 9, 44, 100
2, 260, Control_c, 9, 4, 127
2, 263, Note_on_c, 9, 38, 54
2, 302, Control_c, 9, 4, 118
2, 330, Note_on_c, 9, 36, 0
2, 334, Note_on_c, 9, 44, 0
2, 334, Note_on_c, 9, 46, 0
2, 341, Control_c, 9, 4, 90
2, 344, Note_on_c, 9, 38, 0
2, 382, Control_c, 9, 17, 26
2, 383, Note_on_c, 9, 51, 67
2, 464, Note_on_c, 9, 51, 0
2, 488, Note_on_c, 9, 36, 80
2, 493, Control_c, 9, 4, 110
2, 495, Note_on_c, 9, 48, 61
2, 566, Control_c, 9, 4, 96
2, 570, Note_on_c, 9, 36, 0
2, 576, Note_on_c, 9, 48, 0
2, 606, Control_c, 9, 4, 85
2, 654, Control_c, 9, 4, 54
2, 684, Control_c, 9, 4, 0
2, 720, Control_c, 9, 4, 50
2, 722, Control_c, 9, 17, 53
2, 722, Note_on_c, 9, 51, 89
2, 725, Note_on_c, 9, 44, 93
2, 728, Control_c, 9, 16, 0
2, 729, Note_on_c, 9, 38, 52
2, 751, Control_c, 9, 4, 120
2, 805, Note_on_c, 9, 51, 0
2, 806, Note_on_c, 9, 44, 0
2, 809, Note_on_c, 9, 38, 0
2, 819, Control_c, 9, 4, 91
2, 865, Note_on_c, 9, 36, 43
2, 947, Note_on_c, 9, 36, 0
2, 967, Control_c, 9, 4, 112
2, 975, Control_c, 9, 17, 9
2, 976, Note_on_c, 9, 51, 83
2, 977, Control_c, 9, 18, 0
2, 978, Note_on_c, 9, 48, 63
2, 1019, Control_c, 9, 4, 104
2, 1057, Note_on_c, 9, 51, 0
2, 1059, Control_c, 9, 4, 92
2, 1059, Note_on_c, 9, 48, 0
2, 1092, Control_c, 9, 4, 86
2, 1122, Control_c, 9, 4, 70
2, 1158, Control_c, 9, 4, 23
2, 1192, Control_c, 9, 4, 48
2, 1199, Note_on_c, 9, 44, 74
2, 1203, Note_on_c, 9, 36, 48
2, 1224, Control_c, 9, 4, 120
2, 1241, Note_on_c, 9, 49, 5
2, 1281, Note_on_c, 9, 44, 0
2, 1283, Control_c, 9, 4, 90
2, 1286, Note_on_c, 9, 36, 0
2, 1320, Control_c, 9, 4, 86
2, 1323, Note_on_c, 9, 49, 0
2, 1429, Control_c, 9, 4, 98
2, 1455, Note_on_c, 9, 36, 59
2, 1460, Note_on_c, 9, 38, 80
2, 1462, Control_c, 9, 17, 9
2, 1462, Note_on_c, 9, 51, 85
2, 1537, Note_on_c, 9, 36, 0
2, 1541, Note_on_c, 9, 38, 0
2, 1544, Note_on_c, 9, 51, 0
2, 1559, Control_c, 9, 4, 85
2, 1598, Control_c, 9, 4, 71
2, 1638, Control_c, 9, 4, 25
2, 1673, Control_c, 9, 4, 48
2, 1681, Note_on_c, 9, 44, 61
2, 1683, Note_on_c, 9, 46, 53
2, 1707, Control_c, 9, 4, 120
2, 1708, Control_c, 9, 17, 127
2, 1709, Note_on_c, 9, 51, 56
2, 1763, Note_on_c, 9, 44, 0
2, 1763, Note_on_c, 9, 46, 0
2, 1766, Control_c, 9, 4, 91
2, 1790, Note_on_c, 9, 51, 0
2, 1804, Control_c, 9, 4, 87
2, 1826, Note_on_c, 9, 36, 42
2, 1826, Note_on_c, 9, 48, 71
2, 1908, Note_on_c, 9, 36, 0
2, 1908, Note_on_c, 9, 48, 0
2, 1927, Control_c, 9, 4, 98
2, 1952, Control_c, 9, 17, 98
2, 1953, Note_on_c, 9, 51, 65
2, 2036, Note_on_c, 9, 51, 0
2, 2059, Control_c, 9, 4, 85
2, 2068, Note_on_c, 9, 51, 5
2, 2081, Control_c, 9, 17, 127
2, 2082, Note_on_c, 9, 51, 0
2, 2083, Note_on_c, 9, 51, 77
2, 2095, Control_c, 9, 4, 70
2, 2130, Control_c, 9, 4, 23
2, 2150, Note_on_c, 9, 51, 0
2, 2161, Control_c, 9, 4, 47
2, 2169, Note_on_c, 9, 44, 67
2, 2170, Note_on_c, 9, 46, 54
2, 2173, Note_on_c, 9, 36, 52
2, 2194, Control_c, 9, 4, 120
2, 2250, Note_on_c, 9, 44, 0
2, 2251, Note_on_c, 9, 46, 0
2, 2253, Control_c, 9, 4, 92
2, 2255, Note_on_c, 9, 36, 0
2, 2283, Control_c, 9, 4, 87
2, 2401, Control_c, 9, 4, 98
2, 2407, Control_c, 9, 16, 0
2, 2407, Note_on_c, 9, 38, 60
2, 2414, Control_c, 9, 17, 11
2, 2414, Note_on_c, 9, 51, 81
2, 2427, Note_on_c, 9, 36, 57
2, 2490, Note_on_c, 9, 38, 0
2, 2495, Note_on_c, 9, 51, 0
2, 2508, Note_on_c, 9, 36, 0
2, 2528, Control_c, 9, 4, 85
2, 2567, Control_c, 9, 4, 70
2, 2602, Control_c, 9, 4, 22
2, 2640, Control_c, 9, 4, 43
2, 2648, Note_on_c, 9, 44, 74
2, 2659, Control_c, 9, 17, 127
2, 2659, Note_on_c, 9, 51, 60
2, 2674, Control_c, 9, 4, 120
2, 2731, Note_on_c, 9, 44, 0
2, 2732, Control_c, 9, 4, 91
2, 2741, Note_on_c, 9, 51, 0
2, 2762, Control_c, 9, 4, 86
2, 2775, Note_on_c, 9, 51, 4
2, 2777, Control_c, 9, 18, 0
2, 2778, Note_on_c, 9, 48, 61
2, 2787, Note_on_c, 9, 36, 44
2, 2857, Note_on_c, 9, 51, 0
2, 2860, Note_on_c, 9, 48, 0
2, 2871, Note_on_c, 9, 36, 0
2, 2881, Control_c, 9, 4, 100
2, 2902, Control_c, 9, 17, 127
2, 2903, Note_on_c, 9, 51, 65
2, 2973, Control_c, 9, 4, 95
2, 2985, Note_on_c, 9, 51, 0
2, 3019, Control_c, 9, 4, 83
2, 3019, Note_on_c, 9, 51, 5
2, 3030, Control_c, 9, 17, 127
2, 3031, Note_on_c, 9, 51, 0
2, 3031, Note_on_c, 9, 51, 72
2, 3062, Control_c, 9, 4, 53
2, 3094, Control_c, 9, 4, 0
2, 3102, Note_on_c, 9, 51, 0
2, 3126, Control_c, 9, 4, 48
2, 3132, Note_on_c, 9, 44, 87
2, 3138, Note_on_c, 9, 36, 42
2, 3157, Control_c, 9, 4, 118
2, 3199, Control_c, 9, 4, 97
2, 3214, Note_on_c, 9, 44, 0
2, 3219, Note_on_c, 9, 36, 0
2, 3239, Control_c, 9, 4, 87
2, 3363, Control_c, 9, 4, 98
2, 3376, Control_c, 9, 17, 58
2, 3377, Note_on_c, 9, 51, 83
2, 3379, Control_c, 9, 16, 21
2, 3379, Note_on_c, 9, 38, 65
2, 3381, Note_on_c, 9, 36, 54
2, 3452, Control_c, 9, 4, 93
2, 3458, Note_on_c, 9, 51, 0
2, 3461, Note_on_c, 9, 38, 0
2, 3463, Note_on_c, 9, 36, 0
2, 3496, Control_c, 9, 4, 82
2, 3542, Control_c, 9, 4, 52
2, 3572, Control_c, 9, 4, 9
2, 3603, Control_c, 9, 4, 57
2, 3608, Note_on_c, 9, 44, 80
2, 3621, Control_c, 9, 17, 127
2, 3621, Note_on_c, 9, 51, 72
2, 3633, Control_c, 9, 4, 120
2, 3675, Control_c, 9, 4, 98
2, 3689, Note_on_c, 9, 44, 0
2, 3703, Note_on_c, 9, 51, 0
2, 3717, Control_c, 9, 4, 85
2, 3737, Note_on_c, 9, 51, 5
2, 3744, Note_on_c, 9, 48, 61
2, 3749, Note_on_c, 9, 36, 48
2, 3819, Note_on_c, 9, 51, 0
2, 3825, Note_on_c, 9, 48, 0
2, 3830, Note_on_c, 9, 36, 0
2, 3838, Control_c, 9, 4, 98
2, 3864, Control_c, 9, 17, 127
2, 3865, Note_on_c, 9, 51, 62
2, 3937, Control_c, 9, 4, 92
2, 3946, Note_on_c, 9, 51, 0
2, 3968, Control_c, 9, 4, 85
2, 3980, Note_on_c, 9, 51, 5
2, 3989, Control_c, 9, 17, 127
2, 3989, Note_on_c, 9, 51, 0
2, 3990, Note_on_c, 9, 51, 72
2, 4006, Control_c, 9, 4, 70
2, 4042, Control_c, 9, 4, 23
2, 4061, Note_on_c, 9, 51, 0
2, 4076, Control_c, 9, 4, 46
2, 4083, Note_on_c, 9, 44, 67
2, 4085, Note_on_c, 9, 46, 55
2, 4093, Note_on_c, 9, 36, 42
2, 4101, Control_c, 9, 16, 0
2, 4102, Note_on_c, 9, 38, 65
2, 4109, Control_c, 9, 4, 114
2, 4144, Control_c, 9, 4, 99
2, 4165, Note_on_c, 9, 44, 0
2, 4166, Note_on_c, 9, 46, 0
2, 4175, Note_on_c, 9, 36, 0
2, 4183, Note_on_c, 9, 38, 0
2, 4189, Control_c, 9, 4, 87
2, 4230, Control_c, 9, 17, 45
2, 4230, Note_on_c, 9, 51, 67
2, 4313, Note_on_c, 9, 51, 0
2, 4322, Control_c, 9, 4, 96
2, 4334, Note_on_c, 9, 36, 59
2, 4415, Note_on_c, 9, 36, 0
2, 4416, Control_c, 9, 4, 91
2, 4466, Control_c, 9, 4, 77
2, 4496, Control_c, 9, 4, 54
2, 4526, Control_c, 9, 4, 11
2, 4561, Control_c, 9, 4, 59
2, 4566, Note_on_c, 9, 44, 74
2, 4570, Control_c, 9, 17, 127
2, 4571, Note_on_c, 9, 51, 88
2, 4577, Note_on_c, 9, 38, 63
2, 4592, Control_c, 9, 4, 116
2, 4637, Control_c, 9, 4, 94
2, 4648, Note_on_c, 9, 44, 0
2, 4652, Note_on_c, 9, 51, 0
2, 4659, Note_on_c, 9, 38, 0
2, 4677, Control_c, 9, 4, 85
2, 4717, Note_on_c, 9, 36, 39
2, 4799, Note_on_c, 9, 36, 0
2, 4804, Control_c, 9, 4, 98
2, 4810, Control_c, 9, 17, 90
2, 4811, Note_on_c, 9, 51, 73
2, 4893, Note_on_c, 9, 51, 0
2, 4912, Control_c, 9, 4, 87
2, 4935, Control_c, 9, 18, 0
2, 4935, Note_on_c, 9, 48, 67
2, 4950, Control_c, 9, 4, 72
2, 4996, Control_c, 9, 4, 0
2, 5017, Note_on_c, 9, 48, 0
2, 5045, Control_c, 9, 4, 50
2, 5049, Note_on_c, 9, 44, 106
2, 5050, Control_c, 9, 16, 0
2, 5051, Note_on_c, 9, 36, 57
2, 5051, Note_on_c, 9, 38, 53
2, 5075, Control_c, 9, 4, 116
2, 5123, Control_c, 9, 4, 92
2, 5131, Note_on_c, 9, 38, 0
2, 5131, Note_on_c, 9, 44, 0
2, 5133, Note_on_c, 9, 36, 0
2, 5155, Control_c, 9, 4, 85
2, 5275, Control_c, 9, 4, 97
2, 5296, Note_on_c, 9, 36, 67
2, 5301, Control_c, 9, 17, 46
2, 5301, Note_on_c, 9, 38, 72
2, 5302, Note_on_c, 9, 51, 86
2, 5369, Control_c, 9, 4, 92
2, 5378, Note_on_c, 9, 36, 0
2, 5381, Note_on_c, 9, 38, 0
2, 5381, Note_on_c, 9, 51, 0
2, 5399, Control_c, 9, 4, 84
2, 5450, Control_c, 9, 4, 54
2, 5484, Control_c, 9, 4, 0
2, 5514, Control_c, 9, 4, 49
2, 5520, Note_on_c, 9, 44, 80
2, 5532, Control_c, 9, 17, 127
2, 5532, Note_on_c, 9, 51, 43
2, 5545, Control_c, 9, 4, 116
2, 5588, Control_c, 9, 4, 96
2, 5603, Note_on_c, 9, 44, 0
2, 5614, Note_on_c, 9, 51, 0
2, 5630, Control_c, 9, 4, 85
2, 5653, Note_on_c, 9, 36, 51
2, 5659, Note_on_c, 9, 48, 66
2, 5735, Note_on_c, 9, 36, 0
2, 5740, Note_on_c, 9, 48, 0
2, 5748, Control_c, 9, 4, 97
2, 5784, Control_c, 9, 17, 127
2, 5784, Note_on_c, 9, 51, 64
2, 5854, Control_c, 9, 4, 92
2, 5866, Note_on_c, 9, 51, 0
2, 5884, Control_c, 9, 4, 84
2, 5901, Note_on_c, 9, 51, 5
2, 5905, Control_c, 9, 17, 115
2, 5905, Note_on_c, 9, 51, 0
2, 5907, Note_on_c, 9, 51, 72
2, 5926, Control_c, 9, 4, 70
2, 5966, Control_c, 9, 4, 27
2, 5983, Note_on_c, 9, 51, 0
2, 5997, Control_c, 9, 4, 52
2, 6003, Note_on_c, 9, 44, 61
2, 6005, Note_on_c, 9, 46, 55
2, 6010, Note_on_c, 9, 36, 48
2, 6012, Control_c, 9, 16, 0
2, 6012, Note_on_c, 9, 38, 53
2, 6028, Control_c, 9, 4, 116
2, 6073, Control_c, 9, 4, 95
2, 6086, Note_on_c, 9, 44, 0
2, 6086, Note_on_c, 9, 46, 0
2, 6093, Note_on_c, 9, 36, 0
2, 6093, Note_on_c, 9, 38, 0
2, 6114, Control_c, 9, 4, 84
2, 6141, Control_c, 9, 17, 115
2, 6141, Note_on_c, 9, 51, 57
2, 6223, Note_on_c, 9, 51, 0
2, 6233, Control_c, 9, 4, 96
2, 6247, Note_on_c, 9, 36, 54
2, 6256, Note_on_c, 9, 51, 5
2, 6258, Note_on_c, 9, 38, 66
2, 6265, Control_c, 9, 17, 127
2, 6265, Note_on_c, 9, 51, 0
2, 6267, Note_on_c, 9, 51, 79
2, 6329, Note_on_c, 9, 36, 0
2, 6330, Control_c, 9, 4, 90
2, 6338, Note_on_c, 9, 51, 0
2, 6339, Note_on_c, 9, 38, 0
2, 6360, Control_c, 9, 4, 83
2, 6410, Control_c, 9, 4, 54
2, 6443, Control_c, 9, 4, 0
2, 6475, Control_c, 9, 4, 49
2, 6480, Note_on_c, 9, 44, 87
2, 6492, Control_c, 9, 17, 0
2, 6493, Note_on_c, 9, 51, 55
2, 6505, Control_c, 9, 4, 116
2, 6562, Control_c, 9, 4, 90
2, 6562, Note_on_c, 9, 44, 0
2, 6574, Note_on_c, 9, 51, 0
2, 6597, Control_c, 9, 4, 85
2, 6614, Note_on_c, 9, 36, 51
2, 6618, Control_c, 9, 18, 0
2, 6618, Note_on_c, 9, 48, 63
2, 6697, Note_on_c, 9, 36, 0
2, 6699, Note_on_c, 9, 48, 0
2, 6709, Control_c, 9, 4, 98
2, 6736, Control_c, 9, 17, 81
2, 6737, Note_on_c, 9, 51, 65
2, 6807, Control_c, 9, 4, 92
2, 6818, Note_on_c, 9, 51, 0
2, 6838, Control_c, 9, 4, 84
2, 6853, Note_on_c, 9, 51, 4
2, 6859, Control_c, 9, 17, 0
2, 6859, Note_on_c, 9, 51, 0
2, 6861, Note_on_c, 9, 51, 61
2, 6874, Control_c, 9, 4, 70
2, 6908, Control_c, 9, 4, 22
2, 6934, Note_on_c, 9, 51, 0
2, 6945, Control_c, 9, 4, 44
2, 6953, Note_on_c, 9, 44, 74
2, 6959, Note_on_c, 9, 36, 51
2, 6973, Control_c, 9, 17, 0
2, 6973, Note_on_c, 9, 51, 6
2, 6978, Control_c, 9, 4, 118
2, 7020, Control_c, 9, 4, 96
2, 7035, Note_on_c, 9, 44, 0
2, 7041, Note_on_c, 9, 36, 0
2, 7054, Note_on_c, 9, 51, 0
2, 7059, Control_c, 9, 4, 86
2, 7195, Control_c, 9, 4, 96
2, 7208, Control_c, 9, 16, 0
2, 7208, Note_on_c, 9, 36, 55
2, 7209, Control_c, 9, 17, 42
2, 7209, Note_on_c, 9, 38, 76
2, 7211, Note_on_c, 9, 51, 98
2, 7290, Note_on_c, 9, 36, 0
2, 7290, Note_on_c, 9, 38, 0
2, 7290, Note_on_c, 9, 51, 0
2, 7312, Control_c, 9, 4, 85
2, 7350, Control_c, 9, 4, 70
2, 7396, Control_c, 9, 4, 0
2, 7434, Control_c, 9, 4, 49
2, 7440, Note_on_c, 9, 44, 87
2, 7454, Control_c, 9, 17, 127
2, 7454, Note_on_c, 9, 51, 68
2, 7465, Control_c, 9, 4, 116
2, 7506, Control_c, 9, 4, 96
2, 7522, Note_on_c, 9, 44, 0
2, 7536, Note_on_c, 9, 51, 0
2, 7543, Control_c, 9, 4, 84
2, 7569, Control_c, 9, 18, 0
2, 7570, Note_on_c, 9, 48, 51
2, 7573, Note_on_c, 9, 36, 43
2, 7651, Note_on_c, 9, 48, 0
2, 7655, Note_on_c, 9, 36, 0
2, 7663, Control_c, 9, 4, 96
2, 7664, End_track
0, 0, End_of_file
