0, 0, Header, 1, 2, 480
1, 0, Start_track
1, 0, Tempo, 588235
1, 0, Time_signature, 4, 2, 24, 8
1, 0, Key_signature, 0, "major"
1, 1, End_track
2, 0, Start_track
2, 0, Title_t, "Classic Studio Kit"
2, 0, Program_c, 9, 0
2, 0, Control_c, 9, 16, 0
2, 15, Control_c, 9, 4, 127
2, 61, Control_c, 9, 4, 102
2, 98, Control_c, 9, 4, 69
2, 119, Note_on_c, 9, 36, 83
2, 129, Control_c, 9, 4, 0
2, 169, Control_c, 9, 4, 0
2, 169, Note_on_c, 9, 46, 28
2, 201, Note_on_c, 9, 36, 0
2, 207, Note_on_c, 9, 46, 0
2, 208, Note_on_c, 9, 46, 20
2, 222, Control_c, 9, 4, 50
2, 225, Note_on_c, 9, 44, 127
2, 233, Note_on_c, 9, 49, 5
2, 242, Control_c, 9, 16, 0
2, 243, Note_on_c, 9, 38, 46
2, 252, Control_c, 9, 4, 82
2, 252, Note_on_c, 9, 46, 0
2, 293, Control_c, 9, 4, 12
2, 308, Note_on_c, 9, 44, 0
2, 314, Note_on_c, 9, 49, 0
2, 323, Note_on_c, 9, 38, 0
2, 329, Control_c, 9, 4, 32
2, 359, Control_c, 9, 4, 69
2, 369, Note_on_c, 9, 48, 81
2, 403, Control_c, 9, 4, 63
2, 450, Note_on_c, 9, 48, 0
2, 489, Note_on_c, 9, 36, 92
2, 495, Control_c, 9, 18, 0
2, 496, Note_on_c, 9, 45, 92
2, 555, Control_c, 9, 4, 48
2, 571, Note_on_c, 9, 36, 0
2, 576, Note_on_c, 9, 45, 0
2, 597, Control_c, 9, 4, 0
2, 713, Control_c, 9, 4, 64
2, 713, Note_on_c, 9, 38, 58
2, 718, Note_on_c, 9, 44, 67
2, 732, Control_c, 9, 16, 74
2, 733, Note_on_c, 9, 38, 0
2, 733, Note_on_c, 9, 38, 82
2, 744, Control_c, 9, 4, 84
2, 794, Note_on_c, 9, 38, 0
2, 799, Note_on_c, 9, 44, 0
2, 972, Note_on_c, 9, 36, 90
2, 977, Note_on_c, 9, 45, 87
2, 981, Control_c, 9, 4, 91
2, 1013, Control_c, 9, 4, 108
2, 1053, Note_on_c, 9, 36, 0
2, 1058, Note_on_c, 9, 45, 0
2, 1065, Control_c, 9, 4, 90
2, 1092, Control_c, 9, 16, 0
2, 1093, Note_on_c, 9, 38, 49
2, 1097, Control_c, 9, 4, 71
2, 1135, Control_c, 9, 4, 0
2, 1174, Note_on_c, 9, 38, 0
2, 1199, Control_c, 9, 4, 33
2, 1205, Note_on_c, 9, 44, 127
2, 1220, Note_on_c, 9, 38, 38
2, 1230, Control_c, 9, 4, 84
2, 1269, Control_c, 9, 4, 37
2, 1287, Note_on_c, 9, 44, 0
2, 1302, Note_on_c, 9, 38, 0
2, 1318, Note_on_c, 9, 36, 46
2, 1321, Control_c, 9, 4, 67
2, 1330, Control_c, 9, 16, 0
2, 1331, Note_on_c, 9, 38, 29
2, 1400, Note_on_c, 9, 36, 0
2, 1411, Note_on_c, 9, 38, 0
2, 1424, Note_on_c, 9, 36, 75
2, 1449, Note_on_c, 9, 55, 66
2, 1506, Note_on_c, 9, 36, 0
2, 1531, Note_on_c, 9, 55, 0
2, 1693, Control_c, 9, 17, 18
2, 1693, Note_on_c, 9, 36, 92
2, 1694, Note_on_c, 9, 51, 127
2, 1750, Control_c, 9, 4, 56
2, 1775, Note_on_c, 9, 36, 0
2, 1775, Note_on_c, 9, 51, 0
2, 1791, Control_c, 9, 4, 0
2, 1795, Note_on_c, 9, 38, 28
2, 1876, Note_on_c, 9, 38, 0
2, 1907, Control_c, 9, 4, 49
2, 1915, Note_on_c, 9, 44, 74
2, 1918, Note_on_c, 9, 38, 12
2, 1935, Control_c, 9, 16, 0
2, 1935, Note_on_c, 9, 38, 0
2, 1937, Note_on_c, 9, 38, 36
2, 1940, Control_c, 9, 4, 92
2, 1992, Control_c, 9, 4, 116
2, 1996, Note_on_c, 9, 38, 0
2, 1997, Note_on_c, 9, 38, 6
2, 1997, Note_on_c, 9, 44, 0
2, 1999, Note_on_c, 9, 38, 0
2, 2024, Control_c, 9, 4, 108
2, 2027, Note_on_c, 9, 38, 6
2, 2048, Control_c, 9, 16, 0
2, 2049, Note_on_c, 9, 38, 0
2, 2050, Note_on_c, 9, 38, 4
2, 2053, Note_on_c, 9, 36, 58
2, 2060, Control_c, 9, 4, 80
2, 2078, Note_on_c, 9, 38, 0
2, 2099, Control_c, 9, 4, 0
2, 2137, Note_on_c, 9, 36, 0
2, 2169, Note_on_c, 9, 36, 75
2, 2172, Control_c, 9, 4, 33
2, 2177, Note_on_c, 9, 44, 127
2, 2202, Control_c, 9, 4, 75
2, 2225, Note_on_c, 9, 38, 16
2, 2239, Control_c, 9, 4, 0
2, 2251, Note_on_c, 9, 36, 0
2, 2259, Note_on_c, 9, 44, 0
2, 2269, Control_c, 9, 16, 0
2, 2270, Note_on_c, 9, 38, 0
2, 2270, Note_on_c, 9, 38, 33
2, 2306, Note_on_c, 9, 38, 0
2, 2327, Control_c, 9, 4, 69
2, 2328, Note_on_c, 9, 46, 14
2, 2329, Note_on_c, 9, 38, 35
2, 2350, Note_on_c, 9, 38, 0
2, 2367, Control_c, 9, 4, 63
2, 2385, Control_c, 9, 16, 0
2, 2385, Note_on_c, 9, 40, 67
2, 2409, Note_on_c, 9, 46, 0
2, 2466, Note_on_c, 9, 40, 0
2, 2470, Control_c, 9, 4, 47
2, 2507, Control_c, 9, 4, 0
2, 2507, Note_on_c, 9, 36, 77
2, 2527, Note_on_c, 9, 38, 23
2, 2590, Note_on_c, 9, 36, 0
2, 2608, Note_on_c, 9, 38, 0
2, 2612, Control_c, 9, 4, 49
2, 2620, Note_on_c, 9, 44, 80
2, 2645, Control_c, 9, 4, 90
2, 2648, Control_c, 9, 16, 0
2, 2649, Note_on_c, 9, 38, 36
2, 2702, Note_on_c, 9, 44, 0
2, 2730, Note_on_c, 9, 38, 0
2, 2759, Control_c, 9, 18, 0
2, 2760, Note_on_c, 9, 48, 82
2, 2789, Control_c, 9, 4, 85
2, 2840, Note_on_c, 9, 48, 0
2, 2844, Control_c, 9, 4, 92
2, 2874, Note_on_c, 9, 38, 42
2, 2877, Note_on_c, 9, 36, 93
2, 2882, Control_c, 9, 4, 116
2, 2923, Control_c, 9, 4, 93
2, 2954, Control_c, 9, 4, 71
2, 2954, Note_on_c, 9, 38, 0
2, 2958, Note_on_c, 9, 36, 0
2, 2988, Control_c, 9, 4, 0
2, 2998, Control_c, 9, 16, 0
2, 2999, Note_on_c, 9, 38, 41
2, 3065, Control_c, 9, 4, 34
2, 3065, Note_on_c, 9, 46, 17
2, 3070, Note_on_c, 9, 44, 127
2, 3080, Note_on_c, 9, 38, 0
2, 3096, Control_c, 9, 4, 72
2, 3122, Note_on_c, 9, 45, 65
2, 3131, Control_c, 9, 4, 27
2, 3147, Note_on_c, 9, 46, 0
2, 3152, Note_on_c, 9, 44, 0
2, 3188, Control_c, 9, 4, 69
2, 3189, Note_on_c, 9, 46, 13
2, 3203, Note_on_c, 9, 45, 0
2, 3246, Control_c, 9, 18, 0
2, 3246, Note_on_c, 9, 45, 47
2, 3271, Note_on_c, 9, 46, 0
2, 3300, Control_c, 9, 4, 64
2, 3328, Note_on_c, 9, 45, 0
2, 3343, Note_on_c, 9, 36, 88
2, 3358, Control_c, 9, 16, 0
2, 3359, Note_on_c, 9, 40, 81
2, 3424, Note_on_c, 9, 36, 0
2, 3440, Note_on_c, 9, 40, 0
2, 3599, Note_on_c, 9, 47, 111
2, 3601, Control_c, 9, 16, 126
2, 3602, Note_on_c, 9, 36, 100
2, 3602, Note_on_c, 9, 40, 52
2, 3645, Control_c, 9, 18, 0
2, 3645, Note_on_c, 9, 47, 0
2, 3646, Note_on_c, 9, 47, 45
2, 3677, Control_c, 9, 4, 49
2, 3679, Note_on_c, 9, 47, 0
2, 3681, Note_on_c, 9, 40, 0
2, 3682, Note_on_c, 9, 36, 0
2, 3711, Control_c, 9, 4, 0
2, 3783, Note_on_c, 9, 46, 7
2, 3802, Control_c, 9, 4, 48
2, 3808, Note_on_c, 9, 44, 93
2, 3833, Control_c, 9, 4, 98
2, 3835, Control_c, 9, 16, 0
2, 3836, Note_on_c, 9, 38, 38
2, 3865, Note_on_c, 9, 46, 0
2, 3877, Control_c, 9, 4, 110
2, 3889, Note_on_c, 9, 44, 0
2, 3917, Note_on_c, 9, 38, 0
2, 3935, Control_c, 9, 4, 91
2, 3955, Note_on_c, 9, 48, 60
2, 3969, Control_c, 9, 4, 73
2, 3983, Note_on_c, 9, 48, 0
2, 3983, Note_on_c, 9, 48, 43
2, 4018, Control_c, 9, 4, 0
2, 4035, Note_on_c, 9, 48, 0
2, 4081, Note_on_c, 9, 46, 11
2, 4087, Control_c, 9, 4, 34
2, 4089, Control_c, 9, 17, 25
2, 4090, Note_on_c, 9, 51, 105
2, 4093, Note_on_c, 9, 44, 127
2, 4117, Control_c, 9, 4, 89
2, 4155, Control_c, 9, 4, 34
2, 4162, Note_on_c, 9, 46, 0
2, 4171, Note_on_c, 9, 51, 0
2, 4173, Note_on_c, 9, 44, 0
2, 4199, Note_on_c, 9, 36, 60
2, 4216, Control_c, 9, 4, 59
2, 4279, Control_c, 9, 4, 54
2, 4281, Note_on_c, 9, 36, 0
2, 4307, Note_on_c, 9, 59, 44
2, 4317, Note_on_c, 9, 36, 76
2, 4330, Control_c, 9, 4, 44
2, 4368, Control_c, 9, 4, 32
2, 4389, Note_on_c, 9, 59, 0
2, 4399, Note_on_c, 9, 36, 0
2, 4406, Control_c, 9, 4, 0
2, 4439, Note_on_c, 9, 38, 38
2, 4483, Control_c, 9, 16, 0
2, 4484, Note_on_c, 9, 38, 0
2, 4485, Note_on_c, 9, 38, 18
2, 4519, Note_on_c, 9, 38, 0
2, 4541, Control_c, 9, 4, 64
2, 4545, Note_on_c, 9, 44, 74
2, 4562, Note_on_c, 9, 46, 15
2, 4571, Control_c, 9, 4, 92
2, 4588, Note_on_c, 9, 38, 34
2, 4608, Control_c, 9, 4, 106
2, 4627, Note_on_c, 9, 44, 0
2, 4643, Note_on_c, 9, 46, 0
2, 4656, Control_c, 9, 4, 91
2, 4669, Note_on_c, 9, 38, 0
2, 4688, Note_on_c, 9, 36, 92
2, 4691, Control_c, 9, 4, 73
2, 4735, Control_c, 9, 4, 0
2, 4771, Note_on_c, 9, 36, 0
2, 4800, Note_on_c, 9, 46, 11
2, 4808, Control_c, 9, 4, 34
2, 4813, Note_on_c, 9, 44, 127
2, 4820, Control_c, 9, 16, 0
2, 4821, Note_on_c, 9, 38, 74
2, 4838, Control_c, 9, 4, 81
2, 4875, Control_c, 9, 4, 32
2, 4881, Note_on_c, 9, 46, 0
2, 4892, Note_on_c, 9, 38, 0
2, 4892, Note_on_c, 9, 38, 10
2, 4894, Note_on_c, 9, 44, 0
2, 4901, Note_on_c, 9, 38, 0
2, 4925, Control_c, 9, 4, 69
2, 4933, Control_c, 9, 18, 0
2, 4933, Note_on_c, 9, 48, 63
2, 5016, Note_on_c, 9, 48, 0
2, 5065, Control_c, 9, 4, 64
2, 5065, Note_on_c, 9, 36, 85
2, 5068, Control_c, 9, 16, 0
2, 5069, Note_on_c, 9, 38, 25
2, 5121, Control_c, 9, 4, 49
2, 5148, Note_on_c, 9, 36, 0
2, 5149, Note_on_c, 9, 38, 0
2, 5154, Control_c, 9, 4, 0
2, 5180, Control_c, 9, 16, 0
2, 5180, Note_on_c, 9, 38, 15
2, 5260, Note_on_c, 9, 38, 0
2, 5279, Control_c, 9, 4, 66
2, 5283, Note_on_c, 9, 44, 74
2, 5308, Control_c, 9, 16, 127
2, 5308, Note_on_c, 9, 38, 89
2, 5309, Control_c, 9, 4, 90
2, 5365, Note_on_c, 9, 44, 0
2, 5390, Note_on_c, 9, 38, 0
2, 5531, Control_c, 9, 17, 0
2, 5531, Note_on_c, 9, 51, 102
2, 5535, Note_on_c, 9, 36, 87
2, 5560, Control_c, 9, 4, 110
2, 5579, Control_c, 9, 17, 0
2, 5580, Note_on_c, 9, 51, 0
2, 5580, Note_on_c, 9, 51, 48
2, 5612, Control_c, 9, 4, 98
2, 5613, Note_on_c, 9, 51, 0
2, 5617, Note_on_c, 9, 36, 0
2, 5652, Control_c, 9, 4, 71
2, 5658, Control_c, 9, 16, 0
2, 5658, Note_on_c, 9, 38, 22
2, 5688, Control_c, 9, 4, 0
2, 5739, Note_on_c, 9, 38, 0
2, 5765, Control_c, 9, 4, 33
2, 5769, Note_on_c, 9, 44, 127
2, 5779, Control_c, 9, 17, 127
2, 5780, Note_on_c, 9, 51, 46
2, 5795, Control_c, 9, 4, 77
2, 5834, Control_c, 9, 4, 0
2, 5851, Note_on_c, 9, 44, 0
2, 5862, Note_on_c, 9, 51, 0
2, 5892, Control_c, 9, 4, 23
2, 5905, Note_on_c, 9, 38, 30
2, 5930, Control_c, 9, 4, 53
2, 5986, Note_on_c, 9, 38, 0
2, 5989, Control_c, 9, 4, 41
2, 6014, Control_c, 9, 17, 100
2, 6014, Note_on_c, 9, 51, 101
2, 6031, Note_on_c, 9, 36, 83
2, 6035, Control_c, 9, 4, 29
2, 6073, Control_c, 9, 4, 23
2, 6079, Control_c, 9, 16, 0
2, 6079, Note_on_c, 9, 38, 37
2, 6096, Note_on_c, 9, 51, 0
2, 6114, Note_on_c, 9, 36, 0
2, 6119, Control_c, 9, 4, 0
2, 6146, Note_on_c, 9, 38, 0
2, 6146, Note_on_c, 9, 38, 36
2, 6160, Note_on_c, 9, 38, 0
2, 6191, Control_c, 9, 16, 0
2, 6192, Note_on_c, 9, 38, 54
2, 6224, Control_c, 9, 4, 16
2, 6226, Note_on_c, 9, 38, 0
2, 6245, Note_on_c, 9, 44, 54
2, 6254, Control_c, 9, 16, 0
2, 6254, Note_on_c, 9, 40, 71
2, 6257, Control_c, 9, 4, 83
2, 6297, Control_c, 9, 4, 90
2, 6327, Note_on_c, 9, 44, 0
2, 6336, Note_on_c, 9, 40, 0
2, 6361, Control_c, 9, 16, 127
2, 6361, Note_on_c, 9, 38, 62
2, 6433, Control_c, 9, 4, 84
2, 6443, Note_on_c, 9, 38, 0
2, 6489, Control_c, 9, 4, 97
2, 6492, Control_c, 9, 16, 0
2, 6493, Note_on_c, 9, 38, 43
2, 6573, Note_on_c, 9, 38, 0
2, 6576, Control_c, 9, 4, 82
2, 6602, Note_on_c, 9, 38, 58
2, 6608, Control_c, 9, 4, 70
2, 6649, Control_c, 9, 4, 47
2, 6683, Note_on_c, 9, 38, 0
2, 6684, Control_c, 9, 4, 7
2, 6719, Note_on_c, 9, 44, 80
2, 6732, Control_c, 9, 16, 0
2, 6733, Note_on_c, 9, 40, 64
2, 6734, Control_c, 9, 4, 127
2, 6766, Control_c, 9, 4, 110
2, 6797, Control_c, 9, 4, 94
2, 6800, Note_on_c, 9, 44, 0
2, 6814, Note_on_c, 9, 40, 0
2, 6827, Control_c, 9, 4, 81
2, 6848, Note_on_c, 9, 38, 37
2, 6857, Control_c, 9, 4, 70
2, 6930, Note_on_c, 9, 38, 0
2, 6953, Note_on_c, 9, 44, 9
2, 6972, Control_c, 9, 16, 0
2, 6973, Note_on_c, 9, 38, 41
2, 6977, Control_c, 9, 4, 114
2, 7022, Control_c, 9, 4, 94
2, 7034, Note_on_c, 9, 44, 0
2, 7054, Note_on_c, 9, 38, 0
2, 7114, Control_c, 9, 16, 0
2, 7114, Note_on_c, 9, 38, 34
2, 7195, Note_on_c, 9, 38, 0
2, 7220, Control_c, 9, 17, 6
2, 7220, Note_on_c, 9, 51, 86
2, 7237, Note_on_c, 9, 36, 84
2, 7277, Control_c, 9, 4, 100
2, 7301, Note_on_c, 9, 51, 0
2, 7318, Note_on_c, 9, 36, 0
2, 7339, Control_c, 9, 4, 93
2, 7388, Control_c, 9, 4, 71
2, 7436, Control_c, 9, 4, 0
2, 7468, Control_c, 9, 16, 106
2, 7469, Control_c, 9, 17, 0
2, 7469, Note_on_c, 9, 38, 80
2, 7470, Note_on_c, 9, 51, 98
2, 7484, Note_on_c, 9, 44, 100
2, 7493, Control_c, 9, 4, 127
2, 7528, Control_c, 9, 4, 110
2, 7550, Note_on_c, 9, 38, 0
2, 7550, Note_on_c, 9, 51, 0
2, 7562, Control_c, 9, 4, 92
2, 7566, Note_on_c, 9, 44, 0
2, 7583, Note_on_c, 9, 38, 6
2, 7606, Control_c, 9, 16, 0
2, 7607, Note_on_c, 9, 38, 0
2, 7607, Note_on_c, 9, 38, 5
2, 7664, Note_on_c, 9, 38, 0
2, 7665, End_track
0, 0, End_of_file
