0, 0, Header, 1, 2, 480
1, 0, Start_track
1, 0, Tempo, 545454
1, 0, Time_signature, 4, 2, 24, 8
1, 0, Key_signature, 0, "major"
1, 1, End_track
2, 0, Start_track
2, 0, Title_t, "Midi Drums"
2, 0, Program_c, 9, 0
2, 9, Note_on_c, 9, 45, 115
2, 98, Note_on_c, 9, 45, 0
2, 278, Note_on_c, 9, 45, 54
2, 366, Note_on_c, 9, 45, 0
2, 405, Note_on_c, 9, 45, 127
2, 494, Note_on_c, 9, 45, 0
2, 660, Note_on_c, 9, 45, 44
2, 749, Note_on_c, 9, 45, 0
2, 782, Note_on_c, 9, 45, 114
2, 871, Note_on_c, 9, 45, 0
2, 1126, Note_on_c, 9, 58, 73
2, 1215, Note_on_c, 9, 58, 0
2, 1374, Note_on_c, 9, 43, 84
2, 1463, Note_on_c, 9, 43, 0
2, 1946, Note_on_c, 9, 48, 127
2, 2035, Note_on_c, 9, 48, 0
2, 2173, Note_on_c, 9, 48, 102
2, 2262, Note_on_c, 9, 48, 0
2, 2281, Note_on_c, 9, 48, 115
2, 2369, Note_on_c, 9, 48, 0
2, 2519, Note_on_c, 9, 45, 89
2, 2608, Note_on_c, 9, 45, 0
2, 2634, Note_on_c, 9, 45, 112
2, 2723, Note_on_c, 9, 45, 0
2, 2880, Note_on_c, 9, 43, 95
2, 2968, Note_on_c, 9, 43, 0
2, 2996, Note_on_c, 9, 43, 93
2, 3085, Note_on_c, 9, 43, 0
2, 3234, Note_on_c, 9, 43, 111
2, 3323, Note_on_c, 9, 43, 0
2, 3352, Note_on_c, 9, 43, 108
2, 3441, Note_on_c, 9, 43, 0
2, 3605, Note_on_c, 9, 43, 86
2, 3693, Note_on_c, 9, 43, 0
2, 3835, Note_on_c, 9, 36, 101
2, 3840, Note_on_c, 9, 51, 95
2, 3924, Note_on_c, 9, 36, 0
2, 3929, Note_on_c, 9, 51, 0
2, 4077, Note_on_c, 9, 51, 68
2, 4165, Note_on_c, 9, 51, 0
2, 4201, Note_on_c, 9, 38, 127
2, 4289, Note_on_c, 9, 38, 0
2, 4435, Note_on_c, 9, 38, 87
2, 4523, Note_on_c, 9, 38, 0
2, 4571, Note_on_c, 9, 38, 122
2, 4661, Note_on_c, 9, 38, 0
2, 4815, Note_on_c, 9, 48, 114
2, 4903, Note_on_c, 9, 48, 0
2, 4940, Note_on_c, 9, 48, 111
2, 5028, Note_on_c, 9, 48, 0
2, 5046, Note_on_c, 9, 45, 96
2, 5135, Note_on_c, 9, 45, 0
2, 5175, Note_on_c, 9, 45, 108
2, 5264, Note_on_c, 9, 45, 0
2, 5295, Note_on_c, 9, 43, 127
2, 5384, Note_on_c, 9, 43, 0
2, 5543, Note_on_c, 9, 43, 69
2, 5632, Note_on_c, 9, 43, 0
2, 5780, Note_on_c, 9, 36, 78
2, 5784, Note_on_c, 9, 51, 110
2, 5869, Note_on_c, 9, 36, 0
2, 5873, Note_on_c, 9, 51, 0
2, 6004, Note_on_c, 9, 51, 59
2, 6092, Note_on_c, 9, 51, 0
2, 6134, Note_on_c, 9, 38, 127
2, 6223, Note_on_c, 9, 38, 0
2, 6373, Note_on_c, 9, 38, 89
2, 6462, Note_on_c, 9, 38, 0
2, 6475, Note_on_c, 9, 38, 90
2, 6563, Note_on_c, 9, 38, 0
2, 6751, Note_on_c, 9, 38, 90
2, 6839, Note_on_c, 9, 38, 0
2, 6878, Note_on_c, 9, 38, 65
2, 6967, Note_on_c, 9, 38, 0
2, 6995, Note_on_c, 9, 38, 37
2, 7083, Note_on_c, 9, 38, 0
2, 7107, Note_on_c, 9, 38, 51
2, 7178, Note_on_c, 9, 38, 0
2, 7178, Note_on_c, 9, 38, 67
2, 7196, Note_on_c, 9, 38, 0
2, 7258, Note_on_c, 9, 38, 59
2, 7267, Note_on_c, 9, 38, 0
2, 7331, Note_on_c, 9, 38, 70
2, 7346, Note_on_c, 9, 38, 0
2, 7421, Note_on_c, 9, 38, 54
2, 7489, Note_on_c, 9, 38, 0
2, 7489, Note_on_c, 9, 38, 64
2, 7510, Note_on_c, 9, 38, 0
2, 7569, Note_on_c, 9, 38, 73
2, 7578, Note_on_c, 9, 38, 0
2, 7654, Note_on_c, 9, 38, 70
2, 7658, Note_on_c, 9, 38, 0
2, 7659, End_track
0, 0, End_of_file
