0, 0, Header, 1, 2, 480
1, 0, Start_track
1, 0, Tempo, 588235
1, 0, Time_signature, 4, 2, 24, 8
1, 0, Key_signature, 0, "major"
1, 1, End_track
2, 0, Start_track
2, 0, Title_t, "Classic Studio Kit"
2, 0, Program_c, 9, 0
2, 0, Control_c, 9, 18, 0
2, 31, Control_c, 9, 16, 0
2, 32, Note_on_c, 9, 38, 52
2, 112, Note_on_c, 9, 38, 0
2, 278, Note_on_c, 9, 38, 65
2, 292, Note_on_c, 9, 45, 73
2, 359, Note_on_c, 9, 38, 0
2, 374, Note_on_c, 9, 45, 0
2, 515, Control_c, 9, 16, 0
2, 516, Note_on_c, 9, 38, 51
2, 596, Note_on_c, 9, 38, 0
2, 748, Control_c, 9, 18, 0
2, 748, Note_on_c, 9, 45, 69
2, 748, Note_on_c, 9, 48, 66
2, 830, Note_on_c, 9, 45, 0
2, 830, Note_on_c, 9, 48, 0
2, 986, Note_on_c, 9, 38, 43
2, 1066, Note_on_c, 9, 38, 0
2, 1229, Control_c, 9, 16, 0
2, 1229, Note_on_c, 9, 38, 62
2, 1233, Note_on_c, 9, 45, 63
2, 1310, Note_on_c, 9, 38, 0
2, 1313, Note_on_c, 9, 45, 0
2, 1468, Note_on_c, 9, 36, 75
2, 1470, Control_c, 9, 17, 0
2, 1470, Note_on_c, 9, 51, 91
2, 1473, Note_on_c, 9, 38, 67
2, 1493, Control_c, 9, 4, 96
2, 1549, Note_on_c, 9, 36, 0
2, 1552, Note_on_c, 9, 51, 0
2, 1553, Note_on_c, 9, 38, 0
2, 1583, Control_c, 9, 4, 84
2, 1615, Control_c, 9, 4, 69
2, 1646, Control_c, 9, 4, 0
2, 1696, Control_c, 9, 4, 33
2, 1703, Note_on_c, 9, 44, 113
2, 1708, Control_c, 9, 17, 126
2, 1709, Note_on_c, 9, 51, 66
2, 1728, Control_c, 9, 4, 126
2, 1770, Control_c, 9, 4, 108
2, 1785, Note_on_c, 9, 44, 0
2, 1790, Note_on_c, 9, 51, 0
2, 1802, Control_c, 9, 4, 92
2, 1831, Note_on_c, 9, 36, 59
2, 1833, Control_c, 9, 18, 0
2, 1834, Note_on_c, 9, 48, 62
2, 1912, Note_on_c, 9, 36, 0
2, 1914, Note_on_c, 9, 48, 0
2, 1949, Control_c, 9, 17, 19
2, 1949, Note_on_c, 9, 51, 61
2, 1958, Control_c, 9, 4, 110
2, 2032, Note_on_c, 9, 51, 0
2, 2076, Control_c, 9, 4, 90
2, 2086, Control_c, 9, 17, 127
2, 2086, Note_on_c, 9, 51, 69
2, 2111, Control_c, 9, 4, 70
2, 2144, Control_c, 9, 4, 0
2, 2169, Note_on_c, 9, 51, 0
2, 2187, Control_c, 9, 4, 33
2, 2193, Note_on_c, 9, 44, 119
2, 2195, Note_on_c, 9, 36, 58
2, 2218, Control_c, 9, 4, 127
2, 2235, Note_on_c, 9, 49, 6
2, 2260, Control_c, 9, 4, 102
2, 2263, Control_c, 9, 17, 127
2, 2263, Note_on_c, 9, 51, 5
2, 2275, Note_on_c, 9, 44, 0
2, 2277, Note_on_c, 9, 36, 0
2, 2298, Control_c, 9, 4, 89
2, 2316, Note_on_c, 9, 49, 0
2, 2345, Note_on_c, 9, 51, 0
2, 2433, Control_c, 9, 17, 12
2, 2433, Note_on_c, 9, 51, 94
2, 2439, Control_c, 9, 4, 99
2, 2439, Note_on_c, 9, 36, 81
2, 2441, Control_c, 9, 16, 0
2, 2441, Note_on_c, 9, 38, 55
2, 2515, Note_on_c, 9, 51, 0
2, 2521, Note_on_c, 9, 36, 0
2, 2523, Note_on_c, 9, 38, 0
2, 2544, Control_c, 9, 4, 93
2, 2590, Control_c, 9, 4, 70
2, 2630, Control_c, 9, 4, 0
2, 2674, Note_on_c, 9, 46, 62
2, 2675, Note_on_c, 9, 44, 100
2, 2677, Control_c, 9, 17, 110
2, 2678, Note_on_c, 9, 51, 64
2, 2682, Control_c, 9, 4, 127
2, 2724, Control_c, 9, 4, 120
2, 2756, Note_on_c, 9, 44, 0
2, 2756, Note_on_c, 9, 46, 0
2, 2759, Control_c, 9, 4, 91
2, 2759, Note_on_c, 9, 51, 0
2, 2803, Note_on_c, 9, 36, 61
2, 2803, Note_on_c, 9, 48, 61
2, 2884, Note_on_c, 9, 36, 0
2, 2884, Note_on_c, 9, 48, 0
2, 2898, Control_c, 9, 4, 99
2, 2928, Control_c, 9, 17, 44
2, 2929, Note_on_c, 9, 51, 58
2, 3010, Note_on_c, 9, 51, 0
2, 3038, Control_c, 9, 4, 94
2, 3054, Control_c, 9, 17, 127
2, 3055, Note_on_c, 9, 51, 53
2, 3070, Control_c, 9, 4, 81
2, 3112, Control_c, 9, 4, 39
2, 3136, Note_on_c, 9, 51, 0
2, 3149, Control_c, 9, 4, 53
2, 3152, Note_on_c, 9, 38, 63
2, 3156, Note_on_c, 9, 44, 67
2, 3164, Note_on_c, 9, 36, 61
2, 3181, Control_c, 9, 4, 122
2, 3234, Note_on_c, 9, 38, 0
2, 3237, Note_on_c, 9, 44, 0
2, 3240, Control_c, 9, 4, 91
2, 3246, Note_on_c, 9, 36, 0
2, 3271, Control_c, 9, 4, 87
2, 3383, Control_c, 9, 4, 98
2, 3397, Control_c, 9, 17, 0
2, 3397, Note_on_c, 9, 51, 100
2, 3398, Note_on_c, 9, 36, 71
2, 3399, Control_c, 9, 16, 0
2, 3399, Note_on_c, 9, 38, 65
2, 3479, Note_on_c, 9, 36, 0
2, 3479, Note_on_c, 9, 51, 0
2, 3481, Note_on_c, 9, 38, 0
2, 3518, Control_c, 9, 4, 83
2, 3552, Control_c, 9, 4, 68
2, 3584, Control_c, 9, 4, 0
2, 3622, Control_c, 9, 4, 32
2, 3629, Note_on_c, 9, 44, 106
2, 3636, Control_c, 9, 17, 127
2, 3636, Note_on_c, 9, 51, 49
2, 3654, Control_c, 9, 4, 127
2, 3695, Control_c, 9, 4, 104
2, 3710, Note_on_c, 9, 44, 0
2, 3718, Note_on_c, 9, 51, 0
2, 3726, Control_c, 9, 4, 88
2, 3758, Control_c, 9, 18, 0
2, 3759, Note_on_c, 9, 48, 60
2, 3768, Note_on_c, 9, 36, 55
2, 3841, Note_on_c, 9, 48, 0
2, 3851, Note_on_c, 9, 36, 0
2, 3856, Control_c, 9, 4, 104
2, 3876, Control_c, 9, 17, 56
2, 3876, Note_on_c, 9, 51, 60
2, 3947, Control_c, 9, 4, 98
2, 3957, Note_on_c, 9, 51, 0
2, 3997, Control_c, 9, 4, 85
2, 3999, Control_c, 9, 17, 105
2, 3999, Note_on_c, 9, 51, 71
2, 4030, Control_c, 9, 4, 70
2, 4062, Control_c, 9, 4, 22
2, 4081, Note_on_c, 9, 51, 0
2, 4097, Control_c, 9, 4, 61
2, 4101, Note_on_c, 9, 44, 74
2, 4109, Note_on_c, 9, 36, 54
2, 4117, Note_on_c, 9, 38, 54
2, 4127, Control_c, 9, 4, 122
2, 4183, Control_c, 9, 4, 91
2, 4183, Note_on_c, 9, 44, 0
2, 4191, Note_on_c, 9, 36, 0
2, 4198, Note_on_c, 9, 38, 0
2, 4217, Control_c, 9, 4, 87
2, 4247, Control_c, 9, 17, 26
2, 4247, Note_on_c, 9, 51, 75
2, 4326, Control_c, 9, 4, 102
2, 4329, Note_on_c, 9, 51, 0
2, 4347, Note_on_c, 9, 36, 71
2, 4364, Note_on_c, 9, 48, 64
2, 4420, Control_c, 9, 4, 97
2, 4427, Note_on_c, 9, 36, 0
2, 4444, Note_on_c, 9, 48, 0
2, 4469, Control_c, 9, 4, 85
2, 4503, Control_c, 9, 4, 70
2, 4536, Control_c, 9, 4, 22
2, 4572, Control_c, 9, 17, 45
2, 4573, Note_on_c, 9, 51, 87
2, 4576, Control_c, 9, 4, 42
2, 4582, Control_c, 9, 16, 0
2, 4583, Note_on_c, 9, 38, 59
2, 4585, Note_on_c, 9, 44, 87
2, 4608, Control_c, 9, 4, 120
2, 4655, Note_on_c, 9, 51, 0
2, 4664, Note_on_c, 9, 38, 0
2, 4665, Note_on_c, 9, 44, 0
2, 4668, Control_c, 9, 4, 91
2, 4724, Note_on_c, 9, 36, 41
2, 4805, Note_on_c, 9, 36, 0
2, 4827, Control_c, 9, 17, 46
2, 4827, Note_on_c, 9, 51, 83
2, 4834, Control_c, 9, 4, 106
2, 4910, Note_on_c, 9, 51, 0
2, 4911, Control_c, 9, 4, 96
2, 4948, Control_c, 9, 16, 21
2, 4949, Note_on_c, 9, 38, 54
2, 4952, Control_c, 9, 4, 83
2, 4995, Control_c, 9, 4, 52
2, 5027, Control_c, 9, 4, 0
2, 5029, Note_on_c, 9, 38, 0
2, 5054, Control_c, 9, 17, 62
2, 5055, Note_on_c, 9, 51, 67
2, 5059, Note_on_c, 9, 44, 87
2, 5063, Note_on_c, 9, 36, 57
2, 5068, Control_c, 9, 4, 127
2, 5109, Control_c, 9, 4, 120
2, 5136, Note_on_c, 9, 51, 0
2, 5140, Note_on_c, 9, 44, 0
2, 5145, Note_on_c, 9, 36, 0
2, 5147, Control_c, 9, 4, 90
2, 5178, Control_c, 9, 4, 85
2, 5226, Control_c, 9, 4, 89
2, 5300, Control_c, 9, 4, 100
2, 5306, Note_on_c, 9, 36, 72
2, 5309, Control_c, 9, 17, 32
2, 5309, Note_on_c, 9, 51, 83
2, 5310, Control_c, 9, 16, 0
2, 5311, Note_on_c, 9, 38, 63
2, 5388, Note_on_c, 9, 36, 0
2, 5390, Note_on_c, 9, 51, 0
2, 5392, Note_on_c, 9, 38, 0
2, 5411, Control_c, 9, 4, 89
2, 5443, Control_c, 9, 4, 74
2, 5485, Control_c, 9, 4, 19
2, 5523, Control_c, 9, 4, 59
2, 5528, Note_on_c, 9, 44, 80
2, 5544, Control_c, 9, 17, 127
2, 5544, Note_on_c, 9, 51, 66
2, 5553, Control_c, 9, 4, 122
2, 5610, Note_on_c, 9, 44, 0
2, 5613, Control_c, 9, 4, 91
2, 5626, Note_on_c, 9, 51, 0
2, 5646, Control_c, 9, 4, 86
2, 5664, Control_c, 9, 18, 0
2, 5664, Note_on_c, 9, 48, 67
2, 5670, Note_on_c, 9, 36, 61
2, 5745, Note_on_c, 9, 48, 0
2, 5751, Control_c, 9, 4, 102
2, 5752, Note_on_c, 9, 36, 0
2, 5783, Control_c, 9, 17, 60
2, 5783, Note_on_c, 9, 51, 61
2, 5791, Control_c, 9, 4, 104
2, 5864, Note_on_c, 9, 51, 0
2, 5882, Control_c, 9, 4, 91
2, 5907, Control_c, 9, 17, 127
2, 5907, Note_on_c, 9, 51, 72
2, 5920, Control_c, 9, 4, 73
2, 5957, Control_c, 9, 4, 29
2, 5988, Note_on_c, 9, 51, 0
2, 5992, Control_c, 9, 4, 51
2, 5997, Note_on_c, 9, 44, 67
2, 6000, Note_on_c, 9, 46, 54
2, 6008, Note_on_c, 9, 36, 46
2, 6019, Control_c, 9, 17, 127
2, 6020, Note_on_c, 9, 51, 5
2, 6023, Control_c, 9, 4, 120
2, 6067, Control_c, 9, 4, 97
2, 6079, Note_on_c, 9, 44, 0
2, 6080, Note_on_c, 9, 46, 0
2, 6090, Note_on_c, 9, 36, 0
2, 6101, Note_on_c, 9, 51, 0
2, 6106, Control_c, 9, 4, 86
2, 6222, Control_c, 9, 4, 97
2, 6246, Control_c, 9, 17, 10
2, 6246, Note_on_c, 9, 51, 91
2, 6251, Note_on_c, 9, 38, 68
2, 6252, Note_on_c, 9, 36, 57
2, 6329, Note_on_c, 9, 51, 0
2, 6332, Note_on_c, 9, 38, 0
2, 6333, Note_on_c, 9, 36, 0
2, 6376, Control_c, 9, 4, 85
2, 6408, Control_c, 9, 4, 70
2, 6440, Control_c, 9, 4, 22
2, 6476, Control_c, 9, 4, 45
2, 6484, Note_on_c, 9, 44, 80
2, 6506, Control_c, 9, 17, 127
2, 6506, Note_on_c, 9, 51, 60
2, 6509, Control_c, 9, 4, 120
2, 6565, Note_on_c, 9, 44, 0
2, 6567, Control_c, 9, 4, 91
2, 6588, Note_on_c, 9, 51, 0
2, 6606, Control_c, 9, 4, 87
2, 6619, Note_on_c, 9, 48, 63
2, 6630, Note_on_c, 9, 36, 64
2, 6700, Note_on_c, 9, 48, 0
2, 6713, Note_on_c, 9, 36, 0
2, 6726, Control_c, 9, 4, 108
2, 6743, Control_c, 9, 17, 59
2, 6743, Note_on_c, 9, 51, 61
2, 6799, Control_c, 9, 4, 102
2, 6826, Note_on_c, 9, 51, 0
2, 6837, Control_c, 9, 4, 90
2, 6874, Control_c, 9, 17, 127
2, 6874, Note_on_c, 9, 51, 67
2, 6875, Control_c, 9, 4, 73
2, 6911, Control_c, 9, 4, 0
2, 6956, Note_on_c, 9, 51, 0
2, 6961, Note_on_c, 9, 36, 50
2, 6963, Note_on_c, 9, 44, 119
2, 6968, Control_c, 9, 4, 127
2, 7012, Control_c, 9, 4, 120
2, 7043, Note_on_c, 9, 36, 0
2, 7043, Note_on_c, 9, 44, 0
2, 7050, Control_c, 9, 4, 91
2, 7193, Control_c, 9, 4, 97
2, 7194, Control_c, 9, 17, 77
2, 7194, Note_on_c, 9, 51, 82
2, 7212, Control_c, 9, 16, 0
2, 7212, Note_on_c, 9, 38, 54
2, 7215, Note_on_c, 9, 36, 65
2, 7276, Note_on_c, 9, 51, 0
2, 7294, Note_on_c, 9, 38, 0
2, 7298, Note_on_c, 9, 36, 0
2, 7317, Control_c, 9, 4, 91
2, 7365, Control_c, 9, 4, 69
2, 7397, Control_c, 9, 4, 0
2, 7442, Control_c, 9, 4, 51
2, 7446, Note_on_c, 9, 44, 113
2, 7455, Control_c, 9, 17, 127
2, 7455, Note_on_c, 9, 51, 73
2, 7472, Control_c, 9, 4, 127
2, 7528, Control_c, 9, 4, 92
2, 7528, Note_on_c, 9, 44, 0
2, 7537, Note_on_c, 9, 51, 0
2, 7570, Control_c, 9, 18, 0
2, 7571, Note_on_c, 9, 36, 62
2, 7571, Note_on_c, 9, 48, 60
2, 7652, Note_on_c, 9, 36, 0
2, 7652, Note_on_c, 9, 48, 0
2, 7653, End_track
0, 0, End_of_file
