0, 0, Header, 1, 2, 480
1, 0, Start_track
1, 0, Tempo, 666666
1, 0, Time_signature, 4, 2, 24, 8
1, 0, Key_signature, 0, "major"
1, 1, End_track
2, 0, Start_track
2, 0, Title_t, "Blue Ridge"
2, 0, Program_c, 9, 0
2, 0, Note_on_c, 9, 36, 77
2, 11, Note_on_c, 9, 55, 106
2, 64, Note_on_c, 9, 36, 0
2, 84, Note_on_c, 9, 55, 0
2, 251, Control_c, 9, 4, 90
2, 251, Note_on_c, 9, 22, 59
2, 324, Note_on_c, 9, 22, 0
2, 483, Note_on_c, 9, 38, 127
2, 486, Control_c, 9, 4, 90
2, 486, Note_on_c, 9, 22, 82
2, 555, Note_on_c, 9, 38, 0
2, 559, Note_on_c, 9, 22, 0
2, 691, Control_c, 9, 4, 72
2, 730, Control_c, 9, 4, 90
2, 730, Note_on_c, 9, 22, 63
2, 803, Note_on_c, 9, 22, 0
2, 963, Control_c, 9, 4, 90
2, 963, Note_on_c, 9, 22, 66
2, 963, Note_on_c, 9, 36, 63
2, 1035, Note_on_c, 9, 22, 0
2, 1035, Note_on_c, 9, 36, 0
2, 1187, Note_on_c, 9, 36, 66
2, 1199, Control_c, 9, 4, 90
2, 1199, Note_on_c, 9, 22, 69
2, 1259, Note_on_c, 9, 36, 0
2, 1272, Note_on_c, 9, 22, 0
2, 1404, Control_c, 9, 4, 73
2, 1422, Note_on_c, 9, 38, 127
2, 1433, Note_on_c, 9, 22, 74
2, 1439, Control_c, 9, 4, 90
2, 1495, Note_on_c, 9, 38, 0
2, 1506, Note_on_c, 9, 22, 0
2, 1669, Note_on_c, 9, 36, 70
2, 1671, Control_c, 9, 4, 90
2, 1671, Note_on_c, 9, 22, 68
2, 1741, Note_on_c, 9, 36, 0
2, 1744, Note_on_c, 9, 22, 0
2, 1859, Control_c, 9, 4, 65
2, 1885, Note_on_c, 9, 36, 113
2, 1890, Control_c, 9, 4, 31
2, 1898, Note_on_c, 9, 26, 99
2, 1925, Control_c, 9, 4, 13
2, 1957, Note_on_c, 9, 36, 0
2, 1971, Note_on_c, 9, 26, 0
2, 1972, Control_c, 9, 4, 0
2, 2135, Control_c, 9, 4, 16
2, 2141, Note_on_c, 9, 26, 66
2, 2143, Note_on_c, 9, 44, 70
2, 2166, Control_c, 9, 4, 90
2, 2214, Note_on_c, 9, 26, 0
2, 2215, Note_on_c, 9, 44, 0
2, 2277, Control_c, 9, 4, 82
2, 2309, Control_c, 9, 4, 86
2, 2346, Control_c, 9, 4, 90
2, 2379, Note_on_c, 9, 40, 127
2, 2381, Control_c, 9, 4, 90
2, 2381, Note_on_c, 9, 22, 92
2, 2452, Note_on_c, 9, 40, 0
2, 2455, Note_on_c, 9, 22, 0
2, 2616, Note_on_c, 9, 36, 75
2, 2622, Control_c, 9, 4, 90
2, 2622, Note_on_c, 9, 22, 68
2, 2689, Note_on_c, 9, 36, 0
2, 2695, Note_on_c, 9, 22, 0
2, 2859, Control_c, 9, 4, 90
2, 2859, Note_on_c, 9, 22, 79
2, 2932, Note_on_c, 9, 22, 0
2, 2970, Note_on_c, 9, 36, 70
2, 3042, Note_on_c, 9, 36, 0
2, 3088, Control_c, 9, 4, 90
2, 3088, Note_on_c, 9, 22, 97
2, 3161, Note_on_c, 9, 22, 0
2, 3209, Note_on_c, 9, 36, 65
2, 3282, Note_on_c, 9, 36, 0
2, 3322, Control_c, 9, 4, 90
2, 3322, Note_on_c, 9, 22, 119
2, 3322, Note_on_c, 9, 38, 127
2, 3396, Note_on_c, 9, 22, 0
2, 3396, Note_on_c, 9, 38, 0
2, 3562, Control_c, 9, 4, 90
2, 3562, Note_on_c, 9, 22, 70
2, 3562, Note_on_c, 9, 36, 65
2, 3634, Note_on_c, 9, 36, 0
2, 3635, Note_on_c, 9, 22, 0
2, 3794, Note_on_c, 9, 36, 85
2, 3805, Control_c, 9, 4, 90
2, 3805, Note_on_c, 9, 22, 99
2, 3866, Note_on_c, 9, 36, 0
2, 3878, Note_on_c, 9, 22, 0
2, 4043, Control_c, 9, 4, 90
2, 4043, Note_on_c, 9, 22, 68
2, 4116, Note_on_c, 9, 22, 0
2, 4283, Note_on_c, 9, 38, 127
2, 4287, Control_c, 9, 4, 90
2, 4287, Note_on_c, 9, 22, 105
2, 4355, Note_on_c, 9, 38, 0
2, 4360, Note_on_c, 9, 22, 0
2, 4540, Control_c, 9, 4, 90
2, 4540, Note_on_c, 9, 22, 85
2, 4612, Note_on_c, 9, 22, 0
2, 4664, Note_on_c, 9, 36, 61
2, 4737, Note_on_c, 9, 36, 0
2, 4781, Control_c, 9, 4, 90
2, 4781, Note_on_c, 9, 22, 83
2, 4854, Note_on_c, 9, 22, 0
2, 4889, Note_on_c, 9, 36, 65
2, 4962, Note_on_c, 9, 36, 0
2, 5027, Control_c, 9, 4, 90
2, 5027, Note_on_c, 9, 22, 81
2, 5100, Note_on_c, 9, 22, 0
2, 5131, Note_on_c, 9, 36, 62
2, 5203, Note_on_c, 9, 36, 0
2, 5258, Note_on_c, 9, 38, 127
2, 5262, Control_c, 9, 4, 90
2, 5262, Note_on_c, 9, 22, 108
2, 5331, Note_on_c, 9, 38, 0
2, 5335, Note_on_c, 9, 22, 0
2, 5496, Note_on_c, 9, 36, 73
2, 5504, Control_c, 9, 4, 90
2, 5504, Note_on_c, 9, 22, 70
2, 5569, Note_on_c, 9, 36, 0
2, 5577, Note_on_c, 9, 22, 0
2, 5730, Note_on_c, 9, 36, 107
2, 5739, Control_c, 9, 4, 90
2, 5739, Note_on_c, 9, 22, 104
2, 5802, Note_on_c, 9, 36, 0
2, 5812, Note_on_c, 9, 22, 0
2, 5989, Control_c, 9, 4, 90
2, 5989, Note_on_c, 9, 22, 76
2, 6062, Note_on_c, 9, 22, 0
2, 6105, Note_on_c, 9, 36, 66
2, 6178, Note_on_c, 9, 36, 0
2, 6227, Note_on_c, 9, 38, 127
2, 6228, Control_c, 9, 4, 90
2, 6228, Note_on_c, 9, 22, 119
2, 6299, Note_on_c, 9, 38, 0
2, 6301, Note_on_c, 9, 22, 0
2, 6478, Control_c, 9, 4, 90
2, 6478, Note_on_c, 9, 22, 74
2, 6551, Note_on_c, 9, 22, 0
2, 6597, Note_on_c, 9, 36, 66
2, 6669, Note_on_c, 9, 36, 0
2, 6711, Control_c, 9, 4, 90
2, 6711, Note_on_c, 9, 22, 89
2, 6784, Note_on_c, 9, 22, 0
2, 6846, Note_on_c, 9, 36, 65
2, 6919, Note_on_c, 9, 36, 0
2, 6958, Control_c, 9, 4, 90
2, 6958, Note_on_c, 9, 22, 89
2, 7031, Note_on_c, 9, 22, 0
2, 7066, Note_on_c, 9, 36, 67
2, 7139, Note_on_c, 9, 36, 0
2, 7195, Control_c, 9, 4, 90
2, 7195, Note_on_c, 9, 22, 125
2, 7195, Note_on_c, 9, 38, 127
2, 7268, Note_on_c, 9, 22, 0
2, 7268, Note_on_c, 9, 38, 0
2, 7412, Note_on_c, 9, 36, 69
2, 7422, Control_c, 9, 4, 90
2, 7422, Note_on_c, 9, 22, 76
2, 7484, Note_on_c, 9, 36, 0
2, 7495, Note_on_c, 9, 22, 0
2, 7654, Control_c, 9, 4, 90
2, 7655, End_track
0, 0, End_of_file
