0, 0, Header, 1, 2, 480
1, 0, Start_track
1, 0, Tempo, 681818
1, 0, Time_signature, 4, 2, 24, 8
1, 0, Key_signature, 0, "major"
1, 1, End_track
2, 0, Start_track
2, 0, Title_t, "Midi Drums"
2, 0, Program_c, 9, 0
2, 70, Note_on_c, 9, 38, 38
2, 108, Note_on_c, 9, 38, 0
2, 108, Note_on_c, 9, 38, 29
2, 141, Note_on_c, 9, 38, 0
2, 188, Control_c, 9, 4, 90
2, 188, Note_on_c, 9, 22, 60
2, 260, Note_on_c, 9, 22, 0
2, 315, Note_on_c, 9, 36, 78
2, 332, Note_on_c, 9, 38, 5
2, 387, Note_on_c, 9, 36, 0
2, 403, Note_on_c, 9, 38, 0
2, 427, Note_on_c, 9, 40, 127
2, 433, Control_c, 9, 4, 90
2, 433, Note_on_c, 9, 22, 87
2, 498, Note_on_c, 9, 40, 0
2, 504, Note_on_c, 9, 22, 0
2, 511, Control_c, 9, 4, 79
2, 545, Control_c, 9, 4, 90
2, 659, Control_c, 9, 4, 90
2, 659, Note_on_c, 9, 22, 61
2, 715, Control_c, 9, 4, 90
2, 715, Note_on_c, 9, 22, 0
2, 715, Note_on_c, 9, 22, 43
2, 731, Note_on_c, 9, 22, 0
2, 757, Note_on_c, 9, 38, 44
2, 806, Note_on_c, 9, 38, 0
2, 806, Note_on_c, 9, 38, 41
2, 828, Note_on_c, 9, 38, 0
2, 848, Note_on_c, 9, 38, 29
2, 872, Note_on_c, 9, 36, 127
2, 877, Note_on_c, 9, 38, 0
2, 908, Control_c, 9, 4, 90
2, 908, Note_on_c, 9, 42, 57
2, 943, Note_on_c, 9, 36, 0
2, 980, Note_on_c, 9, 42, 0
2, 1030, Note_on_c, 9, 38, 40
2, 1100, Note_on_c, 9, 38, 0
2, 1124, Control_c, 9, 4, 90
2, 1124, Note_on_c, 9, 42, 88
2, 1195, Note_on_c, 9, 42, 0
2, 1245, Note_on_c, 9, 36, 89
2, 1317, Note_on_c, 9, 36, 0
2, 1360, Note_on_c, 9, 40, 127
2, 1363, Control_c, 9, 4, 90
2, 1363, Note_on_c, 9, 22, 110
2, 1404, Control_c, 9, 4, 74
2, 1431, Note_on_c, 9, 40, 0
2, 1435, Note_on_c, 9, 22, 0
2, 1437, Control_c, 9, 4, 44
2, 1480, Control_c, 9, 4, 90
2, 1601, Control_c, 9, 4, 90
2, 1601, Note_on_c, 9, 42, 38
2, 1649, Control_c, 9, 4, 90
2, 1649, Note_on_c, 9, 22, 30
2, 1672, Note_on_c, 9, 42, 0
2, 1702, Note_on_c, 9, 38, 40
2, 1721, Note_on_c, 9, 22, 0
2, 1750, Note_on_c, 9, 38, 0
2, 1750, Note_on_c, 9, 38, 36
2, 1773, Note_on_c, 9, 38, 0
2, 1790, Note_on_c, 9, 38, 29
2, 1821, Note_on_c, 9, 38, 0
2, 1847, Note_on_c, 9, 36, 127
2, 1860, Control_c, 9, 4, 90
2, 1860, Note_on_c, 9, 22, 63
2, 1918, Note_on_c, 9, 36, 0
2, 1931, Note_on_c, 9, 22, 0
2, 1975, Note_on_c, 9, 38, 33
2, 2046, Note_on_c, 9, 38, 0
2, 2107, Control_c, 9, 4, 90
2, 2107, Note_on_c, 9, 22, 59
2, 2179, Note_on_c, 9, 22, 0
2, 2234, Note_on_c, 9, 36, 89
2, 2305, Note_on_c, 9, 36, 0
2, 2359, Control_c, 9, 4, 90
2, 2359, Note_on_c, 9, 22, 114
2, 2359, Note_on_c, 9, 40, 127
2, 2406, Control_c, 9, 4, 86
2, 2430, Note_on_c, 9, 22, 0
2, 2430, Note_on_c, 9, 40, 0
2, 2450, Control_c, 9, 4, 90
2, 2602, Note_on_c, 9, 22, 74
2, 2620, Control_c, 9, 4, 85
2, 2655, Control_c, 9, 4, 56
2, 2655, Note_on_c, 9, 26, 45
2, 2673, Note_on_c, 9, 22, 0
2, 2685, Control_c, 9, 4, 21
2, 2700, Note_on_c, 9, 38, 39
2, 2724, Control_c, 9, 4, 0
2, 2726, Note_on_c, 9, 26, 0
2, 2761, Note_on_c, 9, 38, 0
2, 2761, Note_on_c, 9, 38, 32
2, 2771, Note_on_c, 9, 38, 0
2, 2832, Note_on_c, 9, 36, 127
2, 2846, Control_c, 9, 4, 0
2, 2846, Note_on_c, 9, 26, 75
2, 2893, Control_c, 9, 4, 32
2, 2903, Note_on_c, 9, 36, 0
2, 2904, Note_on_c, 9, 44, 27
2, 2917, Note_on_c, 9, 26, 0
2, 2926, Control_c, 9, 4, 90
2, 2974, Note_on_c, 9, 44, 0
2, 2985, Note_on_c, 9, 38, 35
2, 3056, Note_on_c, 9, 38, 0
2, 3081, Control_c, 9, 4, 90
2, 3081, Note_on_c, 9, 42, 41
2, 3153, Note_on_c, 9, 42, 0
2, 3205, Note_on_c, 9, 36, 114
2, 3276, Note_on_c, 9, 36, 0
2, 3321, Control_c, 9, 4, 90
2, 3321, Note_on_c, 9, 22, 127
2, 3325, Note_on_c, 9, 40, 127
2, 3393, Note_on_c, 9, 22, 0
2, 3395, Note_on_c, 9, 40, 0
2, 3554, Control_c, 9, 4, 90
2, 3554, Note_on_c, 9, 42, 51
2, 3602, Control_c, 9, 4, 90
2, 3602, Note_on_c, 9, 22, 48
2, 3625, Note_on_c, 9, 42, 0
2, 3640, Note_on_c, 9, 38, 51
2, 3673, Note_on_c, 9, 22, 0
2, 3685, Note_on_c, 9, 38, 0
2, 3685, Note_on_c, 9, 38, 43
2, 3711, Note_on_c, 9, 38, 0
2, 3737, Note_on_c, 9, 38, 26
2, 3756, Note_on_c, 9, 38, 0
2, 3783, Note_on_c, 9, 36, 127
2, 3791, Control_c, 9, 4, 90
2, 3791, Note_on_c, 9, 22, 108
2, 3854, Note_on_c, 9, 36, 0
2, 3863, Note_on_c, 9, 22, 0
2, 3932, Note_on_c, 9, 38, 27
2, 4002, Note_on_c, 9, 38, 0
2, 4037, Control_c, 9, 4, 90
2, 4037, Note_on_c, 9, 42, 59
2, 4108, Note_on_c, 9, 42, 0
2, 4169, Note_on_c, 9, 36, 127
2, 4240, Note_on_c, 9, 36, 0
2, 4285, Control_c, 9, 4, 90
2, 4285, Note_on_c, 9, 22, 106
2, 4292, Note_on_c, 9, 40, 127
2, 4356, Note_on_c, 9, 22, 0
2, 4363, Note_on_c, 9, 40, 0
2, 4524, Control_c, 9, 4, 90
2, 4524, Note_on_c, 9, 42, 47
2, 4575, Control_c, 9, 4, 90
2, 4575, Note_on_c, 9, 22, 39
2, 4596, Note_on_c, 9, 42, 0
2, 4622, Note_on_c, 9, 38, 44
2, 4646, Note_on_c, 9, 22, 0
2, 4666, Note_on_c, 9, 38, 0
2, 4666, Note_on_c, 9, 38, 40
2, 4694, Note_on_c, 9, 38, 0
2, 4714, Note_on_c, 9, 38, 30
2, 4737, Note_on_c, 9, 38, 0
2, 4766, Control_c, 9, 4, 90
2, 4766, Note_on_c, 9, 22, 104
2, 4766, Note_on_c, 9, 36, 127
2, 4838, Note_on_c, 9, 22, 0
2, 4838, Note_on_c, 9, 36, 0
2, 4909, Note_on_c, 9, 38, 47
2, 4980, Note_on_c, 9, 38, 0
2, 5011, Control_c, 9, 4, 90
2, 5011, Note_on_c, 9, 42, 68
2, 5082, Note_on_c, 9, 42, 0
2, 5135, Note_on_c, 9, 36, 127
2, 5152, Note_on_c, 9, 38, 7
2, 5207, Note_on_c, 9, 36, 0
2, 5223, Note_on_c, 9, 38, 0
2, 5260, Control_c, 9, 4, 90
2, 5260, Note_on_c, 9, 22, 82
2, 5263, Note_on_c, 9, 40, 127
2, 5331, Note_on_c, 9, 22, 0
2, 5334, Note_on_c, 9, 40, 0
2, 5493, Control_c, 9, 4, 90
2, 5493, Note_on_c, 9, 42, 57
2, 5541, Control_c, 9, 4, 90
2, 5541, Note_on_c, 9, 22, 56
2, 5564, Note_on_c, 9, 42, 0
2, 5597, Note_on_c, 9, 38, 50
2, 5612, Note_on_c, 9, 22, 0
2, 5648, Note_on_c, 9, 38, 0
2, 5648, Note_on_c, 9, 38, 45
2, 5669, Note_on_c, 9, 38, 0
2, 5711, Note_on_c, 9, 38, 26
2, 5719, Note_on_c, 9, 38, 0
2, 5730, Control_c, 9, 4, 90
2, 5730, Note_on_c, 9, 42, 65
2, 5744, Note_on_c, 9, 36, 127
2, 5802, Note_on_c, 9, 42, 0
2, 5815, Note_on_c, 9, 36, 0
2, 5846, Note_on_c, 9, 38, 52
2, 5917, Note_on_c, 9, 38, 0
2, 5975, Control_c, 9, 4, 90
2, 5975, Note_on_c, 9, 42, 101
2, 6047, Note_on_c, 9, 42, 0
2, 6108, Note_on_c, 9, 36, 127
2, 6179, Note_on_c, 9, 36, 0
2, 6228, Control_c, 9, 4, 90
2, 6228, Note_on_c, 9, 22, 112
2, 6232, Note_on_c, 9, 40, 127
2, 6282, Control_c, 9, 4, 74
2, 6299, Note_on_c, 9, 22, 0
2, 6303, Note_on_c, 9, 40, 0
2, 6320, Control_c, 9, 4, 17
2, 6373, Control_c, 9, 4, 42
2, 6469, Control_c, 9, 4, 47
2, 6469, Note_on_c, 9, 26, 127
2, 6513, Control_c, 9, 4, 35
2, 6540, Note_on_c, 9, 26, 0
2, 6544, Control_c, 9, 4, 29
2, 6582, Control_c, 9, 4, 18
2, 6619, Control_c, 9, 4, 0
2, 6703, Control_c, 9, 4, 0
2, 6703, Note_on_c, 9, 26, 127
2, 6706, Note_on_c, 9, 36, 127
2, 6745, Control_c, 9, 4, 32
2, 6756, Note_on_c, 9, 44, 25
2, 6775, Note_on_c, 9, 26, 0
2, 6777, Note_on_c, 9, 36, 0
2, 6778, Control_c, 9, 4, 90
2, 6778, Note_on_c, 9, 38, 51
2, 6827, Note_on_c, 9, 44, 0
2, 6849, Note_on_c, 9, 38, 0
2, 6856, Note_on_c, 9, 38, 116
2, 6927, Note_on_c, 9, 38, 0
2, 6938, Note_on_c, 9, 40, 127
2, 7009, Note_on_c, 9, 40, 0
2, 7018, Note_on_c, 9, 38, 127
2, 7089, Note_on_c, 9, 38, 0
2, 7101, Note_on_c, 9, 40, 107
2, 7172, Note_on_c, 9, 40, 0
2, 7180, Note_on_c, 9, 48, 127
2, 7250, Note_on_c, 9, 48, 0
2, 7257, Note_on_c, 9, 50, 94
2, 7328, Note_on_c, 9, 50, 0
2, 7338, Note_on_c, 9, 48, 127
2, 7409, Note_on_c, 9, 48, 0
2, 7413, Note_on_c, 9, 50, 127
2, 7484, Note_on_c, 9, 50, 0
2, 7490, Note_on_c, 9, 45, 77
2, 7561, Note_on_c, 9, 45, 0
2, 7570, Note_on_c, 9, 43, 127
2, 7641, Note_on_c, 9, 43, 0
2, 7642, End_track
0, 0, End_of_file
