0, 0, Header, 1, 2, 480
1, 0, Start_track
1, 0, Tempo, 545454
1, 0, Time_signature, 4, 2, 24, 8
1, 0, Key_signature, 0, "major"
1, 1, End_track
2, 0, Start_track
2, 0, Title_t, "TD-30 #9 Djembe"
2, 0, Program_c, 9, 0
2, 0, Control_c, 9, 17, 4
2, 24, Control_c, 9, 18, 0
2, 24, Note_on_c, 9, 48, 83
2, 26, Control_c, 9, 17, 35
2, 26, Note_on_c, 9, 51, 101
2, 112, Note_on_c, 9, 48, 0
2, 113, Note_on_c, 9, 51, 0
2, 196, Control_c, 9, 4, 84
2, 236, Control_c, 9, 4, 89
2, 264, Control_c, 9, 17, 60
2, 265, Note_on_c, 9, 51, 46
2, 272, Control_c, 9, 4, 84
2, 353, Note_on_c, 9, 51, 0
2, 509, Note_on_c, 9, 36, 97
2, 512, Control_c, 9, 17, 5
2, 513, Note_on_c, 9, 51, 96
2, 514, Control_c, 9, 4, 89
2, 585, Control_c, 9, 4, 83
2, 598, Note_on_c, 9, 36, 0
2, 602, Note_on_c, 9, 51, 0
2, 626, Control_c, 9, 4, 70
2, 664, Control_c, 9, 4, 44
2, 696, Control_c, 9, 4, 0
2, 735, Control_c, 9, 4, 66
2, 738, Control_c, 9, 17, 85
2, 738, Note_on_c, 9, 44, 74
2, 740, Note_on_c, 9, 51, 57
2, 765, Control_c, 9, 4, 95
2, 826, Note_on_c, 9, 44, 0
2, 826, Note_on_c, 9, 51, 0
2, 839, Control_c, 9, 4, 84
2, 865, Control_c, 9, 17, 55
2, 866, Note_on_c, 9, 51, 58
2, 954, Note_on_c, 9, 51, 0
2, 977, Control_c, 9, 17, 42
2, 977, Note_on_c, 9, 51, 56
2, 1066, Note_on_c, 9, 51, 0
2, 1232, Control_c, 9, 16, 0
2, 1232, Note_on_c, 9, 40, 65
2, 1233, Control_c, 9, 17, 44
2, 1233, Note_on_c, 9, 51, 119
2, 1243, Control_c, 9, 4, 89
2, 1320, Note_on_c, 9, 40, 0
2, 1321, Note_on_c, 9, 51, 0
2, 1347, Control_c, 9, 4, 83
2, 1386, Control_c, 9, 4, 62
2, 1422, Control_c, 9, 4, 17
2, 1452, Control_c, 9, 17, 127
2, 1453, Note_on_c, 9, 51, 43
2, 1462, Control_c, 9, 4, 57
2, 1467, Note_on_c, 9, 44, 74
2, 1495, Control_c, 9, 4, 110
2, 1541, Note_on_c, 9, 51, 0
2, 1545, Control_c, 9, 4, 91
2, 1556, Note_on_c, 9, 44, 0
2, 1576, Control_c, 9, 4, 84
2, 1619, Control_c, 9, 4, 79
2, 1685, Control_c, 9, 4, 92
2, 1707, Control_c, 9, 17, 36
2, 1708, Note_on_c, 9, 51, 86
2, 1796, Note_on_c, 9, 51, 0
2, 1808, Control_c, 9, 4, 84
2, 1840, Control_c, 9, 4, 70
2, 1885, Control_c, 9, 4, 0
2, 1939, Control_c, 9, 4, 34
2, 1943, Control_c, 9, 17, 82
2, 1943, Note_on_c, 9, 51, 92
2, 1947, Note_on_c, 9, 44, 106
2, 1957, Note_on_c, 9, 48, 63
2, 1972, Control_c, 9, 4, 106
2, 2002, Control_c, 9, 4, 94
2, 2032, Note_on_c, 9, 51, 0
2, 2036, Note_on_c, 9, 44, 0
2, 2042, Control_c, 9, 4, 83
2, 2045, Note_on_c, 9, 48, 0
2, 2082, Control_c, 9, 4, 79
2, 2082, Control_c, 9, 17, 48
2, 2083, Note_on_c, 9, 51, 55
2, 2105, Note_on_c, 9, 48, 48
2, 2145, Control_c, 9, 4, 90
2, 2171, Note_on_c, 9, 51, 0
2, 2193, Note_on_c, 9, 48, 0
2, 2208, Control_c, 9, 4, 85
2, 2422, Control_c, 9, 17, 36
2, 2423, Note_on_c, 9, 51, 92
2, 2425, Note_on_c, 9, 36, 96
2, 2435, Control_c, 9, 4, 90
2, 2511, Note_on_c, 9, 51, 0
2, 2514, Note_on_c, 9, 36, 0
2, 2518, Control_c, 9, 4, 82
2, 2560, Control_c, 9, 4, 60
2, 2592, Control_c, 9, 4, 0
2, 2636, Control_c, 9, 17, 96
2, 2637, Note_on_c, 9, 51, 65
2, 2655, Control_c, 9, 4, 66
2, 2657, Note_on_c, 9, 44, 93
2, 2685, Control_c, 9, 4, 95
2, 2703, Control_c, 9, 16, 126
2, 2703, Note_on_c, 9, 40, 6
2, 2725, Note_on_c, 9, 51, 0
2, 2745, Note_on_c, 9, 44, 0
2, 2755, Control_c, 9, 4, 84
2, 2770, Control_c, 9, 17, 31
2, 2771, Note_on_c, 9, 51, 61
2, 2792, Note_on_c, 9, 40, 0
2, 2859, Note_on_c, 9, 51, 0
2, 2885, Control_c, 9, 17, 52
2, 2886, Note_on_c, 9, 51, 67
2, 2973, Note_on_c, 9, 51, 0
2, 3153, Control_c, 9, 4, 90
2, 3160, Control_c, 9, 17, 87
2, 3161, Note_on_c, 9, 51, 110
2, 3162, Control_c, 9, 16, 0
2, 3162, Note_on_c, 9, 40, 69
2, 3249, Note_on_c, 9, 51, 0
2, 3250, Note_on_c, 9, 40, 0
2, 3265, Control_c, 9, 4, 76
2, 3295, Control_c, 9, 4, 56
2, 3331, Control_c, 9, 4, 0
2, 3382, Control_c, 9, 4, 50
2, 3388, Note_on_c, 9, 44, 80
2, 3397, Control_c, 9, 17, 0
2, 3397, Note_on_c, 9, 51, 41
2, 3415, Control_c, 9, 4, 97
2, 3476, Note_on_c, 9, 44, 0
2, 3485, Note_on_c, 9, 51, 0
2, 3491, Control_c, 9, 4, 85
2, 3602, Control_c, 9, 4, 89
2, 3642, Control_c, 9, 17, 75
2, 3642, Note_on_c, 9, 51, 74
2, 3731, Note_on_c, 9, 51, 0
2, 3735, Control_c, 9, 4, 83
2, 3771, Control_c, 9, 4, 70
2, 3821, Control_c, 9, 4, 0
2, 3881, Note_on_c, 9, 44, 100
2, 3889, Note_on_c, 9, 48, 71
2, 3892, Control_c, 9, 17, 53
2, 3893, Note_on_c, 9, 51, 84
2, 3896, Control_c, 9, 4, 102
2, 3935, Control_c, 9, 4, 92
2, 3970, Note_on_c, 9, 44, 0
2, 3977, Note_on_c, 9, 48, 0
2, 3981, Note_on_c, 9, 51, 0
2, 3997, Control_c, 9, 17, 15
2, 3997, Note_on_c, 9, 51, 67
2, 3998, Control_c, 9, 4, 80
2, 4086, Note_on_c, 9, 51, 0
2, 4087, Control_c, 9, 4, 90
2, 4110, Control_c, 9, 17, 42
2, 4111, Note_on_c, 9, 51, 80
2, 4131, Control_c, 9, 4, 85
2, 4199, Note_on_c, 9, 51, 0
2, 4351, Control_c, 9, 4, 90
2, 4358, Note_on_c, 9, 36, 82
2, 4368, Control_c, 9, 17, 36
2, 4368, Note_on_c, 9, 51, 109
2, 4446, Note_on_c, 9, 36, 0
2, 4457, Note_on_c, 9, 51, 0
2, 4478, Control_c, 9, 4, 74
2, 4508, Control_c, 9, 4, 55
2, 4541, Control_c, 9, 4, 0
2, 4589, Control_c, 9, 4, 50
2, 4594, Note_on_c, 9, 44, 87
2, 4605, Control_c, 9, 17, 0
2, 4605, Note_on_c, 9, 51, 46
2, 4621, Control_c, 9, 4, 100
2, 4663, Control_c, 9, 4, 93
2, 4683, Note_on_c, 9, 44, 0
2, 4693, Note_on_c, 9, 51, 0
2, 4704, Control_c, 9, 4, 82
2, 4742, Control_c, 9, 4, 77
2, 4768, Control_c, 9, 17, 71
2, 4769, Note_on_c, 9, 51, 53
2, 4816, Control_c, 9, 4, 87
2, 4857, Note_on_c, 9, 51, 0
2, 4865, Control_c, 9, 4, 83
2, 5082, Control_c, 9, 16, 83
2, 5083, Note_on_c, 9, 40, 69
2, 5084, Control_c, 9, 17, 91
2, 5085, Note_on_c, 9, 51, 101
2, 5089, Control_c, 9, 4, 89
2, 5171, Note_on_c, 9, 40, 0
2, 5173, Note_on_c, 9, 51, 0
2, 5189, Control_c, 9, 4, 73
2, 5222, Control_c, 9, 4, 50
2, 5254, Control_c, 9, 4, 0
2, 5299, Control_c, 9, 4, 64
2, 5302, Note_on_c, 9, 44, 80
2, 5321, Control_c, 9, 17, 127
2, 5322, Note_on_c, 9, 51, 55
2, 5331, Control_c, 9, 4, 96
2, 5381, Control_c, 9, 4, 90
2, 5391, Note_on_c, 9, 44, 0
2, 5410, Note_on_c, 9, 51, 0
2, 5411, Control_c, 9, 4, 85
2, 5519, Control_c, 9, 4, 89
2, 5562, Control_c, 9, 17, 85
2, 5562, Note_on_c, 9, 51, 75
2, 5651, Note_on_c, 9, 51, 0
2, 5674, Control_c, 9, 4, 76
2, 5710, Control_c, 9, 4, 57
2, 5744, Control_c, 9, 4, 0
2, 5785, Control_c, 9, 4, 17
2, 5796, Control_c, 9, 17, 62
2, 5796, Note_on_c, 9, 51, 83
2, 5799, Note_on_c, 9, 44, 93
2, 5802, Control_c, 9, 18, 0
2, 5803, Note_on_c, 9, 48, 61
2, 5817, Control_c, 9, 4, 97
2, 5851, Control_c, 9, 4, 97
2, 5885, Note_on_c, 9, 44, 0
2, 5885, Note_on_c, 9, 51, 0
2, 5891, Note_on_c, 9, 48, 0
2, 5897, Control_c, 9, 4, 85
2, 5902, Control_c, 9, 17, 35
2, 5903, Note_on_c, 9, 51, 65
2, 5928, Control_c, 9, 4, 80
2, 5991, Note_on_c, 9, 51, 0
2, 6000, Control_c, 9, 4, 90
2, 6018, Control_c, 9, 17, 89
2, 6019, Note_on_c, 9, 51, 80
2, 6060, Control_c, 9, 4, 85
2, 6107, Note_on_c, 9, 51, 0
2, 6245, Control_c, 9, 4, 90
2, 6263, Note_on_c, 9, 36, 84
2, 6284, Control_c, 9, 17, 91
2, 6284, Note_on_c, 9, 51, 98
2, 6351, Note_on_c, 9, 36, 0
2, 6360, Control_c, 9, 4, 76
2, 6373, Note_on_c, 9, 51, 0
2, 6400, Control_c, 9, 4, 57
2, 6432, Control_c, 9, 4, 0
2, 6494, Control_c, 9, 4, 67
2, 6497, Note_on_c, 9, 44, 93
2, 6512, Control_c, 9, 16, 0
2, 6513, Note_on_c, 9, 38, 5
2, 6518, Control_c, 9, 17, 127
2, 6519, Note_on_c, 9, 51, 68
2, 6525, Control_c, 9, 4, 96
2, 6586, Note_on_c, 9, 44, 0
2, 6601, Note_on_c, 9, 38, 0
2, 6607, Note_on_c, 9, 51, 0
2, 6609, Control_c, 9, 4, 84
2, 6627, Control_c, 9, 17, 61
2, 6628, Note_on_c, 9, 51, 64
2, 6717, Note_on_c, 9, 51, 0
2, 6744, Control_c, 9, 17, 65
2, 6745, Note_on_c, 9, 51, 73
2, 6832, Note_on_c, 9, 51, 0
2, 6998, Control_c, 9, 4, 90
2, 6998, Control_c, 9, 17, 114
2, 6999, Note_on_c, 9, 51, 108
2, 7000, Control_c, 9, 16, 126
2, 7001, Note_on_c, 9, 40, 68
2, 7086, Note_on_c, 9, 51, 0
2, 7087, Note_on_c, 9, 40, 0
2, 7113, Control_c, 9, 4, 77
2, 7145, Control_c, 9, 4, 58
2, 7181, Control_c, 9, 4, 15
2, 7217, Control_c, 9, 4, 57
2, 7223, Note_on_c, 9, 44, 67
2, 7226, Control_c, 9, 17, 127
2, 7227, Note_on_c, 9, 51, 45
2, 7250, Control_c, 9, 4, 100
2, 7298, Control_c, 9, 4, 92
2, 7311, Note_on_c, 9, 44, 0
2, 7314, Note_on_c, 9, 51, 0
2, 7356, Control_c, 9, 4, 82
2, 7433, Control_c, 9, 4, 91
2, 7471, Control_c, 9, 17, 80
2, 7472, Note_on_c, 9, 51, 77
2, 7560, Note_on_c, 9, 51, 0
2, 7578, Control_c, 9, 4, 79
2, 7621, Control_c, 9, 4, 57
2, 7651, Control_c, 9, 4, 0
2, 7652, End_track
0, 0, End_of_file
