0, 0, Header, 1, 2, 480
1, 0, Start_track
1, 0, Tempo, 588235
1, 0, Time_signature, 4, 2, 24, 8
1, 0, Key_signature, 0, "major"
1, 1, End_track
2, 0, Start_track
2, 0, Title_t, "Classic Studio Kit"
2, 0, Program_c, 9, 0
2, 0, Control_c, 9, 18, 0
2, 3, Control_c, 9, 4, 96
2, 43, Control_c, 9, 17, 127
2, 43, Note_on_c, 9, 51, 69
2, 48, Note_on_c, 9, 48, 60
2, 106, Control_c, 9, 4, 91
2, 124, Note_on_c, 9, 51, 0
2, 128, Note_on_c, 9, 48, 0
2, 141, Control_c, 9, 4, 83
2, 166, Control_c, 9, 17, 0
2, 167, Note_on_c, 9, 51, 52
2, 178, Control_c, 9, 4, 70
2, 221, Control_c, 9, 4, 10
2, 248, Note_on_c, 9, 51, 0
2, 254, Control_c, 9, 4, 51
2, 259, Note_on_c, 9, 44, 80
2, 266, Note_on_c, 9, 36, 43
2, 278, Control_c, 9, 17, 0
2, 279, Note_on_c, 9, 51, 6
2, 285, Control_c, 9, 4, 114
2, 316, Control_c, 9, 4, 99
2, 341, Note_on_c, 9, 44, 0
2, 349, Note_on_c, 9, 36, 0
2, 358, Control_c, 9, 4, 85
2, 360, Note_on_c, 9, 51, 0
2, 492, Control_c, 9, 4, 94
2, 510, Control_c, 9, 17, 64
2, 511, Note_on_c, 9, 51, 87
2, 518, Note_on_c, 9, 36, 55
2, 520, Note_on_c, 9, 38, 74
2, 593, Note_on_c, 9, 51, 0
2, 600, Note_on_c, 9, 36, 0
2, 602, Note_on_c, 9, 38, 0
2, 609, Control_c, 9, 4, 83
2, 646, Control_c, 9, 4, 70
2, 691, Control_c, 9, 4, 0
2, 735, Control_c, 9, 4, 49
2, 740, Note_on_c, 9, 44, 100
2, 753, Control_c, 9, 17, 127
2, 753, Note_on_c, 9, 51, 62
2, 765, Control_c, 9, 4, 116
2, 806, Control_c, 9, 4, 95
2, 821, Note_on_c, 9, 44, 0
2, 835, Note_on_c, 9, 51, 0
2, 838, Control_c, 9, 4, 83
2, 864, Control_c, 9, 18, 0
2, 865, Note_on_c, 9, 48, 51
2, 873, Note_on_c, 9, 36, 45
2, 947, Note_on_c, 9, 48, 0
2, 955, Note_on_c, 9, 36, 0
2, 962, Control_c, 9, 4, 98
2, 991, Note_on_c, 9, 48, 70
2, 1000, Note_on_c, 9, 51, 64
2, 1050, Control_c, 9, 4, 94
2, 1073, Note_on_c, 9, 48, 0
2, 1082, Note_on_c, 9, 51, 0
2, 1095, Control_c, 9, 4, 83
2, 1124, Control_c, 9, 17, 127
2, 1125, Note_on_c, 9, 51, 60
2, 1148, Control_c, 9, 4, 54
2, 1179, Control_c, 9, 4, 0
2, 1206, Note_on_c, 9, 51, 0
2, 1214, Control_c, 9, 4, 50
2, 1218, Note_on_c, 9, 36, 51
2, 1219, Note_on_c, 9, 44, 93
2, 1244, Control_c, 9, 4, 112
2, 1279, Control_c, 9, 4, 98
2, 1300, Note_on_c, 9, 36, 0
2, 1300, Note_on_c, 9, 44, 0
2, 1316, Control_c, 9, 4, 85
2, 1360, Control_c, 9, 17, 66
2, 1361, Note_on_c, 9, 51, 83
2, 1439, Control_c, 9, 4, 96
2, 1442, Note_on_c, 9, 51, 0
2, 1463, Note_on_c, 9, 36, 61
2, 1483, Control_c, 9, 16, 0
2, 1484, Note_on_c, 9, 38, 65
2, 1545, Note_on_c, 9, 36, 0
2, 1560, Control_c, 9, 4, 84
2, 1565, Note_on_c, 9, 38, 0
2, 1600, Control_c, 9, 4, 70
2, 1644, Control_c, 9, 4, 0
2, 1693, Control_c, 9, 4, 50
2, 1694, Control_c, 9, 17, 79
2, 1695, Note_on_c, 9, 51, 77
2, 1698, Note_on_c, 9, 44, 106
2, 1723, Control_c, 9, 4, 114
2, 1756, Control_c, 9, 4, 100
2, 1777, Note_on_c, 9, 51, 0
2, 1779, Note_on_c, 9, 44, 0
2, 1791, Control_c, 9, 4, 85
2, 1825, Note_on_c, 9, 36, 46
2, 1826, Control_c, 9, 18, 0
2, 1827, Note_on_c, 9, 48, 50
2, 1907, Note_on_c, 9, 36, 0
2, 1909, Note_on_c, 9, 48, 0
2, 1920, Control_c, 9, 4, 97
2, 1950, Control_c, 9, 17, 120
2, 1950, Note_on_c, 9, 51, 64
2, 1955, Note_on_c, 9, 48, 66
2, 2032, Note_on_c, 9, 51, 0
2, 2037, Note_on_c, 9, 48, 0
2, 2054, Control_c, 9, 4, 85
2, 2076, Control_c, 9, 17, 127
2, 2076, Note_on_c, 9, 51, 67
2, 2090, Control_c, 9, 4, 70
2, 2128, Control_c, 9, 4, 0
2, 2159, Note_on_c, 9, 51, 0
2, 2177, Control_c, 9, 4, 34
2, 2178, Note_on_c, 9, 36, 49
2, 2184, Note_on_c, 9, 44, 119
2, 2209, Control_c, 9, 4, 114
2, 2243, Control_c, 9, 4, 100
2, 2261, Note_on_c, 9, 36, 0
2, 2265, Note_on_c, 9, 44, 0
2, 2279, Control_c, 9, 4, 87
2, 2415, Control_c, 9, 4, 96
2, 2420, Control_c, 9, 17, 38
2, 2420, Note_on_c, 9, 51, 90
2, 2424, Note_on_c, 9, 36, 67
2, 2427, Note_on_c, 9, 38, 69
2, 2501, Note_on_c, 9, 51, 0
2, 2507, Note_on_c, 9, 36, 0
2, 2509, Note_on_c, 9, 38, 0
2, 2527, Control_c, 9, 4, 84
2, 2562, Control_c, 9, 4, 70
2, 2605, Control_c, 9, 4, 0
2, 2655, Control_c, 9, 4, 49
2, 2660, Note_on_c, 9, 44, 119
2, 2666, Control_c, 9, 17, 127
2, 2666, Note_on_c, 9, 51, 79
2, 2686, Control_c, 9, 4, 116
2, 2731, Control_c, 9, 4, 94
2, 2742, Note_on_c, 9, 44, 0
2, 2749, Note_on_c, 9, 51, 0
2, 2772, Control_c, 9, 4, 84
2, 2776, Note_on_c, 9, 36, 53
2, 2782, Control_c, 9, 18, 0
2, 2783, Note_on_c, 9, 48, 49
2, 2859, Note_on_c, 9, 36, 0
2, 2864, Note_on_c, 9, 48, 0
2, 2897, Control_c, 9, 4, 112
2, 2906, Note_on_c, 9, 48, 65
2, 2908, Control_c, 9, 17, 127
2, 2908, Note_on_c, 9, 51, 65
2, 2970, Control_c, 9, 4, 92
2, 2988, Note_on_c, 9, 48, 0
2, 2989, Note_on_c, 9, 51, 0
2, 3015, Control_c, 9, 4, 69
2, 3028, Control_c, 9, 17, 109
2, 3029, Note_on_c, 9, 51, 64
2, 3046, Control_c, 9, 4, 0
2, 3112, Note_on_c, 9, 51, 0
2, 3118, Note_on_c, 9, 36, 58
2, 3118, Note_on_c, 9, 46, 11
2, 3127, Control_c, 9, 4, 35
2, 3131, Note_on_c, 9, 44, 127
2, 3157, Control_c, 9, 4, 116
2, 3199, Note_on_c, 9, 46, 0
2, 3200, Note_on_c, 9, 36, 0
2, 3209, Control_c, 9, 4, 94
2, 3213, Note_on_c, 9, 44, 0
2, 3252, Control_c, 9, 4, 69
2, 3285, Control_c, 9, 4, 0
2, 3353, Note_on_c, 9, 46, 11
2, 3362, Control_c, 9, 4, 34
2, 3363, Control_c, 9, 17, 102
2, 3363, Note_on_c, 9, 51, 82
2, 3365, Control_c, 9, 16, 0
2, 3366, Note_on_c, 9, 38, 82
2, 3368, Note_on_c, 9, 44, 126
2, 3372, Note_on_c, 9, 36, 81
2, 3394, Control_c, 9, 4, 102
2, 3435, Note_on_c, 9, 46, 0
2, 3438, Control_c, 9, 4, 95
2, 3446, Note_on_c, 9, 38, 0
2, 3446, Note_on_c, 9, 51, 0
2, 3450, Note_on_c, 9, 44, 0
2, 3455, Note_on_c, 9, 36, 0
2, 3468, Control_c, 9, 4, 83
2, 3517, Control_c, 9, 4, 79
2, 3557, Control_c, 9, 4, 81
2, 3609, Control_c, 9, 4, 120
2, 3613, Control_c, 9, 17, 127
2, 3614, Note_on_c, 9, 51, 70
2, 3675, Control_c, 9, 4, 90
2, 3695, Note_on_c, 9, 51, 0
2, 3705, Control_c, 9, 4, 73
2, 3711, Note_on_c, 9, 36, 48
2, 3719, Control_c, 9, 18, 0
2, 3720, Note_on_c, 9, 48, 49
2, 3752, Control_c, 9, 4, 0
2, 3793, Note_on_c, 9, 36, 0
2, 3801, Note_on_c, 9, 48, 0
2, 3823, Note_on_c, 9, 46, 7
2, 3830, Control_c, 9, 4, 33
2, 3835, Note_on_c, 9, 44, 127
2, 3851, Control_c, 9, 17, 127
2, 3851, Note_on_c, 9, 51, 53
2, 3854, Note_on_c, 9, 48, 70
2, 3860, Control_c, 9, 4, 120
2, 3904, Note_on_c, 9, 46, 0
2, 3915, Note_on_c, 9, 44, 0
2, 3933, Note_on_c, 9, 48, 0
2, 3933, Note_on_c, 9, 51, 0
2, 3935, Control_c, 9, 4, 92
2, 3965, Control_c, 9, 17, 0
2, 3965, Note_on_c, 9, 51, 62
2, 4048, Note_on_c, 9, 51, 0
2, 4051, Control_c, 9, 4, 100
2, 4067, Note_on_c, 9, 36, 54
2, 4115, Control_c, 9, 4, 94
2, 4150, Note_on_c, 9, 36, 0
2, 4304, Note_on_c, 9, 36, 70
2, 4305, Control_c, 9, 17, 49
2, 4305, Note_on_c, 9, 51, 92
2, 4319, Control_c, 9, 16, 21
2, 4319, Note_on_c, 9, 38, 75
2, 4386, Note_on_c, 9, 36, 0
2, 4386, Note_on_c, 9, 51, 0
2, 4392, Control_c, 9, 4, 87
2, 4401, Note_on_c, 9, 38, 0
2, 4425, Control_c, 9, 4, 72
2, 4470, Control_c, 9, 4, 0
2, 4532, Control_c, 9, 4, 33
2, 4538, Note_on_c, 9, 44, 127
2, 4558, Control_c, 9, 17, 127
2, 4559, Note_on_c, 9, 51, 79
2, 4563, Control_c, 9, 4, 120
2, 4620, Note_on_c, 9, 44, 0
2, 4626, Control_c, 9, 4, 90
2, 4640, Note_on_c, 9, 51, 0
2, 4664, Control_c, 9, 18, 0
2, 4664, Note_on_c, 9, 48, 49
2, 4678, Note_on_c, 9, 36, 57
2, 4745, Note_on_c, 9, 48, 0
2, 4760, Note_on_c, 9, 36, 0
2, 4785, Control_c, 9, 4, 116
2, 4797, Note_on_c, 9, 48, 69
2, 4804, Control_c, 9, 17, 0
2, 4804, Note_on_c, 9, 51, 54
2, 4855, Control_c, 9, 4, 98
2, 4879, Note_on_c, 9, 48, 0
2, 4886, Note_on_c, 9, 51, 0
2, 4899, Control_c, 9, 4, 73
2, 4930, Control_c, 9, 17, 124
2, 4930, Note_on_c, 9, 51, 67
2, 4946, Control_c, 9, 4, 0
2, 5010, Note_on_c, 9, 36, 61
2, 5012, Note_on_c, 9, 51, 0
2, 5015, Note_on_c, 9, 46, 11
2, 5023, Control_c, 9, 4, 34
2, 5028, Note_on_c, 9, 44, 127
2, 5054, Control_c, 9, 4, 120
2, 5069, Note_on_c, 9, 49, 6
2, 5093, Note_on_c, 9, 36, 0
2, 5097, Note_on_c, 9, 46, 0
2, 5108, Control_c, 9, 4, 94
2, 5110, Note_on_c, 9, 44, 0
2, 5141, Control_c, 9, 4, 81
2, 5152, Note_on_c, 9, 49, 0
2, 5175, Control_c, 9, 4, 69
2, 5197, Control_c, 9, 17, 100
2, 5198, Note_on_c, 9, 51, 87
2, 5213, Control_c, 9, 4, 0
2, 5256, Note_on_c, 9, 36, 81
2, 5263, Note_on_c, 9, 44, 87
2, 5270, Control_c, 9, 4, 110
2, 5280, Note_on_c, 9, 51, 0
2, 5296, Control_c, 9, 16, 0
2, 5296, Note_on_c, 9, 38, 68
2, 5313, Control_c, 9, 4, 102
2, 5338, Note_on_c, 9, 36, 0
2, 5345, Note_on_c, 9, 44, 0
2, 5351, Control_c, 9, 4, 89
2, 5379, Note_on_c, 9, 38, 0
2, 5394, Control_c, 9, 4, 79
2, 5505, Control_c, 9, 4, 90
2, 5523, Control_c, 9, 17, 127
2, 5524, Note_on_c, 9, 51, 80
2, 5544, Control_c, 9, 4, 116
2, 5578, Control_c, 9, 4, 98
2, 5606, Note_on_c, 9, 51, 0
2, 5609, Control_c, 9, 4, 83
2, 5619, Note_on_c, 9, 36, 55
2, 5640, Control_c, 9, 4, 70
2, 5644, Control_c, 9, 18, 0
2, 5645, Note_on_c, 9, 48, 47
2, 5677, Control_c, 9, 4, 0
2, 5701, Note_on_c, 9, 36, 0
2, 5726, Note_on_c, 9, 48, 0
2, 5746, Control_c, 9, 4, 34
2, 5752, Note_on_c, 9, 44, 127
2, 5764, Note_on_c, 9, 51, 49
2, 5770, Note_on_c, 9, 48, 69
2, 5778, Control_c, 9, 4, 120
2, 5834, Note_on_c, 9, 44, 0
2, 5845, Note_on_c, 9, 51, 0
2, 5846, Control_c, 9, 4, 92
2, 5851, Note_on_c, 9, 48, 0
2, 5877, Control_c, 9, 17, 127
2, 5878, Note_on_c, 9, 51, 68
2, 5959, Note_on_c, 9, 51, 0
2, 5992, Control_c, 9, 17, 127
2, 5993, Note_on_c, 9, 51, 5
2, 5996, Note_on_c, 9, 36, 53
2, 5999, Control_c, 9, 4, 108
2, 6031, Control_c, 9, 4, 102
2, 6070, Control_c, 9, 4, 91
2, 6074, Note_on_c, 9, 51, 0
2, 6077, Note_on_c, 9, 36, 0
2, 6232, Control_c, 9, 17, 49
2, 6233, Note_on_c, 9, 51, 97
2, 6235, Note_on_c, 9, 36, 68
2, 6238, Note_on_c, 9, 38, 92
2, 6240, Control_c, 9, 4, 95
2, 6313, Note_on_c, 9, 51, 0
2, 6318, Note_on_c, 9, 36, 0
2, 6319, Note_on_c, 9, 38, 0
2, 6330, Control_c, 9, 4, 82
2, 6363, Control_c, 9, 4, 69
2, 6395, Control_c, 9, 4, 0
2, 6461, Control_c, 9, 4, 34
2, 6467, Note_on_c, 9, 44, 127
2, 6481, Control_c, 9, 17, 127
2, 6482, Note_on_c, 9, 51, 82
2, 6492, Control_c, 9, 4, 118
2, 6548, Note_on_c, 9, 44, 0
2, 6562, Control_c, 9, 4, 92
2, 6563, Note_on_c, 9, 51, 0
2, 6600, Control_c, 9, 18, 0
2, 6601, Note_on_c, 9, 48, 51
2, 6604, Control_c, 9, 4, 88
2, 6606, Note_on_c, 9, 36, 58
2, 6681, Note_on_c, 9, 48, 0
2, 6689, Note_on_c, 9, 36, 0
2, 6726, Note_on_c, 9, 48, 62
2, 6727, Control_c, 9, 17, 0
2, 6728, Note_on_c, 9, 51, 56
2, 6740, Control_c, 9, 4, 120
2, 6795, Control_c, 9, 4, 96
2, 6807, Note_on_c, 9, 48, 0
2, 6807, Note_on_c, 9, 51, 0
2, 6835, Control_c, 9, 4, 71
2, 6853, Control_c, 9, 17, 127
2, 6854, Note_on_c, 9, 51, 65
2, 6873, Control_c, 9, 4, 0
2, 6916, Control_c, 9, 4, 0
2, 6916, Note_on_c, 9, 46, 25
2, 6935, Note_on_c, 9, 51, 0
2, 6952, Note_on_c, 9, 46, 0
2, 6952, Note_on_c, 9, 46, 13
2, 6959, Control_c, 9, 4, 34
2, 6960, Note_on_c, 9, 36, 65
2, 6965, Note_on_c, 9, 44, 127
2, 6990, Control_c, 9, 4, 127
2, 6998, Note_on_c, 9, 46, 0
2, 7042, Note_on_c, 9, 36, 0
2, 7046, Note_on_c, 9, 44, 0
2, 7055, Control_c, 9, 4, 90
2, 7086, Note_on_c, 9, 59, 42
2, 7089, Control_c, 9, 4, 76
2, 7168, Note_on_c, 9, 59, 0
2, 7200, Note_on_c, 9, 36, 80
2, 7204, Note_on_c, 9, 51, 5
2, 7205, Control_c, 9, 16, 0
2, 7205, Note_on_c, 9, 38, 86
2, 7207, Control_c, 9, 17, 100
2, 7208, Note_on_c, 9, 51, 0
2, 7209, Note_on_c, 9, 51, 73
2, 7221, Control_c, 9, 4, 108
2, 7261, Control_c, 9, 4, 106
2, 7283, Note_on_c, 9, 36, 0
2, 7284, Note_on_c, 9, 38, 0
2, 7284, Note_on_c, 9, 51, 0
2, 7301, Control_c, 9, 4, 82
2, 7333, Control_c, 9, 4, 70
2, 7378, Control_c, 9, 4, 0
2, 7442, Control_c, 9, 4, 33
2, 7448, Note_on_c, 9, 44, 127
2, 7453, Control_c, 9, 17, 127
2, 7453, Note_on_c, 9, 51, 64
2, 7473, Control_c, 9, 4, 120
2, 7519, Control_c, 9, 4, 97
2, 7529, Note_on_c, 9, 44, 0
2, 7535, Note_on_c, 9, 51, 0
2, 7558, Control_c, 9, 4, 85
2, 7565, Control_c, 9, 18, 0
2, 7566, Note_on_c, 9, 48, 49
2, 7576, Note_on_c, 9, 36, 50
2, 7648, Note_on_c, 9, 48, 0
2, 7658, Note_on_c, 9, 36, 0
2, 7659, End_track
0, 0, End_of_file
