0, 0, Header, 1, 2, 480
1, 0, Start_track
1, 0, Tempo, 705882
1, 0, Time_signature, 4, 2, 24, 8
1, 0, Time_signature, 4, 2, 24, 8
1, 0, Key_signature, 0, "major"
1, 1, End_track
2, 0, Start_track
2, 0, Title_t, "SoCal"
2, 0, Program_c, 9, 0
2, 0, Control_c, 9, 16, 0
2, 5, Note_on_c, 9, 36, 52
2, 9, Control_c, 9, 4, 95
2, 69, Control_c, 9, 4, 90
2, 73, Note_on_c, 9, 36, 0
2, 99, Control_c, 9, 4, 85
2, 120, Control_c, 9, 16, 0
2, 120, Note_on_c, 9, 38, 31
2, 136, Control_c, 9, 4, 70
2, 176, Control_c, 9, 4, 12
2, 188, Note_on_c, 9, 38, 0
2, 218, Control_c, 9, 4, 41
2, 228, Note_on_c, 9, 44, 48
2, 239, Control_c, 9, 16, 21
2, 239, Note_on_c, 9, 38, 50
2, 249, Control_c, 9, 4, 95
2, 296, Note_on_c, 9, 44, 0
2, 307, Note_on_c, 9, 38, 0
2, 319, Control_c, 9, 4, 89
2, 360, Control_c, 9, 16, 0
2, 360, Note_on_c, 9, 38, 25
2, 383, Control_c, 9, 4, 68
2, 426, Control_c, 9, 4, 18
2, 429, Note_on_c, 9, 38, 0
2, 458, Control_c, 9, 4, 46
2, 467, Note_on_c, 9, 44, 48
2, 476, Control_c, 9, 16, 21
2, 477, Note_on_c, 9, 38, 38
2, 480, Note_on_c, 9, 36, 46
2, 488, Control_c, 9, 4, 95
2, 535, Note_on_c, 9, 44, 0
2, 544, Note_on_c, 9, 38, 0
2, 548, Note_on_c, 9, 36, 0
2, 551, Control_c, 9, 4, 89
2, 588, Control_c, 9, 16, 0
2, 589, Note_on_c, 9, 38, 20
2, 604, Control_c, 9, 4, 67
2, 605, Note_on_c, 9, 36, 38
2, 637, Control_c, 9, 4, 0
2, 657, Note_on_c, 9, 38, 0
2, 673, Note_on_c, 9, 36, 0
2, 700, Control_c, 9, 4, 32
2, 710, Note_on_c, 9, 44, 61
2, 715, Control_c, 9, 16, 0
2, 715, Note_on_c, 9, 38, 47
2, 731, Control_c, 9, 4, 94
2, 778, Note_on_c, 9, 44, 0
2, 783, Note_on_c, 9, 38, 0
2, 809, Control_c, 9, 4, 89
2, 844, Control_c, 9, 16, 0
2, 844, Note_on_c, 9, 38, 45
2, 871, Control_c, 9, 4, 68
2, 904, Control_c, 9, 4, 30
2, 912, Note_on_c, 9, 38, 0
2, 937, Control_c, 9, 4, 38
2, 952, Note_on_c, 9, 44, 41
2, 960, Control_c, 9, 16, 0
2, 961, Note_on_c, 9, 38, 39
2, 965, Note_on_c, 9, 36, 58
2, 967, Control_c, 9, 4, 99
2, 997, Control_c, 9, 4, 94
2, 1020, Note_on_c, 9, 44, 0
2, 1028, Note_on_c, 9, 38, 0
2, 1033, Note_on_c, 9, 36, 0
2, 1041, Control_c, 9, 4, 89
2, 1084, Control_c, 9, 16, 0
2, 1084, Note_on_c, 9, 38, 29
2, 1100, Control_c, 9, 4, 67
2, 1135, Control_c, 9, 4, 0
2, 1152, Note_on_c, 9, 38, 0
2, 1187, Control_c, 9, 4, 31
2, 1197, Note_on_c, 9, 44, 61
2, 1207, Control_c, 9, 16, 0
2, 1207, Note_on_c, 9, 38, 51
2, 1218, Control_c, 9, 4, 95
2, 1265, Note_on_c, 9, 44, 0
2, 1276, Note_on_c, 9, 38, 0
2, 1294, Control_c, 9, 4, 89
2, 1330, Control_c, 9, 16, 0
2, 1331, Note_on_c, 9, 38, 27
2, 1346, Control_c, 9, 4, 76
2, 1377, Control_c, 9, 4, 38
2, 1398, Note_on_c, 9, 38, 0
2, 1415, Control_c, 9, 4, 27
2, 1436, Note_on_c, 9, 44, 48
2, 1438, Control_c, 9, 16, 0
2, 1439, Note_on_c, 9, 38, 35
2, 1449, Control_c, 9, 4, 104
2, 1450, Note_on_c, 9, 36, 53
2, 1481, Control_c, 9, 4, 94
2, 1504, Note_on_c, 9, 44, 0
2, 1506, Note_on_c, 9, 38, 0
2, 1518, Note_on_c, 9, 36, 0
2, 1520, Control_c, 9, 4, 89
2, 1562, Note_on_c, 9, 46, 9
2, 1563, Control_c, 9, 16, 0
2, 1564, Note_on_c, 9, 38, 23
2, 1566, Note_on_c, 9, 36, 41
2, 1572, Control_c, 9, 4, 69
2, 1616, Control_c, 9, 4, 0
2, 1629, Note_on_c, 9, 46, 0
2, 1631, Note_on_c, 9, 38, 0
2, 1634, Note_on_c, 9, 36, 0
2, 1668, Control_c, 9, 4, 32
2, 1672, Control_c, 9, 16, 21
2, 1673, Note_on_c, 9, 38, 51
2, 1677, Note_on_c, 9, 44, 67
2, 1698, Control_c, 9, 4, 95
2, 1740, Note_on_c, 9, 38, 0
2, 1745, Note_on_c, 9, 44, 0
2, 1777, Control_c, 9, 4, 90
2, 1802, Control_c, 9, 16, 0
2, 1802, Note_on_c, 9, 38, 45
2, 1823, Control_c, 9, 4, 78
2, 1824, Note_on_c, 9, 46, 7
2, 1860, Control_c, 9, 4, 21
2, 1870, Note_on_c, 9, 38, 0
2, 1891, Note_on_c, 9, 46, 0
2, 1899, Control_c, 9, 4, 17
2, 1917, Note_on_c, 9, 44, 61
2, 1921, Note_on_c, 9, 36, 67
2, 1929, Control_c, 9, 4, 106
2, 1941, Control_c, 9, 17, 46
2, 1941, Note_on_c, 9, 51, 61
2, 1964, Control_c, 9, 4, 94
2, 1985, Note_on_c, 9, 44, 0
2, 1990, Note_on_c, 9, 36, 0
2, 2000, Control_c, 9, 4, 89
2, 2010, Note_on_c, 9, 51, 0
2, 2030, Control_c, 9, 4, 83
2, 2051, Control_c, 9, 16, 0
2, 2051, Note_on_c, 9, 38, 25
2, 2063, Note_on_c, 9, 46, 8
2, 2075, Control_c, 9, 4, 52
2, 2111, Control_c, 9, 4, 1
2, 2119, Note_on_c, 9, 38, 0
2, 2131, Note_on_c, 9, 46, 0
2, 2147, Control_c, 9, 4, 43
2, 2155, Note_on_c, 9, 44, 61
2, 2171, Control_c, 9, 16, 0
2, 2171, Note_on_c, 9, 38, 48
2, 2177, Control_c, 9, 4, 97
2, 2223, Note_on_c, 9, 44, 0
2, 2231, Control_c, 9, 4, 92
2, 2240, Note_on_c, 9, 38, 0
2, 2262, Control_c, 9, 4, 87
2, 2288, Control_c, 9, 16, 0
2, 2288, Note_on_c, 9, 38, 27
2, 2303, Note_on_c, 9, 46, 7
2, 2314, Control_c, 9, 4, 68
2, 2353, Control_c, 9, 4, 14
2, 2356, Note_on_c, 9, 38, 0
2, 2370, Note_on_c, 9, 46, 0
2, 2390, Control_c, 9, 4, 46
2, 2399, Note_on_c, 9, 44, 54
2, 2406, Control_c, 9, 16, 0
2, 2407, Note_on_c, 9, 38, 35
2, 2413, Note_on_c, 9, 36, 47
2, 2420, Control_c, 9, 4, 95
2, 2466, Note_on_c, 9, 44, 0
2, 2475, Note_on_c, 9, 38, 0
2, 2481, Control_c, 9, 4, 90
2, 2481, Note_on_c, 9, 36, 0
2, 2525, Control_c, 9, 4, 80
2, 2529, Note_on_c, 9, 36, 37
2, 2532, Control_c, 9, 16, 0
2, 2532, Note_on_c, 9, 38, 22
2, 2559, Control_c, 9, 4, 54
2, 2597, Control_c, 9, 4, 0
2, 2597, Note_on_c, 9, 36, 0
2, 2601, Note_on_c, 9, 38, 0
2, 2634, Control_c, 9, 4, 42
2, 2643, Note_on_c, 9, 44, 54
2, 2648, Control_c, 9, 16, 0
2, 2649, Note_on_c, 9, 38, 45
2, 2664, Control_c, 9, 4, 95
2, 2711, Note_on_c, 9, 44, 0
2, 2716, Note_on_c, 9, 38, 0
2, 2761, Control_c, 9, 4, 85
2, 2785, Control_c, 9, 16, 0
2, 2785, Note_on_c, 9, 38, 48
2, 2795, Control_c, 9, 4, 69
2, 2837, Control_c, 9, 4, 16
2, 2854, Note_on_c, 9, 38, 0
2, 2883, Note_on_c, 9, 44, 48
2, 2896, Control_c, 9, 4, 102
2, 2897, Note_on_c, 9, 36, 58
2, 2901, Control_c, 9, 16, 0
2, 2901, Note_on_c, 9, 38, 32
2, 2927, Control_c, 9, 4, 92
2, 2951, Note_on_c, 9, 44, 0
2, 2965, Note_on_c, 9, 36, 0
2, 2969, Note_on_c, 9, 38, 0
2, 3005, Control_c, 9, 4, 81
2, 3022, Control_c, 9, 16, 0
2, 3022, Note_on_c, 9, 38, 30
2, 3037, Control_c, 9, 4, 67
2, 3075, Control_c, 9, 4, 0
2, 3091, Note_on_c, 9, 38, 0
2, 3118, Control_c, 9, 4, 30
2, 3129, Note_on_c, 9, 44, 61
2, 3139, Control_c, 9, 16, 21
2, 3140, Note_on_c, 9, 38, 49
2, 3150, Control_c, 9, 4, 94
2, 3197, Note_on_c, 9, 44, 0
2, 3208, Note_on_c, 9, 38, 0
2, 3227, Control_c, 9, 4, 89
2, 3260, Control_c, 9, 4, 84
2, 3263, Control_c, 9, 16, 0
2, 3263, Note_on_c, 9, 38, 25
2, 3276, Note_on_c, 9, 46, 7
2, 3290, Control_c, 9, 4, 69
2, 3322, Control_c, 9, 4, 28
2, 3331, Note_on_c, 9, 38, 0
2, 3343, Note_on_c, 9, 46, 0
2, 3362, Control_c, 9, 4, 44
2, 3373, Note_on_c, 9, 44, 41
2, 3377, Control_c, 9, 16, 0
2, 3378, Note_on_c, 9, 38, 36
2, 3388, Note_on_c, 9, 36, 46
2, 3394, Control_c, 9, 4, 95
2, 3441, Note_on_c, 9, 44, 0
2, 3445, Note_on_c, 9, 38, 0
2, 3455, Control_c, 9, 4, 90
2, 3455, Note_on_c, 9, 36, 0
2, 3496, Control_c, 9, 16, 0
2, 3497, Note_on_c, 9, 38, 24
2, 3503, Note_on_c, 9, 36, 42
2, 3511, Control_c, 9, 4, 69
2, 3554, Control_c, 9, 4, 0
2, 3564, Note_on_c, 9, 38, 0
2, 3571, Note_on_c, 9, 36, 0
2, 3610, Control_c, 9, 4, 32
2, 3620, Control_c, 9, 16, 0
2, 3620, Note_on_c, 9, 38, 46
2, 3620, Note_on_c, 9, 44, 67
2, 3641, Control_c, 9, 4, 95
2, 3688, Note_on_c, 9, 38, 0
2, 3688, Note_on_c, 9, 44, 0
2, 3715, Control_c, 9, 4, 90
2, 3744, Control_c, 9, 16, 21
2, 3744, Note_on_c, 9, 38, 46
2, 3750, Control_c, 9, 4, 85
2, 3772, Note_on_c, 9, 46, 10
2, 3781, Control_c, 9, 4, 68
2, 3812, Control_c, 9, 4, 28
2, 3812, Note_on_c, 9, 38, 0
2, 3840, Note_on_c, 9, 46, 0
2, 3850, Control_c, 9, 4, 45
2, 3860, Note_on_c, 9, 44, 48
2, 3864, Control_c, 9, 16, 0
2, 3865, Note_on_c, 9, 36, 57
2, 3865, Note_on_c, 9, 38, 34
2, 3881, Control_c, 9, 4, 95
2, 3928, Note_on_c, 9, 44, 0
2, 3932, Note_on_c, 9, 38, 0
2, 3933, Note_on_c, 9, 36, 0
2, 3942, Control_c, 9, 4, 90
2, 3973, Control_c, 9, 4, 85
2, 3981, Control_c, 9, 16, 0
2, 3982, Note_on_c, 9, 38, 28
2, 4000, Note_on_c, 9, 46, 7
2, 4013, Control_c, 9, 4, 68
2, 4049, Note_on_c, 9, 38, 0
2, 4052, Control_c, 9, 4, 17
2, 4067, Note_on_c, 9, 46, 0
2, 4086, Control_c, 9, 4, 45
2, 4096, Note_on_c, 9, 44, 41
2, 4103, Control_c, 9, 16, 0
2, 4104, Note_on_c, 9, 38, 52
2, 4117, Control_c, 9, 4, 95
2, 4165, Note_on_c, 9, 44, 0
2, 4171, Note_on_c, 9, 38, 0
2, 4194, Control_c, 9, 4, 90
2, 4225, Control_c, 9, 16, 0
2, 4225, Note_on_c, 9, 38, 28
2, 4250, Control_c, 9, 4, 79
2, 4289, Control_c, 9, 4, 47
2, 4292, Note_on_c, 9, 38, 0
2, 4324, Control_c, 9, 4, 51
2, 4336, Note_on_c, 9, 44, 28
2, 4342, Control_c, 9, 16, 0
2, 4342, Note_on_c, 9, 38, 36
2, 4357, Control_c, 9, 4, 95
2, 4357, Note_on_c, 9, 36, 42
2, 4404, Note_on_c, 9, 44, 0
2, 4410, Note_on_c, 9, 38, 0
2, 4422, Control_c, 9, 4, 89
2, 4425, Note_on_c, 9, 36, 0
2, 4460, Control_c, 9, 16, 0
2, 4460, Note_on_c, 9, 38, 25
2, 4481, Control_c, 9, 4, 67
2, 4513, Control_c, 9, 4, 0
2, 4528, Note_on_c, 9, 38, 0
2, 4564, Control_c, 9, 4, 32
2, 4575, Note_on_c, 9, 44, 54
2, 4585, Control_c, 9, 16, 0
2, 4585, Note_on_c, 9, 38, 47
2, 4596, Control_c, 9, 4, 95
2, 4643, Note_on_c, 9, 44, 0
2, 4653, Note_on_c, 9, 38, 0
2, 4674, Control_c, 9, 4, 89
2, 4709, Control_c, 9, 16, 0
2, 4709, Note_on_c, 9, 38, 44
2, 4734, Control_c, 9, 4, 67
2, 4770, Control_c, 9, 4, 13
2, 4778, Note_on_c, 9, 38, 0
2, 4805, Control_c, 9, 4, 42
2, 4815, Note_on_c, 9, 44, 48
2, 4826, Control_c, 9, 16, 0
2, 4826, Note_on_c, 9, 38, 37
2, 4835, Note_on_c, 9, 36, 44
2, 4836, Control_c, 9, 4, 95
2, 4883, Note_on_c, 9, 44, 0
2, 4894, Note_on_c, 9, 38, 0
2, 4903, Note_on_c, 9, 36, 0
2, 4906, Control_c, 9, 4, 90
2, 4936, Control_c, 9, 4, 85
2, 4949, Control_c, 9, 16, 0
2, 4949, Note_on_c, 9, 38, 27
2, 4980, Control_c, 9, 4, 52
2, 5015, Control_c, 9, 4, 0
2, 5017, Note_on_c, 9, 38, 0
2, 5051, Control_c, 9, 4, 29
2, 5063, Note_on_c, 9, 44, 54
2, 5070, Control_c, 9, 16, 0
2, 5070, Note_on_c, 9, 38, 51
2, 5084, Control_c, 9, 4, 93
2, 5131, Note_on_c, 9, 44, 0
2, 5138, Note_on_c, 9, 38, 0
2, 5170, Control_c, 9, 4, 88
2, 5187, Control_c, 9, 16, 0
2, 5187, Note_on_c, 9, 38, 28
2, 5214, Control_c, 9, 4, 75
2, 5221, Note_on_c, 9, 46, 9
2, 5249, Control_c, 9, 4, 32
2, 5255, Note_on_c, 9, 38, 0
2, 5287, Control_c, 9, 4, 29
2, 5289, Note_on_c, 9, 46, 0
2, 5304, Note_on_c, 9, 44, 48
2, 5308, Control_c, 9, 16, 0
2, 5308, Note_on_c, 9, 38, 35
2, 5317, Control_c, 9, 4, 104
2, 5319, Note_on_c, 9, 36, 44
2, 5350, Control_c, 9, 4, 92
2, 5372, Note_on_c, 9, 44, 0
2, 5375, Note_on_c, 9, 38, 0
2, 5387, Note_on_c, 9, 36, 0
2, 5417, Control_c, 9, 4, 80
2, 5428, Note_on_c, 9, 46, 7
2, 5429, Control_c, 9, 16, 0
2, 5429, Note_on_c, 9, 38, 23
2, 5453, Control_c, 9, 4, 52
2, 5483, Control_c, 9, 4, 0
2, 5495, Note_on_c, 9, 46, 0
2, 5497, Note_on_c, 9, 38, 0
2, 5532, Control_c, 9, 4, 32
2, 5542, Note_on_c, 9, 44, 61
2, 5550, Control_c, 9, 16, 0
2, 5550, Note_on_c, 9, 38, 46
2, 5563, Control_c, 9, 4, 95
2, 5610, Note_on_c, 9, 44, 0
2, 5618, Note_on_c, 9, 38, 0
2, 5640, Control_c, 9, 4, 90
2, 5671, Control_c, 9, 16, 0
2, 5671, Note_on_c, 9, 38, 46
2, 5699, Control_c, 9, 4, 77
2, 5699, Note_on_c, 9, 46, 10
2, 5733, Control_c, 9, 4, 44
2, 5740, Note_on_c, 9, 38, 0
2, 5765, Control_c, 9, 4, 48
2, 5767, Note_on_c, 9, 46, 0
2, 5780, Note_on_c, 9, 44, 28
2, 5792, Control_c, 9, 16, 0
2, 5793, Note_on_c, 9, 38, 36
2, 5797, Note_on_c, 9, 36, 57
2, 5801, Control_c, 9, 4, 96
2, 5848, Note_on_c, 9, 44, 0
2, 5852, Control_c, 9, 4, 91
2, 5860, Note_on_c, 9, 38, 0
2, 5865, Note_on_c, 9, 36, 0
2, 5901, Control_c, 9, 4, 76
2, 5901, Note_on_c, 9, 46, 6
2, 5913, Control_c, 9, 16, 0
2, 5913, Note_on_c, 9, 38, 31
2, 5933, Control_c, 9, 4, 0
2, 5969, Note_on_c, 9, 46, 0
2, 5981, Note_on_c, 9, 38, 0
2, 5987, Note_on_c, 9, 46, 16
2, 5999, Control_c, 9, 4, 16
2, 6010, Note_on_c, 9, 44, 74
2, 6028, Control_c, 9, 16, 85
2, 6028, Note_on_c, 9, 38, 54
2, 6031, Control_c, 9, 4, 68
2, 6055, Note_on_c, 9, 46, 0
2, 6063, Control_c, 9, 4, 0
2, 6078, Note_on_c, 9, 44, 0
2, 6096, Note_on_c, 9, 38, 0
2, 6160, Control_c, 9, 16, 0
2, 6160, Note_on_c, 9, 38, 28
2, 6228, Note_on_c, 9, 38, 0
2, 6253, Control_c, 9, 4, 32
2, 6266, Note_on_c, 9, 44, 48
2, 6271, Control_c, 9, 16, 0
2, 6271, Note_on_c, 9, 38, 38
2, 6272, Note_on_c, 9, 36, 46
2, 6287, Control_c, 9, 4, 92
2, 6334, Note_on_c, 9, 44, 0
2, 6339, Note_on_c, 9, 38, 0
2, 6340, Note_on_c, 9, 36, 0
2, 6370, Control_c, 9, 4, 80
2, 6388, Note_on_c, 9, 46, 9
2, 6390, Note_on_c, 9, 36, 38
2, 6391, Control_c, 9, 16, 0
2, 6391, Note_on_c, 9, 38, 29
2, 6406, Control_c, 9, 4, 52
2, 6436, Control_c, 9, 4, 0
2, 6456, Note_on_c, 9, 46, 0
2, 6458, Note_on_c, 9, 36, 0
2, 6458, Note_on_c, 9, 38, 0
2, 6493, Control_c, 9, 4, 32
2, 6504, Note_on_c, 9, 44, 61
2, 6509, Control_c, 9, 16, 0
2, 6510, Note_on_c, 9, 38, 47
2, 6526, Control_c, 9, 4, 98
2, 6573, Note_on_c, 9, 44, 0
2, 6578, Note_on_c, 9, 38, 0
2, 6594, Control_c, 9, 4, 92
2, 6635, Control_c, 9, 16, 0
2, 6635, Note_on_c, 9, 38, 44
2, 6641, Control_c, 9, 4, 80
2, 6641, Note_on_c, 9, 46, 8
2, 6671, Control_c, 9, 4, 56
2, 6701, Control_c, 9, 4, 30
2, 6703, Note_on_c, 9, 38, 0
2, 6708, Note_on_c, 9, 46, 0
2, 6736, Control_c, 9, 4, 57
2, 6744, Note_on_c, 9, 44, 35
2, 6747, Control_c, 9, 16, 0
2, 6747, Note_on_c, 9, 38, 36
2, 6762, Note_on_c, 9, 36, 52
2, 6766, Control_c, 9, 4, 98
2, 6812, Note_on_c, 9, 44, 0
2, 6815, Note_on_c, 9, 38, 0
2, 6829, Note_on_c, 9, 36, 0
2, 6844, Control_c, 9, 4, 88
2, 6866, Control_c, 9, 16, 0
2, 6866, Note_on_c, 9, 38, 28
2, 6883, Control_c, 9, 4, 77
2, 6883, Note_on_c, 9, 46, 10
2, 6917, Control_c, 9, 4, 0
2, 6934, Note_on_c, 9, 38, 0
2, 6952, Note_on_c, 9, 46, 0
2, 6982, Control_c, 9, 4, 48
2, 6985, Control_c, 9, 16, 64
2, 6985, Note_on_c, 9, 38, 51
2, 6991, Note_on_c, 9, 44, 54
2, 7012, Control_c, 9, 4, 68
2, 7044, Control_c, 9, 4, 0
2, 7053, Note_on_c, 9, 38, 0
2, 7059, Note_on_c, 9, 44, 0
2, 7113, Control_c, 9, 16, 0
2, 7113, Note_on_c, 9, 38, 29
2, 7181, Note_on_c, 9, 38, 0
2, 7223, Control_c, 9, 4, 32
2, 7229, Control_c, 9, 16, 0
2, 7230, Note_on_c, 9, 38, 37
2, 7234, Note_on_c, 9, 36, 51
2, 7234, Note_on_c, 9, 44, 54
2, 7255, Control_c, 9, 4, 91
2, 7298, Note_on_c, 9, 38, 0
2, 7302, Note_on_c, 9, 44, 0
2, 7303, Note_on_c, 9, 36, 0
2, 7342, Control_c, 9, 4, 80
2, 7356, Note_on_c, 9, 46, 8
2, 7357, Control_c, 9, 16, 0
2, 7357, Note_on_c, 9, 38, 29
2, 7378, Control_c, 9, 4, 53
2, 7411, Control_c, 9, 4, 0
2, 7424, Note_on_c, 9, 38, 0
2, 7424, Note_on_c, 9, 46, 0
2, 7458, Control_c, 9, 4, 16
2, 7471, Note_on_c, 9, 44, 67
2, 7477, Control_c, 9, 16, 0
2, 7477, Note_on_c, 9, 38, 50
2, 7492, Control_c, 9, 4, 98
2, 7540, Note_on_c, 9, 44, 0
2, 7546, Note_on_c, 9, 38, 0
2, 7570, Control_c, 9, 4, 89
2, 7601, Control_c, 9, 16, 0
2, 7601, Note_on_c, 9, 38, 42
2, 7613, Control_c, 9, 4, 79
2, 7644, Control_c, 9, 4, 55
2, 7669, Note_on_c, 9, 38, 0
2, 7676, Control_c, 9, 4, 25
2, 7677, End_track
0, 0, End_of_file
