0, 0, Header, 1, 2, 480
1, 0, Start_track
1, 0, Tempo, 545454
1, 0, Time_signature, 4, 2, 24, 8
1, 0, Key_signature, 0, "major"
1, 1, End_track
2, 0, Start_track
2, 0, Title_t, "TD-30 #9 Djembe"
2, 0, Program_c, 9, 0
2, 0, Control_c, 9, 17, 45
2, 12, Control_c, 9, 4, 89
2, 35, Control_c, 9, 17, 47
2, 35, Note_on_c, 9, 51, 71
2, 37, Control_c, 9, 18, 0
2, 37, Note_on_c, 9, 48, 51
2, 57, Control_c, 9, 4, 93
2, 100, Control_c, 9, 4, 85
2, 123, Note_on_c, 9, 51, 0
2, 126, Note_on_c, 9, 48, 0
2, 134, Control_c, 9, 4, 70
2, 177, Control_c, 9, 4, 0
2, 253, Control_c, 9, 4, 66
2, 255, Note_on_c, 9, 44, 113
2, 271, Note_on_c, 9, 48, 69
2, 278, Control_c, 9, 17, 47
2, 279, Note_on_c, 9, 51, 71
2, 283, Control_c, 9, 4, 71
2, 322, Control_c, 9, 4, 50
2, 343, Note_on_c, 9, 44, 0
2, 359, Note_on_c, 9, 48, 0
2, 367, Note_on_c, 9, 51, 0
2, 379, Control_c, 9, 4, 63
2, 529, Control_c, 9, 17, 57
2, 529, Note_on_c, 9, 36, 53
2, 529, Note_on_c, 9, 51, 85
2, 598, Control_c, 9, 4, 53
2, 617, Note_on_c, 9, 51, 0
2, 619, Note_on_c, 9, 36, 0
2, 628, Control_c, 9, 4, 33
2, 659, Control_c, 9, 4, 0
2, 739, Control_c, 9, 4, 65
2, 742, Control_c, 9, 17, 85
2, 743, Note_on_c, 9, 51, 64
2, 746, Note_on_c, 9, 44, 61
2, 774, Control_c, 9, 4, 82
2, 831, Note_on_c, 9, 51, 0
2, 835, Note_on_c, 9, 44, 0
2, 874, Control_c, 9, 17, 47
2, 874, Note_on_c, 9, 51, 55
2, 963, Note_on_c, 9, 51, 0
2, 981, Control_c, 9, 17, 70
2, 981, Note_on_c, 9, 51, 57
2, 1002, Control_c, 9, 4, 89
2, 1069, Note_on_c, 9, 51, 0
2, 1103, Control_c, 9, 4, 72
2, 1155, Control_c, 9, 4, 0
2, 1216, Control_c, 9, 17, 127
2, 1217, Note_on_c, 9, 51, 83
2, 1228, Control_c, 9, 16, 0
2, 1229, Note_on_c, 9, 40, 61
2, 1232, Control_c, 9, 4, 66
2, 1235, Note_on_c, 9, 44, 106
2, 1262, Control_c, 9, 4, 76
2, 1302, Control_c, 9, 4, 54
2, 1305, Note_on_c, 9, 51, 0
2, 1317, Note_on_c, 9, 40, 0
2, 1323, Note_on_c, 9, 44, 0
2, 1339, Control_c, 9, 4, 62
2, 1448, Control_c, 9, 17, 127
2, 1449, Note_on_c, 9, 51, 49
2, 1518, Control_c, 9, 4, 53
2, 1536, Note_on_c, 9, 51, 0
2, 1561, Control_c, 9, 4, 29
2, 1600, Control_c, 9, 4, 0
2, 1682, Control_c, 9, 4, 60
2, 1688, Control_c, 9, 17, 97
2, 1689, Note_on_c, 9, 51, 66
2, 1691, Note_on_c, 9, 36, 77
2, 1692, Note_on_c, 9, 44, 54
2, 1719, Control_c, 9, 4, 80
2, 1777, Note_on_c, 9, 51, 0
2, 1780, Note_on_c, 9, 36, 0
2, 1780, Note_on_c, 9, 44, 0
2, 1951, Note_on_c, 9, 48, 62
2, 1953, Control_c, 9, 17, 127
2, 1954, Note_on_c, 9, 51, 77
2, 1957, Control_c, 9, 4, 87
2, 2038, Note_on_c, 9, 48, 0
2, 2042, Note_on_c, 9, 51, 0
2, 2058, Control_c, 9, 4, 70
2, 2106, Control_c, 9, 4, 0
2, 2179, Control_c, 9, 17, 127
2, 2179, Note_on_c, 9, 51, 49
2, 2183, Control_c, 9, 4, 65
2, 2186, Note_on_c, 9, 44, 100
2, 2213, Control_c, 9, 4, 70
2, 2257, Control_c, 9, 4, 53
2, 2268, Note_on_c, 9, 51, 0
2, 2275, Note_on_c, 9, 44, 0
2, 2296, Control_c, 9, 4, 59
2, 2432, Note_on_c, 9, 36, 88
2, 2450, Control_c, 9, 17, 90
2, 2451, Note_on_c, 9, 51, 77
2, 2476, Control_c, 9, 4, 54
2, 2509, Control_c, 9, 4, 36
2, 2521, Note_on_c, 9, 36, 0
2, 2538, Note_on_c, 9, 51, 0
2, 2542, Control_c, 9, 4, 0
2, 2660, Control_c, 9, 4, 65
2, 2666, Control_c, 9, 17, 127
2, 2667, Note_on_c, 9, 51, 60
2, 2668, Note_on_c, 9, 44, 67
2, 2694, Control_c, 9, 4, 83
2, 2755, Note_on_c, 9, 44, 0
2, 2755, Note_on_c, 9, 51, 0
2, 2805, Control_c, 9, 17, 58
2, 2806, Note_on_c, 9, 51, 58
2, 2894, Note_on_c, 9, 51, 0
2, 2915, Control_c, 9, 4, 89
2, 2916, Control_c, 9, 17, 82
2, 2917, Note_on_c, 9, 51, 62
2, 2996, Control_c, 9, 4, 83
2, 3005, Note_on_c, 9, 51, 0
2, 3028, Control_c, 9, 4, 70
2, 3071, Control_c, 9, 4, 0
2, 3144, Control_c, 9, 4, 33
2, 3152, Note_on_c, 9, 44, 100
2, 3153, Control_c, 9, 17, 127
2, 3154, Control_c, 9, 16, 6
2, 3154, Note_on_c, 9, 51, 80
2, 3156, Note_on_c, 9, 40, 59
2, 3176, Control_c, 9, 4, 78
2, 3206, Control_c, 9, 4, 61
2, 3241, Note_on_c, 9, 44, 0
2, 3241, Note_on_c, 9, 51, 0
2, 3244, Note_on_c, 9, 40, 0
2, 3252, Control_c, 9, 4, 62
2, 3383, Control_c, 9, 17, 127
2, 3383, Note_on_c, 9, 51, 44
2, 3404, Control_c, 9, 4, 57
2, 3436, Control_c, 9, 4, 49
2, 3468, Control_c, 9, 4, 30
2, 3472, Note_on_c, 9, 51, 0
2, 3504, Control_c, 9, 4, 0
2, 3608, Control_c, 9, 4, 64
2, 3615, Note_on_c, 9, 44, 61
2, 3621, Control_c, 9, 17, 108
2, 3621, Note_on_c, 9, 51, 66
2, 3626, Note_on_c, 9, 36, 82
2, 3643, Control_c, 9, 4, 81
2, 3703, Note_on_c, 9, 44, 0
2, 3709, Note_on_c, 9, 51, 0
2, 3715, Note_on_c, 9, 36, 0
2, 3848, Control_c, 9, 4, 88
2, 3884, Control_c, 9, 17, 125
2, 3885, Note_on_c, 9, 51, 64
2, 3890, Note_on_c, 9, 48, 75
2, 3952, Control_c, 9, 4, 72
2, 3973, Note_on_c, 9, 51, 0
2, 3978, Note_on_c, 9, 48, 0
2, 4002, Control_c, 9, 4, 0
2, 4075, Control_c, 9, 4, 65
2, 4077, Note_on_c, 9, 44, 100
2, 4105, Control_c, 9, 4, 70
2, 4115, Control_c, 9, 17, 99
2, 4115, Note_on_c, 9, 51, 52
2, 4148, Control_c, 9, 4, 49
2, 4165, Note_on_c, 9, 44, 0
2, 4202, Control_c, 9, 4, 61
2, 4204, Note_on_c, 9, 51, 0
2, 4348, Note_on_c, 9, 36, 92
2, 4365, Control_c, 9, 4, 57
2, 4369, Control_c, 9, 17, 127
2, 4370, Note_on_c, 9, 51, 70
2, 4416, Control_c, 9, 4, 39
2, 4436, Note_on_c, 9, 36, 0
2, 4449, Control_c, 9, 4, 0
2, 4458, Note_on_c, 9, 51, 0
2, 4578, Note_on_c, 9, 51, 49
2, 4579, Control_c, 9, 4, 65
2, 4583, Note_on_c, 9, 44, 67
2, 4610, Control_c, 9, 4, 82
2, 4666, Note_on_c, 9, 51, 0
2, 4671, Note_on_c, 9, 44, 0
2, 4711, Note_on_c, 9, 51, 51
2, 4799, Note_on_c, 9, 51, 0
2, 4817, Control_c, 9, 4, 89
2, 4829, Note_on_c, 9, 51, 55
2, 4849, Control_c, 9, 4, 93
2, 4898, Control_c, 9, 4, 85
2, 4916, Note_on_c, 9, 51, 0
2, 4932, Control_c, 9, 4, 70
2, 4977, Control_c, 9, 4, 0
2, 5058, Control_c, 9, 4, 67
2, 5060, Note_on_c, 9, 44, 113
2, 5073, Control_c, 9, 17, 127
2, 5073, Note_on_c, 9, 51, 85
2, 5074, Control_c, 9, 16, 0
2, 5075, Note_on_c, 9, 40, 63
2, 5088, Control_c, 9, 4, 75
2, 5124, Control_c, 9, 4, 51
2, 5148, Note_on_c, 9, 44, 0
2, 5161, Note_on_c, 9, 40, 0
2, 5161, Note_on_c, 9, 51, 0
2, 5173, Control_c, 9, 4, 61
2, 5304, Note_on_c, 9, 51, 48
2, 5355, Control_c, 9, 4, 56
2, 5391, Note_on_c, 9, 51, 0
2, 5393, Control_c, 9, 4, 38
2, 5432, Control_c, 9, 4, 0
2, 5541, Control_c, 9, 4, 66
2, 5545, Note_on_c, 9, 51, 63
2, 5548, Note_on_c, 9, 44, 67
2, 5561, Note_on_c, 9, 36, 82
2, 5574, Control_c, 9, 4, 82
2, 5633, Note_on_c, 9, 51, 0
2, 5635, Note_on_c, 9, 44, 0
2, 5649, Note_on_c, 9, 36, 0
2, 5794, Control_c, 9, 4, 89
2, 5813, Control_c, 9, 18, 0
2, 5814, Note_on_c, 9, 48, 77
2, 5815, Note_on_c, 9, 51, 70
2, 5894, Control_c, 9, 4, 71
2, 5902, Note_on_c, 9, 48, 0
2, 5902, Note_on_c, 9, 51, 0
2, 5939, Control_c, 9, 4, 0
2, 6017, Control_c, 9, 4, 49
2, 6021, Note_on_c, 9, 44, 106
2, 6033, Control_c, 9, 17, 127
2, 6033, Note_on_c, 9, 51, 46
2, 6048, Control_c, 9, 4, 70
2, 6090, Control_c, 9, 4, 48
2, 6110, Note_on_c, 9, 44, 0
2, 6121, Note_on_c, 9, 51, 0
2, 6149, Control_c, 9, 4, 62
2, 6274, Control_c, 9, 4, 57
2, 6285, Note_on_c, 9, 36, 91
2, 6285, Note_on_c, 9, 51, 75
2, 6321, Control_c, 9, 4, 48
2, 6364, Control_c, 9, 4, 0
2, 6373, Note_on_c, 9, 36, 0
2, 6373, Note_on_c, 9, 51, 0
2, 6487, Control_c, 9, 4, 64
2, 6493, Note_on_c, 9, 44, 67
2, 6497, Control_c, 9, 17, 127
2, 6497, Note_on_c, 9, 51, 50
2, 6520, Control_c, 9, 4, 82
2, 6581, Note_on_c, 9, 44, 0
2, 6586, Note_on_c, 9, 51, 0
2, 6622, Control_c, 9, 17, 95
2, 6622, Note_on_c, 9, 51, 47
2, 6710, Note_on_c, 9, 51, 0
2, 6730, Control_c, 9, 17, 127
2, 6731, Note_on_c, 9, 51, 57
2, 6735, Control_c, 9, 4, 89
2, 6810, Control_c, 9, 4, 82
2, 6819, Note_on_c, 9, 51, 0
2, 6847, Control_c, 9, 4, 62
2, 6878, Control_c, 9, 4, 0
2, 6947, Note_on_c, 9, 46, 7
2, 6964, Control_c, 9, 4, 65
2, 6966, Note_on_c, 9, 44, 113
2, 6977, Control_c, 9, 17, 127
2, 6978, Note_on_c, 9, 51, 70
2, 6983, Note_on_c, 9, 40, 64
2, 6994, Control_c, 9, 4, 72
2, 7034, Note_on_c, 9, 46, 0
2, 7036, Control_c, 9, 4, 52
2, 7055, Note_on_c, 9, 44, 0
2, 7066, Note_on_c, 9, 51, 0
2, 7070, Note_on_c, 9, 40, 0
2, 7071, Control_c, 9, 4, 61
2, 7215, Control_c, 9, 17, 0
2, 7216, Note_on_c, 9, 51, 37
2, 7261, Control_c, 9, 4, 55
2, 7295, Control_c, 9, 4, 35
2, 7303, Note_on_c, 9, 51, 0
2, 7326, Control_c, 9, 4, 0
2, 7443, Control_c, 9, 4, 64
2, 7450, Note_on_c, 9, 44, 61
2, 7451, Control_c, 9, 17, 127
2, 7451, Note_on_c, 9, 51, 57
2, 7453, Note_on_c, 9, 36, 69
2, 7477, Control_c, 9, 4, 81
2, 7538, Note_on_c, 9, 44, 0
2, 7539, Note_on_c, 9, 51, 0
2, 7541, Note_on_c, 9, 36, 0
2, 7542, End_track
0, 0, End_of_file
