0, 0, Header, 1, 2, 480
1, 0, Start_track
1, 0, Tempo, 588235
1, 0, Time_signature, 4, 2, 24, 8
1, 0, Key_signature, 0, "major"
1, 1, End_track
2, 0, Start_track
2, 0, Title_t, "Classic Studio Kit"
2, 0, Program_c, 9, 0
2, 0, Control_c, 9, 17, 127
2, 35, Control_c, 9, 4, 97
2, 89, Control_c, 9, 4, 85
2, 120, Control_c, 9, 17, 51
2, 121, Note_on_c, 9, 51, 70
2, 127, Control_c, 9, 4, 70
2, 177, Control_c, 9, 4, 10
2, 202, Note_on_c, 9, 51, 0
2, 210, Control_c, 9, 4, 55
2, 214, Note_on_c, 9, 44, 80
2, 224, Note_on_c, 9, 36, 47
2, 234, Control_c, 9, 17, 51
2, 235, Note_on_c, 9, 51, 6
2, 240, Control_c, 9, 4, 120
2, 276, Control_c, 9, 4, 98
2, 296, Note_on_c, 9, 44, 0
2, 307, Note_on_c, 9, 36, 0
2, 316, Note_on_c, 9, 51, 0
2, 318, Control_c, 9, 4, 85
2, 418, Control_c, 9, 4, 89
2, 448, Control_c, 9, 4, 94
2, 471, Note_on_c, 9, 36, 61
2, 483, Control_c, 9, 17, 17
2, 484, Note_on_c, 9, 51, 93
2, 489, Control_c, 9, 16, 0
2, 490, Note_on_c, 9, 38, 63
2, 554, Note_on_c, 9, 36, 0
2, 565, Note_on_c, 9, 51, 0
2, 572, Note_on_c, 9, 38, 0
2, 592, Control_c, 9, 4, 84
2, 639, Control_c, 9, 4, 54
2, 671, Control_c, 9, 4, 0
2, 710, Control_c, 9, 4, 49
2, 715, Note_on_c, 9, 44, 93
2, 727, Control_c, 9, 17, 85
2, 728, Note_on_c, 9, 51, 74
2, 740, Control_c, 9, 4, 120
2, 778, Control_c, 9, 4, 98
2, 796, Note_on_c, 9, 44, 0
2, 809, Note_on_c, 9, 51, 0
2, 812, Control_c, 9, 4, 84
2, 844, Control_c, 9, 18, 0
2, 844, Note_on_c, 9, 48, 49
2, 852, Note_on_c, 9, 36, 53
2, 926, Note_on_c, 9, 48, 0
2, 934, Note_on_c, 9, 36, 0
2, 936, Control_c, 9, 4, 97
2, 954, Control_c, 9, 17, 91
2, 955, Note_on_c, 9, 51, 50
2, 969, Note_on_c, 9, 48, 64
2, 1035, Note_on_c, 9, 51, 0
2, 1050, Note_on_c, 9, 48, 0
2, 1067, Control_c, 9, 4, 85
2, 1101, Control_c, 9, 4, 70
2, 1102, Control_c, 9, 17, 89
2, 1103, Note_on_c, 9, 51, 68
2, 1141, Control_c, 9, 4, 0
2, 1185, Note_on_c, 9, 51, 0
2, 1190, Control_c, 9, 4, 50
2, 1194, Note_on_c, 9, 44, 106
2, 1205, Note_on_c, 9, 36, 50
2, 1215, Control_c, 9, 17, 89
2, 1216, Note_on_c, 9, 51, 6
2, 1220, Control_c, 9, 4, 116
2, 1256, Control_c, 9, 4, 97
2, 1276, Note_on_c, 9, 44, 0
2, 1287, Note_on_c, 9, 36, 0
2, 1293, Control_c, 9, 4, 85
2, 1296, Note_on_c, 9, 51, 0
2, 1429, Control_c, 9, 4, 94
2, 1444, Note_on_c, 9, 36, 54
2, 1448, Control_c, 9, 17, 35
2, 1448, Note_on_c, 9, 51, 84
2, 1461, Control_c, 9, 16, 21
2, 1461, Note_on_c, 9, 38, 60
2, 1527, Note_on_c, 9, 36, 0
2, 1531, Note_on_c, 9, 51, 0
2, 1542, Note_on_c, 9, 38, 0
2, 1557, Control_c, 9, 4, 83
2, 1593, Control_c, 9, 4, 70
2, 1633, Control_c, 9, 4, 0
2, 1681, Control_c, 9, 4, 49
2, 1686, Note_on_c, 9, 44, 106
2, 1700, Control_c, 9, 17, 107
2, 1701, Note_on_c, 9, 51, 70
2, 1711, Control_c, 9, 4, 118
2, 1753, Control_c, 9, 4, 97
2, 1767, Note_on_c, 9, 44, 0
2, 1783, Note_on_c, 9, 51, 0
2, 1789, Control_c, 9, 4, 85
2, 1813, Control_c, 9, 18, 0
2, 1814, Note_on_c, 9, 48, 47
2, 1819, Note_on_c, 9, 36, 51
2, 1895, Note_on_c, 9, 48, 0
2, 1901, Note_on_c, 9, 36, 0
2, 1908, Control_c, 9, 4, 98
2, 1913, Control_c, 9, 17, 71
2, 1914, Note_on_c, 9, 51, 51
2, 1939, Note_on_c, 9, 48, 61
2, 1996, Note_on_c, 9, 51, 0
2, 2008, Control_c, 9, 4, 92
2, 2021, Note_on_c, 9, 48, 0
2, 2040, Control_c, 9, 4, 86
2, 2058, Control_c, 9, 17, 71
2, 2059, Note_on_c, 9, 51, 74
2, 2073, Control_c, 9, 4, 70
2, 2115, Control_c, 9, 4, 0
2, 2140, Note_on_c, 9, 51, 0
2, 2158, Control_c, 9, 4, 49
2, 2163, Note_on_c, 9, 46, 63
2, 2165, Note_on_c, 9, 44, 100
2, 2174, Note_on_c, 9, 36, 50
2, 2188, Control_c, 9, 4, 116
2, 2239, Control_c, 9, 4, 91
2, 2245, Note_on_c, 9, 44, 0
2, 2245, Note_on_c, 9, 46, 0
2, 2255, Note_on_c, 9, 36, 0
2, 2269, Control_c, 9, 4, 87
2, 2387, Control_c, 9, 4, 92
2, 2418, Control_c, 9, 17, 4
2, 2418, Note_on_c, 9, 51, 98
2, 2422, Note_on_c, 9, 36, 74
2, 2431, Control_c, 9, 16, 0
2, 2431, Note_on_c, 9, 38, 69
2, 2500, Note_on_c, 9, 51, 0
2, 2504, Note_on_c, 9, 36, 0
2, 2512, Note_on_c, 9, 38, 0
2, 2523, Control_c, 9, 4, 85
2, 2559, Control_c, 9, 4, 70
2, 2596, Control_c, 9, 4, 0
2, 2649, Control_c, 9, 4, 32
2, 2656, Note_on_c, 9, 44, 119
2, 2672, Control_c, 9, 17, 94
2, 2672, Note_on_c, 9, 51, 71
2, 2681, Control_c, 9, 4, 120
2, 2720, Control_c, 9, 4, 98
2, 2737, Note_on_c, 9, 44, 0
2, 2755, Control_c, 9, 4, 85
2, 2755, Note_on_c, 9, 51, 0
2, 2778, Control_c, 9, 18, 0
2, 2779, Note_on_c, 9, 48, 47
2, 2787, Note_on_c, 9, 36, 54
2, 2861, Note_on_c, 9, 48, 0
2, 2870, Control_c, 9, 4, 97
2, 2870, Note_on_c, 9, 36, 0
2, 2875, Control_c, 9, 17, 69
2, 2876, Note_on_c, 9, 51, 53
2, 2904, Note_on_c, 9, 48, 63
2, 2933, Control_c, 9, 4, 92
2, 2958, Note_on_c, 9, 51, 0
2, 2985, Note_on_c, 9, 48, 0
2, 3012, Control_c, 9, 17, 56
2, 3012, Note_on_c, 9, 51, 76
2, 3093, Note_on_c, 9, 51, 0
2, 3136, Note_on_c, 9, 36, 49
2, 3218, Note_on_c, 9, 36, 0
2, 3382, Control_c, 9, 17, 46
2, 3382, Note_on_c, 9, 51, 98
2, 3390, Note_on_c, 9, 38, 86
2, 3393, Note_on_c, 9, 36, 80
2, 3412, Control_c, 9, 4, 97
2, 3464, Note_on_c, 9, 51, 0
2, 3472, Control_c, 9, 4, 84
2, 3473, Note_on_c, 9, 38, 0
2, 3475, Note_on_c, 9, 36, 0
2, 3504, Control_c, 9, 4, 70
2, 3543, Control_c, 9, 4, 0
2, 3608, Control_c, 9, 4, 33
2, 3615, Note_on_c, 9, 44, 119
2, 3621, Control_c, 9, 17, 76
2, 3622, Note_on_c, 9, 51, 63
2, 3640, Control_c, 9, 4, 110
2, 3696, Note_on_c, 9, 44, 0
2, 3700, Control_c, 9, 4, 91
2, 3704, Note_on_c, 9, 51, 0
2, 3737, Control_c, 9, 4, 87
2, 3740, Note_on_c, 9, 36, 64
2, 3750, Control_c, 9, 18, 0
2, 3750, Note_on_c, 9, 48, 45
2, 3821, Note_on_c, 9, 36, 0
2, 3823, Control_c, 9, 17, 45
2, 3824, Note_on_c, 9, 51, 51
2, 3833, Note_on_c, 9, 48, 0
2, 3843, Control_c, 9, 4, 97
2, 3867, Note_on_c, 9, 48, 66
2, 3905, Note_on_c, 9, 51, 0
2, 3914, Control_c, 9, 4, 92
2, 3948, Note_on_c, 9, 48, 0
2, 3962, Control_c, 9, 17, 53
2, 3962, Note_on_c, 9, 51, 72
2, 4044, Note_on_c, 9, 51, 0
2, 4095, Note_on_c, 9, 36, 30
2, 4124, Control_c, 9, 4, 96
2, 4175, Note_on_c, 9, 36, 0
2, 4181, Control_c, 9, 4, 90
2, 4219, Control_c, 9, 4, 72
2, 4253, Control_c, 9, 4, 0
2, 4321, Control_c, 9, 4, 49
2, 4326, Note_on_c, 9, 44, 126
2, 4332, Control_c, 9, 17, 20
2, 4333, Note_on_c, 9, 51, 88
2, 4334, Control_c, 9, 16, 0
2, 4334, Note_on_c, 9, 38, 83
2, 4343, Note_on_c, 9, 36, 72
2, 4351, Control_c, 9, 4, 112
2, 4391, Control_c, 9, 4, 95
2, 4408, Note_on_c, 9, 44, 0
2, 4414, Note_on_c, 9, 51, 0
2, 4415, Note_on_c, 9, 38, 0
2, 4425, Note_on_c, 9, 36, 0
2, 4432, Control_c, 9, 4, 84
2, 4556, Control_c, 9, 4, 108
2, 4574, Control_c, 9, 17, 87
2, 4575, Note_on_c, 9, 51, 69
2, 4613, Control_c, 9, 4, 100
2, 4654, Control_c, 9, 4, 89
2, 4656, Note_on_c, 9, 51, 0
2, 4673, Note_on_c, 9, 36, 62
2, 4689, Control_c, 9, 4, 73
2, 4691, Control_c, 9, 18, 0
2, 4691, Note_on_c, 9, 48, 46
2, 4729, Control_c, 9, 4, 0
2, 4755, Note_on_c, 9, 36, 0
2, 4773, Note_on_c, 9, 48, 0
2, 4793, Control_c, 9, 4, 33
2, 4793, Control_c, 9, 17, 111
2, 4794, Note_on_c, 9, 51, 47
2, 4799, Note_on_c, 9, 44, 126
2, 4817, Note_on_c, 9, 48, 68
2, 4824, Control_c, 9, 4, 120
2, 4860, Control_c, 9, 4, 110
2, 4875, Note_on_c, 9, 51, 0
2, 4880, Note_on_c, 9, 44, 0
2, 4890, Control_c, 9, 4, 93
2, 4898, Note_on_c, 9, 48, 0
2, 4941, Control_c, 9, 17, 66
2, 4941, Note_on_c, 9, 51, 77
2, 5018, Control_c, 9, 4, 99
2, 5022, Note_on_c, 9, 51, 0
2, 5038, Note_on_c, 9, 36, 49
2, 5071, Control_c, 9, 4, 94
2, 5120, Note_on_c, 9, 36, 0
2, 5283, Note_on_c, 9, 36, 74
2, 5292, Control_c, 9, 17, 16
2, 5292, Note_on_c, 9, 51, 94
2, 5298, Note_on_c, 9, 38, 83
2, 5364, Note_on_c, 9, 36, 0
2, 5374, Note_on_c, 9, 51, 0
2, 5380, Note_on_c, 9, 38, 0
2, 5400, Control_c, 9, 4, 89
2, 5432, Control_c, 9, 4, 72
2, 5477, Control_c, 9, 4, 0
2, 5522, Control_c, 9, 4, 50
2, 5527, Note_on_c, 9, 44, 100
2, 5540, Control_c, 9, 17, 60
2, 5540, Note_on_c, 9, 51, 68
2, 5553, Control_c, 9, 4, 120
2, 5591, Control_c, 9, 4, 98
2, 5609, Note_on_c, 9, 44, 0
2, 5621, Note_on_c, 9, 51, 0
2, 5628, Control_c, 9, 4, 84
2, 5651, Control_c, 9, 18, 0
2, 5651, Note_on_c, 9, 48, 46
2, 5652, Note_on_c, 9, 36, 64
2, 5704, Control_c, 9, 4, 88
2, 5732, Note_on_c, 9, 48, 0
2, 5735, Note_on_c, 9, 36, 0
2, 5745, Control_c, 9, 17, 81
2, 5746, Note_on_c, 9, 51, 50
2, 5754, Control_c, 9, 4, 104
2, 5773, Note_on_c, 9, 48, 63
2, 5828, Note_on_c, 9, 51, 0
2, 5854, Note_on_c, 9, 48, 0
2, 5856, Control_c, 9, 4, 92
2, 5892, Control_c, 9, 17, 81
2, 5892, Note_on_c, 9, 51, 74
2, 5909, Control_c, 9, 4, 70
2, 5945, Control_c, 9, 4, 0
2, 5975, Note_on_c, 9, 51, 0
2, 6000, Control_c, 9, 4, 49
2, 6005, Note_on_c, 9, 44, 113
2, 6006, Note_on_c, 9, 36, 30
2, 6030, Control_c, 9, 4, 120
2, 6046, Note_on_c, 9, 49, 5
2, 6076, Control_c, 9, 4, 94
2, 6086, Note_on_c, 9, 44, 0
2, 6089, Note_on_c, 9, 36, 0
2, 6114, Control_c, 9, 4, 69
2, 6128, Note_on_c, 9, 49, 0
2, 6147, Control_c, 9, 4, 0
2, 6220, Note_on_c, 9, 46, 8
2, 6233, Control_c, 9, 4, 49
2, 6238, Note_on_c, 9, 44, 113
2, 6250, Control_c, 9, 17, 13
2, 6251, Note_on_c, 9, 51, 96
2, 6254, Control_c, 9, 16, 0
2, 6254, Note_on_c, 9, 38, 67
2, 6256, Note_on_c, 9, 36, 89
2, 6263, Control_c, 9, 4, 102
2, 6302, Note_on_c, 9, 46, 0
2, 6311, Control_c, 9, 4, 94
2, 6320, Note_on_c, 9, 44, 0
2, 6333, Note_on_c, 9, 51, 0
2, 6335, Note_on_c, 9, 38, 0
2, 6338, Note_on_c, 9, 36, 0
2, 6343, Control_c, 9, 4, 84
2, 6467, Control_c, 9, 4, 108
2, 6495, Control_c, 9, 17, 84
2, 6495, Note_on_c, 9, 51, 72
2, 6530, Control_c, 9, 4, 100
2, 6569, Control_c, 9, 4, 89
2, 6578, Note_on_c, 9, 51, 0
2, 6600, Note_on_c, 9, 36, 61
2, 6604, Control_c, 9, 4, 72
2, 6609, Control_c, 9, 18, 0
2, 6610, Note_on_c, 9, 48, 48
2, 6644, Control_c, 9, 4, 0
2, 6683, Note_on_c, 9, 36, 0
2, 6692, Note_on_c, 9, 48, 0
2, 6698, Control_c, 9, 17, 127
2, 6699, Note_on_c, 9, 51, 51
2, 6715, Control_c, 9, 4, 36
2, 6720, Note_on_c, 9, 44, 127
2, 6735, Note_on_c, 9, 48, 67
2, 6746, Control_c, 9, 4, 122
2, 6780, Note_on_c, 9, 51, 0
2, 6800, Control_c, 9, 4, 92
2, 6802, Note_on_c, 9, 44, 0
2, 6817, Note_on_c, 9, 48, 0
2, 6842, Control_c, 9, 17, 67
2, 6843, Note_on_c, 9, 51, 82
2, 6924, Note_on_c, 9, 51, 0
2, 6944, Control_c, 9, 4, 98
2, 6982, Note_on_c, 9, 36, 71
2, 6996, Control_c, 9, 4, 94
2, 7065, Note_on_c, 9, 36, 0
2, 7137, Control_c, 9, 4, 90
2, 7217, Control_c, 9, 17, 26
2, 7218, Note_on_c, 9, 51, 100
2, 7228, Note_on_c, 9, 38, 92
2, 7230, Control_c, 9, 4, 94
2, 7299, Note_on_c, 9, 51, 0
2, 7309, Note_on_c, 9, 38, 0
2, 7316, Control_c, 9, 4, 83
2, 7348, Control_c, 9, 4, 70
2, 7383, Control_c, 9, 4, 0
2, 7439, Control_c, 9, 4, 48
2, 7443, Note_on_c, 9, 44, 113
2, 7456, Note_on_c, 9, 36, 64
2, 7465, Control_c, 9, 17, 65
2, 7466, Note_on_c, 9, 51, 69
2, 7469, Control_c, 9, 4, 118
2, 7525, Note_on_c, 9, 44, 0
2, 7526, Control_c, 9, 4, 92
2, 7538, Note_on_c, 9, 36, 0
2, 7548, Note_on_c, 9, 51, 0
2, 7575, Control_c, 9, 18, 0
2, 7576, Note_on_c, 9, 48, 45
2, 7649, Control_c, 9, 4, 96
2, 7656, Note_on_c, 9, 48, 0
2, 7660, Control_c, 9, 17, 57
2, 7661, End_track
0, 0, End_of_file
