0, 0, Header, 1, 2, 480
1, 0, Start_track
1, 0, Tempo, 299999
1, 0, Time_signature, 4, 2, 24, 8
1, 0, Key_signature, 0, "major"
1, 1, End_track
2, 0, Start_track
2, 0, Title_t, "Midi Drums"
2, 0, Program_c, 9, 0
2, 0, Note_on_c, 9, 36, 80
2, 14, Note_on_c, 9, 38, 43
2, 161, Note_on_c, 9, 36, 0
2, 175, Note_on_c, 9, 38, 0
2, 289, Note_on_c, 9, 38, 32
2, 451, Note_on_c, 9, 38, 0
2, 481, Note_on_c, 9, 40, 105
2, 643, Note_on_c, 9, 40, 0
2, 761, Note_on_c, 9, 38, 40
2, 923, Note_on_c, 9, 38, 0
2, 972, Note_on_c, 9, 38, 34
2, 973, Note_on_c, 9, 36, 76
2, 1134, Note_on_c, 9, 36, 0
2, 1134, Note_on_c, 9, 38, 0
2, 1222, Note_on_c, 9, 38, 127
2, 1383, Note_on_c, 9, 38, 0
2, 1427, Note_on_c, 9, 40, 106
2, 1588, Note_on_c, 9, 40, 0
2, 1717, Note_on_c, 9, 38, 40
2, 1879, Note_on_c, 9, 38, 0
2, 1915, Note_on_c, 9, 38, 35
2, 1937, Note_on_c, 9, 36, 74
2, 2076, Note_on_c, 9, 38, 0
2, 2098, Note_on_c, 9, 36, 0
2, 2165, Note_on_c, 9, 38, 31
2, 2327, Note_on_c, 9, 38, 0
2, 2384, Note_on_c, 9, 40, 101
2, 2545, Note_on_c, 9, 40, 0
2, 2683, Note_on_c, 9, 38, 26
2, 2844, Note_on_c, 9, 38, 0
2, 2869, Note_on_c, 9, 38, 40
2, 2887, Note_on_c, 9, 36, 69
2, 3031, Note_on_c, 9, 38, 0
2, 3049, Note_on_c, 9, 36, 0
2, 3132, Note_on_c, 9, 38, 21
2, 3294, Note_on_c, 9, 38, 0
2, 3333, Note_on_c, 9, 40, 106
2, 3494, Note_on_c, 9, 40, 0
2, 3626, Note_on_c, 9, 38, 29
2, 3786, Note_on_c, 9, 38, 0
2, 3813, Note_on_c, 9, 38, 34
2, 3837, Note_on_c, 9, 36, 74
2, 3975, Note_on_c, 9, 38, 0
2, 3998, Note_on_c, 9, 36, 0
2, 4098, Note_on_c, 9, 38, 33
2, 4259, Note_on_c, 9, 38, 0
2, 4289, Note_on_c, 9, 40, 127
2, 4450, Note_on_c, 9, 40, 0
2, 4575, Note_on_c, 9, 38, 31
2, 4737, Note_on_c, 9, 38, 0
2, 4789, Note_on_c, 9, 38, 40
2, 4809, Note_on_c, 9, 36, 72
2, 4951, Note_on_c, 9, 38, 0
2, 4971, Note_on_c, 9, 36, 0
2, 5065, Note_on_c, 9, 38, 30
2, 5226, Note_on_c, 9, 38, 0
2, 5272, Note_on_c, 9, 40, 127
2, 5433, Note_on_c, 9, 40, 0
2, 5560, Note_on_c, 9, 38, 41
2, 5721, Note_on_c, 9, 38, 0
2, 5781, Note_on_c, 9, 38, 42
2, 5791, Note_on_c, 9, 36, 73
2, 5943, Note_on_c, 9, 38, 0
2, 5953, Note_on_c, 9, 36, 0
2, 6058, Note_on_c, 9, 38, 29
2, 6220, Note_on_c, 9, 38, 0
2, 6235, Note_on_c, 9, 40, 127
2, 6396, Note_on_c, 9, 40, 0
2, 6489, Note_on_c, 9, 38, 29
2, 6651, Note_on_c, 9, 38, 0
2, 6709, Note_on_c, 9, 38, 46
2, 6729, Note_on_c, 9, 36, 78
2, 6870, Note_on_c, 9, 38, 0
2, 6891, Note_on_c, 9, 36, 0
2, 7021, Note_on_c, 9, 38, 38
2, 7180, Note_on_c, 9, 40, 98
2, 7182, Note_on_c, 9, 38, 0
2, 7342, Note_on_c, 9, 40, 0
2, 7460, Note_on_c, 9, 38, 43
2, 7622, Note_on_c, 9, 38, 0
2, 7623, End_track
0, 0, End_of_file
