0, 0, Header, 1, 2, 480
1, 0, Start_track
1, 0, Tempo, 588235
1, 0, Time_signature, 4, 2, 24, 8
1, 0, Key_signature, 0, "major"
1, 1, End_track
2, 0, Start_track
2, 0, Title_t, "Classic Studio Kit"
2, 0, Program_c, 9, 0
2, 0, Control_c, 9, 16, 0
2, 37, Control_c, 9, 4, 110
2, 95, Control_c, 9, 4, 91
2, 115, Note_on_c, 9, 48, 60
2, 129, Control_c, 9, 4, 73
2, 143, Note_on_c, 9, 48, 0
2, 143, Note_on_c, 9, 48, 43
2, 178, Control_c, 9, 4, 0
2, 195, Note_on_c, 9, 48, 0
2, 241, Note_on_c, 9, 46, 11
2, 247, Control_c, 9, 4, 34
2, 249, Control_c, 9, 17, 25
2, 250, Note_on_c, 9, 51, 105
2, 253, Note_on_c, 9, 44, 127
2, 277, Control_c, 9, 4, 89
2, 315, Control_c, 9, 4, 34
2, 322, Note_on_c, 9, 46, 0
2, 331, Note_on_c, 9, 51, 0
2, 333, Note_on_c, 9, 44, 0
2, 359, Note_on_c, 9, 36, 60
2, 376, Control_c, 9, 4, 59
2, 439, Control_c, 9, 4, 54
2, 441, Note_on_c, 9, 36, 0
2, 467, Note_on_c, 9, 59, 44
2, 477, Note_on_c, 9, 36, 76
2, 490, Control_c, 9, 4, 44
2, 528, Control_c, 9, 4, 32
2, 549, Note_on_c, 9, 59, 0
2, 559, Note_on_c, 9, 36, 0
2, 566, Control_c, 9, 4, 0
2, 599, Note_on_c, 9, 38, 38
2, 643, Control_c, 9, 16, 0
2, 644, Note_on_c, 9, 38, 0
2, 645, Note_on_c, 9, 38, 18
2, 679, Note_on_c, 9, 38, 0
2, 701, Control_c, 9, 4, 64
2, 705, Note_on_c, 9, 44, 74
2, 722, Note_on_c, 9, 46, 15
2, 731, Control_c, 9, 4, 92
2, 748, Note_on_c, 9, 38, 34
2, 768, Control_c, 9, 4, 106
2, 787, Note_on_c, 9, 44, 0
2, 803, Note_on_c, 9, 46, 0
2, 816, Control_c, 9, 4, 91
2, 829, Note_on_c, 9, 38, 0
2, 848, Note_on_c, 9, 36, 92
2, 851, Control_c, 9, 4, 73
2, 895, Control_c, 9, 4, 0
2, 931, Note_on_c, 9, 36, 0
2, 960, Note_on_c, 9, 46, 11
2, 968, Control_c, 9, 4, 34
2, 973, Note_on_c, 9, 44, 127
2, 980, Control_c, 9, 16, 0
2, 981, Note_on_c, 9, 38, 74
2, 998, Control_c, 9, 4, 81
2, 1035, Control_c, 9, 4, 32
2, 1041, Note_on_c, 9, 46, 0
2, 1052, Note_on_c, 9, 38, 0
2, 1052, Note_on_c, 9, 38, 10
2, 1054, Note_on_c, 9, 44, 0
2, 1061, Note_on_c, 9, 38, 0
2, 1085, Control_c, 9, 4, 69
2, 1093, Control_c, 9, 18, 0
2, 1093, Note_on_c, 9, 48, 63
2, 1176, Note_on_c, 9, 48, 0
2, 1225, Control_c, 9, 4, 64
2, 1225, Note_on_c, 9, 36, 85
2, 1228, Control_c, 9, 16, 0
2, 1229, Note_on_c, 9, 38, 25
2, 1281, Control_c, 9, 4, 49
2, 1308, Note_on_c, 9, 36, 0
2, 1309, Note_on_c, 9, 38, 0
2, 1314, Control_c, 9, 4, 0
2, 1340, Control_c, 9, 16, 0
2, 1340, Note_on_c, 9, 38, 15
2, 1420, Note_on_c, 9, 38, 0
2, 1439, Control_c, 9, 4, 66
2, 1443, Note_on_c, 9, 44, 74
2, 1468, Control_c, 9, 16, 127
2, 1468, Note_on_c, 9, 38, 89
2, 1469, Control_c, 9, 4, 90
2, 1525, Note_on_c, 9, 44, 0
2, 1550, Note_on_c, 9, 38, 0
2, 1691, Control_c, 9, 17, 0
2, 1691, Note_on_c, 9, 51, 102
2, 1695, Note_on_c, 9, 36, 87
2, 1720, Control_c, 9, 4, 110
2, 1739, Control_c, 9, 17, 0
2, 1740, Note_on_c, 9, 51, 0
2, 1740, Note_on_c, 9, 51, 48
2, 1772, Control_c, 9, 4, 98
2, 1773, Note_on_c, 9, 51, 0
2, 1777, Note_on_c, 9, 36, 0
2, 1812, Control_c, 9, 4, 71
2, 1818, Control_c, 9, 16, 0
2, 1818, Note_on_c, 9, 38, 22
2, 1848, Control_c, 9, 4, 0
2, 1899, Note_on_c, 9, 38, 0
2, 1925, Control_c, 9, 4, 33
2, 1929, Note_on_c, 9, 44, 127
2, 1939, Control_c, 9, 17, 127
2, 1940, Note_on_c, 9, 51, 46
2, 1955, Control_c, 9, 4, 77
2, 1994, Control_c, 9, 4, 0
2, 2011, Note_on_c, 9, 44, 0
2, 2022, Note_on_c, 9, 51, 0
2, 2052, Control_c, 9, 4, 23
2, 2065, Note_on_c, 9, 38, 30
2, 2090, Control_c, 9, 4, 53
2, 2146, Note_on_c, 9, 38, 0
2, 2149, Control_c, 9, 4, 41
2, 2174, Control_c, 9, 17, 100
2, 2174, Note_on_c, 9, 51, 101
2, 2191, Note_on_c, 9, 36, 83
2, 2195, Control_c, 9, 4, 29
2, 2233, Control_c, 9, 4, 23
2, 2239, Control_c, 9, 16, 0
2, 2239, Note_on_c, 9, 38, 37
2, 2256, Note_on_c, 9, 51, 0
2, 2274, Note_on_c, 9, 36, 0
2, 2279, Control_c, 9, 4, 0
2, 2306, Note_on_c, 9, 38, 0
2, 2306, Note_on_c, 9, 38, 36
2, 2320, Note_on_c, 9, 38, 0
2, 2351, Control_c, 9, 16, 0
2, 2352, Note_on_c, 9, 38, 54
2, 2384, Control_c, 9, 4, 16
2, 2386, Note_on_c, 9, 38, 0
2, 2405, Note_on_c, 9, 44, 54
2, 2414, Control_c, 9, 16, 0
2, 2414, Note_on_c, 9, 40, 71
2, 2417, Control_c, 9, 4, 83
2, 2457, Control_c, 9, 4, 90
2, 2487, Note_on_c, 9, 44, 0
2, 2496, Note_on_c, 9, 40, 0
2, 2521, Control_c, 9, 16, 127
2, 2521, Note_on_c, 9, 38, 62
2, 2593, Control_c, 9, 4, 84
2, 2603, Note_on_c, 9, 38, 0
2, 2649, Control_c, 9, 4, 97
2, 2652, Control_c, 9, 16, 0
2, 2653, Note_on_c, 9, 38, 43
2, 2733, Note_on_c, 9, 38, 0
2, 2736, Control_c, 9, 4, 82
2, 2762, Note_on_c, 9, 38, 58
2, 2768, Control_c, 9, 4, 70
2, 2809, Control_c, 9, 4, 47
2, 2843, Note_on_c, 9, 38, 0
2, 2844, Control_c, 9, 4, 7
2, 2879, Note_on_c, 9, 44, 80
2, 2892, Control_c, 9, 16, 0
2, 2893, Note_on_c, 9, 40, 64
2, 2894, Control_c, 9, 4, 127
2, 2926, Control_c, 9, 4, 110
2, 2957, Control_c, 9, 4, 94
2, 2960, Note_on_c, 9, 44, 0
2, 2974, Note_on_c, 9, 40, 0
2, 2987, Control_c, 9, 4, 81
2, 3008, Note_on_c, 9, 38, 37
2, 3017, Control_c, 9, 4, 70
2, 3090, Note_on_c, 9, 38, 0
2, 3113, Note_on_c, 9, 44, 9
2, 3132, Control_c, 9, 16, 0
2, 3133, Note_on_c, 9, 38, 41
2, 3137, Control_c, 9, 4, 114
2, 3182, Control_c, 9, 4, 94
2, 3194, Note_on_c, 9, 44, 0
2, 3214, Note_on_c, 9, 38, 0
2, 3274, Control_c, 9, 16, 0
2, 3274, Note_on_c, 9, 38, 34
2, 3355, Note_on_c, 9, 38, 0
2, 3380, Control_c, 9, 17, 6
2, 3380, Note_on_c, 9, 51, 86
2, 3397, Note_on_c, 9, 36, 84
2, 3437, Control_c, 9, 4, 100
2, 3461, Note_on_c, 9, 51, 0
2, 3478, Note_on_c, 9, 36, 0
2, 3499, Control_c, 9, 4, 93
2, 3548, Control_c, 9, 4, 71
2, 3596, Control_c, 9, 4, 0
2, 3628, Control_c, 9, 16, 106
2, 3629, Control_c, 9, 17, 0
2, 3629, Note_on_c, 9, 38, 80
2, 3630, Note_on_c, 9, 51, 98
2, 3644, Note_on_c, 9, 44, 100
2, 3653, Control_c, 9, 4, 127
2, 3688, Control_c, 9, 4, 110
2, 3710, Note_on_c, 9, 38, 0
2, 3710, Note_on_c, 9, 51, 0
2, 3722, Control_c, 9, 4, 92
2, 3726, Note_on_c, 9, 44, 0
2, 3743, Note_on_c, 9, 38, 6
2, 3766, Control_c, 9, 16, 0
2, 3767, Note_on_c, 9, 38, 0
2, 3767, Note_on_c, 9, 38, 5
2, 3824, Note_on_c, 9, 38, 0
2, 3855, Control_c, 9, 4, 97
2, 3876, Control_c, 9, 17, 7
2, 3877, Note_on_c, 9, 51, 68
2, 3886, Note_on_c, 9, 36, 71
2, 3956, Note_on_c, 9, 51, 0
2, 3967, Note_on_c, 9, 36, 0
2, 3982, Control_c, 9, 4, 92
2, 4006, Control_c, 9, 17, 74
2, 4007, Note_on_c, 9, 51, 62
2, 4051, Control_c, 9, 4, 85
2, 4087, Note_on_c, 9, 51, 0
2, 4102, Control_c, 9, 4, 94
2, 4122, Note_on_c, 9, 48, 42
2, 4133, Control_c, 9, 4, 97
2, 4203, Note_on_c, 9, 48, 0
2, 4244, Control_c, 9, 18, 0
2, 4244, Note_on_c, 9, 48, 93
2, 4273, Control_c, 9, 4, 92
2, 4308, Control_c, 9, 4, 88
2, 4326, Note_on_c, 9, 48, 0
2, 4365, Control_c, 9, 17, 99
2, 4365, Note_on_c, 9, 51, 85
2, 4446, Note_on_c, 9, 51, 0
2, 4586, Note_on_c, 9, 40, 101
2, 4630, Control_c, 9, 4, 92
2, 4668, Note_on_c, 9, 40, 0
2, 4818, Control_c, 9, 16, 0
2, 4818, Note_on_c, 9, 40, 70
2, 4860, Control_c, 9, 4, 102
2, 4898, Control_c, 9, 4, 98
2, 4899, Note_on_c, 9, 40, 0
2, 4936, Control_c, 9, 4, 83
2, 4968, Control_c, 9, 4, 69
2, 5002, Control_c, 9, 4, 0
2, 5065, Note_on_c, 9, 44, 113
2, 5072, Control_c, 9, 4, 127
2, 5086, Note_on_c, 9, 49, 4
2, 5106, Control_c, 9, 4, 96
2, 5138, Control_c, 9, 4, 91
2, 5145, Note_on_c, 9, 44, 0
2, 5167, Note_on_c, 9, 49, 0
2, 5310, Control_c, 9, 17, 0
2, 5311, Control_c, 9, 16, 127
2, 5311, Note_on_c, 9, 51, 98
2, 5313, Note_on_c, 9, 38, 91
2, 5322, Note_on_c, 9, 36, 67
2, 5365, Control_c, 9, 4, 108
2, 5393, Note_on_c, 9, 38, 0
2, 5393, Note_on_c, 9, 51, 0
2, 5403, Note_on_c, 9, 36, 0
2, 5409, Control_c, 9, 4, 95
2, 5419, Control_c, 9, 16, 0
2, 5420, Note_on_c, 9, 38, 11
2, 5454, Control_c, 9, 4, 72
2, 5499, Control_c, 9, 4, 0
2, 5500, Note_on_c, 9, 38, 0
2, 5546, Control_c, 9, 4, 49
2, 5549, Control_c, 9, 17, 54
2, 5549, Note_on_c, 9, 51, 74
2, 5551, Note_on_c, 9, 44, 106
2, 5576, Control_c, 9, 4, 127
2, 5610, Control_c, 9, 4, 100
2, 5631, Note_on_c, 9, 51, 0
2, 5632, Note_on_c, 9, 44, 0
2, 5653, Control_c, 9, 4, 89
2, 5672, Note_on_c, 9, 36, 65
2, 5672, Note_on_c, 9, 48, 51
2, 5754, Note_on_c, 9, 36, 0
2, 5754, Note_on_c, 9, 48, 0
2, 5779, Control_c, 9, 4, 104
2, 5800, Control_c, 9, 18, 0
2, 5801, Note_on_c, 9, 48, 91
2, 5811, Control_c, 9, 17, 35
2, 5811, Note_on_c, 9, 51, 71
2, 5882, Note_on_c, 9, 48, 0
2, 5893, Control_c, 9, 4, 90
2, 5893, Note_on_c, 9, 51, 0
2, 5925, Control_c, 9, 17, 74
2, 5926, Note_on_c, 9, 51, 78
2, 5928, Control_c, 9, 4, 74
2, 5969, Control_c, 9, 4, 0
2, 6007, Note_on_c, 9, 51, 0
2, 6030, Note_on_c, 9, 44, 126
2, 6031, Note_on_c, 9, 36, 69
2, 6036, Control_c, 9, 4, 127
2, 6072, Control_c, 9, 4, 110
2, 6104, Control_c, 9, 4, 92
2, 6111, Note_on_c, 9, 44, 0
2, 6112, Note_on_c, 9, 36, 0
2, 6135, Control_c, 9, 4, 88
2, 6173, Control_c, 9, 17, 0
2, 6173, Note_on_c, 9, 51, 85
2, 6232, Control_c, 9, 4, 94
2, 6256, Note_on_c, 9, 51, 0
2, 6280, Note_on_c, 9, 36, 79
2, 6281, Control_c, 9, 16, 0
2, 6281, Note_on_c, 9, 40, 85
2, 6342, Control_c, 9, 4, 106
2, 6362, Note_on_c, 9, 36, 0
2, 6362, Note_on_c, 9, 40, 0
2, 6374, Control_c, 9, 4, 98
2, 6401, Control_c, 9, 16, 63
2, 6401, Note_on_c, 9, 38, 5
2, 6410, Control_c, 9, 4, 83
2, 6440, Control_c, 9, 4, 66
2, 6475, Control_c, 9, 4, 0
2, 6484, Note_on_c, 9, 38, 0
2, 6519, Note_on_c, 9, 44, 106
2, 6524, Control_c, 9, 17, 4
2, 6524, Note_on_c, 9, 51, 101
2, 6526, Control_c, 9, 4, 127
2, 6571, Control_c, 9, 4, 99
2, 6601, Note_on_c, 9, 44, 0
2, 6605, Note_on_c, 9, 51, 0
2, 6621, Control_c, 9, 4, 87
2, 6735, Control_c, 9, 4, 102
2, 6753, Note_on_c, 9, 36, 28
2, 6761, Note_on_c, 9, 48, 82
2, 6778, Control_c, 9, 17, 15
2, 6778, Note_on_c, 9, 51, 69
2, 6823, Control_c, 9, 4, 96
2, 6835, Note_on_c, 9, 36, 0
2, 6843, Note_on_c, 9, 48, 0
2, 6856, Control_c, 9, 4, 83
2, 6861, Note_on_c, 9, 51, 0
2, 6891, Control_c, 9, 4, 69
2, 6928, Control_c, 9, 4, 0
2, 6989, Control_c, 9, 17, 37
2, 6989, Note_on_c, 9, 44, 119
2, 6990, Note_on_c, 9, 51, 63
2, 6995, Control_c, 9, 4, 127
2, 7030, Control_c, 9, 4, 104
2, 7065, Control_c, 9, 4, 92
2, 7071, Note_on_c, 9, 44, 0
2, 7071, Note_on_c, 9, 51, 0
2, 7240, Note_on_c, 9, 53, 105
2, 7243, Control_c, 9, 16, 0
2, 7244, Note_on_c, 9, 40, 81
2, 7259, Note_on_c, 9, 36, 75
2, 7304, Control_c, 9, 4, 108
2, 7322, Note_on_c, 9, 53, 0
2, 7325, Note_on_c, 9, 40, 0
2, 7341, Note_on_c, 9, 36, 0
2, 7359, Control_c, 9, 4, 91
2, 7363, Note_on_c, 9, 38, 16
2, 7387, Note_on_c, 9, 38, 0
2, 7388, Note_on_c, 9, 38, 11
2, 7395, Control_c, 9, 4, 72
2, 7438, Control_c, 9, 4, 0
2, 7445, Note_on_c, 9, 38, 0
2, 7483, Control_c, 9, 17, 9
2, 7483, Note_on_c, 9, 51, 83
2, 7485, Control_c, 9, 4, 35
2, 7490, Note_on_c, 9, 44, 113
2, 7515, Control_c, 9, 4, 127
2, 7552, Control_c, 9, 4, 98
2, 7566, Note_on_c, 9, 51, 0
2, 7572, Note_on_c, 9, 44, 0
2, 7597, Control_c, 9, 4, 88
2, 7617, Control_c, 9, 18, 0
2, 7618, End_track
0, 0, End_of_file
