0, 0, Header, 1, 2, 480
1, 0, Start_track
1, 0, Tempo, 652173
1, 0, Time_signature, 4, 2, 24, 8
1, 0, Key_signature, 0, "major"
1, 1, End_track
2, 0, Start_track
2, 0, Title_t, "Midi Drums"
2, 0, Program_c, 9, 0
2, 169, Note_on_c, 9, 51, 44
2, 243, Note_on_c, 9, 51, 0
2, 318, Note_on_c, 9, 36, 127
2, 331, Note_on_c, 9, 51, 62
2, 392, Note_on_c, 9, 36, 0
2, 405, Note_on_c, 9, 51, 0
2, 491, Note_on_c, 9, 38, 127
2, 492, Note_on_c, 9, 51, 127
2, 565, Note_on_c, 9, 38, 0
2, 566, Note_on_c, 9, 51, 0
2, 662, Note_on_c, 9, 51, 63
2, 737, Note_on_c, 9, 51, 0
2, 797, Note_on_c, 9, 36, 103
2, 801, Note_on_c, 9, 51, 84
2, 871, Note_on_c, 9, 36, 0
2, 875, Note_on_c, 9, 51, 0
2, 966, Note_on_c, 9, 36, 127
2, 973, Note_on_c, 9, 51, 98
2, 1040, Note_on_c, 9, 36, 0
2, 1047, Note_on_c, 9, 51, 0
2, 1143, Note_on_c, 9, 51, 42
2, 1217, Note_on_c, 9, 51, 0
2, 1286, Note_on_c, 9, 36, 124
2, 1288, Note_on_c, 9, 51, 64
2, 1360, Note_on_c, 9, 36, 0
2, 1362, Note_on_c, 9, 51, 0
2, 1455, Note_on_c, 9, 38, 127
2, 1455, Note_on_c, 9, 51, 127
2, 1529, Note_on_c, 9, 38, 0
2, 1529, Note_on_c, 9, 51, 0
2, 1603, Note_on_c, 9, 51, 82
2, 1677, Note_on_c, 9, 51, 0
2, 1761, Note_on_c, 9, 38, 127
2, 1771, Note_on_c, 9, 51, 127
2, 1836, Note_on_c, 9, 38, 0
2, 1845, Note_on_c, 9, 51, 0
2, 1927, Note_on_c, 9, 36, 127
2, 1933, Note_on_c, 9, 51, 127
2, 2001, Note_on_c, 9, 36, 0
2, 2008, Note_on_c, 9, 51, 0
2, 2101, Note_on_c, 9, 51, 46
2, 2176, Note_on_c, 9, 51, 0
2, 2248, Note_on_c, 9, 51, 81
2, 2255, Note_on_c, 9, 36, 93
2, 2323, Note_on_c, 9, 51, 0
2, 2330, Note_on_c, 9, 36, 0
2, 2416, Note_on_c, 9, 51, 127
2, 2426, Note_on_c, 9, 38, 127
2, 2491, Note_on_c, 9, 51, 0
2, 2500, Note_on_c, 9, 38, 0
2, 2571, Note_on_c, 9, 51, 57
2, 2645, Note_on_c, 9, 51, 0
2, 2728, Note_on_c, 9, 51, 84
2, 2731, Note_on_c, 9, 36, 97
2, 2802, Note_on_c, 9, 51, 0
2, 2805, Note_on_c, 9, 36, 0
2, 2894, Note_on_c, 9, 36, 127
2, 2894, Note_on_c, 9, 51, 103
2, 2969, Note_on_c, 9, 36, 0
2, 2969, Note_on_c, 9, 51, 0
2, 3062, Note_on_c, 9, 51, 43
2, 3136, Note_on_c, 9, 51, 0
2, 3198, Note_on_c, 9, 51, 49
2, 3200, Note_on_c, 9, 36, 104
2, 3272, Note_on_c, 9, 51, 0
2, 3274, Note_on_c, 9, 36, 0
2, 3363, Note_on_c, 9, 38, 127
2, 3372, Note_on_c, 9, 51, 127
2, 3437, Note_on_c, 9, 38, 0
2, 3446, Note_on_c, 9, 51, 0
2, 3534, Note_on_c, 9, 51, 67
2, 3608, Note_on_c, 9, 51, 0
2, 3668, Note_on_c, 9, 36, 117
2, 3672, Note_on_c, 9, 51, 83
2, 3743, Note_on_c, 9, 36, 0
2, 3746, Note_on_c, 9, 51, 0
2, 3834, Note_on_c, 9, 36, 107
2, 3834, Note_on_c, 9, 51, 105
2, 3908, Note_on_c, 9, 36, 0
2, 3908, Note_on_c, 9, 51, 0
2, 4002, Note_on_c, 9, 51, 57
2, 4076, Note_on_c, 9, 51, 0
2, 4154, Note_on_c, 9, 36, 107
2, 4154, Note_on_c, 9, 51, 58
2, 4228, Note_on_c, 9, 36, 0
2, 4228, Note_on_c, 9, 51, 0
2, 4318, Note_on_c, 9, 38, 127
2, 4321, Note_on_c, 9, 51, 127
2, 4392, Note_on_c, 9, 38, 0
2, 4395, Note_on_c, 9, 51, 0
2, 4482, Note_on_c, 9, 51, 71
2, 4556, Note_on_c, 9, 51, 0
2, 4616, Note_on_c, 9, 51, 42
2, 4640, Note_on_c, 9, 36, 127
2, 4691, Note_on_c, 9, 51, 0
2, 4710, Control_c, 9, 4, 75
2, 4714, Note_on_c, 9, 36, 0
2, 4746, Control_c, 9, 4, 0
2, 4786, Control_c, 9, 4, 0
2, 4786, Note_on_c, 9, 26, 127
2, 4794, Note_on_c, 9, 51, 127
2, 4861, Note_on_c, 9, 26, 0
2, 4869, Note_on_c, 9, 51, 0
2, 5150, Note_on_c, 9, 44, 105
2, 5173, Control_c, 9, 4, 90
2, 5224, Note_on_c, 9, 44, 0
2, 5308, Note_on_c, 9, 38, 127
2, 5337, Note_on_c, 9, 38, 0
2, 5337, Note_on_c, 9, 38, 127
2, 5382, Note_on_c, 9, 38, 0
2, 5459, Note_on_c, 9, 36, 108
2, 5533, Note_on_c, 9, 36, 0
2, 5643, Note_on_c, 9, 36, 127
2, 5717, Note_on_c, 9, 36, 0
2, 5784, Note_on_c, 9, 36, 127
2, 5791, Note_on_c, 9, 51, 127
2, 5858, Note_on_c, 9, 36, 0
2, 5865, Note_on_c, 9, 51, 0
2, 5966, Note_on_c, 9, 51, 39
2, 6040, Note_on_c, 9, 51, 0
2, 6096, Note_on_c, 9, 36, 89
2, 6103, Note_on_c, 9, 51, 51
2, 6170, Note_on_c, 9, 36, 0
2, 6177, Note_on_c, 9, 51, 0
2, 6274, Note_on_c, 9, 38, 127
2, 6278, Note_on_c, 9, 51, 127
2, 6348, Note_on_c, 9, 38, 0
2, 6352, Note_on_c, 9, 51, 0
2, 6434, Note_on_c, 9, 51, 46
2, 6508, Note_on_c, 9, 51, 0
2, 6572, Note_on_c, 9, 36, 117
2, 6576, Note_on_c, 9, 51, 71
2, 6646, Note_on_c, 9, 36, 0
2, 6650, Note_on_c, 9, 51, 0
2, 6747, Note_on_c, 9, 51, 108
2, 6748, Note_on_c, 9, 36, 127
2, 6821, Note_on_c, 9, 51, 0
2, 6823, Note_on_c, 9, 36, 0
2, 6932, Note_on_c, 9, 51, 36
2, 7007, Note_on_c, 9, 51, 0
2, 7043, Note_on_c, 9, 51, 49
2, 7063, Note_on_c, 9, 36, 108
2, 7118, Note_on_c, 9, 51, 0
2, 7138, Note_on_c, 9, 36, 0
2, 7214, Note_on_c, 9, 38, 127
2, 7220, Note_on_c, 9, 51, 127
2, 7289, Note_on_c, 9, 38, 0
2, 7294, Note_on_c, 9, 51, 0
2, 7387, Note_on_c, 9, 51, 36
2, 7461, Note_on_c, 9, 51, 0
2, 7531, Note_on_c, 9, 36, 126
2, 7538, Note_on_c, 9, 51, 77
2, 7606, Note_on_c, 9, 36, 0
2, 7612, Note_on_c, 9, 51, 0
2, 7613, End_track
0, 0, End_of_file
