0, 0, Header, 1, 2, 480
1, 0, Start_track
1, 0, Tempo, 588235
1, 0, Time_signature, 4, 2, 24, 8
1, 0, Key_signature, 0, "major"
1, 1, End_track
2, 0, Start_track
2, 0, Title_t, "Classic Studio Kit"
2, 0, Program_c, 9, 0
2, 0, Control_c, 9, 16, 0
2, 39, Control_c, 9, 16, 42
2, 39, Note_on_c, 9, 38, 66
2, 65, Control_c, 9, 4, 91
2, 121, Note_on_c, 9, 38, 0
2, 206, Control_c, 9, 4, 85
2, 239, Control_c, 9, 4, 92
2, 470, Control_c, 9, 4, 88
2, 522, Control_c, 9, 17, 0
2, 523, Control_c, 9, 16, 0
2, 523, Note_on_c, 9, 51, 94
2, 525, Note_on_c, 9, 38, 74
2, 539, Note_on_c, 9, 36, 74
2, 582, Control_c, 9, 4, 98
2, 604, Note_on_c, 9, 38, 0
2, 604, Note_on_c, 9, 51, 0
2, 621, Note_on_c, 9, 36, 0
2, 639, Control_c, 9, 4, 82
2, 671, Control_c, 9, 4, 69
2, 706, Control_c, 9, 4, 0
2, 758, Control_c, 9, 4, 48
2, 763, Note_on_c, 9, 44, 113
2, 769, Control_c, 9, 17, 43
2, 770, Note_on_c, 9, 51, 79
2, 788, Control_c, 9, 4, 127
2, 825, Control_c, 9, 4, 104
2, 844, Note_on_c, 9, 44, 0
2, 852, Note_on_c, 9, 51, 0
2, 857, Control_c, 9, 4, 92
2, 873, Note_on_c, 9, 36, 74
2, 899, Control_c, 9, 18, 0
2, 899, Note_on_c, 9, 48, 60
2, 955, Note_on_c, 9, 36, 0
2, 981, Note_on_c, 9, 48, 0
2, 1006, Control_c, 9, 4, 97
2, 1029, Control_c, 9, 17, 0
2, 1030, Note_on_c, 9, 51, 91
2, 1055, Control_c, 9, 4, 104
2, 1108, Control_c, 9, 4, 90
2, 1110, Note_on_c, 9, 51, 0
2, 1141, Control_c, 9, 17, 13
2, 1141, Note_on_c, 9, 51, 69
2, 1142, Control_c, 9, 4, 71
2, 1177, Control_c, 9, 4, 0
2, 1223, Note_on_c, 9, 51, 0
2, 1241, Note_on_c, 9, 44, 127
2, 1247, Control_c, 9, 4, 127
2, 1283, Control_c, 9, 4, 100
2, 1323, Note_on_c, 9, 44, 0
2, 1333, Control_c, 9, 4, 88
2, 1428, Control_c, 9, 4, 94
2, 1477, Note_on_c, 9, 36, 68
2, 1487, Control_c, 9, 17, 1
2, 1487, Note_on_c, 9, 51, 100
2, 1491, Note_on_c, 9, 38, 63
2, 1516, Control_c, 9, 4, 98
2, 1559, Note_on_c, 9, 36, 0
2, 1568, Note_on_c, 9, 51, 0
2, 1571, Note_on_c, 9, 38, 0
2, 1601, Control_c, 9, 4, 84
2, 1634, Control_c, 9, 4, 70
2, 1669, Control_c, 9, 4, 22
2, 1706, Control_c, 9, 4, 42
2, 1713, Note_on_c, 9, 46, 14
2, 1714, Note_on_c, 9, 44, 87
2, 1716, Control_c, 9, 17, 47
2, 1717, Note_on_c, 9, 51, 69
2, 1738, Control_c, 9, 4, 127
2, 1775, Control_c, 9, 4, 100
2, 1794, Note_on_c, 9, 44, 0
2, 1794, Note_on_c, 9, 46, 0
2, 1798, Note_on_c, 9, 51, 0
2, 1815, Control_c, 9, 4, 87
2, 1910, Control_c, 9, 4, 96
2, 1951, Control_c, 9, 4, 92
2, 1978, Control_c, 9, 17, 37
2, 1979, Note_on_c, 9, 51, 94
2, 2006, Control_c, 9, 4, 102
2, 2050, Control_c, 9, 4, 90
2, 2060, Note_on_c, 9, 51, 0
2, 2085, Control_c, 9, 4, 71
2, 2123, Control_c, 9, 4, 0
2, 2186, Note_on_c, 9, 44, 127
2, 2192, Control_c, 9, 17, 28
2, 2192, Note_on_c, 9, 51, 48
2, 2194, Control_c, 9, 4, 127
2, 2238, Control_c, 9, 4, 100
2, 2269, Note_on_c, 9, 44, 0
2, 2275, Note_on_c, 9, 51, 0
2, 2282, Control_c, 9, 4, 87
2, 2373, Control_c, 9, 4, 92
2, 2415, Control_c, 9, 4, 92
2, 2444, Note_on_c, 9, 36, 62
2, 2450, Control_c, 9, 16, 0
2, 2451, Note_on_c, 9, 38, 68
2, 2452, Control_c, 9, 17, 6
2, 2452, Note_on_c, 9, 51, 93
2, 2474, Control_c, 9, 4, 104
2, 2520, Control_c, 9, 4, 90
2, 2526, Note_on_c, 9, 36, 0
2, 2532, Note_on_c, 9, 38, 0
2, 2532, Note_on_c, 9, 51, 0
2, 2554, Control_c, 9, 4, 71
2, 2595, Control_c, 9, 4, 0
2, 2658, Note_on_c, 9, 44, 126
2, 2664, Control_c, 9, 4, 127
2, 2679, Control_c, 9, 17, 0
2, 2679, Note_on_c, 9, 51, 71
2, 2707, Control_c, 9, 4, 112
2, 2739, Control_c, 9, 4, 92
2, 2739, Note_on_c, 9, 44, 0
2, 2760, Note_on_c, 9, 51, 0
2, 2774, Control_c, 9, 4, 88
2, 2797, Note_on_c, 9, 36, 77
2, 2880, Note_on_c, 9, 36, 0
2, 2890, Control_c, 9, 4, 96
2, 2919, Note_on_c, 9, 48, 54
2, 2928, Control_c, 9, 17, 0
2, 2929, Note_on_c, 9, 51, 83
2, 2939, Control_c, 9, 4, 102
2, 2992, Control_c, 9, 4, 90
2, 3000, Note_on_c, 9, 48, 0
2, 3009, Note_on_c, 9, 51, 0
2, 3022, Control_c, 9, 4, 70
2, 3036, Control_c, 9, 18, 0
2, 3036, Note_on_c, 9, 48, 68
2, 3051, Control_c, 9, 17, 1
2, 3051, Note_on_c, 9, 51, 76
2, 3054, Control_c, 9, 4, 0
2, 3118, Note_on_c, 9, 48, 0
2, 3120, Note_on_c, 9, 44, 127
2, 3124, Control_c, 9, 4, 127
2, 3133, Note_on_c, 9, 51, 0
2, 3171, Control_c, 9, 4, 97
2, 3200, Note_on_c, 9, 44, 0
2, 3218, Control_c, 9, 4, 87
2, 3311, Control_c, 9, 4, 93
2, 3372, Control_c, 9, 17, 4
2, 3373, Control_c, 9, 16, 42
2, 3373, Note_on_c, 9, 51, 91
2, 3375, Note_on_c, 9, 38, 77
2, 3417, Control_c, 9, 4, 104
2, 3450, Control_c, 9, 4, 98
2, 3454, Note_on_c, 9, 51, 0
2, 3456, Note_on_c, 9, 38, 0
2, 3490, Control_c, 9, 4, 83
2, 3527, Control_c, 9, 4, 56
2, 3558, Control_c, 9, 4, 0
2, 3597, Note_on_c, 9, 46, 15
2, 3598, Note_on_c, 9, 44, 93
2, 3606, Control_c, 9, 4, 127
2, 3639, Control_c, 9, 4, 104
2, 3672, Control_c, 9, 4, 91
2, 3678, Note_on_c, 9, 46, 0
2, 3679, Note_on_c, 9, 44, 0
2, 3827, Control_c, 9, 4, 92
2, 3888, Control_c, 9, 4, 102
2, 3923, Control_c, 9, 4, 96
2, 3958, Control_c, 9, 4, 83
2, 4005, Control_c, 9, 4, 52
2, 4035, Control_c, 9, 4, 0
2, 4078, Note_on_c, 9, 44, 87
2, 4088, Control_c, 9, 4, 127
2, 4120, Control_c, 9, 4, 99
2, 4161, Note_on_c, 9, 44, 0
2, 4165, Control_c, 9, 4, 89
2, 4280, Control_c, 9, 4, 94
2, 4312, Control_c, 9, 4, 90
2, 4347, Control_c, 9, 17, 0
2, 4347, Note_on_c, 9, 51, 127
2, 4348, Control_c, 9, 16, 0
2, 4349, Note_on_c, 9, 36, 46
2, 4349, Note_on_c, 9, 38, 60
2, 4383, Control_c, 9, 4, 102
2, 4429, Note_on_c, 9, 38, 0
2, 4429, Note_on_c, 9, 51, 0
2, 4431, Note_on_c, 9, 36, 0
2, 4435, Control_c, 9, 4, 90
2, 4449, Note_on_c, 9, 38, 12
2, 4467, Control_c, 9, 4, 71
2, 4509, Control_c, 9, 4, 0
2, 4531, Note_on_c, 9, 38, 0
2, 4566, Note_on_c, 9, 44, 113
2, 4574, Control_c, 9, 4, 127
2, 4581, Control_c, 9, 17, 3
2, 4582, Note_on_c, 9, 51, 77
2, 4618, Control_c, 9, 4, 100
2, 4648, Note_on_c, 9, 44, 0
2, 4657, Control_c, 9, 4, 90
2, 4663, Note_on_c, 9, 51, 0
2, 4709, Note_on_c, 9, 48, 44
2, 4710, Note_on_c, 9, 36, 75
2, 4764, Control_c, 9, 4, 96
2, 4790, Note_on_c, 9, 48, 0
2, 4791, Note_on_c, 9, 36, 0
2, 4795, Control_c, 9, 4, 91
2, 4822, Control_c, 9, 18, 0
2, 4823, Note_on_c, 9, 48, 85
2, 4825, Control_c, 9, 17, 6
2, 4826, Note_on_c, 9, 51, 80
2, 4865, Control_c, 9, 4, 102
2, 4905, Note_on_c, 9, 48, 0
2, 4907, Note_on_c, 9, 51, 0
2, 4921, Control_c, 9, 4, 91
2, 4934, Control_c, 9, 17, 4
2, 4934, Note_on_c, 9, 51, 78
2, 4951, Control_c, 9, 4, 71
2, 4984, Control_c, 9, 4, 0
2, 5017, Note_on_c, 9, 51, 0
2, 5044, Note_on_c, 9, 44, 126
2, 5051, Control_c, 9, 4, 127
2, 5086, Control_c, 9, 4, 102
2, 5125, Note_on_c, 9, 44, 0
2, 5129, Control_c, 9, 4, 89
2, 5233, Control_c, 9, 4, 97
2, 5273, Control_c, 9, 4, 92
2, 5294, Control_c, 9, 16, 0
2, 5295, Control_c, 9, 17, 5
2, 5295, Note_on_c, 9, 38, 77
2, 5296, Note_on_c, 9, 51, 94
2, 5306, Note_on_c, 9, 36, 68
2, 5323, Control_c, 9, 4, 99
2, 5375, Note_on_c, 9, 38, 0
2, 5377, Note_on_c, 9, 51, 0
2, 5389, Note_on_c, 9, 36, 0
2, 5391, Control_c, 9, 4, 91
2, 5427, Control_c, 9, 4, 72
2, 5469, Control_c, 9, 4, 0
2, 5528, Note_on_c, 9, 44, 113
2, 5535, Control_c, 9, 4, 127
2, 5537, Control_c, 9, 17, 17
2, 5538, Note_on_c, 9, 51, 67
2, 5570, Control_c, 9, 4, 110
2, 5609, Control_c, 9, 4, 90
2, 5610, Note_on_c, 9, 44, 0
2, 5619, Note_on_c, 9, 51, 0
2, 5664, Note_on_c, 9, 36, 68
2, 5720, Control_c, 9, 4, 96
2, 5746, Note_on_c, 9, 36, 0
2, 5770, Control_c, 9, 4, 92
2, 5786, Note_on_c, 9, 48, 76
2, 5792, Control_c, 9, 17, 0
2, 5792, Note_on_c, 9, 51, 97
2, 5816, Control_c, 9, 4, 98
2, 5868, Note_on_c, 9, 48, 0
2, 5874, Note_on_c, 9, 51, 0
2, 5885, Control_c, 9, 4, 92
2, 5932, Control_c, 9, 4, 73
2, 5969, Control_c, 9, 4, 28
2, 5999, Note_on_c, 9, 44, 61
2, 6006, Control_c, 9, 4, 110
2, 6031, Control_c, 9, 17, 58
2, 6032, Note_on_c, 9, 51, 54
2, 6049, Control_c, 9, 4, 90
2, 6081, Note_on_c, 9, 44, 0
2, 6113, Note_on_c, 9, 51, 0
2, 6273, Note_on_c, 9, 38, 66
2, 6276, Note_on_c, 9, 36, 67
2, 6284, Control_c, 9, 17, 0
2, 6284, Note_on_c, 9, 51, 91
2, 6313, Control_c, 9, 4, 110
2, 6354, Note_on_c, 9, 38, 0
2, 6356, Control_c, 9, 4, 102
2, 6359, Note_on_c, 9, 36, 0
2, 6365, Note_on_c, 9, 51, 0
2, 6397, Control_c, 9, 4, 80
2, 6438, Control_c, 9, 4, 0
2, 6509, Note_on_c, 9, 44, 127
2, 6515, Control_c, 9, 4, 127
2, 6517, Control_c, 9, 17, 0
2, 6518, Note_on_c, 9, 51, 87
2, 6559, Control_c, 9, 4, 116
2, 6591, Note_on_c, 9, 44, 0
2, 6597, Control_c, 9, 4, 92
2, 6599, Note_on_c, 9, 51, 0
2, 6637, Control_c, 9, 18, 0
2, 6637, Note_on_c, 9, 48, 46
2, 6655, Note_on_c, 9, 36, 77
2, 6719, Note_on_c, 9, 48, 0
2, 6738, Note_on_c, 9, 36, 0
2, 6752, Control_c, 9, 4, 102
2, 6757, Control_c, 9, 17, 16
2, 6757, Note_on_c, 9, 51, 68
2, 6761, Note_on_c, 9, 48, 70
2, 6802, Control_c, 9, 4, 108
2, 6839, Note_on_c, 9, 51, 0
2, 6842, Note_on_c, 9, 48, 0
2, 6854, Control_c, 9, 4, 95
2, 6868, Control_c, 9, 17, 28
2, 6868, Note_on_c, 9, 51, 71
2, 6899, Control_c, 9, 4, 70
2, 6929, Control_c, 9, 4, 0
2, 6950, Note_on_c, 9, 51, 0
2, 6990, Note_on_c, 9, 36, 73
2, 6990, Note_on_c, 9, 44, 126
2, 6996, Control_c, 9, 4, 127
2, 7031, Control_c, 9, 4, 102
2, 7032, Note_on_c, 9, 49, 5
2, 7063, Control_c, 9, 4, 91
2, 7071, Note_on_c, 9, 44, 0
2, 7072, Note_on_c, 9, 36, 0
2, 7108, Control_c, 9, 4, 87
2, 7110, Control_c, 9, 17, 0
2, 7110, Note_on_c, 9, 51, 71
2, 7114, Note_on_c, 9, 49, 0
2, 7188, Control_c, 9, 4, 94
2, 7192, Note_on_c, 9, 51, 0
2, 7231, Note_on_c, 9, 36, 84
2, 7234, Control_c, 9, 16, 0
2, 7235, Note_on_c, 9, 38, 62
2, 7313, Note_on_c, 9, 36, 0
2, 7315, Note_on_c, 9, 38, 0
2, 7331, Control_c, 9, 4, 88
2, 7361, Control_c, 9, 4, 72
2, 7400, Control_c, 9, 4, 0
2, 7464, Note_on_c, 9, 44, 127
2, 7470, Control_c, 9, 4, 127
2, 7475, Control_c, 9, 17, 9
2, 7476, Note_on_c, 9, 51, 85
2, 7510, Control_c, 9, 4, 110
2, 7542, Control_c, 9, 4, 91
2, 7545, Note_on_c, 9, 44, 0
2, 7557, Note_on_c, 9, 51, 0
2, 7590, Control_c, 9, 18, 0
2, 7591, Note_on_c, 9, 48, 42
2, 7673, Note_on_c, 9, 48, 0
2, 7674, End_track
0, 0, End_of_file
