0, 0, Header, 1, 2, 480
1, 0, Start_track
1, 0, Tempo, 588235
1, 0, Time_signature, 4, 2, 24, 8
1, 0, Key_signature, 0, "major"
1, 1, End_track
2, 0, Start_track
2, 0, Title_t, "Classic Studio Kit"
2, 0, Program_c, 9, 0
2, 0, Control_c, 9, 18, 0
2, 26, Control_c, 9, 4, 114
2, 36, Control_c, 9, 17, 71
2, 36, Note_on_c, 9, 51, 81
2, 39, Note_on_c, 9, 48, 70
2, 118, Note_on_c, 9, 51, 0
2, 120, Note_on_c, 9, 48, 0
2, 121, Control_c, 9, 4, 91
2, 157, Control_c, 9, 4, 73
2, 157, Control_c, 9, 17, 45
2, 159, Note_on_c, 9, 51, 75
2, 194, Control_c, 9, 4, 0
2, 240, Note_on_c, 9, 51, 0
2, 264, Note_on_c, 9, 36, 62
2, 267, Note_on_c, 9, 44, 127
2, 273, Control_c, 9, 4, 127
2, 317, Control_c, 9, 4, 118
2, 346, Note_on_c, 9, 36, 0
2, 348, Note_on_c, 9, 44, 0
2, 355, Control_c, 9, 4, 91
2, 501, Control_c, 9, 4, 104
2, 515, Note_on_c, 9, 36, 67
2, 523, Control_c, 9, 16, 0
2, 523, Note_on_c, 9, 38, 90
2, 524, Control_c, 9, 17, 15
2, 524, Note_on_c, 9, 51, 95
2, 571, Control_c, 9, 4, 98
2, 597, Note_on_c, 9, 36, 0
2, 604, Note_on_c, 9, 38, 0
2, 604, Note_on_c, 9, 51, 0
2, 614, Control_c, 9, 4, 83
2, 646, Control_c, 9, 4, 69
2, 677, Control_c, 9, 4, 0
2, 741, Control_c, 9, 4, 34
2, 747, Note_on_c, 9, 44, 127
2, 758, Control_c, 9, 17, 72
2, 759, Note_on_c, 9, 51, 75
2, 773, Control_c, 9, 4, 127
2, 806, Control_c, 9, 4, 118
2, 829, Note_on_c, 9, 44, 0
2, 840, Note_on_c, 9, 51, 0
2, 846, Control_c, 9, 4, 90
2, 874, Control_c, 9, 18, 0
2, 874, Note_on_c, 9, 48, 47
2, 879, Note_on_c, 9, 36, 60
2, 957, Note_on_c, 9, 48, 0
2, 961, Note_on_c, 9, 36, 0
2, 988, Control_c, 9, 4, 127
2, 1001, Control_c, 9, 17, 127
2, 1001, Note_on_c, 9, 48, 65
2, 1002, Note_on_c, 9, 51, 68
2, 1032, Control_c, 9, 4, 120
2, 1070, Control_c, 9, 4, 89
2, 1082, Note_on_c, 9, 48, 0
2, 1082, Note_on_c, 9, 51, 0
2, 1100, Control_c, 9, 4, 72
2, 1128, Control_c, 9, 17, 74
2, 1129, Note_on_c, 9, 51, 74
2, 1144, Control_c, 9, 4, 0
2, 1210, Note_on_c, 9, 51, 0
2, 1219, Note_on_c, 9, 46, 13
2, 1226, Note_on_c, 9, 36, 76
2, 1227, Control_c, 9, 4, 36
2, 1232, Note_on_c, 9, 44, 127
2, 1257, Control_c, 9, 4, 126
2, 1294, Control_c, 9, 4, 116
2, 1301, Note_on_c, 9, 46, 0
2, 1308, Note_on_c, 9, 36, 0
2, 1315, Note_on_c, 9, 44, 0
2, 1327, Control_c, 9, 4, 80
2, 1361, Control_c, 9, 17, 28
2, 1362, Note_on_c, 9, 51, 74
2, 1364, Control_c, 9, 4, 0
2, 1402, Control_c, 9, 4, 0
2, 1402, Note_on_c, 9, 46, 31
2, 1444, Note_on_c, 9, 46, 0
2, 1445, Note_on_c, 9, 46, 12
2, 1445, Note_on_c, 9, 51, 0
2, 1456, Control_c, 9, 4, 50
2, 1461, Note_on_c, 9, 44, 113
2, 1466, Note_on_c, 9, 36, 85
2, 1477, Control_c, 9, 17, 28
2, 1477, Note_on_c, 9, 51, 6
2, 1480, Note_on_c, 9, 38, 63
2, 1485, Note_on_c, 9, 46, 0
2, 1486, Control_c, 9, 4, 110
2, 1540, Control_c, 9, 4, 92
2, 1543, Note_on_c, 9, 44, 0
2, 1548, Note_on_c, 9, 36, 0
2, 1560, Note_on_c, 9, 51, 0
2, 1562, Note_on_c, 9, 38, 0
2, 1583, Control_c, 9, 4, 80
2, 1659, Control_c, 9, 4, 80
2, 1690, Control_c, 9, 17, 39
2, 1691, Note_on_c, 9, 51, 100
2, 1709, Control_c, 9, 4, 127
2, 1773, Control_c, 9, 4, 95
2, 1773, Note_on_c, 9, 51, 0
2, 1816, Control_c, 9, 4, 71
2, 1819, Note_on_c, 9, 36, 60
2, 1825, Control_c, 9, 18, 0
2, 1826, Note_on_c, 9, 48, 45
2, 1853, Control_c, 9, 4, 0
2, 1902, Note_on_c, 9, 36, 0
2, 1907, Note_on_c, 9, 48, 0
2, 1929, Note_on_c, 9, 46, 13
2, 1936, Control_c, 9, 4, 35
2, 1941, Note_on_c, 9, 44, 127
2, 1942, Control_c, 9, 17, 0
2, 1942, Note_on_c, 9, 51, 63
2, 1949, Note_on_c, 9, 48, 71
2, 1967, Control_c, 9, 4, 127
2, 2011, Note_on_c, 9, 46, 0
2, 2016, Control_c, 9, 4, 99
2, 2023, Note_on_c, 9, 44, 0
2, 2023, Note_on_c, 9, 51, 0
2, 2030, Note_on_c, 9, 48, 0
2, 2054, Control_c, 9, 4, 88
2, 2064, Control_c, 9, 17, 59
2, 2064, Note_on_c, 9, 51, 68
2, 2146, Note_on_c, 9, 51, 0
2, 2155, Note_on_c, 9, 36, 75
2, 2160, Control_c, 9, 4, 112
2, 2191, Control_c, 9, 4, 110
2, 2222, Control_c, 9, 4, 92
2, 2238, Note_on_c, 9, 36, 0
2, 2404, Note_on_c, 9, 36, 69
2, 2414, Control_c, 9, 17, 37
2, 2414, Note_on_c, 9, 51, 94
2, 2416, Control_c, 9, 4, 98
2, 2417, Control_c, 9, 16, 0
2, 2418, Note_on_c, 9, 38, 97
2, 2482, Control_c, 9, 4, 91
2, 2487, Note_on_c, 9, 36, 0
2, 2496, Note_on_c, 9, 51, 0
2, 2500, Note_on_c, 9, 38, 0
2, 2520, Control_c, 9, 4, 73
2, 2564, Control_c, 9, 4, 0
2, 2634, Note_on_c, 9, 46, 12
2, 2641, Control_c, 9, 4, 34
2, 2647, Note_on_c, 9, 44, 127
2, 2662, Control_c, 9, 17, 55
2, 2662, Note_on_c, 9, 51, 75
2, 2672, Control_c, 9, 4, 120
2, 2715, Note_on_c, 9, 46, 0
2, 2728, Note_on_c, 9, 44, 0
2, 2729, Control_c, 9, 4, 98
2, 2745, Note_on_c, 9, 51, 0
2, 2772, Control_c, 9, 4, 88
2, 2772, Control_c, 9, 18, 0
2, 2773, Note_on_c, 9, 48, 47
2, 2782, Note_on_c, 9, 36, 68
2, 2855, Note_on_c, 9, 48, 0
2, 2864, Note_on_c, 9, 36, 0
2, 2896, Note_on_c, 9, 48, 75
2, 2900, Control_c, 9, 4, 118
2, 2911, Control_c, 9, 17, 127
2, 2911, Note_on_c, 9, 51, 73
2, 2965, Control_c, 9, 4, 112
2, 2978, Note_on_c, 9, 48, 0
2, 2993, Note_on_c, 9, 51, 0
2, 2995, Control_c, 9, 4, 92
2, 3027, Control_c, 9, 17, 45
2, 3027, Note_on_c, 9, 51, 72
2, 3031, Control_c, 9, 4, 74
2, 3069, Control_c, 9, 4, 0
2, 3110, Note_on_c, 9, 51, 0
2, 3140, Note_on_c, 9, 36, 72
2, 3140, Note_on_c, 9, 46, 17
2, 3146, Control_c, 9, 4, 36
2, 3151, Note_on_c, 9, 44, 127
2, 3176, Control_c, 9, 4, 127
2, 3198, Note_on_c, 9, 49, 5
2, 3221, Note_on_c, 9, 36, 0
2, 3221, Note_on_c, 9, 46, 0
2, 3222, Control_c, 9, 4, 95
2, 3234, Note_on_c, 9, 44, 0
2, 3260, Control_c, 9, 4, 85
2, 3265, Control_c, 9, 17, 5
2, 3265, Note_on_c, 9, 51, 87
2, 3280, Note_on_c, 9, 49, 0
2, 3348, Note_on_c, 9, 51, 0
2, 3386, Control_c, 9, 4, 110
2, 3389, Note_on_c, 9, 36, 75
2, 3393, Note_on_c, 9, 38, 69
2, 3454, Control_c, 9, 4, 95
2, 3471, Note_on_c, 9, 36, 0
2, 3476, Note_on_c, 9, 38, 0
2, 3490, Control_c, 9, 4, 83
2, 3520, Control_c, 9, 4, 69
2, 3553, Control_c, 9, 4, 0
2, 3618, Note_on_c, 9, 46, 7
2, 3625, Control_c, 9, 4, 34
2, 3628, Control_c, 9, 17, 15
2, 3628, Note_on_c, 9, 51, 89
2, 3631, Note_on_c, 9, 44, 127
2, 3656, Control_c, 9, 4, 122
2, 3700, Note_on_c, 9, 46, 0
2, 3708, Control_c, 9, 4, 97
2, 3710, Note_on_c, 9, 51, 0
2, 3713, Note_on_c, 9, 44, 0
2, 3749, Control_c, 9, 18, 0
2, 3750, Control_c, 9, 4, 84
2, 3750, Note_on_c, 9, 48, 43
2, 3761, Note_on_c, 9, 36, 60
2, 3832, Note_on_c, 9, 48, 0
2, 3843, Note_on_c, 9, 36, 0
2, 3872, Control_c, 9, 4, 120
2, 3879, Control_c, 9, 17, 76
2, 3880, Note_on_c, 9, 51, 81
2, 3881, Note_on_c, 9, 48, 64
2, 3930, Control_c, 9, 4, 110
2, 3960, Control_c, 9, 4, 91
2, 3961, Note_on_c, 9, 48, 0
2, 3961, Note_on_c, 9, 51, 0
2, 3991, Control_c, 9, 4, 74
2, 4005, Control_c, 9, 17, 50
2, 4006, Note_on_c, 9, 51, 71
2, 4030, Control_c, 9, 4, 0
2, 4088, Note_on_c, 9, 51, 0
2, 4099, Note_on_c, 9, 46, 10
2, 4106, Note_on_c, 9, 36, 69
2, 4107, Control_c, 9, 4, 34
2, 4112, Note_on_c, 9, 44, 127
2, 4137, Control_c, 9, 4, 120
2, 4181, Note_on_c, 9, 46, 0
2, 4187, Note_on_c, 9, 36, 0
2, 4193, Note_on_c, 9, 44, 0
2, 4203, Control_c, 9, 4, 91
2, 4240, Control_c, 9, 4, 87
2, 4343, Control_c, 9, 4, 106
2, 4355, Note_on_c, 9, 36, 72
2, 4361, Control_c, 9, 17, 45
2, 4362, Note_on_c, 9, 51, 85
2, 4370, Control_c, 9, 16, 0
2, 4370, Note_on_c, 9, 38, 91
2, 4401, Control_c, 9, 4, 102
2, 4435, Control_c, 9, 4, 90
2, 4437, Note_on_c, 9, 36, 0
2, 4444, Note_on_c, 9, 51, 0
2, 4451, Note_on_c, 9, 38, 0
2, 4485, Control_c, 9, 4, 69
2, 4520, Control_c, 9, 4, 0
2, 4590, Control_c, 9, 4, 33
2, 4595, Note_on_c, 9, 44, 127
2, 4605, Control_c, 9, 17, 81
2, 4605, Note_on_c, 9, 51, 80
2, 4621, Control_c, 9, 4, 124
2, 4665, Control_c, 9, 4, 102
2, 4677, Note_on_c, 9, 44, 0
2, 4687, Note_on_c, 9, 51, 0
2, 4704, Control_c, 9, 4, 89
2, 4719, Control_c, 9, 18, 0
2, 4719, Note_on_c, 9, 48, 46
2, 4728, Note_on_c, 9, 36, 55
2, 4801, Note_on_c, 9, 48, 0
2, 4810, Note_on_c, 9, 36, 0
2, 4843, Control_c, 9, 4, 118
2, 4845, Note_on_c, 9, 48, 65
2, 4846, Control_c, 9, 17, 127
2, 4846, Note_on_c, 9, 51, 66
2, 4906, Control_c, 9, 4, 97
2, 4927, Note_on_c, 9, 48, 0
2, 4927, Note_on_c, 9, 51, 0
2, 4948, Control_c, 9, 4, 70
2, 4981, Control_c, 9, 4, 0
2, 4984, Control_c, 9, 17, 84
2, 4985, Note_on_c, 9, 51, 57
2, 5020, Control_c, 9, 4, 0
2, 5021, Note_on_c, 9, 46, 25
2, 5066, Note_on_c, 9, 51, 0
2, 5072, Control_c, 9, 4, 34
2, 5078, Note_on_c, 9, 44, 127
2, 5087, Note_on_c, 9, 36, 76
2, 5097, Control_c, 9, 17, 84
2, 5097, Note_on_c, 9, 51, 6
2, 5102, Note_on_c, 9, 46, 0
2, 5104, Control_c, 9, 4, 127
2, 5152, Control_c, 9, 4, 98
2, 5160, Note_on_c, 9, 44, 0
2, 5170, Note_on_c, 9, 36, 0
2, 5180, Note_on_c, 9, 51, 0
2, 5192, Control_c, 9, 4, 70
2, 5203, Control_c, 9, 17, 45
2, 5203, Note_on_c, 9, 51, 74
2, 5225, Control_c, 9, 4, 0
2, 5286, Note_on_c, 9, 51, 0
2, 5306, Note_on_c, 9, 46, 12
2, 5315, Control_c, 9, 4, 33
2, 5320, Note_on_c, 9, 38, 65
2, 5322, Note_on_c, 9, 44, 126
2, 5325, Note_on_c, 9, 36, 81
2, 5347, Control_c, 9, 4, 102
2, 5388, Note_on_c, 9, 46, 0
2, 5397, Control_c, 9, 4, 94
2, 5402, Note_on_c, 9, 38, 0
2, 5402, Note_on_c, 9, 44, 0
2, 5406, Note_on_c, 9, 36, 0
2, 5429, Control_c, 9, 4, 83
2, 5466, Control_c, 9, 4, 79
2, 5513, Control_c, 9, 4, 81
2, 5541, Control_c, 9, 17, 35
2, 5541, Note_on_c, 9, 51, 90
2, 5559, Control_c, 9, 4, 120
2, 5623, Note_on_c, 9, 51, 0
2, 5635, Control_c, 9, 4, 90
2, 5667, Note_on_c, 9, 36, 62
2, 5668, Control_c, 9, 4, 71
2, 5672, Control_c, 9, 18, 0
2, 5673, Note_on_c, 9, 48, 45
2, 5705, Control_c, 9, 4, 0
2, 5749, Note_on_c, 9, 36, 0
2, 5754, Note_on_c, 9, 48, 0
2, 5778, Note_on_c, 9, 46, 8
2, 5784, Control_c, 9, 4, 34
2, 5789, Note_on_c, 9, 44, 127
2, 5792, Control_c, 9, 17, 127
2, 5792, Note_on_c, 9, 51, 64
2, 5794, Note_on_c, 9, 48, 68
2, 5815, Control_c, 9, 4, 127
2, 5858, Note_on_c, 9, 46, 0
2, 5871, Note_on_c, 9, 44, 0
2, 5873, Note_on_c, 9, 48, 0
2, 5873, Note_on_c, 9, 51, 0
2, 5875, Control_c, 9, 4, 92
2, 5906, Control_c, 9, 4, 87
2, 5916, Control_c, 9, 17, 82
2, 5916, Note_on_c, 9, 51, 63
2, 5998, Note_on_c, 9, 51, 0
2, 6002, Control_c, 9, 4, 108
2, 6002, Note_on_c, 9, 36, 71
2, 6058, Control_c, 9, 4, 94
2, 6085, Note_on_c, 9, 36, 0
2, 6089, Control_c, 9, 4, 90
2, 6245, Note_on_c, 9, 36, 71
2, 6257, Control_c, 9, 4, 95
2, 6264, Control_c, 9, 17, 33
2, 6264, Note_on_c, 9, 51, 85
2, 6275, Control_c, 9, 16, 0
2, 6276, Note_on_c, 9, 38, 100
2, 6328, Note_on_c, 9, 36, 0
2, 6331, Control_c, 9, 4, 88
2, 6346, Note_on_c, 9, 51, 0
2, 6356, Note_on_c, 9, 38, 0
2, 6363, Control_c, 9, 4, 73
2, 6407, Control_c, 9, 4, 0
2, 6478, Note_on_c, 9, 46, 10
2, 6485, Control_c, 9, 4, 34
2, 6491, Note_on_c, 9, 44, 127
2, 6507, Control_c, 9, 17, 45
2, 6507, Note_on_c, 9, 51, 82
2, 6516, Control_c, 9, 4, 120
2, 6559, Note_on_c, 9, 46, 0
2, 6570, Control_c, 9, 4, 98
2, 6573, Note_on_c, 9, 44, 0
2, 6590, Note_on_c, 9, 51, 0
2, 6612, Control_c, 9, 4, 87
2, 6621, Control_c, 9, 18, 0
2, 6622, Note_on_c, 9, 48, 48
2, 6630, Note_on_c, 9, 36, 67
2, 6704, Note_on_c, 9, 48, 0
2, 6711, Note_on_c, 9, 36, 0
2, 6750, Control_c, 9, 4, 120
2, 6754, Note_on_c, 9, 48, 74
2, 6755, Control_c, 9, 17, 127
2, 6756, Note_on_c, 9, 51, 72
2, 6796, Control_c, 9, 4, 114
2, 6835, Note_on_c, 9, 48, 0
2, 6837, Note_on_c, 9, 51, 0
2, 6838, Control_c, 9, 4, 92
2, 6878, Control_c, 9, 17, 49
2, 6878, Note_on_c, 9, 51, 69
2, 6879, Control_c, 9, 4, 76
2, 6917, Control_c, 9, 4, 0
2, 6960, Note_on_c, 9, 51, 0
2, 6982, Note_on_c, 9, 36, 70
2, 6982, Note_on_c, 9, 46, 10
2, 6989, Control_c, 9, 4, 36
2, 6993, Control_c, 9, 17, 49
2, 6993, Note_on_c, 9, 51, 6
2, 6995, Note_on_c, 9, 44, 127
2, 7019, Control_c, 9, 4, 127
2, 7049, Control_c, 9, 4, 118
2, 7063, Note_on_c, 9, 46, 0
2, 7064, Note_on_c, 9, 36, 0
2, 7075, Note_on_c, 9, 44, 0
2, 7075, Note_on_c, 9, 51, 0
2, 7083, Control_c, 9, 4, 89
2, 7117, Control_c, 9, 4, 85
2, 7122, Control_c, 9, 17, 34
2, 7122, Note_on_c, 9, 51, 76
2, 7204, Note_on_c, 9, 51, 0
2, 7218, Control_c, 9, 4, 104
2, 7229, Note_on_c, 9, 36, 78
2, 7242, Note_on_c, 9, 38, 67
2, 7255, Control_c, 9, 4, 104
2, 7295, Control_c, 9, 4, 98
2, 7312, Note_on_c, 9, 36, 0
2, 7323, Note_on_c, 9, 38, 0
2, 7332, Control_c, 9, 4, 85
2, 7364, Control_c, 9, 4, 70
2, 7399, Control_c, 9, 4, 0
2, 7462, Note_on_c, 9, 46, 11
2, 7473, Control_c, 9, 17, 48
2, 7474, Note_on_c, 9, 51, 81
2, 7477, Note_on_c, 9, 44, 127
2, 7481, Control_c, 9, 4, 127
2, 7525, Control_c, 9, 4, 120
2, 7544, Note_on_c, 9, 46, 0
2, 7556, Note_on_c, 9, 44, 0
2, 7556, Note_on_c, 9, 51, 0
2, 7566, Control_c, 9, 4, 91
2, 7592, Control_c, 9, 18, 0
2, 7592, Note_on_c, 9, 48, 47
2, 7596, Control_c, 9, 4, 85
2, 7597, Note_on_c, 9, 36, 64
2, 7674, Note_on_c, 9, 48, 0
2, 7679, Note_on_c, 9, 36, 0
2, 7680, End_track
0, 0, End_of_file
