0, 0, Header, 1, 2, 480
1, 0, Start_track
1, 0, Tempo, 588235
1, 0, Time_signature, 4, 2, 24, 8
1, 0, Key_signature, 0, "major"
1, 1, End_track
2, 0, Start_track
2, 0, Title_t, "Classic Studio Kit"
2, 0, Program_c, 9, 0
2, 0, Control_c, 9, 16, 64
2, 15, Control_c, 9, 16, 42
2, 16, Note_on_c, 9, 38, 58
2, 97, Note_on_c, 9, 38, 0
2, 130, Control_c, 9, 16, 0
2, 130, Note_on_c, 9, 38, 54
2, 212, Note_on_c, 9, 38, 0
2, 251, Control_c, 9, 16, 42
2, 251, Note_on_c, 9, 38, 47
2, 333, Note_on_c, 9, 38, 0
2, 506, Control_c, 9, 16, 0
2, 506, Note_on_c, 9, 38, 68
2, 522, Control_c, 9, 17, 2
2, 523, Note_on_c, 9, 36, 52
2, 523, Note_on_c, 9, 51, 90
2, 540, Control_c, 9, 4, 98
2, 588, Note_on_c, 9, 38, 0
2, 604, Note_on_c, 9, 36, 0
2, 604, Note_on_c, 9, 51, 0
2, 619, Control_c, 9, 4, 85
2, 651, Control_c, 9, 4, 70
2, 686, Control_c, 9, 4, 0
2, 739, Control_c, 9, 4, 49
2, 743, Note_on_c, 9, 44, 106
2, 752, Control_c, 9, 17, 65
2, 753, Note_on_c, 9, 51, 73
2, 769, Control_c, 9, 4, 120
2, 825, Note_on_c, 9, 44, 0
2, 827, Control_c, 9, 4, 91
2, 835, Note_on_c, 9, 51, 0
2, 864, Control_c, 9, 18, 0
2, 864, Note_on_c, 9, 36, 61
2, 866, Note_on_c, 9, 48, 42
2, 947, Note_on_c, 9, 36, 0
2, 947, Note_on_c, 9, 48, 0
2, 986, Control_c, 9, 17, 60
2, 987, Note_on_c, 9, 51, 52
2, 988, Control_c, 9, 4, 104
2, 990, Note_on_c, 9, 48, 59
2, 1066, Control_c, 9, 4, 92
2, 1068, Note_on_c, 9, 51, 0
2, 1070, Note_on_c, 9, 48, 0
2, 1116, Control_c, 9, 4, 70
2, 1118, Control_c, 9, 17, 107
2, 1119, Note_on_c, 9, 51, 61
2, 1152, Control_c, 9, 4, 0
2, 1200, Note_on_c, 9, 51, 0
2, 1204, Control_c, 9, 4, 49
2, 1209, Note_on_c, 9, 46, 60
2, 1210, Note_on_c, 9, 44, 93
2, 1217, Note_on_c, 9, 36, 43
2, 1234, Control_c, 9, 4, 116
2, 1286, Control_c, 9, 4, 92
2, 1290, Note_on_c, 9, 44, 0
2, 1290, Note_on_c, 9, 46, 0
2, 1298, Note_on_c, 9, 36, 0
2, 1318, Control_c, 9, 4, 88
2, 1421, Control_c, 9, 4, 93
2, 1454, Note_on_c, 9, 36, 73
2, 1463, Control_c, 9, 17, 22
2, 1463, Note_on_c, 9, 51, 75
2, 1470, Note_on_c, 9, 38, 63
2, 1537, Note_on_c, 9, 36, 0
2, 1546, Note_on_c, 9, 51, 0
2, 1550, Note_on_c, 9, 38, 0
2, 1578, Control_c, 9, 4, 87
2, 1612, Control_c, 9, 4, 72
2, 1657, Control_c, 9, 4, 10
2, 1690, Control_c, 9, 4, 54
2, 1695, Note_on_c, 9, 46, 58
2, 1696, Note_on_c, 9, 44, 87
2, 1700, Control_c, 9, 17, 97
2, 1701, Note_on_c, 9, 51, 60
2, 1720, Control_c, 9, 4, 120
2, 1758, Control_c, 9, 4, 99
2, 1776, Note_on_c, 9, 44, 0
2, 1776, Note_on_c, 9, 46, 0
2, 1782, Note_on_c, 9, 51, 0
2, 1796, Control_c, 9, 4, 85
2, 1819, Note_on_c, 9, 36, 55
2, 1825, Control_c, 9, 18, 0
2, 1826, Note_on_c, 9, 48, 39
2, 1901, Note_on_c, 9, 36, 0
2, 1908, Note_on_c, 9, 48, 0
2, 1909, Control_c, 9, 17, 67
2, 1910, Note_on_c, 9, 51, 47
2, 1913, Control_c, 9, 4, 97
2, 1939, Note_on_c, 9, 48, 55
2, 1992, Note_on_c, 9, 51, 0
2, 2021, Note_on_c, 9, 48, 0
2, 2051, Control_c, 9, 4, 84
2, 2055, Control_c, 9, 17, 127
2, 2055, Note_on_c, 9, 51, 60
2, 2082, Control_c, 9, 4, 70
2, 2122, Control_c, 9, 4, 7
2, 2137, Note_on_c, 9, 51, 0
2, 2155, Control_c, 9, 4, 48
2, 2161, Note_on_c, 9, 36, 55
2, 2161, Note_on_c, 9, 44, 87
2, 2186, Control_c, 9, 4, 120
2, 2242, Note_on_c, 9, 36, 0
2, 2242, Note_on_c, 9, 44, 0
2, 2246, Control_c, 9, 4, 91
2, 2277, Control_c, 9, 4, 87
2, 2388, Control_c, 9, 4, 97
2, 2411, Note_on_c, 9, 36, 62
2, 2413, Control_c, 9, 16, 0
2, 2414, Control_c, 9, 17, 8
2, 2414, Note_on_c, 9, 38, 74
2, 2415, Note_on_c, 9, 51, 80
2, 2494, Note_on_c, 9, 36, 0
2, 2495, Note_on_c, 9, 38, 0
2, 2495, Note_on_c, 9, 51, 0
2, 2507, Control_c, 9, 4, 91
2, 2549, Control_c, 9, 4, 79
2, 2579, Control_c, 9, 4, 54
2, 2609, Control_c, 9, 4, 0
2, 2649, Note_on_c, 9, 44, 93
2, 2657, Control_c, 9, 4, 127
2, 2661, Control_c, 9, 17, 43
2, 2662, Note_on_c, 9, 51, 69
2, 2698, Control_c, 9, 4, 116
2, 2730, Note_on_c, 9, 44, 0
2, 2736, Control_c, 9, 4, 88
2, 2743, Note_on_c, 9, 51, 0
2, 2768, Control_c, 9, 4, 84
2, 2777, Control_c, 9, 18, 0
2, 2778, Note_on_c, 9, 48, 41
2, 2787, Note_on_c, 9, 36, 58
2, 2859, Note_on_c, 9, 48, 0
2, 2870, Note_on_c, 9, 36, 0
2, 2876, Control_c, 9, 4, 104
2, 2898, Control_c, 9, 17, 74
2, 2898, Note_on_c, 9, 48, 56
2, 2899, Note_on_c, 9, 51, 46
2, 2907, Control_c, 9, 4, 100
2, 2970, Control_c, 9, 4, 95
2, 2979, Note_on_c, 9, 48, 0
2, 2979, Note_on_c, 9, 51, 0
2, 3011, Control_c, 9, 4, 83
2, 3039, Control_c, 9, 17, 90
2, 3039, Note_on_c, 9, 51, 64
2, 3056, Control_c, 9, 4, 54
2, 3087, Control_c, 9, 4, 10
2, 3118, Control_c, 9, 4, 42
2, 3121, Note_on_c, 9, 51, 0
2, 3125, Note_on_c, 9, 44, 80
2, 3132, Note_on_c, 9, 36, 47
2, 3151, Control_c, 9, 4, 120
2, 3187, Control_c, 9, 4, 99
2, 3207, Note_on_c, 9, 44, 0
2, 3213, Note_on_c, 9, 36, 0
2, 3229, Control_c, 9, 4, 87
2, 3343, Control_c, 9, 4, 92
2, 3375, Note_on_c, 9, 36, 65
2, 3376, Control_c, 9, 17, 35
2, 3376, Note_on_c, 9, 51, 85
2, 3377, Control_c, 9, 16, 21
2, 3378, Note_on_c, 9, 38, 62
2, 3457, Note_on_c, 9, 36, 0
2, 3458, Note_on_c, 9, 51, 0
2, 3459, Note_on_c, 9, 38, 0
2, 3485, Control_c, 9, 4, 85
2, 3524, Control_c, 9, 4, 70
2, 3569, Control_c, 9, 4, 0
2, 3611, Control_c, 9, 4, 50
2, 3616, Note_on_c, 9, 44, 93
2, 3623, Control_c, 9, 17, 117
2, 3623, Note_on_c, 9, 51, 67
2, 3641, Control_c, 9, 4, 120
2, 3684, Control_c, 9, 4, 97
2, 3697, Note_on_c, 9, 44, 0
2, 3706, Note_on_c, 9, 51, 0
2, 3723, Control_c, 9, 4, 85
2, 3730, Control_c, 9, 18, 0
2, 3730, Note_on_c, 9, 48, 43
2, 3747, Note_on_c, 9, 36, 45
2, 3812, Note_on_c, 9, 48, 0
2, 3830, Note_on_c, 9, 36, 0
2, 3841, Control_c, 9, 4, 99
2, 3857, Control_c, 9, 17, 83
2, 3857, Note_on_c, 9, 51, 52
2, 3860, Note_on_c, 9, 48, 60
2, 3939, Note_on_c, 9, 51, 0
2, 3941, Note_on_c, 9, 48, 0
2, 3949, Control_c, 9, 4, 92
2, 3990, Control_c, 9, 17, 109
2, 3990, Note_on_c, 9, 51, 63
2, 3994, Control_c, 9, 4, 78
2, 4025, Control_c, 9, 4, 54
2, 4056, Control_c, 9, 4, 0
2, 4072, Note_on_c, 9, 51, 0
2, 4094, Control_c, 9, 4, 49
2, 4099, Note_on_c, 9, 44, 100
2, 4100, Note_on_c, 9, 36, 46
2, 4124, Control_c, 9, 4, 116
2, 4164, Control_c, 9, 4, 96
2, 4180, Note_on_c, 9, 44, 0
2, 4183, Note_on_c, 9, 36, 0
2, 4206, Control_c, 9, 4, 87
2, 4313, Control_c, 9, 4, 92
2, 4344, Control_c, 9, 17, 41
2, 4344, Note_on_c, 9, 51, 81
2, 4346, Note_on_c, 9, 36, 58
2, 4353, Control_c, 9, 16, 0
2, 4354, Control_c, 9, 4, 96
2, 4354, Note_on_c, 9, 38, 61
2, 4426, Note_on_c, 9, 51, 0
2, 4428, Note_on_c, 9, 36, 0
2, 4435, Note_on_c, 9, 38, 0
2, 4447, Control_c, 9, 4, 84
2, 4484, Control_c, 9, 4, 71
2, 4533, Control_c, 9, 4, 0
2, 4575, Control_c, 9, 4, 49
2, 4579, Note_on_c, 9, 44, 93
2, 4597, Control_c, 9, 17, 105
2, 4598, Note_on_c, 9, 51, 62
2, 4605, Control_c, 9, 4, 120
2, 4648, Control_c, 9, 4, 97
2, 4662, Note_on_c, 9, 44, 0
2, 4680, Note_on_c, 9, 51, 0
2, 4686, Control_c, 9, 4, 85
2, 4705, Control_c, 9, 18, 0
2, 4705, Note_on_c, 9, 48, 43
2, 4718, Note_on_c, 9, 36, 47
2, 4787, Note_on_c, 9, 48, 0
2, 4801, Note_on_c, 9, 36, 0
2, 4807, Control_c, 9, 4, 100
2, 4814, Control_c, 9, 17, 67
2, 4814, Note_on_c, 9, 51, 52
2, 4833, Note_on_c, 9, 48, 59
2, 4896, Control_c, 9, 4, 95
2, 4896, Note_on_c, 9, 51, 0
2, 4914, Note_on_c, 9, 48, 0
2, 4943, Control_c, 9, 4, 83
2, 4954, Control_c, 9, 17, 127
2, 4955, Note_on_c, 9, 51, 63
2, 4992, Control_c, 9, 4, 54
2, 5026, Control_c, 9, 4, 0
2, 5036, Note_on_c, 9, 51, 0
2, 5058, Control_c, 9, 4, 49
2, 5064, Note_on_c, 9, 44, 93
2, 5074, Note_on_c, 9, 36, 42
2, 5089, Control_c, 9, 4, 116
2, 5131, Control_c, 9, 4, 95
2, 5146, Note_on_c, 9, 44, 0
2, 5155, Note_on_c, 9, 36, 0
2, 5168, Control_c, 9, 4, 85
2, 5292, Control_c, 9, 4, 95
2, 5314, Note_on_c, 9, 36, 49
2, 5317, Note_on_c, 9, 38, 73
2, 5318, Control_c, 9, 17, 49
2, 5319, Note_on_c, 9, 51, 84
2, 5396, Note_on_c, 9, 36, 0
2, 5396, Note_on_c, 9, 38, 0
2, 5399, Note_on_c, 9, 51, 0
2, 5416, Control_c, 9, 4, 83
2, 5453, Control_c, 9, 4, 70
2, 5497, Control_c, 9, 4, 0
2, 5542, Control_c, 9, 4, 49
2, 5548, Note_on_c, 9, 44, 100
2, 5559, Control_c, 9, 17, 126
2, 5559, Note_on_c, 9, 51, 63
2, 5573, Control_c, 9, 4, 120
2, 5613, Control_c, 9, 4, 98
2, 5630, Note_on_c, 9, 44, 0
2, 5640, Note_on_c, 9, 51, 0
2, 5653, Control_c, 9, 4, 87
2, 5681, Control_c, 9, 18, 0
2, 5681, Note_on_c, 9, 48, 43
2, 5686, Note_on_c, 9, 36, 43
2, 5763, Note_on_c, 9, 48, 0
2, 5768, Note_on_c, 9, 36, 0
2, 5776, Control_c, 9, 17, 89
2, 5777, Note_on_c, 9, 51, 52
2, 5779, Control_c, 9, 4, 98
2, 5792, Note_on_c, 9, 48, 53
2, 5858, Note_on_c, 9, 51, 0
2, 5874, Control_c, 9, 4, 92
2, 5874, Note_on_c, 9, 48, 0
2, 5910, Control_c, 9, 17, 127
2, 5910, Note_on_c, 9, 51, 70
2, 5926, Control_c, 9, 4, 78
2, 5958, Control_c, 9, 4, 54
2, 5990, Control_c, 9, 4, 0
2, 5992, Note_on_c, 9, 51, 0
2, 6026, Control_c, 9, 4, 49
2, 6031, Note_on_c, 9, 44, 93
2, 6041, Note_on_c, 9, 36, 51
2, 6056, Control_c, 9, 4, 116
2, 6098, Control_c, 9, 4, 95
2, 6112, Note_on_c, 9, 44, 0
2, 6122, Note_on_c, 9, 36, 0
2, 6140, Control_c, 9, 4, 85
2, 6259, Control_c, 9, 4, 95
2, 6260, Control_c, 9, 17, 35
2, 6261, Note_on_c, 9, 51, 82
2, 6268, Control_c, 9, 16, 0
2, 6269, Note_on_c, 9, 38, 90
2, 6283, Note_on_c, 9, 36, 53
2, 6343, Note_on_c, 9, 51, 0
2, 6350, Note_on_c, 9, 38, 0
2, 6365, Note_on_c, 9, 36, 0
2, 6375, Control_c, 9, 4, 84
2, 6411, Control_c, 9, 4, 70
2, 6460, Control_c, 9, 4, 0
2, 6501, Control_c, 9, 4, 49
2, 6506, Note_on_c, 9, 44, 93
2, 6515, Control_c, 9, 17, 71
2, 6516, Note_on_c, 9, 51, 63
2, 6531, Control_c, 9, 4, 118
2, 6588, Note_on_c, 9, 44, 0
2, 6590, Control_c, 9, 4, 90
2, 6597, Note_on_c, 9, 51, 0
2, 6622, Control_c, 9, 18, 0
2, 6622, Note_on_c, 9, 48, 42
2, 6623, Control_c, 9, 4, 85
2, 6642, Note_on_c, 9, 36, 48
2, 6703, Note_on_c, 9, 48, 0
2, 6725, Note_on_c, 9, 36, 0
2, 6738, Control_c, 9, 17, 65
2, 6738, Note_on_c, 9, 51, 53
2, 6739, Control_c, 9, 4, 100
2, 6746, Note_on_c, 9, 48, 59
2, 6820, Note_on_c, 9, 51, 0
2, 6822, Control_c, 9, 4, 95
2, 6827, Note_on_c, 9, 48, 0
2, 6871, Control_c, 9, 4, 83
2, 6878, Control_c, 9, 17, 84
2, 6879, Note_on_c, 9, 51, 68
2, 6920, Control_c, 9, 4, 54
2, 6951, Control_c, 9, 4, 0
2, 6960, Note_on_c, 9, 51, 0
2, 6990, Control_c, 9, 4, 49
2, 6995, Note_on_c, 9, 44, 93
2, 6999, Note_on_c, 9, 36, 53
2, 7021, Control_c, 9, 4, 114
2, 7053, Control_c, 9, 4, 102
2, 7077, Note_on_c, 9, 44, 0
2, 7080, Note_on_c, 9, 36, 0
2, 7088, Control_c, 9, 4, 88
2, 7196, Control_c, 9, 17, 39
2, 7197, Note_on_c, 9, 51, 75
2, 7213, Note_on_c, 9, 38, 64
2, 7216, Control_c, 9, 4, 94
2, 7244, Note_on_c, 9, 36, 61
2, 7279, Note_on_c, 9, 51, 0
2, 7293, Note_on_c, 9, 38, 0
2, 7326, Note_on_c, 9, 36, 0
2, 7337, Control_c, 9, 4, 83
2, 7374, Control_c, 9, 4, 70
2, 7421, Control_c, 9, 4, 0
2, 7458, Control_c, 9, 4, 32
2, 7461, Control_c, 9, 17, 50
2, 7462, Note_on_c, 9, 51, 77
2, 7466, Note_on_c, 9, 44, 87
2, 7492, Control_c, 9, 4, 120
2, 7536, Control_c, 9, 4, 97
2, 7544, Note_on_c, 9, 51, 0
2, 7549, Note_on_c, 9, 44, 0
2, 7572, Control_c, 9, 4, 87
2, 7574, Control_c, 9, 18, 0
2, 7574, Note_on_c, 9, 48, 42
2, 7656, Note_on_c, 9, 48, 0
2, 7657, End_track
0, 0, End_of_file
