0, 0, Header, 1, 2, 480
1, 0, Start_track
1, 0, Tempo, 588235
1, 0, Time_signature, 4, 2, 24, 8
1, 0, Key_signature, 0, "major"
1, 1, End_track
2, 0, Start_track
2, 0, Title_t, "Classic Studio Kit"
2, 0, Program_c, 9, 0
2, 0, Control_c, 9, 18, 0
2, 16, Control_c, 9, 4, 104
2, 36, Control_c, 9, 17, 56
2, 36, Note_on_c, 9, 51, 60
2, 107, Control_c, 9, 4, 98
2, 117, Note_on_c, 9, 51, 0
2, 157, Control_c, 9, 4, 85
2, 159, Control_c, 9, 17, 105
2, 159, Note_on_c, 9, 51, 71
2, 190, Control_c, 9, 4, 70
2, 222, Control_c, 9, 4, 22
2, 241, Note_on_c, 9, 51, 0
2, 257, Control_c, 9, 4, 61
2, 261, Note_on_c, 9, 44, 74
2, 269, Note_on_c, 9, 36, 54
2, 277, Note_on_c, 9, 38, 54
2, 287, Control_c, 9, 4, 122
2, 343, Control_c, 9, 4, 91
2, 343, Note_on_c, 9, 44, 0
2, 351, Note_on_c, 9, 36, 0
2, 358, Note_on_c, 9, 38, 0
2, 377, Control_c, 9, 4, 87
2, 407, Control_c, 9, 17, 26
2, 407, Note_on_c, 9, 51, 75
2, 486, Control_c, 9, 4, 102
2, 489, Note_on_c, 9, 51, 0
2, 507, Note_on_c, 9, 36, 71
2, 524, Note_on_c, 9, 48, 64
2, 580, Control_c, 9, 4, 97
2, 587, Note_on_c, 9, 36, 0
2, 604, Note_on_c, 9, 48, 0
2, 629, Control_c, 9, 4, 85
2, 663, Control_c, 9, 4, 70
2, 696, Control_c, 9, 4, 22
2, 732, Control_c, 9, 17, 45
2, 733, Note_on_c, 9, 51, 87
2, 736, Control_c, 9, 4, 42
2, 742, Control_c, 9, 16, 0
2, 743, Note_on_c, 9, 38, 59
2, 745, Note_on_c, 9, 44, 87
2, 768, Control_c, 9, 4, 120
2, 815, Note_on_c, 9, 51, 0
2, 824, Note_on_c, 9, 38, 0
2, 825, Note_on_c, 9, 44, 0
2, 828, Control_c, 9, 4, 91
2, 884, Note_on_c, 9, 36, 41
2, 965, Note_on_c, 9, 36, 0
2, 987, Control_c, 9, 17, 46
2, 987, Note_on_c, 9, 51, 83
2, 994, Control_c, 9, 4, 106
2, 1070, Note_on_c, 9, 51, 0
2, 1071, Control_c, 9, 4, 96
2, 1108, Control_c, 9, 16, 21
2, 1109, Note_on_c, 9, 38, 54
2, 1112, Control_c, 9, 4, 83
2, 1155, Control_c, 9, 4, 52
2, 1187, Control_c, 9, 4, 0
2, 1189, Note_on_c, 9, 38, 0
2, 1214, Control_c, 9, 17, 62
2, 1215, Note_on_c, 9, 51, 67
2, 1219, Note_on_c, 9, 44, 87
2, 1223, Note_on_c, 9, 36, 57
2, 1228, Control_c, 9, 4, 127
2, 1269, Control_c, 9, 4, 120
2, 1296, Note_on_c, 9, 51, 0
2, 1300, Note_on_c, 9, 44, 0
2, 1305, Note_on_c, 9, 36, 0
2, 1307, Control_c, 9, 4, 90
2, 1338, Control_c, 9, 4, 85
2, 1386, Control_c, 9, 4, 89
2, 1460, Control_c, 9, 4, 100
2, 1466, Note_on_c, 9, 36, 72
2, 1469, Control_c, 9, 17, 32
2, 1469, Note_on_c, 9, 51, 83
2, 1470, Control_c, 9, 16, 0
2, 1471, Note_on_c, 9, 38, 63
2, 1548, Note_on_c, 9, 36, 0
2, 1550, Note_on_c, 9, 51, 0
2, 1552, Note_on_c, 9, 38, 0
2, 1571, Control_c, 9, 4, 89
2, 1603, Control_c, 9, 4, 74
2, 1645, Control_c, 9, 4, 19
2, 1683, Control_c, 9, 4, 59
2, 1688, Note_on_c, 9, 44, 80
2, 1704, Control_c, 9, 17, 127
2, 1704, Note_on_c, 9, 51, 66
2, 1713, Control_c, 9, 4, 122
2, 1770, Note_on_c, 9, 44, 0
2, 1773, Control_c, 9, 4, 91
2, 1786, Note_on_c, 9, 51, 0
2, 1806, Control_c, 9, 4, 86
2, 1824, Control_c, 9, 18, 0
2, 1824, Note_on_c, 9, 48, 67
2, 1830, Note_on_c, 9, 36, 61
2, 1905, Note_on_c, 9, 48, 0
2, 1911, Control_c, 9, 4, 102
2, 1912, Note_on_c, 9, 36, 0
2, 1943, Control_c, 9, 17, 60
2, 1943, Note_on_c, 9, 51, 61
2, 1951, Control_c, 9, 4, 104
2, 2024, Note_on_c, 9, 51, 0
2, 2042, Control_c, 9, 4, 91
2, 2067, Control_c, 9, 17, 127
2, 2067, Note_on_c, 9, 51, 72
2, 2080, Control_c, 9, 4, 73
2, 2117, Control_c, 9, 4, 29
2, 2148, Note_on_c, 9, 51, 0
2, 2152, Control_c, 9, 4, 51
2, 2157, Note_on_c, 9, 44, 67
2, 2160, Note_on_c, 9, 46, 54
2, 2168, Note_on_c, 9, 36, 46
2, 2179, Control_c, 9, 17, 127
2, 2180, Note_on_c, 9, 51, 5
2, 2183, Control_c, 9, 4, 120
2, 2227, Control_c, 9, 4, 97
2, 2239, Note_on_c, 9, 44, 0
2, 2240, Note_on_c, 9, 46, 0
2, 2250, Note_on_c, 9, 36, 0
2, 2261, Note_on_c, 9, 51, 0
2, 2266, Control_c, 9, 4, 86
2, 2382, Control_c, 9, 4, 97
2, 2406, Control_c, 9, 17, 10
2, 2406, Note_on_c, 9, 51, 91
2, 2411, Note_on_c, 9, 38, 68
2, 2412, Note_on_c, 9, 36, 57
2, 2489, Note_on_c, 9, 51, 0
2, 2492, Note_on_c, 9, 38, 0
2, 2493, Note_on_c, 9, 36, 0
2, 2536, Control_c, 9, 4, 85
2, 2568, Control_c, 9, 4, 70
2, 2600, Control_c, 9, 4, 22
2, 2636, Control_c, 9, 4, 45
2, 2644, Note_on_c, 9, 44, 80
2, 2666, Control_c, 9, 17, 127
2, 2666, Note_on_c, 9, 51, 60
2, 2669, Control_c, 9, 4, 120
2, 2725, Note_on_c, 9, 44, 0
2, 2727, Control_c, 9, 4, 91
2, 2748, Note_on_c, 9, 51, 0
2, 2766, Control_c, 9, 4, 87
2, 2779, Note_on_c, 9, 48, 63
2, 2790, Note_on_c, 9, 36, 64
2, 2860, Note_on_c, 9, 48, 0
2, 2873, Note_on_c, 9, 36, 0
2, 2886, Control_c, 9, 4, 108
2, 2903, Control_c, 9, 17, 59
2, 2903, Note_on_c, 9, 51, 61
2, 2959, Control_c, 9, 4, 102
2, 2986, Note_on_c, 9, 51, 0
2, 2997, Control_c, 9, 4, 90
2, 3034, Control_c, 9, 17, 127
2, 3034, Note_on_c, 9, 51, 67
2, 3035, Control_c, 9, 4, 73
2, 3071, Control_c, 9, 4, 0
2, 3116, Note_on_c, 9, 51, 0
2, 3121, Note_on_c, 9, 36, 50
2, 3123, Note_on_c, 9, 44, 119
2, 3128, Control_c, 9, 4, 127
2, 3172, Control_c, 9, 4, 120
2, 3203, Note_on_c, 9, 36, 0
2, 3203, Note_on_c, 9, 44, 0
2, 3210, Control_c, 9, 4, 91
2, 3353, Control_c, 9, 4, 97
2, 3354, Control_c, 9, 17, 77
2, 3354, Note_on_c, 9, 51, 82
2, 3372, Control_c, 9, 16, 0
2, 3372, Note_on_c, 9, 38, 54
2, 3375, Note_on_c, 9, 36, 65
2, 3436, Note_on_c, 9, 51, 0
2, 3454, Note_on_c, 9, 38, 0
2, 3458, Note_on_c, 9, 36, 0
2, 3477, Control_c, 9, 4, 91
2, 3525, Control_c, 9, 4, 69
2, 3557, Control_c, 9, 4, 0
2, 3602, Control_c, 9, 4, 51
2, 3606, Note_on_c, 9, 44, 113
2, 3615, Control_c, 9, 17, 127
2, 3615, Note_on_c, 9, 51, 73
2, 3632, Control_c, 9, 4, 127
2, 3688, Control_c, 9, 4, 92
2, 3688, Note_on_c, 9, 44, 0
2, 3697, Note_on_c, 9, 51, 0
2, 3730, Control_c, 9, 18, 0
2, 3731, Note_on_c, 9, 36, 62
2, 3731, Note_on_c, 9, 48, 60
2, 3812, Note_on_c, 9, 36, 0
2, 3812, Note_on_c, 9, 48, 0
2, 3851, Control_c, 9, 4, 110
2, 3854, Control_c, 9, 17, 67
2, 3855, Note_on_c, 9, 51, 60
2, 3935, Note_on_c, 9, 51, 0
2, 3941, Control_c, 9, 4, 102
2, 3974, Control_c, 9, 4, 90
2, 3981, Control_c, 9, 17, 127
2, 3981, Note_on_c, 9, 51, 72
2, 4007, Control_c, 9, 4, 73
2, 4049, Control_c, 9, 4, 0
2, 4063, Note_on_c, 9, 51, 0
2, 4087, Note_on_c, 9, 36, 52
2, 4092, Note_on_c, 9, 46, 62
2, 4094, Note_on_c, 9, 44, 100
2, 4100, Control_c, 9, 4, 127
2, 4103, Note_on_c, 9, 38, 54
2, 4142, Control_c, 9, 4, 118
2, 4170, Note_on_c, 9, 36, 0
2, 4174, Note_on_c, 9, 44, 0
2, 4174, Note_on_c, 9, 46, 0
2, 4181, Control_c, 9, 4, 90
2, 4184, Note_on_c, 9, 38, 0
2, 4222, Control_c, 9, 17, 26
2, 4223, Note_on_c, 9, 51, 67
2, 4304, Note_on_c, 9, 51, 0
2, 4328, Note_on_c, 9, 36, 80
2, 4333, Control_c, 9, 4, 110
2, 4335, Note_on_c, 9, 48, 61
2, 4406, Control_c, 9, 4, 96
2, 4410, Note_on_c, 9, 36, 0
2, 4416, Note_on_c, 9, 48, 0
2, 4446, Control_c, 9, 4, 85
2, 4494, Control_c, 9, 4, 54
2, 4524, Control_c, 9, 4, 0
2, 4560, Control_c, 9, 4, 50
2, 4562, Control_c, 9, 17, 53
2, 4562, Note_on_c, 9, 51, 89
2, 4565, Note_on_c, 9, 44, 93
2, 4568, Control_c, 9, 16, 0
2, 4569, Note_on_c, 9, 38, 52
2, 4591, Control_c, 9, 4, 120
2, 4645, Note_on_c, 9, 51, 0
2, 4646, Note_on_c, 9, 44, 0
2, 4649, Note_on_c, 9, 38, 0
2, 4659, Control_c, 9, 4, 91
2, 4705, Note_on_c, 9, 36, 43
2, 4787, Note_on_c, 9, 36, 0
2, 4807, Control_c, 9, 4, 112
2, 4815, Control_c, 9, 17, 9
2, 4816, Note_on_c, 9, 51, 83
2, 4817, Control_c, 9, 18, 0
2, 4818, Note_on_c, 9, 48, 63
2, 4859, Control_c, 9, 4, 104
2, 4897, Note_on_c, 9, 51, 0
2, 4899, Control_c, 9, 4, 92
2, 4899, Note_on_c, 9, 48, 0
2, 4932, Control_c, 9, 4, 86
2, 4962, Control_c, 9, 4, 70
2, 4998, Control_c, 9, 4, 23
2, 5032, Control_c, 9, 4, 48
2, 5039, Note_on_c, 9, 44, 74
2, 5043, Note_on_c, 9, 36, 48
2, 5064, Control_c, 9, 4, 120
2, 5081, Note_on_c, 9, 49, 5
2, 5121, Note_on_c, 9, 44, 0
2, 5123, Control_c, 9, 4, 90
2, 5126, Note_on_c, 9, 36, 0
2, 5160, Control_c, 9, 4, 86
2, 5163, Note_on_c, 9, 49, 0
2, 5269, Control_c, 9, 4, 98
2, 5295, Note_on_c, 9, 36, 59
2, 5300, Note_on_c, 9, 38, 80
2, 5302, Control_c, 9, 17, 9
2, 5302, Note_on_c, 9, 51, 85
2, 5377, Note_on_c, 9, 36, 0
2, 5381, Note_on_c, 9, 38, 0
2, 5384, Note_on_c, 9, 51, 0
2, 5399, Control_c, 9, 4, 85
2, 5438, Control_c, 9, 4, 71
2, 5478, Control_c, 9, 4, 25
2, 5513, Control_c, 9, 4, 48
2, 5521, Note_on_c, 9, 44, 61
2, 5523, Note_on_c, 9, 46, 53
2, 5547, Control_c, 9, 4, 120
2, 5548, Control_c, 9, 17, 127
2, 5549, Note_on_c, 9, 51, 56
2, 5603, Note_on_c, 9, 44, 0
2, 5603, Note_on_c, 9, 46, 0
2, 5606, Control_c, 9, 4, 91
2, 5630, Note_on_c, 9, 51, 0
2, 5644, Control_c, 9, 4, 87
2, 5666, Note_on_c, 9, 36, 42
2, 5666, Note_on_c, 9, 48, 71
2, 5748, Note_on_c, 9, 36, 0
2, 5748, Note_on_c, 9, 48, 0
2, 5767, Control_c, 9, 4, 98
2, 5792, Control_c, 9, 17, 98
2, 5793, Note_on_c, 9, 51, 65
2, 5876, Note_on_c, 9, 51, 0
2, 5899, Control_c, 9, 4, 85
2, 5908, Note_on_c, 9, 51, 5
2, 5921, Control_c, 9, 17, 127
2, 5922, Note_on_c, 9, 51, 0
2, 5923, Note_on_c, 9, 51, 77
2, 5935, Control_c, 9, 4, 70
2, 5970, Control_c, 9, 4, 23
2, 5990, Note_on_c, 9, 51, 0
2, 6001, Control_c, 9, 4, 47
2, 6009, Note_on_c, 9, 44, 67
2, 6010, Note_on_c, 9, 46, 54
2, 6013, Note_on_c, 9, 36, 52
2, 6034, Control_c, 9, 4, 120
2, 6090, Note_on_c, 9, 44, 0
2, 6091, Note_on_c, 9, 46, 0
2, 6093, Control_c, 9, 4, 92
2, 6095, Note_on_c, 9, 36, 0
2, 6123, Control_c, 9, 4, 87
2, 6241, Control_c, 9, 4, 98
2, 6247, Control_c, 9, 16, 0
2, 6247, Note_on_c, 9, 38, 60
2, 6254, Control_c, 9, 17, 11
2, 6254, Note_on_c, 9, 51, 81
2, 6267, Note_on_c, 9, 36, 57
2, 6330, Note_on_c, 9, 38, 0
2, 6335, Note_on_c, 9, 51, 0
2, 6348, Note_on_c, 9, 36, 0
2, 6368, Control_c, 9, 4, 85
2, 6407, Control_c, 9, 4, 70
2, 6442, Control_c, 9, 4, 22
2, 6480, Control_c, 9, 4, 43
2, 6488, Note_on_c, 9, 44, 74
2, 6499, Control_c, 9, 17, 127
2, 6499, Note_on_c, 9, 51, 60
2, 6514, Control_c, 9, 4, 120
2, 6571, Note_on_c, 9, 44, 0
2, 6572, Control_c, 9, 4, 91
2, 6581, Note_on_c, 9, 51, 0
2, 6602, Control_c, 9, 4, 86
2, 6615, Note_on_c, 9, 51, 4
2, 6617, Control_c, 9, 18, 0
2, 6618, Note_on_c, 9, 48, 61
2, 6627, Note_on_c, 9, 36, 44
2, 6697, Note_on_c, 9, 51, 0
2, 6700, Note_on_c, 9, 48, 0
2, 6711, Note_on_c, 9, 36, 0
2, 6721, Control_c, 9, 4, 100
2, 6742, Control_c, 9, 17, 127
2, 6743, Note_on_c, 9, 51, 65
2, 6813, Control_c, 9, 4, 95
2, 6825, Note_on_c, 9, 51, 0
2, 6859, Control_c, 9, 4, 83
2, 6859, Note_on_c, 9, 51, 5
2, 6870, Control_c, 9, 17, 127
2, 6871, Note_on_c, 9, 51, 0
2, 6871, Note_on_c, 9, 51, 72
2, 6902, Control_c, 9, 4, 53
2, 6934, Control_c, 9, 4, 0
2, 6942, Note_on_c, 9, 51, 0
2, 6966, Control_c, 9, 4, 48
2, 6972, Note_on_c, 9, 44, 87
2, 6978, Note_on_c, 9, 36, 42
2, 6997, Control_c, 9, 4, 118
2, 7039, Control_c, 9, 4, 97
2, 7054, Note_on_c, 9, 44, 0
2, 7059, Note_on_c, 9, 36, 0
2, 7079, Control_c, 9, 4, 87
2, 7203, Control_c, 9, 4, 98
2, 7216, Control_c, 9, 17, 58
2, 7217, Note_on_c, 9, 51, 83
2, 7219, Control_c, 9, 16, 21
2, 7219, Note_on_c, 9, 38, 65
2, 7221, Note_on_c, 9, 36, 54
2, 7292, Control_c, 9, 4, 93
2, 7298, Note_on_c, 9, 51, 0
2, 7301, Note_on_c, 9, 38, 0
2, 7303, Note_on_c, 9, 36, 0
2, 7336, Control_c, 9, 4, 82
2, 7382, Control_c, 9, 4, 52
2, 7412, Control_c, 9, 4, 9
2, 7443, Control_c, 9, 4, 57
2, 7448, Note_on_c, 9, 44, 80
2, 7461, Control_c, 9, 17, 127
2, 7461, Note_on_c, 9, 51, 72
2, 7473, Control_c, 9, 4, 120
2, 7515, Control_c, 9, 4, 98
2, 7529, Note_on_c, 9, 44, 0
2, 7543, Note_on_c, 9, 51, 0
2, 7557, Control_c, 9, 4, 85
2, 7577, Note_on_c, 9, 51, 5
2, 7584, Note_on_c, 9, 48, 61
2, 7589, Note_on_c, 9, 36, 48
2, 7659, Note_on_c, 9, 51, 0
2, 7665, Note_on_c, 9, 48, 0
2, 7670, Note_on_c, 9, 36, 0
2, 7678, Control_c, 9, 4, 98
2, 7679, End_track
0, 0, End_of_file
