0, 0, Header, 1, 2, 480
1, 0, Start_track
1, 0, Tempo, 600000
1, 0, Time_signature, 4, 2, 24, 8
1, 0, Key_signature, 0, "major"
1, 1, End_track
2, 0, Start_track
2, 0, Title_t, "Midi Drums"
2, 0, Program_c, 9, 0
2, 234, Note_on_c, 9, 45, 74
2, 315, Note_on_c, 9, 45, 0
2, 349, Note_on_c, 9, 45, 56
2, 430, Note_on_c, 9, 45, 0
2, 463, Note_on_c, 9, 45, 109
2, 466, Note_on_c, 9, 36, 127
2, 474, Note_on_c, 9, 38, 127
2, 543, Note_on_c, 9, 45, 0
2, 547, Note_on_c, 9, 36, 0
2, 555, Note_on_c, 9, 38, 0
2, 708, Note_on_c, 9, 45, 70
2, 789, Note_on_c, 9, 45, 0
2, 812, Note_on_c, 9, 45, 61
2, 893, Note_on_c, 9, 45, 0
2, 938, Note_on_c, 9, 45, 69
2, 953, Note_on_c, 9, 36, 127
2, 1019, Note_on_c, 9, 45, 0
2, 1034, Note_on_c, 9, 36, 0
2, 1189, Note_on_c, 9, 45, 127
2, 1198, Note_on_c, 9, 38, 127
2, 1270, Note_on_c, 9, 45, 0
2, 1279, Note_on_c, 9, 38, 0
2, 1441, Note_on_c, 9, 36, 127
2, 1447, Note_on_c, 9, 45, 127
2, 1449, Note_on_c, 9, 38, 127
2, 1522, Note_on_c, 9, 36, 0
2, 1527, Note_on_c, 9, 45, 0
2, 1530, Note_on_c, 9, 38, 0
2, 1680, Note_on_c, 9, 45, 80
2, 1761, Note_on_c, 9, 45, 0
2, 1782, Note_on_c, 9, 45, 74
2, 1863, Note_on_c, 9, 45, 0
2, 1899, Note_on_c, 9, 36, 127
2, 1917, Note_on_c, 9, 45, 116
2, 1980, Note_on_c, 9, 36, 0
2, 1998, Note_on_c, 9, 45, 0
2, 2148, Note_on_c, 9, 45, 71
2, 2229, Note_on_c, 9, 45, 0
2, 2264, Note_on_c, 9, 45, 67
2, 2344, Note_on_c, 9, 45, 0
2, 2389, Note_on_c, 9, 36, 127
2, 2389, Note_on_c, 9, 45, 127
2, 2396, Note_on_c, 9, 38, 127
2, 2470, Note_on_c, 9, 36, 0
2, 2470, Note_on_c, 9, 45, 0
2, 2476, Note_on_c, 9, 38, 0
2, 2637, Note_on_c, 9, 45, 71
2, 2718, Note_on_c, 9, 45, 0
2, 2749, Note_on_c, 9, 45, 50
2, 2830, Note_on_c, 9, 45, 0
2, 2865, Note_on_c, 9, 45, 107
2, 2867, Note_on_c, 9, 36, 127
2, 2946, Note_on_c, 9, 45, 0
2, 2948, Note_on_c, 9, 36, 0
2, 3103, Note_on_c, 9, 45, 67
2, 3183, Note_on_c, 9, 45, 0
2, 3215, Note_on_c, 9, 45, 58
2, 3295, Note_on_c, 9, 45, 0
2, 3342, Note_on_c, 9, 45, 127
2, 3346, Note_on_c, 9, 36, 127
2, 3352, Note_on_c, 9, 38, 127
2, 3423, Note_on_c, 9, 45, 0
2, 3427, Note_on_c, 9, 36, 0
2, 3432, Note_on_c, 9, 38, 0
2, 3587, Note_on_c, 9, 45, 68
2, 3668, Note_on_c, 9, 45, 0
2, 3702, Note_on_c, 9, 45, 62
2, 3783, Note_on_c, 9, 45, 0
2, 3815, Note_on_c, 9, 45, 97
2, 3826, Note_on_c, 9, 36, 127
2, 3895, Note_on_c, 9, 45, 0
2, 3907, Note_on_c, 9, 36, 0
2, 4060, Note_on_c, 9, 45, 69
2, 4140, Note_on_c, 9, 45, 0
2, 4175, Note_on_c, 9, 45, 68
2, 4255, Note_on_c, 9, 45, 0
2, 4293, Note_on_c, 9, 45, 127
2, 4298, Note_on_c, 9, 38, 127
2, 4310, Note_on_c, 9, 36, 127
2, 4374, Note_on_c, 9, 45, 0
2, 4379, Note_on_c, 9, 38, 0
2, 4391, Note_on_c, 9, 36, 0
2, 4530, Note_on_c, 9, 45, 70
2, 4611, Note_on_c, 9, 45, 0
2, 4659, Note_on_c, 9, 45, 68
2, 4739, Note_on_c, 9, 45, 0
2, 4774, Note_on_c, 9, 45, 121
2, 4776, Note_on_c, 9, 36, 127
2, 4854, Note_on_c, 9, 45, 0
2, 4856, Note_on_c, 9, 36, 0
2, 4890, Note_on_c, 9, 38, 127
2, 4971, Note_on_c, 9, 38, 0
2, 5022, Note_on_c, 9, 45, 75
2, 5103, Note_on_c, 9, 45, 0
2, 5239, Note_on_c, 9, 36, 127
2, 5254, Note_on_c, 9, 45, 127
2, 5257, Note_on_c, 9, 38, 127
2, 5319, Note_on_c, 9, 36, 0
2, 5335, Note_on_c, 9, 45, 0
2, 5338, Note_on_c, 9, 38, 0
2, 5485, Note_on_c, 9, 45, 77
2, 5566, Note_on_c, 9, 45, 0
2, 5613, Note_on_c, 9, 45, 67
2, 5694, Note_on_c, 9, 45, 0
2, 5722, Note_on_c, 9, 36, 127
2, 5728, Note_on_c, 9, 45, 111
2, 5802, Note_on_c, 9, 36, 0
2, 5809, Note_on_c, 9, 45, 0
2, 5982, Note_on_c, 9, 45, 58
2, 6063, Note_on_c, 9, 45, 0
2, 6086, Note_on_c, 9, 45, 57
2, 6166, Note_on_c, 9, 45, 0
2, 6210, Note_on_c, 9, 36, 127
2, 6219, Note_on_c, 9, 45, 127
2, 6222, Note_on_c, 9, 38, 127
2, 6291, Note_on_c, 9, 36, 0
2, 6300, Note_on_c, 9, 45, 0
2, 6302, Note_on_c, 9, 38, 0
2, 6468, Note_on_c, 9, 45, 62
2, 6549, Note_on_c, 9, 45, 0
2, 6573, Note_on_c, 9, 45, 61
2, 6654, Note_on_c, 9, 45, 0
2, 6691, Note_on_c, 9, 36, 127
2, 6695, Note_on_c, 9, 45, 108
2, 6771, Note_on_c, 9, 36, 0
2, 6776, Note_on_c, 9, 45, 0
2, 6953, Note_on_c, 9, 45, 58
2, 7035, Note_on_c, 9, 45, 0
2, 7053, Note_on_c, 9, 45, 54
2, 7134, Note_on_c, 9, 45, 0
2, 7189, Note_on_c, 9, 36, 127
2, 7189, Note_on_c, 9, 45, 122
2, 7192, Note_on_c, 9, 38, 127
2, 7270, Note_on_c, 9, 36, 0
2, 7270, Note_on_c, 9, 45, 0
2, 7272, Note_on_c, 9, 38, 0
2, 7434, Note_on_c, 9, 45, 58
2, 7514, Note_on_c, 9, 45, 0
2, 7538, Note_on_c, 9, 45, 53
2, 7618, Note_on_c, 9, 45, 0
2, 7619, End_track
0, 0, End_of_file
