0, 0, Header, 1, 2, 480
1, 0, Start_track
1, 0, Tempo, 588235
1, 0, Time_signature, 4, 2, 24, 8
1, 0, Key_signature, 0, "major"
1, 1, End_track
2, 0, Start_track
2, 0, Title_t, "Classic Studio Kit"
2, 0, Program_c, 9, 0
2, 0, Control_c, 9, 16, 0
2, 29, Note_on_c, 9, 48, 81
2, 110, Note_on_c, 9, 48, 0
2, 274, Control_c, 9, 18, 0
2, 275, Note_on_c, 9, 45, 72
2, 356, Note_on_c, 9, 45, 0
2, 515, Note_on_c, 9, 38, 53
2, 596, Note_on_c, 9, 38, 0
2, 623, Note_on_c, 9, 48, 62
2, 704, Note_on_c, 9, 48, 0
2, 746, Control_c, 9, 16, 0
2, 746, Note_on_c, 9, 38, 30
2, 827, Note_on_c, 9, 38, 0
2, 862, Note_on_c, 9, 38, 31
2, 943, Note_on_c, 9, 38, 0
2, 988, Control_c, 9, 18, 0
2, 989, Note_on_c, 9, 48, 75
2, 1070, Note_on_c, 9, 48, 0
2, 1230, Note_on_c, 9, 45, 77
2, 1311, Note_on_c, 9, 45, 0
2, 1467, Control_c, 9, 16, 0
2, 1468, Note_on_c, 9, 38, 54
2, 1549, Note_on_c, 9, 38, 0
2, 1713, Note_on_c, 9, 38, 51
2, 1793, Note_on_c, 9, 38, 0
2, 1833, Control_c, 9, 18, 0
2, 1834, Note_on_c, 9, 48, 60
2, 1915, Note_on_c, 9, 48, 0
2, 1951, Control_c, 9, 16, 0
2, 1952, Note_on_c, 9, 38, 52
2, 2032, Note_on_c, 9, 38, 0
2, 2198, Note_on_c, 9, 38, 65
2, 2212, Note_on_c, 9, 45, 73
2, 2279, Note_on_c, 9, 38, 0
2, 2294, Note_on_c, 9, 45, 0
2, 2435, Control_c, 9, 16, 0
2, 2436, Note_on_c, 9, 38, 51
2, 2516, Note_on_c, 9, 38, 0
2, 2668, Control_c, 9, 18, 0
2, 2668, Note_on_c, 9, 45, 69
2, 2668, Note_on_c, 9, 48, 66
2, 2750, Note_on_c, 9, 45, 0
2, 2750, Note_on_c, 9, 48, 0
2, 2906, Note_on_c, 9, 38, 43
2, 2986, Note_on_c, 9, 38, 0
2, 3149, Control_c, 9, 16, 0
2, 3149, Note_on_c, 9, 38, 62
2, 3153, Note_on_c, 9, 45, 63
2, 3230, Note_on_c, 9, 38, 0
2, 3233, Note_on_c, 9, 45, 0
2, 3388, Note_on_c, 9, 36, 75
2, 3390, Control_c, 9, 17, 0
2, 3390, Note_on_c, 9, 51, 91
2, 3393, Note_on_c, 9, 38, 67
2, 3413, Control_c, 9, 4, 96
2, 3469, Note_on_c, 9, 36, 0
2, 3472, Note_on_c, 9, 51, 0
2, 3473, Note_on_c, 9, 38, 0
2, 3503, Control_c, 9, 4, 84
2, 3535, Control_c, 9, 4, 69
2, 3566, Control_c, 9, 4, 0
2, 3616, Control_c, 9, 4, 33
2, 3623, Note_on_c, 9, 44, 113
2, 3628, Control_c, 9, 17, 126
2, 3629, Note_on_c, 9, 51, 66
2, 3648, Control_c, 9, 4, 126
2, 3690, Control_c, 9, 4, 108
2, 3705, Note_on_c, 9, 44, 0
2, 3710, Note_on_c, 9, 51, 0
2, 3722, Control_c, 9, 4, 92
2, 3751, Note_on_c, 9, 36, 59
2, 3753, Control_c, 9, 18, 0
2, 3754, Note_on_c, 9, 48, 62
2, 3832, Note_on_c, 9, 36, 0
2, 3834, Note_on_c, 9, 48, 0
2, 3869, Control_c, 9, 17, 19
2, 3869, Note_on_c, 9, 51, 61
2, 3878, Control_c, 9, 4, 110
2, 3952, Note_on_c, 9, 51, 0
2, 3996, Control_c, 9, 4, 90
2, 4006, Control_c, 9, 17, 127
2, 4006, Note_on_c, 9, 51, 69
2, 4031, Control_c, 9, 4, 70
2, 4064, Control_c, 9, 4, 0
2, 4089, Note_on_c, 9, 51, 0
2, 4107, Control_c, 9, 4, 33
2, 4113, Note_on_c, 9, 44, 119
2, 4115, Note_on_c, 9, 36, 58
2, 4138, Control_c, 9, 4, 127
2, 4155, Note_on_c, 9, 49, 6
2, 4180, Control_c, 9, 4, 102
2, 4183, Control_c, 9, 17, 127
2, 4183, Note_on_c, 9, 51, 5
2, 4195, Note_on_c, 9, 44, 0
2, 4197, Note_on_c, 9, 36, 0
2, 4218, Control_c, 9, 4, 89
2, 4236, Note_on_c, 9, 49, 0
2, 4265, Note_on_c, 9, 51, 0
2, 4353, Control_c, 9, 17, 12
2, 4353, Note_on_c, 9, 51, 94
2, 4359, Control_c, 9, 4, 99
2, 4359, Note_on_c, 9, 36, 81
2, 4361, Control_c, 9, 16, 0
2, 4361, Note_on_c, 9, 38, 55
2, 4435, Note_on_c, 9, 51, 0
2, 4441, Note_on_c, 9, 36, 0
2, 4443, Note_on_c, 9, 38, 0
2, 4464, Control_c, 9, 4, 93
2, 4510, Control_c, 9, 4, 70
2, 4550, Control_c, 9, 4, 0
2, 4594, Note_on_c, 9, 46, 62
2, 4595, Note_on_c, 9, 44, 100
2, 4597, Control_c, 9, 17, 110
2, 4598, Note_on_c, 9, 51, 64
2, 4602, Control_c, 9, 4, 127
2, 4644, Control_c, 9, 4, 120
2, 4676, Note_on_c, 9, 44, 0
2, 4676, Note_on_c, 9, 46, 0
2, 4679, Control_c, 9, 4, 91
2, 4679, Note_on_c, 9, 51, 0
2, 4723, Note_on_c, 9, 36, 61
2, 4723, Note_on_c, 9, 48, 61
2, 4804, Note_on_c, 9, 36, 0
2, 4804, Note_on_c, 9, 48, 0
2, 4818, Control_c, 9, 4, 99
2, 4848, Control_c, 9, 17, 44
2, 4849, Note_on_c, 9, 51, 58
2, 4930, Note_on_c, 9, 51, 0
2, 4958, Control_c, 9, 4, 94
2, 4974, Control_c, 9, 17, 127
2, 4975, Note_on_c, 9, 51, 53
2, 4990, Control_c, 9, 4, 81
2, 5032, Control_c, 9, 4, 39
2, 5056, Note_on_c, 9, 51, 0
2, 5069, Control_c, 9, 4, 53
2, 5072, Note_on_c, 9, 38, 63
2, 5076, Note_on_c, 9, 44, 67
2, 5084, Note_on_c, 9, 36, 61
2, 5101, Control_c, 9, 4, 122
2, 5154, Note_on_c, 9, 38, 0
2, 5157, Note_on_c, 9, 44, 0
2, 5160, Control_c, 9, 4, 91
2, 5166, Note_on_c, 9, 36, 0
2, 5191, Control_c, 9, 4, 87
2, 5303, Control_c, 9, 4, 98
2, 5317, Control_c, 9, 17, 0
2, 5317, Note_on_c, 9, 51, 100
2, 5318, Note_on_c, 9, 36, 71
2, 5319, Control_c, 9, 16, 0
2, 5319, Note_on_c, 9, 38, 65
2, 5399, Note_on_c, 9, 36, 0
2, 5399, Note_on_c, 9, 51, 0
2, 5401, Note_on_c, 9, 38, 0
2, 5438, Control_c, 9, 4, 83
2, 5472, Control_c, 9, 4, 68
2, 5504, Control_c, 9, 4, 0
2, 5542, Control_c, 9, 4, 32
2, 5549, Note_on_c, 9, 44, 106
2, 5556, Control_c, 9, 17, 127
2, 5556, Note_on_c, 9, 51, 49
2, 5574, Control_c, 9, 4, 127
2, 5615, Control_c, 9, 4, 104
2, 5630, Note_on_c, 9, 44, 0
2, 5638, Note_on_c, 9, 51, 0
2, 5646, Control_c, 9, 4, 88
2, 5678, Control_c, 9, 18, 0
2, 5679, Note_on_c, 9, 48, 60
2, 5688, Note_on_c, 9, 36, 55
2, 5761, Note_on_c, 9, 48, 0
2, 5771, Note_on_c, 9, 36, 0
2, 5776, Control_c, 9, 4, 104
2, 5796, Control_c, 9, 17, 56
2, 5796, Note_on_c, 9, 51, 60
2, 5867, Control_c, 9, 4, 98
2, 5877, Note_on_c, 9, 51, 0
2, 5917, Control_c, 9, 4, 85
2, 5919, Control_c, 9, 17, 105
2, 5919, Note_on_c, 9, 51, 71
2, 5950, Control_c, 9, 4, 70
2, 5982, Control_c, 9, 4, 22
2, 6001, Note_on_c, 9, 51, 0
2, 6017, Control_c, 9, 4, 61
2, 6021, Note_on_c, 9, 44, 74
2, 6029, Note_on_c, 9, 36, 54
2, 6037, Note_on_c, 9, 38, 54
2, 6047, Control_c, 9, 4, 122
2, 6103, Control_c, 9, 4, 91
2, 6103, Note_on_c, 9, 44, 0
2, 6111, Note_on_c, 9, 36, 0
2, 6118, Note_on_c, 9, 38, 0
2, 6137, Control_c, 9, 4, 87
2, 6167, Control_c, 9, 17, 26
2, 6167, Note_on_c, 9, 51, 75
2, 6246, Control_c, 9, 4, 102
2, 6249, Note_on_c, 9, 51, 0
2, 6267, Note_on_c, 9, 36, 71
2, 6284, Note_on_c, 9, 48, 64
2, 6340, Control_c, 9, 4, 97
2, 6347, Note_on_c, 9, 36, 0
2, 6364, Note_on_c, 9, 48, 0
2, 6389, Control_c, 9, 4, 85
2, 6423, Control_c, 9, 4, 70
2, 6456, Control_c, 9, 4, 22
2, 6492, Control_c, 9, 17, 45
2, 6493, Note_on_c, 9, 51, 87
2, 6496, Control_c, 9, 4, 42
2, 6502, Control_c, 9, 16, 0
2, 6503, Note_on_c, 9, 38, 59
2, 6505, Note_on_c, 9, 44, 87
2, 6528, Control_c, 9, 4, 120
2, 6575, Note_on_c, 9, 51, 0
2, 6584, Note_on_c, 9, 38, 0
2, 6585, Note_on_c, 9, 44, 0
2, 6588, Control_c, 9, 4, 91
2, 6644, Note_on_c, 9, 36, 41
2, 6725, Note_on_c, 9, 36, 0
2, 6747, Control_c, 9, 17, 46
2, 6747, Note_on_c, 9, 51, 83
2, 6754, Control_c, 9, 4, 106
2, 6830, Note_on_c, 9, 51, 0
2, 6831, Control_c, 9, 4, 96
2, 6868, Control_c, 9, 16, 21
2, 6869, Note_on_c, 9, 38, 54
2, 6872, Control_c, 9, 4, 83
2, 6915, Control_c, 9, 4, 52
2, 6947, Control_c, 9, 4, 0
2, 6949, Note_on_c, 9, 38, 0
2, 6974, Control_c, 9, 17, 62
2, 6975, Note_on_c, 9, 51, 67
2, 6979, Note_on_c, 9, 44, 87
2, 6983, Note_on_c, 9, 36, 57
2, 6988, Control_c, 9, 4, 127
2, 7029, Control_c, 9, 4, 120
2, 7056, Note_on_c, 9, 51, 0
2, 7060, Note_on_c, 9, 44, 0
2, 7065, Note_on_c, 9, 36, 0
2, 7067, Control_c, 9, 4, 90
2, 7098, Control_c, 9, 4, 85
2, 7146, Control_c, 9, 4, 89
2, 7220, Control_c, 9, 4, 100
2, 7226, Note_on_c, 9, 36, 72
2, 7229, Control_c, 9, 17, 32
2, 7229, Note_on_c, 9, 51, 83
2, 7230, Control_c, 9, 16, 0
2, 7231, Note_on_c, 9, 38, 63
2, 7308, Note_on_c, 9, 36, 0
2, 7310, Note_on_c, 9, 51, 0
2, 7312, Note_on_c, 9, 38, 0
2, 7331, Control_c, 9, 4, 89
2, 7363, Control_c, 9, 4, 74
2, 7405, Control_c, 9, 4, 19
2, 7443, Control_c, 9, 4, 59
2, 7448, Note_on_c, 9, 44, 80
2, 7464, Control_c, 9, 17, 127
2, 7464, Note_on_c, 9, 51, 66
2, 7473, Control_c, 9, 4, 122
2, 7530, Note_on_c, 9, 44, 0
2, 7533, Control_c, 9, 4, 91
2, 7546, Note_on_c, 9, 51, 0
2, 7566, Control_c, 9, 4, 86
2, 7584, Control_c, 9, 18, 0
2, 7584, Note_on_c, 9, 48, 67
2, 7590, Note_on_c, 9, 36, 61
2, 7665, Note_on_c, 9, 48, 0
2, 7671, Control_c, 9, 4, 102
2, 7672, Note_on_c, 9, 36, 0
2, 7673, End_track
0, 0, End_of_file
