0, 0, Header, 1, 2, 480
1, 0, Start_track
1, 0, Tempo, 588235
1, 0, Time_signature, 4, 2, 24, 8
1, 0, Key_signature, 0, "major"
1, 1, End_track
2, 0, Start_track
2, 0, Title_t, "Classic Studio Kit"
2, 0, Program_c, 9, 0
2, 0, Control_c, 9, 17, 127
2, 4, Control_c, 9, 4, 120
2, 72, Control_c, 9, 4, 98
2, 116, Control_c, 9, 4, 72
2, 140, Control_c, 9, 17, 80
2, 140, Note_on_c, 9, 51, 68
2, 155, Control_c, 9, 4, 0
2, 222, Note_on_c, 9, 51, 0
2, 227, Note_on_c, 9, 36, 65
2, 227, Note_on_c, 9, 46, 12
2, 233, Control_c, 9, 4, 35
2, 238, Note_on_c, 9, 44, 127
2, 264, Control_c, 9, 4, 126
2, 308, Note_on_c, 9, 36, 0
2, 308, Note_on_c, 9, 46, 0
2, 314, Control_c, 9, 4, 110
2, 321, Note_on_c, 9, 44, 0
2, 352, Control_c, 9, 17, 29
2, 352, Note_on_c, 9, 51, 77
2, 354, Control_c, 9, 4, 76
2, 391, Control_c, 9, 4, 0
2, 434, Note_on_c, 9, 51, 0
2, 467, Note_on_c, 9, 46, 7
2, 471, Note_on_c, 9, 36, 81
2, 480, Note_on_c, 9, 44, 127
2, 481, Control_c, 9, 16, 0
2, 481, Note_on_c, 9, 38, 74
2, 488, Control_c, 9, 4, 127
2, 521, Control_c, 9, 4, 102
2, 549, Note_on_c, 9, 46, 0
2, 552, Note_on_c, 9, 36, 0
2, 555, Control_c, 9, 4, 92
2, 561, Note_on_c, 9, 44, 0
2, 563, Note_on_c, 9, 38, 0
2, 600, Control_c, 9, 4, 81
2, 699, Control_c, 9, 4, 114
2, 714, Control_c, 9, 17, 94
2, 714, Note_on_c, 9, 51, 86
2, 787, Control_c, 9, 4, 91
2, 795, Note_on_c, 9, 51, 0
2, 823, Control_c, 9, 4, 71
2, 831, Control_c, 9, 18, 0
2, 831, Note_on_c, 9, 48, 47
2, 833, Note_on_c, 9, 36, 57
2, 861, Control_c, 9, 4, 0
2, 915, Note_on_c, 9, 36, 0
2, 915, Note_on_c, 9, 48, 0
2, 931, Note_on_c, 9, 46, 9
2, 942, Note_on_c, 9, 44, 127
2, 947, Control_c, 9, 4, 127
2, 952, Note_on_c, 9, 48, 80
2, 958, Control_c, 9, 17, 127
2, 959, Note_on_c, 9, 51, 65
2, 992, Control_c, 9, 4, 114
2, 1012, Note_on_c, 9, 46, 0
2, 1024, Note_on_c, 9, 44, 0
2, 1034, Note_on_c, 9, 48, 0
2, 1035, Control_c, 9, 4, 90
2, 1039, Note_on_c, 9, 51, 0
2, 1072, Control_c, 9, 17, 57
2, 1072, Note_on_c, 9, 51, 65
2, 1154, Note_on_c, 9, 51, 0
2, 1155, Control_c, 9, 4, 108
2, 1178, Note_on_c, 9, 36, 68
2, 1188, Control_c, 9, 17, 57
2, 1189, Note_on_c, 9, 51, 5
2, 1209, Control_c, 9, 4, 95
2, 1261, Note_on_c, 9, 36, 0
2, 1269, Note_on_c, 9, 51, 0
2, 1367, Control_c, 9, 4, 91
2, 1418, Note_on_c, 9, 36, 76
2, 1429, Control_c, 9, 17, 45
2, 1430, Note_on_c, 9, 51, 89
2, 1433, Note_on_c, 9, 38, 102
2, 1443, Control_c, 9, 4, 97
2, 1500, Note_on_c, 9, 36, 0
2, 1512, Note_on_c, 9, 51, 0
2, 1513, Note_on_c, 9, 38, 0
2, 1516, Control_c, 9, 4, 90
2, 1547, Control_c, 9, 4, 73
2, 1593, Control_c, 9, 4, 0
2, 1667, Note_on_c, 9, 44, 127
2, 1673, Control_c, 9, 4, 127
2, 1677, Control_c, 9, 17, 85
2, 1678, Note_on_c, 9, 51, 80
2, 1717, Control_c, 9, 4, 118
2, 1749, Note_on_c, 9, 44, 0
2, 1756, Control_c, 9, 4, 91
2, 1760, Note_on_c, 9, 51, 0
2, 1781, Control_c, 9, 18, 0
2, 1782, Note_on_c, 9, 48, 49
2, 1789, Control_c, 9, 4, 85
2, 1801, Note_on_c, 9, 36, 51
2, 1863, Note_on_c, 9, 48, 0
2, 1882, Note_on_c, 9, 36, 0
2, 1904, Control_c, 9, 4, 112
2, 1908, Note_on_c, 9, 48, 76
2, 1912, Control_c, 9, 17, 127
2, 1913, Note_on_c, 9, 51, 59
2, 1937, Control_c, 9, 4, 116
2, 1976, Control_c, 9, 4, 110
2, 1989, Note_on_c, 9, 48, 0
2, 1993, Note_on_c, 9, 51, 0
2, 2007, Control_c, 9, 4, 93
2, 2025, Control_c, 9, 17, 86
2, 2025, Note_on_c, 9, 51, 67
2, 2052, Control_c, 9, 4, 70
2, 2084, Control_c, 9, 4, 0
2, 2107, Note_on_c, 9, 51, 0
2, 2151, Note_on_c, 9, 36, 71
2, 2155, Control_c, 9, 4, 34
2, 2159, Note_on_c, 9, 44, 127
2, 2185, Control_c, 9, 4, 127
2, 2201, Note_on_c, 9, 49, 5
2, 2234, Note_on_c, 9, 36, 0
2, 2235, Control_c, 9, 4, 98
2, 2241, Note_on_c, 9, 44, 0
2, 2247, Control_c, 9, 17, 42
2, 2247, Note_on_c, 9, 51, 59
2, 2272, Control_c, 9, 4, 69
2, 2284, Note_on_c, 9, 49, 0
2, 2304, Control_c, 9, 4, 0
2, 2329, Note_on_c, 9, 51, 0
2, 2379, Note_on_c, 9, 46, 9
2, 2383, Control_c, 9, 16, 0
2, 2384, Note_on_c, 9, 38, 77
2, 2386, Control_c, 9, 4, 33
2, 2391, Note_on_c, 9, 44, 127
2, 2396, Note_on_c, 9, 36, 82
2, 2417, Control_c, 9, 4, 116
2, 2455, Control_c, 9, 4, 100
2, 2460, Note_on_c, 9, 46, 0
2, 2465, Note_on_c, 9, 38, 0
2, 2474, Note_on_c, 9, 44, 0
2, 2478, Note_on_c, 9, 36, 0
2, 2494, Control_c, 9, 4, 83
2, 2616, Control_c, 9, 17, 112
2, 2617, Note_on_c, 9, 51, 90
2, 2622, Control_c, 9, 4, 120
2, 2695, Control_c, 9, 4, 90
2, 2699, Note_on_c, 9, 51, 0
2, 2727, Control_c, 9, 4, 73
2, 2733, Control_c, 9, 17, 112
2, 2733, Note_on_c, 9, 51, 6
2, 2741, Control_c, 9, 18, 0
2, 2741, Note_on_c, 9, 48, 48
2, 2748, Note_on_c, 9, 36, 53
2, 2769, Control_c, 9, 4, 0
2, 2815, Note_on_c, 9, 51, 0
2, 2823, Note_on_c, 9, 48, 0
2, 2830, Note_on_c, 9, 36, 0
2, 2840, Note_on_c, 9, 46, 11
2, 2851, Note_on_c, 9, 44, 127
2, 2857, Control_c, 9, 4, 127
2, 2864, Note_on_c, 9, 48, 86
2, 2864, Note_on_c, 9, 59, 41
2, 2902, Control_c, 9, 4, 120
2, 2922, Note_on_c, 9, 46, 0
2, 2933, Note_on_c, 9, 44, 0
2, 2943, Control_c, 9, 4, 92
2, 2945, Note_on_c, 9, 48, 0
2, 2945, Note_on_c, 9, 59, 0
2, 2979, Control_c, 9, 17, 127
2, 2980, Note_on_c, 9, 51, 65
2, 3061, Note_on_c, 9, 51, 0
2, 3066, Control_c, 9, 4, 110
2, 3085, Note_on_c, 9, 36, 64
2, 3094, Control_c, 9, 17, 127
2, 3094, Note_on_c, 9, 51, 6
2, 3117, Control_c, 9, 4, 95
2, 3166, Note_on_c, 9, 36, 0
2, 3176, Note_on_c, 9, 51, 0
2, 3282, Control_c, 9, 4, 91
2, 3334, Note_on_c, 9, 36, 74
2, 3337, Note_on_c, 9, 38, 121
2, 3338, Control_c, 9, 17, 81
2, 3338, Note_on_c, 9, 51, 76
2, 3365, Control_c, 9, 4, 102
2, 3415, Note_on_c, 9, 36, 0
2, 3418, Note_on_c, 9, 38, 0
2, 3418, Note_on_c, 9, 51, 0
2, 3432, Control_c, 9, 4, 91
2, 3475, Control_c, 9, 4, 69
2, 3507, Control_c, 9, 4, 0
2, 3580, Note_on_c, 9, 44, 127
2, 3586, Control_c, 9, 4, 127
2, 3591, Control_c, 9, 17, 91
2, 3591, Note_on_c, 9, 51, 83
2, 3630, Control_c, 9, 4, 114
2, 3662, Note_on_c, 9, 44, 0
2, 3672, Control_c, 9, 4, 91
2, 3673, Note_on_c, 9, 51, 0
2, 3702, Control_c, 9, 18, 0
2, 3702, Note_on_c, 9, 48, 47
2, 3718, Note_on_c, 9, 36, 59
2, 3784, Note_on_c, 9, 48, 0
2, 3801, Note_on_c, 9, 36, 0
2, 3819, Control_c, 9, 4, 120
2, 3822, Note_on_c, 9, 48, 73
2, 3823, Control_c, 9, 17, 0
2, 3824, Note_on_c, 9, 51, 53
2, 3879, Control_c, 9, 4, 112
2, 3904, Note_on_c, 9, 48, 0
2, 3904, Note_on_c, 9, 51, 0
2, 3911, Control_c, 9, 4, 91
2, 3943, Control_c, 9, 4, 73
2, 3945, Control_c, 9, 17, 82
2, 3946, Note_on_c, 9, 51, 72
2, 3985, Control_c, 9, 4, 0
2, 4027, Note_on_c, 9, 51, 0
2, 4051, Note_on_c, 9, 46, 13
2, 4058, Control_c, 9, 4, 35
2, 4061, Note_on_c, 9, 36, 74
2, 4062, Note_on_c, 9, 44, 127
2, 4088, Control_c, 9, 4, 127
2, 4132, Note_on_c, 9, 46, 0
2, 4139, Control_c, 9, 4, 102
2, 4142, Note_on_c, 9, 36, 0
2, 4144, Note_on_c, 9, 44, 0
2, 4178, Control_c, 9, 4, 71
2, 4184, Control_c, 9, 17, 44
2, 4184, Note_on_c, 9, 51, 80
2, 4214, Control_c, 9, 4, 0
2, 4267, Note_on_c, 9, 51, 0
2, 4302, Note_on_c, 9, 36, 86
2, 4307, Note_on_c, 9, 44, 126
2, 4316, Control_c, 9, 16, 0
2, 4316, Note_on_c, 9, 38, 79
2, 4318, Control_c, 9, 4, 127
2, 4356, Control_c, 9, 4, 104
2, 4384, Note_on_c, 9, 36, 0
2, 4389, Control_c, 9, 4, 91
2, 4389, Note_on_c, 9, 44, 0
2, 4397, Note_on_c, 9, 38, 0
2, 4428, Control_c, 9, 4, 78
2, 4518, Control_c, 9, 4, 99
2, 4547, Control_c, 9, 17, 85
2, 4548, Note_on_c, 9, 51, 85
2, 4560, Control_c, 9, 4, 120
2, 4610, Control_c, 9, 4, 90
2, 4629, Note_on_c, 9, 51, 0
2, 4640, Control_c, 9, 4, 71
2, 4663, Note_on_c, 9, 36, 68
2, 4672, Control_c, 9, 18, 0
2, 4672, Note_on_c, 9, 48, 46
2, 4678, Control_c, 9, 4, 0
2, 4745, Note_on_c, 9, 36, 0
2, 4754, Note_on_c, 9, 46, 13
2, 4755, Note_on_c, 9, 48, 0
2, 4760, Control_c, 9, 4, 35
2, 4765, Note_on_c, 9, 44, 127
2, 4790, Control_c, 9, 4, 127
2, 4794, Note_on_c, 9, 48, 82
2, 4796, Note_on_c, 9, 59, 35
2, 4830, Control_c, 9, 4, 108
2, 4835, Note_on_c, 9, 46, 0
2, 4847, Note_on_c, 9, 44, 0
2, 4866, Control_c, 9, 4, 92
2, 4875, Note_on_c, 9, 48, 0
2, 4879, Note_on_c, 9, 59, 0
2, 4918, Control_c, 9, 17, 59
2, 4918, Note_on_c, 9, 51, 65
2, 4987, Control_c, 9, 4, 104
2, 4999, Note_on_c, 9, 51, 0
2, 5016, Note_on_c, 9, 36, 64
2, 5020, Control_c, 9, 4, 98
2, 5069, Control_c, 9, 4, 94
2, 5099, Note_on_c, 9, 36, 0
2, 5266, Control_c, 9, 17, 44
2, 5266, Note_on_c, 9, 51, 81
2, 5270, Note_on_c, 9, 36, 76
2, 5273, Note_on_c, 9, 38, 83
2, 5294, Control_c, 9, 4, 100
2, 5348, Note_on_c, 9, 51, 0
2, 5352, Note_on_c, 9, 36, 0
2, 5353, Note_on_c, 9, 38, 0
2, 5366, Control_c, 9, 4, 86
2, 5397, Control_c, 9, 4, 70
2, 5432, Control_c, 9, 4, 0
2, 5499, Note_on_c, 9, 46, 12
2, 5512, Note_on_c, 9, 44, 127
2, 5518, Control_c, 9, 4, 127
2, 5522, Control_c, 9, 17, 104
2, 5523, Note_on_c, 9, 51, 81
2, 5561, Control_c, 9, 4, 112
2, 5581, Note_on_c, 9, 46, 0
2, 5593, Note_on_c, 9, 44, 0
2, 5600, Control_c, 9, 4, 93
2, 5604, Note_on_c, 9, 51, 0
2, 5636, Control_c, 9, 18, 0
2, 5636, Note_on_c, 9, 48, 50
2, 5646, Note_on_c, 9, 36, 67
2, 5707, Control_c, 9, 4, 89
2, 5717, Note_on_c, 9, 48, 0
2, 5728, Note_on_c, 9, 36, 0
2, 5757, Note_on_c, 9, 48, 71
2, 5761, Control_c, 9, 17, 0
2, 5762, Note_on_c, 9, 51, 64
2, 5765, Control_c, 9, 4, 118
2, 5836, Control_c, 9, 4, 112
2, 5839, Note_on_c, 9, 48, 0
2, 5843, Note_on_c, 9, 51, 0
2, 5868, Control_c, 9, 4, 91
2, 5883, Control_c, 9, 17, 115
2, 5884, Note_on_c, 9, 51, 68
2, 5903, Control_c, 9, 4, 71
2, 5939, Control_c, 9, 4, 0
2, 5965, Note_on_c, 9, 51, 0
2, 5994, Note_on_c, 9, 36, 68
2, 5998, Control_c, 9, 17, 115
2, 5998, Note_on_c, 9, 51, 5
2, 6005, Note_on_c, 9, 46, 13
2, 6009, Control_c, 9, 4, 17
2, 6014, Note_on_c, 9, 44, 127
2, 6040, Control_c, 9, 4, 127
2, 6056, Note_on_c, 9, 49, 7
2, 6076, Note_on_c, 9, 36, 0
2, 6079, Control_c, 9, 4, 112
2, 6080, Note_on_c, 9, 51, 0
2, 6085, Note_on_c, 9, 46, 0
2, 6096, Note_on_c, 9, 44, 0
2, 6110, Control_c, 9, 4, 72
2, 6112, Control_c, 9, 17, 31
2, 6113, Note_on_c, 9, 51, 62
2, 6138, Note_on_c, 9, 49, 0
2, 6146, Control_c, 9, 4, 0
2, 6194, Note_on_c, 9, 51, 0
2, 6232, Control_c, 9, 4, 34
2, 6239, Note_on_c, 9, 44, 126
2, 6240, Note_on_c, 9, 36, 84
2, 6242, Control_c, 9, 16, 0
2, 6243, Note_on_c, 9, 38, 76
2, 6264, Control_c, 9, 4, 120
2, 6304, Control_c, 9, 4, 99
2, 6320, Note_on_c, 9, 44, 0
2, 6321, Note_on_c, 9, 36, 0
2, 6324, Note_on_c, 9, 38, 0
2, 6342, Control_c, 9, 4, 83
2, 6470, Control_c, 9, 4, 120
2, 6480, Control_c, 9, 17, 83
2, 6481, Note_on_c, 9, 51, 88
2, 6549, Control_c, 9, 4, 92
2, 6562, Note_on_c, 9, 51, 0
2, 6582, Control_c, 9, 4, 70
2, 6597, Control_c, 9, 18, 0
2, 6598, Note_on_c, 9, 48, 45
2, 6601, Note_on_c, 9, 36, 59
2, 6618, Control_c, 9, 4, 0
2, 6679, Note_on_c, 9, 48, 0
2, 6683, Note_on_c, 9, 36, 0
2, 6693, Note_on_c, 9, 46, 11
2, 6699, Control_c, 9, 4, 36
2, 6704, Note_on_c, 9, 44, 127
2, 6718, Control_c, 9, 17, 0
2, 6718, Note_on_c, 9, 51, 55
2, 6723, Note_on_c, 9, 48, 81
2, 6730, Control_c, 9, 4, 127
2, 6768, Control_c, 9, 4, 110
2, 6774, Note_on_c, 9, 46, 0
2, 6785, Note_on_c, 9, 44, 0
2, 6800, Control_c, 9, 4, 92
2, 6800, Note_on_c, 9, 51, 0
2, 6804, Note_on_c, 9, 48, 0
2, 6844, Control_c, 9, 17, 62
2, 6845, Note_on_c, 9, 51, 73
2, 6919, Control_c, 9, 4, 108
2, 6926, Note_on_c, 9, 51, 0
2, 6949, Note_on_c, 9, 36, 64
2, 6959, Control_c, 9, 17, 62
2, 6960, Note_on_c, 9, 51, 6
2, 6963, Control_c, 9, 4, 98
2, 6998, Control_c, 9, 4, 94
2, 7030, Note_on_c, 9, 36, 0
2, 7041, Note_on_c, 9, 51, 0
2, 7196, Note_on_c, 9, 38, 105
2, 7197, Control_c, 9, 17, 47
2, 7198, Note_on_c, 9, 36, 76
2, 7198, Note_on_c, 9, 51, 82
2, 7213, Control_c, 9, 4, 102
2, 7268, Control_c, 9, 4, 96
2, 7277, Note_on_c, 9, 38, 0
2, 7278, Note_on_c, 9, 36, 0
2, 7278, Note_on_c, 9, 51, 0
2, 7313, Control_c, 9, 4, 73
2, 7356, Control_c, 9, 4, 0
2, 7421, Note_on_c, 9, 46, 11
2, 7428, Control_c, 9, 4, 34
2, 7434, Note_on_c, 9, 44, 127
2, 7443, Control_c, 9, 17, 85
2, 7443, Note_on_c, 9, 51, 79
2, 7460, Control_c, 9, 4, 127
2, 7504, Control_c, 9, 4, 102
2, 7504, Note_on_c, 9, 46, 0
2, 7516, Note_on_c, 9, 44, 0
2, 7526, Note_on_c, 9, 51, 0
2, 7539, Control_c, 9, 4, 89
2, 7557, Control_c, 9, 18, 0
2, 7558, Note_on_c, 9, 48, 49
2, 7564, Note_on_c, 9, 36, 58
2, 7640, Note_on_c, 9, 48, 0
2, 7647, Note_on_c, 9, 36, 0
2, 7673, Control_c, 9, 4, 106
2, 7674, End_track
0, 0, End_of_file
