0, 0, Header, 1, 2, 480
1, 0, Start_track
1, 0, Tempo, 588235
1, 0, Time_signature, 4, 2, 24, 8
1, 0, Key_signature, 0, "major"
1, 1, End_track
2, 0, Start_track
2, 0, Title_t, "Classic Studio Kit"
2, 0, Program_c, 9, 0
2, 0, Control_c, 9, 17, 41
2, 5, Control_c, 9, 4, 99
2, 22, Note_on_c, 9, 48, 68
2, 104, Note_on_c, 9, 48, 0
2, 108, Control_c, 9, 17, 20
2, 109, Note_on_c, 9, 51, 78
2, 131, Control_c, 9, 4, 86
2, 164, Control_c, 9, 4, 70
2, 191, Note_on_c, 9, 51, 0
2, 202, Control_c, 9, 4, 0
2, 246, Control_c, 9, 4, 48
2, 251, Note_on_c, 9, 44, 113
2, 254, Note_on_c, 9, 36, 49
2, 277, Control_c, 9, 4, 126
2, 294, Note_on_c, 9, 49, 6
2, 323, Control_c, 9, 4, 94
2, 333, Note_on_c, 9, 44, 0
2, 335, Note_on_c, 9, 36, 0
2, 358, Control_c, 9, 4, 84
2, 375, Note_on_c, 9, 49, 0
2, 473, Control_c, 9, 4, 97
2, 490, Note_on_c, 9, 36, 65
2, 494, Control_c, 9, 17, 5
2, 495, Note_on_c, 9, 51, 94
2, 499, Control_c, 9, 16, 0
2, 500, Note_on_c, 9, 38, 71
2, 573, Note_on_c, 9, 36, 0
2, 575, Note_on_c, 9, 51, 0
2, 581, Note_on_c, 9, 38, 0
2, 596, Control_c, 9, 4, 85
2, 632, Control_c, 9, 4, 71
2, 677, Control_c, 9, 4, 0
2, 725, Control_c, 9, 4, 49
2, 730, Note_on_c, 9, 44, 113
2, 737, Control_c, 9, 17, 37
2, 738, Note_on_c, 9, 51, 80
2, 755, Control_c, 9, 4, 120
2, 797, Control_c, 9, 4, 97
2, 811, Note_on_c, 9, 44, 0
2, 818, Note_on_c, 9, 51, 0
2, 837, Control_c, 9, 4, 85
2, 853, Control_c, 9, 18, 0
2, 854, Note_on_c, 9, 48, 49
2, 859, Note_on_c, 9, 36, 61
2, 935, Note_on_c, 9, 48, 0
2, 941, Note_on_c, 9, 36, 0
2, 966, Control_c, 9, 4, 108
2, 972, Control_c, 9, 18, 0
2, 973, Note_on_c, 9, 48, 72
2, 984, Control_c, 9, 17, 72
2, 984, Note_on_c, 9, 51, 51
2, 1020, Control_c, 9, 4, 102
2, 1054, Note_on_c, 9, 48, 0
2, 1061, Control_c, 9, 4, 90
2, 1066, Note_on_c, 9, 51, 0
2, 1103, Control_c, 9, 4, 72
2, 1111, Control_c, 9, 17, 38
2, 1111, Note_on_c, 9, 51, 82
2, 1145, Control_c, 9, 4, 0
2, 1193, Note_on_c, 9, 51, 0
2, 1198, Control_c, 9, 4, 32
2, 1205, Note_on_c, 9, 44, 119
2, 1209, Note_on_c, 9, 36, 50
2, 1231, Control_c, 9, 4, 118
2, 1281, Control_c, 9, 4, 91
2, 1288, Note_on_c, 9, 44, 0
2, 1291, Note_on_c, 9, 36, 0
2, 1321, Control_c, 9, 4, 87
2, 1431, Control_c, 9, 4, 92
2, 1459, Control_c, 9, 17, 6
2, 1459, Note_on_c, 9, 36, 64
2, 1459, Note_on_c, 9, 51, 88
2, 1467, Note_on_c, 9, 38, 65
2, 1542, Note_on_c, 9, 36, 0
2, 1542, Note_on_c, 9, 51, 0
2, 1548, Note_on_c, 9, 38, 0
2, 1568, Control_c, 9, 4, 85
2, 1605, Control_c, 9, 4, 71
2, 1645, Control_c, 9, 4, 0
2, 1699, Control_c, 9, 4, 48
2, 1701, Control_c, 9, 17, 72
2, 1702, Note_on_c, 9, 51, 81
2, 1704, Note_on_c, 9, 44, 113
2, 1729, Control_c, 9, 4, 120
2, 1770, Control_c, 9, 4, 96
2, 1784, Note_on_c, 9, 51, 0
2, 1785, Note_on_c, 9, 44, 0
2, 1808, Control_c, 9, 4, 84
2, 1816, Control_c, 9, 18, 21
2, 1816, Note_on_c, 9, 48, 45
2, 1839, Note_on_c, 9, 36, 46
2, 1898, Note_on_c, 9, 48, 0
2, 1921, Note_on_c, 9, 36, 0
2, 1922, Control_c, 9, 4, 99
2, 1944, Control_c, 9, 18, 0
2, 1944, Note_on_c, 9, 48, 63
2, 1952, Control_c, 9, 17, 75
2, 1953, Note_on_c, 9, 51, 54
2, 2018, Control_c, 9, 4, 94
2, 2025, Note_on_c, 9, 48, 0
2, 2034, Note_on_c, 9, 51, 0
2, 2065, Control_c, 9, 4, 83
2, 2078, Control_c, 9, 17, 92
2, 2078, Note_on_c, 9, 51, 69
2, 2111, Control_c, 9, 4, 54
2, 2146, Control_c, 9, 4, 0
2, 2160, Note_on_c, 9, 51, 0
2, 2181, Control_c, 9, 4, 49
2, 2186, Note_on_c, 9, 44, 93
2, 2194, Note_on_c, 9, 36, 54
2, 2211, Control_c, 9, 4, 120
2, 2248, Control_c, 9, 4, 97
2, 2268, Note_on_c, 9, 44, 0
2, 2276, Note_on_c, 9, 36, 0
2, 2285, Control_c, 9, 4, 84
2, 2410, Control_c, 9, 4, 95
2, 2428, Control_c, 9, 17, 27
2, 2429, Note_on_c, 9, 51, 87
2, 2438, Note_on_c, 9, 36, 58
2, 2444, Control_c, 9, 16, 0
2, 2444, Note_on_c, 9, 38, 69
2, 2510, Note_on_c, 9, 51, 0
2, 2521, Note_on_c, 9, 36, 0
2, 2526, Note_on_c, 9, 38, 0
2, 2549, Control_c, 9, 4, 83
2, 2585, Control_c, 9, 4, 70
2, 2629, Control_c, 9, 4, 0
2, 2672, Control_c, 9, 4, 48
2, 2677, Note_on_c, 9, 44, 93
2, 2682, Control_c, 9, 17, 65
2, 2682, Note_on_c, 9, 51, 75
2, 2702, Control_c, 9, 4, 120
2, 2739, Control_c, 9, 4, 100
2, 2758, Note_on_c, 9, 44, 0
2, 2763, Note_on_c, 9, 51, 0
2, 2778, Control_c, 9, 4, 85
2, 2799, Note_on_c, 9, 48, 46
2, 2809, Note_on_c, 9, 36, 51
2, 2881, Note_on_c, 9, 48, 0
2, 2891, Note_on_c, 9, 36, 0
2, 2898, Control_c, 9, 4, 97
2, 2925, Control_c, 9, 18, 0
2, 2926, Note_on_c, 9, 48, 67
2, 2929, Control_c, 9, 17, 65
2, 2930, Note_on_c, 9, 51, 53
2, 3007, Note_on_c, 9, 48, 0
2, 3011, Note_on_c, 9, 51, 0
2, 3027, Control_c, 9, 4, 84
2, 3055, Control_c, 9, 17, 77
2, 3055, Note_on_c, 9, 51, 77
2, 3060, Control_c, 9, 4, 70
2, 3105, Control_c, 9, 4, 0
2, 3137, Note_on_c, 9, 51, 0
2, 3150, Control_c, 9, 4, 33
2, 3156, Note_on_c, 9, 44, 106
2, 3158, Note_on_c, 9, 36, 51
2, 3182, Control_c, 9, 4, 120
2, 3219, Control_c, 9, 4, 97
2, 3239, Note_on_c, 9, 44, 0
2, 3240, Note_on_c, 9, 36, 0
2, 3257, Control_c, 9, 4, 84
2, 3300, Control_c, 9, 17, 31
2, 3301, Note_on_c, 9, 51, 90
2, 3382, Note_on_c, 9, 51, 0
2, 3383, Control_c, 9, 4, 94
2, 3405, Note_on_c, 9, 36, 60
2, 3422, Note_on_c, 9, 38, 62
2, 3488, Note_on_c, 9, 36, 0
2, 3503, Note_on_c, 9, 38, 0
2, 3508, Control_c, 9, 4, 83
2, 3546, Control_c, 9, 4, 70
2, 3590, Control_c, 9, 4, 0
2, 3635, Control_c, 9, 4, 48
2, 3639, Note_on_c, 9, 44, 106
2, 3641, Control_c, 9, 17, 49
2, 3641, Note_on_c, 9, 51, 85
2, 3665, Control_c, 9, 4, 120
2, 3706, Control_c, 9, 4, 95
2, 3721, Note_on_c, 9, 44, 0
2, 3723, Note_on_c, 9, 51, 0
2, 3740, Control_c, 9, 4, 83
2, 3763, Note_on_c, 9, 36, 50
2, 3763, Note_on_c, 9, 48, 43
2, 3845, Note_on_c, 9, 36, 0
2, 3845, Note_on_c, 9, 48, 0
2, 3864, Control_c, 9, 4, 98
2, 3882, Control_c, 9, 18, 0
2, 3883, Note_on_c, 9, 48, 68
2, 3886, Control_c, 9, 17, 63
2, 3887, Note_on_c, 9, 51, 57
2, 3959, Control_c, 9, 4, 94
2, 3964, Note_on_c, 9, 48, 0
2, 3968, Note_on_c, 9, 51, 0
2, 4006, Control_c, 9, 4, 83
2, 4012, Control_c, 9, 17, 122
2, 4013, Note_on_c, 9, 51, 66
2, 4050, Control_c, 9, 4, 54
2, 4081, Control_c, 9, 4, 0
2, 4095, Note_on_c, 9, 51, 0
2, 4122, Control_c, 9, 4, 49
2, 4127, Note_on_c, 9, 44, 100
2, 4129, Note_on_c, 9, 36, 54
2, 4152, Control_c, 9, 4, 114
2, 4185, Control_c, 9, 4, 98
2, 4208, Note_on_c, 9, 44, 0
2, 4211, Note_on_c, 9, 36, 0
2, 4225, Control_c, 9, 4, 85
2, 4333, Control_c, 9, 4, 90
2, 4372, Control_c, 9, 17, 36
2, 4372, Note_on_c, 9, 51, 90
2, 4380, Control_c, 9, 16, 0
2, 4380, Note_on_c, 9, 38, 53
2, 4382, Note_on_c, 9, 36, 57
2, 4456, Note_on_c, 9, 51, 0
2, 4462, Note_on_c, 9, 38, 0
2, 4465, Note_on_c, 9, 36, 0
2, 4476, Control_c, 9, 4, 83
2, 4513, Control_c, 9, 4, 70
2, 4550, Control_c, 9, 4, 0
2, 4601, Control_c, 9, 4, 33
2, 4608, Note_on_c, 9, 44, 113
2, 4611, Control_c, 9, 17, 44
2, 4611, Note_on_c, 9, 51, 72
2, 4634, Control_c, 9, 4, 118
2, 4671, Control_c, 9, 4, 97
2, 4690, Note_on_c, 9, 44, 0
2, 4692, Note_on_c, 9, 51, 0
2, 4712, Control_c, 9, 4, 84
2, 4726, Note_on_c, 9, 48, 46
2, 4746, Note_on_c, 9, 36, 42
2, 4807, Note_on_c, 9, 48, 0
2, 4829, Control_c, 9, 4, 98
2, 4829, Note_on_c, 9, 36, 0
2, 4849, Control_c, 9, 18, 0
2, 4850, Note_on_c, 9, 48, 62
2, 4861, Control_c, 9, 17, 119
2, 4861, Note_on_c, 9, 51, 54
2, 4931, Note_on_c, 9, 48, 0
2, 4941, Control_c, 9, 4, 88
2, 4943, Note_on_c, 9, 51, 0
2, 4981, Control_c, 9, 4, 73
2, 4988, Control_c, 9, 17, 95
2, 4988, Note_on_c, 9, 51, 67
2, 5028, Control_c, 9, 4, 0
2, 5069, Note_on_c, 9, 51, 0
2, 5075, Control_c, 9, 4, 33
2, 5081, Note_on_c, 9, 44, 113
2, 5085, Note_on_c, 9, 36, 57
2, 5101, Control_c, 9, 17, 95
2, 5102, Note_on_c, 9, 51, 5
2, 5106, Control_c, 9, 4, 116
2, 5141, Control_c, 9, 4, 98
2, 5162, Note_on_c, 9, 44, 0
2, 5165, Note_on_c, 9, 36, 0
2, 5179, Control_c, 9, 4, 85
2, 5183, Note_on_c, 9, 51, 0
2, 5222, Control_c, 9, 17, 22
2, 5223, Note_on_c, 9, 51, 89
2, 5293, Control_c, 9, 4, 90
2, 5304, Note_on_c, 9, 51, 0
2, 5339, Note_on_c, 9, 36, 61
2, 5342, Note_on_c, 9, 38, 63
2, 5421, Note_on_c, 9, 36, 0
2, 5423, Note_on_c, 9, 38, 0
2, 5440, Control_c, 9, 4, 83
2, 5478, Control_c, 9, 4, 70
2, 5520, Control_c, 9, 4, 0
2, 5568, Control_c, 9, 4, 32
2, 5573, Control_c, 9, 17, 46
2, 5574, Note_on_c, 9, 51, 69
2, 5576, Note_on_c, 9, 44, 113
2, 5600, Control_c, 9, 4, 120
2, 5639, Control_c, 9, 4, 96
2, 5655, Note_on_c, 9, 51, 0
2, 5657, Note_on_c, 9, 44, 0
2, 5672, Control_c, 9, 4, 83
2, 5704, Note_on_c, 9, 36, 50
2, 5714, Note_on_c, 9, 48, 41
2, 5785, Note_on_c, 9, 36, 0
2, 5795, Note_on_c, 9, 48, 0
2, 5797, Control_c, 9, 4, 97
2, 5830, Control_c, 9, 18, 0
2, 5831, Note_on_c, 9, 48, 59
2, 5836, Control_c, 9, 17, 48
2, 5836, Note_on_c, 9, 51, 78
2, 5891, Control_c, 9, 4, 92
2, 5912, Note_on_c, 9, 48, 0
2, 5918, Note_on_c, 9, 51, 0
2, 5945, Control_c, 9, 4, 79
2, 5971, Control_c, 9, 17, 121
2, 5971, Note_on_c, 9, 51, 72
2, 5978, Control_c, 9, 4, 55
2, 6012, Control_c, 9, 4, 0
2, 6047, Control_c, 9, 4, 49
2, 6051, Note_on_c, 9, 44, 87
2, 6053, Note_on_c, 9, 51, 0
2, 6061, Note_on_c, 9, 36, 46
2, 6077, Control_c, 9, 4, 114
2, 6119, Control_c, 9, 4, 93
2, 6133, Note_on_c, 9, 44, 0
2, 6143, Note_on_c, 9, 36, 0
2, 6159, Control_c, 9, 4, 84
2, 6255, Control_c, 9, 4, 89
2, 6307, Control_c, 9, 17, 37
2, 6308, Note_on_c, 9, 51, 95
2, 6309, Note_on_c, 9, 36, 53
2, 6314, Control_c, 9, 16, 0
2, 6315, Note_on_c, 9, 38, 63
2, 6324, Control_c, 9, 4, 93
2, 6381, Control_c, 9, 4, 87
2, 6389, Note_on_c, 9, 36, 0
2, 6389, Note_on_c, 9, 51, 0
2, 6396, Note_on_c, 9, 38, 0
2, 6420, Control_c, 9, 4, 72
2, 6464, Control_c, 9, 4, 0
2, 6514, Control_c, 9, 4, 49
2, 6520, Note_on_c, 9, 44, 100
2, 6535, Control_c, 9, 17, 42
2, 6536, Note_on_c, 9, 51, 76
2, 6545, Control_c, 9, 4, 116
2, 6587, Control_c, 9, 4, 93
2, 6601, Note_on_c, 9, 44, 0
2, 6618, Note_on_c, 9, 51, 0
2, 6622, Control_c, 9, 4, 83
2, 6649, Note_on_c, 9, 48, 49
2, 6657, Note_on_c, 9, 36, 43
2, 6730, Note_on_c, 9, 48, 0
2, 6738, Control_c, 9, 4, 97
2, 6739, Note_on_c, 9, 36, 0
2, 6770, Control_c, 9, 18, 0
2, 6770, Note_on_c, 9, 48, 68
2, 6771, Control_c, 9, 17, 86
2, 6772, Note_on_c, 9, 51, 63
2, 6851, Note_on_c, 9, 48, 0
2, 6853, Note_on_c, 9, 51, 0
2, 6865, Control_c, 9, 4, 84
2, 6897, Control_c, 9, 4, 70
2, 6899, Control_c, 9, 17, 96
2, 6900, Note_on_c, 9, 51, 69
2, 6943, Control_c, 9, 4, 0
2, 6982, Note_on_c, 9, 51, 0
2, 6986, Control_c, 9, 4, 49
2, 6991, Note_on_c, 9, 46, 61
2, 6992, Note_on_c, 9, 44, 100
2, 6997, Note_on_c, 9, 36, 50
2, 7016, Control_c, 9, 4, 118
2, 7050, Control_c, 9, 4, 97
2, 7072, Note_on_c, 9, 46, 0
2, 7073, Note_on_c, 9, 44, 0
2, 7079, Note_on_c, 9, 36, 0
2, 7089, Control_c, 9, 4, 85
2, 7116, Control_c, 9, 17, 40
2, 7117, Note_on_c, 9, 51, 86
2, 7199, Note_on_c, 9, 51, 0
2, 7221, Control_c, 9, 4, 94
2, 7237, Note_on_c, 9, 38, 56
2, 7252, Note_on_c, 9, 36, 58
2, 7318, Note_on_c, 9, 38, 0
2, 7334, Note_on_c, 9, 36, 0
2, 7337, Control_c, 9, 4, 84
2, 7370, Control_c, 9, 4, 70
2, 7410, Control_c, 9, 4, 0
2, 7465, Control_c, 9, 4, 49
2, 7470, Note_on_c, 9, 44, 113
2, 7471, Control_c, 9, 17, 55
2, 7472, Note_on_c, 9, 51, 77
2, 7495, Control_c, 9, 4, 116
2, 7537, Control_c, 9, 4, 93
2, 7551, Note_on_c, 9, 44, 0
2, 7553, Note_on_c, 9, 51, 0
2, 7575, Control_c, 9, 4, 84
2, 7591, Note_on_c, 9, 48, 44
2, 7599, Note_on_c, 9, 36, 48
2, 7672, Note_on_c, 9, 48, 0
2, 7680, Note_on_c, 9, 36, 0
2, 7681, End_track
0, 0, End_of_file
