0, 0, Header, 1, 2, 480
1, 0, Start_track
1, 0, Tempo, 588235
1, 0, Time_signature, 4, 2, 24, 8
1, 0, Key_signature, 0, "major"
1, 1, End_track
2, 0, Start_track
2, 0, Title_t, "Classic Studio Kit"
2, 0, Program_c, 9, 0
2, 0, Control_c, 9, 18, 0
2, 9, Control_c, 9, 4, 100
2, 44, Note_on_c, 9, 48, 67
2, 45, Control_c, 9, 17, 127
2, 45, Note_on_c, 9, 51, 63
2, 104, Control_c, 9, 4, 95
2, 126, Note_on_c, 9, 48, 0
2, 126, Note_on_c, 9, 51, 0
2, 144, Control_c, 9, 4, 83
2, 167, Control_c, 9, 17, 127
2, 167, Note_on_c, 9, 51, 55
2, 177, Control_c, 9, 4, 70
2, 214, Control_c, 9, 4, 0
2, 250, Note_on_c, 9, 51, 0
2, 261, Control_c, 9, 4, 33
2, 265, Note_on_c, 9, 36, 50
2, 267, Note_on_c, 9, 44, 113
2, 293, Control_c, 9, 4, 116
2, 347, Note_on_c, 9, 36, 0
2, 349, Note_on_c, 9, 44, 0
2, 354, Control_c, 9, 4, 90
2, 389, Control_c, 9, 4, 86
2, 501, Control_c, 9, 4, 95
2, 513, Control_c, 9, 17, 75
2, 513, Note_on_c, 9, 36, 67
2, 513, Note_on_c, 9, 51, 81
2, 519, Control_c, 9, 16, 0
2, 520, Note_on_c, 9, 38, 69
2, 595, Note_on_c, 9, 36, 0
2, 595, Note_on_c, 9, 51, 0
2, 600, Note_on_c, 9, 38, 0
2, 618, Control_c, 9, 4, 83
2, 655, Control_c, 9, 4, 70
2, 692, Control_c, 9, 4, 0
2, 751, Control_c, 9, 4, 33
2, 756, Note_on_c, 9, 44, 126
2, 759, Control_c, 9, 17, 120
2, 759, Note_on_c, 9, 51, 76
2, 782, Control_c, 9, 4, 114
2, 826, Control_c, 9, 4, 99
2, 838, Note_on_c, 9, 44, 0
2, 841, Note_on_c, 9, 51, 0
2, 870, Control_c, 9, 4, 87
2, 877, Control_c, 9, 18, 0
2, 877, Note_on_c, 9, 48, 46
2, 880, Note_on_c, 9, 36, 45
2, 959, Note_on_c, 9, 48, 0
2, 962, Note_on_c, 9, 36, 0
2, 1000, Control_c, 9, 17, 0
2, 1001, Control_c, 9, 4, 116
2, 1001, Note_on_c, 9, 51, 57
2, 1003, Note_on_c, 9, 48, 63
2, 1068, Control_c, 9, 4, 90
2, 1082, Note_on_c, 9, 51, 0
2, 1086, Note_on_c, 9, 48, 0
2, 1101, Control_c, 9, 4, 73
2, 1120, Control_c, 9, 17, 127
2, 1121, Note_on_c, 9, 51, 59
2, 1150, Control_c, 9, 4, 0
2, 1201, Note_on_c, 9, 51, 0
2, 1219, Note_on_c, 9, 46, 8
2, 1222, Note_on_c, 9, 36, 68
2, 1226, Control_c, 9, 4, 33
2, 1232, Note_on_c, 9, 44, 127
2, 1257, Control_c, 9, 4, 122
2, 1294, Control_c, 9, 4, 108
2, 1300, Note_on_c, 9, 46, 0
2, 1304, Note_on_c, 9, 36, 0
2, 1313, Note_on_c, 9, 44, 0
2, 1332, Control_c, 9, 4, 71
2, 1347, Control_c, 9, 17, 127
2, 1348, Note_on_c, 9, 51, 43
2, 1370, Control_c, 9, 4, 0
2, 1429, Note_on_c, 9, 51, 0
2, 1452, Control_c, 9, 4, 33
2, 1459, Note_on_c, 9, 44, 119
2, 1464, Note_on_c, 9, 36, 82
2, 1471, Control_c, 9, 17, 108
2, 1472, Note_on_c, 9, 51, 77
2, 1473, Note_on_c, 9, 38, 82
2, 1484, Control_c, 9, 4, 108
2, 1526, Control_c, 9, 4, 98
2, 1540, Note_on_c, 9, 44, 0
2, 1547, Note_on_c, 9, 36, 0
2, 1553, Note_on_c, 9, 51, 0
2, 1554, Note_on_c, 9, 38, 0
2, 1561, Control_c, 9, 4, 83
2, 1606, Control_c, 9, 4, 79
2, 1662, Control_c, 9, 4, 80
2, 1707, Control_c, 9, 4, 120
2, 1716, Control_c, 9, 17, 0
2, 1716, Note_on_c, 9, 51, 70
2, 1761, Control_c, 9, 4, 98
2, 1792, Control_c, 9, 4, 83
2, 1797, Note_on_c, 9, 51, 0
2, 1823, Control_c, 9, 4, 69
2, 1827, Note_on_c, 9, 36, 55
2, 1829, Control_c, 9, 18, 0
2, 1829, Note_on_c, 9, 48, 49
2, 1857, Control_c, 9, 4, 0
2, 1908, Note_on_c, 9, 36, 0
2, 1911, Note_on_c, 9, 48, 0
2, 1929, Control_c, 9, 4, 51
2, 1933, Note_on_c, 9, 44, 127
2, 1959, Note_on_c, 9, 48, 67
2, 1960, Control_c, 9, 4, 127
2, 1960, Note_on_c, 9, 59, 35
2, 2008, Control_c, 9, 4, 104
2, 2014, Note_on_c, 9, 44, 0
2, 2041, Control_c, 9, 4, 92
2, 2041, Note_on_c, 9, 48, 0
2, 2043, Note_on_c, 9, 59, 0
2, 2085, Control_c, 9, 17, 82
2, 2086, Note_on_c, 9, 51, 68
2, 2167, Control_c, 9, 4, 110
2, 2168, Note_on_c, 9, 51, 0
2, 2189, Note_on_c, 9, 36, 72
2, 2200, Control_c, 9, 17, 82
2, 2200, Note_on_c, 9, 51, 5
2, 2204, Control_c, 9, 4, 104
2, 2246, Control_c, 9, 4, 92
2, 2271, Note_on_c, 9, 36, 0
2, 2281, Note_on_c, 9, 51, 0
2, 2333, Control_c, 9, 17, 127
2, 2333, Note_on_c, 9, 51, 44
2, 2414, Note_on_c, 9, 51, 0
2, 2427, Note_on_c, 9, 36, 65
2, 2448, Control_c, 9, 16, 0
2, 2449, Note_on_c, 9, 38, 82
2, 2453, Control_c, 9, 17, 91
2, 2453, Note_on_c, 9, 51, 80
2, 2469, Control_c, 9, 4, 97
2, 2510, Note_on_c, 9, 36, 0
2, 2531, Note_on_c, 9, 38, 0
2, 2535, Note_on_c, 9, 51, 0
2, 2547, Control_c, 9, 4, 83
2, 2578, Control_c, 9, 4, 70
2, 2618, Control_c, 9, 4, 0
2, 2668, Control_c, 9, 4, 50
2, 2673, Note_on_c, 9, 44, 106
2, 2682, Control_c, 9, 17, 127
2, 2682, Note_on_c, 9, 51, 77
2, 2699, Control_c, 9, 4, 122
2, 2741, Control_c, 9, 4, 96
2, 2755, Note_on_c, 9, 44, 0
2, 2765, Note_on_c, 9, 51, 0
2, 2778, Control_c, 9, 4, 84
2, 2800, Control_c, 9, 18, 0
2, 2800, Note_on_c, 9, 48, 46
2, 2806, Note_on_c, 9, 36, 46
2, 2882, Note_on_c, 9, 48, 0
2, 2889, Note_on_c, 9, 36, 0
2, 2906, Control_c, 9, 4, 112
2, 2926, Note_on_c, 9, 48, 68
2, 2929, Note_on_c, 9, 59, 42
2, 2983, Control_c, 9, 4, 102
2, 3008, Note_on_c, 9, 48, 0
2, 3012, Note_on_c, 9, 59, 0
2, 3016, Control_c, 9, 4, 88
2, 3048, Control_c, 9, 4, 72
2, 3060, Control_c, 9, 17, 126
2, 3061, Note_on_c, 9, 51, 72
2, 3088, Control_c, 9, 4, 0
2, 3141, Note_on_c, 9, 51, 0
2, 3154, Note_on_c, 9, 36, 65
2, 3155, Control_c, 9, 4, 36
2, 3160, Note_on_c, 9, 44, 127
2, 3186, Control_c, 9, 4, 127
2, 3235, Control_c, 9, 4, 98
2, 3236, Note_on_c, 9, 36, 0
2, 3243, Note_on_c, 9, 44, 0
2, 3273, Control_c, 9, 4, 71
2, 3311, Control_c, 9, 17, 0
2, 3311, Note_on_c, 9, 51, 48
2, 3315, Control_c, 9, 4, 0
2, 3384, Note_on_c, 9, 46, 11
2, 3392, Control_c, 9, 4, 32
2, 3392, Note_on_c, 9, 51, 0
2, 3395, Note_on_c, 9, 36, 86
2, 3398, Note_on_c, 9, 44, 127
2, 3401, Note_on_c, 9, 38, 62
2, 3423, Control_c, 9, 4, 108
2, 3466, Note_on_c, 9, 46, 0
2, 3472, Control_c, 9, 4, 96
2, 3477, Note_on_c, 9, 36, 0
2, 3479, Note_on_c, 9, 44, 0
2, 3483, Note_on_c, 9, 38, 0
2, 3504, Control_c, 9, 4, 83
2, 3635, Control_c, 9, 4, 120
2, 3639, Control_c, 9, 17, 127
2, 3639, Note_on_c, 9, 51, 77
2, 3676, Control_c, 9, 4, 118
2, 3712, Control_c, 9, 4, 89
2, 3721, Note_on_c, 9, 51, 0
2, 3741, Note_on_c, 9, 36, 40
2, 3742, Control_c, 9, 4, 73
2, 3750, Control_c, 9, 18, 0
2, 3750, Note_on_c, 9, 48, 45
2, 3786, Control_c, 9, 4, 0
2, 3823, Note_on_c, 9, 36, 0
2, 3832, Note_on_c, 9, 48, 0
2, 3855, Control_c, 9, 4, 33
2, 3861, Note_on_c, 9, 44, 127
2, 3876, Note_on_c, 9, 48, 70
2, 3877, Note_on_c, 9, 59, 39
2, 3886, Control_c, 9, 4, 122
2, 3943, Note_on_c, 9, 44, 0
2, 3953, Control_c, 9, 4, 95
2, 3957, Note_on_c, 9, 48, 0
2, 3958, Note_on_c, 9, 59, 0
2, 3994, Note_on_c, 9, 51, 70
2, 4075, Note_on_c, 9, 51, 0
2, 4083, Control_c, 9, 4, 108
2, 4121, Note_on_c, 9, 36, 55
2, 4202, Note_on_c, 9, 36, 0
2, 4210, Control_c, 9, 4, 91
2, 4242, Control_c, 9, 4, 73
2, 4254, Control_c, 9, 17, 127
2, 4255, Note_on_c, 9, 51, 45
2, 4281, Control_c, 9, 4, 0
2, 4336, Note_on_c, 9, 51, 0
2, 4352, Control_c, 9, 4, 33
2, 4357, Note_on_c, 9, 44, 127
2, 4368, Control_c, 9, 16, 0
2, 4369, Note_on_c, 9, 38, 97
2, 4371, Note_on_c, 9, 51, 76
2, 4374, Note_on_c, 9, 36, 72
2, 4383, Control_c, 9, 4, 116
2, 4428, Control_c, 9, 4, 102
2, 4440, Note_on_c, 9, 44, 0
2, 4450, Note_on_c, 9, 38, 0
2, 4452, Note_on_c, 9, 51, 0
2, 4456, Note_on_c, 9, 36, 0
2, 4467, Control_c, 9, 4, 86
2, 4594, Control_c, 9, 4, 118
2, 4601, Control_c, 9, 17, 127
2, 4602, Note_on_c, 9, 51, 70
2, 4672, Control_c, 9, 4, 91
2, 4683, Note_on_c, 9, 51, 0
2, 4715, Note_on_c, 9, 36, 55
2, 4717, Control_c, 9, 17, 127
2, 4717, Note_on_c, 9, 51, 6
2, 4719, Control_c, 9, 18, 0
2, 4720, Note_on_c, 9, 48, 46
2, 4721, Control_c, 9, 4, 70
2, 4754, Control_c, 9, 4, 0
2, 4797, Note_on_c, 9, 36, 0
2, 4799, Note_on_c, 9, 51, 0
2, 4800, Note_on_c, 9, 48, 0
2, 4822, Control_c, 9, 4, 35
2, 4827, Note_on_c, 9, 44, 127
2, 4848, Note_on_c, 9, 48, 68
2, 4848, Note_on_c, 9, 59, 35
2, 4853, Control_c, 9, 4, 127
2, 4900, Control_c, 9, 4, 110
2, 4909, Note_on_c, 9, 44, 0
2, 4929, Note_on_c, 9, 48, 0
2, 4929, Note_on_c, 9, 59, 0
2, 4930, Control_c, 9, 4, 94
2, 4975, Control_c, 9, 17, 100
2, 4976, Note_on_c, 9, 51, 74
2, 5057, Note_on_c, 9, 51, 0
2, 5065, Control_c, 9, 4, 112
2, 5077, Note_on_c, 9, 36, 57
2, 5159, Note_on_c, 9, 36, 0
2, 5181, Control_c, 9, 4, 95
2, 5194, Control_c, 9, 17, 113
2, 5195, Note_on_c, 9, 51, 62
2, 5215, Control_c, 9, 4, 80
2, 5257, Control_c, 9, 4, 0
2, 5277, Note_on_c, 9, 51, 0
2, 5314, Control_c, 9, 4, 34
2, 5319, Note_on_c, 9, 44, 126
2, 5325, Note_on_c, 9, 38, 76
2, 5332, Note_on_c, 9, 36, 71
2, 5345, Control_c, 9, 4, 120
2, 5390, Control_c, 9, 4, 96
2, 5401, Note_on_c, 9, 44, 0
2, 5406, Note_on_c, 9, 38, 0
2, 5413, Note_on_c, 9, 36, 0
2, 5432, Control_c, 9, 4, 84
2, 5546, Control_c, 9, 17, 0
2, 5547, Note_on_c, 9, 51, 52
2, 5554, Control_c, 9, 4, 118
2, 5621, Control_c, 9, 4, 98
2, 5629, Note_on_c, 9, 51, 0
2, 5657, Control_c, 9, 4, 83
2, 5671, Control_c, 9, 18, 0
2, 5671, Note_on_c, 9, 48, 47
2, 5673, Note_on_c, 9, 36, 57
2, 5688, Control_c, 9, 4, 68
2, 5718, Control_c, 9, 4, 0
2, 5753, Note_on_c, 9, 48, 0
2, 5755, Note_on_c, 9, 36, 0
2, 5782, Control_c, 9, 4, 34
2, 5788, Note_on_c, 9, 44, 127
2, 5796, Note_on_c, 9, 48, 71
2, 5802, Control_c, 9, 17, 127
2, 5803, Note_on_c, 9, 51, 65
2, 5813, Control_c, 9, 4, 127
2, 5860, Control_c, 9, 4, 104
2, 5870, Note_on_c, 9, 44, 0
2, 5877, Note_on_c, 9, 48, 0
2, 5884, Note_on_c, 9, 51, 0
2, 5894, Control_c, 9, 4, 92
2, 5915, Control_c, 9, 17, 94
2, 5916, Note_on_c, 9, 51, 68
2, 5997, Note_on_c, 9, 51, 0
2, 6013, Control_c, 9, 4, 112
2, 6028, Note_on_c, 9, 36, 65
2, 6110, Note_on_c, 9, 36, 0
2, 6126, Control_c, 9, 4, 96
2, 6135, Control_c, 9, 17, 127
2, 6136, Note_on_c, 9, 51, 48
2, 6174, Control_c, 9, 4, 70
2, 6210, Control_c, 9, 4, 0
2, 6217, Note_on_c, 9, 51, 0
2, 6262, Control_c, 9, 4, 49
2, 6267, Note_on_c, 9, 44, 113
2, 6272, Control_c, 9, 16, 0
2, 6273, Note_on_c, 9, 38, 77
2, 6276, Note_on_c, 9, 36, 72
2, 6292, Control_c, 9, 4, 122
2, 6348, Note_on_c, 9, 44, 0
2, 6352, Control_c, 9, 4, 90
2, 6354, Note_on_c, 9, 38, 0
2, 6357, Note_on_c, 9, 36, 0
2, 6505, Control_c, 9, 4, 114
2, 6513, Note_on_c, 9, 51, 73
2, 6576, Control_c, 9, 4, 100
2, 6595, Note_on_c, 9, 51, 0
2, 6610, Control_c, 9, 4, 88
2, 6622, Note_on_c, 9, 36, 51
2, 6630, Control_c, 9, 18, 0
2, 6631, Note_on_c, 9, 48, 47
2, 6641, Control_c, 9, 4, 72
2, 6680, Control_c, 9, 4, 0
2, 6705, Note_on_c, 9, 36, 0
2, 6711, Note_on_c, 9, 48, 0
2, 6737, Control_c, 9, 4, 34
2, 6742, Note_on_c, 9, 44, 126
2, 6760, Note_on_c, 9, 48, 64
2, 6765, Note_on_c, 9, 59, 39
2, 6769, Control_c, 9, 4, 127
2, 6811, Control_c, 9, 4, 106
2, 6823, Note_on_c, 9, 44, 0
2, 6840, Note_on_c, 9, 48, 0
2, 6842, Control_c, 9, 4, 93
2, 6847, Note_on_c, 9, 59, 0
2, 6883, Control_c, 9, 17, 127
2, 6884, Note_on_c, 9, 51, 66
2, 6966, Note_on_c, 9, 51, 0
2, 6971, Control_c, 9, 4, 110
2, 6984, Note_on_c, 9, 36, 54
2, 7066, Note_on_c, 9, 36, 0
2, 7070, Control_c, 9, 4, 100
2, 7108, Control_c, 9, 4, 88
2, 7128, Note_on_c, 9, 51, 71
2, 7141, Control_c, 9, 4, 71
2, 7181, Control_c, 9, 4, 0
2, 7209, Note_on_c, 9, 51, 0
2, 7230, Control_c, 9, 4, 34
2, 7237, Note_on_c, 9, 44, 113
2, 7243, Control_c, 9, 17, 127
2, 7244, Note_on_c, 9, 51, 5
2, 7246, Note_on_c, 9, 38, 73
2, 7252, Note_on_c, 9, 36, 75
2, 7262, Control_c, 9, 4, 120
2, 7318, Note_on_c, 9, 44, 0
2, 7320, Control_c, 9, 4, 91
2, 7324, Note_on_c, 9, 51, 0
2, 7326, Note_on_c, 9, 38, 0
2, 7333, Note_on_c, 9, 36, 0
2, 7358, Control_c, 9, 4, 86
2, 7467, Control_c, 9, 4, 110
2, 7486, Note_on_c, 9, 51, 68
2, 7568, Note_on_c, 9, 51, 0
2, 7581, Control_c, 9, 4, 90
2, 7601, Control_c, 9, 17, 127
2, 7604, Control_c, 9, 18, 0
2, 7617, Control_c, 9, 4, 73
2, 7656, Control_c, 9, 4, 0
2, 7657, End_track
0, 0, End_of_file
