0, 0, Header, 1, 2, 480
1, 0, Start_track
1, 0, Tempo, 545454
1, 0, Time_signature, 4, 2, 24, 8
1, 0, Key_signature, 0, "major"
1, 1, End_track
2, 0, Start_track
2, 0, Title_t, "TD-30 #9 Djembe"
2, 0, Program_c, 9, 0
2, 0, Control_c, 9, 17, 59
2, 11, Note_on_c, 9, 48, 59
2, 99, Note_on_c, 9, 48, 0
2, 237, Note_on_c, 9, 48, 60
2, 325, Note_on_c, 9, 48, 0
2, 485, Control_c, 9, 17, 2
2, 486, Note_on_c, 9, 51, 95
2, 492, Note_on_c, 9, 36, 98
2, 505, Control_c, 9, 4, 34
2, 542, Control_c, 9, 4, 0
2, 573, Note_on_c, 9, 51, 0
2, 580, Note_on_c, 9, 36, 0
2, 623, Control_c, 9, 17, 2
2, 624, Note_on_c, 9, 51, 15
2, 709, Note_on_c, 9, 46, 7
2, 711, Note_on_c, 9, 51, 0
2, 730, Control_c, 9, 4, 50
2, 738, Note_on_c, 9, 44, 80
2, 761, Control_c, 9, 4, 69
2, 793, Control_c, 9, 4, 64
2, 797, Note_on_c, 9, 46, 0
2, 827, Note_on_c, 9, 44, 0
2, 843, Control_c, 9, 4, 59
2, 1238, Control_c, 9, 16, 0
2, 1239, Note_on_c, 9, 40, 71
2, 1249, Control_c, 9, 17, 0
2, 1249, Note_on_c, 9, 51, 112
2, 1251, Control_c, 9, 4, 54
2, 1284, Control_c, 9, 4, 38
2, 1318, Control_c, 9, 4, 0
2, 1326, Note_on_c, 9, 40, 0
2, 1338, Note_on_c, 9, 51, 0
2, 1456, Note_on_c, 9, 46, 9
2, 1466, Control_c, 9, 17, 95
2, 1467, Note_on_c, 9, 51, 32
2, 1476, Control_c, 9, 4, 48
2, 1486, Note_on_c, 9, 44, 80
2, 1507, Control_c, 9, 4, 69
2, 1539, Control_c, 9, 4, 63
2, 1543, Note_on_c, 9, 46, 0
2, 1555, Note_on_c, 9, 51, 0
2, 1575, Note_on_c, 9, 44, 0
2, 1593, Control_c, 9, 4, 59
2, 1663, Control_c, 9, 4, 48
2, 1696, Control_c, 9, 4, 33
2, 1707, Control_c, 9, 17, 0
2, 1708, Note_on_c, 9, 51, 67
2, 1731, Control_c, 9, 4, 19
2, 1774, Control_c, 9, 4, 0
2, 1797, Note_on_c, 9, 51, 0
2, 1942, Control_c, 9, 4, 64
2, 1946, Note_on_c, 9, 44, 87
2, 1951, Control_c, 9, 17, 12
2, 1951, Note_on_c, 9, 51, 66
2, 1956, Control_c, 9, 18, 0
2, 1957, Note_on_c, 9, 48, 57
2, 1973, Control_c, 9, 4, 70
2, 2035, Note_on_c, 9, 44, 0
2, 2038, Control_c, 9, 4, 63
2, 2039, Note_on_c, 9, 51, 0
2, 2045, Note_on_c, 9, 48, 0
2, 2074, Control_c, 9, 4, 59
2, 2195, Note_on_c, 9, 48, 58
2, 2283, Note_on_c, 9, 48, 0
2, 2388, Control_c, 9, 4, 55
2, 2422, Control_c, 9, 4, 49
2, 2437, Control_c, 9, 17, 0
2, 2437, Note_on_c, 9, 36, 93
2, 2439, Note_on_c, 9, 51, 102
2, 2456, Control_c, 9, 4, 33
2, 2497, Control_c, 9, 4, 0
2, 2526, Note_on_c, 9, 36, 0
2, 2527, Note_on_c, 9, 51, 0
2, 2632, Control_c, 9, 17, 0
2, 2632, Note_on_c, 9, 51, 16
2, 2647, Note_on_c, 9, 46, 7
2, 2669, Control_c, 9, 4, 66
2, 2674, Note_on_c, 9, 44, 87
2, 2701, Control_c, 9, 4, 69
2, 2720, Note_on_c, 9, 51, 0
2, 2735, Note_on_c, 9, 46, 0
2, 2743, Control_c, 9, 4, 65
2, 2762, Note_on_c, 9, 44, 0
2, 2778, Control_c, 9, 4, 59
2, 3173, Control_c, 9, 16, 127
2, 3173, Note_on_c, 9, 38, 62
2, 3175, Control_c, 9, 17, 13
2, 3176, Note_on_c, 9, 51, 100
2, 3194, Control_c, 9, 4, 46
2, 3234, Control_c, 9, 4, 0
2, 3262, Note_on_c, 9, 38, 0
2, 3264, Note_on_c, 9, 51, 0
2, 3359, Note_on_c, 9, 46, 6
2, 3384, Control_c, 9, 4, 66
2, 3389, Note_on_c, 9, 44, 80
2, 3416, Control_c, 9, 4, 70
2, 3447, Note_on_c, 9, 46, 0
2, 3477, Note_on_c, 9, 44, 0
2, 3481, Control_c, 9, 4, 64
2, 3527, Control_c, 9, 4, 59
2, 3647, Control_c, 9, 4, 46
2, 3649, Control_c, 9, 17, 8
2, 3650, Note_on_c, 9, 51, 87
2, 3690, Control_c, 9, 4, 0
2, 3738, Note_on_c, 9, 51, 0
2, 3856, Control_c, 9, 17, 40
2, 3856, Note_on_c, 9, 51, 71
2, 3865, Control_c, 9, 4, 34
2, 3878, Note_on_c, 9, 44, 74
2, 3892, Note_on_c, 9, 48, 54
2, 3899, Control_c, 9, 4, 69
2, 3932, Control_c, 9, 4, 63
2, 3944, Note_on_c, 9, 51, 0
2, 3966, Note_on_c, 9, 44, 0
2, 3980, Note_on_c, 9, 48, 0
2, 4010, Control_c, 9, 4, 59
2, 4121, Note_on_c, 9, 48, 70
2, 4208, Note_on_c, 9, 48, 0
2, 4374, Control_c, 9, 4, 46
2, 4374, Control_c, 9, 17, 56
2, 4374, Note_on_c, 9, 51, 90
2, 4376, Note_on_c, 9, 36, 82
2, 4415, Control_c, 9, 4, 0
2, 4462, Note_on_c, 9, 51, 0
2, 4465, Note_on_c, 9, 36, 0
2, 4576, Note_on_c, 9, 46, 8
2, 4596, Control_c, 9, 4, 49
2, 4604, Note_on_c, 9, 44, 87
2, 4627, Control_c, 9, 4, 69
2, 4658, Control_c, 9, 4, 64
2, 4664, Note_on_c, 9, 46, 0
2, 4693, Note_on_c, 9, 44, 0
2, 4707, Control_c, 9, 4, 59
2, 4838, Control_c, 9, 4, 55
2, 5077, Control_c, 9, 16, 85
2, 5077, Note_on_c, 9, 38, 60
2, 5090, Control_c, 9, 17, 1
2, 5091, Note_on_c, 9, 51, 107
2, 5110, Control_c, 9, 4, 40
2, 5144, Control_c, 9, 4, 0
2, 5166, Note_on_c, 9, 38, 0
2, 5179, Note_on_c, 9, 51, 0
2, 5298, Control_c, 9, 17, 126
2, 5298, Note_on_c, 9, 51, 34
2, 5319, Control_c, 9, 4, 66
2, 5324, Note_on_c, 9, 44, 80
2, 5352, Control_c, 9, 4, 69
2, 5386, Note_on_c, 9, 51, 0
2, 5408, Control_c, 9, 4, 63
2, 5412, Note_on_c, 9, 44, 0
2, 5444, Control_c, 9, 4, 59
2, 5548, Control_c, 9, 4, 55
2, 5564, Control_c, 9, 17, 14
2, 5565, Note_on_c, 9, 51, 81
2, 5588, Control_c, 9, 4, 38
2, 5623, Control_c, 9, 4, 0
2, 5653, Note_on_c, 9, 51, 0
2, 5778, Control_c, 9, 4, 65
2, 5787, Note_on_c, 9, 44, 67
2, 5807, Control_c, 9, 18, 0
2, 5808, Note_on_c, 9, 48, 61
2, 5814, Control_c, 9, 4, 63
2, 5875, Note_on_c, 9, 44, 0
2, 5896, Note_on_c, 9, 48, 0
2, 5897, Control_c, 9, 4, 59
2, 6043, Note_on_c, 9, 48, 59
2, 6130, Note_on_c, 9, 48, 0
2, 6240, Control_c, 9, 4, 55
2, 6281, Note_on_c, 9, 36, 113
2, 6282, Control_c, 9, 4, 39
2, 6287, Control_c, 9, 17, 6
2, 6287, Note_on_c, 9, 51, 92
2, 6318, Control_c, 9, 4, 0
2, 6369, Note_on_c, 9, 36, 0
2, 6376, Note_on_c, 9, 51, 0
2, 6477, Note_on_c, 9, 46, 7
2, 6502, Control_c, 9, 4, 65
2, 6507, Note_on_c, 9, 44, 80
2, 6533, Control_c, 9, 4, 69
2, 6564, Note_on_c, 9, 46, 0
2, 6589, Control_c, 9, 4, 63
2, 6594, Note_on_c, 9, 44, 0
2, 6625, Control_c, 9, 4, 59
2, 7000, Control_c, 9, 17, 1
2, 7001, Control_c, 9, 4, 54
2, 7001, Note_on_c, 9, 51, 111
2, 7005, Control_c, 9, 16, 0
2, 7005, Note_on_c, 9, 40, 66
2, 7034, Control_c, 9, 4, 37
2, 7066, Control_c, 9, 4, 0
2, 7088, Note_on_c, 9, 51, 0
2, 7094, Note_on_c, 9, 40, 0
2, 7221, Control_c, 9, 17, 72
2, 7221, Note_on_c, 9, 51, 25
2, 7226, Control_c, 9, 4, 48
2, 7236, Note_on_c, 9, 46, 32
2, 7237, Note_on_c, 9, 44, 80
2, 7258, Control_c, 9, 4, 69
2, 7289, Control_c, 9, 4, 63
2, 7310, Note_on_c, 9, 51, 0
2, 7324, Note_on_c, 9, 44, 0
2, 7324, Note_on_c, 9, 46, 0
2, 7346, Control_c, 9, 4, 59
2, 7390, Control_c, 9, 4, 54
2, 7439, Control_c, 9, 4, 41
2, 7471, Control_c, 9, 17, 42
2, 7472, Note_on_c, 9, 51, 69
2, 7479, Control_c, 9, 4, 25
2, 7518, Control_c, 9, 4, 0
2, 7559, Note_on_c, 9, 51, 0
2, 7560, End_track
0, 0, End_of_file
