0, 0, Header, 1, 2, 480
1, 0, Start_track
1, 0, Tempo, 545454
1, 0, Time_signature, 4, 2, 24, 8
1, 0, Key_signature, 0, "major"
1, 1, End_track
2, 0, Start_track
2, 0, Title_t, "TD-30 #9 Djembe"
2, 0, Program_c, 9, 0
2, 0, Control_c, 9, 16, 63
2, 22, Control_c, 9, 16, 64
2, 23, Note_on_c, 9, 38, 63
2, 50, Note_on_c, 9, 38, 0
2, 135, Control_c, 9, 16, 126
2, 135, Note_on_c, 9, 40, 43
2, 169, Control_c, 9, 4, 83
2, 224, Note_on_c, 9, 40, 0
2, 253, Control_c, 9, 16, 0
2, 253, Note_on_c, 9, 38, 44
2, 342, Note_on_c, 9, 38, 0
2, 467, Control_c, 9, 4, 89
2, 514, Note_on_c, 9, 36, 97
2, 516, Control_c, 9, 17, 63
2, 516, Note_on_c, 9, 51, 92
2, 590, Control_c, 9, 4, 74
2, 603, Note_on_c, 9, 36, 0
2, 605, Note_on_c, 9, 51, 0
2, 624, Control_c, 9, 4, 56
2, 655, Control_c, 9, 4, 0
2, 715, Control_c, 9, 4, 65
2, 717, Note_on_c, 9, 44, 93
2, 728, Control_c, 9, 17, 127
2, 728, Note_on_c, 9, 51, 47
2, 745, Control_c, 9, 4, 97
2, 806, Note_on_c, 9, 44, 0
2, 811, Control_c, 9, 4, 84
2, 817, Note_on_c, 9, 51, 0
2, 859, Control_c, 9, 4, 80
2, 889, Note_on_c, 9, 51, 57
2, 926, Control_c, 9, 4, 86
2, 977, Note_on_c, 9, 51, 0
2, 998, Note_on_c, 9, 51, 63
2, 1086, Note_on_c, 9, 51, 0
2, 1225, Control_c, 9, 4, 90
2, 1236, Control_c, 9, 16, 35
2, 1237, Note_on_c, 9, 40, 69
2, 1244, Control_c, 9, 17, 127
2, 1245, Note_on_c, 9, 51, 92
2, 1296, Control_c, 9, 16, 63
2, 1297, Note_on_c, 9, 38, 13
2, 1325, Note_on_c, 9, 40, 0
2, 1332, Note_on_c, 9, 51, 0
2, 1347, Control_c, 9, 4, 84
2, 1385, Note_on_c, 9, 38, 0
2, 1466, Control_c, 9, 17, 0
2, 1467, Note_on_c, 9, 51, 49
2, 1535, Control_c, 9, 4, 77
2, 1555, Note_on_c, 9, 51, 0
2, 1572, Control_c, 9, 4, 57
2, 1597, Control_c, 9, 16, 0
2, 1597, Note_on_c, 9, 38, 5
2, 1607, Control_c, 9, 4, 0
2, 1668, Note_on_c, 9, 44, 93
2, 1681, Control_c, 9, 4, 102
2, 1686, Note_on_c, 9, 38, 0
2, 1701, Control_c, 9, 17, 91
2, 1702, Note_on_c, 9, 51, 79
2, 1722, Control_c, 9, 4, 97
2, 1757, Note_on_c, 9, 44, 0
2, 1762, Control_c, 9, 4, 84
2, 1790, Note_on_c, 9, 51, 0
2, 1811, Control_c, 9, 4, 80
2, 1886, Control_c, 9, 4, 95
2, 1956, Control_c, 9, 17, 107
2, 1957, Note_on_c, 9, 51, 85
2, 1959, Control_c, 9, 18, 0
2, 1960, Note_on_c, 9, 48, 71
2, 1962, Control_c, 9, 4, 91
2, 2044, Note_on_c, 9, 51, 0
2, 2046, Note_on_c, 9, 48, 0
2, 2088, Control_c, 9, 4, 86
2, 2181, Control_c, 9, 17, 127
2, 2182, Note_on_c, 9, 51, 40
2, 2270, Note_on_c, 9, 51, 0
2, 2418, Control_c, 9, 4, 90
2, 2418, Control_c, 9, 17, 46
2, 2419, Note_on_c, 9, 51, 98
2, 2420, Note_on_c, 9, 36, 72
2, 2507, Note_on_c, 9, 36, 0
2, 2507, Note_on_c, 9, 51, 0
2, 2518, Control_c, 9, 4, 76
2, 2556, Control_c, 9, 4, 56
2, 2587, Control_c, 9, 4, 0
2, 2645, Note_on_c, 9, 44, 87
2, 2649, Control_c, 9, 17, 127
2, 2649, Note_on_c, 9, 51, 56
2, 2659, Control_c, 9, 4, 99
2, 2698, Control_c, 9, 4, 97
2, 2733, Note_on_c, 9, 44, 0
2, 2737, Note_on_c, 9, 51, 0
2, 2744, Control_c, 9, 4, 84
2, 2786, Control_c, 9, 17, 47
2, 2787, Note_on_c, 9, 51, 58
2, 2866, Control_c, 9, 4, 89
2, 2875, Note_on_c, 9, 51, 0
2, 2892, Control_c, 9, 17, 59
2, 2893, Note_on_c, 9, 51, 64
2, 2910, Control_c, 9, 4, 85
2, 2980, Note_on_c, 9, 51, 0
2, 3155, Control_c, 9, 17, 127
2, 3155, Note_on_c, 9, 51, 90
2, 3166, Note_on_c, 9, 40, 72
2, 3183, Control_c, 9, 4, 90
2, 3245, Note_on_c, 9, 51, 0
2, 3256, Note_on_c, 9, 40, 0
2, 3293, Control_c, 9, 4, 76
2, 3331, Control_c, 9, 4, 57
2, 3365, Control_c, 9, 4, 14
2, 3396, Control_c, 9, 17, 127
2, 3396, Note_on_c, 9, 51, 42
2, 3400, Control_c, 9, 4, 57
2, 3405, Note_on_c, 9, 44, 74
2, 3432, Control_c, 9, 4, 106
2, 3471, Control_c, 9, 4, 97
2, 3485, Note_on_c, 9, 51, 0
2, 3493, Note_on_c, 9, 44, 0
2, 3517, Control_c, 9, 4, 84
2, 3630, Control_c, 9, 4, 94
2, 3630, Control_c, 9, 17, 47
2, 3631, Note_on_c, 9, 51, 79
2, 3710, Control_c, 9, 4, 89
2, 3718, Note_on_c, 9, 51, 0
2, 3752, Control_c, 9, 4, 77
2, 3792, Control_c, 9, 4, 57
2, 3828, Control_c, 9, 4, 0
2, 3881, Control_c, 9, 4, 64
2, 3885, Note_on_c, 9, 44, 87
2, 3889, Control_c, 9, 17, 43
2, 3889, Note_on_c, 9, 51, 106
2, 3892, Note_on_c, 9, 40, 65
2, 3912, Control_c, 9, 4, 98
2, 3973, Note_on_c, 9, 44, 0
2, 3977, Note_on_c, 9, 51, 0
2, 3979, Note_on_c, 9, 40, 0
2, 3987, Control_c, 9, 4, 85
2, 4025, Control_c, 9, 4, 81
2, 4077, Control_c, 9, 4, 88
2, 4112, Control_c, 9, 17, 127
2, 4113, Note_on_c, 9, 51, 33
2, 4201, Note_on_c, 9, 51, 0
2, 4243, Control_c, 9, 16, 0
2, 4244, Note_on_c, 9, 38, 13
2, 4332, Note_on_c, 9, 38, 0
2, 4359, Note_on_c, 9, 36, 82
2, 4360, Control_c, 9, 17, 35
2, 4361, Note_on_c, 9, 51, 90
2, 4447, Note_on_c, 9, 36, 0
2, 4447, Note_on_c, 9, 51, 0
2, 4458, Control_c, 9, 4, 73
2, 4499, Control_c, 9, 4, 49
2, 4531, Control_c, 9, 4, 0
2, 4576, Control_c, 9, 17, 127
2, 4577, Note_on_c, 9, 51, 58
2, 4578, Control_c, 9, 4, 64
2, 4581, Note_on_c, 9, 44, 87
2, 4608, Control_c, 9, 4, 100
2, 4652, Control_c, 9, 4, 92
2, 4665, Note_on_c, 9, 51, 0
2, 4669, Note_on_c, 9, 44, 0
2, 4707, Control_c, 9, 4, 80
2, 4715, Control_c, 9, 17, 41
2, 4715, Note_on_c, 9, 51, 53
2, 4796, Control_c, 9, 4, 88
2, 4803, Note_on_c, 9, 51, 0
2, 4830, Control_c, 9, 17, 70
2, 4831, Note_on_c, 9, 51, 52
2, 4852, Control_c, 9, 4, 84
2, 4919, Note_on_c, 9, 51, 0
2, 5082, Control_c, 9, 16, 126
2, 5082, Note_on_c, 9, 40, 60
2, 5084, Control_c, 9, 17, 101
2, 5085, Note_on_c, 9, 51, 102
2, 5109, Control_c, 9, 4, 89
2, 5170, Note_on_c, 9, 40, 0
2, 5172, Note_on_c, 9, 51, 0
2, 5228, Control_c, 9, 4, 72
2, 5280, Control_c, 9, 4, 35
2, 5319, Control_c, 9, 17, 127
2, 5319, Note_on_c, 9, 51, 46
2, 5323, Control_c, 9, 4, 59
2, 5330, Note_on_c, 9, 44, 48
2, 5357, Control_c, 9, 4, 106
2, 5408, Note_on_c, 9, 51, 0
2, 5412, Control_c, 9, 4, 91
2, 5418, Note_on_c, 9, 44, 0
2, 5442, Control_c, 9, 4, 84
2, 5555, Control_c, 9, 4, 95
2, 5557, Control_c, 9, 17, 51
2, 5557, Note_on_c, 9, 51, 82
2, 5646, Note_on_c, 9, 51, 0
2, 5653, Control_c, 9, 4, 83
2, 5689, Control_c, 9, 4, 70
2, 5736, Control_c, 9, 4, 0
2, 5796, Control_c, 9, 4, 48
2, 5802, Note_on_c, 9, 44, 100
2, 5806, Control_c, 9, 17, 100
2, 5807, Note_on_c, 9, 51, 99
2, 5812, Control_c, 9, 16, 0
2, 5813, Note_on_c, 9, 40, 62
2, 5829, Control_c, 9, 4, 104
2, 5875, Control_c, 9, 4, 90
2, 5890, Note_on_c, 9, 44, 0
2, 5895, Note_on_c, 9, 51, 0
2, 5900, Note_on_c, 9, 40, 0
2, 5920, Control_c, 9, 4, 78
2, 6014, Control_c, 9, 4, 91
2, 6038, Control_c, 9, 17, 127
2, 6038, Note_on_c, 9, 51, 51
2, 6065, Control_c, 9, 4, 85
2, 6127, Note_on_c, 9, 51, 0
2, 6176, Note_on_c, 9, 40, 15
2, 6235, Control_c, 9, 4, 90
2, 6263, Control_c, 9, 17, 97
2, 6263, Note_on_c, 9, 51, 114
2, 6264, Note_on_c, 9, 40, 0
2, 6265, Note_on_c, 9, 36, 107
2, 6318, Control_c, 9, 4, 84
2, 6340, Note_on_c, 9, 38, 13
2, 6352, Control_c, 9, 4, 69
2, 6352, Note_on_c, 9, 36, 0
2, 6352, Note_on_c, 9, 51, 0
2, 6388, Control_c, 9, 4, 0
2, 6400, Note_on_c, 9, 38, 0
2, 6401, Note_on_c, 9, 38, 6
2, 6427, Note_on_c, 9, 38, 0
2, 6469, Note_on_c, 9, 46, 9
2, 6487, Note_on_c, 9, 44, 113
2, 6490, Control_c, 9, 4, 93
2, 6515, Control_c, 9, 16, 0
2, 6517, Note_on_c, 9, 38, 27
2, 6537, Control_c, 9, 4, 64
2, 6558, Note_on_c, 9, 46, 0
2, 6573, Control_c, 9, 4, 29
2, 6577, Note_on_c, 9, 44, 0
2, 6599, Note_on_c, 9, 38, 0
2, 6600, Note_on_c, 9, 38, 31
2, 6605, Note_on_c, 9, 38, 0
2, 6622, Control_c, 9, 4, 40
2, 6654, Control_c, 9, 16, 0
2, 6654, Note_on_c, 9, 38, 29
2, 6663, Control_c, 9, 4, 66
2, 6687, Note_on_c, 9, 38, 0
2, 6735, Control_c, 9, 16, 127
2, 6735, Note_on_c, 9, 40, 60
2, 6823, Note_on_c, 9, 40, 0
2, 6856, Control_c, 9, 16, 0
2, 6856, Note_on_c, 9, 38, 21
2, 6944, Note_on_c, 9, 38, 0
2, 6976, Note_on_c, 9, 40, 23
2, 7064, Note_on_c, 9, 40, 0
2, 7105, Note_on_c, 9, 40, 29
2, 7193, Note_on_c, 9, 40, 0
2, 7211, Control_c, 9, 16, 0
2, 7211, Note_on_c, 9, 40, 69
2, 7300, Note_on_c, 9, 40, 0
2, 7351, Control_c, 9, 16, 126
2, 7351, Note_on_c, 9, 40, 8
2, 7440, Note_on_c, 9, 40, 0
2, 7451, Control_c, 9, 16, 0
2, 7452, Note_on_c, 9, 40, 68
2, 7539, Note_on_c, 9, 40, 0
2, 7581, Note_on_c, 9, 38, 25
2, 7669, Note_on_c, 9, 38, 0
2, 7670, End_track
0, 0, End_of_file
